<?xml version="1.0" encoding="utf-8"?>
<!-- Generator: Adobe Illustrator 25.2.0, SVG Export Plug-In . SVG Version: 6.00 Build 0)  -->
<svg version="1.1" xmlns="http://www.w3.org/2000/svg" xmlns:xlink="http://www.w3.org/1999/xlink" x="0px" y="0px"
     viewBox="0 0 600 600" style="enable-background:new 0 0 600 600;" xml:space="preserve">
<style type="text/css">
	.st0{fill:#262532;}
	.st1{fill:#F39200;}
</style>
    <g id="Laag_2">
	<circle class="st0" cx="300" cy="300" r="297.6"/>
</g>
    <g id="Laag_1">
	<path id="Right" class="st1" d="M291.4,36c0.1-4.1,0.2-5.6,0.2-7.4c0-1.3-4.8,4.1-5.9,5.2c-7.5,8-14,16.9-19.2,26.5
		c-8.1,15.2-11.5,34.7-11.8,46.6l-1.4,54.6c-0.1,2.1-0.9,4-2.4,5.4l-2.9,2.8c-0.2,0.2-0.6,0.2-0.8,0c-0.1-0.1-0.2-0.2-0.2-0.4
		l0-36.8c0-1.7-7,4.7-15.1,15.7c-4.4,6.1-8,12.7-10.7,19.7c-2.6,8.8-4.7,17.7-6,26.8c-1.1,7.6-1.5,15.3-1.4,23
		c-0.1,0.3-0.2,0.6-0.2,1l-1.1,32.5c-0.1,1.8-0.8,3.5-2.1,4.8c-1.4,1.3-1.7,1.6-3.2,3.1c-0.2,0.2-0.5,0.2-0.7,0
		c-0.1-0.1-0.1-0.2-0.1-0.4l0.1-30.6c0.7-3.3-15.3,9.3-21.3,23.7c-5.2,12.3-6,27.2-6,27.2l-1.3,147c0,0.3,0.5,11.7-14.6,23.3
		c-10.8,8.3-10.7,14.9-10.7,14.9c-0.4,0.5-1.3,61.1-1.3,61.1c0,2.1-0.7,4.8,4.1,2.9l49.5-18c1.3-0.5,2.2-1.7,2.2-3.1l-1.3-159.7
		c0.1-4.4,2.1-8.5,5.5-11.3c10.7-8.4,17.2-1.9,17-7.2l0.6-39c0.1-5,3.3-10.4,12.9-18.8l14-13c2.7-2.5,2.5-3.8,2.8-5.6
		c0.8-5.8,2.3-10.9,8.4-21.5c4.5-7.5,9.6-14.6,15.4-21.2c3.3-3.9,5.6-6.2,8.6-9.4c0.5-0.6,0.8-1.3,0.8-2.1L291.4,36z"/>
        <path id="Right_-_Center" class="st1" d="M258.2,264.9c0-0.2-0.2-0.4-0.4-0.4c-0.1,0-0.2,0-0.3,0.1l-14,13.1
		c-5.3,4.8-8.4,10.6-8.5,14.4l-0.2,37.4c0,0.7,0.5,1.3,1.2,1.3c5.9,0,11.7-2,16.3-5.8c5.6-4.5,5.7-12.2,5.7-12.4L258.2,264.9z"/>
        <path id="Right_-_Outer" class="st1" d="M171.8,347.9c0-0.3-0.2-0.5-0.5-0.5c-0.1,0-0.2,0-0.3,0.1l-13.4,12.7
		c-5,5.7-4.7,13.3-4.8,15.1l-0.6,74.5c0,0.5,0.4,0.8,0.8,0.9c0.2,0,0.4-0.1,0.6-0.2l13.3-12.4c2.7-2.7,4.3-6.3,4.4-10.1L171.8,347.9
		z"/>
        <path id="Left" class="st1" d="M308.6,36c-0.1-4.1-0.2-5.6-0.2-7.4c0-1.3,4.8,4.1,5.9,5.2c7.5,8,14,16.9,19.2,26.5
		c8.1,15.2,11.5,34.7,11.8,46.6l1.4,54.6c0.1,2.1,0.9,4,2.4,5.4l2.9,2.8c0.2,0.2,0.6,0.2,0.8,0c0.1-0.1,0.2-0.2,0.2-0.4l0-36.8
		c0-1.7,7,4.7,15.1,15.7c4.4,6.1,8,12.7,10.7,19.7c2.6,8.8,4.7,17.7,6,26.8c1.1,7.6,1.5,15.3,1.4,23c0.1,0.3,0.2,0.6,0.2,1l1.1,32.5
		c0.1,1.8,0.8,3.5,2.1,4.8c1.4,1.3,1.7,1.6,3.2,3.1c0.2,0.2,0.5,0.2,0.7,0c0.1-0.1,0.1-0.2,0.1-0.4l-0.1-30.6
		c-0.7-3.3,15.3,9.3,21.3,23.7c5.2,12.3,6,27.2,6,27.2l1.3,147c0,0.3-0.5,11.7,14.6,23.3c10.8,8.3,10.7,14.9,10.7,14.9
		c0.4,0.5,1.3,61.1,1.3,61.1c0,2.1,0.7,4.8-4.1,2.9l-49.5-18c-1.3-0.5-2.2-1.7-2.2-3.1l1.3-159.7c-0.1-4.4-2.1-8.5-5.5-11.3
		c-10.7-8.4-17.2-1.9-17-7.2l-0.6-39c-0.1-5-3.3-10.4-12.9-18.8l-14-13c-2.7-2.5-2.5-3.8-2.8-5.6c-0.8-5.8-2.3-10.9-8.4-21.5
		c-4.5-7.5-9.6-14.6-15.4-21.2c-3.3-3.9-5.6-6.2-8.6-9.4c-0.5-0.6-0.8-1.3-0.8-2.1L308.6,36z"/>
        <path id="Left_-_Center" class="st1" d="M341.8,264.9c0-0.2,0.2-0.4,0.4-0.4c0.1,0,0.2,0,0.3,0.1l14,13.1
		c5.3,4.8,8.4,10.6,8.5,14.4l0.2,37.4c0,0.7-0.5,1.3-1.2,1.3c-5.9,0-11.7-2-16.3-5.8c-5.6-4.5-5.7-12.2-5.7-12.4L341.8,264.9z"/>
        <path id="Left_-_Outer" class="st1" d="M428.2,347.9c0-0.3,0.2-0.5,0.5-0.5c0.1,0,0.2,0,0.3,0.1l13.4,12.7c5,5.7,4.7,13.3,4.8,15.1
		l0.6,74.5c0,0.5-0.4,0.8-0.8,0.9c-0.2,0-0.4-0.1-0.6-0.2L433.1,438c-2.7-2.7-4.3-6.3-4.4-10.1L428.2,347.9z"/>
        <path id="Center" class="st1" d="M388.6,357.3L386,500.9c-0.3,4.8-2.8,2.2-3.1,1.7l-42.7-60.4c-0.8-1.2-1.4-2.5-1.7-3.9l-2.7-14.4
		c-0.3-1.8,0.1-3.7,1.2-5.2l12.8-16.9l3.3-5c1.4-3.2,2-6.8,1.6-10.3c-0.2-3.2-2.2-7.9-5-11.2c-5.2-6-15.5-9.4-21.6-9.2l-28.2,0h0
		l-28.2,0c-6.1-0.2-16.5,3.1-21.6,9.2c-2.8,3.3-4.8,8-5,11.2c-0.4,3.5,0.2,7.1,1.6,10.3l3.3,5l12.8,16.9c1.1,1.5,1.6,3.4,1.2,5.2
		l-2.7,14.4c-0.3,1.4-0.8,2.7-1.7,3.9l-42.7,60.4c-0.3,0.4-2.9,3.1-3.1-1.7l-2.6-143.6c0,0-0.4-7,1.3-11c0.5-1.2,2.6-7.6,11.3-7.9
		c8.7-0.3,9.9-0.4,13.1-0.9c1-0.2,10.3-1.9,17.3-6.6c6.2-4.2,8.3-13.8,8.3-13.8c0.7-3.1,1.1-6.2,1.2-9.4l1-43.9
		c-0.3-2.2-0.3-20.1,10.4-34.7c10.5-14.4,20.4-27.1,24.7-27.2h0.1c4.2,0.1,14.1,12.8,24.7,27.2c10.6,14.6,10.6,32.5,10.4,34.7
		l1,43.9c0.1,3.2,0.5,6.3,1.2,9.4c0,0,2.1,9.6,8.3,13.8c7,4.7,16.4,6.4,17.3,6.6c3.2,0.5,4.4,0.6,13.1,0.9
		c8.7,0.3,10.8,6.7,11.3,7.9C389,350.2,388.6,357.3,388.6,357.3z"/>
</g>
</svg>
