<svg id="Laag_1" data-name="Laag 1" xmlns="http://www.w3.org/2000/svg" viewBox="0 0 281.12142 472.54793">
    <path id="Right"
          d="M133.74549,8.64107c.09406-3.83318.15-5.32528.18872-7.03054.02849-1.25487-4.54844,3.83163-5.56475,4.92641a123.06269,123.06269,0,0,0-18.15028,25.0578c-7.62924,14.36188-10.87362,32.74592-11.14737,43.98947l-1.32037,51.57107a7.38461,7.38461,0,0,1-2.26991,5.13987l-2.75466,2.64268a.52017.52017,0,0,1-.88028-.375l-.02215-34.77333c0-1.61659-6.58421,4.45264-14.25789,14.82632a87.96792,87.96792,0,0,0-10.11908,18.5755A176.91507,176.91507,0,0,0,61.79286,158.479a140.57993,140.57993,0,0,0-1.29316,21.71872,2.83253,2.83253,0,0,0-.1917.93207l-1.00995,30.71609a6.55189,6.55189,0,0,1-2.00656,4.50728c-1.30731,1.25732-1.60539,1.54448-3.003,2.89209a.49487.49487,0,0,1-.8402-.35738l.11827-28.89308c.69473-3.1579-14.4,8.77894-20.14737,22.421-4.881,11.58556-5.69045,25.68951-5.69045,25.68951l-1.2186,138.73211c-.00264.30094.48889,11.07815-13.80674,22.02048-10.23158,7.83158-10.14433,14.0726-10.14433,14.0726-.38455.49942-1.21019,57.68353-1.21019,57.68353-.022,2.028-.7015,4.49124,3.89489,2.76224l46.767-16.96038a3.09954,3.09954,0,0,0,2.04272-2.9398L52.79173,302.70016A14.71008,14.71008,0,0,1,57.956,291.99472C68.0297,284.1,74.179,290.22632,74.03091,285.21063l.58094-36.79193c.08815-4.70817,3.11973-9.824,12.1671-17.78186l13.26316-12.26842c2.58947-2.33684,2.38929-3.60228,2.60526-5.25789.713-5.46569,2.14023-10.29474,7.8876-20.33685a132.37878,132.37878,0,0,1,14.5421-20.03684c3.09263-3.66232,5.316-5.85624,8.08791-8.87265a3.39742,3.39742,0,0,0,.76919-1.98815Z"
          transform="translate(-1.30142 -1.41283)" style="fill:#f39200"/>
    <path id="Right_-_Center" data-name="Right - Center"
          d="M102.41053,224.71579a.41581.41581,0,0,0-.6944-.30869L88.52371,236.733c-5.01318,4.49066-7.97371,9.96172-8.00013,13.55583L80.30265,285.585a1.20292,1.20292,0,0,0,1.17171,1.22028,23.87518,23.87518,0,0,0,15.34669-5.50795c5.26093-4.21174,5.37147-11.48633,5.37263-11.72594Z"
          transform="translate(-1.30142 -1.41283)" style="fill:#f39200"/>
    <path id="Right_-_Outer" data-name="Right - Outer"
          d="M20.82252,303.07609a.44354.44354,0,0,0-.74788-.33081L7.38947,314.71579c-4.68947,5.35263-4.47575,12.59086-4.5,14.25789l-.58712,70.308a.794.794,0,0,0,1.3581.5701l12.58692-11.71492a13.84505,13.84505,0,0,0,4.16842-9.52105Z"
          transform="translate(-1.30142 -1.41283)" style="fill:#f39200"/>
    <path id="Left"
          d="M149.97877,8.64107c-.09406-3.83318-.15-5.32528-.18872-7.03054-.02849-1.25487,4.54844,3.83163,5.56475,4.92641a123.06269,123.06269,0,0,1,18.15028,25.0578c7.62924,14.36188,10.87361,32.74592,11.14737,43.98947l1.32037,51.57107a7.38461,7.38461,0,0,0,2.26991,5.13987l2.75466,2.64268a.52017.52017,0,0,0,.88028-.375l.02215-34.77333c0-1.61659,6.58421,4.45264,14.25789,14.82632a87.96792,87.96792,0,0,1,10.11908,18.5755A176.91507,176.91507,0,0,1,221.9314,158.479a140.57993,140.57993,0,0,1,1.29316,21.71872,2.83253,2.83253,0,0,1,.1917.93207l1.00994,30.71609a6.55194,6.55194,0,0,0,2.00657,4.50728c1.30731,1.25732,1.60539,1.54448,3.003,2.89209a.49487.49487,0,0,0,.8402-.35738l-.11827-28.89308c-.69473-3.1579,14.4,8.77894,20.14737,22.421,4.88095,11.58556,5.69045,25.68951,5.69045,25.68951l1.2186,138.73211c.00264.30094-.48889,11.07815,13.80674,22.02048,10.23158,7.83158,10.14432,14.0726,10.14432,14.0726.38455.49942,1.21019,57.68353,1.21019,57.68353.022,2.028.70151,4.49124-3.89488,2.76224l-46.767-16.96038a3.09954,3.09954,0,0,1-2.04272-2.9398l1.26173-150.77592a14.71,14.71,0,0,0-5.1643-10.70544c-10.07367-7.89472-16.22292-1.7684-16.07489-6.78409l-.58093-36.79193c-.08815-4.70817-3.11973-9.824-12.1671-17.78186l-13.26316-12.26842c-2.58947-2.33684-2.38929-3.60228-2.60526-5.25789-.713-5.46569-2.14023-10.29474-7.8876-20.33685a132.37947,132.37947,0,0,0-14.5421-20.03684c-3.09263-3.66232-5.316-5.85624-8.08791-8.87265a3.39742,3.39742,0,0,1-.76919-1.98815Z"
          transform="translate(-1.30142 -1.41283)" style="fill:#f39200"/>
    <path id="Left_-_Center" data-name="Left - Center"
          d="M181.31373,224.71579a.41581.41581,0,0,1,.6944-.30869L195.20054,236.733c5.01319,4.49066,7.97372,9.96172,8.00014,13.55583l.22093,35.29619a1.20293,1.20293,0,0,1-1.17171,1.22028,23.87518,23.87518,0,0,1-15.34669-5.50795c-5.26093-4.21174-5.37148-11.48633-5.37263-11.72594Z"
          transform="translate(-1.30142 -1.41283)" style="fill:#f39200"/>
    <path id="Left_-_Outer" data-name="Left - Outer"
          d="M262.90174,303.07609a.44353.44353,0,0,1,.74787-.33081l12.68518,11.97051c4.68947,5.35263,4.47575,12.59086,4.5,14.25789l.58712,70.308a.794.794,0,0,1-1.3581.5701l-12.58692-11.71492a13.84505,13.84505,0,0,1-4.16842-9.52105Z"
          transform="translate(-1.30142 -1.41283)" style="fill:#f39200"/>
    <path id="Center"
          d="M225.4774,311.90789l-2.47,135.59c-.25,4.54-2.68,2.04-2.95,1.65l-40.3-56.98a9.15965,9.15965,0,0,1-1.57-3.67l-2.53-13.57a6.22253,6.22253,0,0,1,1.16-4.9l12.08-16,3.15-4.76a19.14268,19.14268,0,0,0,1.55-9.73c-.17-3.03-2.06-7.44-4.7-10.55-4.87-5.71-14.63-8.87-20.4-8.65l-26.62-.03h-.03l-26.62.03c-5.77-.22-15.53,2.94-20.4,8.65-2.64,3.11005-4.53,7.52-4.7,10.55a19.14275,19.14275,0,0,0,1.55,9.73l3.15,4.76,12.08,16a6.22249,6.22249,0,0,1,1.16,4.9l-2.53,13.57a9.30208,9.30208,0,0,1-1.57,3.67l-40.3,56.98c-.27.39-2.7,2.89-2.95-1.65l-2.47-135.59s-.39-6.65,1.22-10.43c.48-1.11,2.49-7.17,10.66-7.46,8.22-.29,9.37-.38,12.41-.85.93-.15,9.74-1.76,16.37-6.21,5.87-3.95,7.81-13.04,7.81-13.04a45.13352,45.13352,0,0,0,1.1-8.89l.93-41.45c-.24-2.1-.25-18.97,9.8-32.74,9.95-13.62,19.26-25.61,23.28-25.71h.05c4.01.06,13.33,12.07,23.3,25.71,10.05,13.77,10.03,30.64,9.8,32.74l.93,41.45a45.13353,45.13353,0,0,0,1.1,8.89s1.94,9.09,7.81,13.04c6.63,4.45,15.44,6.06,16.37,6.21,3.04.47,4.19.56,12.41.85,8.17.29,10.18,6.35,10.66,7.46C225.86735,305.25787,225.4774,311.90789,225.4774,311.90789Z"
          transform="translate(-1.30142 -1.41283)" style="fill:#f39200"/>
</svg>