<svg xmlns="http://www.w3.org/2000/svg" viewBox="0 0 1500 1500"><title>Adder</title><g id="Adder"><g id="Colour"><path d="M1411.67,1150.19a111.43,111.43,0,0,0-4.78-27.52c-6.92-21.54-14.27-43-22.55-64-10.41-26.47-22.49-52.25-39.67-75.17-11-14.69-16.69-32.06-25.2-48-17.78-33.27-35.72-66.46-54.12-99.38-5.66-10.14-12.76-19.53-19.73-28.86-7.22-9.68-15.08-18.87-22.66-28.27s-15.15-18.81-22.71-28.23c-8.69-10.81-17.34-21.66-26.06-32.45-9.75-12.07-19.41-24.22-29.38-36.11-9.54-11.37-19.47-22.42-29.16-33.68-10.86-12.6-21.6-25.31-32.48-37.91-7.81-9.05-15.85-17.91-23.62-27-14.08-16.49-27.84-33.27-42.09-49.62-11.35-13-23.46-25.35-34.79-38.37-5.76-6.61-12.11-13.4-15.48-21.27-10.91-25.5-20.48-51.57-30.77-77.33-2.37-5.92-3.64-12.63-9.66-16.49-6.19-4-12.11-8.44-18.61-11.79a12.18,12.18,0,0,0-9.69-.11c-6.52,3.3-12.29,8.05-18.67,11.67-15.48,8.78-31.35,16.88-46.63,26-7.19,4.29-12.17,3.26-18.16-2-6.27-5.5-13-11-21.92-11.3-12.27-24.48-24.39-48.8-36.63-73.07-7.92-15.71-16.15-31.28-24-47.05-4.25-8.57-9.81-15.71-18.41-20.2-2.23-1.16-4.39-2.45-6.66-3.52-11-5.21-19.25-15.7-32.9-15.81-5.31,0-9.73,1-12.24,6.11-5.44,11.12-10.67,22.33-16.12,33.44-10.73,21.89-21.58,43.71-32.31,65.6-3,6.09-5,12.5-3.3,19.35,2.67,10.93,5.27,21.9,8.56,32.66a17.4,17.4,0,0,1-.49,12.23c-1.18,3-2.42,5.92-3.64,8.87-.11-.47-.21-.94-.31-1.42-12.94,3.38-25.82,7-38.82,10.05-6.93,1.65-13.22,6.85-21.11,3.94-1.27-.47-3.14.36-4.63.87-6.91,2.37-7.09,8.78-8,14.38-.48,2.88-.85,4.85-3.68,6.46-14.19,8.07-28.3,16.28-42.24,24.77-3.32,2-5.32,1.54-8.71,0-4-1.82-8.36-6.24-13.27-2.32-2.84,2.27-5,5.45-7.4,8.22-2.75,3.14-5.21,6.6-8.28,9.37-12,10.78-25,20.57-36,32.28-7.28,7.78-13.86,10-23.14,5.68-1-.45-2.13-.49-3.06-1-4.85-2.55-8.46.27-11.67,3.09-2.39,2.09-4,5-6.09,7.75a20.57,20.57,0,0,1-3.09-1.75c-8.26-6.72-16.38-13.62-24.74-20.22q-21.84-17.22-43.93-34.12c-8.27-6.33-16.33-13.13-25.29-18.35-11.32-6.6-14-6.3-21.25,3.29-2.1,2.78-5.7,4.65-4.25,8.92.8,2.35,1.54,5,3.13,6.76,4.66,5.12,9.55,10.06,14.67,14.72,8.64,7.84,17.61,15.32,26.27,23.14,6.83,6.15,13.37,12.62,20.1,18.86a44.41,44.41,0,0,0,5.56,4.28c2.64,1.77,5.59,3.13,8.08,5.09,7.49,5.89,14.82,12,22.54,18.25-1.36,1.84-2.71,3.5-3.86,5.28-2.53,3.89-6.73,7.76-6.9,11.79a12.13,12.13,0,0,1-3.37,8.22c-7.27,8.08-13.54,16.79-17.72,26.84-3.42,8.22-5.32,17.3-.05,24.8,4.67,6.64,4.77,11.93.93,18.33a40,40,0,0,0-3.64,7.82c-1,3-1.52,6.22-2.33,9.66-1.36.72-4.89,1.39-5.66,3.22a72.4,72.4,0,0,0-4.84,16.92c-.74,4.94-2,9.23-6.74,11.13-5.66,2.29-7.8,6.62-8.92,12.06a25.28,25.28,0,0,1-2.14,6.06c-1.33,2.71-2.37,6-4.57,7.75-6.32,5-13.19,9.29-19.82,13.9q-29.81,20.73-59.6,41.47c-18.87,13.09-37.67,26.27-56.69,39.14-10.69,7.23-21.79,13.86-32.65,20.84-5.71,3.67-11.65,7.09-16.84,11.4s-4.76,9.52-.14,14c2.72,2.65,5.76,5,8.55,7.55,9.31,8.65,19.55,14.83,32.44,17.61,22.19,4.79,44,11.28,66,16.9,12.65,3.23,25.37,6.15,38.05,9.22,16.63,4,33.81,5.94,49.6,13.22,14.43,6.67,29,12.95,43.47,19.63,15.53,7.2,30.85,14.84,46.41,22,16.74,7.66,33.64,14.94,50.48,22.39q22.25,9.82,44.51,19.66,30.11,13.33,60.19,26.71c9.42,4.2,18.7,8.73,28.19,12.77,24.61,10.49,49.33,20.73,74,31.19,18.81,8,37.52,16.22,56.31,24.26q27.87,11.92,55.81,23.67c26.07,11,51.89,22.51,79.54,29.26,24.84,6.07,49.41,13.19,74.22,19.35,27.78,6.91,55.68,13.33,83.56,19.83,25.62,6,51.29,11.69,76.91,17.62,18.47,4.27,36.9,8.7,55.34,13.11,2.25.54,27.85,5.63,38.46,7.43,11,1.87,21.92,3.82,32.88,5.72,10.43,1.81,20.84,3.79,31.3,5.35,9.45,1.4,19,2.3,28.44,3.45,8.4,1,16.78,2.62,25.21,3a243.8,243.8,0,0,0,31.29-.48c7-.61,14.07-2.65,20.88-4.81,7.55-2.39,15.2-5,22.13-8.69,6.58-3.56,12.35-8.65,18.36-13.2a109.37,109.37,0,0,0,29.24-32.84c5.34-9.23,6.16-19.38,7.16-29.56C1410.51,1166.38,1412.14,1158.22,1411.67,1150.19Z" fill="#004066"/><path d="M1411.67,1150.19a111.43,111.43,0,0,0-4.78-27.52c-6.92-21.54-14.27-43-22.55-64-10.41-26.47-22.49-52.25-39.67-75.17-11-14.69-16.69-32.06-25.2-48-17.78-33.27-35.72-66.46-54.12-99.38-5.66-10.14-12.76-19.53-19.73-28.86-7.22-9.68-15.08-18.87-22.66-28.27s-15.15-18.81-22.71-28.23c-8.69-10.81-17.34-21.66-26.06-32.45-9.75-12.07-19.41-24.22-29.38-36.11-9.54-11.37-19.47-22.42-29.16-33.68-10.86-12.6-21.6-25.31-32.48-37.91-7.81-9.05-15.85-17.91-23.62-27-14.08-16.49-27.84-33.27-42.09-49.62-11.35-13-23.46-25.35-34.79-38.37-5.76-6.61-12.11-13.4-15.48-21.27-10.91-25.5-20.48-51.57-30.77-77.33-2.37-5.92-3.64-12.63-9.66-16.49-6.19-4-12.11-8.44-18.61-11.79a12.18,12.18,0,0,0-9.69-.11c-6.52,3.3-12.29,8.05-18.67,11.67-15.48,8.78-31.35,16.88-46.63,26-7.19,4.29-12.17,3.26-18.16-2-6.27-5.5-13-11-21.92-11.3-12.27-24.48-24.39-48.8-36.63-73.07-7.92-15.71-16.15-31.28-24-47.05-4.25-8.57-9.81-15.71-18.41-20.2-2.23-1.16-4.39-2.45-6.66-3.52-11-5.21-19.25-15.7-32.9-15.81-5.31,0-9.73,1-12.24,6.11-5.44,11.12-10.67,22.33-16.12,33.44-10.73,21.89-21.58,43.71-32.31,65.6-3,6.09-5,12.5-3.3,19.35,2.67,10.93,5.27,21.9,8.56,32.66a17.4,17.4,0,0,1-.49,12.23c-1.18,3-2.42,5.92-3.64,8.87-.11-.47-.21-.94-.31-1.42-12.94,3.38-25.82,7-38.82,10.05-6.93,1.65-13.22,6.85-21.11,3.94-1.27-.47-3.14.36-4.63.87-6.91,2.37-7.09,8.78-8,14.38-.48,2.88-.85,4.85-3.68,6.46-14.19,8.07-28.3,16.28-42.24,24.77-3.32,2-5.32,1.54-8.71,0-4-1.82-8.36-6.24-13.27-2.32-2.84,2.27-5,5.45-7.4,8.22-2.75,3.14-5.21,6.6-8.28,9.37-12,10.78-25,20.57-36,32.28-7.28,7.78-13.86,10-23.14,5.68-1-.45-2.13-.49-3.06-1-4.85-2.55-8.46.27-11.67,3.09-2.39,2.09-4,5-6.09,7.75a20.57,20.57,0,0,1-3.09-1.75c-8.26-6.72-16.38-13.62-24.74-20.22q-21.84-17.22-43.93-34.12c-8.27-6.33-16.33-13.13-25.29-18.35-11.32-6.6-14-6.3-21.25,3.29-2.1,2.78-5.7,4.65-4.25,8.92.8,2.35,1.54,5,3.13,6.76,4.66,5.12,9.55,10.06,14.67,14.72,8.64,7.84,17.61,15.32,26.27,23.14,6.83,6.15,13.37,12.62,20.1,18.86a44.41,44.41,0,0,0,5.56,4.28c2.64,1.77,5.59,3.13,8.08,5.09,7.49,5.89,14.82,12,22.54,18.25-1.36,1.84-2.71,3.5-3.86,5.28-2.53,3.89-6.73,7.76-6.9,11.79a12.13,12.13,0,0,1-3.37,8.22c-7.27,8.08-13.54,16.79-17.72,26.84-3.42,8.22-5.32,17.3-.05,24.8,4.67,6.64,4.77,11.93.93,18.33a40,40,0,0,0-3.64,7.82c-1,3-1.52,6.22-2.33,9.66-1.36.72-4.89,1.39-5.66,3.22a72.4,72.4,0,0,0-4.84,16.92c-.74,4.94-2,9.23-6.74,11.13-5.66,2.29-7.8,6.62-8.92,12.06a25.28,25.28,0,0,1-2.14,6.06c-1.33,2.71-2.37,6-4.57,7.75-6.32,5-13.19,9.29-19.82,13.9q-29.81,20.73-59.6,41.47c-18.87,13.09-37.67,26.27-56.69,39.14-10.69,7.23-21.79,13.86-32.65,20.84-5.71,3.67-11.65,7.09-16.84,11.4s-4.76,9.52-.14,14c2.72,2.65,5.76,5,8.55,7.55,9.31,8.65,19.55,14.83,32.44,17.61,22.19,4.79,44,11.28,66,16.9,12.65,3.23,25.37,6.15,38.05,9.22,16.63,4,33.81,5.94,49.6,13.22,14.43,6.67,29,12.95,43.47,19.63,15.53,7.2,30.85,14.84,46.41,22,16.74,7.66,33.64,14.94,50.48,22.39q22.25,9.82,44.51,19.66,30.11,13.33,60.19,26.71c9.42,4.2,18.7,8.73,28.19,12.77,24.61,10.49,49.33,20.73,74,31.19,18.81,8,37.52,16.22,56.31,24.26q27.87,11.92,55.81,23.67c26.07,11,51.89,22.51,79.54,29.26,24.84,6.07,49.41,13.19,74.22,19.35,27.78,6.91,55.68,13.33,83.56,19.83,25.62,6,51.29,11.69,76.91,17.62,18.47,4.27,36.9,8.7,55.34,13.11,2.25.54,27.85,5.63,38.46,7.43,11,1.87,21.92,3.82,32.88,5.72,10.43,1.81,20.84,3.79,31.3,5.35,9.45,1.4,19,2.3,28.44,3.45,8.4,1,16.78,2.62,25.21,3a243.8,243.8,0,0,0,31.29-.48c7-.61,14.07-2.65,20.88-4.81,7.55-2.39,15.2-5,22.13-8.69,6.58-3.56,12.35-8.65,18.36-13.2a109.37,109.37,0,0,0,29.24-32.84c5.34-9.23,6.16-19.38,7.16-29.56C1410.51,1166.38,1412.14,1158.22,1411.67,1150.19Z" fill="none" stroke="#000" stroke-linejoin="round" stroke-width="8"/></g><g id="Paint"><path d="M752.52,931.08c-27,8.29-44.14,18.32-53.35,15.75S431.86,776.15,413.52,759L404,798.32,420.81,813l135.64,94.52L656.8,970l76.1,46.06,107.46,54.65,75.86,4.15,9-13.42s-9.39-56.34-12.32-59.28S823.14,975.1,752.52,931.08ZM1397.92,1170s-11.25-38-44.3-64.44c-7.81,8.53-18.47,19.94-23.86,24.93-5.74,5.33-34,25.69-41.28,25.12-9.83-.78,22.4,23.79,45.71,73.1,19.43.8,30.36,10.4,30.36,10.4s29.34-23.56,31.54-30.16S1400.52,1175.05,1397.92,1170Zm-308.59-487.9c-14.57-12.44-28.55-26.67-28.55-26.67l-48.34-33.72,2.44,21.45c4.66,8.86,24,24.2,50.44,42.76,0,0,99.61,75.19,117.65,107.54S1176.22,748.25,1089.33,682.11ZM719.91,324.66,737,332.74l-22.11-47.68-50.3-19-7.79,11.33L707,297.54Z" fill="#fff"/></g><g id="Canopy"><path d="M1357.22,1077.89c-.55-20.11-15.44-52.45-21.21-52.55s-7,6.55-7,6.55a19.21,19.21,0,0,0-10.56,0c-5.55,1.67-24.11,24.22-32.55,31.67s-36.26,27.43-39.87,32.11c-4.19,5.44-2.13,11.22-4,15.22s-13.33,4.55-18,5.67-6.78,12.22-7.78,16.88,27.67,25.12,42.45,27.67,53.77-16.55,67.89-27.11S1357.78,1098,1357.22,1077.89Z" fill="#82b3d1"/></g><g id="Detail"><polygon points="396.39 721.28 413.11 688.67 403.83 680.6 383.17 712.9 378.55 726 413.44 753.06 416.89 737.83 396.39 721.28" fill="#ff7100"/></g><g id="Gray"><path d="M1118.39,669.82l-21.53,13.49c8.2,7,15.73,13.18,23,19.65,6.12,5.43,12.42,10.77,17.85,16.85,8.5,9.55,16.55,19.53,24.38,29.65,8.41,10.87,18.14,20.94,22.38,34.58.27.89,3.11,1.67,4.55,1.4,6.31-1.18,12.55-2.77,19.91-4.46C1181.41,741.46,1149.52,705.87,1118.39,669.82ZM1113,1047.66a162.53,162.53,0,0,0-9.53,17.17c-.73,1.57.07,4.67,1.28,6.15,1.62,2,4.3,3.12,6.57,4.54,6.88,4.31,6.91,4.3,11-2.42.64-1.07,1-2.31,1.59-3.41,3.62-6.57,7.29-13.12,11.29-20.31-3.46-1.37-8-2.37-11.58-4.78C1118.29,1041,1115.43,1043.81,1113,1047.66ZM593.36,595c6.64-.11,14.13-6.27,13.1-10.09-.46-1.72-3.35-3.61-5.37-3.92-3.49-.53-11.1,6.9-10.57,10.11C590.81,592.77,592.74,594.18,593.36,595Zm68.93,45.92c4,.87,11.83-7,11.58-11-.21-3.31-2-4.84-5-4.14-5.31,0-12.83,6.13-12,10.32C657.22,638,660.15,640.44,662.29,640.9ZM782,549.66c-1.18,1.36-1.24,4.8-.36,6.58,1.67,3.36,11.64,4.46,14.35,2,2.24-2,2.31-4.15.14-5.86C793.15,548.61,784.53,546.75,782,549.66Zm-64.12-43.73c-1.19,1.38-1.26,4.87-.36,6.68,1.68,3.4,11.79,4.52,14.54,2,2.27-2,2.35-4.21.15-5.94C729.18,504.87,720.44,503,717.87,505.93ZM908.8,665.73c-7.64-6.43-16.12-11.77-26.26-13.56-4.78-.84-9.57-1.62-14.39-2.19-11.35-1.34-20.72,4-29.54,9.89a92.5,92.5,0,0,0-17,14.72c-6.42,7-8.68,15.59-5.76,25,.27.86,1.09,1.8.89,2.49,2.05,5.83,10.34,14.11,18.06,18.27,11.49,6.18,40.25,16.79,58.95-.26,0,0,23.45-10.29,23.19-40.65C915.21,674.32,913.09,669.33,908.8,665.73ZM685.67,813c3.89,3.78,39.66,30,42,30.89s23.09-39.33,22.33-42.67-15.22-15.11-22.56-20.09-76.66-51.8-80.77-54.55-6.23-3.58-9-3c0,0-19.45,17.66-20.4,19.11s-2.83,4.55-2.49,6.16S681.78,809.22,685.67,813ZM586.91,925.78C577.38,919.84,411,803.91,408.17,801.46l-2.56-2.23a46.32,46.32,0,0,0-4-16.79c-2.58-6.05-22.19-39.55-24.64-47.88s17.76-47.21,22-56.9-4.21-25.91-9.72-32.53-30.08-4.67-37.25-3.34-42.5,63.74-47.36,66.79c-10.46,6.57-8.67,13.93-8.67,19.31s30.2,202.9,29.06,204.35-9.2,10.22-5.5,13.89,407.47,183.41,409,177.63,10.33-18.3,10.33-18.3l97.67-22.33,5.62-13.46s-112.95-53.88-128.06-63.21S596.45,931.72,586.91,925.78ZM410,596a109.85,109.85,0,0,0,28.33,13.83L446,596c-1.17-3.5-175.33-135.33-177.5-135.33s-9,8.5-7.83,10.66,40.16,36.5,46.83,42S396,586.33,410,596ZM780.17,395.85c4,1,8.33-2,8.66-3.52S723.71,264,722.33,264c-2,0-11.5,1.83-12.33,2s59.17,124.3,59.84,126.14S776.17,394.83,780.17,395.85Zm226.39,163.37c-3.89-3.44-54.78-39-54.78-39-3.18-2.22-9.67,2-9.45,3s20.11,43.56,22.56,50,19.89,68,22.67,69,36-52.55,35.77-54.44S1010.44,562.67,1006.56,559.22Zm259.61,435.11c-3.75-4.16-16.08-15.14-24.25-14-4.75.67-26.25,18.75-31.34,22.84s-6.08,9.66-6.58,12.75,2.68,18.11,2.68,18.11l40.24,30.64,45.25-38.5S1269.92,998.5,1266.17,994.33Z" fill="#636b70"/></g><g id="Shadows" opacity="0.2"><path d="M892.71,886.64S852.06,933.18,877.48,956s47,22.25,68,17.55C1006,960,995.46,862.19,989.59,901.18S952,961.93,917,948.73,900.62,877.84,892.71,886.64Zm200.53-71.38c9.29,1.47,44.29,5.53,50.31-26.89s-45.21-39.15-53.25-39.54c-9.86-.46-21.19,5-21.19,5-6.67,4.21-15.93,15.46-11.06,29.63S1084,813.79,1093.24,815.26Zm166.64,236.86c-45.45-9.17-215.53-38.37-443.35,77,0,0-158.27-52.52-169.52-58.15s-44,0-7.58,19.66c166.18,89.77,484.94,148.48,523.4,156.33s127.92,27.36,160.4,6.34C1412.17,1195.74,1271.51,1054.47,1259.88,1052.12ZM875.82,677.39c54.17,2.81,110.51-17.72,110.51-17.72l15.49-61.94s-23.11-41.12-42.05-60.16C938.3,516,721.19,399.22,721.19,399.22c-9.61-4.89-70.4-26.89-81.64-24s-11.73,30.8-22.28,35.2S564.28,424.74,553,432s-14.67,24-15.16,34.22S821.65,674.59,875.82,677.39ZM730,851.76l3.81-5.67-16.9-30.83L662.53,770l-2.94,6.66-2.79,8.85-43.16-38.34L428.08,618.73,356.36,563l-8.19,17.93,2,54.75L320.37,682.8s185.22,152,260.91,151,129,20.32,129,20.32Z"/></g><g id="Outline"><path d="M1411.67,1150.61a111.43,111.43,0,0,0-4.78-27.52c-6.92-21.53-14.27-43-22.55-64-10.41-26.47-22.49-52.24-39.67-75.17-11-14.69-16.69-32-25.2-48-17.78-33.27-35.72-66.46-54.12-99.38-5.66-10.14-12.76-19.53-19.73-28.86-7.22-9.68-15.08-18.87-22.66-28.27s-15.15-18.81-22.71-28.23c-8.69-10.81-17.34-21.66-26.06-32.45-9.75-12.07-19.41-24.22-29.38-36.11-9.54-11.37-19.47-22.42-29.16-33.67-10.86-12.61-21.6-25.32-32.48-37.92-7.81-9-15.85-17.91-23.62-27-14.08-16.49-27.84-33.27-42.09-49.62-11.35-13-23.46-25.35-34.79-38.37-5.76-6.61-12.11-13.4-15.48-21.27-10.91-25.5-20.48-51.56-30.77-77.33-2.37-5.92-3.64-12.63-9.66-16.49-6.19-4-12.11-8.44-18.61-11.78a12.14,12.14,0,0,0-9.69-.12c-6.52,3.3-12.29,8-18.67,11.67-15.48,8.78-31.35,16.88-46.63,26C826,411,821,410,815,404.71c-6.27-5.5-13-11-21.92-11.3-12.27-24.48-24.39-48.8-36.63-73.07-7.92-15.71-16.15-31.28-24-47-4.25-8.56-9.81-15.71-18.41-20.19-2.23-1.17-4.39-2.46-6.66-3.53-11-5.21-19.25-15.7-32.9-15.81-5.31,0-9.73,1-12.24,6.11-5.44,11.12-10.67,22.33-16.12,33.44-10.73,21.89-21.58,43.71-32.31,65.6-3,6.09-5,12.5-3.3,19.35,2.67,10.93,5.27,21.9,8.56,32.66a17.4,17.4,0,0,1-.49,12.23c-1.18,3-2.42,5.92-3.64,8.87-.11-.47-26.13,5.54-39.13,8.63-6.93,1.64-13.22,6.85-21.11,3.94-1.27-.47-3.14.36-4.63.88-6.91,2.36-7.09,8.77-8,14.37-.48,2.88-.85,4.85-3.68,6.46-14.19,8.07-28.3,16.28-42.24,24.77-3.32,2-5.32,1.54-8.71,0-4-1.82-8.36-6.24-13.27-2.32-2.84,2.27-5,5.45-7.4,8.22-2.75,3.14-5.21,6.6-8.28,9.37-12,10.79-25,20.57-36,32.28-7.28,7.78-13.86,10-23.14,5.68-1-.45-2.13-.49-3.06-1-4.85-2.55-8.46.27-11.67,3.09-2.39,2.09-4,5-6.09,7.75a20.57,20.57,0,0,1-3.09-1.75c-8.26-6.72-16.38-13.62-24.74-20.22Q328.89,495,306.8,478.06c-8.27-6.34-16.33-13.14-25.29-18.36-11.32-6.6-14-6.3-21.25,3.29-2.1,2.78-5.71,4.65-4.25,8.92.8,2.36,1.54,5,3.13,6.76,4.66,5.12,9.55,10.06,14.67,14.72,8.64,7.85,17.61,15.32,26.27,23.14,6.83,6.15,13.37,12.62,20.1,18.87a45.3,45.3,0,0,0,5.56,4.27c2.64,1.77,5.59,3.14,8.08,5.09,7.49,5.89,14.82,12,22.54,18.25-1.36,1.84-2.71,3.5-3.86,5.28-2.53,3.89-6.73,7.76-6.9,11.79a12.13,12.13,0,0,1-3.37,8.22c-7.27,8.08-13.54,16.79-17.72,26.84-3.42,8.22-5.32,17.3-.05,24.8,4.67,6.64,4.77,11.94.93,18.33a40.28,40.28,0,0,0-3.64,7.82c-1,3-1.52,6.22-2.33,9.66-1.36.72-4.89,1.39-5.66,3.22a72.4,72.4,0,0,0-4.84,16.92c-.74,4.94-2,9.23-6.74,11.13-5.66,2.29-7.8,6.62-8.92,12.06a25.28,25.28,0,0,1-2.14,6.06c-1.33,2.71-2.37,6-4.57,7.75-6.32,5-13.19,9.29-19.82,13.9q-29.81,20.73-59.6,41.47c-18.87,13.09-37.67,26.27-56.69,39.14-10.69,7.23-21.79,13.86-32.65,20.84-5.71,3.67-11.65,7.09-16.84,11.4s-4.76,9.52-.14,14c2.72,2.65,5.76,5,8.55,7.56,9.31,8.64,19.55,14.82,32.44,17.6,22.19,4.79,44,11.28,66,16.9,12.65,3.23,25.37,6.15,38.05,9.22,16.63,4,33.81,5.94,49.6,13.22,14.43,6.67,29,13,43.47,19.63,15.53,7.2,30.85,14.84,46.41,22,16.74,7.66,33.64,14.94,50.48,22.39q22.25,9.84,44.51,19.66,30.11,13.34,60.19,26.71c9.42,4.2,18.7,8.73,28.19,12.77,24.61,10.49,49.33,20.73,74,31.19,18.81,8,37.52,16.22,56.31,24.26q27.87,11.92,55.81,23.67c26.07,11,51.89,22.51,79.54,29.27,24.84,6.06,49.41,13.18,74.22,19.34,27.78,6.91,55.68,13.33,83.56,19.83,25.62,6,51.29,11.69,76.91,17.62,18.47,4.28,36.9,8.7,55.34,13.11,2.25.54,27.85,5.63,38.46,7.43,11,1.87,21.92,3.82,32.88,5.72,10.43,1.81,20.84,3.8,31.3,5.35,9.44,1.4,19,2.3,28.44,3.45,8.4,1,16.78,2.62,25.21,3A243.8,243.8,0,0,0,1312,1264c7-.61,14.07-2.65,20.88-4.81,7.55-2.39,15.2-5,22.13-8.69,6.58-3.55,12.35-8.64,18.36-13.2a109.37,109.37,0,0,0,29.24-32.84c5.34-9.23,6.16-19.38,7.16-29.56C1410.51,1166.8,1412.14,1158.64,1411.67,1150.61ZM1337.92,1029a178.26,178.26,0,0,1,14.61,42.07c3.63,16.19-2.29,29.88-11.26,42.74-2.31,3.32-4.74,6.54-7.14,9.79a2.89,2.89,0,0,1-4.86-.35c-7.75-14.46-15.5-28.92-23.36-43.56,15.51-13.8,26.11-30,29.52-50.3A1.33,1.33,0,0,1,1337.92,1029Zm-48.29,63.83c3.93-3.08,6.1-3.11,9.72,1.28,8.8,10.7,14.64,23.05,21.37,34.91,2.47,4.35-.41,8.81-6.47,11.44-7.25,3.13-14.19,7.06-21.6,9.7-7.15,2.54-14.71,4-22.15,5.68-3.5.77-7.16.83-10.75,1.21-.18.29-5.25-1.8-7.63-3.1s-23.11-12.64-32-20.89c-2.32-2.14,3-12.76,7.82-14.69a64.35,64.35,0,0,1,13.26-4A105.37,105.37,0,0,0,1289.63,1092.82Zm-43.31,6.74c1.76-2.18,3.4-4.51,5.54-6.19,8.59-6.75,17.42-13.18,26.18-19.7,1.27-.94,2.68-1.7,4.26-2.69l6.29,8.3a85.77,85.77,0,0,1-40.95,22.39A1.32,1.32,0,0,1,1246.32,1099.56Zm48.66-40.5c.23-.77,1.19-1.34,1.84-2,6.91-6.91,13.75-13.89,20.78-20.68a13.9,13.9,0,0,1,3.64-2.23,1.38,1.38,0,0,1,1.93,1.62c-4.19,14.36-9.06,21.63-22.58,33.64-2-2.5-4-4.61-5.57-7C1294.48,1061.65,1294.67,1060.13,1295,1059.06Zm27.12-79.69c3.25,4.84,1.92,7-3.39,3.09-7.08-5.19-14.06-10.55-21.43-15.3-8-5.12-12.15-13.23-17.77-20.22-2.83-3.53-1.48-5.78,2.06-6C1301.75,948.67,1311.65,963.79,1322.1,979.37ZM1266,852.21c12.68,22.69,25.39,45.44,38.44,68.78-5.67,1.06-26.13-16.15-58.58-61.38,2.82.72,6.44,1.91,10.16,2.51C1262.33,863.12,1265.22,860.09,1266,852.21Zm-47.47-56.82,7.31-3.74c12.08,16.56,25.22,34.94,37.44,51.69-.48.6-2.41,2.15-2.89,2.75a32.46,32.46,0,0,0-13.34-9.66c-7.18-3.1-13.21-1.5-17,4.81-.66-.87-1.26-1.59-1.79-2.35-5.11-7.39-6.79-7.54-13.76-2a75.39,75.39,0,0,1-6.54,4.51,3.66,3.66,0,0,1-5.62-2.7c-.4-4-.92-7.85-1.33-11.31-.86-7.18-3.3-13.47-5.49-19.3,8.25-2.41,13.56-4.26,21.46-6.16C1222.13,800.68,1220.87,798.45,1218.5,795.39ZM1118.39,669.82c31.13,36,63,71.64,90.56,111.16-7.36,1.69-13.6,3.28-19.91,4.46-1.44.27-4.28-.51-4.55-1.4-4.24-13.64-14-23.71-22.38-34.58-7.83-10.12-15.88-20.1-24.38-29.65-5.43-6.08-11.73-11.42-17.85-16.85-7.29-6.47-14.82-12.67-23-19.65ZM1005.12,561.47c-.08.2,13.39,23.47,14.85,25.48-.19.87-16.42,2-16.51,2-11.4.84-11.74,9.57-12.76,17.81-1.23,10-2.45,20-3.55,29-4.36-13.78-9-28.44-13.62-43.11a7.15,7.15,0,0,1-.33-3.2c1.22-7.2,2.54-14.38,4-22.51C978.17,562.75,999,556.81,1005.12,561.47Zm52.93,97.83-5,12.78c-14.21-13.32-34.3-21.54-38.13-45.24ZM986.33,549.51c-3.8.58-7,.55-9.78,1.64-3,1.19-5.81,2.67-5.89,7.27-.09,5-1.89,10-2.91,14.82l-22.23-49.63c2.48-1.78,5.1-1.85,8.35.75C964.34,532.76,975.07,540.83,986.33,549.51ZM721.57,266l21.32,42.23,42.24,83.63-2,1-.05-.1c-2.54,1.1-9.18-2.6-9.66-2.36-21.06-42-38.67-80.73-59.73-122.74C714.21,267.44,721,266.31,721.57,266Zm-57,0,50.3,19L737,332.74l-17.09-8.08L707,297.54,656.8,277.36ZM641,386.85c.87-1.75,3-3,4.81-4.12,1.16-.73,5.7-1.5,9.34.86,14.45,8.25,29,16.35,43.76,24,2.12,1.1,5.59-.37,8.43-.7,15.75-1.81,31.48-3.84,47.26-5.38,11.36-1.11,22.78-1.79,34.18-2.22,4.73-.17,8.56,3.06,12.72,4.84,9.49,4.07,16.85,10.83,25,16.45q48.79,33.58,96.91,68.2c10.82,7.74,21,16.43,31.41,24.71a5.24,5.24,0,0,1,.91,1.06c-5.38,1.55-10.7,2.81-15.81,4.66-3.47,1.24-3.84,4-1.82,7,13.59,20.13,20.9,43,28.39,65.74,5.36,16.28,10.19,32.76,14.77,49.28,1.52,5.47,2,11.24,2.73,16.92a2.53,2.53,0,0,1-3.49,2.66c-3.76-1.57-7.64-3-10.93-5.21-15.4-10.56-30.48-21.59-45.76-32.33q-37.52-26.34-75.15-52.53-20.05-14-40.27-27.68c-5-3.41-10.15-6.62-15.87-10.34,6.86-13,13.57-26,20.48-38.8,3.39-6.28,7.32-12.28,10.63-18.59a2.52,2.52,0,0,0,.27-1.14,3.57,3.57,0,0,0-4.69-3.43,1.82,1.82,0,0,0-1,.68c-6.86,11.36-13.74,22.72-19.9,34.47-4.19,8-7.25,16.59-11,25.33l-27.8-18.53c5.46-10.83,10.78-21.6,16.29-32.27,4.89-9.47,10-18.81,14.87-28.31a2,2,0,0,0,.18-.9,3,3,0,0,0-3.51-2.79,4,4,0,0,0-2.37,1,53.74,53.74,0,0,0-6.27,9.37c-4.79,8.64-9.7,17.23-14,26.14-3.74,7.82-6.65,16-10.16,24.65-18.35-12.1-35.9-23.5-53.26-35.19C690,466.76,679,458.62,667.7,450.79c-2.32-1.61-5-2.76-7.4-4.2-13.41-7.89-21.69-21-32.67-31.56C632.1,405.5,636.37,396.09,641,386.85ZM796,558.26c-2.71,2.44-12.68,1.34-14.35-2-.88-1.78-.82-5.22.36-6.58,2.54-2.91,11.16-1,14.13,2.74C798.29,554.11,798.22,556.24,796,558.26Zm-63.93-43.61c-2.75,2.48-12.86,1.36-14.54-2-.9-1.81-.83-5.3.36-6.67,2.57-3,11.31-1.07,14.33,2.77C734.39,510.44,734.32,512.6,732.05,514.65ZM572.93,427.77c9.4-2.48,19.72-5.34,30.12-7.88,4.17-1,8.53-1.23,12.76-2,7.3-1.42,10.24,4.53,14.13,8.47,4.69,4.76,9.53,9.64,13,15.28,5.69,9.32,15.67,12.73,23.74,18.59,13.76,10,28.47,18.68,42.81,27.87,4.27,2.74,8.6,5.38,14,8.75a.65.65,0,0,1-.34,1.2c-10.33,0-18.52,2.24-23.6,11.33l-19.45-12.6c4.93-2.53,5.07-4.27.51-7.33-17.11-11.51-34.31-22.9-51.39-34.46-11-7.44-21.85-15.11-32.78-22.66-.73-.51-1.53-1.26-2.31-1.27-.51,0-1,0-1.53,0a3,3,0,0,0-2,5l.31.25c8.26,5.72,16.78,11,25.1,16.68,16.17,11,32.26,22.07,49.07,33.58-4,.32-9.94,5.68-10.11,6.2q-8.65-4.62-18.07-9.44a3.83,3.83,0,0,0,1.49-2.12c.21-1.49-1.16-3.92-2.56-4.8-11-7-22.27-13.77-33.44-20.59-10.39-6.33-20.77-12.68-31.19-19a51.69,51.69,0,0,1-7.36-4.64C565.75,432.54,571.46,430.09,572.93,427.77ZM479.49,474c10.87,6.66,22.87,13.95,34.82,21.34,16.45,10.16,32.84,20.43,49.36,30.49.82.5,14,8.29,20.17,12.68-.09.41-.19.82-.3,1.17-4-2.34-6.34.24-8.68,3.69-3.7,5.47-7.7,10.76-11.72,16.32C551.84,552,540.53,544,529,536.46c-11.39-7.46-23-14.53-34.52-21.85-6.81-4.33-13.4-9-20.38-13.05a4.55,4.55,0,0,0-2.91-.25,3.25,3.25,0,0,0-2.43,4.78,1.92,1.92,0,0,0,.63.69c11.75,7.46,23.83,14.4,35.52,22,17.46,11.29,34.7,22.92,52,34.45,7.19,4.8,8.82,4.45,13.77-2.76,3.31-4.83,6.87-9.49,10.21-14.09,5.85,3.68,12,5.22,18.39,8.32,7.71,3.75,13.81,5.64,24.2,11.22,34.89,23.63,69.46,46.11,71.81,47.72,12.45,8.49,25.23,16.55,37.24,25.64,7.4,5.6,17.88,9.14,17.87,21.2-4.5,1.82-6.7,11.92-2.65,15.35,8.81,7.44,18,14.46,27,21.65,12.82,10.23,25,21.26,38.55,30.57,21.56,14.87,54.35,15.67,82.94-5,21.95-15.89,27.24-24.25,27.77-39.9.81-23.61-34.72-49.21-49.34-59-10.93-7.33-20.35-17.22-33.34-21.27-2-.61-6.83,2.35-10.5,1-4.95-2-6.47-2.59-10.84-5.49-15.81-10.51-118.64-79.67-112.43-78.11a18.22,18.22,0,0,1,3,.84c8,3.72,15.7,8,23.86,11.13C743.69,535.82,750,530,751,518.37c0-.42.06-.85.11-1.61a1.17,1.17,0,0,1,1.82-.89l36,24.08a.82.82,0,0,1-.46,1.5c-5.34-.14-11,.45-16.06,4.22-8.63,6.42-8.34,10.29,1.9,16.87,8.44,5.43,17.22,10.34,26,15.19,6.15,3.39,16.21-2.51,16.6-9.63a53,53,0,0,0-.3-7,1.25,1.25,0,0,1,1.93-1.13c8,5.27,15.89,10.43,23.68,15.77q31.77,21.76,63.41,43.7c20.35,14,40.58,28.27,61.09,42.08,11.23,7.56,23.09,7.59,35,1.11,4.08-2.21,8.44-3.91,12.51-6.13,1.84-1,3.3-2.71,5.36-4.46,6,5.31,31.12,24.35,38.26,29.26,3.54,2.43,8.48,6.3,12.29,8.28,1.1.58,2.33-1.08,2.79-1.73,1-1.41,1.11-3.44,1.73-5.78,7.25-.74,13.65,3,19.52,8.11,11.72,10.27,24.08,19.9,35,31,9.63,9.76,18.12,20.77,26.29,31.84A360.5,360.5,0,0,1,1179,788.66c4.08,7.17,6.11,15.62,8.42,23.68,2.24,7.87,3.66,16,5.3,23.36l-2.76,1.49a4.14,4.14,0,0,0-1.74,5.48,9.88,9.88,0,0,0,1.79,2.65c11.47,11.37,24.74,21.08,36.39,32.26,2.07,2,4.78,9-10-2.52-12.92-10.07-25.92-20-38.92-30-1-.74-2.37-1.55-3.43-1.4a29.14,29.14,0,0,0-5,1.5,3,3,0,0,0-.85,5.21c.47.36,1,.73,1.43,1.07,3.91,2.81,8,5.43,11.82,8.29,4.92,3.63,9.64,7.56,14.64,11.08,2.8,2,6.19,3.22,4.25,7.78-.21.5.91,2,1.73,2.43,4.83,2.53,9.91,4.61,14.61,7.36a198.65,198.65,0,0,1,16.67,10.89,122.84,122.84,0,0,1,22.22,21.26,118.29,118.29,0,0,1,18.33,29.69c3.07,6.88.07,13.79-.8,20.53-.73,5.66-3.38,11.07-5.17,16.54-5.38-3.35-9.88-7.31-15.13-9.2-9.21-3.3-17.56-1.53-25,5.88-6.75,6.69-14.87,12-22,18.27-1.92,1.68-6.41,7.88-6,14.75.44,7.54,2.68,14.86,4.27,23.56-8.28,1.66-17.52,3.4-26.7,5.39-4,.87-14.14,3.92-23,1.92-18.87-4.24-23.63-6.1-38.19-14.28-4.64-2.61-7.41-3.77-12.85-4.44-2-.25-7.59,1-9.72,2.2-8.07,4.55-13.21,12.79-15,21.91v.06c-.51,2.78,3.07,4.45,5,2.4a7,7,0,0,0,.66-.78c3.32-4.71,5.78-10.13,9.54-14.41,4.89-5.56,11.2-5.52,17.07-2.14-4.46,7.69-9.23,15.26-13.34,23.16-3.77,7.27-2,10,4,15,9.44,7.92,21.6,15.8,37.92,23.11-.42.69-2,2.22-2.1,3.83-.06.94,2.13,2.37,3.56,3,5.73,2.46,9.77,5.53,6,4.88-1.92-.33-5.06-.3-5.81.81-1.59,2.34-2.19,5.47-2.65,8.36-.09.56,2.45,2.36,3.52,2.16,8.64-1.58,16.75.88,24.88,3,3.8,1,5.6.14,5.46-4-.11-3.45,0-8.1,0-12.11a96.77,96.77,0,0,0,23.15,4.62c-.16,2.29-.74,5.45,2.8,5,1.54-.22,2.77-8.42,2.91-9.19,3.44-19.58-11.74-31.08-19.8-45.63-2.16-3.9-5-7.45-7.25-10.87,11.79-2.87,23.42-6.12,35.26-8.29,2.85-.53,6.8,1.91,9.49,4,11.3,8.67,22.27,17.76,33.49,26.53,1.39,1.09,10.79-6,12.63-7.57,11.32-9.51,22.56-19.12,33.88-28.64.44-.37,5.64-5.77,4.84-6.8-4.3-5.56-9.42-10.6-13-16.59-4.27-7.21-11-12.06-15.79-18.7-2-2.72-2.64-4.86-1.34-8.3,2.92-7.76,5.11-15.8,7.65-23.92,10.28,7.76,21,15.88,31.77,24,5.24,3.94,10.87,7.45,15.67,11.86,2.44,2.23,3.57,6,5,9.14a37.7,37.7,0,0,1,1.73,5.26c-2.59,4.37-4.85,8.19-7.48,12.61l-4-.82c-8.63-1.83-12.12,5.33-16.8,10-5,5-9.06,10.85-14,15.87-4.69,4.76-11.19,9.56-15.18,12.54-11.19,8.34-22.9,16-34,24.48-2.41,1.85-3.14,6-4.55,9a14.71,14.71,0,0,0-.75,3.11c-1.44,7.27-6.6,9.44-13.2,9.7a7.39,7.39,0,0,0-2.52.64c-7.55,3.57-9.2,10.58-11,16-1.3,6.43-1.1,8.55,2.65,10.93,8.51,5.41,12.51,8.75,19.94,14.11a1.64,1.64,0,0,1-1.06,3c-5.13-.28-7.71.26-12.82-.18-5.56-.49-13.71-1.72-19.17-2.82-7.84-1.57-15.57-3.67-23.33-5.63-5.17-1.31-10.25-3.11-15.48-4-2.09-.35-6.24-1-6.42,1.83-.22,3.37.41,4.62,5,5.81,6.24,1.62,30.91,7.78,41.62,9.34a177.34,177.34,0,0,0,26.77,2.85c7.58.1,11.34-.09,15.16-3.31,13.3,5.83,15.25,4.76,22.36,3.9,8.22-1,14.72-2.88,22.28-5.25a126.12,126.12,0,0,0,20.89-8.65c5.81-3.07,12-6.82,15.57-12,3.24-4.69,7.61-6.59,11.38-9.87,6.48-5.64,11.8-14.27,16.55-23.1,5.33-12.8,11.93-11.43,2.3,8.72-1.6,3.36-23.23,33.57-45.61,45.9-37.23,20.52-63.7,21.68-126.71,11.16-29.8-6.67-62.88-18.24-71.1-21.3.41-1.64,1.67-3.78,1.07-5s-3-2.1-4.7-2.52c-4.43-1.08-6.68-3.17-6.08-8.21,1.16-9.79-.74-23.52-7.67-31.32-8.32-9.36-20.6-12.58-31-18.61-5.51-3.19-36-20-45.1-24.66-1.12-.75-2.62-1.57-4.6-2.63-13-6.91-25.92-14-38.88-21a6.48,6.48,0,0,0-2.43-1.09h-.85a3.1,3.1,0,0,0-2.65,4.74,2.22,2.22,0,0,0,.71.69c12.63,7.15,25.33,14.2,38.24,20.84,4.71,2.43,5.69,4.55,3.06,9.47-4.17,7.82-7.41,16.14-11.28,24.77-10.23-4.62-20.3-9.12-30.32-13.71-14.9-6.82-29.62-14.1-44.78-20.31a42.1,42.1,0,0,0-14.67-3c-6.27,0-12.54,0-18.81,0a61.56,61.56,0,0,0-7.69.12,3.5,3.5,0,0,0-2.44,2.26c-.1.91,1,2.75,1.75,2.85,6.55.84,28.38.73,31.82,1.23,4.53.33,2.24,2.62.65,4.31a12,12,0,0,1-2.57.82c-9.62.73-52.77-2-66.8-1.62-9.28-2.74-44.12-18.46-76-34.65-29.81-15.13-57-30.91-58.2-31.38-4.57-1.82-4.1-4.49-2.17-7.71,15.3,8,30.24,16,45.33,23.68,19.43,9.9,38.9,19.74,58.52,29.25,8.53,4.13,17.4,7.58,26.29,10.9a3.34,3.34,0,0,0,1.65.1,3.22,3.22,0,0,0,1.83-5.55,2.86,2.86,0,0,0-.77-.51c-12.26-5.37-24.81-10.08-37-15.63-11.87-5.41-23.46-11.46-35.06-17.44-15.86-8.18-31.61-16.57-47.36-25-3.78-2-7.45-4.24-11.12-6.44-3.87-2.33-6.42-2-7.8,2.72-1.12,3.87-2.5,5.61-7.25,2.53-23.77-15.42-48.06-30-71.84-45.44-22.88-14.83-45.34-30.32-68-45.45q-19.44-13-39-25.72c-1.18-.78-2.5-2.08-3.82-2.45-21.44-15.39-69.71-49.15-84.78-59.79-6.38-4.5-13.18-8.41-19.63-12.82-1.11-.76-2.4-3.35-2-4,7.2-10.67,6.3-23.68,10.42-35.2,1-2.68,1.26-5.6,2.3-8.23a24.11,24.11,0,0,0,.06-17.76c-.93-2.59.46-4.22,3.18-5.2,5.38-1.94,8.79-9.23,9.36-14.65a25.17,25.17,0,0,0-2.13-13.45c-.26-.58-5.58-8.41-13.17-6.12-1.52.46-3.22-1.9-2.56-3.34,4.59-10-5.47-12.34-7.64-17.63-1-2.44-1.81-5-2.71-7.45-.35-3.16-1.4-11.34-11.51-21.22-5.74-5.62-2-8.05-.18-9.37,3.67,2.94,9,7.34,12.47,10.45,10.86,9.64,10.62,9.38,21.45,19.07,2.49,2.23,3.76,8.49,13.13,16,.49.39,9.65,6.81,10.33,6.87,28.13,19.86,163.67,119.31,249.8,161.8,6.4,3.16,12.31,5.15,20.81,4.61s13.64-3.34,19-9c6.36-6.68,13.77-12.34,20.53-18.66,5-4.7,11-8.9,12-16.43.73-5.39,2.29-10.85-1.47-16.1-10.77-15-22-29.78-31.47-45.62-3.28-5.5-6.67-10-11.5-13.73-2.56-2-5.33-3.68-7.85-5.7-11.87-9.54-23.35-19.6-35.61-28.61-15.74-11.56-32.15-22.23-48.18-33.41-20.14-14-40.19-28.21-60.4-42.41,2.36-3.38,4.24-6.44,6.53-9.17a5.3,5.3,0,0,1,3.88-1.39c5,.29,10.08,1.59,15,1.21,9.1-.7,16.72-6.06,21.57-12.84,4.12-5.76,6.18-13.93,2-21.46-2.4-4.27-13.77-14.53-16.9-15-10.75-1.52-19.4,2.9-25.68,11.1-7,9.14-11.37,22.54-2.76,31.74-2,2.9-3.93,5.92-6.11,8.74s-4,4.33-8,1.38c-9.92-7.34-52.25-39.92-66.59-48.11-17-11.32-34-22.67-51.5-33.3-6.88-4.2-15.19-6-22.85-8.94-1.46-.55-2.95-1.07-5.31-1.92ZM821.65,674.59a92.88,92.88,0,0,1,17-14.72c8.82-5.85,18.19-11.23,29.54-9.89,4.82.57,9.61,1.35,14.39,2.19,10.14,1.79,18.62,7.13,26.26,13.56,4.29,3.6,6.41,8.59,8.18,13.76,5.81,23-32.2,42.9-32.2,42.9-24.47,9.19-38.45,4.19-49.94-2-7.72-4.16-16.72-11.72-19-20.76C813.53,690,815.23,681.6,821.65,674.59Zm418.23,331.88a103.61,103.61,0,0,0,8.11-7.2c5.91-6,9.83-6.47,13.74-4.64a32.53,32.53,0,0,1,3.75,2.5c-13.06,10.83-25.83,21-38,31.83-3,2.62-4.08,7.32-6.23,11.41l-6.78-4.79C1218.93,1022.37,1229.66,1014.64,1239.88,1006.47Zm-29.24,20.37c-.46.68-.82,1.44-1.9,3.34-.76-5.13-1.34-9-1.91-12.87-1.26-8.66,5.56-12,10.83-16.33,6-4.93,11.85-10,18-14.72,5.56-4.3,10.37-4.22,17.07-.06-2.77,2.6-5.3,5.31-8.17,7.61-8.12,6.53-16.76,12.49-24.44,19.49C1216.13,1016.92,1213.73,1022.26,1210.64,1026.84Zm17.89,14.71c3.16-10.25,17.86-17.47,26.84-26.34,1.39-1.38,3.16-2.39,4.57-3.76,6.24-6,12.9-5.45,17.86,1.5,1.57,2.21,3.6,4.08,5.35,6.17s3.39,4.22,5.33,6.65l-41.82,35.76-19.5-16C1227.71,1044,1228.25,1042.46,1228.53,1041.55Zm-101.19,37.88c4-10.1,6.46-15.29,16.21-26.81,1.35-1.6,7.2,1.15,9.64,1.34,4.23.33,8.48.49,13.54.76,6.72,10,13.57,21.44,21.64,31.91,5.31,6.89,6.71,14.28,6.93,22.11-18.54-2.57-41.34-11.8-58.11-17.77C1129.12,1088.1,1125.27,1084.63,1127.34,1079.43Zm-3.47-9.74c-.61,1.1-.95,2.34-1.59,3.41-4,6.72-4.07,6.73-11,2.42-2.27-1.42-4.95-2.56-6.57-4.54-1.21-1.48-2-4.58-1.27-6.15a160.68,160.68,0,0,1,9.52-17.17c2.42-3.85,5.28-6.63,10.57-3.06,3.58,2.41,8.12,3.41,11.58,4.78C1131.16,1056.57,1127.49,1063.12,1123.87,1069.69Zm-29.78,81.46a4.8,4.8,0,0,0,1.56,1.09c7.13,2.82,14.37,5.37,21.58,8,7.68,2.8,15.3,5.78,23.08,8.24,3.29,1,3.81,2.67,2.74,6.18q-120.52-40.2-239.25-86.3c4.34-3.61,19.6-18.87,20.07-19.77l171.58,76.5c-.49.5-1,1-1.46,1.54A3.21,3.21,0,0,0,1094.09,1151.15Zm-254.83-79.32c-.9,1.7-1.71,3.46-2.49,5.21a44.86,44.86,0,0,0-1.6,5.39c-5.39-1.9-10.33-4.07-15.49-5.31-3.48-.83-7.27-.3-10.93-.44a9.76,9.76,0,0,1-3.82-.46c-17.94-8.93-36-17.71-53.7-27s-35.38-18.89-52.75-28.88c-16.26-9.36-32.29-19.16-48.12-29.25-21.17-13.5-42.06-27.43-63-41.23-6.89-4.53-7.15-5.5-4.43-13.43.8-2.33,1.68-4.63,2.7-7.4,20.48,13.66,40.56,27.47,61.09,40.59,19.64,12.56,39.75,24.39,59.66,36.53C709.52,1008.07,786.75,1050.28,839.26,1071.83ZM367.66,655.07c-5.12-2.7-14.45-3.77-9.34-5.42,10.67-.44,26.51-4.66,34.11,4.46,7,8.44,7.2,18.52,3.2,28.39a156.72,156.72,0,0,1-9.94,19.92,124,124,0,0,0-10,22.32c-1.36,5.39-2.7,10.67-4.21,16.6-9.46-7.71-24.53-17.06-29.45-30.93a1.27,1.27,0,0,1,2-1.42c2.33,1.79,6,3.26,14.27,2.5,2.82-.25,5.46-1.54,8.57-2.45,6.59-4.19,13-14,14.55-21.07C385,672.12,378.67,659.67,367.66,655.07Zm30.6,57.83c-1.34,2-8.09-3.07-8.09-3.07l14.11-27c1.17,1.22,5.27,5,6.29,6.08C408.5,696.54,402.32,706.85,398.26,712.9Zm16.95,25.78c.52.41-2.44,10.49-2.44,12.35L380,725.54c.4-.85,3.44-10.39,3.87-11.31C394.35,722.35,404.84,730.44,415.21,738.68ZM368.38,765c9.32,7.76,18.89,15.21,28.22,23,3,2.49,6.56,5,3.76,10-.58,1,.35,3.66,1.41,4.73a80,80,0,0,0,9.08,7.73c15.24,11.42,29.85,23.78,45.84,34.14,30.54,19.78,49.43,31.65,56.57,36.53.47.35,1,.7,1.49,1,.71.5,1.36.94,2,1.28,21.1,13.84,42.11,27.83,63.36,41.91l-5.46,16.29c-29.21-20-58.3-39.4-86.87-59.56Q456.9,860.34,427.23,837c-20.13-15.88-39.55-32.66-59.21-49.14C362.71,783.36,364.66,774.66,368.38,765Zm342.73,49.35c5.41,8.2,18.59,23.27,15.47,25.29-6.25-4.48-22.53-16-23.24-16.7-6-6-16.53-7.94-17-19.06-.06-1.49-2-2.91-3.06-4.34-4.7-6.14-9.31-12.36-14.17-18.37-2.55-3.16-5.86-6.06-2.8-10.39a85.44,85.44,0,0,1,8.14-9.4c.42-.43,2.09,0,3,.39,10,4.92,20,9.93,30,14.91,0,0,3.35-2,12.56,2.83,7.16,4.21,19.46,12,26.24,22.09a2.76,2.76,0,0,1,.65,1.24c.2,2.24,0,3.07-2,2.15-3.07-1.78-8.45-7-11.4-9-3.54-2.34-8.14-5.67-11.3-2.88-5.08,4.48-12.4,8-12.55,16.39A8.5,8.5,0,0,0,711.11,814.37Zm-55.33-33.24L617.27,746.5c6.18-6.47,12.14-12.89,18.37-19a4.81,4.81,0,0,1,4.51-.53c13.35,8,26.57,16.2,40.68,24.89-2.14.35-7,2.4-11.66,6.44-4.27,4.4-9.39,9.17-13.78,14.55C654.28,774.16,655.53,777.44,655.78,781.13ZM601.09,581c2,.31,4.91,2.2,5.37,3.92,1,3.82-6.46,10-13.1,10.09-.62-.8-2.55-2.21-2.84-3.9C590,587.87,597.6,580.44,601.09,581ZM324.93,522.71c-16.53-13-29.94-27.08-46.74-39.78-5-3.77-9.66-8.93-15.29-12.74l1-1.37,4.75-6.36c6.95,4.87,13.7,9.28,20.09,14.14,12,9.16,23.92,18.53,35.79,27.9,12.45,9.82,24.77,19.81,37.22,29.61,10.3,8.1,20.69,16.08,31,24.14q5.16,4,10.3,8.09c8.41,6.65,16.71,13.44,25,20.2q3.88,3.16,7.79,6.31c2.12,1.71,4.2,3.51,6.37,5.14l-4.66,8.42h0c-1.29-.46-5.35-2.09-6-2.3-14.3-4.77-41.45-28.64-62.28-45.28C354.44,546.91,339.91,534.52,324.93,522.71Zm31.86,51.77c6.08,8.23,11.19,16.81,17.29,24.2,3.94,4.77,8.79,8.88,12.84,13.57,6.07,7,12.86,11.33,21.13,15.06,2.93,1.31,6.79,1,10.18.75,8.76-.57,15.62-4.81,21.58-11.71l0,0a199.39,199.39,0,0,0,11.46-17.49c5.21-9.93,9-17.89,3.83-25.59-23.1-25.45-49.29-34.06-56.86-36.16-5.63-1.56,17.14-3.17,19.05-2.65,11.69,3.23,12.35,4.37,15.23,5.51,6.65,2.63,12.18,6.52,18.52,10.08,3.15,1.78,4.81,3.65,7.95,5.44,5,2.82,9.79,5.93,14.54,9.11,9.56,6.38,19,13,28.65,19.18a2.34,2.34,0,0,0,1.27.27c17.93,12.59,68.84,48,68.68,48.41a123,123,0,0,0-13.23-1c-1.27.05-3.51,1.45-3.51,2.23a6.38,6.38,0,0,0,2.27,4.1c1,.84,13.72,1.83,15,2.34,7,2.69,10.21,3.27,16.32,7.27,16.66,10.92,32.57,23,49,34.29,12.77,8.81,25.93,17.06,38.71,25.86a267.78,267.78,0,0,1,21.51,16.27c13.39,11.35,29.6,19.25,38.86,35.68,8.52,15.11,19.23,29,29.26,43.22,3.28,4.64,2.15,7.77.26,8.77-10.6-9.94-21.26-19.83-32.47-29Q717.9,769,700.69,756.85c-9.16-6.45-19-12-28.52-17.89-10.23-6.3-20.55-12.45-30.72-18.85-3.21-2-5.54-2.46-8.37.79-6.75,7.72-9.92,11.73-15.81,17.57-5.34,5.29-7.31,8.79-3.79,13,.23.27,19.73,17.49,28.77,25.78,13.81,12.65,27.44,25.51,41.42,38,6.71,6,37.44,28.37,44.62,33.8a2.32,2.32,0,0,0,.54.29c-3.22,2.11-9.53,4-17.77.5-3.47-1.5-7.37-2.75-10.83-4.65C578.87,778.15,465.5,692.83,445.35,679c-2.2-2-4.65-3.83-6.57-6.09-1.72-2-2-5.44-3.84-7.15-11.28-10.21-22.43-20.63-34.42-30a225,225,0,0,1-39.07-39.49C358.38,592.43,352.14,579.07,356.79,574.48Zm-18.32,98.76A27.63,27.63,0,0,1,343.91,663c1.69-1.89,5.09-2.44,7.84-3.12,1.84-.46,3.89-.09,6.49-.09-1,2.28-2.4,4.14-3.06,6.76-1,3.91-.85,5.71,1.18,6.84,1.26.7,4.71.07,6.15-2.33.61-1,1.35-2.34,2.55-4.62,1,2.76,1.71,4.48,2.25,6.25,2.46,8.06,4.36,16.19-1.53,23.61-1.43,1.81-8.56,11.45-17,7.19a32.29,32.29,0,0,1-8.21-5.46C333.69,691,335.94,681.71,338.47,673.24Zm-37.33,42.49c1.94-2.43,3.39-1.19,5.21.44a58.61,58.61,0,0,0,7,4.86c4,2.6,8.29,4.77,11.93,7.77,12.68,10.48,25.16,21.2,37.76,31.78-1.68,5.61-4.29,15.43-5.51,19.35-8-6.66-15.93-13.22-23.84-19.75-9.87-8.17-19.59-16.54-29.69-24.42C297.13,730.36,295.68,722.56,301.14,715.73ZM725.3,1121.09q-35.79-15.09-71.58-30.17c-18.08-7.65-36.2-15.21-54.2-23.07-18.65-8.15-37.14-16.66-55.75-24.9-22.76-10.08-45.6-20-68.35-30.06-16.7-7.39-33.31-15-50-22.45-12.88-5.77-25.85-11.3-38.65-17.22Q358,959.92,329.48,946.1c-1.76-.85-2.72-3.36-4.05-5.1-1.24-2.31.34-4.37,2.54-3.15,8,3.53,15.62,6.74,23.56,10.36,7.64,3.47,15.14,7.24,22.85,10.53,1.37.59,3.48-.55,5.24-.89l23.09-14.38a12.94,12.94,0,0,0,2.1,1.38c11.8,6.36,23.48,13,35.27,19.35,13.19,7.14,26.53,14,39.67,21.23,17.55,9.64,34.92,19.58,52.45,29.22,20,11,39.83,22.16,60.14,32.48,13.49,6.85,27.61,12.5,41.58,18.38,20.47,8.62,41.05,17,61.58,25.41Q715,1099,734.56,1107a2.38,2.38,0,0,0,.38.11C730.37,1109.14,725.42,1113.19,725.3,1121.09Zm675.17,60c-.41,1-.71-16.71-1.39-21.12-.28-1.8-2.32-1.93-3.51-.57-3.35,3.82-3.17,6.46-3.25,7.48-.94,12.1,1.82,26.05.78,38.14a12,12,0,0,1-2.12,5.76c-8.19,11.85-11.42,16.78-22.74,24.4-10-8.27-25.42-11.23-37.16-10.36a2,2,0,0,0-.67.17,3.28,3.28,0,0,0,.32,6.1,10.68,10.68,0,0,0,2.23.68,52.42,52.42,0,0,1,20.93,4.69c1.22.57,3,1.81,3.23,3s-1.11,2.91-2.25,3.62a52.68,52.68,0,0,1-9.49,4.84c-1,.35-2.65-1-3.88-1.79-1.58-1-3.1-3.22-4.51-3.12-11.31.82-22.7,1.47-33.84,3.39-7.28,1.26-8.55,4.67-7.12,13.27-62.29-4.67-123.2-16.5-184-29.09,5-5.23,5.24-7.77,4.9-9.56-.13-.7-2.1-1.64-3-1.46-1.14.22-2,1.58-3.11,2.33-1.34.93-7.65,6.35-8.8,6.1-18.52-4.06-37-8.35-55.45-12.67-21.44-5-42.85-10.14-64.28-15.16-31.71-7.43-63.48-14.64-95.14-22.3q-21.09-5.1-41.83-11.65-32.21-10.17-64.09-21.36c-8.78-3.07-17.15-7.28-25.72-10.93q-11.28-4.8-22.57-9.54c.24-2.57,3.25-9.69,8.89-13.6,7.7,1.29,9.94,2.5,15.74,3.31,9.45,1.32,19,3,28.47,3,7.8.05,17.08.28,23.12-3.6,11.78-7.56,25.41-14,31.5-28.19,1.62-3.79,3.2-7.6,4.67-11.44,9.33.23,49.84,3.18,55.69,2.87,1.75-.09,3.5,0,6.53,0-4.68,4.19-8.37,7.54-12.11,10.84-1.48,1.31-3.08,2.48-4.6,3.74-3.58,3-3.24,5.34,1.14,7.07s8.7,3.5,12.63,5.08c-4,2-8.43,3.51-12.07,6.2-3.2,2.36-3.11,2.68-5.59,5.92-.61.8-2.85,3.61-2.64,6.87a28.91,28.91,0,0,0,4.68,14c4.09,6.16,11.48,6.14,14,6.35,13.2,1.1,19.75-6.3,20.51-16.81.4-5.56.91-11.38-3.61-16.49,6.22,2.36,12.43,4.75,18.66,7.07,28.77,10.75,57.49,21.67,86.35,32.17s58,20.63,87,30.91q18.69,6.63,37.4,13.2a6.06,6.06,0,0,0,3.21.35,24.25,24.25,0,0,0,4.17-1.81c-1-1.31,24.82,5.86,34.69,9,8.15,2.61,26.12,7.42,26.12,7.42,7.56,2.07,10.31-7,2.61-9.35-.09,0-29.19-9-44.13-13.88-7.3-2.39-15.5-4.76-22.94-6.48-4.4-1-3-6.45.25-5.79,12.33,1.93,20.57,4.3,32.73,6.79,50.87,10.43,81,5.65,85.39,4.65,46.55-10.65,69.29-29.42,88.39-62.36,3.36-5.79,6-11.55,7.17-18.85,1.19-7.61-.43-18.16-.46-18.43a118.2,118.2,0,0,0-7.7-29c-2.89-7.16-7-22.89-2-19.55a37.15,37.15,0,0,1,12.47,12.22c5.68,8.62,9.12,16.94,18.33,42,3.41,9.27,8.84,19,14.48,39.49C1407.88,1150.53,1404.85,1170.32,1400.47,1181ZM1072.13,783.45a4.82,4.82,0,0,0,4,.11c.73-.32,1.27-2.15,1.11-3.17-.25-1.53-1.2-2.94-1.83-4.4-1.69-3.89-2.15-7.7-3.46-11.71-1.55-4.72,2.65-11.33,7.42-12.1a81.6,81.6,0,0,1,9.07-.94,3.34,3.34,0,0,1,3.33,4.55l0,.07c-2.46,6.1-3.32,12.28.22,18.17a46.15,46.15,0,0,0,5.83,7.85c6.71,6.24,11.86,11,21.92,13.09,16,3.3,23.52,1.51,28.41-13.1,2.16,3.87,3.73,6.32,5.77,9.4.74,1.13,3.45,2.18,4.81,2.57,1.92.55,3.33-2.08,3.3-2.57,1-3.76-.87-8.09-2.82-10.31A294.65,294.65,0,0,0,1135.47,757a48,48,0,0,0-13.64-8.29c-14.69-7.81-39.49-4.5-41.68-4.24a17.88,17.88,0,0,0-13.62,8.4C1062.12,759.83,1065.61,779,1072.13,783.45Zm29.42,407.77c-8.57-5.87-11.69-6.56-20.79-11.52-19.13-10.44-39.52-14-60.13-20.25-7.18-2.19-13.74,1-14.4,6.56-.63,5.36-.38,10.59,2.9,15.63,8.76,13.49,21.66,20.62,36.53,24.79,11,3.09,22.15,5.78,33.28,8.42a165.46,165.46,0,0,0,19,3.59c2.93.35,7.61.69,11.83-7.27,2.45-5.93,1.08-10.26-.56-12.47C1108.79,1198.14,1101.91,1191.47,1101.55,1191.22ZM922.77,876.51c-10.36,5.19-19.26,18-17,34.22,2.05,14.58,7.09,17.71,18.19,23.71,2.36,1.27,10.73,2.66,15.21,2.5,9.27-.74,15.24-1.51,20.62-6.33,8.41-7.55,9.76-18.68,11.35-29.76A49,49,0,0,0,970,896C963.19,876.08,943,866.34,922.77,876.51ZM645,653.17c4.42,6.41,10.75,10.2,19.16,9.28,3.37-.5,7-.36,10-1.64,8.12-3.41,17.39-5.9,19.52-16.39a30.15,30.15,0,0,0-4.12-23c-3.86-5.82-9.47-9.61-17.44-9a32.45,32.45,0,0,0-21.82,10.12c-5.1,5.36-9.6,11.38-8.27,19.53C642.7,645.87,643,650.2,645,653.17Zm23.9-27.41c3-.7,4.75.83,5,4.14.25,4-7.54,11.87-11.58,11-2.14-.46-5.07-2.88-5.43-4.82C656.08,631.89,663.6,625.73,668.91,625.76ZM897.64,955a4.91,4.91,0,0,0,2.55.91,3.79,3.79,0,0,0,4.33-2.85,6,6,0,0,0,.19-1.51c0-1-1.16-2.22-2.1-3-6.72-5.41-8.69-12.28-10.47-21.76a82.07,82.07,0,0,1,4-32.44c6.68-20.57,28.19-32.24,47.42-33,5.69-.23,11.46,2.49,17.27,3.39h.07c3.07.43,4.6-3.7,2.1-5.53l-.34-.24a25.42,25.42,0,0,0-5.88-2.72,54.18,54.18,0,0,0-40.42,4.26c-12.89,6.76-24.71,19.48-29,34.37-2.22,7.7-3.58,18.22-3.57,29.57C884.44,939,890.35,948.8,897.64,955Zm237.52,5c-8.1,0-14.73,4.77-15.81,15.05.53,5.59,3.19,10.79,9.16,14.88,4.8,3.3,9.45,1.66,14.12,1.94,6.5.38,11.13-4.5,13.28-10.7a19.25,19.25,0,0,0-.12-13.2C1154.49,964,1147.9,960,1135.16,960ZM895,733.54a13.26,13.26,0,0,1,3.34,3.42c4.73,6.28,8.89,13.07,14.19,18.82,6.24,6.76,8.74,6.61,16.55,2,.46-.28,1-.47,1.42-.78,6.51-4.7,13-9.38,19.49-14.15,1-.71,1.62-1.86,2.88-3.37-1.43-1.36-2.63-2.56-3.9-3.69-5.06-4.51-10.34-8.8-15.12-13.58A36.41,36.41,0,0,1,927,712.7c-1.71-3.47-4.16-4.5-7.41-2.16-8.14,5.88-16.29,11.73-24.55,17.45C892.12,730,891.76,731.52,895,733.54ZM1192.47,932.1c5.72,1.81,17.61,4.86,23.44,2.69,8.29-3.91,9.38-6.72,9-10.09-1.1-10.32-6.86-16.17-16-18.48-1.53-.39-32.22-1.53-23.84,18.81C1187.24,927.71,1189.55,931.17,1192.47,932.1Zm-455.9-38c-9.87,0-22.62,7.64-21.63,14,.86,5.48,3.83,11,7.2,15.55,1.72,2.29,6.37,3.19,9.74,3.31,11.59.42,19-6.82,19-17.78S746.92,894.14,736.57,894.12Zm456.34,99.16a2.7,2.7,0,0,0,1.19.32,3.09,3.09,0,0,0,3.1-4.07,2.58,2.58,0,0,0-.46-.81c-2.13-2.47-3.24-3.13-6.3-5.9,6.26-4.82,20.09-17.84,24-21,1.57,1.61,4.86,5.76,6.24,6.5a10.45,10.45,0,0,0,1,.44,2.87,2.87,0,0,0,3.8-3.5,6.88,6.88,0,0,0-.55-1.24c-1.46-2.59-4.07-4.58-5.3-7.24-1.6-3.47-4.28-4.56-7.4-2.06-9.4,7.52-18.85,15-28.08,22.71-2.43,2-5.07,5.22-1.94,8.3S1189.13,991.1,1192.91,993.28ZM990.59,914.75a41.41,41.41,0,0,1-7.84,21,7.4,7.4,0,0,0-.78,3,3.91,3.91,0,0,0,5.71,3.92,2.27,2.27,0,0,0,.76-.65c1.84-2.8,4.85-5.84,5.45-9,2.47-5.22,6.32-16.22,4.26-27.09-.88-4.36-2.34-11.18-3.85-14.71-3.15-7.36-6.73-12.64-10.57-19.66-.08-.13-.16-.25-.25-.37-1.71-2.22-5.22-1.34-6.11,1.31a2.39,2.39,0,0,0,0,2.08C984.75,886.67,991.82,899.3,990.59,914.75Zm157.05-95c.42-.51.27-3.16-.28-3.39a19.25,19.25,0,0,0-5.5-1.08c-2.72-.33-17.12-3.24-21.45-4.83a89.08,89.08,0,0,1-13.91-6.8c-6.65-3.83-12.24-8.39-18.84-12.33-4.67-2.93-8.94,1.61-6.52,4.35.19.21.27.47.47.59,11,6.85,21,14.79,33.64,19.5a101.63,101.63,0,0,0,23.83,5.82C1143.62,821.57,1146.1,821.61,1147.64,819.7ZM837.12,680.36a3,3,0,0,0,3.73-.31c1.46-1.4,2.84-2.68,3.42-4.26,1.89-5.19,7.53-10,13.16-10.47,2.67-.21,5.53-.28,7.87-1.35,1.2-.56,2-3.17,1.94-4.85,0-.86-2.25-2.55-3.3-2.42-11.71,1.41-23,3.83-28.51,16.14a9.12,9.12,0,0,0-.29,5.57C835.31,679.1,836.07,679.64,837.12,680.36Z"/></g><g id="Thrusters"><path d="M1197.7,915.76c-1,.22-2.48,2.76-2.2,3.81,1.67,6.3,13.54,11.22,20,8.58C1219.62,915.35,1204.32,912.73,1197.7,915.76ZM739,901.88c-6.33.34-13.23,6.76-13.35,12.43-.07,3.59,3.54,7.25,7.19,7.28,5.87,0,12.61-6.71,12.6-12.62C745.4,904.87,742.51,901.69,739,901.88ZM1138,967.82c-8.64,0-11,1.73-11,8.19,0,5.89,5,10.5,11.52,10.5,6.72,0,10.46-3.1,10.48-8.7C1149.09,971,1145.54,967.81,1138,967.82ZM906.92,1114.1c-6.83,0-13,3.86-12.87,8,.15,7.28,5.49,13.72,11.38,13.72s11.37-6.73,11.55-14.32C917.08,1117.46,912.48,1114.07,906.92,1114.1ZM424.26,704.44a3.39,3.39,0,0,0-3.15-1.11c-5.43,2.75-7.21,12.41-2.95,16.61.77.76,3.73,3.59,5.61,2.31,4.17-2.86,5.13-6.7,3.66-11.55C426.86,708.25,425.1,706.12,424.26,704.44Zm817.54,138.9c-.83.28-1.6,2.75-1.56,3.71-.6,7.11,5.42,9.21,13.83,9.5a2.64,2.64,0,0,0,2.79-2.41C1256.58,848.15,1249.45,841.35,1241.8,843.34Z" fill="#077aff"/></g></g></svg>