<svg xmlns="http://www.w3.org/2000/svg" viewBox="0 0 1500 1500"><title>Anaconda</title><g id="Anaconda"><g id="Colour"><path d="M1462.37,1154.08c-.52-6.29-1.25-13.06-4-18.55-4.84-9.65-11.22-18.54-17.1-27.65-7.86-12.19-15.63-24.44-23.87-36.37q-11.7-17-24.33-33.28c-7.77-10-16.11-19.6-24.21-29.37-9.32-11.24-18.49-22.63-28-33.68-10.77-12.44-21.89-24.58-32.85-36.86q-20.31-22.74-40.62-45.48c-6-6.74-12.15-13.4-18.16-20.15q-23.16-26-46.27-52.08c-6.67-7.48-13.53-14.79-20.22-22.24-13.57-15.14-26.94-30.45-40.67-45.44-11.49-12.56-23.34-24.79-35.08-37.11q-22.08-23.16-44.27-46.21c-13.1-13.56-26.16-27.18-39.57-40.44-7.68-7.59-41.08-38.6-48.15-45.38q-16.69-16-33.24-32.25c-4.83-4.71-9.38-9.72-14.36-14.27-12.63-11.54-25.54-22.77-38.12-34.36-12.3-11.33-25-22.36-36.27-34.65-8.51-9.28-19.08-14.79-29.81-20C805,439.4,786.36,431.74,768,423.43c-13.33-6-26.53-12.34-39.83-18.44-15.21-7-30.47-13.84-45.7-20.76-12.41-5.64-48.65-22.37-52.58-24.05-5.1-2.18-4.8-2.23-1.57-6.75,5-7,12.28-12.33,13.08-22.21.86-10.53,1.75-10.08-6.81-16.44-7.56-5.62-15.45-10.79-23.12-16.26-13.26-9.47-26.45-19-39.69-28.53-4.53-3.25-8.68-7.76-13.74-9.41-9.18-3-18.9-4.32-28.42-6.25-10.77-2.18-21.57-4.24-32.35-6.38q-13.33-2.65-26.66-5.4c-6.7-1.38-13.45-2.57-20-4.31-8.43-2.23-16.71-5-25.1-7.4-9.94-2.84-19.93-5.49-29.88-8.32-6.56-1.88-13-4.5-19.65-5.74s-11.6-7.37-19-5.72c-.23.05-.55-.41-.84-.44-4.48-.45-8.95-1.2-13.43-1.21-6.15,0-12.31.51-18.46.92a21.58,21.58,0,0,0-6.55,1.12c-1,.39-2,2.32-1.89,3.49.27,4.13,1.5,8.24,1.43,12.35-.12,6.6,3.55,10.45,8.66,13.22,10.69,5.8,21.54,11.31,33.32,17.46l-17.52,8.14c-3.88,1.79-8,3.23-11.59,5.43-7.81,4.76-15.32,10-23.11,14.78-1,.63-3,0-4.48-.38-2.42-.57-4.77-1.44-7.18-2.07-1.95-.5-4.34-.28-5.84-1.35-6-4.29-10.34-3.41-14.24,2.83-2.05,3.29-4.35,6.92-7.48,9-8,5.17-16.41,9.64-24.8,14.13-1.29.69-3.49.46-5-.12-3.39-1.34-9-.18-10.26,3.12-2.38,6.15-6.73,10.11-12.16,13.46a7,7,0,0,0-2.72,5.45c.76,8.38,2.08,16.71,3.21,25.09-1.73,1-3.71,2.31-5.77,3.44-2.23,1.23-4.47,3.14-6.82,3.34-7,.59-14.13.25-21.17.74a37.34,37.34,0,0,0-10.61,2.42c-3.41,1.31-5.9,2.37-10.1.72-19.24-7.56-39-13.88-58.23-21.38-8.84-3.45-15.52-2.48-21.71,4.79A118.17,118.17,0,0,1,68.18,363c-11.09,9.4-9.05,20-4,31.89,4,9.38,9.51,18.1,14.35,27.11,3.75,7,7.95,13.78,11.1,21,1.68,3.88,3.06,9,2,12.79-7.72,27.86-16.17,55.51-24.21,83.28-1.81,6.24-3.87,12.65-4,19-.13,4.71-.25,10.75,4.32,14.12,13.87,10.25,28,20.2,42.05,30.16,12.64,8.94,25.53,17.53,38,26.7,6.34,4.67,13.09,6.6,20.15,3.73,10.82-4.39,21.22-9.8,31.82-14.72,12.29-5.7,24.62-11.35,36.72-16.92,1.86,2.88,3.14,6.26,5.55,8.32,5.34,4.54,11.28,8.36,16.9,12.58,12.52,9.43,25,18.93,37.51,28.37,3.55,2.69,4.43,4.41,5.37,10.68.15,1,.44,2.17.59,3.27,1.1,8.24,2,16.52,3.36,24.72.47,2.82,1.39,6.29,3.37,8,8.72,7.54,17.92,14.53,26.91,21.77a9.85,9.85,0,0,1,2.79,3.12c8.43,17.55,16.59,35.22,25.19,52.68,3.79,7.72,8.22,15.07,16.41,19.32,12.26,6.37,24.28,13.19,36.5,19.63,2.61,1.37,5.22,2.72,7.83,4.07l0,0,.53.27c10.36,5.35,20.78,10.61,31.13,16,20.37,10.55,40.76,21.06,61,31.82,11.05,5.87,22.32,11.53,32.66,18.51,13.1,8.85,25.38,18.92,38,28.51,14.39,10.94,28.81,21.85,43.08,32.95,3.27,2.54,6.15,2,9.16.14,3.82-2.31,7.39-5.06,11.32-7.15,1.68-.89,4.36-1.43,6-.72,10.8,4.74,21.41,9.88,32.1,14.86,17.18,8,34.33,16,51.56,23.88C757,984,772.83,990.9,788.59,998c11,5,22,10.19,33,15.07,20,8.78,40,17.4,60,26.06,11.82,5.12,23.83,9.81,35.44,15.37,9.05,4.33,37.49,17.06,40.91,18.14,6.81,2.15,13.37,5.13,20,7.87q40.15,16.65,80.28,33.38c24.23,10.1,48.4,20.36,72.67,30.39,16.74,6.92,33.52,13.75,50.41,20.28,28.46,11,57,21.9,85.56,32.48,11.75,4.35,23.8,7.92,35.81,11.52s23.87,6.73,35.81,10c10.87,3,21.7,6.2,32.65,8.87,6.94,1.69,14.22,4.13,21.1,3.52,13.79-1.22,27.43-4.24,41.1-6.69a10.86,10.86,0,0,0,5-2.58c5.32-4.75,10.32-9.84,15.69-14.53,4.87-4.25,6-9.62,6.64-15.79.58-5.18,1.79-12.58,2.11-18.87A135.12,135.12,0,0,0,1462.37,1154.08Z" fill="#2d3b36"/><path d="M1462.37,1154.08c-.52-6.29-1.25-13.06-4-18.55-4.84-9.65-11.22-18.54-17.1-27.65-7.86-12.19-15.63-24.44-23.87-36.37q-11.7-17-24.33-33.28c-7.77-10-16.11-19.6-24.21-29.37-9.32-11.24-18.49-22.63-28-33.68-10.77-12.44-21.89-24.58-32.85-36.86q-20.31-22.74-40.62-45.48c-6-6.74-12.15-13.4-18.16-20.15q-23.16-26-46.27-52.08c-6.67-7.48-13.53-14.79-20.22-22.24-13.57-15.14-26.94-30.45-40.67-45.44-11.49-12.56-23.34-24.79-35.08-37.11q-22.08-23.16-44.27-46.21c-13.1-13.56-26.16-27.18-39.57-40.44-7.68-7.59-41.08-38.6-48.15-45.38q-16.69-16-33.24-32.25c-4.83-4.71-9.38-9.72-14.36-14.27-12.63-11.54-25.54-22.77-38.12-34.36-12.3-11.33-25-22.36-36.27-34.65-8.51-9.28-19.08-14.79-29.81-20C805,439.4,786.36,431.74,768,423.43c-13.33-6-26.53-12.34-39.83-18.44-15.21-7-30.47-13.84-45.7-20.76-12.41-5.64-48.65-22.37-52.58-24.05-5.1-2.18-4.8-2.23-1.57-6.75,5-7,12.28-12.33,13.08-22.21.86-10.53,1.75-10.08-6.81-16.44-7.56-5.62-15.45-10.79-23.12-16.26-13.26-9.47-26.45-19-39.69-28.53-4.53-3.25-8.68-7.76-13.74-9.41-9.18-3-18.9-4.32-28.42-6.25-10.77-2.18-21.57-4.24-32.35-6.38q-13.33-2.65-26.66-5.4c-6.7-1.38-13.45-2.57-20-4.31-8.43-2.23-16.71-5-25.1-7.4-9.94-2.84-19.93-5.49-29.88-8.32-6.56-1.88-13-4.5-19.65-5.74s-11.6-7.37-19-5.72c-.23.05-.55-.41-.84-.44-4.48-.45-8.95-1.2-13.43-1.21-6.15,0-12.31.51-18.46.92a21.58,21.58,0,0,0-6.55,1.12c-1,.39-2,2.32-1.89,3.49.27,4.13,1.5,8.24,1.43,12.35-.12,6.6,3.55,10.45,8.66,13.22,10.69,5.8,21.54,11.31,33.32,17.46l-17.52,8.14c-3.88,1.79-8,3.23-11.59,5.43-7.81,4.76-15.32,10-23.11,14.78-1,.63-3,0-4.48-.38-2.42-.57-4.77-1.44-7.18-2.07-1.95-.5-4.34-.28-5.84-1.35-6-4.29-10.34-3.41-14.24,2.83-2.05,3.29-4.35,6.92-7.48,9-8,5.17-16.41,9.64-24.8,14.13-1.29.69-3.49.46-5-.12-3.39-1.34-9-.18-10.26,3.12-2.38,6.15-6.73,10.11-12.16,13.46a7,7,0,0,0-2.72,5.45c.76,8.38,2.08,16.71,3.21,25.09-1.73,1-3.71,2.31-5.77,3.44-2.23,1.23-4.47,3.14-6.82,3.34-7,.59-14.13.25-21.17.74a37.34,37.34,0,0,0-10.61,2.42c-3.41,1.31-5.9,2.37-10.1.72-19.24-7.56-39-13.88-58.23-21.38-8.84-3.45-15.52-2.48-21.71,4.79A118.17,118.17,0,0,1,68.18,363c-11.09,9.4-9.05,20-4,31.89,4,9.38,9.51,18.1,14.35,27.11,3.75,7,7.95,13.78,11.1,21,1.68,3.88,3.06,9,2,12.79-7.72,27.86-16.17,55.51-24.21,83.28-1.81,6.24-3.87,12.65-4,19-.13,4.71-.25,10.75,4.32,14.12,13.87,10.25,28,20.2,42.05,30.16,12.64,8.94,25.53,17.53,38,26.7,6.34,4.67,13.09,6.6,20.15,3.73,10.82-4.39,21.22-9.8,31.82-14.72,12.29-5.7,24.62-11.35,36.72-16.92,1.86,2.88,3.14,6.26,5.55,8.32,5.34,4.54,11.28,8.36,16.9,12.58,12.52,9.43,25,18.93,37.51,28.37,3.55,2.69,4.43,4.41,5.37,10.68.15,1,.44,2.17.59,3.27,1.1,8.24,2,16.52,3.36,24.72.47,2.82,1.39,6.29,3.37,8,8.72,7.54,17.92,14.53,26.91,21.77a9.85,9.85,0,0,1,2.79,3.12c8.43,17.55,16.59,35.22,25.19,52.68,3.79,7.72,8.22,15.07,16.41,19.32,12.26,6.37,24.28,13.19,36.5,19.63,2.61,1.37,5.22,2.72,7.83,4.07l0,0,.53.27c10.36,5.35,20.78,10.61,31.13,16,20.37,10.55,40.76,21.06,61,31.82,11.05,5.87,22.32,11.53,32.66,18.51,13.1,8.85,25.38,18.92,38,28.51,14.39,10.94,28.81,21.85,43.08,32.95,3.27,2.54,6.15,2,9.16.14,3.82-2.31,7.39-5.06,11.32-7.15,1.68-.89,4.36-1.43,6-.72,10.8,4.74,21.41,9.88,32.1,14.86,17.18,8,34.33,16,51.56,23.88C757,984,772.83,990.9,788.59,998c11,5,22,10.19,33,15.07,20,8.78,40,17.4,60,26.06,11.82,5.12,23.83,9.81,35.44,15.37,9.05,4.33,37.49,17.06,40.91,18.14,6.81,2.15,13.37,5.13,20,7.87q40.15,16.65,80.28,33.38c24.23,10.1,48.4,20.36,72.67,30.39,16.74,6.92,33.52,13.75,50.41,20.28,28.46,11,57,21.9,85.56,32.48,11.75,4.35,23.8,7.92,35.81,11.52s23.87,6.73,35.81,10c10.87,3,21.7,6.2,32.65,8.87,6.94,1.69,14.22,4.13,21.1,3.52,13.79-1.22,27.43-4.24,41.1-6.69a10.86,10.86,0,0,0,5-2.58c5.32-4.75,10.32-9.84,15.69-14.53,4.87-4.25,6-9.62,6.64-15.79.58-5.18,1.79-12.58,2.11-18.87A135.12,135.12,0,0,0,1462.37,1154.08Z" fill="none" stroke="#000" stroke-linejoin="round" stroke-width="8"/></g><g id="Paint"><path d="M150,366.82l29.29,195.87-18.59-14.35-27-187-10.32-6.76,27.8,203.23,21.78,15.67,9,49.2,15.33-8.55-37.72-245.3Zm89.32,23.76L232.74,386l-15.58,56.84L236,547.72l-14.91-11.51L204,438.43l16-56.22L212.58,379,195.76,433l17.68,110.83,17.47,12.58,7.21,39.48,12.3-6.87L224.78,444.44ZM563.51,301l11.84,8.59,6.35,5.24L473,269.35l-12.59-5.84-36.23-4.38-2.07,4.38L464.94,269l16.9,9.31,153.46,62.9,3.72-10-51.13-20.8L573.28,300,456.34,250.28,368.11,242l9,5.38,76.28,7.83ZM496,320.85l125.67,37,5.75-6.28-55.47-19.07-16.26-15.24L466.21,290.2,479.82,301l71.92,22.8,10.79,9.89-81.74-24.1ZM503.56,532l10,6s3.91-4.73,9.29-.51L604,600.39l13.69,8,3.43-17.3-104-71.83Zm165-37.85C660.2,492,626.5,471,624.85,469.66c-2.64-2.13,0-4.71,0-4.71l-10.36-5.9s3.22-3.88-7.53-1.46-8.32,6.87-8.32,6.87S703.78,532.92,708.92,532,729,535,729,535l-22.65-17.17S683.41,497.92,668.57,494.11ZM538.5,786.76c-5.87-1.52-156-4.45-159.42-4s-1.71,3.67,2.33,4c3.65.26,158.07,4.35,161.73,2.88S544.36,788.27,538.5,786.76ZM893,544.22c-.49-3.48-20-44.86-23-49.31-4.89-7.21-6.45-6.41-4.89-2.29,6.5,17.19,22,49.94,24,51.48S893.51,547.69,893,544.22Z" fill="#dbdbdb"/></g><g id="Grey"><path d="M648.73,553.56c-7.16-2.89-16,8.44-15.84,10.22s6.33,7.78,12.22,2.11S651.28,554.59,648.73,553.56Zm34.71-23.12c-2.11.12-10.77,3.23-12.22,4.72s-1.78,3.28,2.34,4.41,15-1,15.22-4S687.38,530.24,683.44,530.44Zm40.23,171.31c-1.75.08-16.09,9-17,12.58s13.91,14.5,16.58,14.5,19.83-11,19.83-13.39S725.91,701.64,723.67,701.75Zm108.89-49.81c3.83.67,17.77-8.94,18.16-12.16s-14.88-12.25-19-13.11c-.65-.14-15.81,9.61-15.89,12.27S828.72,651.28,832.56,651.94Zm166.86,34c-1.75.16-16.67,3.08-15.92,5.5s16.25,14.33,20.08,17.75,24.25,19.75,28.25,23.58,21.75,17.5,24.84,20.25,17.83,19.17,20.91,21.08,12.5-.75,17.25-1.25,6.25-1.5,4.34-4.75S1004.21,685.46,999.42,685.92ZM873.67,897.5c-6.84-.83-4.34-1.17-5.67-5.33s-20-16-24.33-15.84-5-2.33-5.65-5.5-20.35-15-23.78-15-5.07-1.5-5.74-4-21.1-14.61-25-15.5c-1.35-.3-19.5,20.5-19.5,22.5s117.83,82,119,82,15.17-25,15-27.5S880.5,898.33,873.67,897.5Zm292.44,141.28c-2.11-.11-11.55,7.66-11.89,10.35s11.56,10.2,15.67,10.2,9.78-8.77,9.22-11.44S1168.22,1038.89,1166.11,1038.78Zm92.67-73.89c-1.61-.45-13,7-12.45,9s10.11,8.66,14.11,8.88,10.67-4.78,10.89-7.78S1261.24,965.57,1258.78,964.89ZM279.56,285.67c-2.34.45-3,2.45-5.23,4.89-3.77,4.16-16.66,15.72-44.11,24.44-4.2,1.33-12.66,13.22-14.66,17.33s3.33,22.56,5.22,22.3,12.78-6.52,15.66-6.74,13.78,8,17,9,42.1,4.78,45.65,5,37-21.11,38.11-22.65-3.33-22.8-8.44-31.31S283.27,285,279.56,285.67Z" fill="#848484"/></g><g id="Detail"><path d="M274.78,389.34c-6.34,3-13.45-4.67-11.67-8.67s.64-11-3-12.34c-10.11-3.66-18.33,0-16.67,4.56s37.67,31.67,50.89,29.67,7.45-10.23,2.89-16.25S281.11,386.33,274.78,389.34ZM407,326.44c-1.67-8.22-21.76-32.2-26.89-33-18.67-2.88-21.67,10.45-17.8,16.14s15.1,2.23,21.79,1.23,14.46,6.41,9.31,8.3c-3.1,1.14-11.44,3-13.3,8.89-2.24,7.14,1.33,13.33,13,13.39S408.67,334.67,407,326.44Z" fill="#ff7100"/></g><g id="Canopy"><path d="M739.44,544.44c-.55-4.45-7.55-7.11-9.88-7.11s-11.67,31.45-12.23,34-40.66,28.11-42.78,29.11-56.74,7.43-58.2,7.11-57.24-39.11-57.24-39.11c-1.44.67-1.55,4.89,0,8.23s46,36.11,47.78,39,8.67,11.66,9.67,12.44,51.55-8.22,64.88-11.11,24.34-10.78,28.78-13.33,18.67-15.89,20.67-16.56S740,548.89,739.44,544.44Z" fill="#82b3d1"/></g><g id="Shadows" opacity="0.2"><path d="M1457.21,1173.58c-5.16,19.5-16.44,27.57-27.47,34.41s-29.58,5.19-39.1,6.19-115.79-30.07-115.79-30.07L1022,1082.35,616.18,874.83l-77.62-92.09L385.9,766.24c-7,0-7.82-.69-8.65-2.2s-83.88-184.51-83.88-184.51L271.16,567.7S179.81,611.53,168.91,617s-9.88,5.22-17.4,0-76.26-54.58-76.26-54.58l-6.45-18L63,558.12l1,9.58,89.73,63,10.6,3.09L236,601.19l42.83-11.08,44.11,92.13L369.46,784.8,612.24,915.43l423.36,189S1325,1228.22,1391.84,1231s69.71-47.3,69.71-47.3S1462.37,1154.08,1457.21,1173.58ZM689.54,667.63,781.77,726,679.08,635.55l-36.3,28.07,33.72.34ZM326.29,505.89s107.62,80.21,121,87.22,109.61,56.48,109.61,56.48l40.93-14s11.8-.57,5.85-22.72S524.45,544,503.56,532s-55-59.17-67.33-74.37-104.35-52.62-116-57.43S246.32,365,234.5,358.6s-45.9,30.74-45.9,30.74l-43.44,16.77L232.72,467Zm106.6-121.62,138.35,23.81-34.76-37.17-56.14-48.83L442.58,291.6l-27.4-16.9-57.36,5.44-29.53,23.24,23.06,25.06Zm105.67,76.17L564.34,475l13.92-4.48,5.34-6.68L567,451.42ZM1274,973.9l-15.8-11.52-7.26,5.29,15.38,9.75Zm-91.94,76.49-1.29-3.39-15.37-10.1-5.57,7,14.08,9.11Zm187.18,51.85c16,21.21,40.85,51.29,40.85,51.29l2.93-6.69-11.7-20.71-43.77-56.81-67.81-65.92,7.66,23.81S1353.21,1081,1369.25,1102.24ZM306.33,305.06l-25.06-19.39-16.14,14.69,50.13,20.73Zm-54.19,21.38-19.42-13.37-9.63,13.37,45.75,23.62Z" fill="#111"/></g><g id="Outline"><path d="M567.64,711.9q-29.82-17.25-59.88-34.08Q485,665,462.07,652.39c-2.55-1.4-5.57-2.91-8.31-2.8-10.13.41-30.38,1.71-30.41,1.42-6.11.45-12.22.94-18.34,1.33-4.15.27-5.15,2-2.86,5.51q13,20,26.11,40a5.92,5.92,0,0,0,2.17,2.31c12.61,5.32,25.27,10.5,37.89,15.79q28.62,12,57.2,24.11,16,6.73,31.94,13.46c2.39,1,4.26,1,5-2.31,2.47-11.49,5.25-22.91,7.57-34.43C570.3,715.33,569,712.67,567.64,711.9ZM541.89,496.52c2.14-2,5.08-3.26,7.64-4.89,13.19-8.38,43.12-25.29,40.41-28-7.33-7.27-17-11.7-25.47-17.63-4-2.8-7.87-2.94-11.9,0-1.85,1.34-3.83,2.49-5.5,3.5a1.11,1.11,0,0,1-1.52-.4c-1.19-2.06-1.89-3.84-3.19-4.75-12.28-8.61-24.7-17-37.11-25.46-5.19-3.52-6.57-2.92-9.42,2.72-2.23,4.4-20,11.59-24.18,13.59a33.62,33.62,0,0,0-3.18,1.84,1.09,1.09,0,0,0-.38,1.46,10.12,10.12,0,0,0,2.43,3.54q14,10.14,28.17,19.9c4.08,2.79,8.42,5.21,12.83,7.83a1.1,1.1,0,0,1,.11,1.81c-2.55,2-5.38,4.09-8,6.4a5.51,5.51,0,0,0-.95,1.09,2.75,2.75,0,0,0,1,4c1.23.62,2.4,1.11,3.12.74,3.88-2,6.57-.36,9.45,1.62,5.39,3.72,10.71,7.53,16.18,11.12C535.46,498.52,538.5,499.76,541.89,496.52Zm-13.72-25.74c7.69-4.66,15-9.29,22.63-13.36,1.46-.78,4.42.8,6.49,1.73a25.77,25.77,0,0,1,4.67,3.34c3.94,3,7.91,3.67,11.71-.1,2.72-2.7,4-.3,6.08.93a1.1,1.1,0,0,1,0,1.86c-13.55,8.6-26.4,16.64-39.08,24.94-3,1.95-4.86,1-7-.79a1.1,1.1,0,0,1,.46-1.91,6.16,6.16,0,0,0,1.21-.37c1.56-.7,3.94-1.23,4.36-2.4.77-2.18.52-4.45-2.49-5.9s-5.84-3.78-9.09-6.15A1.1,1.1,0,0,1,528.17,470.78ZM856.83,639.69c.49-1.12-3.22-2.91-3.22-2.91-6.08-4.42-12.21-9-18.51-13.33-1.21-.83-3.68-1.42-4.65-.76-6.35,4.29-12.5,8.88-18.6,13.52-2.64,2-2.89,3.67.53,5.79,5.65,3.52,10.86,7.76,16.35,11.76,1.46,1.07,3,3.27,4.06,2.62.69-.43,6.82-4.45,11.75-7.65,1.8-1.26,3.66-2.46,5.58-3.57l.11-.07C853.32,643.21,856.35,640.82,856.83,639.69Zm-22.12,8.77a4,4,0,0,1-3.71-.06c-2.81-2.23-9.48-7.29-13-10,4.85-3.27,9.39-6.44,14.09-9.36.55-.34,2.11.55,3,1.18,4.05,3,8,6.07,12.54,9.51C843,642.89,839,645.82,834.71,648.46Zm292.44,187.87q-26-19.17-52-38.42l-.13-.1a5.94,5.94,0,0,0-7-.13l0,0q-14.89,11.32-29.67,22.78c-3.76,2.93-3.58,5.17.39,7.91,7.83,5.42,15.76,10.7,23.49,16.26,9,6.43,16.16,11.88,25,18.49,2.1,1.58,5.64,4.58,7.65,4.58s4.21-1.6,6.43-3.11c6.89-5.19,21.33-16.59,25.76-20.19S1131.67,839.66,1127.15,836.33ZM1103.4,856c-4.73,3.87-7.25,6.87-10.71,4.62-3.8-2.31-7.16-5.34-10.73-8l-38.38-28.85,11.4-8.58c8.69,6,50.71,36.34,52.59,37.8A33,33,0,0,1,1103.4,856Zm8.89-7.43c-6.43-4.54-43.72-31.78-52.74-36.84l12-9.5,51.53,38.31ZM703.2,717.94c3.93,2.75,7.56,5.93,11.4,8.82,2.41,1.81,4.9,3.51,7.36,5.22a3.74,3.74,0,0,0,3.75.31,8.68,8.68,0,0,0,2-1.22,89.9,89.9,0,0,1,14.38-10.37c5.77-3.25,6.68-5.49,2.82-8.44-5.59-4.28-11.06-8.71-16.78-12.8-1.46-1-4.31-2.07-5.41-1.36-6.86,4.36-13.49,9.1-20,14C700.42,713.84,700.39,716,703.2,717.94Zm18.87-12.47c.82-.53,2.5-.8,3.16-.33,4.62,3.29,9.08,6.8,14,10.53-5.2,3.74-9.63,7-14.2,10.1a3.14,3.14,0,0,1-2.84-.39c-4.38-3.47-8.63-7.1-13.24-10.94C713.68,711.17,717.81,708.22,722.07,705.47Zm-92.18-139c4,2.27,8.17,4.11,12.28,6a2.31,2.31,0,0,0,2,0c1.42-.72,2.56-1.13,3.13-2,2.88-4.17,5.55-8.48,8.17-12.82a4.71,4.71,0,0,0,.66-3.14c-.77-3.5-12.54-8-15.12-5.49a119.77,119.77,0,0,0-11.13,12.86C629.13,562.92,629.2,566.07,629.89,566.47ZM642.79,556c1.25-.8,3.34-.28,5.05-.36-.37,1.35-.37,3-1.15,4-5.39,7.11-5.56,7.11-11.39,2.68C637.84,560.12,640.1,557.72,642.79,556ZM483.72,482a4,4,0,0,0-2.17.5,12.1,12.1,0,0,0-4,4.19c-7.3,14.87-13.56,30.13-17.12,47.52-.43,2.9,1.89,4,3.11,3.5.34-.15,2.84-1.33,2.86-2.09.16-7.82,3.35-14.72,6-21.81,3.61-9.51,6-19.56,12.87-27.59.48-.56.32-1.68.16-2.8A1.66,1.66,0,0,0,483.72,482ZM671,542.26a7.79,7.79,0,0,0,5.69,1.91,128.05,128.05,0,0,0,14.79-3.38c1.24-.34,2.26-1.52,3.11-2.12a20.5,20.5,0,0,0-.46-2.29c-3.57-8.94-8.74-11.32-17.84-8.22-1,.36-2.07.8-3.09,1.24C662.44,534,662.36,534.1,671,542.26ZM683.35,532l3.54,3.54L673.63,538c-.19-.71-.39-1.42-.58-2.13ZM732,456.48c2.16,5.89,3.15,12.17,8.55,16.7,13.31,11.17,26.28,22.75,39.29,34.28s25.67,23.08,38.58,34.52a11.74,11.74,0,0,0,5.27,2.72c10,1.93,20,3.67,30.1,5.29a6.24,6.24,0,0,0,2.41-.19A2.37,2.37,0,0,0,858,547a5.15,5.15,0,0,0-1-2.37c-5.33-6-10.84-11.77-16.41-17.52-12.77-13.18-25.62-26.29-38.42-39.44-.77-.8-1.33-1.82-2.12-2.6-8.23-8.14-15.08-17.71-25.75-23.28s-21.1-11.82-31.68-17.68c-4-2.23-8.15-4.23-11.49-5.94-3.55-2-4.72,1-3.69,4.25C728.87,447.13,730.27,451.86,732,456.48ZM105.27,546.24c-3.34-1.6-5.57-2.73-6.87-2s-24.66,14.53-23.15,18.2c2.28,5.54,8.64,8.8,11.35,10.77s14.33,9.73,17.54,7.79c1.84-1.12,17.08-19.86,17.73-22.48S107.17,547.16,105.27,546.24Zm45.29-42.82c-2.61.32-12.26,8.88-11.09,11.41,2.29,4.89,16.63,10.1,20.22,8.7s9.12-11.31,8.15-13.72S153.17,503.09,150.56,503.42ZM515.47,288c5.34,3,9.33-.43,11.28-2.39s-6.32-7.06-9.77-9.85c-2.62-2.12-6.52-.57-9.13,0S510.13,285,515.47,288ZM1027.2,916.47c-4.62-3.42-9.32-6.75-13.86-10.26-13.3-10.28-26.5-20.67-39.88-30.84-1-.75-3.13-1-6.1,1L934,900.76a2.32,2.32,0,0,0-.81,2.68,5,5,0,0,0,1.38,2.31c4.14,3.12,8.69,5.69,12.77,8.88,14.44,11.31,23.64,19.89,38.55,30.57,3.94,2.82,10.44,1.38,11.28.72,10-7.79,19.75-15.79,30-23.11C1031.2,920,1030.05,918.57,1027.2,916.47ZM995.67,940.1c-1.53.86-4.54,1-5.82.09-9.14-6.74-18-13.9-27-20.83-7.35-5.67-14.69-11.34-22.23-16.75l12.2-8.4c.24.38,44.38,34.22,51.06,39.47C1001.19,935.87,998.67,938.41,995.67,940.1Zm14.1-11.22c-9.84-7.94-42.32-33.66-49.94-39.48l11.88-8.2c9,6.88,18.1,13.71,27.11,20.6,7.74,5.91,15.43,11.89,23.15,17.84C1018.11,922.55,1012.32,927,1009.77,928.88Zm362.3,236.25c-1.26-1.39-2.29-3.55-3.84-4-10.15-3.2-20.41-6.07-30.65-9-2.58-.73-5.22-1.22-7.84-1.81-.55,2.55-7.9,28.8-11,39.12-.77,2.6-.49,4.2,2.71,4.88,5.12,1.09,10.13,2.66,15.18,4.08,11.16,3.11,22.29,6.36,33.51,9.26,1.38.36,4.87,1,4.87-1.73h0l-3-40.79Zm89.9-11.05c-.53-6.29-1.26-13.06-4-18.55-4.85-9.65-11.22-18.54-17.1-27.65-7.87-12.19-15.64-24.44-23.88-36.37q-11.7-17-24.33-33.28c-7.77-10-16.11-19.6-24.21-29.37-9.32-11.24-18.49-22.63-28-33.68-10.76-12.44-21.89-24.58-32.85-36.86q-20.31-22.74-40.62-45.48c-6-6.74-12.14-13.4-18.16-20.15q-23.14-26-46.27-52.08c-6.67-7.48-13.53-14.79-20.22-22.24-13.57-15.14-26.94-30.45-40.67-45.44-11.49-12.56-23.33-24.79-35.08-37.11q-22.08-23.16-44.27-46.21c-13.1-13.56-26.15-27.18-39.56-40.44-7.69-7.59-41.09-38.6-48.15-45.38q-16.71-16-33.25-32.25c-4.83-4.71-9.38-9.72-14.36-14.27-12.63-11.54-25.54-22.77-38.12-34.36-12.3-11.33-25-22.36-36.26-34.65-8.52-9.28-19.09-14.79-29.81-20-18.12-8.84-36.8-16.5-55.18-24.81-13.33-6-26.53-12.34-39.83-18.44-15.21-7-30.47-13.84-45.7-20.76-12.41-5.64-48.65-22.37-52.58-24.05-5.1-2.18-4.79-2.23-1.57-6.75,5-7,12.28-12.33,13.09-22.21.86-10.53,1.74-10.08-6.82-16.44-7.56-5.62-15.45-10.79-23.11-16.26-13.26-9.47-26.46-19-39.69-28.53-4.54-3.25-8.68-7.76-13.75-9.41-9.18-3-18.9-4.32-28.42-6.25-10.77-2.18-21.56-4.24-32.34-6.38q-13.35-2.65-26.67-5.4c-6.7-1.38-13.45-2.57-20.05-4.31-8.43-2.23-16.71-5-25.09-7.4-9.94-2.84-19.94-5.49-29.88-8.32-6.57-1.88-13-4.5-19.66-5.74s-11.59-7.37-19-5.72c-.23.05-.55-.41-.84-.44-4.47-.45-8.95-1.2-13.43-1.21-6.15,0-12.31.51-18.46.92a21.58,21.58,0,0,0-6.55,1.12,4.26,4.26,0,0,0-1.88,3.49c.26,4.13,1.49,8.24,1.42,12.35-.12,6.6,3.55,10.45,8.66,13.22,10.7,5.8,21.55,11.31,33.32,17.46l-17.52,8.14c-3.88,1.79-8,3.23-11.59,5.43-7.81,4.76-15.32,10-23.11,14.78-1,.63-3,0-4.48-.38-2.42-.57-4.77-1.44-7.18-2.07-1.94-.5-4.34-.28-5.84-1.35-6-4.29-10.34-3.41-14.24,2.83-2.05,3.29-4.35,6.92-7.48,9-8,5.17-16.41,9.64-24.8,14.13-1.29.69-3.49.46-5-.12-3.39-1.34-9-.18-10.27,3.12-2.38,6.15-6.72,10.11-12.16,13.46a7,7,0,0,0-2.72,5.45c.77,8.38,2.08,16.71,3.21,25.09-1.73,1-3.71,2.31-5.76,3.44-2.24,1.23-4.47,3.14-6.83,3.34-7,.59-14.13.25-21.17.74a37.27,37.27,0,0,0-10.6,2.42c-3.42,1.31-5.91,2.37-10.11.72-19.24-7.56-39-13.88-58.22-21.38-8.85-3.45-15.53-2.48-21.71,4.79A119.07,119.07,0,0,1,67.77,363c-11.09,9.4-9,20-4,31.89,4,9.38,9.51,18.1,14.35,27.11,3.76,7,8,13.78,11.1,21,1.68,3.88,3.06,9,2,12.79C83.48,483.67,75,511.32,67,539.09c-1.81,6.24-3.87,12.65-4,19-.13,4.71-.25,10.75,4.32,14.12,13.87,10.25,28,20.2,42.06,30.16,12.63,8.94,25.52,17.53,38,26.7,6.34,4.67,13.09,6.6,20.15,3.73,10.82-4.39,21.22-9.8,31.83-14.72,12.29-5.7,24.61-11.35,36.71-16.92,1.86,2.88,3.14,6.26,5.56,8.32,5.33,4.54,11.27,8.36,16.89,12.58,12.53,9.43,25,18.93,37.51,28.37,3.56,2.69,4.59,4.69,5.37,10.68.14,1,.45,2.17.59,3.27,1.1,8.24,2,16.52,3.36,24.72.47,2.82,1.39,6.29,3.37,8,8.72,7.54,17.92,14.53,26.91,21.77a10,10,0,0,1,2.8,3.12c8.42,17.55,16.59,35.22,25.18,52.68,3.8,7.72,8.23,15.07,16.41,19.32,12.26,6.37,24.28,13.19,36.51,19.63,2.6,1.37,5.21,2.72,7.82,4.07l.05,0,.53.27c10.36,5.35,20.77,10.61,31.12,16,20.37,10.55,40.77,21.06,61,31.82,11,5.87,22.32,11.53,32.66,18.51,13.1,8.85,25.38,18.92,38,28.51,14.39,10.94,28.8,21.85,43.07,32.95,3.27,2.54,6.16,2,9.16.14,3.82-2.31,7.39-5.06,11.32-7.15,1.69-.89,4.37-1.43,6-.72,10.79,4.74,21.4,9.88,32.1,14.86,17.17,8,34.32,16,51.56,23.88,15.73,7.17,31.57,14.1,47.34,21.21,11,5,21.95,10.19,33,15.07,19.95,8.78,40,17.4,60,26.06,11.82,5.12,23.84,9.81,35.44,15.37,9.05,4.33,37.49,17.06,40.91,18.14,6.81,2.15,13.38,5.13,20,7.87q40.16,16.65,80.27,33.38c24.24,10.1,48.41,20.36,72.67,30.39,16.74,6.92,33.52,13.75,50.42,20.28,28.45,11,56.94,21.9,85.55,32.48,11.76,4.35,23.8,7.92,35.81,11.52s23.87,6.73,35.82,10c10.87,3,21.69,6.2,32.64,8.87,7,1.69,14.22,4.13,21.1,3.52,13.8-1.22,27.43-4.24,41.1-6.69a10.9,10.9,0,0,0,5-2.58c5.31-4.75,10.32-9.84,15.68-14.53,4.87-4.25,5.08-9.78,6.64-15.79,1.35-5.18,1.79-12.58,2.12-18.87A136.75,136.75,0,0,0,1462,1154.08ZM1206.23,834.6A4.23,4.23,0,0,1,1209,836q10,11,19.94,22.1c.32.5,1,1.69,1.81,3.42L1190.57,835C1195.79,834.87,1201,834.68,1206.23,834.6ZM1183.8,836l49.73,31.21c11.51,24.16,40.08,87.49,46.11,100.08a.29.29,0,0,1-.46.32c-2.64-2.56-5.54-5.9-7.9-8.64-5.48-6.34-23.31-24-26.67-27-13.79-12.34-25.25-23.16-38.88-35.69-4.74-4.35-11-10.07-15.45-14.72-4.87-5.14-21-20-21-20.1-3.46-6.16-33.82-31.26-44-38.61s-53.41-44.55-53.41-44.55c-1.41-.89-2.85-1.74-4.23-2.68-4.44-3.06-9.14-5.84-13.25-9.3q-21.23-17.88-42.09-36.21c-4-3.47-7.35-7.6-11.32-11.08-5-4.41-10.21-8.7-15.66-12.59-4.57-3.25-8-7-9.75-13.31a.88.88,0,0,1,1-1.1,5.31,5.31,0,0,1,2.46.85c5,4.35,9.79,8.87,14.67,13.33.58.53,9.52,3.8,10.4,6.25,1.89,5.3,8.65,9.8,13.6,14,3.52,2.95,6.39,7.34,12,7.46.88,0,1.36,3.28,2.58,4.48a125.29,125.29,0,0,0,11.9,10.68c3.62,2.74,7.93,4.54,11.64,7.17,1.43,1,1.7,3.56,3.05,4.81,5.78,5.39,11.73,10.6,17.74,15.73a5.21,5.21,0,0,0,3.59.8c7.75-.85,15.5-1.71,23.2-2.85,3.34,3.48,12,10.18,14.71,12.13,3.1,2.21,47.77,38.79,60.42,46.83A27.06,27.06,0,0,0,1183.8,836Zm-8.87,225.51c3-3.49,5.87-6.15,8.69-8.92,2.32-2.29,2.62-8,.54-9.64-4-3.19-7.78-7-12.32-9-3.11-1.42-8.55-1.84-10.86,0-5.39,4.21-13.94,6.79-11.78,17-8-3.37-15.09-6.18-18.39-14.3-.93-2.3-3.31-4.34-5.51-5.74-28.65-18.27-57.46-36.28-86-54.65-4.83-3.11-9.48-4.67-14.45-3.61h0l-116.2-71.11a14.31,14.31,0,0,0,.12-3.26c-.9-8.45-2.36-16.84-3-25.3-.49-6.92-2.39-12.2-8.69-16.29-8.3-5.37-15.59-12.29-23.81-17.8-3.64-2.44-8.41-3.57-12.84-4.41-19.89-3.79-39.74-8-59.8-10.59a34.69,34.69,0,0,1-4.93-1s77.19-62.67,78.88-63.88l1-.41c2.95-1,5.19.47,8.33,2.46s518.45,393.16,520.41,395.11c1.19,1.2-2,2.4-4.66,3.14a6.31,6.31,0,0,1-3.75-.08,214.85,214.85,0,0,1-21-8.15c-17.11-7.78-34.12-15.84-50.81-24.46s-32.92-18.14-49.42-27.13c-16.93-9.22-33.93-18.3-50.92-27.4-5.06-2.7-12.17-7.32-17.6-7.61-7.88-.44-23.48-.44-30.11-.43A1.49,1.49,0,0,1,1174.93,1061.49Zm-5-5.06a3.21,3.21,0,0,1-3,.3c-3.39-2.36-6.61-5-10.22-7.76l9.13-7.68c1.82,1.44,3.64,2.93,5.51,4.34s3.85,2.8,6,4.33C1174.87,1052.14,1172.49,1054.42,1169.9,1056.43ZM807.14,859.59c7.92-2,13,3.18,18.69,6.9,1.87,1.23,4,2.18,5.51,3.76a9.87,9.87,0,0,1,2.81,5.3c.5,5,1.12,5.65,6.06,4.86,3.08-.48,5.92-.72,8.75,2.06,3.13,3.06,7.22,5.23,11.11,7.41a10.13,10.13,0,0,1,5.57,8.83c.12,1.53.55,3.59,1.61,4.36s4.43.79,4.56.39c1.73-5.16,4.56-2.19,6.65-.83,5.48,3.55,10.75,7.44,16.92,11.77-5.48,8.41-8,13.86-14,23L766.7,857.71c6.23-6.71,8.93-9.82,14.53-15.89,2.88-3.12,5.52-3.42,9-.35,3.31,2.93,7.36,5,11,7.62,2.35,1.68,4.88,3.3,3.25,7.12C804.18,856.88,806.52,859.74,807.14,859.59Zm-283-351.07c-.72-.71-4.78,1.1-6.62,2.6-2.44,2-4.2,4.81-6.42,7.47-4.7-3.14-9.43-5.81-13.56-9.2-3.73-3.07-5.48-1.43-6.84,1.93-2.92,7.23-8.58,22.77-8.73,23.22-2.74,8.11-2.74,8.11,4.08,13l-17.12,25.66c-19.5-14-19.11-14.56-38.53-28-4.58-4.34-34.29-71.49-35.75-89.37-.49-6-47-9.88-53-14.66-13.8-11.19-33.7-21.46-41.51-30.06-3.83-4.21-3.63-4.27.91-7.32a23.67,23.67,0,0,0,7.64-8.49c.91-1.77-.14-5.49-1.59-7.35-7.37-9.48-17.25-9.36-27.67-6.4-3.1.88-6,1.77-7.59,5.12-.31.66-2.82.91-3.88.41-.87-.4-1.85-2.82-1.47-3.29,5.23-6.5,1.43-10.63-2.53-14.74h0c-.51-.53-1-1-1.52-1.59l0,0c-6.37-5.46-18.63-3.26-25.17-.9-1.71.61-3.95-.24-6.07-.79a.49.49,0,0,1-.09-.92c10.28-4.77,30.49-5.12,44.93-3l24.2,3.23c1.56,2,2.41,3.93,3.88,4.9,9.41,6.18,18.95,12.15,28.4,18.17-3.76,2.51-8.27,5.14-12.26,8.41-1.25,1-1.57,3.75-1.52,5.68.05,2.37.9,4.55,4.3,3.17.7-.29,2.05.59,2.93,1.19,5.52,3.81,11.05,7.6,16.44,11.59,2.59,1.92,6.25,3.09,6.07,7.47,0,.53,1.65,1.54,2.57,1.58s2.69-.78,2.73-1.32c.48-6.54,6.4-8.23,11.57-10.8,1.54-.76,13.06-6,13.1-6l66.33,30.27a59.91,59.91,0,0,0-4.46,6.14,4.39,4.39,0,0,0-.28,2.33,1.64,1.64,0,0,0,1.43,1.53,4.21,4.21,0,0,0,2.61-.17c1.68-1.07,2.71-3.13,4.36-4.26,11.14-7.54,22.37-15,33.58-22.38,3.46-2.29,7.27-4.14,10.42-6.78,5.59-4.69,11.09-1.76,16.56-.35,17.06,4.39,46.1,19.44,49.62,19.81,16,1.67,26.25,14,38.86,21.75,6,3.67,11.09,3.7,17.06,2a35.2,35.2,0,0,0,5.06-1.36c8.49-3.77,16.61.2,24.85,1.12,3.15.35,6.22,1.38,9.37,1.74,1,.12,3.17-1,3.13-1.38-.13-1.59-.44-3.76-1.54-4.59-5.71-4.35-11.65-8.4-17.57-12.46q-11.44-7.86-23-15.58c-3.17-2.13-6.41-4.16-9.77-6.34l4.3-2.49c22.82,15.15,45.9,30,68.43,45.57s44.33,31.93,66.68,48.1c-4.83,5.35-.06,9,1.44,12.65,5,11.94,10.84,23.51,16.28,35.26a7.4,7.4,0,0,1,.66,3.65c-1,13.1-2,26.19-3.12,40.37l-23.19-21.46c3-12,5.8-23.89,9.12-35.59.83-2.94.31-4.67-1.75-6.29-9.13-7.17-18-14.69-27.51-21.31-11.21-7.8-23-14.79-34.49-22.18a6.47,6.47,0,0,1-1.46-1.49c1.42-2.77,4.17-5.67,3.58-7.51-1.22-3.87-5.54-2.42-8.57-2.26a94.22,94.22,0,0,0-14.18,1.93c-.94.2-1.66,1.47-2.42,2.57a1,1,0,0,0,.22,1.39,12.42,12.42,0,0,0,2.73,1.78c2.85,1.16,6.08,1.62,8.68,3.16a161.7,161.7,0,0,1,15.95,10.61c12.7,9.67,27.19,16.66,39.81,26.79-3.17,10.06-6.78,20.23-9.52,30.63-2,7.5-7.85,9.86-13.63,13.07-5.39,3-10.37,6.74-15.45,10.28a53.43,53.43,0,0,0-5.64,4.41c-6.45,5.92-14.69,6.46-22.59,7.63q-19.24,2.82-38.6,4.77c-2.43.24-5.46-.94-7.54-2.41-16.95-12-33.66-24.36-50.65-36.32-2.4-1.69-2.22-6-6.81-5.65-2.32.17-3.86-.51-5.48,2-3.45,5.36-7.56,10.3-11.18,15.57a5.77,5.77,0,0,0-.64,2.93,1.52,1.52,0,0,0,1.31,1.6,10.2,10.2,0,0,0,3.34.11,12.11,12.11,0,0,0,5.25-2.16c1.1-.9,1.37-4.41,2-4a53.24,53.24,0,0,1,7.34,5.21c14.35,11.33,28.64,22.75,42.59,34.57a57.85,57.85,0,0,1,10.73,13c2.17,3.36,4.57,3.41,7.77,2.92,12.31-1.9,24.67-3.56,37-5.66,6.11-1,12.06-3,18.13-4.2,1.49-.31,3.69-.12,4.71.79,11.22,10,22.19,20.27,33.39,30.29,13.7,12.25,27.57,24.29,41.3,36.51,5.08,4.51,9.84,9.41,15,13.78,1.31,1.1,4.78,1.79,5.51,1,1.86-2,.33-3.45-1.78-5.2-7.57-6.3-14.67-13.16-22-19.73-14.95-13.39-30-26.69-44.92-40.1-5.65-5.08-11.13-10.35-17.5-16.29,20.12-6.15,35.28-18.39,48.76-33.61,6.32,6.31,12.14,12.3,18.15,18.09,14.94,14.42,30,28.72,45,43.15q9.13,8.82,18,18c2.45,2.52,4.71,3.9,7.69.66,7.2,8.31,18.21,13,21.21,25.24-1.52,1.11-4.24,2.92-4.66,2.55-8.28-7.4-27.36-21.71-29.48-23.5-1.77-1.5-3.77-.68-3.84-.19-.2,1.3-.24,3.06.49,4,1.41,1.73,3.41,3,5.23,4.51l-28.7,20c-1.57-2.22-2.72-4.34-4.37-6a4.37,4.37,0,0,0-3.81-.9c-.71.26-1.38,2.47-1,3.45a13.72,13.72,0,0,0,3.15,5.18c6.24,6.14,12.72,12,19,18.19,1.06,1,2.89,3.94,2,4.3l-4.94,1.86a3,3,0,0,1-2.62-.27C771,713.9,737.51,695.57,717,682.69c-10.92-6.85-21.79-13.8-33-20.25-2.85-1.65-6.72-2.17-10.11-2.15-14.12.07-28.27,0-42.34,1-16.42,1.16-31.77-3.31-47.29-7.25-11.4-2.89-23-5.24-34.15-8.78-4.83-1.53-9-5.27-13.31-8.29-12.52-8.85-25.06-17.67-37.34-26.84-7.71-5.75-14.83-12.29-22.47-18.15-10-7.69-20.27-15.06-30.44-22.55-12.31-9.09-24.75-18-36.88-27.34a27.94,27.94,0,0,1-6.32-7.5.67.67,0,0,1,.95-.9c5.31,3.73,10.63,7.42,15.89,11.22,11.14,8,22.23,16.18,33.35,24.25,4.52,3.28,9.05,6.55,13.63,9.74,2.74,1.9,4.52.87,6.27-1.81,7.91-12.18,15.86-24.34,24.11-36.28,2.74-3.95,6.35-7.32,9.71-10.8,4.76-4.92,9.72-9.65,14.48-14.57C523.62,513.51,527.26,511.6,524.14,508.52ZM332.26,463.11c-3.59-4.31-6.1-7.89-9.8-12.13-11.09-12.73-21.66-25.94-33.14-38.3-4.45-4.78-10.66-8-16.28-11.6-14.83-9.49-29.76-18.8-44.66-28.17a1.07,1.07,0,0,1-.4-1.36v0a1.08,1.08,0,0,1,1.36-.55c3.53,1.31,7.3,2.25,10.37,4.27,15.21,10,30,20.6,45.32,30.35,8.78,5.58,16.57,13.69,23.18,21.22,5,5.69,10,11.38,15,17.12,9.87,11.45,19.63,23,29.58,34.38,6.49,7.42,12.27,14.59,18.88,21.9,5.85,6.46,10.87,12.8,16.39,19.53,1.36,1.66,1.44,5.14,1.61,7s.25,3-1.67,1c-4-4.18-8.27-8.17-12-12.59-8.78-10.43-17.37-21-25.9-31.64C344.66,476.77,337.76,469.71,332.26,463.11Zm9.36,28.16c-6.59,4.06-12.47-2.29-16.34-5.09-13.32-9.65-20.46-14.77-31.57-22.54-7.51-5.25-15-10.58-22.44-15.87a.57.57,0,0,1,.52-1c5.79,2.06,11.59,4.08,17.36,6.19,13.68,5,23.38,15.8,34.78,24.1C330,481.48,335.67,486.47,341.62,491.27ZM246,370.15c2.38-1.62,6.86-.89,9.67-.92A6,6,0,0,1,260.8,372a11,11,0,0,1,1.17,5.21c-1.24,4.06-9.44.8-16.44-4.38C244.58,371.68,244.83,371,246,370.15Zm52.73,20.55-.79-.26-.62-.21-.68-.19-.61-.17-.67-.15-.61-.13-.68-.12-.61-.1-.68-.08-.59-.07-.69,0-.59,0h-1.28l-.71,0-.56,0-.73.07-.54.07c-.26,0-.51.08-.76.12l-.52.08-.84.19-.43.09c-.85.21-1.7.46-2.55.76l-.35.14c-.31.11-.62.22-.93.35l-.46.2-.83.35-.48.24-.83.4a.72.72,0,0,1-1-.83l0-.07a0,0,0,0,1,0,0,2.88,2.88,0,0,1,.19-.47,2.86,2.86,0,0,1,.45-.87c.08-.12.15-.25.23-.35s.23-.24.34-.35a3.7,3.7,0,0,1,.28-.28,4.1,4.1,0,0,1,.4-.29c.1-.07.2-.15.3-.21s.31-.16.47-.24l.31-.16.54-.2.3-.11a5.94,5.94,0,0,1,.6-.18l.28-.09.51-.13.38-.1.47-.11.65-.15.48-.11.63-.13.49-.09.62-.1.5-.07.59-.09.5-.05.59-.05.49,0,.58,0h1.05c.17,0,.33,0,.49,0l.56,0,.48.07a5,5,0,0,1,.54.08l.48.1.53.12.47.14.52.16.46.18.51.21.45.23c.16.08.33.16.49.26l.45.27.48.31.43.32c.16.12.32.23.47.36l.42.38c.13.11.25.21.37.33l0,0,.16.14A.37.37,0,0,1,298.71,390.7Zm-2.1,9.46c-3.8,0-14.83-1.79-15.33-3.54-.44-3.65,12.36-3.55,16.3-1.54C299.76,396.3,299.7,399.1,296.61,400.16ZM843,707.64c-.31-3.7,1-5.68,4.22-7.54,6.33-3.68,6.45-4.06,4-10.62-2-3.28-3.28-6.54-5.46-9-5.85-5.54-11.57-11-17-16.12-3.31-2.57-5.18-5.41-7.43-7.43h0a31.07,31.07,0,0,1-3.67-3.09c-9.28-8.55-18.46-17.21-27.76-25.75-6.18-5.67-12.08-11.76-18.84-16.65-6.29-4.54-5.67-10.33-5.16-16.45s1.24-12.46,1.89-18.68c.3-2.87.51-5.76,1-8.6,1.63-9.51-4-16.83-7.38-24.83-2.28-5.46-4.93-10.77-6.66-16.65,4.7,3.45,9.5,6.78,14.08,10.39,11.45,9,22.81,18.17,34.2,27.27,21,16.75,42,33.38,62.89,50.28,17.2,13.94,33.94,28.48,51.32,42.2,7.85,6.19,16.9,10.85,25.19,16.5,6.32,4.32,12.33,9.09,18.45,13.7,1.89,1.43,3.7,3,6.11,4.92-21,13.37-41.34,26.23-61.57,39.24-7.65,4.92-15.27,9.94-22.54,15.4-4.56,3.42-7.83,2.71-12-.73-8.59-7.18-17.63-13.81-26.31-20.88-1.08-.88-1.45-3-1.52-4.64C842.89,715.78,843.33,711.68,843,707.64ZM724.8,558.5,731.71,575C720.73,569.9,720.64,569.67,724.8,558.5Zm1.6,28.88c-7,6.08-13.93,12.35-21.53,17.61-5.47,3.78-11.85,6.31-18,9.09-1.39.63-11.44-9-6.4-12.74,9.86-7.27,20.23-13.86,30.37-20.76,2-1.35,3.88-2.84,6.1-4.48a111.66,111.66,0,0,1,9.16,7.08C726.91,583.91,727.08,586.79,726.4,587.38Zm4.54-47.81c12,4.47,4.48,12.71,3.8,19.68C731.92,552.93,725.91,547.21,730.94,539.57Zm-99.1,68.94c9.42-1.5,13.83,7.45,21,11.41-5.82,1-11.63,2.12-17.47,3s-12,1.7-18.66,2.64l-7.57-9.48C615.72,610.06,624,609.76,631.84,608.51Zm-27.71,1.34c-7.92-6.12-16-12.11-23.74-18.52-2.2-1.83-3.39-4.88-5-7.37l1.57-1c5.42,3.85,10.86,7.7,16.27,11.57S604,602.26,610,606.58Zm45.64-2.72c6.17-.89,12.13-1.84,18.12-2.51.82-.09,2.09,1.08,2.64,2,1.48,2.43,2.68,5,4,7.6C667.43,619.83,656.34,616.73,649.77,607.13ZM567,579.53c-7.09-5-7.09-5-7-8.2C566.67,574.86,567,575.26,567,579.53ZM838,703.34c-.44,6.71-1.29,13.39-1.65,20.1,0,0-8.62-.18-16.69-.07-5.88.08-11.47.77-13.23-.45-5.11-5.86-10.44-11.52-16-17.57,8-5.55,16.1-11.09,24.09-16.8,4.11-2.94,6.44-.43,9.92,2.18,4.14,3.11,7.7,6.13,11.92,9.28A4.52,4.52,0,0,1,838,703.34ZM574.42,657.4c11.72,3,23.4,6.06,35.1,9.05a17.2,17.2,0,0,0,4.28.54c13.36,0,26.73.12,40.09,0,5.21-.05,10.4-.52,15.58-1.08,7.15-.77,12.83,2.33,18.66,6,19.44,12.17,39.1,24,58.6,36.09,10.14,6.29,46,26.06,46.29,26.21,1.33.82,5.27,0,5.22-.17a20.93,20.93,0,0,0,5.07-2.46,28.73,28.73,0,0,1,6.53-2.54c3-.92,22.66-1.67,30.09-.5h0q14.77,11.64,29.71,23.07a2.33,2.33,0,0,1-.61,3l-79.5,65.87c-6.44-3-12-7.47-17.8-11.45s-10.14-9.81-15.15-14.81c-4.83-4.81-9.15-10.33-14.61-14.26-17.36-12.49-35.17-24.34-52.76-36.49q-42.75-29.52-85.42-59.16c-13.35-9.3-26.48-18.93-40.9-29.25C567.63,656,571.06,656.55,574.42,657.4ZM884,752.31c23.71-15.64,47.57-31.08,71.41-46.53,4.79-3.1,9.71-6,14.55-9,5,16.05,10.18,32.05,14.74,48.24a20.63,20.63,0,0,0,7.55,10.81c8.07,6.41,16,13.1,24.84,18.4,4.62,2.79,10.78,3.54,16.36,4.09,10.84,1.07,21.74,1.52,32.64,2,9.65,8.48,46.06,40.38,52.41,45.1,6.68,5,39.29,33.31,45.09,38.36-.15,1.46,93,86.7,98,91.75,1.93,2.14,1,1.47-.34,1.2-7.54-1.9-11.82,2.9-16.31,7.25a25.21,25.21,0,0,1-2.13,2c-2.69,2.06-2.81,7.87-.11,10,3.79,2.94,7.39,6.23,11.53,8.57,2.57,1.45,6.82,2.92,8.85,1.77,5.46-3.08,10.12-7.55,15.25-11.6,4.87,3.59,5.08,9.85,6.84,15.39,1.43,4.49,2.34,9.3,4.61,13.32,2.13,3.77,5.68,6.75,8.73,10,19.32,20.34,38.76,40.57,58,61,7.28,7.74,14.8,15.42,20.92,24,10.75,15.19,22.64,29.66,31.61,46.07,1,1.84,2.69,6-2,5.81C1401.82,1150.12,884.43,752.68,884,752.31Zm384.38,222.41c-3,2-6,5.76-8.95,5.68s-5.29-2.88-8.59-5.41c-.74-.56-2.7-2.1-2.7-2.1C1257.69,964.68,1258.77,964.78,1268.33,974.72ZM1007.79,706.43c-8.86-1-13.51-8.08-19.59-13.11-.49-.4-1-.77-2.12-1.63,4.16-1.35,8-3.34,12-3.61,2.32-.16,5.11,2.07,7.21,3.8q21.33,17.64,42.43,35.55c10,8.54,19.89,17.32,29.91,25.89,4.74,4.06,9.68,7.88,14.56,11.77,1.24,1,2.54,1.91,3.83,2.84a1.46,1.46,0,0,1-.75,2.63c-5,.36-9.93.76-14.91,1a3.46,3.46,0,0,1-2.07-1c-4.77-4.06-11.46-7.32-13.71-12.5-2.66-6.14-7.6-7.12-11.81-10.18-5.3-3.86-10.2-8.29-15.18-12.58-.58-.5-.42-1.78-.9-2.5-1-1.51-2.05-3.94-3.36-4.14-7.84-1.19-11.69-8-17.58-11.87-2.85-1.88-6.19-3.62-5.68-8.12C1010.11,708,1008.65,706.53,1007.79,706.43ZM961.94,579.59l13.62,13.06q9,8.57,18,17c8.31,7.74,16.77,15.33,25,23.14,4.76,4.51,18.57,18.75,23.81,24.08.68.68,1.35,1.38,2.06,2,.93.85,1.49,2.09,2.36,3q25.23,26.26,50.49,52.49Q1116,734,1134.63,753.65c.45,3.42,15.59,31.4,20.67,41.82a.66.66,0,0,1-1,.77c-20.18-19.45-86.15-93.44-130.44-139.58-35.43-36.91-74.87-71.88-80.94-76.91C951,579.79,961.94,579.59,961.94,579.59ZM894,552.1c1.15.87,33.52,24.45,40.37,27.43,3.58,2.14,83.22,78.82,83.22,78.82,46.18,47.25,126.49,135.52,144.07,154.57,3.06,7-35.64-25.59-38.56-27.52-4.46-2.93-11.84-10.75-17.75-15.9q-9.19-8.6-18.74-16.8c-7.44-6.37-15.09-12.49-22.6-18.77-16-13.39-49.11-41.47-56.21-47.89h0c-3.95-3.8-7-6.4-10.24-5.61-6.56,1.57-13.21,2.67-19.49,4.84-4.59,1.59-8,.71-11.06-2.43-9.31-9.48-20.48-16.42-31.32-23.85-6.72-16.54-36.87-90.74-44.49-107.37C890.32,549.66,892.34,550.84,894,552.1ZM651.87,376.72c23.67,10.72,47.37,21.37,71,32.21,10.53,4.83,20.79,10.27,31.33,15.07,25,11.37,50.17,22.38,75.11,33.9,5.13,2.37,9.55,6.3,14.24,9.6,11.39,8,14.8,21,20.14,32.71,6.12,13.47,12.35,26.91,17.83,40.64,0,0,33.43,88.65,43.37,110-4.27-3.6-8.37-7.44-12.66-11Q893.15,624,874,608.25c-9.53-7.87-19-15.75-28.65-23.54-10.46-8.47-21-16.83-31.52-25.25-9.13-7.31-18.22-14.68-27.39-21.93q-13.18-10.41-26.53-20.63c-11-8.49-22.12-16.89-33.14-25.38-4.82-3.72-9.24-8.07-14.4-11.21-5.88-3.59-8.8-8.8-11.15-14.84-4.11-10.51-8.41-21-12.8-31.35a18.85,18.85,0,0,0-3.62-5C673.56,416.79,662.2,404.6,651,392.27c-7.44-8.19-14.67-16.58-21.49-25.61Q640.7,371.7,651.87,376.72Zm-5.3,18.94c7.82,8.63,15.92,17,23.62,25.74,3,3.38,9.23,10,11.33,14.65,4.41,9.73,5.59,12.11,9.27,20.56,1.47,3.38,2.86,6.88,4.25,10.35-47.3-31.83-96.29-61-140.38-98.57,18-4.32,35-8.21,51.88-12.63,2.91-.77,4.2,0,5.73,1.73C623.71,370.21,635.09,383,646.57,395.66ZM528.41,359c-15.22-13-30.12-26.38-45.68-38.93-14.79-11.93-30.19-23.11-45.48-34.41-7.56-5.58-15.54-10.58-23.16-16.09-1.63-1.17-2.56-3.31-3.77-5.06a.66.66,0,0,1,.7-1c12,3.32,32,19.77,47.28,30.81,14.89,10.77,32.66,27.28,49.58,41,15.57,12.59,31.16,27.13,46.63,39.84,10.35,8.5,20.51,17.24,30.8,25.81,1.7,1.41,3.49,2.73,5.3,4a.63.63,0,0,1-.55,1.12,42.88,42.88,0,0,1-9.13-3.36c-4.13-2.32-7.71-5.68-11.37-8.77Q548.93,376.54,528.41,359Zm.32,8.72Q500.14,348,471.56,328.28c-9.34-6.42-18.52-13.12-28.18-19-9.12-5.57-16.13-12.63-20.3-22.51-.78-1.85-2.25-3.41-3.44-5.16-4.53-9.47,45.07,30.17,55.37,39.22,17.84,15.69,36.14,30.84,54.23,46.25A.42.42,0,0,1,528.73,367.72ZM496.21,306l-66.82-44.32c4.37-1.23,8.22-2.51,12.16-3.36s6.52,1.21,10.6,3.4C496.8,285.64,498,301,501.07,305.3A44.18,44.18,0,0,1,496.21,306Zm14.31,4.63c2.42-.54,17.54-3.34,21.64-4.92,3.24-1.24,6.89-1.37,10.17-2.53,6.22-2.19,8.73,3,12.15,6,6.84,5.85,13.44,12,19.85,18.35S596,350,596.93,350.79c-13.91,3.85-29.81,8.17-43.82,12.65a8.29,8.29,0,0,1-6.61-1.54c-18.66-15.44-37.14-31.1-55.71-46.73C497.32,313.65,503.91,312.07,510.52,310.61Zm-152.7-76.83A73.34,73.34,0,0,0,377,222.64c9.42,2.65,18.81,5.46,28.2,8.22,10.37,3,20.61,6.51,31.06,9.23,12,3.11,24.14,5.63,36.23,8.35,8.08,1.82,16.15,3.67,24.26,5.31C507.87,256,519,258,530.11,260.21c3.52.69,7,1.59,11.33,2.61a.19.19,0,0,1,0,.38,14.86,14.86,0,0,0-4,1c-1.58.82-3.38,1.87-4.13,3.32-.34.65,1.35,2.85,2.56,3.75,7.44,5.52,15.06,10.8,22.5,16.32,4.41,3.28,9.32,1.86,14,1.73,4.27-.11,8.51-1.26,12.79-1.6,1.25-.09,2.74.83,3.87,1.64,9.6,6.89,19.13,13.9,28.73,20.79,5.18,3.72,10.49,7.27,15.7,10.94,2.36,1.66,3.64,10.59,1.54,13.52-4.83,6.75-10,13.28-14.85,19.7-5.61-2-7.6-8.09-16.14-5.15-12.09-12.06-22.79-22.82-34.67-34.55-4.72-4.66-9.86-8.91-14.49-13.65-3.41-3.51-7-4.84-11.83-3.61Q528.73,301,514.28,304a5.61,5.61,0,0,1-4.56-1.69,224.93,224.93,0,0,1-14.18-18.72c-4.92-7.57-13.21-10.45-20-15.44A253.73,253.73,0,0,0,451.82,253a12.15,12.15,0,0,0-8.13-1.49,174.13,174.13,0,0,0-21,4.94c-1.93.58-3.28,3.1-4.13,4-4.37-1.12-8.49-3.27-12.42-3-8.56.68-14.7-2.82-21.31-7.73C376.46,243.54,367,238.88,357.82,233.78Zm25,96.93a.54.54,0,0,1-.84-.54c1.83-9.38,20.15-11.55,23.56-1.43a.54.54,0,0,1-.76.64C396.92,325.5,389.75,326.14,382.82,330.71Zm21.52,2.93c-2.88,5.19-14.09,7.65-18.9,3.52-1-1.18-1.81-2.87-.57-3,4.19-.34,13.21-.91,18.92-1.35A.58.58,0,0,1,404.34,333.64ZM362.7,305.3c-2.12-5.47,4.66-9.72,11.41-9.87,4-.09,12.37,0,12.37,6.39C378.3,300,370.33,297.85,362.7,305.3Zm21.76,3.17c-4,2.11-13.12,3-17.85,1.8a2.36,2.36,0,0,1-1.3-1.8c4.14-2.66,14.4-5,19.15-2C385.22,307.13,385.22,307.93,384.46,308.47ZM352,292c1.33-1.37,6.18-5.62,7.14-6.48a6.89,6.89,0,0,1,3-1.75c.47-.08,1.4,1.24,1.77,2.08,1.42,3.24,3.95,6.44-2.05,8.44-2.6.88-4.63,4-6.49,6.45-2.26,3,.3,10.49,4.11,13,7.82,5.16,20.57,5,28-.29l4.23,3.45c-4.46,2.29-10,4-14,7.44-6.77,5.87-5.13,13.49,2.84,17.55,10.88,5.56,20.93,3.15,30.35-3.37,1.56-1.08,2-3.73,3.45-6.49,4.6,3.17,9,6.43,13.56,9.44,37,24.49,44.47,36.6,48.11,41.19,1.4.46,93,31.8,103.28,33.21,6.51,4.58,13,9.11,19.66,13.53,3,2,5.15,1.16,5.82-2.92,11.8,8.22,24.43,16.16,37.12,25,3.38,2.35-4,.59-4.65.31-9.89-4-19,1.41-28.5,2.17a7.28,7.28,0,0,1-4.27-.73c-7.64-4.93-15.22-10-22.67-15.18-1.93-1.36-3.05-4-5.05-5.13-2.38-1.37-5.38-2.6-8-2.43-8.79.58-15.44-4.78-23-7.55-12.38-4.52-24.43-10.1-37.06-13.75-8.93-2.58-18.74-1.87-27.54-5.77q-25.29-11.2-50.6-22.34c-1.45-.65-2.87-1.36-4.4-2.08a18.82,18.82,0,0,1,1.63-1.26c5.88-3.56,5.91-5,.21-8.94-8.38-5.76-16.66-11.7-25.21-17.2-1.56-1-4.53-.92-6.35-.16-4,1.66-7.46,4.35-11.39,6.07a7.47,7.47,0,0,1-5.58-.31c-10.23-5-20.28-10.45-30.51-15.49-2-1-4.61-.94-7.69-1.51-2.3-9.7-4.82-20.34-7-29.65C340.75,303.76,346.29,297.84,352,292Zm-71.5-2.63c4.24,2.82,8.87,6.15,13.72,9.1,7.49,4.55,11.93,11.76,16.95,18.53,2.37,3.2,4.33,6.56,9.71,3.12,3.45-2.2,3.64-3.44,1.56-6.11-3.4-4.36-6.87-8.65-10.31-13l.48-.61c4.71,3.06,9.49,6,14.07,9.26a3.78,3.78,0,0,1,.86,3.45c-1.88,5-.46,9.39,1.82,13.8,1.81,3.51,3.4,7.14,5.13,10.82-4.17,2.6-8.23,5.43-12.59,7.67-1.24.64-3.72.05-5-.85-14.31-9.88-28.5-19.94-42.74-29.93-3.36-2.36-6.8-4.6-10.3-7Zm-50.92,31c1.4-4.38,1.81-4.49,5.8-1.52a102.4,102.4,0,0,0,8.69,5.93c7.23,4.28,11.71,11.22,17.08,17.3,2,2.27,3.7,4.81,5.66,7.13.44.52,1.63,1.05,2.08.81a25.66,25.66,0,0,0,6.41-4.12c.52-.52-.49-3.19-1.4-4.43-7.85-10.74-16.17-21-28.87-28l7.22-4c8.75,1.23,13.53,7,18.29,10.24,14.13,9.58,28,19.53,42,29.36.22.16.29.54.57,1.07-4,2.45-7.86,5.08-12,7.26a8.68,8.68,0,0,1-4,1.08,65.85,65.85,0,0,1-10.75-1.22c-1.25-.29-13.82-1.35-18.34-1.35-9.06,0-16.37-6.15-22.52-10.42-6.81-4.74-13.44-9.73-20.45-14.82C226,328.47,227.66,325.13,229.53,320.41Zm5,23.84-13.71,7.95c-.94-5.94-1.75-11-3-19.14Zm-24.85,41c9.66-2.7,15.26.58,22.13,5.27,15,10.23,30.48,19.73,45.42,30,4.54,3.13,8.21,7.64,11.87,11.88,6.44,7.46,12.57,15.19,18.83,22.81,1,1.46.41,1.95-.75,1.18-1.3-1-2.51-2-3.75-3-4.2-3.58-11.91-6.65-19.29-9.27-5.23-1.85-8.46-3.21-13.82-4.6-1.81-.48-6,0-8,.18-1,.11-2.24.38-2.93-.08q-20-13.51-39.94-27.22c-.75-.52-1.89-1.69-1.72-2.16,2.46-7.08-4-8.27-7.49-11.11-4.16-3.39-8.88-6.11-14.33-9.77C201.09,387.85,203.06,387.09,209.65,385.25Zm32.26,59.24c5.1,9.21,9.81,17.77,16.13,27.71a.49.49,0,0,1-.7.65l-83.75-60.53a.41.41,0,0,1,.15-.73c6-1.48,10.72-3.13,15.56-3.49,2.88-.21,10.36.9,12.93,2.57,11.5,7.47,19.08,12.29,30.15,20.37C235.8,433.54,238.72,438.73,241.91,444.49Zm26,132.57a5.22,5.22,0,0,1-2.44,3.81c-13.66,6.45-27.42,12.69-41.16,19q-26.47,12.1-53,24.18a64.68,64.68,0,0,1-9,3.81c-6.63,1.87-10.81-3.2-15.41-6.34-11.61-7.91-22.9-16.3-34.4-24.39-13.32-9.36-26.74-18.59-40.1-27.9-3-2.11-4.83-12.07-3.4-16.61,3.85-12.27,7.52-24.6,11.28-36.9,3-9.71,6-19.41,8.93-29.13,3.87-12.77,7.9-25.5,11.21-38.41.37-1.43,1.8-8.1-4.88-6.5-.45.11-1.48-1.48-2-2.43-8.6-16.41-17.42-32.7-25.54-49.35-.46-.94-.88-1.91-1.26-2.92a1.07,1.07,0,0,1,1.73-1.16c2.9,2.71,6,5.58,7.92,7.18,7,6.78,11.91,8.25,16.55,8.25s10.48-12.49,14.74-13.53,14.22-13.1,14.22-15.33-35.63-18.07-35.63-18.07a3.93,3.93,0,0,1,.9-2.81c3.35-3.45,6.78-3.89,11.31-2.15,13.21,5.07,26.57,9.72,39.88,14.52,6.39,2.31,13.15,3.92,19.1,7,6.53,3.43,12.28,8.32,18.45,12.45,9,6,18.09,11.93,27.16,17.87.81.53,1.73.87,2.12,1.9.21,1.25-3.63,1.52-8.5-.31a20.12,20.12,0,0,0-8.18-1.09c-2.91.74-15.32,3.67-22.77,5.36a5.18,5.18,0,0,0-2.44,2.51,4.71,4.71,0,0,0,1.87,3.33c5.59,4.26,11.43,8.17,17.07,12.37,13.09,9.73,26.07,19.6,39.16,29.32,14.25,10.57,28.6,21,42.83,31.6a6,6,0,0,1,1.79,3.52c2,11,4.38,19.19,5.15,30.27C271.2,522.87,268,574.21,267.88,577.06Zm1.12-97c-3.5-4.28-1.72-6.36-4.86-10.89-6.54-9.4-12.69-19.08-19.27-29.13a.48.48,0,0,1,.67-.66l89.33,59.93c1.33,1.09,1.18,4.79,2.85,6,18.8,13.78,37.83,27.27,56.61,41.08C410.18,558,425.77,570,441.5,581.8c6.65,5,13.39,9.85,20.06,14.8a10.52,10.52,0,0,1,3.38,3.79c-2.31,0-10.41-.56-14.9-2.49-26.11-11.24-52-23-78-34.56q-28.32-12.62-56.63-25.26c-7.26-3.25-20.13-9.18-27.69-11.34-6.83-2-6.93-7-7.95-11.84-1.87-8.88-3-17.92-5.2-26.72C273.85,485.19,271.09,482.61,269,480.05ZM538.55,780.44c-10.68-.22-21.36-.67-32-.93q-22.86-.57-45.73-1c-18.5-.35-37-.62-55.5-1-3.35-.07-33.46.16-33.46.16q-7.87-15-15.13-30.27-9.15-19.2-17.9-38.59c-7.43-16.54-14.55-33.22-22-49.77-5.59-12.48-11.47-24.83-17.17-37.26-4.65-10.15-9-20.44-13.93-30.46-1.57-3.2-3.65-7-5.26-10-4.26-7.95-3-11.18-3.65-15.9-.11-.77.29-19.52.45-33.9a22,22,0,0,0,4.64,2.71c15,6.6,29.71,13.76,44.58,20.59,17.63,8.11,35.33,16.07,53,24.18q22.56,10.39,45,21c12.76,6,25.82,10.43,40.22,10.46,9,0,18,1.07,27,2,1.92.2,3.87,1.51,5.53,2.7,12.21,8.75,24.27,17.72,36.53,26.41,19.28,13.65,38.7,27.09,58,40.69,21.41,15.08,42.73,30.29,64.16,45.34q23.5,16.5,47.21,32.7c12.89,8.85,26.26,17,38.65,26.53C729.81,784.36,538.55,780.44,538.55,780.44Zm346.39,221.37h0c-26.58-2.9-91.29-8.56-93.46-8.46l-8.39-3.74c-11.92-5.34-23.71-11-35.59-16.41-26.22-12-52.74-23.35-78.61-36-19.1-9.38-37.85-19.46-56.65-29.46h0A143.28,143.28,0,0,0,621,878.66c2.24-4.55,3.38-12.73,3.84-19.44,3.55-4.1,3-.47,6.16,2.27S862.07,986.07,870.71,990,897.18,1003.09,884.94,1001.81Zm25.5,2.81c-12.92-5.57-274.12-148.07-285.59-156-.59-1.75-16.23-12.94-33.56-27.12-18.59-13.38-30.68-26.73-39.55-34.42,11.68.8,32.51,2.31,40.91,2.18,16.49-.27,155.69,4.29,156,4.3,3.14,3.62,6,7.54,9.27,11.08a49.38,49.38,0,0,0,7.51,7.31c8,5.71,16.32,11.09,24.93,16.88-11.29,3-15.81,13.21-23.45,19.77a51.39,51.39,0,0,0-5.42,6.14c-2.18,2.57-2.81,4.7.66,7.12,13,9,25.72,18.42,38.68,27.48q28.43,19.85,57,39.42c6.83,4.7,35.1,23.54,37.24,24.9,3.19,2,9.17,31.19,18,51A6.85,6.85,0,0,1,910.44,1004.62Zm16.28,48.18c-1.83-.69.39-4.09,2.84-9.55a159.77,159.77,0,0,1,12.12-21.82l42.54,51.13C977.6,1072.14,929.91,1054,926.72,1052.8Zm13.92-41.15a51.56,51.56,0,0,0-12.17-6.88c-5.62,0-8.9.27-9,0-6.32-24.2-17.22-49.62-18.46-53.46s-11.81-8.28-15-10c5.2-7.65,9-13.29,14-21.05,4-6.23,2-10.08-4.06-14.18-4.35-3-8.39-6.45-13-9-3.39-1.85-7.44-2.51-11.59-3.82,1.18-4.59-3.75-6.27-7.24-8.83a175.78,175.78,0,0,0-14.61-10c-2.18-1.28-5.15-1.22-8.4-1.91.34-4.28-3.65-6.62-7.34-9.11-3.3-2.23-6.82-4.14-10-6.48-3.88-2.82-7.47-6.15-12.76-3.6.36-2.83-3.31-5.44.56-10.42,8.52,5.68,16.93,11.2,25.24,16.86,9.62,6.56,19.11,13.33,28.75,19.87,10.86,7.36,155,99,156.24,99.25,0,0,1.3-.56,2.68-1.26,2-1.06,5.22-.36,6.91.66,14.07,8.45,27.94,17.26,41.86,26,14.73,9.22,29.57,18.28,44.09,27.82a34.64,34.64,0,0,1,10.24,10.22c2.57,4.14,5,7.4,9.68,9.54,7.52,3.4,14.88,7.15,22.24,10.91a.63.63,0,0,1-.3,1.2c-51.42-1.4-124.48,10.8-168.29,8.23C990.9,1072.21,943.09,1013.85,940.64,1011.65Zm201.09,130.9c-5.7-2.22-11.46-4.29-17.09-6.68q-46.86-19.89-93.65-39.93c-10.62-4.56-21.08-9.5-31.73-14-3-1.27-3.71-1.57-6.31-2.7a.48.48,0,0,1,.22-.92c3.73.26,9.65.23,17.13,0,1,1.31,1.87,2.75,3.16,3.31,22.14,9.6,44.3,19.14,66.58,28.41,20,8.31,40,16.56,60.27,24.19C1146.46,1136.57,1142.14,1142.27,1141.73,1142.55Zm308.79,59.61a167.25,167.25,0,0,1-16.48,15.37c-2.53,2-6.5,2.32-9.9,2.9-8.82,1.51-17.8,2.26-26.52,4.19-9.25,2.05-17.77-.18-26.44-2.57-18.54-5.12-37.14-10-55.64-15.27-11.77-3.34-23.43-7.06-35.07-10.84-1-.32-2.08-2.42-2-3.64.44-9.33,1.22-18.63,1.76-28,.22-3.6.22-7.21.12-10.81-.1-3.26-2.06-4.74-5.1-6-16.09-7-32.14-14-48-21.54-7.3-3.46-14.5-1.29-21.71-.88-15.11.85-49,3.53-49.13,3.61-8,5.67-14.89.21-21.75-2.53-26.84-10.71-53.57-21.73-80.27-32.8-11.13-4.62-22.13-9.55-33.23-14.24a.62.62,0,0,1,.21-1.2c45.88-2.1,126.85-8.77,153.53-8,.07,0,13.23,0,23.65-.2,5.25-.11,9,.26,13.47,2.72q31.13,17.22,62.63,33.75,35.77,18.88,71.74,37.38c16.27,8.42,32.75,16.31,50.27,21.92,10,3.2,16.55,1.37,22.12-7.71.92-1.5,1.67-3.88,1.14-5.36-2.6-7.16-4.69-14.78-8.73-21.1-15.68-24.54-31.16-49.3-51-70.81q-24.57-26.61-49.77-52.64c-8.94-9.18-14.92-19.3-20.49-31.33-1.88-4.08-42-89.12-46.05-101.15h0c2.17,2.64,4.35,5.28,6.63,7.82,17,18.92,34.11,37.64,51.07,56.56,6.23,6.95,12.31,14,18.35,21.14,5.43,6.41,11.11,12.78,15.13,20s6.63,15.9,8.43,24.23c2.08,9.58,7.62,16.67,13.56,23.78q11.89,14.25,23.68,28.55c3.64,4.41,8.94,5.26,14,6.6,3.38.9,6.87,1.4,10.26,2.26a5.06,5.06,0,0,1,2.83,1.71c5.79,8.51,11.47,17.11,17.65,26.39-7.85,0-14.51,0-21.17-.06-1.17,0-8.83,1.41-8.19,2.63q7.41,14.22,15.46,28.11a4.32,4.32,0,0,0,4.22,2.35l29.85,2.74c2.05,2.17,4.45,3.87,6.76,6.92,4.8,6.33,4.34,17.59,4.81,29.52C1457.81,1183.22,1452,1200.62,1450.52,1202.16Z"/></g><g id="Thrusters"><path d="M101.7,372.9c-.66-4.76-5.77-6.24-13.07-6.95-6.58-.64-11.32,5.53-10.65,10.29s5.31,6.58,11.86,5.66S102.37,377.66,101.7,372.9ZM100,554c-6.08-.69-10.74,4.45-10.31,8.52s4.65,5.73,10.77,5.1,11.81-3.33,11.38-7.4S106.78,554.72,100,554ZM346,215.78c-5.62-2.16-11.21-1.14-11.73.9s3.11,4.09,9.07,5.63,12,2,12.5-.06S352.21,218.16,346,215.78Zm214.88,53.46c-5-1.83-9.93-.29-10.41,1.9s2.74,4.08,8,5.22,10.61,1.13,11.08-1.07S566.37,271.26,560.86,269.24Zm356.93,751.17c-5.17-1.68-12-1.39-11.72,3.27.26,3.86,1.82,8.66,7,10.33,0,0,10.42-.23,11.72-4.26S923,1022.08,917.79,1020.41ZM1185,817c-4.92-2.28-8.5-5.4-10.41-3.49s.62,5.6,4.47,9.44,7.52,6.38,9.44,4.47S1192.29,820.38,1185,817Zm159.55,350.15c-5.69-2.49-11.25,4.27-11.25,9.53s5,9.54,11.25,9.54c11.24,0,11.24-4.27,11.24-9.54S1353.67,1171.14,1344.54,1167.15ZM1427.2,1104c-4.52-2.61-9.56-2.36-11.25.57s14.69,12.37,16.37,9.45S1431.72,1106.65,1427.2,1104Z" fill="#007aff"/></g></g></svg>