<svg xmlns="http://www.w3.org/2000/svg" viewBox="0 0 1500 1500"><title>Asp Explorer</title><g id="Asp_Explorer" data-name="Asp Explorer"><g id="Colour"><path d="M1308.75,918.2c2.92-2,2.67-4.47,1.58-7.55q-10.1-28.56-19.85-57.23-14.37-42.09-28.56-84.23c-10.69-31.69-21.43-63.37-31.88-95.14-2.78-8.44-4-17.4-7-25.79-4.23-12.16-9.68-23.88-14-36-8.29-23.43-16.18-47-24.16-70.56-5.92-17.44-11.61-35-17.68-52.36-1.11-3.18-2.92-7.48-5.53-8.55-22.8-9.36-45.89-18-68.84-27.06q-37.22-14.6-74.34-29.44c-9.45-3.79-18.67-8.17-28.16-11.86-14.79-5.77-29.79-11-44.58-16.78-20.18-7.86-40.23-16.08-60.39-24q-44.91-17.7-89.91-35.23c-16.07-6.29-32.28-12.22-48.18-18.9-6.82-2.87-14-4.58-18.43-12.65-12-22-25.29-43.39-38.27-64.89-4.16-6.87-7.52-14.85-15.23-18.52-11.29-5.37-23-9.9-34.47-14.86-15.6-6.75-31.23-13.43-46.73-20.41-6.48-2.91-13.74.24-15.38,7.4-2.64,11.5-5.25,23-7.62,34.58-.63,3.06-1.27,6.61-.34,9.42,5.21,15.66,10.91,31.15,16.07,45.68-7.73,3.11-16.49,4.73-22.75,9.59-9.53,7.39-14.86,18-15.32,30.79-.12,3.55-.27,8.48-6,9.5-11.29,2-22.55,4.21-33.72,6.76-1.62.37-3.44,3-3.86,4.84-.65,2.89-.17,6-.17,10.36-9.9,0-19,.29-28.06-.07-13.81-.55-27,1.29-38.66,9.21-7,4.74-14.81,8.89-20.25,15.07-8.51,9.65-15.34,20.79-22.82,31.35-4.41,6.23-6.24,5.61-14.29,5.88-3,.1-7,.34-9.12,2.22-10.83,9.8-21.14,20.16-31.7,30.26-5.64,5.39-11.41,10.64-17.14,16-5.08-3.52-10.1-6.71-14.77-10.32a24.18,24.18,0,0,0-27.44-1.25c-7.43-5-14.31-9.59-21.12-14.26C240.81,426.11,221.92,413,203,400c-6.14-4.21-11.88-1.64-15.15,5-2.11,4.26-.71,6.41,1.52,9.45,8.32,11.33,15,23.8,25.31,33.76,11.12,10.71,21.24,22.45,31.22,33.12-4.54,6.14-8.13,13.22-13.69,18-7.4,6.35-7.94,15-10.71,23a6.68,6.68,0,0,0,.44,5.26c4.64,6.62,9.64,13,14.82,19.87-5.47,4.95-11.11,9.84-16.51,15-17.76,16.93-35.29,34.1-53.26,50.81-4.39,4.08-3.78,7.14-1.11,11.51q13.21,21.56,26,43.39c10.72,18.26,21.18,36.68,31.94,54.91,13.39,22.68,27.11,45.16,40.45,67.87,17.62,30,35,60.12,52.5,90.17q16.08,27.58,32.27,55.1c16.83,28.57,33.58,57.19,50.68,85.61,3.15,5.24,5.07,11.69,12.93,13.3,11.52,2.37,22.73,6.25,34.18,9,12.7,3.06,25.52,5.69,38.32,8.32,12.63,2.59,25.33,4.84,38,7.41,16.31,3.32,32.57,6.88,48.89,10.19,15.79,3.2,31.63,6.17,47.43,9.33,13.52,2.7,27,5.57,40.53,8.3,19.15,3.88,38.33,7.61,57.46,11.56,16.31,3.36,32.56,7.07,48.88,10.37,19.49,4,39.07,7.52,58.56,11.46,13,2.62,25.88,5.74,38.87,8.37,19.85,4,39.76,7.73,59.62,11.72,18.44,3.71,36.75,8.12,55.29,11.25,12.83,2.18,25,6.23,37,10.81,12.52,4.77,24.73,10.35,37.29,15,5.13,1.9,10.32,1.73,14.79-3.28a140.93,140.93,0,0,1,17.31-16.26c10.13-8.07,19.26-16.86,20.18-30.55.59-8.87,6.16-18.84-4.81-26.46l24.16-19.63c7,4.55,12.84,8.68,19,12.23,5,2.88,9.34,8,16,6.53,2.67-.57,5.12-3,7.68-3,16.56-.19,32.73-5.75,49.46-3.57a6.92,6.92,0,0,0,4.75-1.83c12.19-10.9,24.07-22.14,36.43-32.84a28.16,28.16,0,0,0,9.93-18c2.14-13-.51-24.6-6.14-36-2.26-4.58-4-9.4-6.35-15,10.26,4.84,11.9,4.94,17.66-1,6.21-6.46,13.32-12,20-18.05,6.27-5.65,11.09-12.28,13-20.67a176,176,0,0,0,3.35-17.42,15.84,15.84,0,0,0-1.3-8.88C1306.43,921.67,1306.15,920,1308.75,918.2Z" fill="#213745"/><path d="M1308.75,918.2c2.92-2,2.67-4.47,1.58-7.55q-10.1-28.56-19.85-57.23-14.37-42.09-28.56-84.23c-10.69-31.69-21.43-63.37-31.88-95.14-2.78-8.44-4-17.4-7-25.79-4.23-12.16-9.68-23.88-14-36-8.29-23.43-16.18-47-24.16-70.56-5.92-17.44-11.61-35-17.68-52.36-1.11-3.18-2.92-7.48-5.53-8.55-22.8-9.36-45.89-18-68.84-27.06q-37.22-14.6-74.34-29.44c-9.45-3.79-18.67-8.17-28.16-11.86-14.79-5.77-29.79-11-44.58-16.78-20.18-7.86-40.23-16.08-60.39-24q-44.91-17.7-89.91-35.23c-16.07-6.29-32.28-12.22-48.18-18.9-6.82-2.87-14-4.58-18.43-12.65-12-22-25.29-43.39-38.27-64.89-4.16-6.87-7.52-14.85-15.23-18.52-11.29-5.37-23-9.9-34.47-14.86-15.6-6.75-31.23-13.43-46.73-20.41-6.48-2.91-13.74.24-15.38,7.4-2.64,11.5-5.25,23-7.62,34.58-.63,3.06-1.27,6.61-.34,9.42,5.21,15.66,10.91,31.15,16.07,45.68-7.73,3.11-16.49,4.73-22.75,9.59-9.53,7.39-14.86,18-15.32,30.79-.12,3.55-.27,8.48-6,9.5-11.29,2-22.55,4.21-33.72,6.76-1.62.37-3.44,3-3.86,4.84-.65,2.89-.17,6-.17,10.36-9.9,0-19,.29-28.06-.07-13.81-.55-27,1.29-38.66,9.21-7,4.74-14.81,8.89-20.25,15.07-8.51,9.65-15.34,20.79-22.82,31.35-4.41,6.23-6.24,5.61-14.29,5.88-3,.1-7,.34-9.12,2.22-10.83,9.8-21.14,20.16-31.7,30.26-5.64,5.39-11.41,10.64-17.14,16-5.08-3.52-10.1-6.71-14.77-10.32a24.18,24.18,0,0,0-27.44-1.25c-7.43-5-14.31-9.59-21.12-14.26C240.81,426.11,221.92,413,203,400c-6.14-4.21-11.88-1.64-15.15,5-2.11,4.26-.71,6.41,1.52,9.45,8.32,11.33,15,23.8,25.31,33.76,11.12,10.71,21.24,22.45,31.22,33.12-4.54,6.14-8.13,13.22-13.69,18-7.4,6.35-7.94,15-10.71,23a6.68,6.68,0,0,0,.44,5.26c4.64,6.62,9.64,13,14.82,19.87-5.47,4.95-11.11,9.84-16.51,15-17.76,16.93-35.29,34.1-53.26,50.81-4.39,4.08-3.78,7.14-1.11,11.51q13.21,21.56,26,43.39c10.72,18.26,21.18,36.68,31.94,54.91,13.39,22.68,27.11,45.16,40.45,67.87,17.62,30,35,60.12,52.5,90.17q16.08,27.58,32.27,55.1c16.83,28.57,33.58,57.19,50.68,85.61,3.15,5.24,5.07,11.69,12.93,13.3,11.52,2.37,22.73,6.25,34.18,9,12.7,3.06,25.52,5.69,38.32,8.32,12.63,2.59,25.33,4.84,38,7.41,16.31,3.32,32.57,6.88,48.89,10.19,15.79,3.2,31.63,6.17,47.43,9.33,13.52,2.7,27,5.57,40.53,8.3,19.15,3.88,38.33,7.61,57.46,11.56,16.31,3.36,32.56,7.07,48.88,10.37,19.49,4,39.07,7.52,58.56,11.46,13,2.62,25.88,5.74,38.87,8.37,19.85,4,39.76,7.73,59.62,11.72,18.44,3.71,36.75,8.12,55.29,11.25,12.83,2.18,25,6.23,37,10.81,12.52,4.77,24.73,10.35,37.29,15,5.13,1.9,10.32,1.73,14.79-3.28a140.93,140.93,0,0,1,17.31-16.26c10.13-8.07,19.26-16.86,20.18-30.55.59-8.87,6.16-18.84-4.81-26.46l24.16-19.63c7,4.55,12.84,8.68,19,12.23,5,2.88,9.34,8,16,6.53,2.67-.57,5.12-3,7.68-3,16.56-.19,32.73-5.75,49.46-3.57a6.92,6.92,0,0,0,4.75-1.83c12.19-10.9,24.07-22.14,36.43-32.84a28.16,28.16,0,0,0,9.93-18c2.14-13-.51-24.6-6.14-36-2.26-4.58-4-9.4-6.35-15,10.26,4.84,11.9,4.94,17.66-1,6.21-6.46,13.32-12,20-18.05,6.27-5.65,11.09-12.28,13-20.67a176,176,0,0,0,3.35-17.42,15.84,15.84,0,0,0-1.3-8.88C1306.43,921.67,1306.15,920,1308.75,918.2Z" fill="none" stroke="#000" stroke-linejoin="round" stroke-width="8"/></g><g id="Paint"><path d="M1017.63,676.11l-22.77-12.54-57.2-60.33L920.8,486.11l-94.4-45.4-27.34,9.56,77.57,40.82,10.28,106,72.75,73L980,682.2l66.46,63.13,22.06,15.8,43,56.51,11.83,19.66-2,17.75,19.37,22.33,27.64-21.23Zm-9,234.66-80-98.84-54.07-66.6L853,747.2,798.6,680.93,570.8,689.4l-70.45-52.87L464,672.76l77,56.78,250.14-6.28L844.78,790l14.9,1.4,159,191,40.47-31-12.76-28.24Z" fill="#ebeced"/></g><g id="Canopy"><polygon points="1258.96 1006.75 1242.73 978.71 1217.98 952.86 1188.4 930.03 1140.67 882.73 1092.86 920.96 1081.31 948.07 1134.03 1010.05 1131.01 1026.56 1150.34 1053.51 1142.25 1064.51 1125.04 1076.88 1154.46 1095.86 1215.78 1092.41 1248.34 1062.86 1265.83 1043.06 1265.83 1024.9 1258.96 1006.75" fill="#82b3d1"/></g><g id="Shadows" opacity="0.2"><path d="M439.36,644.21c-6.23-5.5-20.9-15-20.9-15l17.54-6.6L449.51,634c8.56,5.67,26.89-3,15.35-13.24-4.15-3.7-19.53-16.2-19.53-16.2l-14.4,9.67L288.17,472l-24-24.43s-62-31.05-62.22-30.89-10.81,4.78-10.81,4.78l51,58.36.49,6.3-15.21,19.05-5.9,17.16,17.17,24L164,620.76l14.5,24.87L399,648.76,413,657.41C440.1,664.37,445.6,649.71,439.36,644.21ZM760.75,433.14c5,2.32,16.13,1.71,18.15,0s-3.12-8.74-6.42-11-17.42-9-17.42-9l5.87-3.55s17.42,8.25,18.15,8.25,1.28,9.9,9.9,12.28,8.25-4,7.15-5.58-6.35-8.35-10.27-11.4-15.41-7.38-15.41-7.38V399.4s-88.72-146-93.56-155.34-8.35-11.25-8.35-11.25l-16-7-70.93-35.92-8.43,46.57,13.74,46.75L565.5,298.18,549,321l4.12,13.35-42.38,5.12-3.63,5.88,2.61,6.6-35.63,8.77S755.8,430.81,760.75,433.14Zm6,169.43H782l21.49-1.29,34.41,25.63,8.37-1.76s-9.29-13.69-12.71-17.6S806,589.7,806,589.7l-8.15,6.85L475.18,393.17l-3.65,9.05,3.65,10.88Zm443,428.15-2-9.33-15.58-19.56-21-10.89-30.44-24-47.81-46-153-186.72L837.87,665l-3.61,5,15.5,39,7,7.33,1,7.44,14.67,45.9,224.83,283.18,27.26,29.18,31.6,16.13,55.52-5.74,5.33-21.94v-9.91l-7.21-17.17Zm-263,11.94,6.49,67.71L720.89,972l-7.75-2.08-301.28,58.62,13.37,7.39,584.29,121.36,49.65,17.6,10.12-29.14-80.68-84.57Zm264.9-171.11L1175.66,841l-2.09,49.13,35.92,56,33.24,32.61,20.8,13.35,11.71-38.14Z" fill="#111"/></g><g id="Outline"><path d="M1308.75,918.2c2.92-2,2.67-4.47,1.58-7.55q-10.1-28.56-19.85-57.23-14.37-42.09-28.56-84.23c-10.69-31.69-21.43-63.37-31.88-95.14-2.78-8.44-4-17.4-7-25.79-4.23-12.15-9.68-23.88-14-36-8.29-23.43-16.18-47-24.16-70.56-5.92-17.44-11.61-35-17.68-52.36-1.11-3.18-2.92-7.48-5.53-8.55-22.8-9.36-45.89-18-68.84-27.06-7.13-2.79-58.8-23.22-74.34-29.44-9.45-3.79-18.67-8.17-28.16-11.86-14.79-5.77-29.79-11-44.58-16.78-15.05-5.86-120.32-47.54-150.3-59.26-16.07-6.29-32.28-12.22-48.18-18.9-6.82-2.87-14-4.58-18.43-12.65-12-22-25.29-43.39-38.27-64.89-4.16-6.87-7.52-14.85-15.23-18.52-11.29-5.37-23-9.9-34.47-14.86-15.6-6.75-31.23-13.43-46.73-20.41-6.48-2.91-13.74.24-15.38,7.4-2.64,11.5-5.25,23-7.62,34.58-.63,3.06-1.27,6.61-.34,9.42,5.21,15.66,10.91,31.15,16.07,45.68-7.73,3.11-16.49,4.73-22.75,9.59-9.53,7.39-14.86,18-15.32,30.79-.12,3.55-.27,8.48-6,9.5-11.29,2-22.55,4.21-33.72,6.76-1.62.37-3.44,3-3.86,4.84-.65,2.89-.17,6-.17,10.36-9.9,0-19,.29-28.06-.07-13.81-.55-27,1.29-38.66,9.21-7,4.74-14.81,8.89-20.25,15.07-8.51,9.65-15.34,20.79-22.82,31.35-4.41,6.23-6.94,6.93-14.29,5.88-2.93-.42-7,.34-9.12,2.22-10.83,9.8-21.14,20.16-31.7,30.26-5.64,5.39-11.41,10.64-17.14,16-5.08-3.52-10.1-6.71-14.77-10.32a24.18,24.18,0,0,0-27.44-1.25c-7.43-5-14.31-9.59-21.12-14.26C240.81,426.11,221.92,413,203,400c-6.14-4.21-11.88-1.64-15.15,5-2.11,4.26-.71,6.41,1.52,9.45,8.32,11.33,15,23.8,25.31,33.76,11.12,10.71,21.24,22.45,31.22,33.12-4.54,6.14-8.13,13.22-13.69,18-7.4,6.35-7.94,15-10.71,23a6.68,6.68,0,0,0,.44,5.26c4.65,6.62,9.64,13,14.82,19.87-5.47,4.95-11.11,9.84-16.51,15-17.76,16.93-35.29,34.1-53.26,50.81-4.39,4.08-3.78,7.14-1.11,11.51q13.21,21.56,26,43.39c10.72,18.26,21.18,36.68,31.94,54.91,12.83,21.73,76,128.94,93,158,10.72,18.39,69.48,118.32,82.95,140.71,3.15,5.24,5.07,11.69,12.93,13.3,11.52,2.37,22.72,6.25,34.18,9,12.7,3.06,25.52,5.69,38.32,8.32,12.63,2.59,25.33,4.84,38,7.41,16.31,3.32,32.57,6.88,48.89,10.19,15.79,3.2,31.63,6.17,47.43,9.33,13.52,2.7,27,5.57,40.53,8.3,19.15,3.88,38.33,7.61,57.46,11.56,16.31,3.36,32.56,7.07,48.88,10.37,19.49,4,39.07,7.52,58.56,11.46,13,2.62,25.88,5.74,38.87,8.37,19.85,4,39.76,7.73,59.62,11.72,18.44,3.71,36.75,8.12,55.29,11.25,12.83,2.18,25,6.23,37,10.81,12.52,4.77,24.73,10.35,37.29,15,5.13,1.9,10.32,1.73,14.79-3.28a140.93,140.93,0,0,1,17.31-16.26c10.13-8.07,19.26-16.86,20.18-30.55.59-8.87,6.16-18.84-4.81-26.46l24.16-19.63c7,4.55,12.84,8.68,19,12.23,5,2.88,9.34,8,16,6.53,2.67-.57,5.12-3,7.68-3,16.56-.19,32.73-5.75,49.46-3.57a6.92,6.92,0,0,0,4.75-1.83c12.19-10.9,24.07-22.14,36.43-32.84a28.14,28.14,0,0,0,9.93-18c2.14-13-.51-24.6-6.14-36-2.26-4.58-4-9.4-6.35-15,10.26,4.84,11.9,4.94,17.66-1,6.21-6.46,13.32-12,20-18.05,6.27-5.65,11.09-12.28,13-20.67a176,176,0,0,0,3.35-17.42,15.84,15.84,0,0,0-1.3-8.88C1306.43,921.67,1306.15,920,1308.75,918.2ZM1157.35,486a6.85,6.85,0,0,1,3.19,4.18q11.18,46.19,22.07,92.43c1.6,6.78,3,13.61,4.65,21.45-6.16-.5-11.88-1.14-17.61-1.37-3.35-.13-6.7-.14-10.06-.13l-16.09-88a3.26,3.26,0,0,0,.4-2.34,3.31,3.31,0,0,0-1.17-1.88l-6.06-33.12C1143.64,480,1150.56,482.89,1157.35,486Zm-279,203.38-40.47-27.87c9.56-6.72,18.48-13,27.42-19.29,7-4.92,14.1-9.84,21.22-14.64.86-.57,2.58-1,3.3-.48C901.91,635,915,642.31,927,650.81c-12.66-1.22-19.22,5.51-37.95,19.23C880.38,676.41,876.46,679.47,878.34,689.4Zm25.29-18.69c4.09-2.93,8.49-5.48,12.23-8.8s6.93-2.36,11-.15c-9.3,6.74-18.12,13.11-26.92,19.52-5.82,4.24-8.17,6.35-14.26,2.43C892.12,679,897.86,674.86,903.63,670.71Zm23-.48c.73-.52,2.71.09,3.76.74,3.8,2.35,7.35,5.11,11.18,7.41,6.06,3.62,6.15,3.74,1,8.47a38.56,38.56,0,0,1-7.77,5.95c-4.22,2.7-6.7,5.16-11.08,2.31-5.24-3.4-10.33-7-15.84-10.8C914.07,679.57,920.25,674.77,926.61,670.23Zm-34.47-49.47a7.43,7.43,0,0,0-7.5.13c-17.35,11.83-34.48,24-51.61,36.13-3.07,2.17-4.22,4.72-2.59,8.9,5.52,14.15,10.39,28.54,15.77,42.75a16.18,16.18,0,0,0,4.83,7c7,5.33,5.57,11.74,3.52,18.68-5.13,17.31-10.07,34.68-15,52-2.55,8.93-4.53,18-7.6,26.79-3.69,10.52-5,20.72,1.66,30.33,4.69,6.79,3.39,13.41,1.27,20.47-.32,1.08-.63,2.16-1,3.24L761.59,829.1Q792,724.88,822.46,620.61c4.21,3.71,8.79,7.25,12.74,11.38,3.3,3.45,5.79,2.47,9.46-.71a47.29,47.29,0,0,1,8-5.56c6-3.32,7.34-7.87,3.87-13.26-2.21-3.44-4.49-6.83-7.35-11.18,5.41.49,9.79,1.18,14.18,1.24,30.36.46,60.72.72,91.07,1.18,14.23.21,28.46.76,42.68,1.06,19.73.41,39.46.71,59.18,1.12,4.62.1,9.24.22,13.85.33l2.16,1.17,10.48,69.13h-.09c-9.36.66-15.85-3.49-22.35-8.79-.84-.69-1.54-1.58-2.41-2.23-5.75-4.32-9.54-4.77-15.35-4.72q-41.5.33-83,0a20.84,20.84,0,0,1-10.39-3.2C930.06,645.41,911.25,632.85,892.14,620.76Zm-65,295.09c16.22,1.07,29.67,8.41,42.35,17.83,3.88,2.88,8.1,5.3,11,8.6,1.23,2.35,1.47,11.17,20.16,24.78,7.61,5.55,15.24,10.8,22.91,15.92a3.24,3.24,0,0,0-.51,1.27l-12.6,74.9L725.93,951.24q16.59-56.79,33.14-113.52l71.5,37.67a4.35,4.35,0,0,0,.82.32c-3.1,10.66-6.11,21.35-9.18,32C820.93,912.21,822.28,915.53,827.15,915.85Zm162.13,99.07c-2.86-2.64-6.09-4.88-9.39-7.44l9-7.9c2.12,1.84,3.91,3.9,6.14,5.25,8.56,5.18,17.66,9.58,25.78,15.36a55.08,55.08,0,0,1,6.7,5.74l-41.63,34a3.09,3.09,0,0,0-.8,1l-6.23,11.36c-1.21-1.17-2.42-2.33-3.61-3.52-2.87-2.86-4.77-2.54-6.43.7-9.77-6.87-15.8-13.66-19.16-25.42-.16-.56,5.58-5.24,9.88-10.43,2.29-2.78,4.91,2.82,8.33,3.07,1.79.13,5.05-3.1,5.39-5.19.31-1.85-2.5-4.21-4.25-6.81l6-5c1,.57,2.38,1.32,3.72,2.17,3.4,2.16,9.69.61,11.1-3C990.3,1017.76,990.07,1015.64,989.28,1014.92Zm-46.27,29a73.23,73.23,0,0,0,6.92,16.76c1.46,2.68,4.45,5.38,6.8,7.61,12.73,12.1,38.53,35.72,48.86,45.14a.61.61,0,0,1-.73,1l-88.38-51.7a3.65,3.65,0,0,0,.13-.5l12.69-75.4c11.51,7.56,23.13,14.92,35,22.54,1.78,1.15,2.64,1.95,4.77,3.49a2,2,0,0,1,.22,3c-1.11,1.08-1.68,1.66-3.69,3.36-2.19,1.85-16,16.48-20.89,21.09C942.91,1042.06,942.64,1042.44,943,1043.89Zm29-40.81-.11.11a2.32,2.32,0,0,1-2.89.31c-18.57-11.9-60.1-36.56-55.3-37.72,6-1.37,48.8,26.6,58.22,34.63A1.82,1.82,0,0,1,972,1003.08ZM443.34,902.24a12.11,12.11,0,0,1,1.34-5.76c1.85-3.63,12.2-32.17,13.09-33.84a49.67,49.67,0,0,0,3.1-7.26c.47-1.29-2.75-5.76-4.5-8.67s-8.11-12-10.86-17.83-36.35-59.76-38.77-64.57c-1.93-3.84-6.09-12.53-9.25-16.77L457.66,679c13.27-13,26.41-26.21,39.58-39.35a4.18,4.18,0,0,0,.44.4L660.6,764.28,482.5,975.69C479.59,971,470.61,956.27,468,950c-3.19-7.56-16.65-29.77-16.65-29.77s-3.59-6.79-6.07-11.21a14.85,14.85,0,0,1-1.84-5.78A4.51,4.51,0,0,0,443.34,902.24ZM421.91,646.5c-.37-1.33-2.31-2.7-2.05-3.64,1.6-5.93,4.21-11.39,9.79-14.68,4.26-2.5,8.1-1.68,12,1.43,4.89,3.93,10.09,7.48,15.3,11a3.64,3.64,0,0,0,1.41.54,2.69,2.69,0,0,0,3.19-2.3,10.62,10.62,0,0,0-.05-2.26c-.28-3.19-6.78-8.58-12.84-13-5.62-4.1-7.13-4.78-3.85-11.28,2.22-4.38,5.45-6.51,10.39-7.58,2.17-.47,4.61.16,6.91.44,2,.24,4.45,1.64,5.83.9,5.45-2.92,9.3-.18,13.26,2.82,5.45,4.13,10.85,8.32,16.35,12.38,4.24,3.12,4.48,4.76.64,8.61-14.49,14.52-29,29-43.45,43.57a3.37,3.37,0,0,0-1.91,1.06l-3.3,3.77a5.76,5.76,0,0,1-6-.56c-7-5.29-15.4-11.47-21.76-16.19-1.17-.87-2.21-1.92-3.24-2.84,1.51-2.38,3.25-4.31,4-6.56C423,650.47,422.42,648.31,421.91,646.5ZM407.13,421.31a11.33,11.33,0,0,0,3.36-2c.88-.8,1.77-1.61,2.64-2.42a6,6,0,0,1,7.46-.52l33.81,23.16v19.89a3.28,3.28,0,0,0,1.45,2.73l9,6.12-10.17,11.55-44-30.38a8.07,8.07,0,0,1-3.47-6.62V422A2.92,2.92,0,0,0,407.13,421.31ZM470.37,472l42.79,29L501.87,512.4l-41.71-28.81Zm48.35,32.79s70.86,46.61,86.87,58.92,125.19,84.9,125.19,84.9l9.3,21.68-9.83,21.18S672.11,651,668.7,648.61c-4.21-2.8-68.74-46.27-68.74-46.27V581.88a3.32,3.32,0,0,0-1.42-2.72l-91.15-62.95ZM646.06,425.6l72.82,41.73,0,0,23.15,13.26a3.25,3.25,0,0,0,1.64.44h17l136.51,76.88L887.15,567,870,564a3.67,3.67,0,0,0-.74,0l-233-136.74Zm-17.19-2.77-31.32-18.38,9.72-1.07,31.22,17.88Zm162,3.17c-4.39-5.1-9.13-9.9-14.17-15.26-2.19-4.5,0-6,5.57-4.43,3.86,1.75,7.53,2.61,10.13,4.77,4.82,4,5.51,4.94,10.23,9.1,1.43,1.27,7,3.74,9.06,4.32,1.58.44,7.7,2.15,9.17,2.83,3.4,1.57,10.45,4.58,6.87,5.54-10.5,2.84-20.06,5.5-29.67,8-4.2,1.08-8.5,2.47-12.75,2.45-8.66,0-15.32-5.55-22.07-10-5-3.29-6-3.79-7.83-4.94-.48-3.13-1.26-5.25-1-7.21a10.71,10.71,0,0,1,2.57-5.83c1.54-1.54,4.54-3.51,6-2.95,7.23,2.82,14.43,5.92,18.42,13.5,1.1,2.1,3.41,3.81,5.54,5.05a5,5,0,0,0,3,.18,1.82,1.82,0,0,0,1.58-1.86C791.55,428,791.51,426.72,790.89,426ZM837,433.71c-1.15-4.75-5.11-8.09-9.67-10.68-8.79-5-19.87-5.5-26.68-14.55-2.38-3.17-6.9-5.15-10.84-6.59s-5.64-3.47-7.34-7.32c-3.22-7.34-7.81-14.1-12-21l-.21-.35a1.63,1.63,0,0,1,2-2.34s38.51,15.64,46.7,19.9c6.73,3.5,32.71,14.16,41.79,17.87a9.79,9.79,0,0,1,4.68,4c.24.4,1.2,1.85,2.29,3.51,1.37,2.08,5.21,7.67,6.39,11Zm41.25-.57c2.3,1.05,7.75,3.51,10.16,4.37,3.11,1.09,40.58,13.48,57.14,21.1S987.89,474.8,991.07,476c2.1.8,5.68,2.12,7.84,2.91a11,11,0,0,0,3.76.69l13.83,1.08c12.51-.65,13.77-.67,17.21-.64l6.78-.12a13.24,13.24,0,0,1,5.51,1.24,58.17,58.17,0,0,0,8.31,3.13c6.51,1.89,48.06,18.7,57.4,23.31,3.56,1.76,8.17,3.71,12.5,5.44L974.76,544.48,800.94,450.23c10.92-3.05,21.78-6.32,32.74-9.21l.21-.06Zm-92,20.73a9.73,9.73,0,0,0,2-.23l.37-.1,266.77,144.67a1.4,1.4,0,0,1-.72,2.64c-5.16-.18-10.32-.35-15.48-.46q-15.92-.32-31.84-.56c-.28-.57-78.65-45.38-78.65-45.38A3.25,3.25,0,0,0,927,554H903.7s-40.48-21.57-77.86-43.85c-40.34-24.05-62.66-35.29-62.66-35.29a3.25,3.25,0,0,0-1.61-.42h-17l-14.43-8.27Zm83.12,116.68,18.21,3.21a3.28,3.28,0,0,0,2.78-.79l13.73-12.36h22.06l65.63,37.32a.88.88,0,0,1-.45,1.64q-9-.15-18-.32c-13.5-.27-20.63-1-40.48-1.08-15.33-.07-30.65-.71-46-1.11-12.94-.33-25.89-.64-38.82-1.19a13.5,13.5,0,0,1-5.88-2.24c-5.25-3.11-10.54-6.2-15.45-9.8-2.09-1.54-4.47-4.3-4.57-6.59,0-.27,0-.5-.06-.74Zm-19.62,44.9c-.07,0-1.31,1-1.48,1.13-8.31,6.52-7,5.42-17.56-3.39-7.82-6.54-16.31-12.28-24.73-18.55,1.32-2.13,6.62-6.71,11-9.7C829.11,593.06,845.12,599.39,849.76,615.45Zm-39-35.24c-1.33.91-5,3.81-6,4.73-9.59-6-19.27-12-28.93-18.06q-42.57-26.73-85.12-53.5c-11.53-7.27-22.93-14.77-34.41-22.12q-21.49-13.77-43-27.45Q571.48,437.34,529.62,411c-11.68-7.35-23.5-14.5-35.24-21.77-1.21-.74-2.32-1.65-3.65-2.61,11.7-4.21,21.83-1.2,31.56,4.88q39.4,24.6,78.9,49.08c22.09,13.73,44.24,27.36,66.3,41.15q46.32,29,92.53,58.12,25.49,16.08,50.81,32.42a11.88,11.88,0,0,1,3,2.48,3.23,3.23,0,0,0,.5,1C814.62,577.07,813.41,578.38,810.76,580.21ZM490.87,394.46c17.21,11.67,35,22.51,52.55,33.65q30.18,19.14,60.37,38.24,41.84,26.36,83.75,52.58,34.17,21.47,68.31,42.94c14.1,8.9,29.16,18.76,43.21,27.71-2.62,2.11-3.78,2.92-6.17,4.78a29.28,29.28,0,0,1-5.67,2.81,25.48,25.48,0,0,1-20.61-2.92c-23.25-15.21-47-29.67-70.43-44.59-17.08-10.86-33.95-22-51-33-15.38-9.9-30.9-19.59-46.26-29.53q-60.76-39.31-121.42-78.78c-4.57-3-4.37-10.12-.4-13.67C481.94,390.36,485.48,390.8,490.87,394.46ZM768.78,606.89c9.71,2.13,17.53-1.74,25.62-3.77a5.11,5.11,0,0,1,3.42.17c5.46,3.09,10.87,6.27,16.17,9.64,2.16,1.37,3.32,3.2,2.42,6.28-7.83,26.73-15.37,53.55-23.21,80.29C787.7,718.27,782,737,776.33,755.71l-44.61-33.44,3.09-25,11.88-25.58a3.28,3.28,0,0,0,0-2.69l-9.49-22.11ZM593.36,583.61v20.47a3.29,3.29,0,0,0,1.44,2.72L728.08,698l-3.14,25.39a3.27,3.27,0,0,0,1.3,3l48.07,36c-.06.22-.13.43-.19.65-5.24,17.6-10.29,35.26-15.49,52.88q-1.44,4.9-2.9,9.8L503.49,633.39c1-1,63.67-67.87,63.67-67.87ZM490.45,976.5l175.4-208.21,85.87,65.49a5,5,0,0,0,.62.4l.77.4c-4.88,16.4-9.41,22.67-14.59,49.22-2.5,12.8-7,25.13-10.62,37.67-.75,2.61-1.51,5.21-2.26,7.81,0,0-203,43-233.86,49.46A1.38,1.38,0,0,1,490.45,976.5ZM955.53,722.73c7.89-6.21,16.18-11.91,24.22-17.94a7.46,7.46,0,0,0,1-.93,4.48,4.48,0,0,1,6.67.13c3.7,4.32,7.42,8.65,11.07,13,6.93,8.31,13.67,16.78,20.71,25,2.49,2.9,2.28,4.5-.8,6.85-8,6.12-15.71,12.67-23.6,19-3.39,2.7-9.45,2.39-12.3-.91-7.8-9-16-17.77-22.86-27.46S951.31,726.05,955.53,722.73Zm76.84,40.79c1.06-.77,3.24-.74,4.58-.24,3.51,1.3,6.85,3.08,10.26,4.66,5.38,2.49,9.28-.53,13.51-4,5.13,5.92,10.26,11.67,15.2,17.58,8.34,10,16.52,20.05,24.84,30,4.64,5.55,10.12,10.55,14,16.6,2.54,4,3,9.42,4.09,14.27,1,4.19,1,8.68,2.5,12.64,1.68,4.42,4.38,8.51,7,12.52a67.93,67.93,0,0,0,5.77,6.93l-10.86,10.06c-1.49-1.7-3-3.17-4.24-4.87-3.72-5.2-5-5.45-9.87-1.56-4.12,3.3-1.93,6.3.44,9.29.23.29,2,2.22,3.8,4.78.81,1.13-1.51,3-2.5,2-1.57-1.56-3-3.07-3.5-3.71-5-6.31-5.32-6.52-10.38-2.41-2.67,2.17-3.19,4.75-1.1,7.6,1.68,2.29,3.48,4.5,5.39,7l-11.76,9.06-86.53-103.45c11.48-4,7.76-12.13,5.92-19.77-.46-1.9-1.07-3.77-1.72-6C1015.46,776.16,1023.82,769.72,1032.37,763.52Zm1.73-26.72c5.33,6.4,14.12,15.76,20,22.79C1046.2,764.66,1025.67,750.73,1034.1,736.8Zm110.16,155.72c12.4,13.36,24.66,26.84,37.13,40.45-5.61,5.07-13.43,12.22-21.35,19.26-3.9,3.47-7.88,6.87-12.08,10-1.09.8-3.86,1.08-4.63.34-13.2-12.8-26.19-25.81-39.26-38.73a49.73,49.73,0,0,0-4.13-3.36c2.85-2.51,4.91-4.55,7.21-6.27,1.07-.8,10.18-8.9,23.28-19.18C1135.51,891,1139.79,887.7,1144.26,892.52ZM981.43,779.06l19.41,5.46,3.52,12-8.06,2.29L980.84,780A.57.57,0,0,1,981.43,779.06Zm22.49,39.64c12.81,17.43,27.15,33.74,41.09,50.32,9.85,11.71,20.12,23.07,30.12,34.66a83.77,83.77,0,0,1,8.6,11.09c.92,1.52.52,4.6-.44,6.33-3.94,7.06-8.81,13.7-8.71,22.28,0,2,.1,4.38,1.19,5.79,15.61,20.26,31.33,40.42,47,60.64,2.11,2.71,3.38,12.07,1,9.39-15.42-19.21-29.71-37-44-54.84-3-3.79-5.84-7.89-9.37-11.18-5.38-5-6-10.87-6.62-18.06-.3-3.32-3.43-6.83-4.56-8.81-5.79-10.12-13.32-12.66-24.15-15.9-4.06-1.22-14.27-.4-18.27-1.89-.4-.14-1.9-.59-2.24-.68-7.53-9.47-15.22-18.81-22.8-28.24-11.66-14.51-23.21-29.11-34.92-43.58-6.24-7.72-12.72-15.25-18.78-22.48,7.32,1.15,14.88,3.31,22.43,3.26,8,0,16-2.06,23.94-3.42C991.75,812.11,997.93,810.55,1003.92,818.7Zm107.34,158.47c-7.87-10.47-15.87-20.83-23.58-31.41a6.64,6.64,0,0,1-.49-5.58c1.64-3.74,4-7.16,6.51-11.44,14.79,14.81,29.4,29.13,43.53,43.9,2.31,2.42,3,6.8,3.56,10.41.82,5,.54,10.12,1.34,15.09.72,4.51-2,6.51-5.23,7.05a8.24,8.24,0,0,1-6.54-2.69C1123.75,994.25,1117.62,985.62,1111.26,977.17Zm26.51,38.52c3-3.46,9.83-4.26,12.58-1.53,11.68,11.56,25.15,21.54,33.18,36.4,3.2,5.94,6.18,12,4.27,19.91-1.84-1-3.4-1.44-4.26-2.45-7.41-8.69-17.91-13.19-26.63-20-4.92-3.88-8.43-9.61-12.38-14.66-2.19-2.81-3.74-6.13-6-8.88C1136.12,1021.53,1135.24,1018.55,1137.77,1015.69Zm46.77,24a270.78,270.78,0,0,0-25.09-27c-7.35-6.84-8.47-14.92-9.72-23.57-.44-3-.61-6.06-1-9.07a6.4,6.4,0,0,1,.74-3.5c7.47,7.5,14.87,15,22.47,22.41,1.45,1.41,4,3.15,5.51,2.78,7.16-1.73,11.24,2.31,15.17,7,4.12,4.92,8.33,9.78,12.27,14.84,2.84,3.64.36,10.92-4.34,13.46-.17.09-.37.15-.56.23C1191.23,1041.26,1188.22,1042.5,1184.54,1039.64Zm7.41-47.85-.94-.3a25.39,25.39,0,0,0-6.71-1c-4.42-.17-7.64-2.68-10.79-6.08-4.21-4.54-12.19-10.76-17.42-15.44,1.94-1.34,3.91-2.16,5.46-2s6.71,1,8,0c2.86-2.23,5.67-4.52,8.47-6.84,3-2.52,4.74-4,7.76-6.52.41-.35.28-2.24,0-3.93a.78.78,0,0,1,1.34-.64c5.6,6.12,12.26,13,16.93,17.89.75.8,2.49,3.28,1.51,5.15-2.89,5.55,1.16,8,4.11,11.22,6.1,6.66,12.07,13.45,18.49,20.62-5.68,4.86-10,8.37-14.94,12.65C1205.53,1008.37,1199.4,999.42,1192,991.79Zm22.19-15.45a7.75,7.75,0,0,1-1.13-4.53,15.12,15.12,0,0,0-4.45-10.27c-6.06-6.07-16.68-16.2-20.52-19.78,1-1,2.15-1.93,3.27-2.94a3,3,0,0,1,3.91-.13,336.14,336.14,0,0,1,35.59,32.4c5.77,9.16,9.69,19.63,9.25,30.74-2.86-1.51-5.36-2.15-6.84-3.73C1226.63,991.05,1220,984,1214.14,976.34Zm-.33-35.59c-2.76,2.54-4.74,1.24-6.36-.68-3.82-4.52-7.13-9.5-11.06-13.92-1.5-1.69-4.14-2.38-6.28-3.47-1.53-.79-3.42-1.17-4.61-2.29-10.21-9.66-20.49-19.26-30.3-29.32-3-3-4.3-7.57-6.69-11.22s-5.23-7.27-7.93-10.85c-1.73-2.28-3.56-4.48-5.61-7-.94-1.67-4.44-4-6.63-13.53-2.29-9.26-1.92-10.21,6.33-16a41,41,0,0,0,5.89-4.73c.87-.9,1.67-2.75,1.33-3.8-1.53-4.78-2.5-10.24-5.55-13.9-2.83-3.41-7.94-5.06-12.25-7-1-.44-3,.81-4.19,1.69-2.45,1.75-4.69,3.78-7.21,5.86l-10.6-12.18c2.23-6.26,5.34-7.79-2.76-17.61-1.07-1.29-3.68-1.44-6-1.17q-14.25-17.32-28.49-34.67c-5.28-6.41-10.66-12.73-15.84-19.22-4.08-5.11-5.29-5.4-10.26-1.67-1.73,1.29-3.52,2.52-6,4.27-3-3.41-6.72-6.66-9.33-10.64-12.58-19.17-30.71-31.87-49.78-43.55-2.9-1.78-5.66-3.81-8.46-5.75a5.23,5.23,0,0,1-.94-.85c11.54,0,23.49,0,35.43,0,13,0,22.49.21,36.15-.29,9.09-.34,18.58,2.82,24.61,8.5,4.59,4.33,9.5,6.1,16,6.25,12.23.3,25.3-.21,37.9-.37,7.61-.1,12.41,3.06,16.73,9,7.53,10.34,10.4,22.68,15.71,34,1.46,3.1.19,4-2.88,4.71-7.09,1.54-7.6,2.8-4.84,9.57.34.83.84,1.61,1.19,2.41,2.14,4.92,4.24,6.76,9.15,4.4,4.14-2,7.22-1.76,7.24,4.06-2.39,3.24-11.3,0-9.51,8.09.84,3.83,2.78,8.77,5.75,10.36,2.13,1.14,5.62-.26,8.86-1.24a2.59,2.59,0,0,1,3.14,1.49c6.3,15.19,12.41,30,18.63,44.82,1.73,4.11,1.09,7-2.84,9.49a53.77,53.77,0,0,0-9.2,7.5c-1.2,1.21-2.33,3.82-1.82,5.19,3.25,8.81,5.73,18.26,10.79,26,8.66,13.19,19,25.24,28.67,37.81,7,9.09,13.84,18.24,21.08,27.79C1224.55,931.64,1219,936,1213.81,940.75Zm-28.57-83.53c-3.25-4.2-4.54-9.93-6.94-15.46l6.56-5.24c3.41,2.36,6.44,5.17,10,6.73a5.85,5.85,0,0,0,8.09-3.5c.6-2.11-1.56-5-2.85-8.57l4.53-3.33c5.41,4.63,9.75,4.81,12.26.44.74-1.3.57-4.18-.38-5.17-.74-.76-3.28-2.32-1.48-3.55,3-2.06,3.76-2.54,5.64-3.73,6.23,5.38,11,9.59,19.06,16.84a66.57,66.57,0,0,1,9.54,10.89l-40,25.7c-.39.25-6,8.75-6,8.75C1197.23,871.11,1190.84,864.47,1185.24,857.22Zm58.4-31.36c-6.63-5.79-13.72-11.09-20.83-16.32a2.24,2.24,0,0,0-.92-.38c-.17,0-1.07-.22-2.76.83-4.46,2.37-14,8.6-15,9.38-3.08,2.39-6.06,4.92-9.56,7.87a1.76,1.76,0,0,1-2.89-1.47c1-15.63-7-26.53-12.52-39.86-1.2-2.93-2.35-5.91-3.54-8.87l64.46,16.65,18.06,48.21a.49.49,0,0,1-.87.43A75.81,75.81,0,0,0,1243.64,825.86ZM1174.92,770a3.31,3.31,0,0,0-2.16.19c-.4-.88-.78-1.77-1.21-2.64-1.5-3.09-1.28-8-6.37-8.47a3.37,3.37,0,0,1-2.84-4.8c2.66-5.23.32-14.32-4.74-16.39-4.34-1.76-5-3.38-1.86-6.79.51-.56.41-2.13,0-3-4.87-11.34-9.32-22.9-15-33.83-3.24-6.25-4.53-7.84-9.09-13.34-.78-.94-4.49-4.67-8.38-4.66-10.58,0-21.19-.43-31.75-.19V676l-10.54-69.56c6.7.17,13.4.35,20.1.49,18.63.4,37.26.64,55.88,1.15,4.59.12,9.18.33,13.79.56l66.47,177.47ZM1138,522.25a164.39,164.39,0,0,0,3.57,18.42c3,11.37,7.17,46.42,9.47,52.34s1.73,9.56,1.73,9.56h-2.37q-35.48-.48-71-1a4.33,4.33,0,0,0-1.06-.83l-92.1-50a1.08,1.08,0,0,1,.29-2l148.54-31.26A7.05,7.05,0,0,1,1138,522.25Zm-7-47.19s1.42,17.05,3.32,23.62a47.61,47.61,0,0,1,1.61,8.11,2.26,2.26,0,0,1-3.11,2.35c-9.72-4-37.66-15.54-44.84-18.38-8.74-3.45-21.64-9.16-39.08-14.59-.8-.25-1.78-.5-2.82-.73l21.46-25.17Q1099.29,462.66,1131,475.06ZM967.78,411.52c.37.15.33,1.32.4,1.65-3,2.1-5.68,4.09-8.49,5.91-1.29.84-2.88,1.21-4.19,2a17.62,17.62,0,0,0-1.65,1.18,3,3,0,0,0-.62,4,5,5,0,0,0,1.92,1.91c6.85,3,13.89,5.53,20.85,8.26,3.34,1.3,6.84,2.32,9.91,4.09s5.1,1,7.78-.69c3.51-2.25,7.66-3.52,11.1-5.86,2.09-1.41,3.37-4,5.3-6.49,11.73,4.7,23.64,9.56,35.61,14.25l15.35,6-21.17,24.84a3.19,3.19,0,0,0-.73,1.61l-.65-.1h-17.42c-7,0-16.82-.42-19.84-1a19,19,0,0,1-2.36-.62c-4.59-1.5-22.43-7.49-37.38-14.3-17.32-7.89-20.39-7.23-36.12-14.12s-23.77-8.53-29.33-10.63c-3.56-1.34-8.84-3.53-12.19-4.93a9.79,9.79,0,0,1-4.78-4.29c-1.46-2.64-3.6-6.41-5-8.56-1.17-1.75-3.09-4.43-4.75-6.72a2.11,2.11,0,0,0,.37-.3L895.84,383C922.6,393.61,951.15,404.94,967.78,411.52Zm-222.13-88,32.87,13.12c-4.5,2.07-8.72,3.71-12.65,5.89-3.53,2-3.15,6.83.79,8.45,10.87,4.49,21.88,8.64,32.83,12.92,2.34.91,4.86,1.52,7,2.79,8.26,4.95,15.56,2.62,22.23-3,1.38-1.15,1.58-3.7,2.68-6.5,4.49,1.87,29.42,11.82,57.75,23.1l-24.07,23.57c-.08.07-.13.16-.2.23-.18-.09-.36-.19-.55-.27-3.74-1.54-12.42-5.14-19.6-8.22-9.42-4-42.61-17.24-62.33-26-5.74-2.56-15.06-6.39-17.09-7a5.17,5.17,0,0,1-2.87-2.22c-2.07-3.37-4.15-6.74-6.19-10.13-4.51-7.49-8.9-15.05-13.49-22.83C741.5,324.48,742.74,322.65,745.65,323.5ZM577.84,237.35c-1.08-3.48-.53-7.76.23-11.47,2-9.63,4.45-19.15,6.78-28.93,11.29,4.7,22.7,9.33,34,14.19,14.49,6.21,28.91,12.59,43.34,18.94,4.54,2,5.87-.36,5.91-4.18,10.07,1.78,12.84,10.7,17.12,17.66,15.49,25.19,30.55,50.66,45.66,76.09,13.62,23,23.32,39.59,36.87,62.57.53.9,5.07,8.06,6.3,9.61,4.28,7.45,3.73,10.38-7.38,4.28-14.84-8.36-29.24-16-43-24.6-3.2-2-4.36-7.39-6.22-11.33-2.15-4.53-3.76-9.34-6.14-13.73-1.05-1.92-3.25-3.46-5.25-4.59-23.48-13.19-47-26.23-70.53-39.38q-20.61-11.55-41.1-23.34a8,8,0,0,1-3.44-3.8C586.44,262.74,581.81,250.15,577.84,237.35ZM569.1,297.6c6.36-4.31,14.44-6.07,21.72-9,4.38-1.54,11.53,2.13,23.81,9.34,8.25,4.89,86.74,48,90,50.89,2.32,2.06,3.3,5.72,4.63,8.77a22.57,22.57,0,0,1,1.28,3.9.71.71,0,0,1-1.28.58c-2.8-4.1-6-7.18-11.36-2-1.41,1.35-.56,5.07-.77,8-8.23,1.63-11.24,5.5-8.43,12,1.22,2.79,2.32,5.64,3.5,8.44,1,2.3,2,4.59,3,6.87-6.72,3.45-17.13-1.4-22.83-4.67C655.72,381,640,371.76,624.29,362.62c-19.15-11.13-38.2-22.45-57.66-33-3.12-1.69-8.17.15-12.54.36C554.89,317.71,557.79,305.27,569.1,297.6Zm-18.32,40c13.07-3.21,16.18-.45,35.08,10.53,12.65,7.19,26.35,14.89,40,22.75,15,8.68,30.19,17.21,44.88,26.46a29.46,29.46,0,0,0,13.86,4.84c9.9.62,17.35,6.44,25.36,11,19.32,11,38.42,22.29,57.63,33.44,1,.56,1.93,1.15,2.9,1.74l-50.13,11a4.42,4.42,0,0,0-1.25.5L650,420.23l-108.12-62a3.34,3.34,0,0,0-1.26-.41L516.42,355a10.09,10.09,0,0,0-.84-3.27c-.82-2-1.62-4-2.45-6Zm-43.31,24.07c1.06-.31,2-.6,2.95-.91a3.22,3.22,0,0,0,1.16.37l27.56,3.23,60,34.39-9.55,1.05-7.69-4.51a2.56,2.56,0,0,0-.92-.34l-24.08-4.15-49.77-29Zm-13.15,3.15c2.12-.52,3.71-.87,5.14-1.18l55.12,32.16a2.67,2.67,0,0,0,.92.33l24.07,4.15L860.32,565l-41.19,5.18a16.44,16.44,0,0,0-1.57-1.3c-9.47-7-49.31-34.27-50.11-34.44,1.46-1.52,3.61-2.78,3.59-4,0-1.46-1.74-3.06-3-4.31-4.26-4.17-9.07-5.48-17.18-2.58-1.71.61-4.77-1.34-7.74-3.13,6.59-5.09,6.44-5.41,1.14-9.39-4.78-3.58-9.52-5.49-15.47-2.92-1.26.55-3.46,0-4.77-.82-8.57-5.2-17-10.62-26-16.28,5.12-1.41,9.78-2.57,14.33-4,1.13-.37,2.7-1.76,2.68-2.66a5.76,5.76,0,0,0-2.08-3.82c-5.2-4.2-10.94-3.6-16.77-1.45a30.15,30.15,0,0,0-4,1.42c-8.4,4.55-14.1-2-20-5.46-17.72-10.47-35-21.64-52.53-32.51-6.21-3.87-12.46-7.68-18.67-11.56a25.35,25.35,0,0,1-2.69-2.29c4.4-1.16,3.91.15,7.72-1.06,1.34-.42,3.42-1.57,3.44-2.41,0-1.55.15-5.15-3.34-7.22-2.7-1.61-17.9-12.63-24.85-12.48-6.5.14-7.86-.66-13.4,2.69-1.2.72-3.75-.17-5.37-.95-2.4-1.16-4.45-3-6.79-4.35-12.29-6.92-24.43-14.15-37-20.44-5.64-2.81-12.24-3.73-18.45-5.35a117.57,117.57,0,0,1-12-3.29C478.42,370.13,477.5,370.13,494.32,364.81Zm-21.19,6.93c4.09,3.57,9.4,5.75,14.66,8.85-2.63,1.62-4.54,3.41-6.76,4a10.08,10.08,0,0,1-6.72-.49c-6.4-3.5-12.52-7.53-19-11.54C461.83,367,467.09,366.47,473.13,371.74Zm-2.4,18.09c-4.73,11.8-7.1,21,17.81,34.93-3,4.94.55,7.18,4.16,9.45,4.43,2.78,9,5.58,10.6,7-5.6,5.34-10.25,10.65-15.51,16.15-3.51,3.66-.35,7.63,2.54,10.12s24.53,17.8,28.43,13.89c6.14-6.16,11.49-13.09,17.23-19.77l90.78,57.73c-4.12,4-8.26,7.75-12.2,11.75a44.36,44.36,0,0,0-6.21,7.5c-.73,1.18-.72,3.84.12,4.76,1.76,1.93,1.93,1.89,4.23,3.26,4,2.41,6.58-.6,8.22-2.22,5.87-5.78,11.6-11.71,17.33-17.53l30.2,19c-3.43,4.63-7.63,8.12-5.79,11.08a18.11,18.11,0,0,0,3.75,3.89c8.36,5.69,11.34,4.92,17.8-4.69l7.54,4.61c-.16.55-.16.94-.36,1.14-8.41,9-7.95,12,3.28,17,1.61.73,4.62-.25,6.29-1.42,2.49-1.76,4.37-4.39,6.51-6.66,12.63,8.11,24.91,16.07,37.29,23.86,1.42.89,9.6,5.25,13.78,7.83a37.17,37.17,0,0,0,3.65,2L732.74,642,520.11,497.76h0L461,457.66V437.78a3.29,3.29,0,0,0-1.44-2.72L421.51,409c3.62-3.44,7.25-6.89,11-10.22,1.06-.95,3.57-.59,5.35-.37s3.81,2,4.89,1.44c3-1.55,6.6-3.45,8-6.21.77-1.5-2.41-5-4-7.93l5.88-7.33Zm-21.28-24.28c.52,3.07-2.49,9.75-3.12,10.95-.89,1.67-7.72,9.93-9.69,12.3-1.73.89-4.56,1.69-6.51,3.45-4.8,4.35-21.12,19.88-22.72,21.33a21,21,0,0,1-3.16,2.45,4.09,4.09,0,0,1-4,.22,1.31,1.31,0,0,1-.44-.32C411.89,400.16,419.56,376.5,449.45,365.55ZM339.92,458.09c11.58-11.15,23-22.43,34.74-33.46a10.16,10.16,0,0,1,6.17-2.35c6.59-.24,13.2,0,19.79-.14v26.62a3.27,3.27,0,0,0,1.43,2.71L562.57,562.35l-55.34,56.82a6.33,6.33,0,0,0-1.26-1.34c-10-7.38-14.56-10.32-24.6-17.57-16.88-12.21-33.71-24.5-50.9-37,2.47-8.09.42-14.46-5.91-21.42-14.3-15.71-32.11-26.65-48.8-39.11-15.53-11.59-31.6-22.44-47.66-33.78C332.13,465.24,336.11,461.75,339.92,458.09Zm-37.1.43c6.5,4.53,29.46,21.05,38.73,27.72h0l2.51,1.84.12.08h0c11.75,8.61,23.83,17.49,36,26.3,7.7,5.58,15.88,10.57,23.18,16.63,7.55,6.26,15,13,21,20.61,1.72,2.18.4,6.77-.26,10.83a2.37,2.37,0,0,1-4.08,1.21c-3.25-3.52-6.51-7.06-9.77-10.58a13.51,13.51,0,0,0-11.42-4.36c-5.48.65-7.61,4.56-10.33,7.93-21.3-20.41-94.09-91.9-100.36-99.64A15.27,15.27,0,0,1,302.82,458.52Zm-71.36-1.66c-10-10.16-19.11-21.09-28.61-31.68-1.68-2.14-1.15-4.7,2.58-3.35,5.69,3.76,11.78,7.72,17.42,11.55,13.79,9.38,16,12,31.6,23.63,2.18,1.62,11.33,8.79,13.5,10.47,4.95,3.85,6,3.43,8.25-2.75,6.81,6.31,13.89,13.9,20.26,20C307,494.79,317.48,505,328,515.12q27.83,26.75,55.7,53.46c13.18,12.58,26.47,25,39.74,37.54.4.38.83.74,1.26,1.11a1.48,1.48,0,0,1-1.45,2.52,3,3,0,0,1-.89-.46c-18.3-14.37-37.82-27.07-54.41-43.79-11.85-12-26-21.75-39.45-32-22.33-16.94-44.63-34-67.63-49.94C249.78,475.85,240.7,466.31,231.46,456.86Zm-2.88,68.73a2.43,2.43,0,0,1-.6-2c2.25-5.71,1.48-12.32,6.37-17.33s8.78-10.93,13.29-16.3a23.25,23.25,0,0,1,3.81-3.87c10.45,8.31,28.39,22.68,32.39,25.73,8.57,6.54,18.19,13.91,27,20.07,3.21,2.24,29.95,21.07,34.26,24.12,1.94,1.37,13.48,11.1,15.26,12.65,9.14,9.12,6.92,9,1.65,14a55.13,55.13,0,0,0-5.18,4.72c-5.59,5.39-3.73,8.59,1.84,13.75,19.47,18,34.64,28.89,53,43.08q1,.75,1.92,1.53a5,5,0,0,1,.79,7l-.54.7a1.39,1.39,0,0,1-1.9.27c-4.56-3.33-9.15-6.6-13.64-10-9.46-7.16-11.11-8.74-20.65-15.8-2.54-1.88-6.65-6.52-15.46-6a44.5,44.5,0,0,0-8.74,1.07,6,6,0,0,1-5.39-1.3c-11.13-9.66-50.82-38-63.86-48-12.71-9.74-24.76-20.58-38.43-28.71C237.41,539.92,234.44,531.84,228.58,525.59Zm0,37.63c3.75-3.55,7.53-7.05,11.41-10.45,1.08-.95,4.13-1.15,5.27-.32,10.76,7.83,21.3,16,31.9,24l43,32.67c8.45,6.41,17.32,12.34,25.21,19.39,5.33,4.77,11.23-.44,16.3.11a10.54,10.54,0,0,1,6.3,2.56c16.77,12.41,33.33,25.1,49.95,37.71l2.91,2.2c12.32,10,18.7,13.2,22.78,13.93l-52.41,59.72c-12.11-.67-45.53.58-48.09.58a5.46,5.46,0,0,1-3.82-1.49c-.05-.09-.08-.18-.13-.26a3,3,0,0,0-.83-.88,4.57,4.57,0,0,1-.34-.6s-43.9-69.25-49.33-79.92c-4.86-9.55-51.2-79.54-60.63-94.12A3.83,3.83,0,0,1,228.57,563.22Zm-58.06,56.11c3.62-3.42,6.53-6.13,9.38-8.9,13.64-13.25,17.13-16.94,30.8-30.16,1.16-1.12,5.35-5.09,7.95-7.56a2.45,2.45,0,0,1,3.75.47s40.39,61.33,42.17,66.16,61.44,96.43,63,100.53a21.75,21.75,0,0,0,2.94,5.28l-62.64,39.59Zm100.67,171.1,64.15-40.55c2.95,1.72,8.54,2.09,11,2.09l41-.66a6.68,6.68,0,0,1,5.58,3,30.4,30.4,0,0,1,3.1,6.06c1.91,5.2,49.54,84.91,52.34,88.52a31.27,31.27,0,0,1,2.24,3.29,7,7,0,0,1,.52,6.1l-1.55,4.08c-2.11,5.56-9.84,21.59-12.72,30.14a28.47,28.47,0,0,0-1.35,7.38l-74.35,43.47ZM365.6,950.92l70.73-41.35c.08.28.16.55.24.8,1.2,3.66,21.2,41.15,24.3,45.67s12,23.85,12,23.85a2.13,2.13,0,0,1-1.49,3l-78,15.16Zm44.52,75.67-12.8-21.75s110.86-21.39,167-34.23,158.75-32.54,158.75-32.54q-4.23,14.58-8.51,29.24Zm597.43,122.05c-14.82-2.79-29-5.42-43.09-8.25-8.76-1.76-17.36-4.27-26.11-6.05-16-3.25-32.05-6.14-48.05-9.3-9.13-1.81-18.21-3.88-27.32-5.8-11.73-2.47-23.46-5-35.22-7.34-14-2.83-28.12-5.53-42.19-8.3-19.51-3.85-39-7.63-58.51-11.57-12.64-2.55-25.21-5.4-37.84-8-19.66-4-39.35-7.84-59-11.82-12.46-2.52-24.89-5.25-37.35-7.76-20.19-4.06-40.4-8-60.58-12-12.47-2.51-24.9-5.2-37.35-7.77q-29.18-6-58.36-12l-1.7-.37a2.11,2.11,0,0,1,0-4.12c10.4-2.21,20.29-4.35,30.23-6.25,13-2.49,26.17-4.46,39.22-6.91,12.84-2.41,25.62-5.2,38.44-7.73,16.87-3.32,33.75-6.55,50.62-9.83,9.49-1.84,19-3.72,28.45-5.57q25.32-4.92,50.64-9.83c13-2.54,26.11-4.77,39-7.94,4.14-1,7,0,10.09,1.8,11.13,6.53,22.15,13.27,33.25,19.88q29.81,17.78,59.66,35.46c21.09,12.43,42.29,24.67,63.39,37.07,19,11.17,37.89,22.48,56.86,33.68,17.61,10.39,35.28,20.68,52.9,31,6.91,4.08,13.81,8.19,21.09,12.54A1.65,1.65,0,0,1,1007.55,1148.64ZM720.89,968.52q1.58-5.38,3.14-10.75S795.9,999.83,871.68,1044c79.35,46.24,162.78,94.66,162.83,94.66,3.21,2.82,8.68,7.71,7.84,8.29l-7.72,6.55Zm331.44,202.68-22.81-8.94c9.36-1.58,15-8.12,20.91-14.74C1056,1152.71,1056.88,1163.58,1052.33,1171.2Zm5.89-25.44c-4.9-4.37-10.24-8.93-15.36-13.74-8.91-8.37-17.6-17-26.53-25.34-7.56-7.07-15.36-13.88-23-20.88-3.18-2.93-6.36-5.85-9.52-8.8l6.77-12.33,41.52-34c1.39,1.55,2.76,3.11,4.13,4.65,7.65,8.67,14.83,17.74,22.31,26.55,12.77,15,25.62,30,38.68,45.25C1082.55,1122.76,1071.68,1133.16,1058.22,1145.76Zm18.76-85.2c-6.94-7.72-13.82-15.14-20.43-22.79-7.31-8.47-14.29-17.24-21.57-25.74-5.91-6.88-11.37-14.39-18.29-20.08-6.2-5.11-13.92-8.6-21.37-11.87-5.15-2.26-8.28,2.85-11.44,5.74-4.94,4.51-6.17,7-9.66,7.48-3,.43-6.65-3.55-10-5.65q-19.5-12.43-39-24.93a13.34,13.34,0,0,1-2.21-2.34c.43-1,.77-1.81,1.16-2.61,4.82-9.85,4.82-9.85-4-15.58-4.94-3.19-6.9-2.68-9.76,2.54-3.19,5.84-3.19,5.84-8.88,1.87,1-1.83,2.28-3.57,2.83-5.53.72-2.53,2.08-6.54,1-7.59a34.32,34.32,0,0,0-11.72-7.1c-1-.37-3.86,3.64-5.53,5.88-.89,1.21-1.09,2.93-1.71,4.77-9-5.9-17.94-11.23-26.25-17.46-7.71-5.79-16.8-6.65-25.53-9-1.9-.5-3.81-1-6-1.49,5-17.62,10.13-35,14.67-52.58.8-3.11-.47-7-1.55-10.29-1.46-4.41-4-8.46-5.42-12.88-1-3.07-1.78-6.78-1-9.74C844,792.45,853,761.39,862,730.3a12.92,12.92,0,0,1,1.16-2.12c5.42,3.88,10.71,7.91,16.3,11.48a2.86,2.86,0,0,0,.78.33,3.15,3.15,0,0,0,3.41-4.67,2.79,2.79,0,0,0-.66-.78c-4-3.25-9-5.39-12.75-8.93-6.59-6.3-13.44-12.69-18.41-20.21-4-6-5.38-13.81-7.86-20.83-1.51-4.29-2.9-8.63-4.77-14.24,7.66,5.12,14.43,9.52,21.07,14.11Q884.4,701.15,908.42,718c10.56,7.46,21.81,14.24,31.13,23,9.51,9,17,20.06,25.45,30.18,8.21,9.85,16.5,19.64,25.34,30.16-13.78,2.47-26.65,7.1-40.24,1.74-3.61-1.43-7.65-1.83-11.52-2.54-4.91-.89-8.71,1.4-11.09,5.29-.81,1.33,0,4.57,1.15,6,16.42,20.37,33.09,40.54,49.58,60.85,10.23,12.59,20.25,25.34,30.41,38,.89,1.11,2,2.41,3.25,2.8,5,4.06,16.16,4.85,22.22,7.11a26.67,26.67,0,0,1,11.92,8.69c-4.58,2.22-5.3,4.89-2.39,8.69a108.28,108.28,0,0,0,9.25,11.27c1.39,1.39,4.43,1.53,8.11,2.38l58.24,71.87Zm43.65-19.06c1.08-3.72,4.69-9.13,5.8-13,5.59,7.36,11.31,14.63,16.72,22.13,2.93,4.08-1,9.2-5.79,11Zm11,34.75a1,1,0,0,1,0-1.35c6.48-6.76,19.85-3.57,24.08-16.78l24.59,17.23c-11.88,1.67-22.36,3.21-32.86,4.62C1136.67,1081.41,1136.06,1081.38,1131.59,1076.25Zm31.89,15.8c-7.79.72-7.8.64-13.14-3,11.65-1.93,23.07-3.93,34.53-5.67,5-.75,9.34,1,13,5.39C1186.4,1089.84,1174.94,1091,1163.48,1092.05Zm47.09-7.47c-4.1-2.31-8.32-4.41-12.3-6.91a5,5,0,0,1-1.79-4.15,34.52,34.52,0,0,0-5.63-25.84l14.68-6.18s3.74,14.8,8.27,22.73C1217.34,1070.44,1212.74,1080.5,1210.57,1084.58Zm45-32.67-6.93,6.73c-11.83,10.21-16.05,14.66-27.55,25.26a17.86,17.86,0,0,1-2.73,1.79.23.23,0,0,1-.31-.3c8.22-19-3.09-34.29-6-44.07-1.24-4.17.22-10.69,3-14.17,5.3-6.73,12.06-12.48,18.91-17.72,1.39-1.06,2.89-.88,5-.62a9.13,9.13,0,0,1,6.52,4,46.49,46.49,0,0,1,6.5,14.45C1253.81,1035,1258.59,1045,1255.57,1051.91Zm6.29-24.2c.59,4.62.9,9.3-.12,13.73-.41-2.28-1-5-1.83-8.28-4-15.73-13.14-33.58-13.14-33.58a39.71,39.71,0,0,0,0-8.18.42.42,0,0,1,.79-.25c3,5.13,5.24,11,7.61,16.46C1258,1014.09,1261,1020.83,1261.86,1027.71Zm-2.07-42.3c-4.65-2.41-8.7-4.32-12.55-6.55-4.38-2.54-4.47-4.51-.56-7.34.93-.68,1.87-1.35,2.81-2a4.27,4.27,0,0,0,.89-6.1c-4.53-5.82-9.63-12.39-11.63-14.95a28,28,0,0,0-3.09-3.66c-5.41-4.86-.77-9.13,1.71-13,5,6.37,23.46,29.69,23.53,29.64a15.07,15.07,0,0,1,1.46,3C1264.84,971.48,1263.08,977.88,1259.79,985.41Zm23.65-44.22c-6.24,5-12.88,9.46-19.49,14.28-3.3-4.25-9.27-12-15.26-19.69-13.36-17.21-26.56-34.55-40.19-51.54-.25-.32-.52-.63-.78-.94l5.69-8.87L1253,849c2.28,3.54,4.46,7.13,7,10.73,9,13,17.2,26.45,25.58,39.83,5.32,8.51,10.34,17.22,15.68,26.16C1295.45,930.79,1289.64,936.24,1283.44,941.19Zm17.23-28.79c-1.32-1.94-.77-1-2-3-7.13-11.44-14-23.1-21.29-34.4C1274.25,866.51,1178,609,1178,609c3.64.19,7.29.39,11,.57,38.38,101.4,75.8,200.3,114.27,301.95C1304,913.6,1303,915.39,1300.67,912.4ZM360.38,824.85c-2.19-3.86-10.44.39-12,1.51-7.66,5.31-11.4,7.15-19.3,12.1-3.23,2-7.6,4.48-10.45,7-2.47,2.2-3,5.21-2.33,6.32,2.07,3.62,3.5,5.8,5.65,9.39,3.75,6.25,7,12.79,10.52,19.2.7,1.28,1.36,3.26,2.4,3.52s2.72-1,4.11-1.59c2-.86,30.45-20.54,37.3-25.07,2-1.34,3.15-2.79,1.11-5.79C370.87,842,366.5,834.59,360.38,824.85ZM237,623.31c-5.44-7.63-9.75-16.06-14.57-24.14-.67-1.12-1.52-2.9-2.39-3-1.32-.09-2.89.83-4.08,1.7-1.83,1.34-5.59,3.89-7.46,5.15-6.09,4.08-8.71,5.73-15,9.48-3.28,2-8.39,4.66-11.54,6.77-1.2.81-2,4.18-1.35,5.45,5,9,10.35,17.81,15.68,26.62a9.22,9.22,0,0,0,2.21,1.93,11.93,11.93,0,0,0,1.84-.64C208,648,210.93,646,217.55,641.79c8.64-5.46,12.13-8.66,18.58-12.51C239.39,627.33,239.3,626.57,237,623.31Zm40.32,83.5a5.38,5.38,0,0,0,1.13-5.65,28.82,28.82,0,0,0-2-4.5c-6.62-11-13.28-22.09-20.11-33-2.78-4.46-7.22-5.2-11.74-2.32-6.18,3.95-12.49,7.75-18.41,12.07-3.08,2.25-6.7,5.09-3.81,9.89q10.26,17,20.64,34c4.61,7.52,8.42,8.29,16,3.39,4-2.6,8.25-4.95,12-7.87A60.34,60.34,0,0,0,277.28,706.81ZM430.46,958.47a7.61,7.61,0,0,0-3.21.52,49.07,49.07,0,0,0-4.81,3.42c-1.07-1.53-3.21-4.52-4-5.61,1.73-1.34,4.24-2.47,5.87-4,3.68-2.79,4.39-3.34,1.19-6.6s-6.24-.6-8.56.84c-6.69,4.15-13.26,8.53-19.6,13.21-1.33,1-2.73,4.1-2,5.46.26.48,1.82,2,2.69,1.94,3.52-.36,7.22-4.5,12.54-6.5,3.67,4.3,5.32,5.5-2.54,11.16a5.89,5.89,0,0,0-3,2.17,9.79,9.79,0,0,0-.65,1.57,3.18,3.18,0,0,0,3.58,4.1,2.34,2.34,0,0,0,.71-.28q11.79-7.46,23.13-15.59a3.37,3.37,0,0,0,1.1-1.52A3.06,3.06,0,0,0,430.46,958.47ZM297,741.41a7.29,7.29,0,0,0-2.05.46,17.85,17.85,0,0,0-3.47,2.13,2.44,2.44,0,0,1-3.35-.45c-1-1.25-2.18-2.52-1.82-2.86,2.57-2.36,5.76-3.18,6.68-5.81a4.6,4.6,0,0,0,.18-1.79,3.8,3.8,0,0,0-4.05-3.53,4.29,4.29,0,0,0-2,.55c-6.71,4.23-13.23,8.78-19.72,13.35a7.58,7.58,0,0,0-3,3.59c-.94,3.36,1.57,4.57,6.27,3.65,7.26-4.51,7.25-3.94,10.15-.11a38.49,38.49,0,0,0-7.16,5.13,4.09,4.09,0,0,0-.86,1.88,2.87,2.87,0,0,0,2.47,3.49,3.54,3.54,0,0,0,1.53-.09,23.41,23.41,0,0,0,5.59-3.17c5.43-3.58,11-7,16.1-11a4.19,4.19,0,0,0,1.08-2.72A2.37,2.37,0,0,0,297,741.41ZM768.76,940.23a146.06,146.06,0,0,1-13-7.45c-1.22-.77-4.15-.28-4.65.47a3.62,3.62,0,0,0,.14,3.87c1.34,2.25,3.8,3.19,5.86,5a2.08,2.08,0,0,1,.46,2.59c-.48.86-1.05,1.88-1.29,2.41-2.36,5.31-3.81,4.49-7.25,2.33a7,7,0,0,0-3.88-1.32,4.75,4.75,0,0,0-3.33,2c-.36.63.47,2.53,1.3,3.17,4.08,3.16,6.5,5.21,11.86,8.89,6,3.1,9.48,5,14.31,6.55a3.8,3.8,0,0,0,2.38-.29,2.7,2.7,0,0,0,1.58-3.49,5.27,5.27,0,0,0-1.4-2.25c-2-1.63-4.64-2.52-7.23-3.83-1.62-1.2,0-4.77.21-5.32,2.11-4.49,3.76-3.94,10.06-1.16,1,.42,2.66,1.3,3.69,1.25,1.28-.07,2.84-.87,3.06-1.51.44-1.31.42-3.54-.42-4.37C777.33,943.83,773.84,943.38,768.76,940.23Zm400-315.91c-.7,1.6,0,3.67,0,6.24,0,1.55-3.65,2.86-5.23,2-.64-.34-1.9-2.14-2.78-3.25-.62-.8-.49-2.27-1.19-2.92a12.66,12.66,0,0,0-2.22-1.6,2.27,2.27,0,0,0-3.19.88,3.85,3.85,0,0,0-.73,2.71c2.57,7.69,5.47,15.28,8.64,22.75.45,1.07,3,1.85,4.44,1.68.76-.1,1.81-2.57,1.72-3.9-.12-1.65-1.29-3.23-2-4.85-1.4-2.79,5.72-3.71,7.5-.41,1.1,2.05,2.49,5.47,4.66,6.63a5.43,5.43,0,0,0,4.43-.28c.59-.3.61-2.59.21-3.73-2.15-6-3.62-10.22-6.71-18-1.06-1.45-2-3-3-4.51S1169.46,622.71,1168.76,624.32Zm-80.43-146.63c4.52,2.07,9.13,3.93,14.48,6.12a5.24,5.24,0,0,0,5.33-.82c2.51-2.08,5-4.13,7.3-6.36.75-.73,1.11-3,.57-3.65a4.92,4.92,0,0,0-3.81-1.16c-4.5.48-8.57.65-10.12-5-.21-.78-2.06-1.76-3-1.6-5.5,1-9.39,4.31-11.77,9.25C1087,475.27,1087.62,477.36,1088.33,477.69Zm-243.9-93.36c1.5.57,6.67-1.62,8.19-1.1,1.86.63.06,4,1.91,4.57,5.37,1.75,14.18-1.22,16.62-5.84a4.52,4.52,0,0,0-.19-4c-.64-.89-7-1.17-8.26-1-3.63.54-6.07-.1-6.85-3.83-.38-1.84-3.13-2-4.82-1.24-2.46,1.16-5.63,4-7.89,6.48C841.09,380.68,841.09,383.06,844.43,384.33ZM979.87,893.62c.7-1.41-3-5-4.78-7.66-.69-1-1.35-2.11-2.13-3.08Q958.84,865.44,944.72,848c-7.59-9.39-15.06-18.87-22.81-28.12-1.11-1.33-4.36-2.72-5.19-2.11a82.08,82.08,0,0,0-10,9.18,12,12,0,0,0,1.8,2.49c2.57,3,5.27,6,7.75,9.09Q935,862,953.55,885.5a34.22,34.22,0,0,1,2.6,4.63c-1.63,5.83,10,14.46,14.79,12.5a1.27,1.27,0,0,0,.47-.26C974.37,899.53,978.14,897.08,979.87,893.62Zm16.47,18.1c-2.31-3-4.89-2.68-7.63-1a73.5,73.5,0,0,0-6.62,5.06c-5.44,4.74-12.71,8.72-6.24,15.82-1.86,7.86,2,11.27,9.31,12.23.9.12,1.78,1.25,2.44,2.1,2.39,3.08,5.25,2.36,7.68.54,4.62-3.46,9-7.24,13.39-11a24.57,24.57,0,0,0,2.87-3.54,15.29,15.29,0,0,0-1.31-2.94C1005.62,923.23,1000.91,917.54,996.34,911.72Zm-271.21,122c-9.16-1.69-18.28-3.54-27.41-5.39-5.76-1.16-11.51-2.39-18.2-3.79a4.57,4.57,0,0,0-5.43,3.46,2.21,2.21,0,0,0-.05.25c-.39,2-.58,6.68-.94,8.74-1.81,10.24-3.36,18-5.12,28.23-.52,3-.18,6.18,3.54,6.93,8.27,1.66,16.77,2.39,24.83,4.72,6.44,1.86,8.66,2,16.73,3.78,1.62,1.63,7.56-.44,7.81-4a144.35,144.35,0,0,1,2.2-15.51c1.67-9,2.63-14.18,4.86-23C728.68,1035.25,728,1034.25,725.13,1033.73Zm303.81-219.46a3.84,3.84,0,0,1,.22,4.21c-2.5,4.32-3.14,10-.71,13q12,14.73,24.51,29c2.81,3.19,9.38,3.21,12.56.63,10.38-8.4,20.63-17,31.14-25.19,5.61-4.39,6.51-11.33,1.85-16.74-5.3-6.15-10.16-12.69-15.62-18.68-3.29-3.61-6.89-8-11.2-9.35-5.56-1.78-5.69,3.06-14.89-7.7-1.58-1.84-5.22-.6-7.3.48-2.87,1.48-3,4.24-.48,6.81a21.51,21.51,0,0,1,3.92,5.13,4.46,4.46,0,0,1-.51,3.69,14.27,14.27,0,0,1-3.55,3.37c-2.71,2.08-5.44,5.47-8.29,5.59-2.29.1-5-3.61-7.09-6-3.1-3.41-5.91-1.89-8.54.25-3.12,2.53-1.88,4.9.55,7.33A36.57,36.57,0,0,1,1028.94,814.27Z"/></g><g id="Thrusters"><path d="M202.58,617.19c-7.12,4.11-9,10.66-6.5,15s9.68,2.69,16.8-1.42,9.65-8.81,7.13-13.16S209.7,613.08,202.58,617.19ZM341,841.48c-8.16,4.71-12.9,10.41-10.53,15.43,1.73,3.66,11.64,4.89,19.79.18S363.67,844,360,839.86C357.51,837,349.16,836.77,341,841.48ZM982.74,416.16c-7.58-.28-13.83,2.37-14,5.92s5.91,6.66,13.49,6.94,13.83-2.36,14-5.91S990.32,416.45,982.74,416.16ZM699.36,1039.91c-6.08-.19-16.33,4.21-18.89,12.28-1.49,4.71,4.22,14.43,13.54,15.71s16.31-3.27,18.52-11.09C715.21,1047.35,708.78,1040.2,699.36,1039.91Z" fill="#007aff"/></g></g></svg>