<svg xmlns="http://www.w3.org/2000/svg" viewBox="0 0 1500 1500"><title>Asp Scout</title><g id="Asp_Scout" data-name="Asp Scout"><g id="Colour"><path d="M1292,878.2c-9.53-27.36-19-54.72-28.32-82.17-6.17-18.3-11.69-36.8-17.87-55.09-9.28-27.44-19-54.74-28.3-82.18-5.44-16-10.28-32.27-15.61-48.34-4.44-13.37-9.27-26.61-13.8-39.95-6-17.77-11.91-35.6-18-53.36a7,7,0,0,0-3.19-3.52c-4.26-2.16-9.53-3.05-12.86-6.12-5.37-5-9.51-11.26-14.18-17-9.69-11.89-19.23-23.9-29.14-35.6-4.18-4.92-8.4-10.73-13.93-13.4-11.63-5.64-24.08-9.65-36.31-14-23.08-8.22-46.27-16.15-69.38-24.3Q944,386.58,897,369.83c-25.06-8.88-50.67-16.24-74.94-27.36-4.83-2.22-11-3.93-15.95-3-10.28,2-20.37,5.44-30.17,9.25-5.28,2.05-14.21,0-14.18,10,0,.49-1.34,1.33-2.13,1.42-8.21,1-16.35,6.18-24.7.49a51,51,0,0,0-5.48-3.34c-3-1.54-6-4-9.05-4.14-7.44-.31-15.11-.38-22.34,1.13-8.19,1.7-16.94,3.81-23.68,8.36-6,4-9.52,11.64-14.93,18.7-3.58.78-9,2-14.43,3.14-9.27,2-18.47,4.65-27.85,5.66-12.75,1.39-14.08,2.12-14.75,15.07,0,.35-.21.68-.16.53-6.26,1.83-12.12,4.17-18.21,5.12-4.22.66-8.91,2.47-13.16-1.54-2.44-2.31-5.14-1.4-8.72.76s-10.82,6.82-13.35,10.21C546,424.13,533,442,530.77,445.23c-7.79,11.35-18.65,14-31.41,12.26a15.38,15.38,0,0,0-4.93,0,8.8,8.8,0,0,0-4.24,1.8c-7,6.47-13.94,13.09-20.88,19.65s-13.73,13.08-20.71,19.49c-1.08,1-3,2-4.2,1.76-10.1-2.35-17.54,4-23.77,9.33-13.42,11.5-27,23.19-37.25,37.9a8.77,8.77,0,0,0-.89,3.55c-1.36,8.76-4.23,16.7-11.77,22.19a47.25,47.25,0,0,0-5.09,4c-13.53,13.09-27,26.26-40.53,39.34-2.86,2.77-6.12,5.14-8.91,8-2.38,2.4-4.35,5.2-6.77,8.14-1.21-1.56-2.82-3.69-4.51-5.76s-3.9-3.4-6.5-1.17c-8.23,7.09-16.35,14.31-24.68,21.28-10,8.35-19.93,16.69-30.2,24.64-6.52,5-7.8,9.7-4.34,17.1Q250.07,712,260.38,735.6c5.55,12.76,10.55,25.76,16,38.58C281.54,786.5,287,798.7,292.26,811q12.93,30.38,25.67,60.84c6.86,16.31,13.54,32.7,20.59,48.92,4.48,10.31,9.08,20.62,14.44,30.48,2.71,5,6.79,9.13,13.78,9.12,5.88,0,11.76,1.46,17.62,2.37,13.14,2,26.26,4.14,39.39,6.21s26.26,4.13,39.37,6.24c9.58,1.54,19.13,3.22,28.71,4.75,9.21,1.48,18.54,2.41,27.65,4.4,7.13,1.55,13.9,4.72,21,6.5,8.85,2.21,17.87,3.75,26.82,5.54q22.43,4.47,44.84,8.88c13.53,2.68,27.07,5.26,40.57,8.06,9.27,1.92,18.46,4.3,27.74,6.19,16.3,3.32,32.66,6.36,49,9.67,8.72,1.76,17.33,4,26.07,5.72,12.86,2.45,25.85,4.28,38.68,6.9,12.23,2.49,24.27,5.93,36.5,8.44,12.65,2.59,25.47,4.38,38.14,6.84,17.93,3.49,35.8,7.29,53.69,10.94,18.09,3.69,36.18,7.31,54.26,11.07,22.26,4.64,44.43,9.78,66.8,13.83,6.37,1.15,13.81,2.45,19.63-3.25,3.63-3.55,7.59-6.77,11.29-10.26,13.92-13.14,27.72-26.42,41.75-39.45,5.48-5.08,11.46-9.62,17.13-14.34,3.63,3,6.17,6.45,9.53,7.7,8.13,3,13.43,12.39,24.89,8.65,9.4-3.06,20-2,30-3.89,7.71-1.44,16.11.8,22.89-6.58,9.44-10.3,20.43-19.16,30.61-28.79,3.9-3.7,6.64-8.12,5.78-13.94-.78-5.31-.67-10.9-2.35-15.9a252,252,0,0,0-10.88-26.5c-2-4.23-5.28-7.86-8.36-12.31,3.54-2.36,6.7-4.06,9.39-6.32,14.55-12.2,28.92-24.61,43.5-36.77C1292.6,887.39,1293.84,883.51,1292,878.2Z" fill="#2b3f4d"/><path d="M1292,878.2c-9.53-27.36-19-54.72-28.32-82.17-6.17-18.3-11.69-36.8-17.87-55.09-9.28-27.44-19-54.74-28.3-82.18-5.44-16-10.28-32.27-15.61-48.34-4.44-13.37-9.27-26.61-13.8-39.95-6-17.77-11.91-35.6-18-53.36a7,7,0,0,0-3.19-3.52c-4.26-2.16-9.53-3.05-12.86-6.12-5.37-5-9.51-11.26-14.18-17-9.69-11.89-19.23-23.9-29.14-35.6-4.18-4.92-8.4-10.73-13.93-13.4-11.63-5.64-24.08-9.65-36.31-14-23.08-8.22-46.27-16.15-69.38-24.3Q944,386.58,897,369.83c-25.06-8.88-50.67-16.24-74.94-27.36-4.83-2.22-11-3.93-15.95-3-10.28,2-20.37,5.44-30.17,9.25-5.28,2.05-14.21,0-14.18,10,0,.49-1.34,1.33-2.13,1.42-8.21,1-16.35,6.18-24.7.49a51,51,0,0,0-5.48-3.34c-3-1.54-6-4-9.05-4.14-7.44-.31-15.11-.38-22.34,1.13-8.19,1.7-16.94,3.81-23.68,8.36-6,4-9.52,11.64-14.93,18.7-3.58.78-9,2-14.43,3.14-9.27,2-18.47,4.65-27.85,5.66-12.75,1.39-14.08,2.12-14.75,15.07,0,.35-.21.68-.16.53-6.26,1.83-12.12,4.17-18.21,5.12-4.22.66-8.91,2.47-13.16-1.54-2.44-2.31-5.14-1.4-8.72.76s-10.82,6.82-13.35,10.21C546,424.13,533,442,530.77,445.23c-7.79,11.35-18.65,14-31.41,12.26a15.38,15.38,0,0,0-4.93,0,8.8,8.8,0,0,0-4.24,1.8c-7,6.47-13.94,13.09-20.88,19.65s-13.73,13.08-20.71,19.49c-1.08,1-3,2-4.2,1.76-10.1-2.35-17.54,4-23.77,9.33-13.42,11.5-27,23.19-37.25,37.9a8.77,8.77,0,0,0-.89,3.55c-1.36,8.76-4.23,16.7-11.77,22.19a47.25,47.25,0,0,0-5.09,4c-13.53,13.09-27,26.26-40.53,39.34-2.86,2.77-6.12,5.14-8.91,8-2.38,2.4-4.35,5.2-6.77,8.14-1.21-1.56-2.82-3.69-4.51-5.76s-3.9-3.4-6.5-1.17c-8.23,7.09-16.35,14.31-24.68,21.28-10,8.35-19.93,16.69-30.2,24.64-6.52,5-7.8,9.7-4.34,17.1Q250.07,712,260.38,735.6c5.55,12.76,10.55,25.76,16,38.58C281.54,786.5,287,798.7,292.26,811q12.93,30.38,25.67,60.84c6.86,16.31,13.54,32.7,20.59,48.92,4.48,10.31,9.08,20.62,14.44,30.48,2.71,5,6.79,9.13,13.78,9.12,5.88,0,11.76,1.46,17.62,2.37,13.14,2,26.26,4.14,39.39,6.21s26.26,4.13,39.37,6.24c9.58,1.54,19.13,3.22,28.71,4.75,9.21,1.48,18.54,2.41,27.65,4.4,7.13,1.55,13.9,4.72,21,6.5,8.85,2.21,17.87,3.75,26.82,5.54q22.43,4.47,44.84,8.88c13.53,2.68,27.07,5.26,40.57,8.06,9.27,1.92,18.46,4.3,27.74,6.19,16.3,3.32,32.66,6.36,49,9.67,8.72,1.76,17.33,4,26.07,5.72,12.86,2.45,25.85,4.28,38.68,6.9,12.23,2.49,24.27,5.93,36.5,8.44,12.65,2.59,25.47,4.38,38.14,6.84,17.93,3.49,35.8,7.29,53.69,10.94,18.09,3.69,36.18,7.31,54.26,11.07,22.26,4.64,44.43,9.78,66.8,13.83,6.37,1.15,13.81,2.45,19.63-3.25,3.63-3.55,7.59-6.77,11.29-10.26,13.92-13.14,27.72-26.42,41.75-39.45,5.48-5.08,11.46-9.62,17.13-14.34,3.63,3,6.17,6.45,9.53,7.7,8.13,3,13.43,12.39,24.89,8.65,9.4-3.06,20-2,30-3.89,7.71-1.44,16.11.8,22.89-6.58,9.44-10.3,20.43-19.16,30.61-28.79,3.9-3.7,6.64-8.12,5.78-13.94-.78-5.31-.67-10.9-2.35-15.9a252,252,0,0,0-10.88-26.5c-2-4.23-5.28-7.86-8.36-12.31,3.54-2.36,6.7-4.06,9.39-6.32,14.55-12.2,28.92-24.61,43.5-36.77C1292.6,887.39,1293.84,883.51,1292,878.2Z" fill="none" stroke="#000" stroke-linecap="round" stroke-linejoin="round" stroke-width="8"/></g><g id="Paint"><path d="M1057.43,691.37v-8.46l-74.89-76.48-42.6-103.89-44.58-22.83L858.08,493.2l55,33.95,30.76,81.17,68.66,68.84v11.5l104.74,136.17,23.28,16.94,23-17.89Zm-130,57.29-21.07.26-64.21-68.18L670.76,691.37l-56.48-39-39.4,33.05L624.42,725l207.06-11.1,60.93,65.76,23.56.76,117.2,150.76,12.69-15.55,19-9.76-25.26-23.3Z" fill="#efefef"/></g><g id="Grey"><path d="M578.49,614.8c-5.51-.64-15.16.42-19.31,3.46s-21.85,17.18-25.4,23.18-6.67,21.12-6,24.67,26.7,20.89,28.7,20.67,52-48,51.34-51S581.78,615.19,578.49,614.8Zm264-167.8c-4-.44-17.77,3.56-24.44,5.78s-5.56,12-3.11,17.11,26.67,13.33,33.48,14,34.74-10.22,34.11-12.89S845.13,447.3,842.44,447Z" fill="#777"/></g><g id="Canopy"><path d="M1252.84,983l-5.5-16-15.11-35.88-33.51-22.24-56-53.26-33.33,24.86-12.9,24.93L1145,968.94l9.08,35.74-21.86,14.81,28.1,20.68,53.35-5.87s20.16-21.08,32-29.93A19,19,0,0,0,1252.84,983Z" fill="#82b3d1"/></g><g id="Shadows" opacity="0.2"><path d="M1061.52,1087.38l35.86-35.34-37.23,35.17Zm153.4-79-3.64-15.85L1102,883.32l-74.8-41.55-2.72,47.61,88.37,115-3.4,35.8-12,11.87,32-30.21,31.27,24,50.65-7.33,6.55-13.54ZM790.83,933.46l-9.71-2.32-250,47.11,10.07,7.47,494.94,101.66,19.18,4.4,4.83-4.57-15.39-1.82ZM477.16,591.27c8.8-8.68,9.78-12.83,5.4-16.36s-70.91-55.62-70.91-55.62l-25.8,21.23L375,565.06l-31.69,33.85s51.9,44.27,63.47,53.48,14.67,6.23,19.56,5.12,56.24-20.08,56.24-20.08-1.3-2.57-7.36-8.93-9.28-8.5-9.29-18.15S468.36,600,477.16,591.27Zm78.71,82.46c4.89-1.51,3.91-8.75,0-16.22S539.74,644,533.35,641l-5.61,24,15.67,11.89S551,675.24,555.87,673.73Zm17.32-26.16c3.88-1.2,3.11-6.94,0-12.87s-12.8-10.75-17.86-13.13l-4.46,19L563.31,650S569.31,648.77,573.19,647.57ZM853.25,628.5l39.93,5.79-10.7-16-19.6-15L582.76,433.57l-6.94,14.32,6.94,9ZM819.18,472.15s22.2,3.14,16.82-2.49-20.22-12.76-20.22-12.76L765.2,423l-36.78-15.41-6.82-9.77-51.82-25.18-19,25.18,93.73,51.95Zm33.44-6.86c-3.43-5.61-15.78-15.54-15.78-15.54l-7.19,3.54,15.08,12.43S856.05,470.89,852.62,465.29Z" fill="#111"/></g><g id="Outline"><path d="M1292,878.2c-9.53-27.36-19-54.72-28.32-82.17-6.17-18.3-11.69-36.8-17.87-55.09-9.28-27.44-19-54.74-28.3-82.18-5.44-16-10.28-32.27-15.61-48.34-4.44-13.37-9.27-26.61-13.8-39.95-6-17.77-11.91-35.6-18-53.36a7,7,0,0,0-3.19-3.52c-4.26-2.16-9.53-3.05-12.86-6.12-5.37-5-9.51-11.26-14.18-17-9.69-11.89-19.23-23.9-29.14-35.6-4.18-4.92-8.4-10.73-13.93-13.4-11.63-5.64-24.08-9.65-36.31-14-23.08-8.22-46.27-16.15-69.38-24.3Q944,386.58,897,369.83c-25.06-8.88-50.67-16.24-74.94-27.36-4.83-2.22-11-3.93-15.95-3-10.28,2-20.37,5.44-30.17,9.25-5.28,2.05-14.21,0-14.18,10,0,.49-1.34,1.33-2.13,1.42-8.21,1-16.35,6.18-24.7.49a51,51,0,0,0-5.48-3.34c-3-1.54-6-4-9.05-4.14-7.44-.31-15.11-.38-22.34,1.13-8.19,1.7-16.94,3.81-23.68,8.36-6,4-9.52,11.64-14.93,18.7-3.58.78-9,2-14.43,3.14-9.27,2-18.47,4.65-27.85,5.66-12.75,1.39-14.08,2.12-14.75,15.07,0,.35-.21.68-.16.53-6.26,1.83-12.12,4.17-18.21,5.12-4.22.66-8.91,2.47-13.16-1.54-2.44-2.31-5.72-2.15-8.72.76-2.08,2-10.82,6.86-13.35,10.21C546,424.12,533,442,530.77,445.23c-7.79,11.35-18.65,14-31.41,12.26a15.38,15.38,0,0,0-4.93,0,8.8,8.8,0,0,0-4.24,1.8c-7,6.47-13.94,13.09-20.88,19.65s-13.73,13.08-20.71,19.49c-1.08,1-3,2-4.2,1.76-10.1-2.35-17.54,4-23.77,9.33-13.42,11.5-27,23.19-37.25,37.9a8.77,8.77,0,0,0-.89,3.55c-1.36,8.76-4.23,16.7-11.78,22.19a48.13,48.13,0,0,0-5.08,4c-13.53,13.09-27,26.26-40.53,39.34-2.86,2.77-6.12,5.14-8.91,8-2.38,2.4-4.35,5.2-6.77,8.14-1.21-1.56-2.82-3.69-4.51-5.76s-3.9-3.4-6.5-1.17c-8.23,7.09-16.35,14.31-24.68,21.28-10,8.35-19.93,16.69-30.2,24.64-6.52,5-7.8,9.7-4.34,17.1Q250.07,712,260.38,735.6c5.55,12.76,10.55,25.76,16,38.58C281.54,786.5,287,798.7,292.26,811q12.93,30.38,25.67,60.84c6.86,16.31,13.54,32.7,20.59,48.92,4.48,10.31,9.08,20.62,14.44,30.48,2.71,5,6.79,9.13,13.78,9.12,5.88,0,11.76,1.46,17.62,2.37,13.14,2,26.26,4.14,39.39,6.21s26.26,4.13,39.37,6.24c9.58,1.54,19.13,3.22,28.71,4.75,9.21,1.48,18.54,2.41,27.65,4.4,7.13,1.55,13.9,4.72,21,6.5,8.85,2.21,17.87,3.75,26.82,5.54q22.43,4.47,44.84,8.88c13.53,2.68,27.07,5.26,40.57,8.06,9.27,1.92,18.46,4.3,27.74,6.19,16.3,3.32,32.66,6.36,49,9.67,8.72,1.76,17.33,4,26.07,5.72,12.86,2.45,25.85,4.28,38.68,6.9,12.23,2.49,24.27,5.93,36.5,8.44,12.65,2.59,25.47,4.38,38.14,6.84,17.93,3.49,35.8,7.29,53.69,10.94,18.09,3.69,36.19,7.31,54.26,11.07,22.26,4.64,44.43,9.78,66.8,13.83,6.37,1.15,13.81,2.45,19.63-3.25,3.63-3.55,7.59-6.77,11.29-10.26,13.92-13.14,27.72-26.42,41.75-39.45,5.48-5.08,11.46-9.62,17.13-14.34,3.63,3,6.17,6.45,9.53,7.7,8.13,3,13.43,12.39,24.89,8.65,9.4-3.06,20-2,30-3.89,7.71-1.44,16.11.8,22.89-6.58,9.44-10.3,20.43-19.16,30.61-28.79,3.9-3.7,6.64-8.12,5.78-13.94-.78-5.31-.67-10.9-2.35-15.9a252,252,0,0,0-10.88-26.5c-2-4.23-5.28-7.86-8.36-12.31,3.54-2.36,6.7-4.06,9.39-6.32,14.55-12.2,28.92-24.61,43.5-36.77C1292.6,887.39,1293.84,883.51,1292,878.2ZM1163.3,519c1.19.57,1.32,3.54,1.76,5.44,6.71,28.89,13.4,57.79,20.25,87.35l-22.51-1.29c-6.85-33-13.65-65.76-20.84-100.4C1150.11,513.41,1156.85,515.9,1163.3,519Zm10.39,306c2.52,9.19,8.63,15.57,14,22.66,11.59,15.36,23.35,30.6,35,45.88-5.5,4.77-10.74,9.59-16.26,14.36a113.32,113.32,0,0,1-14.5-14.78c3.87-3.13,9.94-8.62,12.37-11.16,1.24-1.28,1-5.54-.25-7.39-3.94-6-8.51-11.6-13-17.19-9.09-11.22-28.09-34.6-28.3-34.8-3.5-3.27-7.63-2-11.89.48-5.79,3.45-11.4,6.07-13.51,11.76a1.4,1.4,0,0,1-2.23.58c-5.12-4.44-13.71-9.15-14.94-16.41-.57-3.33-4-6.26-6.4-9.17-7.54-9.24-15.24-18.34-22.78-27.58-8.89-10.88-17.68-21.86-26.53-32.78-9.2-11.35-18.37-22.71-27.62-34-9-11-18-22.16-27.38-32.89-3.4-3.89-8.3-6.43-11.94-10.14-4.58-4.66-8.42-10-12.88-14.82a53.64,53.64,0,0,0-9.14-8c-12.78-8.63-25.93-16.74-38.53-25.63-4.37-3.07-6.42-6.61-11.2-11.74,7.43.6,12.37.11,18.45.31,7.69.24,15.4,0,23.1.07q34.53.48,69.06,1.12c8,.16,79.51,2.6,96,2.76a4.7,4.7,0,0,1,3.4,2.55c4.66,12.86,9,25.3,13.37,38.26a5.72,5.72,0,0,1-.46,4.61c-3.16,4-6.72,7.62-10.12,11.39-1.76,2-3.16,3.8-4.27,5.28a6.08,6.08,0,0,0-.38,6.68c1.25,2.15,3.4,6,5.48,9a1.73,1.73,0,0,1-1,2.65c-19.75,5.14-31.37,7.51-47.68,12.1-2.24.63-6.22,1.26-8.44,1.83-3.94,1-4.06,2.35-2.62,5.75,4,9.39,7.62,18.92,11.38,28.4a6.14,6.14,0,0,1,.43,3.69c-7.11-8.56-14.35-17-21.29-25.72-4.53-5.68-6.83-6.11-12.7-1.38-3,2.44-2.07,6.09,1.82,10.74,10.66,12.72,21.08,25.65,31.59,38.5,4.22,5.16,8.22,10.54,12.83,15.34,1.22,1.27,5.15,1.84,6.41.87,8.25-6.32,18.46-6.45,27.74-9.33,10.74-3.32,21.72-5.84,33.53-8.95,2.94,7,6,14.09,8.56,20.21,5,15.5-1.65,17.22-1.85,17.35C1170.68,811.17,1171.58,817.34,1173.69,825Zm26,11.67c2-1.51,4.31,2.41,3.55,3.22l-8.84,7C1190.35,842.72,1191.59,842.85,1199.72,836.66Zm6.89,21.76c1.06-1.63,4.06-3.86,7.66-6.68a3.64,3.64,0,0,1,.49,5.9,36.19,36.19,0,0,1-5.64,4.19C1207,861.48,1206.2,859.06,1206.61,858.42Zm20.8,9.25c.47-.35,1.61,1.08,1.92,1.36.9.77,1.3,2.28.76,2.77-2.48,2.23-9.16,8.33-10,6.67C1216.87,873.87,1224.39,869.87,1227.41,867.67ZM1169,1000.36c-.69-.52-1.91-.93-2-1.54-1.94-10.52-7.66-16.05-15.35-25.07-1.39-1.62-3.06-3.57-5.38-6.73,3.52.4,6.51-.18,7.8,1,8.84,8.34,17.88,16.6,25.71,25.85,4.36,5.14,8.24,11.59,6.55,19.59Zm10.81,17.17c-8.36,2.08-10.7,3.21-13-.3a61.27,61.27,0,0,0-7.34-9.6c-1.92-2.48.93-3.67,2.57-2.48C1167.45,1009.17,1174.16,1013.36,1179.82,1017.53ZM955.66,727c-4.41-7.1-7.31-12.32-17.21-17.89,3.11-2.83,4.34-4.23.22-7.37-3.62-2.76-6.84-3.05-10.11.16-5.25,5.14-5.14,5.61,1.43,10.06a82.11,82.11,0,0,1,8.8,6.24c4.52,4,8.94,8.23,11.4,14.19l-6.63,4.9c-8.14-10.93-16.11-14.14-27.25-20.67-2.63-1.55-10.91.41-12,3.1-1.57,3.82,1.46,5.52,4,7.27,2.81,1.93,5.61,3.89,8.49,5.72s4.44,3.26,5.12,7.62c.3,1.91-1.35.59-1.35.59-11.17-7.49-17.71-12.65-18.63-13.53-10.53-10-10.49-24.18-15.68-36.78C884,685.11,882.63,679.25,880,674c-2.19-4.27-.4-6.36,2.57-8.53,1.86-1.37,3.74-2.7,5.63-4a3,3,0,0,0,.65-4.21c-1.21-1.61-2.42-3.22-3.55-4.89-7.27-10.77-16.84-18.78-28-25.53-7.37-4.47-8.83-4.17-20.29-3.48a21.31,21.31,0,0,1-11.2-3.47,1.51,1.51,0,0,1-.14-2.59c1.39-1.09,3.57-.12,4.42.19,9.16,3.35,15.53,2.35,23.78-1.46,1.89-.88,5,.7,7.29,1.82,3.5,1.75,6.64,4.24,9.94,6.41.44.3,10.86,7.39,15.73,13.17,2.66,3.16,5.23,2.13,7,1.24,4.12-2.11,5.6-4.27,9.26-7.15,2.46-1.94,2.06-5.39.15-8.41-2.29-3.61-1.66-2.7-3.91-6.33-.91-1.21.19-2.86,1.54-1.41,2.83,3,5.76,5.91,8.49,9,3.34,3.79,6.52,7.72,9.74,11.61,1.93,2.33,3.52,2.17,5.92.19,8-6.57,8.07-6.42,17-.6,11.28,7.32,22.64,14.53,33.85,22,2.18,1.43,3.85,3.64,5.76,5.5-2.4,2-4.9,3.5-6.55,5.65s-1,3.85,1.74,5.59c7.39,4.72,16,7.72,21.05,15.9,2.28,3.7,3.09,5.08-.83,7.83-1.1.77-2.73,1.68-3,1.93-8.48-8.67-18-14.65-28.34-19.49-3.86-1.82-11.21.43-12.1,4.63-.26,1.28.88,3.35,1.52,4.12,1.43,1.73,4.22,3.45,8.41,1.63a7,7,0,0,0,2.94-2.56c8.92,5.48,16.77,10.69,22.94,17.09a3.76,3.76,0,0,1,.92,2c.9,8.55,4.63,4.64,8.29,2,3.47-2.48,7.27-4.53,10.57-7.2.83-.67.85-3.29.27-4.56s-1.36-2.76-2.05-4.14a1.13,1.13,0,0,1,1.88-1.23l87.26,107.31c3.87,4.41,3.87,6.29-.93,1.67-3.93-3.65-5.71-5.48-8.33-8.11-5.47-5.48-6.89-6.15-14.55-.14-10.06,7.89-20.19,15.69-30.22,23.63-7.74,6.13-15.35,12.42-23,18.63-2.34,1.9-3,3.58-.64,6.33,5.71,6.72,11,13.82,16.52,20.68,3.45,4.26,7,8.43,10.65,12.73a1.28,1.28,0,0,1-1.33,2.06c-6.73-2.14-9.89-8.42-14-13.23-9.88-11.48-19.33-23.33-28.8-35.16-1.84-2.3-7.92-10.84-9.4-12.61-6.82-8.17-13.42-16.54-20.33-24.63-7.94-9.3-16.37-18.17-24.11-27.62-7-8.59-13.47-17.67-20-26.61a5.43,5.43,0,0,1-.8-2.09,1.47,1.47,0,0,1,2-1.7,1.18,1.18,0,0,1,.44.35c3.55,4.81,7,9.69,10.86,14.25,1,1.15,4,1.82,5.3,1.16,2.72-1.41,4.81-4,7.32-5.83C960.94,737.45,962.58,738.09,955.66,727Zm-79.92-64-17.66-16,2.94-9.57c10.24,4.28,14.16,13.74,21,21Zm75.81,278.34c7.27,4.75,7.26,5.63,5,13.84-4.43,16.18-8.52,32.45-12.9,49.24q-15.46-9.21-31.06-18.47Q891.83,973.57,871,961.29c-4.63-2.72-9.48-5.11-13.9-8.14a6.15,6.15,0,0,1-1.92-5.19c1.22-6,3.32-11.71,4.51-17.65a16.14,16.14,0,0,0-.52-8.62c-3-7.67-6.63-15.09-9.93-22.42,8.39-4.5,16.66-9.18,25.18-13.35,1.75-.85,4.78-.51,6.59.45,5.6,3,9.87,6.71,11.49,13.84.83,3.64,6.12,6.65,9.91,9.16C918.71,920.16,935.19,930.63,951.55,941.29Zm-40.89-58.92L941.34,828,999.65,867c-9.81,18.31-19.5,36.4-29.49,55Zm-60.23,61.18c-.16.45-.36,1-.53,1.66a2.24,2.24,0,0,1-3.29,1.39c-6.66-3.84-13.65-7.81-20.06-11.55-9.71-5.67-19.76-10.87-29-17.26-6.23-4.31-11.93-4.76-19.25-1.15,3.62-12.7,6.86-24.47,10.4-36.16.85-2.78,12.37-4.75,15.43-3,12,7,24.39,13.59,35.93,21.35,3.67,2.47,5.46,8,7.76,12.3C854.18,923.11,854.83,931.14,850.43,943.55Zm-72-49c-1.82,6.45-7.68,5-11.8,6-10.26,2.48-20.78,3.84-31.17,5.83-16.71,3.19-33.39,6.53-50.08,9.83l-.1,0a1.17,1.17,0,0,1-1.15-1.9c2.83-3.31,5.32-6.27,8-9.06,11.11-11.61,22.4-23.06,33.5-34.68Q745,850.21,764.3,829.67c4.49-4.76,8.89-9.61,13.33-14.43,3.27-3.56,2.75-6.7-1.31-9.66-13-9.55-26-19.17-38.9-28.67L753.6,760.8,806.88,798c-4.2,13.83-8.49,27.6-12.57,41.43Q786.2,866.95,778.39,894.55ZM431.21,627c7.36,5.49,14.84,10.91,21.6,17.09,6,5.46,12.18,4.94,18.95,3,1.85-.52,3.7-1.07,6.52-1.89,13.73-3.22,12.37,1.46,36.92,22.27,38.78,34.38,41,28.69,55.16,15.42,3.92-3.09,8.39-.68-3.17,9.65q-31.26,31.2-62.57,62.37a5.46,5.46,0,0,1-3.73,1.66c-7.88-.7-15.74-1.68-23.61-2.55-2.16-.24-4.38-.87-6.46-.56-5.24.78-8.34-1.43-11-5.8q-23.15-38.13-46.65-76c-6.95-11.26-14-22.48-21.34-33.45-1.91-2.85-1.7-4.27.56-6.38,9.48-8.81,18.86-17.74,28.52-26.85,1.42.88,3.39,1.62,4.58,3a5.27,5.27,0,0,1,.95,4.39C423.86,619.66,424.72,622.12,431.21,627Zm12.65-12c-.73-6.27-.91-9.37,1.31-15.34a42.79,42.79,0,0,1,1.93-4.27c4.32-5.91,7.12-9.62,11.55-15.45a2.31,2.31,0,0,1,1.81-.88c10.33,2.44,13.3-7.38,19.26-12,1.45-1.12.47-5.39.59-7.9,4.34-3.19,8.37-7.38,13.29-9.47,6.6-2.79,13.58-1.49,19.11,3.45,7.19,6.41,14.25,13,20.95,19.89,3.13,3.22,2.8,7.19-1.55,11.46-2.43-2.79-5-5.36-7.13-8.27-5.59-7.69-13.63-8.33-21.88-1.55-.68.57-12.69,13-24.75,24.66-2.9,4.16-7.25,7-5.61,13.56.54,2.14,1.26,4.52,2.67,6.09,3.36,3.75,8.33,8.56,12.62,12.78a1.37,1.37,0,0,1-.81,2.33,46.31,46.31,0,0,0-9.46,1.63c-5,1.69-6.47,2.07-10.47,3.33a4.07,4.07,0,0,1-3-.17c-9.22-4.38-16.39-11.63-24.44-17.69a2.14,2.14,0,0,1,1.25-3.85C444.43,617.25,444,615.8,443.86,615Zm237.53-10.3c-13.88-8.87-27.51-18.14-41.24-27.27l-15.73-10.5,10.7-8.2,146,96.14c-2.27,10.19-4.81,20-15.22,25.89l-84.26-56.46c1.1-3.47,2.09-7,3.38-10.46C686.63,609.55,685.21,607.12,681.39,604.68Zm-72.9-48.31c-10.06-6.58-20-13.36-30-20.07a8.16,8.16,0,0,1,1.06-1.43c2.6-2.24,5-5.73,7.92-6.25,2.28-.4,5.23,2.87,7.87,4.54l32.23,20.37C617.74,563.73,620.86,564.45,608.49,556.37Zm52.36,42.4-45,45c-2.89,2.52-6.95,1.9-4-2.29,3.57-4.75,4.79-5.9,5.29-8.6.83-4.46-.06-5.89-4.22-8.44-5.5-3.35-10.59-7.37-15.82-11.07-46-31.51-51.61-31.51-52-39.89-.74-4.28-13.84-14.32-18.82-18.2,10.45-6.63,20.83-21.11,27.72-27.66Q607.23,563.06,660.85,598.77ZM532.73,652.41c-1.19-1.24,1.66-7.18,3.7-10.27,1.09-1.63,4.36-2.13,6.75-2.53,8.23-1.39,12,6.33,18.12,9.18a13.44,13.44,0,0,0,4.21.89A1.44,1.44,0,0,0,567,647.8a8.38,8.38,0,0,0-1.81-3.57c-3.51-3.35-7.49-6.2-11.28-9.25-.66-.53-2-1.32-1.89-1.56,1.58-4,2.68-8.51,5.27-11.8,1.93-2.46,5.61-4.81,9.44-2.25,3,2,5.78,2.68,9.06.65a3.61,3.61,0,0,1,3.14.45c7.56,5.12,15,10.37,23.1,16-15.89,16.64-32.57,31.31-46.44,47.54-7.54-5.8-15.94-12.28-24.49-18.88C533.73,661.09,537.83,657.79,532.73,652.41Zm-1.58-112c-4.4,4.85-10.74,10.3-13.2,7.87a42,42,0,0,0-6.69-5.65c-6.49-4-10.61-6.16-15.57-10l27.08-25.8c8.66,5.79,18.23,12.48,24.33,16.56C541.83,529.89,536.18,534.85,531.15,540.38ZM393.73,653.08a70.15,70.15,0,0,1,3.86,7.45c2.62,5.51-3.91,5.21-5.08,3.71-4.95-6.32-10.91-8.11-14.93-8.41a4.31,4.31,0,0,0-3.43,2.26c-2.3,7.12-5.74,11.76-12.81,11.67a4.19,4.19,0,0,0-3,2.06c-4.14,7.82-2,13,3.91,21.3,6.44,9,11.35,14.78,17.46,24.06,1.33,2,7.14,9.35,9.24,12.13,1.09,1.45,4.25,2.87,5.58,2.28,3-1.33,4.4-4.29,2.91-7.79-.48-1.14-1.13-2.21-1.82-3.54l9.14-6.21c1.13,1.34,2,3.22,3.22,3.6a11.06,11.06,0,0,0,6.75.11c.92-.37,1.52-3.89.86-5.36-1.3-2.89-1.15-5.18-.35-8.24.75-2.89-1.9-6.39-3.08-9.27a46.09,46.09,0,0,0-6.6-10.91c-1.2-1.53-.84-2.61.16-3.49a3.6,3.6,0,0,1,5.42.82Q429.57,710.74,447.9,740c.46.16,3.62,5.31,5.67,8.41a9.76,9.76,0,0,1,1.68,5.89c0,.85-.18,1.55-.61,1.83-14.7,9.88-29.6,19.47-44.88,29.4-.86-1.73-7.08-11.9-7.9-13.56l-21-35.15q-12.3-20.55-24.59-41.1c-3.22-5.39-6.58-10.72-9.41-16.31-.54-1.08.67-3.74,1.83-4.88,12-11.78,24.1-23.39,36.18-35C387.85,644.06,391,648.48,393.73,653.08Zm65.43,107.64c5.4-3.74,10.53-.38,15.73-.48,6.8-.13,13.61,1.52,20.44,1.8,4.45.19,7.35.93,9.94,5.39,6.56,11.31,14.32,21.91,21.19,33,4.28,6.91,14.65,22.88,15.46,24.21,3.54,5.76,3.85,9.28,2.21,14.47-3.19,10-7.22,19.92-9.27,30.19-1.54,7.69-6.64,11-12.1,14.7-7.71,5.22-15.41,10.47-23.17,15.61-5,3.34-10.18,6.52-15.69,10L413.53,791.29C428.8,781.1,444.13,771.12,459.16,760.72Zm71.48,125.46c2.75-1.87,4.19-1.51,5.87,1.28,10.37,17.16,20.86,34.24,31.66,51.91-2.71.7-5.32,1.49-8,2-15.94,3.32-31.87,6.71-47.87,9.68-1.6.3-4.41-1.55-5.43-3.18-6.7-10.72-13.06-21.65-19.58-32.58C501.8,905.6,516.28,896,530.64,886.18ZM541,883.51a11.68,11.68,0,0,1-1.19-10.67c4.51-13.17,8.73-26.43,12.79-39.74a7.67,7.67,0,0,0-1.09-5.56c-10.94-17.07-22.08-34-33.07-51-2.72-4.22-4.7-9-7.78-12.87-2.44-3.1-1.43-4.66.83-6.8,9.2-8.72,18.41-17.43,27.42-26.33C552.56,717.07,566,703.43,579.58,690c4.48-4.44,9.19-8.65,14-13.14,8,8.24,17.83,9.55,29.36,7.51,12.36-2.19,23.87.13,34.43,8.66,13.25,10.68,27.81,19.72,41.76,29.54,14.68,10.33,29.29,20.75,43.95,31.1,1.32.93,2.81,1.59,4.71,2.65q-7.87,8.44-15.56,16.72c-14.92-10.62-29.56-21-44.09-31.43-6.13-4.42-7.53-4.37-12.58.87Q643.3,775.86,611,809.22c-8.49,8.8-16.89,17.68-25.4,26.46-3.23,3.33-3.8,6.23.26,9.42,11.34,8.92,22.55,18,33.84,27,3.37,2.68,6.82,5.26,9.72,7.5l-54.57,56.76c-2-2.79-4.15-5.38-5.91-8.18Q554.88,905.89,541,883.51Zm45.19,49.83q22.18-22.89,44.31-45.84a29,29,0,0,0,3.52-4.18c13.1,10.27,25.61,20.1,39.25,30.79a2.86,2.86,0,0,1-1.21,5l-84.5,16.7A1.5,1.5,0,0,1,586.21,933.34Zm88-26.62-84.19-66.33,92.52-95.28,90.34,65.71-90,95.26A6.4,6.4,0,0,1,674.25,906.72ZM796.88,779.51c-9.82-6.73-19.69-13.39-29.44-20.21-14.26-10-28.43-20.09-42.66-30.1-24.22-17-39.57-27.85-63.93-44.67-11.69-8.07-21.49-7.72-22.72-7.71-7.33,0-13.63,1.4-20.93,1.83s-14-.44-19.15-7.17l19.22-19.26q21.76-21.78,43.52-43.56a21.8,21.8,0,0,0,2.26-3c1.84-2.66,4-3.25,6.72-1.2s5.89,4.1,9.07,6.29c-.91,3.56-1.35,7.52-2.92,11-2,4.45-.13,6.49,3.29,8.77q37.37,25,74.6,50.15c3,2,5.88,4.07,9.38,6.5-1.73,5.31-3.9,10.47-4.91,15.85-.34,1.83,1.75,4.86,3.57,6.2,7.37,5.41,15.06,10.38,22.63,15.51l36.63,24.83c-2.84,9.43-5.71,18.92-8.61,28.55C809.25,787.26,809.25,787.26,796.88,779.51Zm-32-75.77c1.34-4.78,2.34-9.14,3.83-13.31a14.77,14.77,0,0,1,3.84-6.3,40.71,40.71,0,0,0,14.27-24.07c.63-3.09,2.94-6.12,5.16-8.57,7.23-8,14.73-15.7,22.24-23.41a30,30,0,0,1,4.52-4.26c10,8,17.56,5.94,25.12,5.86,9.47-.09,10.12,7.7,7.39,16.62-5.55,18.13-9.11,31.34-14.43,49.54q-5.64,19.3-11.41,38.57c-.76,2.56-1.6,5.11-2.6,8.31Zm47.24-115.51c-6.61-4.34-13.41-8.39-19.83-13-3.71-2.66-6.41-2.68-9,1.15-.7,1-1.49,2-2.32,3.13l-152.25-96.8c4.88-5.7,4.69-7.17-1.17-11-5.4-3.54-10.86-7-16.29-10.48-6.26-4-7.82-2.49-12.18,3.81-1.45-.73-18.43-9.53-19.39-16-1.51-7,7.29-16.07,13.76-16.3,4.53-.16,10.76-1.58,21,3.37,4.06,2,47.44,29.88,50.18,31.58,30.75,19.11,61.39,38.39,92.09,57.59q21.66,13.56,43.41,27c1.8,1.12,4,1.76,5.49,3.17,1.08,1,47.69,29.87,60.92,38.19a2.76,2.76,0,0,1,.23,4.51c-8.67,6.67-14.83,14.09-27.69,14.58-6.05,0-12.38-4.36-18.26-7.89l-7.29-4.48C819.58,593.72,819.5,593.11,812.09,588.23ZM987.21,467.3c.92,1.7,9.6,5.66,11.74,6.38,7.77,2.58,7,2.09,14.82,4.46a9.38,9.38,0,0,0,6.9-.42c5.64-2.75,10.71-6.74,12.61-10.57l54.2,21.48c-4.19,7.8-15.68,13-24.82,11.74-7.69-1-15.57-.87-23.15-2.38a154.7,154.7,0,0,1-24.56-7.14c-20.06-7.62-39.87-15.9-59.86-23.71-5.42-2.12-11.26-10.68-14.92-15.71-.37-.5.4-2.71,1.22-3.25,4.92-3.27,9.76-6.92,15.17-9.09,2.51-1,6.39.61,9.4,1.74,11.72,4.37,23.33,9,35.35,13.73-2.27,1.56-5.25,2.68-7.1,4.12C991.94,460.44,986.32,465.65,987.21,467.3Zm148.71,126.08c-6.32,2.51-7.28,2.81-13.43,5.69-5.55,2.59-6.32,5.31-4.48,11.28-3.14,0-7.57-.23-9.36-.3-8.71-.35-14.8-.4-23.51-.8-6.89-.32-13.78-.65-20.65-1.17a11,11,0,0,1-4.45-1.71q-20.61-12.17-41.15-24.45c-1.52-.9-3-1.88-4.73-2.95,1.78-2.43,5.29-1.86,7.82-5.37a1.57,1.57,0,0,1,2-.43c7.14,4.07,10.5,6,16.57,9.46,8.68,5,17.19,10.29,26.09,14.84a14.39,14.39,0,0,0,9.68.68c23.66-8,47.18-16.41,70.74-24.69a16.27,16.27,0,0,1,1.62-.38l2.75,14.54C1146,589.66,1140.89,591.41,1135.92,593.38Zm17.12.1c1,5.69,2,10.94,3,16.57H1126.5c-3,0-4.14-4.29-1.67-5.55Zm-75.92-1.72c-4.35,1.62-7.71.46-11.18-1.56q-37.2-21.63-74.37-43.33c-2.91-1.7-5.74-3.54-9-5.58,17.84-5.62,55.16-17.36,56.15-17.69,12-4,18.74-1.55,27.45,3.35,18.3,10.28,36.64,20.48,54.94,30.76,6.37,3.58,12.67,7.3,19.43,11.2C1119,576.64,1098,584,1077.12,591.76Zm21.91-54c-13.8-7.32-27.33-15.15-41.18-22.36a14.35,14.35,0,0,0-9.78-1.14c-24,7.2-47.8,14.81-71.63,22.45a9.72,9.72,0,0,0-2.94,1.73,3,3,0,0,0-.37,4.3,11.15,11.15,0,0,0,2.63,2.34c13.94,8.23,26.4,15.37,41.14,23.89a.67.67,0,0,1,.09,1.1,14,14,0,0,1-1.52.94c-7,4.38-12.76,1.73-19.15-2.26-14.87-9.29-30.26-17.75-45.39-26.64-16.71-9.81-33.43-19.62-50-29.69-2.06-1.26-3.28-4-4.67-6.25-3.46-5.5-6.79-11.08-10.57-17.28,17.61-4.87,36.51-10.12,55.43-15.31a78,78,0,0,1,9.27-1.41c3,.35,18.48,7.44,23.43,9.39,17.79,7,35.5,14.21,53.43,20.82,4.77,1.76,10.22,1.9,15.4,2.34,10.65.92,21.52.54,31.93,2.59,8.42,1.66,16.3,6.07,24.41,9.31,11.59,4.62,23.17,9.29,35,14-8.72,3.12-17.21,6.56-26,9C1105.43,540.44,1101.7,539.15,1099,537.74ZM929.72,443.05l-17.62-6.54c-4.64-1.92-23.07-9.26-29.43-11.85a.31.31,0,0,1,.09-.59,7.73,7.73,0,0,0,6.67-7.47.81.81,0,0,1,1.07-.75c6,1.94,7-1.56,7.79-8.28,3.58,1.54,26.79,10.65,30.6,12.29,0,0,23.3,9.11,27.32,10.72C936.87,444.7,936.42,445,929.72,443.05Zm-28.08-4.19c9.46,3.75,19.22,7.11,28,12.19,5.29,3.07,8.86,9.09,14.24,14.9L897,479.24a.87.87,0,0,1-1.06-1.13c2.58-7.28,1-10.11-5.6-13.77-16-8.88-31.84-18-47.78-26.9-5.46-3.06-11-5.94-17.12-9.23,2.14-7.28-2-10.59-7.5-13.23a30,30,0,0,1-13.51-11.67,1.41,1.41,0,0,1,1.7-2.09c12.11,4.86,24,9.69,36,14.39C862,423.4,881.85,431,901.64,438.86Zm-53.4,28.25a5.5,5.5,0,0,0-.86-1.67c-3.21-4.15-6.8-8-10.25-12,4.51-4.83,7-5,12.55,0,3.43,3.07,6.19,6.86,9.4,10.18,1.86,1.91,3,3.86,7.09,3.26,3.7-.54,8,2.93,13.27,5.17-10,2.77-18.54,4.56-26.67,7.52-12.36,4.49-20.43-3.94-29.64-8.94-2.18-1.19-4.38-2.12-5.42-5.72-1.66-5.77,2-8.05,5.07-9.91,1.57-1,5.74.88,7.82,2.57,4.36,3.57,7.92,8.11,12.22,11.74a5.34,5.34,0,0,0,2.66,1A2.46,2.46,0,0,0,848.24,467.11Zm-38,9.76c1.5,0,3.31-.67,4.44-.05,6.09,3.29,11.88,7.15,18,10.31a120.86,120.86,0,0,0,12.18,5,.73.73,0,0,1,0,1.39c-7.42,2.15-26.47,7.38-34,9.5-2,.57-4-.79-5.29-1.56-15.23-9.08-30.9-17.57-45.41-27.72-8.84-6.18-18.79-10.11-27.59-16.27s-18.79-11.17-28.23-16.69c-.24-.14-.29-.61-.54-1.17,5.64-1.4,11-2.65,16.32-4.08,3.64-1,8.51-1,11.82.76,10.44,5.5,16.14,8.33,26.12,9.81-.23,7.61,6.18,9.45,10.27,12.17a355.3,355.3,0,0,0,31.92,18.64C802.84,478.26,806.88,477,810.26,476.87Zm7.56,31c8.35-2.42,16.68-4.93,25.07-7.22,9.12-2.48,18.31-4.7,27.45-7.11,4.56-1.2,12.22,1.37,14.72,5.41,1.77,2.87,2.7,6.3,4.67,9,2.87,3.93,5.7,8.45,9.67,10.92,16.25,10.13,33,19.54,49.44,29.29C960,554.69,971,561.48,982.07,568c17.71,10.45,35.35,21,53.34,31,4.32,2.4,3.76,5.52,4.16,9.14-6.43,0-12.89.48-19.23-.19-3.33-.36-6.61-2.46-9.63-4.24-12.31-7.24-24.5-14.68-36.74-22-6.13-3.67-12.07-7.79-18.52-10.77a23,23,0,0,0-12.57-2.11c-10.69,1.72-17.81-5.21-25.69-9.75-21.28-12.27-42.39-24.87-63.1-38.06a40.86,40.86,0,0,0-23.32-6.67c-4.35,0-5.41-.24-13.06-4.91A.86.86,0,0,1,817.82,507.83ZM966.3,584.11c11.24,7.65,23.32,14.06,35,21,.4.24.61.76,1.82,2.33l-26.29-1.34c-1.64-.08-3.28-.17-4.92-.18-14.29,0-28.57.13-42.85-.05-10.74-.14-23.28-1.76-37.85,1.57-4.48,1-7.36-3.33-15-8.14-1.26-.79,1-2.61.28-6.32-.5-2.67-5-4.82,1.29-7,8-2.72,13.08-4.77,21.7-7.47,5.19-1.62,11.8-.82,17.22-.66,2.1.06,6.82.22,8.8-.48C940.37,572.22,953.5,575.41,966.3,584.11ZM929,625.2c-6.86,4.62-6.93,4.68-12.4-1.65-3.61-4.17-7.41-7.88-10.78-12a37.85,37.85,0,0,1,8.62-.11C918.81,611.91,923.38,618.68,929,625.2Zm-49.31-16.6c3.79,2.66,8.19,4.56,11.59,7.62,2.54,2.29,3.92,5.88,5.8,8.86l-7.16,5.31-27-19.6C868.92,603.11,871.4,602.8,879.66,608.6Zm153.83,241a.71.71,0,0,1,.9-1.06l64,36.79-9.55,20.07c-7.77-9.76-15.87-19.85-23.86-30-5.1-6.49-6.78-6.91-12.32-2.3Q1043.08,861.37,1033.49,849.63Zm28,7c-11.18-6.42-22.4-12.78-34.7-19.79,6.12-4.47,12.12-8.66,17.89-13.14,4.2-3.27,8-7,12.15-10.38,6.73-5.43,13.53-10.77,20.47-15.92a4.36,4.36,0,0,1,4.12.12q7.86,6.24,15.32,13c12.42,11.2,24.72,22.52,37.12,33.74,2,1.8,4.21,3.34,5.8,4.58-3.47,5.36-8.87,10.42-14.19,15.4a92,92,0,0,1-21,14.55c-1.1.54-2.88.91-3.8.39C1087.63,871.7,1074.62,864.09,1061.54,856.58Zm82.84,4.9,37.32,35.73L1150.36,924l-37.53-36.67A235.4,235.4,0,0,0,1144.38,861.48Zm1-23.16c1.73-1.28,3.42-2.62,5.08-4,2.82-2.36,8.39-5.9,10.65-3.81,2.9,3.06,5,6.4,6.89,8.49,2.06,2.34,3.4,4.36,5.31,6.55,2.83,3.25,5.63,6.55,8.16,10,1.29,1.77,6.59,7.19,11.69,13.44,3.09,3.91,5.91,7.67,4.3,9-2.59,2.37-6,5.74-9.75,8.71-.76.6-3.24.18-4.09-.64-6.79-6.5-13.39-13.2-20-19.86-2.5-2.51-17.15-17.87-19.45-20.57S1142.57,840.39,1145.39,838.32Zm37.3,145.14A115,115,0,0,0,1165.21,966c-7.84-6.21-8.57-14.63-9.38-23.27a63.21,63.21,0,0,1-.06-7,1.52,1.52,0,0,1,2.6-1.05c6.5,6.53,13,13.11,19.57,19.52,1.31,1.27,3.58,2.84,5,2.5,6.44-1.56,10.11,2.08,13.66,6.31,3.71,4.44,7.5,8.81,11,13.37,2.56,3.28.32,9.83-3.91,12.12-.16.08-.34.13-.5.21C1191.19,994.25,1191.22,993.91,1182.69,983.46ZM1194,950.65a5.74,5.74,0,0,0-4.36-1.39c-5.35.88-8.84-1.63-12.25-5.31-4.33-4.67-9.11-8.94-13.53-13.23,9.73-5.83,17.74-12.4,24.49-21.82,5.84,6.09,12.23,12.71,18.55,19.38.68.72,1.64,2.16,1.36,2.65-2.75,4.93,1,7.22,3.7,10.11,5.5,6,10.87,12.11,16.65,18.56L1214.2,972C1207.25,964.58,1200.74,957.52,1194,950.65Zm-52-244.41c5.52,13.17,10.7,26.49,16.17,39.68,2.44,5.87,5.36,11.53,8.33,17.87-16,4-31.17,8-46.42,11.53-9.34,2.18-9.13,1.79-12.76-7.3-6.82-17.09-14-34-21.12-51.34,12.56-3,24.38-5.86,36.18-8.75,5.2-1.27,10.33-2.84,15.58-3.83A4.8,4.8,0,0,1,1142,706.24Zm37,61.24c-14.08-26.92-20.3-57.58-38.32-82.82a4,4,0,0,1,.33-5l13.38-14.69c6.33,5,10.53,8,16.55,12.51,1.3,1,7.13,3.81,8.8,3.85,6.4.17,9.72.25,17.42,0,10.87,29,22,57.19,32.91,86.19Zm-1.09-93.34c-5.95-3.08-9.2-5.53-14.33-9.21-7.5-5.36-7.89-8.86-14.27-26-1.86-5-3.84-10-5.43-15.1-.64-2.06-2.71-6.86-.57-6.83,9.27,0,18.41-.1,27.54.1,1.44,0,3.72,1.09,4.12,2.21,2.76,7.72,13.28,37.15,16,44.18,1.48,3.76,2.65,7.65,4.07,11.8C1190,675.25,1180.52,675.52,1177.86,674.14ZM1140.64,535.3c2.07,9.64,4.1,19.06,6.4,29.76l-35.37-19.87Zm-4-22c.54,4.2,1,7.31,2.05,12-7.38-2.78-28.66-11.08-36.36-14v0l-.85-.35h0l-19.57-7.82c3.8-3.27,7.08-6.59,10.88-9.14a8.92,8.92,0,0,1,6.64-.82,130,130,0,0,1,14.25,5.42C1132.94,506.12,1135.83,507.21,1136.61,513.27ZM838.3,358.77c19,8.24,39.1,13.75,58.66,20.64,28.51,10,56.92,20.36,85.43,30.39,20.57,7.24,41.26,14.13,61.85,21.29,14.52,5.05,29,10.16,43.4,15.56,2.27.85,4.15,3.19,5.81,5.19q17.13,20.64,34.1,41.43a1.51,1.51,0,0,1-1.68,2.38q-9-3.27-17.92-6.51c-10.25-3.68-20.6-7.12-30.74-11.09-7.11-2.78-13.81-5.59-21-8.38Q1044,464.93,1032,459.9c-7.37-3.1-13.75-5.68-21.19-9-4.49-2-9.49-2.2-8.07-11.5.13-.84-1.49-2.36-2.59-2.77-17.27-6.32-34.62-12.43-51.89-18.76q-20.85-7.63-41.55-15.67c-11-4.23-21.85-8.8-32.84-13-22.19-8.51-44.44-16.88-66.65-25.32l-.53-.21a1.72,1.72,0,0,1,0-3.18C816.77,356.3,826.89,353.81,838.3,358.77Zm-64.14-3.9c8.39-2.65,24.81-7.81,33.37-9.72,2.47-.55,7.67,1.14,11.18,2.91a.86.86,0,0,1-.15,1.6c-8.37,2.46-21.29,7-28.73,9.41C773.61,364.31,765.63,356.79,774.16,354.87ZM755.44,398.5c4.19,2.51,14.18-.67,17.47-4.81a1.81,1.81,0,0,1,2.39-.44c4.54,2.87,8.69,5.66,13.09,8,2.13,1.13,5.37.36,7.28,1.66,2.41,1.65,4,4.54,6.31,7.37H792c-2.57-2-4.79-5.18-7.05-5.21-2.54,0-5.12,2.75-7,3.9-2.62-.17-5.88-1.33-7.9-.22-1.68.93-1.9,4.5-3.06,7.69-7.06,1.45-8.73,4.55-5.53,12.43,1.28,3.15,2.39,6.36,3.6,9.62-9.74.77-11.67-.72-16.1-12.65-1.17-3.16-1.9-8-6.12-6.28s-.47,5.62.24,8.51c.49,2,1.36,3.89,2.3,6.52l-16.88-9.44c-.25-7.27,2.48-13.65,7.56-19a23.41,23.41,0,0,1,5.27-3.58c1.64-1,3.6-1.48,5-2.65C749.17,397.56,751.48,396.12,755.44,398.5ZM680.75,367c1.16-.77,2.76-1.54,4-2.2,4.06-2.11,7.63-4.27,12.79-1.27C710.49,371,724,377.57,737,385c3,1.69,4.76,5.41,7.46,8.63-12.48,5.07-21,13.46-22.19,28.76-.46,4.79-.28,6.08-9.69,8.38-15.43,4.4-15.25,5.3-39.15-10.24,8.12-2,16.21-3.85,24.24-5.93,1.36-.36,3.65-1.84,3.54-2.33a7.51,7.51,0,0,0-2.68-4.37c-6-3.87-12.26-7.43-18.45-11.07-4-2.37-8.1-4.67-12.33-7.1C666.18,380,671.4,373.11,680.75,367ZM634,393.23c2.7,3.62,3,4.29,7.34,7.46,2.5,1.82,4.7,4.12,8.11,4.58,5,.69,10.38-.3,15.5-1.13,2.35-.38,4.49-2.06,8.13-3.84l17.13,10c-7.23,1.6-13.37,2.6-19.27,4.35-11.21,3.31-21.14-2.77-31.74-3.86-6.36-.66-12.57-2.69-18.88-3.93-4.76-.94-8.1-3.18-9-9Zm-22.17,17.93c14.2,3.21,28.31,7,42.64,9.39,12.15,2.06,20.46,9.2,30.72,14.43,5.17,2.64,109.76,66.48,137.78,83.62a10.11,10.11,0,0,0,6.27,1.48h0c7.31-.74,13.7,1.47,19.82,5.19q37.13,22.53,74.31,45c.11.06,2,.83.48,1.6a22.08,22.08,0,0,1-10.07.94c-11.38-1.63-18.54-4.87-27.3-10.16-11.64-7-23.45-13.74-35-20.87C838.76,534,826.21,526,813.59,518c-33.6-20-118.86-71.47-120.46-72.61-8.17-5.8-16.65-5.45-25.75-7.7-6.07-1.5-12.52-1.7-18.43-3.61-5.17-1.68-10-4.74-14.69-7.54-7.75-4.58-15.34-9.42-23-14.16A.69.69,0,0,1,611.79,411.16Zm-10.95.63c4.19,3.12,9.58,7.75,10.68,8.41,9.31,5.64,17.19,9.92,27.25,16.2,6.09,2.73,18.28,7.45,37.46,9.35,8.39.7,17.2,6.82,23.92,10.94,9.32,5.7,18.57,11.54,27.91,17.2,5.17,3.13,10.55,5.88,15.69,9,23.32,14.35,46.54,28.86,69.89,43.16C833,538,852.54,549.66,872,561.4c6.76,4.07,13.58,8,21.16,12.48-5.63,2-10.68,3.87-15.76,5.6-3.37,1.14-3.91,1.8-7.38,2.39-2.33.39-34-19.52-39.93-22.53-15.75-10.05-35.9-22.56-36.68-23-7.35-4.3-23.66-14.34-30.91-18.8,14.42-8.13,11.41-6.33-10.62-19.39-6-3.54-9.3-4.94-16.37-9.59s-13.45-5.63-20.85-2.07a2.87,2.87,0,0,1-2.33-.11q-13.05-7.94-26-16.05c-.41-.26-.6-.88-1-1.51,3.18-.85,6.26-1.53,9.26-2.49,4.5-1.45-6.75-7.09-13.9-10.53-1.45-.69-10.68-5.16-17.33-8.39-2.16-1-15.31,1.68-17.28.33-.48-.33-11.06-5.77-15.57-8.76a13.13,13.13,0,0,1-1.84-1.05c-8.79-6-17.82-11.09-29-11.49-2.7-.09-14.29-8.43-17-9.87C584.83,414.93,597.63,412.87,600.84,411.79Zm-46.59,11.92c8.92-9.62,16-8.31,21-4.13,3.6,3,8,5.09,12.54,7.9-5.74,3-8.09,4.66-12.07,10.16-5.51,8.38-4,18.28,6,24.48,6.87,4.24,9,5.44,3,11.47-8.31,8.33-8.31,8.33,1.39,15.33,1.7,1.23,32.34,25.19,35.26,21.78,3.33-3.88,4-4.8,7.37-8.66,2.34-2.7,4.78-3,7.44-1.33,8.62,5.48,17.11,11.14,27.72,18.08-3.22,2.4-6.33,4.11-8.65,6.58-3.52,3.75-2.67,6.17,1.58,8.93,6.1,4,11.82,8.48,18,12.36,6.57,4.17,28.57,22,32.28,17.92,4.55-5,6.15-6.08,11.18-11.13l25,15.44c7,4.79,18,11.85,19.67,13,10.55,6.81,55.43,33.14,55.12,33.47-10.49,10.93-19.34,20-29.8,31-2.17,2.27-3.6,2.92-6.79.79-23.1-15.46-46.44-30.57-69.69-45.8q-30.83-20.21-61.64-40.43c-23.71-15.49-47.56-30.77-71-46.61-2.47-1.67-3.58-6.48-3.88-10a158.32,158.32,0,0,1-.11-20.32c.18-4.27-1.15-7-5-9.27-8.75-5.27-28-17.94-36.75-23.64C535,448.68,554.23,423.73,554.25,423.71Zm-26.34,33.36c.6-.6,3.5.56,5,1.49,10.66,6.61,21.23,13.38,31.83,20.09a7.28,7.28,0,0,1,3.8,6.94c0,8.72-.11,17.56,1.28,26.12.63,3.82,4.15,8.07,10.84,12.37-1,.79-3.34,3.59-5.59,4.51s-5.59,1.41-7.24.37c-13.06-8.19-26.8-17.39-39.51-26.12-1.54-1.06-2.42-3.91-2.59-6-.86-10.46-2.27-19.59-3.64-31.05C521.76,463.19,525.71,459.24,527.91,457.07ZM489.51,496c-1.88-2.29-4.69-3.86-7.22-5.57-5.13-3.47-7.36-4.76-9.79-5.66,9.55-9.12,10.71-10.53,19.9-18.79,1.76-1.59,5-2,7.54-2.15,4.55-.29,7.94.3,13.57-.42,2.52-.32,2.17,2.41,2.22,2.8.94,8.74,1.92,17.47,3.06,26.18.82,6.25-.86,10.76-6,15.13-7.79,6.59-15,14.1-22.37,21.66l-18-12.59c8.62-2.49,13.22-8.91,18.41-14.42C491.7,501.24,490.75,497.5,489.51,496ZM418,528.37a9,9,0,0,1,1.55.66c8.84,6.08,17.64,12.92,26.32,19.22.25.19.29.78.26,1.48-.07,1.74-3.58,3.66-5.16,2.92-.11,0-14.32-12-22.16-17.67-1.3-.94-2.57-1.91-3.86-2.87a1.27,1.27,0,0,0-.11-.3A2.53,2.53,0,0,1,418,528.37Zm-28.1,22.84c3.89-6.75,9.46-12.54,14.31-18.71,5.45,4.2,10.2,8,15,11.56,6.48,4.82,13.07,9.49,19.56,14.28,4.34,3.2,10.66,1,14.5-5.08,2.14-3.42.46-7.17-3.59-10.06-10.38-7.38-20.56-15-31.83-23.35,9.23-5.78,16-15,27.43-12.85,7.22,2.14,19.9,12,20.7,12.62,9.4,6.71,19.8,14.06,29.24,20.88a1.2,1.2,0,0,1-.37,2.12c-8.82,2.75-14.25,8.09-20.88,12.12-3.43-1.56-7-3.61-10.76-4.67-1.35-.38-3.61,1.39-5,2.65-2.91,2.61-5.28,5.87-8.33,8.26-4.62,3.62-5,5.77-.79,9.78,1.54,1.45,3.3,2.67,4.94,4-7,9-14.38,17.58-16.54,30.45a1.57,1.57,0,0,1-2.39,1.07c-4.68-3-8.75-5.35-12.5-8.17-8.93-6.71-17.39-14.05-26.52-20.44-4.52-3.16-8.31-7-9-11.87A24.52,24.52,0,0,1,389.85,551.21ZM384,581.83c2.43-2.4,3.88-2.63,6.75-.29,8.06,6.59,16.54,12.67,25,19.06l-40.1,38.93h0L373.12,642h0l-31.2,29.87c-5.67-9.67-10.34-18.58-16-26.84-3-4.44-1.37-6.46,1.3-8.38,4,6.68,7.78,13.41,12,19.9.8,1.24,3.48,2.51,4.64,2.07,4.23-1.61,7.63-3.58,13.15-8.22a138.33,138.33,0,0,0,14-13.88c.94-1.05,7.28-7.15,4.15-12-.15-.23-2.45-4.11-5.36-8.4-.55-.81-3.24-5.83-6.33-4.09-6.58,3.71-11.07.69-3.67-6.66C371.24,594,372.54,593.11,384,581.83Zm-64.24,46.65c13.41-12.84,26.67-24.84,40.11-37.66,5.16-4.93,9.88-9.07,15-14,1.26-1.22,4.15-2.11,5.64-3.09,1.88-.57,2.42,1.34,1.41,2.44-20.47,19.62-59.3,58.86-61.6,58.14l-1.18-.4C316.83,632.72,318.89,629.3,319.74,628.48Zm-9.05,21L414.33,828.31c-8.12,3.82-11.55,2.83-15-3.56-12.1-22.4-24.67-44.54-37-66.83-10.72-19.4-21.29-38.89-32-58.29-8.23-14.88-16.59-29.68-25-44.68Zm-10.15-16.35,6.07,10.38c-16.39,13.62-28.74,23.85-46.1,38.28-1.75-4.17-3.62-8.48-5.16-12.15C271.66,656.12,283.92,647,300.54,633.18ZM354.2,937.79c-.3,1.36-.73,1.56-1.33.24-2.53-5.66-5.13-11.29-7.56-17-6-14-11.93-27.95-17.73-42-6.38-15.47-12.48-31-18.89-46.5-4.73-11.39-9.84-22.62-14.65-34-7.24-17.11-14.33-34.29-21.58-51.4-4.4-10.37-9-20.66-13.47-31-2.18-5-12.42-31.22-14.3-36.39-.44-1.23,3.17-3.85,5.92-6,7,16.77,19.87,47.32,26.31,62.4,7.74,18.1,15.66,36.13,23.42,54.22,4.71,11,9.22,22.06,13.9,33.06,5.45,12.8,11.06,25.53,16.48,38.35q13.47,31.8,26.68,63.73C358.17,927.36,355.15,934.64,354.2,937.79Zm49.44,21.89c-8.57-1.11-28.5-4.11-36.12-5-4.11-.49-10.78-6.34-10.81-10.08,0-1.09,3.83-6.73,4.86-8.27,6,10.61,18.15,11.67,35.14,14.5,2.24.37,6.67.86,7.48,2.26C405.12,954.71,403.9,957.59,403.64,959.68Zm-14-18.17a118.83,118.83,0,0,1-16.41-4.83c-4.21-1.48-7-7.21-8.25-10.12q-20.16-46.86-40-93.88c-7.26-17.12-14.42-34.28-21.72-51.38-7.65-17.92-15.43-35.77-23.12-53.67-5.31-12.34-10.65-24.67-15.68-37.13-.62-1.53,1.52-2.94,2.69-3.92,12.45-10.39,20.24-16.44,33.36-27,9.1,16.38,18,32.34,26.87,48.32q14.1,25.46,28.13,50.93,13.47,24.33,27,48.64c4.78,8.61,9.85,17.07,14.28,25.85,2.68,5.31,6.79,5.19,11.44,4.55,1.41-.2,2.8-.58,4.2-.88,6.82-1.45,11.14,1.42,14.16,7,2.38,4.4,4,6.47,7.91,13.1,1.27,2.15,4.7,8.15,7.49,12.89,3.73,6.35,9.5,16.24,13.28,22.55.61,1,21.59,33,24.41,37.06,4.73,6.73,7,11.83,11,19,1.72,3.1,3.69,4.9,7.57,5.08,2.47.12,3.85.79,6.27,1.9,2.66,1.37,3.57,5.76,1.95,5.76-5.64-.77-11.3-1.43-16.92-2.32-11-1.75-21.94-3.65-32.91-5.43-7.1-1.15-14.2-2.23-21.31-3.31-9.76-1.48-15.61-2.47-25.32-4.23C404.51,945,395.21,942.62,389.67,941.51Zm24.89,19.38c-.26-7.66.54-7.87,7.25-6.46,9.47,2,19.13,3.07,28.7,4.64,10.08,1.65,20.14,3.49,30.23,5.1,6,1,22.12,3,28.53,3.81h0c4.21.13,4.24,2.09,8,8.8C513.18,976.21,441,965.19,414.56,960.89Zm110,16.71-12.25-20.32,262.52-52.17c-2.46,8.26-4.28,15.88-7.17,23.06-.74,1.83-4.79,2.72-7.48,3.28-10.16,2.1-20.39,3.88-30.59,5.79-13.4,2.51-26.81,4.9-40.17,7.56-12.81,2.55-25.55,5.46-38.35,8.06-12.47,2.53-25,4.86-37.46,7.3-9.85,1.93-19.68,4-29.53,5.83-9.33,1.79-18.7,3.37-28,5.19C545.76,973.2,535.45,975.38,524.6,977.6Zm232.39-1c-2.54,1-6.18-.86-8.69,2.69-3.39,4.79-2.93,13.93-3.86,24.28-.45,5.88-.31,11.33,5.55,14.82.83.5.12,3.59.12,5.72l-205.8-41.83a1.12,1.12,0,0,1,0-2.2l221.34-43.38c-2.47,13.22-4.68,25.18-7,37.13A4.72,4.72,0,0,1,757,976.58Zm275.27,104.85-274.43-55.68v-6.36c5.88,1.16,11.5,2,16.95,3.41,10.94,2.93,12.76-.87,15-10.39A77.72,77.72,0,0,0,792.66,999c.42-2.9,1.18-5.73,1.16-8.54-.07-6.72-2.7-9.31-11.32-10.35-3.59-.43-12.29-2.37-15.68-2.53-2.45-2.82-.45-9,.15-12.91,1.49-9.75,3.46-19.42,5.14-28.55,10.9-6.49,19.15.21,27.66,5.2q44.93,26.38,89.76,52.93c17.12,10.15,34.11,20.55,51.2,30.75q33.84,20.19,67.76,40.22c8.12,4.78,16.4,9.3,24.61,13.91A1.23,1.23,0,0,1,1032.26,1081.43Zm29.46-13.58c-7,6.39-8.16,6-1.65,12.75l.35.4a2,2,0,0,1,.22,2.16c-1.47,2.67-3.69,2.83-6.63,1.1-15.16-8.92-30.36-17.77-45.5-26.7q-29.67-17.5-59.28-35.1c-21.07-12.53-42.06-25.2-63.17-37.66-20.25-11.95-40.61-23.69-60.91-35.56-11.4-6.66-22.54-13.8-34.24-19.88a19.13,19.13,0,0,0-14-1.39,1.28,1.28,0,0,1-1.5-1.7c.59-1.56,1.27-3.28,2.19-3.67,5.18-2.12,10.85-3,16.6.63,17.3,10.83,35.16,20.76,52.75,31.14,19,11.19,37.88,22.5,56.84,33.74,12.65,7.5,25.41,14.83,38,22.46,19.92,12.08,39.65,24.48,59.61,36.51,12.87,7.76,26,15.14,39.05,22.57,2.81,1.6,4.93,2.45,8.21-1.11,6.54-7.08,14.45-12.9,22-19.41,1.62,1.86,2.5,2.92,4.67,5.52C1071.33,1059.78,1066.44,1063.56,1061.72,1067.85Zm26.32-11.19c-3.84-4.53-6.57-7.28-10.62-12.5-3.9-5-3.6-7-9-2-3.92,3.66-7.78,7.59-11.89,11.14s-8.37,6.84-12.78,10.42q-36.4-21.8-72.73-43.54c-6-3.57-12-7-18.11-10.41-2.59-1.45-3.37-3.35-2.59-6.2,3.84-14.13,7.66-28.26,11.37-42.42.89-3.4,1.35-6.91,2.23-11.52,6.3,3.89,11.61,7.36,17.13,10.48a17.15,17.15,0,0,0,6.92,2.14c4.8.38,19.85-.38,27.68-5.29,7-4.4,10.53-5.46,14.72-1.59a44.51,44.51,0,0,1,5.66,6c1.59,2.1,2.81,3.64.11,5.69-4,3.06-8.09,6.07-11.77,9.5a7.2,7.2,0,0,0-1.59,3.38,1.75,1.75,0,0,0,1.59,2.2c1.34.08,2.66.11,3.5-.51,4.94-3.63,5.34-4.11,10.06-8a24.84,24.84,0,0,1,4.27-3.23l.91-.51a1.78,1.78,0,0,1,2.23,2.7,11.29,11.29,0,0,1-.86.94c-5.73,5-7.57,5.94-13.19,11a6.25,6.25,0,0,0-1.48,2.85,2,2,0,0,0,1.94,2.63,7,7,0,0,0,4-.76c5-3.55,9.44-7.76,14.33-11.9,3.31-2.06,5.88.84,3,3.62a149.52,149.52,0,0,1-12.48,10.43,3.83,3.83,0,0,0-1,2.22,2.32,2.32,0,0,0,2.43,2.86,5.14,5.14,0,0,0,2.68-.8c4.91-3.66,9.48-7.8,14.24-11.67,2.72-2.21,5.25,1.31,3.61,2.72-6.55,5.27-10.74,8.78-17.4,13.91-2,1.55-5.21,2.67-2.93,5.52.85,1.06,4.94.88,6.51-.22,5.3-3.73,10.14-8.12,15.37-12.43,2.58,2.15,2.63,4.12,0,6.11-3.16,2.38-6.25,4.85-9.39,7.24-4.07,3.1-5.67,7.39-2.72,11.51a15.2,15.2,0,0,0,1.93,2.75c3.94,3.39,6.3,3.78,10.69.31,5.24-4.15,8.24-6.84,13.58-11.27l26.23,30.29C1099.09,1045.71,1093.72,1051,1088,1056.66Zm-16.63-55a10.5,10.5,0,0,1,1.81-1,1.69,1.69,0,0,1,2.15,2.38.58.58,0,0,0-.09.28l-14.84,12.68-3-2.69C1063.26,1008.51,1065.84,1006.1,1071.41,1001.71Zm20.89,5.07c-9.83-11.48-19.32-22.75-29-33.83-8-9.07-15.84-18.27-24.5-26.65-3.7-3.58-6.5-5.6-11.52-7.15-2.7-.83-8.78-.82-12,1.72-1.43,1.14-2.92,2.58-4.54,4.12-3,2.64-10.59,1.68-16.81-1.91-5.94-4-12.59-8.27-19.08-12.83-.66-.47-.84-2.65-.35-3.56,9.67-18,29.64-54.84,29.89-55.3,4.57-8.41,6.11-8.45-.64-16.63-10.44-12.66-20.57-25.58-30.87-38.36-3.62-4.5-7.5-8.8-11-13.39-3.13-4.12-7.36-2.54-12,.78-3.42,2.44-2.45,5.43,0,8.42,5.87,7.06,11.52,14.3,17.24,21.49,1,1.21,1.89,2.45,2.82,3.69a.69.69,0,0,1-.93,1c-8.62-5.52-17.33-10.91-25.8-16.66-3.38-2.3-5.6-1.35-7.2,1.55-8.87,16-17.36,32.2-26.5,48-2.23,3.87-6.4,6.62-10.31,10.52-3.87-.88-4.6-1.09-9.45-2.14-1.06-.22-6.67-1.14-7.26-1.25-8.91-1.61-11.75,1.21-15.44,3.6-8.43,5.45-11.73,6.74-20.58,11.51-.89.48-2.73-.21-3.85-.85-9.78-5.6-19.79-10.88-29.15-17.13-6.82-4.54-13.2-8-22.68-2.28,7.31-24.27,51.33-173,64.91-219,9,5.56,15.34,12.38,18.59,22.44C879,691.15,884,709.15,890,723.09c2.4,5.58,8.92,11.19,14.3,14.51,14.9,9.19,15.7,10.12,18.47,11.12,2.06,0,4.65-.06,4.65-.06,10.25,12.61,20.74,25,30.89,37.71,9.44,11.8,18.4,24,27.88,35.78,7.46,9.28,15.46,18.12,23.09,27.26,8.44,10.12,16.29,20.77,25.24,30.4,4.58,4.92,16.64,5.29,21.9,9.66,6.9,5.72,18.88,21.72,24.56,28.69l0,0c4.12,5.1,42,51.66,46.83,57.61Zm38.41-37.36c-10.61-13.2-21.21-26.4-31.94-39.74-5.89-8.91-1.12-13,3.21-8.4,11.14,14.51,25,29,34.72,44.91C1139.5,971,1134.45,973.52,1130.71,969.42Zm-23.38-53.95c-1.95-2.54-3.48-5.4-5.35-8.34l5.43-10.61c3.8,3.94,7.1,7.55,10.59,11,7.55,7.39,15.4,14.49,22.7,22.12,2.14,2.24,3.36,5.75,4.08,8.89a86.27,86.27,0,0,1,2,15.43c.06,1.64-1.69,3.89-3.23,4.83-.74.44-3.4-1.17-4.42-2.46Q1123.1,936,1107.33,915.47Zm32,104.41c5-1.86,9.71-3.83,14.57-5.27,1.11-.33,3.07.84,4.08,1.87,1.21,1.22,1.82,3,2.69,4.58C1150.44,1025.19,1145.87,1025,1139.29,1019.88Zm12.54,10.22c4.91-.87,14.84-4.28,19.8-5.15.34,1.77,1.94,8,2.31,9.89C1163.38,1037.6,1156.11,1037.1,1151.83,1030.1Zm46.52,2.46c-5.92,1-12.7,1.19-18.53,1.74-4.44-11.27.51-11.46,4.64-12.47,5.59,1.75,10.54,4.68,16.59,7.67C1204.65,1031,1201.05,1031.92,1198.35,1032.56Zm13.58-2.46c-5.07-3.24-10.12-6.37-15-9.72-.69-.47-.76-2-.86-3.12-.51-5.6-.94-11.21-1.47-17.73l10.64-4C1214.57,1006.58,1217.43,1019.81,1211.93,1030.1ZM1250,980.59c2.07,8.4,0,15.91-7.07,21.79-6.91,5.74-13.44,11.94-21.05,18.76.74-11.08-5.11-19-7.76-27.87-1.12-3.76.19-9.63,2.66-12.76,4.77-6.06,10.85-11.24,17-16,1.91-1.46,5.88-.23,9.75-.23C1245.63,969.44,1248.57,974.83,1250,980.59Zm-10.66-22.88c-2.57-1.37-4.82-1.94-6.16-3.36a253,253,0,0,1-17.18-19.6c-1.59-2.08-.78-6-1.07-9,0-.87.7-1.36,1.4-.33C1223.75,935.8,1237.19,941.67,1239.33,957.71Zm7-40.29c-2.7,2.32-4.91,2.46-7-1a87.46,87.46,0,0,0-5.41-7.36c-2.81-3.72-7.19-6-2.79-13.57,1.86-3.21-3-7.43-6.33-12.37,2.24-2,5.82-5.12,9.15-8.45,3.49-3.48,4.91-4-1-9.85-2.93-2.92-5.26-4.58-8-1.58-1.24,1.35-3,2.47-4.26,3.78s-4.23,3.61-5.78,5.3c-1.39-1.2-2.92-3-4-4,.87-1.14,7.21-5.59,10-9,3.14-3.9,2.86-6.79-3.26-11.72-3.14-2.53-5.85-2.3-9.35,1.52-6.63,7.25-7.59,4.54-10.35,1.86,1.8-1.39,3.49-2.36,4.78-3.58,7.7-7.23,8.47-6.66,2.53-15.08-3-4.25-6.49-4-9.93.18-1.83,2.25-4.25,4-7.36,6.89-3.34-5.34-7.16-9.19-8.49-15.09a3.53,3.53,0,0,1,1.33-3.63,65,65,0,0,0,7.15-5.6c4.42-4.36,4.41-10.27,2.91-15.43-2.47-8.54-6.18-16.72-9.66-25.81h51.29l35.76,95.16c-7,5.32-14.35,11-21.75,16.54-2.52,1.91-3.82,3.58-1,6.58,4.45,4.71,8.47,9.83,12.84,15C1254.21,910.7,1250.28,914.05,1246.36,917.42Zm37-36.82c-5.11-3.9-6.23-2.89-13.37,3.31-3.94,3.43-8,6.72-12,10.07l-4.37-5.24c7.18-5.58,13.34-9.94,20.31-15.75,1.11-.92,1.71-3.71,1.19-5.13-8.93-24.15-55.75-148.08-68.14-179.48-7-17.59-13.46-35.36-20-53.12-1.87-5.09-4-10.45-5.72-15.79a1.76,1.76,0,0,1,2.13-2.26c2.71.8,4.22,3.52,5.09,5.81,6.52,17.22,12.79,34.53,19.23,51.77q15.78,42.23,31.67,84.4c7.18,19.08,14.49,38.11,21.66,57.19,7.6,20.26,15.07,40.55,22.66,60.81a24.06,24.06,0,0,0,1,2.27A.91.91,0,0,1,1283.33,880.6ZM1080.75,703.84c4.17-.05,6.52-1.24,4.91-6.33-1.1-3.48-3.5-13-4-14.55-7.16,0-12.91.12-18.65,0-10.74-.27-21.48-.71-32.22-1.06-1.27,0-2.91-.43-3.76.2a12.24,12.24,0,0,0-1.33,1.17,4.38,4.38,0,0,0,.93,6.88,2.57,2.57,0,0,0,1.11.35,169,169,0,0,0,19.23.11c3.78-.16,5,1.41,5.46,4.91,1.1,8.38,1.23,8.37,9.61,8.37C1068.29,703.86,1074.52,703.91,1080.75,703.84Zm-14.88,203c-3.11-3.38-5.33-4.11-9.09-4-2.44.07-5.06-1.24-7.3-.7s-3.15.62-6.55,3.25c-1.13.87-5.26,4.7-7,6.14-1.51,1.27-1.32,4.57-1.24,7.13-3.72,3.41-5,8.31-1.77,12.6,6.86,9,14,17.85,21.14,26.69,6.44,8,12.8,16.11,19.56,23.85,4.53,5.18,8.12,5.08,13.86.26,7.69-6.18,15.85-13.72,21.23-18.77a2.17,2.17,0,0,0,.21-2.94c-10.29-12.76-29.24-36.4-34.61-43C1072.35,915.24,1069.33,910.64,1065.87,906.89Zm34,52a1.94,1.94,0,0,1-.17,2.77c-6.47,5.62-12.44,10.83-18.5,16.1a2.09,2.09,0,0,1-2.91-.17c-6.51-7.21-18.79-22.66-21.15-25.48-2.19-2.61-4-5.55-6.2-8.13-1.78-2.08-10.49-13.47-11.58-14-5-6.68,16.94-21.44,22.22-16,1.91,3.09,11,11.81,12.68,13.89,2.62,3.2,5.19,6.46,7.67,9.74C1086.26,943.29,1089.83,947.67,1099.88,958.87ZM972.41,730.52c-5.22,4-4.41,8.32-1.12,12.45,8.2,10.27,16.54,20.43,24.89,30.58,1.79,2.18,4,4.81,5.84,5.81,3.47,1.94,8.62,1.15,12.25-2.6,3.43-2.91,6-4.53,8.93-6.91,5.06-4.1,5.22-10.5.94-15.66-7.7-9.28-15.1-18.8-22.8-28.08-3.68-4.43-7-10-14.33-7.45-5-6.18-4.94-6.18-11.47-1.23-1.28,1-2.65,1.84-3.92,2.84C966.47,724.34,966.52,725.77,972.41,730.52Zm33.31,18.4,10,12.57-10.44,8.4-10-13.25Zm-80.36,39.91a24.61,24.61,0,0,0-3.09-.78c.53-2.62,1-5,1.52-7.45,1.4-5.91,3.14-11.75,4.1-17.73.2-1.23-1.39-3.55-2.58-4.49A1.91,1.91,0,0,0,924,758c-1.52.06-2.89.71-3.29,1.59-1.25,2.71-1.79,5.75-2.56,8.68-3.77,14.32-6.75,28.93-11.69,42.84-1.9,5.35.11,6.56,3.2,8.2,3.6,1.92,7.6,3.07,11.34,4.75,4,1.81,6.17.38,7.18-3.64,1.41-5.54,2.91-11,4.35-16.57C935.34,793.2,935.23,793,925.36,788.83Zm110,107.78c-2-2.85-3.92-5.57-5.64-7.64-9-10.89-8.92-10.62-20.88-3-8.15,5.23-7.86,9-5.1,12.85a101.28,101.28,0,0,0,10.32,10.82c4,3.53,4.73,4.8,9.91.78,2.44-2,7.14-5.43,10.63-8.31A4.11,4.11,0,0,0,1035.39,896.61ZM1147,798c-.33-.57-.74-2.09-1.73-2.81-2.53-1.83-5.42-3.17-8-5-4-2.83-7.64-2.57-11.12.91-2.9,2.91-6.08,5.57-8.7,8.71-.63.75,0,3.3.9,4.44a145.18,145.18,0,0,0,10.72,12.88c1.27,1.32,4.59,2.61,5.59,1.91a62.57,62.57,0,0,0,12.21-10.6c1.13-1.33-.57-5-.83-7.59C1146,800.27,1146.48,799.57,1147,798ZM481.8,807.81c-5.84-4.17-10.62-.86-14,1.48-7.73,3.07-16.77,11.46-17.51,12-6.65,4.5-7.5,7-3.88,13.73,2.7,5,6.08,9.68,8.69,14.74s6.33,5.7,11.27,4.2c3.9-1.19,18-12.9,24.24-17.93C499.19,830,482.06,808,481.8,807.81ZM837.52,907.87c-6.49-4.7-10-6.75-13.31-8.18a13.82,13.82,0,0,0-7.23-2c-1.58,0-2.08,2.35-1.73,3.89a9.62,9.62,0,0,0,1.3,3.55c3,3.62,2.55,7.2-.67,6.67-3.43,0-6.2-2.1-7.94.17-2.4,3.51.43,5.24,2.57,6.8,4.45,3.26,14.43,8.67,18.6,9.81a5.64,5.64,0,0,0,3-.19,2,2,0,0,0,1.26-2.74,9,9,0,0,0-1.56-2.79c-1.12-1.24-3-1.8-4.77-2.79l3.79-6.06c2.44.73,4.46,1.7,6.53,1.83a5.45,5.45,0,0,0,2.2-.43,2.79,2.79,0,0,0,1.66-3.52C840.92,910.94,838.17,908.34,837.52,907.87Zm338.77-271.33c0-.62-.63-1.22-1.46-1.81-1.72-1.25-3-.73-4,1.19-.27.55-.51,1.1-.73,1.67a10.65,10.65,0,0,0-.25,3c-3.56,2.06-4.53-.35-6-2.72a5.73,5.73,0,0,0-1.76-1.66,2.29,2.29,0,0,0-3.44,1.1,7.34,7.34,0,0,0-.58,2.71c.19,6.78,3.85,12.4,6.83,18.18a4.25,4.25,0,0,0,1.84,1.57,2.45,2.45,0,0,0,3.21-.76q.6-.88,1.17-1.8c.61-1,1.12-2,1.93-3.47,1.88,1.78,3.12,3.49,4.8,4.37l0,0a2.82,2.82,0,0,0,4.12-2.41c0-1.57.05-3.16,0-4C1181.76,647.86,1178.5,641.51,1176.29,636.54Z"/></g><g id="Thrusters"><path d="M766.08,989.35c-5.47,0-9.9,4.48-9.9,11,0,6.08,4.49,11.76,9.9,11,2.39-.33,9.9-6.32,9.9-12.4S771.55,989.35,766.08,989.35ZM463.53,825c-3.38,5.05-2.09,12.41-.31,14.15,3.9,3.83,10.37.17,13.75-4.87s1.87-11.86.55-14.44C476.69,818.27,466.91,820,463.53,825Zm548.6-363.29c-5-2.08-11.61-2.31-11.88.65-.13,1.35,3.24,5.72,8.21,7.79s10.8.6,11.68-.13C1022.3,468.26,1017.1,463.83,1012.13,461.75Zm-662.3,165.4c-5,3.5-7.11,9.81-6.41,11.59,1.52,3.91,8.4,2.15,13.36-1.36a16.65,16.65,0,0,0,6.74-11.78C363.55,624.11,354.79,623.64,349.83,627.15Zm449-255.24c-4.57-2.26-10-1.47-11-.32-2.2,2.54,1.9,6.81,6.47,9.08a14.3,14.3,0,0,0,11.29.48C806.62,380.62,803.36,374.17,798.79,371.91Z" fill="#007aff"/></g></g></svg>