<svg xmlns="http://www.w3.org/2000/svg" viewBox="0 0 1500 1500"><title>Beluga Liner</title><g id="Beluga_Liner" data-name="Beluga Liner"><g id="Colour"><path d="M1479.91,1197.94c-3-18-9.73-35.31-18.5-51.52-13.23-24.45-26.41-49-40.33-73s-28-48-43.26-71.2c-11.41-17.34-24.4-33.71-37.45-49.89-9.59-11.9-20.28-22.93-30.81-34-2.08-2.2-3.16-3.68-2.19-6.65,4.13-12.65,8.08-25.36,12.12-38q5.74-18,11.52-36.07,5-15.51,10.15-31c4.67-14.13,3.26-18.22-9.45-26.42-11.67-7.53-23.41-15-35.1-22.47-5.81-3.73-11-3.15-16.06,2q-36.78,36.76-73.57,73.53c-1.34,1.35-2.75,2.63-4.16,4-3.87-3.31-7.26-6.79-11.19-9.48-14.79-10.14-29.8-20-44.66-30-12.53-8.48-24.76-17.41-37.5-25.56a374.54,374.54,0,0,0-32.79-18.92c-11.83-6-24.16-11-36.38-16.22-6.26-2.65-13.5-3.62-19-7.27-19.55-12.86-89.39-60.13-105-70.48-11-7.28-21.87-14.78-32.48-22.61-6.67-4.93-70.37-51-76.38-56.53,2-4.24,4-8.09,5.71-12.1q14.79-35.45,29.43-70.94c1.7-4.13,1.46-8.09-2-11.21a66.17,66.17,0,0,0-7.62-5.65q-14.89-10-29.86-19.9c-3.5-2.32-11.32-2-14.07.83-6.48,6.65-12.79,13.48-19.2,20.2q-20.44,21.47-40.95,42.91c-8.94-6-17.05-11.61-25.23-17.05-7.31-4.88-14.73-9.61-22.07-14.45-8.47-5.59-16.84-11.34-25.39-16.82-5.4-3.47-7.82-12.51-4.65-18.17,4.35-7.78,8.76-15.54,12.86-23.46,9.67-18.71,19.1-37.56,28.77-56.28,10.86-21,21.88-42,32.84-63,9.48-18.16,19.16-36.24,28.34-54.56,2.38-4.75,3.91-9.91,2-15.8-3.24-10-5.38-20.29-8.34-30.37-2.32-7.9-4.16-16.41-11.73-21.26-7.4-4.74-15.16-8.92-22.89-13.13a7.44,7.44,0,0,0-11.13,5.63c-1.22,7.84-1.94,15.76-3.43,23.54a17.27,17.27,0,0,1-4.2,8.67c-7.21,7.12-14.88,13.79-22.46,20.53-9.93,8.83-20,17.57-30,26.39-11.46-7.12-22.81-14.16-34.16-21.19-5.54-3.44-7.77-2.86-10.81,2.9-1.88,3.56-3.39,7.34-5.46,10.78-10,16.56-20.24,32.93-30.05,49.58-10.18,17.27-19.9,34.81-29.93,52.17-3.32,5.76-11.29,9.39-17.66,8.41-6.9-1.07-11,1.41-13.52,8.22l-1.44,3.77c-5.93-.83-11.47-2.82-16.49-1.92-4,.7-7.88,4.49-10.58,7.9-.89,1.12,2.09,5.31,3.29,8.1a13.44,13.44,0,0,1,.4,1.31c-2,.94-4,1.74-5.94,2.85-12.34,7.26-24.63,14.61-37,21.88-4.82,2.83-6.76,7.19-5.06,12.45.92,2.83,2.74,5.75-1.28,7.5-2.59,1.13-5.48,2.72-8.07,2.45-8.45-.89-16.31-1.8-24,4-6.47,4.9-13.55,10.57-22.52,2.42-5.76-5.23-11.71-4.22-17,1.82-4.57,5.22-8.28,11.18-12.37,16.81-4-3-7.4-1-10.93,1.87-1.78,1.43-4.43,3.23-6.29,2.86-10.66-2.13-21.19-4.85-31.76-7.39l-31.19-7.48c-7.48-1.79-14.94-3.69-22.47-5.28-3.43-.72-7.18-1.6-10.43-.87-2.23.51-4.29,3.45-5.52,5.78-.49.91,1.14,3.5,2.41,4.67a70.87,70.87,0,0,0,8,6C250,477.66,263.59,491.52,283,497.12a15.34,15.34,0,0,1-2.35,1.54c-11.68,4.28-23.4,8.45-35.05,12.8-11.49,4.3-23.29,7.64-34.8,12-26,9.75-52.34,18.79-78.52,28.15-19.58,7-39.22,13.82-58.65,21.2-7.12,2.7-24.42,2.89-30.07-3.15a69.89,69.89,0,0,0-15-11.69c-2.74-1.67-6.73-1.82-10.07-1.54-.81.07-2.23,4.76-1.67,6.89A44.77,44.77,0,0,0,22.07,575c3.95,6.44,7.39,13.67,12.83,18.6,11.89,10.77,36.56,20.44,49.27,30.29,5.86,4.54,12,8.89,20.25,7.48,5.72-1,11.54-1.42,17.29-2.19,15.9-2.13,31.79-4.35,47.68-6.47q28.85-3.84,57.71-7.55c9.28-1.19,18.61-2,27.87-3.42,13-1.92,26-4.31,39.09-6.26q23-3.42,46-6.37c4.63-.58,10.5-2.13,13.85-.07,10.47,6.43,21,13.39,29.72,21.92,25.69,25,50.56,50.92,75.73,76.49a9.55,9.55,0,0,1,1.1,1.85c-10.53,3.42-20.74,6.49-30.78,10-28.7,10.12-57.31,20.5-86,30.6-4.22,1.49-8,3.15-9.1,7.82-1.38,5.67,2.32,8.81,6.28,11.84,9.1,7,18,14.24,27.22,21,5.35,3.93,10.79,8.1,18.27,7,8.56-1.22,109.47-12.86,116.82-13.73,10.19-1.2,20.13-2.57,30.33-.13a10,10,0,0,1,3.23,2.05c8.17,6.45,16.23,13,24.52,19.35,13.09,9.95,26.39,19.64,39.49,29.57,14.34,10.87,28.5,22,42.86,32.83,13.36,10.07,27,19.82,40.32,29.89,17.18,13,34.14,26.2,51.36,39.1,14.09,10.55,28.52,20.65,42.56,31.26,3.21,2.42,7,5.76,7.81,9.31,1.58,6.69,5.58,11.24,10.41,15,17.26,13.41,34.76,26.52,52.34,39.5,7.76,5.73,15.46,11.94,26.24,10.83,1.62-.16,3.61,1.26,5.12,2.36,12.2,9,24.32,18.07,36.74,27.32a22.43,22.43,0,0,1-2.66,2.35q-50.21,30.49-100.44,61c-27.3,16.64-54.5,33.44-81.76,50.15-5.4,3.31-6.61,10.14-1.84,14.17,13.35,11.32,27.08,22.2,40.47,33.47,5.77,4.86,12.11,8.09,19.5,6.07,21.44-5.86,42.77-12.14,64.09-18.43,16.11-4.75,32.1-9.9,48.22-14.64,21.52-6.31,43-13,64.72-18.38,18.7-4.59,36.1-15,56.32-13,.33,0,.67-.2,1-.29,8.46-2.27,16.89-4.66,25.4-6.72,2.21-.54,5.09-.91,6.94,0,19.62,10.1,39.08,20.53,58.64,30.75,9,4.71,18,9.59,27.31,13.63,14.89,6.46,30,12.42,45.13,18.36,12.7,5,25.38,10.08,38.34,14.31,22.62,7.38,45.4,14.28,68.19,21.1,9.06,2.71,18.24,5.34,27.56,6.83,18.79,3,37.73,5.15,56.59,7.74a150,150,0,0,0,53-2.35c13.31-2.94,25.84-7.54,35.91-18C1481.78,1235,1483,1216.64,1479.91,1197.94Z" fill="#efefe6"/><path d="M1479.91,1197.94c-3-18-9.73-35.31-18.5-51.52-13.23-24.45-26.41-49-40.33-73s-28-48-43.26-71.2c-11.41-17.34-24.4-33.71-37.45-49.89-9.59-11.9-20.28-22.93-30.81-34-2.08-2.2-3.16-3.68-2.19-6.65,4.13-12.65,8.08-25.36,12.12-38q5.74-18,11.52-36.07,5-15.51,10.15-31c4.67-14.13,3.26-18.22-9.45-26.42-11.67-7.53-23.41-15-35.1-22.47-5.81-3.73-11-3.15-16.06,2q-36.78,36.76-73.57,73.53c-1.34,1.35-2.75,2.63-4.16,4-3.87-3.31-7.26-6.79-11.19-9.48-14.79-10.14-29.8-20-44.66-30-12.53-8.48-24.76-17.41-37.5-25.56a374.54,374.54,0,0,0-32.79-18.92c-11.83-6-24.16-11-36.38-16.22-6.26-2.65-13.5-3.62-19-7.27-19.55-12.86-89.39-60.13-105-70.48-11-7.28-21.87-14.78-32.48-22.61-6.67-4.93-70.37-51-76.38-56.53,2-4.24,4-8.09,5.71-12.1q14.79-35.45,29.43-70.94c1.7-4.13,1.46-8.09-2-11.21a66.17,66.17,0,0,0-7.62-5.65q-14.89-10-29.86-19.9c-3.5-2.32-11.32-2-14.07.83-6.48,6.65-12.79,13.48-19.2,20.2q-20.44,21.47-40.95,42.91c-8.94-6-17.05-11.61-25.23-17.05-7.31-4.88-14.73-9.61-22.07-14.45-8.47-5.59-16.84-11.34-25.39-16.82-5.4-3.47-7.82-12.51-4.65-18.17,4.35-7.78,8.76-15.54,12.86-23.46,9.67-18.71,19.1-37.56,28.77-56.28,10.86-21,21.88-42,32.84-63,9.48-18.16,19.16-36.24,28.34-54.56,2.38-4.75,3.91-9.91,2-15.8-3.24-10-5.38-20.29-8.34-30.37-2.32-7.9-4.16-16.41-11.73-21.26-7.4-4.74-15.16-8.92-22.89-13.13a7.44,7.44,0,0,0-11.13,5.63c-1.22,7.84-1.94,15.76-3.43,23.54a17.27,17.27,0,0,1-4.2,8.67c-7.21,7.12-14.88,13.79-22.46,20.53-9.93,8.83-20,17.57-30,26.39-11.46-7.12-22.81-14.16-34.16-21.19-5.54-3.44-7.77-2.86-10.81,2.9-1.88,3.56-3.39,7.34-5.46,10.78-10,16.56-20.24,32.93-30.05,49.58-10.18,17.27-19.9,34.81-29.93,52.17-3.32,5.76-11.29,9.39-17.66,8.41-6.9-1.07-11,1.41-13.52,8.22l-1.44,3.77c-5.93-.83-11.47-2.82-16.49-1.92-4,.7-7.88,4.49-10.58,7.9-.89,1.12,2.09,5.31,3.29,8.1a13.44,13.44,0,0,1,.4,1.31c-2,.94-4,1.74-5.94,2.85-12.34,7.26-24.63,14.61-37,21.88-4.82,2.83-6.76,7.19-5.06,12.45.92,2.83,2.74,5.75-1.28,7.5-2.59,1.13-5.48,2.72-8.07,2.45-8.45-.89-16.31-1.8-24,4-6.47,4.9-13.55,10.57-22.52,2.42-5.76-5.23-11.71-4.22-17,1.82-4.57,5.22-8.28,11.18-12.37,16.81-4-3-7.4-1-10.93,1.87-1.78,1.43-4.43,3.23-6.29,2.86-10.66-2.13-21.19-4.85-31.76-7.39l-31.19-7.48c-7.48-1.79-14.94-3.69-22.47-5.28-3.43-.72-7.18-1.6-10.43-.87-2.23.51-4.29,3.45-5.52,5.78-.49.91,1.14,3.5,2.41,4.67a70.87,70.87,0,0,0,8,6C250,477.66,263.59,491.52,283,497.12a15.34,15.34,0,0,1-2.35,1.54c-11.68,4.28-23.4,8.45-35.05,12.8-11.49,4.3-23.29,7.64-34.8,12-26,9.75-52.34,18.79-78.52,28.15-19.58,7-39.22,13.82-58.65,21.2-7.12,2.7-24.42,2.89-30.07-3.15a69.89,69.89,0,0,0-15-11.69c-2.74-1.67-6.73-1.82-10.07-1.54-.81.07-2.23,4.76-1.67,6.89A44.77,44.77,0,0,0,22.07,575c3.95,6.44,7.39,13.67,12.83,18.6,11.89,10.77,36.56,20.44,49.27,30.29,5.86,4.54,12,8.89,20.25,7.48,5.72-1,11.54-1.42,17.29-2.19,15.9-2.13,31.79-4.35,47.68-6.47q28.85-3.84,57.71-7.55c9.28-1.19,18.61-2,27.87-3.42,13-1.92,26-4.31,39.09-6.26q23-3.42,46-6.37c4.63-.58,10.5-2.13,13.85-.07,10.47,6.43,21,13.39,29.72,21.92,25.69,25,50.56,50.92,75.73,76.49a9.55,9.55,0,0,1,1.1,1.85c-10.53,3.42-20.74,6.49-30.78,10-28.7,10.12-57.31,20.5-86,30.6-4.22,1.49-8,3.15-9.1,7.82-1.38,5.67,2.32,8.81,6.28,11.84,9.1,7,18,14.24,27.22,21,5.35,3.93,10.79,8.1,18.27,7,8.56-1.22,109.47-12.86,116.82-13.73,10.19-1.2,20.13-2.57,30.33-.13a10,10,0,0,1,3.23,2.05c8.17,6.45,16.23,13,24.52,19.35,13.09,9.95,26.39,19.64,39.49,29.57,14.34,10.87,28.5,22,42.86,32.83,13.36,10.07,27,19.82,40.32,29.89,17.18,13,34.14,26.2,51.36,39.1,14.09,10.55,28.52,20.65,42.56,31.26,3.21,2.42,7,5.76,7.81,9.31,1.58,6.69,5.58,11.24,10.41,15,17.26,13.41,34.76,26.52,52.34,39.5,7.76,5.73,15.46,11.94,26.24,10.83,1.62-.16,3.61,1.26,5.12,2.36,12.2,9,24.32,18.07,36.74,27.32a22.43,22.43,0,0,1-2.66,2.35q-50.21,30.49-100.44,61c-27.3,16.64-54.5,33.44-81.76,50.15-5.4,3.31-6.61,10.14-1.84,14.17,13.35,11.32,27.08,22.2,40.47,33.47,5.77,4.86,12.11,8.09,19.5,6.07,21.44-5.86,42.77-12.14,64.09-18.43,16.11-4.75,32.1-9.9,48.22-14.64,21.52-6.31,43-13,64.72-18.38,18.7-4.59,36.1-15,56.32-13,.33,0,.67-.2,1-.29,8.46-2.27,16.89-4.66,25.4-6.72,2.21-.54,5.09-.91,6.94,0,19.62,10.1,39.08,20.53,58.64,30.75,9,4.71,18,9.59,27.31,13.63,14.89,6.46,30,12.42,45.13,18.36,12.7,5,25.38,10.08,38.34,14.31,22.62,7.38,45.4,14.28,68.19,21.1,9.06,2.71,18.24,5.34,27.56,6.83,18.79,3,37.73,5.15,56.59,7.74a150,150,0,0,0,53-2.35c13.31-2.94,25.84-7.54,35.91-18C1481.78,1235,1483,1216.64,1479.91,1197.94Z" fill="none" stroke="#000" stroke-linejoin="round" stroke-width="10.78"/></g><g id="Canopy"><path d="M1474,1201c-1.67-9.29-4.5-29.79-16.33-20.29-1.5-6-3.84-15-10.46-11.87-13.83,9-27,18.15-40.31,36.3-5.68,7.9,10.92,14.4,9.43,15.66-9.53,8.09-36.92,13.78-45.83,17.58-1.08,1.61-5.17,5.32,2.86,7.08,12.47,3.41,49.25,2.63,53.37,1.42,22.1-5.33,30.52-11.44,37.55-18.21,3.3-3.17,7-9.8,9.72-17.24C1474.42,1210.75,1474.28,1201.75,1474,1201Zm-176,29c10.88,3.17,34.83,10.59,45.66,13.75.17-.45,2.34-6.23,2.51-6.67-6.53-4.37-25.08-15.19-31.59-19.59C1308.83,1213.48,1295.22,1217.38,1298.05,1229.91Z" fill="#82b3d1"/></g><g id="Detail"><path d="M509,665.89c-17.12-11-33.59-24.87-50-37-13.74-10.14-29.41-20.4-42.94-30.79-7.5-5.75-16-12-25.82-8.62-1.45.49-7.45,3.87-7.3,5.09.55,4.73.88,15.19,5.81,17.79,4,2.1,12.3,4.53,15.75,7.54,2.24,2,4.55,2.07,5.51-.66,1.31-3.75,1.53-2.33,3.89-.24s4,4.54,6.59,6.42c13.9,10.18,26.3,17.16,40.18,27.36,11.21,8.23,21.22,15.27,32.4,23.54,6.63,4.9,20.44,13.91,28,19.44C518.74,685.4,518.35,671.91,509,665.89Z" fill="#ff7100"/></g><g id="Grey"><path d="M685.09,531.23c-3.56-8-17.64-8.44-20.76,4.11,0,3.66,7.8,9.9,15.55,8.22C684.67,539,686.78,534.68,685.09,531.23Zm-43.68,21.62a23.7,23.7,0,0,0-6-1.56c-5-.86-11.21,1-12.56,5.94-.92,3.33.52,4.51.81,5,4.82,7.37,16.26,3.73,19.86.59C646,560.6,644.71,554.54,641.41,552.85Z" fill="#a0a0a0"/></g><g id="Shadows" opacity="0.2"><path d="M287.29,497,129.55,552.55l6.82.49,309.82,9.74ZM1406.9,1239.17C1076.67,1195,892.58,825.58,892.58,825.58V848.1l10.84,38.33,15.71,33.06L699.24,761.37S512,621.48,476.08,597s-66.14-14.54-66.14-14.54L361.7,598.81l66.68,67,32.12,33.52-72.36,24.83L474,777.32l34.64-4,37.18,5.82L780.49,955.34l7.9,18.52,57.17,45.67,34.22,15.31,43.11,26-51.1,29.2c23.32,25,80,50.31,113.45,63.9,14.68,6,3.49,11.07,3.49,11.07s50.17-15.44,77.06-2.28c63.21,30.92,208.1,97,312.46,107.9,93,9.75,100.85-40.81,100.85-40.81S1422.15,1241.21,1406.9,1239.17Zm-614-548.78c3.59.76,48.51-34.89,24.58-24.8a38.84,38.84,0,0,0-12-1.6c-13.29,6.34-41.32,3-62.86-2s-80.87-40.6-87.7-45.27-87.31-56.06-106-63.88-163.5-78.42-173.2-82.37-16.84-15.75-20.48-15.2-11.14,18.41-11.14,18.41S382.18,497.71,487.79,575C615,668.15,789.27,689.63,792.87,690.39Zm-218-243c-1.94-14.22,50.54,15.16,52.33,8.64s9.35-160.57,9.71-171.35-3.24-12.93-6.83-14.73-30.54-18.68-30.54-18.68l-75.49,119.3-19.69,15.3L479,378.74l-2.94,9.05L531.79,456S576.82,461.59,574.88,447.37ZM745.79,251.25c0-2.51-18.32-58.93-23.54-62.53l-16.8-6.48-7,34.87L651.65,261S745.79,253.76,745.79,251.25Z" fill="#111"/></g><g id="Outline"><path d="M946,825.08c2.86,3.79,5.68,7.34,7.73,11.74,9.39,6.19,28.15,17.57,35.1,22.45q17.93,12.6,35.7,25.4,17.13,12.36,34.12,24.94c15.17,11.18,30.45,22.21,45.36,33.72,9.6,7.41,18.76,15.42,27.88,23.42q24.77,21.74,49.21,43.8,15,13.56,29.7,27.55c12.09,11.52,24.35,22.9,35.88,35,13.89,14.54,26.68,30.14,40.78,44.45,5.4,5.48,11.72,9.08,18.41,13.28a37.1,37.1,0,0,0,8.62,3.74c8,2.19,12.65,3,18.63,2.07,15.84-2.42,30.13-5.71,43.32-15.64,17.5-13.16,25-28.09,23.38-49.63a7.13,7.13,0,0,0-1-2.95c-5.16-9-7.32-13.67-12.5-22.66-.25-.43-3.51-5.51-3.77-6a119.09,119.09,0,0,0-10.34-11.14c-19.78-20-35.65-35.66-55.87-55.24-14.6-14.13-33.28-30.52-48.69-43.75-20.36-17.49-39.76-34.1-60.73-50.85-13.62-10.87-30.67-22.64-44.92-32.7-23.57-16.65-35.41-26-59.11-42.49-3.33-2.31-17.66-12.9-21.11-15-2-1.24-34-24.59-37.37-25.6,0,0-5-2.19-7.7-3.32-16.67-6.86-36.68-14.56-52.86-22-2.63-1.2-3-.89-12.29,1a113.73,113.73,0,0,0-13.12,4c-8.72,3.19-13.21,5.93-22.37,13.17-5.66,4.47-10.8,10.24-15.46,15.73a29.89,29.89,0,0,0-5.67,9.51c-.63,1.9.38,5.06,1.73,6.81C926.25,800.35,936.44,812.46,946,825.08Zm534,372.86c-3-18-9.73-35.31-18.5-51.52-13.23-24.45-26.41-49-40.33-73s-28-48-43.26-71.2c-11.41-17.34-24.4-33.71-37.45-49.89-9.59-11.9-20.28-22.93-30.81-34-2.08-2.2-3.16-3.68-2.19-6.65,4.13-12.65,8.08-25.36,12.12-38q5.74-18,11.52-36.07,5-15.51,10.15-31c4.67-14.13,3.26-18.22-9.45-26.42-11.67-7.53-23.41-15-35.1-22.47-5.81-3.73-11-3.15-16.06,2q-36.78,36.76-73.57,73.53c-1.34,1.35-2.75,2.63-4.16,4-3.87-3.31-7.26-6.79-11.19-9.48-14.79-10.14-29.8-20-44.66-30-12.53-8.48-24.76-17.41-37.5-25.56a374.54,374.54,0,0,0-32.79-18.92c-11.83-6-24.16-11-36.38-16.22-6.26-2.65-13.5-3.62-19-7.27-19.55-12.86-89.39-60.13-105-70.48-11-7.28-21.87-14.78-32.48-22.61-6.67-4.93-70.37-51-76.38-56.53,2-4.24,4-8.09,5.71-12.1q14.79-35.45,29.43-70.94c1.7-4.13,1.46-8.09-2-11.21a66.17,66.17,0,0,0-7.62-5.65q-14.89-10-29.86-19.9c-3.5-2.32-11.32-2-14.07.83-6.48,6.65-12.79,13.48-19.2,20.2q-20.44,21.47-40.95,42.91c-8.94-6-17.05-11.61-25.23-17.05-7.31-4.88-14.73-9.61-22.07-14.45-8.47-5.59-16.84-11.34-25.39-16.82-5.4-3.47-7.82-12.51-4.65-18.17,4.35-7.78,8.76-15.54,12.86-23.46,9.67-18.71,19.1-37.56,28.77-56.28,10.86-21,21.88-42,32.84-63,9.48-18.16,19.16-36.24,28.34-54.56,2.38-4.75,3.91-9.91,2-15.8-3.24-10-5.38-20.29-8.34-30.37-2.32-7.9-4.16-16.41-11.73-21.26-7.4-4.74-15.16-8.92-22.89-13.13a7.44,7.44,0,0,0-11.13,5.63c-1.22,7.84-1.94,15.76-3.43,23.54a17.27,17.27,0,0,1-4.2,8.67c-7.21,7.12-14.88,13.79-22.46,20.53-9.93,8.83-20,17.57-30,26.39-11.46-7.12-22.81-14.16-34.16-21.19-5.54-3.44-7.77-2.86-10.81,2.9-1.88,3.56-3.39,7.34-5.46,10.78-10,16.56-20.24,32.93-30.05,49.58-10.18,17.27-19.9,34.81-29.93,52.17-3.32,5.76-11.29,9.39-17.66,8.41-6.9-1.07-11,1.41-13.52,8.22l-1.44,3.77c-5.93-.83-11.47-2.82-16.49-1.92-4,.7-7.88,4.49-10.58,7.9-.89,1.12,2.09,5.31,3.29,8.1a13.44,13.44,0,0,1,.4,1.31c-2,.94-4,1.74-5.94,2.85-12.34,7.26-24.63,14.61-37,21.88-4.82,2.83-6.76,7.19-5.06,12.45.92,2.83,2.74,5.75-1.28,7.5-2.59,1.13-5.48,2.72-8.07,2.45-8.45-.89-16.31-1.8-24,4-6.47,4.9-13.55,10.57-22.52,2.42-5.76-5.23-11.71-4.22-17,1.82-4.57,5.22-8.28,11.18-12.37,16.81-4-3-7.4-1-10.93,1.87-1.78,1.43-4.43,3.23-6.29,2.86-10.66-2.13-21.19-4.85-31.76-7.39l-31.19-7.48c-7.48-1.79-14.94-3.69-22.47-5.28-3.43-.72-7.18-1.6-10.43-.87-2.23.51-4.29,3.45-5.52,5.78-.49.91,1.14,3.5,2.41,4.67a70.87,70.87,0,0,0,8,6C250,477.66,263.59,491.52,283,497.12a15.34,15.34,0,0,1-2.35,1.54c-11.68,4.28-23.4,8.45-35.05,12.8-11.49,4.3-23.29,7.64-34.8,12-26,9.75-52.34,18.79-78.52,28.15-19.58,7-39.22,13.82-58.65,21.2-7.12,2.7-24.42,2.89-30.07-3.15a69.89,69.89,0,0,0-15-11.69c-2.74-1.67-6.73-1.82-10.07-1.54-.81.07-2.23,4.76-1.67,6.89A44.77,44.77,0,0,0,22.07,575c3.95,6.44,7.39,13.67,12.83,18.6,11.89,10.77,36.56,20.44,49.27,30.29,5.86,4.54,12,8.89,20.25,7.48,5.72-1,11.54-1.42,17.29-2.19,15.9-2.13,31.79-4.35,47.68-6.47q28.85-3.84,57.71-7.55c9.28-1.19,18.61-2,27.87-3.42,13-1.92,26-4.31,39.09-6.26q23-3.42,46-6.37c4.63-.58,10.5-2.13,13.85-.07,10.47,6.43,21,13.39,29.72,21.92,25.69,25,50.56,50.92,75.73,76.49a9.55,9.55,0,0,1,1.1,1.85c-10.53,3.42-20.74,6.49-30.78,10-28.7,10.12-57.31,20.5-86,30.6-4.22,1.49-8,3.15-9.1,7.82-1.38,5.67,2.32,8.81,6.28,11.84,9.1,7,18,14.24,27.22,21,5.35,3.93,10.79,8.1,18.27,7,8.56-1.22,109.47-12.86,116.82-13.73,10.19-1.2,20.13-2.57,30.33-.13a10,10,0,0,1,3.23,2.05c8.17,6.45,16.23,13,24.52,19.35,13.09,9.95,26.39,19.64,39.49,29.57,14.34,10.87,28.5,22,42.86,32.83,13.36,10.07,27,19.82,40.32,29.89,17.18,13,34.14,26.2,51.36,39.1,14.09,10.55,28.52,20.65,42.56,31.26,3.21,2.42,7,5.76,7.81,9.31,1.58,6.69,5.58,11.24,10.41,15,17.26,13.41,34.76,26.52,52.34,39.5,7.76,5.73,15.46,11.94,26.24,10.83,1.62-.16,3.61,1.26,5.12,2.36,12.2,9,24.32,18.07,36.74,27.32a22.43,22.43,0,0,1-2.66,2.35q-50.21,30.49-100.44,61c-27.3,16.64-54.5,33.44-81.76,50.15-5.4,3.31-6.61,10.14-1.84,14.17,13.35,11.32,27.08,22.2,40.47,33.47,5.77,4.86,12.11,8.09,19.5,6.07,21.44-5.86,42.77-12.14,64.09-18.43,16.11-4.75,32.1-9.9,48.22-14.64,21.52-6.31,43-13,64.72-18.38,18.7-4.59,36.1-15,56.32-13,.33,0,.67-.2,1-.29,8.46-2.27,16.89-4.66,25.4-6.72,2.21-.54,5.09-.91,6.94,0,19.62,10.1,39.08,20.53,58.64,30.75,9,4.71,18,9.59,27.31,13.63,14.89,6.46,30,12.42,45.13,18.36,12.7,5,25.38,10.08,38.34,14.31,22.62,7.38,45.4,14.28,68.19,21.1,9.06,2.71,18.24,5.34,27.56,6.83,18.79,3,37.73,5.15,56.59,7.74a150,150,0,0,0,53-2.35c13.31-2.94,25.84-7.54,35.91-18C1481.78,1235,1483,1216.64,1479.91,1197.94Zm-16.14-14.81c2.33,6.26,5,12.41,7,18.8,1.29,4.24,0,10.78-2,14.78a39.07,39.07,0,0,1-7.78,11c-7,6.77-12.4,9.71-27.25,14.17a47.76,47.76,0,0,1-11.66,2.34c-4.28.38-7.15.4-9.09-3.9-1.56-3.47-3.75-6.66-6.09-10.72,10.3-4.38,20.29-7.83,29.5-12.75,11.78-6.29,21.19-15.16,24-29.16C1460.73,1186.28,1461.59,1184.93,1463.77,1183.13ZM1408,1209.79c4.53-10.51,26.69-31.41,38.82-37.07a3.37,3.37,0,0,1,4.73,2.56c.7,4.42,1.66,8.91.27,12.49-2.32,6-7.16,11.55-12.12,15.92-4.72,4.16-10.81,7-16.65,9.58C1417.62,1215.68,1411.92,1216.05,1408,1209.79ZM1236.91,812.41c1.66-1.79,3.17-3.73,4.89-5.46,14.07-14.11,28.27-28.09,42.19-42.35,3.28-3.37,6.31-3.56,9.86-1.29q18.87,12.09,37.66,24.3c6.26,4.07,6.78,5.95,4.58,13-8.34,26.55-16.58,53.13-24.95,79.68-3.15,10-6.55,19.89-9.47,28.7L1210.5,840.6C1218.84,831.7,1227.89,822.06,1236.91,812.41ZM948.5,687.13c14.38,10.81,38.68,28.73,50.72,38.09a1.1,1.1,0,0,1-.42,1.94c-6.45,1.43-14.58-.11-19.3-3.1-2.31-1.46-3.35-2.66-1.56-6.12.3-.57-1.31-2.3-2.24-3.3-5.45-5.86-20.14-18.48-28.54-26.35C946.08,687.28,947.08,686.06,948.5,687.13Zm-22.2,27.36c3.31-1.62,6.7-3.07,10.1-4.51,5.11-2.17,6.22-2.34,10.05.13a12.32,12.32,0,0,0,1.69.74c-36.23,17.72-49.68,24.33-95.28,68.27a88.09,88.09,0,0,0-7.3-5.87c11.12-9.6,22.1-19.15,33.17-28.59C893.15,732.35,909.32,722.78,926.3,714.49Zm-41.19-39.92c5.1-2.17,6.22-2.34,10,.13a11.78,11.78,0,0,0,1.69.74c-36.23,17.71-49.68,24.33-95.28,68.27a88.09,88.09,0,0,0-7.3-5.87c11.12-9.6,22.1-19.15,33.17-28.59C841.85,696.94,858,687.37,875,679.08,878.32,677.46,881.71,676,885.11,674.57Zm-57.88-44.35c6.31,19.32-4,34.67-20.17,41.75a78.67,78.67,0,0,1-39.34,6.54c-12.35-1.25-24.63-4-36.7-7.06-14.66-3.73-24.27-7.9-37.06-16-4.27-2.72-8.69-.43-12,1.9-6.49,4.57-12.69,9.54-18.91,14.47-4.39,3.49-3.21,6.33.86,10.09,4.7,4.32,4.7,4.32,9.24,7,10.67,6.37,22,10.92,34.74,11.55,7.88.4,16.14.92,23.43,3.56s14.1,7.71,20.67,12.33c16.55,11.63,32.77,23.73,49.29,35.41,14.08,10,28.45,19.5,42.56,29.41,14.69,10.33,29.25,20.85,43.8,31.37a5.08,5.08,0,0,1,2,3.32c.21,5.17.09,10.36.09,15.83-5.6-.84-32.25-6.31-40.35-8.54-7-1.94-38.57-9.7-47.21-11.95-19.64-5.11-39.17-10.66-58.81-15.75-1.31-.33-4.06,1.34-4.72,2.75a35.91,35.91,0,0,0-3,12.85c-10.32-7.57-21.77-16.18-32.25-23.82-10.24-7.48-20.46-15-30.79-22.31-4.71-3.36-8.49-3-13.17,1.14-6.94-8.22-13.83-16.49-20.83-24.65-6.08-7.09-18.75-21.46-18.92-21.62-3.59-3.39-16.44-15.34-20.29-18.45-4-3.25-10.9-7.52-18.27-13.85-11.8-9.89-15.8-24.06-10.72-33.52,11,7.84,21.42,16.64,33.11,23.15,7.85,4.38,17.37,6.21,26.38,7.87,6,1.11,9.94-6.18,7-11.64a25,25,0,0,0-2.59-4c-5.84-7.25.19-12.59,2.79-19,5.49,3.8,10.78,7.24,15.81,11,4.28,3.23,8.05,3.34,12.34-.07,9.34-7.43,18.8-14.79,31.23-16.35,7.88-1,15.76-2.07,23.66-2.84,9.54-.93,19.85.39,28.47-2.86,10.61-4,19.91-11.58,29.56-17.94,1.48-1,2.12-3.65,2.6-5.66,2.48-10.48,4.78-21,7.27-32C806.19,595.92,820.59,609.87,827.23,630.22Zm51.42,284.9c-7.38-5.4-15-10.49-22.34-15.93-13-9.64-25.86-19.55-38.91-29.15-11.59-8.53-23.36-16.83-35.09-25.18-6.86-4.9-13.84-9.64-20.64-14.62-1.14-.84-19-14.33-19-14.84a49.85,49.85,0,0,1,.72-10.35c.34-2.09,3.08-1.25,4.53-.94,8.91,1.9,17.8,3.92,26.61,6.23,5.06,1.32,37.81,9.84,46.11,11.85,16,3.88,31.95,7.9,47.93,11.8,6.3,1.54,12.67,2.79,18.91,4.52,1,.28,2.08,2.29,2.21,3.59A177.81,177.81,0,0,0,906,901.71c7,14.58,15.1,28.62,22.7,42.91.78,1.47,1.53,3,2.49,4.88a1.74,1.74,0,0,1-2.12,2.43,3.82,3.82,0,0,1-1-.51C911.53,939.35,895.13,927.18,878.65,915.12Zm40.48,42.13c-2.9,5.49-10.78,9.55-15.09,5.83-3.31-2.85-7.63-5.64-11.46-8.46,2.47-1.88,8.67-7,10.65-8.46C908.3,949.85,914.23,953.69,919.13,957.25ZM870,958.86c-3.64,4.71-7.32,9.46-7.28,16.14a1.64,1.64,0,0,1-2.61,1.34c-6.79-4.88-13.1-9.37-19.33-14q-20.37-15.08-40.64-30.3c-13.54-10.12-27-20.36-40.64-30.33-2.82-2.06-2.42-4.52-2.39-7.15.07-6.28,4-12.68,8-17.78,5.45,3.69,36.87,26.41,49.5,35.68q27.66,20.28,55.43,40.41C873,955,871.69,956.71,870,958.86ZM535.76,686c-2.68-2.17-2.26-4.55-4.17-7.83s-1.15-3.09-3.51-6.14c-2-2.54-14.57-10.78-15.69-11.58q-16.08-11.49-32.11-23.07c-3.92-2.85-3.18-4.65,1.14-14.26L567.83,686c-2.12,6.86-4,12.78-5.86,18.9C553.56,698.93,544.31,692.87,535.76,686Zm3.6,28.85c.69,1.83,1.34,3.67,2,5.51a1.16,1.16,0,0,1-1.79,1.32l-9.77-7.17c-3.15-13.81-5.93-26-8.7-38.15-.22-.69.48-1.18.95-.72,2.54,2,3.45,3.08,4.22,5C530.79,691.93,535,703.38,539.36,714.8Zm4.42-80.14c6.9,4.53,13.38,9.7,20.32,14.78-2.35,7.32-5.15,14.87-1.84,22.57a.92.92,0,0,1-1.37,1.13c-25.36-18.49-51.26-37.42-76.87-56.09.24-.71.79-2.68,1.08-3.51,2.72-7.83,5.28-9.23,10.65-12.43,10.87-6.45,21.63-13.11,32.54-19.48,2-1.15,4.62-2.14,6.76-1.83,7.11,1,14.3,2.16,21.12,4.31,3.85,1.22,7.33,3.6,10.88,5.78a2.88,2.88,0,0,1,1.07,3.7c-4.9,10.43-17.57,17.34-24.34,20.95a13.67,13.67,0,0,0-7.1,9.1C535.75,628.07,538,630.84,543.78,634.66Zm5.84-3.41c-4.9-3.22-5.15-7,.07-10.51,4.65-3.09,10-5.24,14.2-8.89,5.43-4.68,6.49-7.84,9.47-11.61,6.65-8.42,6.26-10.65,16.5-3.46,7.8,5.48,15.67,10.85,23.46,16.34,5.33,3.74,10.58,7.6,15.8,11.48,5.42,4,5,12.74,4.83,17.33-.18,4.94-5.84,12.43-8,17.52-1.63,3.78.13,9.21,2.74,14.73a2.39,2.39,0,0,1-2.76,3.33c-11.78-3-21.32-8-35-16.76-7.46-5.35-15.15-10.84-22.83-16.34C561.94,640,555.93,635.4,549.62,631.25ZM802.05,467.53c7.76,5.38,15.85,10.28,23.81,15.38.89.57,1.88,1,2.72,1.61,8.81,6.61,9.24,6.79,3.95,19.8C823,527.71,812.94,550.86,803,574.39l-25.2-17.91c6.88-9.47,13.87-19,20.78-28.58,7.2-10,14.4-20,21.45-30,3.48-5,2.17-8.09-3-11.3-8.89-5.56-17.45-11.64-26.16-17.51C796,463.41,796.38,463.61,802.05,467.53Zm-30,85L765.28,549c8.42-11.6,16.52-22.82,24.68-34,5.08-7,10.61-13.63,15.25-20.87,3-4.64,5.44-4.68,9.44-.43Zm13.73-78.42c4.89,3.39,9.85,6.66,14.59,10.24.88.67,1.56,3,1.08,3.81a48.19,48.19,0,0,1-6.29,8.4c-.63.67-3,.51-4-.13-5.52-3.37-10.88-7-16.84-10.94Zm-18.37,19.16c2.14-2.23,3.59-2.45,6.25-.45,5,3.78,10.52,6.93,16.51,10.79l-30.22,41.23L734.2,527.6C745.53,515.9,756.51,504.65,767.37,493.29ZM723,539.44c10.17,7,20.5,13.67,30.57,20.75,2.84,2,4.65,5.55,7.58,7.3,6.83,4.07,13.7,8.89,20.78,12.57L776,604.24c-4.58-3.1-9-6.35-13.64-9.06a3.06,3.06,0,0,0-1.68-.31,3.31,3.31,0,0,0-3.06,4.06,2.91,2.91,0,0,0,.82,1.61c4.6,3.79,9.59,7.09,14.73,10.77l-10.69,7c-4.38-2.82-7.9-6.74-11.67-7-3.23-.24-6.52,2.27-9.64,4.72-1.88,1.48-.35,4.64.58,5.56,2,1.93,4.49,3.27,7.22,5.15-3.27,2.23-6.14,4.42-9.26,6.16-.85.47-2.67-.12-3.71-.77-5.08-3.14-10-6.6-15.11-9.62a4.93,4.93,0,0,0-2-.56,2.59,2.59,0,0,0-2.78,3,6.3,6.3,0,0,0,1.27,3.36c2.18,2.35,5.36,3.79,9.43,6.48-3.17.38-4.94.61-6.71.8-9.65,1.07-19.31,2-28.95,3.22-10.81,1.31-17.83,9.3-26.09,15.08a21,21,0,0,1-3.88,2.68,4.16,4.16,0,0,1-3.27-.36c-6.4-4.21-13-8.39-18.59-12.34,0,0,.15-3.62.18-5.26.2-9-1.59-16.1-8.57-21.12-3.73-2.68-8.65-6.15-15.9-11l12.52-14.31c1.89-2.16,3.43-2,5.87-.22,13.59,9.71,23.52,15.32,41.17,26.18,8,4.94,7.14-4,7.67-6,7.78,3.93,12.48,3.8,16.31-.41,7.56-8.31,8.43-9.27,6.67-12.44a.56.56,0,0,1,.69-.8,14.41,14.41,0,0,0,4.63,1.44,4.9,4.9,0,0,0,2.34-.68,2.3,2.3,0,0,0,.86-3.31,4.41,4.41,0,0,0-1.15-1.3c-14.82-10.45-29.72-20.78-44.59-31.16-1.72-1.2-3.37-2.49-5.05-3.74-2-1.63-1.34-3.87,1.42-3,3.88,2.24,9.38,6,13.07,8.49,12.07,8.22,23.31,16.33,35.3,24.66,2,1.4,3.62,2.1,5.53,3.64,3.09,2.5,4.18.38,4.77-3.53a19.53,19.53,0,0,1,.64-2.9,1.19,1.19,0,0,1,1.72-.74,14.34,14.34,0,0,0,16.24-1.68c1.59-1.28,5.84-3.76,5.75-11.58a.79.79,0,0,1,1.2-.7,5.19,5.19,0,0,0,1.77.69,7.1,7.1,0,0,0,1.9,0,2.79,2.79,0,0,0,2.28-3.95,3.67,3.67,0,0,0-1.17-1.55c-13.7-9.52-27.56-18.8-41.31-28.1C715.87,535.8,719.34,537,723,539.44Zm-51.74,56.87c5.83-6,11.78-10.54,18.71-6,2,1.34,4.68,2.72,6.74,4,1.89,1.23,3.63,6.88,1.81,9.26-2.62,3.82-4.71,5.78-6.94,5.51C685.23,608.38,668.63,598.81,671.21,596.31Zm40.2-26.6c8.59-7.63,10.51-7.28,15.45-6.61,6.58,1.42,14.4,7.08,15.07,10.24,1.35,6.4-4.85,10.31-10.54,8.74C721.18,579.74,708.49,573.74,711.41,569.71ZM709,187.09c8.56,4.92,17.31,8.69,24.39,14.48,4.17,3.41,6.49,9.78,8.26,15.27,3.39,10.49,5.9,21.27,8.52,32a9.37,9.37,0,0,1-.58,6c-12.2,23.77-24.61,47.42-36.87,71.16-5.54,10.72-10.81,21.58-16.31,32.33-7.86,15.34-15.82,30.63-23.73,45.93l-13.37-10.23c8-14.75,16.39-29.93,24.54-45.22,11.22-21.05,22.25-42.21,33.4-63.3,4.76-9,9.7-17.95,14.4-27,3.7-7.11,2.33-11.21-4.6-15.28-5-2.94-9.93-6-14.88-9-4.76-2.91-9.5-5.85-14.74-9.07C708.52,214.7,704,199.56,709,187.09Zm-25.39,49.2,17.77,11.16c-2.51,3.18-3.78,5.32-8.87,2.46-5.55-3.13-9.15-5.44-13.92-8.17C680.27,239.87,681.81,238.19,683.57,236.29Zm-34.88,67.06c12.91-11.23,23.94-21.4,36.74-32.61,6.9-6.05,14.43-13.5,22.81-21.05,2,3.5-.34,6.61-1.42,7.6-10.23,9.36-20.6,18.57-31,27.74-7.71,6.8-15.53,13.48-23.28,20.24-1.44,1.25-2.79,2.6-4.18,3.9-1,1.07-1.45.72-1.39-.68C646.9,307.3,647,304.82,648.69,303.35ZM647,281.2c.09-13.78,6.38-17.72,13-24.23,2.9-2.86,4.85-4.25,9.05-8.19,2.51-2.36,4.31-2.58,6.91-.94,4.73,3,9.5,6,15.15,9.52-14.43,12.85-27.19,24.86-41.41,37.52-1.75,1.61-2.66,1.79-2.73.3C646.9,289.7,646.94,285.77,647,281.2Zm-2.06,91.93c.37-8.78,0-17.59.15-26.38.18-8.2.59-16.39,1.12-24.56a7.71,7.71,0,0,1,1.93-4.75c6.35-5.95,12.88-11.71,19.43-17.44,7.61-6.64,15.36-13.12,23-19.79,7.34-6.46,14.67-12.94,21.78-19.66,5.63-5.33,4.92-10.89-1.66-15.16-6.92-4.5-13.93-8.86-20.9-13.29a.75.75,0,0,1,0-1.34,4.32,4.32,0,0,1,3.64.08c10.5,6.33,20.84,12.93,31.38,19.2,3.13,1.85,2.4,3.73,1.17,6.07-6.94,13.19-13.84,26.4-20.81,39.58q-9.23,17.47-18.56,34.89c-7.45,13.91-15,27.78-22.4,41.68-6.05,11.31-12,22.65-18.06,34a14.31,14.31,0,0,1-1.2,2,1.16,1.16,0,0,1-2.07-.8C643.54,396,644.43,384.56,644.91,373.13ZM656,401.24c2.42,1.48,4,2.53,5.68,3.48,6,3.41,7.11,6.64,3.89,12.85q-9.35,18-18.93,35.86a3.34,3.34,0,0,1-.25.4,3.84,3.84,0,0,1-4.83,1c-3-1.49-2.17-13.27-1.61-19C641.22,422.2,651,412.87,656,401.24Zm-67.4-127.71c1.49.82,4,2.42,4,3.59-.14,1-.1,20.22-.72,36.83-.68,18.19-1.11,39.55-2,59.17a2,2,0,0,1-3,1.56c-6.47-4-9.82-5.24-17.06-10l-24.93-16.29C560.86,321,572.27,301.46,588.57,273.53Zm-47.59,80c4.74,3.21,8.41,5.77,12.15,8.22q17.43,11.4,34.9,22.72c6.55,4.25,13.12,1.08,13.86-6.67.05-.53,0-1.08,0-1.62.71-15.65,1.49-31.31,2.11-47,.22-5.4-.15-10.83.08-16.23.6-13.68,1.77-27.35,1.82-41,0-3.3-2.36-7.08-4.93-9.86-1.46-1.59-2.93-3.28-2.93-3.28,2.21-4.42,4.24-8.54,5.11-10.19,6.88,4.21,13.55,8.28,20.21,12.37,4.8,2.94,9.48,6.08,14.41,8.79,4,2.17,4.48,4.55,4.34,9.42-.07,2.42-.32,5.57-.33,7.35,0,9,0,16.05,0,25.08,0,1.11-1.1,1.83-2.76,2.19,0,0-7.06,1.85-10.47,3.71s-4.12,5.15-4.14,9.12q-.12,25.52-1,51c-.44,12.8-1.31,25.59-2.2,38.37a5.52,5.52,0,0,1-2.49,3.94c-1,.51-3.08-.19-4.28-1-20.33-13.25-40.58-26.62-60.9-39.88-3.62-2.36-7.25-5.22-11.29-6.34-7.67-2.12-12.16,2.94-16,9.49l-7.66-4.72C527.72,370.94,537.44,365.64,541,353.54ZM638.44,322c-.23,4.37-.7,9.9-.8,14.28-.41,16.63-.27,31.88-.68,48.51-.3,12.32-1.16,25.28-1.75,37.59-.44,9.2-1.65,16.65-2.1,23.41-.27,4-1.13,7.72-2.72,6.19l-98.6-65.81c5.49-8.08,7.27-9.1,15.08-3.66,12.38,8.64,25.38,16.37,38,24.63,9.24,6,18.37,12.25,27.46,18.51,4.72,3.25,11.3,2.32,13.21-3.08a61.5,61.5,0,0,0,3.16-17.54c.72-15.35.67-30.74,1.26-46.11.42-11.18.48-22,1-33.15.27-5.39,3.37-6.38,5.39-6.47C637.91,319.27,638.66,319.6,638.44,322Zm-147.2,62.25c1.63.79,16.48,10.48,21.52,13.66,14.65,9.25,21.84,12.95,41.6,26.9,2.52,1.78,12,8.08,11.07,9.4-5.14,9.22-9.52,2.45-12.93.22-16.75-11-33.11-22.51-49.66-33.8-7.51-5.13-15.13-10.11-23.16-15.46C483.92,382.37,486.72,382.13,491.24,384.29Zm93.2,74.83c8.73,5.35,29.6,19.11,34.09,22.64,1.05.83.24,3.87-1,4.79-4.83,3.71-49.13,30.41-53.21,33.48-9.79,7.37-21.16,10.93-33.49,5.21-4.93-2.29-11.44-5.76-20.44-10.38-.8-.41-6.06-1.88-6.06-4.71,0-2.66,2.92-3.78,4-4.48,7.25-4.63,27.68-19.81,35.07-24.23C566,468,581.71,457.46,584.44,459.12Zm-121.57,47.5c1.83-3.86,4.27-6,8.78-3.56,9.62,5.26,37,17.42,40.32,19.43,5.48,3.3,13.33,8.46,24.51,11.16,11.93,2.87,18.35,1.13,28.83-6.58,4.21-3.1,7.48-3.51,12.17-.74a14.22,14.22,0,0,0,10.55,1.2c10.78-3.67,20.94-8.75,28.83-17.38,1.9-2.09,4.74-10.38.39-14.52,5.57-2.65,7.66-6.83,8.26-12,.33-2.84-.46-3.88-2.79-5.55-7.52-5.43-15.79-11-20.24-13.93-9.31-6.05-26.87-16.44-33.57-20.29a2.7,2.7,0,0,1-.17-4.59c1.19-.81,3.47-1.71,5-.83,8.19,4.63,22.87,15.25,30.73,20.48,6.6,4.4,20.85,14,27.49,18.32,3.43,2.09,7.37,4.68,10.45,6.73,5.42,3.62,10.5,7,15.69,10.92,1.8,1.37,10.12,7.11,12.66,8.76,11.81,7.63,38.48,25.21,40.63,27.87l-6.31,4.13c-7.77-8.42-13.94-12.24-22.19-17.52-7.93-5.07-18.08-9.77-26.64-13.84-2.34-1.11-5.3-3-6.74.76-1.32,3.45,1.79,4.36,4.27,5.5,6.37,2.93,12.69,6,19.51,9.21a.82.82,0,0,1-.14,1.53c-5.92,1.53-11.2,3.11-12.94,9.26-1.43,5,1.19,8.36,4.83,11.95,5.88,4.4,10.55,5.91,11.7,5.94a13.17,13.17,0,0,0,3.88-.33c1.63-.45,2.82-2.52,4.21-3.86a30,30,0,0,0,5.12-10.9,2.16,2.16,0,0,1,3.67-1c6.46,6.69,14.89,12,17.61,14s7.44,5.43,10.29,7.51a1.73,1.73,0,0,1-.39,3c-3.14,1.23-6.4,2.37-8.86,4.21-4.14,3.1-7.65,4-8.16,7.94a1.73,1.73,0,0,1-1.62,1.49,34.26,34.26,0,0,1-8-.27c-2.69-.67-5.12-2.62-7.51-4.24-1.32-.89-9.68-6.43-15.72-10.52a23.37,23.37,0,0,0-7-3.3c-1.65-.44-3.1-.58-4.53.37A16.58,16.58,0,0,0,656.5,556c-1.68,3.22,11,14.65,19,19.27,3.2,1.86,7.82,5.66,6.93,6.42-7.29,5.09-18.09,5.79-18.49,17.69,1.15,4.73-4.58,1.27-9.6-1.52-1.72-1-25.82-15.72-35.51-21.78-16-10-22.79-19.15-33.88-28.57a4.07,4.07,0,0,0-4.5-.44c-2.87,2.45-.59,4.63,1.39,6.59,6.43,6.4,12.4,13.35,19.38,19.07,6.78,5.57,14.58,9.9,21.23,14.3-3.72,4.38-8.22,9.67-12.8,15-7.11-4.7-13.46-9-21.59-14.51-4.38-3-8-3.06-12.55-2.41-1.63.24-3.88,0-5-.91-3.49-2.93-6.28-4.35-15.09-6.9-2.19-.63-4.68-1-11.43-2.26-5.53-1-13.88-3.18-20.11,1-1.7,1.12-3.53,2.28-5.37,3.31-3.75,2.11-8.47,6.71-11.13,5.73-6.24-2.28-11.63-7.07-17.05-11.25-1.24-1-1.24-3.56-1.75-5.42-4.89-17.54-14.27-32.89-23.32-48.43C462.91,515.91,460.51,511.61,462.87,506.62Zm221,28a7.48,7.48,0,0,1-.52,2.32,8.08,8.08,0,0,1-9.13,4.71c-4.87-.94-8.18-4.39-7.78-7.17,2.82-9.43,9.6-9.6,15.51-4.43A5.54,5.54,0,0,1,683.9,534.58ZM358.84,454.69c2.74-3.51,5.83-4.66,10.31-.9,10.7,9,23.49,14.51,36.21,20q27.47,11.94,55,23.94c-6.53,8.89-6.53,14.26-.95,24.12,7.24,12.8,14.46,25.64,19.3,39.63a12.5,12.5,0,0,1,.35,2c-43.23-31.08-86.38-62.1-130.26-93.63C352.25,464.54,355.2,459.34,358.84,454.69Zm62.52,81.46c-18.72-13.1-31.47-23.79-50-37.19-3.63-2.62-13.12-9.76-16.71-12.45-3.08-2.24-1.38-4.45,1.21-2.91,30.81,22.12,64.12,46.88,94.93,69l-.58,1.12c-2.18,3.58-7.37,1-11.34-.69s-9.39-4.3-13.61-6C428.37,541.68,424.77,538.54,421.36,536.15Zm-73-56.94-3.63,7.3c-2-1.67-8.46-7.26-11.53-9.78C337.64,475.34,338.76,470.26,348.4,479.21Zm-73.16-13.06c14.7,3.32,29.59,6,43.85,10.69,7.68,2.51,14,9.11,21,13.92,3.06,2.11,6.07,4.29,9.08,6.46a.71.71,0,0,1-.69,1.24l-73.67-30.82A.79.79,0,0,1,275.24,466.15Zm-7.65,17.4c-1.32-.86-32.15-22.34-33-23.13-4.08-3.85-.49-6,3.92-3.05,20,13.17,29.93,19.82,31,20.44,8,3.4,15.81,6.78,23.67,10,5.17,2.13,55.61,22.77,84.73,35,0,0,1.81,0-2.21-4.49-3.12-3.3-9.16-8-17-13-2.69-2.53,8.23-3.39,11.87-.83,4.83,3.48,28.42,22.12,37,31.31h0a49.18,49.18,0,0,1,4.38,5.21c1.15,2.48-1.19,2.58-2.5,1.6C393.59,536,283.84,490.29,267.59,483.55Zm-.55,26.7c14-5.86,17.14-1.22,26.65,6.09.54.42,2.89,2,2.89,2.77-8.86,3-25.12,8.78-25.26,8.82-10.11,3.1-13.74-.8-19.19-4.41-2.19-1.45-4.2-3.17-6.92-5.25C252.53,515.62,266.9,510.31,267,510.25Zm34.44,12.65c2.86-.68,3.44,2.84.81,3.87-31,11.21-53.8,19.69-84.8,30.81s-65.17,25.32-96.67,34.81c-4.67,1.3-8.44-1.3-4.08-2.92ZM145.1,553.73q26.22-9.36,52.41-18.79c12.44-4.45,24.88-8.91,37.34-13.28,1.13-.4,2.84-.71,3.66-.15,5.28,3.62,10.38,7.49,16,11.61-18.11,6.73-35.17,13.23-52.34,19.43-17.4,6.29-34.92,12.26-52.36,18.44-6.86,2.43-13.58,5.29-20.52,7.46a9.65,9.65,0,0,1-7.11-.7c-4.91-3-9.38-6.71-14.78-10.69C120.66,562.36,132.89,558.08,145.1,553.73ZM98.85,570.26a4.3,4.3,0,0,1,3.28.71c4.94,3.84,9.75,7.84,14.61,11.79-6.79,5-10.8,3.77-17.43-1.67a122.61,122.61,0,0,0-10.17-7.28C93.1,572.33,95.92,571.11,98.85,570.26Zm-11.78,9.4c5.53,4.67,11.35,9,17,13.59,6.39,5.21,13.75,5.91,21.11,3.55,12.78-4.11,25.32-9,38-13.42,10.06-3.52,20.25-6.66,30.23-10.39,12.38-4.64,102.46-37.66,110-41a13.23,13.23,0,0,0,6.21-6.36c1.53-3.51-.72-6-4-8.09-6.64-4.19-12.94-8.92-19.61-13.59,7.74-4.75,13.58.18,19.44,2.49,17.28,6.79,34.17,14.61,51.51,21.25,12.74,4.88,22.58,14,33.7,21.2,4,2.6,7.67,5.7,11.42,8.68a2.16,2.16,0,0,1-.92,3.82c-5.3,1.07-10.59,2.19-15.92,3-13.22,2.09-62.92,9.17-74.22,10.84-7.48,1.1-181.89,27.63-192.71,28.71a19.8,19.8,0,0,1-12.44-2.94C95.59,593.9,86,585.82,76.16,578,80.37,575.93,83.73,576.84,87.07,579.66Zm9.6,44.92c-3-2-6.1-4-8.91-6.22C75,608.06,50.35,597.84,37.91,587.14c-3.6-3.1-5.88-7.72-8.77-11.65-9.28-13.06-3.89-11.78-3.53-12.16,2.61.19,6.5,3.19,13.47,10.24,2.81,2.84,19,8.08,26.14,9,12,13.48,20.35,28,32.05,41.34A.46.46,0,0,1,96.67,624.58Zm273.48-35.15c-1.57.35-2.91.55-4.29.77-6.09,1-12.25,1.49-18.37,2.33-9.59,1.31-81.59,10.75-89.63,11.86-10.12,1.41-144.59,20.21-152,21.05-8.07-11.81-16.64-22.81-25.24-34a.61.61,0,0,1,.84-.86c5.49,4.09,11,8.1,16.19,12.58,7,6.1,14.33,8.44,23.7,6.78,17.33-3.08,34.84-5.13,52.25-7.79,20.35-3.11,40.65-6.53,61-9.58,15.87-2.38,31.81-4.25,47.68-6.61,12.69-1.89,25.3-4.28,38-6.25,10.62-1.64,21.3-2.94,31.94-4.5a16.39,16.39,0,0,1,14.87,5.1c1.27,1.29,2.68,2.78,4.34,4.38A2.77,2.77,0,0,1,370.15,589.43Zm14.47-2.22a3.54,3.54,0,0,1-3.3-1.42c-2.56-3.45-5.53-6.79-8.27-10.27a2.28,2.28,0,0,1,1.54-3.67c2.26-.25,4.79-.5,7.05-.88,7.63-1.28,15.35-2.14,22.86-3.91,2.47-.58,6.09-3.38,6.18-5.29.13-3.06-1.72-6.64-3.73-9.22a15.88,15.88,0,0,0-3.78-3.17.87.87,0,0,1,.73-1.56c7.91,2.57,14.23,8,21,12.63,5.19,3.52,10.46,7.16,16.18,9.6,6.07,2.58,11.48,1.68,17.22-5.25.65-.78,2.91-3.69,3.58-4.39,2.74,1.69,8.26,5.05,10.67,7.14,10.53,9.14,30.85,22.37,29,23.12-7.17,3.67-13.49,5.9-18.48,9.84-2.94,2.31-3.76,7.31-5.7,11.47-10.71-7.89-11.52-6.34-11.43-14a5.46,5.46,0,0,0-1.85-3.54,101.53,101.53,0,0,0-9.73-7.58c-3.63-2.43-5.45.28-7.12,3.19l-6.34-4.46c-6.35-4.58-8.86-5.91-12.61-5.36-20.36,3-23.11,3.67-43.43,6.93Zm91.46,32.1c-1.54,3.56-3,6.89-4.73,11L416.3,590c4.92-3.29,14.65-3.73,18.87-.66C448.76,599.27,462.31,609.23,476.08,619.31Zm-61.62-4.64c-2.37-2.09-4.22-2.84-5.53.91-.95,2.73-2.31,3-4.56,1-3.45-3-9.09-6-12.61-9.24-4.1-3.77-5.19-6-5.21-10.73,0-1.94,1.86-3.48,3.31-4,9.85-3.36,17.36,1.39,24.85,7.14,13.53,10.39,27.41,20.34,41.14,30.48,16.42,12.11,32.34,25,49.47,36,9.35,6,10.41,14.49,12.71,24.87-7.54-5.53-14.21-10.38-20.84-15.28-11.18-8.27-22.31-16.6-33.51-24.84-13.88-10.2-27.83-20.32-41.74-30.51C419.39,618.67,416.83,616.77,414.46,614.67ZM492,723.88c-3.42.7-6.26,0-9.35-2.68-6.45-5.62-13.75-10.26-21.3-15.73,3.52-1.22,5.2-2.09,7.74-3,7.08-2.62,9.67-1.24,13.69,2,7,5.55,14.28,10.69,21.55,16.08C500.13,721.67,496.14,723.05,492,723.88ZM506,726.4c8.51-2.26,11.79-.77,11.33.9a2.93,2.93,0,0,1-1.72,1.79,35.73,35.73,0,0,1-4.13,1.38q-20,5.22-40.1,10.35c-9.32,2.37-18.68,4.56-28,7s-18.51,5-27.78,7.42c-8.06,2.14-16.09,4.45-24.25,6.11-2.08.42-4.61-1.36-6.93-2.13-.71-.33-1.12-1,.35-1.46q32.44-8.25,64.89-16.5,22.89-5.87,45.75-11.9C498.92,728.39,502.46,727.32,506,726.4Zm-71.8-68.84c-.44-.44-9.7-9.49-10.1-10-3.06-3.38,1.94-6.36,5.79-2.83C445,656,465.79,675.37,480.93,686.6a2.81,2.81,0,0,1,.5,4c-3.32,4.17-10.1,3.17-16-2.71C454.32,676.84,445.22,668.65,434.16,657.56Zm-24.4,66.08c11.89-4.17,24.06-7.72,35.54-12.83,7.1-3.15,12-1.36,17.27,2.8,5.49,4.34,11,8.63,16.93,13.26-11.57,2.93-22.93,5.74-34.26,8.7-12.35,3.23-24.63,6.77-37,9.73-1.94.46-4.76-1-6.62-2.35-4.85-3.48-9.38-7.38-14.5-11.48C394.84,728.8,402.31,726.25,409.76,723.64Zm-32,11.55c2.93-.41,7.19,1.92,9.51,3.83,1.36.88,10.2,7.44,10.08,8-.34.81-.48,1.13-2.43,1.61-3,.76-16.06,4.74-16.36,5.11L361.7,740.64C367.31,738.62,372.41,735.94,377.79,735.19Zm157,22.34c-4.21.79-10.52,2.26-12.19,4.51-4.56,6.17-13.77,5.69-20.63,6.5-14.77,1.74-95,11.07-113.12,13.26-7.35.9-12.46-3-17.6-6.73-10.12-7.37-19.82-15.31-29.67-23.05a7.65,7.65,0,0,1-1.21-1.31,1.63,1.63,0,0,1,.57-2.51c3.91-1.85,7.24-3.74,10.79-4.41,2.18-.42,5.18,1.63,7.31,3.23q10.82,8.09,21.24,16.68c5.89,4.83,12.51,4.82,19.3,3.23,8.16-1.9,16.24-4.12,24.33-6.32,8.43-2.3,16.78-4.87,25.23-7.07,13.37-3.49,26.8-6.72,40.18-10.15,9.66-2.48,19.34-4.94,28.87-7.85a8.52,8.52,0,0,0,4.82-4.88c.91-2.78.19-5.29-3.06-7.49-11.06-7.5-21.69-15.65-32.44-23.6a6.1,6.1,0,0,1-.62-.52,2.6,2.6,0,0,1,1.23-4.39c2.09-.46,4.06.17,6.61,2.17,14.68,11.51,30,22.23,44.95,33.36,7,5.17,13.71,10.59,20.66,16,5.48,4.59,6,7.07,1.46,7.36C552.41,754.88,543.53,755.88,534.78,757.53ZM737.17,912.42c.14-.92-140.1-109.63-140.17-109.14l-32.53-25c5.7-3.48,9.77-5.86,13.75-8.45a10.07,10.07,0,0,0,2.42-14.75,84.44,84.44,0,0,0-10.87-10.77,113,113,0,0,0-9.61-7,20.32,20.32,0,0,1-3.53-3.08c-3.49-3.79-5-5.91-6.7-10.46L540,697.11c17.38,12.84,33.33,24.64,49.31,36.42,3.68,2.71,8.11,4.72,11,8.08a215.08,215.08,0,0,1,14.78,19.88c8,11.75,15.83,23.66,23.66,35.55,5.13,7.78,10.15,15.63,14.5,22.34,10,13.63,32.8,32.6,78.5,64.29C740.72,889.87,737,912.43,737.17,912.42ZM742.34,888c-3-7.72-10-10.76-15.71-15.18-12.71-9.77-25.77-19.09-38.57-28.74-7-5.25-14.3-10.2-20.38-16.36-5.24-5.33-9.07-12.08-13.29-18.37C642.93,792.26,631.72,775,620.15,758c-5-7.42-9.88-15.32-16.33-21.38-8.44-7.91-18.27-14.38-27.73-21.13-6.76-4.83-9.35-7.14-5.61-17.46.48-1.32,2.07-8.8,3.82-7.48,7.07,5.24,14.09,10.37,21,15.62,3.47,2.63,20.22,17.93,20.75,18.59,5.29,6.59,10.84,13,16.34,19.41,8.74,10.26,17.34,20.65,26.35,30.67,5.83,6.48,53.6,45.68,64,55.75,2.92,2.82,4.47,7.08,6.64,10.68.18.3.51.78.41.92-4.2,5.86,1.86,9.32,5.32,12.11,7.66,6.19,16.61,12.36,24.79,18.5-2.83,6.66-8.44,9.93-8.69,20.87.11,1.2-.47,1.28-1.35.55C747.3,892.18,743.36,890.65,742.34,888Zm123.79,138c-25.28-16.91-46.62-34-70.57-52.66-2-2.19-4.3-5.34-1.91-6.79a3.15,3.15,0,0,1,3.53.29c23.87,18.19,52.24,38.69,76,56.8C877.44,1026.12,870.84,1028.84,866.13,1026Zm414.6,220.39L1209.82,1223c4-2.31,7.31-3,11.68-1.22,19.68,8.22,39.63,15.39,59.49,23.19C1284.45,1246.44,1283.91,1247,1280.73,1246.42Zm94.71,18.33c-8.57-1.15-16.33-1.67-24.84-3.09s-17.22-3.36-25.81-5.11c-1.54-.32-3.32-.5-4.47-1.4-13.54-10.53-30.54-12.65-45.81-19-15.53-6.42-31.41-12-46.77-18.81-7.31-3.23-14.43-4.92-21.94-2.68-7.34,2.2-14.31.68-20.69-2-22-9.21-43.93-18.66-65.47-28.89-19.26-9.15-38-19.44-57-29.29,1.71-2.34,4.4-5.32,4.49-5.09,2-1.09,1.2-8.12-2.69-8.75-3.24-.53-7.3-1-10.53-.19-2.71.67-4.35.8-8.22,1.89-5.57,1.57-9.57,2.16-17.79,4-1.2.27-6.47.53-7,4.17-.28,1.94,0,6.06-1.37,6.34-16.43,3.3-26.72,7.08-40,10.68-23,6.22-45.8,13.22-68.67,19.93-12.09,3.54-24.12,7.25-36.23,10.7-13.48,3.84-27,7.34-40.51,11.24-13.79,4-27.58,8-41.19,12.59-9.36,3.13-15.88-1.26-22.48-6.68-11.33-9.32-22.78-18.49-34.16-27.75-3.88-3.16-3.68-5.08.49-7.65,25.88-16,51.71-32,77.62-48s51.59-31.55,77.43-47.25c14.7-8.93,29.55-17.59,44.16-26.66,2.73-1.7,4.83-4.59,6.79-7.25a1.34,1.34,0,0,0,.23-.79,3.08,3.08,0,0,0-3.73-2.94,3.57,3.57,0,0,0-1.61.64,61.09,61.09,0,0,0-5.18,4.79,5.14,5.14,0,0,1-6.74.48c-20.55-15.55-40.43-30.67-60.4-45.65-13.07-9.8-26.4-19.24-39.45-29.07-14.51-10.93-28.8-22.17-43.26-33.17-10-7.58-20.21-14.77-30-22.57a22,22,0,0,1-5.52-7.27.87.87,0,0,1,1.29-1.09q33.54,24.85,67,49.75c13.7,10.24,27.2,20.75,40.85,31,8,6.07,16.22,12,24.38,17.88.79.57,2.29,1.27,2.8.93,4.24-2.81,9.26-5.21,12-9.16,1.05-1.51,1.9-2.7-6.73-9.7-5.74-4.67-9.42-4.56-14.71-8.54-4.75-3.57-5.62-5.51-4.37-13.83.49-3.26,3.37-6.94,5.45-10.47a3.85,3.85,0,0,1,5.61-1.19c5.52,4.07,10.71,7.82,15.71,11.81,5.54,4.43,8.76,4.81,14,.61,4.43-3.54,8.51-7.55,13.15-10.76,4.27-3,8.64-6.82,14.68-3.74.6.31,2.5.67,3.31-.81.7-1.29-.25-3.48-.91-4.69-4-7.43-8.16-14.77-12.42-22-9.76-16.65-18.25-33.88-24.39-52.21-4-12-8.21-24.56-8.71-37.34-.27-7.12-.57-14.06.23-21,2.19-19.05,7.16-37.2,19.72-52.54,13.91-17,29.64-27.14,50.51-32.92.67-.19,9.27-2.23,10-2.25,20.84-2.33,31-.29,46.8,3.87,2.33.61,7.65,1.82,7.21,5.58-.2,1.69-16.73-5.58-30.3-5.58-12.06,0,42.85,18.17,57.5,24.25,13.56,5.63,57.85,24.35,44.38,21.23-5.1-1.69-10.28-3.2-15.3-5.11-7.14-2.71-12.58-4.74-19.15-7.24a.63.63,0,0,0-.61,1.1c11.94,9,29.84,21.83,34.79,25.24,12,8.29,23.47,16.89,35.39,25.33,11.5,8.14,23.63,17,35,25.23,15.26,11.05,29.54,21.42,44.55,32.8,9.67,7.33,20.1,15.61,29.29,23.54,16.62,14.34,32.61,28.56,49.05,43.12,10.1,9,19.79,18.61,29.64,27.85,12.19,11.42,23,22.09,34.61,34.06,8.27,8.51,16.64,16.08,24.65,24.86-.51-6.1-1.78-9-2-14.46,23.71,41.44,50,78.52,70.65,125.86-13.41,2.4-26.07,12.07-35.18,19.49-8.11,6.61-14.88,14.9-21.94,22.72-4.29,4.76-8.63,9.69-11.83,15.19-5.31,9.1-16.06,6.41-23.57,5.55-10.82-1.25-18-3.72-28.76-5.64a241.73,241.73,0,0,1-24.08-5.21c-8.29-2.22-15.36-.9-20.66,4.49-2.26,2.31-5.48,8.18-6.5,11.22-2.78,8.26-2.63,8.44-1.18,12.63,3,8.6,10,9.57,18.58,12,18.49,5.37,37.3,9.66,55.67,15.37,8.51,2.65,14.94,6.93,23.06,10.82C1377.05,1264.11,1378,1264.75,1375.44,1264.75Zm-61.54-45.94c6.51,4.4,22.12,15,28.66,19.35,1.93,1.76,1.47,4.34-1.62,3-10.83-3.16-29.62-9-40.5-12.2C1298.81,1219.29,1308.1,1214.88,1313.9,1218.81Zm143.91,31.24c-12.65,9.36-27.37,12.34-42.73,13-3.77.15-7.78.77-11.53,1.11-11.81,1.05-21.82-4.5-31.94-9.67-7.2-3.68-14.53-7.1-22-10.74,2.93-4.1,1.42-7-3.18-10-10.58-7-20.7-14.63-31.06-21.94-5.3-3.74-8-3.48-13.59.91-1.52,1.21-7.81,4.08-7.85,12,0,1.12.33,2.32.51,3.93-8-2-10-5.1-10-9.59,0-.75,3.82-8,5.15-9.84,6.16-8.48,14.2-5,21.85-3.59,10.21,1.83,20.35,4,30.56,5.76,8.92,1.58,17.85,3.26,26.85,4.19,8.8.91,15.08-3.35,19.78-10.87,2.92-4.68,7-8.65,10.65-12.87,5-5.81,9.77-11.87,15.22-17.24,10.08-9.94,21.13-18.57,35.14-22.56,2.1-.61,2.89-.53,5.84-.53,5.21,8.62,4.83,13.66,3.24,23.18-.31-.66-.65-1.3-.92-2-3.7-9.36-9-10.41-17.59-4.85a118.84,118.84,0,0,0-14.74,11c-12.56,11.73-14.19,13.11-23,27.12-2.06,3.3-1.12,4.76.83,8.72,1.07,2.18,4.85,4,8.6,7.09-10.32,3.3-19.36,6.09-28.32,9.1a171.28,171.28,0,0,0-17.65,6.7c-1.53.71-2.72,3.66-2.74,5.6,0,1.22,2.25,3.17,3.81,3.59a150,150,0,0,0,34,4.73c4.59.15,23-.61,27.5-1.49a86.41,86.41,0,0,0,26-9.1c9.5-5,14.24-11.79,19.44-21.54C1473.47,1233.33,1467.56,1242.84,1457.81,1250.05Zm-54.3-4.73-29-3.07c-1.32-.2-1.78-.65.06-1.8,7.2-2.5,14.39-5,21.62-7.46a2.66,2.66,0,0,1,2.39.61c2.06,3.32,3.91,6.77,5.83,10.17C1405.42,1245.46,1404.66,1245.57,1403.51,1245.32Zm-128.42-126.46c-5.52-6.5-11.94-13.09-17.25-19.77-16-20.12-38.15-39.71-58.21-59.47-14.47-14.25-30.33-28.67-45.63-42-20.21-17.65-40.08-34.64-60.91-51.56-13.53-11-27.17-19.47-41.32-29.65-23.44-16.85-46.16-33.44-69.71-50.12-3.31-2.35-7.87-5.53-11.31-7.66a44,44,0,0,0-8.82-4.74c3.31,6.49,3.65,6.21,6.65,12.83l5.75,12.68C978.9,890.07,984.39,901,986,905.81c3.25,9.7,7.75,30,7.37,37.87,0,6.2,1.17,17.16,1.43,22.46.57,11.36,2.61,16.46,4.22,27.69.54,3.79,4.25,7.69,7.46,10.43,7,6,10,8.6,17.44,14,6.94,5,13.8,10.3,21.19,14.61,20.58,12,41,24.35,62.26,35.15,19.46,9.9,39.63,18.49,59.89,26.67,13.3,5.36,27.64,8.17,40.87,13.68a114.53,114.53,0,0,0,23,7.19c11.59,2.17,13.08,2.77,24.77,4.39,3.68.52,20.89,4.36,21.11,3.54C1277.32,1122.18,1276,1119.9,1275.09,1118.86Zm-294-181.08a15.25,15.25,0,0,0,2.23,2.14,1.16,1.16,0,0,0,1.84-.87c1.13-17-11.49-44.93-16.59-55.92-4.89-10.54-6.71-13.54-9.7-19.94-7.39-15.84-7.78-15.79-16.77-32.24-3.19-5.84-15-19.6-20.6-26.93-1.78-2.32-4-4.23-5.81-6.47-2.64-3.17-5.51-3.53-6.59-.1-.4,1.25-.89,29.93-.9,30.86-.1,7.21,2.18,10.62,4.32,16.38s11.59,21.18,15.9,27.15c10.85,15,22.37,29.55,34.06,43.92C969.33,924.17,973.81,929.73,981.1,937.78Zm197.67,207.34c-4-8.23-8.07-16.46-12.53-25.55,3.11,1.42,5.08,2.65,7.22,3.15a4.07,4.07,0,0,0,3.58-1.36c.46-.75-.27-2.59-1-3.59a8.7,8.7,0,0,0-3-2c-15.19-8.1-30.52-15.94-45.55-24.32-21.25-11.86-42.74-23.39-63.26-36.43-20.13-12.79-39.18-27.29-58.68-41.07-4.16-2.95-8.1-6.24-12.4-8.95a2.93,2.93,0,0,0-2.08-.1,2.53,2.53,0,0,0-1.92,3.23,15,15,0,0,0,.71,1.87c.3.63,1.26.95,2,1.45l-5.47,4.32c-9.75,7.8-20.15,14.06-33.15,14.5a5.69,5.69,0,0,0-3.82,1.51,5.39,5.39,0,0,0-1.08,4.19c.21.83,2.35,1.85,3.4,1.65,5.31-1.06,10.89-1.76,15.74-4,5.75-2.62,10.22-1.92,14.48,2,.65.59,1.8,1.47,2.52,2,17.21,12.35,34.49,24.62,51.62,37.09,10.06,7.32,19.53,15.5,29.89,22.34,28.44,18.8,57.13,37.22,85.91,55.5a150.1,150.1,0,0,0,22,11.23c2.3,1,6.87.3,8.32-1.4s1.35-5.89.73-8.73C1182.24,1150.64,1180.17,1148,1178.77,1145.12ZM914.9,1024.27c-2.44-7-3.55-7.71-8.46-6.84-.58-3.5-2.36-5.65-5.92-6.41-.77-.17-4.07,1.85-4.46,2.79-1.68,4.07-.57,5.69,2.21,7.88.87,1.28,3.3,2,5.63.87.69,5.42,2.41,7.24,9.12,5.79-.31,4.27,1.45,8.63,6.28,7.91,1.61-.25,3.8-3.86,3.57-6.34C922.49,1025.83,919.36,1022.53,914.9,1024.27Zm65.17-78.11c-2.73,0-4.89.86-5.83,6-.38,4.57,1.22,7.56,5.83,8,3.23.29,7.13-3.84,7.08-7.12C987.08,948.85,984.21,946.19,980.07,946.16ZM706.28,711c20.44,14.65,41.07,29,61.46,43.77,12.09,8.71,23.84,17.88,35.75,26.85,2.92,2.2,5.55,5.13,8.83,6.47,7.4,3,15,5.49,22.73,7.77s24.79,5.25,27.39,4c1-.49-.77-3-1.81-3.94a103.1,103.1,0,0,0-8.81-6.74q-36.39-25.7-72.81-51.34c-10.2-7.21-18.61-13.43-28.82-20.61-4.59-3.23-14.07-9.5-19.22-10.7-8.53-2-14.21-1.24-23.05-1.76-1.14-.06-3.13,1.31-3.36,2.33A4.68,4.68,0,0,0,706.28,711Zm17.14,1c7.93,1.06,13.73,4.56,19.16,8.27,10.46,7.15,24.65,17.11,34.93,24.53,13,9.37,23.18,16.34,36.24,25.6,7.28,5.15,15.79,10.94,23.2,15.9,2.22,1.87,3.65,4.12-.84,3.34-6.41-1.32-10.38-2.27-14.29-5-22-15.19-43.62-31-65.41-46.49-10.59-7.54-21.25-15-31.86-22.48-.24-.17-1.08-.7-2-1.34A1.29,1.29,0,0,1,723.42,712Zm-61.5,7.89q17.6,12.57,35.47,24.74c1.35.93,8.43,3,11.55-.08,1.65-2.24,3.07-4.63,4.73-7.42a5.88,5.88,0,0,0,0-6,19,19,0,0,0-4.09-5.35c-9.71-7.59-19.73-14.8-29.72-22-2.8-2-5.65-4.35-8.85-5.39-3.88-1.26-10,2.69-11.62,6.59C656.81,711,657.58,716.73,661.92,719.84ZM621.23,566.93c5.46,4,12,5.57,18.36,2.76,8.81-3.91,10.63-6.06,9.63-11.31a22.51,22.51,0,0,0-1.5-5,6.86,6.86,0,0,0-3.11-3.46l-.08,0a23.59,23.59,0,0,0-6.26-2.27c-5-1-8-1.38-13.93,1.75C618.06,552.75,615.17,562.51,621.23,566.93Zm10.86-14.08c4.87-.3,6.66,1.35,9.32,2.71,3.3,1.69,2.22,4.62-.27,6.8-3.6,3.13-12.71,2.78-16.22-.59-.38-.37-.25-1.29-.34-1.88C625.92,556,628.77,552.81,632.09,552.85ZM891.61,878.51c-2.54-2.15-5.3-4.06-8-6q-27.54-20-55.08-39.92c-3.79-2.75-8.7-2-10.81,2-1.54,2.9-3,5.84-4.38,8.83-2.28,5-1.12,11.43,2.43,14.05,16.4,12.12,32.54,24.61,49.35,36.13,5,3.42,14.26,9.61,17.84,8.82,1.66-1.2,3.76-2.09,4.88-3.67,2.22-3.13,3.77-6.74,5.85-10C896.36,884.57,894.9,881.31,891.61,878.51ZM885.38,888a28.32,28.32,0,0,1-2.32,3.63c-.88,1.3-2.33,2.68-3.66,1.86-14.71-9-19.87-14-31.55-21.44a141.26,141.26,0,0,1-14.27-10.51c-2.81-2.45-11.61-7.72-11.61-11.85a13.92,13.92,0,0,1,3.51-8.36c1.26-3,47,30.42,50.8,33.76,2.49,2.15,6,5.1,8.89,8C886.54,884.41,886.17,886.28,885.38,888ZM563.55,484.71c1.22-.67,2.36-1.48,3.61-2.07,1.69-.81,3.46-1.47,5.19-2.2s2.76,2.15,1.21,2.89c-12.24,6.22-31.66,21.16-36.7,18.32-2.65-.4,3.14-3.28,4.23-4.1,1.54-1.17,0-3.23-1.91-3.6a12.7,12.7,0,0,0-5.17.5,28,28,0,0,0-7.94,5.25c-2.53,2.37-3.06,4.73.71,6.68,7.84,4.05,15.18,2.72,22.31-1.75,3-1.87,5.92-3.78,8.94-5.57,5.87-3.5,11.84-6.84,17.67-10.42,3.61-2.21,4.83-7.53,2.71-10.64-3-4.42-7.48-5.52-11.51-3.1-1.75,1.05-3.3,2.26-5,3.24-3.24,1.89-5.06,3.27-4.75,4.89C557.76,486.2,560.83,486.23,563.55,484.71Z"/></g></g></svg>