<svg xmlns="http://www.w3.org/2000/svg" viewBox="0 0 1500 1500"><title>Cobra Mk IV</title><g id="Cobra_Mk_IV" data-name="Cobra Mk IV"><g id="Colour"><path d="M1353.36,992.11c-.89-11.05-3.6-22.17-2.8-33.05.52-7.1.94-12.79-1.26-20.18-5.92-20-8.51-40.86-13.27-61.18-1.83-7.83-1.64-16.8-9-22.7-2.71-2.17-6.29-4.75-7-7.71-2.52-11.18-4.09-22.58-5.86-33.93-2.19-14-5-28-6-42.14-.75-10.13-8.45-21.36,2.75-30.67.86-.72.62-3.08.47-4.63q-1.25-12.13-2.74-24.24c-1.16-9.33-2.17-18.44-8.85-26.29-3.14-3.7-4.39-9.81-4.71-14.94-.69-11-10.44-108.39-11-116.48,0-5.93-2.84-8.46-6.45-11.23s-7.63-4.79-11.09-7.61c-2-1.62-4.19-4-4.59-6.33-3.5-20.43-6.55-40.93-9.91-61.38-.79-4.85-2.44-8.9-7.34-12-23.91-15.06-47.51-30.61-71.15-46.11-20.5-13.45-40.89-27.09-61.36-40.59-9-5.9-17.6-12.29-28.84-13.55-7.81-.88-15.55-2.49-23.28-4-12.12-2.36-24.14-5.35-36.34-7.18-6.35-.95-11-3.19-14.44-8.6-4.85-7.64-10.65-14.37-18.66-19.08-12.79-7.52-25.42-15.32-38-23.14-7.12-4.41-13.15-2.86-18.4,3.45-8.29,9.95-11.46,19.77-2.72,30.81-12.18,12.1-23.6,23.4-35,34.74-9.25,9.21-19.54,17-29.86,25.05-17.4,13.52-32.88,29.51-49.25,44.39q-12.12,11-24.5,21.72-25.44,22.13-51,44.11a30.34,30.34,0,0,1-6.55,4.76c-9.89,4.68-19.64,9.9-30,13.35-7.43,2.48-9.23,7-7.51,13.11,1.44,5.16.14,7.51-4.12,10.28-9.17,6-7.91,17.71,2.07,21.39.7.26,1.14,1.23,1.7,1.87-5.89-.67-11.15-2.35-16.42-4-11.87-3.62-17.1,1-15,12.46,2,10.51,3.29,20.86-7.3,27.25-.94.56-3.68,1.31-4.73,2.25-6.43-3.24-13.62-5.49-19-9.93-6.54-5.4-11.36-3.23-17.75-.32-20.77,9.49-99.33,51.79-99.51,51.9-19.62,11.24-39.05,22.82-58.88,33.66-32.6,17.81-65.48,35.12-98.22,52.68q-27.24,14.61-54.42,29.35c-10,5.45-19.8,11.41-30,16.54Q241,791.85,205.44,809c-4,1.95-8,6.23-13.24,1.28a120.28,120.28,0,0,0-16.28-13.3c-2.15-1.41-6.82-1.55-8.84-.14-7.6,5.32-7.67,12-.61,19.2,3.8,3.9,8.13,7.28,11.31,10.08-1.44,4-2.55,5.95-2.85,8.06-1.11,7.83-1.7,15.73-2.92,23.54-4,25.57-8.18,51.12-12.32,76.68-3.63,22.44-7.44,44.86-10.73,67.35-.37,2.52,1.32,6.38,3.34,8.06,15.49,12.82,31.34,25.21,47,37.84,12.5,10.08,24.85,20.34,37.31,30.49s24.61,20.13,37.06,30c14.21,11.28,26.24,25.73,44.18,31.64,8.64,2.85,17.66,4.57,26.5,6.84,9.23,2.38,18.41.52,27.67.25,16.21-.46,32.47,1.26,48.68.9a30.08,30.08,0,0,1,23.59,9.6c4.67,4.74,10.07,8.32,17,8.53,16.92.52,33.84,1,50.77,1.35,2.85.06,5.75-1,8.58-.82,14.24,1.07,28.46,2.33,42.68,3.66,8.11.76,16.18,1.84,24.28,2.64,10.38,1,20.77,2.59,31.16,2.68,16.27.14,32.54-1.14,48.81-1.11,19.22,0,38.44.78,57.66,1.33,3.14.09,6.28,1.25,9.38,1.1,5.13-.25,12.17.71,14.92-2.17,5.88-6.15,12-6.19,19.36-6,28.87.75,57.75,1,86.62,1.51,19,.36,38,1,57,1.3,4.87.08,9.44-.38,12,5.26.71,1.55,3.58,2.7,5.61,3,8.73,1.17,17.5,2.39,26.29,2.78,25.79,1.15,51.59,1.83,77.38,3a49.25,49.25,0,0,1,12.43,2.64c7.31,2.29,14,2.29,20.5-2.59a16,16,0,0,1,8.72-2.79c14.48-.27,29,.28,43.44-.36,4.58-.2,9.59-2.39,13.44-5.07,7.59-5.27,14.55-11.47,21.7-17.36a132.79,132.79,0,0,0,10.26-9c4.39-4.44,1.94-13-4.54-18.08-8-6.3-15.8-12.89-24.5-20l126.18-101.35c10.25,6.56,20,12.67,29.56,19,9,5.94,12.92,6.4,21.42,0,13.34-10,26.38-20.53,39.26-31.17C1353.16,997.9,1353.55,994.45,1353.36,992.11ZM931.79,327.89c.12.22.09.46,0,0Z" fill="#850000"/><path d="M1353.36,992.11c-.89-11.05-3.6-22.17-2.8-33.05.52-7.1.94-12.79-1.26-20.18-5.92-20-8.51-40.86-13.27-61.18-1.83-7.83-1.64-16.8-9-22.7-2.71-2.17-6.29-4.75-7-7.71-2.52-11.18-4.09-22.58-5.86-33.93-2.19-14-5-28-6-42.14-.75-10.13-8.45-21.36,2.75-30.67.86-.72.62-3.08.47-4.63q-1.25-12.13-2.74-24.24c-1.16-9.33-2.17-18.44-8.85-26.29-3.14-3.7-4.39-9.81-4.71-14.94-.69-11-10.44-108.39-11-116.48,0-5.93-2.84-8.46-6.45-11.23s-7.63-4.79-11.09-7.61c-2-1.62-4.19-4-4.59-6.33-3.5-20.43-6.55-40.93-9.91-61.38-.79-4.85-2.44-8.9-7.34-12-23.91-15.06-47.51-30.61-71.15-46.11-20.5-13.45-40.89-27.09-61.36-40.59-9-5.9-17.6-12.29-28.84-13.55-7.81-.88-15.55-2.49-23.28-4-12.12-2.36-24.14-5.35-36.34-7.18-6.35-.95-11-3.19-14.44-8.6-4.85-7.64-10.65-14.37-18.66-19.08-12.79-7.52-25.42-15.32-38-23.14-7.12-4.41-13.15-2.86-18.4,3.45-8.29,9.95-11.46,19.77-2.72,30.81-12.18,12.1-23.6,23.4-35,34.74-9.25,9.21-19.54,17-29.86,25.05-17.4,13.52-32.88,29.51-49.25,44.39q-12.12,11-24.5,21.72-25.44,22.13-51,44.11a30.34,30.34,0,0,1-6.55,4.76c-9.89,4.68-19.64,9.9-30,13.35-7.43,2.48-9.23,7-7.51,13.11,1.44,5.16.14,7.51-4.12,10.28-9.17,6-7.91,17.71,2.07,21.39.7.26,1.14,1.23,1.7,1.87-5.89-.67-11.15-2.35-16.42-4-11.87-3.62-17.1,1-15,12.46,2,10.51,3.29,20.86-7.3,27.25-.94.56-3.68,1.31-4.73,2.25-6.43-3.24-13.62-5.49-19-9.93-6.54-5.4-11.36-3.23-17.75-.32-20.77,9.49-99.33,51.79-99.51,51.9-19.62,11.24-39.05,22.82-58.88,33.66-32.6,17.81-65.48,35.12-98.22,52.68q-27.24,14.61-54.42,29.35c-10,5.45-19.8,11.41-30,16.54Q241,791.85,205.44,809c-4,1.95-8,6.23-13.24,1.28a120.28,120.28,0,0,0-16.28-13.3c-2.15-1.41-6.82-1.55-8.84-.14-7.6,5.32-7.67,12-.61,19.2,3.8,3.9,8.13,7.28,11.31,10.08-1.44,4-2.55,5.95-2.85,8.06-1.11,7.83-1.7,15.73-2.92,23.54-4,25.57-8.18,51.12-12.32,76.68-3.63,22.44-7.44,44.86-10.73,67.35-.37,2.52,1.32,6.38,3.34,8.06,15.49,12.82,31.34,25.21,47,37.84,12.5,10.08,24.85,20.34,37.31,30.49s24.61,20.13,37.06,30c14.21,11.28,26.24,25.73,44.18,31.64,8.64,2.85,17.66,4.57,26.5,6.84,9.23,2.38,18.41.52,27.67.25,16.21-.46,32.47,1.26,48.68.9a30.08,30.08,0,0,1,23.59,9.6c4.67,4.74,10.07,8.32,17,8.53,16.92.52,33.84,1,50.77,1.35,2.85.06,5.75-1,8.58-.82,14.24,1.07,28.46,2.33,42.68,3.66,8.11.76,16.18,1.84,24.28,2.64,10.38,1,20.77,2.59,31.16,2.68,16.27.14,32.54-1.14,48.81-1.11,19.22,0,38.44.78,57.66,1.33,3.14.09,6.28,1.25,9.38,1.1,5.13-.25,12.17.71,14.92-2.17,5.88-6.15,12-6.19,19.36-6,28.87.75,57.75,1,86.62,1.51,19,.36,38,1,57,1.3,4.87.08,9.44-.38,12,5.26.71,1.55,3.58,2.7,5.61,3,8.73,1.17,17.5,2.39,26.29,2.78,25.79,1.15,51.59,1.83,77.38,3a49.25,49.25,0,0,1,12.43,2.64c7.31,2.29,14,2.29,20.5-2.59a16,16,0,0,1,8.72-2.79c14.48-.27,29,.28,43.44-.36,4.58-.2,9.59-2.39,13.44-5.07,7.59-5.27,14.55-11.47,21.7-17.36a132.79,132.79,0,0,0,10.26-9c4.39-4.44,1.94-13-4.54-18.08-8-6.3-15.8-12.89-24.5-20l126.18-101.35c10.25,6.56,20,12.67,29.56,19,9,5.94,12.92,6.4,21.42,0,13.34-10,26.38-20.53,39.26-31.17C1353.16,997.9,1353.55,994.45,1353.36,992.11ZM931.79,327.89c.12.22.09.46,0,0Z" fill="none" stroke="#000" stroke-linejoin="round" stroke-width="8"/></g><g id="Colour_2" data-name="Colour 2"><path d="M1283.71,836.47l3.78-4.14-15.16-26.78L1227,792.23s-5.33,9.1-7.67,13.32,0,9.12,0,9.12l18.34,37.3c4.33,7.64,3.11,10.51-1.67,9.7s-56.62-29-56.62-29c-17.61-9.38-64.41-36.77-64.41-36.77l-10.3-26.4L1101,763s-13.33.33-16.33.33-6-4.33-6-4.33l-23.34-79.33L1157,615l18.93,16.62,21.88,41.92,31.86,73.24,4.86-26.06L1219,674.67l9.08-22.2s-68.75-133.14-67.54-135.8,44.13-20.93,44.13-20.93,52.66,35.93,54.33,35.11-5.33-30.52-7.33-34.24-21.67-8.28-22.34-12.28-5.33-37.66-8.66-39.33-90.5-57.67-93.5-59.17-4.17,2.34-3.91,3.34,5.25,4.81,4.91,8.5-8.28,10-8.28,10L1132.67,429l-8.55,12.4,15.27,7.93-.74,5.11-11.54,81.08L1049,626.21l-3.9,4.23,8.2-89.26-14.81-15.77-21.63,5-5.12,44,17.12,20.5s-3.56,45.73-2.58,48.28,18,12.56,18,12.56l-7,67.11-16.85-.17c-4.47,1.22-8.67,6.88-8.67,6.88l-56-26.53H916l3.4,20.71L940.31,750l-14.53,8.56-9-2.78-9.26,7.55v9.73l-9.34,4-26.66-10.5-37.34-6.18s-5.61,28.08-4.2,35.54,2,6.41,2,6.41l31.11,25.19-9.33,18L849.33,853,744.49,866,724,847l-65.5,8.38-11.45-9.87L516.89,863.64,500,884.21l37.73,7.12,100-9.06L474.23,992.67l-121.34,10.66-17.22-1.9-6.82-6.6-1.52-.42-30.66,15.36c-3.67,2.44-8-5.44-13-7.44s-7.67,4-11.67,11S258,1026,252.67,1026s-13-16.66-15-16.66-30,38-30,38,62,51.34,63,50.83,22-7.16,25.66-4.83,19,18,23.34,18,24.66-1,28,1.3,15,20.33,15,20.33,41-1,49.66-1,22,3.67,18.11-3.33S400.67,1080.33,398,1071s50-46.11,50-46.11l216.33,66.78s36-21.67,41.34-21.43,41.66,11.09,45.48,11.09,19.52-8.66,31.18-13.9,8.34-7.76,8.34-7.76l-115.19-24.83-41.84-5.93-19.58-4-3.73-28.56s42.11-73.06,48.17-80,7.83-6.66,8.83-9,131-26.08,131-26.08S893.67,914,894.7,916.68s-3,10.16-3,10.16l1.66,8.83,41.34,16.66S980,1050.67,983.33,1059s-1.66,9.33-6.66,8.43-54-27.1-62-31.1-10.63-6.33-19.93-2S860.6,1061,860.6,1061l5.73,28.45,44.34,23.18,45.14-41.3h2.85l32.18,26.49,40.16,6.85L952.33,946.33l5.73-2.71,22.67,14s17.94,28.66,17.16,28.62,59.84-13.62,59.84-13.62l83.2-64L1157.67,870l-14.26-11.16-12.51-21.31,4.49-15.53s132.94,81,139.37,85.29,9,2.38,9,2.38l-10-36.34s-7.67-8-11.83-11.21-10.67-6.17-7.62-9.68S1283.71,836.47,1283.71,836.47Zm-682.38-95c21.38.13,125.54-19.24,125.54-19.24l96.46,16.51,3.34-24.31L853.33,696l41.37,2.72-17.47-40.81s-3-16.07,5.14-39.95,10.74-52.18,10.74-58-3.33-11.11-12.67-16.89S776,473.29,776,473.29l-59.33,46.92-17,18.48s-6.93,13.89,3.45,24.64c6.22,6.45-43.19,39.63-49.78,40S632.08,585,615.78,594s-131.11,73.36-131.11,73.36l75,62.24S580,741.39,601.33,741.52Z" fill="#6d0000"/></g><g id="Grey"><path d="M467.27,831.84c5.68,4.89,12.09,10.21,18,14.84,1,.75,10.58,1.61,11.78,1.11,3.28-1.36,235.42-30.24,239.57-32.41,1.83-19.48-1.1-53-12.46-59.62-18.16,4.81-131.27,17.3-143,16.5-.49,0-59-46.39-67.6-44-4.3,1.2-5.86,10.32-10,13.2-1.54,1.09-5.72-4.67-7.23-3.4-3.43,2.92-5.53,12-8.71,15.68-1.93,2.22-9.37-.91-11.19,1.47-3.56,4.68-2.56,9.35-5.62,14.29-1.15,1.85-13.44-1.09-14.51.74a51,51,0,0,0-5.8,15.72c-.14.73-12.45-1.22-12.57-.5-1.95,12.31-2.31,19.77-1.83,20.17C443.61,812,459.82,825.43,467.27,831.84ZM919.27,551c1.94,4.4-3.87,73.26-4.7,85.06,20.43,4,52.72,7.55,53,6.05,1.86-9.84,17.79-120.16,18-123.85-8.62-8.51-73.56-64.44-73.7-55.26-.12,7.54-.94,6-1.84,13.56-.73,6.19-14.95-11.87-15.76-5.68-1.09,8.34,1,4.68,0,13-.69,5.94-14.35-12.55-14.84-6.6-.12,1.36-2.18,12.2-5.14,13.56-1.2.56-5.86-5.13-9.53-2.67-1.9,2.31-2.54,16-1.83,14.77C864.45,500.23,918.07,548.25,919.27,551ZM317.11,853s-53.28,35.86-59.78,41-95.83,103.5-94.5,105.31,43.67,45.19,45.34,45.52,16-19.83,22.66-28.83,24.34-24.33,26.84-24.5S293,1007.83,295,1008.33s32.67-13.16,33.33-16.83-27.95-70.83-27.95-70.83L338.67,906Zm127.56,173c-5.23-.68-46,41.16-46.67,45s51.67,82,55.67,85,136.66,13,143.66,13.67,145,.66,147.16.66,24.18-41,22.51-44S467,1028.91,444.67,1026Zm587.7,80c-4.63-3.33-40.37-6-44.7-6s-30.7-27-32.34-26.67c-3.33.67-41.66,34.34-42.66,37.51s15,60.16,21.66,65.16,121.34,10.33,123.4,10.49,4.94-11.49,5.64-16.16-20-51.85-21.81-56.18S1037,1109.33,1032.37,1106Zm-76.5-161c-1.79,7.33,37,83,40,83s10.83-18.67,10-21.67-21.88-46-25.15-48.66S956.58,942.12,955.87,945ZM1136,836.67c-2.62,4.48,3.65,16.33,5.65,20S1167,881,1176.33,881.21s19.34-4.21,20-8.56S1137.86,833.52,1136,836.67Zm190.72,23.59c-3.92-6.74-30.18-21-35.52-24.15s-36.16,14.54-37,16.33c-1.61,3.43,20.34,19.84,21.34,22.89s6.66,29.45,9,32.11,57.69,39.13,60.22,32.36C1348.61,929.55,1330.67,867,1326.74,860.26ZM1307.17,734c4.5-5-9.17-43.67-11.5-49.67s-14.67-131-16-135-74.34-51-78.34-52.66c-3-1.26-39.66,17.33-40.33,21.57S1270.67,736,1274.67,740.05,1302.67,739,1307.17,734Zm-182.5-350.48c0-2.52-33.34-23.19-37.34-23.52s-64.59,8.67-68.13,10.33S980.4,403.41,982,405c2.86,2.79,45,22.67,50.3,24s23.87-21.06,25.47-20.7,62.2,32.37,65.53,32,9.34-8,9.34-11.33-21-31-22-34S1124.67,386,1124.67,383.52Z" fill="#636b70"/></g><g id="Canopy"><path d="M1121.22,838.25c-18.88-37.79-48-32.44-48-32.44l1.28,20.17L1051,820.66l-57.57,42.93,2.38,19.95-32.08,1.1-5.68,21.09s-.92,15.76,29,35.63,63.62,17.53,63.62,17.53l8.43-12.46,58.12-45.61,11.7-1.14S1140.11,876,1121.22,838.25Z" fill="#82b3d1"/></g><g id="Shadows" opacity="0.2"><path d="M1335.07,860.63l-15-13.34-16.22-100.51,3.33-26.06-7.38-35.33L1284.71,561.2l-7.1-18.46L1261,523.23l-8.84-65.43s-75.73-37-53.61-22.84,23.33,30.84,23.33,30.84L1228.6,512l-16.68-6.53,15.57,32.09,19.1,124.74-6.81,12.09,16.62,28.36L1279,836.22l-10.39,1,6,48.56,18.13,31.88,4.42,26.09-173.54,55c-91.7,21.73-182.18,45.73-273.36,44.56l-502.4-17-25.34-24.78,9.38-12L301.31,937.9l-23.79,12.43s-37-109.27-50.23-128.32l-75,187.75,148.11,120.85,119,10.51,37.68,24.18,63.53,1.1,162.79,6.83,229.05-1.88,17.63,8.23,116.1,8.37,20.5-2.59,52.15-3.15,45.41-31.38-4.54-18.08-24.5-20,92.39-79.07,44-22.87,32.25,20.29,41.43-29.63,4-16.08V938.88ZM914.63,792.12,902.45,778s19.06-16.24-80.18-90.75S680,578.05,680,578.05l-23.46,23.62-24-15.67L527.19,636.83C553.52,661,736.63,813.45,914.63,792.12Z" fill="#111"/></g><g id="Outline"><path d="M452.75,1050.06c-5.62-.48-18.38,5.64-22.31,10-6.23,7-6.23,12.47-6.22,19.21-.2,8.66,5.94,28.53,32.79,23.61,1.46-.27,7.15-5.54,11.18-10.61,8.89-13.6,10.25-17.5,9.85-19.93C476.2,1061.34,464.09,1051,452.75,1050.06ZM739,770.21c-2.38-16-8.25-20.5-23-18-2.44.41-4.86,1-7.31,1.29-11.18,1.48-22.39,2.75-33.55,4.38-10.9,1.59-21.72,3.79-32.64,5.23-16.12,2.13-32.27,4.12-48.46,5.53-4.53.39-9.94-.29-13.72-2.53-6.93-4.11-12.78-10-19.39-14.72C547.09,741.49,535,729.2,519.2,722c-5.41-2.45-11.85-1.5-13.24,3-1.16,3.77-2.15,7.59-3.22,11.42a26.53,26.53,0,0,1-3.47-1.5c-6.33-3.91-8.41-3.24-10.77,3.57-1.42,4.1-2.79,8.23-4.27,12.58A24.86,24.86,0,0,1,481,749.9c-6-3.58-8.32-2.8-10.32,3.62-1.36,4.35-2.67,8.71-4,13.15-7.65-5.83-10.92-8.75-14.65,4.52-1.06,3.75-2.65,7.36-4.18,11.53-2-1.86-3.29-3.13-4.65-4.34-3.2-2.84-6.9-1.94-8,1.29-3,8.94-7.75,18.16-2.18,27.65,1.46,2.5,41.26,34.09,52.94,43.16a11.74,11.74,0,0,0,7,2.46c2.83,0,5.7.07,8.56-.1,3.59-.22,7.15-.94,10.73-1.43,15.42-2.1,30.85-4.11,46.24-6.33,9.81-1.41,19.54-3.3,29.35-4.66,15.19-2.11,30.44-3.8,45.63-5.95,13.82-2,27.56-4.45,41.37-6.47,19.85-2.9,39.74-5.53,59.59-8.4,4.83-.7,10.52-6.91,10-10.6C742.67,796.06,740.9,783.13,739,770.21Zm-138.78,6.64c11.66-1.14,23.25-2.93,34.86-4.5,15.62-2.12,31.23-4.32,46.84-6.45,10.94-1.5,22-2.51,32.82-4.52,12.06-2.23,13.54-1.69,17.23,10.77L585.06,789.73C587.92,779,587.24,778.1,600.19,776.85Zm-22.1,22.35,153.29-18.44L734,791.92,572.56,811.05Zm-64.32-69.6c8.16,6.09,16.28,12,24.23,18.12,8.94,6.89,17.32,14.61,26.71,20.81,7.67,5.05,8.8,9.7,6.68,19.62-5.6-5.19-8-6.82-11.49-10.22a79.94,79.94,0,0,0-6.85-5.53q-12.57-9.85-25.18-19.68a78.67,78.67,0,0,0-8.15-6C510.68,740.05,508.62,740.52,513.77,729.6Zm-19,115.56a5.05,5.05,0,0,1-4.26-.38c-5.87-4.63-11.6-9.46-17.27-14.34-7.45-6.42-26.49-21.7-28.51-23-7.16-4.73-7.09-11.38-4.1-19.26l64.64,51.63C501.11,842,498,843.79,494.76,845.16Zm31.32-3.81-69.77-56.76c1.19-4,2.22-7.38,3.48-11.53l77.94,62.3Zm23.45-11.3-75.3-60.56c.81-2.83,1.85-6.44,3.15-10.93,9.92,7.62,19.43,14.76,28.76,22.14,11.87,9.37,23.59,18.91,35.36,28.4C550.89,816.66,550.88,816.67,549.53,830.05Zm-26.72-50.38c-4.57-3.53-17.55-12.91-22.17-16.76-8.62-7.15-9.19-6-4.89-19.75,13.57,10.55,26.54,20.61,39.48,30.7C541.82,779,548,784.69,555,789.21c5.72,3.69,6.7,8.43,6.1,14.35-.18,1.77,0,3.57,0,7.37C553.93,804.24,529,784.44,522.81,779.67Zm211,29.59a3.65,3.65,0,0,1-1.59,1.71c-4.41,1.94-9.53,2.37-14.39,3.16-8.23,1.34-16.47,2.58-24.73,3.63-2.52.32-40.26,5.76-56.6,8.35-19.8,3.14-37.75,4.82-57.61,7.57-5.56.77-13.11,2-19.28,2.43,5.18-15.8,6.63-15.82,23.22-18,14.21-1.34,25.17-2.61,37.74-4.11,10.3-1.24,20.57-2.67,30.86-4,13.87-1.78,27.72-3.63,41.6-5.26,9.9-1.17,19.82-2.06,29.74-3a32.84,32.84,0,0,1,6.86-.15l.28,0A5.23,5.23,0,0,1,733.84,809.26Zm-308.06,9.4c-3.25-3-6.25-3.4-9.65-.61-7.52,6.15-21.75,16.18-29.29,22.3-3.18,2.59-3.52,5.07-.18,7.83,5.41,4.47,4.35,4.14,9.4,9,3.55,3.41,25.4,25,31,20.07s11.52-9.52,17.11-14.48c10.08-8.94,16.35-12.49,7.22-22.32C447.11,835.85,430.1,822.6,425.78,818.66Zm472-35.47a96,96,0,0,0,12.88,8.57,7,7,0,0,0,4,.36,2.64,2.64,0,0,0,2.29-3.27,10.06,10.06,0,0,0-2-4.44c-1.72-1.84-4.33-4.37-5.79-5.73,3.74-3.06,4.75-3.38,6.21-5.29.87-1.52-2.32-4.38-1.84-6.32.32-1.27,3.19-3.43,5-5.27a2.79,2.79,0,0,1,3.4-.37c2.78,1.64,6.24,2.72,7.65,1.73,2.87-2.53,3.78-3,7.13-5.75,2.6,3.32,4.33,8.57,6.83,10.73,1.4,1.2,4.6,1.93,5.91,1.12s1.64-4,1.26-5.84c-.47-2.29-2.21-4.3-3.31-6.48-6.09-12.05-8.21-12.65-19.43-5.65-1.5.94-3.83,2.5-4.83,2-5.75-3.75-12.56,3-15.52,6.4-1.46,1.67-2.28,4.73-3.36,7.21.5.29-3.46,4-5.74,5.75C894.5,775.79,892.77,779.44,897.77,783.19ZM1019.88,1119l-20.25-4.62A7.6,7.6,0,0,0,992,1117l-10,12.58a7.54,7.54,0,0,0-1.23,7.21l4.67,13.31a7.94,7.94,0,0,0,7.06,5.3l35.43,2A8.07,8.07,0,0,0,1035,1154l1.1-1.56a6.82,6.82,0,0,0,.18-7.56Zm267.9-231.32,7.36,16.35a14.47,14.47,0,0,0,5.93,6.57l26.68,15.5a5.75,5.75,0,0,0,6.38-.39,2.37,2.37,0,0,0,.79-2.71l-13.5-36.75-6.1-5.77a10.16,10.16,0,0,0-10.17-2.28l-15.42,5.06A3.25,3.25,0,0,0,1287.78,887.64ZM940.54,461.16c.22,2.87,32.7,25.17,36.22,27,12-8.18,16.06-12.83,21.14-15.74s5-6.8.29-10.2c-12.08-8.68-11-7.8-23-16.62-3.27-2.41-6.2-3.08-9.84-.82C958.53,449.07,940.43,459.69,940.54,461.16Zm-18.72,2.21c-7.16-5.5-10.19-7-12.62-4.15-1.55,1.82-2.05,6.69-2.05,11.67-2.08-.86-4.68-2.13-7.4-3-1.58-.51-3.21-.91-4.84-1.29a3.29,3.29,0,0,0-4,3c-.07,1.38-.13,2.74-.08,4.11s.74,2.95,1.74,6.66c-4.1-2.41-6.67-4.14-9.43-5.45-2-.93-4.61-2.3-6.07-1.7-2.21.9-2.3,2.7-2.73,7.11-.22,2.2-.44,4.44-.62,6.62-3.67-1.65-6.06-2.79-8.42-3.69-2.63-1-3.37,1.63-4.19,7.6-.64,4.78-1.52,5.15-5.05,7-7.22,3.8-7.6,8.95-1,13.68q25.49,18.36,51.2,36.41c3.84,2.68,4.85,4.5,4.21,10.14-1.62,14.44-3.67,25.93-4.47,32.17-.83,6.44-5.53,31.23-6.48,35.29-2.18,9.36.9,16.7,9.8,18.44,17.49,3.42,35.14,6.14,52.82,8.39a12.76,12.76,0,0,0,14.23-10.87c3-21,6.36-41.87,9.36-62.84,2.11-14.74,3.76-29.56,5.84-44.31.32-2.25,4.59-16.11-4.28-24.88C986.74,509,921.85,463.34,921.82,463.37Zm-6,2.43c16.6,12.43,46.62,36.66,63.06,49-1.49,2.21-5.91,3.47-8.7,3.47l-52.43-40a11.47,11.47,0,0,1-2.34-4C914.57,471.41,913.09,466.51,915.78,465.8Zm-17.35,7.49c17.74,13.44,45.81,36.34,63.51,49.75-3.48,1.36-7.86,6.3-14.46,1.32-8.27-6.26-15.17-13.11-23.35-19.42-6.44-5-17.56-14.84-24.22-20.13C898.6,482.51,896.11,473.92,898.43,473.29Zm-12.15,9.41c1.07,1.28,47.08,40.27,57.59,48.62,1.9,1.69-4.43,3-5.9,3.15-4.91.62-12.17-5-15.57-7.94-5.1-4.38-28.69-25-39.38-34.51C882.56,488.17,880.75,476.07,886.28,482.7ZM889,518.24c-5.35-4.23-16.74-15-22.07-19.34-.84-3.11-3.28-13.62,3.1-7.5,1.18,1.65,25.8,22,27.61,23.37,5.71,4.48,8.38,7.29,14.12,11.76,1.58,1.23,4.44,3.7,6.21,4.79,2.93,1.82,7.19,5.8,10.17,7.8-8.19,1.66-12.27,1.84-16.73-2.28C906,531.78,895.07,523,889,518.24Zm30.87,106.28c2.37-15,5.59-38.54,6.91-47.94,1-7,2.16-14,2.76-21,.67-7.76,1.45-7.4,10.73-9.63-3.49,29.52-7,58.87-10.44,88.26C918.89,632.65,918.75,631.87,919.91,624.52Zm17.44,9q5.5-46.28,11-92.11l10.14-3.86c-3.82,32.82-7.54,64.72-11.3,97ZM979.27,539c-1.73,12-3.48,23.9-5.56,35.83-1.71,9.85-6.84,44-7.73,49-.53,2.93-.73,6-2.27,8.72-.46.81-2.12,1.33-3.85,1.84a3.38,3.38,0,0,1-4.09-2,6.64,6.64,0,0,1-.29-.93,13.66,13.66,0,0,1-.1-4.09c.49-6,.94-11.9,1.63-17.84,1-8.34,2.11-16.67,3.2-25,.8-6.18,1.71-12.37,2.45-18.56.89-7.55,1.37-15.17,2.33-22.65,1.14-8.79,1.29-10.84,14.88-14.69C979.68,532.31,979.76,535.68,979.27,539Zm374.09,453.09c-.89-11.05-3.6-22.17-2.8-33.06.52-7.09.94-12.78-1.26-20.17-5.92-20-8.51-40.86-13.27-61.18-1.83-7.83-1.64-16.8-9-22.7-2.71-2.17-6.29-4.75-7-7.71-2.52-11.18-4.09-22.58-5.86-33.93-2.19-14-5-28-6-42.14-.75-10.13-8.45-21.36,2.75-30.67.86-.72.62-3.08.47-4.63q-1.25-12.13-2.74-24.24c-1.16-9.33-2.17-18.44-8.85-26.29-3.14-3.7-4.39-9.81-4.71-14.94-.69-11-10.55-109.7-11-116.48-.38-5.59-2.84-8.46-6.45-11.23s-7.63-4.79-11.09-7.61c-2-1.62-4.19-4-4.59-6.34-3.5-20.42-6.55-40.92-9.91-61.37-.79-4.85-2.44-8.9-7.34-12-23.91-15.06-47.51-30.61-71.15-46.11-20.5-13.45-40.89-27.09-61.36-40.59-9-5.9-17.6-12.29-28.84-13.55-7.81-.88-15.55-2.49-23.28-4-12.12-2.36-24.14-5.35-36.34-7.18-6.35-.95-11-3.19-14.44-8.6-4.89-7.69-10.73-14.46-18.83-19.18-12.66-7.37-25.21-14.92-37.54-22.84-7.26-4.66-13.39-3.15-18.72,3.25-8.29,9.94-11.44,19.77-2.72,30.81-12.26,12.17-23.74,23.54-35.2,35A226.75,226.75,0,0,1,870.86,384c-19.16,14.15-35.81,31.53-53.49,47.6q-12.12,11-24.5,21.72-25.44,22.13-51,44.11a30.68,30.68,0,0,1-6.55,4.76c-9.89,4.68-19.64,9.9-30,13.35-7.43,2.48-9.23,7-7.51,13.11,1.44,5.16.14,7.51-4.12,10.28-9.17,6-7.91,17.71,2.07,21.39.7.26,1.14,1.23,1.7,1.87-5.89-.67-11.14-2.35-16.42-4-11.87-3.62-17.1,1-15,12.46,2,10.51,4.63,21.24-7.3,27.25-1,.49-3.68,1.31-4.73,2.25-6.43-3.24-13.62-5.49-19-9.93-6.54-5.4-11.36-3.23-17.75-.32-20.77,9.49-99.32,51.79-99.51,51.9-19.62,11.24-39.05,22.82-58.88,33.66-32.6,17.81-65.48,35.12-98.22,52.68q-27.24,14.61-54.42,29.35c-10,5.45-19.8,11.41-30,16.54Q241,791.85,205.44,809c-4,1.95-8,6.23-13.24,1.28a120.28,120.28,0,0,0-16.28-13.3c-2.15-1.41-6.82-1.55-8.84-.14-7.6,5.32-7.67,12-.61,19.2,3.8,3.9,8.13,7.28,11.31,10.08-1.44,4-2.55,5.95-2.85,8.06-1.11,7.83-1.7,15.73-2.92,23.54-4,25.57-8.18,51.12-12.32,76.68-3.63,22.44-7.44,44.86-10.73,67.35-.37,2.52,1.32,6.38,3.34,8.06,15.49,12.82,31.34,25.21,47,37.84,12.5,10.08,24.85,20.34,37.31,30.49s24.61,20.13,37.06,30c14.21,11.28,26.24,25.73,44.18,31.64,8.64,2.85,17.66,4.57,26.5,6.84,9.23,2.38,18.41.52,27.67.25,16.21-.46,32.47,1.26,48.68.9a30.08,30.08,0,0,1,23.59,9.6c4.67,4.74,10.07,8.32,17,8.53,16.92.52,33.84,1,50.77,1.35,2.85.06,5.75-1,8.58-.82,14.24,1.07,28.46,2.34,42.68,3.66,8.11.76,16.18,1.84,24.28,2.64,10.38,1,20.77,2.59,31.16,2.68,16.27.14,32.54-1.14,48.81-1.11,19.22,0,38.44.78,57.66,1.33,3.14.09,6.28,1.25,9.38,1.1,5.13-.25,12.17.71,14.92-2.17,5.88-6.15,12-6.19,19.36-6,28.87.75,57.75,1,86.62,1.51,19,.36,38,1,57,1.3,4.87.08,9.44-.38,12,5.26.71,1.55,3.58,2.7,5.61,3,8.73,1.17,17.5,2.39,26.29,2.78,25.79,1.15,51.6,1.83,77.38,3a49.25,49.25,0,0,1,12.43,2.64c7.31,2.29,14,2.29,20.5-2.59a16,16,0,0,1,8.72-2.79c14.48-.27,29,.28,43.43-.36,4.59-.2,9.6-2.39,13.45-5.07,7.59-5.27,14.55-11.47,21.7-17.36a132.79,132.79,0,0,0,10.26-9c4.39-4.44,1.94-13-4.54-18.08-8-6.3-15.8-12.89-24.5-20l126.18-101.34c10.25,6.56,20,12.67,29.56,19,9,5.94,12.92,6.4,21.42,0,13.34-10,26.38-20.53,39.26-31.17C1353.16,997.9,1353.55,994.45,1353.36,992.11ZM1315,854.89c3.22,1.84,10.57,5.51,12,11.09s12,52.36,14.26,60.63,1.84,12.42,0,12.17-53.88-28.53-55.41-32.91c-5.67-16.22-6.11-27-9.22-33.76-2.13-4.63-22.07-17.65-19.45-18.89,7.69-3.64,28.86-16,33-14.11S1311.76,853.05,1315,854.89ZM1003.51,1028l7-17.12a8.24,8.24,0,0,0-.23-6.75l-7.94-16.22c7.56-1.33,19.11-3.38,29.63-5.32l11.89,32.16c-5.47,4.2-11,8.33-16.62,12.29-4.83,3.39-5.27,6.2-2.16,10.42a67.37,67.37,0,0,0,5.52,6.84c14,14.5,63.12,64.85,67.72,71l.3.38c-9.46,7.4-20.55,15.9-22.5,16.66-3.44,1.35-34.66-26.85-35.61-27.7l0,0h0c-1.56-1.44-4.17-2.55-7.23-3.45-4.9-9.57-19.07-37.31-34.9-68.34A8.25,8.25,0,0,0,1003.51,1028Zm-7.67-3.11-37.18-76.1,21,11.73,23.15,47.25Zm36.53,8,12.68-8.52c4,1.84,12.78,13.62,15.74,17.17,6.17,7.42,26,27.79,29.36,31,6.14,6.06,12.4,12.15,17.54,19,2.3,3.09,5.93,6.17,5.83,10.29a5.81,5.81,0,0,1-1.81,3.39l-6.61,5.24Zm77.87,42.34c-9.25-9.88-17.79-20.41-26.93-30.4-6.09-6.66-12.77-12.78-19-19.27-.85-.89-7.34-7-8.21-10.64,1.06-.9,7.42-5.85,10-8l71.33,75.45c-3,3.74-10.52,10.75-15.35,4.93C1121.45,1086.49,1113.82,1079,1110.24,1075.2Zm-19-54.24c-6.22-6.57-13.38-12.35-18.91-19.43-3.49-4.48-5.48-4.9-9.68-1.57-4.36,3.45-8.71,6.91-13.08,10.34l-11-28.93c7.88-1.47,14.41-2.76,17-3.42,8.85-2.23,70.39-52.7,80-60.12s8.2-8.29,10.25-11c.7-.94,2.42-4.95,4.37-9.82l29.5,11.33q-8.16,6.6-16.28,13.26a5.52,5.52,0,0,0-.49,8.22q25.49,26.51,50.83,53.14l-89.78,73.18C1113,1044.47,1102.22,1032.6,1091.23,1021Zm90.29-83.66c-3.3-3.41-6.1-7.31-9.82-11.83,2.1-1.18,10.15-7.78,12-8.79,3.14,2.37,18.06,19.27,22.14,23.93,6.75,7.71,40.11,42.77,46.06,48.81,1.44,1.46-2.63,5.09-6.39,7.4-3.67,2.56-3.67,2.56-7.87-1.83C1219.05,975.63,1200.17,956.57,1181.52,937.3Zm2.44-32.46-32.09-12.2c3.27-8.38,6.57-17.31,6.57-17.31l-1.74-1.53,13.77,9.69a8.3,8.3,0,0,0,4.76,1.51l.6,0c.2,0,4.88-.36,9.67-1,6.56-.91,15.54-2.15,16.44-10.06.68-6.06-4-8.91-12.38-14.09-4.64-2.85-11.1-6.62-19.2-11.21-13.7-7.77-27.62-15.34-27.76-15.41a8.26,8.26,0,0,0-9.55,1.17,8.29,8.29,0,0,0-2,9.41l6.63,15.18a8.32,8.32,0,0,0,2.82,3.45l12.42,8.75c-1.48,3.86-11.43,29.81-12.74,33.6-1.41,4.1-74.69,62.11-85.62,65.87-8.41,2.88-41.11,8-55.75,10.22l-11.73-24a8.25,8.25,0,0,0-3.4-3.59l-21-11.73a8.26,8.26,0,0,0-9.72,1.22c-.12.11-.21.24-.32.36-6.76-13.33-11.3-22.38-12-23.87-3.19-7.15-20.42-10-24.59-12.62-1.59-1,28.3-24.53,30.12-24.47,1.41.05,7.85.92,10.65,1.31a72.26,72.26,0,0,0-1.6,7.17c-1.46,7.73-2.18,15.9-.13,23.5,2.36,8.78,12.25,19.57,13.19,20.17,8.35,5.33,21.45,17.23,51.59,26.27a51,51,0,0,0,5.77,1.48c15.24,2.68,21.53,6,32.2-.68,4-2.52,7.73-4.7,7.29-10.37-.11-1.37,1.26-3.27,2.49-4.25q20.44-16.15,41.11-32c3.52-2.72,9-8.05,10.72-7.09,8.71,5,11.61-2.55,14.78-6.56,3.87-4.91,4.41-21.21,3.13-31.65a126.69,126.69,0,0,0-6.09-20.93c-9.27-18.68-9.41-25-26.82-38.57-9.74-7.58-20.44-10.65-32-12.06-1.61-4-3.67-9.1-5.11-12.69,3.14-3.27,9-9.12,11.09-9.51,1.78-.34-2.11,14.11,4.7,17.8,8.63,4.67,184.71,113,201.78,123.54,5.83,10.45,16.37,29.63,15.7,31.26-.53,1.28-12.11,11.66-21.75,20.16Q1266,956,1253.64,943c-15.81-16.48-31.4-33.18-47.31-49.56-1.29-1.33-5.27-2.06-6.49-1.12Q1191.83,898.49,1184,904.84Zm-38.68-49.21-6.63-15.17S1194,870.54,1193.71,873s-18.48,3.75-18.48,3.75Zm-48-20.23c-3.73-8.34-9-11.48-16.19-14.44-5.37-2.22-4.43-7.34-4.77-12,34.5,1.22,56.31,54.55,52.1,81.58a2.47,2.47,0,0,1-4.63.72C1114.44,873.45,1105.41,853.68,1097.23,835.4Zm12.4,67.9a195.78,195.78,0,0,0-47.53,36.35c-5.13,5.31-7,4.68-10.06,1.69-12-11.67-24.12-23.16-36.07-34.85-.57-.56-1.54-1.24-2.54-2a4.38,4.38,0,0,1,0-6.84c1.41-1.14,2.89-2.19,3.8-2.88q31.83-23.94,63.88-47.58a7.54,7.54,0,0,1,11.42,2.52c7,14.09,13.84,28.27,21,42.29C1115.81,896.54,1116,899.86,1109.63,903.3ZM1081.85,834l-22.2,16.71c-15.47,11.68-30.84,23.5-46.48,35-2.85,2.09-6.76,2.72-10.57,4.18-1.77-8.19-3.46-15.13-4.65-22.16a6.34,6.34,0,0,1,1.83-5.18c16.46-12.19,33.06-24.18,49.67-36.17,1-.7,2.43-1.61,3.34-1.34C1062.52,827.79,1072.17,830.93,1081.85,834ZM999,905.63c1.73,0,3.53,1.72,5.18,3.2,1,.87,1.93,1.76,2.86,2.68l41.14,40.83a2.74,2.74,0,0,1-2,4.69,58.54,58.54,0,0,1-8.91-.78c-10.53-2-17.62-2.87-27.5-6.71-10.5-4.07-21.84-11.17-31.17-17.6-4.07-2.8-8.4-8-11.43-12.41-6.82-9.89-7.38-18.39-2-33.32h25c.59,3.61,1,7.14,1.78,10.59C992.84,900.8,992.57,905.57,999,905.63Zm54.07-368.1c-4.87-5-13.85-11.52-14-19.29-.75-41.18-1.39-75.76-1.6-87.21,5.74-3.83,16-19,20-18.48,2.07,1.47,18.15,10.16,23.86,12.72,12.07,5.4,24.16,10.78,36.21,16.24l19.86,9.52-12.85,85.32a34.49,34.49,0,0,0-3.4,3.56c-6.09,7.23-62.23,72.6-71.7,83.62,2.39-24.91,5-52.17,7.51-78.3C1057.41,540.9,1055.67,540.17,1053.1,537.53Zm6.3-152.14c1.83-.64,27.6-5.92,29.14-5.68,9.31,1.48,15,10.48,23.91,22.09l17.3,26-4.83,9.77-35.07-16c-10.09-5.32-23.3-19.91-25.82-24.93C1063.35,395.27,1060.28,387.24,1059.4,385.39Zm69.15,153.3,38,.11c11.94,22.81,23.62,45.76,35.37,68.69q11.58,22.6,23.09,45.25l-8.43,20.54a5.73,5.73,0,0,0,0,4.27c2.41,6.05,9.47,24,15.63,40.79,2,5.46,1,4.09-3.21,24.27l-35-77.67a6.89,6.89,0,0,0-6.28-4.06H1175a5.08,5.08,0,0,1-4.62-3l-15.13-33.06-5.78,3.07L1207,788.15l15.42,4.54c-6.16,14.9-8.42,18-4,26.64,6.83,13.13,19.08,35.56,19.1,39.1,0,5.53-119.81-61.14-120.84-63.36-1.63-3.59-8.92-23.1-11.83-30.07-1.45-3.46-3.63-4.89-4.06-4.89-5.41,0-11.18-.1-17.92.12-3.45.11-24.85-78.21-24.61-79.58.2-1.11,64.83-41.53,89.29-56.86l0,.06,9.07-5.75,6.23,13.56s13.24,1.62,13,0c-.53-4.33-24.51-64-32.74-84.36a3.25,3.25,0,0,0-5.94-.2l-9.69,19.84a10.1,10.1,0,0,0-.84,6.51l0,.09c.93,4.41,13.5,33.48,18.66,45.33-11.58,6.61-32.93,19.18-48.4,30.5-8.72,6.39-37.18,23.47-42.78,28.51l-9.9-.42c1.21-12.6,2.64-27.49,4.19-43.65C1066,612.28,1126.24,538.69,1128.55,538.69Zm99.06,119.22q8,15.74,16,31.48,11.92,23.4,23.83,46.82c5.1,10.07,7.14,10.87,18,6.71,7.76-3,11.32-.37,12.24,7.77,1,8.65,2.31,17.27,3.62,25.88l-14.8,9.08a6.73,6.73,0,0,1-7.78-.52l-46.54-37.83,6.11-27.13-15.54-43.09a7.66,7.66,0,0,1,0-5.11Zm-173.36,25.15c7.82,31.12,20.46,72.09,23.93,79.81.71,1.59,2,2.73,7.35,2.56,8.47-.26,12.91-.08,14.77.26.38.07,7.19,17.87,10,26.94,2.05,6.49,4.06,7.37,6.94,8.93,38.89,21.1,109.07,59.53,114,61.14,6.28,2,10,1.36,11-3.12s-17.22-38.41-20.43-46.69c-1-2.55,1-6.49,5.81-18.64L1268,806.12a8.53,8.53,0,0,1,5.3,4.55l10.42,22.08c-7.6,4.43-15.71,8.72-31.56,18.06-.79.46-3.51,2.93-1,5.14,21,18.33,17.45,14.26,21.94,20.16.51.67,5.2,24.16,7.66,31.18C1249,887.9,1089.23,791.54,1086.1,789.41c-2.54-1.74-2-1.74-3-14.74-.27-3.57-2.21-7.26-8-3.08a51.4,51.4,0,0,0-9.48,9.25c-2.56-5.65-4.24-5.4-7.35-5.4-3.44,0-13.7,4.77-15.07,4.29-3.42-1.2-29.39-29.73-28.72-40,.48-7.19,3.91-13.42,8.25-14.06,3.23-.47,5.48.11,12.56-.1,5.33-.16,4.65-.24,5.24-8.27,0-.5,1.41-12.74,3.51-34.7C1046.82,682.87,1052.09,683,1054.25,683.06ZM1271.8,549c1.93,1.5,3.93,3.8,4.43,6,1.26,5.71,1.71,11.6,2.46,17.42.07.6,8.57,76.73,9.22,85.93.29,4.76-.39,5.38-2.41.34l-21.44-50.54c2.4-2.89,6.15-6,5.65-7-2.73-5.5-6.51-10.48-9.93-15.65l-10.61,8.1c-10.5-8.22-22-17.37-33.68-26.16-1.13-.85-3.11-.56-5-.41a1.51,1.51,0,0,0-1.39,1.67c.18,1.63.28,3.33,1.19,4.09,10,8.43,20,17,30.68,24.6,9.86,7,16.77,15.22,21,26.8,7,19.17,15.51,37.79,23.4,56.64.44,1,.76,2.33,1.56,3,10.87,8.71,12.16,21.58,14.77,33.84,1,4.8,1.49,9.73,2.13,14.06L1276.45,736l-112-217.88,11.49-5.7c8-4.16,17.37-9,24.08-12.45,2.59,5.42,4.78,10,7,14.55-6.69,1.77-12,.23-15.07,8.52-1.43,4.15-2.75,9.62,0,13.17,7.13,9.18,16.93,9.7,20,10,13.59,1.56,22.28-.24,23.49-8.7,1.16-8.07-9.41-13.57-14.87-18.19-2.21-1.87-3-5.42-4.51-9.21a.44.44,0,0,1,.67-.53c11.76,8.22,22.9,15.93,33.94,23.77C1257.75,538.45,1264.87,543.61,1271.8,549Zm-145-160.78q18.08,11.59,36.08,23.27c23.93,15.59,47.72,31.41,71.8,46.77,6.19,4,9.64,8.7,10.64,16,2.31,16.92,5.15,33.76,7.85,51.13L1218,500.74c-3.68-2.59-7.13-5.64-11.1-7.65a13.31,13.31,0,0,0-2.16-.85c-5.82-10.8-18.4-34.16-19.52-36.57-.75-1.62,9.64-3.95,11-4.56s-4.41-12.63-5.55-14.22-52.6-36.35-62.16-42.91c-.89-1.42-1.92-3-3-4.46A.91.91,0,0,1,1126.76,388.23Zm3.13,11.58L1185.78,439l3.6,6.43a2,2,0,0,1-1.12,2.86c-3.1,1-8.37,2.86-9.72,4.33-1.52,1.65,12.9,28.31,19.27,39.88-12.34,5.76-24.45,12-36.6,18.2-5.48,2.78-6.33,6.05-3.18,12q3.2,6,6.35,12.07c-6.06-.34-16.77-.83-27.72-.83-2.86,0-4.86-.29-6.67-.12,2-13.46,10.9-74.5,11.59-81.21.35-3.39-.5-4.71-3.5-6.08s-6.93-3.29-9.6-4.6c.38-.62.79-1.34,1.24-2.23a104.78,104.78,0,0,1,6.85-12c-2.26-4.35-7.62-11.31-13.31-19.46C1126.17,405.47,1128.93,402.5,1129.89,399.81Zm-106.84-26.9c1.35-.33,48.06-12.74,61-9.29s38.6,17.3,35.56,19.9c-1.07.91-2.17,1.94-3.26,3-2.69-2-3.75-3-7-5.26a49.62,49.62,0,0,0-19-8.27c-1.87-.33-9.33.19-12.39.7-12.82,2.18-23.77,4.53-37.74,6.74,4.74,9.19,9.28,18.29,13.58,26.35,0,0-14.08,17.56-21.56,20.22-7.94-2.76-45.1-21.08-45.1-21.08S1021.7,373.23,1023.05,372.91Zm10.36,58.93,1.42,86.4,1,6.35a10.24,10.24,0,0,0,2.42,5.12l13.1,14.88-15.33,175.15a83.85,83.85,0,0,1-11.13-.24c-5.21-.33-10.93,2.66-14.18,7.7-9.44-5.72-46.78-25.28-52-26.09-4.79-.74-30.41-.24-41.91-1.24-10.22-23.42-25.37-45.81-33.76-53.26l-1.29-1.14c-.63-3.17-.25-7.34.74-11.73,5.7-25.38,8.66-44.18,11.78-59.78s.45-24.12-5.46-28.68c-4.49-3.45-47.68-31.37-69.93-46.2,14.51-7.17,29.11-14.18,43.55-21.49,16.6-8.39,100-51.7,101.19-52.37,6.81-3.87,13.4-8.38,20.68-11C987.62,413.07,1022.11,430.4,1033.41,431.84ZM807.82,534.5c-1.44-.84-13.07-8.3-25.53-16.32,8-4.34,16-8.76,24.12-12.88,2.66-1.34,5.33-2.66,8-4,22.88,15.21,64.47,43,70.11,47.5,7.24,5.8,7,15.4,5.62,23.2L815.41,557.6c-2.32-.44-4-3.47-4-5.84l1-12.48C812.41,537.74,811.07,536.37,807.82,534.5Zm-.85,4.37-.78,15c.06,3.56,3.57,7.6,7,8.33l75.94,14.65c-.18.84-.36,1.64-.52,2.38-6.19,28.41-8.59,42.28-11.32,56.08a55.14,55.14,0,0,0-.84,5.65C854.26,621.6,787.26,564,752.1,533.76q9.07-4.57,18.14-9.2,4.15-2.13,8.28-4.35Zm124.82-211c.12.22.09.46,0,0ZM815.24,443.58q12.18-10.93,24.42-21.79c11.24-9.92,22.43-19.9,33.86-29.59,3.92-3.32,8.19-7.16,12.9-8.35,4.21-1.06,9.44.65,13.9,2.11,12.74,4.18,25.35,8.79,38,13.35,10.77,3.89,21.47,7.94,32.83,12.14-17,8.89-82.14,44.21-98.66,52.15-18.62,9-36.84,18.74-55.45,27.71-2.07,1-6-.25-8.33-1.71-8.5-5.38-16.66-11.29-25.33-17.26Q799.25,458,815.24,443.58Zm-42.31,36.69c3.37-2.93,5.39-1.68,8.79,1.27,5.9,5.13,13.21,8.63,19.92,12.82,1,.59,1.88,1.23,2.45,1.6-10,5.59-20,11.28-30,16.92l-22-14.21Q762.42,489.39,772.93,480.27Zm-23.59,20.82,21.09,13.82q-12.21,6.86-24.55,13.5l-13.52-11.62C738,511.53,743.58,506.29,749.34,501.09Zm-43,40.09,4.26,3.53q-3.71,1.53-7.39,3.09c-1.43.6-2.51-.3-3.57-.47Q703.05,544.25,706.36,541.18Zm.26,32.83c2.86-2,4.63-2.33,7.28.44,7.46,7.78,15,15.54,12.47,27.54-.53,2.51-1.69,7-9.21,8-12.84,1.81-34.11.06-52.38-8C679.09,592.51,692.93,583.38,706.62,574Zm-69,28.89c11.45,7.62,29.28,13.85,49,16,9.2,1,13,1,22.83.53a70.73,70.73,0,0,0,18.55-3c2.42-.8,4.88-5,5.28-7.88,2.57-19.05-1.19-36.2-16.68-49.24-2.06-1.73-4.15-3.42-5.91-4.86l7.32-3.66,118.81,98.53,8.27,24.81,74.43,53.41a3.59,3.59,0,0,0,5.58-3.76,137.4,137.4,0,0,0-6.3-19.14c10.8.6,34.9,2.4,39.44,2.69,5.17.33,43,19.79,50.53,24.08a17.24,17.24,0,0,0-.33,8.32c2.49,12.44,5.39,17,18.18,32.16,4.38,5.21,12.05,14.13,16.49,14.06s14.43-6,16.45-3.33c1.79,2.37,5.61,11.65,7.08,18.4a11.18,11.18,0,0,0,.44,2.37h0c1.42,5,1.55,10.3,2.31,15.94-5.69-1.89-10.31-3.74-15.1-4.86a8.62,8.62,0,0,0-6.34,1.17c-17.87,13-35.68,26-53.19,39.49a15.1,15.1,0,0,0-5.28,9.43c-.43,4,1.37,8.3,2.33,13.1H971.67c-2.7,0-4.87,0-6.64.09h0c-.78.05-1.49.11-2.13.2A56,56,0,0,1,941,875.15c-1.88-.67.74-3.19,2-5.38,5-8.28,6.17-16,2.75-20.31-2.72-3.38-55.76-36.26-81.48-24.35a4.52,4.52,0,0,0-1.16-1.21c-3.18-2.36-27.67-20.83-30.68-24.07-.93-1,3-23.49,4.61-34.82,12.19,1.34,23.08,2.42,31.19,3.18a3.46,3.46,0,0,0,2.11-6.4l-87-53.11-32,2.76L625,613.32ZM270,1022.81c4.09-5.76,8.22-11.48,12.17-17l.09,0c3.78,2.63,6.75,5.11,10.12,6.81a6.88,6.88,0,0,0,6,.06h0l30.82-14.35a23.41,23.41,0,0,0,3.42,5.64c2.55,3.28,33.23,1.07,77.38-3.4,18.49-1.87,39.35-4.73,61.5-6.21-.7,3.9-.74,9.7-.59,15.62.21,8.19.18,13.87.75,17l-13.67-4.4a57.68,57.68,0,0,0-9-2.4c-1.81-.26-4.31-.13-5.58.93-7.7,6.37-15.17,13-22.64,19.67-9,8-17.94,16.13-27,24.16a14.42,14.42,0,0,0-2.78,3.14c-9.92-1.35-36.05-4.88-39.36-4.95-4.1-.1-3.64-.31-9.45,5s-11.06,10.48-11.06,10.48-11.27-.26-22.75-1.15c-1.43-2-32.3-31.63-49.66-48.25A15.92,15.92,0,0,0,270,1022.81ZM260,980.6c13.16-15.2,27.33-28.31,41.3-42.7,8.35,19.45,15.83,35.51,23.51,52.89.88,2-.42,2.45-.42,2.45l-29.31,12.35c-.17-.64-14.35-10.92-15.35-11.56C273.18,989.8,266.81,985.27,260,980.6Zm76.57,19.15c-1.78-3.57-6-13.6-6.2-14.06-6.24-14.84-26.63-63-26.63-63s21.41-6.33,33.75-10.53c0,0,51.17-6.51,159.52-24.91,7.3-1.24,37.35,10,44.65,8.73,10.42-1.78,48.45-6.62,89.55-11.79-26.06,16.47-143.06,94.95-156.82,104.92C457.33,990.18,338.34,1003.27,336.58,999.75ZM544,887.27c-6.23.77-30.72-10.69-48.67-7.6-68.05,11.68-135.07,22.46-150.62,25-3.54-10.41-12-32.77-14.08-38.35-1.08-2.91-2.48-5.7-3.18-7.28L520,700c13.58,11.41,36.26,30.26,42.1,34.06,8,5.22,26.71,12.5,49,9.31,13.65-2,57.43-8.8,91-13.77,12.44,8.33,23,14.57,29.85,17.18,19.68,7.43,64.71,13.66,100.52,17.71-1.46,9.48-5.86,32.8-4.77,37,1.37,5.17,28,22.7,32.91,25.84-1.72,1.26-2.77,4.37-4.57,7.91-2.41,4.76-4.55,10.19-6.73,14.59C848.36,851.7,678.22,870.65,544,887.27ZM524.25,696.49l35.28-29.13c10,7.83,18.72,14.22,20.35,14.06,5.81-.57,21.52-2.5,25.62-2.5s7.28,3.82,8.19,8c.78,3.53,3.73,39.58,4.59,50.22-4.52.66-7.92,1.14-9.78,1.37-7.23.89-22.51.27-40.3-7.52C562,728.23,539.06,709.13,524.25,696.49ZM626.2,595c.73-.39,2.32.82,3.61,1.33-4.06,3.8-8,7.65-11.94,11.46l-6.34-4.92C616.42,600.27,621.31,597.63,626.2,595Zm69.94,130.54c-25.38,3.68-54.67,8.13-72.58,10.77-1-10.33-4.44-46.77-4.75-50.63-.36-4.51-5.91-11.34-11.38-11.34s-27.32,2.74-27.32,2.74l-16.64-13,25.28-20.88C615.17,664.71,661.55,701.73,696.14,725.56ZM568,626.21c.07,0,5.65,4.7,14.77,12.16-8.7,6.84-17.51,13.56-26.29,20.3l-19.93-15.56Zm-35.66,19.17c5.16,4.27,12.61,10.4,20.11,16.4q-5.41,4.17-10.79,8.39c-6.58,5.18-12.62,11.07-19.26,16.17-1.48,1.14-5,1.23-6.64.24-5.19-3.09-23.35-17.31-25-18.83ZM312.82,762.51c5.23-3.33,10.84-6.1,16.35-9C363.4,735.68,397.68,718,431.86,700c15.23-8,30.2-16.51,45.41-24.55,2.75-1.46,5.43-2.19,9,.72,8.31,6.85,17.5,12.62,27.31,19.52L328.47,847c-1.84-3.07-30.61-56.28-37.71-69.31C298.49,772.3,305.5,767.17,312.82,762.51ZM165.67,997.91l92.86-101.64,59.66-35.64,17.48,43.62-40.05,13.42,2.92,8.27c-14.6,11.14-22,16.63-38.32,29.86-7.8,6.31-14.85,13.52-21.91,20.64-3.19,3.23-1.57,8.71,1.85,10.19a103.93,103.93,0,0,1,9.66,4.76l-10,10.08q-4.31,4.35-8.2,9.1l-24.26,29.61Zm181.56,130.66c-8.42,0-16.86-1.47-25.24-1.11-8.15.34-14.27-2.77-20.24-7.68-22-18.11-44.28-35.9-66.26-54q-11.93-9.83-23.7-19.82l26.94-34.11c-.83,3.76.84,6.69,3.9,9.75l-.15.12,63.42,61.54,26,.6,18.44-16.4,39.79,5a9.31,9.31,0,0,0,1.72,3.71c11.59,16.33,22.9,32.87,34.27,49.36a15.55,15.55,0,0,1,1.49,3.18C400.78,1128.64,374,1128.74,347.23,1128.57ZM743,1162.9c-.64,1.08-3,1.58-4.61,1.54-15.77-.34-31.63,0-47.25-1.74-6.29-.72-12.65-5.49-17.89-9.75-6.83-5.57-14.81-7.08-22.79-9.11s-16.1-3.89-24.12-6q-20.16-5.22-40.29-10.61c-13.19-3.53-26.36-7.15-39.54-10.73-12-3.26-19.74,3.84-20.33,6.69-.5,2.39.87,6,2.67,7.85a22.06,22.06,0,0,0,9.2,5.41,18.72,18.72,0,0,0,6.11.42,2.47,2.47,0,0,0,2.1-3.57c-.7-1.43-1.4-2.85-2.14-4.26-.85-1.61.25-2.44,6-.85l92.15,23a.84.84,0,0,1-.1,1.65c-11.9,1.47-24.54,2.88-37.05,5-4,.67-4,5.38-7.76,7.43.32.5-37.25-3.3-54.54-5,.19-.49-74.12-8-84-8.35a9.35,9.35,0,0,1-6.47-3.14c-10.39-14.37-20.5-28.94-30.61-43.51-6.55-9.42-12.73-19.11-19.5-28.37-3.26-4.46.76-10.93,5.84-13.62,5.43-5.07,10.56-10.06,15.91-14.8,6-5.33,11.93-10.82,18.44-15.48,2.67-1.91,7.19-3.31,10.14-2.44,29,8.51,57.93,17.46,86.81,26.48q50.34,15.72,100.59,31.77c29.65,9.53,59.19,19.42,88.78,29.13,11.22,3.68,22.46,7.28,34,11C756,1140.84,749.66,1152,743,1162.9Zm83.65-19.46L806,1160.64l-50.53-1.14c4-7.6,8.18-15.36,12.34-23.1,1.17-2.17,2.6-4.22,3.63-6.45,1.82-4,.14-6.86-3.68-8.07-26.69-8.45-53.43-16.7-80.11-25.17-.56-.17-6.7-2.15-16.63-5.36l27-16a14.42,14.42,0,0,1,11.24-1.48l34.15,9.62a24.87,24.87,0,0,0,16-1.5c11.05-5,30.14-14,37.89-17.34a10.11,10.11,0,0,1,5.16,5.22l26.84,62.85A9.26,9.26,0,0,1,826.69,1143.44Zm35.93-103a9.61,9.61,0,0,0-7.82-8.1l-229-40.67-3.45,6.22a2.69,2.69,0,0,0,1.18,3.73l15.8,6.35a13.51,13.51,0,0,0,2.42.73l28.19,5.81,5.52,20.38,110,26.74c-14.45,7.16-32.18,15.14-33.18,15.53-4.23,1.65-39.16-13.68-53.11-8.55-6.08,2.23-27.44,15.37-35.56,20.42-45.41-14.66-143.11-46.19-186.33-60.12,0-8.13-1-33.74.78-36.19l.09-.1a7.29,7.29,0,0,0,1.52-1.18c15.38-11.25,135.2-90.75,161.94-108.49,47.44-5.95,96.2-12,109.49-14.12,0,0,21.16-2.39,44.05-5.14V879s-113,19.86-124.89,24.64c-1.9.76-8.71,4.31-11.81,9.5-15,25.1-35.26,59-45.2,76.12-14.18-3.93-63.79-17.67-70.86-19.15-8.8-1.84-15.71,3.65-15.71,3.65l-28.12,17.52a2.76,2.76,0,0,0,.77,5c26.32,6.77,127.46,32.65,134.26,32.65,2.47,0-2.3-18.39-2.3-18.39l-17.67-5.4a3,3,0,0,1-1.9-4c5.51-9.32,43.44-72.12,47.72-79.38,7.51-12.72,13.16-13.4,22.18-14.83,13.62-2.17,55.21-11.42,61.31-11.89,3.89-.3,45.23-7.71,54.81-9.4l91.28,30.6c1.07.18,1.91,2.76,1.69,3.81-1.43,6.74-1.68,7.29-2.93,13.62-.39,2,.75,5.2,14,8.62,8.86,2.28,21.23,6.15,27.89,9.54a12.75,12.75,0,0,1,2.91,2.41,4.66,4.66,0,0,1,1,1.52c6.36,16.44,42.2,94.73,45.39,102.63,2.08,5.15,5.25,10.93-8,2.73s-45.69-23.6-58.37-29.95c-11.59-5.81-16.55-2.61-29.69,8-6.35,5.15-12.79,11.17-18.22,16.18Zm47.43,69-40.82-22.19-3.44-24.37c9.12-7.67,19.58-18.74,24.62-22.68,9.34-7.28,12.74-7.47,19.81-4.32,4.72,2.1,48.09,23.89,64.09,33,8,4.52,15.76,0,11.54-9.49-23.37-52.49-46-106.1-47.85-109.11-2-3.19-29.67-11.51-40.17-14.57a4.45,4.45,0,0,1-3.1-5.23l2.21-10c1.31-6.87.13-8.59-4.77-9.35L800.69,879l-.08-16c20.36-2.47,40.89-5.11,48.17-6.53a8.46,8.46,0,0,0,6.31-5.38c2-5.56,5.47-14.7,6.53-16.67,11.6-21.68,75.68,14.45,79.22,17.11,3.08,2.31-1.22,12.83-6.16,20-4.78,6.92,4.53,8.88,4.53,8.88-10,7.64-28.26,21.21-29.63,25.31s.13,4.17,7.42,7.36,16.65,4.27,18.93,9.73c.9,2.18,8.48,16.7,17.64,34.47l34.83,71.29h0c5,14.19,29.31,56.31,37.91,71-6.71-1.08-29.65-4.51-36.18-6-3-.7-17.11-15-24.15-21.8a18.06,18.06,0,0,0-2.69-2.16,23.41,23.41,0,0,0-4.5-2.5,7.69,7.69,0,0,0-5.31,1.33c-16.42,15.79-20.91,18.84-30.64,27.41C916.49,1101.39,912,1105.21,910.05,1109.41Zm144.9,71.68c-1.38,0-14.39-4.17-19.53-4.12-2.37,0-90-2.29-92.86-2.67-5.29-.72-6.89-1.71-8.27-5.39s-14.26-43.82-16.55-50c-1.79-4.77-1.39-7.06,5-13,0,0,16.11-12.83,30.87-26.66,2.4-2.25,24.81,18.21,28,20.42,2.86,2,6.49,3.2,12,3.94,9.35,1.28,29,5.31,31.72,6.05s8.74,1.2,10.12,3.95,21.15,50.24,22.07,54.37S1056.33,1181.09,1055,1181.09Zm98.27-40.15a4.16,4.16,0,0,1-.11,6.31c-10.62,8.8-20.8,17.71-31.85,25.37-3.77,2.62-10.52,1.45-15.87,1.2-10.64-.51-34.41-2-35.42-1.36-3.79-11.61-14-34.74-21.09-50.38,10,7.79,23.52,17.77,26.2,17.35s18.69-12.32,30-20.94a10.9,10.9,0,0,0,2.4-1.58q4.5-3.63,9-7.25l8.09,6c.3.28.62.57,1,.86C1135,1124.31,1144,1132.65,1153.22,1140.94ZM1269,993c-8.28,8.82-18.7,15.62-28.13,23.39-11.08,9.14-22,18.48-33.1,27.59-14.52,11.9-29,23.92-43.81,35.39-12.15,9.39-24.86,18-37.16,27.24l-3.32-2.57q8.88-7.08,17.76-14.16c7.78-6.23,7.88-8.21.93-15.23-4.46-4.5-9-8.93-13.44-13.45l90-73,4.34,4.55c3.75,3.94,7.16,8.22,10.93,12.16a24.92,24.92,0,0,0,3.83,3.09,4.28,4.28,0,0,0,3.42.67,6.64,6.64,0,0,0,2.7-1q12.06-9.56,24-19.22L1270,992C1269.72,992.27,1269.38,992.6,1269,993Zm.77-16.59-3.9,3.4c-1.1.8-2.17,1.48-3.24,2.12-12.56-12-16.77-17.15-23.45-23.07-5.42-4.81-25.93-28.44-31.76-34.26-3.91-3.89-13.9-14-15.29-15.73,2.43-1.63,8.17-6.36,10.64-8l69.52,72.66A37,37,0,0,1,1269.81,976.38Zm39.23,44.89c-9.43-9.14-19.13-18.47-28.75-27.89-.45-.45-.88-.88-1.3-1.28h0l-.56-.52c-1.52-1.49-5.41-5.87-2.79-9.27l3.73-3a10.63,10.63,0,0,0,2.27-2.4c9.95-9.12,22.8-22.71,24.58-25.13,2.84-3.87-11.76-28.49-16.67-36.46,15.63,8.8,36.14,21.83,49.75,28.55,4.39,2.17,6.17,3.77,3.73,9.83-2.23,5.52-.28,12.82.19,19.31.45,6.31,1.35,12.58,2,18.81Z"/></g><g id="Thrusters"><path d="M257.91,1001.43c-4.28.09-10.49,7.37-9.71,11.85.29,1.68,1.91,3.13,4.06,5.38a5.13,5.13,0,0,0,5.19,1.17c4.07-1.67,9.56-6.27,7.61-12C264.7,1006.73,261.76,1001.35,257.91,1001.43ZM997.8,1122.17h0a6.93,6.93,0,0,0-3.89,1.19,5.39,5.39,0,0,0-.54.4,5.23,5.23,0,0,0-.49.45,6.94,6.94,0,0,0-2,4.92c0,3.84,1.29,9.3,8.56,11.54,5.36,1.65,13.7-1.1,11-10.58C1009.35,1126.4,1001.64,1122.17,997.8,1122.17Zm311.91-237c-2.86-2.14-6.3-2.37-7.69-.52s-.19,5.09,2.67,7.23,6.31,2.38,7.69.53S1312.57,887.31,1309.71,885.16Zm-856.2,180.05c-5.52,1.37-12.73,7.65-11.21,10.41a18.69,18.69,0,0,0,8.84,8.05c3.53,1.33,11.14-6.31,9.81-9.69S456.08,1068.1,453.51,1065.21ZM1211.25,523c-6.43-1.1-12.73,4.89-11.2,7.65,1.85,3.37,5.76,5.53,9.3,6.86,7.81,2.92,17.15.37,15.82-3S1213,523,1211.25,523ZM1123,394.18a7.93,7.93,0,0,0-3.51-1.32,2.39,2.39,0,0,0-2.33.81c-.83,1.27.43,3.57,2.82,5.13s5,1.8,5.84.52a1.41,1.41,0,0,0,.22-.52C1126.36,397.48,1125.13,395.55,1123,394.18Z" fill="#007aff"/></g></g></svg>