<svg xmlns="http://www.w3.org/2000/svg" viewBox="0 0 1500 1500"><title>Cobra Mk III</title><g id="Cobra_Mk_III" data-name="Cobra Mk III"><g id="Colour"><path d="M1382,899.48c-2.56-10.49-17.46-83.83-29.25-92.68-6.17-4.63-5.92-11-7.81-17-.92-2.89-1.13-6-1.71-9-2-10-4-20-5.87-30-2.44-12.83-5-25.65-7.06-38.54-.63-3.86-1.68-9.5.32-11.59,6.66-6.93,5.32-12.2,4-22.31-.49-3.64-23.75-122.34-30.14-154-2.61-14.52-2-16.94-9.43-21.32-9-4.62-15.23-10.53-16.37-22.17-1.54-15.56-5.69-30.88-9.12-46.21-.79-3.55-2.28-8.17-5-9.89-19.43-12.4-39.28-24.14-59-36.16-23.9-14.59-47.7-29.32-71.67-43.8-4.47-2.71-9.35-5.84-14.31-6.41-7.08-.81-14.43.41-21.63,1.06q-25.5,2.29-51,4.95a38,38,0,0,0-11.23,2.47c-10.1,4.4-19.86,9.57-30,13.92-6.26,2.7-10,6.21-7.39,13.57-11.74,5.35-23.07,10.47-34.37,15.67q-32.09,14.74-64.13,29.57c-17.55,8.1-35,16.41-52.64,24.3-4.72,2.12-10.8,5.44-14.87,4.07-19.07-6.4-37.79-13.92-56.33-21.75-6.73-2.84-10.23-2.86-18.92.15-1.45.5-28.9,10.1-36.17,13.53-1.74.83-4.44,3.45-4.92,5.67a105.2,105.2,0,0,0-2.46,19.5,19.52,19.52,0,0,0,2.94,10.66c4.27,6.38,9.46,12.16,14.55,18.55-4.19,1.74-7.74,3.3-11.35,4.7-4.4,1.7-5.31,3.36-6.44,9.53-.35,1.9-1.33,11.16-1.33,13.73-11.39,7-20.29,12.31-30.21,18.89-10.36,6.89-19,8.8-29.65,2.65-1.62-.94-5.2-.33-6.83.92-9.12,7-18.34,14-26.65,21.89-4.38,4.17-7.82,3.94-12.83,2.19-9.6-3.35-19.34-6.43-29.21-8.81a319,319,0,0,0-32.41-6.12c-4.93-.66-10.2-4.18-15.27.54-7,6.54-14.22,12.87-21.56,19-5.64,4.75-11,10.6-17.61,13.23-7.72,3.07-9.62,7.73-9.46,14.88s-.28,14.22.16,21.29a24.12,24.12,0,0,0,2.88,10.45c5.25,8.92,11.1,17.49,16.59,26-5,3.94-10,7.6-14.64,11.58-7.08,6-31.18,24-35.67,27.25-18.19,13.3-36,27.12-53.82,40.94C370.78,758.42,346,778,321,797.31c-4.92,3.8-10,7.46-17.35,4.66-3.43-1.3-7.58-.57-11.45,2.58-9.29,7.58-19.59,13.9-29.15,21.17s-19.36,14.19-27.66,22.64c-11.82,12-22.11,25.59-33.53,38.06-18.35,20-37.14,39.66-55.63,59.57-5.61,6-10.76,12.49-16.28,18.61-3.5,3.89-1.5,7.11,1.3,9.66,10.06,9.17,20.49,18,30.57,27.11,15.95,14.49,31.73,29.16,47.57,43.77,16.45,15.18,32.67,30.62,49.41,45.47,9.21,8.16,17.39,18.05,30.92,20,7.82,1.15,15.34,4.49,23.17,5.36,10.89,1.21,21.94,1.08,32.93,1.43q22.11.7,44.23,1.25c6.89.15,13.83-.41,20.66.23,2.84.27,7.2,2.28,7.9,4.45,2.87,8.9,11,11,17.67,12.49,10.72,2.46,22.08,2.43,33.18,2.8,12.35.42,24.73-.23,37.08.19,11.33.39,158.91,8.31,172,8.67,17,.46,34.08.83,51.12,1.28,1.65,0,17.21,1.56,21.7-3.67,2.72-3.16,5.79-4,9.81-3.93,44.52.94,89.05,1.69,133.57,2.6,11.2.23,22.39.69,33.58,1.29,4.27.23,7.65,1.6,5.88,7.3-.26.84,2.13,3.57,3.38,3.63,7.59.38,15.21,0,22.81.31,18.21.71,36.42,1.66,54.63,2.47,10.78.47,21.58.5,32.32,1.39,7.45.61,14.76,2.87,22.21,3.38,4.91.33,11,.41,14.74-2.08,11.25-7.44,21.82-16,32.3-24.49,13.56-11.06,26.89-22.41,40.07-33.92,3.87-3.38,9.42-6.45,7.65-13.08-.81-3-2.78-5.68-4.45-9,2.75-2.27,5.79-4.72,8.76-7.24,11.6-9.9,23.08-20,34.82-29.68,12.8-10.62,25.95-20.83,38.77-31.43,15.86-13.12,31.53-26.46,47.3-39.7,3-2.53,5.94-2.49,9.89-1.31a21.41,21.41,0,0,0,12.77-.42c4.45-1.66,8.34-5.09,12.16-8.15,9.48-7.57,18.77-15.37,28.14-23.07s19-15.16,28.07-23.16C1386.51,911.57,1383.87,907.36,1382,899.48Z" fill="#073951"/><path d="M1382,899.48c-2.56-10.49-17.46-83.83-29.25-92.68-6.17-4.63-5.92-11-7.81-17-.92-2.89-1.13-6-1.71-9-2-10-4-20-5.87-30-2.44-12.83-5-25.65-7.06-38.54-.63-3.86-1.68-9.5.32-11.59,6.66-6.93,5.32-12.2,4-22.31-.49-3.64-23.75-122.34-30.14-154-2.61-14.52-2-16.94-9.43-21.32-9-4.62-15.23-10.53-16.37-22.17-1.54-15.56-5.69-30.88-9.12-46.21-.79-3.55-2.28-8.17-5-9.89-19.43-12.4-39.28-24.14-59-36.16-23.9-14.59-47.7-29.32-71.67-43.8-4.47-2.71-9.35-5.84-14.31-6.41-7.08-.81-14.43.41-21.63,1.06q-25.5,2.29-51,4.95a38,38,0,0,0-11.23,2.47c-10.1,4.4-19.86,9.57-30,13.92-6.26,2.7-10,6.21-7.39,13.57-11.74,5.35-23.07,10.47-34.37,15.67q-32.09,14.74-64.13,29.57c-17.55,8.1-35,16.41-52.64,24.3-4.72,2.12-10.8,5.44-14.87,4.07-19.07-6.4-37.79-13.92-56.33-21.75-6.73-2.84-10.23-2.86-18.92.15-1.45.5-28.9,10.1-36.17,13.53-1.74.83-4.44,3.45-4.92,5.67a105.2,105.2,0,0,0-2.46,19.5,19.52,19.52,0,0,0,2.94,10.66c4.27,6.38,9.46,12.16,14.55,18.55-4.19,1.74-7.74,3.3-11.35,4.7-4.4,1.7-5.31,3.36-6.44,9.53-.35,1.9-1.33,11.16-1.33,13.73-11.39,7-20.29,12.31-30.21,18.89-10.36,6.89-19,8.8-29.65,2.65-1.62-.94-5.2-.33-6.83.92-9.12,7-18.34,14-26.65,21.89-4.38,4.17-7.82,3.94-12.83,2.19-9.6-3.35-19.34-6.43-29.21-8.81a319,319,0,0,0-32.41-6.12c-4.93-.66-10.2-4.18-15.27.54-7,6.54-14.22,12.87-21.56,19-5.64,4.75-11,10.6-17.61,13.23-7.72,3.07-9.62,7.73-9.46,14.88s-.28,14.22.16,21.29a24.12,24.12,0,0,0,2.88,10.45c5.25,8.92,11.1,17.49,16.59,26-5,3.94-10,7.6-14.64,11.58-7.08,6-31.18,24-35.67,27.25-18.19,13.3-36,27.12-53.82,40.94C370.78,758.42,346,778,321,797.31c-4.92,3.8-10,7.46-17.35,4.66-3.43-1.3-7.58-.57-11.45,2.58-9.29,7.58-19.59,13.9-29.15,21.17s-19.36,14.19-27.66,22.64c-11.82,12-22.11,25.59-33.53,38.06-18.35,20-37.14,39.66-55.63,59.57-5.61,6-10.76,12.49-16.28,18.61-3.5,3.89-1.5,7.11,1.3,9.66,10.06,9.17,20.49,18,30.57,27.11,15.95,14.49,31.73,29.16,47.57,43.77,16.45,15.18,32.67,30.62,49.41,45.47,9.21,8.16,17.39,18.05,30.92,20,7.82,1.15,15.34,4.49,23.17,5.36,10.89,1.21,21.94,1.08,32.93,1.43q22.11.7,44.23,1.25c6.89.15,13.83-.41,20.66.23,2.84.27,7.2,2.28,7.9,4.45,2.87,8.9,11,11,17.67,12.49,10.72,2.46,22.08,2.43,33.18,2.8,12.35.42,24.73-.23,37.08.19,11.33.39,158.91,8.31,172,8.67,17,.46,34.08.83,51.12,1.28,1.65,0,17.21,1.56,21.7-3.67,2.72-3.16,5.79-4,9.81-3.93,44.52.94,89.05,1.69,133.57,2.6,11.2.23,22.39.69,33.58,1.29,4.27.23,7.65,1.6,5.88,7.3-.26.84,2.13,3.57,3.38,3.63,7.59.38,15.21,0,22.81.31,18.21.71,36.42,1.66,54.63,2.47,10.78.47,21.58.5,32.32,1.39,7.45.61,14.76,2.87,22.21,3.38,4.91.33,11,.41,14.74-2.08,11.25-7.44,21.82-16,32.3-24.49,13.56-11.06,26.89-22.41,40.07-33.92,3.87-3.38,9.42-6.45,7.65-13.08-.81-3-2.78-5.68-4.45-9,2.75-2.27,5.79-4.72,8.76-7.24,11.6-9.9,23.08-20,34.82-29.68,12.8-10.62,25.95-20.83,38.77-31.43,15.86-13.12,31.53-26.46,47.3-39.7,3-2.53,5.94-2.49,9.89-1.31a21.41,21.41,0,0,0,12.77-.42c4.45-1.66,8.34-5.09,12.16-8.15,9.48-7.57,18.77-15.37,28.14-23.07s19-15.16,28.07-23.16C1386.51,911.57,1383.87,907.36,1382,899.48Z" fill="none" stroke="#000" stroke-linejoin="round" stroke-width="8"/></g><g id="Colour_2" data-name="Colour 2"><path d="M1155.63,782.29l22,12.38,149.45,78.6S1321,838.13,1316,833.33s-35.33-42.44-35.33-42.44,15.22-9.11,16.89-11.11,22,9.94,22,9.94L1303,759l-38-22s-16,19.67-19.67,24a20.36,20.36,0,0,0-4.33,9.45l-25.55-28.32L1155,726.67l-22.6,14.86-21.4-1-16.74-104.34,72.07-53,16.29,24.51,17.05,2.33,40.63,61.3,14.16-14.46L1231.94,619s20.73-18,18.73-19.79S1186,481.33,1185.82,478.07,1222.67,460,1225,460.36,1277.67,492,1277.67,492l-7-32.73S1251.67,449,1251,445s-4.33-25.95-4.33-25.95-94-59-97.83-59.68-3.51,5.67,5.07,10.89,9.09,9.78,8.42,13.32-8.42,3.82-8.42,3.82l-2.52,6.64,5.61,2.33-8.2,11.34,11.69,6-10.32,84.47L1096.67,564,1113,398.15l35.72,10.35-78-41.17-6,16.21,35.1,10.46-5.51,72-27-20.08-16.55,6.46L1039,528.33,1067.22,551l-2.89,52L1081,616.33l-5.42,70.74c.54,6.07,1.82,5-2.55,5.94s-25-9-28.33,3.17,21,49.15,22.55,51.59,14.45-.77,17.78,1,.56,18.44,5.67,19.59,29.22,7.8,43,27.67,13,47.33,11,54.52-6,8.81-12.64,9.48-46,34-49,37.57-.06,11.82-11.26,14.94-43-7.18-54.71-12.84-24-17-29-30.34,1.36-29.05,1.36-29.05c-5.33-1.39-22.75-6.78-22.75-6.78-.53-6.92,9-9.51,8-16.49s-17.85-9.12-30.35-18.51-41.52-8.2-41.52-8.2c-15.39,2.52-21.05,26.77-21.05,26.77L726.92,841.28l-18.83-21.16L633,831.33l-22.16-26.75L501.67,820.12l-11.26,19,45.26,34.31L304.93,908.76l-3.26-27.87-15,10.11,23,58-4-29.67,292-43-125.75,83.5s-147.25,7.84-154.25,5.55-5.41-14.32-10-11.7S281,969,276,969s-15.33-12.67-20.33-5.46S244,980,239.33,983.67s-16.66,4.66-22,5.33-65.66-34-70.66-35.32-12,11.65-13.1,14.65,101.1,108.34,113.1,100.34,17.66-12.67,21.66-9.67,17.67,16.33,23.14,19.67,30.2-.67,30.2,3.66,1,18.71,1,18.71,76.66,5,80.66,5,12.67-5,12.67-5l-40.67-64.85,58.79-50.61L619,1046.06l20.67-25.39,80,23,25.66-16.34-92.18-25.69s-2.15-13-4.42-18S597,969,597,969l4.33-8s65-74,71-80.67S688,870,688,870l98-15.33s137.67,21,139.33,23.42-4,15.24-4,15.24l-20,7.8L897,956.33l33.56,34.34L902.33,1012l-41.66,29s16.66,19.67,22,23,45,12.76,45,12.76l45.11-43.2,19.89,28.22s-1.34,15.89,2,17.55,56,12,54.66,10.34-66-188.54-66-188.54,5,.87,12.34,7,24,43.3,24,43.3l67.05-17.72,77.94-66.34,13.74-58.85L1161,796.67Zm-533-84.21c21.38.13,132-19,132-19l96.39,18.08,3.33-24.3,26.67-18.48,41.37,2.72L900.13,605S898,593.82,904,569.33c6.82-27.75,7.35-34.34,7.35-40.11s1-12.84-8.35-18.62l-80.67-49.91-76,32.64-23.33,11s-5.47,6.27-2.47,10c5.62,7-43.94,37.3-50.53,37.67s-10.2-8.64-26.5.36-117.27,94-117.27,94L584.33,693A155.6,155.6,0,0,0,622.67,698.08Z" fill="#072e3f"/></g><g id="Paint"><path d="M899.7,723.08,802.87,664l-31.08,2.68L636.42,561.58l-38.29,26S718.82,688.11,752.94,701,899.7,723.08,899.7,723.08Zm-34.85-97.45,79.37,57c-4-30.49-26.83-76.06-38.89-86.78S767.18,482.18,767.18,482.18l-35,15.76,124.6,103.58Zm23.64,437.83a8.51,8.51,0,0,1-5.16-3.5L858,1023.21a13.89,13.89,0,0,0-8.21-5.63L605.88,959.09l-13.74,15.24,27.58,4.41,22.45,5.69a7,7,0,0,1,5.22,5.68l1,6.3a6.5,6.5,0,0,0,4.72,5.23l124.44,33.63a5.13,5.13,0,0,1,2.86,2l40.28,58.91a7.78,7.78,0,0,1-.41,9.34l-26.6,32.3L948.18,1142l-6.42-66.38ZM1327.12,717,1314,725.08a7.67,7.67,0,0,1-8.58-.37l-53-39.1c-2.32-1.71-5.93-4.54-7.52-6.94l-42.06-67.46c-1.35-2-4.68-2.69-7.11-2.92l-2.47-.23c-3.09-.29-6.93-1.61-8.58-4.23l-4.92-8.17-8-16.24-7.85,9.52,76.56,136.77a8.22,8.22,0,0,0,3.19,3.19l53.46,29.86a15.31,15.31,0,0,1,5.58,5.35l14.85,24.21,27.56,18.29Z" fill="#fff"/></g><g id="Grey"><path d="M766.35,427.47c-7.27,3.08-32.92,12-40.88,15.43-3.37,6.42-6.5,21-4.07,27.8.33.94,22.44,23.7,23.49,23.25,7.67-3.26,80-37.41,88.33-41C832.38,451.69,769.35,426.2,766.35,427.47ZM612.94,576.74c-3.14-5.73-76.47-21-77.06-21.7-11.26,9-48.24,37.27-50,50.92-2.82,26,21,50.09,21.61,50.88C518.78,647.77,601.69,585.81,612.94,576.74ZM958.07,422.12c-5.2-2-49.91,19.84-80.39,35.29-6,3,61.51,41.91,60.35,48.66-1.58,9.17-11.53,66.84-13.16,76.22-1.15,6.64,52.62,17.2,64.53,16.91,7.72-.18,30.35-128.49,30.9-133.25S964.14,424.42,958.07,422.12ZM728.57,707.58l-146.8,21.3-62-49.82c-2.5,0-39,28.21-39.88,28.63s-46.57,44.16-45.73,48.76,49.28,44.27,59.31,45.52,233.67-32.37,247.49-34.24S744,736,742.56,722,728.57,707.58,728.57,707.58Z" fill="#636b70"/></g><g id="Canopy"><path d="M1092.66,770.23c-4.07-2-.94,12.69-.47,18.8-.31,2.81-18.69-6-22.27-3.33-19.37,14.37-28.32,21-47.6,35.48-1.61,1.21-.13,17.93-1.39,19.76,1.05,2.27-30,1.57-28.82,2.73-20.2,40.74,39.08,77.39,83.17,67.09,8.92-12.41,20.52-25.91,23.49-28.23,15.79-12.36,27.72-15.29,43.7-27.41C1161.26,808.48,1107.54,768.2,1092.66,770.23Z" fill="#82b3d1"/></g><g id="Shadows" opacity="0.2"><path d="M1307.9,933.54c-6.69,5.81-240.68,175.12-240.68,175.12l-764.38-72.47-62.08-55.67-16.27,8.88L143,957.1l-9.4,16.83,154.05,131.18s115,9.14,120.27,8.38,350.19,28.1,350.19,28.1l176.63,3.87,10.62,10.37,141.26,5.3,80.25-67.72-4.68-12.73s142.08-129.26,153.48-138.75S1314.6,927.73,1307.9,933.54ZM740,559c-11.58,5.83,17.61,8.73,3.94-23.75s-39.09-7.47-39.09-7.47S751.54,553.2,740,559ZM618,573s95.92,70.8,161.37,123.21,151.17,46.58,151.17,46.58L919,732V719.53l-226.37-161-45-14.13-33.2,25.24L586,567.21,485.62,633l16.59,26Z" fill="#111"/></g><g id="Outline"><path d="M440.39,768c12.63,11,23.29,19.53,36.19,30.14a22.23,22.23,0,0,0,10.36,5.35c7.66,2,13.8.79,28.22-.92,13.84-1.69,27.71-3.22,41.51-5.16,13-1.81,25.87-4.14,38.82-6.09,11.94-1.8,23.93-3.34,35.88-5.11,7.48-1.11,14.89-2.62,22.38-3.64,13.62-1.86,27.29-3.29,40.89-5.26,15.38-2.23,30.69-5,46.06-7.26,6.22-.92,11.73-6.35,11.22-12.62-1-12.51-2.64-25-3.61-37.47-.83-10.61-5.48-16.74-16.23-18.86-3.19-.63-6.79.69-10.17,1.25-8.87,1.47-17.72,3.08-26.59,4.51q-17.58,2.85-35.19,5.49c-13.35,2-22.83,3.72-36.18,5.74-8.48,1.29-18.17,2.7-26.68,3.81-5.16.68-14.41-1.75-15.71-2.77-12.75-10-39.68-30.38-58.62-44.78-7.89-5.44-92.6,72.65-93.39,78.31C428.59,759.52,436.33,764.51,440.39,768Zm303-10.85a5.74,5.74,0,0,1-4.8,6.24c-7.65,1.21-20.23,3.21-25.84,4.07-16.59,2.55-77.49,10.65-91.3,12.62-18,2.56-36,5.53-54,8.29-4.21.65-8.44,1.2-13.33,1.89,1.16-3,2.25-5.78,3.29-8.43a15.25,15.25,0,0,1,12.18-9.57c18.68-2.49,36.93-5,55.23-7.16,17.36-2,108.56-14,116.75-14.54C742.48,750.54,743,754,743.35,757.19Zm-152.61-25c2.41-2.3,6.89-2.78,10.56-3.34,15.38-2.31,108.74-16.42,124.35-18,6.36-.64,12.43-.08,13.64,8.06l.66,4.89c-11.36,1.41-60.83,7.61-68.15,8.59-5.27.7-60.27,7.95-70,9.28-4.82.67-9.68,1-15.8,1.63C587.62,739.27,588.17,734.7,590.74,732.24Zm-5.58,19.47c15.89-1.83,152-20.68,155.26-19.73l1.1,12.57c-53.34,6.21-115.31,14.65-169.67,21C573.89,759.66,574.77,753.11,585.16,751.71Zm-65-67.41c13,9.8,42.34,33,49.23,38.16,4.76,3.55,8.68,7.28,7.23,14a50.61,50.61,0,0,1-1.94,6.33c-6.61-5.18-10.2-7.94-15.61-12.24-14.43-11.47-35.74-27.77-50.3-39.1C508.78,691.5,516.09,686.39,520.17,684.3Zm-19.43,13.78c8.24,6.14,46.08,34.82,58.55,45.48,3.58,3.06,6,6.15,5.75,8.61-.45,4.38-.57,4.25-2.79,12.56-26.94-21.07-46.07-36.93-71.84-57.56Zm-18.27,15.14c8.13,6.44,12.74,10.21,20.41,16.32,14.75,11.74,29.29,23.74,44.33,35.08,4.73,3.56,6.29,4.53,3.61,11.94-.72,2-1.56,4-2.2,5.77-4.55-3.07-67.06-52.7-76-59.92Zm-18.36,17.16c27.1,21.58,45.41,36,72,57.13,1.85,1.16,5.68,4,2.22,4.58-7.52,1.11-3.87.76-10.52,1.6s-13.35-5.52-20.69-11.36S470,751.82,454,739.75C454,739.75,459.51,734.51,464.11,730.38Zm-18.5,16s40.17,32.32,61.4,49.5a.83.83,0,0,1-.47,1.48c-1.45.11-6.17.8-7.62.88-2.87.15-5.69.54-7.57-.36-4.85-2.32-7.46-4.7-11.59-8.06-12.12-9.85-25.5-20.7-37.44-30.76C436.52,753.38,441.31,750.71,445.61,746.42ZM933.46,509A108.86,108.86,0,0,1,931,523.45c-3.69,18.2-7.49,36.38-11.18,54.58-1.89,9.36.67,13.36,10.37,15.3,15.61,3.11,31.28,6,47,8.73,3.76.66,7.81,1.34,11.47.66,7.54-1.41,9.72-8.56,11.5-17.82,4.49-23.32,17-86.45,22.24-112.77.88-4.43,1.84-8.46-1.54-10.93-4.77-3.51-8.57-6.13-13.48-9.44-17.07-11.54-28.11-18.95-45.33-30.27-2.35-1.54-6.24-3.14-8.21-2.2s-74.86,33.94-77,35.12c-5,2.82-5.19,7.92-.44,11.19,18.1,12.46,36.24,24.86,54.21,37.51A7.82,7.82,0,0,1,933.46,509Zm-2.88,66.59c1.95-9.95,10.87-61.81,12.25-68.35,1.85-8.76,3.07-8.17,13-10.33-4,28.3-10.07,59.06-14.3,89.39C929.27,584,929.09,583.15,930.58,575.56Zm22,12.6c4.4-30,9.93-62.33,15.19-96.12,3.27-1.12,8.16-2.89,13-4.56-5.79,37.07-12.82,75.85-17.23,103C960.37,589.9,956.61,589.06,952.61,588.16Zm34.59,3.42c-2.61,3.76-12.63.57-12.63.57.56-4.15,13.67-83.16,16-98.09,1.67-10.85,2.79-12.8,19-16.92C1009.41,480.82,989.24,588.65,987.2,591.58ZM951.92,427.29c4.51-2,6.75-1.54,8.7-.2,21.79,14.43,35.69,24.51,55.84,37.46a11,11,0,0,1-4.35,1.3,15.24,15.24,0,0,1-9.35-1.86c-22.26-14.26-31.17-20.38-50.53-33.25C950,429.27,949.25,428.48,951.92,427.29Zm-17.8,8.19c4.09-1.71,7.34-2.53,9.63-1.1,21.33,13.67,32.34,21,54.89,35.32-5.39,1.76-11.12,2.3-15.61-.49-20.67-13.06-24.24-15.6-45.51-29.4C936.75,439.31,931,436.78,934.12,435.48ZM926,441.15c17.11,11.24,29.86,19.63,53.77,34.71-5,1.45-9.44,4.51-16.45-.18-10.22-6.85-39.29-27.1-45.73-31.31C914.49,442.48,923.19,438.89,926,441.15Zm-16.31,6.12c1.12.88,43.31,30.63,51.8,36.2-7.63,1.5-10.91,2-15.79-1.26-11.73-7.82-32.79-23-42.77-29.93C897,448.12,909.66,447.27,909.66,447.27Zm-4.49,25.61c-5.1-3.55-15.63-11.33-20.5-14.84-2.5-1.78,8.7-3.45,8.7-3.45,4.68,3.58,48.19,34.52,51.31,36.33-8.65,1.63-12.91,1.85-17.44-1.87C921.77,484.55,911,476.94,905.17,472.88ZM914,735a103.34,103.34,0,0,0,12.69,7.53,7.79,7.79,0,0,0,3.91.24,3.57,3.57,0,0,0,3.15-4.13,4.12,4.12,0,0,0-1.08-2.52,54.24,54.24,0,0,0-9.36-6.28c4.17-4.1,8.7-6.75,8.79-12.37,0-1.19,4-4,5.22-3.48,8.32,2.53,12.91-2.47,17.58-5.6,2.6,3.09,4.87,6.85,8,9.78a6.45,6.45,0,0,0,5.43,1.11c.92-.29,2-3.59,1.43-4.65-2.92-5.26-6.24-10.33-9.67-15.29-2.82-4.08-6-4-9.89-.85S942.24,703,936.67,703c-5.39,0-11.52,4-13.62,9-1.95,4.58-3.6,8.11-7.73,10.85C909.62,726.64,908.36,731.16,914,735ZM407.63,816.06c1.69,1.27,5.76,1.24,7.64.05a202.84,202.84,0,0,0,18.6-13.54,25.44,25.44,0,0,0,4.29-4.92,4.81,4.81,0,0,0,.71-4.22,3.06,3.06,0,0,0-.77-1.5c-7.12-6-14.2-12-21.69-17.56-1.07-.8-2.47-1.29-6.31,2-6,4.38-11.47,9.54-17.65,13.63-5.86,3.87-4.94,7.81-1,11.75A149.77,149.77,0,0,0,407.63,816.06Zm610.15-388.82c4.86-3.44,6.14-7.23,1.38-10.87-3.68-2.81-7.32-5.67-11.13-8.29l0,0a10.51,10.51,0,0,0-10.18-.64,80.78,80.78,0,0,0-11.66,6.05c-3.12,2.08-1.14,6.55.32,7.94C995.45,429.9,1005,436.3,1017.78,427.24Zm366.5,471.91c-.39-1.74-17.46-83.83-29.25-92.68-6.16-4.63-5.92-11.05-7.81-17-.92-2.89-1.12-6-1.71-9-2-10-4-20-5.87-30-2.43-12.84-5-25.66-7.06-38.55-.63-3.85-1.67-9.5.33-11.58,6.65-6.94,5.92-14.29,4-22.31-.87-3.57-23.08-120.78-30.14-154-1.58-7.42-.38-16.66-9.43-21.33s-15.22-10.53-16.37-22.17c-1.53-15.55-5.69-30.87-9.11-46.2-.8-3.56-2.29-8.17-5-9.89-19.43-12.4-39.27-24.15-58.95-36.16-23.89-14.59-47.7-29.33-71.66-43.81-4.48-2.7-9.35-5.84-14.31-6.4-7.09-.81-14.43.4-21.64,1.05q-25.5,2.31-51,4.95a38.69,38.69,0,0,0-11.24,2.47c-10.1,4.4-19.86,9.57-30,13.93-6.26,2.69-10,6.2-7.39,13.57-11.73,5.35-23.06,10.47-34.36,15.67q-32.08,14.75-64.14,29.56c-17.54,8.11-35,16.42-52.63,24.31-4.73,2.11-10.81,5.43-14.88,4.07-19.06-6.41-37.78-13.92-56.33-21.75-6.72-2.84-10.75-2.57-18.92.15-7.28,2.42-26.23,9.31-36.16,13.53-1.78.75-4.45,3.44-4.92,5.67a104.26,104.26,0,0,0-2.46,19.49,19.49,19.49,0,0,0,2.93,10.66c4.28,6.39,9.46,12.17,14.56,18.55-4.2,1.75-7.75,3.31-11.36,4.7-4.4,1.7-6,3.93-6.44,9.54-.45,6.05-.91,8.86-1.33,13.73-10,6.47-25.53,15.13-30.2,18.89-9.7,7.8-19,8.8-29.65,2.65-1.63-.94-5.21-.34-6.84.91-9.12,7-18.33,14-26.65,21.9-4.38,4.16-7.82,3.94-12.83,2.19-9.6-3.35-19.33-6.43-29.21-8.82a318.4,318.4,0,0,0-32.41-6.11c-4.93-.66-10.2-4.19-15.27.54-7,6.53-14.22,12.87-21.55,19-5.65,4.74-11,10.6-17.62,13.23-7.71,3.07-9.62,7.72-9.46,14.88s-.27,14.22.16,21.29A24.08,24.08,0,0,0,485.62,633c5.25,8.93,11.1,17.5,16.59,26-5,3.94-10,7.6-14.64,11.57-7.08,6-31.18,24-35.67,27.26-18.19,13.3-36,27.12-53.82,40.93-25,19.36-49.74,39-74.76,58.25-4.92,3.79-10,7.45-17.35,4.66-3.43-1.31-7.58-.58-11.45,2.58-9.29,7.57-19.59,13.9-29.15,21.16S246,839.57,237.72,848c-11.83,12.05-22.12,25.59-33.54,38.06-18.35,20-37.14,39.66-55.62,59.56-5.61,6-10.77,12.5-16.29,18.62-3.5,3.88-1.49,7.11,1.3,9.66,10.06,9.17,20.49,18,30.57,27.11,16,14.49,31.74,29.16,47.57,43.77,16.46,15.17,32.67,30.61,49.42,45.46,9.2,8.17,17.38,18,30.91,20,7.82,1.14,15.35,4.48,23.17,5.35,10.9,1.21,22,1.09,32.93,1.44,14.75.47,29.49.91,44.24,1.24,6.88.16,13.82-.41,20.65.24,2.85.27,7.2,2.27,7.9,4.45,2.87,8.89,11,11,17.67,12.48,10.72,2.46,57.92,2.58,70.26,3,11.33.39,158.91,8.3,172,8.66,17,.47,68.33,2.85,72.82-2.38,2.72-3.17,5.8-4,9.82-3.93,44.52.94,89,1.69,133.56,2.6,11.2.22,22.4.69,33.58,1.29,4.27.22,7.66,1.6,5.89,7.3-.26.84,2.12,3.57,3.37,3.63,7.59.38,15.21,0,22.81.31,18.22.7,36.42,1.66,54.64,2.46,10.77.48,21.58.51,32.32,1.39,7.44.62,14.76,2.87,22.2,3.38,4.91.34,11,.42,14.74-2.08,11.25-7.43,21.83-16,32.3-24.49,13.56-11.05,26.89-22.41,40.08-33.92,3.86-3.37,9.42-6.44,7.64-13.07-.8-3-2.77-5.69-4.45-9,2.75-2.27,5.79-4.72,8.76-7.25,11.61-9.89,23.08-19.94,34.82-29.68,12.81-10.61,26-20.82,38.77-31.42,15.87-13.12,31.54-26.47,47.3-39.7,3-2.53,5.94-2.5,9.9-1.31a21.38,21.38,0,0,0,12.76-.43c4.46-1.65,8.35-5.08,12.17-8.14,9.47-7.57,18.76-15.37,28.14-23.07s19-15.16,28.06-23.17C1388.85,911.23,1386.17,907.43,1384.28,899.15Zm-88.19-211c5.21,8.94,7,8.88,11.56,8.74,6.89-.21,14.9-1.21,14.9-1.21l18.71,103.35c-5.25-2.67-8.59-4.22-15-7.73-9.07-5-22.89-13.66-29-14.23-1.9-.18-16.41,10.5-18,11.45s-3.43,1.66-1.33,5c11,17.46,14.76,24,23,36,2.74,4,10.94,2.62,11.93,4.44.76,1.4,5.78,20.8,8.66,33.33C1281.65,845.9,1116,757.75,1112.78,756.11c-4.34-2.22-4.09-2.61-6.22-7.78-1.34-3.22-.73-5.62-7.32-3.22-4,1.48-8.27,3.36-10.93,4.59-1-3.33-2.77-4.7-5.34-4.7-3.36,0-12.11.69-13.45.22-3.33-1.17-21.81-38.05-22.47-45.05s4.28-6.72,8.53-6.25c5.88.64,8.24,1.09,17,1.82,5.19.43,4.53-.24,5.12-8.07,0-.6,1.7-18.57,4.14-48.07,2.28.26,8.1.35,10.73.38,2.65,13.63,12.26,94.29,15.63,101.8.69,1.55,1.94,2.66,7.17,2.5,8.27-.26,13.84-.48,15.66-.15.37.07,2.65,5.3,5.44,14.15,2,6.33,4,7.2,6.77,8.72,38,20.59,106.46,58.1,111.25,59.67,6.12,2,9.76,1.33,10.77-3s-18.42-43.1-21.56-51.18c-1.07-2.75,2.47-8.94,8.89-16.66,8.68-10.45,20.66-22.62,20-26.67s-7-15.11-7-15.11l-3-5.56h0c-.64-1.22-1.25-2.36-1.84-3.46l-3.77-7.1c-.44-.87-.88-1.75-1.33-2.7a14.75,14.75,0,0,0-1.17-2h0l-65.09-105.58h0c-9.28-19.27-36.87-71.42-36.87-71.42l-10.08,21.46c-.87,2.36-2.72,6.92-2.17,9.37l22,39.13c-8.94,6.08-36.21,24.73-54.15,37.87-6.89,5-12.8,8.59-15.38,10.94l-10.66-.45c1.33-16,2.87-33.58,4.51-53.29,13.79-19.53,62.52-79.53,64.72-79.53h42.22c3.18,5.81,6.32,10.65,9.53,16.45,14.25,25.78,28.6,51.51,42.76,77.34,9.72,17.74,19.13,35.63,28.76,53.42C1281.68,662,1288.56,675.28,1296.09,688.19ZM1077.51,982.88a3.64,3.64,0,0,1,.47-5.37c4.88-3.68,8.85-6.33,13.45-9.81l71.76,76.19a5.22,5.22,0,0,1-.32,7.47c-4,3.58-7.35,6.3-12,10.42Zm67.13,83.55c-3.28,2.67-7.24,6.21-10.68,9a5.85,5.85,0,0,1-8-.55L1053.73,997c4.28-3.38,9.21-7.59,13.34-10.86a2.67,2.67,0,0,1,3.6.29Zm-1.14-54.58q-23-24.51-46.28-48.78c-5.8-6.05-5.34-5.37-11.87-.14-.46.38-1.08.6-1.56,1q-5.57,4.38-11.11,8.8L1062,944.78c9.5-2.59,17.87-4.85,20.94-5.62,8.64-2.18,65.36-53.83,74.7-61.07s8-8.09,10-10.76c.72-1,3.2-15.24,4.69-22l34,22.16q-7.48,5.67-15,11.34c-2.78,2.12-2.64,4.16-.15,6.68,4.2,4.26,8,8.93,12.14,13.25q19.63,20.46,39.32,40.86l-94.64,77.15C1146.55,1015.12,1145,1013.48,1143.5,1011.85ZM985.22,872.56c2.37,9.08,6.73,19.7,32.4,32.61,23.77,12,50.24,14.66,59.93,8.55,3.63-2.29,7-4.26,6.62-9.42-.1-1.24,1.15-3,2.26-3.85q18.58-14.69,37.34-29.13c3.2-2.46,8.21-7.31,9.75-6.43,7.9,4.51,10.54-2.32,13.42-6,4.37-9.72,5.76-27-1.13-45-8.42-17-10.1-25.46-25.92-37.76-8.63-6.71-18.09-9.54-28.33-10.86a82.41,82.41,0,0,1-2.48-10.33c3.42-1.9,10.13-5.49,12.24-5.65,2.88-.22,1.92,6.21,8.57,9.81l42.64,23.06a1.75,1.75,0,0,0,0,1.45l5.63,12.91a3,3,0,0,0,.85,1.11c1,.75,3.29,2.56,8.49,6.3,1.87,1.34,4.7,2.29,7.58,4.25,0,0-11.49,53.14-12.87,57.14s-69.55,63-80.22,66.68c-8.36,2.87-46.34,12.6-59.94,16-1.38-2.81-12.89-32.81-12.89-32.81a6.64,6.64,0,0,0-2.39-2.68l-21.5-12.61h0c-4.49-12.4-7.48-20.53-8.06-21.81-3.11-7-19.55-10.53-24-12.31s20.84-24.89,22.61-24.84c1.35,0,7.38.86,10.2,1.25a52.78,52.78,0,0,0-1.7,7.28A57.24,57.24,0,0,0,985.22,872.56Zm128.07-73.3c-3.38-7.57-8.32-10.12-14.7-13.12-1.89-.88-2.42-1.81-4.33-12.36,32.46,5.16,55.79,56.25,47.13,78.79a1.19,1.19,0,0,1-2.15.11C1130.21,835.74,1121.18,816.91,1113.29,799.26Zm11.38,61.62a170.57,170.57,0,0,0-42.8,32.57c-5,5.37-6.75,4.86-9.63,2-10.87-10.6-21.91-21-32.76-31.66-.38-.37-.88-.82-1.41-1.33a5.1,5.1,0,0,1,.29-7.55c.82-.7,1.62-1.32,2.24-1.79q28.9-21.74,58-43.22a6.85,6.85,0,0,1,10.38,2.29c6.36,12.8,12.57,25.68,19,38.41C1130.15,854.78,1130.34,857.78,1124.67,860.88ZM1093,802.66c-6,4.51-39.55,29.28-65.2,47.86-1.61-7.43-3.63-15.59-4.71-22a5.74,5.74,0,0,1,1.67-4.71c14.94-11.08,30-22,45.11-32.86.88-.63,2.2-1.46,3-1.22,7.94,2.33,12.33,3.77,20.22,6.25C1099,798,1096.63,799.73,1093,802.66Zm-68.93,60.4c1.86,0,3.82,2.19,5.53,3.63,1.9,1.6,29.53,29.26,41.63,41.26,2.72,2.82-7,3.63-16.07,1.91-24.23-4.6-30.7-8.73-50.12-22.65-16-12.77-16.62-28.23-11.7-41.79h22.69c.54,3.28.93,6.48,1.62,9.62C1018.47,858.67,1018.22,863,1024.09,863.06Zm175.48,20.19,7.81-6.31a6.85,6.85,0,0,1,9.28.59l69.23,72.57c-3.06,2.59-6,5.1-9.05,7.69a4.44,4.44,0,0,1-6.07-.31Zm41.84,9.66c-7-7.22-13.66-14.67-20.65-22.28a3.48,3.48,0,0,1,.32-5l8.51-7.12c2,2.14,3.9,4.19,5.82,6.23q12.42,13.15,24.84,26.31c12.81,13.64,25.53,27.35,38.4,40.91,3.76,4,2,5.28-.09,7.42h0a14.91,14.91,0,0,0-1.06,1.16c-4.26,4.08-5.84,4.13-8.67,1.19C1273.1,925.37,1257.15,909.25,1241.41,892.91Zm41.67,12.69q-24.4-26.15-48.78-52.34a16.25,16.25,0,0,0-2.61-2.12,3.44,3.44,0,0,0-4.1.12c-2.32,1.83-4.43,3.51-6.58,5.14l-10.24,7.75-37.44-23.33c2.36-11.11,7.63-30,7.63-30,7.9,2.74,9.39,3.34,10.71,3.23,4.08-.37,11.35-.89,14.78-2.72L1325,875.41v0l2.46,1.34c1.19,6.68,3.93,35.33,3.13,37.27-.58,1.38-13.74,11.54-23,18.57a11.36,11.36,0,0,0-2.32-3.53Q1294.07,917.43,1283.08,905.6Zm-48.53-205.37c1.28,2.87,3.13,5.73,4.59,8.56,4,7.73,6.39,10,13.53,9,2.25-.37,7.11-1.37,8.32-1.67l1.08-.26c3.35,6.42,6,11.94,6,13.32,0,3.71-34.47,35.39-29.91,44.16,6.66,12.82,22.4,45.71,22.41,49.17,0,5.4-116.91-58.67-117.91-60.83-1.6-3.52-3.37-10.41-6.21-17.21a8.51,8.51,0,0,0-5-4.79c-5.28,0-11.33-.39-17.91-.17-3.37.11-16.67-101-16.44-102.32s67.06-47.59,67.06-47.59l8.22-6.43,7.32,12.5a88.54,88.54,0,0,0,10.16-.33l57.62,94.25a16.91,16.91,0,0,0-4.16.54c-5.76,1.5-7.72,2.32-10,3.67S1233.61,698.1,1234.55,700.23Zm-74.77-289.56c-2.74-1.25-6-2.75-8.39-3.91.35-.17,6.92-8.74,7.81-9.86,1.54-1.93-1.8-3.39-4.41-4.85-.63-.35-.73-.84.94-2.28,6.42.57,9.76-1.69,10.23-6.23l45.29,29.63,3.5,8.33s-9.85,2.85-11.75,4.92c-1.65,1.79,13.22,22.77,17.26,28.4a64.13,64.13,0,0,0-7,2.61c-9.25,3.59-18.14,8.1-27.34,11.85a7.59,7.59,0,0,0-3.8,11.22c3.17,5.36,6.21,10.8,9.21,16.26-8-.3-22.16-.76-33.16-.76a53.47,53.47,0,0,0-6.57.12c1.74-12.6,10.28-72.81,11-79.4C1163,413.41,1162.7,412,1159.78,410.67Zm-9-48.87a.84.84,0,0,1,.38.09q46.5,28.56,92.93,57.24c5,3.09,10.23,5.88,15,9.27,2.1,1.49,4.35,4,4.87,6.34,3.73,17.1,7,34.3,10.62,52.25-15-10.12-29.87-19.22-43.62-29.77a12.23,12.23,0,0,0-6.93-2.81c-2.94-4.61-15-23.62-16.28-26.32-.73-1.57,9.18-3.74,10.51-4.34s-3.47-10.94-4.58-12.5-41.64-27.2-48.74-31.83a11.63,11.63,0,0,0-1.75-3c-3.86-4-7.87-7.08-13.58-11.16A1.88,1.88,0,0,1,1150.75,361.8Zm-48.16,25.56c9.58,5.48,18.87,10.7,24.94,13.43,3.59,1.62,7.19,3.22,10.83,4.71h0l20.67,9.61-11.17,82.4a22.09,22.09,0,0,0-4.69,4.35c-6.58,7.64-55.87,70.27-55.87,70.27v0C1093.32,498.93,1100.43,413.3,1102.59,387.36ZM840.2,455.77c20.37-9.1,40.62-18.49,60.89-27.79q38-17.44,76-35c10.87-5,21.57-10.44,32.63-15,2.37-1,6.05.76,9,1.66,7.2,2.21,10.38,3.66,17.61,5.74,6.58,1.89,17.82,9.33,28.94,7.92l6.49-23.11c6.46,3.1,16.7,9,27.06,14.95L1073.33,690s-7-.17-16.46-1.16c-5-.53-9.52-.9-12.27,1.37-7.09-4.8-36-21.41-41.16-22.21-5.77-.89-39.55,4.72-43.11,2.5s-26.41-16.44-32.75-21.25,2.62-18.78,4.84-25-1.86-8-1.86-8S908.21,608.88,904,607s-4.38-8.87-2.67-16.49c5.57-24.77,8.46-36.29,11.5-51.51s.45-23.55-5.33-28c-5.37-4.14-68.47-41.7-80.15-49.65C831.65,459.53,835.94,457.68,840.2,455.77Zm1,50.56c-2.63-1.52-37-22.73-48.65-29.95l4.08-1.85c8.63-3.84,17.34-7.49,26-11.17,14.78,9.12,74,45.73,80.69,51.08,8.08,6.48,6.56,17.78,4.89,25.78L848.58,527.9a4.78,4.78,0,0,1-3.91-4.71V511C844.67,509.5,844.33,508.17,841.17,506.33Zm-65.63-45.42c3-1.27,6.11-2.3,9.08-3.64,4.47-2,6.27.45,8.37,4,.5.85,1.22,1.92,2.06,3.16-8.38,3.61-16,6.93-23.7,10.2-1.05.44-2.37,1-3.33.76-4.54-1.3-9-2.89-14.94-4.86C761,467.13,768.28,464,775.54,460.91Zm-23.18,2.9c-4.53-1.3-9-2.88-14.94-4.85,8-3.43,15.2-6.56,22.46-9.64,3-1.27,6.11-2.3,9.09-3.64,4.46-2,6.27.45,8.36,4,.5.85,1.22,1.93,2.06,3.16-8.38,3.62-16,6.94-23.7,10.2C754.64,463.5,753.32,464.09,752.36,463.81Zm-24.54,7.36c-4.57-4.57-2.11-18-1.55-19.59,3.45-9.83,15.92-12.54,25.22-15.68,8.8-3,14.46-5.75,19.81-3.65.7.27,11.63,4.79,12.48,5.11l41.85,15.87c-14.57,7-16.78,4.61-24,.84C797.75,452,780,444.15,779,443.18c-11.43-5.77-24.2-.82-34.3,3.63-3.72,1.64-11.45,4.81-12.06,11.08-.66,6.81,1.12,10,7.65,13.92,9.76,5.83,13.35,8.19,19.5,11.84L748,488.74c-1.19.63-3.74.64-4.5-.16C738.16,482.91,733.34,476.69,727.82,471.17Zm.72,50.77c8.19,6.63,15.08,16,15.34,27.68a8.75,8.75,0,0,1-7.85,8.81c-17.94,1.92-37.35-.95-56.06-6.38Zm-97,44.69c5.55-4.6,10.77-9.65,16.65-13.77,2-1.41,6-1.64,8.38-.62,26.12,11.38,53.53,13.79,81.53,12.26,6.67-.37,13.67-4,13.17-18.39-.45-13.1-4.78-23-13.78-31.8-3-2.91-6.09-5.69-10.28-9.59,9-3.5,16.92-6.22,24.56-9.61,12.43-5.53,24.71-11.39,37.08-17l51.52,32.53.22,13.63a7.43,7.43,0,0,0,5.91,7.15l60.91,12.72c-6,27.73-8.38,34.44-11,47.9s.72,16.1,5,19c3.41,2.27,25.78,9.38,25.78,9.38,2.83,1-1.67,7.66-5,16.56-3.78,10.11-1.33,13.33,2.67,16.5s16.87,11.61,21.89,15.26c6.32,4.58,11.57,7.32,16.25,7.32s34.75-2.19,40.08-1.85c5,.32,32.37,16.76,39.06,20.89a20.44,20.44,0,0,0-.28,4.5c.39,12,14.7,33.13,19.55,42.27,3.12,5.87,3.67,8.89,8,8.82s11.67-2.6,13.64,0c1.69,2.23,2,10.2,2.59,16.58a7.3,7.3,0,0,0,.34,3.06c1.21,6.44,1.42,9.35,2.1,14.47-5.17-1.72-9.36-3.4-13.71-4.41a7.87,7.87,0,0,0-5.77,1.06c-16.22,11.79-32.41,23.65-48.31,35.87a13.81,13.81,0,0,0-4.8,8.57c-.39,3.66,1.25,7.54,2.12,11.9h-18.3c-2.62,0-4.69,0-6.36.1a63,63,0,0,1-22.12-3.72c-1.84-.66.73-3.12,2-5.25,4.83-8.08,6.43-10.91,3.08-15.08-2.78-3.47-59.83-38.75-83.15-21.64a4.36,4.36,0,0,0-.73.7c-5.86-3.9-41.64-25.53-44.45-28.56-1.08-1.17.83-23.36,1.28-30S819.89,704.89,815,703.56,783.5,710,779.5,710s-19.76-33-24.38-33c-7,0-57.49,7.52-94.56,13.07-.94-7.75-3.59-29.61-3.87-33.21-.36-4.4-4.8-11.06-10.13-11.06s-26.67,2.66-26.67,2.66L573,611.87C593,596.64,623.26,573.45,631.5,566.63ZM561,589.55c.6.75,7.81,6.83,8.41,7.58l-33.74,27.2c-.61-.78-7.85-6.89-8.46-7.68ZM516.08,612l-8.5-7.36c6.93-5.61,37.67-27.85,37.67-27.85L553.1,584Zm39.37,13.38c1.7-1.32,7-5.4,14.2-10.87,10.71,8.92,46.56,38.55,50,38.21,5.66-.56,21-2.45,25-2.45s7.11,3.73,8,7.78c.74,3.4,3.07,25.65,3.8,32.66-16.55,2.48-29.82,4.46-34.25,5-7.05.87-22,.26-39.33-7.34-7.79-3.4-42.12-32.91-52.61-42C538.72,639.39,546.83,632,555.45,625.33Zm-62.91-27.59c5.12-7.31,37.51-32.85,44.86-39.22l68.06,16.36a2.12,2.12,0,0,1,.5,3.93c-3.34,1.75-6.91,4.22-12.13,7.55-4.17,2.66-7.23,2.51-11.79-.43-10.74-6.92-17.91-10.65-28.94-17.14-3.41-2-7.27-1.55-14.4,3.32-8.08,5.51-13,8.87-20.82,14.9-6.59,5.1-11.09,7.94-19.51,14.17-2.67,2-2.75,5.18.93,9.13,14.62,15.67,18.9,20.27,27.93,28.52-6.8,5.89-10.54,8.75-17.47,14.56C495.79,637.1,484.82,613.08,492.54,597.74ZM334.13,884.23c2.37-.4,2.47-5.77,1.82-8.15-2.38-8.77-17.34-56.44-20-64.42,11.68-8.95,22.7-17.43,33.76-25.87,20.69-15.78,41.48-31.43,62.09-47.32,21.28-16.4,42.38-33.05,63.61-49.54C492.25,675.85,509.29,663,526,649.78h0c4.09,3.55,43.08,36.48,50.92,41.57s26.06,12.21,47.84,9.09,122.2-19,129-18.77c2.4.08,16.2,26.11,21.61,31.55s29.45-5.41,37.89-4.55c4.08.41,28.1,21.56,30.83,26.16.57.95-2.58,25.95-1.25,31s41.28,27,47,30.59c-.5,1.05-1,2.2-1.64,3.41-2.36,4.65-4.44,9.95-6.57,14.24-1.59,3.21-537.41,86.68-584.59,94-1.85-5.24-3.7-10.48-5.59-15.7Zm595,15.27c8.17,3.59,24.47,10.82,31,14.13A12.62,12.62,0,0,1,963,916a4.9,4.9,0,0,1,1.2,2.2c2.57,10.49,21.42,87.27,22.35,92.23,1,5.34,5.12,10.67-7.78,2.67s-22.93-15.84-35.31-22.05c-11.31-5.66-16.15-2.54-29,7.86s-66.55,49.92-70.55,51.25c-.55.18-5.57-.9-13.78-2.9,2.63-5.28,4.59-14.73,3.8-18.1-.32-1.37-1-3.09-4.39-4-8.1-2.78-14.48-4.71-22.36-7.21a9.4,9.4,0,0,0-4.37-.36,4,4,0,0,0-1.26.39c-4.57,2.54-9.09,13.49-9.1,19.59-54.57-14.29-137.28-36.82-170.05-45.77-.68-5.3-2.71-13.12-2.71-13.12l-20.47-6.25,6.63-13.4h0c11.69-13.13,60.85-68.38,66-74.25,7.31-8.35,11.87-12.1,20.67-13.5,13.29-2.11,86.22-13.7,92.17-14.16l136.77,21.72c1,.18,1.2,2.81.67,3.72-2.85,4.9-3.15,5.41-5.54,9.7C915.61,894,924.77,897.57,929.17,899.5Zm-530,201.5c-2.07.13-4.16-.13-6.24-.18-34.08-.84-68.16-1.88-102.25-2.39-10.26-.15-16.34-6.77-22.83-12.71-19.58-17.94-38.78-36.3-58.29-54.32-11.53-10.65-23.47-20.88-35.07-31.48s-23.19-21.57-35.09-32.65c3.71-5.49,11-1.9,12.32-1.42,7.87,2.8,47.2,20,58.14,25.09a34.76,34.76,0,0,0,5.89,2.17L279,1051.72h25.33L322,1035.3l48.19,4.43A18.38,18.38,0,0,0,372,1043c12.33,18,23.5,36.83,36.09,56.89C404.7,1100.35,401.93,1100.82,399.14,1101Zm67.25-122.72c.16,6.37.17,11.19.46,14.42l-18.93-6.27a88.34,88.34,0,0,1-9.78-3.42c-8.92-4.19-13.42,3.25-18.45,7.5-15.78,13.33-30.92,27.41-46.45,41a11.87,11.87,0,0,0-3.23,3.84c-14.49-1.43-43.9-4.29-46.9-4.29-4,0-3.55-.22-9.11,5.08s-10.56,10.49-10.56,10.49-11,0-22.22-.62c-1.66-2.21-42.72-39.73-56.58-52.38A23.87,23.87,0,0,0,228,993c7.81-2.21,11.43-2.45,15.09-5.88,6.57-6.18,11.56-14.05,17.21-21.2,3.64,2.67,7.08,5.28,10.65,7.61,5.18,3.38,32.53-10.76,39.08-14a40.3,40.3,0,0,0,5.12,8c3.54,4.55,78.42-.8,152-5.44C466.29,965.8,466.23,972,466.39,978.28Zm1.5-20.51c-9.16.1-148,9.34-149.78,5.77s-5.85-12.47-5.85-12.48h0c-4.72-12.91-9.22-25.9-13.77-38.87,25.83-3.91,276.6-41.86,298.09-45.52,2.71-.47,7.64-1.28,14.26-2.37-27.05,17.08-128.08,84.28-140.92,93.53C469.34,957.78,468.67,957.76,467.89,957.77Zm528.44,119c-2.59-.66-.37-16.08-1.18-16.88-3.77-3.71-20.31-29.74-21-29.92-1.48-.36-2.31.53-3.06,1.21-15.57,14.12-39.86,38.4-40,38.7,0,0-4.11,8.8-4.1,10.69a129.7,129.7,0,0,0,2,12.85c4.4,21.65,6.89,29.26,9.39,45-11,0-141.89-3.18-184.57-3.79,3.45-5.77,20-36.11,20.45-37.54.56-2.19-.38-4-2.79-4.79-7.32-3-18.09-5.87-25.3-9.07-10.14-4.51-21.17-5.52-31.51-9.54-18.57-7.22-37.83-12.66-56.84-18.72-15.3-4.88-30.71-9.4-46-14.43-18.9-6.23-37.63-13-56.52-19.22s-38-12.14-57-18.29q-12.82-4.15-25.62-8.41c-.08-9.48-.86-31.09.77-33.31s120.45-80.44,148.45-98.84c40-6.53,114.24-18.51,161.11-26v16.86s-90,12.11-101.62,16.77c-1.86.75-5.57,3.09-9.47,7.53-24.64,28-63,70.26-70.84,80.16C585.59,953.47,537,940.1,530.25,939A12.74,12.74,0,0,0,521,941.2L489.26,961a1.9,1.9,0,0,0,.52,3.45c20.12,5.18,105.05,26.95,127.21,31.38h0l183,48.61,15.63,4.35c.59.18,3.63,1,6.83,1.82l.14.05q.46.13,1,.24c3.28.85,6.46,1.66,7.07,1.78,3.67.7,5.76,1.26,13.06,2.44,7.55,1.22,70.09-49,78.11-55.22,9.11-7.11,12.43-7.3,19.33-4.22,4.61,2.05,25.28,16.13,40.89,25,7.77,4.41,12.25,1.29,9.89-8.56-7.65-31.88-23.07-96.07-24.9-99-2.39-3.84-43.24-20.68-43.24-20.68l5-8.27a7.08,7.08,0,0,0-5.22-10.24L788.38,853.19a38.81,38.81,0,0,0,0-4.61c-.1-5.25-.13-10.25-.13-13,16.3-2.62,28.65-4.59,34-5.44,0,0,54.75-9.67,63.23-11.95,0,0,6.61-16.37,8.11-19.17,11.33-21.16,73.87,14.1,77.33,16.7,3,2.25-1.59,7.78-6.42,14.75-4.66,6.75,4.42,8.67,4.42,8.67-6.15,5.73-21.17,20.41-22.5,24.41s.5,5.31,7.61,8.42,16.25,4.17,18.47,9.5,43.11,116.35,49,133.24c4.79,13.74,20.17,57.42,25.75,73.23C1038.17,1086.34,1011.05,1080.54,996.33,1076.76Zm58.1,16.37h0s-19.46-54.65-38.86-108.88c2.72-2.34,8.84-18.43,9.87-21.36l-1.11-8.22c6.2-1.71,22.25-5.66,31.41-8.17l11.33,30.66c-6.64,5.26-13.31,10.49-20.11,15.54-4.16,3.09-3.79,5.11-.73,8.31q27.39,28.54,54.66,57.21c6.66,7,12.84,14.54,19.35,21.73,1.21,1.33,2.49,2.6,3.87,3.92-9.3,7.36-27.82,21.89-30.36,22.88-2.69,1-27.17-6.47-37.34-9.68C1055.87,1095.91,1055.17,1094.49,1054.43,1093.13Zm321.91-181.27c-5.6,4.86-49.55,42.45-55.12,47-4.83,3.93-8.34,6-10.9,6.92a3.17,3.17,0,0,1-3.36-5.22c4.92-4.82,13.44-12.76,13.9-14.13,0-.13.08-.25.11-.38.71-2.8-1.9-5.48-4.6-4.49a2.44,2.44,0,0,0-.73.39c-7.9,6.25-29.74,25.34-37.49,31.79q-16.12,13.42-32.29,26.82-16.41,13.56-32.85,27-23.35,19.15-46.75,38.27c-3.82,3.15-7.42,6.58-11.28,9.68s-4.39,5.67-.3,9c.88.72,2.27,2,3.65,3.45a5.08,5.08,0,0,1-.41,7.51c-15.76,12.78-65.51,52-76.59,60.36-1.26,1-3.88.48-5.72.18-.09-.22-.12-.28-.22-.5,1.46-2,1-7.28-.27-11.41-3.87-11.85-11.11-29.27-15.18-38.87,10.55,3.19,31.17,9.25,34.32,8.76,4.26-.67,34.86-25.32,34.86-25.32,3.83-3.1,6.77-5.44,9.67-7.84q17.1-14.11,34.18-28.27c3.53-2.92,3.19-5.53.06-8.82-6.87-7.23-13.58-14.62-20.33-22l95-77q10.71,11.13,21.41,22.25c3,3.09,5.23,2.75,8.41,0,8.7-7.49,17.63-14.73,26.65-21.84h0s29.09-23.81,32.2-28c2.69-3.66-.26-27.6-1.11-36.23q9,4.75,18.15,9.32c7.18,3.61,14.57,6.8,21.78,10.35C1381.38,903.62,1381.72,907.2,1376.34,911.86Z"/></g><g id="Thrusters"><path d="M1006.08,1093.41a7.64,7.64,0,1,0,8.12,7.63A7.88,7.88,0,0,0,1006.08,1093.41Zm330.1-252.56c-3.14-2.11-6.91-2.34-8.43-.52s-.21,5,2.93,7.13,6.91,2.34,8.43.52S1339.32,843,1336.18,840.85ZM436.9,1036.19c-5.6,0-11.87,6.2-11.93,12.3-.64,5.74,3.63,8.67,10.38,8.67,8.44.11,10.55-8.87,10.43-13.17C445.67,1040,441.41,1036.2,436.9,1036.19ZM224.5,974.13c-.12,4,1.42,6.35,5.64,6.39,5,0,10.71-5.72,10.62-12.94-1.17-.87-3.26-3.6-5.71-4C230.4,962.88,224.64,969.27,224.5,974.13Zm928.27-599.85c-2.23-.26-3.67.6-3.91,3.24-.28,3.15,2.69,7,6.78,7.27,2.63,0,2.93-1.77,3.27-3.29C1159.56,378.62,1155.52,374.59,1152.77,374.28Zm74.66,105.62c-3,1.25-4.69,5.58-3.39,9,1.6,4.28,8.14,7.28,12.81,5.56,4.58-1.16,3.32-5.53,3.2-8.56C1239.91,482.55,1230.68,478.57,1227.43,479.9Z" fill="#007aff"/></g></g></svg>