<svg xmlns="http://www.w3.org/2000/svg" viewBox="0 0 1500 1500"><title>Imperial Cutter</title><g id="Imperial_Cutter" data-name="Imperial Cutter"><g id="Colour"><path d="M1473.38,1236.76c-.72-8.56-4.89-17.22-9.07-25-7.71-14.35-16.08-28.4-25-42-14.67-22.35-29.67-44.5-45.19-66.27-8.19-11.5-17.71-22-26.72-33-5.87-7.1-12-14-17.85-21.11-6.65-8-13.18-16.08-19.8-24.1-3.27-4-6.76-7.74-9.92-11.78-6.3-8.06-11.92-16.72-18.77-24.26-16.68-18.38-33.48-36.68-51-54.26-28.49-28.57-56-58.16-87-84.1-6.35-5.31-12.29-11.14-18.12-17-8.5-8.56-16.54-17.57-25.16-26-4.26-4.17-9.39-7.43-14.09-11.15-3.73-3-8.32-4.73-9.32-10.62-.49-2.89-3.54-5.83-6.15-7.78-20.56-15.39-41-30.93-62.06-45.66-19.43-13.61-39.44-26.41-59.34-39.34-21.66-14.08-43.54-27.83-65.23-41.87-4.82-3.13-9.57-6.45-11.62-12.41-1.06-3.11-3-5.9-4.3-9-8.34-20.4-16.42-40.91-25-61.23a165.84,165.84,0,0,0-12-23.82c-2.07-3.32-3.16-6.18-3-9.9.43-12.14,1.3-24.31.9-36.43-.24-7.17,2-12.17,7.28-16.62,3.06-2.56,5.46-3,8.78-.73a81.73,81.73,0,0,0,12.22,7.28c9.48,4.32,19.22,8.1,28.77,12.27,16,7,31.74,14.92,48.11,21,12.07,4.49,24.88,7.25,37.58,9.65a34.78,34.78,0,0,0,17.07-1.59c9.95-3.46,14.86-10.91,12.9-21.92a4.38,4.38,0,0,1,.11-2.13c1.68-4.9.6-9.3-1.61-13.87-3.4-7.07-6.23-14.42-9.38-21.61-1.41-3.2-2.58-6.64-4.62-9.4-6.49-8.8-13.25-17.42-20.08-26-11.48-14.35-22.66-29-34.77-42.78-9.63-11-20.48-20.89-30.77-31.3-1.92-1.95-3.73-4-5.6-6-1.31-1.4-2.57-2.85-4-4.15-1.16-1.06-2.59-1.82-3.73-2.9-3.06-2.88-5.82-6.11-9.07-8.75q-18.07-14.71-36.42-29.1c-7.19-5.67-14.65-11-21.82-16.7-6.2-4.91-12.93-8.73-19.85-12.59-11.74-6.54-22.28-15.22-33.55-22.66s-22.29-14.7-33.9-21.23c-8.65-4.86-18-8.52-27.13-12.46-3.45-1.49-7.48-1.74-10.76-3.49-6.35-3.39-12.47-6-20-3.91-6.59,1.82-13,8.4-11.45,13.2a44.09,44.09,0,0,0,4.24,9c10.9,18.23,22,36.35,32.85,54.59,1.9,3.19,1.74,6.59-.39,9.9-2.37,3.67-5.73,7.31-6.38,11.33-1,6.08-4.2,9.38-9,12-2.15,1.19-4.19,2.61-6.39,3.71-4.67,2.33-4.16,5.51-1.72,9.14,2.85,4.23,5.64,8.5,8.48,12.73,3.76,5.63,7.55,11.25,11.74,17.5-17,0-33,.83-48.87-.23-16.88-1.13-33.66-3.94-50.45-6.24-20.07-2.76-40.18-5.37-60.14-8.78-17.82-3-35.59-6.57-53.16-10.82-22.46-5.43-44.78-11.5-67-17.86-17.66-5.05-35.23-10.55-52.58-16.6-18.34-6.4-36.67-13-54.44-20.79-14.85-6.52-28.92-14.84-43.26-22.51-11.62-6.22-23-12.78-34.69-19-10.63-5.65-21.4-11-32.15-16.44-4.49-2.26-8.27-1-11.17,3s-.09,6.66,2.66,9c10.91,9.2,21.91,18.29,33.55,28-5.45,2.82-10.79,4.63-14.91,7.95-5.42,4.35-8.87,2.29-13.28-1.31-11.21-9.14-22.69-18-34.24-26.67-1.41-1.06-4.34-1.56-5.8-.82-4.19,2.11-5.55,13.41-2.43,17.18,7.08,8.56,14.27,17,21.26,25.68,3.51,4.35,7.72,8.56,9.77,13.59,4.77,11.68,6.66,24.15,13.57,35.47,7.47,12.24,12.06,26.42,16.73,40.15q9.82,28.86,17.81,58.32c4.82,17.71,9.47,35.58,8.22,54.28-.1,1.52.6,3.09.92,4.63,1.66,7.94,0,10.75-8.17,10.85-10.23.12-22.94,16.71-23.62,18.43C225.2,542,230.1,554,235.3,565.83c2.77,6.33,7.53,12,9.32,18.49,3.66,13.32,4.88,27.3,1.12,40.7-6.07,21.62-13.07,43-25.43,62.14-5.5,8.52-11.61,16.41-19.16,22.43-9.39-5.48-15.24-15.08-26-17.82-.63-.16-1.12-.87-1.65-1.36-4.92-4.51-9.46-9.56-14.83-13.46-18.22-13.23-36.68-26.15-55.18-39-5.76-4-11.51-8.75-18-10.82-10-3.18-19.76-6.42-28.75-12.11-3.91-2.47-8.85-4.35-13.9-2.24C27.29,619.32,23,624.22,31,639.28c11.82,22.18,24.43,43.94,36.56,66,3.68,6.67,2.83,9.1-3.2,13.57-1.14.85-2.66,3-2.31,3.74,2.73,5.44-.52,7.75-4.58,9.89-3.49,1.84-4.16,4.53-2.26,8,2.27,4.17,4.56,8.34,6.63,12.61,8.6,17.71,18.5,34.85,31.91,49.12a670.19,670.19,0,0,0,54.21,52c19.3,16.4,40.17,31,60.65,46,17.32,12.67,34.75,25.22,52.71,37,13.46,8.81,27.77,16.35,41.81,24.26,15,8.44,29.8,17.07,47.61,18.88,12,1.22,21.84-.75,28.49-11.59,1.06-1.73,2.69-3.65,2.63-5.43a184.92,184.92,0,0,0-1.68-22.83c-1.45-9.29-9.37-15.78-11-25.61-1.15-7-6.56-13.35-10.53-19.7-6-9.54-12.27-18.86-18.52-28.21-5.88-8.78-11.88-17.47-18-26.44,1.47-1.16,2.82-2.78,4.54-3.48,5.16-2.12,9.64-7.71,16.27-3.42,1,.67,2.82.29,4.24.23,16.75-.69,33.53-1.06,50.24-2.27,11-.8,22.42.84,33-4,1.32-.61,3.19-.16,4.78,0,5.25.6,10.52,1.17,15.74,2,4.9.79,10.31-.09,14.09,4.65.91,1.14,3.13,1.49,4.82,1.73,10.64,1.56,21.31,2.89,31.95,4.49q20.1,3,40.16,6.35c13.89,2.28,27.75,4.71,41.63,7,12.33,2,24.71,3.74,37,6,8.14,1.5,16.46,1.94,23.53,7.85,7.93,6.64,16.84,12.13,25.49,17.87,19.35,12.82,39,25.22,58.16,38.3,16.71,11.41,32.8,23.73,49.43,35.26,18.46,12.8,37.33,25,55.84,37.76s36.82,25.81,55.22,38.75q20.07,14.13,40.14,28.27c10.94,7.69,21.88,15.39,32.9,23,1.22.85,2.94,1,4.46,1.38,2.7.65,5.77.59,8.08,1.88,17.3,9.66,34.27,19.93,51.73,29.28,10.12,5.42,18.72,13.75,30.77,15.7,4.91.79,9.58,3.31,14.23,5.35,16,7,32.05,14,47.94,21.27,15.25,7,30.39,14.26,45.48,21.62,14,6.86,27.81,14.24,41.91,21q22.26,10.59,44.93,20.31c20.06,8.67,39.92,18,60.52,25.17,21.14,7.35,43,12.62,64.66,18.47,10.48,2.84,21.06,6,31.79,7.1,12.07,1.22,24.37.47,36.56.11a16.82,16.82,0,0,0,8.66-3.19c3.81-2.7,6.77-6.59,10.56-9.34C1472.65,1256.19,1474.17,1246,1473.38,1236.76Z" fill="#dedef2"/><path d="M1473.38,1236.76c-.72-8.56-4.89-17.22-9.07-25-7.71-14.35-16.08-28.4-25-42-14.67-22.35-29.67-44.5-45.19-66.27-8.19-11.5-17.71-22-26.72-33-5.87-7.1-12-14-17.85-21.11-6.65-8-13.18-16.08-19.8-24.1-3.27-4-6.76-7.74-9.92-11.78-6.3-8.06-11.92-16.72-18.77-24.26-16.68-18.38-33.48-36.68-51-54.26-28.49-28.57-56-58.16-87-84.1-6.35-5.31-12.29-11.14-18.12-17-8.5-8.56-16.54-17.57-25.16-26-4.26-4.17-9.39-7.43-14.09-11.15-3.73-3-8.32-4.73-9.32-10.62-.49-2.89-3.54-5.83-6.15-7.78-20.56-15.39-41-30.93-62.06-45.66-19.43-13.61-39.44-26.41-59.34-39.34-21.66-14.08-43.54-27.83-65.23-41.87-4.82-3.13-9.57-6.45-11.62-12.41-1.06-3.11-3-5.9-4.3-9-8.34-20.4-16.42-40.91-25-61.23a165.84,165.84,0,0,0-12-23.82c-2.07-3.32-3.16-6.18-3-9.9.43-12.14,1.3-24.31.9-36.43-.24-7.17,2-12.17,7.28-16.62,3.06-2.56,5.46-3,8.78-.73a81.73,81.73,0,0,0,12.22,7.28c9.48,4.32,19.22,8.1,28.77,12.27,16,7,31.74,14.92,48.11,21,12.07,4.49,24.88,7.25,37.58,9.65a34.78,34.78,0,0,0,17.07-1.59c9.95-3.46,14.86-10.91,12.9-21.92a4.38,4.38,0,0,1,.11-2.13c1.68-4.9.6-9.3-1.61-13.87-3.4-7.07-6.23-14.42-9.38-21.61-1.41-3.2-2.58-6.64-4.62-9.4-6.49-8.8-13.25-17.42-20.08-26-11.48-14.35-22.66-29-34.77-42.78-9.63-11-20.48-20.89-30.77-31.3-1.92-1.95-3.73-4-5.6-6-1.31-1.4-2.57-2.85-4-4.15-1.16-1.06-2.59-1.82-3.73-2.9-3.06-2.88-5.82-6.11-9.07-8.75q-18.07-14.71-36.42-29.1c-7.19-5.67-14.65-11-21.82-16.7-6.2-4.91-12.93-8.73-19.85-12.59-11.74-6.54-22.28-15.22-33.55-22.66s-22.29-14.7-33.9-21.23c-8.65-4.86-18-8.52-27.13-12.46-3.45-1.49-7.48-1.74-10.76-3.49-6.35-3.39-12.47-6-20-3.91-6.59,1.82-13,8.4-11.45,13.2a44.09,44.09,0,0,0,4.24,9c10.9,18.23,22,36.35,32.85,54.59,1.9,3.19,1.74,6.59-.39,9.9-2.37,3.67-5.73,7.31-6.38,11.33-1,6.08-4.2,9.38-9,12-2.15,1.19-4.19,2.61-6.39,3.71-4.67,2.33-4.16,5.51-1.72,9.14,2.85,4.23,5.64,8.5,8.48,12.73,3.76,5.63,7.55,11.25,11.74,17.5-17,0-33,.83-48.87-.23-16.88-1.13-33.66-3.94-50.45-6.24-20.07-2.76-40.18-5.37-60.14-8.78-17.82-3-35.59-6.57-53.16-10.82-22.46-5.43-44.78-11.5-67-17.86-17.66-5.05-35.23-10.55-52.58-16.6-18.34-6.4-36.67-13-54.44-20.79-14.85-6.52-28.92-14.84-43.26-22.51-11.62-6.22-23-12.78-34.69-19-10.63-5.65-21.4-11-32.15-16.44-4.49-2.26-8.27-1-11.17,3s-.09,6.66,2.66,9c10.91,9.2,21.91,18.29,33.55,28-5.45,2.82-10.79,4.63-14.91,7.95-5.42,4.35-8.87,2.29-13.28-1.31-11.21-9.14-22.69-18-34.24-26.67-1.41-1.06-4.34-1.56-5.8-.82-4.19,2.11-5.55,13.41-2.43,17.18,7.08,8.56,14.27,17,21.26,25.68,3.51,4.35,7.72,8.56,9.77,13.59,4.77,11.68,6.66,24.15,13.57,35.47,7.47,12.24,12.06,26.42,16.73,40.15q9.82,28.86,17.81,58.32c4.82,17.71,9.47,35.58,8.22,54.28-.1,1.52.6,3.09.92,4.63,1.66,7.94,0,10.75-8.17,10.85-10.23.12-22.94,16.71-23.62,18.43C225.2,542,230.1,554,235.3,565.83c2.77,6.33,7.53,12,9.32,18.49,3.66,13.32,4.88,27.3,1.12,40.7-6.07,21.62-13.07,43-25.43,62.14-5.5,8.52-11.61,16.41-19.16,22.43-9.39-5.48-15.24-15.08-26-17.82-.63-.16-1.12-.87-1.65-1.36-4.92-4.51-9.46-9.56-14.83-13.46-18.22-13.23-36.68-26.15-55.18-39-5.76-4-11.51-8.75-18-10.82-10-3.18-19.76-6.42-28.75-12.11-3.91-2.47-8.85-4.35-13.9-2.24C27.29,619.32,23,624.22,31,639.28c11.82,22.18,24.43,43.94,36.56,66,3.68,6.67,2.83,9.1-3.2,13.57-1.14.85-2.66,3-2.31,3.74,2.73,5.44-.52,7.75-4.58,9.89-3.49,1.84-4.16,4.53-2.26,8,2.27,4.17,4.56,8.34,6.63,12.61,8.6,17.71,18.5,34.85,31.91,49.12a670.19,670.19,0,0,0,54.21,52c19.3,16.4,40.17,31,60.65,46,17.32,12.67,34.75,25.22,52.71,37,13.46,8.81,27.77,16.35,41.81,24.26,15,8.44,29.8,17.07,47.61,18.88,12,1.22,21.84-.75,28.49-11.59,1.06-1.73,2.69-3.65,2.63-5.43a184.92,184.92,0,0,0-1.68-22.83c-1.45-9.29-9.37-15.78-11-25.61-1.15-7-6.56-13.35-10.53-19.7-6-9.54-12.27-18.86-18.52-28.21-5.88-8.78-11.88-17.47-18-26.44,1.47-1.16,2.82-2.78,4.54-3.48,5.16-2.12,9.64-7.71,16.27-3.42,1,.67,2.82.29,4.24.23,16.75-.69,33.53-1.06,50.24-2.27,11-.8,22.42.84,33-4,1.32-.61,3.19-.16,4.78,0,5.25.6,10.52,1.17,15.74,2,4.9.79,10.31-.09,14.09,4.65.91,1.14,3.13,1.49,4.82,1.73,10.64,1.56,21.31,2.89,31.95,4.49q20.1,3,40.16,6.35c13.89,2.28,27.75,4.71,41.63,7,12.33,2,24.71,3.74,37,6,8.14,1.5,16.46,1.94,23.53,7.85,7.93,6.64,16.84,12.13,25.49,17.87,19.35,12.82,39,25.22,58.16,38.3,16.71,11.41,32.8,23.73,49.43,35.26,18.46,12.8,37.33,25,55.84,37.76s36.82,25.81,55.22,38.75q20.07,14.13,40.14,28.27c10.94,7.69,21.88,15.39,32.9,23,1.22.85,2.94,1,4.46,1.38,2.7.65,5.77.59,8.08,1.88,17.3,9.66,34.27,19.93,51.73,29.28,10.12,5.42,18.72,13.75,30.77,15.7,4.91.79,9.58,3.31,14.23,5.35,16,7,32.05,14,47.94,21.27,15.25,7,30.39,14.26,45.48,21.62,14,6.86,27.81,14.24,41.91,21q22.26,10.59,44.93,20.31c20.06,8.67,39.92,18,60.52,25.17,21.14,7.35,43,12.62,64.66,18.47,10.48,2.84,21.06,6,31.79,7.1,12.07,1.22,24.37.47,36.56.11a16.82,16.82,0,0,0,8.66-3.19c3.81-2.7,6.77-6.59,10.56-9.34C1472.65,1256.19,1474.17,1246,1473.38,1236.76Z" fill="none" stroke="#000" stroke-linejoin="round" stroke-width="8"/></g><g id="Canopy"><path d="M1391.92,1132.33c-2.17-5.14-16.09-26.33-18.76-30.7s-5.83-4.46-5.16-2,0,15.66,0,20.83-22.17,19.67-27.67,21.17-36.5,1.64-39.83,1.66c-4.83,0-7.83,2-2.42,5.5,3.28,2.13,32.75,19.34,45.92,24.5s31,2,38.69-4.76C1401.3,1152.2,1395,1139.66,1391.92,1132.33Z" fill="#82b3d1"/></g><g id="Shadows" opacity="0.2"><path d="M122.42,730.1,79.3,694.33,68.77,714.62,59.54,736.4l13,36.84,57.16,68.82,59.1,43.66s159.59,97.2,128.92,50.7S122.42,730.1,122.42,730.1Zm195.3-186V515.26l-14.53-5-4.58,43.11S268.53,679,231.82,732.72a151.57,151.57,0,0,0,29.4,3.68l37.39-87.52Zm1055.4,687.35c-27.18-16.76-380.88-215.1-399.64-227.08S808.19,886.64,750.3,833.66s-515.23-511-540.12-540.45-23.58-10.78-23.58-10.78l27.16,35.07,9.77,33.72s395.37,471.88,362,463.17-116.58-22.72-116.58-22.72v4.84l-40.15-4.19L419,785.44l-68.36,1.82L349,792.32l-53.5,15.82,20.61,30.3,23.14-9.11,11.06,3,72.71-5,5.7-5.67,42.11,10.68,176.85,29.39s30.78,19,31.6,19.65,101.22,74.51,101.22,74.51l107.73,79.57,60.6,42.62,24.61,7,45.61,28.58,32.75,16s138.51,66.84,236.05,107.24S1400.3,1248.19,1373.12,1231.43ZM628.72,556.66l21.64,25.59s12.42-17.87-2-36.86S338.56,299.58,338.56,299.58L246.21,250l-9.81,5.32,250.19,191Zm97.13-185.27,18.73-6.78s.28-15.06,42.57,16.38a356.19,356.19,0,0,1,74.09,74c7.86,10.48-1.9,17.28-1.9,17.28l20.9,11.27,44.54,19.27s91,50.43,39.3-14.11-178.2-164.27-178.2-164.27l9.33,20.31-3.87,6.47-65.49-48.33-8.45,7.8L710,335.32l12.49,33.43ZM744.58,510.3c6.85,3.76,40.46,13.18,46.76,11.27s9.32-2,6-11.27-37.91-36.52-32.68-29.43C801.29,530.49,737.72,506.54,744.58,510.3ZM727.44,711.35c116.72,47.74,133.81,34,133.81,34l3.91-8s12.29,12-20.19-25.95S675.16,606.68,671,606.63C671,606.63,610.71,663.62,727.44,711.35Zm363.7,288.27a83.4,83.4,0,0,1,7.86-11.2c-44-36.2-72.77-48.78-72.77-48.78l10.88,16.27Zm75.41-88.91,15,12.28,8.35-8.6s-41.24-38.4-60.36-44.86S1166.55,910.71,1166.55,910.71Zm-13.27,58.92,26.29,33.72L1188.9,990s-32.18-28.49-38.81-30.7S1153.28,969.63,1153.28,969.63Z" fill="#0c0c0c"/></g><g id="Outline"><path d="M1473.38,1236.76c-.72-8.56-4.89-17.22-9.07-25-7.71-14.35-16.08-28.4-25-42-14.67-22.35-29.67-44.5-45.19-66.27-8.19-11.5-17.71-22-26.72-33-5.87-7.1-12-14-17.85-21.11-6.65-8-13.18-16.08-19.8-24.1-3.27-4-6.76-7.74-9.92-11.78-6.3-8.06-11.92-16.72-18.77-24.26-16.68-18.38-33.48-36.68-51-54.26-28.49-28.57-56-58.16-87-84.1-6.35-5.31-12.29-11.14-18.12-17-8.5-8.56-16.54-17.57-25.16-26-4.26-4.17-9.39-7.43-14.09-11.15-3.73-3-8.32-4.73-9.32-10.62-.49-2.89-3.54-5.83-6.15-7.78-20.56-15.39-41-30.93-62.06-45.66-19.43-13.61-39.44-26.41-59.34-39.34-21.66-14.08-43.54-27.83-65.23-41.87-4.82-3.13-9.57-6.45-11.62-12.41-1.06-3.11-3-5.9-4.3-9-8.34-20.4-16.42-40.91-25-61.23a165.84,165.84,0,0,0-12-23.82c-2.07-3.32-3.16-6.18-3-9.9.43-12.14,1.3-24.31.9-36.43-.24-7.17,2-12.17,7.28-16.62,3.06-2.56,5.46-3,8.78-.73a81.73,81.73,0,0,0,12.22,7.28c9.48,4.32,19.22,8.1,28.77,12.27,16,7,31.74,14.92,48.11,21,12.07,4.49,24.88,7.25,37.58,9.65a34.78,34.78,0,0,0,17.07-1.59c9.95-3.46,14.86-10.91,12.9-21.92a4.38,4.38,0,0,1,.11-2.13c1.68-4.9.6-9.3-1.61-13.87-3.4-7.07-6.23-14.42-9.38-21.61-1.41-3.2-2.58-6.64-4.62-9.4-6.49-8.8-13.25-17.42-20.08-26-11.48-14.35-22.66-29-34.77-42.78-9.63-11-20.48-20.89-30.77-31.3-1.92-1.95-3.73-4-5.6-6-1.31-1.4-2.57-2.85-4-4.15-1.16-1.06-2.59-1.82-3.73-2.9-3.06-2.88-5.82-6.11-9.07-8.75q-18.07-14.71-36.42-29.1c-7.19-5.67-14.65-11-21.82-16.7-6.2-4.91-12.93-8.73-19.85-12.59-11.74-6.54-22.28-15.22-33.55-22.66s-22.29-14.7-33.9-21.23c-8.65-4.86-18-8.52-27.13-12.46-3.45-1.49-7.48-1.74-10.76-3.49-6.35-3.39-12.47-6-20-3.91-6.59,1.82-13,8.4-11.45,13.2a44.09,44.09,0,0,0,4.24,9c10.9,18.23,22,36.35,32.85,54.59,1.9,3.19,1.74,6.59-.39,9.9-2.37,3.67-5.73,7.31-6.38,11.33-1,6.08-4.2,9.38-9,12-2.15,1.19-4.19,2.61-6.39,3.71-4.67,2.33-4.16,5.51-1.72,9.14,2.85,4.23,5.64,8.5,8.48,12.73,3.76,5.63,7.55,11.25,11.74,17.5-17,0-33,.83-48.87-.23-16.88-1.13-33.66-3.94-50.45-6.24-20.07-2.76-40.18-5.37-60.14-8.78-17.82-3-35.59-6.57-53.16-10.82-22.46-5.43-44.78-11.5-67-17.86-17.66-5.05-35.23-10.55-52.58-16.6-18.34-6.4-36.67-13-54.44-20.79-14.85-6.52-28.92-14.84-43.26-22.51-11.62-6.22-23-12.78-34.69-19-10.63-5.65-21.4-11-32.15-16.44-4.49-2.26-8.27-1-11.17,3s-.09,6.66,2.66,9c10.91,9.2,21.91,18.29,33.55,28-5.45,2.82-10.79,4.63-14.91,7.95-5.42,4.35-8.87,2.29-13.28-1.31-11.21-9.14-22.69-18-34.24-26.67-1.41-1.06-4.34-1.56-5.8-.82-4.19,2.11-5.55,13.41-2.43,17.18,7.08,8.56,14.27,17,21.26,25.68,3.51,4.35,7.72,8.56,9.77,13.59,4.77,11.68,6.66,24.15,13.57,35.47,7.47,12.24,12.06,26.42,16.73,40.15q9.82,28.86,17.81,58.32c4.82,17.71,9.47,35.58,8.22,54.28-.1,1.52.6,3.09.92,4.63,1.66,7.94,0,10.75-8.17,10.85-10.23.12-22.94,16.71-23.62,18.43C225.2,542,230.1,554,235.3,565.83c2.77,6.33,7.53,12,9.32,18.49,3.66,13.32,4.88,27.3,1.12,40.7-6.07,21.62-13.07,43-25.43,62.14-5.5,8.52-11.61,16.41-19.16,22.43-9.39-5.48-15.24-15.08-26-17.82-.63-.16-1.12-.87-1.65-1.36-4.92-4.51-9.46-9.56-14.83-13.46-18.22-13.23-36.68-26.15-55.18-39-5.76-4-11.51-8.75-18-10.82-10-3.18-19.76-6.42-28.75-12.11-3.91-2.47-8.85-4.35-13.9-2.24C27.29,619.32,23,624.22,31,639.28c11.82,22.18,24.43,43.94,36.56,66,3.68,6.67,2.83,9.1-3.2,13.57-1.14.85-2.66,3-2.31,3.74,2.73,5.44-.52,7.75-4.58,9.89-3.49,1.84-4.16,4.53-2.26,8,2.27,4.17,4.56,8.34,6.63,12.61,8.6,17.71,18.5,34.85,31.91,49.12a670.19,670.19,0,0,0,54.21,52c19.3,16.4,40.17,31,60.65,46,17.32,12.67,34.75,25.22,52.71,37,13.46,8.81,27.77,16.35,41.81,24.26,15,8.44,29.8,17.07,47.61,18.88,12,1.22,21.84-.75,28.49-11.59,1.06-1.73,2.69-3.65,2.63-5.43a184.92,184.92,0,0,0-1.68-22.83c-1.45-9.29-9.37-15.78-11-25.61-1.15-7-6.56-13.35-10.53-19.7-6-9.54-12.27-18.86-18.52-28.21-5.88-8.78-11.88-17.47-18-26.44,1.47-1.16,2.82-2.78,4.54-3.48,5.16-2.12,9.64-7.71,16.27-3.42,1,.67,2.82.29,4.24.23,16.75-.69,33.53-1.06,50.24-2.27,11-.8,22.42.84,33-4,1.32-.61,3.19-.16,4.78,0,5.25.6,10.52,1.17,15.74,2,4.9.79,10.31-.09,14.09,4.65.91,1.14,3.13,1.49,4.82,1.73,10.64,1.56,21.31,2.89,31.95,4.49q20.1,3,40.16,6.35c13.89,2.28,27.75,4.71,41.63,7,12.33,2,24.71,3.74,37,6,8.14,1.5,16.46,1.94,23.53,7.85,7.93,6.64,16.84,12.13,25.49,17.87,19.35,12.82,39,25.22,58.16,38.3,16.71,11.41,32.8,23.73,49.43,35.26,18.46,12.8,37.33,25,55.84,37.76s36.82,25.81,55.22,38.75q20.07,14.13,40.14,28.27c10.94,7.69,21.88,15.39,32.9,23,1.22.85,2.94,1,4.46,1.38,2.7.65,5.77.59,8.08,1.88,17.3,9.66,34.27,19.93,51.73,29.28,10.12,5.42,18.72,13.75,30.77,15.7,4.91.79,9.58,3.31,14.23,5.35,16,7,32.05,14,47.94,21.27,15.25,7,30.39,14.26,45.48,21.62,14,6.86,27.81,14.24,41.91,21q22.26,10.59,44.93,20.31c20.06,8.67,39.92,18,60.52,25.17,21.14,7.35,43,12.62,64.66,18.47,10.48,2.84,21.06,6,31.79,7.1,12.07,1.22,24.37.47,36.56.11a16.82,16.82,0,0,0,8.66-3.19c3.81-2.7,6.77-6.59,10.56-9.34C1472.65,1256.19,1474.17,1246,1473.38,1236.76Zm-102.53-134.65,6.28,10.79-6.45.79c-.48-3.56-1-7.28-1.48-11A.89.89,0,0,1,1370.85,1102.11Zm-1,20.84a7.53,7.53,0,0,1,5.74-1.33c12.67,3.07,16.37,16.27,16.34,24.36,0,10.16-8.68,21.29-18.69,23.66-7.73,1.82-15.85,3.2-23.82.41-6.07-2.14-11-5.24-10.38-10.75-.36-7.88,1.33-12,6.45-15.78C1354,1137.26,1361.63,1129.7,1369.84,1123Zm-19.44-55.3c5,4.8,7.47,8.38,11.24,17.45s3.82,15,3.81,25.8c0,2.08-.3,7-2.63,10.59-2.79,2.6-14,13-23.85,16.09-7.4,2.34-28.7,2.5-37.79,1.48-6.44-.72-12.76-2.46-19.18-3.39-2.53-.36-5.2.25-8.73.48l-27.09-42.55a75.44,75.44,0,0,0,32.46,9.24c36.53,2.31,55.43-25.72,44.41-48.78-1.54-3.23-3.33-6.41-5.58-10.51a.45.45,0,0,1,.66-.58c3.3,2.32,6,4.13,8.55,6.1C1334.65,1055.19,1343.12,1060.73,1350.4,1067.65Zm-18.48,95c-8.65-4.21-20.23-10-29.62-14.56a1.09,1.09,0,0,1,.49-2.07h32.54C1331.89,1151,1331.28,1157.62,1331.92,1162.64Zm-179.63-67.34c.39-1.06,6.21-1.47,8.49-.25,13,6.91,25.74,14.26,38.37,21.8,4.32,2.57,8.25,5.73,10.54,10.36a3.58,3.58,0,0,1-2.07,5l-.06,0c-7.87,2.23-15.75,4.46-23.68,6.5a8,8,0,0,1-4.77-.24c-6.19-2.57-12.36-4.51-15.7-11.8-2.82-6.13-15-13.93-22.72-16.86a1.11,1.11,0,0,1-.43-1.78C1144.14,1103.8,1150,1101.42,1152.29,1095.3Zm-10.48-31.09c-10.65-7.82-20.6-16.61-30.94-24.87-2.83-2.27-6.11-4-8.94-6.25a24.17,24.17,0,0,1-4.48-5.2c-1.86-3.73-4.52-7.51-1.78-19.73,3.22-14.36,6.82-15.89,10.32-20.42.82-1,1.31-1,1.51.06.71,3.12,1.23,6.4,2,9.33,2.73,11.09,23.25,14.3,38.51,17.7a89.7,89.7,0,0,0,4.19,9.5c4.29,7.46,8.46,15.05,13.45,22.05,7,9.86,14.77,19.23,22.18,28.83a11.26,11.26,0,0,1,2.33,4.38c0,.05,1.58,8.21,2.46,12a1,1,0,0,1-1.44,1.08c-9.24-5.22-18.21-10.27-27.15-15.38C1156.53,1073,1148.69,1069.25,1141.81,1064.21Zm16.55-47.15c10.71-2.21,21.56-3.27,31.57-6.77,16.29-5.68,31.4-18.8,31.86-39.08,0-2.2.81-4.39,1.27-6.73,17.14,7.23,26.43,12.73,44.81,24.87,1.42.94,5.91,3.95,7.17,5.06,3.2,2.82,5.34,5.41,6,10.68,1.13,9.4,8.52,16.25,14.91,23.23a172.84,172.84,0,0,1,15.42,19.62,67.71,67.71,0,0,1,8.05,15.67c3.53,10.13-12.28,29.32-30.45,32.13-9.42,1.45-17.54-.42-26.83-4-10.69-4.07-29.21-14.44-32.33-15.94a147,147,0,0,0-15.48-6.65,44.11,44.11,0,0,0-7.7-1.53c-5.61-.94-8.84.06-13.45,4.12C1178.81,1055,1165.53,1037.65,1158.36,1017.06Zm20.39-19.69c-4.74-7-25.15-31.25-26.17-34.06-.61-1.67-1-4.31-.18-5.37s3.75-1.41,5.32-1.34c9.44.41,18.15,7.12,27,11.22,5.82,2.7,11.23,6.27,16.86,9.47C1195.16,984.65,1185.67,989.11,1178.75,997.37Zm35.57-19.88c-3.84,13-16.24,21.64-27.5,26.86-2.68-7,1.51-7,6.69-11.21,1.83-1.49,7-5.82,7.2-6C1212.61,976.74,1216.83,965.89,1214.32,977.49ZM1338,1047.13a.49.49,0,0,1-.66.71c-9.11-5.81-18.33-11.48-27.25-17.58-9.88-6.77-19-14.38-22.16-26.91C1306.73,1015.56,1324.11,1029.26,1338,1047.13Zm-73.87-84.55c7.55,8,11.45,13.43,19,22.19a64.4,64.4,0,0,1,6.27,9,1,1,0,0,1-1.45,1.33c-5.38-3.93-10.85-7.75-16.17-11.75-2.26-1.7-18.12-10.93-23.25-13.56-7.72-4-14.91-9.06-22.8-12.6-4.1-1.85-4.88-5.09-6.68-8.16-3.78-6.45-8-12.66-11.48-19.25a44.32,44.32,0,0,1-3.09-9.12,2.42,2.42,0,0,1,3.56-2.74c6.9,4.07,14.12,7.75,20.36,12.66C1241.92,941.31,1252.19,950,1264.09,962.58ZM984.38,711.46c40.26,24.31,77.36,52.66,110.37,86.19a.51.51,0,0,1-.67.76L983.63,712.55A.66.66,0,0,1,984.38,711.46Zm65.79,64.13c17.58,12.67,34.62,26.1,51.86,39.25,19.91,15.18,39.14,31.38,59.86,45.36,19.33,13,34.17,30.46,51.26,46.14-11.81.95-19.11-6.09-26.9-12.55-7.59-6.3-15.49-12.27-23.59-17.89-8.66-6-17.43-12-26.72-16.88-3.74-2-9-1.21-13.55-1.38-.61,0-1.84,1.84-1.77,2.76s1.5,2.31,2.29,2.29c12.76-.35,21.65,8,31.06,14.41,12.24,8.32,23.7,17.82,35.2,27.17,4.75,3.86,4.22,5.57-.94,9.29a58.46,58.46,0,0,0-4.7,4.07c-2.62,2.73-9.67-2.9-11.12-4.36-12.41-12.49-22.94-23.62-35.34-36.12-2-2-5.37-5.92-7.55-7.62a6.58,6.58,0,0,0-2.51-1,2.55,2.55,0,0,0-3.14,2.69,11.61,11.61,0,0,0,1.74,3.87q21.92,21.91,43.88,43.77c1.24,1.23,7.8,5.91,9.68,7.3,3,2.22,5.41,1,8.42-1.91,3.27-3.17,5.34-5.75,9-9.65,1.28,4.51,2.16,7.64,3.21,11.36,3.91,14.12,6.08,20.17,8.85,26.79,2,4.86,2.32,7.82,2.32,14.28,0,1.8-1.79,5.51-4.35,5.56-9.89-5.17-19.3-10.21-28.82-15-7.32-3.72-14.33-8.22-23.24-7.42-6.29.57-8.49,3.42-9.59,9.5-1.35,7.38,25.74,34.87,30,42.24-1.78.5-4.6,1.27-7.37,2.22-13.39,4.58-37-1.2-45.36-5-8.82-4-6.8-9.62-10.3-14.82-2.83-4.19-5.35-9.05-9.24-12a377.13,377.13,0,0,0-33.12-22.55c-10.74-6.44-22.17-11.75-33.42-17.31-1.77-.87-4.24-.68-6.32-.45a2.21,2.21,0,0,0-.37.08,2.74,2.74,0,0,0-.86,4.57,1.7,1.7,0,0,0,.87.5c12.22,1.91,22.09,8.8,32.14,15.15,12.15,7.67,24,15.81,36,23.76,5.43,3.61,5.55,4.78,1.15,9.23-1.52,1.53-3.07,3-4.45,4.69s-2.5,3.4-4,5.51l-16.06-13.27c-12.14-10-24.4-19.91-36.33-30.19-3.41-2.94-5.68-7.17-8.8-10.5a8.82,8.82,0,0,0-2.91-1.84,2,2,0,0,0-2.74,1.45c-.21,1.2-.33,2.31.17,2.89,5.64,6.52,11.29,13.13,17.69,18.88,9.46,8.5,19.56,16.29,29.38,24.41,2.46,2,4.72,4.32,7.32,6.15,3.21,2.26,3,5,2.12,8.28-5,18.4-.57,34.29,12.29,48.38,14.47,15.87,32.6,26.71,50.42,38,1.33.84,2.61,1.76,4.07,2.74-2.83,9.06-9.44,12.81-18.44,13.55-1.29.1-3,.69-3.55,2-2,4.74-4,7.25,1.88,9.82a203.22,203.22,0,0,1,19.55,10.26,26.86,26.86,0,0,1,11.91,13.75,1.34,1.34,0,0,1-.67,1.66c-6.92,3.5-12.83-1.15-18.45-3.64-25-11.1-49.79-22.86-74.62-34.42-1.74-.81-3.7-1.64-4.87-3-.73-.86-.72-3-.12-4.26.69-1.48,1.64-2.51,1.31-3.09a5.1,5.1,0,0,0-3.21-2c-2.93-.59-6.09-.32-8.87-1.28-4.18-1.44-8.87-2.79-12-5.65-8.62-7.83-18.52-14.64-23.77-25.62-2.7-5.65-14.21-26-10.06-54.47.71-4.87,1.57-9.74,2.06-14.65,1.34-13.36-3-21.16-15.42-27.46-14.49-7.36-29.1-14.49-43.57-21.9a20.51,20.51,0,0,1-6.57-5.13c-3.67-4.58-4-4.77-7.83-.11-4.77-2-9.13-3.12-7.7-10,.24-1.14-2.18-3.14-3.7-4.3-9-6.86-18.1-13.68-27.28-20.34-21.2-15.38-42.55-30.55-63.69-46-13.37-9.79-27-19.33-39.51-30.15-8.54-7.37-15.36-16.74-22.92-25.24-.94-1.06-1.74-2.24-2.79-3.61-8.85-12.57-18-32.75-22.25-49.5C736.68,725.87,734.9,705,730,686.52c-2.68-10-5.49-20-7.32-30.11-.68-3.72.54-8.28,2.23-11.81,10.91-19.34,23.5-20.42,23.68-18-10.14,4.89-16.84,12.52-20.1,23.09a12.4,12.4,0,0,0-.26,6.9c2.44,7.8,5.56,15.4,8,23.2,4.26,13.5,8.94,26.93,12.14,40.69,5,21.54,10.06,43,19.88,63a1.93,1.93,0,0,0,.46.58c1.88,1.71,4.91.37,5.29-2.15a3.54,3.54,0,0,0-.08-1.66c-1.16-3.59-3.18-7-4.77-10.36-8.36-17.79-11.24-45.94-17.57-68.71-.51-1.85-1.12-3.68-1.77-5.5,17.45,9.37,59.77,31.92,69.72,37.34,1.13.61,2.09,3.13,1.78,4.44-.67,2.82-2.22,5.43-3.4,8.14-1.26,2.9,1.84,10.41,5.45,13.68,8.51,7.72,16.78,15.72,25.49,23.21,8.5,7.3,17.39,14.13,26.15,21.12q18.85,15.06,37.76,30c14.29,11.24,28.68,22.33,43,33.59,11.38,9,22.56,18.19,34,27.09,17,13.24,33.38,27.8,54.1,35.12,9.66,3.41,20.11,4.64,30.23,6.7,12.63,2.58,24.83.6,37.15-2.81,13.8-3.82,18.37-20,16.37-29.88-1.79-8.81-5-17.4-8.28-25.83-4.21-10.89-12.4-19.06-21.06-26.33-14.6-12.24-29.79-23.78-44.83-35.5-10.78-8.4-21.68-16.67-32.59-24.91q-25.72-19.44-51.52-38.76c-17.46-13.15-34.78-26.48-52.4-39.41a185.83,185.83,0,0,0-23-14.64c-3.09-1.63-7.7-1.35-11.37-.66-6.71,1.26-12.48.72-17.57-4.3-6.16-6.07-47.75-33.47-53.17-37.31-1.78-1-1.78-1.7.23-1.55,4.92.9,9.87,1.64,14.75,2.72,12.66,2.79,25.36,5.43,37.91,8.67,19.56,5,38,12.77,56,22.17,19.88,10.4,37.67,23.75,56,36.33C1001.3,741.05,1025.89,758.1,1050.17,775.59ZM911.86,1012.44a110.61,110.61,0,0,0,10.06,13.65c.8,1,4,5.21.36,3.93-8.72-5.19-18.87-8.78-27.29-16.32,5.16-5.44,3.16-8,1.55-11.22,7.53-5,11.85-12.1,11.38-21.09-.66-12.44,6.73-35.63,5.55-48.18,4.28-.7,6.74,9.42,12.94,8.41-4.63,11.94-14,23.27-12.94,35.71,1.62,18.51,8.87,34.93,19.45,50,.4.56,2.25,4.37-1.3,2.22-2.1-1.37-2.88-2.24-6.69-7.13-3.5-4.48-6.19-7.48-9.48-12.14a14.54,14.54,0,0,0-4.85-4.32C908.08,1007.23,910.69,1010.62,911.86,1012.44ZM738.56,860.88c2.65,10.54,10.61,18.67,17.35,27a6.6,6.6,0,0,1,1,2.14,1.17,1.17,0,0,1-1.47,1.36,6.92,6.92,0,0,1-2-1.15c-8.31-9.19-16-17.73-24.33-26.93a5.71,5.71,0,0,1-.89-1.27c-4.47-10.26-6.14-13.33-10.67-18.43-15.46-17.35-32-33.72-48-50.61-14.83-15.69-29.4-31.62-44.18-47.34-13.46-14.33-27.15-28.44-40.56-42.81-11.18-12-22-24.28-33.19-36.25-9.89-10.57-20.14-20.82-30.06-31.36-1.9-2-4.74-5.29-4.18-7,1.55-4.89,3.73-9.83,10-11.27,9.16-2.11,17.8-.44,26.57,2,17.37,4.85,33.18,13,48.68,22,7.86,4.55,15.87,8.86,23.53,13.73q37.3,23.7,74.37,47.78c8.4,5.46,16.61,11.24,24.64,17.23a11.58,11.58,0,0,1,3.8,6.44c4.5,21.06,6.78,30.34,17.93,55.06,4.84,10.72,8.34,17.24,16.17,26a263.36,263.36,0,0,0,22.64,23.18c2.42,2.17,55.66,41.12,79.2,58.36a.57.57,0,0,1-.34,1c-1.57,0-2.76.12-3.59-.38-10.26-6.06-20.22-12.65-30.63-18.43-18.86-10.49-37.17-22.57-58.5-27.34a55,55,0,0,0-25.53.77C736.09,847.23,736.38,852.2,738.56,860.88ZM642.11,561.8c-13.15-12.67-26.19-25.47-39.34-38.15-4.52-4.37-9.26-8.5-13.9-12.74a.35.35,0,0,1,.37-.59c9.78,3.89,19.59,7.69,29.33,11.7,3,1.23,16.18,6.39,19.79,7.69,16,5.73,32,11.37,47.85,17.51a51.73,51.73,0,0,1,17.52,11.36c13.42,13,27.24,25.67,41.22,38.11,10.47,9.3,21.44,18,32.15,27.07a26.2,26.2,0,0,1,5.23,5.61.61.61,0,0,1-.79.86c-5.18-2.74-10.34-5.53-15.57-8.15-20.3-10.18-41.73-17.06-63.78-22.25-8.05-1.89-15.83-.94-23.47,1.45-9,2.79-14.66,14.09-11.78,23.93,5.29,18.1,14.6,34.09,26.65,48.55,4.21,5,8.21,10.24,12.32,15.36a.61.61,0,0,1-.79.9c-3.13-1.89-6.38-3.6-9.42-5.63-9.31-6.2-18.4-12.73-27.84-18.73q-35.13-22.35-70.55-44.25c-6.67-4.1-9.16-10.82-12.48-17-7.43-13.84-14.48-27.88-21.58-41.89-4.09-8-8.78-18.43-13.48-28.09a.77.77,0,0,1,1.13-1c4.23,3,74.65,50.91,75.54,51.5,10.21,6.88,23.49,2.7,26.27-7.44C653.4,575,643.31,563,642.11,561.8Zm13.13-71.63c16.64,2.41,33.24,5.21,49.93,7.08,8.37.93,16.92,0,25.38.24,3.6.09,6.69-1.54,6.85-4.52.19-3.57-.68-8-2.77-10.74-6.43-8.48-15.83-13.42-24.84-18.7-9.61-5.64-19.25-11.23-28.63-17.56a.45.45,0,0,1,.4-.8c7.79,2.63,15.63,5.14,23.3,8.09,16.07,6.17,32.25,12.31,46.28,22.53a286.72,286.72,0,0,1,24.1,19.94c6.58,6,12.57,12.63,18.78,19a1.76,1.76,0,0,1-1,3,19,19,0,0,1-4,.35c-17.64-1.39-34.3-7.17-51.27-11.54-5.26-1.36-10.37-3.29-15.67-4.45a6.36,6.36,0,0,0-3.35.51,1.93,1.93,0,0,0-1,2.85c.75,1.19,1.52,2.31,2.52,2.59,13.83,3.87,27.71,7.56,41.67,10.87,9.22,2.18,18.57,3.84,27.91,5.36,4.41.71,9.57-.43,10.88-4.68,1-3.29-.41-8.14-2.33-11.36-2.8-4.71-6.59-8.84-10.1-13.07a.47.47,0,0,1,.58-.71c17.07,8.75,38.21,24.62,47.71,39.42a.5.5,0,0,1-.61.72c-7.75-3.09-14.82-5.86-21.82-8.78-2.68-1.12-5.16-2.69-7.6.38s-2.47,6-.08,9.16c4.44,5.76,8.84,11.55,13.38,17.49.89,1.27-3,.06-3.9-.21-11.68-5.15-62.51-29.5-71.56-32.22C735,517.61,725,517,715.2,515.8c-6.53-.77-13.19-.45-19.69-1.33-2.77-.38-5.35-2.47-7.9-4-10.39-6.16-32.4-19.23-33-19.55C653.08,490.15,654,489.88,655.24,490.17Zm-27-68c-15.31-3.77-31-6.05-46.6-8.64-12.86-2.14-25.81-3.66-38.7-5.6-6-.9-11.81-2.17-17.53,1.34-.92.57-3.25-.58-4.62-1.42q-26.88-16.59-53.66-33.34c-1.29-.8-2.45-1.83-4.12-3.09,11.78,2.33,22.89,4.76,34.09,6.69s22.65,3.3,34,5.08c9.21,1.45,18.36,3.19,27.56,4.71,12.49,2.07,25,4,37.48,6.07q19.5,3.29,38.95,6.84c18.84,3.42,37.69,6.76,56.48,10.45,11.18,2.2,22.61,4,33.23,7.87,8,2.95,15,8.85,22.39,13.58a302,302,0,0,0,61.26,30.13,73,73,0,0,1,31.55,22.26,15.19,15.19,0,0,1,3.26,9.15c0,9.4-.75,18.8-1.16,27-10.57-8.36-20.9-17.82-32.49-25.35A412.31,412.31,0,0,0,765.43,471c-21.1-10.29-42.28-20.82-64.35-28.62C677.37,434,652.69,428.17,628.21,422.14ZM852.62,738.58a3.68,3.68,0,0,0,.8-.17,1.38,1.38,0,0,1,1.78,1.14c.83,5.83,1.44,6,8.68,5.7,5.76-.26,11.78-.47,17.12-2.31s7.6-16.54,3.53-20.35a7.47,7.47,0,0,0-3.13-1.4,2,2,0,0,1-1.32-2.65c2.69-6-3.74-9.71-4.85-14.75,18.88-3.71,30.81,8.8,44.23,18.66-9.77-2.43-16.23,3.18-22.6,8.78-6.17,5.42-4.73,13.72.73,18.08,14.06,11.22,28.24,22.32,42.73,33,3.95,2.92,9.1,5.5,13.84,5.75a26.75,26.75,0,0,0,19.33-6.58c3.11-2.81,5.27-6.68,8-10.55a1,1,0,0,1,1.4-.21c8,6.2,17.22,13.25,26.34,20.37,8.91,7,17.71,14.06,26.64,21q23,17.84,46.09,35.51c9.89,7.51,19.4,15.36,26.62,25.61,7.84,11.14,10.81,23.89,11.55,37.18.37,6.76-6.54,14-13.18,16.18-17.45,5.72-34.53,3-51.69-1.28-17.73-4.4-32.17-14.66-46.24-25.58-12.13-9.42-24.08-19.08-36.16-28.56-18-14.16-36.23-28.14-54.11-42.51-2.63-2.11-8.94-6.82-6.55-8.48,7.75,1.37,14.32-3.53,20.78-8.7,8-6.37,7.58-18.54-.87-25-5.3-4.07-11.26-7.48-15.89-12.19-7.94-8.07-17.77-13.55-26.61-20.3-9.4-7.18-18.78-6.26-30.83,4.54-4.84,4.34-8.91,9-6.89,17.1-9.65-6.94-18.14-14.08-24.69-23.4a10.47,10.47,0,0,1-.76-11.44c2.34-4.19.88-7.78.11-11.61-1.53-7.57-2.7-15.26-5-22.59a19.59,19.59,0,0,0-7-9.6c-14.14-9.77-28.39-19.45-43.16-28.22-10.36-6.15-21.64-10.78-32.5-16.11-2.69-1.32-4.13-2.75-2.42-6.23,4-8.07,16.94-16,25.82-15.24a6.46,6.46,0,0,1,2.95.95q11.49,7.66,22.89,15.49c8.54,5.89,17,11.86,25.51,17.82,16.71,11.73,33.49,23.34,50,35.3,3.07,2.22,6.41,6.15,6.53,7.48,0,4.34.3,6,.08,10.13-.48,8.65-1.12,11.18-9.78,10a39.07,39.07,0,0,0-10.8.06c-1.18.16-2.94,2.8-2.88,3.74C847,734.28,847,739.12,852.62,738.58Zm72.31-6.79c11.6,8,22.76,16.6,34,25.12a137.22,137.22,0,0,1,12.79,10.75c2.87,2.79,2.2,4.57-1.3,8a19.45,19.45,0,0,1-9,5.23c-3.28.92-6.53,1.94-9.58.4A96.81,96.81,0,0,1,940.56,775c-7-4.8-13.49-10.24-20.14-15.49-6.4-5-12.77-10.14-19-15.35a5.63,5.63,0,0,1,.42-9.09c3.67-2.34,7.45-5.32,11.52-6A17.45,17.45,0,0,1,924.93,731.79Zm-32.14,72.08c-10.31-8-20.38-16.27-30.7-24.25-5.64-4.37-6.17-9.56-1-14.78,1.38-1.4,2.75-2.83,4.26-4.09,8-6.66,15.78-4.81,23.4.78,6.21,4.56,12.49,9,18.6,13.71,6.81,5.23,13.43,10.69,20.2,16,6.32,4.94,6.56,9.35.91,15.18-4.31,4.45-9,7.87-15.52,8C904.12,814.8,898.83,808.54,892.79,803.87Zm-75.32-80L791,710.64c-1.11-.55-43.44-24-44.49-23.93l-.29,0c-2-4.55-4-9.08-5.83-13.67A62,62,0,0,1,736.2,658c5.78,2.94,11.72,5.63,17.32,8.89q20.65,12,41,24.56A165.59,165.59,0,0,1,809.08,702C816.05,707.37,817,715.22,817.47,723.87Zm-99.39-45c.08.44.43,1.89.53,2.87a.4.4,0,0,1-.71.29c-2.71-3.22-4.61-5.52-6.55-7.78-10.62-12.31-20.88-24.88-27.88-39.72-1.49-3.16-3.12-6.41-3.75-9.79-1.9-10.2,3-15.91,15-14.73,15.34,1.51,30.36,6.28,45.5,9.8a.41.41,0,0,1,0,.8l-3.7,1.11c-3.83,1.24-15.16,7.5-20.1,18.56C711,652.52,716.6,671.4,718.08,678.86ZM906.35,661c13.7,8.94,27.91,17.1,41.41,26.34,5.87,4,12.77,6.89,16.49,14.15,2.58,5,7.46,8.9,10.78,14.07-6-4.38-11.77-9.12-18-13.06-13.09-8.23-26.43-16-39.67-24-11.45-6.91-24-11.29-36.69-15-13.79-4-27.54-8.41-41.61-11.06-11.67-2.19-19.62-9.74-28.49-16-9.9-7-19.18-14.94-28.7-22.48-5.16-4.08-10.23-8.28-15.13-12.67-12.78-11.45-25.59-22.88-38-34.78-6.88-6.63-13-14-19.28-21.31-7.26-8.42-14.22-17.12-21.34-25.66a.44.44,0,0,1,.58-.65l21.09,13.78Q733.12,547.8,756.44,563q18.3,11.91,36.66,23.73c19.15,12.38,38.38,24.64,57.45,37.15C869.22,636.13,887.65,648.75,906.35,661Zm-50.23-92.44c9,21.85,17.43,43.91,26.14,65.87a14.29,14.29,0,0,0,1.67,2.76.56.56,0,0,1-.74.79c-5.07-2.93-8.52-5.69-11-10.48-8.51-16.49-17.58-32.71-26.89-48.76-8.21-14.15-17.22-27.85-25.82-41.78a16.63,16.63,0,0,0-1.93-2.35.91.91,0,0,1,1.13-1.41c9,5.18,18.91,9.26,26.59,15.93C850.56,553.67,853.3,561.63,856.12,568.51Zm17.55-100.84c-11,1.9-20.53,6.39-27.36,15.88-8.76-13-20.78-20.89-34.75-26-18.47-6.77-36-15.53-53-25.28-5-2.84-9.29-6.78-14-10.27.95,0,17.87,1,22.9,1,11.17,0,11.23,0,13.85-10.73.79-3.24,1.13-6.59,1.65-9.9.72-4.53-11.56-25.71-9.79-25.15.08-1.74,28.14-12.59,34.77-6.81,9.64,8.41,14.86,20.21,23.56,29.17,6.44,6.63,14,12.17,21,18.24,8.66,7.47,17.46,14.8,25.87,22.53,6.72,6.17,13.13,12.7,19.35,19.39,3.1,3.34,2.13,7.7-2,9.19S887.37,471,882.89,472C881.66,465.55,877.46,467,873.67,467.67ZM793.18,346.33c-9.71-7.22-19.79-14.66-29.81-22.18-8.16-6.12-11.81-14.79-14-24.57C767.29,312.71,784.39,326.13,793.18,346.33Zm-41.53-61.89,6.18-5.12,29.32,22.42L782,307.09Zm218.2,224.42c-14.6-7.31-17.11-8.72-31.77-15.92-5.51-2.7-11.52-6.87-20.72-10.08-3.91-1.37-13.51-.06-17.75,2.53-1.25.76-8-4.89-11-6.42,6-2.78,14.53-7.2,20.64-10,7.27,3.56,50.88,27.13,56.89,31.31,2.38,1.65,3.64,4.92,5.41,7.46ZM850.21,308.77c9.43,7.49,18,16.21,27.82,23,14.63,10.13,26.75,22.81,39.22,35.21,16,15.89,32.37,31.37,45.7,49.77,7,9.68,15.3,18.45,22.25,28.5-1-.89-26.09,7.13-26.93,43.42-7.91-5.12-16.38-10.68-24.93-16.1-9.33-5.91-18.8-11.58-28.08-17.55a56,56,0,0,1-10-7.78c-13.87-14.36-29.18-26.91-45-39.08-9.88-7.6-17.86-18.07-25.42-28.21-11.54-15.48-22-31.79-33.46-48.56,5.35,1.15,15.08-6.6,21.16-11.07,11.86-9.67,18.16-13.8,24-16.63S846.33,305.69,850.21,308.77Zm-28.15-20.39,11.51,7.81c-11.59,8.76-22.8,17.44-34.3,25.72-2.29,1.65-6.26,3.16-8.43,2.26-3.14-1.3-8.22-3.41-6.52-8.29,1.19-3.41,4.49-6.09,6.92-9,.14-.18,1,.1,1.42.29,11.16,4.74,18-3.89,25.7-8.86C820.51,296.88,820.66,292.38,822.06,288.38Zm-32.43-10.25c4.49,3.61,9.34,6.77,14.3,10.33-3.55,2.23-6.17,4.4-9.17,5.58-1.9.74-5,.87-6.5-.18-7.82-5.28-15.32-11-23.56-17.09C777.58,268.19,776.38,267.48,789.63,278.13ZM712,257.28c-4.51-4.28-7.16-11.57-4.93-17,1.81-4.39,7.93-8.67,12.81-9.66,4.72-1,10.84,1.42,15.43,4,13.91,7.74,27.38,16.28,41.49,24.79-14.83,3.87-24.69,13.47-35.13,23.36C731.78,274.38,721.43,266.29,712,257.28Zm37.29,79.16c-.79,7.51-1.55,14.74-2.32,22l-2.06-.19v-22.9Zm-30.51-18.88c11.55-.55,14.54,2.44,14.72,13.59.17,10.13.9,20.25.85,30.38,0,2.09-1.9,4.75-3.72,6-1.18.85-4.66.41-5.57-.7a26.86,26.86,0,0,1-4.47-8.77C716.39,344.89,717,331.41,718.73,317.56ZM372,312q30.81,9.72,61.61,19.44c11,3.48,21.92,7.41,33.07,10.37,11.69,3.11,23.62,5.3,35.44,7.89,10.62,2.34,21.19,4.92,31.86,7,13.29,2.56,26.65,4.79,40,7q17.79,3,35.62,5.61c8.33,1.22,16.7,2.2,25.08,3,15.69,1.51,31.38,3.45,47.11,4.08a330.87,330.87,0,0,0,35.61-.77,106.91,106.91,0,0,0,18.93-3.4,90.39,90.39,0,0,0,17-6.4c2.74-1.34,4.94-1.62,6.7.43,8,9.37,13.33,22.8,16.79,30.83-27.23.49-54.47,1.51-81.68.91-24.78-.54-47.38,1.19-71.79-4.51-1.54-.36-5.6-1.56-7.18-1.83s-4.09-2.65-5.48-4.1c6,.47,16.08,2.09,22.09,2.42,24,1.32,32.75,2.12,42.16,1.7,8.54-.38,17.11-.51,25.64-1.15a3.89,3.89,0,0,0,2.19-1.54,2.33,2.33,0,0,0-.14-3.23c-.76-.7-1.52-1.41-2.33-1.38-4.43.14-6,.38-8.59.48a101.6,101.6,0,0,1-30.73-3.24c-13.29-3.26-27-4.79-40.51-7.13-10.74-1.86-21.45-3.87-32.19-5.7-14.38-2.46-28.78-4.78-43.15-7.24-10.22-1.75-20.4-3.7-30.62-5.43-10.92-1.86-21.83-3.82-32.81-5.26-10.7-1.41-21.46-2.41-32.21-3.22-5.15-.39-9.33,1.64-11.16,8.35-12.87-7.78-25.24-15.07-37.41-22.68-12-7.51-23.82-15.36-36.59-23.63C367.46,310.64,369.74,311.3,372,312Zm-19.33-.23,1.1-1.09c12.51,8,25,16.19,37.57,24,11.25,7,22.8,13.51,34,20.54,6.56,4.11,12.63,9,19.11,13.23s13.42,8.26,20.12,12.4q30.88,19.11,61.75,38.23C544,430,561.67,440.74,579.29,451.61c26.43,16.31,52.6,33.08,79.39,48.79,7.1,4.16,10.33,9.25,13.32,16.45,3.46,8.35,9.56,15.59,14.68,23.58-13.47-5.12-26.79-10.16-40.1-15.24-13.88-5.3-27.77-10.57-41.6-16-9.53-3.73-19-7.7-28.44-11.54-.48-.2-1.22-.44-1.54-.21-4.46,3.3-11-2.94-14.93-6.17-9.43-7.74-17.3-17.42-27-24.8-4.16-3.17-78.17-66.22-89.53-74.8-9.73-7.34-18.93-15.39-28.29-23.22-13.57-11.37-27.18-22.69-40.57-34.27-6.68-5.77-13-12-19.32-18.14C354.22,314.9,352,312.77,352.67,311.78Zm3.73,75.38c22.36,12.78,44.54,25.87,66.85,38.72,17.8,10.26,35.69,20.35,53.53,30.55,16.94,9.69,33.84,19.45,50.81,29.11,7.69,4.38,15.06,9,21.46,15.38,13.75,13.79,28.06,27,42.3,40.32,9.5,8.87,19.26,17.47,28.9,26.19,2.12,2,3.33,4.74-1.43,1.66-6.38-4.59-66.45-45.21-77.11-52.67-12.69-8.88-25.13-18.11-37.84-26.95-14.43-10-29.11-19.7-43.57-29.68-23.56-16.26-47-32.71-70.6-48.88-1.5-1-5.39-1.22-6.06-.29-1.87,2.6.48,4,2.77,5.59,15,10.14,29.86,20.49,44.74,30.8q21.47,14.87,42.89,29.81c20.91,14.59,41.81,29.2,60.72,42.41,2.8,6.91,4.36,11.73,6.62,16.19,8.12,15.93,16.49,31.74,24.73,47.61q6.85,13.2,13.6,26.47a18,18,0,0,1,.83,3.17c-6.26-2.29-12.11-3.87-17.44-6.51-9.44-4.67-19.64-5.27-29.74-6.19-4.67-.43-9.53.59-14.25,1.32-8,1.24-12.45,7-16.57,14.75-12.92-14.32-29.69-32.14-37.65-40.61q-23.47-25-46.84-50c-6.1-6.51-12.32-12.93-18.37-19.5-11.1-12-22-24.31-33.21-36.23-12-12.7-24.21-25.12-36.38-37.63-14.66-15.06-29.4-30.05-44-45.15-6.08-6.28-11.95-12.74-18.06-19.28,1-2,2-4,2.92-6,4.68-10.52,16.46-13,26.24-7.64Q326.93,370.3,356.4,387.16ZM252.53,255.39,327.43,295c-.6,3.24-1.21,6.59-2.15,11.68l-73.39-50.25A.62.62,0,0,1,252.53,255.39Zm-72.85,3a.65.65,0,0,1,1-.64L277,332c-7,.95-13.29,1.13-19.14,2.87-2.87.85-5.07,4.43-7.25,7-1.17,1.41-1.66,3.39-2.59,5.42-12.17-14.94-23.48-30.11-36.15-44.05C196.85,286.79,181.47,266.65,179.68,258.42Zm67.57,311.29a21.47,21.47,0,0,0-2.45-5.17,11.31,11.31,0,0,1-1.48-10.13c3.25-11.63,9.73-21.21,17.88-31.68.33,23.29-4.09,44.77-8,67.86C251,582.71,249.19,576.18,247.25,569.71Zm-111.7,99.56L166,695.65h-9.56l-24.93-23ZM129,707.44c-6.94-6.29-14-12.47-20.93-18.66,4.61-6.57,13.81-10.91,19.65-9.1a15.59,15.59,0,0,1,6.17,3.7c4.81,4.78,9.34,9.83,13.91,14.85.46.51.94,1,1.31,1.46a1.13,1.13,0,0,1-.06,1.58c-1.49,1.43-2.84,2.59-4.23,4.14C141.25,709.39,132.89,711,129,707.44Zm.72,8.82L122.8,722,92.94,694l8.39-7.33c.24,8.52,7.34,10.63,11.44,15.14,3.57,3.93,7.76,7.29,11.76,10.79A59,59,0,0,0,129.7,716.26ZM59,667c-5.66-4.86-7.27-9.93-7-16.64a16.6,16.6,0,0,0-1.1-6.7c-1.85-4.59.36-5.36,5.61-9,12.12-8.44,22.43-4.36,32.62,1.87,13.11,8,25.56,17.11,38.83,26.1-17,7.4-31.82,16.37-42.67,31.42C76.15,684.47,68.27,675,59,667Zm9.73,59.42C73.49,726.09,78,729,79,733.21c3.2,13.25,6.49,26.49,9.45,39.8.9,4,.87,8.22,1.33,13C74.69,768.49,70.19,748,68.77,726.45Zm65.63,35.13c-10.55-9.12-20.83-17.05-29.86-26.23-4.31-4.39-6.3-11.11-9.2-16.84a70.82,70.82,0,0,1-2.63-7.29C108.86,727,124.71,741.05,134.4,761.58Zm-41.53-3.69a.68.68,0,0,1,1.09-.63l19.41,14.91c-2.35,1.18-3.65,1.69-4.79,2.44-2.69,1.75-4.82,1.8-7.2-.86-1.73-1.94-4.29-3.14-7.06-5.09C93.93,765.76,93.39,761.78,92.87,757.89Zm16,50.75C98.57,800.15,96,794.5,95.44,779.21c4.2,1.32,5.28,4,12.61,3.45,1.44-.09,9.32-6.81,8-.83-.8,4.68-2.44,9.58-2.24,14.4s2.24,9.61,3.59,14.89C117.37,813.1,113.55,814.7,108.9,808.64Zm12.6-2.28c-1.22-3.19-3.53-10.24-1.81-14.89s4.44-4.53,7.68-3.59c2.63.77,15.11,7.45,26.74,20.1,9.51,8.29,14.13,17.73,12.14,31.51-.17,1.19-1.8,2.17-3.44,2.57a52.18,52.18,0,0,1-11.8-3.43C133.85,831.14,127.93,823.16,121.5,806.36Zm49.25,49.3c-3.85-.06-8.46.83-11.38-.95-5.41-3.3-10.1-7.76-15-11.92a.3.3,0,0,1,.33-.5c15.2,7.21,22.53,7.77,28.32,1.3a.4.4,0,0,1,.69.31c-.3,3.4-.54,6.62-1,9.8C172.61,854.46,171.43,855.67,170.75,855.66Zm17,21.37c-2.93-3.2-5.65-6.63-8.88-9.49-1.85-1.64-4.54-2.33-6.88-3.46,1.34-3.75,4.52-4.58,8-3.35,7.62,2.66,6.7,9.7,8.73,15.26Zm60.74,32.79a1,1,0,0,1-1.16.94c-1.67-.31-3.46-.45-4.74-1.33q-14.38-9.79-28.44-20.06c-.94-.68-1.4-2.51-1.46-3.83-.44-9.86-3.69-18.27-12.29-23.8a26.82,26.82,0,0,0-7.62-3.14c-7.23-1.87-10.89-6.05-11.38-13.25-.23-3.36-1.41-6.66-1.58-10a5.37,5.37,0,0,0-.81-2.34.43.43,0,0,1,.66-.54c11,11.06,22.17,22,33.13,33.2,7.14,7.26,10.07,10.52,17.1,17.9.24.26,17.79,13.91,18.35,21C248.43,906.36,248.56,908.53,248.53,909.82Zm81.69-46.05c5.28,7.67,10.65,15.26,16.08,23-9.1,2-25.95,15.14-26.55,15.86-7,8.53-9.11,18.48-9,30.25-9.46-7.07-18.46-13.48-27.12-20.33-18.17-14.37-37.81-26.89-53.87-43.93-12-12.77-25.25-24.42-37-37.44-9.48-10.52-18-22-26.08-33.67-11.27-16.12-21.91-32.69-32.59-49.22a67.75,67.75,0,0,1-7.1-14.16c-2.15-6.13,3.61-11.91,9.85-10.34s11.59,1.07,16.54-3.55a41.07,41.07,0,0,1,9.22-6.09c5.86-3.06,7.26-7.65,5.13-14.26,3.52,0,7.26-1,9.85.23,4.69,2.32,8.69,6,13.69,9.69-13.26,3.21-22.78,10.54-32.61,17.07-6.07,4-11.31,9.38-16.65,14.42-.87.83-1.13,2.31-1.44,3.74a1,1,0,0,0,1.16,1.23c1.77-.25,3.62-.4,4.89-1.33,6-4.46,11.53-9.62,17.6-14,4.64-3.34,22.15-13.33,22.41-13.49,10-5.94,15.37,2.57,21.13,7.51,15.79,13.56,31.77,27.08,46.2,42,14.6,15.13,27.55,31.88,41,48.1,6.41,7.74,12.51,15.76,18.4,23.9S324.57,855.54,330.22,863.77ZM339.29,825a140.78,140.78,0,0,0-17.11,7.76c-2.9,1.55-4.7,1-6.44-1.21q-17.31-22.07-34.57-44.17c-.33-.43-.76-.77-1.12-1.17-7.69-8.44-7.67-8.43-1.52-17.77a24.89,24.89,0,0,0,2.82-5.05,5.52,5.52,0,0,0,.29-1.34,2.73,2.73,0,0,0-3-3,3,3,0,0,0-2.06.77c-3.08,4-5.6,8.49-8,12.36l-36.45-34.76a.85.85,0,0,1,.76-1.44,122,122,0,0,0,12.21,2.2c14.19,1.53,28.52,1.54,42.77,1.35,2.67,0,6.6-4,7.69-6.94,4.18-11.29,7.42-22.92,11-34.42a14.26,14.26,0,0,1,.82-1.85.9.9,0,0,1,1.6-.06c3.26,5.78,6,10.84,9,15.69,2.66,4.22,6,8,8.69,12.21A57.74,57.74,0,0,1,331.92,735c2.64,7.23,5,14.57,7.26,21.94,2.19,7.14,5,14.24,5.94,21.57,1.49,11.61,1.82,23.38,2.3,35.1C347.73,821.16,346.29,822.4,339.29,825Zm79.87-1c-12.51.31-25,.52-37.51,1.13-9.37.45-18.71,1.44-27.7,2.17,0-9.26.36-17.8-.07-26.31a191.49,191.49,0,0,0-14.51-65c-7.19-17.25-17.54-32.18-28.13-47.21-1.75-2.5-1.27-6.76-1.33-10.21-.06-3,.76-6,.89-8.95.79-18.3,3.06-33.85,4-52.17.71-13.13,1.52-26.25,2.72-39.34,1.29-14.12.72-29.47,1.92-43.69,1-11.83-.34-24-1.33-40.13-1-10.87-1.38-21.76-3.2-32.4-1.54-9-4.16-18-14.77-21.1-8.37-2.45-14.4.44-16,8.73-1.33,6.92-1.52,14.06-2.51,21.06-.56,3.92-2.63,36.85-3.11,48.18-.27,6.4-4.12,50.63-9.29,86-1.4,9.54-2.57,19.21-3.61,28.85-.31,2.91.39,6,1,8.92,1.74,8.21-3.7,14.2-6.25,21.09-.53,1.44-1.33,3-1.17,4.4.12,1,1.63,2.66,2.49,2.64a4.73,4.73,0,0,0,3.65-2c5.05-11.07,10.41-22,14.62-33.44,5.1-13.84,8.8-28.2,13.09-42.32,2.41-7.94,4.46-16,6.24-24.09,3.55-16.16,6.79-32.39,10.84-48.55a.44.44,0,0,1,.87.12c-.48,10.08-.8,24.4-.92,31.27-.34,18.56-5.5,42.22-9.57,59.74-3.48,15-7.18,30.07-12.66,44.39-9.8,25.59-19.18,51.43-32.82,75.57a3.56,3.56,0,0,1-3.78,1.72c-16.07-3.18-32.62-4.8-44.63-16.87,8-11.23,15.75-21.87,23.14-32.79,7.1-10.49,12.08-21.94,16.8-33.8,7.15-18,10.24-36.8,14.31-55.38,3.45-15.8,4.25-32.16,6.89-48.16,3.45-20.83,2.17-41.78,1.79-62.64-.24-13.3-1.65-26.67-5.84-39.66-3.48-10.82-4.66-22.37-8.09-33.21-4.36-13.82-9.5-27.45-15.16-40.8a273.27,273.27,0,0,0-16.2-32.27c-4.93-8.34-6.43-10-7.34-14.94a.74.74,0,0,1,1.28-.62c23.65,28,82.9,92.94,87.3,97.47q26,26.76,51.67,53.83c11.27,11.95,22.18,24.25,33.62,36.82a.44.44,0,0,1-.44.71c-5-1.36-9.46-2.77-14-3.64a13.27,13.27,0,0,0-15.94,12.18c-1.34,16-3.28,32-4.23,48.08-1.15,19.42-2.39,38.9-1.93,58.32.28,12.21,3.51,24.35,5.58,36.5,3.79,22.28,13,42.59,23.64,62.21,5.61,10.33,12.8,19.78,18.72,30,6.52,11.2,12.88,22.54,18.36,34.26,3.52,7.52,5.65,15.74,7.8,23.81C430.11,819,425.8,823.89,419.16,824.05Zm297,44.58c-10.71-3.53-20.56-7-30.57-10-20.88-6.24-42-11.75-63.69-14.06-15.85-1.69-31.72-3.21-47.62-4.22-9.68-.62-19.46.31-29.16-.24-9.5-.54-19-1.9-28.41-3.23-11.15-1.57-22.25-3.47-33.37-5.28-4.65-.76-9.28-1.68-13.57-2.46.57-8.67,3.18-39.66,3.58-46.88a2.86,2.86,0,0,0-.32-1.33,3,3,0,0,0-4.78-1,2.55,2.55,0,0,0-1,1.52c-1,11.33-3.28,40-3.84,43.39l-29.09-3.19c4-12,.72-22.92-5.05-33.21-11-19.68-22.49-39.12-34.11-59.27,3,2.11,5.66,4,8.31,5.94,11,8,22.34,15.23,35.78,18.51,10.35,2.52,19.84-.16,25.43-8.94,2.68-4.23,3.11-9.9,4.52-14.92.43-1.52,1.18-3.14,1-4.59-.18-1.26-1.6-3.33-2.34-3.28-1.36.09-3.4,1.23-3.8,2.4-1.81,5.23-3,10.67-4.68,16-1.6,5-9.75,8.71-15.16,7.71-15.63-2.88-27.91-12.06-40.24-21.1-5.84-4.28-11.39-9-17-13.59a16.05,16.05,0,0,1-3.92-4.62,186,186,0,0,1-19.46-62q-1.47-10.64-3-21.31c6.39,10.12,12.28,20.53,19.24,30.18a387.3,387.3,0,0,0,24.87,31,27.24,27.24,0,0,0,21.62,9.39c7.4-.16,12.95-3.17,16.61-9.14,4.81-7.84,9-17.55,9-35.83,0-6.15-3.77-61.76-5.19-81.44,12.1,12,33.27,36.22,44,47.82l9.95,10.88c-3.93,12.77-8,24.12-10.81,35.77-1.74,7.14-1.65,14.73-2.34,22.12-1.09,11.78,18.64,69.31,22.35,79a.6.6,0,0,1-.8.76c-5.71-2.3-10.67-4.27-15.6-6.33-5.64-2.37-11.14-5.08-16.89-7.14a9.42,9.42,0,0,0-6.51.53c-.86.4-1.91,3.23-1.5,4.83.49,1.9,3.13,2.72,3.42,2.5,3.52-2.56,9.69,1.15,13.9,2.8,18.73,7.37,37.07,15.72,55.78,23.13,17,6.75,34.23,13.24,51.66,18.89,10.3,3.34,20.81,6.66,32,6.11,9.81-.48,15.58-7.95,12.36-17.39-1.63-4.79-7.49-17.68-20.08-30.59-19.56-20.05-39.44-39.8-59.26-59.62-3.22-3.22-6.17-6.8-9.73-9.59-5.77-4.52-12.3-8.11-17.86-12.86-4.94-4.22-10-7.2-16.56-7.64-3-.2-4.27.47-7.93,2.17-4.66,2.15-7.82,4.71-12.55,7.35a134.67,134.67,0,0,1,13.06-48c12.66,13.65,25,27,37.4,40.33,5.59,6,11.3,11.93,16.89,17.95,10.72,11.53,21.88,22.64,32.77,34,15.23,15.9,30.11,32.14,45.13,48.26,9.48,10.18,19.11,20.24,28.31,30.66,2.77,3.14,40.27,43.53,50.2,54.57C718.33,861.58,722,868.63,716.19,868.63Zm60,69.28c-2,2.33-.77,7.56-1,11.39-16-10.39-31.83-22.36-47.66-34.43a.38.38,0,0,1,.36-.67c5,1.73,12,2.2,15-.18,7.12-5.49,6.75-12.45,3.34-20.71a.38.38,0,0,1,.63-.42l41.5,41.88C783.66,935.83,778.34,935.47,776.2,937.91Zm31.52,33.48c-8.57-3.2-31-20.76-26.62-29.77,12.72-5.9,24.94,11.71,35,22.52C810.49,963.57,806.87,965.08,807.72,971.39ZM980,1087c-4-2.63-17-7.36-20.84-9.34-10.14-5.18-140.62-95.42-145.53-102.05s.36-8.63,7.54-8.63c.31,0,99.9,80.14,117.87,67.92,11.51,7.61,14.59,16,29.1,30.9,9,9.26,9.91,12,23,16.11-5.87,2.73-5.8,1.06.23,9.73C991.3,1093.29,985.25,1090.53,980,1087Zm344.6,160.53c-18-2.42-249.74-114.89-261.4-116.7-19.24-5.74-50.29-24.67-52.53-25.81,1.55-5.63-2.93-8.82-10.91-13.71-2.41-1.48-3.13-2.89-4.35-4.65a1,1,0,0,1,1.1-1.49c18.91,6.3,69.34,38.29,326.29,157C1326.89,1244.21,1328.7,1248.09,1324.55,1247.53Zm139.25-15.33a110.38,110.38,0,0,0-10.43-13.5c-3.35-3.7-9.38-11-12.69-14.7-8-9-15.51-18.33-23.39-27.38a2.2,2.2,0,0,0-.31-.3,3.11,3.11,0,0,0-4.92,2.31,1.88,1.88,0,0,0,.25,1.23c3.9,5.15,8.3,9.91,12.47,14.86,7.18,8.52,14.19,17.2,21.54,25.58,2.93,3.35,7.85,9,10,12.68,3.48,5.92,5.39,9.11,7.81,15.6.43,1.12-.48,3.09-1.33,4.28-1.85,2.62-4,5-7,8.47-4-12.62-13.2-21.82-20.56-29.9-9.91-10.89-15.31-17.76-29.26-30.51a89.25,89.25,0,0,0-10.33-8.21,1.64,1.64,0,0,0-.88-.22,3.15,3.15,0,0,0-2.88,4.17,2.41,2.41,0,0,0,.64,1.2,166.43,166.43,0,0,1,15.67,14.19c2.79,2.72,7.28,7.74,9.89,10.62,7.59,8.39,15.75,16.46,22,25.79,2.58,3.85,1.89,12.82.85,16-.18.55-3.48,1.67-5.21,1.46-8.55-1.06-17.17-1.94-25.55-3.86-23.19-5.3-44.66-15.56-66.74-24-10.62-4.08-63.41-31.72-74.48-37.7-20.66-11.16-41.51-22-62.33-32.85-4.49-2.34-9.18-4.3-13.82-6.35-7.22-3.19-9.67-2-11.87,6-3.59-2-11.35-6.09-14.93-8.23,10-3.8,22.53-9,31.8-12.43q9-3.37,18.17-6.56c3.46-1.21,4.44-3.92,3.28-6.81-5.27-13.17-10.67-26.29-16.41-39.26-1-2.3-3.45-7.76-5.64-11.82a4.34,4.34,0,0,1,.67-5.08c4.84-5,11.15-3,16.63-1.25,11.53,3.66,19.88,11.36,25.81,22.41,6.37,11.85,14,23.11,21.81,34.1,7.54,10.6,15.32,21.22,24.33,30.52,6.51,6.71,15.13,11.43,23.06,16.64.69.46,1.9.12,3.18-.32a2.19,2.19,0,0,0,1.17-3.19,5.44,5.44,0,0,0-1.56-1.81c-11.12-7.31-21.28-15.64-29.77-27a.65.65,0,0,1,.8-1c3.78,1.85,7.17,3.47,10.5,5.21,15.24,7.94,30.37,16.09,45.71,23.83,6.24,3.15,13.09,3.24,20.15,3.48,7.36.25,14-.92,20-4.33a62.52,62.52,0,0,0,13.93-11.27,19.25,19.25,0,0,0,4.6-10.09c.48-6.25-.38-12.59-.67-18.89-.05-1.06-4.1-15.44-4.1-17.3-1.62-6.57,9.22,8.79,10.35,10.41,6.19,8.88,26.94,40.78,34.49,52.6,2,3.11,5.37,6.36,5.33,9.51-.1,7.18,1.52,12,9.22,13.26,1.81,3.2,2.82,4.2,1.19,6.94-.94,1.58.91,7.31,2.22,7.58,5.38,1.1,7.61,8.94,8.79,14.7A.73.73,0,0,1,1463.8,1232.2Zm-60.56,10.13c3.65-.12,5-1.95,5-5.43,0-4.27-2.27-5.36-6.12-5.46s-5.19,1.57-4.69,4.78C1397.25,1240.67,1399.17,1242.46,1403.24,1242.33Zm16.51,10.44c2.18-.42,4.94-3.31,5.48-5.57.93-3.83-2.13-5.11-5.93-4.88-3.55-.6-4.61,1.19-4.7,4.84C1414.49,1251.13,1416.66,1253.36,1419.75,1252.77Z"/></g></g></svg>