<svg xmlns="http://www.w3.org/2000/svg" viewBox="0 0 1500 1500"><title>DiamondBack Explorer</title><g id="DiamondBack_Explorer" data-name="DiamondBack Explorer"><g id="Colour"><path d="M1352.06,1176.56c-.66-3.73-3.28-7.81-2.39-11,2.33-8.22-1.13-13.62-5.42-20.11-19.87-30-39-60.64-63.23-87.4-16.42-18.13-26.65-39.4-36.39-61.29-4.34-9.76-7.44-20.92-17.66-26.52-6.14-3.36-5.44-8.06-4-12.71,1.47-4.85,0-8-3-11.54-7.25-8.6-14.18-17.48-21.27-26.22-7.62-9.42-14.44-19.68-23.13-28-12.43-11.89-26.19-22.39-39.46-33.4-19.8-16.43-39.75-32.68-59.37-49.32-2-1.66-2.48-5.44-2.91-8.35-.32-2.19.83-4.55.86-6.84.11-9.72.15-19.44,0-29.15-.07-4.7,1.59-6.8,6.58-7.45,7.19-.94,13.78-3.27,17.9-10.43,3.68-6.39,8.42-12.16,12.77-18.14,15.21-20.88,30.52-41.67,45.59-62.64,2.21-3.07,5.66-8.23,4.56-10.13a41.57,41.57,0,0,0-12.59-13.69c-27.71-18.24-55.8-35.9-83.72-53.83-23.29-15-46.64-29.85-69.69-45.19-6.73-4.47-13.7-5.51-21.19-4.58s-15,2.52-22.54,3.71q-28.85,4.54-57.72,8.94c-3.08.46-6.69,1.29-9.3.18-6.1-2.6-12.28-5.59-17.46-9.65-17.57-13.77-34.79-28-52-42.25-3-2.51-19.32-15.8-24.57-19.84-14.81-11.38-29.29-23.17-43.88-34.84-9.69-7.75-18.06-13-22.21-28.63-.54-2-9.45-42.13-13.3-60.14-1.62-7.59-4.4-13.78-11.6-17.9-18.16-10.38-36.13-21.12-54.05-31.91-7.22-4.34-10.95-3.56-14.68,4.13-6.72,13.84-13.34,27.73-20,41.5-17.83-8.55-35-16.7-52.18-25-23.55-11.47-47-23.09-70.53-34.62Q457,276.63,425,261c-26.42-13-52.78-26-79.25-38.9A89.13,89.13,0,0,0,331,216.6c-9.61-2.71-20.86,7.7-19.38,17.76a6.72,6.72,0,0,0,1.65,3.3c4.87,5.41,9.72,10.85,14.8,16.06,10.32,10.58,20.9,20.91,31.14,31.56,5.62,5.83,10.65,12.23,16.16,18.16,8.93,9.6,16.83,20.71,27.28,28.23,39.81,28.64,80.49,56.08,120.81,84,9.89,6.85,19.69,13.84,29.53,20.77l-1,2c-8.84-3.12-18.06-5.46-26.4-9.59-9-4.47-17.17-10.72-25.83-16-19.2-11.69-101.43-56.65-110.09-61.47-23.65-13.16-47.19-26.52-70.78-39.77-15.87-8.91-31.92-17.49-47.55-26.8-6.23-3.71-12.06-4.29-18-.93-20.44,11.53-40.89,23.08-61,35.15-7.53,4.52-13.3,5.43-21.11-.27-15.6-11.38-12.32-12.67-24.23,4.55-2.95,4.26-4.74,8.45-3.53,13.67q10.89,46.83,21.71,93.68,11.72,50.88,23.29,101.77c3.93,17.23,7.77,34.47,11.82,52.47-2.58-1.2-4.51-2.29-6.57-3-4.66-1.63-9.23-.78-11.55,3.52-2.14,4-3.44,8.19,2.19,12,11.2,7.62,21.77,16.16,32.5,24.47a6.88,6.88,0,0,1,2.64,4.3c.64,10.91,1.87,21.9,1.12,32.74-.56,8.15,3.23,12.38,8.77,16.74,17,13.39,33.7,27.21,50.91,40.33,3,2.32,8.4,3.63,12.05,2.75,13.09-3.16,26-7.25,38.79-11.44,4.37-1.42,7.64-1.66,10.06,3.29-.78.67-1.83,1.45-2.74,2.36-8.07,8.06-17.16,15.36-23.91,24.41-12.3,16.49-11,34.12,1.59,49.87,7.54,9.44,14.72,19.16,22.21,28.64a134.11,134.11,0,0,0,10.36,11.72c3.83,3.81,42,29.09,45.55,31,5.66,3.09,10.66,7.37,17.26,12.09-2.89,1-4.6,2.16-6.21,2-5.22-.42-8.41,1-8.25,6.91a8.14,8.14,0,0,1-1.18,4.17c-3,4.91-.49,8,3.27,10.79,4.07,3,8.12,6.09,12.52,9.4-1.77,2.35-3.07,4.21-4.52,5.95-11.45,13.72-23,27.4-34.4,41.12-10.22,12.25-20.57,24.39-30.48,36.88a103,103,0,0,0-12.43,19c-1.51,3.18-1.46,9.65.66,11.58,10.65,9.7,22.27,18.36,33.47,27.48q21.25,17.31,42.38,34.79c11,9.09,21.85,18.34,32.85,27.41,13.77,11.36,28,22.21,41.36,34,15.21,13.42,25.9,15.55,40.93,7.48,17.48-9.4,34-20.61,51.1-30.66,11-6.45,20.88-14.89,33.77-18.17q40.74-10.39,81.23-21.78c17.5-4.93,35.91-6.91,52.32-15.6.88-.46,2.87.36,3.91,1.15,13.17,10,26.14,20.27,39.41,30.14,10.35,7.69,19.09,18.43,33.78,18.42,1.83,0,71.65,7,75.92,10,11.59,8.18,31.14,24.31,42.47,32.88q41.8,31.62,83.69,63.16c3.19,2.4,6.13,5.86,9.73,6.83,8.94,2.43,18.2,3.67,27.32,5.46,25.9,5.08,51.82,10.06,77.68,15.36,10.44,2.14,21,5.23,28.6-5.48,4.91-6.91,9.9-5.08,16.25-2.32,13.52,5.89,27.48,10.77,41.12,16.41,15.34,6.35,30.29,13.68,45.88,19.3,5,1.82,13.17,1.71,17.09-1.24,11.42-8.57,21.41-19,32-28.73,9.15-8.39,18.37-16.71,27.43-25.19,1.09-1,1.6-2.8,2.06-4.33,3-9.83,6.07-19.63,8.57-29.58C1353.48,1183,1352.61,1179.63,1352.06,1176.56Z" fill="#393c3d"/><path d="M1352.06,1176.56c-.66-3.73-3.28-7.81-2.39-11,2.33-8.22-1.13-13.62-5.42-20.11-19.87-30-39-60.64-63.23-87.4-16.42-18.13-26.65-39.4-36.39-61.29-4.34-9.76-7.44-20.92-17.66-26.52-6.14-3.36-5.44-8.06-4-12.71,1.47-4.85,0-8-3-11.54-7.25-8.6-14.18-17.48-21.27-26.22-7.62-9.42-14.44-19.68-23.13-28-12.43-11.89-26.19-22.39-39.46-33.4-19.8-16.43-39.75-32.68-59.37-49.32-2-1.66-2.48-5.44-2.91-8.35-.32-2.19.83-4.55.86-6.84.11-9.72.15-19.44,0-29.15-.07-4.7,1.59-6.8,6.58-7.45,7.19-.94,13.78-3.27,17.9-10.43,3.68-6.39,8.42-12.16,12.77-18.14,15.21-20.88,30.52-41.67,45.59-62.64,2.21-3.07,5.66-8.23,4.56-10.13a41.57,41.57,0,0,0-12.59-13.69c-27.71-18.24-55.8-35.9-83.72-53.83-23.29-15-46.64-29.85-69.69-45.19-6.73-4.47-13.7-5.51-21.19-4.58s-15,2.52-22.54,3.71q-28.85,4.54-57.72,8.94c-3.08.46-6.69,1.29-9.3.18-6.1-2.6-12.28-5.59-17.46-9.65-17.57-13.77-34.79-28-52-42.25-3-2.51-19.32-15.8-24.57-19.84-14.81-11.38-29.29-23.17-43.88-34.84-9.69-7.75-18.06-13-22.21-28.63-.54-2-9.45-42.13-13.3-60.14-1.62-7.59-4.4-13.78-11.6-17.9-18.16-10.38-36.13-21.12-54.05-31.91-7.22-4.34-10.95-3.56-14.68,4.13-6.72,13.84-13.34,27.73-20,41.5-17.83-8.55-35-16.7-52.18-25-23.55-11.47-47-23.09-70.53-34.62Q457,276.63,425,261c-26.42-13-52.78-26-79.25-38.9A89.13,89.13,0,0,0,331,216.6c-9.61-2.71-20.86,7.7-19.38,17.76a6.72,6.72,0,0,0,1.65,3.3c4.87,5.41,9.72,10.85,14.8,16.06,10.32,10.58,20.9,20.91,31.14,31.56,5.62,5.83,10.65,12.23,16.16,18.16,8.93,9.6,16.83,20.71,27.28,28.23,39.81,28.64,80.49,56.08,120.81,84,9.89,6.85,19.69,13.84,29.53,20.77l-1,2c-8.84-3.12-18.06-5.46-26.4-9.59-9-4.47-17.17-10.72-25.83-16-19.2-11.69-101.43-56.65-110.09-61.47-23.65-13.16-47.19-26.52-70.78-39.77-15.87-8.91-31.92-17.49-47.55-26.8-6.23-3.71-12.06-4.29-18-.93-20.44,11.53-40.89,23.08-61,35.15-7.53,4.52-13.3,5.43-21.11-.27-15.6-11.38-12.32-12.67-24.23,4.55-2.95,4.26-4.74,8.45-3.53,13.67q10.89,46.83,21.71,93.68,11.72,50.88,23.29,101.77c3.93,17.23,7.77,34.47,11.82,52.47-2.58-1.2-4.51-2.29-6.57-3-4.66-1.63-9.23-.78-11.55,3.52-2.14,4-3.44,8.19,2.19,12,11.2,7.62,21.77,16.16,32.5,24.47a6.88,6.88,0,0,1,2.64,4.3c.64,10.91,1.87,21.9,1.12,32.74-.56,8.15,3.23,12.38,8.77,16.74,17,13.39,33.7,27.21,50.91,40.33,3,2.32,8.4,3.63,12.05,2.75,13.09-3.16,26-7.25,38.79-11.44,4.37-1.42,7.64-1.66,10.06,3.29-.78.67-1.83,1.45-2.74,2.36-8.07,8.06-17.16,15.36-23.91,24.41-12.3,16.49-11,34.12,1.59,49.87,7.54,9.44,14.72,19.16,22.21,28.64a134.11,134.11,0,0,0,10.36,11.72c3.83,3.81,42,29.09,45.55,31,5.66,3.09,10.66,7.37,17.26,12.09-2.89,1-4.6,2.16-6.21,2-5.22-.42-8.41,1-8.25,6.91a8.14,8.14,0,0,1-1.18,4.17c-3,4.91-.49,8,3.27,10.79,4.07,3,8.12,6.09,12.52,9.4-1.77,2.35-3.07,4.21-4.52,5.95-11.45,13.72-23,27.4-34.4,41.12-10.22,12.25-20.57,24.39-30.48,36.88a103,103,0,0,0-12.43,19c-1.51,3.18-1.46,9.65.66,11.58,10.65,9.7,22.27,18.36,33.47,27.48q21.25,17.31,42.38,34.79c11,9.09,21.85,18.34,32.85,27.41,13.77,11.36,28,22.21,41.36,34,15.21,13.42,25.9,15.55,40.93,7.48,17.48-9.4,34-20.61,51.1-30.66,11-6.45,20.88-14.89,33.77-18.17q40.74-10.39,81.23-21.78c17.5-4.93,35.91-6.91,52.32-15.6.88-.46,2.87.36,3.91,1.15,13.17,10,26.14,20.27,39.41,30.14,10.35,7.69,19.09,18.43,33.78,18.42,1.83,0,71.65,7,75.92,10,11.59,8.18,31.14,24.31,42.47,32.88q41.8,31.62,83.69,63.16c3.19,2.4,6.13,5.86,9.73,6.83,8.94,2.43,18.2,3.67,27.32,5.46,25.9,5.08,51.82,10.06,77.68,15.36,10.44,2.14,21,5.23,28.6-5.48,4.91-6.91,9.9-5.08,16.25-2.32,13.52,5.89,27.48,10.77,41.12,16.41,15.34,6.35,30.29,13.68,45.88,19.3,5,1.82,13.17,1.71,17.09-1.24,11.42-8.57,21.41-19,32-28.73,9.15-8.39,18.37-16.71,27.43-25.19,1.09-1,1.6-2.8,2.06-4.33,3-9.83,6.07-19.63,8.57-29.58C1353.48,1183,1352.61,1179.63,1352.06,1176.56Z" fill="none" stroke="#000" stroke-linejoin="round" stroke-width="8"/></g><g id="Paint"><path d="M791.11,942.8c-4,2.69-7.78,14.64-12.89,19.31s-267.78,164.89-272,164.45S380.08,1025.47,376.53,1023s-4.72-9.71-3.6-12.45S494.44,866.33,497.25,864.33,488,855,485.56,855s-126,146.44-126,152.15,9.33,11.63,9.33,11.63a98.36,98.36,0,0,1-7.56,9.76c-4,4.43,0,8.24,0,10.9s127.34,104.67,132,108,13.11,2.89,16,2.89,274.42-164.22,280-168.66,17.34-23.11,17.34-26.63S793.15,941.43,791.11,942.8ZM689.78,821.67c1.78-6-21.78-67.47-28.89-85.11-2.24-5.55-313.11-97.56-318-94.23s3.11,24,1.78,32.67-9.59,10.67-9.56,16.67c.08,13.35,9.78,15.55,24.45,23.4S688.08,827.4,689.78,821.67ZM194.67,400.52s-22-4.85-26.55-4.85-5.45,3-5.79,7.19,42,183.47,43.67,189.54,12.33,5.93,14.67,5.93,17.66-21.33,14.66-32.66S198.33,404.67,194.67,400.52Zm382.66-38.94c10.34,5.92,17,1.09,28,0s5.29-5.58.08-8.91S426.67,265,419.67,262s-10.55-1.32-14.29,3.21c-2,2.41-.38,6.46,2.84,9.79S567,355.67,577.33,361.58ZM981.56,565.12c-3-1.21-67.12,11.21-70.79,10.87S719.1,429.67,715.1,429c0,0-20.66,3.67-21.42,8.24s16.09,17.09,25.76,25.21S890.92,586.57,895.1,586.83s30.13,4.42,38.27,4.27c4.71-.08,53.81-8.93,56.14-9.42S984.56,566.33,981.56,565.12Zm170.56,86s-4.2-5.9-10,0c-3.41,3.49-58.48,76.18-61.15,79.52s-8.67,3.66-13.09,5,3.09,10.66,8.42,14.33,13.67-.33,17.86-3.86,51.14-69.47,56.18-78.14S1154.67,655,1152.12,651.15Z" fill="#d87100"/></g><g id="Grey"><path d="M646,446.31l-17.78.56L414.5,302.17l-6.28-17.89L320,224.11l-.46,15.32L349,270.78l51,54.25,244.28,167.6s147.12,74.92,170.22,86.06,8.73-9.46,8.73-9.46Zm568.17,513.63c.2-3.55,1-5.77.27-6.71-12.75-15.94-25.65-31.77-38.69-47.78l-6.47-13.15-56-47L1094.51,859l36.41,34.18-54.45,46.67L1033.78,906l-15,17.33,12.21,87.17v12.1l-71,21.42L936.79,1031l-8.4,20.63,67.38,42.51,96.39-32c-.36,1.59-.72,3.19-1.09,4.81,5.45-1.63,7.49-2.76,6.73-6.68l8.63-2.87.18,1c1.5,7.12-.53,12.19-6.81,15.21-2,1-4.22,1.69-6.89,2.74,2,2.75,3.42,5.12,5.22,7.18,3,3.36,6,2,7.5-1.17,3.57-7.81,6.63-15.88,9.62-23.94a7,7,0,0,0,.08-3.94l8.31-2.76,7.28-20.63,75.72-62.77-20.48-41.61c5.19,6.31,10.34,12.65,15.56,18.93C1205.43,950,1209.31,954.3,1214.18,959.94ZM1064.7,1085.63c1.68,2.42,2.76,4.57,4.39,6.14,1.24,1.19,3.51,2.66,4.75,2.25,5.09-1.68,10-4,14.4-5.92C1081.41,1075.73,1073,1082.92,1064.7,1085.63Zm-30.92,10.6c7.16,11.14,12.66,12.35,20,4.39C1045.68,1090.69,1045,1090.54,1033.78,1096.23Zm-20.45,7.8c3.31,2.63,5.56,5.23,8.4,6.4,2.2.91,5.13,0,7.73-.07-.18-1.83.21-4-.64-5.41C1024.66,1097.93,1024.25,1098,1013.33,1104Z" fill="#8e9ba5"/></g><g id="Canopy"><polygon points="1344.1 1157.93 1295.16 1081.85 1218.52 990.37 1163.13 1035.1 1155.08 1043.53 1134.18 1090.65 1159.12 1172.05 1266.55 1234.89 1293.87 1240.98 1349.42 1188.92 1344.1 1157.93" fill="#82b3d1"/></g><g id="Shadows" opacity="0.2"><path d="M1344.1,1157.93l-62.21,30.89L1140,1075.36l-13.74,3.37L889.77,920l-38.13,46.18L740.92,882.78l10.65-41L671.83,717.32,143.41,337l56.82,259.09,15.56,11.33,50.68-53.72,55.32,30.84,18.76,64.36L324.14,684.5l21.53,25-28.2,34.18-9.4,29.59,19.74,25.61,35.82,26.92,82.53,32.95L469.23,838l-13.68-17.14,290.87,83.94,60.88,53.46L766,998.37l-141,87.92,104.16-20,18.93-3.94,54.78,39.91,4-52.16L841.4,1031l63.33,34.84-8.6,57.57,133.33,98.9,119.71,23.86,12.33-17.79,108.83,45.29,46.39-45.29,32.7-39.41ZM827.63,587.75,624.7,483.08,271.32,284.87,239.1,303.42c4.27,0,446,257.17,446,257.17ZM811,652.22l28.84,26.46L818.3,695l-31.57-28.33L762.1,687.38s18.43,24.5,39.11,41,64.76,13.59,56-.87S820.76,697,820.76,697l20.82-15.82s22.66,11.83,36.6,25.77,27.39-6.79,24.17-13.21S872.19,661,872.19,661l-42.55-33ZM705.72,428.45h18.35l-18.35-83.57L658,314.78l-19.34-7.33s-30.43,51.7-31.53,51.28-10.63,5-10.63,5l65.74,48.88Zm-123,23.34,86.65,53.78L824.9,581.68l16.68-2.5L324.14,224h-6.67l-.1,18.19,88,86.31Zm536.8,598.34,14.31-21.59s-42.36-57.06-42.76-57.06l6.89,56.29Z" fill="#111"/></g><g id="Outline"><path d="M402.82,633.49c5.78,1.83,11.78-.84,13.77-6.3,2.73-7.51,5.31-15.07,8-22.6.58-1.64,1.21-3.27,2-5.22a7.12,7.12,0,0,0-1.78-7.83,18.21,18.21,0,0,0-2.75-2.17c-2.67-1.63-5.76-2.56-8.67-3.8-4.24-1.81-12.1,2.82-13.25,5.77-2.23,5.69-4.48,11.36-6.59,17.09-1.46,3.93-3.2,7.87-3.9,12C388.45,627.16,391.48,629.9,402.82,633.49Zm-46.23-16.17c6.47,5,16.05,5.41,20.5,1,2.1-2.09,3.17-5.36,4.32-8.26,3.4-8.59,6.6-17.25,9.16-24,0-9.51-14.21-16.85-21-12.79-2.29,1.37-5,3.14-6,5.39-3.4,7.9-6.11,16.1-9.12,24.17C352.54,608.07,351.71,613.53,356.59,617.32Zm688.9,228c-4.66-3.17-9.94-7.86-15.51-12.5-6.37-5.45-6.79-4.84-10.59-2.42a160,160,0,0,0-15.69,11.76c-4.52,3.74-4,8.86.5,12.4,5.16,4.07,10,8.56,15.13,12.64a35,35,0,0,0,5.83,3.3c1.82,1.24,5.27,0,6.41-.88a208.67,208.67,0,0,0,17-14.36C1052.18,851.8,1050.36,849.83,1045.49,845.33Zm306.57,331.23c-.66-3.73-3.28-7.81-2.39-11,2.33-8.22-1.13-13.62-5.42-20.11-19.87-30-39-60.64-63.23-87.4-16.42-18.13-26.65-39.4-36.39-61.29-4.34-9.76-7.44-20.92-17.66-26.52-6.14-3.36-5.44-8-4-12.71,1.47-4.85,0-8-3-11.54-7.25-8.6-14.18-17.48-21.27-26.22-7.62-9.42-14.44-19.68-23.13-28-12.43-11.89-26.19-22.39-39.46-33.4-19.8-16.43-39.75-32.68-59.37-49.32-2-1.66-2.48-5.44-2.91-8.35-.32-2.19.83-4.55.86-6.84.11-9.72.15-19.44,0-29.15-.07-4.7,1.59-6.8,6.58-7.45,7.19-.94,13.78-3.27,17.9-10.43,3.68-6.39,8.42-12.16,12.77-18.14,15.21-20.88,30.52-41.67,45.59-62.64,2.21-3.07,5.66-8.23,4.56-10.13a41.57,41.57,0,0,0-12.59-13.69c-27.71-18.24-55.8-35.9-83.72-53.83-23.29-15-46.64-29.85-69.69-45.19-6.73-4.47-13.7-5.51-21.19-4.58s-15,2.52-22.54,3.71q-28.85,4.54-57.72,8.94c-3.08.46-6.69,1.29-9.3.18-6.1-2.6-12.28-5.59-17.46-9.65-17.57-13.77-34.79-28-52-42.25-3-2.51-19.32-15.8-24.57-19.84-14.81-11.38-29.29-23.17-43.88-34.84-9.69-7.75-18.06-13-22.21-28.63-.54-2-9.45-42.13-13.3-60.14-1.62-7.59-4.4-13.78-11.6-17.9-18.16-10.38-36.13-21.12-54.05-31.91-7.22-4.34-10.95-3.56-14.68,4.13-6.72,13.84-13.34,27.73-20,41.5-17.83-8.55-35-16.7-52.18-25-23.55-11.47-47-23.09-70.53-34.62Q457,276.63,425,261c-26.42-13-52.78-26-79.25-38.9A89.13,89.13,0,0,0,331,216.6c-9.61-2.71-20.86,7.7-19.38,17.76a6.72,6.72,0,0,0,1.65,3.3c4.87,5.41,9.72,10.85,14.8,16.06,10.32,10.58,20.9,20.91,31.14,31.56,5.62,5.83,10.65,12.23,16.16,18.16,8.93,9.6,16.83,20.7,27.28,28.23,39.81,28.64,80.49,56.08,120.81,84,9.89,6.85,19.69,13.84,29.53,20.77l-1,2c-8.84-3.12-18.06-5.46-26.4-9.59-9-4.47-17.17-10.72-25.83-16-19.2-11.69-101.43-56.65-110.09-61.47-23.65-13.16-47.19-26.52-70.78-39.77-15.87-8.91-31.92-17.49-47.55-26.8-6.23-3.71-12.06-4.29-18-.93-20.44,11.53-40.89,23.08-61,35.15-7.53,4.52-13.3,5.43-21.11-.27-15.6-11.38-12.32-12.67-24.23,4.55-2.95,4.26-4.74,8.45-3.53,13.67q10.89,46.83,21.71,93.68,11.72,50.88,23.29,101.77c3.93,17.23,7.77,34.47,11.83,52.47-2.59-1.2-4.52-2.29-6.58-3-4.66-1.63-9.23-.78-11.55,3.52-2.14,4-3.44,8.19,2.19,12,11.2,7.62,21.77,16.16,32.5,24.47a6.88,6.88,0,0,1,2.64,4.3c.64,10.91,1.87,21.9,1.12,32.74-.56,8.15,3.23,12.38,8.77,16.74,17,13.39,33.7,27.21,50.91,40.33,3,2.32,8.4,3.63,12.05,2.75,13.09-3.16,26-7.25,38.79-11.44,4.37-1.42,7.64-1.66,10.06,3.29-.78.67-1.83,1.45-2.74,2.36-8.07,8.06-17.16,15.36-23.91,24.41-12.3,16.49-11,34.12,1.59,49.87,7.54,9.44,14.72,19.16,22.21,28.64a134.11,134.11,0,0,0,10.36,11.72c3.83,3.81,42,29.09,45.55,31,5.66,3.09,10.66,7.37,17.26,12.09-2.89,1-4.6,2.16-6.21,2-5.22-.42-8.41,1-8.25,6.91a8.14,8.14,0,0,1-1.18,4.17c-3,4.91-.49,8,3.27,10.79,4.07,3,8.12,6.09,12.52,9.4-1.77,2.35-3.07,4.21-4.52,5.95-11.45,13.72-23,27.4-34.4,41.12-10.22,12.25-20.57,24.39-30.48,36.88a103,103,0,0,0-12.43,19c-1.51,3.18-1.46,9.65.66,11.58,10.65,9.7,22.27,18.36,33.47,27.48q21.25,17.31,42.38,34.79c11,9.09,21.85,18.34,32.85,27.41,13.77,11.36,28,22.21,41.36,34,15.21,13.42,25.9,15.55,40.93,7.48,17.48-9.4,34-20.61,51.1-30.66,11-6.45,20.88-14.89,33.77-18.17q40.74-10.39,81.23-21.78c17.5-4.93,35.91-6.91,52.32-15.6.88-.46,2.87.36,3.91,1.15,13.17,10,26.14,20.28,39.41,30.14,10.35,7.69,19.09,18.43,33.78,18.42,1.73,0,71.65,7,75.92,10,11.59,8.18,31.14,24.31,42.47,32.88q41.8,31.62,83.69,63.16c3.19,2.4,6.13,5.86,9.73,6.83,8.94,2.43,18.2,3.67,27.32,5.46,25.9,5.08,51.82,10.06,77.68,15.36,10.44,2.14,21,5.23,28.6-5.48,4.91-6.91,9.9-5.08,16.25-2.32,13.52,5.89,27.48,10.77,41.12,16.41,15.34,6.35,30.29,13.68,45.88,19.3,5,1.82,13.17,1.71,17.09-1.24,11.42-8.57,21.41-19,32-28.73,9.15-8.39,18.37-16.71,27.43-25.19,1.09-1,1.6-2.8,2.06-4.33,3-9.83,6.07-19.63,8.57-29.58C1353.48,1183,1352.61,1179.63,1352.06,1176.56Zm-70.17-99.42c-9.72,8.68-19.19,17.83-29.4,26.06-8.6,6.93-9,6.44-17.65-.91-1.76-1.49-3.73-2.72-6.87-5l41.75-35.6Zm-57-70.55c10.81,12.8,21.39,25.79,32,38.81a13.72,13.72,0,0,1,1.62,3.45c-12.54,15-25.57,28-43.36,36.34-7.46-6.65-15.35-13.74-23.31-20.77q-8.13-7.17-16.4-14.18c-2.33-2-3.43-3-.14-5.65,15.1-12.41,29.82-25.29,44.82-37.83C1221.12,1005.91,1224.24,1005.8,1224.91,1006.59Zm-9.85-35c2.2,1.1,3.84,3.35,5.88,5.25l-5.09,4.41c.39.54-56,46.76-55.65,47.3-4.59,4.28-9.22,8.5-13.73,12.86a9.06,9.06,0,0,0-2.39,3.68c-1.67,5.62-10.72,27-17.64,43.85-4.33,12-2.69,19.08,0,28.15.61,2.07,10.94,33.09,11.64,34.91,2.13,5.5,9.38,21.78,11.47,24.49,1.63,2.38-1.67,4.74-8,3.36-18.34-4-21.48-4.74-39.88-8.44-2.49-.5-16.58-3.79-19-4.4-24.33-6.12-44.49-22.43-43.39-26.16,1.94-4.16,3.63-5.29,7.7-3.73,26.55,10.15,46.93,17.65,73.6,27.5,1.93.72,5.43,2.17,7.46,2.38,4.55.47,2.66-13.08,1.16-17.17-5.68-15.42-11.21-30.91-16.14-46.58-1.55-4.94-2-10.29.39-15.8,6.88-16.07,13.06-32.44,19.63-48.65a25.37,25.37,0,0,1,4.07-7.1c3.15-3.62,68.21-59.92,71.44-60.82A7.76,7.76,0,0,1,1215.06,971.59Zm-95.68,4.91c3.44,3.72,6.58,7.72,10,11.84-10.08,8.45-21.62,15.18-25,29.21a1,1,0,0,1-1.87.06c-1.86-5.89-4.15-11.68-5.6-17.67a159.83,159.83,0,0,1-2.73-16.92c-.4-3.14-.52-8.14,2.23-11.17a255.28,255.28,0,0,1,19.16-17.72c5.77-5,15.69-7.81,10.68.91a24,24,0,0,1-5.54,5.46C1114.8,965.11,1114.26,970.94,1119.38,976.5ZM1102.49,1096c1.57,6.3,2.63,12.51,4.69,18.37,3,8.84,11.19,32.67,14.21,41.47l-88-33.27c4.4-3.65,14.32-8,23.95-10.41Zm98.86-129.44c-9.72,8.14-19.21,16.28-28.92,24.14-.61.49-1.24,1-1.86,1.43l.07,0c-4.31,4.3-21,17.5-25.42,21.73-5.75,5.56-12.16,10.55-17.29,16.63-3.4,4-5.06,9.5-7.5,14.33-9.06-5.23-10.83-11.06-8.35-20.75,3.32-13,12.7-20.53,22.45-27.52,3.73,2.84,7.12,7.24,11.17,8,2.7.5,25.64-16.34,28.68-19,7.67-6.76,7-9.92,0-17.45-.72-.79-1.46-1.57-2.52-2.71l16.85-13.6Q1195.2,959.27,1201.35,966.54ZM1182.47,944c-4.76,4-9.21,7.57-13.47,11.36-2.53,2.26-4.38,2.21-6.18-.76-1.2-2-2.85-3.67-4-5.69-9.69-17.54-16.24-1.29-23.11-3.73-7.54-3.5,20.09-21.41,26.48-24.69C1168.26,927.7,1175.86,936.15,1182.47,944Zm-74.78-90.77c2.73-3.62,5.75-2.73,8.3-.59,15.63,13.12,31.11,26.43,47.14,40.1l-19.27,15.91a19.41,19.41,0,0,0-1.54-1.27c-7.39-5-10.3-3.63-18.39,3.57-5.12,4.57,1.52,6.66,4.75,10.15L1111.8,933.8c-4.46-2.4-7.56-5.4-11.21-3.52-4.79,3.36-9.83,7.5-9.91,9.47-.1,2.5,3.4,5.14,5.52,8-14.89,10.75-32.65,20.73-20.3,45.09-6.45,0-11.61.69-16.49-.2s-6.69.93-6.62,5a70.89,70.89,0,0,0,1.77,15.81c.46,1.86,3.66,4.08,5.8,4.31,5.75.59,11.6.2,17.85.2l2.16,10.77-15-1.28c-4.41-.37-7.77.8-7.42,6,.31,4.66,1,9.29,1.69,13.91.64,4.2,2.84,5.88,7.49,5.74,5.7-.18,11.44,1,17.42,1.54,1.72,3.86-.43,5.83-3.81,7-27,9-54,18-81.14,26.69-2.42.77-6.2-.63-8.6-2.18-19-12.23-37.84-24.73-57.12-37.42l4.48-12.17c6.44,5,20,11.4,21,11.65,3.67.91,28.15-6.36,29.49-6.84,6.75-2.41,30-9.52,41.3-13,12.65-3.91,5.77-19.28,4.75-26.72-1.64-11.92-3.65-21.25-5.47-34.48-1.8-13-3.18-26.11-5.64-39-1-5-1-8,3.89-10.47,2.39-1.21,4.11-3.74,7-6.49,6.79,5.44,13.37,10.73,20,16s12.76,10.58,19.52,15.31c1.54,1.08,5.26.66,7-.5,5.06-3.28,16.69-12.75,21.81-16.83l5.21-4.33c9.31-7.73,18.65-15.41,27.91-23.19,4.22-3.55,5-6.16-.46-10.35-9.63-7.38-18.22-16.11-27.28-24.24-1.88-1.69-3.91-3.21-6.23-5.1C1104,856.33,1106.29,855.12,1107.69,853.26ZM649.68,1019c1.8,3.58,3.54,7.19,5.47,11.14l-8,5.3c-2.32-4.43-4.31-8.47-6.51-12.39-1.88-3.35-3.83-5.46-8-2-4.65,3.89-12.76,6.07-14.23,10.65s3.62,11,6.12,17.39l-55.58,34c-2.22-4.52-4-8.64-6.2-12.46-1.91-3.25-4.49-5.08-8.42-2.14a68.43,68.43,0,0,1-11.22,7.14c-4.39,2.09-4.11,4.71-2.26,8.25,2.06,3.94,3.95,8,6.19,12.51l-18,10.42c-2-4.06-3.82-7.37-5.36-10.79-2.14-4.75-5.17-5.83-9.58-2.83-2.45,1.67-4.82,3.8-7.55,4.61-7.73,2.26-6.36,7.32-4.29,12.55,1.39,3.51,3.31,6.8,4.3,11-16.71-9-29.58-22.62-43.88-35.76,9.54-5.85,18.48-11.86,27.92-16.94,6.91-3.72,33.38-19.36,38.53-22.53,22.84-14,46-27.57,69.13-41.16,2.29-1.34,28.14-17.76,32.54-20.65,10.57-6.92,10.76-7.23,20.47.08,11.68,8.79,23,18.13,34.7,27.48l-8.31,5.31c-2.1-4.17-4.09-8-6-11.9s-4.28-5.67-8.5-2.84a82.06,82.06,0,0,1-10.35,6.16C647.76,1011,647.4,1014.51,649.68,1019Zm-30.9-118.54c-30.43-22.67-60.64-45.63-90.85-68.59-6.61-5-13.08-10.23-19.62-15.45-11.52-9.11-37.25-24.76-46.79-34.72-7.81-8.15-12.75-19.05-18.85-28.55,21.64-.1,40.72,8.14,60.17,15,5.13,1.82,48.73,14.89,50.22,16.66,5.09,6,12.28,7.44,19.09,9.39,3.39,1,7.88-1.25,11,.09a92.61,92.61,0,0,1,17.22,10.4c25.1,18.39,50,37,75,55.54,10,7.44,19.95,15,30.38,22.8-9.74,12-19,24.43-29.38,35.88-4.43,4.91-4.05,10.49-4.23,15.44-.52,13.91.54,27.87.91,41.81.12,4.24,0,8.48,0,14-16.45-12.43-31.74-23.78-46.71-35.55-2.1-1.65-3.57-5.33-3.65-8.13-.38-12.94-.25-25.9-.12-38.85C622.6,904.42,621.65,902.63,618.78,900.49Zm-224.52,123.4c-3.43,4.6-5.63,3.49-17.73-9.22,3.73-4.46,111.44-134.56,122.27-147.82l17.13,13.46L430,984.32c-2.1-1.66-3.71-3.74-5.77-4.42-4.48-1.48-9.11-2.24-12.83,2.19-.67.8-1.24,1.48-1.76,2l0,0C404.57,991.46,381.24,1015.84,394.26,1023.89Zm59.46-227.1c-1.45-2.21-2.58-4.29-1.15-6.15a3,3,0,0,1,4.13-.45c19.63,14.89,39.42,29.93,59.23,44.94q33.92,25.71,67.84,51.39c7.43,5.63,14.59,11.67,22.35,16.8,5,3.3,6.27,6.24,5.16,12.49-1.48,8.36-.36,17.18-.36,27-8-6.28-15-11.69-21.82-17.35-1.37-1.13-3-3.41-2.71-4.86,2.21-12.86-2.89-21.45-14.09-27.66-5.3-2.95-9.55-7.74-14.43-11.5-4-3.08-8.28-6.23-13.7-3.42-8.95,4.63-15.87,1.39-22.89-4.6-9.85-8.4-20.73-15.61-30.29-24.3-6.11-5.56-11-12.6-15.77-19.46C467.75,818.91,460.9,807.74,453.72,796.79Zm8.52,45.44c-6.94,7.88-14.2,13.72-19.65,10.2-4.65-3-19.88-12.74-23.36-16.8-2.49-2.9,13.52-22.69,18.29-24.75,8,7.6,18.94,19.31,24.72,26.72A3.65,3.65,0,0,1,462.24,842.23Zm24.66,16.56,5.08,2.8-122.74,148.7c-4.33-1.77-4.83-3.95-2.29-7,13.26-15.83,26.57-31.61,39.71-47.53,13.53-16.37,26.8-33,40.36-49.3,11.83-14.26,23.92-28.31,35.88-42.47C484.26,862.4,485.47,860.67,486.9,858.79Zm-45.3,145.9-23.19,28c-6.16-5-11.92-9.59-17.47-14.4a4.15,4.15,0,0,1-.74-3.89c2.33-4.36,4.51-9,7.77-12.61,4-4.43,9.75-16.89,14.19-12.38ZM402.84,1031c3.09,2.56,6.12,4.9,9,7.45,3.93,3.55,10.59,3.35,14-.83,7.28-8.86,14.45-17.8,21.62-26.75,3.05-3.82,1.68-11.45-2.35-14.36-2.74-2-5.32-4.2-8.66-6.84,14.73-17.45,28.93-34.12,43-51,8.56-10.27,16.76-20.85,25.35-31.11,1-1.18,4.12-2.2,5-1.56,6,4.37,11.57,9.2,17.66,14.18-1.4,1.56-2.21,2.51-3.07,3.41-5.87,6.17-5.59,9.59,1.2,14.65,3.4,2.53,6.89,4.95,10.12,7.68,5.59,4.73,10.13,4.35,14.21-1.83,1.7-2.58,3.17-4.66,6.25-2.27,12.23,9.51,40.37,30.41,38.67,31.56-14.8,8-47.64,26.79-49.82,28.08q-50.69,30-101.46,59.8c-3,1.75-5.82,4.44-10,.76-10.89-9.47-22.3-18.36-33.79-27.72ZM593.57,961c-9.62-8.3-20-15.68-30.06-23.5a29.27,29.27,0,0,1-3.27-3.57c1-1.65,1.53-3.73,2.89-4.82,5.53-4.38,4.26-8.17-.56-11.91-5.18-4-10.23-8.26-15.62-12-8.13-5.65-8.61-5.45-17.6,2.83l-15.25-11.2,8.33-11c6.47,7.18,14.42,5,21.84,2.26,4.78-1.78,7.87.4,11,2.54,4.72,3.21,8.65,7.7,13.56,10.52,7,4,8.95,10.09,8.19,17.18-.81,7.54,2.25,11.72,8.47,15.86,10.54,7,20.17,15.42,30.29,23.33-1.95,1.16-3.47,2-6.27,3.86C603,965.75,599.75,966.29,593.57,961ZM553.93,545.71c2.7-2.11,9.24-6.28,11.19-9.28,5.64-8.68,11.6-11.87,20.09-17.21,7.9-5,14.93-10.25,25.4-9.75,4.74.22,9.63-5.38,14.68-7.87,2.52-1.24,6.63-4.35,9.49.73-4.78,6.11-4.84,5.85,1.6,10.18,2,1.33,2.47,1.85,3.74,2.72,4,2.73,9,4.87,14.6.53,1.58-1.24,6.65,2,9.62,4.11-11.6,7.9-65.48,43.29-82.37,54.87-5.05,3.47-8.94,8.63-13.36,13-3.49,0-5.13-2.74-9.13-5.54,3.31-3.47,5.94-7.27,9.5-9.71,4.09-2.8,4.15-5.39.9-8.11a148.79,148.79,0,0,0-13.29-9.48c-.9-.6-2.89-.94-3.49-.41-4.75,4.25-9.29,8.74-14.11,13.37-3.38-2.55-3.4-7.68,1.75-11.16S549.14,549.46,553.93,545.71Zm-6.7-37.6,23.78-15,19,12.69c-7.4,4.71-14.67,9.45-22.09,13.93-.93.56-2.95.19-4-.47C558.38,515.75,553,512,547.23,508.11ZM601.91,410c6.84-3.68,50.58-3.73,57.89-1.84,10.45,2.71,36,17.23,39.33,19.24,5.36,3.21-55.11,3.13-53.35,3.48-3.39,2.71,4.66,9.5,3.67,11.92-1.46,3.56-18.12-5.07-22.55-1.28-2.95-2.14-30.4-21-34.35-23.84C595.87,414.74,598.79,411.63,601.91,410Zm-17.33,2.68-15.12-10.71S544,384.44,518.52,367c10.2-3.51,31.37-9.83,39.34-4.81,14.15,8.91,26.23,16.54,33.51,21.22h0c10.41,5.63,23.7,17.92,20.48,16.8C599.05,396.79,593,406.72,584.58,412.63Zm482.34,371.52c-8.66,4.68-15.05,4.81-21.77-1.09-16.47-14.45-33.42-28.36-50.16-42.51a15.14,15.14,0,0,1-1.61-1.86c.31-.53,8.87-12.87,11.55-17.63a41.48,41.48,0,0,0,5.5-15.78c8,5.22,43.47,39.71,51.23,45.16,3.29,2.3,5.8,5.18,5.42,10.17C1066.48,768.66,1066.92,776.79,1066.92,784.15Zm-18.44,86.36c-12.93,11.51-14,15.29-19.2,25.68-2-3.2-32.42-30.31-39.54-37-2.33-2.19-14.9-13.5-17.45-14,.06-.64.11-2.38.16-3,14.95-11.48,29.86-23,44.91-34.36a20.87,20.87,0,0,1,5.35-2.23,5.87,5.87,0,0,1,5.59,1.14c7.66,6.62,24.13,20.4,28,24.26,2.49,2.5,9.68,7.32,12,10.11,2.54,3.11,3.66,2.71,6.7,5.5C1067.68,852.44,1056.33,863.53,1048.48,870.51Zm32.71-17.76c11.13,9.71,42.39,36.17,47,40.75q-20.24,16.23-40.3,32.35c-2,1.6-3.91,3.27-5.9,4.87-4.1,3.29-6.22,4.19-11.22.68-6.55-4.8-22.82-19-33.77-28.12C1042.24,881.28,1069.61,865.06,1081.19,852.75Zm-67.82-53.83c-4.87,3.79-55.7,42.65-55.83,42.76-17.6,15.13-19.52,13.06-35.75,11.07-5-.62-16.92-2.52-21.38-5-7.54-4.14-10-5.88-12.5-7.37-8.44-5-11.89-7-20.7-12.24,10.66-7,20.65-13.71,30.81-20.14,1.19-.76,3.37-.38,5,0,3.07.75,6,1.89,9.48,3,1,8.71,4.13,11.22,12.75,8.77a20.35,20.35,0,0,1,.44,4.23c-.6,5.18,2.5,7.23,6.79,7.17a232.41,232.41,0,0,0,24.32-1.49c1.89-.22,5-3.18,4.88-4.61-.31-3-1.71-6.72-4-8.53-1.9-1.53-5.62-.79-8.62-1.06-.62-2.31-.52-6.9-2.76-8.94s-6.73-1.35-10.5-1.22c-1.18-2.79,3.61-8.6-3.28-10.5-4.37-1.21-9.09-1.14-14.61-1.75l49.65-37.16c-2.1,10.49-6.13,21.41,10.12,18.09-.7,9.12,2.71,11.61,13.87,10.07-2.16,5.37-1,9.59,4.42,11.77,4.84,1.94,9.16-.79,10.09-6,.66-3.73,1.69-7.41,2.27-11.15,1.27-8.19.25-15.23-12.16-13.15,1.8-7.8-.78-10.31-11.22-10.93l-3.63-10.92c3.09,1,5.81,1.3,7.62,2.72,8,6.32,15.82,12.91,23.61,19.52,6.33,5.37,14.06,13.48,20.62,19.2C1027.73,789.45,1018.77,794.72,1013.37,798.92ZM729.92,876.2c6.05-7.85,12.58-15.38,18.11-23.59,4-5.92,7.86-4.52,13.07-1.6-5.63,7.14-11,13.66-16,20.43-4.73,6.38-9.09,13-13.61,19.55C724.83,886.36,724.36,883.41,729.92,876.2Zm-6-9.54c-2.27,3-4,6.42-6.62,9.1-1.1,1.16-4.41,1.93-5.45,1.16-29.12-21.48-64.22-47.46-94.46-70.3-4.15-3.13,70.38,21.46,97.89,30.18,8.21,2.6,16.5,5,25.66,7.71C734.72,852.56,729.26,859.57,723.9,866.66Zm-20.25-42c-6.48-1.86-6.68-4.43-8.87-11.19-2.72-8.42-4.32-12.53-6.26-18.07-2.36-6.76-5-13.4-7.74-20.58,1.8-.63,3.48-1.61,5.23-1.76,7-.6,14.08-.89,21.12-1.38,17.89-1.26,35.77-2.59,53.65-3.85,7-.49,12-1.24,21.11-1.44,8.71-.19,15.12,2,21.18,7.64,6.72,6.24,14.13,11.78,20.55,18.3a12.71,12.71,0,0,0,11.5,3.95c6.53-.75,13.25-3.09,19.52-2.18,11.91,1.72,19-6.08,27.07-11.71,12.46-8.7,12.75-8.88,20.67,4.15,2.23,3.66,1.49,6.46-1.77,8.57-28.55,18.51-57.21,36.86-85.72,55.43-8.22,5.36-16,1.78-23.82-.45C761.9,841.76,732.82,833.08,703.65,824.69Zm222.87-152.3a148.75,148.75,0,0,0-11-11.29c-3.19-3.14-6.44-6.22-9.7-9.36,5.1-5.71,10.29-2.11,14.64-1,18.23,4.56,31.81,16.8,45.89,28.43,6.51,5.38,9.39,12.07,11.82,18.63q-48,35.69-95.65,71.22c-4.17,3.11-8,6.74-11.82,10.24-6.31,5.73-14.49,3.77-21.8,5.32-4.74,1-10,2.11-14.49,1.06s-8.85-4.31-12.7-7.32c-6.37-5-12.36-10.48-18.34-15.94a6.38,6.38,0,0,1-1.92-4.32c.26-8.33.39-16.71,1.41-25,.71-5.67,1.06-12.19,9.67-13.89,8.18,5.64,17.18,11.57,25.83,18,3,2.22,5.65,3.25,7.22-.35.69-1.61-.8-5.34-2.45-6.6-7.88-6-16.15-11.55-24.28-17.24,5.32-11.15,11.79-21.33,25.52-27.61,4.67,5.22,9.55,11,14.84,16.46a117,117,0,0,0,13.66,12.11c1.14.86,4.69-.06,6-1.34.88-.87.49-4.48-.62-5.64-6.83-7.17-14-14-21.11-20.92-1.66-1.77,2.74-3.46,8,0,7.41,4.88,14.72,9.94,21.78,15.31,3.37,2.56,6,2.3,8.19-.84,2.59-3.71-1.05-4.55-3.21-6.08-7.76-5.48-15.47-11-23.11-16.49,3.15-10.07,9.28-17.58,17.15-23.82,3.49-2.76,6.5-3.47,10.25.4,7.84,8.07,16.13,15.69,24.51,23.2.8.72,2.32.63,3.83.56a2.39,2.39,0,0,0,2.24-2C927,674.7,927.17,673.19,926.52,672.39Zm36.72,49.46c3.15,4.21,6.18,8.09,9,12.1s1,7.24-2.46,9.78q-28.21,21-56.6,42L899.91,769ZM786.73,666.69c1-1.11,1.8-2.11,2.72-3,16.14-14.76,13.43-13,28.11-.09,2.55,2.25,13.34,11.77,16.14,14.1l-16.27,14.91c-4.78,4-12.77,18.69-18,23-7.27-6.22-22.5-19.69-30-26.07C774,684.79,782,671.79,786.73,666.69Zm-30.25-25.47c-7-5.72-14.85-10.36-23.08-15.94,7.61-5.28,14.91-10.46,22.39-15.36.88-.58,3,0,4.13.69,8,5.17,15.77,10.6,23.75,15.75a18,18,0,0,0,2.25,1.21,3.23,3.23,0,0,1,.55,5.52l-17,12.46C764.42,647.89,760.32,644.36,756.48,641.22Zm115.68,11.24c-4.09,4.79-7.5,10.17-11.18,15.3-3.05,4.25-6.07,8.52-9.56,13.41-8.79-7.64-24-21.4-30.66-27.23,5.22-7.07,9.68-14.06,15.12-20.2a93.3,93.3,0,0,1,16-14c1.28-.91,5.54,1.23,7.69,2.91,5.28,4.11,17.8,16,23,20.57C879.08,646.22,875.16,649,872.16,652.46Zm-63.39-50.83C783.55,585.1,769.6,577.1,748,563.86c-.33-.21,1.4-8.73,2.31-10.12l86.07,44.17C830.89,602.41,815.57,606.09,808.77,601.63Zm-59.34,1.18c-7.93,5.88-14.21,11.73-21.57,15.4-2.7,1.35-8.1-2.17-12-4-1.6-.76-5.6-4.51-2.79-6.81,5.3-4.33,8.31-4.51-.61-10.86-8.09-5.76-16.16-11.55-25.1-17.93,1.77-1.27,4.47-3.38,6.42-3.79,1.07-.23,6.82,3.91,7.51,4.38,7.58,5.09,13.6,9.52,21.13,14.64,5.47,3.72,6.16-1.28,9.76-1.42,1.22,0,2.84,1.25,3.57,1.67C740.2,596.65,744.46,599.57,749.43,602.81Zm-23.09-40.17c-8.35-4.81-16.88-9.33-25.31-14q-17.1-9.51-34.19-19.08c-2.5-1.64,2.91-3.83,8.45-1.32,17.28,7.83,34.06,16.71,51,25.33,3.29,1.68,6.13,4.25,9.48,6.62C732.89,564,730.23,564.89,726.34,562.64Zm-41.2-11c-4.46,2.89-7.74,5-11,7.11-7.7,5.09-15.74,9.75-22.93,15.47-5.05,4-9.58,3.26-15.08,2-10-2.26-20.17-3.74-30.27-5.55-.16-.59-.33-1.18-.5-1.77,14.88-9.31,30.15-18,44.42-28.21,5.54-4,8.78-2.53,13.41,0C669.7,544.26,676.44,547.34,685.14,551.64Zm-37.28,38.73a18.71,18.71,0,0,1,3.42,1.5c.09.43.17.86.25,1.29-7,1.22-14.06,2.45-21.09,3.63-12.29,2.07-24.59,4.05-36.87,6.18-3.65.63-11-3.57-12.59-7.39-2.23-5.2-1.34-8.88,3.64-12.45s9-4.85,15.11-3.34C615.66,583.75,631.81,586.86,647.86,590.37Zm-43.5,28.14c13.56-2.24,15.37-2.2,29-4.25,6.26-1,11.92-2.59,18.21-3,2.59-.16,15.5-1.36,17.84.21,8.41,5.64,28,19.4,36.35,25.3-2.91,20.75-14.39,51.06-20.58,56.92-27.22-18.67-73.83-49.14-102.42-68.75C585.39,623.47,602.16,618.88,604.36,618.51Zm105.42,76.27c6.13-.7,12.27-1.32,18.39-2.12,7.53-1,15-2.4,22.59-3,2.24-.17,5,1.38,6.92,3,12,10,24,19.82,35.28,30.49,2.24,2.12,2,7.6,1.73,11.46-.42,7.39-1.63,14.73-2.6,22.73-9.8.92-19.47,2.07-29.18,2.69-16.44,1.06-32.9,1.68-49.35,2.69-10.63.66-21.25,1.63-31.87,2.58-3.26.29-5.12-.8-6.06-4a57.28,57.28,0,0,0-3.59-9.45c-4.31-8.68-3.8-15.38,4.51-22.27C685.76,721.87,709.86,695.26,709.78,694.78Zm302.67-5.26c-6.6,1.73-17.8-17.5-20.1-22.81-.66-1.54-16.73-29.54-17.48-31.72-2.2-6.34,1.39-9.4,2.54-11.76.18-.38,55,39.52,77.27,55.07,1.59.72,1.21,1.65-.76,1.72-10.12.33-17.39,1.61-31.2,4.55C1016.26,685.94,1018.73,687.86,1012.45,689.52Zm-24.89-15.33c4.38,8,10,17.14,14.36,26.84,1.14,2.52-1,7-2.44,10.13-3.81,8.2-7.46,16.67-16.09,21.66L970.21,717c4.84-3.81,9.94-8.54,15.73-12.16,4.07-2.53,3.66-5.14,2.36-8.54-.82-2.17-2.07-4.24-2.49-6.48-2-11-11.48-15.43-18.81-21.75-6.77-5.83-14-11.17-20.25-17.52-2.92-3-4.09-7.74-5.81-11.79-4.33-10.2-8.52-20.45-13-31.27,18.29,7.45,30.72,18.49,40.21,35.95C975.45,653.71,981.88,667.06,987.56,674.19Zm-68.27-95.7c7.24-1.07,39.68-7,41-7.25,7.09-1.2,14.24-2,21.22-2.94l5.51,9.89c-17.73,2.75-35.51,5.21-53.15,8.44C926,588.05,923.8,581.84,919.29,578.49Zm13.91,64.37a6.89,6.89,0,0,1,.14,2.35c-21.64-2.28-34.51-18.11-49.7-30.24-1.32-1.05-2.53-2.24-3.58-3.17,1-3.34,2-6.69,3.07-10.34a2,2,0,0,1,1.4-1.39,112.59,112.59,0,0,1,23.07-3.91c.62-.44,7.45,4.32,9,7.72C922.43,616.74,927.75,629.83,933.2,642.86Zm-66-56.76c-10-3.31-180.69-124.87-208.89-146.8a.91.91,0,0,1,.66-1.62c9,.88,24.52.45,30.44,3.6,3.61,1.93,8.74,13.47,29,27.73,46.68,32.88,160.77,114.57,169.29,120.39C879.51,588.93,873.25,588.1,867.21,586.1ZM609.12,439.61c2.7,2,5,4.24,7.76,5.63,4,2,8.69,5.43,12.51,4.8,14.7-2.41,24.52,6.34,35.12,13.51,15.1,10.2,30,20.68,45.09,30.94,24.41,16.6,48.93,33,73.31,49.71,11.67,8,23.11,16.3,34.65,24.47,6.33,4.75,5.78,10-2.69,5.74-6.1-3-12.23-5.95-18.29-9-15.09-7.72-30.12-15.55-45.21-23.27-34.25-17.53-68.61-34.85-102.7-52.7-6.21-3.25-11.11-8.89-17-12.86-8.35-5.65-17.06-10.76-25.61-16.11-1.78-1.12-3.54-2.27-5.58-3.58C602.47,452.86,606.89,444.11,609.12,439.61ZM581,608.75c-5.9,9.06-11.56,18-17.5,26.86-11.1,16.46-22.54,32.7-33.44,49.31-2.55,3.9-4.89,4.46-8.9,3.15-9.2-3-46.26-15.67-45.91-16.93,3.84-13.89,12.69-35.49,25-50.76,11.35-14.06,20.28-30.06,30.49-45.53C537.61,579.4,573.07,603.31,581,608.75Zm-27.17,62c.54-.74,19.29-34.85,22.25-37.2,24.81,17.06,75.73,51,102,69.08-5.26,6.19-15.68,12.37-20.35,18.37-2.38,3.06-5.29,3.37-8.26,2.42-29.29-9.32-80.19-23.71-109.44-33.15C539.68,690.1,550.51,675.32,553.87,670.71Zm57.75,57.65s31.49,8.46,47.35,12.45c9.17,25.06,18,49.15,27.46,75.08a1.77,1.77,0,0,1-2.21,2.28L623,798c2.12-6.43,4.17-13.11,6.54-19.67,1.86-5.15,3.94-10.24,6.27-15.2,1.44-3.08,1.06-4.7-2.33-5.74-4.84-1.48-9.49-3.61-14.4-4.73-1.64-.38-5,1-5.52,2.4-4.61,11.52-8.75,23.22-13.08,35-7.67-1.54-9.68-4.63-6.5-13.09,3.82-10.18,6.32-16.43,10.15-26.61C606.44,744.35,610,734.37,611.62,728.36ZM682,987.67a17.16,17.16,0,0,1,.23-2.25c.16-51.78.8-57.42,5.22-62.89,8.77-10.86,17.5-21.74,26.44-32.85,1.6.92,55.41,40.25,71.42,52.11-8.15,18.15-12.44,18.15-62.14,47.39-8.56,5-17,10.26-25.64,15.13-1.55.87-4.54,1.37-5.86.24C684.44,998.37,682.35,997.06,682,987.67Zm94-19.5c4.56-3,7.35-8.66,10.93-13.12,1.85-2.31,3.66-4.65,6-7.6l10,8.72c-4.8,6.12-9.63,11.87-14,18-7.78,10.79-20.54,14.42-30.72,21.75a163.74,163.74,0,0,1-17.84,10.89c-1.38.75-4.62.37-5.51-.72-2.32-2.84-3.81-6.35-5.63-9.61C744.9,987,760.73,978.08,775.92,968.17Zm7.78,22.9c9.47-6,15-15.37,21.38-23.86,9.18-12.16,9.21-13-2.73-22.56-16.37-13.17-33.42-25.49-50.18-38.17-1.69-1.28-3.32-2.65-5.07-3.84-6.47-4.43-7.19-6.18-2.63-12.38,8.52-11.62,17.43-23,26.47-34.17,1-1.25,4.14-1.69,5.95-1.22,7.81,2,15.49,4.56,23.68,7,13.7,2.32,27.44-7,34.87-12.41,6.46-4.71,11.32-7.4,17.36-12.5,5.1-4.31,8.67-2.93,12.92-.07,8.41,5.67,16.69,11.54,25.18,17.09,1.63,1.07,46,10.48,47.1,10.66,9,.53,14.75-8.21,21.81-12.76,3.06-2,4.54-1.77,6.87.27q25.52,22.37,51.1,44.63c2.88,2.51,5.91,4.83,9.2,7.51-3.6,2.72-7.92,4.48-9.62,7.65-2.25,4.19-3.86,9.67-3.28,14.28,1.85,14.66,5.15,29.13,7.28,43.76,1.15,7.83,2.27,16.66,3,24.56.76,8.21,4.21,24.2,1.73,24.72-7,2.23-13.71,4.68-20.58,6.36-2.36.58-5.86.09-7.69-1.36-8.86-7-17.05-14.82-26-21.64-5.78-4.38-5.78-10.58-7.12-16.44-.85-3.7-.77-7.61-1.47-11.35-1-5.33-1.68-9.16-7.66-13.62-1-.74-13.91-12.26-21-18.45-1-.8-2.58-2.16-4.57-3.87a27.34,27.34,0,0,1-5.75-4.94c-9.85-8.48-23.05-20-26.67-22.92,0-.31-8.94-6.78-10.85-4.36-12.79,16.2-23.54,30.19-35.69,46.87-2.55,3.5-3.9,8.51-4.17,12.92-.89,14.57-.92,29.18-1.53,43.77-.23,5.29-1.18,10.55-1.82,16.08-7.5.65-14.76,1-21.92,2-7.53,1.08-13-2.3-18.49-6.69-8.58-6.89-17.36-13.52-27.35-21.26C778.29,997.3,780.36,993.18,783.7,991.07Zm171.82-3c-7.95-6.79-15.21-12.9-22.36-19.13-13-11.32-26-22.63-38.82-34.22-1.33-1.21-1.79-4.47-1.25-6.38.63-2.27,2.79-4.11,4.48-6.39,12.45,11,24.15,21.64,36.17,31.85,1.9,1.61,11.51,9.49,14.69,12.1C955.5,971.72,955.26,979.34,955.52,988.1Zm-68.11-46.39c6,4.45,11.47,8.08,16.42,12.34,11.82,10.18,23.3,20.75,35.06,31,15.43,13.45,31,26.74,46.5,40.08,1.64,1.41,3.33,2.73,5.68,4.65-7.81,2.83-14.61,4.67-20.81,7.7-7,3.46-12.69,1.78-18.78-2.15-22-14.19-44.23-28.08-66.32-42.17-4.26-2.71-8.3-5.77-13-9Zm190.82-120.49c6.82,5.73,13.76,11.33,20.68,16.94,1.66,1.34,3.47,2.49,5.88,4.2l-10.53,8.51L1031,797.57c3.32-2.65,5.64-4.89,8.35-6.47,1-.55,3.23,0,4.26.88C1055.23,801.65,1066.67,811.51,1078.23,821.22Zm-16.5-95.46a75.93,75.93,0,0,0-9.84-7c-3.54-2.08-33.57-24.85-25.74-27.18l24.42-3.73c4.11-.91,8.1-1.46,24.24,7.31,3.86,1.81,9,4,13.94,6.67,1.27.69,2.78,3.59,2.36,4.2a142.79,142.79,0,0,1-14.36,20.27C1071.59,729.65,1066.71,729.89,1061.73,725.76Zm76-66c1.63-2.18,7.51-9,8.77-8.57,4.68,1.5,3.88,9.76,3.64,9.57-.21,1.82-1.94,4.11-4.94,8.08h0c-6.74,8.9-36.82,49.76-46.62,63.25-.43.87-.94,1.84-1.54,2.93-4.09,7.56-9.75,11-18.1,11.14l-5.13-9.26c9.45-.23,12-8.58,16.8-14.06L1130.87,669l-.06-.05,6.82-9.31Zm-40.84-37.34c12.43,8,24.73,16.14,37.93,24.81-12.14,16.47-24.23,32.86-36.69,49.78l-44.61-29.13c4.48-5.29,14.76-16.83,18.23-21.09,1.85-2.28,3.11-5.06,5.06-7.22,1.21-1.33,5.17-7.76,14.35-19.88A20.59,20.59,0,0,1,1096.91,622.4ZM1075.3,609l9,5.3c-6,8-11.56,15.9-17.56,23.43-5.37,6.73-11.48,12.87-16.78,19.65-4.19,5.35-7.88,4.37-12.76-.58Zm-33-20.5c5.53-.36,13.7,6.45,18.38,9.9,2,1.48,6.41,4.22,2.86,9-3.57,4.41-7.75,9.72-12.13,14.87-.78.92-18.8,23.72-21.19,27.82-12.42-8.07-69.16-48.82-77.47-55.34a1.24,1.24,0,0,1-.47-1v0a1.27,1.27,0,0,1,1-1.17L973.5,589c6.66-1.16,13.28-2.76,20-3.28C997,585.48,1028.58,589.4,1042.33,588.5Zm-90.06-38.59c23.88-3,31.12,0,32.77,0s47.85,28.05,46.6,30.8-31.63-1.27-34.11-1-10.75-18.25-12.95-18.53-66.64,11-69.39,11.83-15.28-13.2-15.28-13.2S928.39,552.93,952.27,549.91ZM807.8,504.08c14.51,12,79.69,61.36,94.34,73.15,1.37,4.12-4.27,6.63-4.68,7.43-19.7-15-86.3-67-106.39-82.33-1.2-.91-8-5.53-10.26-7C788.72,494.08,800.26,497.87,807.8,504.08Zm-24.33-17.17c-4.35-.45-10.19.4-14,0-7.2-2.18-36-21.61-42-25.93s-26.12-21.37-26.56-25c1.39-1.57,14-3.24,15.59-1.87C730.09,445,769,475.35,783.47,486.91ZM703,351.45c2.37,9.35,12.36,63,15,73.56-3.82-2.44-16.32-10.29-17.17-10.84a.29.29,0,0,0,0-.09c-9-6.05-23.21-15.55-29-19.44,5.23-10.57,19.52-41.39,24.46-51.37C699.05,344.55,702.62,347.23,703,351.45Zm-63.17-39.14c1.51-3.06,14.16,4.74,27,12.65,11.47,7.05,23.49,13.92,21.86,17.5-6.13,12.25-17.92,34.67-24.27,47.37-13.13-8.85-34.57-23.5-47.79-32.4C622.65,345.44,634,323.94,639.81,312.31Zm-26,51.79c2.47,1.79,49.5,32.08,48.4,34.28s-3.5-.27-8.07,0-27.4,1.1-31.25-1.1-21.18-20.62-27.5-25S611.31,362.3,613.79,364.1ZM415.1,265.28c5.37,1.1,120.07,58.61,129.78,63.14,12.58,5.87,62.82,27.42,60.5,28.89s-20.06,2.71-28.85-1.21c-2.61-1.17-84.2-43-102.35-51.77s-59.21-28.05-62.51-34.1S415.1,265.28,415.1,265.28Zm12,23.38c14.2,6.25,76.46,37.59,117.82,65.36-3.85-.32-27,2.9-34.27,7.56l-43.17-29.52c-11.35-7.72-30.81-19.76-44-28.83-7.13-4.75-8.37-12.76-12.71-19.65C407,277.38,420,285.19,427.06,288.66ZM417.9,332c-16.87-12.46-20.14-16.53-28.52-25.3-14-14.7-17.68-19.27-28.31-30.44-7.95-8.35-26.77-26.31-34.84-34.54-1.76-1.8-7.7-15-2.09-12,12.25,8.54,40.22,29.17,52.53,37.62,7.31,5,15.05,9.45,22.05,14.87,3.42,2.64,6.94,6.56,8,10.55,2.2,8.32,6.52,14.14,14.12,17.88,1.85.9,3.39,2.44,5.51,4C424.61,318.43,420.19,327.06,417.9,332Zm35,24.11c-8.49-5.67-17-11.17-25.17-17.07-1-.69-.74-3.67-.36-5.42.58-2.64,5.15-11.09,6.26-14.08l28.26,19.08C460.13,342.28,454.94,352,452.91,356.13Zm9.85,5.12c1.79-3.55,5.67-12.06,7.83-16.37,9.94,6.74,19.71,13.3,29.42,20q47.58,32.61,95.13,65.28c6.58,4.51,6.7,5.16,2.48,12.17-.74,1.23-3.24,7.58-4,9.5Zm77.15,92.68c.23-.27,2-1.83,2.35-2.12,8.44-7.41,8.84-7,18-.76,7.33,5,14.58,10.07,22.6,15.63L564.6,478.59c-1.83-1.76-5.17-3.66-5.14-5,.24-.67.26-1.13.51-1.34,4.58-3.94,8.26-7.39,2.31-12.12-2.72-2.16-11.37-10.64-17.4-5.41a13.08,13.08,0,0,1-2.68,1.74C540.65,456.93,538.87,455.16,539.91,453.93ZM519,466.15c2.42-1.33,6.7-.95,9.44.24,7.69,3.35,15,7.53,23.37,11.85-7.77,4.87-14.78,9.38-21.93,13.64a5.76,5.76,0,0,1-4.57.46c-8.83-4.11-17.53-8.48-26.62-12.93C505,475.21,511.74,470.17,519,466.15Zm-33.9,22.4c3.13.12,3.63,4.63.65,5.57-4.06,1.27-6,3.74-5.92,9,.12,5.79,1.62,8.11,9.5,9.37,6.18,1,12.89-3.42,16.9-11.35l11.31,7.66c-6.19,3.76-12,6.41-16.66,10.38s-8.19,9.25-12.49,14.27l-31.17-21.16C459.37,504.63,475.52,488.2,485.14,488.55Zm-224.3-61.3c3.13,2.74,18.54,10.59,19.67,11,2.41.94,14.71-17.18,18.71-21.65l13.52,8.77c-3.91,6.59-3.6,7.53,3.15,12.15,12,8.22,24,16.53,36.28,25L319.36,512c-6.37-4.27-47.4-32.33-61.63-42.59-2.13-1.54-3.56-4.57-4.44-7.21-1.66-5-17.38-71.12-19.26-80.15-.48-2.28.32-7.1,1.09-9.63,2.2,0,41.69,28.54,42.82,29.35-9.41,5.71-12.79,13.47-17.81,20.87C259.46,423.61,259.91,426.42,260.84,427.25Zm86.78,60.95c9.14,5.61,9.33,5.55,16.16-5,3.12-4.82,2.51-6.12-5.26-11.39,7.17-7.26,10.18-7.62,18.53-2.11s16.54,11,24.77,16.49l0,0c4.87,2.89,15.86,10.64,16.78,11.26,4.37,3,8.62,6.07,13.67,9.67-10.81,4.22-13.64,14.63-19.63,22.34-3.09,4-5.06,8.95-8.53,12.5-2,2-6,2.84-9.07,2.86-5.05,0-22.46.89-28.24.19l-39-26.44Zm21.72-79.08c7.17-4.84,15.5-10.81,23.72-16.35,6.46,3,16.52,2.71,22,12.3-9,5.51-17,10-25.5,15.2C383.37,415.67,375.23,413.47,369.34,409.12ZM272.23,298.89c1.79-.95,5.19-.1,7.31,1,8.44,4.31,41.81,23.19,50.95,28.21l0,0c9.24,5.08,52.41,29.3,62.32,34.53-9.65,7.15,24.87,18.16,26.5,17,4.87-3.36,11.14,1.66,11.94,3-3.51,5.31-14.4,6.6-20.46,4.3-14-5.29-78.5-36.56-86.87-41.42-6.49-3.77-13.33-6.93-20-10.46-1.51-.8-3-1.69-4.54-2.63h0c-8.31-4.63-24.22-13-32.09-17-5.33-2.71-22.31,7.69-23.1,8.12a28.23,28.23,0,0,1-5.09-5.85C250.41,311.21,261.18,304.78,272.23,298.89Zm-50.84,28.72c3.82-2.31,6.72-2,8.8,3.34-2.22,1.16-6.09,3.31-6.71,4.73-.76,1.73-.29,4.24,1,5.16,5.1,3.71,8.25,5,13.69,8.21l21.36,12.84c2.4,1.43,4.75,2.85,7.07,4.25l.1.06h0c8.36,5.07,60.78,32.91,71.94,39.35,10.36,6,14.33,7.81,25,15.82-11.24,9.28-18.06,14.82-23.54,10.79,1.69-2.64,5.36-6.37,4.65-7.64-1.57-2.78-20.62-12.45-25.85-15.42-6.05,6.77-10.79,1.26-15.75-1.75-1.06-.64-98-66.34-100.93-68.32C209.09,334.94,215.26,331.3,221.39,327.61ZM163.07,390c-4.1-16.56-10.56-35.09-13.39-51.88-.79-4.73.74-9.17,8.44-20.35,7,4.47,57.15,41.53,68.92,49.85.77.54.4,3,.24,4.47-.47,4.22-2.25,8.64-1.49,12.6,3.44,17.95,7.45,35.81,11.52,53.63,1.74,7.58,4,15.05,6.28,22.49,1.26,4.11,3.44,11.14,10.42,16.18h0c9.63,6.73,19.18,13.46,28.07,19.72-6.93,10.77-34.22,54.79-42.49,66.77-3.24-13.87-11.67-48.83-16.45-66.66-.13.06-13.87-63.76-19.13-86.54-.47-2.05-.82-4.13-1.37-6.17-1.18-4.45-3-7.29-8.42-8.76-8.58-2.34-16.93-4.14-26.1-3.33C166.76,392.09,163.42,391.38,163.07,390Zm60,198.69c-1.53,2-4.18,5.32-5.52,5-3.72-1-7.32-2.63-8.46-7.7-9.26-41.36-18.87-82.65-28.33-124-4.28-18.71-8.57-37.42-12.58-56.18a3.57,3.57,0,0,1-.05-1,4.8,4.8,0,0,1,5.69-4.18c5.47.95,10,1.78,14.57,2.38,4.18.55,5.72,2.84,6.62,6.8q9.48,42,19.52,83.79c.67,2.76,14.29,60.47,17.66,75.7.56,2.51-.61,5.78-1.86,8.24A76.46,76.46,0,0,1,223.08,588.64Zm101,111.55c-5,1.58-32.6,13.07-39.5,8.12-13.37-10.59-34.73-25.81-50.65-39-4.13-3.42-3.77-9.42-3.78-10.48-.12-7.26,0-25.49,0-33.83,8.6,5.66,40.15,31.36,40.15,31.35C277,661.21,325.75,699.67,324.1,700.19Zm3.71-21.51c-8.73-6.38-36.79-30.93-49.52-40.22,0,0-32-23.62-48.18-35.43.46-.37,7-6.34,7.21-6.28,9.49,2.82,10,5.59,15.68-3.16,5.56-8.48,11.13-17,16.62-25.48,1.46-2.28,2.64-4.74,4.18-7.52,4.34,2.84,10,5,21.16,13,2.79,2.28,23.42,16.53,29.19,21.23,1,6.81,2.15,12.87,2.56,19,.1,1.49,4.73,34.58,5.79,42.79C333.25,662.33,332,675.07,327.81,678.68Zm1.61-102.34c-14.38-9.26-28.19-19.43-42.51-29.41,11.46-7.52,16.79-18.82,22.42-31,3.31,2.28,7.59,5.16,11.79,8.16,12.23,8.71,24.41,17.49,36.68,26.15,1.1.77,10.14,3.41,11.54,3.47,12.22.5,16.2,0,29.18-.6,8.7-.39,11.61-2.27,15.08-8.33a168.32,168.32,0,0,1,12.61-19c4-5.14,8.78-9.61,13.32-14.47,4,3,55.11,39.22,60,42.25,8.08,5,15.84,10.5,24.3,16.17-10.13,15.19-19.89,30.11-30,44.81-6.61,9.65-14.27,18.64-20.31,28.61-3.38,5.59-4.35,12.62-6.55,18.94-2.88,8.33-3,8.22-11.16,5.62-26.29-8.36-93.78-29.87-93.56-29.29-4.61-1.44-9.48-2.38-13.71-4.55-2.13-1.09-4.09-4.28-4.44-6.75-1.31-9.27-2.79-18.65-2.57-27.95C341.83,588.81,338.1,581.94,329.42,576.34Zm13.37,112.88c9.63-10.34,5-22,4.71-33.36-.1-3.35-.87-6.69-1.44-10.87L384,657c-2.46,5.62-5.14,11-7.18,16.63-1.63,4.51-.72,8.23,4.68,10,8.56,2.78,17,6,25.51,8.85.93.31,8,2.54,13,4,3.21-8.47,7.66-20.23,9.91-26.14l12.88,3.92h0C493,690.06,552.88,710.28,603,726.12c-5.15,20.37-17.62,38-18.59,59l-10.33-2.7c1.56-5,3-10.34,4.86-15.51,2.37-6.54,4.91-13,7.75-19.39,1.44-3.21.72-4.81-2.42-5.83-5-1.61-9.92-3.56-15-4.74-1.39-.32-4.28,1.25-4.82,2.62-4.51,11.34-8.64,22.83-13.09,34.86L455,743.14a81.82,81.82,0,0,1,3.13-9.67c2.84-7.93,5.25-16.11,8.25-24,1.23-3.21,1.12-5.67-3.24-6.59-5.55-1.17-21.26-4.66-28.12-6.46-.68,2.67-1.74,7-2.8,10.86h0c-.26,1.24-6.3,26.18-6.53,26.11-1.88-.54-3.55-1.07-5-1.6-9.13-3.08-39.62-13.68-50-16.63A69.63,69.63,0,0,1,346,703C340.72,698.84,338.56,693.77,342.79,689.22Zm9.13,113.59c-6-4.87-9.95-12.57-19.65-12-1.8.11-4.26-4.09-5.73-6.68-3.25-5.77-6.07-11.78-9.07-17.69l1.38-1.74c3.21,2.62,6.5,5.15,9.62,7.87,9.63,8.39,19.32,16.74,28.68,25.44,1.37,1.28,1.05,4.38,1.51,6.64C356.38,804.08,353.57,804.15,351.92,802.81ZM368,777.16c-6.75-5.64-12.78-12.27-23.24-11.32-2.56.23-6-4.7-8.32-7.8a55.79,55.79,0,0,1-5.9-11c-.5-1.13-.14-3.59.69-4.13,1.42-.93,4.19-1.76,5.22-1,14.41,10.39,28.62,21.05,43.17,31.87C376.4,781,372.74,781.1,368,777.16Zm23.56-23.69c-8.76-5.32-16.71-11.18-28.16-10.69-7.8.34-13.47-11.12-11.13-19.89l47.61,27.23c0,1.31,0,2.63,0,4C397.12,753.92,393.7,754.76,391.58,753.47ZM409.21,824c-.39.78-.71,1.43-.92,1.89-11.72-4.41-15.69-14-2.29-28.08,9.14-8.67,14.35.23,20.24,4.79l-1.6,1.41A64.6,64.6,0,0,0,409.21,824ZM351.6,1009.62l11.53,9.65-6.56,9.23c-6-4.78-12.88-9.29-18.25-15.21-2.31-2.55,4-11.44,4-11.42,41.29-49.66,89.54-108.38,131.18-158.46,5.55,10.37,5.26,10.12-4.77,21.94-14,16.52-27.47,33.52-41.32,50.19-13.6,16.39-27.42,32.58-41.06,48.94-9.35,11.21-25.27,31.25-35,43.1A1.47,1.47,0,0,0,351.6,1009.62Zm94.12,92.68c-7-5.68-13.77-11.22-20.55-16.79-19.19-15.76-38.27-31.66-57.62-47.22-5.28-4.26-1.63-7.76.36-11,2.32-3.75,4.52-.67,6.69,1.1,18.24,14.88,36.59,29.64,54.8,44.56,7.56,6.19,14.88,12.66,23.07,19.66C450.5,1095.47,448.36,1098.53,445.72,1102.3Zm.72-30c7.14-4.42,14.37-9,21.67-13.4q31.42-19.06,62.91-38,36.68-22,73.47-43.81c4.89-2.92,7.16-4.43,14.65-8.75,6.56-3.78,9.27-2.1,13.49,2.19-8,5-15.71,9.81-23.42,14.6-.54.33-72.93,45.6-97.37,60.3-1.77,1.07-27.77,17.73-38,23.39-6.44,3.57-12.71,7.42-19.06,11.16Zm66.62,71.63c-7.68,4.74-14.17,1.65-20.08-2.5-7.63-5.37-24.84-19.84-32-25.89s-7.11-6.75-.78-16.4c5.81,4.55,21.83,17.22,27.54,21.82,3.32,2.68,6.51,5.52,9.7,8.35,4.42,4,8.83,3.1,13.19-.31,6.93-3.62,68-40.85,71.1-42.68,2.46,3.93,4.87,7.8,7.57,12.14C579.28,1104.56,522.15,1138.29,513.06,1143.9Zm83.37-49.81-5-13.27c11.55-7.28,23.22-14.74,35.06-21.92,1.07-.65,27.69-16.27,28.71-17.32,2.44-2.53,53.33-32.12,66.67-40l7.23,11.73Zm134.69-41.32c-1,2.07-3.9,3.88-6.28,4.53-20.3,5.61-40.69,10.9-61,16.31-6.88,1.83-13.74,3.7-20.79,5.11a.63.63,0,0,1-.42-1.17c8.7-4.66,20-12.33,29.23-15.16,19.43-5.94,24.87-6.53,39.6-10.81,10.75-3.13,12.5-3.78,15.72-14.52,1.51-5,3.38-10.43,6.72-14.22,4.21-4.8,10.09-8.14,15.26-12.11a.76.76,0,0,1,1.16.92C743.94,1025.38,737.76,1039.19,731.12,1052.77Zm13.51,1.94L761,1020.45c6.78,4.56,8.81,11.72,5.52,18.81-3.55,7.63-7.42,15.11-11.38,23.13Zm145.44,57.55c-10-.87-19.77-1.54-29.47-2.59-9.48-1-21-2-31-2.61-17.22-1.1-28.39-7.17-41-18.1-8.47-7.36-17.58-14-26.58-21.07,3.41-6.86,6.61-13.27,10.35-20.78,3.32-7.75,2.38-11.07,3.34-16.16,8.56,6.67,16.65,13.46,25.28,19.47,3.62,2.53,8.27,3.83,12.65,4.92,4.08,1,38.5,3.84,43.17,4.16,3.14.22,33.82,5.18,37.87,6.06,2.43.52,2.43,3.22,2.43,3.5,0,8.16-.92,13.48-1.2,18.3C896,1087.7,896.13,1112.94,890.07,1112.26Zm118.53,85.82c-34.59-26.17-71.9-54.55-105-79.56,3-16.22,4.13-24.43,4.7-37.61,1.53,1,7.56,4.79,8.74,6.36a10.69,10.69,0,0,1,2,6.15c-.14,6.17-1.24,12.33-1.06,18.46.07,2.61,15.47,14.07,20,17.53q22.83,17.4,45.63,34.83c3.2,2.45,1.77,2.06,5.23,4a13.42,13.42,0,0,0,7.72,1.48c1-.12,2-3.27,2.34-5.16.83-4.38,1.28-8.83,2-14.07,2.75,1.89,13.17,8.17,15.68,9.9A228.14,228.14,0,0,1,1008.6,1198.08Zm8.55-51.72c-26.7-20.12-53.6-40-80.38-60-1.31-1-27.09-20.66-31.17-23.52-11.45-8-20.33-8.11-50.64-11.52-3.21-.36-20-1-31.62-2.31-9.38-1-16.1-4.34-23.34-9.84-6.25-4.76-12.06-10.16-18.62-14.41-4.84-3.14-5.54-6.12-2.16-11,8.2,6.31,16.26,12.79,24.67,18.79a17,17,0,0,0,9.2,3.27c13.52-.06,27.06-.36,40.53-1.39,3.3-.25,6.87-3,9.4-5.59,2.8-2.81,4.54-6.66,7.3-10.9,8.93,5.92,16.93,11.33,25,16.57,12.94,8.37,25.87,16.79,39,24.88a24.16,24.16,0,0,1,2.81,2c15,10,40.3,27.32,52.57,33.63,12.08,6.21,20.31,16,29.7,24.92,3.83,3.63,8.11,6.8,12.51,10.45-1.54,3.73-5.23,12.19-2.73,15.19s9.61,7.17,14.4,10.72C1032.32,1157,1024.72,1152.07,1017.15,1146.36Zm28.83,75.9-22.3-9c.83-20.49,3.3-40,4.7-49.94,8,1.39,13.75,3,22.34,3.68,11.12.94,14.5,8,15.89,18.38-5-.62-10.17-.94-16.76-1.82C1049.85,1183.6,1047.26,1210.46,1046,1222.26Zm104.89-12.14c0,.35,0,.69,0,1-1.62-.07-3.26,0-4.86-.24-6.74-.89-7.59,7.63-9.41,14-1.6,5.63-1.64,9.08,6,9.21-.35.53-1.8,4.35-2.15,4.88-13.8-2.49-27.61-4.88-41.38-7.49-12.86-2.43-25.65-5.23-38.52-7.56-3.84-.7-5.79-2.09-5.31-6.18,1-8.19,1.84-16.39,2.85-25.52l20.55,4c-.79-3.06-2.6-15.16-3.52-18.75,23.07,4.59,45.82,9.51,68.75,13.44C1150.8,1192.1,1151.78,1204.71,1150.87,1210.12Zm113.33,54-8.6-3.66,0-.12c-9-4.79-51.49-20.5-67-35.07-9.16-8.62-7.75-26.78-7.51-32.64,3.24.65,57.6,35.44,59.58,36.67,2.64,1.64,24.25,16.16,24.48,18.08v0C1269,1251.65,1268.41,1256.19,1264.2,1264.07Zm5.78-37.9c-2.43-1.59-7.06-3.89-12.48-6.71h0c-2.62-1.36-5.43-2.85-8.26-4.42-12-6.49-31.56-17.22-36.84-20.11-9.82-5.38-19.48-11.07-29.36-16.34-1.42-.76-10.77-9.12-17.53-15-1.93-1.67-3.92-3.8-4.72-6.12-6.82-20-13.18-40.07-20.14-60-1.93-5.51,1-9.32,2.7-13.66,4.34-10.95,8.81-21.84,12.6-31.18,4.65,5.2,9.16,11.07,14.51,16,10.15,9.44,20.78,18.37,31.23,27.49.62.54,4.59,4.12,5,4.33-13.44,16.38-27.45,29.76-40.92,46.2-3,3.6-1.79,9.67,2.18,11.87,19.72,10.92,36.95,21.4,56.41,32.77h0c5.84,3.13,36.09,19.33,41.57,22.46C1270.77,1216.63,1270.69,1216.76,1270,1226.17Zm-1.14-25.06-89-49.31,37.43-43.54c15.21,11.54,23.46,18.07,37.57,31.7,3.33,3.22,5.36,14.64,6.79,19.44,3.6,12.11,6.85,24.69,10.27,36.85C1272.2,1197.42,1273.28,1203.4,1268.84,1201.11Zm8-38.89c-2-7.09-4.27-14.14-5.81-21.34-1.75-8.2-7.43-13.25-13.51-17.87-3-2.29-3.81-3.87-.88-6.41,11-9.49,21.95-18.94,33.64-29,3.18,4.06,6.81,8.12,9.77,12.62,11.26,17.07,22.15,34.38,33.54,51.36,2.82,4.19,2.49,7.29-.76,10.45-11.48,11.14-22.94,22.3-34.63,33.21-2.7,2.52-6.29,4.09-9.9,6.37C1284.45,1188.38,1280.61,1175.31,1276.85,1162.22Zm68.16,22.21-55,50.46c-3.38-11.36-2-18.88,8.87-25.5,5.74-3.48,10.44-8.73,15.43-13.37,8.1-7.52,16.06-15.18,23.56-22.3C1338.76,1173.72,1345.45,1183.87,1345,1184.43Z"/></g><g id="Thrusters"><path d="M291.85,512.3c-3.58-2.06-9.14.88-12.43,6.58s-3.06,12,.52,14.06,9.14-.88,12.43-6.58S295.43,514.37,291.85,512.3Zm256.59,404c-3.57-2.83-9.45-1.36-13.14,3.3s-3.79,10.72-.22,13.55,9.46,1.35,13.15-3.3S552,919.15,548.44,916.32Z" fill="#007aff"/></g></g></svg>