<svg xmlns="http://www.w3.org/2000/svg" viewBox="0 0 1500 1500"><title>Diamondback Scout</title><g id="Diamondback_Scout" data-name="Diamondback Scout"><g id="Colour"><path d="M1226.79,1092.72a20.55,20.55,0,0,0-1.68-7.23c-.64-1.6-2.23-2.79-3.22-4.28-8.5-12.88-16.55-26.07-25.55-38.59-10.61-14.75-21.2-29.66-33.31-43.15-14.17-15.78-24.42-33.45-33-52.66-4.32-9.7-7.27-20.76-17-27.4-2.32-1.59-4.37-3.58-6.51-5.35,5.74-8.15,5.75-9.33-.31-16.79-8.31-10.23-16.63-20.45-25.06-30.57-6-7.22-11.57-15-18.47-21.26-10.24-9.32-21.45-17.59-32.33-26.2-2.54-2-2.76-4.08-1.69-6.94,1.87-5,3.36-10.17,5.18-15.21,2.91-8,4.71-16.78,9.19-23.82,11.88-18.6,24.36-36.9,37.8-54.4a17,17,0,0,0-4.56-24.54c-15-9.4-29.92-19-44.9-28.51-32.26-20.47-64.58-40.85-96.77-61.44-3.66-2.35-7.15-4-11.52-3.43-13,1.7-26,3.58-39.09,4.94-5.63.59-11.45,3.93-17-.79-8-6.76-16.24-13.2-24.31-19.87-3.06-2.53-33-26.72-39.16-31.4Q783,538.25,763,521.89a30.35,30.35,0,0,1-8.34-10c-1.93-4.1-2.09-9-3.1-13.57-3.44-15.56-6.65-31.19-10.5-46.65-1.8-7.23-2.43-15-10.58-19.52C713,422.38,696,411.68,678.68,401.58c-3.52-2-6.69-1.37-8.79,3-6.58,13.53-13.44,26.92-20,39.94-9.51-4.66-18.46-8.93-27.32-13.4q-51.79-26.15-103.54-52.39c-11-5.58-21.93-11.35-33-16.89-9.39-4.73-18.88-9.25-28.32-13.87-7-3.44-14.09-6.8-21.06-10.35-10.87-5.54-21.54-11.51-32.58-16.67a26.61,26.61,0,0,0-12.48-2.06c-5.91.37-8.22,5.36-10.65,10.18-1.93,3.84-2,6.45,1.42,9.47,4.58,4,8.81,8.51,13,13,13.28,14.24,26.46,28.57,39.68,42.86,2.72,2.94,5.34,6,8.13,8.82,6.81,7,13,14.8,20.69,20.74,12.44,9.68,25.89,18.06,38.82,27.13q31.75,22.28,63.37,44.72,22,15.54,43.8,31.14c-1.55,7.26-1.55,7.25-7.2,3.69-.61-.39-44.05-23.32-65-34.79-23.55-12.92-46.81-26.39-70.44-39.18-3-1.63-8.34-2.1-11.12-.52-23.28,13.32-46.24,27.19-69.21,41-3.27,2-5.78,2-8.95-.26Q352.57,478.77,326.85,461c-13.31-9.15-26.84-18-40.18-27.08q-21.57-14.74-42.94-29.74c-3.47-2.42-6.15-1.58-8.34,1.59-2.34,3.39-5,6.7-6.57,10.45-1.28,3-2.12,6.86-1.5,10,2.27,11.55,5.4,22.92,7.87,34.44S239.46,484,242,495.52c5.28,23.77,11,47.44,16.3,71.19,3.56,15.91,6.62,31.93,10.18,47.83,3,13.57,6.48,27.06,9.86,41.06a79.67,79.67,0,0,0-8-3.53c-3.85-1.21-8-1.33-10.09,2.78-1.85,3.6-1.45,7.38,2.23,10.16,9.47,7.16,18.77,14.56,28.47,21.42,2.79,2,3.81,3.83,3.77,7-.14,10.27-.18,20.54.06,30.8a10.61,10.61,0,0,0,2.47,6.13c2.09,2.44,4.82,4.35,7.35,6.4,13.31,10.78,26.54,21.68,40,32.21,3.68,2.86,8.22,6.3,12.42,6.39,5.83.11,11.69-2.76,17.56-4.23,4.71-1.17,9.46-2.17,12.35-2.83,3,6.49,4.7,12.24,8,16.83,7.67,10.67,16.14,20.76,24.23,31.12,1.87,2.4,3.13,5.44,5.38,7.35,6.74,5.73,13.7,11.23,20.85,16.43,2.19,1.59,5.29,1.95,8,2.89,1.31.46,2.83.68,3.88,1.49,9.88,7.58,19.68,15.25,29.46,22.88-11.46,14-22,27.12-32.68,40C437.59,927.28,421,947.07,404.49,967a38,38,0,0,0-4.28,6.2c-4.29,8.07-2.45,12,7.21,19.33,11.19,8.51,22,17.51,32.89,26.4,12.87,10.51,25.73,21,38.42,31.76,3.73,3.16,7,6.63,11.06,9.64,18,13.31,34.69,28.3,52.09,42.4,7.85,6.36,16.8,9.56,26.55,4.29,12.42-6.71,24.69-13.7,36.85-20.85,12.36-7.28,24.5-14.91,37.09-22.59,5.08,5.66,10.58,8.08,17.51,7.17,4.84-.64,9.75-.75,14.62-1.15,9-.74,18-1.45,27.06-2.28,15.29-1.4,30.58-2.93,45.88-4.29,10.1-.9,20.22-1.62,30.34-2.33,26-1.64,38,4.89,49.21,12,11.38,7.24,21.78,15.09,22.49,15.61q17.24,12.53,34.18,25.44c12.91,9.79,25.69,19.75,38.61,29.52,4.56,3.46,8.94,8,14.15,9.59,10.37,3.19,21.24,4.83,32,6.86,21.83,4.14,43.82,7.59,65.51,12.41,9.81,2.18,17.55,2,23.74-6.81,2.27-3.22,5.55-4.07,9.59-2.33,6.56,2.84,13.37,5.13,20,7.81,20.73,8.39,41.33,17.08,62.19,25.14,5.76,2.22,12.67,3.53,18-1.05,8.29-7.12,15.87-15.08,23.91-22.51,4.1-3.79,9.07-6.75,12.74-10.89,6.7-7.56,17.09-12.33,18.64-23.92.31-2.31.91-4.58,1.21-6.89.85-6.42,1.83-12.83,2.34-19.27C1226.72,1105.18,1226.85,1098.94,1226.79,1092.72Z" fill="#303233"/><path d="M1226.79,1092.72a20.55,20.55,0,0,0-1.68-7.23c-.64-1.6-2.23-2.79-3.22-4.28-8.5-12.88-16.55-26.07-25.55-38.59-10.61-14.75-21.2-29.66-33.31-43.15-14.17-15.78-24.42-33.45-33-52.66-4.32-9.7-7.27-20.76-17-27.4-2.32-1.59-4.37-3.58-6.51-5.35,5.74-8.15,5.75-9.33-.31-16.79-8.31-10.23-16.63-20.45-25.06-30.57-6-7.22-11.57-15-18.47-21.26-10.24-9.32-21.45-17.59-32.33-26.2-2.54-2-2.76-4.08-1.69-6.94,1.87-5,3.36-10.17,5.18-15.21,2.91-8,4.71-16.78,9.19-23.82,11.88-18.6,24.36-36.9,37.8-54.4a17,17,0,0,0-4.56-24.54c-15-9.4-29.92-19-44.9-28.51-32.26-20.47-64.58-40.85-96.77-61.44-3.66-2.35-7.15-4-11.52-3.43-13,1.7-26,3.58-39.09,4.94-5.63.59-11.45,3.93-17-.79-8-6.76-16.24-13.2-24.31-19.87-3.06-2.53-33-26.72-39.16-31.4Q783,538.25,763,521.89a30.35,30.35,0,0,1-8.34-10c-1.93-4.1-2.09-9-3.1-13.57-3.44-15.56-6.65-31.19-10.5-46.65-1.8-7.23-2.43-15-10.58-19.52C713,422.38,696,411.68,678.68,401.58c-3.52-2-6.69-1.37-8.79,3-6.58,13.53-13.44,26.92-20,39.94-9.51-4.66-18.46-8.93-27.32-13.4q-51.79-26.15-103.54-52.39c-11-5.58-21.93-11.35-33-16.89-9.39-4.73-18.88-9.25-28.32-13.87-7-3.44-14.09-6.8-21.06-10.35-10.87-5.54-21.54-11.51-32.58-16.67a26.61,26.61,0,0,0-12.48-2.06c-5.91.37-8.22,5.36-10.65,10.18-1.93,3.84-2,6.45,1.42,9.47,4.58,4,8.81,8.51,13,13,13.28,14.24,26.46,28.57,39.68,42.86,2.72,2.94,5.34,6,8.13,8.82,6.81,7,13,14.8,20.69,20.74,12.44,9.68,25.89,18.06,38.82,27.13q31.75,22.28,63.37,44.72,22,15.54,43.8,31.14c-1.55,7.26-1.55,7.25-7.2,3.69-.61-.39-44.05-23.32-65-34.79-23.55-12.92-46.81-26.39-70.44-39.18-3-1.63-8.34-2.1-11.12-.52-23.28,13.32-46.24,27.19-69.21,41-3.27,2-5.78,2-8.95-.26Q352.57,478.77,326.85,461c-13.31-9.15-26.84-18-40.18-27.08q-21.57-14.74-42.94-29.74c-3.47-2.42-6.15-1.58-8.34,1.59-2.34,3.39-5,6.7-6.57,10.45-1.28,3-2.12,6.86-1.5,10,2.27,11.55,5.4,22.92,7.87,34.44S239.46,484,242,495.52c5.28,23.77,11,47.44,16.3,71.19,3.56,15.91,6.62,31.93,10.18,47.83,3,13.57,6.48,27.06,9.86,41.06a79.67,79.67,0,0,0-8-3.53c-3.85-1.21-8-1.33-10.09,2.78-1.85,3.6-1.45,7.38,2.23,10.16,9.47,7.16,18.77,14.56,28.47,21.42,2.79,2,3.81,3.83,3.77,7-.14,10.27-.18,20.54.06,30.8a10.61,10.61,0,0,0,2.47,6.13c2.09,2.44,4.82,4.35,7.35,6.4,13.31,10.78,26.54,21.68,40,32.21,3.68,2.86,8.22,6.3,12.42,6.39,5.83.11,11.69-2.76,17.56-4.23,4.71-1.17,9.46-2.17,12.35-2.83,3,6.49,4.7,12.24,8,16.83,7.67,10.67,16.14,20.76,24.23,31.12,1.87,2.4,3.13,5.44,5.38,7.35,6.74,5.73,13.7,11.23,20.85,16.43,2.19,1.59,5.29,1.95,8,2.89,1.31.46,2.83.68,3.88,1.49,9.88,7.58,19.68,15.25,29.46,22.88-11.46,14-22,27.12-32.68,40C437.59,927.28,421,947.07,404.49,967a38,38,0,0,0-4.28,6.2c-4.29,8.07-2.45,12,7.21,19.33,11.19,8.51,22,17.51,32.89,26.4,12.87,10.51,25.73,21,38.42,31.76,3.73,3.16,7,6.63,11.06,9.64,18,13.31,34.69,28.3,52.09,42.4,7.85,6.36,16.8,9.56,26.55,4.29,12.42-6.71,24.69-13.7,36.85-20.85,12.36-7.28,24.5-14.91,37.09-22.59,5.08,5.66,10.58,8.08,17.51,7.17,4.84-.64,9.75-.75,14.62-1.15,9-.74,18-1.45,27.06-2.28,15.29-1.4,30.58-2.93,45.88-4.29,10.1-.9,20.22-1.62,30.34-2.33,26-1.64,38,4.89,49.21,12,11.38,7.24,21.78,15.09,22.49,15.61q17.24,12.53,34.18,25.44c12.91,9.79,25.69,19.75,38.61,29.52,4.56,3.46,8.94,8,14.15,9.59,10.37,3.19,21.24,4.83,32,6.86,21.83,4.14,43.82,7.59,65.51,12.41,9.81,2.18,17.55,2,23.74-6.81,2.27-3.22,5.55-4.07,9.59-2.33,6.56,2.84,13.37,5.13,20,7.81,20.73,8.39,41.33,17.08,62.19,25.14,5.76,2.22,12.67,3.53,18-1.05,8.29-7.12,15.87-15.08,23.91-22.51,4.1-3.79,9.07-6.75,12.74-10.89,6.7-7.56,17.09-12.33,18.64-23.92.31-2.31.91-4.58,1.21-6.89.85-6.42,1.83-12.83,2.34-19.27C1226.72,1105.18,1226.85,1098.94,1226.79,1092.72Z" fill="none" stroke="#000" stroke-linejoin="round" stroke-width="8"/></g><g id="Grey"><path d="M693.5,799.21,707.73,796l37.58-39.15-18.88-9-11.07,13.79-78.68-54.27-2.36-6.48,5-7.48,55.42-8.1,46.44-82.11L636.68,549.84l-85.56,58.25v13.07l-50.88-34.68-15.39,5.14-20.94,32-39.78-3.85L324,546.21l-21.31-79.59L309,452.29l-70.51-48-9,20.86L242,478.78l31.7,5.94,19.8,85.12,9.07,11.76-2.47,18.51,11.61,41.66,93.62,63ZM483.69,398.81l13,3.3,58.21,6.05,41.83,21.67,13,15.6,22,8,20.59,16.76L662,492.45l-16.78.14-12.92,12.1,16.6,12.92,18.26,11,22,2.5,103,71.13,42.16-1.74,47.58,40.34L870.67,661.5l20.5,10.74,26.26-10.74L883,622.94s-53-44.76-82.5-67.61-97-65.69-97-65.69L631.33,439,429.16,342.73l-2.83,3.77,43.06,35.26ZM838.5,952.58,836.2,967l38.1,23.14,64.14-24.9S924.22,884.32,926,876.1s15.44-14.9,15.44-14.9l-5.6-6.61-100,59.93-12-2.13L530.51,813.65,398.58,980l148.06,125.67,15.74,3.11L800.67,964.62,827,942.82ZM981.2,707.91l7.69,9.76,32.44,49.66-9.44,23,13.53,2L1081.77,709l-2.93-9.08L928,604.33l-52.89,7.16,102.09,85.26Zm71.52,275.4L1116,927l-13.54-11.3-72.59,57-22.94,56.84-73.41,26.34,9.17,9.11-4.93,7.71,21.61,21.23-34.56-3.33L808,1000.26l-4.86,55.59,49.23,31.56,87.44,65.45,112.89,17.49,15.71-53.34-33.86-71.88Z" fill="#5f686b"/></g><g id="Paint"><path d="M858.44,1007.85c-5.27-14.35-22.27-12.52-33.17-28.85-3.55-5.33-2-27.15-7.85-24.67-16.5,7.06-14.75,9.13-14.75,39.56,13.61,10.1,109.4,81.32,121.77,91.67,7.14,6,23.64,7.1,32.23,7.55-14-10.28-98.36-73.18-102.67-76C852.86,1016.37,860.7,1014,858.44,1007.85Zm127-290.42,38-51.2-29.36-18.8-38.56,7.68-10.36,19.66-14-9.9,8.53,15.46,23.43,25.54,8.22,26.78s-21.63,0-25.93,1.19c-8.37,2.31-14.25,13.58-12,21A95.64,95.64,0,0,1,917.07,767c-8.33-4.85-14.76-3-20.32,0-12.58,6.93-12.14,24-15.56,37.19-1.5,5.76-31.78,23.95-31.78,23.95l-84.8,21.77L406.07,739.47,398,758.36l12.32,13L440,783l111.13,36.85,54.31,18.55,5.85,60L557,968.87l-16.69-12.72c-9.35-8.22-19.08-.53-25.27,6.74-9,10.57-3.77,12-7.37,18,0,0-21.34,26.61-30.1,36.17,0,0-11,11.34-3.59,23.65s66.88,56.88,66.88,56.88,11,11.41,17.06,10.37l-.92-25.78-44.63-34.35L681.66,946.24l3.16-80.77L819.94,910l15.95,4.51L859.77,902l71.53-47.39,8.53-4.92,6.6-10.74,29.45-22.22,14.2-4.22,18.16-17.66,11.46-28.29-29.62-41.21Z" fill="#d87100"/></g><g id="Canopy"><path d="M1220.8,1088.54c-.55-5.1-41.62-64.66-41.62-64.66l-70-83.67s-47.85,38.49-51.52,42.89-17.78,42.16-18,50.05c0,0,27.5,85.06,30.44,90s87.45,46,99.89,46.2,46.77-42.16,50.81-48.58S1221.35,1093.65,1220.8,1088.54Z" fill="#82b3d1"/></g><g id="Shadows" opacity="0.2"><path d="M781.53,838.93c45.4-2.21,97.53-5.07,94.52-21.63s-13.12-31.1-24-40.17-49.79-46.08-49.79-46.08l-16.64,20.54-44.46-32.13-3.07-10.31-43.37-23.86-55.42,8.1-5,7.48-399.93-287-7.07,12.43L278.37,655.6l17.78,32.47v45.17l58,30.68,29.17,1,12-14.66s75.28,30.11,133.35,50.08S736.13,841.15,781.53,838.93ZM751.46,512.87l-16.57-74.7L678.62,404.7l-24.68,48.72L748.79,519Zm-170.23-12.2,11.15,7.27L582.18,519l-121.6-65.6-60.24,35.65,362,132.76L775.91,632l78.46,47.8,10.55,2.68,15.79-7.85-18.88-22v-8.8L858.77,626l-35.56-21.63-16.14-2.93-4.82,3.9-111.85-72-23.24-4.66L477.29,397.53l-7.9-15.77-70.81-54.63L382.43,338.5l80.16,81.19Zm255,218.79s40.9,35.69,48.81,45.42,39,13.74,42.25,6.41-17.41-30.32-24.1-36-52.28-42.78-52.28-42.78ZM1155,1111.11l-15.81-38.18-89-80.9L912.88,868.36,840,914.52l-16.13-2.13-1,3.59,13.37,12.92L816.91,951l-174.5,108.66,8,9.9,146.15-14.77L840,1081.86l96.4,71,106.34,23.26,24.72-20.11s99,19.13,100.52,20.11,49-43.13,49-43.13ZM981.77,884.56s-.53-14.52-3.45-20.13-28.47-23.6-28.47-23.6l-3.42-1.9-6.75,15.66L975.88,891Z" fill="#111"/></g><g id="Outline"><path d="M444.64,688.88c1,1.87,1.76,3.36,5.85,5.09,5.29,1.63,8.32,5.65,14.23.5.76-.67,9.18-20.33,12.34-29.37.7-2-.29-5.63-1.84-7.24-8.08-8.43-18.3-6.44-22.84,4.09-.21.49-5.44,14.56-8.12,21.84A6.17,6.17,0,0,0,444.64,688.88Zm-18.74-2.17c1.37.37,2.74.77,4.12,1.06,4.89,1,9-.68,10.86-5.09,3.7-8.67,6.88-17.57,10-26.48a7,7,0,0,0-3.72-8.69,56.27,56.27,0,0,0-9-2.66,9.22,9.22,0,0,0-4-.11c-4.21.84-5.89,2.91-7.69,8.31q-3.18,9.54-7.12,18.79C416.06,679.56,418.17,684.59,425.9,686.71Zm800.89,406a20.55,20.55,0,0,0-1.68-7.23c-.64-1.6-2.23-2.79-3.22-4.28-8.5-12.88-16.55-26.07-25.55-38.59-10.61-14.75-21.2-29.66-33.31-43.15-14.17-15.78-24.42-33.45-33-52.66-4.32-9.7-7.27-20.76-17-27.4-2.32-1.59-4.37-3.58-6.51-5.35,5.74-8.15,5.75-9.33-.31-16.79-8.31-10.23-16.63-20.45-25.06-30.57-6-7.22-11.57-15-18.47-21.26-10.24-9.32-21.45-17.59-32.33-26.2-2.54-2-2.76-4.08-1.69-6.94,1.87-5,3.36-10.17,5.18-15.21,2.91-8,4.71-16.78,9.19-23.82,11.88-18.6,24.36-36.9,37.8-54.4a17,17,0,0,0-4.56-24.54c-15-9.4-29.92-19-44.9-28.51-32.26-20.47-64.58-40.85-96.77-61.44-3.66-2.35-7.15-4-11.52-3.43-13,1.7-26,3.58-39.09,4.94-5.63.59-11.45,3.93-17-.79-8-6.76-16.24-13.2-24.31-19.87-3.06-2.53-33-26.72-39.16-31.4Q783,538.25,763,521.89a30.35,30.35,0,0,1-8.34-10c-1.93-4.1-2.09-9-3.1-13.57-3.44-15.56-6.65-31.19-10.5-46.65-1.8-7.23-2.43-15-10.58-19.52C713,422.38,696,411.68,678.68,401.58c-3.52-2-6.69-1.37-8.79,3-6.58,13.53-13.44,26.92-20,39.94-9.51-4.65-18.46-8.93-27.32-13.4q-51.79-26.15-103.54-52.39c-11-5.58-21.93-11.35-33-16.89-9.39-4.73-18.88-9.25-28.32-13.87-7-3.44-14.09-6.8-21.06-10.35-10.87-5.54-21.54-11.51-32.58-16.67a26.61,26.61,0,0,0-12.48-2.06c-5.91.37-8.22,5.36-10.65,10.18-1.93,3.84-2,6.45,1.42,9.47,4.58,4,8.81,8.51,13,13,13.28,14.24,26.46,28.57,39.68,42.86,2.72,2.94,5.34,6,8.13,8.82,6.81,7,13,14.8,20.69,20.74,12.44,9.68,25.89,18.06,38.82,27.13q31.75,22.28,63.37,44.72,22,15.54,43.8,31.14c-1.55,7.26-1.55,7.25-7.2,3.69-.61-.39-44.05-23.32-65-34.79-23.55-12.92-46.81-26.39-70.44-39.18-3-1.63-8.34-2.1-11.12-.52-23.28,13.32-46.24,27.19-69.21,41-3.27,2-5.78,2-8.95-.26Q352.57,478.77,326.85,461c-13.31-9.15-26.84-18-40.18-27.08q-21.57-14.74-42.94-29.74c-3.47-2.42-6.15-1.58-8.34,1.59-2.34,3.39-5,6.7-6.57,10.45-1.28,3-2.12,6.86-1.5,10,2.27,11.55,5.4,22.92,7.87,34.44S239.46,484,242,495.52c5.28,23.77,11,47.44,16.3,71.19,3.56,15.91,6.62,31.93,10.18,47.83,3,13.57,6.48,27.06,9.86,41.06a79.67,79.67,0,0,0-8-3.53c-3.85-1.21-8-1.33-10.09,2.78-1.85,3.6-1.45,7.38,2.23,10.16,9.47,7.16,18.77,14.56,28.47,21.42,2.79,2,3.81,3.83,3.77,7-.14,10.27-.18,20.54.06,30.8a10.61,10.61,0,0,0,2.47,6.13c2.09,2.44,4.82,4.35,7.35,6.4,13.31,10.78,26.54,21.68,40,32.21,3.68,2.86,8.22,6.3,12.42,6.39,5.82.11,11.69-2.76,17.56-4.23,4.71-1.17,9.46-2.17,12.35-2.83,3,6.49,4.7,12.24,8,16.83,7.67,10.67,16.14,20.76,24.23,31.12,1.87,2.4,3.13,5.44,5.38,7.35,6.74,5.73,13.7,11.23,20.85,16.43,2.19,1.59,5.29,1.95,8,2.89,1.32.46,2.83.68,3.88,1.49,9.88,7.58,19.68,15.25,29.46,22.88-11.46,14-22,27.12-32.68,40C437.59,927.28,421,947.07,404.49,967a38,38,0,0,0-4.28,6.2c-4.29,8.07-2.45,12,7.21,19.33,11.19,8.51,22,17.51,32.89,26.4,12.87,10.51,25.73,21,38.42,31.76,3.73,3.16,7,6.63,11.06,9.64,18,13.31,34.69,28.3,52.09,42.4,7.85,6.36,16.8,9.56,26.55,4.29,12.42-6.71,24.69-13.7,36.85-20.85,12.36-7.28,24.5-14.91,37.09-22.59,5.08,5.66,10.58,8.08,17.51,7.17,4.84-.64,9.75-.75,14.62-1.15,9-.74,18-1.45,27.06-2.28,15.29-1.4,30.58-2.94,45.88-4.29,10.1-.9,20.22-1.62,30.34-2.33,6.4-.45,27.54-1.48,35.17,3.3,8.23,5.15,35.12,23.31,36.53,24.33q17.24,12.53,34.18,25.44c12.91,9.79,25.69,19.75,38.61,29.52,4.56,3.46,8.94,8,14.15,9.59,10.37,3.19,21.24,4.83,32,6.86,21.83,4.14,43.82,7.59,65.51,12.41,9.81,2.18,17.55,2,23.74-6.81,2.27-3.22,5.55-4.07,9.59-2.33,6.56,2.84,13.37,5.13,20,7.81,20.73,8.39,41.33,17.08,62.18,25.14,5.77,2.22,12.68,3.53,18-1.05,8.29-7.12,15.87-15.08,23.91-22.5,4.1-3.8,9.07-6.76,12.74-10.9,6.7-7.56,17.09-12.33,18.64-23.92.31-2.31.91-4.58,1.21-6.89.85-6.42,1.83-12.83,2.34-19.27C1226.72,1105.18,1226.85,1098.94,1226.79,1092.72Zm-63.64-78.25c2.2,2.33,1.88,4-.31,5.89-9.63,8.47-19.12,17.11-29,25.33-1.31,1.1-5,1-6.47-.06-3.94-2.81-7.29-6.45-11.43-10.27l37.38-32.38C1156.62,1006.85,1159.71,1010.82,1163.15,1014.47Zm-36.93-45.66c5.56,6.87,11.37,13.54,16.93,20.41.72.89,1.28,3.08.79,3.58-6.44,6.62-12.8,13.37-19.76,19.42-5.75,5-12.27,9.09-18.73,13.79-15-13.14-29.67-26-44.7-39.22l48-40.19C1114.87,954.44,1120.45,961.7,1126.22,968.81Zm-106,59.37c1.23,1.19,2.86,2.49,2.13,3.66-4.43,7.11-.27,13.63,1.7,20.2.82,2.76,2.73,5.26-.57,7.84-.69.54-.55,2.84-.07,4,2.25,5.58,3.7,9.38,6.27,16,.65,1.66,5.41,2.75,6.42,5.77,1.23,3.7,2.88,8.29,4.4,12.38-14.49-5.78-13-5.41-16.42-15.66-4.34-13.05-8.8-26.09-13.21-39.13-2.76-8.2-.71-15.75,2.67-23.45,5.68-12.94,10.38-26.31,16-39.27,4-9.09,8.54-11.38,20.47-10.3,1,.09,2.07.25,3.11.4a1.26,1.26,0,0,1,.65,2.2,63.24,63.24,0,0,0-7.48,6.9c-3,3.52-6,7.37-7.72,11.59-1.2,2.91-2.57,3.84-5.11,3.37-4.66-.85-5.83,1.4-7.11,5.08-2.46,7.09-5.44,14.75-8.12,21.76C1017.09,1024.57,1017.48,1025.56,1020.21,1028.18Zm21.12-142.46,3.79-3c1.88-1.32,2.29-2.69,1.74-3.49l-.3-.45c-6-9.16-4.72-7.83,8.82-19.24-1,5.15-1.23,10.24,2,15.77,6.23,7.33,12.18,14.32,18.36,21.57L1059.51,910c-3.27-3.7-6.7-7.32-9.8-11.19-3.84-4.78-8.67-5.76-13.19-1.68-3.27,3.05-15,11.45-16.2,12.57-6.82,6.22-7.14,10-.92,17.24,7.44,8.68,8.05,9.5-.53,15.9-11,8.24-14.57,19.87-18.12,32-1.12,3.84-.14,6.51,2.1,9.18,4.06,4.85,8.19,9.65,12.28,14.45-2.8,7.3-5.51,14.39-8.56,22.36-6.66-8.42-14.91-14.67-14.72-26.56.12-7.69-2.33-15.42-3.34-23.13-1.32-10-2.76-19.95-4.73-29.83-.82-4.13-1.19-8.37-2.14-12.46-1.55-6.67,1.07-10.71,7.12-15.45,4.35-3.41,8.19-6.22,12.23-9.62.91,1.3,4.89,7.69,9.16,5.84C1029.33,895.2,1034.48,891,1041.33,885.72Zm-27.54,8.37c4.2-3.38,8.67-7.41,13.15-10.34,1.26-.83,2-1.61,3.76.81,1.1,1.48.91,2.21.21,3l-14.5,11.57C1015.65,897.21,1014.56,896,1013.79,894.09Zm53.54,25.74c-1.31-1.47-2.47-3.07-3.88-4.84,4.9-4.09,9.55-8.09,14.38-11.85.62-.48,2.67-.07,3.32.62,4.07,4.38,7.94,9,12,13.59-15.41,12.84-30.76,25.7-46.2,38.44-4.29,3.54-8.91,6.67-13.31,10.08-8.57,6.62-12.55,16-15.47,26.16-3.14-3.63-6.15-7.2-9.27-10.67-2-2.18-2.12-4-1.27-7.17,2-7.32,3.6-12.65,7.17-17.69,4.18-5.88,10.4-10.3,16-15.61,2.51,3.14,4.25,7.08,7.21,8.51s7.92,1.64,10.51,0c6.51-4.1,12.26-9.44,18.16-14.46S1072.62,925.83,1067.33,919.83Zm-73.07,109.9-18.83,6.79-15.28-18.59,19.13-6.69ZM981.66,1041c5.51-2,11.2-3.6,16.59-5.91,4-1.71,5.1,0,5.94,3.39,1.18,4.71,13.87,45.15,16.2,52-27.2-11.3-55.94-18.74-82.65-32.57-1.84-.86,2.89-2.26,3.7-2.6h0c.06,0,.74-.29,1-.38C951.17,1051.72,974.14,1043.74,981.66,1041Zm-22.95,1.53c-3.58,1.21-22.89,8.13-25.91,9.53-1.72.8-3.86,2.33-4.25,3.91-.31,1.28,1.39,3.55,2.78,4.64a82.83,82.83,0,0,0,8.45,5.3c-2.42,4.15-5,4.93-9.52,1.53q-30.28-23-61.06-45.26c-4.14-3-9.21-5-6.19-12.06,9.69,6.13,19.49,12.29,29.24,18.51q4.08,2.61,8,5.54a9.32,9.32,0,0,0,10,1.38c5.41-2.19,18.49-6.8,24.65-8.84l9.38-3.29,15.11,19Zm-50.83,17.08c14,10.34,28,20.58,42,30.87-8.58-.46-16.55-1.85-23.69-7.81-12.37-10.35-25.74-19.49-38.71-29.12q-20.3-15.09-40.7-30.21c6.43-3.11,8-3.25,13.22.56C876,1035.71,891.88,1047.73,907.88,1059.6Zm21.3,34.3c12,2.3,23.33,4.42,34.63,6.74.9.19,1.76,1.72,2.22,2.81,1.8,4.21,3.44,8.5,5.45,13.56-10-2-19.3-3.32-28.33-5.81-5.84-1.62-14.15-3-14-11.14C929.21,1098.66,929.18,1096.66,929.18,1093.9Zm26.75-9.28c-4.14-3.44-8.52-6.58-13.34-10.28l4.59-4.32q35.21,13,70.37,25.91c7.35,2.72,13,4.57,20.92,7.62,4.19,1.62,8.11,1.87,11.16-.83.87-.77,3.09-2.38,4.15-1.19,2.2,6.88-6.38,11.24-17.42,9-16.68-3.41-33.17-6.62-50.6-9.62C975.05,1099.05,964,1091.3,955.93,1084.62Zm91.84-120c-1.36,0-1.36-.49-.43-1.27l41.94-34.41c2.44-2.18,2.07-.28,1.83,1.26-.52,2.87-.83,6.25-1.76,7-11.87,9.93-20.24,16.82-32.35,26.45C1055.57,964.81,1050.88,964.6,1047.77,964.6Zm63-38.78-13.88,11.39c0-3.55-.07-7.24,0-10.92,0-1.54-.07-3.88.79-4.43,1.52-1,4.06-1.64,5.6-1C1106,921.94,1108.29,924.11,1110.75,925.82Zm-50.69-61.91c.27-4.33,1.65-7.63,3.33-9.32l41.22,50.65c-1.94,3.13-3.56,5.76-5.73,9.28-5.8-6.77-11-12.72-16.07-18.79-6.69-8-13.09-16.31-20-24.15C1060.56,869,1059.85,867.18,1060.06,863.91Zm-1.58-13.8-19.25,15.27c-6.19-7.52-8.25-3.4-16.71,3.39-2.82,2.15.51,5,2.36,8.46l-14.83,11.56c-7.14-6.58-9.18-6.75-14.82-1.14-4.67,4.63-3.92,4,2.54,11-5,4-10.87,8.47-15.77,12.53-5.17,4.28-8.3,8.78-6.74,16.62,3.39,17.08,5.39,34.44,8,51.67.87,5.67,2,11.29,3.09,16.92.64,3.27,0,5.64-3.52,6.83q-29.37,10-58.68,20.15c-5.91,2-11.76,4.21-18.29,6.55l-73.14-47.09c-9.07-7.2-8.34-27.82-5.9-35.73l9,7.69c-1.29,5.63-2,8.79-2.84,14,0,0,28.73,17.91,37.32,23.4,1.16.74,3,1.53,3.93,1.25,8.61-2.65,60.16-20.42,60.78-20.66,7.94-3.11,7.59-9.26,6.4-16.1-2.72-15.75-10.55-59.9-13.15-75.39-.27-1.65,1-6.75,2.22-7.91,3-2.77,6.5-5,10.14-7.69,9.75,8.31,19.5,16.36,28.94,24.76,5.8,5.18,8.9,5.8,15,1.23,6.48-4.85,12.72-10,19.24-14.83,4.52-3.32,21.84-17,24.59-19.21,6.07-4.88,6.78-9.89.56-14.93-9.26-7.51-18.1-15.54-27.72-23.88,2.87-2.33,5.17-5.13,8.11-6.25,1.56-.59,4.52,1.38,6.34,2.83C1029.94,826.79,1044,838.32,1058.48,850.11ZM836.92,924.26c-3.42-2.27-6.44-5.15-10.26-8.28,10.19-.22,14.94,7.06,20.77,11.95,18,15.14,48.4,41.67,55.74,48.28-8.95,3.22-18.33,6.74-26.93,9.65a5.65,5.65,0,0,1-4.21-.65c-10.84-6.65-21.59-13.45-33-20.61,5.29-16.79,3.92-14.5-8.55-22.75,2.77-3.76,5.5-7.09,7.79-10.7C839.82,928.72,840,926.31,836.92,924.26Zm-384.2,60.3c.27,1.62,1.9,3.37,3.24,4.9,2.07,2.33,2.22,2.53-1.24,6.22L440,983.36c4.6-5.62,15.73-18.94,22.77-27.44,17.08-20.69,78.9-95.63,89-107.95l16.89,12.89c-12,14.65-23.83,29.08-35.65,43.53q-17.15,21-34.28,41.93a60.33,60.33,0,0,1-6.83,7.68c-1,.86-3.53,1-4.8.33-9.44-4.8-9.94-3.78-16.89,4-4.5,5.07-5.74,6.13-11,12.87C452.26,980.35,452.26,981.74,452.72,984.56ZM513.13,764.7c-.51-.17-5.83-1.57-12.89-3.08,6.18-16.26,1.59-4.19,8-21L650.45,788c-9.64,22.33-22.06,49-19.79,56.19-3-.77-6.23-2.43-11.2-3.7,2.72-7.69,5-15.21,8.29-23.24,5-12.41,5-11.79-7.55-16.46-5.19-1.93-7.4-1.72-9.18,3.43-3.38,9.78-7,19.48-10.69,29.7l-91.84-31.73c2.91-8.11,6-17.36,9.56-26.41C521.33,767.45,521.56,767.55,513.13,764.7ZM427.77,509.47c7.82,4,13.36,7.22,20.15,10.78-5.15,3.4-10.21,7.12-15.69,10.09-1.68.91-5,.51-6.69-.61-8.46-5.58-16.62-11.6-25.2-17.69l29.84-17.94c3.43-2.34,4.25,2.2-1.64,5.77-1.3.78-2.79,2.71-2.78,4.17C425.77,508,425.55,508.34,427.77,509.47Zm5.46,34.42,34.08,23.63c.54.42.77,1,.23,2-1,1.39-3.18,2.38-6.67,0-10.81-7.54-21.53-15.23-33.05-23.49C426.05,544.56,430.79,542.23,433.23,543.89Zm-4.16,12.7c1.32-2,9.24,4.72,21.42,13.25-.49.9-7.53,8.65-7.94,12.12-.43,3.63,2.75,4.52,6.11,6.93-6.4,9.7-11.64,17.9-18.06,27-.71,1-4.28,1.28-5.54.43-10.11-6.83-20-13.94-29.85-21.17-.86-.63-1.35-3.23-.78-4.1,6-9.12,12.23-18.08,17.7-26.06,4,2,7.6,4.79,8.69,3.42A105.83,105.83,0,0,0,429.07,556.59Zm23.87,40.67c3.66-5.31,7.56-10.47,11-15.9,4.87-7.61,10.4-9,17.72-4,3.35,2.31,6.52,4.89,10.24,7.69-10.06,2.86-12.08,9.41-18,18.47-2.76,4.21-4,5.3-8.61,12.37-2.49,3.85-5.22,3.94-8.63,3.69-5.6-.42-11.17-1-17.82-1.69C443.71,610.8,448.3,604,452.94,597.26Zm38.28-24.14a3.45,3.45,0,0,1-3.62,0c-15-10.39-43.2-30.48-50.33-35.72a1.45,1.45,0,0,1,.07-2.4L451,526.13l61.36,31.92C504.9,563.41,498.13,568.37,491.22,573.12Zm29.62-12.51,41.54,33.87c-6.65,5.45-15,8.63-15,19.75-3.56-2.94-46-31.75-52.58-36.2Zm33.28,50.31c2.7-6.7,10.6-9.82,16.61-6.23,3.37,2,6.89,3.75,10.5,5.71-6.23,3.26-11.76,7.14-11.72,15.75-4.35-2.26-8.35-4.48-12.48-6.43S552.46,615,554.12,610.92ZM999.85,743.54c4.4,7.36,8.81,14.71,13.12,22.13,3.17,5.46-.46,10.13-2.27,14.78-2.77,7.09-4.83,14.76-12.2,19.85l-12.89-16.07c4.25-3.43,7.7-6.51,12.3-9.88,2.71-2,4-4.56,2.62-9.47-1.56-5.63-2.46-10-5.68-14.69s-8.47-7.68-12.93-11.32c-6.55-5.35-13.74-10.07-19.57-16.1-3.25-3.36-4.29-8.85-6.35-13.37-4.5-9.84-9-19.68-13.59-29.65,18.93,6.75,31.5,19.62,38.94,37.59C980.47,717.1,999.58,743.09,999.85,743.54ZM971.71,872.73c-8.94-7.29-17.73-14.76-26.16-21.8,2.31-12.94,15.27-21.1,22.11-25.87,4.2-2.93,7.07-4.51,11.6-7.76,10.5,9.46,19,17,29.28,26.4,3.64,3.34,5.25,3.23,8.17-.7l8.71,7c-15.68,12.42-31,24.52-46.6,36.91l-7.19-5.7C975.44,878,975.29,875.65,971.71,872.73Zm-50,15.68c2.07,11.12,11.37,61.57,13.66,74.74-8.15,2.94-15.83,5.89-23.65,8.37a7.36,7.36,0,0,1-5.92-1.07c-8.14-6.63-15.85-13.78-24-20.39a13.11,13.11,0,0,1-2-2c-11.12-9.95-29.59-26.69-36.26-32.56,4.51-2.57,23.08-14,27-16.2,16.06-9.69,54.55-34.71,59.21-38,5.43-3.8,7.63-1.16,6.13-.07-2.83,2.12-5.64,4.26-8.48,6.37C920,873.05,920.26,880.42,921.74,888.41Zm12.38-37.1a54.15,54.15,0,0,0-6.06-10.43,44.5,44.5,0,0,0-6.84-7.68l59.06-44.86c3.23,3.81,5.2,5.81,8.63,10.55,1.52,2.1,2,6.45,1.85,7.89-.37,3.25-5.15,6.68-9.91,4.56-2.53-1.13-10.12,4.29-14.38,7.2a194.15,194.15,0,0,0-19,14.94,20.07,20.07,0,0,0-6.08,8.76C940.43,845.28,939.61,846.93,934.12,851.31ZM666.87,816.55c-7.1-2.28-8.66-1.67-11.12,4.91-3.37,9-6.6,18.1-10,27.47-5.35.93-10.67-4.23-8.61-9.84,6-16.38,12.49-32.6,19.1-49.67,12,4.45,23.57,9,35.35,13,2.09.72,4.83-.47,8.23-.9,8.26,22.91,16.85,46.73,25.45,70.6a3,3,0,0,1-3.75,3.82l-56.65-19.24c2.81-7.83,5.64-16.56,9-25.06C678.49,820.25,678.68,820.33,666.87,816.55ZM659.3,716.48c-6-4.21-12.3-8-18.31-12.24-1.25-.88-3.38-2.38-2.54-3.91s2.83-3.32,4.53-3.55c15.31-2,46.4-5.62,46.56-5.64,11.32-1.64,13.64,1.1,20.54,5.26,10.58,6.38,21.76,14.07,21.76,14.07-2.6,9.46-4.5,16.53-6.51,23.56a97.78,97.78,0,0,1-3.91,12.19,27.3,27.3,0,0,1-5.3,7.72c-.62.65-3.32.16-4.48-.65C694.14,741.09,676.77,728.71,659.3,716.48Zm49.94,45.31c-5,5.86-9.94,11.16-14.18,17-3.11,4.29-6.89,2.21-10.44,1.1-13-4.09-58.6-19.1-68.49-22.54-4.36-1.52-8.91-3.6-14.67-5.19,4.24-6.26,16.54-23.61,17.12-24.5,1.86-2.86,4-5.51,5.94-8.35,1.4-2.1,7.41-10.81,7.84-11.2Zm-24.12-77.34c-7.12.93-32.12,4.12-41.1,5-6.73.7-10.63,6.25-13.56,10.35-11.56,16.19-22.68,32-33.91,48.4-3.37,4.93-3.44,8.22,2.16,10.11,24.65,8.35,80.55,26.66,83.78,27.69,13.22,4.26,12,4.42,21.28-5.58,8-8.59,15.6-17.56,23.38-26.37.51.34,10.42,3.93,10.93,4.26,0,2.67-4.1,6.27-6.24,8.65-8.73,9.75-16.24,15.56-24.9,25.37-2.52,2.86-10.8,4.28-13.77,3.28-27.28-9.21-58.79-19.93-86.08-29.12-8-2.67-16-5-24.91-7.78,12.77-18.17,25.08-35.6,37.28-53.11,4.1-5.88,7.81-12,11.88-17.92,2-3,4.22-5.34,8.65-5.58,6.75-.36,37.61-6.31,44.7-7.47C691.51,673.45,692.61,683.71,685.12,684.45ZM715.21,825.8c-2.66-7-5.07-14.12-7.32-21.28a5,5,0,0,1,.79-4.19c10.73-11.16,29.83-30.52,33.77-34.51s5-5.17,8.52-5.33c9.94-.44,19.85-1.4,29.77-2.29,1.71-.16,3.37-1,5.59-1.7,10.15,8.74,20,18.56,31.26,26.53,10.47,7.43,9.29,17,8.26,27.14-.38,3.75-1,7.48-1.59,12-5.45.3-11.17.67-16.89.94-16,.76-32,1.33-47.93,2.26-13.53.78-27,2-40.56,2.85A4.76,4.76,0,0,1,715.21,825.8ZM838.36,708.73c.74,3.31-1.33,6.61-6.65,2.9-10.56-7.36-16.55-5-23.08,1.85-3.37,3.55-7.09,6.94-9.69,11a28.94,28.94,0,0,0-4.61,12.27c-.4,4.18-1.81,6.5-4.92,9.27-8.51,7.59-18.89,7.41-28.94,7.82-9.79.39-16.06-.4-19.32-1.8,1.08-3.65,9.92-33.71,12.74-37.53a130,130,0,0,1,14.73-17c5.37-5.14,11.6-9.38,17.44-14,6.86-5.48,14.09-9.27,23.44-9.23,3.44,0,7.26-3.58,10.26-6.26,4.06-3.65,5.45-4.53,11.09-.64,7.79,5.26,12.68,8.15,21.19,14-1.9,2.53-3.84,5-5.67,7.58C842.11,694.86,836.58,700.71,838.36,708.73Zm-2.15,16.65c-2.7,2.13-7,5-9.32,7.42-2.07,2.11-5.5,6.42-7.32,8.8-5.92,7.77-9.78,11.63-16.24,20L792.17,752c3.15-2.71,6.84-5.14,9.57-8.38,5.29-6.26,10-13,15-19.52a10.59,10.59,0,0,1,1.16-1.16C825.51,715.73,828.68,717.11,836.21,725.38ZM808,765.74c4.47-5,15.22-19.94,19.55-24.78,3.44-4.26,7.28-6.46,11.33-9.1,1.44-.94,4.63-1.14,5.82-.18,6.46,5.17,12.53,10.8,18.36,16-2.22,2.49-4.3,4-7.48,7.57a38.78,38.78,0,0,0-4.63,6.33,71.13,71.13,0,0,1-20.29,21.07,4.5,4.5,0,0,1-4.16-.33C820.05,776.73,813.8,771,808,765.74Zm25.89,26.42c.32-2.3,3.08-4.67,5.1-6.22,13-10,13-14.33,17.63-20.46,3.83-5.09,8-9.65,11.19-10.59,1.4-.41,4.18,1,5.81,2.35,4.2,3.51,8.84,7.8,13,11.43,2.37,2.09,6.48-1.94,4.3-4.06-3-2.93-6-5.84-9.84-9.38,3-2.5,5.53-4,7.35-6.16,5-5.79,9.82-13.63,14.91-19.29a62.54,62.54,0,0,1,11-10.32c3.18,3.33,10.62,11.94,15.51,16.46,2.41,2.23,7.56-1.72,5.09-4.22-2.8-2.84-5.66-5.69-8.51-8.43,2.82-4,6.37-4.65,13.43-2.17,21.2,7.44,46.29,29,48,30.54,4.54,4.12,6,7.24,6.88,14.9.11,1-1.25,2.82-2.29,3.58-9.53,7-82,63.11-89.15,68.83a53,53,0,0,1-26.94,10.94c-11.78,1.19-20.06-3.3-27.72-11.12-4.58-4.67-9.71-8.8-14.32-13.43-1.41-1.42-2.8-3.76-2.71-5.61C832,810.52,832.65,801.29,833.91,792.16Zm119.54-73c-22.43-4.55-37-20.27-52.52-33.49,1.33-3.47,2.56-6.69,4-10.5,1.88-4.43,12.51-6.23,18.31-7.47,2.77-.49,8.45,3.76,10.46,8.42C940,690.51,946.79,704.69,953.45,719.12ZM908,715.72c.87.72.52.92-2.78,3.9-8,7.22-11.69,12-17.35,19.94-3,4.27-6.69,7.27-11.64,10.66l-21.87-18.89c5.7-6.84,10.92-13.45,16.53-19.72,4.63-5.17,9.72-9.94,14.51-14.79Zm-43.87-7.36c-4.68,6.23-9.44,12.41-14.37,18.87L840,719.06c7.12-8.87,13.55-17.69,20.83-25.74,8.1-8.94,9.63-7.48,19.86-.82C873.65,697.37,865.62,706.4,864.14,708.36Zm-16.9-37.65C834.48,662.28,821.61,655,808.57,647c-3.06-1.89-6.88-4.76-10-6.54a81.68,81.68,0,0,1-8.92-5.4c-4.56-1.9,0-6.35,4.68-5.22,25.46,13.31,54.73,27.57,80,40.79C866.85,675.05,859.77,679,847.24,670.71ZM856,638.83c-16.89-11.65-32-20.52-48-31.57-3.44-2.2,0-3.64,1.66-3.2,4.85,1.43,10.08,2.46,14.21,5.08,9.91,6.27,13.42,8.7,24,15.72C852.27,627.77,862.61,643.29,856,638.83Zm-5.52,9.49a1,1,0,0,1-1,1.68c-2.36-1.1-4.72-2.23-7-3.46-13-6.93-25.75-14.15-38.78-20.94-18.16-9.47-36.57-18.48-54.71-28-22-11.53-44.14-22.82-65.59-35.3-12.82-7.45-38.4-25.86-39.38-26.55,2.16-4.29,4.51-9.76,6.43-13.56,9.16,7.79,20.92,10.86,31.3,11.71a11.9,11.9,0,0,1,5.56,1.68c18.32,12.63,36.5,25.44,54.79,38.1,15.24,10.55,30.58,20.93,45.84,31.45Q819.23,626.69,850.46,648.32Zm-198.09-85c-1.58,1.33-3.79,3.24-5.55,4.71l-16-8.19C638.21,554.74,639.29,555.15,652.37,563.33Zm-13.08,9.14C629,579.17,619,585.68,609,592.21c-5.7,3.72-11.44,7.39-17,11.24-3.59,2.47-6.88,2.47-10.47,0-3.07-2.11-6.37-3.88-9.49-5.76,9.41-6.9,47-31.28,51.3-33.89C628.51,566.42,635.62,570.17,639.29,572.47Zm-60.69,48c5.9-5.31,19.92-13.12,19.92-13.12,5.12-3.49,10.17-7.08,15.35-10.46,13.35-8.71,27.11-16.86,40-26.22,5.26-3.83,9.27-2.13,13.36-.07,18.62,9.4,37.06,19.17,55.55,28.82,3.14,1.64,6.27,3.29,10.19,5.36-6.78,4.65-13,9-19.37,13.29C694.85,630.68,675.9,643,657.47,656c-3.84,2.71-6,7.94-8.58,12.23-1.29,2.14-2.1,3.34-4.52,1.43-2.11-1.65-4.29-3.64-6.75-4.31-2.86-.77-6.08-.38-9.13-.3-1.79.05-3.85,1.19-5.29.61a65.51,65.51,0,0,1-9.89-5.4c-4.37-2.71-8.89-5.4-10.16-11-1.49-6.49-7.87-7.46-12.2-10.65a58.25,58.25,0,0,0-10.87-5.85C574.08,630.05,573,625.59,578.6,620.5Zm2.24,26.93,12.35,8.35c6.66,5.23,18.85,13.54,30.4,21l4.8,3.84c-9.23,13.64-18.51,27.46-27.92,41.21-7.09,10.37-14.21,20.72-21.66,30.83-1,1.31-4.21,2-6,1.48-8.58-2.44-45.3-15.27-46.87-15.79C539.35,699.3,562.05,678.47,580.84,647.43ZM536.68,818.7c15.52,5.53,30.94,11.39,46.69,16.12s26.07,16.76,39,25.26c10,6.6,19.37,14.27,29,21.44,2.6,1.92,4.3,4,4.18,7.63-.3,9.15-.1,18.31-.1,29-6.58-4.91-10.27-7.85-18-13.31-4.74-3.32-7.43-6.87-6.11-12.52,2-8.57-3.23-13-9.18-17.28-6.86-4.92-13.55-10.07-20.48-14.88a7.81,7.81,0,0,0-5.14-.83c-4.06.62-8,2.09-12.08,2.41-2.07.16-4.59-1-6.36-2.27-11.85-8.75-17.3-13.12-31.44-24.52-3.49-2.81-10-8.8-12.73-12.48A2.45,2.45,0,0,1,536.68,818.7Zm70,72.87c-3.79-2.75-3.45-2.57-7.31-5.22s-8.13-4.6-12.1.36c-.33.41-2.59,3.65-3.83,5L564.17,877l9.8-12.52c7.86,5.73,11,5.38,17.58,3,3.85-1.41,7.93-1.32,11.75,2,5.94,5.21,12.64,9.53,18.79,14.52,1.36,1.1,2.65,3.54,2.43,5.15-1.4,10.19,2.08,16.75,11,22.85,10.35,7.06,17.56,13,26.32,19.59-1.8,1.48-3.42,2.9-5.14,4.18-6.81,5-8.88,5.17-16-.18q-16.2-12.12-32-24.77c-.83-.67-1.41-2.19-.06-4.79C612.13,899.21,612.84,896.07,606.63,891.57ZM462.75,999.07c1.05-2.53,3-1.61,4.75-.32,3.13,2.35,6,5.71,9.51,6.77,6.87,2.06,9.71-4.36,13.33-8.35,4.48-4.92,8.3-10.43,12.7-15.44,4-4.6,4.2-10.48-.27-14.76-2.47-2.36-5.21-4.45-7.78-6.63l65-78.59,19.62,15a74.48,74.48,0,0,0-5.51,8.1c-2.34,3.9.9,6.5,2.45,7.69,4.83,3.72,5.45,4.72,11.78,8.64,3.23,2,5.38,1.32,7.68-1,5.68-5.61,6.14-5.19,12.51-.56q14.15,10.29,28.22,20.71a23.61,23.61,0,0,1,2.88,3c-10.79,6.58-93.85,56.55-107.14,64.54q-17.94,10.77-35.91,21.6c-10.88-8.62-21.91-17.26-32.78-26.11A4.78,4.78,0,0,1,462.75,999.07Zm82.69,11c10-5.94,19.83-12.12,29.78-18.13q28.93-17.49,57.94-34.92c9.84-5.9,20-11.33,29.49-17.74,4.48-3,6.63-3.08,10.8.72,1.16,1.06,1.79,1.75,3.83,3.85-7.82,4.68-123.13,72.3-145.31,85.71-6,3.62-12,7.2-18.21,10.42-1.35.71-3.75.32-5.24-.43-1.81-.91-3.17-2.73-5.27-4.66C517.47,1026.55,531.5,1018.39,545.44,1010.08Zm25.25,6.25q34.3-20.76,68.67-41.4c2.5-1.49,37.15-22.83,42.11-25.26a5.3,5.3,0,0,1,4.57.45c12.53,9.36,24.92,18.91,37.79,28.75C705,990.25,686.46,1001.4,668,1012.65q-25.76,15.66-51.42,31.48c-18.49,11.37-36.93,22.83-55.51,34.06a5.73,5.73,0,0,1-5.24-.28c-12.38-9.88-24.55-20-37.71-30.81C529.58,1040.33,569.88,1016.82,570.69,1016.33Zm96.45-89.64a8.45,8.45,0,0,1-2.74-5.57c-.27-10.23-.14-20.49.06-30.71.15-7.73-.08-7.4-6.61-12.14-9.2-6.68-30.22-22.2-35.51-26,0,0,0,0,0,0-4.62-3.41-2.83-5.2,4.4-2.53,2.94,1.09,98.71,33.27,190.17,64.79-3.9,5-8.71,11.39-12.57,16.29-.2-.47-60,37.77-70,43.64-1.33.78-4,.44-5.45-.35C726.52,972.84,677.22,934.84,667.14,926.69Zm87.09-39.83c-6-1.83-12.1-3.28-17.87-5.61-2.08-.85-4.08-3.52-4.83-5.79-3.48-10.48-6.47-21.13-9.71-31.69-.94-3.07-2.12-6.07-3.41-9.74,17-.71,89.61-4.86,96.47-5.39,8.69-.68,14.13,2.67,19.64,8,4.84,4.66,9.88,9.13,14.79,13.74,4.51,4.23,13.27,6.11,19.9,6.88,9.35,1.08,22-2.65,34.9-10.68,4.24-2.63,8-6.11,12.71-9.85,3.19,4.07,6.46,7.77,9.18,11.83,2.32,3.46,1.34,6.87-2.06,9.17-12.18,8.23-24.28,16.61-36.73,24.42-13.52,8.48-27.61,16.06-41,24.7-7,4.48-13.59,4.09-20.79,1.88Q789.82,897.74,754.23,886.86Zm279.55-112c-4.2,7.65-8.49,15.52-20,14.47,3.17-7.07,6.33-14,9.43-21,1.29-2.89,3-4.68,6.14-2.33C1032.35,768.16,1036.27,770.27,1033.78,774.82Zm44.1-63a15.29,15.29,0,0,1-2.05,3.41c-7.36,9.93-28.79,41.1-35.86,51.33l-10.12-8c8.23-11.29,41.25-57.64,41.83-58.58C1079.15,704.46,1079.87,707.35,1077.88,711.8Zm-14.4-14.43c-16.62,23.89-37.76,55.1-38.77,56.13-1.32,1.36-3.07,3.34-4.56,3.28-3.39-.13-5.6-1.88-7.74-5.36-1.73-2.84-21.7-34.33-22.33-35.49.85-.77,30.78-40.18,33.67-43.69ZM1011.13,676c-8.75,11.11-17.38,22.31-25.73,33-9-6.48-4-12.78.46-18.52,7.4-9.39,15.31-18.38,23-27.54C1017.28,668.34,1017.2,668.28,1011.13,676Zm-39.24-28.84c2.34-.54,9.5-1.86,9.5-1.86l20.52,13.23c-4.71,6.26-9.37,12.47-14.08,18.64-.28.36-11.75,14.08-12,15.35-12-9.56-56.38-46.8-58.9-47.83,7.44-1.48,13.9-3.29,20.45-3.82,2.51-.2,5.56,2.12,7.82,4C954.37,652.2,961.88,649.43,971.89,647.14Zm-44.62-39c0,.35,11.56,8.89,22.56,16.22-4.77.76-28.82-.2-23.73,5.67l5,6.12c-6.11.76-9.38.63-15.37,1.6-4.29.69-8.42-2.39-12.87-6.91-1.07-1.09-12.59-12-17.83-17.39C894.9,612,918,609.38,927.27,608.09ZM912.89,661c-21,8.31-22.19,8.59-25.76,6.65-3.75-2-12.58-7.06-12.58-7.06,14.92-5,23.7-5.53,21.38-8-12.83-13.75-27.31-29.25-41.56-41.28-6.28-5.3-15.87-14.09-21.6-13.75-22.82,1.36-37.75,2-40.56,0-26.26-18.75-32.36-23.21-57.32-40.63,3.86.76,63.3,7.27,67.17,7.31C808.4,564.3,885,623.33,912.89,661ZM682.62,411.33c10,6,40.13,23.57,40.13,23.57,3,1.68,10.21,5.71,11.3,12.23.08,0,11.93,53.3,13.4,59.71.39,1.7.76,3.41,1.34,6-5.29-3.4-14.95-9.36-18.42-11.59A34.34,34.34,0,0,0,733,487.11c0-.94-8-38.06-7.42-35.36-1.41-5.72-3.59-9.76-9.09-13.58-10-6-26-15.64-36-21.66C680.8,416,682.3,411.87,682.62,411.33Zm-9.38,18.51c4.82-8.51,5-8.27,13.75-2.8,8.49,5.31,17.14,10.35,25.7,15.54a17.67,17.67,0,0,1,1.65,1.29,14.86,14.86,0,0,1,4.87,8.15c2.13,9.74,5.83,24.56,6.72,27.79,2.32,8.38,2.61,10.64.42,18.55-6.52-4.45-53-35.88-65.58-44.41C664.93,445.84,668.8,437.68,673.24,429.84Zm-36.56,17.29C663.46,465,769.8,533.93,795.5,555.82c4.25,3.62-6.68.62-7.78.77-.16,0-43.51-4.64-61.12-6-5.24-.41-29.69-18.87-30.63-19.49-6.66-4.38-11.15-4.56-17.64-4.94-4.62-.27-13.2-2.69-17.56-5.4S636.42,504,636.42,504s5.2-7.49,9.23-8.28,7.1-1.75,14.05,1.13,5.43-8.1,4.63-10.83c-1.21-4.11-3.56-17.87-29.47-33.34a95,95,0,0,0-22-9.46s-9.24-10.82-11.4-12.65S609.91,429.26,636.68,447.13Zm-19.51,29c-4.95,2.66-8,5-10.08,8.52l-35-23.84c4.25-7.91,8.94-9.33,15.74-4.76C596.19,461.6,612.69,472.82,617.17,476.09ZM588.3,449c7.7-4.25,22-1,41,7.19,11.39,4.88,26.09,20.38,20.56,20.38-4.2-.64-24.6-4.05-27.86-6C621.14,470,595.24,454.55,588.3,449Zm26.64,37.12c4.29-4.87,13.1-7.28,21-5.93,6.6,1.13,14.1,2.73,17.42,3.7,4.22,1.28,8.32,7.58,1.65,5.71-15.58-2.59-18.57,3.91-25.86,10.47-4.83-3.26-9.76-6.44-14.43-10A3,3,0,0,1,614.94,486.11Zm-13.48-44.47c-15,0-31.86,2.29-34.27,15-8.07-5.45-27.43-18.75-34.24-23.12-3.36-2.16-6.25-4.27-2.55-5.08,1.5-.32,30.8-7.9,32-8.24C571.1,417.65,582.18,424.73,601.46,441.64Zm-46.53-27.83c.14.52-31.48,6.84-33.73,9.34-1.31-1-22.41-16-25.67-18.45C500.23,403.33,554.93,410.88,554.93,413.81ZM431.73,346.2c1.7.55,112.2,57,109.63,58.5C516,399.56,493,399,490,398.63c-4.24-.53-13.06-9.16-12.93-14.3C477.1,377.48,418.76,342.16,431.73,346.2Zm84.32,86.5c-1.21,2.94-4.41,7.86-6.4,11.21-6.12-4.27-28.66-19.09-35.07-23.37A120.36,120.36,0,0,1,463,409.81c-7.39-7.48-17-17.9-24.2-25.57-14.11-15-28.09-31.32-42.62-45.93-2.34-2.35.41-4,2.54-2.35,6.72,4.54,13.47,9,20.14,13.62,14,9.69,28,19.39,41.92,29.27,2.15,1.53,4.85,3.94,5.09,6.18,1,9.19,7.45,14.52,16.93,21.83,8.63,5.86,22.41,15,32,21.55A4.63,4.63,0,0,1,516.05,432.7ZM516.2,448c1.79-3.6,4.69-9.1,6.95-13.64l121,84.08c-2.15,4.2-5.61,9.33-7.81,13.62C595.85,503.74,556.26,476.11,516.2,448ZM581,526.32c4.14,2.13,44.46,23.83,48.33,25.37-6.49,7.53-13.73,4.85-21.44,2-12.85-4.71-25.91-8.86-39-13a57.13,57.13,0,0,0-9.29-1.65,1.28,1.28,0,0,1-.49-2.37c5.83-3.55,11.63-7.16,17.56-10.53A5.32,5.32,0,0,1,581,526.32Zm-63.12-34.66c16.31,8.94,48.83,26.86,53.73,29.38-6.69,4.45-11.66,7.93-18.56,12-1.76,1-5.58-1.13-8.07-2.51-17.49-9.7-34.89-19.57-52.82-29.68,6.23-3.53,11.78-7.16,17.75-9.84C512.08,490,515.7,490.46,517.89,491.66Zm-35.75-19.75c7.55,4.72,15.56,8.71,23.65,13.17l-24.21,15.59c-1.74-1.2-14.07-8.64-21-12.56-4.09-2.32-7.85-1.78-12.68.39-5.8,2.62-9.65.61-7.25-.55,8.47-5,17.24-9.57,25.3-15.16C471.57,468.89,476.23,468.21,482.14,471.91Zm-28.49-7.15c7.3-4.28,7.4-4.1,13.86-.33-6.41,3.81-12.56,7.41-18.66,11.1-17.42,10.53-32.13,19.43-49.52,30-4.23,2.58-9.17-.3-10.91-2.1C410.16,490.54,431.86,477.57,453.65,464.76ZM350,486.12c16.79,11.42,57.53,39.71,76.47,52.81-7.15.13-9.26,3.2-10.86,5.65-9.45,14.37-20.54,31.72-29,44.31-9.41-6.44-18.78-12.65-27.92-19.17-10.23-7.31-20.3-14.84-30.32-22.43a9,9,0,0,1-2.92-4.48q-3.4-12.37-6.3-24.87a6.45,6.45,0,0,1,.92-4.46q8-12.42,16.39-24.63C338.86,485.4,345.58,483.9,350,486.12Zm-39.63-26.68c9.35,6.38,23.81,16,27.83,18.67-9.89,6-12.9,17.17-19.54,25.52-.34.43-.6.91-1.69,2.61-1.79-6.39-3.35-11.44-4.6-16.57-1.61-6.58-3.3-13.18-4.3-19.87C307.61,466.77,308,463.9,310.36,459.44Zm-70.63-4.59c-1.74-7.87-3.63-14.7-5.36-22.39-2.47-11,1.17-15.73,6.07-21.87,5.93,4.08,53,36.72,65.32,45.33-9.18,9.17-2.68,18.71-.79,27.85,3.34,16.08,12.11,54.14,13.86,62.5l-23.89,11.05c-1.6-6.44-3.24-12.56-4.63-18.72-4.1-18.14-8-36.33-12.36-54.39-.43-1.78-2.88-4.06-6.91-5-1.59-.38-22.37-2.78-26-2.78C243.41,469.89,241.39,462.41,239.73,454.85Zm54.59,208.3c-7-1.43-9.45-5.44-10.88-12.46-2.37-11.65-3.55-16.42-5.35-24.63-4-18.51-8-37-12.09-55.53s-8.41-37-12.61-55.45c-2-8.89-4.09-17.76-5.94-26.68-.9-4.36,1.39-5.62,5.7-5.23a92.62,92.62,0,0,1,15.55,2.34,6.45,6.45,0,0,1,4.62,4.94c2.72,13.29,5.37,26.63,8.24,39.93,2.83,13.08,5.92,26.11,9,39.15.36,1.52.86,3.68,2,4.24,6,3.06,4.87,3.43,6.29,12.32.14.86.55,1.93.24,2.67-3.41,8.24-.75,12.09,3.77,32.66,1.48,6.77,3.1,13.55,4.53,20.35.2,1-.49,2.24-1.08,3.17C302.35,651,298.4,656.94,294.32,663.15Zm50.9,97.25c-6.51-5.16-12.22-9.59-17.83-14.16q-11.46-9.33-22.76-18.87a5.22,5.22,0,0,1-1.9-3.23c-.16-7.85,0-22.77,0-31.64,5.2,3.76,9.53,7,14,10.1,8.55,5.86,17.23,11.55,25.73,17.48,1.28.9,2.67,2.72,2.71,4.16C345.38,733.55,345.22,749.93,345.22,760.4Zm38.11-4.64c-8.18,2.14-19.95,5.75-29.16,8.16.63-10.71,1.16-27,1.7-36.2C367.12,731.28,383.89,749.09,383.33,755.76ZM393.49,647.2c-10.51-8.14-21.27-16-32-23.86-7.94-5.86-15.88-11.74-24-17.35-3.35-2.31-5.51.65-7.17,2.94-3.26,4.49-6.17,9.24-9.24,13.87-2.62,3.94-5.26,7.87-8.61,12.89-2.43-10.65-4.62-20.26-6.83-29.86a47.83,47.83,0,0,1-1.4-7.45c0-1.73,2.59-9.26,2.28-10.76-1.32-6.22-1.16-4.27-3-11.08-1-3.79-3.31-6.13-7.44-8.88.08-.65.16-2.41.24-3.06l27.11-12.94,36.22,26.12c-.16,2.1-.89,2.12-1.6,2-6.37-1.27-7.8,3.7-9.49,5.92-3.45,4.52-4.86,7.43-8.33,12.41-1,1.37.5,4.87,1.5,5.78a98.8,98.8,0,0,0,14.58,10.73c1.34.84,4.57.9,5.73-.59a176.37,176.37,0,0,0,11.65-17.44,4.59,4.59,0,0,0-1.75-6.08,2.64,2.64,0,0,1,.69-4.13c11.76,8.3,26.83,19.43,38.33,28.35,8,6.23,16.1,10.17,26.7,10.84,15.65,1,11.92.75,22.54.6,2.15,0,6.79-1.68,8.11-3.47,6.4-8.66,12.34-17.66,18.52-26.48a9.82,9.82,0,0,1,3.3-3.21c8.74-4.44,6.6-4.77,16.75,2.21-2.85,2-6,3.67-8.3,6.16-1,1.08-.85,4.5.16,5.77,1.62,2,4.4,3.18,6.65,4.74,2.85,2,5,3,8.27-.34,6.36-6.47,8.15-4.82,17.45,1.9,4,3.4,37.82,25.49,44.35,30-6.75,10-31.42,44.63-38.73,55.63-7.87,11.84-10.83,20.82-18,37-11.72-3.87-23.65-7.9-35.63-11.76-14.13-4.55-59.37-17.93-60.42-18.2a89.27,89.27,0,0,1-12.1-4.29,4.6,4.6,0,0,1-2.53-2.9c-.92-8.63-.76-15.43-1.47-24.08-.41-5-.29-12.59-2.32-16.86S397.53,650.32,393.49,647.2ZM484.85,794c-3.1-1.17-6-2.23-8.86-3.34-10.62-3.51-28.73-9.47-34.42-11.59-8.33-3.09-16.66-6.25-24.72-10-3.32-1.54-6.41-2.6-9.14-5.2-5.64-5.4-6-8.82-1-14.5,6.89-7.89,4.73-16.54,4-25.25-.39-5-1-9.95-1.53-15l37,12.14c-3.13,4.1-6.13,12.94-7.45,16.51-1.25,3.37-1.51,5.37,2.95,6.66,8.79,2.54,26.54,8.24,36.44,11.61.94-2.4,1.87-4.83,2.63-6.92.15-.41.3-.82.44-1.22.06-.17.13-.35.18-.51l0,0c1.63-4.51,3.35-9,5.05-13.56,3.56,1,6.5,1.61,9.37,2.51,6.47,2,6.62,2.45,4.12,8.56C497.73,750.27,481.09,784.59,484.85,794Zm44.39,32.21c6.53,6.53,12.52,11.95,17.4,17.26-13.69,16.79-27.17,33.51-40.86,50-7,8.51-14.56,16.61-21.64,25.09s-13.77,17.19-20.71,25.75c-8.76,10.78-17.55,21.55-26.49,32.18-.59.7-3,.76-3.92.14-2-1.47-15.19-11.25-17.42-13.52ZM428.63,988.46c-1.14,2.95-3.21,5.55-5.1,8.61-5.22-4.29-10.4-8.72-15.76-12.9-3.47-2.7-3.6-5.39-1-8.72a67.68,67.68,0,0,0,3.7-5.91c5.86,4.64,11.64,9,17.06,13.69A5.81,5.81,0,0,1,428.63,988.46Zm141.31,111.23c-9,5.81-17,3.68-24.61-2.32-4.61-3.64-13-11.23-20.16-17.45-5.62-4.6-31.45-25.21-37.15-29.86q-20.72-16.9-41.44-33.79c-4.33-3.54-8.65-7.09-12.92-10.69-4.75-4-4.86-7.63-.51-12.34.87-.94,1.65-2,2.6-3.12,23,18.78,56.72,46.94,81.84,67.56h0c2,1.65,4.69,3.81,7.61,6.24h0c8.6,7.13,19.62,16.48,25.47,21.39,4.21,3.54,8.12,3.94,12.77,1,6.34-4,54.87-34,61.49-37.59.9-.49,3.54.69,4.34,1.83,2,2.85,3.45,6.11,5.23,9.42C627,1064.49,577.28,1094.91,569.94,1099.69Zm214.57-99c-.08,1.63-.27,3.26-.33,4.89-.39,9.81-.4,30.65-1,40.46-.08,1.29-1.75,3.43-2.88,3.57-.46.05-.93.1-1.4.13,0,0,0,0,0,0-7.43.56-7.17.46-14.32,1.09-16,1.41-32.05,2.91-48.08,4.35q-12.71,1.14-25.41,2.2c-9.38.78-31.41,2.24-33,2.24v0a4.9,4.9,0,0,1,.91-4c1.74-1.77,6-4.4,7.24-4.52,14.53-1.28,98.59-7.81,103.89-8.72,3.95-.68,5.54-3.3,5.61-7.38.22-13.85,1.73-35.7,1.74-49.55,0-5.37,4-6.08,8.16-9.2C785.21,985.23,784.87,993,784.51,1000.68Zm-60.27,5.25c-16.19,9.84-32.33,19.79-48.54,29.61-11,6.68-22.11,13.23-33.58,20.09l-7.61-12.22c38.38-23.34,159.45-96.33,171-104.09,5.17-3.49,8.56-9.64,12.72-14.62,1.26-1.5,2.38-3.11,3.6-4.72l10.36,8.64c-4.66,5.8-9.4,11.17-13.55,17C811.34,955.69,736.49,998.49,724.24,1005.93Zm80.84-17.13c0-3.5,0-6.25,0-23.76,0,0,6.86-5.2,10.77-7.88a1.74,1.74,0,0,1,2.73,1.41c-.36,23.24,7.34,28.1,21,36.2,4.77,2.83,9.54,5.72,14.05,8.94a7.07,7.07,0,0,1,2.66,5c-.07,2.46-1.11,6-5.15,6-7.54,0-13.42,1.3-21.58-4.39-11-7.68-18.22-12.44-24.45-16.87C805.07,990.71,805.05,991.26,805.08,988.8ZM952,1149.7c-8.38-2.34-15.26-3.16-25.39-10.74,0,0-104.52-78.39-110.73-83.33-5.42-4.91-7.67-8.31-6.82-16,1.28-11.6.33-23.44.33-36.2l9,6.71,1.21.9.3.23h0c12.86,9.86,99.27,78,101.21,79.3,1.39,1.69.85,10.58,1.05,12.41a13.3,13.3,0,0,0,7.55,10.77s.87.64,25.21,7.06C954,1128.94,953,1140.07,952,1149.7Zm95.57,2.06c1.78,7.5-14.1-2.06-15.29,4.92-.74,4.34,1.33,4.78,4,5.67s9.63,1.31,9.4,3.39c0,1-.83,1.65-4.67.76-18.68-4.33-37.63-7.41-56.46-11-8.63-1.65-17.32-3-26.32-4.54.31-5.61,1.69-21.92,1.93-25.15.2-2.66.62-4.53,4-3.78,14.68,3.28,29.45,6.22,44.24,9,13.19,2.47,26.46,4.56,39.7,6.81,0,.87,0,2.57.07,3.44-1.49,0-2.9-.27-4.39-.34-3-.13-7.83-2.06-9.55,1.1C1030,1149.72,1038.5,1150,1047.55,1151.76Zm15.82-38.29c-1.4,6.43-1.39,20.69-15.22,18.45-7.37-1.47-48.12-9.26-62-11.76-6.19-1.11-7.52-2.49-10.23-12.25,9.14,1.69,18.06,3.3,27,5,12.23,2.31,24.45,4.7,36.69,7,11.74,1.89,18.09-6,21.58-8.43C1062.53,1110.51,1063.77,1111.54,1063.37,1113.47Zm-4.43-34.09c-4.81-11.22-10.79-27.9-15.78-42.27-1.18-3.38.47-7.89,1.77-11.54,2.93-8.2,6.45-16.18,10.17-25.31,13.38,12,25.8,23,38.07,34.2.64.58.54,3-.12,3.79-4,5.09-8.37,9.93-12.53,14.93C1073.54,1061.58,1066.63,1070,1058.94,1079.38Zm64.62,62.85c-19.73-11-37.52-20-50-25.78-1.11-3.77-4.63-16.08-6.1-21.06,17,9.2,32.94,17.69,48.7,26.43,1.81,1,5.06,3.76,6,5.74C1123.64,1130.76,1123.56,1137.51,1123.56,1142.23Zm31.37,13.75c-22-8.62-20.48-9.72-22-24.71,7.19,4,14.07,7.54,20.67,11.59,1.06.64,1,3.33,1.19,5.09C1155,1150.13,1154.93,1153.73,1154.93,1156Zm-83.44-70.23,34-40.62c7.39,6.54,14.41,12.52,21.17,18.78,11.84,11,17.5,22,21.72,40.46,1.67,7.3,3.73,14.54,5.63,21.8.39,1.5.69,3,1.33,5.78Zm92.21,21.84c-3.34-12.24-3.71-15-7.36-27.19a43.88,43.88,0,0,0-9.06-15.72c-2.56-2.78-4.83-6-8.14-8.71,8.32-7.41,16.26-14.49,24.22-21.54,1.34-1.19,2.88-2.16,4.16-3.41,4.5-4.35,5.83-4.35,9.23.69q16.07,23.83,32,47.74c1.79,2.68,4.26,5.19,5.08,8.14a9.42,9.42,0,0,1-1.66,7.43,133.5,133.5,0,0,1-13.26,13.44c-8.83,7.93-17.91,15.59-28.2,24.5C1168.05,1123.3,1165.85,1115.45,1163.7,1107.59Zm47.2,14.24c-7.27,6.82-34.62,31.79-40.58,37.27-1-14.72,0-14.72,9-22.22,3.72-3.09,28-24.77,36.39-32.66C1219,1111.7,1215.07,1117.92,1210.9,1121.83Z"/></g><g id="Thrusters"><path d="M361.33,589.75c-1.93-1.12-6.58-2-10.42,5.32-2.32,4.4-.13,8,1.8,9.08s6.57-1,8.34-4.13S363.26,590.87,361.33,589.75ZM598.39,894.24c-3-2.39-8-1.15-11.09,2.78s-3.19,9.05-.18,11.43,8,1.14,11.09-2.78S601.41,896.62,598.39,894.24Z" fill="#007aff"/></g></g></svg>