<svg xmlns="http://www.w3.org/2000/svg" viewBox="0 0 1500 1500"><title>Dolphin</title><g id="Dolphin"><g id="Colour"><path d="M1429.63,1178.36a157.7,157.7,0,0,0-5.52-25.81c-2.54-8.24-6.59-16-9.7-24.09-5.27-13.67-9.76-27.67-15.6-41.09-8.46-19.42-17.56-38.58-26.9-57.59-9.07-18.45-19.49-36.1-32.73-52-17.07-20.51-33.55-41.5-50.88-61.78-11.37-13.31-23.76-25.75-35.76-38.51-3.54-3.76-7.34-7.26-10.91-11-1.14-1.19-2.48-2.65-2.73-4.16-1.64-9.7-3-19.45-4.44-29.19-1-7.1-3.39-13.89-8.39-18.85s-11.09-9.11-17-13.08c-12.7-8.49-25.6-16.68-38.47-24.9-6.38-4.08-12.73-8.28-19.41-11.83-3.77-2-8.17-3.39-12.4-.42a2.51,2.51,0,0,1-1.42.61c-4.93-.53-9.86-1.14-15.53-1.82a209,209,0,0,0-40.46-42.56c-16.34-12.85-33.47-24.7-50.46-36.71-14.09-10-28.52-19.45-42.72-29.25q-28.26-19.49-56.4-39.14c-4.12-2.87-8.1-6-12.26-8.77-13.5-9.1-27.06-18.11-40.58-27.17C863,568.54,847,557.75,831,547.14c-2.41-1.59-2.87-3.47-2.66-6,.34-4.24.54-8.48.86-12.72.52-6.77-3.55-11.52-8.18-15-7.8-5.86-16.38-10.69-24.66-15.91S780,487.18,771.7,482.12c-4.94-3-9.49-2.09-13.37,2.24-3,3.3-6.11,6.42-9.19,9.64-11.77-7.29-23.39-14.91-35.41-21.83-14.83-8.54-29.92-16.63-45-24.65-21-11.14-42.07-22.22-63.29-33-12.88-6.52-26-12.68-39.25-18.37-9.21-3.95-11.76-11.24-12.3-20.1-.69-11.36,3.25-21.93,5.73-32.72,3.58-15.54,7.72-30.95,11.3-46.49.67-2.92,1-7-.53-9.16-7.67-11.26-15.56-22.42-24.17-33-9.92-12.15-24-19-37.21-26.85-1.08-.64-4.36.09-4.64.88a18.75,18.75,0,0,0-.67,7.3c.5,7.25-1,13.83-6.33,19-1.29,1.26-3,2.17-4.3,3.41-8.31,7.67-16.49,15.5-24.89,23.06-12.54,11.3-25.26,22.4-37.85,33.65-9,8-17.8,16.11-26.76,24.11-12.8,11.44-25.59,22.89-38.53,34.17-3.64,3.16-3.65,6.68-2.41,10.72.36,1.18.65,2.38,1.08,3.94a90,90,0,0,1-8.62,4.31,11.78,11.78,0,0,1-6.19.84c-7.69-1.52-15.14-2.11-22.78.75-6.12,2.29-12.63,3.53-18.9,5.44q-14.46,4.39-28.82,9.09c-11.56,3.76-23,7.78-34.63,11.44-13.6,4.31-27.31,8.23-40.91,12.54s-27,9-40.63,13.26c-14.54,4.6-29.18,8.89-43.73,13.43-9.08,2.83-18.06,6-27.15,8.75-1.07.33-2.67-.38-3.79-1-5.57-3.16-8.84-9.36-15.12-11.59-1.74-.62-3.6-.94-5.4-1.39-.14,2-.76,4.07-.33,5.91a69.4,69.4,0,0,0,3.58,10.74c1.4,3.33,3.25,6.47,5,9.81,0,.8-.46,3,.09,3.3,1.13.6,2.82.18,4.7.18l43.52,35.24a16.78,16.78,0,0,0-1.46,3.51c-.07.36,1.48,1.52,1.75,1.37a25,25,0,0,0,3.46-2.84c4.23,2.94,8.89,6.08,15.27,5.65,13.39-.9,26.82-1.2,40.24-1.83,10.79-.51,21.57-1.22,32.36-1.68,15.37-.66,30.75-1.18,46.12-1.75,1.58,0,31.64-1,44.85,1.93a16.47,16.47,0,0,1,10.48,7.17c7.27,11,14.95,21.76,22.79,32.38,2.75,3.74,6.91,6.46,9.58,10.24,11.18,15.82,22,31.87,33,47.83,7.07,10.27,14.12,20.55,21.25,30.77,5.55,7.94,11.28,15.76,16.78,23.74,1.36,2,1.76,4.67,3.24,6.53,4.86,6.08,10.25,11.74,14.9,18,1.72,2.29,3.31,3.38,5.9,3,4.37-.68,8.71-1.53,13.07-2.31.12.29-10.25,6.17-15.76,8.31-13.68,5.29-27.46,10.33-41.23,15.39-11.39,4.18-22.84,8.18-34.24,12.35q-9.27,3.39-18.43,7.07c-4.82,1.94-6.16,8.42-2.46,11.48,14.79,12.25,29.52,24.56,44.42,36.68,6.27,5.1,13.32,9.18,21.64,9.05,14.09-.22,28.18-.92,42.26-1.66,13.17-.69,26.33-1.7,39.5-2.54,9.55-.61,19.1-1.25,28.65-1.7,14.37-.67,28.74-1.35,43.11-1.65,5-.11,10.09.64,14.33,3.94,14.12,11,28.29,21.88,42.37,32.91,8.92,7,17.62,14.3,26.59,21.26s18.08,13.38,27,20.28c11.47,8.91,22.68,18.15,34.15,27.06,14.45,11.23,29,22.25,43.57,33.39q16.74,12.84,33.45,25.77c4.57,3.54,9.63,6.71,13.37,11,5,5.79,9.23,12.37,13.4,18.85,7,10.85,13.64,21.91,20.53,32.82,4.89,7.76,8.89,15.84,10.41,25a4,4,0,0,1-.69.58c-18.87,8.59-37.71,17.23-56.64,25.68-2.48,1.11-5.58,2.17-8.08,1.67-9.74-1.94-19.45-3.65-29.43-3.21-13.19.6-21.34,11.66-19.31,23.92a4.69,4.69,0,0,1-.77,3.59c-4,4.09-4.38,10.39-.1,14.35,7.5,6.93,15.13,13.74,22.92,20.34,11.63,9.87,23.21,19.83,35.29,29.13,7.05,5.44,14.6,10.62,22.68,14.23,9.2,4.12,19.44,3.5,29.49,3,12.4-.67,24.84-.64,37.25-1,8.12-.22,16.24-.65,24.36-.83,15.43-.35,30.86-.55,46.29-.91,4.53-.1,22.6.06,27,1,4.89,1,9.67,2.56,14.49,3.91,1.21.34,2.4,1.13,3.58,1.12,19.67-.3,39.46,1.83,58.81-4,7.92-2.39,15.93-1.06,23.44,2.35,6,2.71,11.71,5.85,17.66,8.55,18.19,8.24,36.38,16.48,54.68,24.48,15.9,6.94,31.86,13.77,47.95,20.25,14.14,5.69,28.39,11.15,42.79,16.12,15.46,5.34,31,10.41,46.78,14.77,21.09,6.32,47.72,4.71,59.12,3.15,8.06-1.11,16-3.88,23.69-6.57a126.37,126.37,0,0,0,17.91-8,113.69,113.69,0,0,0,20.54-13.85c10.76-9.18,17.39-20.56,21.62-33.53A63.19,63.19,0,0,0,1429.63,1178.36Z" fill="#efefe6"/><path d="M1429.63,1178.36a157.7,157.7,0,0,0-5.52-25.81c-2.54-8.24-6.59-16-9.7-24.09-5.27-13.67-9.76-27.67-15.6-41.09-8.46-19.42-17.56-38.58-26.9-57.59-9.07-18.45-19.49-36.1-32.73-52-17.07-20.51-33.55-41.5-50.88-61.78-11.37-13.31-23.76-25.75-35.76-38.51-3.54-3.76-7.34-7.26-10.91-11-1.14-1.19-2.48-2.65-2.73-4.16-1.64-9.7-3-19.45-4.44-29.19-1-7.1-3.39-13.89-8.39-18.85s-11.09-9.11-17-13.08c-12.7-8.49-25.6-16.68-38.47-24.9-6.38-4.08-12.73-8.28-19.41-11.83-3.77-2-8.17-3.39-12.4-.42a2.51,2.51,0,0,1-1.42.61c-4.93-.53-9.86-1.14-15.53-1.82a209,209,0,0,0-40.46-42.56c-16.34-12.85-33.47-24.7-50.46-36.71-14.09-10-28.52-19.45-42.72-29.25q-28.26-19.49-56.4-39.14c-4.12-2.87-8.1-6-12.26-8.77-13.5-9.1-27.06-18.11-40.58-27.17C863,568.54,847,557.75,831,547.14c-2.41-1.59-2.87-3.47-2.66-6,.34-4.24.54-8.48.86-12.72.52-6.77-3.55-11.52-8.18-15-7.8-5.86-16.38-10.69-24.66-15.91S780,487.18,771.7,482.12c-4.94-3-9.49-2.09-13.37,2.24-3,3.3-6.11,6.42-9.19,9.64-11.77-7.29-23.39-14.91-35.41-21.83-14.83-8.54-29.92-16.63-45-24.65-21-11.14-42.07-22.22-63.29-33-12.88-6.52-26-12.68-39.25-18.37-9.21-3.95-11.76-11.24-12.3-20.1-.69-11.36,3.25-21.93,5.73-32.72,3.58-15.54,7.72-30.95,11.3-46.49.67-2.92,1-7-.53-9.16-7.67-11.26-15.56-22.42-24.17-33-9.92-12.15-24-19-37.21-26.85-1.08-.64-4.36.09-4.64.88a18.75,18.75,0,0,0-.67,7.3c.5,7.25-1,13.83-6.33,19-1.29,1.26-3,2.17-4.3,3.41-8.31,7.67-16.49,15.5-24.89,23.06-12.54,11.3-25.26,22.4-37.85,33.65-9,8-17.8,16.11-26.76,24.11-12.8,11.44-25.59,22.89-38.53,34.17-3.64,3.16-3.65,6.68-2.41,10.72.36,1.18.65,2.38,1.08,3.94a90,90,0,0,1-8.62,4.31,11.78,11.78,0,0,1-6.19.84c-7.69-1.52-15.14-2.11-22.78.75-6.12,2.29-12.63,3.53-18.9,5.44q-14.46,4.39-28.82,9.09c-11.56,3.76-23,7.78-34.63,11.44-13.6,4.31-27.31,8.23-40.91,12.54s-27,9-40.63,13.26c-14.54,4.6-29.18,8.89-43.73,13.43-9.08,2.83-18.06,6-27.15,8.75-1.07.33-2.67-.38-3.79-1-5.57-3.16-8.84-9.36-15.12-11.59-1.74-.62-3.6-.94-5.4-1.39-.14,2-.76,4.07-.33,5.91a69.4,69.4,0,0,0,3.58,10.74c1.4,3.33,3.25,6.47,5,9.81,0,.8-.46,3,.09,3.3,1.13.6,2.82.18,4.7.18l43.52,35.24a16.78,16.78,0,0,0-1.46,3.51c-.07.36,1.48,1.52,1.75,1.37a25,25,0,0,0,3.46-2.84c4.23,2.94,8.89,6.08,15.27,5.65,13.39-.9,26.82-1.2,40.24-1.83,10.79-.51,21.57-1.22,32.36-1.68,15.37-.66,30.75-1.18,46.12-1.75,1.58,0,31.64-1,44.85,1.93a16.47,16.47,0,0,1,10.48,7.17c7.27,11,14.95,21.76,22.79,32.38,2.75,3.74,6.91,6.46,9.58,10.24,11.18,15.82,22,31.87,33,47.83,7.07,10.27,14.12,20.55,21.25,30.77,5.55,7.94,11.28,15.76,16.78,23.74,1.36,2,1.76,4.67,3.24,6.53,4.86,6.08,10.25,11.74,14.9,18,1.72,2.29,3.31,3.38,5.9,3,4.37-.68,8.71-1.53,13.07-2.31.12.29-10.25,6.17-15.76,8.31-13.68,5.29-27.46,10.33-41.23,15.39-11.39,4.18-22.84,8.18-34.24,12.35q-9.27,3.39-18.43,7.07c-4.82,1.94-6.16,8.42-2.46,11.48,14.79,12.25,29.52,24.56,44.42,36.68,6.27,5.1,13.32,9.18,21.64,9.05,14.09-.22,28.18-.92,42.26-1.66,13.17-.69,26.33-1.7,39.5-2.54,9.55-.61,19.1-1.25,28.65-1.7,14.37-.67,28.74-1.35,43.11-1.65,5-.11,10.09.64,14.33,3.94,14.12,11,28.29,21.88,42.37,32.91,8.92,7,17.62,14.3,26.59,21.26s18.08,13.38,27,20.28c11.47,8.91,22.68,18.15,34.15,27.06,14.45,11.23,29,22.25,43.57,33.39q16.74,12.84,33.45,25.77c4.57,3.54,9.63,6.71,13.37,11,5,5.79,9.23,12.37,13.4,18.85,7,10.85,13.64,21.91,20.53,32.82,4.89,7.76,8.89,15.84,10.41,25a4,4,0,0,1-.69.58c-18.87,8.59-37.71,17.23-56.64,25.68-2.48,1.11-5.58,2.17-8.08,1.67-9.74-1.94-19.45-3.65-29.43-3.21-13.19.6-21.34,11.66-19.31,23.92a4.69,4.69,0,0,1-.77,3.59c-4,4.09-4.38,10.39-.1,14.35,7.5,6.93,15.13,13.74,22.92,20.34,11.63,9.87,23.21,19.83,35.29,29.13,7.05,5.44,14.6,10.62,22.68,14.23,9.2,4.12,19.44,3.5,29.49,3,12.4-.67,24.84-.64,37.25-1,8.12-.22,16.24-.65,24.36-.83,15.43-.35,30.86-.55,46.29-.91,4.53-.1,22.6.06,27,1,4.89,1,9.67,2.56,14.49,3.91,1.21.34,2.4,1.13,3.58,1.12,19.67-.3,39.46,1.83,58.81-4,7.92-2.39,15.93-1.06,23.44,2.35,6,2.71,11.71,5.85,17.66,8.55,18.19,8.24,36.38,16.48,54.68,24.48,15.9,6.94,31.86,13.77,47.95,20.25,14.14,5.69,28.39,11.15,42.79,16.12,15.46,5.34,31,10.41,46.78,14.77,21.09,6.32,47.72,4.71,59.12,3.15,8.06-1.11,16-3.88,23.69-6.57a126.37,126.37,0,0,0,17.91-8,113.69,113.69,0,0,0,20.54-13.85c10.76-9.18,17.39-20.56,21.62-33.53A63.19,63.19,0,0,0,1429.63,1178.36Z" fill="none" stroke="#000" stroke-linejoin="round" stroke-width="8"/></g><g id="Detail"><path d="M757,891.65c-4.4-3-8.79-6-13.1-9.17q-18.75-13.54-37.43-27.19c-11-8-22-16.14-33-24.19q-12.24-9-24.53-17.84C636.37,804.1,623.7,795,611.1,785.81,595,774,578.94,762.17,562.85,750.38c-7.48-5.49-15.15-10.73-22.47-16.41-14-10.89-27.87-22-41.79-33-13.58-10.75-27.52-21.1-40.68-32.35-14.09-12.05-27.57-24.82-41.08-37.52-8.29-7.8-16.24-16-24.16-24.15C382.22,596.1,372,585,361.53,574.25c-2.95-3-6.57-5.43-9.88-8.11a146.56,146.56,0,0,0,10.93,18.44c9.75,14.09,19.68,28,29.49,42.09,10.14,14.49,20.19,29.05,30.42,43.48.95,1.33,3.29,3.09,4.31,2.73,7.4-2.59,14.53-.89,21,.76,4.84,1.88,18.26,9.54,20.38,11.24,7.12,5.71,14.52,11.09,21.84,16.56,8.55,6.41,17.19,12.7,25.68,19.19,12.19,9.32,24.21,18.87,36.43,28.15,12.87,9.77,25.9,19.35,38.86,29,13.63,10.18,27.18,20.47,40.9,30.52,10.87,8,22.06,15.5,32.91,23.49,17,12.5,33.79,25.22,50.68,37.83,7.89,5.89,15.77,11.79,23.7,17.62,8.57,6.29,17.19,12.51,25.79,18.77C763.53,900.42,762,895.05,757,891.65Z" fill="#ff7100"/></g><g id="Shadows" opacity="0.2"><path d="M921.88,866.44c-127-95.84-379.35-264.8-446.18-312.25S324.24,452.43,355.78,411.5l-.33-3.18c-4.51,6-39.6,26.57,9.52,98.43,33.62,49.19,126.34,149.66,147.12,167,21.43,17.85-66.92-52.28-73.93-59s-81.94-78.43-81.94-78.43-24.17-25.73-68-21,13,5.11,13,5.11L323,540.27l24.38,31.16L441,702.78v9.14l-29.27,8.39s47.95,43.77,78.06,61c18,10.31-14.09,10.86-14.09,10.86l13,5.11,81.19-3.34,200.9,149.92,33.08,31.08,35.25,56.56,4.58,14.4-60.55,27.48H755.79l-7.45,8.16s67.37,55.62,129.09,78.87c19.3,7.26-2.17,12.7-2.17,12.7l10.86,5.34,84.31-3.17,24.63,8.52,41-2.31,24.05-6.21s133,59.75,161.8,68.85,87.9,9.85,87.9,9.85S1048.86,962.28,921.88,866.44Zm-845-403.89-6.12,2.65,4.49,15.29,48.92,35.81,4.73-5.49-26.06-26.22Zm470.7-171.38a5,5,0,0,0,6.26-4.49,21.33,21.33,0,0,0-1.65-9.95L540,248.25l-31-20.34-7.55-.24v19.74l-19.65,23.06,12,7ZM526.37,483.51l-7.51,5v7l16.54,9.78,9.27-7.44-1.75-5.8-11.15-8.57Zm55.9-14.6,5,1.32,11-1.32,11-7.4-21.51-10.08-8.68,4.4v3.62l12.14,5.75Z" fill="#111"/></g><g id="Outline"><path d="M548,489.49q-7.29-4.2-14.57-8.45c-3.47-2-7-2.27-10.19.27q-10.1,8.06-19.9,16.47a5.42,5.42,0,0,0,.64,8.75c5.11,3.22,10,5.51,15.65,9.1,2.29,1.46,7.76.3,9.86-1.15,6.64-5.25,13.13-10.69,19.64-16.11C552.44,495.61,551.91,491.75,548,489.49Zm-39.57,10.88c3.37-3.08,6.68-6.24,10.13-9.22a65.86,65.86,0,0,1,7-5.25c4.22-2.75,6.7-.24,8.63-.6C522.28,487.13,508,505.84,508.43,500.37Zm19.16,9.18c-2.05,1.69-4.15,2.9-6.91.87-2.46-1.81-5.25-3.2-8.75-5.28,5.72-4.46,11-8.76,16.56-12.71,1-.68,3.2-.28,4.48.37,3,1.51,5.68,3.47,8.39,5.18C536.83,501.79,532.25,505.72,527.59,509.55Zm82.29-51c-5-2.78-10.24-5.3-15.44-7.76a51.24,51.24,0,0,0-5.87-2c-.06.19-2.56.25-3.59.6-6.21,2.1-12.43,4.22-18.52,6.64-1.56.62-3.79,2.37-3.76,3.55a7.19,7.19,0,0,0,3,5,129.1,129.1,0,0,0,15,8.36,11.34,11.34,0,0,0,7.29.84c7.36-2.12,14.6-4.71,21.76-7.47a5.69,5.69,0,0,0,3.19-4C613,461.19,611.27,459.36,609.88,458.59Zm-22.53,10.32c-3.23.13-6.54-1.75-10.71-3,7.77-5.67,12.53-5.79,20.88-.7C593.81,466.63,590.62,468.77,587.35,468.91ZM596,458.29c-5.46-3.52-10.64-2.8-16.15-.11-3.17,1.55-5.68,3.15-9.05,4.3-.13-.6-3.55-1-1.44-2.59,5.82-1.83,10.75-5,16.61-6.64,1.31-.38,4.7.3,5.92.86,4.69,2.16,9.85,4.46,14.09,7.65C605.31,464.33,598.63,460,596,458.29Zm833.65,720.07a157.7,157.7,0,0,0-5.52-25.81c-2.54-8.24-6.59-16-9.7-24.09-5.27-13.67-9.76-27.67-15.6-41.09-8.46-19.42-17.56-38.58-26.9-57.59-9.07-18.45-19.49-36.1-32.73-52-17.07-20.51-33.55-41.5-50.88-61.78-11.37-13.31-23.76-25.75-35.76-38.51-3.54-3.76-7.34-7.26-10.91-11-1.14-1.19-2.48-2.65-2.73-4.16-1.64-9.7-3-19.45-4.44-29.19-1-7.1-3.39-13.89-8.39-18.85s-11.09-9.11-17-13.08c-12.7-8.49-25.6-16.68-38.47-24.9-6.38-4.08-12.73-8.28-19.41-11.83-3.77-2-8.17-3.39-12.4-.42a2.51,2.51,0,0,1-1.42.61c-4.93-.53-9.86-1.14-15.53-1.82a209,209,0,0,0-40.46-42.56c-16.34-12.85-33.47-24.7-50.46-36.71-14.09-10-28.52-19.45-42.72-29.25q-28.26-19.49-56.4-39.14c-4.12-2.87-8.1-6-12.26-8.77-13.5-9.1-27.06-18.11-40.58-27.17C863,568.54,847,557.75,831,547.14c-2.41-1.59-2.87-3.47-2.66-6,.34-4.24.54-8.48.86-12.72.52-6.77-3.55-11.52-8.18-15-7.8-5.86-16.38-10.69-24.66-15.91S780,487.18,771.7,482.12c-4.94-3-9.49-2.09-13.37,2.24-3,3.3-6.11,6.42-9.19,9.64-11.77-7.29-23.39-14.91-35.41-21.83-14.83-8.54-29.92-16.63-45-24.65-21-11.14-42.07-22.22-63.29-33-12.88-6.52-26-12.68-39.25-18.37-9.21-3.95-11.76-11.24-12.3-20.1-.69-11.36,3.25-21.93,5.73-32.72,3.58-15.54,7.72-30.95,11.3-46.49.67-2.92,1-7-.53-9.16-7.67-11.26-15.56-22.42-24.17-33-9.92-12.15-24-19-37.21-26.85-1.08-.64-4.36.09-4.64.88a18.75,18.75,0,0,0-.67,7.3c.5,7.25-.56,12.88-6.33,19-1.23,1.31-3,2.17-4.3,3.41-8.31,7.67-16.49,15.5-24.89,23.07-12.54,11.29-25.26,22.39-37.85,33.64-9,8-17.8,16.11-26.76,24.11-12.8,11.44-25.59,22.89-38.53,34.17-3.64,3.16-3.65,6.68-2.41,10.72.36,1.18.65,2.38,1.08,3.94a90,90,0,0,1-8.62,4.31,11.78,11.78,0,0,1-6.19.84c-7.69-1.52-15.14-2.11-22.78.75-6.12,2.29-12.63,3.53-18.9,5.44q-14.46,4.39-28.82,9.09c-11.56,3.76-23,7.78-34.63,11.44-13.6,4.31-27.31,8.23-40.91,12.54s-27,9-40.63,13.26c-14.54,4.6-29.18,8.89-43.73,13.43-9.08,2.83-18.06,6-27.15,8.75-1.07.33-2.67-.38-3.79-1-5.57-3.16-8.84-9.36-15.12-11.59-1.74-.62-3.6-.94-5.4-1.39-.14,2-.76,4.07-.33,5.91a69.4,69.4,0,0,0,3.58,10.74c1.4,3.33,3.25,6.47,5,9.81,0,.8-.46,3,.09,3.3,1.13.6,2.82.18,4.7.18l43.52,35.24a16.78,16.78,0,0,0-1.46,3.51c-.07.36,1.48,1.52,1.75,1.37a25,25,0,0,0,3.46-2.84c4.23,2.94,8.89,6.08,15.27,5.65,13.39-.9,26.82-1.2,40.24-1.83,10.79-.51,21.57-1.22,32.36-1.68,15.37-.66,30.75-1.18,46.12-1.75,1.58,0,31.64-1,44.85,1.93a16.47,16.47,0,0,1,10.48,7.17c7.27,11,14.95,21.76,22.79,32.38,2.75,3.74,6.91,6.46,9.58,10.24,11.18,15.82,22,31.87,33,47.83,7.07,10.27,14.12,20.55,21.25,30.77,5.55,7.94,11.28,15.76,16.78,23.74,1.36,2,1.76,4.67,3.24,6.53,4.86,6.08,10.25,11.74,14.9,18,1.72,2.29,3.31,3.38,5.9,3,4.37-.68,8.71-1.53,13.07-2.31.12.29-10.25,6.17-15.76,8.31-13.68,5.29-27.46,10.33-41.23,15.39-11.39,4.18-22.84,8.18-34.24,12.35q-9.27,3.39-18.43,7.07c-4.82,1.94-6.16,8.42-2.46,11.48,14.79,12.25,29.52,24.56,44.42,36.68,6.27,5.1,13.32,9.18,21.64,9.05,14.09-.22,28.18-.92,42.26-1.66,13.17-.69,26.33-1.7,39.5-2.54,9.55-.61,19.1-1.25,28.65-1.7,14.37-.67,28.74-1.35,43.11-1.65,5-.11,10.09.64,14.33,3.94,14.12,11,28.29,21.88,42.37,32.91,8.92,7,17.62,14.3,26.59,21.26s18.08,13.38,27,20.28c11.46,8.91,22.67,18.15,34.14,27.06,14.45,11.23,29,22.25,43.57,33.39q16.74,12.84,33.45,25.77c4.57,3.54,9.63,6.71,13.37,11,5,5.79,9.23,12.37,13.4,18.85,7,10.85,13.64,21.91,20.53,32.82,4.89,7.76,8.89,15.84,10.41,25a4,4,0,0,1-.69.58c-18.87,8.59-37.71,17.23-56.64,25.68-2.48,1.11-5.58,2.17-8.08,1.67-9.74-1.94-19.45-3.65-29.43-3.21-13.19.6-21.34,11.66-19.31,23.92a4.69,4.69,0,0,1-.77,3.59c-4,4.09-4.38,10.39-.1,14.35,7.5,6.93,15.13,13.74,22.92,20.34,11.63,9.87,23.21,19.83,35.29,29.13,7.05,5.44,14.6,10.62,22.68,14.23,9.2,4.12,19.44,3.5,29.49,3,12.4-.67,24.84-.64,37.25-1,8.12-.22,16.24-.65,24.36-.83,15.43-.35,30.86-.55,46.29-.91,4.53-.1,22.6.06,27,1,4.89,1,9.67,2.56,14.49,3.91,1.21.34,2.4,1.13,3.58,1.12,19.67-.3,39.46,1.83,58.81-4,7.92-2.39,15.93-1.06,23.44,2.35,6,2.71,11.71,5.85,17.66,8.55,18.19,8.24,36.38,16.48,54.68,24.48,15.9,6.94,31.86,13.77,47.95,20.25,14.14,5.69,28.39,11.15,42.79,16.12,15.46,5.34,31.11,10.15,46.78,14.77,24,7.07,47.72,4.71,59.12,3.15,8.06-1.11,16-3.88,23.69-6.57a127.51,127.51,0,0,0,17.91-8,113.69,113.69,0,0,0,20.54-13.85c10.76-9.18,17.4-20.56,21.62-33.53A63.19,63.19,0,0,0,1429.63,1178.36ZM1144.9,767.23c3.52,1.77,7.22,3.26,10.52,5.37q29.41,18.84,58.65,38c3.22,2.1,13,10.64,13.29,12.78,2.25,11.93,4.42,23.41,6.66,35.21L1144.92,784c5.63-5.26.93-10.58-1.27-16Zm-16,14.54c1.63.1,3.15,2,5.69,3.82-6.14.84-11.15,1.13-16,2.27a87.86,87.86,0,0,0-30.91,14.64c-10.4,7.48-20.36,15.62-30.14,23.91-15.86,13.45-28.84,29.55-40,47a155,155,0,0,0-17.8,38.41,38.52,38.52,0,0,0-.67,5c-4.72-3-9.24-5.26-12.89-8.52-1-.91-.18-5,.94-7.08,5.08-9.21,10.49-18.24,15.93-27.25a248,248,0,0,1,44.77-54.2,194,194,0,0,1,37.74-27.63,95.42,95.42,0,0,1,26.1-10.12C1117.21,780.79,1123.16,781.42,1128.87,781.77ZM999.62,668c18.38,13,36.2,25.85,54.34,38.27s35.38,26.2,50.89,43.69c-2,0-3.8.57-4.62-.09-4.74-3.82-9.17-8-13.85-11.91-10.18-8.49-20.12-17.32-30.76-25.21-13.14-9.75-26.9-18.67-40.38-28-5.19-3.59-10.22-7.45-15.58-10.76C996.65,672.2,998.22,670.71,999.62,668ZM852.86,567.93c13.17,8.82,26.53,17.34,39.64,26.24,17,11.51,33.72,23.27,50.58,34.92Q967.5,646,992,662.75c2.57,1.75,3.12,3.48.67,6.21-6.31-4.33-12.72-8.8-19.21-13.14-16.32-10.93-32.7-21.76-49-32.72s-32.62-22.39-49.17-33.22c-18.87-12.34-38-24.28-57.07-36.33-2-1.27,1.41-3.22-2.32-6.66-5-3-23.57-15.34-26.82-17.49.33-.37,1.73-2.41,2.06-2.78l26.27,17.18C829.22,551.84,841,560,852.86,567.93Zm262.95,583c-2.16-1.63-4-3.42-6.11-4.55-7.69-4-15.71-7.45-23.18-11.81-7.26-4.23-15-7.36-22.32-11.47-8.66-4.89-17.51-9.45-26.12-14.42q-20.83-12-41.44-24.47c-10.57-6.39-21.1-12.84-31.34-19.73-7.83-5.26-15.17-11.26-22.73-16.92-1.28-1.11-.31-1.9.87-1.2,10.18,6.57,20.22,13.37,30.57,19.67,15.18,9.24,30.55,18.19,45.91,27.15,12.11,7.07,24.25,14.11,36.53,20.9,12.47,6.9,25.13,13.46,37.69,20.2,6.06,3.25,12.17,6.43,18.08,9.94,2.35,1.4,4.22,3.59,6.67,5.74Zm.94,13.5a24.16,24.16,0,0,1-3.08-1c-17.55-8.63-35.15-17.15-52.61-26-20.23-10.22-40.44-20.48-60.44-31.14-16-8.53-31.47-18-47.5-26.46-8.25-4.34-15.88-9.31-21.9-16.27a202.89,202.89,0,0,1-14.81-20q-11-16.41-21.36-33.27c-5.62-9.16-10.62-18.69-16.18-27.9-6-10-12.34-19.74-18.84-30.08l5.78-5.21c8.31,13.49,16.17,26.67,24.45,39.59,6.44,10,13,20,20.24,29.48,7.94,10.44,16.46,20.47,25.11,30.34,10.74,12.26,24.51,20.73,38.22,29.2,11.33,7,22.65,14,34.09,20.88,12.51,7.47,25,15,37.79,22,20.82,11.29,42.06,21.81,62.72,33.36,4,2.22,6.78,7.75,9.11,11.71C1117.94,1164.34,1118.08,1164.92,1116.75,1164.47Zm-66.37-90c-14.74-8.33-29.44-16.74-43.94-25.48s-28.63-17.64-42.72-26.81-28.44-18.62-42.22-28.54c-13.44-9.67-28.06-17.86-40.13-29.31-.3-.57-9.81-15.94-13.16-21.51a6,6,0,0,1-.36-3.74c.51-2.6,1.36-5.14,2.34-8.64,2.88,1.65,5.55,3,8,4.62,5.21,3.58,10.15,7.57,15.49,10.95,2.81,1.77,21.15,14.51,28.83,19.38,4.78,3,20.86,13.93,25.58,17a323,323,0,0,1,28.8,21.08c7.94,6.31,16.18,12.4,23.45,19.46,7.76,7.54,15.82,15.89,21.74,24.2a21.85,21.85,0,0,1,2.73,5.2c1.52,4.24,4.65,6.72,8.44,8.8,5.29,2.91,10.37,6.2,15.69,9.06a2.72,2.72,0,0,0,.86.28,2.58,2.58,0,0,0,2.79-3.38,2.36,2.36,0,0,0-.87-1.31c-5.55-3.54-11.41-6.6-17.08-10a13.83,13.83,0,0,1-4.07-3.49c-5.4-7.35-9.94-15.47-16.12-22.08-8-8.52-12.6-12.84-25.89-23.7a470.2,470.2,0,0,0-45.42-33.06c-7.43-4.84-17.61-12.1-24.82-17.25-8.07-5.78-16.33-11.31-24.55-16.89-6-4-12.12-7.87-17.94-12.13-1.66-1.22-2.34-3.71-3.64-5.5-.92-1.26-2-3.14-3.22-3.24s-2.54,1.62-4.86,4.38c-4.75-5.42-9.41-10.93-14.36-16.16a2.59,2.59,0,0,0-1.7-.58,2.11,2.11,0,0,0-2.22,2.59,3.36,3.36,0,0,0,.53,1.2c4.8,6.43,9.79,12.71,14.63,19.11a.68.68,0,0,1,.06.6,1.28,1.28,0,0,1-2.15.48c-8.47-8.89-16.64-18.68-26.43-26.86-15.23-12.74-31.1-24.71-46.91-36.73-15-11.39-30.35-22.3-45.39-33.64-15.28-11.53-30.34-23.37-45.56-35-8.94-6.82-18.09-13.38-27-20.25-11-8.51-21.9-17.19-32.82-25.83-15.25-12.07-30.58-24-45.67-36.31-10.1-8.21-19.83-16.87-29.74-25.32-9.46-8.08-19.09-16-28.35-24.29-6.28-5.63-12-11.9-18-17.74-10-9.62-20.19-19.08-30.19-28.72-2.43-2.35-4.46-5.12-7.08-8.16,8.29-.56,14.7,2.91,20.74,7.38,7.8,5.77,15.61,11.52,23.38,17.34,9.22,6.92,18.5,13.76,27.56,20.89,9.66,7.59,18.79,15.87,28.73,23,4.9,3.55,8.12,7,14.68,9.14a9,9,0,0,0,3.37.25c4.82-1.61,8.81.78,13.64,2.45a.6.6,0,0,1-.07,1.15c-2.44.54-4.48.95-6.43,1.58-5.86,1.91-7.69,9.13-3,12.94C612,718.8,625.89,729.86,639.72,741c4.17,3.37,8.21,6.91,12.48,10.15,7.71,5.84,15.58,11.46,23.33,17.25q23.84,17.79,47.61,35.67C732,810.74,741,817.33,749.9,824c14.55,10.82,29.08,21.69,43.67,32.46,7,5.18,14.18,10.13,21.22,15.26,11.9,8.68,23.69,17.51,35.65,26.11,13.68,9.84,27.47,19.52,41.25,29.22,4.57,3.22,9.29,6.23,13.88,9.43,9.5,6.63,18.92,13.41,28.46,20,6.68,4.61,13.55,8.93,20.27,13.47,17,11.47,33.81,23.16,50.91,34.46,17.65,11.67,35.26,23.45,53.47,34.2,6.16,3.63,9.33,8.62,12.27,14.24,7.81,14.88,15.36,29.91,23.64,46.09C1079.18,1090.39,1064.7,1082.6,1050.38,1074.51ZM653.93,680.85c4.23,3.5,8.57,6.88,13,10.19,8.06,6.08,16.19,12.07,24.29,18.11,13.4,10,26.77,20.07,40.21,30,9.37,6.94,18.89,13.69,28.28,20.6,13.35,9.83,26.63,19.78,40,29.61,11.55,8.49,23.73,16.23,34.55,25.56,7.64,6.59,16.72,10.89,24.22,17.56,5.55,4.94,12.58,9.2,18.62,13.57,9.18,6.66,17.77,13,26.85,19.77,15.43,11.55,29,21.64,44.26,33.35,1.45,1.11,4.58,4,6,5.16-.26.31-1.37,1.47-1.62,1.78-7.4-5.68-14.75-11.43-22.22-17-9.68-7.23-19.4-14.43-29.22-21.47-18.73-13.41-36.68-27.56-55.45-40.9-15-10.65-30-21.26-44.89-32-17.69-12.7-35.3-25.52-53-38.27-14.46-10.46-28.85-21-43.42-31.31-12.71-9-25.69-17.63-38.42-26.6-9.77-6.88-19.26-14.15-29-21a15.18,15.18,0,0,0-12.46-2.43c-4.2.93-8.61,2.08-11.57-2.8,2.93-.86,5.94-1.84,9-2.62,8.25-2.09,16.54-4,24.79-6.15,5.14-1.32,10.28-2.7,15.35-4.28,2.46-.77,3.76,0,5.79,1.67,1.39,1.17,2.35,2,4.23,3.45-6,2.79-11.64,5.28-17.15,8.08-1.8.92-3.84,2.42-4.49,4.14C650.11,677.48,652.47,679.65,653.93,680.85ZM605.07,684c6.78-1,13.69-1.58,20.23-3.43,5.43-1.54,8.5,1.19,11.82,3.56a.53.53,0,0,1-.35,1,16.9,16.9,0,0,0-6.38.43c-3.79.81-8.33,2.45-12.1,2.5-4.4.05-8.81-1.09-13.22-1.85A1.1,1.1,0,0,1,605.07,684Zm-6.22-4.07c-2.56.62-5.16,1.07-7.72,1.68-3.8.9-3.66.47-8-3.08,14-4.57,17.05-6.5,25.76-3a1,1,0,0,1-.11,1.85C605.51,678.22,602.19,679.12,598.85,679.93Zm71-199.3c-3.19-5.87-9.09-7.07-14.63-8.84A15.92,15.92,0,0,0,649,471c-3.38.35-7.67-.55-8.46,4.85-.11.79-2.11,1.76-3.3,1.87-14.19,1.24-27,6.53-38.93,13.86-11.07,6.82-21.8,14.26-32.24,22A29.2,29.2,0,0,0,556.72,525c-2.67,6.43-7.91,7.53-13.27,8.64-7.91,1.63-14.09,10.88-11.85,18.49,1.28,4.34,8.13,7.49,13.43,6.25,2.44-.57,5-1.45,7.39-1.19,1.59.17,3.29,1.87,4.42,3.3,3.32,4.18,6,8.87,9.6,12.82q10.08,11.21,20.87,21.78c10.74,10.49,21.61,20.88,32.73,31,10.67,9.69,21.74,19,32.62,28.43.17.15.22.45.49,1-9.82,2.45-19.55,4.84-29.27,7.31-4.74,1.21-9.39,2.82-14.18,3.72a8.78,8.78,0,0,1-6.19-1.19c-12.68-9.49-25.28-19.09-37.68-29-12.82-10.19-25.28-20.84-38.09-31-12.22-9.73-24.72-19.11-37-28.71-11.23-8.76-22.3-17.71-33.56-26.42-9.46-7.32-19.12-14.38-28.62-21.63-5.26-4-10.32-8.31-15.61-12.27-6.06-4.54-12.4-8.7-18.41-13.3-7.31-5.62-14.41-11.51-21.59-17.3-4.62-3.72-8.95-7.85-13.86-11.11-5.12-3.41-6.5-8.95-8.95-13.78-3.57-7.06-5.93-14.66-5.33-22.75a38.67,38.67,0,0,1,9.06-22.56C361,406.87,370,401.13,380,397a122.53,122.53,0,0,1,32.85-8.08c10.92-1.27,21.39.14,32,1.82,6.12,1,12.45.77,18.52,1.95,7.1,1.39,14.07,3.58,21,5.67,16.34,4.9,32.75,9.64,48.93,15,15.07,5,30,10.55,44.78,16.28q26.63,10.32,52.94,21.42c15.53,6.6,30.92,13.58,46.16,20.82q17.85,8.47,35.16,18.06c14.2,7.87,28.1,16.27,42.11,24.46q14.67,8.6,29.3,17.28c1.07.63,13,8,16.54,10l-4.78,6.85C786,542.94,777,537.46,767.9,532.33c-12.75-7.15-25.62-14.11-38.51-21-10.29-5.53-20.58-11.08-31-16.27-8.12-4-16.52-7.48-24.74-11.32A8.34,8.34,0,0,1,669.87,480.63Zm-301.42,7.88,208.8,161.93c-.19.46-.38.92-.58,1.38-.63,1-2.24.1-2.66-.42-1.88-2.32-4.3-1.87-5.35-.09-.88,1.51-.89,4.92.18,6,4.58,4.38,9.69,8.2,14.63,12.19,1.18,1,2.44,1.83,3.47,2.6l-7.11,4.27c-17-13.43-34.9-28-53.28-42-11.95-9.09-24.33-17.67-37-25.63-3.83-2.4-9.45-2.47-14.27-2.6a11.92,11.92,0,0,1-9.26-4c-9.55-10.12-19.44-19.92-29-30-9.85-10.44-19.65-21-29.12-31.74-8.65-9.87-16.9-20.1-25.17-30.3-4.85-6-9.41-12.2-14.06-18.34a15.32,15.32,0,0,1-1.26-2.37ZM931,878.72c-9.39-7.29-19.46-13.7-29.08-20.7-10.39-7.58-20.58-15.44-30.92-23.11-17.6-13.06-35.21-26.14-52.91-39.08-8.58-6.28-17.46-12.16-26.06-18.42-16.41-12-32.73-24.07-49.06-36.14-9-6.69-18-13.47-27.06-20.15-9.61-7.09-19.35-14-28.88-21.2-9.74-7.36-19.3-15-29.37-22.78,6.27-2.55,12-5.1,18-7.16,1.35-.46,3.65.28,4.9,1.25,11.13,8.63,22.12,17.44,33.15,26.21,8.71,6.94,17.35,14,26.12,20.84,8.53,6.67,17.18,13.19,25.79,19.77l29.16,22.3q10.72,8.19,21.48,16.36c10.86,8.27,21.66,16.61,32.59,24.78,12.72,9.49,25.64,18.72,38.31,28.28,12.93,9.74,25.69,19.71,38.49,29.62s25.81,20,38.66,30.1c4.88,3.83,9.59,7.89,14.44,11.77,3.06,2.45,2.17,5.8,1.61,8.69-.27,1.41-2.81,3.6-3.94,3.39a17.1,17.1,0,0,1-7.12-3.53C956.42,899.51,944,888.8,931,878.72ZM762.27,487.38c2.08-2.41,4.38-2.46,6.8-1,11,6.77,22,13.47,32.81,20.49a226.31,226.31,0,0,1,18.41,13.3c3.85,3.1,3.21,7.3,2.84,12.11-.35,4.51-.57,8.67-.57,8.67l-68.77-44.4C756.76,493.38,759.62,490.47,762.27,487.38Zm-199.08-87c19.26,9.11,38.66,18,57.66,27.6,20.84,10.56,41.34,21.79,61.89,32.91Q701.54,471,720,481.76c8.36,4.86,16.49,10.13,24.65,15.31.86.54,14.68,9.6,20,12.63,6.92,3.93,13.49,8.5,20.21,12.8a10.72,10.72,0,0,1-1,2.88c-2.62-1.35-3.86-2-5.75-3-6.55-3.76-12.84-7.94-19.32-11.82-8.27-4.95-16.54-9.91-25-14.59-8.75-4.87-17.66-9.45-26.53-14.08-10.79-5.63-21.5-11.42-32.46-16.69-11.8-5.67-23.77-11-35.8-16.14-15.58-6.66-31.21-13.22-47-19.39C575,423,557.81,416.79,540,410.15c6.51-3.67,12.56-7.24,18.79-10.45C559.86,399.14,561.87,399.72,563.19,400.34ZM121.61,510.4c-11-8.83-21.88-17.5-32.75-26.46-4-3.25-10.11-7.84-12-12,3.62-2.23,6.52-1.53,12,3,6.52,5.41,10.5,10,16.47,16,6.12,6.16,12,12.59,18.87,19.89C123,510.78,122.3,511,121.61,510.4ZM311,518.74a64.09,64.09,0,0,0-16.56-3.27c-11.32-.29-22.66-.41-34,0-16.91.58-33.8,1.65-50.69,2.52-5.11.26-10.21.61-15.32.84q-20.26.9-40.52,1.72a110.9,110.9,0,0,1-11.24,0c-4-.25-6.12-1.8-7.09-5.58a6,6,0,0,0-1.67-2.36q-16.52-17-33.09-33.94c-2-2-4.25-3.69-7.11-6.15,6.1-2,11.5-3.74,16.91-5.47,11.32-3.61,22.63-7.27,34-10.78,13.36-4.12,26.79-8,40.14-12.15,15.36-4.8,30.67-9.78,46-14.71,19.44-6.26,38.86-12.58,58.3-18.83,13.31-4.28,26.51-9,40-12.44,5.75-1.46,12.3-.6,18.34.26,4.08.58,7.45,1,11-1.67,2.73-2.06,6.06-3.34,9.15-4.92,4.35-2.23,4.66-3.56,1.57-7.14s-3.33-5.26.21-8.44c12.45-11.19,25-22.22,37.55-33.33,8.17-7.26,16.26-14.62,24.46-21.83s16.75-14.41,25-21.73c5.06-4.48,9.83-9.28,14.84-13.82C483.07,274.74,495,264,507.13,253.11c6.17,3.68,21.87,12.6,22.09,12.65,2.78.75,4.8-2.55,1.56-4.69a195.33,195.33,0,0,0-18.3-10.4c-3-1.55-3.61-3.22-3.22-6.85.33-3.07.07-5.1.07-9.16,7,4.33,12.49,6.69,18.37,11.1a89.1,89.1,0,0,1,14.42,13.57c4.49,5.32,16.83,21.85,19.1,25.47,3.47,5.53,4.68,7.78,3.41,13.06-3.59,14.95-7.76,32-11.36,46.93a243.9,243.9,0,0,0-4.34,24.4,37.21,37.21,0,0,0,5.68,25.7c-3,1.82-6,3.76-9.15,5.6-4.09,2.42-8,5.34-12.41,6.91-2.13.77-5.2-1-7.81-1.69a24.7,24.7,0,0,1-3.41-1.54c-9.9-3.41-32.14-13.31-84-22-14.91-1.69-29.7-1.38-44,3.5-9.06,3.09-18.26,6.15-26.72,10.53-9.42,4.88-17.85,11.56-23.32,21.06A39.25,39.25,0,0,0,339,443c1.84,12.85,7.39,24.25,14.17,35.18,1.14,1.84,5.9,9.11,7.39,10.87,3.08,3.65,5.73,7.67,8.71,11.74-6.42,3.9-12.89,8.2-19.7,11.87C341.41,517.1,337,523.52,337,532.9v3c-.06,1.09-1.06-.24-1.17-.41C329,525.59,321.24,522.68,311,518.74Zm27.36,33.51c-7.14-8-8.64-15.67-6.63-13.8,1.31,1.2,2.44,3,4,3.47,2.22.62,5.38,1.65,5.77-2.6.17-1.94,0-4.54.2-6.48.65-7.51,3.52-11.16,9-14.53,6.65-4.09,13.59-7.7,20.51-11.32a3.72,3.72,0,0,1,3.49.47c11.34,13.69,22.4,27.61,33.85,41.21,5.26,6.26,11.27,11.89,16.86,17.88,6.39,6.86,12.63,13.85,19,20.7,5.88,6.3,11.82,12.56,17.86,18.71q12.12,12.33,24.45,24.46c9.89,9.72,19.6,19.64,29.89,28.92,14.83,13.37,30.06,26.29,45.21,39.31,11.05,9.49,22.1,19,33.4,28.17,11.48,9.32,23.28,18.23,34.9,27.37,9.87,7.75,19.62,15.65,29.53,23.34,12.9,10,25.92,19.86,38.87,29.8s25.87,19.93,38.84,29.85c4.69,3.59,9.51,7,14.22,10.59q26.13,19.74,52.24,39.51c7.52,5.66,15.4,10.88,22.65,16.87a210.32,210.32,0,0,1,18.14,17.19c6.43,6.75,12.36,14,18.4,20.85-.63.87-.77,1.13-1,1.33-4.79,4.94-4.57,4.77-8.5-.44-4.69-6.24-9.74-12.23-14.77-18.21-13.06-15.52-30-26.41-46-38.46-15.62-11.78-31.13-23.7-46.83-35.37-12.86-9.55-26-18.72-38.87-28.27-11.64-8.64-23-17.62-34.61-26.32-9.08-6.81-18.38-13.33-27.46-20.16-11.59-8.71-23-17.6-34.57-26.39-8.38-6.41-16.8-12.77-25.18-19.18Q568.47,717.88,551.76,705c-11.71-9.07-23.54-18-35-27.39-7.3-6-46.56-38.76-53.29-44.57q-16.91-14.57-33.63-29.34c-4.22-3.72-8.32-7.56-12.34-11.47-12.57-12.2-25.14-24.39-37.57-36.73-6.52-6.48-12.66-13.35-19.2-19.81a5.29,5.29,0,0,0-3.06-1,1.33,1.33,0,0,0-1.45,1.63,5.62,5.62,0,0,0,1.14,2.57c13.21,13.7,26.44,27.38,39.92,40.81,7.05,7,14.6,13.55,21.92,20.31,7.47,6.89,14.82,13.92,22.44,20.64,9.66,8.52,19.56,16.76,29.3,25.18,7.45,6.44,31.82,26.73,36.56,30.43q29.57,23.09,59.08,46.23c13.75,10.79,27.34,21.78,41.2,32.43,10.36,8,21.1,15.42,31.54,23.27,14.75,11.07,29.32,22.38,44.07,33.45,11.89,8.92,24,17.59,35.93,26.44,16.72,12.38,33.39,24.85,50.1,37.25,10.05,7.46,20.24,14.73,30.18,22.33,9.67,7.41,19.41,14.77,28.5,22.86,6,5.34,10.81,12,16.22,18.07a.35.35,0,0,1-.46.51q-16.61-11.76-33.21-23.51c-15.62-11-31.3-21.92-46.85-33q-20.09-14.29-39.95-28.91c-9.52-7-18.84-14.21-28.34-21.21-8.12-6-16.4-11.75-24.54-17.7-10-7.31-19.86-14.77-29.86-22.06-7.94-5.8-16.07-11.33-24-17.19-10.84-8.05-21.49-16.37-32.31-24.47-16.77-12.56-33.66-25-50.39-37.56C522,704,509.55,694.54,497.33,684.81c-10.5-8.36-20.73-17.06-31-25.7-9.64-8.1-19.28-16.21-28.75-24.5-5.4-4.73-10.59-9.73-15.69-14.79-13.6-13.47-26.79-27.35-40.73-40.44-9.66-9.07-20.15-17.3-30.59-25.51C347,551.05,343.07,548.59,338.32,552.25Zm84.17,117.9c-10.23-14.43-20.28-29-30.42-43.48-9.81-14-19.74-28-29.49-42.09a146.56,146.56,0,0,1-10.93-18.44c3.31,2.68,6.93,5.07,9.88,8.11C372,585,382.22,596.1,392.67,606.91c7.92,8.19,15.87,16.35,24.16,24.15,13.51,12.7,27,25.47,41.08,37.52,13.16,11.25,27.1,21.6,40.68,32.35,13.92,11,27.76,22.15,41.79,33,7.32,5.68,15,10.92,22.47,16.41C578.94,762.17,595,774,611.1,785.81c12.6,9.2,25.27,18.29,37.91,27.45q12.27,8.9,24.53,17.84c11,8,22,16.15,33,24.19q18.69,13.63,37.43,27.19c4.31,3.13,8.7,6.16,13.1,9.17,5,3.4,6.51,8.77,8,14.38-8.6-6.26-17.22-12.48-25.79-18.77-7.93-5.83-15.81-11.73-23.7-17.62-16.89-12.61-33.7-25.33-50.68-37.83-10.85-8-22-15.53-32.91-23.49C618.2,798.27,604.65,788,591,777.8c-13-9.67-26-19.25-38.86-29-12.22-9.28-24.24-18.83-36.43-28.15-8.49-6.49-17.13-12.78-25.68-19.19-7.32-5.47-14.72-10.85-21.84-16.56-2.12-1.7-15.54-9.36-20.38-11.24-6.5-1.65-13.63-3.35-21-.76C425.78,673.24,423.44,671.48,422.49,670.15ZM591.11,799.79a80.81,80.81,0,0,1-7.74-5.7c-4.29-3.75-8-5.37-10.35-5.94-3.5-.83-18.46,0-26.53.37-13.85.62-27.66,1.12-41.49,2.15-6.53.49-13.09.58-19.62.92-16.18.84-27.59,1.95-43.76,2.92-5.36.32-17.57.69-22.92.92-10.64.44-18.13-1-26.48-7.86-13.38-11.05-26.88-22-40.35-32.92-1.43-1.16-3-2.16-4.53-3.23l.58-1.65c3-1.46,6-3.19,9.14-4.34,18.36-6.72,37.59-12.91,56-19.56,8.54-3.09,17.32-6.19,25.72-9.62a182.26,182.26,0,0,0,26.21-13c1.37-.81,4-.38,5.33.5q10.08,6.51,19.76,13.63c7.7,5.68,15.21,11.63,22.77,17.5,9.1,7.06,18.12,14.22,27.24,21.25,8.25,6.35,16.63,12.54,24.88,18.89,9.14,7,18.19,14.19,27.29,21.3C592.14,796.54,591.19,799.53,591.11,799.79ZM770.27,934.44a1.4,1.4,0,0,1-1.51.59c-10-2.56-17-9.56-24.69-15.41-9.87-7.49-19.57-15.2-29.33-22.83-11.21-8.75-22.38-17.54-33.61-26.27q-11.14-8.68-22.41-17.23c-10.46-8-21.06-15.76-31.4-23.87-10.87-8.53-21.51-17.36-32.25-26-.76-.62-1.57-1.17-2.47-1.83.39-1.1.79-2.24,1.31-3.73,6.43,4.73,12.83,9.29,19.09,14.06,13,9.89,25.86,19.91,38.83,29.83q20.77,15.88,41.64,31.66c8.08,6.11,16.23,12.12,24.34,18.17q19.94,14.88,39.86,29.75c3.15,2.34,6.52,4.42,9.47,7C769,929.87,772.09,931.48,770.27,934.44ZM1041.68,1175c1.14-6.12-3.28-6.73-6.69-7-6.55-.52-35.44-.11-35.9-.1-5.34.21-9.1.46-11.38,2.18-.67.5-1.35,3.63-2,5.18-7.05-.69-13.94-3-21.12-3.32-6.78-.35-13.6-.11-20.41-.08-2.56,0-5.12.23-7.69.27-18.44.3-36.88.54-55.32.88q-17.56.33-35.11.87c-6.4.19-12.79.78-19.19.78a38.85,38.85,0,0,1-23.38-7.26c-9.55-7-18.79-14.38-28-21.86-12.49-10.18-24.79-20.59-37.15-30.92a47.93,47.93,0,0,1-5.84-5.25c-1.25-1.47-1.58-3.66-1.11-4.67,2.78-.51,4.16-.07,5.8-1.25,3.87-2.76,7.74-2,11.91-1.55,5,.58,13.36-1.74,16.4-7.29,2-3.58,1.13-11-1.69-14l-2.18-2.35a.75.75,0,0,1,.67-1.25c5.54.86,10.14,1.45,15.6,2.32,10.55,1.67,21.11,2.51,31.65,4.2,7.63,1.22,23.15,4,25.29,4.21a2.29,2.29,0,0,0,2-1,2.57,2.57,0,0,0-.4-3.08,2,2,0,0,0-1.14-.86c-12.38-1.88-23.93-4.37-36.31-6.18-2.16-.31-6-1.15-6-1.15,11.2-5,20-9.54,30.62-14.3,5.48-2.47,11.25-4.53,16.26-7.75,5.67-3.66,10-2.18,15,1.07,11,7.15,22.29,14,34.18,21.35-5.42,1.84-10.26,3.51-15.11,5.12-2.78.92-5.72,1.49-8.34,2.73a4.24,4.24,0,0,0-1.57,1.67,1.87,1.87,0,0,0,1.06,2.73,3.15,3.15,0,0,0,1.82.15c8.15-2.45,16.34-4.87,24.27-7.94,2.81-1.09,4.63-.21,6.52,1,18,11.21,35.87,22.59,53.87,33.77,6.66,4.13,27.81,16.28,36.07,20.79a1.58,1.58,0,0,0,.29.22c8.67,5.15,17.62,9.82,26.2,15.12,7.45,4.6,31.31,17.84,31.81,18.55a43.67,43.67,0,0,1,2.31,4.21Zm78.61,21.82c-10.81-4.93-21.61-9.9-32.34-15-2.18-1-10.92-5.38-13.23-6.29-1.66-.65-17.27-6-18.59-6.66-2.57-1.37-37.14-21-37.82-21.38-9.3-5.23-28-15.69-28-15.71-13.72-8.42-42.09-24.94-55.13-33-17.25-10.72-34.3-21.78-51.56-32.51-10.82-6.73-21.9-13.06-32.76-19.73a6.57,6.57,0,0,1-2.67-3.92c-1.72-8.69-5.59-16.43-10.26-23.81-10.06-15.89-20.22-31.71-30.32-47.58-6.52-10.25-12.54-20.87-19.69-30.65-4-5.41-9.47-9.86-14.85-14-15.81-12.2-31.87-24.08-47.89-36-15.12-11.24-30.4-22.25-45.44-33.59-9.79-7.37-19.18-15.29-29-22.69-11.76-8.92-23.85-17.41-35.59-26.36-12.33-9.39-24.38-19.15-36.61-28.68-11.55-9-23.19-17.9-34.77-26.87-10.12-7.85-20.18-15.79-30.33-23.61q-12.72-9.78-25.59-19.37c-4.5-3.35-8.89-7-13.85-9.53-8.67-4.36-17.87-7.38-27.8-4.7-3.85,1-6.36.4-8.74-3.2-3-4.54-6.88-8.49-10.54-12.87,5.85-3.5,11.34-2.79,17-1,11.25,3.45,20.52,10.33,29.79,17.11S491.87,709,500.91,716c9.8,7.57,19.58,15.15,29.43,22.66,6,4.61,12.21,9,18.25,13.62,9.31,7.07,18.48,14.3,27.85,21.27,9.92,7.38,20.06,14.46,30,21.81,16.29,12,32.47,24.22,48.72,36.31,12.19,9.06,24.43,18,36.64,27.08s24.13,18,36.27,26.86c11.46,8.38,23,16.64,34.53,24.92a74.05,74.05,0,0,0,7.38,4.81,3,3,0,0,0,3.79-3.54c-3.12-6.84-5-14.37-9.53-20.65a.52.52,0,0,1,.73-.73c3.62,2.54,7.25,5.08,10.83,7.69,4.53,3.3,10.33,5.58,10.46,12.58,0,.45.56,1,1,1.31,9.18,6.1,18.44,12.07,27.54,18.29A208.2,208.2,0,0,1,833.47,944a61.73,61.73,0,0,1,16,18.21,60.62,60.62,0,0,1-5.81-3.22c-9.39-6.69-18.75-13.41-28-20.25-4.36-3.21-8.46-6.8-12.81-10a4,4,0,0,0-3.42-.43c-.55.23-1,2.59-.51,3.07a98.63,98.63,0,0,0,10.1,9.41c6,4.63,12.27,8.94,18.49,13.28s12.6,8.83,19.15,12.86c1,.59,3.24-1,5.26-1.65,4.72,8.11,9.8,17.14,15.16,26,6.24,10.32,12.38,20.71,19.14,30.69,10.17,15,20.57,29.84,31.43,44.34,3.71,5,8.9,8.89,13.77,12.86,14.31,11.71,31,19.61,46.88,28.86,15.28,8.92,31.23,16.69,46.93,24.89,20.84,10.88,41.66,21.8,62.6,32.48,9.55,4.86,19.53,8.88,29,13.89,6.7,3.55,11.21,9.64,15.3,16,2,3.18,4.48,6.12,7.33,10C1132.46,1202.15,1126.33,1199.58,1120.29,1196.82Zm40.87,13.09c6.92-.05,33.51,10.77,45.95,18.53C1205.15,1233.89,1160.3,1217.11,1161.16,1209.91Zm163.31,54.92c-35.3.81-66.9-12.45-98.27-23.85-4.67-1.92-15.13-4.72-13.29-7.14,1.33-1.52,3.46-3,3.23-3.88a8,8,0,0,0-3.51-4.16c-16.08-9.63-33.16-16.88-51.53-20.79-2.09-.45-4.81.42-6.73,1.55-.76.45-.12,3.27-.12,5.07a69.35,69.35,0,0,0-8.71-3.52c-.17-.06-1.37-1.25-1.27-1.41,1.4-2.28-1.69-5.39-3.09-7.45a206.85,206.85,0,0,0-14.64-19.1c-2.46-2.82-2.37-7.7,1.49-7.28,6.13.68,7-7.85,5.81-10.46-3.19-7.32-6.75-14.51-10.51-21.56-7-13.07-14.35-25.95-21.31-39-9.47-17.8-18.41-35.89-28.13-53.55-8.23-14.94-16.61-29.88-26.09-44-8.19-12.25-17.66-23.73-27.22-35-8.48-10-17.6-19.47-26.92-28.68-7.49-7.39-15.54-14.21-23-20.83a.68.68,0,0,1,.64-1.17,13.21,13.21,0,0,0,5.9.75c2.84-.53,5.27-3.24,8.22-5.23,3.71,2,7.19,6.74,13.17,6.92a3.48,3.48,0,0,1,2.31,1.13c7.46,9.58,15,19.11,22.23,28.86,8.62,11.62,17.21,23.29,25.35,35.25,6.37,9.37,12.28,19.07,18,28.88,11.69,20.12,22.94,40.51,34.78,60.54,2,3.32,5.83,5.64,9.11,8,7,5.06,14.37,9.72,21.41,14.77,20.87,15,41.73,30,62.39,45.25,3.19,2.36,5.63,6,7.85,9.39,9.26,14.22,18.27,28.62,27.44,42.9q15.66,24.42,31.49,48.73a7.27,7.27,0,0,0,3.69,3c14.09,3.61,28.21,7.12,42.38,10.41,6,1.4,12.15,2.21,18.45,3.33C1335.67,1262.73,1333.33,1264,1324.47,1264.83Z"/></g><g id="Thruster"><path d="M758.17,1086.85a16.66,16.66,0,0,0-4-2.18c-4-1.47-11.46,1.35-12.6,4.63-.79,2.27,2.16,5.61,6.2,6.87a15.06,15.06,0,0,0,2.95.33c.16.27,5.94-1.73,8.26-3.53C761.6,1090.9,760.52,1088.57,758.17,1086.85Z" fill="#007aff"/></g></g></svg>