<svg xmlns="http://www.w3.org/2000/svg" viewBox="0 0 1500 1500"><title>Eagle Mk II</title><g id="Eagle_Mk_II" data-name="Eagle Mk II"><g id="Colour"><path d="M1351.67,1141.29c-2.29-3.63-5.55-6.63-8.06-10.14-16.19-22.65-32.18-45.43-48.42-68q-16.68-23.2-33.9-46c-4.12-5.48-8.88-10.49-13.39-15.69-12-13.82-23.86-27.72-36-41.41-8.57-9.66-17.27-19.22-26.3-28.45-8.42-8.61-17.4-16.66-26-25.12-1.18-1.17-29.69-32.87-30.72-34-9.73-10.34-19.53-20.62-28.9-31.28-2.28-2.6-18.76-22.27-21.38-26.35a83.1,83.1,0,0,0-11.83-14.07c-2.38-2.34-19.26-19.76-23-23.53-10.35-10.53-19.95-21.81-29.81-32.82a22.37,22.37,0,0,1-3.6-4.69c-3.79-7.65-7.69-15.27-11-23.13a181.38,181.38,0,0,1-7.22-20.76c-2.37-8.4-4.11-17-6.08-25.5-.38-1.63-1.37-3.8-.7-4.88,4.55-7.45,1.37-14.21-1.2-21.16-1-2.65-2.42-5.86-1.71-8.24,1.88-6.29,1-11.9-2.83-16.78-2.32-3-1.41-4.78.53-6.93,3.65-4.05,7.72-7.79,10.89-12.18,3.48-4.83,6.15-10.25,10.11-17,9-2.88,20.2-6.38,31.36-10.1,25.61-8.53,51.13-17.32,76.82-25.56,3.49-1.12,8.44-.94,11.59.74,7.39,4,13.92,9.49,21.14,13.81,4.24,2.53,9.36,6,13.71,5.52,15.66-1.68,31.24-4.41,46.69-7.55,22-4.48,44-9.1,66.61-7.32,8.39.66,13.09-2.56,15.76-10.34,1.38-4,.72-6.46-2.76-8.57-4.3-2.61-8.42-5.51-12.79-8a20.44,20.44,0,0,0-7.44-2.8c-6.12-.71-12.37-.46-18.45-1.35-4.7-.68-9.66-1.74-13.76-4-11.17-6.1-21.88-13-32.9-19.43q-22.72-13.19-45.69-26c-4-2.2-5-5.52-3.62-9,2-5,.07-7.45-4-9.59-3.46-1.82-6.75-3.95-10.18-5.83-7.18-3.94-7.18-3.89-12.34,2.74a17,17,0,0,1-2.49,2.15c-19.68-11.81-39.27-23.19-58.46-35.22-13.43-8.41-27.63-15.34-40-25.8-8.69-7.32-19.49-13.21-32.7-13.3-18.41-.14-36.81-2.64-55.22-4-7.43-.55-14.9-.61-22.32-1.24-15.49-1.3-30.93-3.37-46.44-4.11-11.25-.53-22.59.46-33.88.95-14.34.63-28.67,1.58-43,2.13s-28.82.79-43.23,1.13c-1.64,0-3.49.27-4.88-.38-14.85-6.94-29.59-14.12-44.44-21.08-7.35-3.45-13.39-9.24-22-10.67-4.53-.75-8.12-.4-11.74,1.77q-13.15,7.91-26.2,16c-12.11,7.5-26.43,12.37-32.15,27.65-4.21-2.77-7.83-5.29-11.59-7.59-3.6-2.2-6.89-2.08-10.31,1-1.32,1.2-4.14,1.26-6.18,1-2.52-.29-99.08-4.09-119.18-4.29-1.46,0-4.15,1.57-4.22,2.55-.53,7.49-6.11,5.08-9.81,4.87-13.74-.78-27.43-2.36-41.16-3-7.23-.34-14.54.4-21.76,1.15a6.42,6.42,0,0,0-4.42,3.73q-6.54,21.51-12.45,43.2c-1.52,5.54-6.77,11.29-10.35,9.81-4.85-2-6.68-.1-8.61,4.06C328,472.8,314,502.42,300.2,532.18c-1.68,3.63-2.15,7.82-3.33,11.71-.49,1.64-1,3.72-2.16,4.62-7.21,5.41-7.95,7.09-5.75,15.66-1.36.34-2.9.38-4,1.07-17.65,10.56-35,21.59-53,31.66-9.49,5.33-13.28,14.88-19.47,22.65-1.32,1.66-1.38,4.88-1,7.24a172.27,172.27,0,0,0,4.21,21.59c1.88,6.58,0,15,8.16,19,.47.23.63,1.75.44,2.56-1.61,6.76-2.5,13.84-5.19,20.16-4.72,11.11-10.46,21.79-15.93,32.57-9.21,18.16-18.65,36.2-27.76,54.41-4.46,8.92-9.35,17.8-12.3,27.25-3.4,10.89-4.72,22.41-7.2,33.6-3.33,15-7,29.88-10.35,44.86-4.53,20.27-9.37,40.48-13.13,60.9-1.76,9.52-.61,18.75,9,25.32,6.24,4.27,12.3,8.91,18.42,13.3,14.36,10.31,26.86,23.21,40.21,35,6.78,6,13.9,11.55,20.65,17.56,6.6,5.86,12.93,12,19.8,18.48-2,.76-3.19,1.13-4.29,1.62-10.52,4.73-11.43,10.15-3.11,18.51,3.49,3.51,7.12,6.9,10.47,10.53,5.95,6.43,12.46,8.53,20.53,3.79,2.58-1.51,5.64-2.27,8.55-3.15,1.06-.32,2.75-.5,3.4.08,7.09,6.42,14.2,12.83,20.94,19.6,3.64,3.66,56,50.89,59.24,53.42,2.1,1.66,5,4.17,5,6.28,0,5.1-1.69,10.18-2.47,15.3-.82,5.37-.51,10.7,3.75,14.66,5.57,5.18,11.31,10.21,17.25,14.95,3.94,3.15,8,2.07,10-2.81a82.5,82.5,0,0,0,4-13.88c4-18.55,7.7-37.17,11.79-55.7,2.43-11,10.91-56.57,11.23-68.47.57-20.64,10.54-36.73,23.23-51.76q9.28-11,18.52-22,13.38-16,26.72-32c8.43-10.13,16.79-20.31,25.25-30.42,6.74-8,13.45-16.11,20.49-23.89,1.35-1.5,4.13-2.25,6.3-2.35,4.74-.22,9.89,1.44,14.21.13,12.3-3.72,24.25-8.55,36.36-12.91,4.14-1.49,8.28-3.81,12.51-4,3.9-.21,8.06,1.51,11.85,3,5.74,2.28,11.09,1.81,16.64-.54a21.42,21.42,0,0,1,7.74-1.64c13.54-.29,27,5.33,40.63.8.73-.24,1.71.4,2.59.48,13.3,1.3,26.62,2.53,39.92,3.86,9.2.92,18.46,1.6,27.58,3.1,8.46,1.38,16.72,4.93,25.16,5.25a115.2,115.2,0,0,1,19.35,2.61c3.86.8,7.66,1.21,7,6.84-.15,1.18,1.27,3.1,2.48,3.85,10.5,6.47,21,13,31.74,19,14,7.9,28.3,15.39,42.45,23.1,1.08.59,28.43,16.5,34.06,20.42,6.72,4.69,27.59,16.28,29.05,17.15,11.82,7.08,23.23,14.92,35.39,21.35,13.13,6.94,24.44,16.57,39.1,21.56,16.1,5.47,30.71,15.31,45.94,23.29,4.44,2.33,7.87,5.4,8.15,11,.06,1.07,1.39,2.44,2.48,3q16.76,8.91,33.63,17.57c10.06,5.17,20.34,9.91,30.21,15.42a24.15,24.15,0,0,0,17.14,2.73c1.87-.36,4-1.35,5.6-.79,11.94,4.24,23.7,9,35.65,13.19,20.39,7.21,40.92,14,61.27,21.33,4.54,1.63,9.33,3.1,12.29,8.07a16.13,16.13,0,0,0,8.74,6.86c13,3.45,26.14,6,39.2,9,5.7,1.34,11,.92,15.88-2.37,1.57-1.06,2.48-3.5,4.1-4,8.58-2.69,13.15-9.78,18.22-16.23A6.26,6.26,0,0,0,1351.67,1141.29Z" fill="#1d5223"/><path d="M1351.67,1141.29c-2.29-3.63-5.55-6.63-8.06-10.14-16.19-22.65-32.18-45.43-48.42-68q-16.68-23.2-33.9-46c-4.12-5.48-8.88-10.49-13.39-15.69-12-13.82-23.86-27.72-36-41.41-8.57-9.66-17.27-19.22-26.3-28.45-8.42-8.61-17.4-16.66-26-25.12-1.18-1.17-29.69-32.87-30.72-34-9.73-10.34-19.53-20.62-28.9-31.28-2.28-2.6-18.76-22.27-21.38-26.35a83.1,83.1,0,0,0-11.83-14.07c-2.38-2.34-19.26-19.76-23-23.53-10.35-10.53-19.95-21.81-29.81-32.82a22.37,22.37,0,0,1-3.6-4.69c-3.79-7.65-7.69-15.27-11-23.13a181.38,181.38,0,0,1-7.22-20.76c-2.37-8.4-4.11-17-6.08-25.5-.38-1.63-1.37-3.8-.7-4.88,4.55-7.45,1.37-14.21-1.2-21.16-1-2.65-2.42-5.86-1.71-8.24,1.88-6.29,1-11.9-2.83-16.78-2.32-3-1.41-4.78.53-6.93,3.65-4.05,7.72-7.79,10.89-12.18,3.48-4.83,6.15-10.25,10.11-17,9-2.88,20.2-6.38,31.36-10.1,25.61-8.53,51.13-17.32,76.82-25.56,3.49-1.12,8.44-.94,11.59.74,7.39,4,13.92,9.49,21.14,13.81,4.24,2.53,9.36,6,13.71,5.52,15.66-1.68,31.24-4.41,46.69-7.55,22-4.48,44-9.1,66.61-7.32,8.39.66,13.09-2.56,15.76-10.34,1.38-4,.72-6.46-2.76-8.57-4.3-2.61-8.42-5.51-12.79-8a20.44,20.44,0,0,0-7.44-2.8c-6.12-.71-12.37-.46-18.45-1.35-4.7-.68-9.66-1.74-13.76-4-11.17-6.1-21.88-13-32.9-19.43q-22.72-13.19-45.69-26c-4-2.2-5-5.52-3.62-9,2-5,.07-7.45-4-9.59-3.46-1.82-6.75-3.95-10.18-5.83-7.18-3.94-7.18-3.89-12.34,2.74a17,17,0,0,1-2.49,2.15c-19.68-11.81-39.27-23.19-58.46-35.22-13.43-8.41-27.63-15.34-40-25.8-8.69-7.32-19.49-13.21-32.7-13.3-18.41-.14-36.81-2.64-55.22-4-7.43-.55-14.9-.61-22.32-1.24-15.49-1.3-30.93-3.37-46.44-4.11-11.25-.53-22.59.46-33.88.95-14.34.63-28.67,1.58-43,2.13s-28.82.79-43.23,1.13c-1.64,0-3.49.27-4.88-.38-14.85-6.94-29.59-14.12-44.44-21.08-7.35-3.45-13.39-9.24-22-10.67-4.53-.75-8.12-.4-11.74,1.77q-13.15,7.91-26.2,16c-12.11,7.5-26.43,12.37-32.15,27.65-4.21-2.77-7.83-5.29-11.59-7.59-3.6-2.2-6.89-2.08-10.31,1-1.32,1.2-4.14,1.26-6.18,1-2.52-.29-99.08-4.09-119.18-4.29-1.46,0-4.15,1.57-4.22,2.55-.53,7.49-6.11,5.08-9.81,4.87-13.74-.78-27.43-2.36-41.16-3-7.23-.34-14.54.4-21.76,1.15a6.42,6.42,0,0,0-4.42,3.73q-6.54,21.51-12.45,43.2c-1.52,5.54-6.77,11.29-10.35,9.81-4.85-2-6.68-.1-8.61,4.06C328,472.8,314,502.42,300.2,532.18c-1.68,3.63-2.15,7.82-3.33,11.71-.49,1.64-1,3.72-2.16,4.62-7.21,5.41-7.95,7.09-5.75,15.66-1.36.34-2.9.38-4,1.07-17.65,10.56-35,21.59-53,31.66-9.49,5.33-13.28,14.88-19.47,22.65-1.32,1.66-1.38,4.88-1,7.24a172.27,172.27,0,0,0,4.21,21.59c1.88,6.58,0,15,8.16,19,.47.23.63,1.75.44,2.56-1.61,6.76-2.5,13.84-5.19,20.16-4.72,11.11-10.46,21.79-15.93,32.57-9.21,18.16-18.65,36.2-27.76,54.41-4.46,8.92-9.35,17.8-12.3,27.25-3.4,10.89-4.72,22.41-7.2,33.6-3.33,15-7,29.88-10.35,44.86-4.53,20.27-9.37,40.48-13.13,60.9-1.76,9.52-.61,18.75,9,25.32,6.24,4.27,12.3,8.91,18.42,13.3,14.36,10.31,26.86,23.21,40.21,35,6.78,6,13.9,11.55,20.65,17.56,6.6,5.86,12.93,12,19.8,18.48-2,.76-3.19,1.13-4.29,1.62-10.52,4.73-11.43,10.15-3.11,18.51,3.49,3.51,7.12,6.9,10.47,10.53,5.95,6.43,12.46,8.53,20.53,3.79,2.58-1.51,5.64-2.27,8.55-3.15,1.06-.32,2.75-.5,3.4.08,7.09,6.42,14.2,12.83,20.94,19.6,3.64,3.66,56,50.89,59.24,53.42,2.1,1.66,5,4.17,5,6.28,0,5.1-1.69,10.18-2.47,15.3-.82,5.37-.51,10.7,3.75,14.66,5.57,5.18,11.31,10.21,17.25,14.95,3.94,3.15,8,2.07,10-2.81a82.5,82.5,0,0,0,4-13.88c4-18.55,7.7-37.17,11.79-55.7,2.43-11,10.91-56.57,11.23-68.47.57-20.64,10.54-36.73,23.23-51.76q9.28-11,18.52-22,13.38-16,26.72-32c8.43-10.13,16.79-20.31,25.25-30.42,6.74-8,13.45-16.11,20.49-23.89,1.35-1.5,4.13-2.25,6.3-2.35,4.74-.22,9.89,1.44,14.21.13,12.3-3.72,24.25-8.55,36.36-12.91,4.14-1.49,8.28-3.81,12.51-4,3.9-.21,8.06,1.51,11.85,3,5.74,2.28,11.09,1.81,16.64-.54a21.42,21.42,0,0,1,7.74-1.64c13.54-.29,27,5.33,40.63.8.73-.24,1.71.4,2.59.48,13.3,1.3,26.62,2.53,39.92,3.86,9.2.92,18.46,1.6,27.58,3.1,8.46,1.38,16.72,4.93,25.16,5.25a115.2,115.2,0,0,1,19.35,2.61c3.86.8,7.66,1.21,7,6.84-.15,1.18,1.27,3.1,2.48,3.85,10.5,6.47,21,13,31.74,19,14,7.9,28.3,15.39,42.45,23.1,1.08.59,28.43,16.5,34.06,20.42,6.72,4.69,27.59,16.28,29.05,17.15,11.82,7.08,23.23,14.92,35.39,21.35,13.13,6.94,24.44,16.57,39.1,21.56,16.1,5.47,30.71,15.31,45.94,23.29,4.44,2.33,7.87,5.4,8.15,11,.06,1.07,1.39,2.44,2.48,3q16.76,8.91,33.63,17.57c10.06,5.17,20.34,9.91,30.21,15.42a24.15,24.15,0,0,0,17.14,2.73c1.87-.36,4-1.35,5.6-.79,11.94,4.24,23.7,9,35.65,13.19,20.39,7.21,40.92,14,61.27,21.33,4.54,1.63,9.33,3.1,12.29,8.07a16.13,16.13,0,0,0,8.74,6.86c13,3.45,26.14,6,39.2,9,5.7,1.34,11,.92,15.88-2.37,1.57-1.06,2.48-3.5,4.1-4,8.58-2.69,13.15-9.78,18.22-16.23A6.26,6.26,0,0,0,1351.67,1141.29Z" fill="none" stroke="#000" stroke-linejoin="round" stroke-width="8"/></g><g id="_2nd_Colour" data-name="2nd Colour"><path d="M719.64,541.09,633.1,490l-25-34.37L507.67,403.37,390.33,394,379.1,478.21l91.2,52.68,5.78,10.2,76.81,9.8L603.77,609l77.73,65.93s22.74-35.45,51.25-54.47,63.38-30.4,63.38-30.4Z" fill="#36843c"/></g><g id="Canopy"><path d="M1221,1009.33c-.67-4.33-37.33-60-87.71-108.94s-63.29-34.39-71-33.33c0,0-54.63,21.27-54,33.37s30.92,48.11,46,62.58,138.34,71.32,144,69.66S1221.67,1013.67,1221,1009.33Z" fill="#82b3d1"/></g><g id="Grey"><path d="M769.13,880.69c-86.91-32.8-148.37-51.91-150.91-58.8-2.66-7.21-20-2.53-20.11-2.44C566,827,521.33,891,530.67,894.42c10.68,4.13,37.83-9.44,39.33-9.22,3.7.55,40.09,0,82.44,1.58,55.13,2.05,59.55,2.36,108.23,6.22C767,894.55,778,884.16,769.13,880.69Zm22.49-290.32s-39.24,16.86-63.47,33.06-47.26,50.68-47.26,50.68l7,34,37.4,14.27,13.38-1.47,143.93,59.46c27.4,11.32,78.44,17.5,49.49-32.69C856,615.78,791.62,590.37,791.62,590.37Zm200.16-9.59c-1.11-3.55-4.22-4.45-11.56-5.8s-34,5.8-41.55,8.69-17.11,10-18.67,15.77,9.56,7.34,13.56,10.45,4.41,12.68,8.83,20.38c14.35,25,45.28,87.62,42.72,53.17-3.36-45.28-12.22-75.77-14.78-79.77S992.74,583.87,991.78,580.78Z" fill="#5e676d"/></g><g id="Shadows" opacity="0.2"><path d="M1204.66,1043.11l-89.07-100.62-73.34-62.29-145-96-41-17.22s-44.6-68.67-149.53-145.06S575.07,536,547,528.39l-36.09-33.25-143-79.31-10,31.37,9.47,14.86,12.78,13.64,87.07,50.86,3,11.63,35.77,4.65s40.43,66.81,116,133.09c59.6,52.3,209.18,126.88,209.18,126.88l84.05,83,159.25,167s80.24,47.84,129.91,65.3L1329,1161.75ZM575.74,861.19c-15.37,3.1-54.8,27.5-54.8,27.5v7.59l20.72,4.11,58.14-16.5,137.68,12.39,54.81-3.16S591.12,858.09,575.74,861.19Zm-405,68.15c-16.7-15.83-10-50.34-3.08-89.08s0-29.43,0-29.43L139.57,926l-6.75,32.5L241.6,1052,229,1064.6l15.7,18,30.17-5.11,79.68,65.5,2.44-11.76c2.45-11.76-5.78-31.68-11.13-38.37S187.43,945.17,170.72,929.34Z" fill="#111"/></g><g id="Outline"><path d="M1351.67,1141.29c-2.29-3.63-5.55-6.63-8.06-10.14-16.19-22.65-32.18-45.43-48.42-68q-16.68-23.2-33.9-46c-4.12-5.48-8.88-10.49-13.39-15.69-12-13.82-23.86-27.72-36-41.41-8.57-9.66-17.27-19.22-26.3-28.45-8.42-8.61-17.4-16.66-26-25.12-1.18-1.17-29.69-32.87-30.72-34-9.73-10.34-19.53-20.62-28.9-31.28-2.28-2.6-18.76-22.27-21.38-26.35a83.1,83.1,0,0,0-11.83-14.07c-2.38-2.34-19.26-19.76-23-23.53-10.35-10.53-19.95-21.81-29.81-32.82a22.37,22.37,0,0,1-3.6-4.69c-3.79-7.65-7.69-15.27-11-23.13a181.38,181.38,0,0,1-7.22-20.76c-2.37-8.4-4.11-17-6.08-25.5-.38-1.63-1.37-3.8-.7-4.88,4.55-7.45,1.37-14.21-1.2-21.16-1-2.65-2.42-5.86-1.71-8.24,1.88-6.29,1-11.9-2.83-16.78-2.32-3-1.41-4.78.53-6.93,3.65-4.05,7.72-7.79,10.89-12.18,3.48-4.83,6.15-10.25,10.11-17,9-2.88,20.2-6.38,31.36-10.1,25.61-8.53,51.13-17.32,76.82-25.56,3.49-1.12,8.44-.94,11.59.74,7.39,4,13.92,9.49,21.14,13.81,4.24,2.53,9.36,6,13.71,5.52,15.66-1.68,31.24-4.41,46.69-7.55,22-4.48,44-9.1,66.61-7.32,8.39.66,13.09-2.56,15.76-10.34,1.38-4,.72-6.46-2.76-8.57-4.3-2.61-8.42-5.51-12.79-8a20.44,20.44,0,0,0-7.44-2.8c-6.12-.71-12.37-.46-18.45-1.35-4.7-.68-9.66-1.74-13.76-4-11.17-6.1-21.88-13-32.9-19.43q-22.72-13.19-45.69-26c-4-2.2-5-5.52-3.62-9,2-5,.07-7.45-4-9.59-3.46-1.82-6.75-3.95-10.18-5.83-7.18-3.94-7.18-3.89-12.34,2.74a17,17,0,0,1-2.49,2.15c-19.68-11.81-39.27-23.19-58.46-35.22-13.43-8.41-27.63-15.34-40-25.8-8.69-7.32-19.49-13.21-32.7-13.3-18.41-.14-36.81-2.64-55.22-4-7.43-.55-14.9-.61-22.32-1.24-15.49-1.3-30.93-3.37-46.44-4.11-11.25-.53-22.59.46-33.88.95-14.34.63-28.67,1.58-43,2.13s-28.82.79-43.23,1.13c-1.64,0-3.49.27-4.88-.38-14.85-6.94-29.59-14.12-44.44-21.08-7.35-3.45-13.39-9.24-22-10.67-4.53-.75-8.12-.4-11.74,1.77q-13.15,7.91-26.2,16c-12.11,7.5-26.43,12.37-32.15,27.65-4.21-2.77-7.83-5.29-11.59-7.59-3.6-2.2-6.89-2.08-10.31,1-1.32,1.2-4.14,1.26-6.18,1-2.52-.29-99.08-4.09-119.18-4.29-1.46,0-4.15,1.57-4.22,2.55-.53,7.49-6.11,5.08-9.81,4.87-13.74-.78-27.43-2.36-41.16-3-7.23-.34-14.54.4-21.76,1.15a6.42,6.42,0,0,0-4.42,3.73q-6.54,21.51-12.45,43.2c-1.52,5.54-6.77,11.29-10.35,9.81-4.85-2-6.68-.1-8.61,4.06C328,472.8,314,502.42,300.2,532.18c-1.68,3.63-2.15,7.82-3.33,11.71-.49,1.64-1,3.72-2.16,4.62-7.21,5.41-7.95,7.09-5.75,15.66-1.36.34-2.9.38-4,1.07-17.65,10.56-35,21.59-53,31.66-9.49,5.33-13.28,14.88-19.47,22.65-1.32,1.66-1.38,4.88-1,7.24a172.27,172.27,0,0,0,4.21,21.59c1.88,6.58,0,15,8.16,19,.47.23.63,1.75.44,2.56-1.61,6.76-2.5,13.84-5.19,20.16-4.72,11.11-10.46,21.79-15.93,32.57-9.21,18.16-18.65,36.2-27.76,54.41-4.46,8.92-9.35,17.8-12.3,27.25-3.4,10.89-4.72,22.41-7.2,33.6-3.33,15-7,29.88-10.35,44.86-4.53,20.27-9.37,40.48-13.13,60.9-1.76,9.52-.61,18.75,9,25.32,6.24,4.27,12.3,8.91,18.42,13.3,14.36,10.31,26.86,23.21,40.21,35,6.78,6,13.9,11.55,20.65,17.56,6.6,5.86,12.93,12,19.8,18.48-2,.76-3.19,1.13-4.29,1.62-10.52,4.73-11.43,10.15-3.11,18.51,3.49,3.51,7.12,6.9,10.47,10.53,5.95,6.43,12.46,8.53,20.53,3.79,2.58-1.51,5.64-2.27,8.55-3.15,1.06-.32,2.75-.5,3.4.08,7.09,6.42,14.2,12.83,20.94,19.6,3.64,3.66,56,50.89,59.24,53.42,2.1,1.66,5,4.17,5,6.28,0,5.1-1.69,10.18-2.47,15.3-.82,5.37-.51,10.7,3.75,14.66,5.57,5.18,11.31,10.21,17.25,14.95,3.94,3.15,8,2.07,10-2.81a82.5,82.5,0,0,0,4-13.88c4-18.55,7.7-37.17,11.79-55.7,2.43-11,10.91-56.57,11.23-68.47.57-20.64,10.54-36.73,23.23-51.76q9.28-11,18.52-22,13.38-16,26.72-32c8.43-10.13,16.79-20.31,25.25-30.42,6.74-8,13.45-16.11,20.49-23.89,1.35-1.5,4.13-2.25,6.3-2.35,4.74-.22,9.89,1.44,14.21.13,12.3-3.72,24.25-8.55,36.36-12.91,4.14-1.49,8.28-3.81,12.51-4,3.9-.21,8.06,1.51,11.85,3,5.74,2.28,11.09,1.81,16.64-.54a21.42,21.42,0,0,1,7.74-1.64c13.54-.29,27,5.33,40.63.8.73-.24,1.71.4,2.59.48,13.3,1.3,26.62,2.53,39.92,3.86,9.2.92,18.46,1.6,27.58,3.1,8.46,1.38,16.72,4.93,25.16,5.25a115.2,115.2,0,0,1,19.35,2.61c3.86.8,7.66,1.21,7,6.84-.15,1.18,1.27,3.1,2.48,3.85,10.5,6.47,21,13,31.74,19,14,7.9,28.3,15.39,42.45,23.1,1.08.59,61.65,36.7,63.11,37.57,11.82,7.08,23.23,14.92,35.39,21.35,13.13,6.94,24.44,16.57,39.1,21.56,16.1,5.47,30.71,15.31,45.94,23.29,4.44,2.33,7.87,5.4,8.15,11,.06,1.07,1.39,2.44,2.48,3q16.76,8.91,33.63,17.57c10.06,5.17,20.34,9.91,30.21,15.42a24.15,24.15,0,0,0,17.14,2.73c1.87-.36,4-1.35,5.6-.79,11.94,4.24,23.7,9,35.65,13.19,20.39,7.21,40.92,14,61.27,21.33,4.54,1.63,9.33,3.1,12.29,8.07a16.13,16.13,0,0,0,8.74,6.86c13,3.45,26.14,6,39.2,9,5.7,1.34,11,.92,15.88-2.37,1.57-1.06,2.48-3.5,4.1-4,8.58-2.69,13.15-9.78,18.22-16.23A6.26,6.26,0,0,0,1351.67,1141.29Zm-109.49-136.86c4.15,4.78,7.67,10.24,12.39,14.34,5,4.32,12.1,16,13.51,21.81,1.06,4.38,5,13.47-1.55,6.68-2.76-2.52-6-4.34-5.08-9.33.62-3.24-7.62-9-10.73-7.77a4.7,4.7,0,0,0-2.23,3.17c-2,10.88-26.29,27-29.63,26.4-3.18-.56-4.86.9-4.57,4.32a24,24,0,0,1,0,4.64c-.48,4.24,1.47,6.07,5.65,5.24,5.5-1.09,8.39,1.8,11.17,6a49.4,49.4,0,0,0,5.4,6.47,1.6,1.6,0,0,1-1.75,2.58c-4.82-1.91-9.67-3.78-14.33-6-5.79-2.79-10.94.24-16.26,1.14s-10.68,3.11-16.14,3.92c-2.53.38-5.59-.75-8-2-21.72-10.92-43.49-21.77-64.92-33.26-4.14-2.22-7.23-6.82-10.14-10.81-8.87-12.18-17.41-24.62-26.1-36.93-1.73-2.46-3.59-4.82-5.56-7.46,17.35,1.14,32,8.17,46,17,7.26,4.57,14.37,9.77,22.28,12.8a60.1,60.1,0,0,0,22.12,3.43c7.41-.13,13.64,2.11,19.88,5.27,3.2,1.61,6.31,3.42,9.46,5.14,4.67,2.56,9.85,4.38,14,7.67,1.83,1.45,34.65-25.25,33.08-27.44-10.1-14.09-20.69-27.85-26.72-44.52C1211.74,972.55,1230,990.35,1242.18,1004.43Zm-14.32,97.93c1,2.43,4.27,4,6.65,5.78,4.58,3.49,9.22,6.89,13.85,10.31a107.93,107.93,0,0,1,13.28,10.89c-12.75-4.5-25.56-8.87-38.24-13.56-8.23-3-16.12-7-24.46-9.68-6.13-1.94-8-6.47-10.41-11.74,8.88-2.11,17.11-5,25.52-5.7,4.9-.38,10.08,2.92,14.86,4.48C1228.4,1096.65,1226.91,1100,1227.86,1102.36Zm-198.64-182c-4.14-6.68-8.94-12.95-13.93-20.08,9.94-.83,19.12-1.69,28.31-2.29a8.36,8.36,0,0,1,5.25,1.29q24.23,19,48.24,38.23c3.37,2.69,5.62,5.71,5.14,10.64-.86,8.78-1,17.64-1.5,27.59-3.85-2.79-7.47-4.6-10-7.41-5.06-5.66-11.09-6.59-17.52-4.1-4.51,1.75-7.78.41-10.9-2.2-7.48-6.27-14.83-12.71-22.15-19.17-.87-.77-1.88-2.22-1.73-3.18C1039.86,931.09,1033,926.43,1029.22,920.39ZM1060.91,994c3.64,2,6.19,6.21,8.8,9.77,8.49,11.57,16.8,23.28,25.14,35a28.32,28.32,0,0,1,1.77,3.66c-1.66-.59-2.74-1-3.82-1.36-11.61-4.32-19.37-12.88-26.28-22.8-6.44-9.26-13.78-17.88-21.67-28C1051.37,991.64,1056.73,991.74,1060.91,994Zm47.54-17.45V950.46c0-1.15.43-1.31,1.23-.38,4.8,5.28,9.59,10.57,14.78,16.29Zm20.61-5.73,39.11,41.3a.59.59,0,0,1-.7.92l-57.1-30Zm14.25-52.05q14.51,18.84,29.22,37.5c9.87,12.43,20,24.69,29.88,37.08,4.62,5.76,9.11,11.64,14,17.89l-19.17,16.25-82.76-92.57c6.87-5.52,13.84-10.83,20.44-16.55C1138.19,915.54,1140.51,915.13,1143.31,918.77Zm-40.44-35.23c9.76,7.6,19.86,14.76,30.42,22.56-6.53,5.19-19.49,15.07-19.77,15.27-8,5.78-7.92,5.66-15.3-1.38-9.87-9.41-20.19-18.34-29.75-28-2.65-2.67-3.39-7.29-4.82-11.09a46,46,0,0,1-1.35-6c4.16-5.37,9.39-6,16.22-4.33C1087.94,872.8,1095.45,877.77,1102.87,883.54Zm-96.32-139.23c1.75,3,78.42,90,82,93.62a3.49,3.49,0,0,1,1,2c0,.69-.38,1.66-2.25,1.65a5.33,5.33,0,0,1-3.45-1.44c-9.34-8-28.71-23-38.23-30-11.39-8.46-22.64-17.13-34.12-25.48-18.44-13.43-37.32-26.28-55.35-40.23-5.48-4.23-8.89-11.2-12.95-17.12-.55-.79.49-2.83,1.06-4.18,1.28-3,6.69-6,2.52-9-3.76-2.7-5.7,2.51-7.73,5.23-.44.59-.82,1.21-.92,1.37-22.12-28-44-55.69-66-83.62,3.29-3.72,2.26-6.4-1-9.28-9-7.93-17.31-16.7-26.75-24-5-3.92-11.77-5.73-17.85-8.21-6.26-2.56-12.76-4.51-19-7.19a127,127,0,0,1-17.9-9c-14.41-9.2-28.52-18.86-42.73-28.35-9-6-17.73-12.23-26.87-17.91-10-6.25-20.29-12.21-30.66-17.9-14.26-7.82-28.91-14.94-43-23.08-4.09-2.37-6.77-7.2-10-10.94-4.94-5.66-9.83-11.36-15.6-18l70.65,22.23c5.54,1.74,10.55,3.79,12.75,10.13.76,2.19,3.75,3.77,6,5.25,12.67,8.48,25.26,17.08,38.2,25.13,6.15,3.83,58.41,34.7,59.88,35.82l-1.34,2.85c-1,2.14-.35,6.33,3.63,4.46,7.11-3.35,13.2.68,19.32,2.67,11.84,3.86,23.5,8.35,35.07,13,13.6,5.45,27,11.35,40.55,17,6.67,2.78,13.51,5.2,20,8.26a13.54,13.54,0,0,1,5.54,5.46c9.85,17.46,19.16,35.22,29.25,52.53C972.62,689.1,994.06,723.2,1006.55,744.31Zm-129.63,9.5c6.89,3.81,13.89,7.45,20.85,11.14a15.78,15.78,0,0,1,2,1.54c-1.8,4.15-3.26,8-5.17,11.64-.55,1-2.75,2.27-3.63,1.94-8.3-3.16-16.72-7.42-17.63-9s-1.48-6.65-2.76-7.17c-14.92-6.07-30-11.73-44.95-17.75-19.58-7.9-39.05-16-58.58-24-6.59-2.69-13.38-4.94-19.82-7.93s-10.47,1.41-15.43,3.47c-1.69.7-4.1,1.18-5.62.51-9-4-17.63-8.86-26.75-12.53-5.52-2.23-7.36-6.33-8.59-11.23-1.87-7.42-3.52-14.89-5-21.1,1.94-2.54,3.63-4.36,5-6.42C717,626.25,767,602,786,596.87c5-1.35,8.87-1.65,13.78,2.15,17.67,13.7,35,27.77,50.1,44.23,13.33,14.56,25.81,30,37.9,45.58,9.88,12.79,18.84,26.32,27.79,39.8,4.73,7.11,8.58,14.81,12.68,22-7.12,10-15.87,8.31-25.14,5-7.74-2.75-15.64-5-23.54-7.29C874.31,746.88,871.05,750.56,876.92,753.81ZM716.27,491.92c8.26,4.85,36.36,21.79,44.16,26.83,34.74,22.43,39.14,28.11,62.06,36.91l9.51,3.16q24.46,7.14,48.8,14.74c9.15,2.85,18.21,6,27.25,9.11a5,5,0,0,1,2.57,2.87c1.36,4.1,2.42,8.3,3.37,11.7l-89.13-34.42c-23.09-11.19-100.08-60-111.78-68.24-2.35-1.64-2.6-4.3-4.82-6.21-3.79-3.26-8-6-12.09-8.94-.85-.61-1.83-1.06-3-1.7l7.06-19.37,14.5,9c-1.68,5.5-3.6,10.73-4.74,16.11C709.64,485.26,709.92,488.2,716.27,491.92Zm132,17.33c4.78,3.15,9.85,5.92,14.39,9.39a20.65,20.65,0,0,0,12.87,4.46,25.32,25.32,0,0,1,12.59,3.5c7.46,4.8,15.93,5.35,24.06,7.15,14.49,3.2,29.14,5.68,43.72,8.43a40.78,40.78,0,0,0,8,1.17c7.64-.11,10.81,5,13.91,11.6-10.8,3.27-21.51,6.39-32.15,9.77-9.7,3.08-19.24,6.65-29,9.55a16.8,16.8,0,0,1-9.27.11C891,569.26,835.19,552.89,823.91,549c-10.09-3.45-19.36-8.76-28.37-14.84-25-16.84-50.53-32.75-75.86-49h0a2.58,2.58,0,0,1-1-2.92c1.09-3.7,2.12-7.19,3.27-11.07,6.69.75,13.46,1.38,20.18,2.31s13.1,2.21,19.67,3.14c6.23.89,12.5,1.56,18.77,2.26,13.43,1.5,26.93,2.59,40.28,4.64,4.48.69,8.79,3.45,12.82,5.87,4.28,2.56,8.13,5.83,12.15,8.77C841.54,504.79,841.52,504.82,848.23,509.25Zm94.16,115,22.75-16.44,9.31,15c-6.9,5.3-13.61,10.6-20.53,15.61-.73.54-3.31-.07-3.87-.91C947.41,633.42,945.16,629.12,942.39,624.24Zm39,65.81c-3.8-6.28-7.56-12.49-11.08-18.33,2.28-2.77,4.11-5,6-7.28C981.63,672,984.61,686.87,981.41,690.05Zm-2.12-39.58a5.07,5.07,0,0,1-1.4,4.28c-3.85,3.19-8,6-12.55,9.35-3-5.2-5.86-9.77-8.28-14.56-.58-1.16-.35-3.77.51-4.45,5-4,10.35-7.64,16.16-11.82C975.77,639.44,977.75,644.9,979.29,650.47ZM939.6,615.58a1.11,1.11,0,0,1-1.74-.83c-.43-8.8-7.26-10.5-14.28-14.29,12.57-12.65,27.71-17.78,44-20.42,3.16-.51,6.23-1.57,9.38-2.15,6-1.09,6-1,10.93,4.24ZM1209,513.22a.65.65,0,0,1-.39,1.21l-51.31-4,11.39-21.6ZM625.11,371.35c12.73-7.37,25.54-14.63,38-22.42,3.44-2.14,5.73-1.75,8.69.09,11.11,6.92,22.3,13.73,33.4,20.67,2.81,1.76,5.22,4,8.71,1,.67-.57,3,.2,4.22.95,10.33,6.49,20.36,13.5,31,19.5,3.82,2.17,8.93,2.14,13.47,2.95,10,1.78,79.17-1.3,79.67-.95,7.52,5.23,12.65,3.83,21.69,3.5,3.72-.14,8.35-1.89,9.46-5.88.78-2.81,2.14-3,5.66-2.62,8.94.92,106.61,8.35,118.47,9-3.4,2.72-6.12,4.62-8.48,6.89a9,9,0,0,0-1.2,1.41,4,4,0,0,0,1.21,5.71l1.08.65c5.37,3.26,10.79,6.43,16.1,9.8,7,4.46,14,9.12,21,13.54a4.44,4.44,0,0,0,3.42.05c7-2.63,23-10.2,24.22-11.31l49.81,29.59c-5,8.36-9.9,16.65-14.92,24.85-3.08,5-2.74,6.27,2.82,7.85,9.12,2.59,18.28,5.05,27.39,7.69,3.34,1,5-.51,6.43-3.28,3.14-6,6.51-12,9.88-18.12l24.4,14.37c-3.52,7.16-6.14,14.62-10.68,20.62-1.77,2.34-7.87,1.92-12,1.83-4.83-.1-236.26,1.81-252.4,1.44-8.46-.19-13.51-3.93-19.35-7.74-10.06-6.57-19.43-14.27-29.72-20.42-5.31-3.17-11.93-4.31-18.08-5.87-4.82-1.22-9.83-1.69-16.27-2.74,10.09-3.84,18.88-7.21,27.67-10.54,7-2.65,13.87-5.7,21-7.73,4.25-1.2,9-1.14,13.45-1,13.66.53,23.89.56,35.32.56,7.3,0,15.68,7.79,23,12.12,16,9.47,31.62,19.67,47.4,29.55,3.8,2.38,7.76,4.54,11.43,7.11,3.41,2.39,6.24.91,7.92-1.62,1.79-2.72-.54-4.4-3.07-5.74a69.06,69.06,0,0,1-9-5.83c-.93-.69-1.4-4.35-2.35-5.13a61.79,61.79,0,0,0-8-5.71c-20.36-12.71-40.89-25.12-61.27-37.79-14.3-8.89-28.37-18.13-42.72-26.92a12.3,12.3,0,0,0-8.36-1.61c-2.13.5-5.25,3.59-5.11,5.3.18,2.09,3,4.42,5.18,5.82C868.26,433.57,882,442,895,450.1c-7.06,0-35.28-1.26-41.92-2a7.76,7.76,0,0,1-3.22-.88q-19.17-12-38.26-24.07c-5.32-3.36-16.24-10.31-16.41-10.3-5.18.07-58.73,28.95-69.8,34.79-5.93,3.12-6.33,8.48-8.91,13.38l-109.36-71C610.68,381.53,617.27,375.89,625.11,371.35Zm-31.8,50.72c4.83.69,9.66,1.33,14.47,2.15,16.23,2.77,32.48,5.51,48.66,8.56a32.32,32.32,0,0,1,10.31,4c9.07,5.42,17.9,11.23,27.62,17.4L686,475,592.66,424A1.05,1.05,0,0,1,593.31,422.07ZM430.44,399.39c6.63.58,13.22,1.75,19.85,2.41,8.81.88,17.67,1.38,26.48,2.32,8.58.92,17.37,1.28,25.6,3.57,7.1,2,13.57,6.28,20.26,9.65q19.5,9.82,38.94,19.75c13,6.6,26.32,12.55,38.66,20.14,5.9,3.62,10,10.3,14.66,15.76,3.65,4.23,7,8.72,11,13.76-7.58-2.86-12.65-5.66-21.2-7.42-7.06-1.45-17.62-1.95-28.7-.6-10.11,1.23-18.4,3.66-24.48,10.57-5.83,6.63-8.71,15.44-9.15,24.56a1.45,1.45,0,0,0,.33.89,3.51,3.51,0,0,0,5.5.2,2.29,2.29,0,0,0,.48-.91c1.32-5.7,2.54-10.87,6.32-16.13,7.16-10,17.47-10.66,27.46-12.25,11.5-1.83,22.23.09,32.86,4,31.9,11.74,54.74,26.93,80.39,42.43,18.11,10.95,35.6,22.95,53.13,34.83,11,7.44,21.55,15.51,33.52,24.19-2.93,1.08-4.6,1.77-6.28,2.36-28.3,9.86-71.2,39.56-90.43,69.25-3.4-1.88-6.84-3.68-10.18-5.64s-6.35-5.59-10.17-.86c-13.38-10.72-26.94-20.68-39.42-31.83-12.26-10.95-23.45-23.11-35.08-34.76-11-11-21.33-22.67-29.45-36.06-1.48-2.43-2.66-5-4.18-7.42-2-3.1-1.8-4-4.34-4.26-3.18-.27-3.25,2-4.52,3.84l-72.15-8.61c0-6.21-2.23-7.92-6.15-10.2-18-10.41-35.85-21.06-53.79-31.55-11.35-6.63-22.77-13.14-34.57-19.95,4-25.82,8.07-51.64,12.3-78.75C406.27,397.57,418.36,398.34,430.44,399.39ZM465.52,552c.09,2.75,0,11.45,0,11.45-9.11-6-85.07-53.74-85.42-53.25v-8.8C386,504.85,458.45,548.11,465.52,552Zm-83.87-66c18.69,10.43,66.8,36.35,78.77,42.59a10.2,10.2,0,0,1,5.14,11.31c-4.82-2.81-81.42-45-83.91-45.84C381.48,491.5,381.65,489.85,381.65,486Zm84.42,89.24v12.38c-9.1-6.68-76.59-54.45-86-60.74v-8.07C392.31,527.25,462.23,573.78,466.07,575.24ZM331.81,480.48c11.44-22.12,8.14-8.88,7.91-7.8-2,9.37-3,14.89-8.49,32.36-4,12.79-6.79,25.94-10.24,38.9-1.25,4.69-5.22,6.08-9.26,3.2-2.93-2.09-5.55-4.6-8-6.64C318.22,509.55,317.58,510.93,331.81,480.48Zm-29.31,68c1.92,1.44,3.13,2,3.85,2.95,6.3,3.48,11.24,3.61,17,2,3.06-1.36,4-4.35,4.59-6.34,7.38-26.13,13.09-54.77,20.26-81,.7-2.53,5.78-7.74,1.35,9.77-6.17,24.44-11.84,49-17.2,73.63-1.33,6.1-2.68,5.68-5.94,7.35-2.6,1.35-9.83,2.37-14.1,2.37-5.47-.39-7.6-1.35-10.63-5.61C301.06,552.75,302.09,550.72,302.5,548.45Zm-58.17,526.33c-4.07-2.78-7.4-6.65-11.94-11l29.34-12.63,12,10.87C267.36,1064.73,245.27,1075.43,244.33,1074.78Zm110,66.48-51.95-46.15c20.92-8.51,43.16-16.89,65.37-26.56C361.51,1099.47,358.83,1115.93,354.3,1141.26Zm83.35-306.89c-5.9,15.91-11.44,32-17.48,47.81-7.91,20.74-16.13,41.36-24.28,62-5,12.59-10.73,24.9-14.79,37.77-2.85,9-3.48,18.69-5,28.09C375,1017,374,1024,373,1031c-1.08,8.15-2.53,16.25-3.45,24.42-.45,4-2,4.52-8.42,6.92-18.37,6.88-26.13,9.8-45.32,17.69-7.26,3-10,1.8-13.37-1.16-6.3-5.5-12.3-11.33-19-17.56,15.55-5.84,30.47-11.47,45.4-17.06,7.53-2.82,8.32-4.46,6.1-11.87-2.15-7.2-4.17-14.44-6.14-21.69-1.29-4.78-3.4-6-7.84-4.25-24.37,10.21-35.87,15.27-55.3,23.35-1.95.8-10.47,4-12.62,5.5-13.8-12.4-27.72-25.13-41.88-37.58-15.9-14-32-27.69-48-41.67a5.85,5.85,0,0,1-1.27-4.78c6.73-31.71,13.67-63.36,20.43-95.06,2.43-11.38,4.44-22.85,6.81-34.25a4.82,4.82,0,0,1,2.65-2.85c3.47-1.38,7.09-3.35,10.64-3.31,5.1.06,6.51-3.5,8.37-6.57s3-6.88,4.67-10.28c1.48-3.08,3.63-5.87.4-9.37-.73-.78,0-3.48.76-5,8.57-18,17.29-36,25.88-54a11.78,11.78,0,0,0,1.44-5.65c-1.23-13.81,3.83-26.65,6-39.92,1.18-7.24,3.22-14.33,4.55-21.54a1.89,1.89,0,0,0-.1-1,3.28,3.28,0,0,0-4.8-1.67,2.14,2.14,0,0,0-1,1A94.78,94.78,0,0,0,245,675.28c-4.94,25-16.84,47.11-28.28,69.45-10,19.56-19.35,39.47-29.61,58.9-5.18,9.79-6.39,20.45-8.93,30.84-2.16,8.85-3.72,17.85-5.59,26.77q-4.91,23.4-9.88,46.78c-2.73,12.79-5.6,25.55-8.22,38.35-1.16,5.62-1.84,11.33-2.8,17-.26,1.53-.74,3-1.11,4.47-16.66-9-12.26-22.61-9.24-36,3.55-15.72,6.23-31.67,10.61-47.15,3.2-11.34,4.75-22.93,7.49-34.31,3.89-16.16,6.89-32.54,11.21-48.58,1.84-6.82,5.95-13.06,9.21-19.47,5.92-11.61,12.06-23.11,17.95-34.74,7.76-15.3,16.06-30.39,22.81-46.13,5.12-11.93,8.18-24.75,12.18-37.16a100,100,0,0,0,4.66-39.46,13,13,0,0,0-1.62-4.87c-.5-.94-2.7.15-3.19.88-.9,1.37-1.8,3.35-1.49,4.83,2.51,12-.79,23.13-4.57,34.19a.85.85,0,0,1-1.63,0c-1-3.44-2.06-6.84-2.8-10.32-1.52-7.19-2.86-14.41-4.2-21.64-.23-1.23-.69-2.93-.11-3.74,5-6.94,9-15.58,15.7-20.19,16.16-11.13,33.76-20.15,50.49-30.49,4.77-3,8.07-3.14,13-.19,7.77,4.65,16.22,8.23,24.57,11.84a2.37,2.37,0,0,0,.71.16c3,.22,4.37-3.75,2.05-5.73a3.93,3.93,0,0,0-.68-.47c-5.57-2.87-11.41-5.21-17.16-7.75v-6.19c11.15.5,19.88-1.7,26.67-5.29,2.36-.67,4.44-5.07,5.22-8.13,3.67-14.38,6.82-28.9,10.2-43.37,4.73-20.21,9.24-40.47,14.32-60.59,4.82-19,10.18-38,15.58-56.87a3.75,3.75,0,0,1,1.24-1.71,1.88,1.88,0,0,1,3,1.87c-2.43,10.13-4.59,19.1-6.68,28.09-2.71,11.67-5.43,23.35-7.95,35.06-3.32,15.41-6.45,30.85-9.67,46.28-1.82,8.76-3.75,17.5-5.48,26.28-2.28,11.61-4.41,23.26-6.62,34.88-.71,3.7-1.76,7.36-2,11.09a3.09,3.09,0,0,0,0,.43,3,3,0,0,0,5.22,1.73,3.74,3.74,0,0,0,1-1.7c1.85-8,3-16.22,4.63-24.31,3-14.91,6.22-29.78,9.32-44.67q5.79-27.87,11.58-55.75c.35-1.68.94-5.51,1.42-7.16.64-2.22,3.1-2,2.46,2.46-1.33,8.82-2.9,17.62-3.88,26.48a86.14,86.14,0,0,0-.42,9c0,3.34-.35,8.78-.72,12.1-1,9.23-2.27,18.45-3.25,27.69-.59,5.64-.36,11.11-3.81,16.45-2.11,3.26-1.4,8.42-1.68,12.75-.49,7.62-.73,15.25-1.15,22.88-.7,12.5-1.47,25-2.18,37.51-.08,1.46-.44,3.19.17,4.34a8.89,8.89,0,0,0,1.06,1.5,3,3,0,0,0,5.26-1.71v0c.91-12.31,1.47-24.64,2.33-36.94.78-11.14,1.81-22.26,2.75-33.53l89.63,71.49c-8.2,2.81-16,5.54-23.76,8.14-12.71,4.23-25.45,8.38-38.17,12.57a18,18,0,0,0-2.55,1c-1.24.61-2.44,1.28-3.66,1.92a94.87,94.87,0,0,0,8.69,10.78c-7.22,4.31-12.88,7.54-19.93,11.92-14.79,9.17-29.5,18.45-44.25,27.7-.6.37-1.26,1.18-1.78,1.1-7.54-1.25-6.74,3.86-6.61,8.51.06,2,.09,4,0,6-.17,3.71,0,6.8,4,9.18,2.05,1.22,3.3,5,3.59,7.72.55,5.25-.15,10.64.24,15.92.46,6.17-.35,11.45-5.85,15.4-1.25.9-1.76,3.43-1.85,5.25-.24,5.08-.08,10.17-.08,16.59-6.88-5.39-12.87-10.09-18.85-14.8L275,728.6c-2.83-2.23-5.48-4.75-8.55-6.56a3,3,0,0,0-1.41-.36,3,3,0,0,0-2.88,4.34,1.89,1.89,0,0,0,.43.53c7.57,6.42,15.29,12.65,23.07,18.8q20.34,16.1,40.8,32c2.39,1.88,4.8,3.73,7.34,5.7-3,15-6.09,30.08-9.3,45.91-13.18-10.79-25.7-21.06-38.25-31.29-3.49-2.84-7-5.74-10.67-8.27-4.23-2.88-10.68-1.84-14.14,1.45-3.3,3.13-2.26,6.33.3,8.46,13.74,11.4,27.74,22.48,41.62,33.71,9.11,7.37,18.17,14.83,27.28,22.21s18.28,14.65,27.35,22.07c3.65,3,7.23,6.09,10.61,9.37s6.59,5.42,10.28.23c5.37,4.29,10.73,8.27,15.71,12.68,4.8,4.25,10,.11,8.27-5.54a8.63,8.63,0,0,0-2.57-3.86c-8.57-7.61-17.61-14.68-26.47-22Q356.7,854.15,339.57,840c-3.05-2.51-6.21-4.88-9.52-7.48,3.23-15.25,6.43-30.63,9.8-46a9.71,9.71,0,0,1,2.64-5c12.22-10.79,24.6-21.39,36.91-32.08,7.46-6.48,14.85-13,22.29-19.52,3-2.59,6-5.14,9.69-8.31-1.2,7.83-2.34,14.67-3.29,21.52-1,7.5,1.84,13.31,7.68,18,12.67,10.14,25.23,20.42,38,30.75C448.38,806,442.92,820.15,437.65,834.37Zm83.79,30a74.66,74.66,0,0,0-4.77,5.88c-4.12,5.72-9.65,5.48-15.57,3.89-1.9-.51-1.9-.51-5.74-1.3-6.73-2.16-6.66-3.47-7.15-8.26-1.46-14.33-3.35-28.61-5.09-42.91-.43-3.57-.43-3.57-1.24-10.7-.76-8.67-2.79-8.79-6.33-12-2.46-2.22-3.41-4.37-1.7-7.61a13.89,13.89,0,0,0,1.68-6.71c-.08-2.18-.75-5-2.25-6.32-6.38-5.53-13.19-10.57-19.81-15.84-3.05-2.42-5.56-5.33-8.93.2-2.23,3.66-10.49,3.27-13.73.29a77.8,77.8,0,0,0-7.84-6.69c-7.4-5.17-7.76-12-6.22-20.15,2.37-12.51,3.71-25.22,5.58-37.83,2.17-14.73,4.44-29.44,6.62-43.82,12.39-3.4,24.24-6.7,36.14-9.83a4.86,4.86,0,0,1,3.57,1c8.67,6.73,17.32,13.51,25.87,20.4,11.23,9,22.37,18.2,33.54,27.33,8.79,7.19,17.61,14.36,26.32,21.66a6.66,6.66,0,0,1,2,3.73c3.05,18,12.09,73.27,14.62,82.57,1.33,4.9-.36,7.87-3.17,11Q544.65,838.36,521.44,864.32Zm20.65,29.13a4.36,4.36,0,0,1-4.91.39l-.07,0a5.26,5.26,0,0,1-1.55-7.59c4.66-6.43,9.3-12.87,14-19.24,3.76-5.06,7.95-9.8,11.55-15,8.46-12.14,21.93-17.86,33.21-26.37.86-.65,1.85-1.11,2.68-1.78,4.17-3.32,11.83-4,16.23-1.45a3.67,3.67,0,0,1,1.14,1.08c4.84,6.54,4.84,6.55,12.66,9.19C586.85,860.48,571.48,871.14,542.09,893.45Zm71.11-11.56c-1.9,4-5.76,2.52-10,1a77.83,77.83,0,0,0-13.48-3.49c-4.39-.75-4.32-3.39-2.23-5.63a99.71,99.71,0,0,1,14.09-13c10.44-7.55,21.45-14.32,32-21.79,3-2.15,5.59-2.71,8.88-1.46,5.75,2.2,11.54,4.3,18.55,6.9-6.89,4.58-12.92,8.33-18.67,12.46-6.58,4.73-15.43,11.38-22.23,16.81A24.11,24.11,0,0,0,613.2,881.89Zm46.11,3.31-34.45-2.47c-.92-.07-2.45-.17-.71-1.81,3.74-3.46,7.14-7.39,11.27-10.27,9.4-6.56,19.17-12.58,28.76-18.85,4.22-2.75,5.63-4.13,13.36-1.4,6.76,2.61,10.8,3.89,16.8,5.92C682.36,866.2,667.81,871.83,659.31,885.2Zm58.79-4.92c-7.72,7.45-8.55,8.22-19.53,6.83-10.74-1.51-13.21-1.55-19.81-2.38a17.8,17.8,0,0,1-3.67-1.12,1.94,1.94,0,0,1-.48-3.38c6.27-4.65,19.73-14.47,22.86-16.46,4.77-3.15,7.1-3.78,11.36-2.1,7,2.77,14,5.43,21.19,8.2C725.81,873.43,722.53,876,718.1,880.28Zm33.82,9.07c-10.93-2.07-26.27-4.28-28.45-4.88,4.89-3.87,9.17-7.33,13.55-10.66a3.62,3.62,0,0,1,2.87-.71c8.86,3.48,17.66,7.1,26.43,10.67C762.85,890.09,761,890.84,751.92,889.35ZM1048,1049c-8.33-4.69-27.11-16.37-26.69-16.67-1.06-2.17-1.58-4.92-3.24-6.43q-18.33-16.62-37.06-32.79c-11.63-10-23.44-19.86-35.23-29.73-2-1.69-4.3-3.09-6.57-4.71,5.07-10.48,9.87-20.94,15.17-31.13,2.46-4.73,1.08-7.49-3.06-9.74l-36.85-20c-4.58-2.49-9.17-5-13.73-7.48-3.59-2-5.91-1.27-7.71,2.66-4.75,10.43-9.8,20.72-15,31.57-7.27-4.08-14.57-8.12-21.82-12.23-11.52-6.55-22.87-13.42-34.63-19.51-2.75-1.43-3.23-2.66-3.37-5.16a36.06,36.06,0,0,0-1.22-8,1.58,1.58,0,0,0-.32-.58,2.9,2.9,0,0,0-4.65.42,1.43,1.43,0,0,0-.23.77,104.14,104.14,0,0,0,1.24,14.56c.25,1.48,2.06,3.09,3.55,3.93,19.52,10.93,39.13,21.72,58.69,32.59,20,11.12,40.18,22,59.87,33.62,8.92,5.28,17.19,11.83,25.12,18.56,16,13.56,31.48,27.62,47.17,41.5a6.49,6.49,0,0,1,1,1.36,1.44,1.44,0,0,1-2.12,1.89c-4.86-3.82-11.46-8.89-14.13-11.06-21-17-30.81-28.18-52.52-44.27-12-8.89-29-17.46-42.08-24.89a84.08,84.08,0,0,0-11.27-5.64l-.1,0c-2.63-.87-4.46,2.92-2.1,4.35l0,0c9.43,5.51,18.83,11.11,28.58,16,17.65,8.9,33.28,20.61,48.23,33.37,2.51,2.14,5.46,5,7.92,7.43a1.17,1.17,0,0,1-1.43,1.83L810,914.18c1.58-2.55.92-.72,2.19-3.41.62-1.31-3.81-17.77-10.15-20C791.45,887,633.52,827.21,627.25,825c-3.45-1.2-6.43-3.43-7.34-7-2.81-11-5.65-22-8.39-33.09-2.28-9.21-4.22-18.5-6.7-27.64a2.37,2.37,0,0,0-.86-1.17,2.91,2.91,0,0,0-4.79,2.12,2.12,2.12,0,0,0,.05.44c3.25,15.6,6.68,31.16,10.19,46.71a21.83,21.83,0,0,0,1,3.07,2.35,2.35,0,0,1-3,3.07c-4.84-1.7-8.59-3.19-13.56-4.16-4.13-.81-9.12-.23-13.19,0-5.18-29-11.5-56.78-16.61-85.38,2.93,2.22,5.15,4.31,7.75,5.68a2.21,2.21,0,0,0,.84.25,3.12,3.12,0,0,0,3.27-4.39,2,2,0,0,0-.4-.54c-4.93-4.52-10.12-8.75-15.28-13-5.41-4.46-71.68-57.07-87-69.89-3.62-3-5.4-4.18-9.44-3-13.69,4-27.63,7.21-41.3,11.32-4.52,1.36-6.5-1.61-9.29-3.32-2.1-1.3-3.83-3.21-6.59-5.6,12.53-3.81,24.52-7.32,36.41-11.14,6.94-2.23,13.83-4.71,20.53-7.58,4-1.72,6.84-.86,9.74,2,2.45,2.41,4.71,3.92,7.71,6.82,4.07,3.95,8.12,3.92,12.42,2.78A18.4,18.4,0,0,1,510,636.29c10.16,8.65,20.76,16.78,31.06,25.27a7,7,0,0,1,2.14,4.39c.32,3.45-.16,7,.24,10.42a2.42,2.42,0,0,0,.39,1,2.62,2.62,0,0,0,4.86-.81c.64-3.71,1.5-7.61.95-11.24-.47-3.11-2-6.8-4.37-8.77-13.08-11.05-24.89-20.46-38.36-31.05-1.14-.9-4.05-1.52-6.82-1.48-6.08.09-12.41,3.76-16.38-.28-2.43-2.48-3.8-6.84-4-10.46-.81-12.37-3.51-67.48-3.51-69.4,8.78,1.1,38.62,5.3,59,7,12.69.37,15.05,6.91,20.2,14.1a222.68,222.68,0,0,0,16,19.39c7.34,8.11,14.64,16.35,22.72,23.7,11.9,10.81,24.4,21,36.81,31.24,7.9,6.52,16.1,12.69,25,19.66-5.77,3.67-11.14,7.3-16.72,10.56-2.46,1.44-4.75,3-2.84,5.69.69.95,4.47.62,6.21-.31,5-2.68,9.8-5.93,14.63-9A9.17,9.17,0,0,1,671,671.31c3,11.45,5.58,23,8.94,34.36.94,3.17,3.45,6.83,6.27,8.32,12.08,6.4,24.87,11.51,36.71,18.3,4.84,2.77,8.61,1.2,11.43-.69,7.09-4.73,13.35-2,19.69.6,25.48,10.41,50.86,21.06,76.32,31.53,8.4,3.45,16.94,6.57,25.38,9.92a48.31,48.31,0,0,1,5,2.77c-6.47,3.51-12.27,6.36-17.72,9.76-2,1.23-4.78,4.77-4.32,5.52,1.88,3.14,4.56,1.86,7.37.15,6.4-3.91,13-7.6,19.71-10.86a10.92,10.92,0,0,1,7.36-.17c5.37,1.69,10.85,3.51,15.66,6.33,3.27,1.91,5.85,5.36,8.13,8.56,14.86,20.93,29.68,41.9,44.27,63,16.42,23.75,32.18,48,49,71.44,11.63,16.24,24.62,31.51,36.89,47.3,11.92,15.35,23.68,30.81,35.55,46.2,3.5,4.53,7.13,9,10.74,13.5Zm268.41,113.91c-13.13-2.72-26.23-5.6-39.25-8.77-2.61-.64-6-2.19-7.08-4.31-3.72-7.27-10.93-8.45-17.28-10.75-24.21-8.73-48.57-17-72.86-25.53-7.55-2.64-15-5.53-22.63-7.93-2-.63-4.51-.1-6.7.32-7.32,1.38-13.54-1.94-19.59-4.92-17.8-8.75-35.42-17.86-53-27.11a13.53,13.53,0,0,1-5.82-6.24c-2.38-5.75-2.24-12.87-11.1-15.15,6.64-3.06,11.82-5.69,17.22-7.78a7.81,7.81,0,0,1,5.63.64c16.81,8.62,33.54,17.41,50.28,26.16,13.9,7.27,27.88,14.38,41.62,22,3.47,1.9,7.36,4.69,8.92,8.06,3.56,7.71,10.17,10.53,17.19,13q32.06,11.49,64.19,22.73a109.87,109.87,0,0,0,15.44,4.3c2.3.44,5.11,1.32,6.79-.1,2.63-2.21,1.41-4.67-.7-6.87-3.71-3.88-8.85-8.44-12.37-12.51-2.56-2.72-.63-3.77,2.2-1.66,15,13.61,30,27.21,45.74,41.47C1321.88,1163,1318.39,1163.29,1316.43,1162.88Zm26.35-14.13c-6.6,8.07-14.6,10.3-21.39,3.58-18.08-17.89-37.17-34.76-56-51.93-10.17-9.29-20.68-18.23-30.71-27.68-2-1.86-2.53-5.26-3.62-8-.31-2,3.52-4.51,22.5-21.14,30.58,33.43,61.9,68.71,92,101.65C1344.46,1146.71,1344.08,1147.28,1342.78,1148.75ZM358,971.74c-5.09-4.34-10.32-8.52-15.27-13-3.68-3.34-29.7-25-39-32.57-8.83-7.19-17.19-15-25.89-22.33q-19.62-16.59-39.45-32.94c-3.72-3.07-7.49-6.53-11.86-8.19-2.27-.86-6.42,1.19-8.72,3.13-1.6,1.35-2.69,5.25-1.89,7.09a23.48,23.48,0,0,0,6.79,8.25c7.46,6.13,89.76,74.38,103.31,86.3,3.83,3.37,6.51,4.38,9.84-.14,5,4.16,10,8,14.57,12.35,3.33,3.14,6.63,2.4,9.15,0C362.4,976.9,360.64,974,358,971.74Zm10.35-50.11c-13.81-11.28-27.69-22.5-41.47-33.83-11.29-9.28-22.48-18.68-33.71-28-13-10.86-26-21.76-39.08-32.56a50.73,50.73,0,0,0-6-3.75c-5,.44-8.22,2.22-10.09,6.37-2,4.46,1.1,6.84,3.84,9.17,6,5.14,12.3,10,18.35,15.15,10.48,8.89,20.75,18,31.31,26.79,11.22,9.32,22.73,18.3,34,27.54,7.27,5.95,14.27,12.22,21.59,18.1,2.77,2.23,5.77,5.58,9.86,1.47.41-.41,2.87.76,4,1.65,4.27,3.31,8.09,7.34,12.72,10,2,1.12,5,2.72,8.17-1.17,1.11-4.08.43-4.79-.76-6C377.22,928.54,372.71,925.17,368.38,921.63ZM231.29,948.4c-9.63-8.53-19.14-17.2-29-25.44-1.53-1.27-5.48-1.64-7-.57-8.22,5.73-16.19,11.85-23.89,18.27a19.83,19.83,0,0,0-3.78,4.71,6.75,6.75,0,0,0,1.13,8.65l0,0c1.32,1.17,2.92,2,4.24,3.21,10.62,9.46,21.17,19,31.84,28.39.89.77,3,1.4,3.73.91,4.58-3.14,9-6.52,13.35-10,5.56-4.45,8.66-7,16.65-13.3,4.48-3.45,3.43-4.63,1.56-6.87C237.62,953.37,234.27,951,231.29,948.4Zm562-178.72a16,16,0,0,0-3.76-2.47c-6.59-2.77-13.55-4.7-20-7.73-4.49-2.11-6.23-.3-8,3.25-2,4-3.93,7.95-6.22,11.73-3.06,5-2.5,8,2.91,10.31,7.87,3.3,15.85,6.35,23.89,9.22,1.37.49,4.32.07,4.73-.79,2.7-5.66,5.07-11.48,7.77-18A4.79,4.79,0,0,0,793.29,769.68Zm85.51-85.2v0h0c.6-1.85-.66-3.55-2.47-5.1-10.47-8.89-20.81-18-31.48-26.6-12.87-10.42-26-20.58-39.12-30.63-1.93-1.47-4.78-2-7.3-2.35a62.46,62.46,0,0,0-10-.06c-2.31.1-5-.1-6.82,1a174.41,174.41,0,0,0-16.12,10.69c-1.55,1.15-2.41,3.38-3.29,5.26-1.48,3.14-2.32,6.64-4.17,9.53-2,3.2-2.13,5.73.83,8.07,4.94,3.91,10.08,7.56,15,11.55Q795.19,683.3,816.38,701c5.28,4.39,10.34,9.06,15.83,13.18,1.27,1,2.54.57,5.79,0s21.16-5.08,23.41-6.29a52.17,52.17,0,0,0,10.13-7c1.37-1.24,5.94-13,7.11-15.94A2.5,2.5,0,0,0,878.8,684.48ZM838,707.86c-5.23,0-10.93-6.64-15.9-10.43-9.3-7.1-17.8-15.23-26.82-22.71-10.11-8.38-20.42-16.52-30.24-24.44a59.91,59.91,0,0,0,3-7.63c1.6-4.88,2.7-7.65,6.12-9.62,14.49,11.08,28.91,21.79,43,33s27.67,22.71,42.84,35.21C856.72,702.39,839.21,707.86,838,707.86Zm33.94-20.78c-.89,1.63-1.89,4.08-3.47,7.67-2.33,2.19-4.31,3.26-7.14.5-4.58-4.48-9.12-9-14-13.15-9.87-8.49-19.93-16.76-30-25-11.7-9.53-23.49-18.94-36.33-29.27,3-.69,4.82-1.4,6.69-1.5,3.66-.19,7.35-.07,11,0a3.56,3.56,0,0,1,2,.58c6.45,4.89,12.95,9.73,19.26,14.81q17.68,14.24,35.18,28.75c5.41,4.49,10.78,9.06,15.83,14a8.94,8.94,0,0,1,.77.85A1.59,1.59,0,0,1,871.92,687.08Zm19.7-267.47c18.33,11.6,36.82,23,55.27,34.37q33.39,20.67,66.8,41.32c2.73,1.69,5.28,4.11,8.26,4.86,2.11.54,5.62-.07,7.13-2.05,1.67-2.21.11-3.52-.78-4.21a203.87,203.87,0,0,0-17.22-12.49c-4.92-3.08-113.05-68-115.36-69.44s-5.86-1.62-7.12.71C887,415.6,889.81,418.47,891.62,419.61ZM930.3,416c15.44,9.8,31.09,19.27,46.68,28.84q36,22.1,72,44.16c3.74,2.29,7.58,4.42,11.49,6.62a6.08,6.08,0,0,0,6.32-.09c.42-.28,3-2.74-.27-5.3-.73-1.13-62.35-39-78.33-49C970.07,429.93,952,418.42,933.9,407c-.84-.53-5.68-2.08-7.47,2.47C925.53,411.82,928.36,414.75,930.3,416Z"/></g><g id="Thrusters"><path d="M941,919c-7.7-4.12-15.35-8.37-23.07-12.47-2-1.06-3.38-1.55-4.79,1.68-3.77,8.69-8.36,17-12.88,26,9.06,5.17,17.7,10.21,26.53,14.91.82.44,3.48-1,4.14-2.16,4.21-7.57,8.06-15.34,12.1-23C944.38,921.37,943.13,920.14,941,919Zm74.27-514.51c-4.85-2.65-13.18-.33-17,4.47L1019,421.56c4.54-2.23,8.81-4.33,14-6.86C1026.36,410.87,1020.88,407.54,1015.26,404.48ZM196.44,931.77a174.22,174.22,0,0,0-17.65,14.16c-2.82,2.45-3.24,5.32.2,8.16,6.22,5.13,12.24,10.52,18.1,15.59l25.29-21c-5.43-4.93-10.7-9.52-15.74-14.34C203.61,931.4,199.85,929.5,196.44,931.77Z" fill="#007aff"/></g></g></svg>