<svg xmlns="http://www.w3.org/2000/svg" viewBox="0 0 1500 1500"><title>Imperial Eagle</title><g id="Imperial_Eagle" data-name="Imperial Eagle"><g id="Colour"><path d="M1355.31,570.31c-3.32-12.58-10-22.93-18.58-32.3-6.69-7.33-13.42-14.65-20.52-21.58-9-8.82-18.61-17.08-27.67-25.88-6.83-6.64-13.23-13.72-19.78-20.65-.44-.47-3.52-8.19-5.85-9.89-13.57-9.9-25.79-20.93-41.89-27.48-16.31-6.65-31-17.16-46.47-26q-29.4-16.83-58.79-33.66c-18.15-10.38-36.1-21.15-54.53-31-12.51-6.69-23.54-16.68-38.66-18-8.5-.74-16.69.32-23.92,4.65s-10,14.37-7.39,24.48c1,4.14,2.74,8.16,3.33,12.34.48,3.47-.52,7.11-.35,10.65.21,4.39,1,7.66,1.48,12.08-4.71-.32-8.29-.54-11.86-.82-18.22-1.45-36.45-3-54.68-4.35-6.88-.53-13.78-.81-20.68-1.19-13.08-.72-26.18-2.09-39.26-2-20,.15-40,2.39-60.07,3.18-3.79.15-21.64,1.71-25.83-.14-14.48-6.38-28.49-13.81-42.76-20.69-3.66-1.77-17.37-8-20-9.31-22-11-44.55-18.37-68.77-23.3-16.81-3.43-33.46-2.49-49.47,4-10.13,4.12-20,8.81-30,13.23-4.67,2-9.16,4.19-14-.08-2.63-2.3-6-3.79-9.2-5.37-5.39-2.68-11-4.25-15.95.65-4.3,4.3-7,9.39-3.51,15.43-16.28,9.21-32.12,18.25-48.05,27.14-7.26,4.05-13.39,8.72-23.42,3.41-8.94-4.72-17.82,5.09-16,12.84,1.18,4.93,4.6,9.33,7.49,14.87-4.37,3-9.87,6.46-14.91,10.47-10.74,8.54-22.44,16.3-31.54,26.37-12.16,13.45-18.71,30.63-22.57,48.22-3.37,15.41-4.61,31.29-6.93,46.94-1.35,9.07-.49,18.75-8.28,26-2.41,2.25-4.88,6.27-4.62,9.25,1.09,12.52,1,25.49,8.88,36.43a3.37,3.37,0,0,1,.6,2.51c-2.1,7-3.48,14.38-6.66,20.86-10.66,21.65-22,43-33,64.44-3.32,6.47-7.67,12.73-9.42,19.63-5.2,20.48-9.3,41.24-13.91,61.87-4.43,19.87-9,39.72-13.5,59.8-6.14-5.6-12.74-12.29-20.08-18.06a71.67,71.67,0,0,0-16.53-9.57c-8.24-3.47-16.95-3.18-25.94-2.51-22.37,1.67-36.57,16.36-36.37,37.53.18,18.51,3.12,37,17.34,51.72,13.83,14.33,26.57,29.72,39.57,44.83q15,17.46,29.48,35.42c7.74,9.67,14.21,20.46,22.64,29.46,11.19,11.94,23.8,22.55,35.67,33.86,18.24,17.38,36.31,34.94,54.58,52.29,7.24,6.88,14.57,13.7,22.29,20,16,13.13,32,26.37,48.69,38.67,13.54,10,28,18.75,42.21,27.84a8.79,8.79,0,0,0,6,.85c8.48-1.83,15.73,1,21.39,8,6.79,8.41,19.5,11.41,29.14,3.3,4.53-3.82,9.47-7.17,14-11,5.48-4.61,11.2-9.36,9.16-17.78a51,51,0,0,0-3.86-10.53,204.83,204.83,0,0,0-25.61-39.19c-11-13.37-21.5-27.08-32.19-40.67-6.57-8.35-13.27-16.6-19.47-25.21-1.63-2.25-2.75-5.92-2.2-8.53,3.65-17.14,7.57-34.23,11.9-51.21,4.62-18.18,8.38-36.39,9-55.27.31-9.38,1.78-19.13,7.54-27.06,7.3-10,15.11-19.74,23-29.33,10-12.16,20.36-24,30.41-36.1,9.81-11.79,19.36-23.8,29.18-35.57,2.35-2.82,5.34-4.18,9.43-2.64a13.93,13.93,0,0,0,8.43.65A231.61,231.61,0,0,0,655.72,804c8.93-3.9,17.45-7.42,27.59-3.39,3.48,1.39,8.22-.38,12.38-.71,3.93-.33,7.88-1.09,11.78-.91,7.4.34,14.76,1.33,22.16,1.83,3.32.22,6.69-.34,10-.09,8.84.65,17.67,1.47,26.48,2.36,9.52,1,19,1.95,28.53,3.22,6.39.86,12.7,2.26,19.06,3.35,4.77.82,9.57,1.47,14.33,2.35.76.14,2,1.09,2,1.66-.06,6.67,6.3,8.31,10,10.93,8.2,5.87,186.39,105,196.85,110.52,4.65,2.47,10.2,4.37,10.47,11.33,0,1.33,2.15,3,3.68,3.79,17.35,8.82,34.71,17.6,52.24,26.06,2.71,1.31,6.22,1,9.38,1.28,3.51.29,7.32-.45,10.5.67,23.27,8.14,46.38,16.74,69.62,25,6.55,2.32,12.65,4.9,17.21,10.52a12.42,12.42,0,0,0,6.36,3.66c8.33,2.08,16.73,3.94,25.18,5.51,4.42.82,9.61,2.42,13.36.93,8.88-3.54,16.82-9.24,21.71-17.82,1.16-2,.74-5.91-.44-8.15-1.72-3.28-5.06-5.66-7.26-8.74-13.94-19.6-27.51-39.48-41.72-58.88-10.32-14.09-21.31-27.71-32.27-41.32-6.8-8.46-14-16.61-21.21-24.74-9.64-10.86-19.25-21.77-29.26-32.29-6.91-7.25-14.51-13.85-21.7-20.84-.84-.83-25.63-27.68-26.37-28.49-7.22-7.93-14.28-16-21.7-23.73-2.46-2.57-19.8-23.9-24.86-29.73-2.65-3-33.13-37.25-37.9-42.39-7-7.55-13.2-14.54-16.58-23.79-3.79-10.36-6.79-21-9.79-31.65-1.33-4.69-3.1-9.83-2.34-14.38.79-4.71.82-8.67-1-13-1.21-2.82-3.25-6.64-2.26-8.78,2.3-5,1-8.95-1.54-12.68-1.75-2.6-1.78-3.88.15-6.49,5.21-7,12.49-12.64,14.79-21.7.24-.93,2.15-1.63,3.41-2.06,9.48-3.2,19-6.28,28.48-9.44,18.83-6.28,37.62-12.69,56.53-18.72,2.27-.73,5.48-.12,7.7,1,4.92,2.46,9.3,6,14.23,8.41,5.8,2.83,10.59,8.29,18.19,6.77q20-4,40.2-7.46c6.31-1.07,12.21-2.29,18.87,1.58,16.48,9.58,33.6,18.09,50.66,26.62,16.14,8.07,32.53,15.73,50.18,19.9,6.42,1.51,13.43,2.87,19.77,1.84,7.35-1.2,12.08,3.27,18,5.11,3.64,1.13,7,3.25,10.73,4,9.29,1.77,14.08-5.92,20.41-10.38C1354.47,578.66,1356.82,576.06,1355.31,570.31ZM439.05,528.75c-2.42,5-7.83,3.1-8.13,0a128.58,128.58,0,0,1-2.2-14.78c-1.1-10.27.55-13.38,2.2-17.53s8.25-23.9,13.2-28.08,31.35-22.92,31.35-22.92S442.47,522,439.05,528.75ZM674.25,394c-3-1.95-5.35-4.21-8.08-5-3.18-.91-6.73-.64-10.12-.64-1.16,0-13.11.29-17.89.2-18-.32-36.08-.13-54.12-.13-.11-.61-.23-1.23-.34-1.85,7.35-4,14.53-8.31,22.11-11.77,11-5,22.11-9.72,33.43-13.89,12-4.42,24.2-2.57,36.14.78,8.68,2.43,17.25,5.32,27,8.35C691.71,377.69,678.64,380.69,674.25,394Z" fill="#fff"/><path d="M1355.31,570.31c-3.32-12.58-10-22.93-18.58-32.3-6.69-7.33-13.42-14.65-20.52-21.58-9-8.82-18.61-17.08-27.67-25.88-6.83-6.64-13.23-13.72-19.78-20.65-.44-.47-3.52-8.19-5.85-9.89-13.57-9.9-25.79-20.93-41.89-27.48-16.31-6.65-31-17.16-46.47-26q-29.4-16.83-58.79-33.66c-18.15-10.38-36.1-21.15-54.53-31-12.51-6.69-23.54-16.68-38.66-18-8.5-.74-16.69.32-23.92,4.65s-10,14.37-7.39,24.48c1,4.14,2.74,8.16,3.33,12.34.48,3.47-.52,7.11-.35,10.65.21,4.39,1,7.66,1.48,12.08-4.71-.32-8.29-.54-11.86-.82-18.22-1.45-36.45-3-54.68-4.35-6.88-.53-13.78-.81-20.68-1.19-13.08-.72-26.18-2.09-39.26-2-20,.15-40,2.39-60.07,3.18-3.79.15-21.64,1.71-25.83-.14-14.48-6.38-28.49-13.81-42.76-20.69-3.66-1.77-17.37-8-20-9.31-22-11-44.55-18.37-68.77-23.3-16.81-3.43-33.46-2.49-49.47,4-10.13,4.12-20,8.81-30,13.23-4.67,2-9.16,4.19-14-.08-2.63-2.3-6-3.79-9.2-5.37-5.39-2.68-11-4.25-15.95.65-4.3,4.3-7,9.39-3.51,15.43-16.28,9.21-32.12,18.25-48.05,27.14-7.26,4.05-13.39,8.72-23.42,3.41-8.94-4.72-17.82,5.09-16,12.84,1.18,4.93,4.6,9.33,7.49,14.87-4.37,3-9.87,6.46-14.91,10.47-10.74,8.54-22.44,16.3-31.54,26.37-12.16,13.45-18.71,30.63-22.57,48.22-3.37,15.41-4.61,31.29-6.93,46.94-1.35,9.07-.49,18.75-8.28,26-2.41,2.25-4.88,6.27-4.62,9.25,1.09,12.52,1,25.49,8.88,36.43a3.37,3.37,0,0,1,.6,2.51c-2.1,7-3.48,14.38-6.66,20.86-10.66,21.65-22,43-33,64.44-3.32,6.47-7.67,12.73-9.42,19.63-5.2,20.48-9.3,41.24-13.91,61.87-4.43,19.87-9,39.72-13.5,59.8-6.14-5.6-12.74-12.29-20.08-18.06a71.67,71.67,0,0,0-16.53-9.57c-8.24-3.47-16.95-3.18-25.94-2.51-22.37,1.67-36.57,16.36-36.37,37.53.18,18.51,3.12,37,17.34,51.72,13.83,14.33,26.57,29.72,39.57,44.83q15,17.46,29.48,35.42c7.74,9.67,14.21,20.46,22.64,29.46,11.19,11.94,23.8,22.55,35.67,33.86,18.24,17.38,36.31,34.94,54.58,52.29,7.24,6.88,14.57,13.7,22.29,20,16,13.13,32,26.37,48.69,38.67,13.54,10,28,18.75,42.21,27.84a8.79,8.79,0,0,0,6,.85c8.48-1.83,15.73,1,21.39,8,6.79,8.41,19.5,11.41,29.14,3.3,4.53-3.82,9.47-7.17,14-11,5.48-4.61,11.2-9.36,9.16-17.78a51,51,0,0,0-3.86-10.53,204.83,204.83,0,0,0-25.61-39.19c-11-13.37-21.5-27.08-32.19-40.67-6.57-8.35-13.27-16.6-19.47-25.21-1.63-2.25-2.75-5.92-2.2-8.53,3.65-17.14,7.57-34.23,11.9-51.21,4.62-18.18,8.38-36.39,9-55.27.31-9.38,1.78-19.13,7.54-27.06,7.3-10,15.11-19.74,23-29.33,10-12.16,20.36-24,30.41-36.1,9.81-11.79,19.36-23.8,29.18-35.57,2.35-2.82,5.34-4.18,9.43-2.64a13.93,13.93,0,0,0,8.43.65A231.61,231.61,0,0,0,655.72,804c8.93-3.9,17.45-7.42,27.59-3.39,3.48,1.39,8.22-.38,12.38-.71,3.93-.33,7.88-1.09,11.78-.91,7.4.34,14.76,1.33,22.16,1.83,3.32.22,6.69-.34,10-.09,8.84.65,17.67,1.47,26.48,2.36,9.52,1,19,1.95,28.53,3.22,6.39.86,12.7,2.26,19.06,3.35,4.77.82,9.57,1.47,14.33,2.35.76.14,2,1.09,2,1.66-.06,6.67,6.3,8.31,10,10.93,8.2,5.87,186.39,105,196.85,110.52,4.65,2.47,10.2,4.37,10.47,11.33,0,1.33,2.15,3,3.68,3.79,17.35,8.82,34.71,17.6,52.24,26.06,2.71,1.31,6.22,1,9.38,1.28,3.51.29,7.32-.45,10.5.67,23.27,8.14,46.38,16.74,69.62,25,6.55,2.32,12.65,4.9,17.21,10.52a12.42,12.42,0,0,0,6.36,3.66c8.33,2.08,16.73,3.94,25.18,5.51,4.42.82,9.61,2.42,13.36.93,8.88-3.54,16.82-9.24,21.71-17.82,1.16-2,.74-5.91-.44-8.15-1.72-3.28-5.06-5.66-7.26-8.74-13.94-19.6-27.51-39.48-41.72-58.88-10.32-14.09-21.31-27.71-32.27-41.32-6.8-8.46-14-16.61-21.21-24.74-9.64-10.86-19.25-21.77-29.26-32.29-6.91-7.25-14.51-13.85-21.7-20.84-.84-.83-25.63-27.68-26.37-28.49-7.22-7.93-14.28-16-21.7-23.73-2.46-2.57-19.8-23.9-24.86-29.73-2.65-3-33.13-37.25-37.9-42.39-7-7.55-13.2-14.54-16.58-23.79-3.79-10.36-6.79-21-9.79-31.65-1.33-4.69-3.1-9.83-2.34-14.38.79-4.71.82-8.67-1-13-1.21-2.82-3.25-6.64-2.26-8.78,2.3-5,1-8.95-1.54-12.68-1.75-2.6-1.78-3.88.15-6.49,5.21-7,12.49-12.64,14.79-21.7.24-.93,2.15-1.63,3.41-2.06,9.48-3.2,19-6.28,28.48-9.44,18.83-6.28,37.62-12.69,56.53-18.72,2.27-.73,5.48-.12,7.7,1,4.92,2.46,9.3,6,14.23,8.41,5.8,2.83,10.59,8.29,18.19,6.77q20-4,40.2-7.46c6.31-1.07,12.21-2.29,18.87,1.58,16.48,9.58,33.6,18.09,50.66,26.62,16.14,8.07,32.53,15.73,50.18,19.9,6.42,1.51,13.43,2.87,19.77,1.84,7.35-1.2,12.08,3.27,18,5.11,3.64,1.13,7,3.25,10.73,4,9.29,1.77,14.08-5.92,20.41-10.38C1354.47,578.66,1356.82,576.06,1355.31,570.31ZM439.05,528.75c-2.42,5-7.83,3.1-8.13,0a128.58,128.58,0,0,1-2.2-14.78c-1.1-10.27.55-13.38,2.2-17.53s8.25-23.9,13.2-28.08,31.35-22.92,31.35-22.92S442.47,522,439.05,528.75ZM674.25,394c-3-1.95-5.35-4.21-8.08-5-3.18-.91-6.73-.64-10.12-.64-1.16,0-13.11.29-17.89.2-18-.32-36.08-.13-54.12-.13-.11-.61-.23-1.23-.34-1.85,7.35-4,14.53-8.31,22.11-11.77,11-5,22.11-9.72,33.43-13.89,12-4.42,24.2-2.57,36.14.78,8.68,2.43,17.25,5.32,27,8.35C691.71,377.69,678.64,380.69,674.25,394Z" fill="none" stroke="#000" stroke-linejoin="round" stroke-width="8"/></g><g id="Grey"><path d="M990.17,547.31c1.66-9.9-38.38.14-38.38.14l-24.2,18.7s9.49,5.77,12.93,10.72,27,48.82,35.8,62.29,8.61,3.44,8.61,3.44l-12-71S988.51,557.21,990.17,547.31ZM689.44,745.73c-5.91-5.78-15.53-7.57-15.53-7.57s-38.64,16.23-59.4,55.57c-9.08,17.21,9.76,13.87,9.76,13.87s20.35-14,28.46-13.41,124.3,8.46,141.76,10.25,15.82-13.34,15.82-13.34S695.36,751.5,689.44,745.73Z" fill="#8e9ba5"/></g><g id="Canopy"><path d="M1110.19,815.3c-10.72-12.38-99.65-74.48-109.48-81.67-5.69-4.18-20-4.13-25.86-2.48s-8.48,14-3.53,32.73,35.2,60.5,35.54,61.32,17,19.8,39.39,36.47,108.22,49.6,108.22,49.6l17.39-13.92S1120.92,827.67,1110.19,815.3Z" fill="#82b3d1"/></g><g id="Shadows" opacity="0.2"><path d="M349.6,670.37l.42,1,24.5-47.86-4.25-1.71ZM298.12,851.88,262,825.23,237.8,817l-30.23,6.45-16.7,22.74,4,19.21,5.43,31.89L265.05,968l138.49,145.29,94.11,74.07H525l-84.56-118.8L200.27,835.22l26.53-14.53,26,2.8,22.32,15.88,15.44,11,46.2,36.29L472.47,1012.3l19.8,5.32L350,671.38l-29.33,57.29Zm615.77-140.4s-125.26-51.86-153.61-71.42S686.79,583.6,627.45,527.48c-43.75-41.38-53.53-50.07-53.53-50.07l-59.16-29,68.94-41.62,194.57-4.28,7.23,2.4,5.72-2.4a347,347,0,0,0-48.64-28.3c-28.36-13.59-50.84-22.1-75.29-29s-47.59,10-47.59,10l28.93-.64,49.46,13.38-18.3,23.83H664.85L565.15,394l-10.92,8.56h8.44l-59.41,40.27-5.12-2.51-1,12.86-39.54,43.31-23,40.47-3,4.16L426,521.22l-2.27-28.64-33.22-21.21-12.27,38-5.89,49.74-11.42,25.46,5.46,29.12,8.55,9-.42.81,90.63,36.3L436.32,557.74l55.95-61.3,3.36,19.2,99.55,89.17S717,686.1,763.33,726.84c0,0,65.43,64.53,49.08,60.65-43.75-10.39-141.66-55.24-149.64-48-20.08,18.29-59.4,58.51-50.71,62.73,18.68,9,59.23-3.62,99.13-3,55.15.84,110.17,11.67,110.17,11.67l226.22,131.77,56.3,30.81,102.17,31.77,10.2,12.16,21.57,3.76-174-184.09Zm322-234.07-244-140.74L997,385.51H929.74l199.69,114.24,48.75,29.06,98.27,48.06s16.62,1.11,18.09,0S1235.87,477.41,1235.87,477.41Z" fill="#111"/></g><g id="Outline"><path d="M1355.31,570.31c-3.32-12.58-10-22.93-18.58-32.3-6.69-7.33-13.42-14.65-20.52-21.58-9-8.82-18.61-17.08-27.67-25.88-6.83-6.64-13.23-13.72-19.78-20.65-.44-.47-3.52-8.19-5.85-9.89-13.23-9.65-25.79-20.93-41.89-27.48-16.31-6.65-31-17.16-46.47-26q-29.4-16.83-58.79-33.66c-18.15-10.38-36.1-21.15-54.53-31-12.51-6.69-23.54-16.68-38.66-18-8.5-.74-16.69.32-23.92,4.65s-10,14.37-7.39,24.48c1,4.14,2.74,8.16,3.33,12.34.48,3.47-.52,7.11-.35,10.65.21,4.39,1,7.66,1.48,12.08-4.71-.32-8.29-.54-11.86-.82-18.22-1.45-36.45-3-54.68-4.35-6.88-.53-13.78-.81-20.68-1.19-13.08-.72-26.18-2.09-39.26-2-20,.15-40,2.39-60.07,3.18-3.79.15-21.64,1.71-25.83-.14-14.48-6.38-28.49-13.81-42.76-20.69-3.66-1.77-17.37-8-20-9.31-22-11-44.55-18.37-68.77-23.3-16.81-3.43-33.46-2.49-49.47,4-10.13,4.12-20,8.81-30,13.23-4.67,2-9.16,4.19-14-.08-2.63-2.3-6-3.79-9.2-5.37-5.39-2.68-11-4.25-15.95.65-4.3,4.3-7,9.39-3.51,15.43-16.28,9.21-32.12,18.25-48.05,27.14-7.26,4.05-13.39,8.72-23.42,3.41-8.94-4.72-17.82,5.09-16,12.84,1.18,4.93,4.6,9.33,7.49,14.87-4.37,3-9.87,6.46-14.91,10.47-10.74,8.54-22.44,16.3-31.54,26.37-12.16,13.45-18.71,30.63-22.57,48.22-3.37,15.41-4.61,31.29-6.93,46.94-1.35,9.07-.49,18.75-8.28,26-2.41,2.25-4.88,6.27-4.62,9.25,1.09,12.52,1,25.49,8.88,36.43a3.37,3.37,0,0,1,.6,2.51c-2.1,7-3.48,14.38-6.66,20.86-10.66,21.65-22,43-33,64.44-3.32,6.47-7.67,12.73-9.42,19.63-5.2,20.48-9.3,41.24-13.91,61.87-4.43,19.87-9,39.72-13.5,59.8-6.14-5.6-12.74-12.29-20.08-18.06a71.67,71.67,0,0,0-16.53-9.57c-8.24-3.47-16.95-3.18-25.94-2.51-22.37,1.67-36.57,16.36-36.37,37.53.18,18.51,3.12,37,17.34,51.72,13.83,14.33,26.57,29.72,39.57,44.83q15,17.46,29.48,35.42c7.74,9.67,14.21,20.46,22.64,29.46,11.19,11.94,23.8,22.55,35.67,33.86,18.24,17.38,36.31,34.94,54.58,52.29,7.24,6.88,14.57,13.7,22.29,20,16,13.13,32,26.37,48.69,38.67,13.54,10,28,18.75,42.21,27.84a8.79,8.79,0,0,0,6,.85c8.48-1.83,15.73,1,21.39,8,6.79,8.41,19.5,11.41,29.14,3.3,4.53-3.82,9.47-7.17,14-11,5.48-4.61,11.2-9.36,9.16-17.78a51,51,0,0,0-3.86-10.53,204.83,204.83,0,0,0-25.61-39.19c-11-13.37-21.5-27.08-32.19-40.67-6.57-8.35-13.27-16.6-19.47-25.21-1.63-2.25-2.75-5.92-2.2-8.53,3.65-17.14,7.58-34.23,11.9-51.21,4.62-18.18,8.38-36.39,9-55.27.31-9.38,1.78-19.13,7.54-27.06,7.29-10,15.11-19.74,23-29.33,10-12.16,20.36-24,30.41-36.1,9.81-11.79,19.36-23.8,29.18-35.57,2.35-2.82,5.34-4.18,9.43-2.64a13.93,13.93,0,0,0,8.43.65A231.61,231.61,0,0,0,655.72,804c8.93-3.9,17.45-7.42,27.59-3.39,3.48,1.39,8.22-.38,12.38-.71,3.93-.33,7.88-1.09,11.78-.91,7.4.34,14.76,1.33,22.16,1.83,3.32.22,6.69-.34,10-.09,8.84.65,17.67,1.47,26.48,2.36,9.52,1,19,1.95,28.53,3.22,6.39.86,12.7,2.26,19.06,3.35,4.77.82,9.57,1.47,14.33,2.35.76.14,2,1.09,2,1.66-.06,6.67,6.3,8.31,10,10.93,8.2,5.87,186.39,105,196.85,110.52,4.65,2.47,10.2,4.37,10.47,11.33,0,1.33,2.15,3,3.68,3.79,17.35,8.82,34.71,17.6,52.24,26.06,2.71,1.31,6.22,1,9.38,1.28,3.51.29,7.32-.45,10.5.67,23.27,8.14,46.38,16.74,69.62,25,6.55,2.32,12.65,4.9,17.21,10.52a12.43,12.43,0,0,0,6.35,3.66c8.34,2.08,16.74,3.94,25.19,5.51,4.42.82,9.61,2.42,13.36.93,8.88-3.54,16.82-9.24,21.71-17.82,1.16-2,.74-5.91-.44-8.15-1.72-3.28-5.06-5.66-7.26-8.74-13.94-19.6-27.51-39.48-41.72-58.88-10.32-14.09-21.31-27.71-32.27-41.32-6.8-8.46-14-16.61-21.21-24.74-9.64-10.86-19.25-21.77-29.26-32.29-6.91-7.25-14.51-13.85-21.7-20.84-.84-.83-25.63-27.68-26.37-28.49-7.22-7.93-14.28-16-21.7-23.73-2.46-2.57-19.8-23.9-24.86-29.73-2.65-3-32.78-37.2-37.9-42.39-8.24-8.34-13.2-14.54-16.58-23.79-3.79-10.36-6.79-21-9.79-31.65-1.33-4.69-3.1-9.83-2.34-14.38.79-4.71.82-8.67-1-13-1.21-2.82-3.25-6.64-2.26-8.78,2.3-5,1-8.95-1.54-12.68-1.75-2.6-1.78-3.88.15-6.49,5.21-7,12.49-12.64,14.79-21.7.24-.93,2.15-1.63,3.41-2.06,9.48-3.2,19-6.28,28.48-9.44,18.83-6.28,37.62-12.69,56.53-18.72,2.27-.72,5.48-.12,7.7,1,4.92,2.46,9.3,6,14.23,8.41,5.8,2.83,10.59,8.29,18.19,6.77q20-4,40.2-7.46c6.31-1.07,12.21-2.29,18.87,1.58,16.48,9.58,33.6,18.09,50.66,26.62,16.14,8.07,32.53,15.73,50.18,19.9,6.42,1.51,13.43,2.87,19.77,1.84,7.35-1.2,12.08,3.27,18,5.11,3.64,1.14,7,3.25,10.73,4,9.29,1.77,14.08-5.92,20.41-10.38C1354.47,578.66,1356.82,576.06,1355.31,570.31Zm-132.24-130c1.94-.08,8.88,4.15,10.74,5.41,8.58,5.83,9.68,6.82,16.22,11.57,1.09.82,0,2.26-1.31,2.19-1.5-.23-5.2-3.87-8-5.77-2.39-1.59-4.73-2.89-6.48.52-1.28,2.5-1.8,3.89,1.26,6.22,3.42,2.62,5.09,4.5,7.47,6.38-3.08,4.56-4.67,6-8.62,2.71-2.08-1.73-4-4-6.4-4.88a4.79,4.79,0,0,0-2.25-.16,4.23,4.23,0,0,0-3.41,5.81,2.74,2.74,0,0,0,.46.73c2.31,2.68,5.33,4.76,7.59,6.7-2.81,5.34-6.24,10.89-8.72,15.6a70.19,70.19,0,0,0-18.26-11.67c-1.7-.74-4.72-1.84-6.5-1.81-5.65.1-6.37.08-13.41-3.31a143,143,0,0,1,12.32-22.68c1-1.35,4.25-5.06,6.36-6.25C1212.49,441.7,1214.75,440.6,1223.07,440.27ZM1000.55,335.53a42.53,42.53,0,0,1,14.87-5.29c10.44-1.83,19.05,3.42,27.64,8.45q24.63,14.4,49.42,28.53c19.18,10.93,38.44,21.72,57.65,32.61,13.71,7.77,27.38,15.63,41.08,23.42,6.8,3.86,13.63,7.64,19.52,10.94-7,4.78-8.34,5.29-15.13,10.36-5.24,3.9-8.41,6.65-16,23.81-19.72-10.58-39.13-21.21-58.77-31.4-5-2.6-10.68-4-16.14-5.62s-8.8-5-9.5-11a7.15,7.15,0,0,0-3.29-4.41c-14.48-8.66-29.07-17.13-43.63-25.65-13.6-8-26.92-16.47-40.91-23.67-7.56-3.88-9.54-9.76-9.8-16.91C997.35,344.84,995.42,338.72,1000.55,335.53Zm88.56,109.56c-25.26-15-60.07-35.42-84.38-49.85-2.89-2.07-2.47-5.5-3.39-17.05-.07-.88-.29-5.84.1-7.48,7.39,4.21,14.84,8.33,22.17,12.64,19,11.12,37.73,22.66,57,33.28,5.86,3.23,9.81,7.58,10.89,13.3C1092.35,434.44,1090.1,439.55,1089.11,445.09ZM792.8,389.3c13.48,0,29-1.57,44.87-2.45,14.5-.81,22.37-1.64,36.85-1.24,18.42.52,33.44,1.1,51.84,2.48,7.06.53,23.06,1.76,30.11,2.33,12,1,22.31,1.72,34.34,2.89,1,.1,6.85,3.65,9.11,4.71-19.81-1.46-44.87-2.86-63.25-4.07-28.06-1.84-46.09-2.45-69.39-1.69-18,.58-34.54,1.22-52.53,2-4.15.19-8,.58-12.1.56-2.7,0-6.64-1.93-9.92-3.71C790.64,389.94,790.78,389.19,792.8,389.3ZM872.36,494c6.84,4.63,8.87,6.09,12.8,8.6,1.6,1,4.35,2.28,49.24,12.31,11.35,2.54,22.9,4.17,34.19,6.93,2.34.57,3.92,4.23,6,6.69-17.39,5.65-34,11.21-50.68,16.3-2.32.71-5.41-.58-8-1.4-17.69-5.63-30.8-9.31-51.08-15.46-6.12-1.85-14.62-4.2-20.49-6.62-5.37-2.21-10.14-5.9-15.08-9.09-19.59-12.65-39.1-25.42-58.72-38-4.06-2.61-1.4-5.84-.64-8.21.34-1.06,2.83-2.75,4.24-2.64,6.45.49,12.85,1.53,19.28,2.36,7.67,1,15.35,2,23,3,9.44,1.28,18.84,2.92,28.31,3.89,7.13.74,13.66,2.54,19.05,7.4,1.26,1.13,3.26,3.09,3,4C865,489.62,868.45,491.32,872.36,494Zm50.21,67.78-78.78-30.51a1.24,1.24,0,0,1,.82-2.34l76.31,23.41C921.56,555.91,922.06,558.8,922.57,561.73ZM626.86,505.1a36.68,36.68,0,0,0,2.91,11.14c.54,1.28,1.17,2,2.75,5-9.77-1.12-19-2.14-28.22-3.24-8.22-1-16.42-2.2-24.66-3-3-.31-4.86-.23-6.19-4.19-1-3-5.63-5-8.93-7q-23-13.78-46.09-27.27c-6.63-3.88-13.4-7.51-20.29-11.35,1.93-11.56,3.75-22.51,5.6-33.59,13.86-8,27.52-16.18,41.61-23.6,3.22-1.7,8-1.16,11.94-.7,7.83.91,10.8,1.42,24.09,2.89,10.5,1.17,19.15,4.58,27.93,8.87,16.72,8.16,32.88,17.5,49.78,25.25,10.85,5,19.08,12.28,26.08,21.54,1.83,2.42,4.11,4.5,7.05,7.67-5.8-2.08-10.28-4.39-15-5.23a83.05,83.05,0,0,0-19.93-1.51c-5.9.41-11.86,2.22-17.46,4.31-7.88,2.93-10.46,10.78-12.7,17.66C625.42,493.87,626.16,499.48,626.86,505.1ZM455.44,534.17c7.5-1.48,7.41-4.69,8.29-8.22,2.91-11.63,5.25-23.4,8-35.08,3.2-13.77,6.21-24.06,9.87-41.23,1.08-5.08,6.31-8.25,13.79-12.83.09.11.19.21.28.31-1.77,18.19-3.51,36.38-5.35,54.56-.59,5.92-1.81,11.9-2.4,17.61-3.31,31.84-4.94,55-5.51,58.05-13.82-9.79-28.77-20.17-42.31-29.77C445.56,536.34,449.92,535.25,455.44,534.17Zm-16.39-5.42c-1.6,4.4-7.56,3.85-8.13,0a128.58,128.58,0,0,1-2.2-14.78c-1.1-10.27.55-13.38,2.2-17.53s8.25-23.9,13.2-28.08,31.35-22.92,31.35-22.92S442.47,522,439.05,528.75Zm54.14-6.51c23.47,18.92,44.1,35.87,67.46,54.69-14.34,4.46-28,7.81-40.91,13.11-6.91,2.84-10.71.48-15.32-3.25-4.18-3.39-8.7-6.35-12.83-9.79a6.53,6.53,0,0,1-2.26-4.52C489.85,558.35,493.19,526.14,493.19,522.24Zm71.64,59.67c.12,1.33.25,2.22.28,3.11.23,9.76-.14,8.27-9.61,11.37-10.57,3.45-13.37,3.86-22.62,5.92-5.38,1.2-7.62.37-10.8-2.3-.91-.77-1.79-1.57-3-2.62Zm-1.16-12.26c-.8-.9-3.43-3.11.79-4.53,3.32-1.12.7-9.56-3.44-12.17-6.95-4.38-10.91-7.65-17.53-12.51-13-9.57-39.85-29.33-44.17-32.09.42-2.45.92-5.41,1.17-6.91,10.71,8.09,33.45,23.88,50.63,35.65,2.24,1.54,11.62,8.64,13.18,6.6,2.14-2.8.89-9-2.16-11.11-9-6.22-17.94-11.57-26.95-17.79-9.68-6.68-18.53-13-28.21-19.73-1.73-1.19-3.79-2.59-5.57-3.71.35-.57.89-4.1,1.24-4.68,8,5.33,15.19,11,23.31,16.16,10.49,6.68,21.48,13.45,32.17,19.8.84.5,1.75,1.07,2.72,1.55a2.25,2.25,0,0,0,3.25-2,25.79,25.79,0,0,0-.15-2.64c-.16-1.52-.05-3.22-1.38-4.47-2.51-1.79-26.88-16.33-34.55-21-8.91-5.44-7.7-7.94-2.81-5.54,11.73,6.72,23.77,12.94,35.1,20.32,1.81,1.18,4.29,2.29,4.63,2.84,2.47,1.65,2.37,5.73,2.46,8.17.53,14.15,1.91,32.74,3.66,55.42C567.74,572.81,565.35,571.54,563.67,569.65ZM664.42,404.53a1.53,1.53,0,0,0,1.43-2.29c-1.7-3-2.67-4.79-4.73-8.29,6,4,32.08,19.93,37.71,23.73l8.91,5.68-13.9-2.26c-7.06-.6-128.53-19.15-136.26-19.81.21-.45,8.58-3.77,13.12-3.37C579,398.65,649.32,403.49,664.42,404.53Zm-80.72-18c7.35-4,14.52-8.31,22.11-11.77,11-5,22.11-9.72,33.43-13.89,12-4.42,24.2-2.57,36.14.78,8.68,2.43,17.25,5.32,27,8.35-10.67,7.68-23.74,10.68-28.13,23.94-3-1.95-5.35-4.21-8.08-5-3.18-.91-6.73-.64-10.12-.64-1.16,0-13.11.29-17.89.2-18-.32-36.08-.13-54.12-.13C583.93,387.78,583.81,387.16,583.7,386.54Zm130.2,44.94a84.51,84.51,0,0,1,17.57,7.4c5.49,2.94,10.49,6.79,15.89,10.36-1.7,4.24-3.3,8.2-5.25,13L673,424.92c6.58.83,11.64,1.33,16.66,2.14C697.76,428.37,706,429.36,713.9,431.48Zm-22.57,25.67c6.4,1.88,11.75,3.43,17.08,5,12,3.63,24,7,35.79,11.11,4.38,1.53,10.28,2.42,10.53,9.28,0,.79,1.33,1.71,2.23,2.28,11.63,7.36,23.22,14.8,35,21.93,4.13,2.5,8.59,4.45,13,6.56a.91.91,0,0,1-.47,1.73c-3.06-.2-6.21-.64-8.82.36-3,1.15-5.13,4.61-8.22,7.61-8.16-5.43-17.41-11.84-26.93-17.83-5.84-3.68-12-6.87-18.17-10-10.48-5.37-21.46-9.89-31.42-16.07-5.36-3.32-9.1-9.28-13.46-14.15C695.52,462.84,693.9,460.46,691.33,457.15Zm58.06,6.16c-.1-1.25.89-2.62,1.48-3.9,1-2.06,2-4.08,3-6.28,1.8,1.11,3.33,2,4.79,2.95,5.07,3.37,6.28,7.18,2.14,11.68-1.63,1.77-6.44,1-9.7.62C750.31,468.28,749.53,465.12,749.39,463.31ZM803.84,507c-10.62-4.84-30.2-19.73-42.9-26.49-.9-.39-.91-2,.15-2.76,1.23-.81,3.27-.11,4.41.61,15.25,9.62,29.67,18.19,44.85,27.91C812.08,507.15,807.46,508.67,803.84,507Zm-37-53-87.07-56.68c5.45-13.22,18.62-16,28.66-22.76.92-.61,2.93-.32,4.09.24q27,13.06,54,26.35c9.51,4.67,19,9.47,28.45,14.16,2.29,1.13,4.79,3.5,6.79-.55.14-.29,1.47-.16,2.18,0,3,.84,6,1.78,9.35,2.76-11.81,7.47-23.74,14.86-35.49,22.53C773,443.21,770.57,443.6,766.86,454ZM618.26,335.65c12.86-4.35,26.07-1.77,38.83,1.47,17.4,4.41,37.44,10,53.67,17.83,16.87,8.1,30,14.11,46.75,22.41,11.81,5.86,26.93,14.63,39.32,22.28-2.1.16-9.46,3.16-10,2.85-10.91-6.13-21.61-12.66-32.7-18.44-10.5-5.47-21.35-10.28-32.15-15.16-16.13-7.29-32.46-14-49.83-18-19.42-4.45-34.64-4.22-52.44,4.29-12.62,6-25.09,12.38-38.49,19,5.52-11.47-2.22-14.77-10.51-20.4C586.65,347.66,602.25,341.06,618.26,335.65Zm-169.1,61.74c.61-3.32,3.56-5.88,7.24-3.46,9.52,6.25,17.43,2.57,26.09-2.49,18.36-10.72,37.2-20.62,55.83-30.87a3.5,3.5,0,0,0,.82-.71c5.38-5.73-1.24-6.81-4.07-7,.15-6.12,4.14-9.56,9.19-6.61,10.48,6.13,20.52,13,30.7,19.64a3.33,3.33,0,0,1,1.08,1.79c.41,1.36-4.88,12.54-6.16,13.26q-29.31,16.35-58.59,32.75c-4.37,2.45-8.52,5.28-12.8,7.9-3.77,2.32-5.85,4.55-9.16,2.92-8.15-4-9.65.5-17.07-4.34-2.91-1.89-5.14-4.82-8-6.74-4.21-2.8-9.17-4.61-13-7.86C449.46,404.05,448.69,400,449.16,397.39ZM367.39,585.44c-.21-3.23,2.69-6.66,4.46-10.66,8.35,13,5.86,26.74,1.07,39C369.44,605.84,368,594.35,367.39,585.44ZM301,842.39c.06-.35.13-.7.22-1.06,4.36-18.64,8.8-37.26,13.12-55.91,4.44-19.16,8.66-38.37,13.26-57.49.85-3.56,2.89-6.87,4.6-10.19,9.77-18.93,19.29-38,29.51-56.69a206.62,206.62,0,0,0,18.89-48.6c2.32-9.12,2.39-12,2.82-21.15.28-5.81-.8-10.34-1.52-11.4-7.18-10.63-3.33-21.07-2.55-32.19a265.87,265.87,0,0,1,4.33-31.5c3.74-19.45,9.21-38.42,20.8-54.85C414,448,427,438.48,440.69,429.71a97,97,0,0,0,12.66-9.53c2.93-2.63,5.09-3.47,7.89-1.11,9.07,7.64,12.86,10.69,19.84,10.32a1.25,1.25,0,0,1,.8,2.27c-2.86,2-5.72,4-8.55,6-11.52,8.26-23.18,16.33-34.38,25-3.1,2.4-5.06,6.49-7,10.09a84.92,84.92,0,0,0-10,28.57c-3.32,21.89,3.75,42.4,9.36,62.73,6.23,22.59,12.34,35.92,20.35,55.8a51.11,51.11,0,0,0,3.21,7.38l0,0a3.07,3.07,0,0,0,5.59-.79,3.6,3.6,0,0,0,.13-.73c.61-7.76-1.3-11.2-4.53-19.22-7.1-17.63-13.88-33.28-18.77-51.66-.48-1.79-2.22-7.13-2.53-9.16,17.21,10.48,26.32,16.2,37.19,24.36,11.19,8.4,14.45,10.84,25.56,19.33,3,2.27,12.83,11.05,16.64,13.89-7.71,5-14.06,9.17-21.43,13.86-8.62,5.49-17.46,10.65-26,16.29-4.83,3.2-11.8,11.64-5.28,23.58.16.29.53.51.73.82,2.37,3.6-4.88,41.73-5.53,45-4.47-3.39-9-6.75-13.42-10.18q-16.86-13.07-33.67-26.19c-6-4.67-12-9.23-17.62-14.33a9.13,9.13,0,0,1-2.53-7.09c1.52-8.6,3.78-17.07,5.77-25.59a5.15,5.15,0,0,0,.09-3.48c-1-2.44-4.45-3-5.65-.6a2,2,0,0,0-.16.4c-2.36,7.68-3.83,15.65-6.39,23.26a233.3,233.3,0,0,1-9.67,23.85c-5.11,11-10.74,21.72-16.16,32.55-5.29,10.57-10.17,21.38-16,31.63-5.5,9.65-6.71,20.35-9.18,30.75-2.93,12.36-5.53,24.81-8.13,37.24-3.26,15.6-6.3,31.25-9.6,46.84q-.31,1.52-.72,3C311.49,852.73,299.63,850.33,301,842.39Zm-6.42,151.87c-4.93-5.9-9-10.67-13-15.5-10-12.12-19.68-24.49-30-36.33-13.29-15.27-27.18-30-40.51-45.26-2.3-2.63-3.07-6.58-3.6-10.51,5.07,4.52,10.26,8.94,15.2,13.61s9.65,9.75,14.59,14.5c16.31,15.64,32.7,31.2,49,46.85a13.06,13.06,0,0,1,2.61,4c2.32,5.06,4.51,10.18,7,15.92C299.08,989.65,298.94,1000.1,294.62,994.26Zm13.21-14.61c-5.12-4-12.34-11.07-13.4-16.88-.36-2-4.18-7-5.57-8.41-8.35-8.27-13.93-13.53-22.52-21.56-20.47-19.13-41.32-37.89-61.28-57.55-3.53-3.48-5.06-10.64-4.75-15.94a56.63,56.63,0,0,1,3.76-18.71c3.35-8.52,13.34-13.3,21.21-15.17,10.53-2.49,21.75-3.37,31.82,2,6.32,3.36,12.06,8,17.59,12.62q17.26,14.49,34,29.62c14.05,12.65,27.67,25.77,41.85,38.26,7.69,6.76,16.32,12.44,24.21,19,4.48,3.72,8.21,8.33,12.48,12.32,9.11,8.5,18.36,16.85,27.54,25.27q6.51,6,13,12l11.59,10.69s2.32,1.52.16,1.88c-4,.72-8.05,1.3-12,2.19a42.5,42.5,0,0,0-8.5,2.67c-11.56,5.36-17.47,9.9-24.73,17.22-.95,1-4,3.86-4.15,4.92-1,9.08-5.13,9.66-8.6,15.2-1.39,2.2-2.87,4.35-4.06,6.16-10.5-9.11-21.23-18.72-32.29-27.94C331.49,998.05,324,992.4,307.83,979.65ZM447,1029.87c3.65,3.29,7.09,6.82,11.17,10.77-4.45,3.11-8.28,5.93-12.31,8.45-.69.43-2.52-.11-3.29-.8-3.17-2.87-6.24-5.88-9.15-9-3.41-3.66-6.27-1.52-8.9.79-3.14,2.77,0,4.37,1.52,6.19l9.34,10.88c-6.22,5.19-12,10.73-13.66,19.71-7.07-6.23-13.92-12.47-21.05-18.39a10.08,10.08,0,0,0-6.21-2.12c-3.56.08-13.49-6.12-12.73-9.24a43.46,43.46,0,0,1,5.88-12.92c2.43-3.76,7-7.13,7.75-11,2-10,21.84-21,24.23-22.15a59.19,59.19,0,0,1,9.34-3.22,128.5,128.5,0,0,1,15.36-3.8c2.26-.34,5.55.37,7.08,1.9,5.36,5.36,10,11.43,15.21,17,4.76,5.09,9.89,9.84,14.59,14.48l-14.66,6.12c-4-3.48-8.36-7-12.34-11-3.06-3-4.63-.91-6.71,1S444.24,1027.4,447,1029.87Zm33-63.1c-1,6.4-3.61,22.2-6.9,41.28-.2,1.17-29.59-25.33-47.09-41.82l57.8-23.55C482.44,951.25,481.19,959,480,966.77Zm36.41,217.44c-2.44-.43-5.41-.36-7.82-1.49-18.88-8.82-35-21.74-51.15-34.66-9.43-7.55-18.94-15-28.31-22.61-6.59-5.35-13.25-10.65-19.43-16.44-16.12-15.08-32-30.44-48-45.63-2.42-2.3-5.12-4.31-7.13-6,2.84-.7,7.12-.6,7.92-2.21a12.39,12.39,0,0,0,.13-9.6c-3.74-7.87-8.41-15.3-13.57-24.4,8.95,8.08,16.75,15.09,24.5,22.16.63.58,1.4,1.56,1.33,2.26-.69,6.14,3.63,8.81,7.5,12.31,3.59,3.23,7,4.49,11.83,5.25,4.2.65,7.92,5,11.61,8.08,4.06,3.34,8.44,6.57,11.57,10.69,3.35,4.42,5.07,10,8.07,14.76,7.87,12.4,12.88,17.71,22.07,29.08,8,9.93,20,20.14,29.33,29,2.66,2.52,9.87,6.55,13,2.64C498.8,1166.42,507.41,1175.13,516.4,1184.21Zm22.8-428.13c-4.71,12.53-8.31,25.48-13.1,38-8.32,21.73-16.87,43.39-26,64.8-4.84,11.41-6.76,23.33-8.68,35.33-2,12.25-3.63,24.54-5.68,36.77a6.22,6.22,0,0,1-3.25,4.08q-22,8.84-44.16,17.14a4.43,4.43,0,0,1-3.72-.93c-5.3-4.8-10.42-9.79-16-15.11,8.5-3.2,17.33-6.56,26.18-9.85,4.18-1.56,8.64-2.56,12.5-4.68,1.59-.87,3-4.23,2.64-6.1-1.3-6.65-3.37-13.15-5.23-19.69-1.44-5.05-6.24-6.08-12.67-3.29-3.22,1.4-6.82,1.9-10.17,3-1.2.41-23.57,7.87-26.13,9.72-6.41,4.64-8.43,6-12.57,8.84-14.93-13.33-29.38-26.3-43.91-39.18-8.53-7.58-17-15.19-25.86-22.42-2.94-2.42-3.06-5.08-2.45-8,2.56-12.26,5.36-24.46,8-36.7,3.22-14.89,6.31-29.8,9.58-44.67,1.53-7,3.36-13.91,5.17-21.35.89-.31,5.69-.4,7.19-.66,11.57-2,13.23-10.21,16.46-19.06.18-.51-1.26-1.59-1.44-1.9-3.8-6.88,1.36-11.87,4-17.07,6.7-13.3,10.71-21.59,15.51-32.63,1.66-3.82,1.46-8.45,2.22-13.4,8.52,6.67,17.1,13.35,25.65,20.06,13.46,10.55,26.95,21.06,40.31,31.73,1.23,1,2.59,3.11,2.34,4.41-2.08,10.84-4.52,21.6-7,33-6.33-5.34-12.33-10.45-18.39-15.49s-12.21-10.14-18.43-15.07c-3.25-2.57-11.52-1.19-13.44,2.74s1,7.08,4,9.56c10,8.27,20,16.57,30.12,24.73s20.38,16,30.45,24.17c7.59,6.14,12.25,10.32,19.75,16.57,1.34,1.12,6.12,4.2,7.2,4,6.28-1.12,7.44,1.71,15.3,8.29,3.42,2.86,7.78,2.32,9.47-1.71a5.63,5.63,0,0,0-1.16-5.11c-10.91-9.14-22.07-18-33.09-27-8.41-6.87-16.73-13.85-24.74-20.49,2.3-11.05,4.24-22,7-32.63.85-3.32,8.82-52.15,8.52-58.73a12.47,12.47,0,0,0-2.39-6.19c-2.23-3.1-1.13-11.84,2.29-14,15.34-9.52,30.68-19,46.15-28.31,1.4-.84,5.68-2.47,7.43-2.47-1.08,10.86-2.86,25.37-3.94,35.2-1.74,15.95-2.27,22.59-4.07,38.54-.07.54-.52,6.94,6.82,12.06,9.83,8.06,19.13,15.37,30.43,24.64C549.32,731.43,543.9,743.62,539.2,756.08Zm64.54,26.41c-1.43,1.58-3.46,3.66-5,3.45-5.24-1.05-9.55-1.62-13.63-2.91-1.14-.36-2.14-2.77-2.32-4.34-1.26-11.12-2.15-22.29-3.44-33.41-.94-8.07-.9-16.4-7.26-23-1.32-1.37.11-5.21-.13-7.87-.21-2.24-.29-5.18-1.68-6.48-4.86-4.54-10.34-8.42-15.42-12.73-3.39-2.89-6.89-2.73-10.55-1-4.41,2.11-7.86,1.18-11.64-2-1.44-1.23-3.05-2.47-4.57-3.74-4.12-3.42-3-8.06-2.52-12.34,2.18-19.6,2.63-25.47,4.62-41.26.85-6.8,1.41-12.45,2.2-19.25.45-3.84,2.82-6.71,8-7.68,8-1.5,15.76-4.44,23.67-6.6a4.26,4.26,0,0,1,3.13,1.06c8.15,6.57,16.22,13.23,24.32,19.86,14,11.42,28.12,22.63,41.76,34.43,2.5,2.15,3.58,6.52,4.27,10.08,3.06,15.84,5.74,31.76,8.57,47.66.81,4.59,1.91,9.14,2.42,13.77a7.83,7.83,0,0,1-1.44,5.45Q625.61,758.19,603.74,782.49Zm28.09,17.68c-4.2,4-9.13,1.49-13.76-1.29,6.3-8.51,12.6-16.31,18.12-24.64,9.07-13.7,23.67-20.58,36-30.19,3.63-2.82,8.13-.28,11.69,2.32,2.89,2.11,5.12,4.2,8.08,6.53-8.8,6.17-18.13,12.79-27.53,19.31C653.15,780.07,648.63,784.25,631.83,800.17Zm49.38-8.12c-7.78-1.47-13-2.08-22.15-4a58.11,58.11,0,0,1,9.35-9c10.51-7.48,17.36-12.71,30.66-21.64,2.41-1.61,5.14-.9,6.78-.48,4.78,1.2,9.44,2.85,14.91,4.56C706.15,771.7,691.2,776.84,681.21,792.05Zm48.95-8.7c-3.57,2.8-6.6,6.27-10.14,9.11a8.19,8.19,0,0,1-5.24,1.72c-7.13-.6-14.22-1.59-22.43-2.57,2.23-2.35,3.74-4.6,5.81-6q13.94-9.6,28.18-18.72a7.89,7.89,0,0,1,5.74-1c4.73,1.38,9.29,3.41,14.62,5.46C740.88,775.52,735.37,779.25,730.16,783.35Zm33.11,10.35c-1.37,1.28-3.47,2.79-5.09,2.64-8.38-.77-16.71-2-26.25-3.3,2.15-2.5,3.5-4.78,5.47-6.23,5.29-3.89,9-6.95,14.47-10.56a6.47,6.47,0,0,1,6.48-.5c6.1,2.43,10.42,3.8,16.67,6.09C770.69,786.26,767.11,790.12,763.27,793.7Zm32.18,4c-7.13-1.67-14.43-2.56-22.11-3.86,2.35-2,4.55-4,6.82-5.91,2.85-2.39,5.24-2.21,9.29-1a162,162,0,0,1,17.07,5.69C804.11,797.46,799.89,798.74,795.45,797.7Zm182.13,98c-19.83-10.81-36.19-21-53.31-31.07-16.94-9.94-34.1-19.48-51.23-29.09-8.76-4.92-17.68-9.58-26.48-14.44-1.38-.76-11.46-4.6-9.62-7.69l5.84-10L945.54,861c-.12.43,33.88,28.27,39.58,33.44C981.83,898.27,981.58,897.87,977.58,895.69Zm53.32,29.86c-7.42-3.65-14.6-8-17.28-11-7.61-8.62-50.38-47.39-67.27-61.87,3.68-7.74,7.47-15.86,11.39-23.91,2.11-4.34,1.48-7.23-3.1-9.73-13-7.09-25.68-14.72-38.68-21.81-3.44-1.88-6.91-1.29-9,3.07-3.8,8.12-7.88,16.11-12,24.45-14-7.8-27.88-15.64-41.88-23.31-3.7-2-6-4.51-5.35-9,.35-2.6-.27-5.3-3.58-4.45-1.31.33-2.6,3-2.83,4.68-.26,2,.32,2.63.86,5.42-14.62-4.89-38.4-13.67-46.7-16.73-11-4.07-22-8.19-33.13-12.11-9.88-3.5-19.88-6.64-29.76-10.15-13.08-4.64-26.2-9.22-39-14.44-2.66-1.08-5.35-4.56-6.1-7.43-3.07-11.78-5.38-23.75-8-35.64-.65-3-1.08-6.07-2.3-8.81-.85-1.94-6.63-.78-6.28,1.06,1.65,8.61,3.84,17.11,5.83,25.66,1.16,5,2.3,10,3.65,15.79-3.65-1.16-6.58-2.42-9.64-3a61.55,61.55,0,0,0-9.8-.71c-3.16-.06-5.39-.28-5.78-4.52-.56-6.22-2.09-12.36-3.23-18.53-2.53-13.57-5.54-27.07-7.43-40.73-1-7.58-3.46-13.13-9.77-18.11-20.7-16.31-41-33.18-60.91-50.41-2.5-2.16-2-7.78-2.27-12.2,6.08,5.29,12.29,5.31,19.5,4.19,3.35-.51,7.73,3,11,5.48,6.92,5.22,13.28,11.18,20.18,16.42a7.72,7.72,0,0,1,3.38,7.72c-.17,1.63-.51,3.51.1,4.89.77,1.74,6,1.77,6.4.16,3-11.72-4.52-17.92-12.6-24-7.19-5.41-14-11.37-21.22-16.73-1.7-1.25-4.91-2.09-6.68-1.35-9.78,4.06-15.36.57-15.56-10-.25-12.76-2-47.15-2.57-52.58,6.61.53,39.4,4.75,50.32,5.59a13,13,0,0,1,11.15,7c6.47,11.82,16.35,20.66,25,30.62,12.5,14.36,27.93,25,42.57,36.73,7.73,6.17,15.88,11.83,23.42,18.22,2,1.71,2.9,5.14,3.64,8,2.17,8.3,4,16.7,6,25a5.38,5.38,0,0,0,2.27,3.17c9.92,5.15,20.07,9.89,29.88,15.27,5.36,2.94,10,2.09,15.13-.22a9.61,9.61,0,0,1,6.76-.45c16.94,6.72,33.71,13.88,50.64,20.65,19.9,8,39.85,15.85,59.92,23.39,5.89,2.21,8.94,6.91,12.19,11.43Q929.3,749,945.59,772.79c6.49,9.41,12.46,19.18,19,28.56,8.42,12.09,17,24.09,25.81,35.88,9.07,12.11,18.53,23.92,27.85,35.85,6.43,8.23,13,16.37,19.33,24.64,4.82,6.27,9.45,12.68,14.12,19C1045.36,919.58,1037.64,922.46,1030.9,925.55Zm9.14-73.76c-3.85-3.25-7.83-6.35-11.67-9.61-1.23-1-3.21-2.44-3.15-3.58.48-8.78-6.12-13.81-10.23-20.14-2.25-3.45-4.69-6.77-8.13-11.71,8.8-.5,16.89-2.2,24.49-.93,4.67.79,11.38,5.31,15.59,8.66a267.18,267.18,0,0,1,29.7,26.74c2.25,2.28,24.95,25.67,34,35a129.88,129.88,0,0,1,14.77,18.29q-13.43-7-26.85-14c-2.51-1.32-4.87-3-7.47-4.06-10.25-4.35-18.64-11.42-27.26-18.2-2.37-1.86-4.86-3.28-8.32-1.44C1048.85,860.4,1044.55,855.6,1040,851.79Zm28.25,65.77c-9.11-1.27-13.38-7-17.65-12.45-6.26-8.06-12.28-16.31-18.74-24.93,6.67,1,12.31,2.2,16.28,8.63C1054.15,898.49,1061.19,907.52,1068.29,917.56Zm-65.9-123.85a6.89,6.89,0,0,1-5.61-3c-6.14-8-12.07-16.17-18.06-24.29-2.45-2.72-.69-6.44,2.91-4,13.69,9.23,27.48,18.81,42.21,29.51C1014.08,793.09,1009.69,793.46,1002.39,793.71ZM1024.53,769c-5.8,2.3-13.08.67-20.07-5s-16-13.86-22.42-19.93c-1.6-1.52-8-8.39-3.07-10.31,10.47-3.66,16.77,2,23.31,6.61,3.79,2.7,7.22,5.94,11.09,8.53,2.72,1.81,10.34,7.84,13.46,13.13A4.78,4.78,0,0,1,1024.53,769Zm223.76,248.59c-10.7-2.11-21.4-4.26-32-6.8-1.86-.44-3.77-2.44-4.81-4.22-2.69-4.62-7.28-6-11.73-7.58q-39.06-14.18-78.18-28.19c-1.48-.53-3.48-.92-4.8-.35-6,2.57-11,.31-16.17-2.34-14.1-7.19-28.27-14.24-42.44-21.26a11.53,11.53,0,0,1-6.6-7.59c-1.11-3.82-3.3-7.33-5.3-11.59,5.44-3.36,10-6.56,16.28-3.39,14.21,7.2,28.26,14.72,42.34,22.18,10.65,5.65,21.33,11.27,31.81,17.23a15.38,15.38,0,0,1,5.9,6.23c3.38,6.92,10.23,8.36,16.26,10.48,20.55,7.25,42.52,14.08,52.83,17.38,3.85,1.24,5.5-4,9.26-9.78l31.8,28.63C1251,1017,1249.54,1017.82,1248.29,1017.57Zm-66.73-41.94a184.68,184.68,0,0,1,15.79,9.91,1.13,1.13,0,0,1-1.06,2c-6.67-2.33-13.37-4.6-20-7.08s-13.23-5-19.59-8a38.57,38.57,0,0,1-10.81-8.17c10.49-1.42,22.73-8.43,32.49-2.52C1176.41,967.5,1175.94,972.38,1181.56,975.63Zm56.4-8.51c6,6.61,12.24,13,18.32,19.51,3.08,3.32,6.14,6.73,8.88,10.25,3.57,4.6,5.36,7.48,2.55,10.12a40.61,40.61,0,0,0-3.37,2.75c-3.5,3.5-6.76,3.31-10.34-.06-9.66-9.09-19.44-18.07-29.2-27.05-13.37-12.3-26.84-24.49-40.11-36.9-6.25-5.84-5.93-7,.76-12.34,3.13-2.48,5.85-5.46,8.79-8.18,2.42-2.24,4.58-1.85,6.73.56Q1219.41,946.5,1238,967.12Zm-53.71-81.06c6.81,8.29,15.71,15.15,19.77,26.21-3.83-.45-7.16-1.87-9-.78s-2.45,4.85-4,7.12a30.46,30.46,0,0,1-5.58,6.09c-5,4.15-9.93,8.68-16.92,9.36-.67.06-1.82.52-1.85.87-.29,3.56-.8,7.2-.26,10.66.12.8,11.78,3.08,11.78,3.08,2.84,3.33,4.05,4.13,6.87,7.43-1.65.71-6.65-1-8-1.72-5.09-2.82-12.74-2.18-19.17-.5-4.16,1.08-8.38,3.16-12.46,2.91-4.4-.26-8.92-2.23-13-4.28-15.65-8-31.23-16-46.58-24.55-3-1.69-5.24-5.22-7.39-8.21-7.94-11.07-15.71-22.27-23.55-33.43,14.35-.37,25.42,7.26,36.85,13.93,6,3.52,11.93,7.23,18,10.59a11.14,11.14,0,0,0,5.72,1.09c18.85-1.08,33.52,7.39,47.79,18.81,3,2.41,7.85-1,4.74-4.81-.62-.75-1.34-1.61-2-2.38l17-13.61c.3,0,.75-.05,1,.13,2.18,1.76,4.32,5,7.3,2,2.66-2.74-.35-4.75-2-6.91-4.79-6.39-9.61-12.79-14-19.43A142.66,142.66,0,0,1,1168,872.6a74.36,74.36,0,0,1-4.73-10.93C1170.26,869.79,1177.44,877.77,1184.25,886.06ZM1053.31,784.3c10.37.53,17.06,7.73,24.63,13.15a282.07,282.07,0,0,1,25.85,20.42c6.19,5.62,11.4,12.37,16.67,18.92,10.6,13.19,21,26.55,31.38,39.91,4.91,6.33,9.61,12.83,14.8,19.79l-14.35,11.69c-12.68-14.23-25.27-28.42-37.93-42.55-7.4-8.25-15-16.32-22.31-24.65-2.56-2.92-11.87-14.1-14.34-16.46-9-8.56-18.12-17-26.76-25.88-2.45-2.52-5-5.48-4.93-9.83C1046.1,785.88,1049.6,784.11,1053.31,784.3ZM984.92,659.62c3.62,6.38,10.4,20.47,34.85,47.49,1.22,1.35,2.5,2.65,3.75,4-5.3,3.82-5.25,4.27-.83,9a233,233,0,0,1,16.73,19.46l-18.37-13.45c-16.66-12.24-33-24.93-50.07-36.58a95.4,95.4,0,0,1-27.66-29.37c-6.15-9.89-13.62-19-20.86-28.15-9.62-12.18-19.58-24.07-29.39-36.09-.35-.42-19.06-24.4-23.92-28.17a29.71,29.71,0,0,0-7.45-4.05c-10-3.87-20.55-6.58-29.93-11.55-9-4.78-16.88-11.81-25.25-17.86,10.26-.8,20.83-1.36,29-1.48,8.66,3.84,78.25,33.74,89.06,37.2,8.43,2.7,12.84,7.83,17,15.25C955.58,610.25,970.76,634.65,984.92,659.62Zm-30-62.85c-1.93-3.43-4-6.84-5.72-10.4-.3-.62.4-2.25,1.11-2.77,4.83-3.56,9.78-6.94,14.82-10.47l6.57,10.62Zm21.38,9.28c.31,1-1,3-2.1,3.94-2.57,2.15-5.46,3.91-8.49,6-2.27-4.08-4.5-8.06-7-12.58l12.62-9.84C973.11,598,975,601.93,976.28,606.05Zm3.7,29.31-1.67.77c-2.71-4.43-5.43-8.85-8.59-14l4.48-2.66a33.37,33.37,0,0,1,2.28,4.45C977.76,627.69,978.83,631.54,980,635.36Zm-34.15-58.49-12.17-11.46c8.93-8.65,19.1-11.77,38.9-18.77,4.2-1.49,10.68-1.78,14.16,2.19C974.11,557.58,957.16,569,945.83,576.87Zm167-86.38a6.17,6.17,0,0,1-4.76,2.27c-14.08-.9-34.82-2.89-48.92-2.66-18.25.29-141.51,4.62-160.37,2.73a15.2,15.2,0,0,1-6.38-2.07c-6.79-4.24-13.37-8.82-20.08-13.18-3-1.93-6.11-3.13-6.25-7.87-.07-2.15-4.59-2.66-7.22-3-16.18-2.4-32.41-4.57-48.63-6.74-12.63-1.7-25.28-3.29-38.26-5,.87-2.17.73-2.25,1.76-4.56s10.32-7.79,14.46-10.33c9.33-5.71,16.84-10.85,26.12-16.63,4-2.52,8.81,2.43,11.85,4.45,11.79,7.87,23.32,16.14,35.25,23.79a10.57,10.57,0,0,0,8.59.66c6.6-2.86,12.84-1.75,19.84-1.46,11,.47,14.12.61,18.41,1.09,10.82,1.23,10.82,1.23,25.71,10,14.63,8.66,28.89,17.95,43.54,26.56,1.79,1.05,6.39.45,7.39-1,1.88-2.71-.06-5.56-3.35-6.56-5.34-1.62-7.54-6.65-11.34-9.88-4.31-3.66-9.69-6.05-14.58-9.06Q927,444.5,898.32,426.88c-5.5-3.37-11.07-6.64-16.63-9.93-3.07-1.82-5.81-1.6-8.19,1.3-2.11,2.58-2.44,4.54.93,6.55,9.55,5.71,19,11.65,28.4,17.51.57.35,1.08.79,1.61,1.18s.88,1.11-.29,1.07c-10.64-.77-21.49-.55-31.85-2.68-6.12-1.26-11.58-6.08-17.14-9.62-13.77-8.76-27.42-17.71-41.1-26.61a17.71,17.71,0,0,1-2.28-2c17.35-1,35.21-2.22,53.09-2.92,4.73-.18,9.92-.31,14.3,1.82,4.8,2.33,11.69,4.32,14.05-3.47.17-.56,3.25-1.1,4.4-1.1,19.25,0,33.76,1.3,47.44,2.17,12.64.8,17.15.78,28.73,1.51,5.41.34,17,.81,16,2-2.9,2.21-4.95,3.66-6.86,5.27-2.35,2-3.25,3.85.24,5.87,9.31,5.4,18.53,10.95,27.73,16.53,7.16,4.35,8.68,3.13,9.5,2.77,5.8-2.55,15.54-8.31,16.05-9l38.74,23.12c-5.29,7.62-6.67,9.68-9.88,16.62-3.48,7.43-3,8.73,5.09,11.16,5.63,1.7,11.31,3.28,17,4.61,3.66.84,6.67,0,8.39-4.07s4.13-7.94,6.41-12.22L1121,475.75C1118.2,480.92,1115.76,485.87,1112.82,490.49Zm7,2.64,8.44-15.6,31.24,18.91Zm64.12,36a62.89,62.89,0,0,1,7.27-1c7.51-.11,10.63-.22,18.13,0,6.72.2,7.62-6.84,7.6-11.09,0-3.67-2.38-8.11-7.23-11-7.9-4.76-15.49-4.05-23.58-4.44a19.44,19.44,0,0,1-8.53-2.28q-22.2-12.9-44.08-26.33c-7-4.26-27.69-17.2-34.33-21.93-1-.68-2.88-1.74.68-15.33,9.28,4,18.86,7.34,27.78,12,15.4,8,30.4,16.83,45.54,25.36,1.21.68,3.06,1.74,3.13,2.72.61,8.73,5.52,8.27,13.44,11.18,4,1.48,9.67-2,20.06,6.16,4.62,3.61,8.83,6.47,11,13.14,5.07,16,11.48,31.33,27.08,41.17,12.08,7.62,22.77,17.42,33.87,26.65C1247.63,563.35,1216,547.23,1183.94,529.15Zm-357,170.73c-6.4-2.59-12.89-5-19.49-7-1.5-.45-4.52.43-5.22,1.64a89.89,89.89,0,0,0-6.74,14.57c-.43,1.19,1.1,4.15,2.41,4.73,6.36,2.79,12.9,5.21,19.49,7.38,1.63.53,4.91.27,5.39-.67,2.41-4.73,4.29-9.72,6.45-15a3.55,3.55,0,0,0-.18-3C828.38,701.36,827.79,700.24,826.9,699.88ZM478.25,863.09c-6-5.21-11.94-10.56-18-15.68-15.06-12.65-30.26-25.14-45.3-37.82-12.86-10.83-25.54-21.87-38.35-32.76-2.83-2.41-10.61-1.45-12.93,1.87s-.66,6.71,2.05,9.12c7.87,7,15.88,13.82,23.89,20.65,19.8,16.9,38.7,33.16,58.69,49.84,2.8,2.34,7.89-.2,11.35,3,3.84,3.35,7.06,7,11.07,9.31,2.19,1.26,6.42,1.26,8.45-.1C481.83,868.67,480.86,865.35,478.25,863.09Zm3.83-44.39C472.6,811,463,803.32,453.6,795.49c-8.19-6.82-16.12-14-24.34-20.77-11.24-9.3-22.72-18.3-33.92-27.64-4.55-3.79-10.33-3.43-13.63,1.41-1.94,2.84-1.61,5.6.81,7.72,6.79,5.94,13.75,11.7,20.67,17.48q29.91,25,59.88,49.91c3.25,2.68,7.26,6.7,10.62,6.42,4.45-.36,6.57,1.34,9.31,3.64,2,1.66,4.13,3.17,6.46,4.82a5.37,5.37,0,0,0,6,.17c1.1-.7,2-1.35,2.12-2.15a7.88,7.88,0,0,0-1.84-6.26C491.46,826.09,486.69,822.47,482.08,818.7ZM379.54,847.21c-8.08-7.25-16.47-14.16-24.37-21.6-3.38-3.18-6.58-3.6-10.24-1.53-8.74,5-13.55,10.06-19.68,18.08-2.38,3.11-.45,7.86.55,8.78,9.17,8.47,16.29,14.59,25.7,22.79a4.66,4.66,0,0,0,.49.39,7.36,7.36,0,0,0,8.28,0c1.32-.86,2.61-1.72,3.83-2.65,6.41-4.87,12.78-9.8,19-14.88.86-.7,1.58-2.82,1.14-3.59A23.61,23.61,0,0,0,379.54,847.21Zm635.74-367.66c-13-8.14-9.62-8.58-14.73-12.48-2.82-2.16-53-32.26-74.83-45.7-4.37-2.69-8.89-5.15-13.3-7.78-3.84-2.29-7.06-.53-8.9,2.43-2.22,3.57,1.59,5,3.86,6.45,14.28,8.91,28.67,17.61,43,26.49,17.07,10.61,34,21.35,51.11,32,2.46,1.53,5,2.93,7.66,4.39a5.88,5.88,0,0,0,6.73-.61,3.21,3.21,0,0,0,.87-1.1A4.22,4.22,0,0,0,1015.28,479.55Zm29.63-4.52c-1.59-1.61-4.14-2.24-5.84-3.77-2.28-2.06-3.78-5.15-6.27-6.79-5.34-3.53-11.22-6.25-16.69-9.61C993,440.71,970,426.43,947,412.25a34.58,34.58,0,0,0-3.54-1.85,6.91,6.91,0,0,0-7.21.84c-1,.77-2.18,1.52-2.21,2.6-.06,2.71,2,4.06,3.64,5.52a58.11,58.11,0,0,0,8.08,5.32q36.45,22.07,72.93,44.08c7.49,4.52,9.41,5.84,18.46,11a45.17,45.17,0,0,0,5.74,2.38c3.62,0,4.33-4.14,2.55-6.55A4.55,4.55,0,0,0,1044.91,475ZM923.37,612.35a11.82,11.82,0,0,0-5.36.84c-.69.27-1.26.59-1.41,1a5.78,5.78,0,0,0,.75,4.42c1.87,2.86,4.46,5.26,6.24,8.17,2.95,4.83,7,7.6,12.62,7.93a35.53,35.53,0,0,0,3.86,0,3.12,3.12,0,0,0,2.81-4.13,16.69,16.69,0,0,0-1.91-4.07C936.48,620,932.15,613.05,923.37,612.35Z"/></g><g id="Thrusters"><path d="M913.89,833.58l22,12L947,822.82l-22.2-11.91Zm-568.54-.21a69.56,69.56,0,0,0-11.66,9.56c-1.08,1-1.8,4.35-1.11,5,4.81,4.73,10,9,14.86,13.24L366.9,845c-5.1-4.58-9.12-8.87-13.86-12.11C351.32,831.71,347.35,832.14,345.35,833.37ZM990.84,412.55c19.25,12.25,19.53,13.49,32.87,7C1001.26,405.41,1001.26,402.94,990.84,412.55Z" fill="#007aff"/></g></g></svg>