<svg xmlns="http://www.w3.org/2000/svg" viewBox="0 0 1500 1500"><title>Imperial Courier</title><g id="Imperial_Courier" data-name="Imperial Courier"><g id="Colour"><path d="M1399,1149.18c-6.49-13.55-13.12-27.08-20.63-40.07-10.17-17.61-20.92-34.91-32-52A569.15,569.15,0,0,0,1295.64,991c-13.22-15-26.9-29.67-40.49-44.37-10.62-11.49-21.44-22.8-32.15-34.22-8.31-8.87-16.49-17.87-24.89-26.65q-25.63-26.78-51.45-53.38c-.88-.91-1.8-1.79-2.68-2.71-5.78-6-11.39-12.24-17.38-18.07-9.73-9.47-20-18.37-29.5-28.11-7.73-8-14.78-16.67-21.73-25.36-12.49-15.6-24.58-31.53-37-47.15-4.39-5.5-8-12.23-16.23-13.21-1-.12-2.09-1.49-2.62-2.54-6.73-13.3-14.08-26.36-19.77-40.1-3.39-8.17-5.83-17.48-5.63-26.21.25-10.92,7.5-19.93,13-29,5,3.08,9.65,5.89,14.24,8.82,16.11,10.28,32,20.88,48.34,30.82,13.5,8.23,27.44,15.74,41.25,23.46,23,12.88,46,26,69.26,38.38,11.6,6.19,23.22,5.61,34-3,7.92-6.29,16.49-11.78,24.4-18.09,6.32-5,13.59-9.7,15.46-18.36,3.41-15.85.51-30.92-10.14-43-10.87-12.33-23.2-23.42-35.32-34.6-13.25-12.24-27-24-40.53-35.88-11.71-10.24-23.3-20.61-35.36-30.41-11.73-9.55-23.88-18.6-36-27.61-17.15-12.71-34.21-25.58-51.82-37.63-14.11-9.66-28.85-18.43-43.54-27.2-18-10.76-36.16-21.45-54.59-31.53-12.55-6.86-25.61-12.86-38.63-18.83-14.95-6.86-30-13.56-45.21-19.8-19-7.78-38.1-15.12-57.25-22.42a123.58,123.58,0,0,0-15.13-4.21c-2.69-.65-6,0-8.14-1.37a8,8,0,0,0-8.79-.17c-10.34,6-20.42,12.5-30.51,19-3.16,2-2.75,3.94.09,6.54q8,7.32,15.43,15.17c4.42,4.67,8.06,10.19,12.88,14.35,2.76,2.37,4,4.33,3.81,7.78-.16,3.15,11,23.58,12.24,24.7a85.63,85.63,0,0,0,7.45,5.42c0,2.8,6.37,21.2,8.89,23.11,4.08,3.09,7.71,6.77,11.9,10.53-11.82,14.63-61,16.89-69.46,13.76-14-4.28-27.36-11.71-40.91-17.47-13.7-5.82-27.5-12.83-41-19.16-5.28-2.48-8.93-2.46-7.16-10.26.34-1.48-2.46-4.2-3.83-5.17-12.6-8.8-25.09-17.82-38.16-25.86-20.73-12.76-41.87-24.87-62.88-37.17-16.79-9.84-33.5-19.83-50.57-29.16-4.55-2.49-10.39-4.26-15.45-3.89-11.62.87-23.15,3.08-34.65,5.1a137,137,0,0,0-18.55,4.49c-7.2,2.34-11.65-4.21-17.85-4.79-.15,0-.29-.14-.44-.17-3.77-.82-7.33,0-8.89,3.53-1,2.35-.42,5.43-.55,8.33-2.75,1.65-6.21,4.38-10.14,6-9,3.69-18.36,6.66-27.45,10.24-6.13,2.42-9.27,7.63-8.55,13.08.62,4.8,1.29,9.6,1.88,14.4.87,6.95,1.69,13.91,2.57,21.21-3.15,1.9-6.27,3.65-9.24,5.63a7.17,7.17,0,0,1-7.15.81c-6.7-2.39-13.63-4.1-20.45-6.14s-13.49-3.66-19.95-6.2c-5.7-2.25-11.12-1.51-15.19,2-10.63,9.18-20.88,18.85-30.79,28.82-5.52,5.56-12.17,7-19.31,7.81-1.63.17-3.34-.62-5-.76-3-.26-6.2-.87-9.15-.41-6.46,1-11.73,4.42-16.75,8.66-6.14,5.19-9.42,15.84-5,22.21,2.56,3.72,5,7.54,7.86,11,1.54,1.9,2.24,3.13.28,5.18-3.4,3.57-4.05,8.1-3.35,12.76,1.68,11.09,3.44,22.17,5.39,33.21.69,3.92,1,8.52,3.28,11.43,6,7.67,12.94,14.59,19.51,21.81s13.27,14.36,19.73,21.69c10.59,12,21,24.18,31.55,36.26,6.71,7.7,13.76,15.13,20.1,23.13,7.77,9.81,15.94,18.82,28.32,22.88,6.88,2.25,13.61,4.92,20.43,7.35,1.76.63,4.27.5,5.29,1.7,10,11.72,17.83,24.74,21.5,39.88.86,3.54,1.95,8,.61,10.91a52.66,52.66,0,0,1-10.44,15.37c-6.7,6.65-13.82,13.26-21.83,18.1-11.63,7-24.19,12.53-36.46,18.47-1.2.58-3.42.15-4.66-.62-17.88-11-35.46-22.54-53.53-33.22-18.74-11.08-37.86-21.54-57-31.91-3.53-1.91-8-2-12-3.21-2.46-.73-5.18-1.45-7.06-3a7.5,7.5,0,0,0-9.16-.86c-12.55,7.49-24.89,15.34-37.29,23.08-2.52,1.57-3.82,3.32-1.05,5.95,7,6.64,11.44,15,15.87,23.36a77.85,77.85,0,0,0,17.33,22.11,68.85,68.85,0,0,1,10.75,12.18c2,2.9,12.56,16.56,15.62,20.52-.6,0-8,7.15-7.26,8.77,3.75,8.13,34.28,47,44.79,58.82a87.19,87.19,0,0,1,10.67,14.75c3.11,5.5,6.23,10.77,11.7,14.21,3.22,2,7,3.46,9.7,6,8.58,8.1,16.73,16.66,25.15,24.94,13.39,13.17,26.74,26.39,40.35,39.32,6.82,6.48,14.21,12.37,21.31,18.56,7.94,6.93,15.57,14.23,23.8,20.79,16.84,13.44,33.79,26.74,51,39.64,19.22,14.36,38.55,28.6,58.33,42.16,20.8,14.25,42.08,27.79,63.35,41.34,11.52,7.34,23.23,14.43,35.27,20.86,6.75,3.61,14.7,4.54,21.66.54a245.08,245.08,0,0,0,23-15.59c7.77-5.72,15.07-12.08,22.81-17.84,6.63-5,9.71-11.36,9.77-19.51.09-12.33-4-23.41-10.09-33.86-9-15.26-22.18-26.93-34.15-39.53-16.21-17.08-33.47-33.17-50.32-49.64Q551.29,969,536.26,954.65c-4.85-4.65-9.86-9.15-15-13.91,10.89-4.14,21.13-8.24,31.51-11.91,9-3.2,18.2-6.07,27.4-8.81,5.33-1.58,10.83-2.62,16.25-3.89,7.8-1.82,15.56-3.89,23.43-5.36,5.67-1.07,11.49-1.42,17.25-1.92,8.39-.74,16.8-1.94,25.18-1.85,14.19.14,28.38,1,42.55,1.83a172.75,172.75,0,0,1,20.08,2.1q19,3.32,37.88,7.49c3.92.86,9.31,1.85,11,4.62,3.3,5.41,48.62,15,64,20.61,21,7.62,41.59,16.32,62,25.28,22.17,9.72,44.23,19.77,65.89,30.56,32.11,16,63.94,32.5,95.67,49.23,19.59,10.33,38.55,21.88,58.18,32.14,28.89,15.1,58.08,29.62,87.22,44.24,18,9,36,18,54.22,26.53,12.73,5.95,25.74,11.33,38.81,16.48,10.37,4.1,21,7.52,31.56,11.15,15.79,5.43,31.54,11.42,48.74,8,7.16-1.42,14.23-4.53,17.78-10.79A28.93,28.93,0,0,0,1399,1149.18Z" fill="#fff"/><path d="M1399,1149.18c-6.49-13.55-13.12-27.08-20.63-40.07-10.17-17.61-20.92-34.91-32-52A569.15,569.15,0,0,0,1295.64,991c-13.22-15-26.9-29.67-40.49-44.37-10.62-11.49-21.44-22.8-32.15-34.22-8.31-8.87-16.49-17.87-24.89-26.65q-25.63-26.78-51.45-53.38c-.88-.91-1.8-1.79-2.68-2.71-5.78-6-11.39-12.24-17.38-18.07-9.73-9.47-20-18.37-29.5-28.11-7.73-8-14.78-16.67-21.73-25.36-12.49-15.6-24.58-31.53-37-47.15-4.39-5.5-8-12.23-16.23-13.21-1-.12-2.09-1.49-2.62-2.54-6.73-13.3-14.08-26.36-19.77-40.1-3.39-8.17-5.83-17.48-5.63-26.21.25-10.92,7.5-19.93,13-29,5,3.08,9.65,5.89,14.24,8.82,16.11,10.28,32,20.88,48.34,30.82,13.5,8.23,27.44,15.74,41.25,23.46,23,12.88,46,26,69.26,38.38,11.6,6.19,23.22,5.61,34-3,7.92-6.29,16.49-11.78,24.4-18.09,6.32-5,13.59-9.7,15.46-18.36,3.41-15.85.51-30.92-10.14-43-10.87-12.33-23.2-23.42-35.32-34.6-13.25-12.24-27-24-40.53-35.88-11.71-10.24-23.3-20.61-35.36-30.41-11.73-9.55-23.88-18.6-36-27.61-17.15-12.71-34.21-25.58-51.82-37.63-14.11-9.66-28.85-18.43-43.54-27.2-18-10.76-36.16-21.45-54.59-31.53-12.55-6.86-25.61-12.86-38.63-18.83-14.95-6.86-30-13.56-45.21-19.8-19-7.78-38.1-15.12-57.25-22.42a123.58,123.58,0,0,0-15.13-4.21c-2.69-.65-6,0-8.14-1.37a8,8,0,0,0-8.79-.17c-10.34,6-20.42,12.5-30.51,19-3.16,2-2.75,3.94.09,6.54q8,7.32,15.43,15.17c4.42,4.67,8.06,10.19,12.88,14.35,2.76,2.37,4,4.33,3.81,7.78-.16,3.15,11,23.58,12.24,24.7a85.63,85.63,0,0,0,7.45,5.42c0,2.8,6.37,21.2,8.89,23.11,4.08,3.09,7.71,6.77,11.9,10.53-11.82,14.63-61,16.89-69.46,13.76-14-4.28-27.36-11.71-40.91-17.47-13.7-5.82-27.5-12.83-41-19.16-5.28-2.48-8.93-2.46-7.16-10.26.34-1.48-2.46-4.2-3.83-5.17-12.6-8.8-25.09-17.82-38.16-25.86-20.73-12.76-41.87-24.87-62.88-37.17-16.79-9.84-33.5-19.83-50.57-29.16-4.55-2.49-10.39-4.26-15.45-3.89-11.62.87-23.15,3.08-34.65,5.1a137,137,0,0,0-18.55,4.49c-7.2,2.34-11.65-4.21-17.85-4.79-.15,0-.29-.14-.44-.17-3.77-.82-7.33,0-8.89,3.53-1,2.35-.42,5.43-.55,8.33-2.75,1.65-6.21,4.38-10.14,6-9,3.69-18.36,6.66-27.45,10.24-6.13,2.42-9.27,7.63-8.55,13.08.62,4.8,1.29,9.6,1.88,14.4.87,6.95,1.69,13.91,2.57,21.21-3.15,1.9-6.27,3.65-9.24,5.63a7.17,7.17,0,0,1-7.15.81c-6.7-2.39-13.63-4.1-20.45-6.14s-13.49-3.66-19.95-6.2c-5.7-2.25-11.12-1.51-15.19,2-10.63,9.18-20.88,18.85-30.79,28.82-5.52,5.56-12.17,7-19.31,7.81-1.63.17-3.34-.62-5-.76-3-.26-6.2-.87-9.15-.41-6.46,1-11.73,4.42-16.75,8.66-6.14,5.19-9.42,15.84-5,22.21,2.56,3.72,5,7.54,7.86,11,1.54,1.9,2.24,3.13.28,5.18-3.4,3.57-4.05,8.1-3.35,12.76,1.68,11.09,3.44,22.17,5.39,33.21.69,3.92,1,8.52,3.28,11.43,6,7.67,12.94,14.59,19.51,21.81s13.27,14.36,19.73,21.69c10.59,12,21,24.18,31.55,36.26,6.71,7.7,13.76,15.13,20.1,23.13,7.77,9.81,15.94,18.82,28.32,22.88,6.88,2.25,13.61,4.92,20.43,7.35,1.76.63,4.27.5,5.29,1.7,10,11.72,17.83,24.74,21.5,39.88.86,3.54,1.95,8,.61,10.91a52.66,52.66,0,0,1-10.44,15.37c-6.7,6.65-13.82,13.26-21.83,18.1-11.63,7-24.19,12.53-36.46,18.47-1.2.58-3.42.15-4.66-.62-17.88-11-35.46-22.54-53.53-33.22-18.74-11.08-37.86-21.54-57-31.91-3.53-1.91-8-2-12-3.21-2.46-.73-5.18-1.45-7.06-3a7.5,7.5,0,0,0-9.16-.86c-12.55,7.49-24.89,15.34-37.29,23.08-2.52,1.57-3.82,3.32-1.05,5.95,7,6.64,11.44,15,15.87,23.36a77.85,77.85,0,0,0,17.33,22.11,68.85,68.85,0,0,1,10.75,12.18c2,2.9,12.56,16.56,15.62,20.52-.6,0-8,7.15-7.26,8.77,3.75,8.13,34.28,47,44.79,58.82a87.19,87.19,0,0,1,10.67,14.75c3.11,5.5,6.23,10.77,11.7,14.21,3.22,2,7,3.46,9.7,6,8.58,8.1,16.73,16.66,25.15,24.94,13.39,13.17,26.74,26.39,40.35,39.32,6.82,6.48,14.21,12.37,21.31,18.56,7.94,6.93,15.57,14.23,23.8,20.79,16.84,13.44,33.79,26.74,51,39.64,19.22,14.36,38.55,28.6,58.33,42.16,20.8,14.25,42.08,27.79,63.35,41.34,11.52,7.34,23.23,14.43,35.27,20.86,6.75,3.61,14.7,4.54,21.66.54a245.08,245.08,0,0,0,23-15.59c7.77-5.72,15.07-12.08,22.81-17.84,6.63-5,9.71-11.36,9.77-19.51.09-12.33-4-23.41-10.09-33.86-9-15.26-22.18-26.93-34.15-39.53-16.21-17.08-33.47-33.17-50.32-49.64Q551.29,969,536.26,954.65c-4.85-4.65-9.86-9.15-15-13.91,10.89-4.14,21.13-8.24,31.51-11.91,9-3.2,18.2-6.07,27.4-8.81,5.33-1.58,10.83-2.62,16.25-3.89,7.8-1.82,15.56-3.89,23.43-5.36,5.67-1.07,11.49-1.42,17.25-1.92,8.39-.74,16.8-1.94,25.18-1.85,14.19.14,28.38,1,42.55,1.83a172.75,172.75,0,0,1,20.08,2.1q19,3.32,37.88,7.49c3.92.86,9.31,1.85,11,4.62,3.3,5.41,48.62,15,64,20.61,21,7.62,41.59,16.32,62,25.28,22.17,9.72,44.23,19.77,65.89,30.56,32.11,16,63.94,32.5,95.67,49.23,19.59,10.33,38.55,21.88,58.18,32.14,28.89,15.1,58.08,29.62,87.22,44.24,18,9,36,18,54.22,26.53,12.73,5.95,25.74,11.33,38.81,16.48,10.37,4.1,21,7.52,31.56,11.15,15.79,5.43,31.54,11.42,48.74,8,7.16-1.42,14.23-4.53,17.78-10.79A28.93,28.93,0,0,0,1399,1149.18Z" fill="none" stroke="#000" stroke-linejoin="round" stroke-width="8"/></g><g id="Grey"><path d="M979.83,620.17c-3.5-2.67-55.33-30.67-64.5-32.67,0,0-8.33-2.33-12.14-1s-9.52,19.67-9.36,24.74,14.84,17.43,20.65,21.93S973.33,678,983.67,686s17.5,9,23.16,10.17,7.34.5,7.34-2.17S983.33,622.83,979.83,620.17ZM791.09,541.83c-1.72-.57-3.34,1.59-3.34,3s43.58,34.59,45.33,28.92-.16-14.83-2.41-16.75S793.14,542.51,791.09,541.83ZM667.85,764c-13.65-10.5-107.26-70.14-110-69.5-2.16.5-3.83,1.5-11.5,6s-8.83,10.33-8.5,16.83,73,163,76.34,164.67,19.29.17,23.83,1.33,6.8,10.75,7.73,11.28,18.6-2.44,59.94-2.11,69.66,11.17,70.26,9.45-2.33-49.78-5.1-60.45S681.5,774.5,667.85,764Z" fill="#8e9ba5"/></g><g id="Canopy"><path d="M1202.13,973.28c.37-3.3-31.53-45.28-47.48-65.63s-30.76-31.2-37.4-41.07-51.52-50.6-62-61.05-61.23-55.73-72.23-64-26.95-14.3-29.7-13.39c0,0-16,6.24-21.51,8.44s-9.66,16.31-10.39,22,13.75,55,20.16,68.2,56.65,60,66.19,69.66,60.86,36.49,64.31,38.5,107.65,50.79,121.59,50.42S1201.76,976.58,1202.13,973.28Z" fill="#82b3d1"/></g><g id="Shadows" opacity="0.2"><path d="M322.81,653.73l41.93-6.42s-9.19-27.4-41.93-72.6-99.86-80-99.86-80l1.85,49ZM575,1112.06S472.65,1012,359.9,908.14,144.3,737,144.3,737l53.9,73.07,20.9,41.37,28.54,50.63,21.51,11,85.49,83.72,170.63,126.66,69.6,38.65,26.28-14.35-1.42-8.8Zm812.29,73.15c-172.09-161.15-261.5-221.61-253.59-218.55,32.85,12.72,65.83,17.8,65.83,17.8-92.13-110-261-249.7-268.1-245.49s-12.71,14.83-16.9,24.39-1.28,48.95-23.92,27.5S509.5,529.61,495.2,517.51s-23.1,7.15-15.4,13.2,114,108.47,180.4,208.22c74,111.15,33.36,138.47,32.45,167,52.8,1.17,111.1,25.47,111.1,25.47s104.13,22.1,142.46,43.76c50.6,28.6,88.86,39.75,105.59,50.6,39,25.3,72.74,30.6,86,51.7S1402.31,1199.33,1387.24,1185.21ZM816.55,450.87c109.82,57.92,193,133.61,193,133.61l-5,14.62,140.69,83.22s42.56,22.2,52.15,23.14,16.73-7,16.73-7l4.1-7.66-11.73-23.87S1100.2,573.25,966.07,479.33,753.33,355.45,753.33,355.45l48.4,63.32S806.71,445.68,816.55,450.87Zm70.8,257.56s12.8,23.88,15.85,25.85c4.73,3.05,17.33,7.18,15.68,2.32C916.69,730.14,888.81,709.28,887.35,708.43Zm40.22,6.74c4.73,3.05,17.33,7.17,15.68,2.31-2.19-6.46-30.06-27.31-31.53-28.17C911.72,689.31,924.52,713.2,927.57,715.17Z" fill="#111"/></g><g id="Outline"><path d="M912.23,722.67a33,33,0,0,1,6,8.18c1.63,3.57,1.08,5-.11,6.09a1.12,1.12,0,0,0,.63,2c6.46.63,6.32-3.91,6.15-5-1.38-8.25-6.91-14.75-11-18.23A78.29,78.29,0,0,0,902,708a41.87,41.87,0,0,0-14-4.35c-3.81-.6-4.94.8-4.38,5.65,1.3,11.35,14,20.87,19.82,25.19C904.23,730.73,909.9,723.49,912.23,722.67Zm-4.78-4.3c-1.56.6-5,3.62-7.07,7.4C888.49,713.14,883.76,702,907.45,718.37ZM861.77,899.25c-1.15-1.17-1.1-5.77-4-8.45-4.39-4.08-40.15-30.67-53.28-40.38-7-5.2-15.4-9.56-17.22-19.52a7.47,7.47,0,0,0-2.12-2.64,2.83,2.83,0,0,0-4.19,2.38v0c.14,5.32,1.47,21,1.86,36.67.83,10.84.57,11.94,11.75,16.57,13.43,5.58,24,8.54,37.75,13.32,11,3.81,22.09,7.32,33.19,10.82a1.53,1.53,0,0,0,.37.08c1.88.25,2.77-4.39,2.48-4.71C866.39,901.23,863.86,901.36,861.77,899.25Zm77.74-3.09c-4-3.62-12-3.64-15.31.4-2.86,3.45-4.42,7.45-3.92,11.72a13.77,13.77,0,0,0,5.7,9.37c1,.76,2.1,1.51,2.78,1.92,7.54,2.47,12.64-2.08,15.12-5.48C948.21,908.16,946.35,902.43,939.51,896.16Zm-7.71,16.27c-2.89-.75-6.28-1.83-6.41-5.77-.12-3.36,4-7.41,7.18-7.41s5.7,2.54,5.73,6.07S934.66,913.17,931.8,912.43ZM244.56,753.24c-11.28-7.71-22.51-15.53-34-22.93a9.58,9.58,0,0,0-7.67-.74,98.51,98.51,0,0,0-14.09,7.8c-5.78,3.6-5.71,7.87.08,11.86q16.31,11.22,32.73,22.28a7.71,7.71,0,0,0,2.52.88,5.08,5.08,0,0,0,2.45,0,13.38,13.38,0,0,0,3.45-1.24c4.93-3,9.75-6.09,14.56-9.23C248.67,759.22,248.66,756,244.56,753.24Zm81.79,51.37a45.33,45.33,0,0,0-14.87-1.17c-6.4.73-12.13,3.39-17.77,6.12-6.75,3-8.8,13.85-4.68,20,5.12,7.57,12.36,11.12,22,10.58a29.29,29.29,0,0,0,21.83-7.75c3.86-3.58,6.66-8.21,6.14-13.5C338.09,809.76,334.61,807,326.35,804.61Zm43.82,50.86c-12.75-2-19.48.84-22.1,3.73-5.22,5.46-.51,12.08,2.62,14.16,6.6,4.4,11.82,6.88,23.51,4.94,5.95-1,10.56-7.61,9-13.38C382.32,861.55,374.28,856.13,370.17,855.47Zm481.69-484c2.12-1.7.84-3.17-1.83-4.57-8.77-4.9-17.57-9.78-26.67-14-16.58-7.73-12.9-9-29,2-.26.18-.54.33-.79.52-3.21,2.26-2.86,5.91.64,7.64,9,4.44,17.9,9,26.86,13.41,3.66,1.82,7.35,3.58,11.58,5.63a4.24,4.24,0,0,0,4.16-.29C841.85,378.42,847,375.06,851.86,371.45Zm59,61.87a56.63,56.63,0,0,0,9,1.44,8.25,8.25,0,0,0,2.22,0c8.24-1.23,16.55-1.21,21.08-10.82,2.2-4.67,2.42-8.53,1.33-11.47-2.27-3.26-2.37-5.51-14.1-8.62-21.74-4.48-30.25,5.51-31.1,11.32C898.37,421.72,904.64,431.48,910.9,433.32Zm52.59,27.82c3.28,1.77,7.92,3.39,10.69,3.39,4.7,0,8.73,0,10.39-2.95s.08-9.42-2.45-11c-6.23-3.78-12.73-3.4-18.85.34C958,454.17,958,458.19,963.49,461.14Zm-301.69,401a70.08,70.08,0,0,1-7.43-5.08c-7.4-6-14.82-12-22-18.29-6.1-5.34-11.77-11.17-17.9-16.47-1-.84-4-.72-5.05.18-3.74,3.21-7.18,6.78-10.59,10.35a3.2,3.2,0,0,0-.54,3.73c2.73,5.06,13.53,13.09,19.35,18.21,9.78,8.6,19.35,17.44,29.16,26,.77.67,3.37.52,4.09-.23,4-4.24,7.76-8.76,11.55-13.21C664.15,865.34,664.24,863.65,661.8,862.16Zm737.17,287c-6.49-13.55-13.12-27.08-20.62-40.07-10.18-17.61-20.93-34.91-32-52A569.15,569.15,0,0,0,1295.64,991c-13.22-15-26.9-29.67-40.49-44.37-10.62-11.49-21.44-22.8-32.15-34.22-8.31-8.87-16.49-17.87-24.89-26.65q-25.63-26.78-51.45-53.38c-.88-.91-1.8-1.79-2.68-2.71-5.78-6-11.39-12.24-17.38-18.07-9.73-9.47-20-18.37-29.5-28.11-7.73-8-14.78-16.67-21.73-25.36-12.49-15.6-24.58-31.53-37-47.15-4.39-5.5-8-12.23-16.23-13.21-1-.12-2.09-1.49-2.62-2.54-6.73-13.3-14.08-26.36-19.77-40.1-3.39-8.17-5.83-17.48-5.63-26.21.25-10.92,7.5-19.93,13-29,5,3.08,9.65,5.89,14.24,8.82,16.11,10.28,32,20.88,48.34,30.82,13.5,8.22,27.44,15.74,41.25,23.46,23,12.88,46,26,69.26,38.38,11.6,6.19,23.22,5.61,34-3,7.92-6.29,16.49-11.78,24.4-18.09,6.32-5,13.59-9.7,15.46-18.36,3.41-15.85.51-30.92-10.14-43-10.87-12.33-23.2-23.42-35.32-34.6-13.25-12.24-27-24-40.53-35.88-11.71-10.24-23.3-20.61-35.36-30.41-11.73-9.55-23.88-18.6-36-27.61-17.15-12.71-34.21-25.58-51.82-37.63-14.11-9.66-28.85-18.43-43.54-27.2-18-10.76-36.16-21.45-54.59-31.53-12.55-6.86-25.61-12.86-38.63-18.83-14.95-6.86-30-13.56-45.21-19.8-19-7.78-38.1-15.12-57.25-22.42a123.58,123.58,0,0,0-15.13-4.21c-2.69-.65-6,0-8.14-1.37a8,8,0,0,0-8.79-.17c-10.34,6-20.42,12.5-30.51,19-3.16,2-2.75,3.94.09,6.54q8,7.32,15.43,15.17c4.42,4.67,8.06,10.19,12.88,14.35,2.76,2.37,4,4.33,3.81,7.78-.16,3.15,11,23.58,12.24,24.7a85.63,85.63,0,0,0,7.45,5.42c0,2.8,6.37,21.2,8.89,23.11,4.08,3.09,7.71,6.77,11.9,10.53-7.09,11.32-54.61,19.19-73.63,12.63-13.88-4.79-23.19-8.67-36.74-14.43-13.7-5.82-27.19-12.14-40.66-18.47-5.27-2.48-10.7-5.12-8.93-12.92.34-1.48-1-4.14-2.37-5.11-12.6-8.8-25.09-17.82-38.16-25.86-20.73-12.76-41.87-24.87-62.88-37.17-16.79-9.84-33.5-19.83-50.57-29.16-4.55-2.49-10.39-4.26-15.45-3.89-11.62.87-23.15,3.08-34.65,5.1a137,137,0,0,0-18.55,4.49c-7.2,2.34-11.65-4.21-17.85-4.79-.15,0-.29-.14-.44-.17-3.77-.82-7.33,0-8.89,3.53-1,2.35-.42,5.43-.55,8.33-2.75,1.65-6.21,4.38-10.14,6-9,3.69-18.36,6.66-27.45,10.24-6.13,2.42-9.26,7.63-8.55,13.08.63,4.8,1.29,9.6,1.89,14.4.86,6.95,1.68,13.91,2.56,21.21-3.15,1.9-6.27,3.65-9.24,5.63a7.17,7.17,0,0,1-7.15.81c-6.7-2.39-13.63-4.1-20.45-6.14s-13.49-3.66-19.95-6.2c-5.7-2.25-11.12-1.51-15.19,2-10.63,9.18-20.88,18.85-30.79,28.82-5.52,5.56-12.17,7-19.31,7.81-1.63.17-3.34-.62-5-.76-3-.26-6.2-.87-9.15-.41-6.46,1-11.73,4.42-16.75,8.66-6.14,5.19-9.42,15.84-5,22.21,2.56,3.72,5,7.54,7.86,11,1.54,1.9,2.24,3.13.28,5.18-3.4,3.57-4.05,8.11-3.35,12.76,1.68,11.09,3.44,22.17,5.39,33.21.69,3.92,1,8.52,3.28,11.43,6,7.67,12.94,14.59,19.51,21.81s13.27,14.36,19.73,21.69c10.59,12,21,24.18,31.55,36.26,6.71,7.7,13.76,15.13,20.1,23.13,7.77,9.81,15.94,18.82,28.32,22.88,6.88,2.25,13.61,4.92,20.43,7.35,1.76.63,4.27.5,5.29,1.7,10,11.72,17.83,24.74,21.5,39.88.86,3.54,1.95,8,.61,10.91a52.66,52.66,0,0,1-10.44,15.37c-6.7,6.65-13.82,13.26-21.83,18.1-11.63,7-24.19,12.53-36.46,18.47-1.2.58-3.42.15-4.66-.62-17.88-11-35.46-22.54-53.53-33.22-18.74-11.08-37.86-21.54-57-31.91-3.53-1.91-8-2-12-3.21-2.46-.73-5.18-1.45-7.06-3a7.5,7.5,0,0,0-9.16-.86c-12.55,7.49-24.89,15.34-37.29,23.08-2.52,1.57-3.82,3.32-1.05,5.95,7,6.64,11.44,15,15.87,23.36a77.85,77.85,0,0,0,17.33,22.11,68.85,68.85,0,0,1,10.75,12.18c2,2.9,12.56,16.56,15.62,20.52-.6,0-8,7.15-7.26,8.77,3.75,8.13,34.28,47,44.79,58.82a87.19,87.19,0,0,1,10.67,14.75c3.11,5.5,6.23,10.77,11.7,14.21,3.22,2,7,3.46,9.7,6,8.58,8.1,16.73,16.66,25.15,24.94,13.39,13.17,26.74,26.39,40.35,39.32,6.82,6.48,14.21,12.37,21.31,18.56,7.94,6.93,15.57,14.23,23.8,20.79,16.84,13.44,33.79,26.74,51,39.64,19.22,14.36,38.55,28.6,58.33,42.16,20.8,14.25,42.09,27.79,63.35,41.34,11.52,7.34,23.23,14.43,35.27,20.87,6.75,3.6,14.7,4.53,21.66.53a245.08,245.08,0,0,0,23-15.59c7.77-5.72,15.07-12.08,22.81-17.84,6.63-5,9.71-11.36,9.77-19.51.09-12.33-4-23.41-10.09-33.86-9-15.26-22.18-26.93-34.15-39.53-16.21-17.08-33.47-33.17-50.32-49.64Q551.29,969,536.26,954.65c-4.85-4.65-9.86-9.15-15-13.91,10.89-4.14,21.13-8.24,31.51-11.91,9-3.2,18.2-6.07,27.4-8.81,5.33-1.58,10.83-2.62,16.25-3.89,7.8-1.82,15.56-3.89,23.43-5.36,5.67-1.07,11.49-1.42,17.25-1.92,8.39-.74,16.8-1.94,25.18-1.85,14.19.14,28.38,1,42.55,1.83a172.75,172.75,0,0,1,20.08,2.1q19,3.32,37.88,7.49c3.92.86,9.31,1.85,11,4.62,3.3,5.41,48.62,15,64,20.61,21,7.62,41.59,16.32,62,25.28,22.17,9.72,44.23,19.77,65.89,30.56,32.11,16,63.94,32.5,95.67,49.23,19.59,10.33,38.55,21.88,58.18,32.14,28.89,15.1,58.08,29.62,87.22,44.24,18,9,36,18,54.22,26.53,12.73,5.95,25.74,11.33,38.81,16.48,10.37,4.1,21,7.52,31.56,11.15,15.79,5.43,31.54,11.42,48.74,8,7.16-1.42,14.23-4.53,17.78-10.79a31.47,31.47,0,0,0,2.47-5.56c.71-.41,1.11-1.29.81-2.88A28.67,28.67,0,0,0,1399,1149.18ZM1074.36,765.82c4.07,4.64,8.09,9.33,11.72,13.55a.79.79,0,0,1-.9,1.25c-3.85-1.52-7.32-3.24-12.92-4-3.79-.55-5.42,0-6,.22-3.14,1.41-1.16,5.53,0,6.89a97.72,97.72,0,0,0,14,13.55,22.41,22.41,0,0,0,10.3,4.44c3.41.36,6.6.28,6.42-6.6,0-1-2.66-6.55.2-4,1.29,1.12,2.37,2,3.34,2.92,19.46,19.43,39.09,38.71,58.29,58.39,15.61,16,30.74,32.47,46,48.78q19.8,21.12,39.48,42.34c12.59,13.52,25.43,26.81,37.66,40.65,11.5,13,22.75,26.33,33.38,40.08,11.14,14.42,22,29.15,31.91,44.4,10.26,15.73,19.16,32.33,28.93,48.39a239,239,0,0,1,14.94,28.7.71.71,0,0,1-1.24.68c-24.51-36.25-84.4-98.82-146.21-153.28-12.79-11.27-11.82-20.6-20.38-34.05-11.6-18.22-37.72-26.69-46.53-27.86-1.21-1.56-2.41-3.13-3.57-4.72-.67-.91-11-14.44-13.35-17.13-7.54-8.78-14.69-17.91-22.23-26.7-7.29-8.5-14.87-16.75-22.29-25.06-.89-1.51,1.72-3,2.8-1.9,6.68,6.68,6.82,6,13.28,2.34,2.77-1.57,3.2-3.56.49-6-8.87-8.07-17.72-16.18-26.37-24.49-7.81-7.49-15.34-15.27-23-22.93-1.23-1.22-2.53-2.38-3.85-3.5-4.07-3.44-2.5-3.13-9.38.14-7.7,3.67-6.79,4.59-10.36,2.29-2.11-1.35-.43-2.51.65-3.06,2.09-1.08,4-2.07,5.9-3.1,4.35-2.36,4.66-4.87,1.33-8.5-7.63-8.35-15.18-16.77-22.92-25.33,4.72-1.91,4.94-3.14,2-7-4.09-5.41-8.13-10.86-11.8-16.67a.6.6,0,0,1,.88-.8c4,3.11,7.91,6.32,12.15,9,6.58,4.21,12.33,9.82,20.68,11.23C1070.38,759.73,1072.32,763.49,1074.36,765.82Zm-40.72,137.7c-2.08-9.06-4.29-18.08-6.72-27-.42-1.57-1.28-1.8-3.23-4.22a53,53,0,0,1,1-11.81,35.16,35.16,0,0,1,3.42-9.05c2.22-4.17,3.91-7.39,6-11.61,1.54-3-.82-6.11-4.65-6.34-1-.06-2.64-.23-4.42-.4a1.24,1.24,0,0,1-.24-2.41,63.23,63.23,0,0,0,15.25-6.31c4.81-2.85,10-5.13,11.16-11.85a.8.8,0,0,1,1.41-.4c3.85,4.67,6.95,8.29,10.17,9.59,4.2,1.71,9.39,3.29,12.54,6.41,11.94,11.79,23.41,24.08,35.59,36.73-10.06-.21-16.24,5.88-21.06,12.51a107.28,107.28,0,0,0-14,25.12c-3.36,9.06-4.13,18.27-6.35,28.92-7.21-3.9-29.85-16.55-35.85-20.79C1033.7,907.63,1034.09,905.48,1033.64,903.52Zm-14.25-3.35c-25.35-18.24-45.8-41.87-68.1-65.66,25.43,1.56,50.47,2.68,74.72,4.14a1.47,1.47,0,0,1,1.13,2.28c-5.31,7.91-9.75,17.29-9.56,27.3C1017.77,878.82,1018.75,889.4,1019.39,900.17Zm-162-195.84c6.72.17,18.89-1.22,33.19-13.57a41.82,41.82,0,0,0,10.94-15.52l14,9.66c-1.18-.26-2.37-.47-3.55-.66-3.81-.6-5,.8-4.39,5.65,1.31,11.35,14,20.87,19.83,25.19.75-3.76,6.42-11,8.75-11.82a32.86,32.86,0,0,1,6,8.18c1.63,3.57,1.09,5-.1,6.08a1.14,1.14,0,0,0,.64,2c6.44.61,6.31-3.92,6.13-5a26.37,26.37,0,0,0-2.64-7.78.32.32,0,0,1,.47-.41c1.48,1,3.87,2.74,4.73,3.41,6.68,5.23,10.61,10.6,14.65,18a.41.41,0,0,1-.54.56c-11.19-5.56-20.63-1.47-29.46,3.38-8.62,4.74-13.51,13.14-17.35,22.12l-16.62-13.13h0l-1.64-1.29,0,0C886.45,728,872,716.19,857.37,704.33ZM528,469.11c6.72-6.34,15.67-7.76,22.26-7.77,9.4,5.52,28.39,16.55,28.46,16.59s26.11,14.8,37.82,21.54c15.91,9.17,31.77,18.43,47.66,27.64,7.35,4.26,14.72,8.47,22.14,12.74-6.79,7.75-5.23,14.12,4.07,19.84,12.59,7.74,25,15.85,37.49,23.67,5.41,3.38,10.94,6.61,16.6,9.55,6.65,3.46,13.79,4.84,20.6.92,4.65-2.67,8.09-1.53,12.11,1,2.65,1.7,5.32,3.37,8,5-5.91-.17-14.79,1.31-24,10.06a50,50,0,0,0-9.56,13c-4.55-3.22-9.09-6.41-13.6-9.51a4.38,4.38,0,0,1,.36-1.27c5-7.09,4.88-10.67-2.09-15.46-14.49-9.94-29.27-19.47-44.09-28.92-5.08-3.24-10.4-6.46-16.06-8.33-4.69-1.56-10.54-2.63-15-1.16s-7.28.3-10.29-1.53c-12-7.26-23.62-15.06-35.66-22.19-18.54-11-37.16-21.84-56-32.25-12.87-7.1-26-13.78-39.05-20.5A30.77,30.77,0,0,1,528,469.11Zm-12.8,10.22L508.68,476c-3.43-1.78-6.93-3.41-9.9-4.86,7.68-4.53,15.83-8.54,23-13.87,2.9-2.17,4.77-5.81,6.59-9.33,2.45,1.4,4.89,2.8,7.34,4.22a1.63,1.63,0,0,0,.28.3c2.23,1.59,4.54,3.09,6.88,4.53-5.28.88-11.7,3.41-18.28,9.67A49.89,49.89,0,0,0,515.2,479.33Zm289.62,81.39c23.38,15.44,46.22,31.73,69.24,47.71,9.85,6.84,19.68,13.71,29.35,20.81,12.82,9.41,25.49,19,38.2,28.61q14.11,10.62,28.21,21.29l-20,23c-13.18-9.26-26.17-18.81-39.58-27.73-26.82-17.83-53.85-35.33-80.9-52.8q-4.07-2.64-8.18-5.21c3.26-5.33,13.09-24.12-.94-36.76-16.5-14.85-135.58-80.57-145.48-85.8s-17.32-5.77-22.27-3.3c-4.45,2.23-13.53,9.09-17.33,12.91-3.5-2-7-4.06-10.5-6.07-13.54-7.79-27.13-15.49-40.7-23.21,27.33-18.61,39.82-13,52.4-7.59,8,3.45,59.56,30.61,99.24,51.66,3.39,2,6.78,3.92,10.16,5.91C765.71,535.91,785.5,548,804.82,560.72Zm-12.66-16.67c7.43,2.84,14.87,5.65,22.28,8.53,2.45.95,4.81,2.16,7.26,3.13,10.29,4.09,10.29,4.07,9.48,15.78l-39.73-26A.79.79,0,0,1,792.16,544.05Zm182,181.72c.59,1.21,5.59,9.41.23,8.72-2.39-3.4-5.1-10.84-6.74-14.57-2.9-6.61-8-10.82-13.53-14.76L974,682.32q5.26,4,10.53,7.95c1.85,1.39,3.85,2.61,6,4.09-4.28,3.78-8.89,7-12.47,11.2C973.17,711.33,970.33,718,974.16,725.77ZM931.38,699c-1.56.61-5,3.62-7.07,7.4C912.42,693.73,907.68,682.59,931.38,699ZM689.25,534.79Q664.61,520.54,640,506.25c2.81-2.53,8.8-7.85,11.14-9.36,3.85-2.48,11.55-3.85,20.63,1.37,14.4,8.29,124,68.2,144.8,87.18,9.73,8.87,2.19,23.69-.27,27.9-8.39-5.23-16.84-10.4-25.21-15.67-5.27-3.33-10.6-6.61-15.53-10.4-3.23-2.49-5.91-1.68-9.07-.42-1.36.54-3.37,1-4.47.34-5-2.8-9.71-6.05-14.59-9-5.52-3.38-43.81-26.23-50-30.51-.09-.07-2.29-2.8-2.2-4.21C695.47,538.79,692.63,536.74,689.25,534.79Zm-33.49,31.56c19.57,12.43,38.73,25.5,58.08,38.28,10.51,6.94,21.22,13.61,31.53,20.84,12.62,8.83,25,18,37.36,27.22-4.61,3.68-14,11.09-16.36,12.49-4,2.31-13.11,2.56-20.07-1.74-14.13-8.74-128.61-81.14-148.6-101-8.73-8.66,5-20.64,11-25.2Q632.41,551.5,655.76,566.35Zm100.65,60.06a31.1,31.1,0,0,1,8.19-13.93c9.56-9,23.64-8.1,29-7.28,8.36,5.22,16.73,10.41,25,15.7,18.76,12,37.51,23.93,56.09,36.17,7.33,4.84,14.59,9.78,21.82,14.75.12,2.9-1.63,8.09-10.57,16.47-11.39,10.68-27.41,11.41-34.79,11C820.08,674.26,788,649,756.41,626.41Zm174.36,117c5.79-7,15.52-10.56,24.31-11.72,17.29-2.26,80,59.81,84.56,64.41,2.94,2.94,4.87,7.21,6.28,11.23,1.08,3.08-1,6.32-4,8.54-6.88,5-10.55,6.75-16.54,8.9a40.51,40.51,0,0,1-18.23,2.65L958,823c-3.74-.34-7.49-1-11.21-.87-2.69.1-3.91-1.1-4.58-3.16-5.11-15.74-10.22-31.48-15.13-47.28-1.36-4.37-2.74-8.93-2.88-13.44C924,753.15,930.19,744.14,930.77,743.43ZM1083.3,902.06c2.67-7.27,10.66-20.17,14.44-24.49,7-8.08,15.24-6,22.4-3.53,4.82,1.64,8,8.14,11.84,12.56,2.44,2.82,4.69,5.82,7,8.72,15,18.45,52.66,63.42,60,79.89,1.53,3.41-1.46,6.48-6,5.8-5.34-.82-72.65-23-116.91-47C1076.2,930.61,1081.31,907.46,1083.3,902.06Zm-53.92-193,5.92,7.22c.3.36,21.38,27.43,23.83,30.37,2.66,3,0,3.75-5.17,0-8.68-6.85-17-14.17-26.12-20.44-9.44-6.51-16.11-17.43-22.15-25.79C1025,703.12,1025.4,705.06,1029.38,709ZM995.44,659.6c4.64,9.79,9.11,19.66,13.68,29.49.78,1.68,1.74,3.28,2.61,4.91-15.47-.39-26.1-9.91-37.28-18.51-9.63-7.42-19.5-14.51-29.25-21.77-5.26-3.92-25-18.06-29-22.14-7.34-7.46-11.16-11.07-16.54-16.79-2.72-2.89-2.19-6.68-1-10,1.94-5.53,4.36-10.89,6.58-16.35,10.71.87,13.42,1.58,30.11,12.43-4,1.15-10,2.74-12.73,3.6-1.13.36-3.07,1-3.06,1.5a5.19,5.19,0,0,0,1.57,3.57c7.57,6,15.28,11.89,22.93,17.83,7.9,6.12,15.73,12.33,23.72,18.33a5.86,5.86,0,0,0,4.39.86c3.86-1,7.56-2.58,11.41-3.56,1-.27,2.52.63,3.61,1.29C992.85,647.75,993,654.34,995.44,659.6Zm-18.65-32.75a44.82,44.82,0,0,0,1.58,7.24,1.16,1.16,0,0,1-1.85,1.2L942.4,608.2c-.71-.49-.43-1.14.39-.88s5.5,2.11,5.87,1.75c3.15-3.07,5.31-.05,7.65,1.12,2.91,1.47,13,6.76,21.11,11A21.51,21.51,0,0,0,976.79,626.85Zm207.45,69.63c-11.72-5.35-31-15.17-37.06-18.62-14-7.9-27.78-16-41.66-24-9.31-5.35-18.76-10.47-27.91-16.06-15.79-9.65-31.42-19.56-47.09-29.39q-8.29-5.22-16.49-10.58a60.59,60.59,0,0,1-5-3.41c.84-.77,2.24-3.44,3.09-4.12,23,13,46.62,26.88,69.79,39.7,13.56,7.5,27.51,14.3,41.23,21.53,17.07,9,33.95,18.37,51.19,27,6.29,3.15,13.32,4.9,20.13,6.9s13.68,3.48,20.18,5.1C1208.25,698.83,1195.91,701.81,1184.24,696.48Zm-15.51-140.89,55.89,51.15c-7.54,4.5-10,5.16-18.78,11.36-4.09-3.21-7.75-5.41-11.72-8.09a3.62,3.62,0,0,0-.43-.24,2.62,2.62,0,0,0-3.11,3.93,3.17,3.17,0,0,0,.34.39c2.94,2.75,6.33,5,9.52,7.48-3.26,3-10.89,9.06-12.21,10.12-6.06,4.88-9.75,10.31-10.57,21.24-.33,4.34-.81,8.73-1.35,14-6.2-4.08-12.37-7.78-18.15-12-13.72-10-27.74-19.71-40.7-30.65-3.64-3.07-11.13-9-11.13-9,13.69-29.13,28.81-34.58,38.81-43.1C1152.36,566,1160.37,561.74,1168.73,555.59Zm-374.2-165.1c-6.56-4.16-13.8-7.5-19.64-12.49-5.63-4.82-10-11.2-14.57-17.13-.62-.8-.52-2.16-.48-4.16a1.19,1.19,0,0,1,1.94-.92c6.7,5.32,11.92,2.34,17.55-1.81,6.87-5.06,14.52-9.05,21.56-13.89a6,6,0,0,1,6.33-.62c9.64,3.88,19.27,7.79,28.93,11.63,11.68,4.64,23.46,9,35.05,13.87q17.85,7.47,35.39,15.68c13.58,6.36,27.1,12.88,40.42,19.76,9.39,4.85,18.52,10.26,27.6,15.7,19.3,11.55,38.68,23,57.66,35.05,12.33,7.85,24,16.68,36,25.19,8.88,6.34,17.75,12.7,26.38,19.36,14.47,11.16,28.78,22.52,43.09,33.89,7.1,5.65,14,11.54,21.08,17.22,4.84,3.9,4.06,4.52-1,8-3,2.06-4.55,4.48-8.09.54-3.71-4.11-8.46-7.44-13.18-10.42a8,8,0,0,0-7-.15c-3,1.86-1.21,4.38.89,6.15,4.5,3.79,9.06,7.5,13.48,11.15-2.06,2.24-3.47,2.78-7.13,5.79-2.14,1.76-3.72,2.95-6.45,5.26-6.8-5.11-10.34-7.89-16.71-12.06-1.67-1.1-6-1.06-6.8.07-1.56,2.25-.91,5.18,2.14,7.15,4.57,2.94,9.37,6.94,13.7,10.13-6.53,5.46-17.19,17.82-22.37,32.16-6.26-4.86-10.91-8.51-16.82-13.84-14.15-12.77-29.15-24.6-43.84-36.75-13.09-10.82-26.3-21.49-39.75-31.85-10.57-8.15-21.25-16.22-32.51-23.34-6.65-4.21-14.62-7.09-23.19-4.48a6.64,6.64,0,0,1-5-.56c-14.66-9.64-29.71-18.82-43.55-29.54-6.38-4.93-9.88-13.41-15.51-19.52a130,130,0,0,0-17.77-15.77c-8.33-6.24-17.13-11.89-25.86-17.56C822.58,408.29,808.55,399.4,794.53,390.49ZM771.1,473.68c14.1-.4,26.23-3.65,40.26-10.17,7.53-3.51,12.77-10.9,18.76-16.78a102,102,0,0,0,10.33-12.18c1.19-1.58,1.31-4,1.91-6,0,0,11.89,7.46,19.74,13.35a117.24,117.24,0,0,1,15.12,14.2c-1,2.1-1.72,3.78-2.5,5.43-5.45,11.57-5.66,12.15,4.76,20.49,11.32,9,23,17.6,34.89,25.94,5.53,3.9,11.76,6.81,18,10.36a7.08,7.08,0,0,1-2,1.16c-6.57,1.15-13.15,2.32-19.75,3.27a7.08,7.08,0,0,1-4.62-.73c-9-6.2-17.53-13-26.72-18.82-10-6.3-20.41-11.83-30.78-17.44-1.64-.88-4-.61-6-.53-7.08.3-14.15.75-21.23,1.12-.44,0-40.68,3.76-58,6.31-4.81.71-18.19-6.28-40.14-14.42A164.46,164.46,0,0,1,700.72,468C724.69,471.45,748.2,474.34,771.1,473.68ZM497.85,334.35c12-4.93,19.27,4.32,27.81,8.91,15.53,8.35,30.56,17.65,45.75,26.63,8.31,4.92,16.51,10,24.76,15,11.28,6.84,22.61,13.6,33.82,20.56,6.29,3.91,12.38,8.14,18.53,12.21-4.67,7.62-4,11.55,3.48,15.26,15.15,7.54,30.53,14.59,45.86,21.76,8,3.73,16,7.3,23.79,11.8-5.42-1.72-17.85-2.72-22.94-5.12C676.79,451,659.5,441.53,637.66,431c-7.13-3.44-14.54-7.31-21.95-10-3.83-1.4-5.7-2.38-9.9-2.38a5.75,5.75,0,0,0-3.19,1.46c-17.28-6.4-77.16-29.15-108.1-47.95a18.84,18.84,0,0,0,5-3.59c.53-.55,2.25-.1,3.37.13,5.82,1.21,7.78.2,9.08-4.81,1.1-4.28-.88-7.88-5.29-8.25-5.58-.46-9.84-2.86-14.12-6.3s-9.16-5.64-15-9.13C485,338.07,491.71,336.87,497.85,334.35Zm-41,47.76c8.77-1.95,17.4-4.45,26.14-6.5,2.4-.56,4.8-1.07,7.11-1.78,20.72,12.65,60.33,31.17,111.66,49,0,2,.4,4.22,1.53,5.14a102.37,102.37,0,0,0,16.43,11.26c9,4.75,18.21,9,27.53,12.95q36.78,15.74,73.73,31c10.46,4.35,20.94,8.76,31.65,12.44,16.7,5.73,33.57,11,50.43,16.21,10.31,3.2,20.62,6.52,31.13,8.91a372,372,0,0,0,39,7.14,190.94,190.94,0,0,0,33.64.91,135.15,135.15,0,0,0,28.94-5.22c10.88-3.33,19.38-6.64,29.92-9.69a8.79,8.79,0,0,1,6.62,1.17c12.58,8.94,25,18.12,37.38,27.33,4.5,3.34,8.81,6.95,12,9.49-.32,3.39-1.38,6-.56,7.79,1.42,3.08,2,6.7-.44,8.67-1.72,1.4-8.48,10.7-16.5,23.65-4.61,7.45-10.1,16.67-13.38,24.79-.88,2.18-1.14,4.61-1.74,7.29-5.38-3.88-15.94-10.52-16.8-11-7.7-4.66-15.55-9.1-23.46-13.41-9.78-5.33-11.2-5.3-20.76-11-17.23-10.28-33.58-4.27-41-6.4-8.6-3.2-39.49-15.49-45.54-17.41-2.39-6.37-6.9-10.13-13-12.49-9.1-3.51-18-7.64-27.18-10.82-4.33-1.5-8.87-4.17-13.85-2s-8.25-1.89-11.54-3.8c-21.12-12.27-41.77-25.34-62.88-37.64-13.48-7.85-27.4-15-41.27-22.11-14.36-7.41-28.84-14.59-43.37-21.65q-16.43-8-32.91-15.75l-10-5.42s-50-25-75.66-35.93c-19.32-8.19-38.53.05-50.6,6-6.82-2.83-13.91-4.92-20.45-8.38C441.67,386.43,448.9,383.89,456.9,382.11Zm-78,283.13c-5.43-13.54-9.43-20.86-16-33.94a102.65,102.65,0,0,0-9.27-13.73c-3-3.35-6.82-3.2-11-3.06-6.32.2-11.28,3.37-16.49,6.12-4.67,2.46-5.6,5.44-4.74,10.51.81,4.75.91,9.62,1.39,15.3l-28.44-33.2c-3-3.52-5.93-7.1-9-10.57q-18.82-21.27-37.74-42.49c-3.78-4.24-8-8.13-11.43-12.62a24.88,24.88,0,0,1-4.71-9.78q-3.36-16.44-5.55-33.1a10.18,10.18,0,0,1,2.73-7.43c7.5-7.44,15.38-14.49,23.23-21.56,3.67-3.3,7.59-6.32,11.47-9.52,6.42,6.51,12.51,12.84,21.37,15.43.9.26,1.8,2.8,1.6,4.11-.78,5.25,2.75,9,7.74,7.74,3-.73,7.51-1.69,10.51-2.42,5.91-1.43,5.76-3.84,7-8.39a4.84,4.84,0,0,1,2.35-2.91,70.67,70.67,0,0,0,11.31-6c15.6,12,53.17,43.42,66.82,77.25a18.77,18.77,0,0,0-6.22,6c-4.43,6.95-5.9,14.09-6.65,21.89-1.52,15.76.55,31.31,4.18,46.43,3.58,14.87,9.14,29.27,14,43.82a81.57,81.57,0,0,0,4.77,10.64c2.19,4.33,2.89,8.27.31,13-3.81,7-6.77,14.39-11,21.21-.9-5.12-1.42-10.34-2.76-15.34C385.78,687.4,383.22,676,378.93,665.24Zm-28.42,99.43a116.77,116.77,0,0,0,17.6-12.08c13.38-11.36,16.58-16.73,23.69-26.9a146.12,146.12,0,0,0,22-49.45c2.41-10.28,4.6-20.9,5.07-31.22,1-20.9.69-29.85-2.53-46.47-2.35-12.17-5.84-20.92-8.58-33-.56-2.51-1.87-4.85-2.83-7.27-.69-2.14.14-3.89,1.51-3.34,2.81,1.26,5.48,3.92,7.64,5.88a93.53,93.53,0,0,1,14.27,17c-1.82,3.07-2.75,8.69.28,17.94,6.6,20.19,21.09,75.36,1.47,130S410,772.16,406.65,777.11s-5.76,20,10.49,32.45c10,7.72,20.08,15.3,30.11,23,2.86,2.18,5.54,4.6,8.63,7.18-3.12,4.62-6,9.17-9.19,13.52s-6.53,8.39-9.73,12.45L322.81,779.1C331.32,774.71,341.11,770,350.51,764.67ZM257.67,900.23c-8.09-6.15-14.23-19-21-30.44.52-.18,9.71-8.89,14.75,2.11,3.07,5.14,12.56,20.35,14.48,26.38C267.22,900.59,263.92,904.44,257.67,900.23Zm54,46.9c-11.1-10.24-21.43-21.28-32.72-31.32-1.15-1-2.5-1.84-3.73-2.81-3.16-2.49-5.21-4.59-4.12-9.8,1.45-7-2.43-13.57-6.22-19.54-.88-1.39-1.89-2.7-2.81-4.09a.6.6,0,0,1,.88-.8q11.39,9.5,22.77,19c6,5,12.15,9.88,17.86,15.21,4.59,4.27,8.06,8.15,9.2,16,.8,5.54,1.63,11.64,2,16.73A1.84,1.84,0,0,1,311.67,947.13Zm307.64,195.46c-5.65,6.32-14.25,12.81-22.61,13.9-4.22.54-9.39-1.35-13.23-3.66-20-12-39.74-24.37-59.42-36.86-14.19-9-28.29-18.18-42.12-27.72-12.95-8.94-25.56-18.36-38.19-27.75Q425.53,1047,407.59,1033c-11.1-8.64-22.22-17.28-32.92-26.4-15.8-13.45-31.26-27.29-46.81-41-3.37-3-6.5-6.2-9.55-9.13,7.08-5.29,5.76-12.28,4.51-19.47a.73.73,0,0,1,1.31-.57c7.38,9.89,33.84,39.28,58.32,63.16,11.39,11.11,22.81,19.48,55.27,44,19.71,14.89,117.46,82,130.44,89.66,1.45.85,6.5-.86,8.25-.29,3.07,1,4,2.57,7.62,5.46,4.57,3.68,8.06,6.69,13.5,8.63C607.4,1150.56,622.43,1138,619.31,1142.59ZM567,990.74c19.89,20.08,39.59,40,59.53,60.13a38,38,0,0,1-3.11,2.5c-3.56,2.26-18.09,12.6-22.16,15.77-3.37-3-8.59-8.24-13-11.79-1.16-.94-4.68,2.56-3.72,3.56,3.81,3.91,8,7.5,12.16,11.38a205.19,205.19,0,0,0-20.08,15.86c-6.52,5.19-8.84,12.11-8.77,22.51,0,2.88.12,6,.12,9.83-7-5.21-13.68-10-20.2-15.12-10.58-8.25-21.06-16.64-31.54-25-4.28-3.42-8.59-6.84-12.55-10.61-1.31-1.24-1.93-3.55-2.21-5.45-.4-2.67-1.87-7.63-1.88-13.71,0-7.26,5.06-14.77,8.59-18,7.79-7,31.1-22.26,42.62-30.3C555.88,998.76,560.89,995.09,567,990.74Zm-28.42-24.2c6.88,6.43,14.21,14.24,20.59,20.27l-10.34,6.75c-4.42-4.12-10-9.67-15-13.93a14.34,14.34,0,0,0-6.28-3,4.37,4.37,0,0,0-3.7,2.08c-.54,1.33-.39,3.74.51,4.73,4,4.46,8.5,8.55,12.73,12.85,1.55,1.58,2.64,2.39,4.06,4.07-2.28,1.55-18.53,12.86-19.38,13.62-5.19-4.5-11.66-10-16.88-14.44-1.3-1.1-2.74-2.64-4.22-2.76-1.76-.13-4.42.53-5.23,1.79s-.34,4.28.74,5.37c5.6,5.69,10.64,10.12,16.84,15.9-3.05,1.91-14.74,8.45-18.75,19.57-2.93,8.11-3,12.38-1,21.59-3.67-3.17-9.8-7.91-13.54-11.29-17.74-16.09-35.39-32.28-53.17-48.33-11.14-10.06-22.34-20-33.69-29.86-12.1-10.46-24.46-20.59-36.6-31-8.35-7.17-16.44-14.64-24.78-21.82-10-8.64-20.32-17-30.32-25.68-9.56-8.31-18.77-17-28-25.66q-20.38-19-40.62-38.15C228,825,223.38,821,219,816.65c-15.45-15-30.28-30.8-46.46-45-9.57-8.41-15-19-21.07-29.47-.75-1.29-1.91-3.82-.88-4.7l1.32-.53c2.88-1.2,6,1.92,8.59,3.23,1.13.58,3.09.84,4,.24,13-8,24.55-14.84,37.38-23.06a1,1,0,0,0,.2-.15,3.44,3.44,0,0,1,3.88-.36c7.43,3.9,15,7.64,22.19,11.94,22,13.11,44,26.2,65.69,39.88q26.79,16.92,52.68,35.25c14.75,10.45,28.9,21.77,43.2,32.86q20.91,16.25,41.58,32.81c7.09,5.66,14,11.5,21,17.34,8.4,7.05,11.81,10.52,20.08,17.74,7.05,6.16,17.69,16.78,24.56,23.14Q517.81,947.1,538.56,966.54Zm86.27-72.13c-10,.2-10.64-.07-11,10.13-8.41,2.05-18.77,4.21-27.29,6.28-21.76,5.3-42.54,12.53-63.32,20.7a44.68,44.68,0,0,1-6,2,8.27,8.27,0,0,1-7.24-2c-14.27-13.06-25-23.22-39.54-36-9.88-8.74-19.29-16.9-29.38-25.72,10.45-12,21.23-30,31.11-45.45,4.8-7.47,11.22-23.95,13-59.72.59-12.06-.26-24.17-1.05-36.21-.53-8.07-2.12-16.08-3.41-24.08-1.92-11.83-3.72-23.69-6.1-35.44a207.78,207.78,0,0,0-6.74-26.07c-5-14.53-9.64-29.32-16.43-43-6.11-12.31-14.73-23.41-22.57-34.81-2.75-4-6.56-7.23-9.79-10.9-4.84-5.5-13.53-7.46-21.2-5.48-4.55-11.63-20.17-42.51-67.33-78.67a70.94,70.94,0,0,0,5.84-5.18c10.86-10.75,21.8-21.44,32.95-31.89,3.25-3,7.29-5.32,11.12-7.68a4.86,4.86,0,0,1,3.75,0c9.24,3.6,18.54,7.08,27.66,10.95-14.65,15.22-12.5,30.13,1.14,46.26,14,16.54,103.26,113.78,134,214.3-1,.73-5.56,4.59-6.22,5.22l-3.91-3.9a28.93,28.93,0,0,0-3.37,3.65c-3.69,5.73-1,11.31,1.08,16.58,3.6,9.37,7.62,18.59,11.78,27.73,6.38,14,13,27.92,19.57,41.84,7.42,15.68,15.11,31.24,22.34,47,6.92,15.1,13.39,30.4,20.07,45.6,1.18,2.68,1.15,4,2.81,6.33a7.72,7.72,0,0,0,5.2,2.81c6.66.37,13.6-.31,20.27-.24,1.4,0,3.25,2.8,4.54,4C635.69,893.67,630.26,894.3,624.83,894.41Zm-59.52-193c10.48,6.64,20.86,13.44,31,20.52,14.53,10.11,28.84,20.54,43.25,30.82.75.54,1.71,1.53,2.33,1.37,7.67-2,23,13.11,23.77,14.11s-.69,6.54-2,6.51c-2.14,0-3.86-1.64-5.63-2.74-13.86-8.79-26.23-20.14-42.2-25.3a52.26,52.26,0,0,0-17-2.69c-16.59.38-28.94.48-46.24,1.36-3.32-7.55-7.58-16-10.71-24.89-1.47-4.14-2.53-9,1.76-13.25C550,701,556.19,695.63,565.31,701.4Zm87.28,189.36a45,45,0,0,0-5.43.63,28.49,28.49,0,0,0-2.7-4.48,28.87,28.87,0,0,0-3.92-4.75c-3.31-2.93-6.8-3.89-16.57-3-9.06.83-8.92.62-12.6-7.81-4.64-10.63-9.57-21.14-14.33-31.72-.38-.84-9-20-13.44-29.17,6.34-2.19,12.67-4.53,19.09-6.57,7.39-2.33,14.89-4.31,22.28-6.61,8.35-2.6,15.83-1.13,24.17,1.93,12.07,4.43,39.79,14.95,51.88,19.5,12.44,4.68,25,9.19,37.44,13.74,5.45,2,10.71,3.83,16.91,3.2,5.54-.56,15,10.87,15,16.76,0,10.05,2.2,41.18,3.21,46.27-8.78-1.39-18.67-3.35-28.66-4.55C705.71,889.45,693.34,889.31,652.59,890.76Zm228,34.06c-5.16-1.74-10.36-3.45-15.61-5.26-22.7-7.81-38.47-13.08-57.66-18-17.75-4.59-22.87.27-10.09,3.38,11.45,2.79,22.69,6.39,33.92,9.94s22.28,7.52,33.4,11.35c.56.19,1.25.8,1.37,3,.29,5-6.75,1.1-18.63-2.34-3.41-1-6.77-2.17-10.13-3.32-3.94-1.35-5.57-.25-5.66,4a7.63,7.63,0,0,0,0,1.91,41.51,41.51,0,0,0,.78,4.22c-41.45-15.21-83.57-26-127.42-30.29v-8c38.95,2.24,71.14,10,75,10.45,0,0-3.38-29.84-3.69-36.92-.31-6.76-.64-13.52-.9-20.28-.54-8-1.49-58.56-33-97.68s-180-118.16-201.62-160-15.41-53.74-11.12-61.84c3.67-6.94,16.64-19.51,21.91-24.44,14.08,7.62,28.09,15.4,41.89,23.5,3.45,2,6.88,4.08,10.31,6.12-7,6-22.43,21.51-9.87,33.81,15.86,15.53,139,95.49,148.69,101.13S763,673.73,768,671.46c4.23-1.9,14.83-10.33,19.86-14.93,7.69,5.71,15.34,11.48,22.86,17.4q25.72,20.22,51.2,40.73,15.55,12.54,31,25.29c-5.43,2.72-20.5,10.44-23.93,13.91-12.49,12.59-24.35,34.67-15.55,62.49,3.29,10.39,28,75,32,87.13C887.13,908.67,883,919.37,880.55,924.82Zm497.87,254.35a34.5,34.5,0,0,1-13.9-2.78c-14.61-6.07-29.56-11.32-44.33-17-6.9-2.65-13.82-5.28-20.5-8.41-2.35-1.1-3.89-3.8-6-5.53-3.67-3-7.41-8.78-11.22-11.6-18.75-13.85-40.93-21.33-61-32.82-16.78-9.62-34.26-18-51.24-27.28-18-9.85-35.9-20-53.79-30.15-4.72-2.67-7.11.81-6.76,4q-34.57-19.47-69.17-39-34.35-19.38-68.66-38.79a97.51,97.51,0,0,1-9.56-5.83c-.94-.69-1.25-2.6-1.38-4-.24-2.75.51-5.79-.46-8.18-.51-1.25-4.47-2.49-5.69-1.76-2.21,1.33-3.54,4.12-5.16,6.22-10.67-5.39-22.23-11-33.59-17a207.54,207.54,0,0,0-28.86-12.17c2.51-5.59,6.76-19,3.38-26.93-4.31-10-21.36-59.07-31.26-84.37s5.09-49,11.41-55.74c4.36-4.64,19.36-12,27.06-16.11l11.77,9.67a17.29,17.29,0,0,1,1.61,1.7c-8.39,4.51-18.13,7.12-23.25,15.76A30.67,30.67,0,0,0,884,784.76c-.65,12.34,1.86,16.71,5.13,24.5,2.74,6.56,6,12.92,9.22,19.25,2.75,5.4,5.66,10.74,8.8,15.93,1.36,2.25,3,2,4.64-.59a1.63,1.63,0,0,1,2.66-.2c4.72,5.91,9.16,12.08,14.49,17.35,7.09,7,15,13.22,22.85,19.39,1,.83,4.37.1,5.71-1,3.75-3.14,7-6.86,10.47-10.36,5.63-6.37,8.11,1.6,3.84,5.73-2.89,2.79-6.54,7.36-9.69,9.87-2.56,2-1,3.61.64,5,5.19,4.28,5.88,5.55,11.38,9.41,17.07,12,34.36,23.64,51.47,35.58,3.32,2.31,5.67,2.31,8.51-.76,7.91-8.57,4.74-8-5.2-14.35-3.35-2.12-2.2-5.77,2.75-3.4,2.06,1,47.47,26.51,69.16,36.3,7.19,3.25,14.25,6.79,21.56,9.75l5.24,2.11c.61,10.95,9.12,37.61,27.61,47.92,24.07,13.42,34.44.52,60,11.91,26.48,11.84,136.45,118,164,153.69A.88.88,0,0,1,1378.42,1179.17Zm13-3.4a29.8,29.8,0,0,1-4.7,2c-20-32.92-148.45-151.83-169.59-160.5-21.45-8.8-35.3.18-57.56-10.63-15.72-7.64-23.38-30.23-25.95-40q16.36,6.51,32.85,12.72a222.84,222.84,0,0,0,21.24,6.89c8.07,2.14,10.58,1.83,14.85-.25,4-1.95,4.6-10.63,1.79-15.17-5.72-9.26-11.84-18.28-18.08-27.21-1.31-1.88-2.68-3.71-4.07-5.53,15,4.93,29,11.1,36.6,25.45,6.21,11.73,6,19.25,20,32.64,10,9.58,139.63,123.54,157.16,172.45C1395.19,1171.85,1393.7,1174.56,1391.45,1175.77Z"/></g><g id="Thrusters"><path d="M353,867.86c11.6,7.15,26.92,1.56,24.07-2.18C369.71,855.84,347.11,862.78,353,867.86Zm736-78.66c-4.84-6.37-11.74-8.6-16.1-7.71-1,.21-1.08,1.37-.43,2.16,3.1,3.74,5.93,5.93,10.36,9.25a8.6,8.6,0,0,0,7.45,1.64C1091.73,794.08,1089.46,789.68,1089.06,789.2Zm-156.49,110c-3.18,0-7.3,4-7.18,7.41.13,3.94,3.52,5,6.41,5.77s6.53-3.64,6.5-7.11S935.87,899.24,932.57,899.25Zm41.27-448.38c-4,0-9.17,2.91-9,5.33.17,2.83,4.42,3.61,8,4.15s8.2-2.62,8.16-5.11S978,450.87,973.84,450.87Z" fill="#007aff"/></g></g></svg>