<svg xmlns="http://www.w3.org/2000/svg" viewBox="0 0 1500 1500"><title>Imperial Clipper</title><g id="Imperial_Clipper" data-name="Imperial Clipper"><g id="Colour"><path d="M1414.83,1103.08c-9.22-16.85-19.35-33.22-29.61-49.46a396.71,396.71,0,0,0-23.17-33.37c-13.3-16.92-27.23-33.35-41.17-49.75-13.33-15.7-27.07-31-40.52-46.65-3.32-3.86-6.87-6.7-10-10.77-4.52-6-50.85-47.33-60-54.2-15.38-11.54-31.07-22.69-46.68-33.94-5.63-4.05-11.86-7.38-17-12-13.35-12-25.63-25.18-39.47-36.51-12.28-10.07-24.86-19.67-35.81-31.27-6.92-7.33-14.43-14.12-21.56-21.27a5,5,0,0,1-1.24-3.47c.66-9.05,1.61-18.09,2.21-27.14.2-3.08.7-4.49,4.23-5.79,4.27-1.57,10.21-5,11-8.56,2.46-11.72,3.24-23.83,4-35.84.82-12.52.74-25.1,1.34-37.64.48-9.9.08-19.07-10.09-24.75-2-1.13-2.75-4.56-4.46-7.61,7.77-1.21,13.73-4.26,14.22-10.55,1-12.57.28-25.27.28-38.77,6.7,3.08,12.29,5.7,17.92,8.21s11.39,5.32,17.28,7.43c10.83,3.89,21.64,8.11,32.79,10.77,7.36,1.76,14.32,8.54,22.84,3.27.54-.34,2.31,1.08,3.36,1.87,7.56,5.73,24.68,6.93,32.08,2,6.68-4.48,13.48-8.88,19.57-14.08,2-1.74,3.18-6,2.78-8.82-1.68-11.92-8.48-21.72-14.57-31.7-4.62-7.57-12.72-13.18-12.78-23.28,0-.48-.6-1-1-1.42-6.12-6.55-12.14-13.19-18.42-19.58-3.53-3.59-7.55-6.67-11.22-10.12-5-4.65-9.72-9.5-14.68-14.14-7.13-6.67-14.7-12.9-21.44-19.95-4.11-4.3-6.45-10.29-10.58-14.57-4.32-4.48-9.73-8-14.84-11.62-16.28-11.64-32.14-24-49.1-34.52-18.14-11.27-35.64-23.43-55.75-31.87-22.43-9.41-43.06-23.05-64.7-34.44-5.92-3.12-12.51-6.24-19-6.77-13.68-1.12-23.8,7.31-32.76,16.27-2.11,2.12-2.69,8.57-1,11.19,8,12.8,16.72,25.21,25.8,37.29,5.12,6.79,9.09,13.33,8.9,22.35s1.17,18.08,1.85,27c-4.35,3.14-9.14,5.95-13,9.69-2,1.88-3.53,5.68-3.05,8.19a27.64,27.64,0,0,0,5.32,10.93c5.06,6.74,10.68,13.05,15.19,18.48-6.88,6.34-13.36,12.42-20,18.34-1.38,1.23-3.37,2.74-4.94,2.6q-15.58-1.44-31.08-3.63c-12.45-1.77-24.82-4-37.27-5.78-10.14-1.44-20.35-2.36-30.5-3.74-7.4-1-14.74-2.4-22.1-3.59s-14.71-2.45-22.08-3.52c-13.23-1.93-26.47-3.75-39.71-5.63-9.35-1.32-18.74-2.41-28-4.09-9.61-1.74-19.64-2.78-28.54-6.44a258.77,258.77,0,0,1-36.36-19c-21.57-13.21-42.65-27.24-64-40.85-2.77-1.76-5.71-4-8.78-4.4-10.69-1.4-15.41,8-13.21,17.38.93,3.94,2.5,7.74,3.73,11.47-3.64,2.14-7,4.14-10.32,6.05-15.48,8.78-31.1,17.32-46.36,26.46-3.68,2.21-5.56,2.4-8.48-.73-2.51-2.69-5.83-4.63-8.87-6.79-8.74-6.2-15-4.54-19.9,5-7.67,14.81-15.81,29.39-23.11,44.38-3.61,7.42-5.65,15.39-1.14,23.67,2.73,5,4.55,10.48,7.1,16.5-8.36-2-14.26,1.68-19.66,6a28.8,28.8,0,0,0-11.06,26.6c.45,4.26,9.43,28.64,14,35.64,3.36,12.83.29,21,0,26.78-.21,5.07-1.56,10.08-2.31,15.13-2.81,18.86-5.74,37.69-8.29,56.58-1.56,11.54-2.45,23.16-3.76,34.73-1.51,13.31-3.22,26.61-4.7,39.93-1.32,12-2.3,24-3.7,35.92-.67,5.71-2,11.34-2.79,16-4.51-.24-7.95-1.34-10.75-.44-23,7.38-44.33,18.37-65.72,29.4-15.05,7.77-30.81,14.16-45.93,21-5.31-4.25-10.82-7.9-15.41-12.47-13.9-13.86-30.08-24.63-46.22-35.53-8.62-5.83-17.47-11.46-25.4-18.14-13.58-11.45-27.2-22.69-43.09-30.9-7.34-3.79-14.75-5.85-22.5-1.87-8.87,4.55-17.87,9-26.2,14.41-9.39,6.1-11.61,12.72-9.1,20.06,5.7,16.65,14.89,31.46,23.59,46.59,4.36,7.57,13.35,13.73,9.41,24.61-.17.45.19,1.15.41,1.7,4.29,10.67,8.62,21.33,12.87,32,.37.93.73,2.42.27,3.06-3.77,5.27-.9,10,1.48,14.32,7.36,13.38,14.9,26.67,22.84,39.71,4.83,7.93,10.81,15.83,20.8,16.47,5.39.35,7.91,3.06,11.14,6,14.92,13.38,29.38,27.33,44.95,39.9,20.19,16.31,40.85,32.12,62.08,47,22.13,15.55,45.24,29.7,67.78,44.68,6.49,4.31,13,5.47,18.48,3.1,5.71,3.29,10.39,5.86,14.94,8.63,7.37,4.49,14.67,4.07,21.62-.54,9.32-6.19,18.39-12.74,27.58-19.11,5.34-3.7,7.6-8.76,5.33-14.68a193.46,193.46,0,0,0-9.3-20.23c-4.95-9.51-10.23-18.85-15.52-28.18-4.7-8.29-9-16.93-14.56-24.58-6.55-9-14.32-17-21.79-25.72.68-.06,1.39-.15,2.1-.17l84.32-2.42c7-.19,9.73-3.28,8.74-10.12a44.84,44.84,0,0,0-1.22-4.47c15.32-.77,30-1.4,44.6-2.31,4.42-.27,6,1.51,6.21,5.7.31,5.74,3.79,9,9.57,8.72,9.68-.53,19.32-1.71,29-2.27,10.93-.62,21.89-.8,32.83-1.28,8.34-.36,16.71-.58,25-1.42,12.73-1.28,25.4-3.14,38.12-4.55,14.58-1.61,19.75-.41,14.4-19.33,2.67,0,128.67-11.23,134-11.43,7.11-.28,15-1.82,21.18.61,8.76,3.43,16.6,9.6,24.28,15.33,9.7,7.24,19.75,10,31.44,5.79a7.74,7.74,0,0,1,6.06.5c9.06,6.23,17.89,12.81,26.77,19.29,11.59,8.45,22.71,17.63,34.81,25.25,35.34,22.23,71.12,43.74,106.61,65.74,23,14.26,45.4,29.51,68.75,43.16,25,14.59,50.38,28.51,76.22,41.47,28.74,14.4,59,25.41,89.71,34.8,11.72,3.58,24.18,4.72,36.16,7.56,14.44,3.42,28.71,7.52,43.08,11.23,8.14,2.09,16.27,1,24.41-.32,13.92-2.23,23.26-11.54,31.74-21.43a30.86,30.86,0,0,0,7.81-19.81C1434.26,1140.64,1425,1121.67,1414.83,1103.08Zm-938-401a127.52,127.52,0,0,1-15.75,46.42c-3.48,6.2-8.27,11.67-13.25,17.08C446.52,724,450,683.2,456.25,642.2c9.76,3.63,12.31,11.93,16.68,18.39C481.68,673.52,478.66,688.05,476.86,702.08ZM719,455.73c35,7,127,29.67,155.78,40C825.61,506.5,741.05,484,719,455.73Z" fill="#f7f7f7"/><path d="M1414.83,1103.08c-9.22-16.85-19.35-33.22-29.61-49.46a396.71,396.71,0,0,0-23.17-33.37c-13.3-16.92-27.23-33.35-41.17-49.75-13.33-15.7-27.07-31-40.52-46.65-3.32-3.86-6.87-6.7-10-10.77-4.52-6-50.85-47.33-60-54.2-15.38-11.54-31.07-22.69-46.68-33.94-5.63-4.05-11.86-7.38-17-12-13.35-12-25.63-25.18-39.47-36.51-12.28-10.07-24.86-19.67-35.81-31.27-6.92-7.33-14.43-14.12-21.56-21.27a5,5,0,0,1-1.24-3.47c.66-9.05,1.61-18.09,2.21-27.14.2-3.08.7-4.49,4.23-5.79,4.27-1.57,10.21-5,11-8.56,2.46-11.72,3.24-23.83,4-35.84.82-12.52.74-25.1,1.34-37.64.48-9.9.08-19.07-10.09-24.75-2-1.13-2.75-4.56-4.46-7.61,7.77-1.21,13.73-4.26,14.22-10.55,1-12.57.28-25.27.28-38.77,6.7,3.08,12.29,5.7,17.92,8.21s11.39,5.32,17.28,7.43c10.83,3.89,21.64,8.11,32.79,10.77,7.36,1.76,14.32,8.54,22.84,3.27.54-.34,2.31,1.08,3.36,1.87,7.56,5.73,24.68,6.93,32.08,2,6.68-4.48,13.48-8.88,19.57-14.08,2-1.74,3.18-6,2.78-8.82-1.68-11.92-8.48-21.72-14.57-31.7-4.62-7.57-12.72-13.18-12.78-23.28,0-.48-.6-1-1-1.42-6.12-6.55-12.14-13.19-18.42-19.58-3.53-3.59-7.55-6.67-11.22-10.12-5-4.65-9.72-9.5-14.68-14.14-7.13-6.67-14.7-12.9-21.44-19.95-4.11-4.3-6.45-10.29-10.58-14.57-4.32-4.48-9.73-8-14.84-11.62-16.28-11.64-32.14-24-49.1-34.52-18.14-11.27-35.64-23.43-55.75-31.87-22.43-9.41-43.06-23.05-64.7-34.44-5.92-3.12-12.51-6.24-19-6.77-13.68-1.12-23.8,7.31-32.76,16.27-2.11,2.12-2.69,8.57-1,11.19,8,12.8,16.72,25.21,25.8,37.29,5.12,6.79,9.09,13.33,8.9,22.35s1.17,18.08,1.85,27c-4.35,3.14-9.14,5.95-13,9.69-2,1.88-3.53,5.68-3.05,8.19a27.64,27.64,0,0,0,5.32,10.93c5.06,6.74,10.68,13.05,15.19,18.48-6.88,6.34-13.36,12.42-20,18.34-1.38,1.23-3.37,2.74-4.94,2.6q-15.58-1.44-31.08-3.63c-12.45-1.77-24.82-4-37.27-5.78-10.14-1.44-20.35-2.36-30.5-3.74-7.4-1-14.74-2.4-22.1-3.59s-14.71-2.45-22.08-3.52c-13.23-1.93-26.47-3.75-39.71-5.63-9.35-1.32-18.74-2.41-28-4.09-9.61-1.74-19.64-2.78-28.54-6.44a258.77,258.77,0,0,1-36.36-19c-21.57-13.21-42.65-27.24-64-40.85-2.77-1.76-5.71-4-8.78-4.4-10.69-1.4-15.41,8-13.21,17.38.93,3.94,2.5,7.74,3.73,11.47-3.64,2.14-7,4.14-10.32,6.05-15.48,8.78-31.1,17.32-46.36,26.46-3.68,2.21-5.56,2.4-8.48-.73-2.51-2.69-5.83-4.63-8.87-6.79-8.74-6.2-15-4.54-19.9,5-7.67,14.81-15.81,29.39-23.11,44.38-3.61,7.42-5.65,15.39-1.14,23.67,2.73,5,4.55,10.48,7.1,16.5-8.36-2-14.26,1.68-19.66,6a28.8,28.8,0,0,0-11.06,26.6c.45,4.26,9.43,28.64,14,35.64,3.36,12.83.29,21,0,26.78-.21,5.07-1.56,10.08-2.31,15.13-2.81,18.86-5.74,37.69-8.29,56.58-1.56,11.54-2.45,23.16-3.76,34.73-1.51,13.31-3.22,26.61-4.7,39.93-1.32,12-2.3,24-3.7,35.92-.67,5.71-2,11.34-2.79,16-4.51-.24-7.95-1.34-10.75-.44-23,7.38-44.33,18.37-65.72,29.4-15.05,7.77-30.81,14.16-45.93,21-5.31-4.25-10.82-7.9-15.41-12.47-13.9-13.86-30.08-24.63-46.22-35.53-8.62-5.83-17.47-11.46-25.4-18.14-13.58-11.45-27.2-22.69-43.09-30.9-7.34-3.79-14.75-5.85-22.5-1.87-8.87,4.55-17.87,9-26.2,14.41-9.39,6.1-11.61,12.72-9.1,20.06,5.7,16.65,14.89,31.46,23.59,46.59,4.36,7.57,13.35,13.73,9.41,24.61-.17.45.19,1.15.41,1.7,4.29,10.67,8.62,21.33,12.87,32,.37.93.73,2.42.27,3.06-3.77,5.27-.9,10,1.48,14.32,7.36,13.38,14.9,26.67,22.84,39.71,4.83,7.93,10.81,15.83,20.8,16.47,5.39.35,7.91,3.06,11.14,6,14.92,13.38,29.38,27.33,44.95,39.9,20.19,16.31,40.85,32.12,62.08,47,22.13,15.55,45.24,29.7,67.78,44.68,6.49,4.31,13,5.47,18.48,3.1,5.71,3.29,10.39,5.86,14.94,8.63,7.37,4.49,14.67,4.07,21.62-.54,9.32-6.19,18.39-12.74,27.58-19.11,5.34-3.7,7.6-8.76,5.33-14.68a193.46,193.46,0,0,0-9.3-20.23c-4.95-9.51-10.23-18.85-15.52-28.18-4.7-8.29-9-16.93-14.56-24.58-6.55-9-14.32-17-21.79-25.72.68-.06,1.39-.15,2.1-.17l84.32-2.42c7-.19,9.73-3.28,8.74-10.12a44.84,44.84,0,0,0-1.22-4.47c15.32-.77,30-1.4,44.6-2.31,4.42-.27,6,1.51,6.21,5.7.31,5.74,3.79,9,9.57,8.72,9.68-.53,19.32-1.71,29-2.27,10.93-.62,21.89-.8,32.83-1.28,8.34-.36,16.71-.58,25-1.42,12.73-1.28,25.4-3.14,38.12-4.55,14.58-1.61,19.75-.41,14.4-19.33,2.67,0,128.67-11.23,134-11.43,7.11-.28,15-1.82,21.18.61,8.76,3.43,16.6,9.6,24.28,15.33,9.7,7.24,19.75,10,31.44,5.79a7.74,7.74,0,0,1,6.06.5c9.06,6.23,17.89,12.81,26.77,19.29,11.59,8.45,22.71,17.63,34.81,25.25,35.34,22.23,71.12,43.74,106.61,65.74,23,14.26,45.4,29.51,68.75,43.16,25,14.59,50.38,28.51,76.22,41.47,28.74,14.4,59,25.41,89.71,34.8,11.72,3.58,24.18,4.72,36.16,7.56,14.44,3.42,28.71,7.52,43.08,11.23,8.14,2.09,16.27,1,24.41-.32,13.92-2.23,23.26-11.54,31.74-21.43a30.86,30.86,0,0,0,7.81-19.81C1434.26,1140.64,1425,1121.67,1414.83,1103.08Zm-938-401a127.52,127.52,0,0,1-15.75,46.42c-3.48,6.2-8.27,11.67-13.25,17.08C446.52,724,450,683.2,456.25,642.2c9.76,3.63,12.31,11.93,16.68,18.39C481.68,673.52,478.66,688.05,476.86,702.08ZM719,455.73c35,7,127,29.67,155.78,40C825.61,506.5,741.05,484,719,455.73Z" fill="none" stroke="#000" stroke-linecap="round" stroke-linejoin="round" stroke-width="8"/></g><g id="Canopy"><path d="M1323.78,992.73c-3.64-6.5-9.47-6.63-9.47-4.44s-2.74,23-29.89,45.74-76,10.86-82.55,9.69-7.48,2.52-5.29,5.25,21,13.31,30.44,19,75.81,29.89,88.93,24.61,19.5-4.74,22-33.54S1327.43,999.22,1323.78,992.73Z" fill="#82b3d1"/></g><g id="Shadows" opacity="0.2"><path d="M241.38,950.82h-6.11L175,895.17l-18.27-14.88-16.45-22.72s-31.42-29.89-33.61-32.09l31.06,97.4,61.77,57.9s121.64,100.71,137.37,107.79,5.48-5.84,5.48-5.84Zm995.2,156c-92.46-51.22-185-130.67-185-130.67l-5-33.72-11.63-13-25.07-16.4s-6,31-52.62,0c-2.87-1.91-6.85-4.69-11.77-8.24l4.13-6.37s3.71-4.05-.18-15.92S845.92,765.61,845.92,765.61l8.23,28.88,58,85.62C848.86,832.51,738,745.93,648.23,671.29c-1.54-1.28-10.59-28.09-12.12-29.36-31.18-26-50-45.67-72.71-66.33-1.46-1.32-5,18.13-6.43,16.84-17.82-16.34-31.77-30.11-40.28-40.16-60.34-71.22-69-137.26-69-137.26L424,455.73l-7.09,30.74,6,18.59-18.1,14.37-7.55,23.13,10.29,21.75,3.55-14.92c1.63,3,8.23,11.67,30.19,36.23,38.24,42.75,37,73.38,37,73.38v56.22l21.87,242.87L523.75,955,509,791.61,492.51,673.44l-7.8-32.8-9.37-51.16S508.4,613,571.85,690.28,742.44,903,750.12,917.05s-9.87,18-9.87,18l75.09-5.56,29.16,9.46,25,17.35,17.28-2.85L943.39,995l88.68,56.62,133.51,80.4s52.61,41.11,138.32,49.88S1329,1158.07,1236.58,1106.84ZM767,717.7l-11.93,9.83s-31.79-38.89-36.09-47l-5.91,4.86,14.67,29.87,27.33,34.26,49.33,39.95s53.19,9.66,29.47,4.36S767,717.7,767,717.7Zm-53.93-37.34c17.82-3.15,53.93,2.8,53.93,2.8s3.38,15.78,33.57,16.82,69.05-19.68,21.71-19.62c-118.18.13-177.31-78.57-183.41-90.88,0,0,7,15.14,14.8,34.71C665.88,654.82,708.08,681.23,713.05,680.36ZM581.85,431l-7.12-26.43-28.68-13.76L519.3,409l46.23,35.75Zm476.23,117.16L886.79,491.63l-40.87,7.06s149.84,42.52,207.6,69.94C1061.7,572.52,1058.08,548.14,1058.08,548.14Zm-15.14-53.8c24.9,14.77,22.33,29.05,22.33,29.05l41.09,10.69,42.77,14.06L1065.3,436.52l-23.65-12L960,372l-7.56-8.42-35.16-27.24-2.91,54.41L899.25,415s6.1,13.55,19.84,29.72C962,456.25,1018,479.57,1042.94,494.34ZM1046.62,700l2.56-10.62V664l-11.89-9.22s-14.77-10-19.29-20.86-58-48.34-58-48.34l-80.35-33.34s-6,4.89,4.79,16.05C1032.94,645.33,1046.62,700,1046.62,700Zm95.14,163.74s-15.25-16.81-44.7-42.48S955.11,731.39,939.21,717.7s-62-50.24-62-50.24l2.37,21.94s41.51,47.47,111.52,102.21,115.39,70.68,115.39,70.68a33.44,33.44,0,0,1,11.92-2.64C1124.47,859.65,1141.76,863.76,1141.76,863.76Zm-64.58,31.91c4.54,1.8,24.27,12.76,24.27,12.76l-2.74-12.76-21.88-13.13S1072.64,893.88,1077.18,895.67Zm29.34-21.77a124,124,0,0,0,17.4,13.18l4.44-8.25-21.84-16.54S1099,866.77,1106.52,873.9Z" fill="#0c0c0c"/></g><g id="Outline"><path d="M656,673.88c-7.2-16.68-15.18-33-22.25-49.75-2.42-5.7-5.51-10.11-10.6-13.65-20.87-14.48-41.54-29.24-62.34-43.83-7.7-5.4-15.59-10.53-23.33-15.89-5.65-3.91-11.06-8.18-16.81-11.91-4.48-2.9-6.65-1.83-7.42,3-.55,3.49-1.07,7-1.61,10.49-.27,2.32,2.23,9.35,4.86,12.89,10.81,14.5,21.77,28.78,34.17,42.13,20.47,22,38.82,46,58.65,68.68,11.16,12.76,23.45,24.52,35.28,36.69,4.75,4.88,23.15,26.33,27.7,32.11a5,5,0,0,0,4,1.72c1.12-.18,2.83-1.93,2.82-3,.55-4.56.9-11.08-1.28-16.53C671.1,709.16,663.64,691.48,656,673.88Zm-79.45-45.69C571.65,624,566,614,566.06,608.3c.14-9.26-.72-18.54-.49-27.9C584.86,587.43,576.13,625.09,576.59,628.19Zm24.81,26c-5.6-6.32-10.16-13.21-15.65-20.11,2.51-1.65,7.08-4.55,9.48-5.8,6.35-3.31,9.12-2.23,11.92,4.58,2.07,5,4,10.12,5.88,15.22,1,2.59.94,5.36-2.31,5.95C608.67,654.41,602.55,655.5,601.4,654.19ZM624.05,670c-4.7,2.36-6.94,2.65-10.47-1.4-2-2.35-2.92-3.2-5.2-5.65L637.71,650l5.43,12.81C636.64,665.2,630,667,624.05,670Zm200.25,3.44a7.06,7.06,0,0,0,1.79-.09c11.71-3.66,21.83-9.59,29-19.93,2.51-3.64-.19-5-2.64-6.31-1.69-.87-3.77-1-5.57-1.68-3.62-1.42-6.54-1.22-9.7,1.65-3.45,3.13-7.8,5.23-11.53,8.09-2.26,1.74-4.67,3.74-6,6.18C817.16,666,820.32,673.43,824.3,673.43ZM1303,1149.73c5.07.83,6.3-2.65,6.54-7.07.22-4.17-1.69-6.14-6-6.21s-7.26,1-7.32,6.14C1296.19,1147.08,1297.42,1150,1303,1149.73Zm111.85-46.65c-9.22-16.85-19.35-33.22-29.61-49.46a396.71,396.71,0,0,0-23.17-33.37c-13.3-16.92-27.23-33.35-41.17-49.75-12.15-14.31-60-72.79-110.48-111.62-15.25-11.72-31.07-22.69-46.68-33.94-5.63-4.05-11.86-7.38-17-12-13.35-12-25.63-25.19-39.47-36.52-12.28-10.07-24.86-19.67-35.81-31.27-6.92-7.33-14.43-14.12-21.56-21.27a5,5,0,0,1-1.24-3.47c.66-9.05,1.61-18.09,2.21-27.14.2-3.08.7-4.49,4.23-5.79,4.27-1.57,10.21-5,11-8.56,2.46-11.72,3.24-23.83,4-35.84.82-12.52.74-25.1,1.34-37.64.48-9.9.08-19.07-10.09-24.75-2-1.13-2.75-4.56-4.46-7.61,7.77-1.21,13.73-4.26,14.22-10.55,1-12.57.28-25.27.28-38.77,6.7,3.08,12.29,5.7,17.92,8.21s11.39,5.32,17.28,7.43c10.83,3.89,21.64,8.11,32.79,10.77,7.36,1.76,14.32,8.54,22.84,3.27.54-.34,2.31,1.08,3.36,1.87,7.56,5.73,24.68,6.93,32.08,2,6.68-4.48,13.48-8.88,19.57-14.08,2-1.74,3.18-6,2.78-8.82-1.68-11.92-8.48-21.72-14.57-31.7-4.62-7.57-12.72-13.18-12.78-23.28,0-.48-.6-1-1-1.42-6.12-6.55-12.14-13.19-18.42-19.58-3.53-3.59-7.55-6.67-11.22-10.12-5-4.65-9.72-9.5-14.68-14.14-7.13-6.67-14.7-12.9-21.44-19.95-4.11-4.3-6.45-10.29-10.58-14.57-4.32-4.48-9.73-8-14.84-11.62-16.28-11.64-32.14-24-49.1-34.52-18.14-11.27-35.64-23.43-55.75-31.87-22.43-9.41-43.06-23.05-64.7-34.44-5.92-3.12-12.51-6.24-19-6.77-13.68-1.12-23.8,7.31-32.76,16.27-2.11,2.12-2.69,8.57-1,11.19,8,12.8,16.72,25.21,25.8,37.29,5.12,6.79,9.09,13.33,8.9,22.35s1.17,18.08,1.85,27c-4.35,3.14-9.14,5.95-13,9.69-2,1.88-3.53,5.68-3.05,8.19a27.64,27.64,0,0,0,5.32,10.93c5.06,6.74,10.68,13.05,15.19,18.48-6.88,6.34-13.36,12.42-20,18.34-1.38,1.23-3.37,2.74-4.94,2.6q-15.58-1.44-31.08-3.63c-12.45-1.77-24.82-4-37.27-5.78-10.14-1.44-20.35-2.36-30.5-3.74-7.4-1-14.74-2.4-22.1-3.59s-14.71-2.45-22.08-3.52c-13.23-1.93-26.47-3.75-39.71-5.63-9.35-1.32-18.74-2.41-28-4.09-9.61-1.74-19.64-2.78-28.54-6.44a258.77,258.77,0,0,1-36.36-19c-21.57-13.21-42.65-27.24-64-40.85-2.77-1.76-5.71-4-8.78-4.4-10.69-1.4-15.41,8-13.21,17.38.93,3.94,2.5,7.74,3.73,11.47-3.64,2.14-7,4.14-10.32,6.05-15.62,8.86-31.39,17.48-46.79,26.72a6.48,6.48,0,0,1-8.06-1c-2.51-2.67-5.82-4.62-8.86-6.77-8.74-6.2-15-4.54-19.9,5-7.67,14.81-15.81,29.39-23.11,44.38-3.61,7.42-5.65,15.39-1.14,23.67,2.73,5,4.55,10.48,7.1,16.5-8.36-2-14.26,1.68-19.66,6a28.8,28.8,0,0,0-11.06,26.6c.45,4.26,9.43,28.64,14,35.64,3.36,9.82.29,21,0,26.78-.21,5.07-1.56,10.08-2.31,15.13-2.81,18.86-5.74,37.69-8.29,56.58-1.56,11.54-2.45,23.16-3.76,34.73-1.51,13.31-3.22,26.61-4.7,39.93-1.32,12-2.3,24-3.7,35.92-.67,5.71-2,11.34-2.79,16-4.51-.24-7.95-1.34-10.75-.44-23,7.38-44.33,18.37-65.72,29.4-15.05,7.77-30.81,14.16-45.93,21-5.31-4.25-10.82-7.9-15.41-12.47-13.89-13.86-30.08-24.63-46.22-35.53-8.62-5.83-17.47-11.46-25.4-18.14-13.58-11.45-27.2-22.69-43.09-30.9-7.34-3.79-14.75-5.85-22.5-1.87-8.87,4.55-17.87,9-26.2,14.41-9.39,6.1-11.61,12.72-9.1,20.06,5.7,16.65,14.89,31.46,23.59,46.59,4.36,7.57,13.35,13.73,9.41,24.61-.17.45.19,1.15.41,1.7,4.29,10.67,8.62,21.33,12.87,32,.37.93.73,2.42.27,3.06-3.77,5.27-.9,10,1.48,14.32,7.36,13.38,14.9,26.67,22.84,39.71,4.83,7.93,10.81,15.83,20.8,16.47,5.39.35,7.91,3.06,11.14,6,14.92,13.38,29.38,27.33,44.95,39.9,20.19,16.31,40.85,32.12,62.08,47,22.13,15.55,45.24,29.7,67.78,44.68,6.49,4.31,13,5.47,18.48,3.1,5.71,3.29,10.39,5.86,14.94,8.63,7.37,4.49,14.67,4.07,21.62-.54,9.32-6.19,18.39-12.74,27.58-19.11,5.34-3.7,7.6-8.76,5.33-14.68a193.46,193.46,0,0,0-9.3-20.23c-4.95-9.51-10.23-18.85-15.52-28.18-4.7-8.29-9-16.93-14.56-24.58-6.55-9-14.32-17-21.79-25.72.68-.06,1.39-.15,2.1-.17l84.32-2.42c7-.19,9.73-3.28,8.74-10.12a44.84,44.84,0,0,0-1.22-4.47c15.32-.77,30-1.4,44.6-2.31,4.42-.27,6,1.51,6.21,5.7.31,5.74,3.79,9,9.57,8.72,9.68-.53,19.32-1.71,29-2.27,10.93-.62,21.89-.8,32.83-1.28,8.34-.36,16.71-.58,25-1.42,12.73-1.28,25.4-3.14,38.12-4.55,14.58-1.61,19.75-.41,14.4-19.33,2.67,0,128.67-11.23,134-11.43,7.11-.28,15-1.82,21.18.61,8.76,3.43,16.6,9.6,24.28,15.33,8.48,6.33,17.24,9.23,27.13,7,0,0,1.45-.35,3.46-1s5.07-1.32,7.32.49c1.94,1.56,27.67,20,30.09,21.76,10.26,7.65,20.28,15.69,31.08,22.49,35.34,22.23,71.12,43.74,106.61,65.74,16.57,10.27,35.36,22.8,49.37,31.39s95.91,55,89.25,50h0l6.36,3.23c28.74,14.4,59,25.41,89.71,34.8,11.72,3.58,24.18,4.72,36.16,7.56,14.44,3.42,28.71,7.52,43.08,11.23,8.14,2.09,16.27,1,24.41-.32,13.92-2.23,23.26-11.54,31.74-21.43a30.86,30.86,0,0,0,7.81-19.81C1434.26,1140.64,1425,1121.67,1414.83,1103.08Zm-4.92,3.9c6.17,15,12.18,29,16.75,42.94-14.68-.55-22.73-8.57-31-16.73.78-.14,1.93-.21,2.37-.24,9.94-.49,14.11-6.89,11.91-17.15-.65-3-1.3-5-2.15-8.67C1406.73,1102.71,1409,1103.86,1409.91,1107Zm-72.46-107.79,47.62,65.47c-6.62,1-6.45,4.82-5.51,8.45s4.72,4.76,10.62,3.68c3.15,9.26,6.47,18.61,9.5,28a81.8,81.8,0,0,1,3.45,14.15c.28,2.09-.76,5.44-2.31,6.36s-5.22.17-6.56-1.21c-9.94-10.26-20.48-20.17-28.94-31.58-7.2-9.7-10.54-21.5-11.49-34-1.24-16.26-6.06-31.83-12.29-46.92-1.65-4-3.22-8-4.88-12A.45.45,0,0,1,1337.45,999.19Zm14,86.78c-13.38-14.31-9.14-33.5-7.65-41.87a.47.47,0,0,1,.92,0c1.66,11.55,3.91,28.23,7.46,41.43A.43.43,0,0,1,1351.5,1086Zm-78.66-6.64c-13.68,0-55.59-18-72.29-31.15a.59.59,0,0,1,.53-1c21.47,5.89,42.89,8.08,65.24-1.93C1261.28,1059,1265.64,1069.5,1272.84,1079.33Zm-32-.85c1.62.54,3.25,1,4.9,1.51,17.28,4.86,34.49,10.08,52,14.19,14.61,3.44,15.53,3.11,23.57,9.84a.56.56,0,0,1-.43,1,247.68,247.68,0,0,1-80.63-25A.82.82,0,0,1,1240.83,1078.48Zm74.82,8.62c-5.73,1.91-29-4.2-38.24-17.14-5.42-7.56-5.46-17.65,1.15-24.32a219.21,219.21,0,0,1,24.69-21.91c8.92-6.63,12.33-5.4,19.9,3.45,13.64,16,11.36,32.94,10.47,37.27C1330,1081,1327.46,1083.16,1315.65,1087.1Zm13-68c-5.72-4.64-10.44-10-18.55-8.86,2.31-5.78,4.51-11.28,7-17.48C1323.82,1000.3,1326.08,1009.78,1328.63,1019.07ZM1105.17,782c20.33,17.4,34,31.58,44,38.55,6.92,4.86,25.41,17.62,36.39,25.51,13.06,9.39,20,14.39,31.52,23.93,9,7.47,31.86,28.25,50.39,47.48,13.45,14,24.73,26,26.3,28.28,3.79,5.52,7.39,11.12,11,17,6.77,11.22,8.53,23.34,2.55,36-4.16,8.8-6.82,18.58-15,24.74-29.37,22.26-59.34,20.46-73.81,18.71-7.5-.9-14.28-3.72-21.87-6-3-.88-7.08-1.81-9.2-.45-2.71,1.73-3.93,5.78-6.72,10.36-2.35-6-5.47-11.83-6.94-18.06-3.93-16.63-12.58-27.37-30.07-32.06-14.5-3.88-29.75-4.93-44.6-7.61a244.2,244.2,0,0,1-24.49-5.84c-2.19-.63-4.33-3-5.55-5.08-8.32-14.23-16-28.87-24.65-42.86-7.61-12.22-18.83-21-31.42-27.75-8.34-4.5-16.64-9.6-25.61-12.27a84.6,84.6,0,0,0-27.4-3.09c-4.07.18-7.51,2.73-9.73,7.09a.31.31,0,0,1-.57-.21c3.51-14.47,12.35-19.09,26-16.62,23.65,4.28,47,10.23,70.39,15.9,25.26,6.12,48.06,17.77,68.34,33.76,11.78,9.29,23.65,18.23,37.18,24.62,15.84,7.49,32.28,12.2,50.17,8.42,12.33-2.6,20.74-18,16.47-29.88-6.49-18.06-28.61-39.18-37.64-44.81a121.83,121.83,0,0,1-25.22-20.41c-13.79-15-31.58-35-41.65-53.48-4.35-8-14.36-23.56-17-29.94C1096.33,785.07,1098.12,776,1105.17,782Zm-74.68,147.45c8.22,3.76,7.41,10,8.06,19,.56,7.81.6,15.51.94,23.35.07,1.47-1,4.37-2.59,4.29-2-.09-6.41-1.18-6.4-4.67Q1030.5,950.45,1030.49,929.47Zm-7.18,28.69c0,2.73.35,5.45.62,8.26a1.31,1.31,0,0,1-1.47,1.42c-6.77-1-6.53-6.62-6.76-10.05-1-14.88-1.1-27.09-2-40.74,7.16,2.7,9.37,5.89,9.49,14.18C1023.37,940.2,1023.2,949.19,1023.31,958.16ZM840.6,726.79c-4-7.57-7.55-15.33-11.92-24.26,26.92,13,48.59,31.83,71.09,49.46a.56.56,0,0,1-.43,1c-12.91-1.83-15.82.28-21.38,16.65-3.45,10.14-5.5,20.77-8,31.23-.88,3.72-1.09,7.6-1.67,11.89-5.09-6.49-9.84-12.24-14.18-18.27a10.93,10.93,0,0,1-1.61-6.29C853.1,766.83,850.69,746.1,840.6,726.79Zm-67.2,22.1q-2.46-5.92-5.2-11.72c-3.64-7.77,1.58-13.32,6-17.62,3.75-3.66,8.78-5.59,15.89-3.43a66.13,66.13,0,0,1,10.86,4.31c3.92,1.85,6.83,2.11,7.44-4,15.37,16,29.57,31.72,36.55,52.48,2.45,7.29.24,12.32-5.29,17.63-8.34,8-17.26,4.87-25.5,1.62-17-6.72-31.66-17.22-44.68-31.34C775.47,756,774.93,752.56,773.4,748.89Zm-132.16-191c-9.55-10.11-18.07-18.22-28-28a67.79,67.79,0,0,0-5.54-4.41.43.43,0,0,1,.41-.73c8.11,2.68,16.29,5.16,24.3,8.12a12.83,12.83,0,0,1,6.25,4.56C652,558.73,671.81,571.87,694.05,582a103.08,103.08,0,0,0,43.2,9.61c10.32,0,19-4.41,24.78-12.79,2.3-3.35,2.79-8.68,2.41-13-.83-9.21-5.58-17-11.58-23.85-15.83-18.15-35.7-30.33-58-38.79-1.45-.55-3.1-.58-4.58-1.09-5-1.71-7.9-4.27-11.42-9.5s-4.45-6.41-6.81-10.42a.39.39,0,0,1,.51-.55c6.06,3,12.18,6,18.15,9.2,12.73,6.87,25.36,13.92,38.06,20.84a4.56,4.56,0,0,0,2.65.56c9.66-1,17.49,4.23,25.69,7.76,16.32,7,30.24,18,44.6,28.27A242.39,242.39,0,0,1,845,587.67c6.91,8,11.54,18.05,17.13,27.21,5.08,8.34,10.69,16.46,14.83,25.25,1.76,3.75,1.28,9.2.25,13.51-3.67,15.4-13.14,26.28-27.47,33.11-15.94,7.6-32.83,10.59-50.31,10.61a12.61,12.61,0,0,1-6.76-2.62c-10.39-7.41-21.46-13.49-33.93-16.41a192,192,0,0,0-26.52-4.66c-5.33-.48-10.84,1.27-16.28,1.91-1.35.15-3,.33-4.09-.3-15.08-8.92-30.62-17.31-42-31.17A114.52,114.52,0,0,1,658,627.32c-5.66-10.23-11.54-20.54-15.34-31.5-2.07-6-.31-13.37.23-20.08C643.17,572.29,646.34,563.31,641.24,557.91Zm48.19-44.56c-.2-.9-.33-1.82-.75-4.15,3.15,1.06,5.41,1.74,7.62,2.58a128.09,128.09,0,0,1,38.11,22.52c5.36,4.61,8,11.07,7,17.54-1.05,7.15-6,12.79-13,15.66-13.77,5.63-27.16,5.18-41.67.69-17.71-5.48-28.51-18.14-40.45-30.67,9.35,0,17.93,0,26.51,0a51.9,51.9,0,0,0,6.46-.61C689.76,535.46,691.49,522.61,689.43,513.35Zm61,38.93c10.12,13.16,8.66,23.88-.58,28.63-7.12,3.66-13.22,3.91-21.36,3.06a75.22,75.22,0,0,1-14.82-3,.71.71,0,0,1,0-1.41C730.94,577.18,745,570.54,750.4,552.28ZM898.06,525.8c-20.32-7.14-80.79-21.84-59.87-21,45.42,1.74,38.14-5.46,45.47-6.07,4.65-.38,6.64-.24,14.19,2,2.21.66,4.39,1.53,7.5,2.66Zm13.21-16.1c1-3.47,2.29-3.72,5.57-2.61,16.27,5.55,32.76,10.44,48.95,16.17,21.9,7.74,43.6,16,65.38,24.1,5.26,1.95,10.6,3.71,15.73,5.95,1.56.68,3.51,2.61,3.61,4.09.42,6,.17,12,.17,18.2-15.69-5.73-31.2-11.39-46.69-17.07-.72-.27-1.77-.64-2-1.19-4.3-13.44-16.73-12.61-26.61-13.35-11.18-.84-22-1.48-32.78-5.14-12.16-4.13-24.66-7.25-37.69-11C907.34,521.1,909.59,515.48,911.27,509.7ZM730.59,460.54c35,7,103.74,27,139.91,34.32C834.67,498.82,761.46,488.82,730.59,460.54Zm45.48,37.27c23.28,9.23,46.42,18.87,70,27.34,14.62,5.26,28.66,13.54,45.55,10.55.84-.14,1.67-.38,2.5-.6,9.39-2.46,17.57,2,26.06,4.46C942.5,546,965,552.08,987,559.41c19.23,6.39,38,14.32,56.92,21.54,1.32.5,2.67.91,4,1.3,4.54,1.31,7.1,3.55,4.47,9-.72,1.49-.31,3.54-.31,5.34,0,10.43,0,20.86,0,31.29a1.11,1.11,0,0,1-2.07.57c-6.63-10.73-17-14.36-30.41-11.7-3.1.61-5.68,1.26-7.56-3.53-3.84-9.82-11.17-16-21.76-19.71-18.6-6.61-36.47-15.27-54.75-22.81-22.33-9.21-43.64-21-67.42-26.61-7.48-1.76-9.66-.7-9.31,5.44-7.62,0-15.28.55-22.8-.24-3.78-.39-7.59-2.79-10.87-5q-51.26-35.08-102.32-70.44c-9.71-6.7-19.4-13.43-29-20.53a.48.48,0,0,1,.47-.82c6,2.51,12.16,4.84,17.76,8.09,8,4.66,10.79,8.18,18.46,13.4A226.46,226.46,0,0,0,776.07,497.81Zm243.45,149.77c1.17,2.42,1.65,5.18,2.49,7.78,2,6.12.5,7.9-6,8.5-13.07,1.21-24.6-3.91-36.44-8.08C966,651,955.81,641,945.37,632.13c-2.58-2.18-5.19-4.37-7.77-6.58-1.18-1.13-.73-1.93.69-.85q8.26,5.13,16.52,10.27c16.49,10.25,34.32,13,53.29,9.71a22.78,22.78,0,0,1,7.77,0A5.79,5.79,0,0,1,1019.52,647.58Zm-96.41-33.52c-19-14.36-28.39-34.14-36.32-56.89l47.05,20.56C929.55,589.55,919.21,599.57,923.11,614.06Zm198.6,266.15c.15.49-.58,1.46-1.14,1.92-3.42,2.82-6.9,5.55-10.43,8.37-7.54-7.08-16.16-13.18-27.7-12.46-1.87.12-5.47,1.32-5.61,4.5a2.79,2.79,0,0,0,3,2.8,16.94,16.94,0,0,0,3.31-.39c6.24-1.55,9.89-1.09,15.44,3.3a1.32,1.32,0,0,1,.29,1.73,15,15,0,0,0-2.66,9.59,1,1,0,0,1-1.47.95c-10.86-5.69-25.77-12.58-35.1-20.08-10-8-17.43-19.33-25.63-28.78,7.82-.87,16.47-.15,23.66-3,9.87-4,6.5-13.67,5.4-21.73,9.53,1.15,48.64,21.66,55.39,29.53-2.44-.45-4-1.09-5.36-.91-2,.26-4.37.64-5.78,1.87-1,.88-1.22,3.4-.8,4.92.28,1,3,2.47,3.42,2.14,6.61-5,13.25-1.19,17,1.78a.94.94,0,0,1-.11,1.55C1122.12,870.65,1119.93,874.27,1121.71,880.21Zm-232.21-151c0,1,.25,3.56.25,5.25l-30.1-22.19c14.38-1.51,26.3-6,30.56-22l27,29.61c-5.36-1.11-10.29-2.76-15.29-3C891,716.28,889,717.7,889.5,729.24Zm61.65-11.9c5.8,9.49,11.75,18.9,17.44,28.46,1.54,2.58,3.81,6.54,3.81,9.09-39.62-20-61.81-57-92.79-84.62l1.86-2.81L959.88,705a1,1,0,0,1-.36,1.84c-1.19.07-2.4.11-3.58.28A6.8,6.8,0,0,0,951.15,717.34ZM900,723.9c8.27-.16,15.3,3.42,21.81,7.72,15.55,10.25,30.81,21,46.18,31.49,1.32.91,2.59,1.9,4,2.91-6.91,4.82-13.21,8.81-19,13.44-2.49,2-3.92,1.52-5.93,0-12.28-9.51-25.24-18.27-36.61-28.77-6.24-5.76-10.09-14.26-14.4-21.88C894.57,726.22,896.4,724,900,723.9Zm92.77,57.75c.56-.37,2,.07,2.73.56,11.23,7.54,22.54,15,33.56,22.8A211.49,211.49,0,0,1,1050.57,822c3.3,3.06,5.64,7.7,7.1,12.07,1.81,5.4-2.42,9.48-11.09,10-11.34.74-21.6-2.81-30.52-10-10.72-8.67-21.52-17.25-32.29-25.85-4.3-3.44-8.63-6.83-13.72-10.87C977.92,791.85,985.29,786.68,992.76,781.65Zm134.08,69.45a43,43,0,0,1-6.33-2.94c-4.57-3-8.82-6.58-13.43-9.53a147.85,147.85,0,0,0-15.46-8.84c-5.53-2.65-11.57-4.26-17-7-4.69-2.35-8.91-5.66-13.33-8.56q-28-18.39-56.08-36.77c-9-5.9-18.12-11.69-27.55-17.76,3.9-8.59-1.55-14.8-5.5-21.41q-7.15-12-14.32-23.92c-.67-1.31-.92-1.86,1-1.43,5.07,1.47,10.13,3,15.21,4.42,13.2,3.77,24.22,11.72,35.8,18.6,20.17,12,39.92,24.67,60.38,36.13,13.23,7.4,16.88,11.81,20.84,18,6.76,10.57,11.33,19.62,18.24,30.09,6.42,9.72,12.62,19.58,18.92,29.37A1.06,1.06,0,0,1,1126.84,851.1ZM964.36,699.5c-5.71-2.69-11.33-5.57-17.12-8-21-9-39-22.58-56.72-36.71-4.65-3.7-5.22-8-6.89-12.72-2.84-8-5.84-16-9.91-23.44-4-7.23-9.25-13.74-14-20.53a1.07,1.07,0,0,1,1.29-1.6c10.17,4.37,20.35,8.69,30.44,13.21.61.28.77,2.2.68,3.31-1,13.11,1.38,25.46,8.23,36.74a5,5,0,0,0,.48.66c2.34,2.72,7,.92,6.81-2.66v-.06c-.23-3-2.14-6-2.13-9,0-2.84.94-6.28,2.76-8.27.94-1,5.39-.4,7,1,7.95,6.55,15.77,13.3,23.08,20.56,5.79,5.75,11.7,11.76,15.85,18.68,5,8.37,8.27,17.82,12.28,26.81C967.34,699.69,967,700.63,964.36,699.5Zm-106-110.57c-4-1.91-7.21-5.53-10.53-8.65A159.1,159.1,0,0,1,833.24,565a.45.45,0,0,1,.58-.66l53.63,34.12a.46.46,0,0,1-.41.82c-3.33-1.29-6.61-2.73-10-3.9C870.8,593.25,864.23,591.78,858.32,588.93ZM821.67,704.6c5,10.2,10.53,21.38,16.05,32.61a.48.48,0,0,1-.78.53L806.75,704.6Zm-97-24c14.19-1.4,27.39,2.64,40.08,8.08,8.9,3.82,17.18,9.08,25.69,13.8a24.46,24.46,0,0,1,4.5,3.41c1.83,1.63.53,2-1,1.26-2.21-1.09-4.47-2.1-6.64-3.27a45.85,45.85,0,0,0-22-5.23,14.68,14.68,0,0,0-14.89,17.25c2.2,14.34,6.85,26.34,17.58,38.58,1.08,1.27-2.2-.14-2.89-.72a158.66,158.66,0,0,1-22.34-22.62,130.44,130.44,0,0,1-23.49-45.1C717.89,681.32,721.28,681,724.67,680.64ZM876,806.14c2.23-12.27,5.88-24.28,9.07-36.37,2.27-8.59,7.13-11.37,15.35-8.44,17.85,6.35,33.56,16.41,48.35,28.13C964.6,802,981.41,813.54,996.54,827A618.19,618.19,0,0,1,1042,872.26c9.43,10.29,19.19,19.31,32.13,25.07,2,.88,5,3.43,1.45,2.46-23.26-6.38-46.42-13.07-69.75-19.08-11-2.83-22.23-5.39-33.48-6.13-12.76-.85-23.12,4.27-28.71,17.09-3.71,8.52-4.19,8.31-4.7,23.41-5.91-8.38-11.22-15.86-16.47-23.38q-22.08-31.58-44.15-63.18C873.31,821.46,874.63,813.48,876,806.14Zm214.88-34.49c1.52,1.28.33,4.9-.74,4.29-4.91-2.82-9.16-5.23-13.34-7.75-13.55-8.16-27-16.42-40.58-24.61-4.67-2.81-9.57-5.28-14.06-8.34-2.4-1.64-13.49-8.82-16.79-10.66-8.89-5-17.53-10.43-26.39-15.48-3.88-2.21-5.84-4.73-6.42-9.63-1.43-12.14-6-23.29-12.69-33.69-9.94-15.45-24.37-26.38-37.47-38.68a43.38,43.38,0,0,1-5-6,.42.42,0,0,1,.59-.58c37.8,29.07,76.46,57.08,109.87,91.88C1042.87,726.35,1070.77,754.77,1090.84,771.65ZM1030,681.36c1.07-4.78,1.16-9.79,1.65-14.7.52-5.28,1.93-6.16,6.82-4.13,7.89,3.28,9,6.06,7.63,16.41-1.12,8.81-1.64,17.71-2.42,26.57-.31,3.51-.6,7-1,11.78-1.89-1.76-2.62-2.4-3.32-3.08C1026.92,702,1026.12,698.78,1030,681.36Zm26.85-47.6c.92-9.47.77-19,1.3-28.55.31-5.52,1.07-11,1.76-17.77,2.54,1.86,5.37,5.55,5.35,15,0,.74-1.83,31.92-2.39,46.65-.17,4.45-.74,8.88-1.24,13.3-.34,7.18-.45,10.48-4.09,14.13-.62.62-2.6,2.23-4,3.36-1,.81-1.36,1-1.51-.95.11-1.82.23-7.84.34-12.64a10.16,10.16,0,0,0-5.17-9.09,82.35,82.35,0,0,0-7.39-3.72c-12.69-5.52-14.6-18.52-21.83-28.28,7-3.32,13.51-3.22,19.37.67,2.67,1.78,4.22,5.18,6.36,7.79,1.38,1.68,2.59,3.95,4.4,4.74C1054.52,641.21,1056.23,640.51,1056.89,633.76Zm7.22-86c-1,1.34-3.36-1.54-3.42-5.58s-.17-6-.08-12c.08-5.08-2.55-7.86-6.56-9.46q-28.54-11.35-57.26-22.28a94.66,94.66,0,0,0-11.74-3.1c-8-1.89-13.17-7.51-17.91-13.52-2-2.48-1.91-4.53-.1-4.34,22.35,3.08,42.84,11.18,63.24,19.56,1.63.67,3.85,2.22,4.83,1.66,1.92-1.1,4.68-3.67,4.4-5.14a30,30,0,0,0-4.58-10.61c-1.25-1.92-26.53-26.22-28.57-27.62h0q-3.12-2.7-6.26-5.37a.43.43,0,0,1,.49-.71c29.06,16.22,63.66,35.27,64.41,35.72,0,0,.36,44.94.37,58.74A7.13,7.13,0,0,1,1064.11,547.81ZM964.37,419.28c-4.64-2.63-7.51-4.1-12-4.48-2.43-.2-4.89,0-9,0,0-2-1.17-5.93.25-8.28,2.75-4.54.33-7.42-1.48-10.85-5.46-10.38-10.8-20.82-16.36-31.14-1.53-2.83-4.46-5.09-5.34-8-1.15-3.83-.9-8.08-1.32-13,7,4.58,13.57,8.92,20.18,13.25,2.63,1.73,5.21,3.54,7.93,5.11a12.2,12.2,0,0,1,5.66,6.62c2.47,6.08,7.46,10.39,14,12.79,13.88,5.11,26.39,12.8,38.55,21.11,9.23,6.31,18.66,12.31,27.86,18.66,1.92,1.33,2.91,4,4.85,5.28,3.3,2.11,6.9,4.59,10.6,5,4.13.5,11.34,4.06,11.77,8.22,1.44,13.84,6.13,26.54,12.41,39.5C1069.23,477.34,976,425.57,964.37,419.28Zm26.34,38.77-62.5-15c6.79-6.31,12.49-12.53,19.23-17.27,1.91-1.34,7.54.71,10.27,2.78,11.13,8.39,21.81,17.4,32.63,26.2a5.9,5.9,0,0,1,1,1.37C992,457.65,991.77,458.23,990.71,458.05Zm-4.19-84.18c12.22,5,24.16,10.79,36,16.74,8,4,15.86,7.57,26,6a.59.59,0,0,1,.54,1,98.23,98.23,0,0,0-6.44,8c-1.79,2.73-3.08,5.8-4.95,9.44-8.62-5.62-17-10.74-25.06-16.42C999,389,985,380.35,969.45,374.39a25.42,25.42,0,0,1-7-4.25c-6.73-6.36-6.19-12.76,1.28-17.84,1.57-1.07,3.23-2,5.52-3.43C967.44,363,975.34,369.27,986.52,373.87Zm13.53-8.07a.74.74,0,0,1-.66,1.31c-6.3-2.12-12.69-4-18.88-6.36-4.92-1.89-5.9-5.23-3.33-11.23Zm-17.44-22.26,44.76,21.73c-3.37,7.74-11.14,9.23-17.06,2.44a113.05,113.05,0,0,0-12.94-12.86c-4.73-3.91-10.2-6.93-15.29-10.42A.52.52,0,0,1,982.61,343.54Zm55.25,34.22a19.2,19.2,0,0,1,22.45.59c0,.51,2.45,3.59.83,6.45-1.36,3.51-3.79,3.77-6.8,4.58-11.7,3.12-16.65.82-18.75-4.55A5.94,5.94,0,0,1,1037.86,377.76Zm103.66,164.39a.75.75,0,0,1-.76,1.26q-13.85-4.74-27.68-9.5c-.9-.31-2.12-.58-2.55-1.27-7.25-11.57-20-15.44-30.79-22.11-4.75-3-8-2.08-8.69-13.51-.19-3,0-9.06,0-9.06,3.66.47,7.94.1,11.26,1.69,3.83,1.84,6.81,5.43,10.17,8.24,7.58,6.32,15.4,12.38,22.7,19C1124.18,525.07,1132.76,533.71,1141.52,542.15Zm-49.71-152.49c5.73,4.17,11.1,8.81,17.56,14L1066.89,431c-3.24-2.36-5.49-4.16-9.54-5.66a42.94,42.94,0,0,0-12.08-2.93,1.46,1.46,0,0,1-1.3-1.9c1.43-4.5,7.46-15.43,14.7-19.19,7.08-3.68,13.62-8.38,20.41-12.62C1083.56,385.88,1088,386.86,1091.81,389.66ZM1046,357.83l33.12,22.25-10.74,4.72c-1.52-11.27-5.7-15.05-17.48-17-2.72-.45-5.23-2.22-7.91-3.42Zm-4.68-2.74c-7.9,8.63-12.79,3.09-15.8-9C1030.31,349,1036.23,352,1041.27,355.09Zm-21.45-.94c-8.32-4.32-21.3-10-30.41-14.78C999.43,332.24,1016.08,338.13,1019.82,354.15ZM904.38,321.69c.35,4.39,1.68,8.69,2.28,13.34a.74.74,0,0,1-1.31.55c-2.17-2.74-4.37-5.46-6.32-8.35-4.8-7.16-9.56-14.36-13.9-21.8-.84-1.46-.5-5.13.63-6,5.36-3.93,10.9-7.85,16.9-10.62,8.58-4,10.39-3.27,22,3.61-4.55,1.86-10,2.8-13.62,5.85C903.92,304.26,903.68,313.19,904.38,321.69Zm7.22-8.25c.44-5.9,4.31-9,10.31-11.17,15.28-5.58,27.27,2,39.6,8.37,9.39,4.88,18.42,10.48,27.9,15.93L949.23,352.7c-9.24-6.11-19.89-13.84-31.22-20.43C909.82,327.51,911.09,320.33,911.6,313.44ZM910,420.88c-1.48-1.86-2.3-3.2.94-1.41,3.68,1.91,7.38,3.81,11.06,5.74,1.73.92,3.44,1.89,5.14,2.87,1.12.64,2.21,1.34,3.31,2a24.63,24.63,0,0,1-3.89,2.74,25,25,0,0,1-3.9,1.71Zm19.73,31.24c16.24,3.55,32.29,8,48.63,10.94,9,1.59,25.76.92,28,.83,5.1,4.62,26.48,24.15,22.66,24.93-19.83-7.71-39.3-15.32-60.39-17.74-20.76-2.37-41.47-5.1-61.95-7.64C912.82,454,919.17,449.8,929.77,452.12Zm-240-11.4,21,3c11.28,1.6,22.58,3.12,33.85,4.81,23.69,3.54,47.34,7.38,71.06,10.69,19.69,2.75,39.46,4.87,59.18,7.36,18.34,2.31,36.66,4.83,55,7.1,8.21,1,16.49,1.56,24.7,2.61a5.25,5.25,0,0,1,3.61,2.93c4.37,13.88,15.2,19.49,28,23.7,16.13,5.31,31.89,11.72,47.77,17.76,6.39,2.44,12.67,5.15,19.22,7.82v14.06c-7.1-3-13.72-5.95-20.44-8.66-19.72-7.94-39.18-16.67-59.31-23.41-16.39-5.49-33.66-8.33-50.42-12.78-8.24-2.18-16.09-5.83-24.33-8-18.31-4.79-36.74-9.1-55.14-13.56-19-4.61-38-9.4-57.09-13.67-20.23-4.53-40.59-8.53-60.89-12.78-2.68-.57-5.3-1.43-8-1.86-2.34-.37-5.87-1.37-6.91-.25-3.89,4.18-6.86,1.45-10.26-.25s-7-3.38-11-5.3A.7.7,0,0,1,689.77,440.72ZM548.29,371.67c2.53,1.46,5.1,2.86,7.58,4.41q35.82,22.35,71.6,44.76c12.77,8,25.72,15.71,38.2,24.13,6.73,4.54,12.48,10.53,19,15.46,12.37,9.38,24.92,18.52,37.47,27.66,8.72,6.34,17.54,12.55,26.28,18.78a.46.46,0,0,1-.31.83c-16-1.59-29.25-10-43-17.33-13.06-6.93-25.71-14.86-39.33-20.44-6.16-2.53-8.55-6.22-12.11-10.9-4.91-6.46-12.12-11.26-18.61-16.43-14-11.15-28.17-22.1-42.3-33.09-9.62-7.48-19.34-14.84-28.93-22.36-5.65-4.44-11.13-9.09-16.69-13.64C545.25,371.69,546,370.4,548.29,371.67Zm-7,26.2c10.46,7.44,21.55,13.27,27.42,25.15a1,1,0,0,1-1.5,1.31l-34.2-23ZM564,448.54c.12.91-3.58,3.53-5.19,3.28-8.65-1.35-17.19-3.38-25.77-5.16a.68.68,0,0,1-.18-1.27c7.66-4.06,15.26-8.24,23.05-12,1-.51,4.1.66,4.5,1.72A61.16,61.16,0,0,1,564,448.54Zm-52.13-24.68c1.76,1.31,7.18-1.51,10.36-3.4,1.05-.62.11-4.28.48-6.49.45-2.67,1.32-5.28,2.41-9.42l25,17.65c-8.61,5.18-17.31,9.92-25.42,15.51-4.64,3.2-7.19,2.94-11.85-.66-6.32-4.87-11.31-8.38-16.94-13.19C499.91,421.8,505.94,419.45,511.91,423.86Zm-24.93,4,29.45,22.35a.63.63,0,0,1-.41,1.13c-9.7-.89-24.11-9.56-33.59-20.2Zm-39.78-1a.39.39,0,0,1,.73.11c2.21,12.48,4.34,24.19,6.28,35.92a26.69,26.69,0,0,1,.06,7.78c-.81,6.12-6.26,8.22-11.17,4.41s-9.85-7.79-15-11.91Zm-22.28,59.74c-2.17-4.36-2.29-9.83-1.74-15.14.35-.76,1-1.51,1.47-1.15,4.76,3.58,9.66,7,14.27,10.75,5.71,4.66,11.35,5,18-.2,4.29,29.36,8.48,58,12.67,86.75a.89.89,0,0,1-1.66.54c-4.25-8.13-8.41-16.3-12.72-24.39C445.06,524.74,434.54,505.9,424.92,486.61Zm79.94,227.88c-1.25-9.54-2.14-19.16-4.07-28.56-3.9-19-8.49-37.88-12.61-56.85-.8-3.67-1.13-7.44-1.65-12a.83.83,0,0,1,1.51-.57c7.37,10.76,13.63,20.92,15.64,33.26,2.62,16.06,5.65,32.06,8,48.16q4.26,29.49,7.55,59.12c.87,7.74-3.93,13.53-8.7,20-1.93-14.33-5.67-27.79-4.78-40.94A107.9,107.9,0,0,0,504.86,714.49Zm-17.66-50a.69.69,0,0,1,1.38-.05l15.74,118c-10.15,2.37-19,4.53-27.94,6.5-7.61,1.68-15.27,3.2-22.93,4.69a7.5,7.5,0,0,1-4.13-.09c-2.92-1.25-4.15-15.83-1.46-17.85,20-15.08,28-37.34,35-59.87,2.35-7.57,2.13-16,2.76-24C486.3,682.65,486.68,673.55,487.2,664.46ZM477,702.08a127.72,127.72,0,0,1-15.76,46.42c-3.48,6.2-8.27,11.67-13.25,17.08-1.34-41.56,2.11-82.38,8.39-123.38,9.76,3.63,12.31,11.93,16.68,18.39C481.84,673.52,478.82,688.05,477,702.08Zm1-49.15c-3.45-4.18-6.23-8.59-10-11.83-3.94-3.38-8.75-5.79-13.41-8.19-.63-.33-3.52,1.71-3.74,2.94-1.87,10.64-3.68,21.3-4.9,32-1.87,16.48-3.89,33-4.48,49.53-.13,3.61-.37,5.89-.37,8.84,0,1.74-.53,1.7-.63,0-.6-6.84-1.43-13.67-1.75-20.53-.58-12.53-1.52-25.11-1.11-37.63.61-18.62,1.67-37.27,3.69-55.78,1.24-11.4,4.5-22.59,7.14-33.8.52-2.19,2.1-5.34,3.57-6.08,1.46-1.34,2.4-.9,3,.81L467.14,597c10.92,25.66,9.84,32.36,10.92,40.7C478.55,641.41,478.2,649.23,478.06,652.93Zm-89.45,154.3c2-13.8,3.82-27.65,5.59-41.5q2.51-19.62,4.7-39.3c1-9.23,1.55-18.51,2.57-27.74,1.3-11.74,2.82-23.46,4.34-35.17,1.7-13.07,3.38-26.14,5.29-39.18,1.2-8.15,3.19-16.18,4.15-24.35,1.62-13.85,2.3-28.09-5.77-40.18-5.36-8-8.4-15.5-5-24.73,4.29-11.59,11.69-20.17,24.44-24.17l28.68,51.74c1.2,2.81-.15,2.33-1.84.64-8.1-8.13-16.75,19-20.71,40.81-.52,4.08-1,8.06-1.59,12.58a519.39,519.39,0,0,0-3.77,60.06c-.07,22.84,1,41.26,4.11,69.12,2.77,24.37,7.16,48.34,10.79,72.59,2.54,16.94,4,34,6.18,51,2.7,21.48,5.59,42.93,8.33,64.41.39,3.09.43,6.23.71,10.36H428c-.75-6.24-2-13.35-2.39-20.51-1-19.87-1.24-39.79-2.71-59.62a19.73,19.73,0,0,0-13.19-17.45c-8.52-3.13-17.36-5.45-26.3-8.2C385.13,828.08,387.07,817.69,388.61,807.23Zm-54.8,57.68c-.27-12.71-2.56-25.4-4.46-38-.67-4.43,2.22-5,4.77-6.07,12.47-5.08,25-10,38.52-15.34-7.41,40-8.19,79.65-8.94,119.63-11.58-2-15.36-4.05-21.57-7.84-6.5-4-12.09-9.4-18.52-14.55C332.4,891.75,334.08,878.28,333.81,864.91Zm-13.69-34.37c1.34,22.12,7.73,43.52-3.27,65.62l-50.69-41.9ZM161.3,865.41c.66,3.38,4.88,6.65,8.23,8.8,17.09,10.93,34.45,21.44,51.65,32.18,6.91,4.32,12.14,5.08,25.13,2.9-2.6,2.31-4.79,4.1-6.87,6C234.27,920,229.79,924.14,228,931c-.81,3.17-3.46,4.18-6.41,2-1.42-1.07-2.61-2.46-3.94-3.66-16.05-14.46-32-29-48.23-43.29-4.09-3.6-9.75-5.57-13.32-9.52a52,52,0,0,1-9.44-15.65c-1.63-4.14.53-7.51,4.86-10.78,2.67-2,5.22-3.74,8.13-5.84a.78.78,0,0,1,1.23.64C160.81,852.54,160.08,859.17,161.3,865.41Zm69.2-1.33c1.23,3,5.75,11.82-7.6,16.83-7.93,3-13.81-2-18.46-9.23-5.9-9.2-12.66-17.86-19.33-26.53-1.87-2.43-4.72-4.47-7.58-6.49l7.41-4.2C198.7,846.44,212.14,858.75,230.5,864.08ZM193,831.39c8.9-2.87,18.11-3.6,24,1.4,5.21,4.46,9,16.61,11.27,24.07C215.55,851.85,202.47,841.61,193,831.39Zm45.4,51.68c7.58.61,15,3,23.8,4.91-6.67,9.94-15.31,12.65-23.27,16.17-2.36,1-5.63.82-6-3.54-.17-2-1.67-3.86-2.31-5.86s-2.08-5.32-1.28-6.09C231.9,886.19,235.48,882.83,238.4,883.07Zm-38.92-7.87c13.21,23.08-32.89-6.62-34.25-14.58,0-4.17.26-12.22,1.66-16.23,1.15-3.27,4.24-1.6,8.55,1.49C185.07,852.76,199.88,874.72,199.48,875.2Zm33,64.19c5.76-14.79,17.64-23.38,31.1-30.43,6.21-3.25,12-7.28,18.24-10.52,8.56-4.46,18.73-5.41,24.66,3.92,3.15,5,7.65,9.07,12.23,14.36l-63.44,41.17c-2.47-2.67-5.8-6.12-9-9.71-2.38-2.7-4.69-3.71-8.32-2-1.61.77-5.13.47-5.9-.64C231.11,944.22,231.69,941.31,232.43,939.39ZM222.72,826c18.95,15.64,50.94,45,67.55,59.95l-24.44,10.61c6.25-9,2.52-16.31-3.44-23.74-7.59-9.45-29.41-30.74-40.58-42.87a17.74,17.74,0,0,0-6.17-4.44c-6.79-2.84-13.09-2.62-22.66.1a.38.38,0,0,1-.33-.68C204.79,816,210.65,816.67,222.72,826ZM98.29,817.65c.17.46-.05,1-1.51,2.18-5.69-12.36-11.54-24.62-17.12-37-1.9-4.24-.46-8,3.35-10.33,9.84-5.93,19.71-11.87,29.95-17,2.73-1.38,7.31-1,10.23.34,6.19,2.83,11.84,6.81,19.18,11.21-9,1.07-16.81.76-24.07,3-3.8,1.17-12.57,7.62-16.45,14.57C95.9,795.22,93.92,806,98.29,817.65Zm8.36-24.79c4-10.91,12.73-15,23.32-17.26,11.08-2.37,20.87-.54,30,6.11,11.59,8.45,23.34,16.69,35,25.07,1.61,1.16,3.07,2.55,4.54,3.79-20.2,13.11-41.76,22.8-59.88,39.53-10.67-10.69-22.45-21.08-32.36-33C101.66,810.38,103.63,801.08,106.65,792.86Zm38.84,111.77c-4.51-7.66-9.08-14.85-13.08-22.35-4.89-9.18-8.59-19.06-14.16-27.77-3.83-6-6.35-11.85-6.19-19,0-.85.41-.27.53-.17,7.71,6.78,15.52,13.45,23,20.49,1.8,1.7,2.63,4.53,3.64,6.95,3.61,8.72,7.25,17,16.16,22.33a155,155,0,0,1,23.88,17.95c14.37,12.85,28.26,26.24,42.18,39.58,2.94,2.82,4.73,6.87,7.72,9.62s7,4.94,10.38.55c8.43,4.73,9.29,12.92,11.52,20.39,3.94,13.15,8.37,26.09,17.66,36.85a.41.41,0,0,1-.55.59c-8.66-6.17-17.48-12.14-26-18.45-7.28-5.38-14.36-11-21.44-16.67a8,8,0,0,1-2.08-3.43,144.91,144.91,0,0,0-39-57.73c-5.76-5.24-12.48-9.58-19.21-13.58C155,897.54,149.28,899.24,145.49,904.63Zm16.38,24.29a.94.94,0,0,1-1.68.56c-3.3-4.17-8.6-8.1-8.6-16.4,0-2.15,0-3.9,2.4-8.28,1.64-2.87,13.69,6.38,18.6,12C165.54,919.4,162,923.18,161.87,928.92Zm31.24,36.84c-8.92-4.89-16.31-11.52-19.14-22-1.49-5.54-1.88-10.7,1.11-16,2.19-3.86,4.26-5,7.4-1.21,10.44,12.55,20.42,25.4,26.6,41.17C203.1,971.5,197.75,968.31,193.11,965.76ZM336.26,1084c-7.76-6-16-11.59-23.65-17.74-11.23-9-22.32-18.14-33.54-27.14-15.2-12.18-30.47-24.27-45.68-36.43-4.61-3.69-9.31-7.33-13.58-11.39-1.3-1.23-1.52-3.85-2.38-7.25,17.15,12.12,32.42,23.06,47.9,33.7,3.07,2.11,7,3,10.49,4.51a22.6,22.6,0,0,1,5.09,2.79c2.8,2.28,4.75,6.36,9.51,3.45.46-.28,2.05.89,2.85,1.66,3,2.9,6,5.9,8.94,8.89.55.56,1.59,1.4,1.46,1.78-2.68,7.67,4.66,9.61,8,13.49,8.38,9.68,17.36,18.85,26.09,28.22C341.67,1086.64,340,1087,336.26,1084Zm95.58-112.84c-19.35.5-34.57,1.24-53.92,1.81-4.08.11-7.15-.77-10-4-6.11-6.92-13.13-13.1-18.79-20.36-5.88-7.54-10.59-16-15.82-24.06-1.17-1.8-2.36-3.61-3.43-5.5a.79.79,0,0,1,1.18-1c8,6.4,16.27,12.17,26.89,13.16a117.28,117.28,0,0,0,20.26.38c1.48-.12,4.12-4.71,3.7-6.7-4-18.65-1.64-37.49-2.08-56.23-.13-5.52.62-11.07,1.2-16.58.29-2.77,1.55-5.12,5-4.17,6.57,1.82,13.17,3.56,19.6,5.77s10,7.88,10.22,14.29c.74,18.67,1.45,37.36,2.45,56,.4,7.38,1.37,14.75,2.37,22.08a7.4,7.4,0,0,0,7.46,6.4c11-.15,21.94,0,32.94,0l3.6,17.89C454.52,970.85,441.11,970.94,431.84,971.19ZM476.08,955c-4.12.11-5.78-.84-6.26-5.54q-3-29.7-7.1-59.28c-3.29-23.74-7.13-47.4-10.66-71.11-.86-5.79-1.46-11.63-2.13-17.07q20.93-4.77,41.76-9.51c2.45-.56,8.74-2.18,12.07-3a.72.72,0,0,1,.89.67c.58,11.25,1.6,28.8,2.67,36.07,1.12,7.64-2.29,13.72-5.28,20-2.6,5.47-5.7,10.69-8.5,16.06-3.94,7.55-.16,22.59,6.8,27.23,2.29,1.52,4.39,3.64,6.91,4.43,6.53,2.06,6.64,7.45,7.22,12.62,1.73,15.48,3.15,29.06,5,46.41C507.27,953.31,487.63,954.63,476.08,955Zm185.56,2.39c-18.44,1.87-130.23,9.57-132.53,9.57-1.08-6.35-2.12-12.4-3.16-18.55,7-.7,40.19-2.59,50.92-3.13,13.47-.69,26.92-1.62,40.39-2.36,5.86-.32,6.1-4.94,6.57-8.88.56-4.62-3.17-6.33-6.78-6.61-9.9-.8-14.07-7.77-9.57-16.67,4.33-8.57,5-8.89,14.08-5.72,7.21,2.51,14.21,5.82,21.59,7.52,6.49,1.5,9.92,5.31,12,10.92,3.51,9.52,6.64,19.19,10.18,28.7C666.8,956.12,665.28,957,661.64,957.34ZM629.15,800.62a62.37,62.37,0,0,0,4.75,6.61.51.51,0,0,1-.71.71c-12.55-10.06-36.83-45.64-45.07-65.15a38.42,38.42,0,0,1,4.73,2.17c4.78,3.08,7.14,4.25,13.58,8.84,8.19,5.83,12.47,11,11.83,21.41C617.68,784.81,624.4,792.61,629.15,800.62Zm18.73,27.19-12.77,5.9c-20.64-9.09-42.29-9.17-65.69-4.83L557,783.82C590.22,794.42,620.59,807.54,647.88,827.81Zm162.7,98.84-141.8,12.28c-2.23-5.36-4.69-11.24-7.59-18.2,14.08-1.07,27.58-2.06,41.08-3.15q21.57-1.73,43.14-3.63c6.6-.59,9-5.26,4.78-10.33a101,101,0,0,0-10.83-10.87c-.15-1.93-86.32-49.38-95.51-54.41,4.65-2.87,8.52-4.52,13.49-1.45,18.33,11.36,36.66,22.73,55.26,33.64,14.38,8.43,29.15,16.21,43.78,24.23q27.29,15,54.63,29.84A1.09,1.09,0,0,1,810.58,926.65Zm452.84,232.85a3.46,3.46,0,0,0-.37,3.46c1,1.67-.41,2-4.2,1.39-29.19-4.68-47.16-35.8-158.34-102a.61.61,0,0,1,.14-1.12c9.58-2.56,11.86-7.54,14-7.94,1.39-.25,9.62,1.39,22.28,7.71,9.79,5.21,16.22,10.5,20.82,13.93,38.44,28.66,56.44,60.35,56.51,50a9.86,9.86,0,0,0-2.28-6.22c-3.18-3.91-6.39-7.78-9.78-11.5A244.77,244.77,0,0,0,1176,1082c-16.43-13.35-33.58-25.83-50.46-38.63-3.48-2.64-7.07-5.16-10.58-7.76a.8.8,0,0,0-1.27.49c-.1.56-.22,1.13-.37,1.69-3.3,12.59-14.87,20.46-25.85,17.58a17.55,17.55,0,0,1-2.32-.78.7.7,0,0,0-.81,1.11c11.92,13.24,36.76,36.08,88.61,75.92h0c-47.19-24.74-102.61-61.58-111.36-66.88-74.86-61.26-120.38-124.06-123.23-125.23-13.56-5.58-10.92-5-24.7-10-21.88-7.91-50.34-24.5-29,0,1.81,2.07,14.81,16,16.8,17.89,1.79,1.68,20.37,18.49,32.66,29.76l1.36.18c7-4,19,1.45,19-6.27a.45.45,0,0,1,.75-.34c13.62,13,25.39,29.28,43.08,43.73,7.52,7.22-10.52,2.08-24.87-6-6.9-4.09-19.88-11.7-33-19.19h0c-6.22-4.5-32.42-24.06-36.93-27.29s-11.94-8.52-14.62-10.16-7.38-1-8.66-.55-5.38,1.82-7.7,1.82l-.52,0c-7.72-6.87-19.43-20.65-23.47-23.57C833.74,918.79,775.77,871,749,846.33c-2.27-2.09-16.37-14.63-18.63-16.66q-15.13-13.51-29.91-27.42c-12-11.4-24.13-22.76-35.73-34.6-17.26-17.59-34.35-35.35-51-53.49a132.12,132.12,0,0,0-29.57-24.63c-5.72-3.41-17.85-2.64-22.89,2.31-8.91,8.75-13.27,19-14.32,31.15-2.2,25.41-1.65,50.33,6.7,75,6.73,20,10.83,40.81,16.23,61.24,2.19,8.29,4.4,16.61,7.24,24.69,1.33,3.8,3,7.54,8.35,8.68,6.68,1.43,13,4.57,19.75,7.08-10.8,13.56-8.62,31.26,6.78,35,.51.12,3,1.42-.56,1.69C603,937,595,937.51,586.54,938c-19.27,1-38.57,1.58-57.85,2.59-3.34.17-4.27-.91-4.61-3.93-2.32-20.37-5-40.69-7.07-61.08-1.31-13-1.7-26.14-2.52-39.21-.74-11.81-2-37.62-3.11-50.89,10.9-7.86,16.58-21.8,14.15-36.28-2.63-15.72-4-31.64-6.28-47.42-1.92-13.41-4.13-26.79-6.51-40.12-1.51-8.46-2.51-17.23-5.64-25.11-3.63-9.14-7.67-19.21-14.53-25.72-10.57-10-12.15-22.21-14.15-34.89q-4.71-29.7-9.31-59.42c-1.8-11.65-3.34-23.35-5.16-35-2.18-14-4.57-27.9-6.81-41.86a78.73,78.73,0,0,1-1.43-11.69c0-2,1.45-4.06,2.48-6.69,10.06,8.09,19.17,15.58,28.46,22.83,16.91,13.2,33.78,26.47,51,39.28,12.12,9,24.7,17.43,37.2,25.93,2.87,1.95,6.22,3.22,9.41,4.69,11.4,5.25,18.41,15.53,27.21,23.74,6.15,5.74,10.15,9.79,18,17.64,7.19,7.17,8.9,13.53,6.38,22.3s-2,17.69,1.89,25.46a440.09,440.09,0,0,0,24,42.29c8.78,13.53,22.1,22.39,36,30.14,3.43,1.9,6.85,3.83,10.3,5.68,3.93,2.11,3.94,6.1,5.43,9.65,5.08,12,9.48,25,17.29,35.13,10.93,14.23,24.31,26.71,37.4,39.14a204.11,204.11,0,0,0,27.4,21.48c10.61,7.06,22.16,12.43,35.54,11.93,5.35-.21,10.72,0,17.14,0,6,8.31,32.54,45.52,36.36,51,16.19,23.39,32.17,46.93,48.46,70.25,3.92,5.61,30.73,37,137.26,115.18l1.6,1.18a.48.48,0,0,0,.76-.43,26.35,26.35,0,0,1,.83-8.39c2.21-8.46,8.16-14.76,15.16-17.13a.89.89,0,0,0,.36-1.46c-3.9-4.18-13.07-16.58-13.54-18.09-.94-3,44.26,7.22,55.32,10,18.12,4.48,33.32,9.22,35.94,30.91,1.41,11.79,9.14,19.45,17.71,26,21.57,16.59,46.44,27.2,71.33,37.59a229.65,229.65,0,0,0,27.38,9.4c10,2.75,20.4,3.89,30.3,6.85,12.13,3.62,24.62,6.92,33.91,16.63,6.15,6.42,12.62,12.54,18.82,18.92,5,5.12,3.63,10.45-3.49,11-11.18.82-22.48.52-33.71.15-15.14-.51-30.26-1.69-45.4-2.23a52.49,52.49,0,0,0-15.29,1.37A10.54,10.54,0,0,0,1263.42,1159.5Zm129,37.27c-5,1.16-9.83,2.61-14.57,2a191.6,191.6,0,0,1-29.58-7c-16.53-5-32.8-10.87-49.33-15.82-3.11-.93-7,.68-10.5,1.14-4.8.63-15.31-6-19.08-12.62a1.43,1.43,0,0,1,.86-2.07c7.74-2.34,15.41-.48,20.34-.35,11.8.32,18.12,1.54,29.91,2.14,12.07.61,24.11,2,36.17,2.18,6.15.08,12.72-1.15,16.83-6.78,1.74-2.4,2.65-5.41,4.09-8.46,6.56,6.11,11.74,13,13.18,21.87.64,3.91,1.6,10.08,3.33,20.93A2.17,2.17,0,0,1,1392.45,1196.77Zm33.57-28c-4.76,11.55-13.61,19.35-24.1,25.66a1.19,1.19,0,0,1-1.79-.89c-.94-8.11-1.78-15.58-2.69-23-1.1-9-5.81-16.22-12-22.28-10.81-10.55-23-19.87-32.88-31.15-8.23-9.35-17.48-13-27.37-19.37a43.86,43.86,0,0,1-3.62-2.83c6.33-5.12,12.48-10.11,18.74-15.19,3.3,5.23,6.38,11.94,11.08,17.23,10.38,11.68,21.37,22.85,32.5,33.84,7.66,7.57,15.77,14.73,24.09,21.59,2.82,2.32,6.79,3.49,10.41,4.59C1425.55,1159.07,1428.52,1162.65,1426,1168.73Z"/></g></g></svg>