<svg xmlns="http://www.w3.org/2000/svg" viewBox="0 0 1500 1500"><title>Federal Corvette</title><g id="Federal_Corvette" data-name="Federal Corvette"><g id="Colour"><path d="M1477.63,1082.08c-.47-11-1.24-22.15-9.33-30.59-8.27-8.64-17.3-16.55-26-24.8-5.76-5.47-11.36-11.11-17.26-16.42-16.38-14.75-33-29.25-49.3-44.09-9.32-8.47-18.09-17.54-27.34-26.09-9.93-9.17-20.27-17.89-30.18-27.08-13.5-12.51-26.75-25.28-40.14-37.9-3.89-3.66-7.84-7.27-11.88-10.76-12.71-11-25.52-21.89-38.2-32.92-4.84-4.21-9.56-8.57-14.11-13.09a42.92,42.92,0,0,1-5.73-7.4c-1.45-2.25-1.86-5.4-3.69-7.12-13-12.23-26.49-23.87-39.14-36.41-5.21-5.17-11-7.53-17.55-6.8-7.14.81-10.26,3.26-18.78-2.44-.46-.6-122.85-115.86-128.61-120.87-2.06-1.81-5.49-4.59-4.83-7.85.73-3.62.31-6.44.1-10.2a7.34,7.34,0,0,0-1.51-4.26c-3.13-3.46-6.44-6.77-9.87-9.93-14-12.93-28.16-25.78-42.65-39,4.06-4.75,4.1-8.57-.71-12.11-.88-.64-1.09-2.5-1.21-3.83-.38-4.34-3.09-6.11-6.86-7.64-2.37-1-5.06-3.17-5.91-5.45-1.62-4.32-4.28-6.23-8.5-7.52-2.22-.69-5.07-3.16-5.46-5.24-1-5-4.1-6.36-8.26-7.65-2.23-.68-5.62-2.83-5.67-4.4-.16-5.4-3.68-7-7.6-8.23-3.41-1.08-5-2.87-6-6.5-.56-2.2-3.54-4.34-5.93-5.35-3-1.27-6.27-1.61-6.71-5.64-.49-4.52-3.07-6.52-7.41-7.66-2.33-.61-5.93-3.33-5.86-4.95.29-6.55-4.54-6.44-8.43-7.78-1.76-.6-4-.62-5.25-1.76-7.4-6.73-14.38-13.94-21.9-20.52-5.35-4.69-8.29-9.91-9.91-17.08-4.78-21.19-10.79-42.11-16.14-63.19a9,9,0,0,1,.74-5.89c3.6-6.81,7.5-13.46,11.4-20.1,2.88-4.92,1.88-10.06-3.09-12.63-6.85-3.55-12.59-8.68-19.52-12.25-11.36-5.88-21.88-13.39-32.78-20.16a5,5,0,0,0-2.88-1c-6.46.81-12.87,2-19.34,2.66s-13.58,2.7-19.49,1c-9.76-2.83-18.88-8-28.12-12.52-15.83-7.71-31.41-15.95-47.34-23.45-25.23-11.88-50.67-23.3-76-35-11.1-5.12-22.12-10.45-33.21-15.61-14.59-6.79-29.13-13.68-43.86-20.15-4.87-2.13-10.34-4.44-15.37-4.13-4,.25-7.88,4.25-11.69,6.77C445,199.34,432.77,208,420,215.8c-5.35,3.27-8.35,7.31-9.55,13.1-1.83,8.88-1.81,8.89,6.07,14.23,4.76,3.23,9.55,6.42,14.32,9.63l-1.05,1.71c-4.11-2.39-8.14-4.93-12.35-7.11-4.59-2.37-9.32-6.22-14-6.3-34.49-.53-69-.33-103.48-.15-1.79,0-3.83,1.66-5.3,3-4.59,4.33-6.36,9.78-6.7,16.11-.14,2.82-.23,4.23,2.42,5.94,12.84,8.3,25.49,16.93,38.18,25.46,5.15,3.46,10.26,7,15.75,10.72-5.58,3.24-10.36,5.87-15,8.74-5.25,3.27-6.42.09-11.68-3.2-3.05-1.91-6.22-4.72-9-6.54-12.7-8.36-24.22-16.51-36.14-25.83-9.58-7.47-18.19-8.12-28.16-2.72-3.28,1.78-7.79,3.06-9.39,5.9-7.72,13.7-14.56,27.91-21.88,41.85-8.05,15.32-16.5,30.43-24.21,45.92-1.38,2.76-1.12,7.51.38,10.25,2.71,5,6.91,9.1,10.41,13.47-5.38,3.2-12.4,7.47-19.55,11.52a4.26,4.26,0,0,1-3.71-.25c-9-6.15-18.18-12.13-26.72-18.89-4.45-3.52-8.51-3.37-12.71-1.1-18.09,9.78-36.14,19.65-54,29.8Q58.76,424.83,35,439.26c-7.23,4.4-7.63,12.83-1.84,18.81,4.13,4.25,8,8.75,11.73,13.38s6.82,9.4,10.31,14C63,495.75,70.79,506,78.54,516.21q15,19.85,29.85,39.75c7.77,10.45,15.4,21,23.07,31.52,3.86,5.29,7.54,10.71,11.52,15.9,9.86,12.89,19.89,25.65,29.67,38.6.69.9.45,3.18-.22,4.32-3.44,5.92-7.35,11.57-10.73,17.53-2.43,4.28-1.45,8.72,2,11.91,4.12,3.81,8.83,7,13.31,10.42,10.67,8.12,21.43,16.11,32,24.36,4.58,3.58,9.06,6.75,15.33,5.68s12.93-1.67,19.29-3c5.33-1.13,10.45-2.93,14.25,2.92a2.94,2.94,0,0,0,1.76,1.06c13.91,2.93,27.84,5.76,41.75,8.7q34.78,7.35,69.54,14.8c12.19,2.59,24.34,5.42,36.57,7.78,13.09,2.52,26.12,4.94,38.18,11.11,13.57,7,221.37,106.41,243.81,117.23,17.23,8.3,34.39,16.75,51.58,25.14,12.74,6.22,25.52,12.38,38.21,18.69,7,3.46,11,3.1,16.32-1.57,4.11-3.62,8.4-7,12.66-10.51.77-.62,2-1.52,2.66-1.3,7.12,2.33,14.29,4.58,21.21,7.44,5,2.07,9.56,5.11,14.39,7.59,18.84,9.65,37.84,19,56.5,29,5.79,3.11,10.67,7.91,16.19,12.1,0,3.22.22,7.32-.07,11.4-.23,3.33,1,5.15,4,6.58q21.6,10.17,43,20.74c8.92,4.42,17.2,10.5,28,9.57,1.23-.11,2.62.92,3.86,1.57,16.8,8.9,33.54,17.93,50.41,26.7,8.25,4.29,16.79,8,25.13,12.16,18.88,9.38,37.64,19,56.6,28.25,20.2,9.82,40.64,19.14,60.84,29,12.86,6.26,25.44,13.1,38.21,19.56,15.13,7.65,30.37,15.1,45.49,22.77,5.26,2.67,10.18,6,15.5,8.56,10.59,5,21.83,8.86,31.94,14.69,13,7.48,26.38,10.81,41.12,9.06,14.56-1.72,29.08-3.75,43.66-5.22,7.38-.74,14.69-5.73,15.47-13,.45-4.24,2.77-6.42,5.33-8.73,9-8.08,18.26-15.84,27.07-24.09a19,19,0,0,1,11.7-5.22c3.5-.43,8.47-3.12,9.55-6,2.1-5.62,2.4-12.07,2.56-18.2C1478.74,1096.33,1477.92,1089.2,1477.63,1082.08Z" fill="#4e6d87"/><path d="M1477.63,1082.08c-.47-11-1.24-22.15-9.33-30.59-8.27-8.64-17.3-16.55-26-24.8-5.76-5.47-11.36-11.11-17.26-16.42-16.38-14.75-33-29.25-49.3-44.09-9.32-8.47-18.09-17.54-27.34-26.09-9.93-9.17-20.27-17.89-30.18-27.08-13.5-12.51-26.75-25.28-40.14-37.9-3.89-3.66-7.84-7.27-11.88-10.76-12.71-11-25.52-21.89-38.2-32.92-4.84-4.21-9.56-8.57-14.11-13.09a42.92,42.92,0,0,1-5.73-7.4c-1.45-2.25-1.86-5.4-3.69-7.12-13-12.23-26.49-23.87-39.14-36.41-5.21-5.17-11-7.53-17.55-6.8-7.14.81-10.26,3.26-18.78-2.44-.46-.6-122.85-115.86-128.61-120.87-2.06-1.81-5.49-4.59-4.83-7.85.73-3.62.31-6.44.1-10.2a7.34,7.34,0,0,0-1.51-4.26c-3.13-3.46-6.44-6.77-9.87-9.93-14-12.93-28.16-25.78-42.65-39,4.06-4.75,4.1-8.57-.71-12.11-.88-.64-1.09-2.5-1.21-3.83-.38-4.34-3.09-6.11-6.86-7.64-2.37-1-5.06-3.17-5.91-5.45-1.62-4.32-4.28-6.23-8.5-7.52-2.22-.69-5.07-3.16-5.46-5.24-1-5-4.1-6.36-8.26-7.65-2.23-.68-5.62-2.83-5.67-4.4-.16-5.4-3.68-7-7.6-8.23-3.41-1.08-5-2.87-6-6.5-.56-2.2-3.54-4.34-5.93-5.35-3-1.27-6.27-1.61-6.71-5.64-.49-4.52-3.07-6.52-7.41-7.66-2.33-.61-5.93-3.33-5.86-4.95.29-6.55-4.54-6.44-8.43-7.78-1.76-.6-4-.62-5.25-1.76-7.4-6.73-14.38-13.94-21.9-20.52-5.35-4.69-8.29-9.91-9.91-17.08-4.78-21.19-10.79-42.11-16.14-63.19a9,9,0,0,1,.74-5.89c3.6-6.81,7.5-13.46,11.4-20.1,2.88-4.92,1.88-10.06-3.09-12.63-6.85-3.55-12.59-8.68-19.52-12.25-11.36-5.88-21.88-13.39-32.78-20.16a5,5,0,0,0-2.88-1c-6.46.81-12.87,2-19.34,2.66s-13.58,2.7-19.49,1c-9.76-2.83-18.88-8-28.12-12.52-15.83-7.71-31.41-15.95-47.34-23.45-25.23-11.88-50.67-23.3-76-35-11.1-5.12-22.12-10.45-33.21-15.61-14.59-6.79-29.13-13.68-43.86-20.15-4.87-2.13-10.34-4.44-15.37-4.13-4,.25-7.88,4.25-11.69,6.77C445,199.34,432.77,208,420,215.8c-5.35,3.27-8.35,7.31-9.55,13.1-1.83,8.88-1.81,8.89,6.07,14.23,4.76,3.23,9.55,6.42,14.32,9.63l-1.05,1.71c-4.11-2.39-8.14-4.93-12.35-7.11-4.59-2.37-9.32-6.22-14-6.3-34.49-.53-69-.33-103.48-.15-1.79,0-3.83,1.66-5.3,3-4.59,4.33-6.36,9.78-6.7,16.11-.14,2.82-.23,4.23,2.42,5.94,12.84,8.3,25.49,16.93,38.18,25.46,5.15,3.46,10.26,7,15.75,10.72-5.58,3.24-10.36,5.87-15,8.74-5.25,3.27-6.42.09-11.68-3.2-3.05-1.91-6.22-4.72-9-6.54-12.7-8.36-24.22-16.51-36.14-25.83-9.58-7.47-18.19-8.12-28.16-2.72-3.28,1.78-7.79,3.06-9.39,5.9-7.72,13.7-14.56,27.91-21.88,41.85-8.05,15.32-16.5,30.43-24.21,45.92-1.38,2.76-1.12,7.51.38,10.25,2.71,5,6.91,9.1,10.41,13.47-5.38,3.2-12.4,7.47-19.55,11.52a4.26,4.26,0,0,1-3.71-.25c-9-6.15-18.18-12.13-26.72-18.89-4.45-3.52-8.51-3.37-12.71-1.1-18.09,9.78-36.14,19.65-54,29.8Q58.76,424.83,35,439.26c-7.23,4.4-7.63,12.83-1.84,18.81,4.13,4.25,8,8.75,11.73,13.38s6.82,9.4,10.31,14C63,495.75,70.79,506,78.54,516.21q15,19.85,29.85,39.75c7.77,10.45,15.4,21,23.07,31.52,3.86,5.29,7.54,10.71,11.52,15.9,9.86,12.89,19.89,25.65,29.67,38.6.69.9.45,3.18-.22,4.32-3.44,5.92-7.35,11.57-10.73,17.53-2.43,4.28-1.45,8.72,2,11.91,4.12,3.81,8.83,7,13.31,10.42,10.67,8.12,21.43,16.11,32,24.36,4.58,3.58,9.06,6.75,15.33,5.68s12.93-1.67,19.29-3c5.33-1.13,10.45-2.93,14.25,2.92a2.94,2.94,0,0,0,1.76,1.06c13.91,2.93,27.84,5.76,41.75,8.7q34.78,7.35,69.54,14.8c12.19,2.59,24.34,5.42,36.57,7.78,13.09,2.52,26.12,4.94,38.18,11.11,13.57,7,221.37,106.41,243.81,117.23,17.23,8.3,34.39,16.75,51.58,25.14,12.74,6.22,25.52,12.38,38.21,18.69,7,3.46,11,3.1,16.32-1.57,4.11-3.62,8.4-7,12.66-10.51.77-.62,2-1.52,2.66-1.3,7.12,2.33,14.29,4.58,21.21,7.44,5,2.07,9.56,5.11,14.39,7.59,18.84,9.65,37.84,19,56.5,29,5.79,3.11,10.67,7.91,16.19,12.1,0,3.22.22,7.32-.07,11.4-.23,3.33,1,5.15,4,6.58q21.6,10.17,43,20.74c8.92,4.42,17.2,10.5,28,9.57,1.23-.11,2.62.92,3.86,1.57,16.8,8.9,33.54,17.93,50.41,26.7,8.25,4.29,16.79,8,25.13,12.16,18.88,9.38,37.64,19,56.6,28.25,20.2,9.82,40.64,19.14,60.84,29,12.86,6.26,25.44,13.1,38.21,19.56,15.13,7.65,30.37,15.1,45.49,22.77,5.26,2.67,10.18,6,15.5,8.56,10.59,5,21.83,8.86,31.94,14.69,13,7.48,26.38,10.81,41.12,9.06,14.56-1.72,29.08-3.75,43.66-5.22,7.38-.74,14.69-5.73,15.47-13,.45-4.24,2.77-6.42,5.33-8.73,9-8.08,18.26-15.84,27.07-24.09a19,19,0,0,1,11.7-5.22c3.5-.43,8.47-3.12,9.55-6,2.1-5.62,2.4-12.07,2.56-18.2C1478.74,1096.33,1477.92,1089.2,1477.63,1082.08Z" fill="none" stroke="#000" stroke-linejoin="round" stroke-width="8"/></g><g id="Grey"><path d="M667,573.14c-.12-1.28-2.07-15.39-2.07-15.39l-11.34-4.93L531.42,512.94v3.85S667.12,574.42,667,573.14Zm435,383.64-14.73-36.72L1041.66,904,972,880.17l-48.51,52.44-3.24,9s107.55,56.06,109,56.06l4-15.45-30-17-13.07,3.68L941,941.61l-4-7.54L962.68,904l13.64-10.79,96.76,33.72,5.59,7.91,3.59,17.41-4.31,4.58-6.2,8.41,6.92,5.53,7.18-5.53h7.91l103.85,54.4s16.89,7.91,18.79,7.91,4.92-5.39,4.92-5.39ZM994.58,821.65l10.51-6.28L1189,952.2l31-30.53L1046.55,790.58l22.06-13.18,4.47-17.5V734.68s-7-4-8.43-4.31-4.42,18.22-4.42,18.22l-4.21,6.53h-28.11l-59.2,43.48-17.25,35.21-39.88,14L822.1,807a40.67,40.67,0,0,0-4.79-2.07l13.42-41.19V753.68l-143-148-12.32-12L661.8,589,487.2,556.41l-48.55-32.72-25.06-14.35-1.85,7.2,73.31,49.21L661.8,599.16l8.66,2.53L814.45,748l4.16,8.53-14.55,38-6.48-1.69-113.1-49.94-47.14,19.71-13.22-3.91,22-34.13,3-7.86L523,663l-29.14,53.76,108,56,15.54-3.62,16.42,5.73L687,756.56l125.65,56.32c-.22,3.09-.24,5.84-.24,5.84l95.31,44.2,70-18.76ZM661.8,420.94v7.91l70,96.29,10.33-17.08L759.22,535,949.67,661.08s17.6,3.49,19.4,4.87,32.26-13.16,32.26-13.16,1.88-5.47,3.31-5.37-70.53-70.31-70.53-70.31l-7.44-7.61-3.81,7L985.24,637l7.19,8-1.56,2.49-32.22,8.7L789.85,545.27l-18.77-12.16-69.71-107.5L622.79,384.3l-12.33,3.38,52.12,25.23Zm262.39,125c.08.06.14.09.14.07S924.28,545.93,924.19,545.92Zm0,0c-3.67-2.67-81.41-80.42-81.41-80.42l-25.41,7.27,66,81.51S921.54,545.55,924.19,545.92Z" fill="#8e8e8e"/></g><g id="Canopy"><path d="M697.77,514.49c-3.29-6.07-11.86-14.09-16.41-19.95-7.65,10.41-20.52,16.85-32,21-4,1.45-51.51-18.69-54.79-15.93-4,3.37,43.64,32.69,48.89,34.36a129.31,129.31,0,0,0,14.62,4.2,33.66,33.66,0,0,0,20.27-1.7,45.56,45.56,0,0,0,14.37-9.56C694.91,524.87,699,516.75,697.77,514.49Z" fill="#82b3d1"/></g><g id="Details"><path d="M900.6,654.9c-9.14-6.9-18-14.22-26.9-21.41-3.21-2.58-8.48-3-10.92,0-1.69,2.09-3.72,4.81,0,7.6,14.45,10.76,28.74,21.72,43.14,32.64,3.66,2.3,11.39,6.92,14.8,9.66,2.63-1.74,7.94-5.57,9.86-6.85C920.7,669.46,910.5,662.38,900.6,654.9ZM800,679.65l62.63,47.12c2.78-2.67,7.15-6.82,9.44-9-20.71-15.75-41.41-30.69-62.16-46.47C804.06,667.86,795.51,674.81,800,679.65Z" fill="#ff7100"/></g><g id="Headlight"><path d="M1409.3,1167.59c-2.16-.58-39.14,1.64-40,1.75-6.36.8-4.14,6.81.83,6.27,0,0,29.89-1.93,32.45-2.22C1410.65,1172.44,1411.62,1168.22,1409.3,1167.59Z" fill="#fff"/></g><g id="Shadows" opacity="0.2"><path d="M649.12,570.56l31.61,6.67,18.46-4.09-.83-18.42L655,513.35l-5.63,2.22-12-.24-53.82-23.92L493,443.28H467.33L230.82,294l-41.58,82.63,10.36,9.93L180,409.22l-40.34-22L35,439.32l-4.41,15.24s41.5,50.64,47.67,58.79c4.85-15.43,27.49-7.28,27.49-7.28C339.34,572.88,649.12,570.56,649.12,570.56Zm768.22,566.53s-41.68,5-58.21,6.47-28-5-28-5l-402-212L950,904l-5-10.23L939.4,875.6,744.58,787.82l-66.12,14.36L513.23,726.77l-77.39-37.32L348.17,692l-84.58,9.7,1.85,8,125.64,25,102.77,38L778.19,917.18l38.94-7.86,98.8,51.45,13.13,19.13s46.3,25.68,47.38,26.06,14.43-5.78,14.43-5.78l339.2,178.73,39.12,3.46,41.21-6.72,11.95-9.91,28.77-35.12Zm-99-163.58L1212.52,866.66,1173.71,853l-18.07-8.86-87-66.7-40.7,16.89,202.62,156.36Z" fill="#111"/></g><g id="Outline"><path d="M486.4,251.16a14.71,14.71,0,0,0,5.05,1.38c3.57.5,8,0,10.54-4,2.17-3.44-5-6.58-9.13-5.78-2,.39-6.26,1.28-8.82,4.45C482.69,248.73,484.85,250.16,486.4,251.16Zm-215.12,401c3.76-3.54,7.64-6.93,11.43-10.43L340.2,588.6c9.28-8.59,18.67-17.07,27.74-25.9a7.44,7.44,0,0,0,1.59-6.35A100.88,100.88,0,0,0,363,542.06a11.37,11.37,0,0,0-17.48-3c-4.72,4.35-9.48,8.66-14.13,13.07q-22.76,21.6-45.41,43.27c-4.15,4-25.4,23.68-31.84,29.6-2.82,2.59-5.9,4.9-8.6,7.12l-11.73-8.82c2.69-2.49,5.06-4.69,7.41-6.89,11.2-10.48,22.36-21,33.62-31.43,6.79-6.28,13.79-12.33,20.63-18.55,5.3-4.82,10.52-9.73,15.75-14.63s10.52-9.64,15.49-14.75a6.8,6.8,0,0,0,1.36-3.33,2.15,2.15,0,0,0-1.72-2.55c-1.63-.29-3.26-.58-4,.1-14.27,12.55-28,25.68-42.46,38-5.61,4.79-22.16,20.9-24.26,22.89-8.65,8.22-17.6,16.12-26.27,24.32-6,5.63-5.45,7.56,1.37,12.49q15.85,11.47,31.28,23.5C265.46,655.23,268.22,655.08,271.28,652.2Zm-19-15,100.41-94.08a1,1,0,0,1,1.2-.18c1.3.64,3.06,1.28,3.76,2.52a54.48,54.48,0,0,1,5.07,12c.31,1.09-2,3.15-3.35,4.44-8.35,7.75-16.79,15.4-25.19,23.09q-18.9,17.32-37.77,34.65c-6.49,6-12.77,12.18-19.35,18-2.4,2.13-8.55,7.14-11,9.44ZM326,623.29c-13.83,12.75-27.71,25.44-41.42,38.32a8.47,8.47,0,0,0-1.78,3.78,1.94,1.94,0,0,0,1.1,2.35,8.49,8.49,0,0,0,3.57,1c9.2-.52,18.38-1.61,27.58-2,19.06-.82,38.13-1.33,60.37-2.07,9.08-.62,21.31-1.44,33.54-2.32,4.48-.33,4.85-3.76,4.5-7-.26-2.36-1.47-4.66-2.48-6.88-4.06-8.94-8.32-17.78-12.29-26.76-6-13.57-11.8-27.23-17.68-40.86-1.45-3.34-3.06-5.17-6.61-1.84-6.91,6.5-14.09,12.73-21.09,19.14C344.2,606.48,335.13,614.9,326,623.29Zm80.12,32c-24.24,1.21-51.42,2.87-75.09,4.08a.81.81,0,0,1-.56-1.42c9.32-7.92,40.3-37.54,43.07-40.32s8.59-7.87,11.49-10.33Zm-30.09-69.41c2.39,5.16,4.29,9.25,6.46,13.92-7.42,6.58-14.79,13-22,19.53q-10.38,9.42-20.49,19.12c-7.51,7.18-13,12.65-20.45,19.87a14.75,14.75,0,0,1-4.32,2.25c-6.74.23-12,.59-17.75.68a1,1,0,0,1-.73-1.78Q335.62,623.39,376.06,585.84Zm45.06,14a17.67,17.67,0,0,0,2.58.46,7.58,7.58,0,0,0,2.92-1.1l41.12-21.6c-2.23,5.44-3.68,9.75-5.51,13.81-4.4,9.75-7.23,10.06-13.3,12.77-6.7,3-13.23,6.4-19.63,10A3.55,3.55,0,0,0,428,616a2.6,2.6,0,0,0,1.89,3.55,4.45,4.45,0,0,0,2.18,0c3-1,5.72-2.71,8.58-4.09,3.57-1.74,7.17-3.44,10.75-5.16,1.75-.82,2-.85,1.11,1l-7.49,21a46,46,0,0,0-6.72,3.2,7.9,7.9,0,0,0-1.71,1.57,2.32,2.32,0,0,0,1.32,3.79H438a8.19,8.19,0,0,0,4.76-.57c8.44-3.72,8.13-6.82,10.47-12,7.14-15.65,13.85-31.49,20.55-47.34,3.71-8.78,3.21-10.68-4.57-15.68-11.13-7.16-22.49-14-33.89-20.69-1.61-.94-5.22-1.4-5.84-.57-2,2.76.08,4.61,2.58,6.3,10.65,7.17,21.16,14.53,31.92,22-3.91,2.19-7.23,4.18-10.66,5.94-10.59,5.44-21.29,10.69-31.8,16.28a5.27,5.27,0,0,0-1.81,1.95A2.27,2.27,0,0,0,421.12,599.83ZM280.43,548.3c8.51-7.53,17.05-15,25.52-22.58a3.51,3.51,0,0,0,.79-1.36,3.05,3.05,0,0,0-.24-2.74c-.6-1-1.21-1.9-2-2a7.3,7.3,0,0,0-5.22,1.24c-3.91,3.07-7.52,6.52-11.17,9.92q-16.47,15.3-32.87,30.69c-5.87,5.48-11.67,11-17.63,16.42q-14.51,13.13-29.22,26c-2.66,2.32-1.93,4.84-.07,6.33,1.16.93,4.59.77,5.74-.29,21.06-19.3,41.92-38.82,62.82-58.3C278.1,550.53,279.22,549.37,280.43,548.3ZM262.9,491.61a68.16,68.16,0,0,0-11.33,9.51c-2.83,2.83-3.14,5.53-1.52,7.12,3,2.94,6.7,5.13,10.25,7.49a3.54,3.54,0,0,0,3.72.12c4.26-2.46,11-8.31,13.63-10.66.39-.35.74-1.58.15-4.57C276.67,494.86,267.61,488.23,262.9,491.61ZM157,437.63c-3.17,5.36-1.84,11.75,2.62,12.91,4.12,1.07,9,1.64,12.91.41,4.47-1.41,7.25-4,10.78-7.29,2.29-2.1,4.61-6.68,4.49-9.56,0-5.05-1.44-8.44-5.53-9.82-2.33-.78-3.47-.31-6.1.1A26.57,26.57,0,0,0,157,437.63Zm15-5.31,6.8,4.21L171,443.28l-4.71-5.67Zm1305.6,649.82c-.46-11-1.24-22.16-9.32-30.6-8.27-8.64-17.3-16.55-26-24.8-5.75-5.46-11.35-11.11-17.25-16.42-16.39-14.75-33-29.25-49.31-44.08-9.31-8.47-18.08-17.55-27.34-26.1-9.92-9.17-20.26-17.89-30.17-27.07-13.5-12.51-26.75-25.29-40.15-37.91-3.88-3.66-7.84-7.26-11.87-10.76-12.71-11-25.52-21.88-38.2-32.91-4.84-4.21-9.57-8.58-14.12-13.1a43.53,43.53,0,0,1-5.73-7.4c-1.44-2.25-1.85-5.39-3.68-7.12-13-12.23-26.5-23.86-39.14-36.4-5.22-5.17-11-7.54-17.55-6.8-7.14.81-12.79,2.24-18.78-2.45-.59-.46-125-115.85-130.76-120.87a8.06,8.06,0,0,1-2.68-7.84c.73-3.63.3-6.44.1-10.21a7.36,7.36,0,0,0-1.51-4.26c-3.13-3.45-6.44-6.76-9.88-9.92-14-12.93-28.15-25.78-42.65-39,4.06-4.75,4.11-8.57-.71-12.11-.88-.64-1.08-2.5-1.2-3.83-.38-4.34-3.09-6.11-6.86-7.63-2.37-1-5.06-3.17-5.91-5.45-1.62-4.33-4.28-6.23-8.5-7.53-2.23-.68-5.07-3.15-5.47-5.23-1-5-4.09-6.37-8.25-7.65-2.23-.69-5.62-2.83-5.67-4.4-.17-5.41-3.68-7-7.6-8.23-3.42-1.08-5-2.87-6-6.5-.57-2.2-3.55-4.34-5.93-5.36-3-1.26-6.27-1.61-6.71-5.64-.49-4.52-3.07-6.52-7.41-7.66-2.33-.61-5.94-3.32-5.86-4.95.29-6.54-4.54-6.43-8.43-7.77-1.76-.61-4-.63-5.25-1.76-7.4-6.73-14.38-13.94-21.9-20.53-5.35-4.68-8.29-9.91-9.91-17.07-4.78-21.2-10.79-42.12-16.14-63.19a9,9,0,0,1,.74-5.89c3.6-6.81,7.5-13.46,11.4-20.11,2.88-4.91,1.88-10-3.1-12.63-6.84-3.54-12.59-8.67-19.51-12.25-11.37-5.87-21.88-13.38-32.78-20.16a5,5,0,0,0-2.88-1c-6.46.8-12.88,2-19.34,2.66s-13.58,2.69-19.49,1c-9.77-2.83-18.88-8-28.12-12.52-15.83-7.72-31.41-15.95-47.34-23.45-25.23-11.88-50.67-23.31-76-35-11.11-5.12-22.12-10.44-33.21-15.6-14.59-6.79-29.13-13.69-43.87-20.16-4.86-2.13-10.33-4.44-15.37-4.12-4,.25-7.87,4.25-11.68,6.76C445,199.39,432.78,208.08,420,215.86c-5.36,3.26-8.35,7.31-9.55,13.1-1.84,8.87-1.81,8.89,6.07,14.22q7.14,4.84,14.32,9.63l-1.05,1.71c-4.11-2.38-8.14-4.93-12.36-7.11-4.58-2.37-9.32-6.22-14-6.29-34.49-.54-69-.34-103.48-.16-1.79,0-3.84,1.66-5.3,3-4.6,4.33-6.36,9.78-6.7,16.12-.15,2.82-.23,4.23,2.41,5.94,12.85,8.3,25.49,16.92,38.19,25.46,5.15,3.46,10.26,7,15.75,10.71-5.59,3.25-10.36,5.88-15,8.75-5.26,3.26-6.9.74-11.68-3.21-3.45-2.85-7.31-5.79-10.08-7.61-12.71-8.36-23.14-15.44-35.07-24.75-9.57-7.48-18.18-8.12-28.15-2.72-3.29,1.78-7.79,3.06-9.39,5.89-7.73,13.71-14.57,27.91-21.89,41.85-8,15.32-16.5,30.44-24.21,45.93-1.37,2.75-1.11,7.5.39,10.25,2.7,4.95,6.91,9.09,10.41,13.47-5.38,3.2-12.4,7.47-19.55,11.52a4.26,4.26,0,0,1-3.71-.25c-9-6.16-18.18-12.13-26.72-18.89-4.45-3.53-8.51-3.38-12.71-1.11-18.09,9.79-36.14,19.65-54,29.81Q58.78,424.87,35,439.32c-7.23,4.4-7.64,12.83-1.84,18.8,4.12,4.26,8,8.76,11.72,13.38s6.82,9.4,10.32,14C63,495.81,70.8,506,78.55,516.27q15,19.83,29.84,39.74c7.77,10.45,15.41,21,23.08,31.52,3.86,5.29,7.54,10.71,11.52,15.91,9.86,12.89,19.88,25.65,29.67,38.59.69.91.45,3.18-.22,4.33-3.44,5.91-7.35,11.57-10.73,17.52-2.43,4.29-1.45,8.72,2,11.91,4.12,3.82,8.82,7,13.31,10.42,10.66,8.12,21.43,16.12,32,24.37,4.58,3.58,9.06,6.74,15.33,5.67s12.93-1.66,19.29-3c5.33-1.12,10.45-2.93,14.25,2.92a3,3,0,0,0,1.75,1.07c13.92,2.92,27.85,5.76,41.75,8.7q34.78,7.34,69.55,14.79c12.19,2.6,24.33,5.43,36.57,7.79,13.08,2.52,26.11,4.94,38.17,11.11C459.26,766.56,667.06,866,689.5,876.85c17.23,8.3,34.39,16.74,51.57,25.13,12.75,6.22,25.52,12.38,38.22,18.7,6.94,3.45,11,3.09,16.31-1.57,4.12-3.62,8.41-7.06,12.67-10.51.77-.62,2-1.52,2.66-1.3,7.12,2.33,14.29,4.57,21.2,7.44,5,2.06,9.57,5.11,14.4,7.58,18.84,9.65,37.84,19,56.49,29,5.8,3.1,10.68,7.9,16.2,12.09,0,3.22.21,7.33-.07,11.4-.23,3.33,1,5.15,4,6.58q21.6,10.19,43,20.74c8.93,4.42,17.2,10.5,28,9.58,1.24-.11,2.63.91,3.87,1.56,16.8,8.9,33.54,17.93,50.41,26.7,8.25,4.29,16.79,8,25.13,12.17,18.88,9.38,37.64,19,56.6,28.24,20.2,9.82,40.64,19.14,60.83,29,12.87,6.25,25.44,13.1,38.21,19.55,15.14,7.66,30.37,15.11,45.5,22.78,5.26,2.67,10.17,6,15.49,8.55,10.6,5,21.84,8.86,31.95,14.7,13,7.48,26.37,10.8,41.12,9.06,14.56-1.72,29.08-3.76,43.66-5.22,7.38-.74,14.68-5.73,15.46-13,.45-4.23,2.78-6.41,5.34-8.72,9-8.09,18.26-15.84,27.07-24.1a19,19,0,0,1,11.69-5.22c3.5-.43,8.48-3.12,9.56-6,2.1-5.62,2.4-12.08,2.55-18.21C1478.75,1096.38,1477.93,1089.26,1477.63,1082.14Zm-419-380.08c14.4,13,61.38,55.54,64.62,58.33,3.51,3,5,4.39,7.49,6.89,1.14,1.16.75,2.54-.82,2.11-9.9-2.76-22.13-7.75-31.9-10.09a.72.72,0,0,1-.14-1.36c1.39-.68,2.78-1.42,4.3-2.33-4-3.26-12.77-11.39-15-13.38-10.74-9.62-55.43-52.49-59.25-57.15C1033.59,679.85,1044.2,689,1058.6,702.06ZM828.66,746.84c-8.12-7.52-15.85-15.47-23.74-23.24-1.93-1.94-.34-3.15,1.91-2.08,6.15,4.86,12.56,10.06,18.78,14.83,7.1,5.44,14.18,10.19,21.43,15.43.77.55,2.74.66,3.28.11,6.22-6.26,10.58-11.78,17.12-17.69,2.61-2.35,6.71,2.54,10.71,5.41-3.26,3.61-6.07,6.86-9,10-4.34,4.55-3.91,9.61,1.19,13.16,1.74,1.21,3.19,3,5.07,3.78,1.34.57,12.33-10.81,13.75-11.4,2-.81,6.53-1.4,4.13,2-8.64,8.74-14,16-19.71,21.37-2.18,2.06-4.12,6.59-1.14,8.79,10,7.34,19.76,14.93,29.72,22.29,1.57,1.17,3.71,2.43,5.43,2.24,1.07-.11,16.48-18.79,23.05-27.17,3.67-3.27,7.3-.23,11.19,3.06,6.57,5.55,13.63,10.51,20.89,16-4.07,9-7.7,18.36-12.59,27-1.51,2.68-6.37,3.71-9.88,5-7.76,2.75-15.7,5-23.45,7.76-6.12,2.19-11-1.16-15.88-3.38-25.21-11.32-78.62-35.34-80-36.28,4.63-13,9.6-26.88,14-39.79C836.65,758.9,833,750.87,828.66,746.84ZM429,481.78c5.49-6.27,11.42-13.14,17.53-19.86a33.69,33.69,0,0,1,3.38-2.93.87.87,0,0,1,1.33,1c-.7,1.65-1.57,3.57-1.83,4.24-3.94,10.1-10.94,19.54-6.71,31.4a6.09,6.09,0,0,1-.1,2.18l-15.1-9.19C424.86,487.33,425.85,485.44,429,481.78Zm-11.34-2.25L314.14,408.11c8.21-2.15,15.47-4.9,22.93-5.63,3.19-.31,6.91,3.4,10.17,5.61q22,14.93,43.82,30c13.56,9.32,27.1,18.67,40.38,27.82Zm23.91,41.27a14.55,14.55,0,0,0,1-1.46c2.58-3.78,3.94-4.28,7.63-1.2,7.25,6,15.14,11.31,22.69,17,4.4,3.32,8.58,6.94,13,10.18,2,1.43,4.37,2.94,6.46-.08,1.75-2.55,1.25-4.08-1.47-6-11.88-8.52-23.57-17.32-35.17-26.22-3.37-2.57-6.12-5.45-5.72-10.71.34-4.44-1.5-9-1.9-13.54a17.15,17.15,0,0,1,.87-7.82c2.82-6.79,6.29-13.31,9.2-20.07,1.76-4.09,4.26-6.55,7.47-6.27.87,3.51,1,6.72,2.42,9.28,9.15,16.95,18.67,33.7,27.82,50.65,3.65,6.76,9.92,9.37,16.47,11.8,10.93,4.06,21.89,8,32.84,12.07q27.86,10.25,55.7,20.52c6.59,2.44,11.82,4.32,17.31,6.53a1.37,1.37,0,0,1-.74,2.62c-6.31-1.07-13-2.19-17.45-3.15-12.49-2.71-14.83-3.24-27.27-6.11-10.92-2.51-21.78-5.28-32.69-7.83q-17.64-4.12-35.33-8c-4.28-.94-7.79,1.79-6.93,5.4a4.78,4.78,0,0,0,2.95,2.81c13.35,1.73,18.5,2.82,26.83,4.56l22.7,4.72c7.88,1.64,16.2,3.36,24.06,5.12,18.12,4.05,74.19,13.39,92.3,17.52s23.45,10.79,31.53,18.05c11.8,10.6,19.86,17.69,32.43,27.36q20.94,16.13,41.91,32.19c5.74,4.39,11.56,8.65,17.29,13,3.09,2.37,4.57,4.59.71,8.08-4.2,3.79-7.67,8.39-12.16,13.42-10.19-10.74-19.92-21.08-29.76-31.31-6.27-6.52-12.77-12.82-19.06-19.31-6.81-7-13.49-14.2-20.26-21.27-9.12-9.52-17-16.34-25.85-26.11-4.27-4.7-9.1-7.27-17.06-9.3-7-1.19-29.62-5.45-36.65-6.67-18.19-3.14-36.38-6.26-54.55-9.47q-21-3.72-42-7.62c-13.3-2.44-26.68-4.55-39.83-7.66-4.7-1.11-9-4.4-13.16-7.19-9.9-6.66-19.56-13.67-29.4-20.41-2.73-1.87-5.65-3.48-8.76-5.29A1.83,1.83,0,0,1,441.57,520.8Zm79.59-172.31c12.39,8.63,25.28,16.55,37.83,25,3,2,9.12,5.33,8.62,7.36-.64,3.79-2.93,4.4-6.17,2.31-9.9-6.36-19.72-12.86-29.61-19.24-15.76-10.16-31.6-20.22-47.33-30.44-5.88-3.83-11.54-8-17.86-12.42-1.8-.33-.38-5.94,3-5.94,5,3.34,9.77,6.23,14.23,9.49C495.84,333.3,509,340,521.16,348.49Zm-23.58-77.66c1.25-.51,3.88-1.34,5-.56,7.47,5.28,17.07,11.71,25.2,17,1.42.92,2.54,3.27,1.89,4.83-1.68,4-6.42.29-6.78.09-5.17-2.79-17.28-11-25.87-17.1C495.86,273.9,493,272.72,497.58,270.83Zm65,151.34c3.15-2.09,3.56-1.47,6.75.66,5.36,3.56,17.3,11.37,21.89,14.69a1.67,1.67,0,0,1-.07,2.75l-16.82,10.84-8.28-5.48c-8.58-5.42-15.35-10.27-18.89-12.05a1,1,0,0,1-.06-1.71C552.87,428.32,557.82,425.35,562.62,422.17Zm82.31,22.2c.46,1.73.72,3.58,1.64,5,6,9.4,12.18,18.69,18.37,28,2.53,3.8,5.37,7.45,8,11.1,3.23,4.53,3.06,6.33-.48,9.93-6.92-11-18.25-17-28.74-24-2.85-1.9-20.3-13.78-26.64-17.15-2.06-1.09-3.59-3.36-5.07-5.32-4.46-5.88-8.79-11.86-13.12-17.84a44.72,44.72,0,0,1-2.31-4.07c5.19-3.82,10.08-7.82,15.36-11.24,2.28-1.47,5.81-2.93.1-7.33-9.68-6.89-10.45-7.88-13-6.3-4.92,3.09-9.3,5.48-14.44,9.55-1.15.91.58,2.85,2,3.18a4.94,4.94,0,0,0,3.61-.23c3.66-2.25,4.74-3.16,7.07-4.7,3.92-2.61,5.84-2.51,9.51,1.26-6.07,4.58-16,11.51-17.74,12.93a100.76,100.76,0,0,1-16.85-10.71c-.73-.56-2.07-1.36-2-2s1.17-1.59,2-2.22a104,104,0,0,1,21.32-13.47c.77-.35,2.07-3.18,3.15-5.44a1.36,1.36,0,0,1,2.15-.4c6.15,5.78,34.78,25.7,37.5,28.63,5.23,5.62,9.17,12.44,13.34,18.71a1.6,1.6,0,0,1-.91,2.43l-3.28.89A.69.69,0,0,0,644.93,444.37ZM674.74,433c.06,1,2.36,4,3.38,5.12,2.84,3.19,4.62,6.38,7.16,9.8,9.45,12.7,18.77,24.41,28.13,37.17,4.88,6.66,9.81,13.29,14.53,20.07,1,1.46,3.11,4.28,3.7,6,.81,2.28-1.64,2.15-2.89.46L668,431.61c-5.31-7.52-3.6-12.65,4.58-9.94,4.91,2.62,8.15,4.58,13.78,7.62,2.34,1.25,2.29,10.34.94,8.72-.45-.54-1.6-2.15-2.06-2.68a18.42,18.42,0,0,0-2.63-2.46c-2.67-2.32-5.36-3.35-6.87-2.59C674.44,430.9,674.68,432,674.74,433Zm7,64.07c4.55,5.85,9.49,11,12.78,17.09,1.22,2.26-.38,7.73-2.55,9.8a48.37,48.37,0,0,1-14.82,9.78c-5.9,2.4-12.2,4.78-19.07,1.89-4.64-1.95-9.79-2.66-14.62-4.2-5.25-1.67-5.86-3.57-1.83-7a38.08,38.08,0,0,1,11-6.82C664.11,513.51,674.11,507.5,681.76,497.09ZM656.25,501c-8.06-7.77-15.14-11.78-22.72-17.63-1.07-.81-2.07-1.71-3.1-2.57,3.45-4,6.41-4,10.4-.83,6.83,5.46,14.31,10.1,21.27,15.41,2.3,1.76,3.82,4.55,5.71,6.87C661.93,506.1,661.08,505.65,656.25,501ZM624.1,469.22l-6.79,4.36c-4.07-2.55-8.53-5.25-12.85-8.16-.69-.46-6.57-4.46-24.22-8.84a.81.81,0,0,1-.25-1.46c5.7-3.73,11.35-7.55,17.16-11.1.6-.37,2.59.4,3.12,1.19,2.44,3.63,4.26,7.73,7,11.13,2.22,2.77,5.26,4.94,8.13,7.11S621.07,467.24,624.1,469.22Zm-74.66-18.37c-5.46,3.15-10.81,6.42-16.39,9.22-.68.34-2.62-1.81-4.26-3,3.11-2.16,6-3.89,8.48-6a3.77,3.77,0,0,0,.74-.89,2.7,2.7,0,0,0-1.7-4,2.46,2.46,0,0,0-1.6,0A82.35,82.35,0,0,0,522,453.49c-2.74,2-2.57,4.95.27,7.16s9.45,8.67,11.28,7.87c7.34-4.25,15.18-9.21,23.46-13.29,2-1,6.26,0,8.1,1.65,6.47,5.74,14.66,6.91,22.35,8.56,9.69,2.08,17.21,7.46,25.06,12.67C622,484.42,631.72,490.38,641,497c5,3.57,9.35,8.16,14.59,12.82l-10,3.56c-3.84-2.22-6.72-4.52-10-5.66-13.72-4.76-27.56-9.15-41.36-13.7-5.49-1.81-11-3.48-16.43-5.6-3.56-1.4-4.51-.15-4.7,3.17-.27,4.6,1.39,7.88,5.69,9.8,5.75,2.57,11.46,5.23,15.45,7.05,2.28,4.9,3.59,8.5,5.53,11.7s3.49,5.66,8.17,6.91c17.37,4.65,33.25,9.7,50.43,15.06,2.24.7,6,1.49,8.4,1.16,5.55-.75,11.41-.93,16.48-3a41.82,41.82,0,0,0,13.6-9.44c2.87-2.92,4.09-7.48,6-11.14l14.26,17.09c3.2,6.8,1.37,11.12-.55,15.62-1.19,2.46-4.46,5.19-6.76,7-4.23,3.4-8.91,6.24-13.41,9.31-6.88,4.68-13,5.56-22.12,3-1.37-.38-4.2-2.61-4.35-3.92-1.58-13.73-4.74-15.23-18.42-18.94-8.09-2.19-16-5-24-7.62q-17.68-5.81-35.33-11.72c-10.57-3.52-21.11-7.13-31.71-10.57-9.43-3.06-18.28-6.53-27.73-9.52-5.63-1.79-22.64-5.66-29.3-15.63-9.26-13.88-16.44-29-24.65-43.57,8.83-5,12-4.82,19.57.84,3.16,2.37,6.26,3,10.21.68,7.82-4.67,14.38-8.95,16.41-10.3a35,35,0,0,1,5.38-3.19c3-1.41,5.44-.37,8.92,2.8C543.4,444.79,545.58,447.24,549.44,450.85Zm87.9,64.48c-1.66,1.82-2.93,3.2-4.21,4.59L603.07,505.2a.63.63,0,0,1,.48-1.16Zm26,52.47L540.47,519.21a.69.69,0,0,1,.47-1.29l15.78,5.25q27.31,9.08,54.64,18.14c13.06,4.34,23.95,7.66,37,12,2.64.87,7.74,2.21,10.11,3.53C662.28,558.94,664.44,562.3,663.39,567.8ZM900.6,654.9c9.9,7.48,20.1,14.56,30,21.68-1.92,1.28-7.23,5.11-9.86,6.85-3.41-2.74-11.14-7.36-14.8-9.66-14.4-10.92-28.69-21.88-43.14-32.64-3.74-2.79-1.71-5.51,0-7.6,2.44-3,7.71-2.62,10.92,0C882.62,640.68,891.46,648,900.6,654.9Zm1.23-13.69c2,1.53,24.26,17.42,33.28,24.83,5.56,4.56-1,5.5-4.51,3.38-2.28-1.38-30.32-21.94-33.76-24.5C892,641.3,895.65,636.48,901.83,641.21ZM800,679.65c-4.47-4.84,4.08-11.79,9.91-8.37,20.75,15.78,41.45,30.72,62.16,46.47-2.29,2.2-6.66,6.35-9.44,9Zm55.5,54.85c-1.76,1.22-5.76-1.58-7-2.56-10.67-8.33-23.33-17.56-34-25.87-2.77-2.15-.61-6.56,3.43-4.22l38.23,28.48C857.23,731.14,857.5,734,855.48,734.5Zm16.27-109.87c-7.84,3.22-12.47-2.71-17.51-6.44C836.38,605,818.76,591.47,801.12,578c-8-6.09-15.8-12.37-23.33-19.13-10.17-9,68.25,38.2,100.32,63.94A52.71,52.71,0,0,0,871.75,624.63Zm-84.83,73c2.63-3.18,6.58-7.26,8.62-9.95,1.5-1.87,5.83-.11,3.88,2.71-.67,1.11-3.28,3.66-3.91,4.75-1.61,2.77-.72,3,1.82,5.06,15.85,12.67,29,22.81,44.87,35.46,2.41,1.91,5.26,4,7.73,5.84,2.16,1.34.65,6.27-2.44,4.59-20.13-15.4-41-31.23-60.31-46A1.7,1.7,0,0,1,786.92,697.68Zm60.26,124.94c11.74,5.45,23.41,11,35.2,16.39,8.44,3.83,17,7.52,25.59,10.92a12.71,12.71,0,0,0,7.69.57q18.14-5.38,36-11.58a10.07,10.07,0,0,0,5-4.92c3.94-8.39,7.52-17,11.08-25.52a73.58,73.58,0,0,0,2.27-7.75c5.32,4.06,11.29,8.4,16.95,13.11,1.13.94,2,3.63,1.44,4.92-2.4,6-4.64,12.35-8.33,17.59-2.08,3-6.65,4.74-10.45,5.83-16.82,4.83-33.91,8.76-50.61,14-9,2.8-16.31.66-24.24-3.14C871,841.61,847,830.74,823.06,819.61c-3.92-1.83-8-3.83-4.14-10C828.49,814,837.85,818.29,847.18,822.62Zm99,48.26c0-9.85.53-8.36,6.78-10.65S966,855.6,972.6,853c20.21,15,38.08,30.25,57.32,43.73a.85.85,0,0,1-.79,1.49c-6.37-2.43-12.75-4.81-19.11-7.28-11.06-4.3-22.15-8.57-33.16-13-4.51-1.82-8.1-1.34-11.28,2.63-3.65,4.55-9.36,10.71-13.22,15.15-6.19-4.09-6.19-4.09-6.19-12.41Zm49.86-23c-3.21-2.43-4.35-3.55-1.49-7.38,3.39-4.55,5.45-10.08,8.66-16.3,22.21,17.19,44.08,34.29,66.14,51.13,21.8,16.63,40.06,28.83,60.34,47.72-2.48,2-3.67,3.58-4.27,5.29s.65,4,1.59,5.7c.73,1.33,2.46,2.12,3.66,3.19l11,8.46c6,4.2,12,8.46,18,12.54,6.36,4.26,13,8.06,19.24,12.54,3.83,2.77,6.79,6.71,10.52,9.64q23.94,18.79,48.13,37.28c3.94,3,7.74,4.33,10.69-1.46,1.12-2.2,3-2.51,5.17-.87,11.27,8.47,22.48,17,33.94,25.23,9.08,6.5,21.13,14.1,30.7,21.47a.71.71,0,0,1-.72,1.22c-2.06-.89-4.14-1.83-5.18-2.39-14.22-7.57-28.34-15.35-42.61-22.84-15-7.89-30.2-15.53-45.31-23.26-2.33-1.19-4.59-2.69-7.07-3.34-1.53-.41-3.35.27-6.36.75a2,2,0,0,1-1.24-.22c-6.32-3.39-14.25-7.72-22.24-11.92-14.76-7.76-29.57-15.42-44.31-23.23-1.16-.61-19.68-10.33-31.25-16.84-2.26-1.27-4.86-2.22-6.85-3.87a12.64,12.64,0,0,1-3.47-5.12c-2.33-6-7-19.71-9.39-26-1.59-4.12-4.09-6.5-10.85-11.43-16-12.13-32-24.16-47.92-36.42C1020.81,867.52,1008.61,857.47,996,847.92Zm66.22-20.52c-2.56,2.49-4.52,1.8-6.74-.21-1.92-1.73-3.93-3.38-5.9-5.07,9.42-10.12,9.77-10.14,21.23-1.61A107,107,0,0,0,1062.25,827.4Zm16.9,4.37,11,5.15-25.35,19.51-8.77-7.08C1059.1,847.25,1076.54,833.75,1079.15,831.77ZM1043,826l10.58,7.1c-8.64,7.47-8.64,7.47-19.19-.14Zm-1-9.28c-2.86-1.7-5.51-3.74-8.78-6,3.86-3,7.26-6,11-8.41.72-.47,2.77.61,3.93,1.38,2.15,1.43,4.09,3.16,6.65,5.19-3.56,2.85-6.47,5.33-9.57,7.56A3.6,3.6,0,0,1,1042,816.75Zm-12.55-57.4c7.67,0,14.76,1.24,21.64.07,10.6-1.78,12.08-3.28,13.65-12.35.7-4,1.34-8.08,2-12.13.13-1.87,1.69-1.87,2.22-.26.73,2.8,2.27,5.67,2,8.38-.78,9.48-2.16,18.91-3.33,28.41C1053,774.8,1040.07,772,1029.45,759.35Zm8.39,62.85c-.95.55-1.54.85-2.09,1.21-2.47,1.62-5.39,5-7.27,4.51-3.64-1-6.68-4.14-10.18-6.55l9.43-6.71Zm101.59,77.65c-5.39,5.34-7.16,6.74-13.55,2.12-7.09-5.12-14.14-10.28-21.79-15.85,2.71-2,6.62-5,8.61-6.5Zm-19-26.1c3-2.6,4-4,7.21-6.22,3.69-2.57,6.18,1.19,8.49,2.81,6.9,4.84,13.35,10.34,20.28,15.82-2.92,2.67-3.73,5.41-7,6.09-2.63.55-6.24-2.9-9.21-4.88C1133.62,883,1127.18,878.42,1120.43,873.75Zm44.93,53.09L1193.55,904c4.31,3.08,9.87,6.82,15.07,11,.82.66.71,4.24-.19,5-8.54,7.08-17.34,13.83-26.09,20.7Zm124.82,23.68c-21.37-16.1-64-49-64.8-49.51-3.89-2.71-30.22-21.66-32.05-23.15-3-2.45-4-1-4.26-.5-3.31,5.9-6.14,1-8.34-.61-14.64-10.7-29.06-21.7-43.57-32.58q-30-22.49-60.06-44.94c-4.65-3.47-9.44-6.75-14.09-10.06,2.6-5.2,5.22-6.06,10.28-2,14.11,11.39,28.71,22.18,43.23,33,7.43,5.57,15.15,10.74,22.65,16.22,7.24,5.3,14.14,11.12,21.63,16,4.12,2.7,9.09,4.16,13.78,5.92,10.48,3.93,21,7.64,31.51,11.6a14,14,0,0,1,4.22,3.11c15.41,14.64,30.68,29.45,46.21,44,11.52,10.77,23.26,21.3,34.48,32.48A.63.63,0,0,1,1290.18,950.52ZM1164.52,845.86c-9.16-7.43-18-14.78-23.15-18.69-19.18-14.59-33.76-26.34-53.16-40.64-.85-.62-11.54-8-11.57-8.77a55.19,55.19,0,0,1,0-7.13c1.22-1.45,3.46-2.12,9.14-1.24,4.47,1.12,9.31,1.54,13.31,3.59,3.18,1.63,8.05,6.67,11.17,10.36,18.2,19.56,37.45,40.22,56.24,60.41C1168.23,845.86,1166.51,847.26,1164.52,845.86Zm-158.21-163c11.76,12.37,24.34,24,36.64,35.82,4.49,4.32,9.11,8.52,13.77,12.67,2.84,2.52,3.91,4.81,2.89,9.14-2.92,12.32-2.57,11.67-15.1,12.64-10.86.85-19.16-2.78-26.74-9.91-3.95-3.72-8.44-6.88-12.69-10.29-3.67-2.93,23.75-14.2,19.64-17.13-10.32-7.36-19.27-14.64-29.6-22-1.45-1-4.62-.63-6.57.16-5.36,2.17-7.67,4.42-13,7-3.53,1.55-5.48.53-3.42-1.41,1.86-1.76,4.6-3.25,7.13-5.68-3.83-2.3-10.63-6.2-14.77-7.56-3-1-6.74-.2-9.93.66-2.74.74-5.15,2.7-8.45,4.54l-11.83-7.9c-1.13-.86,3.78-3.17,10.55-7,3.1-1.75,7.18-3.6,9.46-5.07,9.22.78,30.17,2.55,31.19,2.6C994.77,674.6,1000.34,676.57,1006.31,682.83Zm-9-40.08c5.14,5.29,3.92,6.72,3.7,6.82-17.61,7.85-39.79,14.46-46.67,10.15C929.93,644.37,820.59,573,777.86,544.37c-6.82-4.57-13.65-9.9-15.09-11.86-14.14-19.09-60.63-93.55-65.61-101.29-2.29-3.56-77.49-41.28-78.45-41.81-3.15-1.73,0-4.18,2.68-2.63,5.47,2.94,76.29,37,79.93,42.79,14.82,23.76,61,99.31,70.07,105.38,28.35,18.9,59.33,39.92,91.5,60.79,37.26,24.19,76,49,92.71,60.38,5,3.42,28.12-4,38.58-7.41,2.87-.94,1-3.24-.16-4.76-7.59-10.06-69.39-67.75-69.24-67.6-.84-2.53,3.12-2.46,5.21.27C930,576.59,981.16,626.05,997.35,642.75ZM778.66,466.08c-9.17.86-18.35,1.74-27.54,2-2.62.08-6.18-1.13-7.78-3-3.65-4.35-6.37-9.49-9.61-14.54,4.67-.58,9-1.31,13.3-1.61,7.45-.51,14.92-1,22.38-1a9.7,9.7,0,0,1,6.38,2.7c4.18,4.42,10.19,9,14.06,13.69C786.9,464.89,781.64,465.8,778.66,466.08ZM791,471.42c7.18-1.06,10,3.95,14.71,8.54-16.32,1.36-41,3.71-57.79,5.1l-3.38-4.86c2.48-4.38,5.93-5.55,10.75-5.61C764.18,474.47,782.29,472.71,791,471.42Zm131.59,83.24c2.28-3.6,8.53-2,7.06,1.63l-10.35,20.26c-.16.64,72.71,67.47,71.52,69.29-.59.89-6.8,2.57-14.17,4.45-7.8,2-16.9,4.06-22,.8-25.43-16.33-144.05-94.41-144.11-94.45l-2.17-1.09c-6.29-4.1-7.22-4.84-13.51-8.95-3.34-2.18-10-6.52-13.39-8.6a50,50,0,0,1-15.93-15.91c-3.87-6.55-8.24-12.18-12.34-18.5a1.3,1.3,0,0,1,.78-2l.36-.09a2.81,2.81,0,0,1,2.14.29,15.65,15.65,0,0,1,4.1,4c2.6,3.65,4.56,7,6.69,10.3,1.53,2.4,4.83,2.69,7.84,2.89,2.57.17,4.93-.81,5.79.49,3.95,6,11.19,20.59,19.57,26.39,4.88,3.37,6.74,4.55,11.66,8.08h0c7.25,4.6,115.08,76.08,143.77,94.4,5,3.23,20.71-1.87,28.41-4.17,2.57-.76-72.55-67.73-71.87-69.64C916,567.75,919.26,561.27,922.63,554.66Zm-68.5-16.95-21.84,2.17-5.6-8.08c6.75-.71,13.2-2.1,19.55-1.72,2.88.17,5.55,4.07,8.32,6.16A.83.83,0,0,1,854.13,537.71Zm14.3,13.5c-3,.41-5.47.85-8,1.08-8.79.79-17.61,1.36-26.39,2.28-6.54.68-12.08-1-16.91-6.12a11.79,11.79,0,0,1,3.16-1.39c11.39-1.16,22.82-2,34.18-3.4C860.91,542.87,864.73,546,868.43,551.21Zm-43.25-25.77c-1.91.19-12.24.7-19.34,1.5-2.22-2.41-5.53-5.78-8.26-8.75l23.78-2.47c3.34-.35,6.69-.59,10-1.07,9.26-1.33,11.12-.56,18.66,8.42C841.47,523.88,833.32,524.63,825.18,525.44Zm81.51,51.18c2.58,3.43-.34,3.53-2.06,3.68-10.07.88-20.16,1.66-30.26,2.2-5.59.3-8.1-1.19-15.52-7.92l47.69-4C906.54,572.9,905.77,575.4,906.69,576.62Zm-8.2,18.92c-6.88,1-12.25-1.81-17.7-6.55,4.25-.73,8.18-1.59,12.16-2.06,6.81-.8,13.7-2.17,20.42-1.64,3.11.25,5.9,4.42,9.49,7.36C913.84,593.7,906.14,594.42,898.49,595.54Zm31.61,4.94c6.14,2,10.68,9,15.85,13.89,2.61,2.45,5,5.15,7.58,7.6,7.14,6.72,14.34,13.37,21.51,20-7,3.25-11.34-1.06-15.89-4-14.74-9.5-29.33-19.23-44-28.79-3.37-2.18-7-4-11.35-6.46C913,599.36,922.2,597.89,930.1,600.48Zm-15.73-46.2c-3.37,9.77-4.46,10.3-14.53,11.09-15.34,1.19-30.63,2.91-46,4.11-2.39.19-5.09-.83-7.31-2-2.92-1.48-5.5-3.62-9.31-6.21Zm-7.83-15.17,5.57,5.85-23.38,3-4.23-5.74Zm-13.26-14,3.23,3,2.88,2.66-23.57,2.32-5.39-5.45Zm-14.66-13.26,7,5.69-20.3,1.69-6-5.12ZM869,498.42l4.21,5.25-21,2.4-5.51-5.85Zm-13-14.08,4.75,4.78-19.91,2.29-5-5.05Zm-14.51-11.9,6.37,3.72-18.89,3.23-5.1-4.25Zm-27,15.88c3.53,3,11.82,11.47,12.93,12.62,2.3,2.39,4.73,4.65,7.8,7.64-7,.64-12.72,1.17-18.45,1.68-12.69,1.11-25.39,2.16-38.08,3.33-2.93.27-5-.55-6.46-3.22-1.93-3.49-3.77-7.13-6.31-10.15-1.54-1.84-4.29-3.61-6.56-3.7-4.45-.17-6.13-2.68-7.89-6.13,8.37-.56,16.27-1.05,24.17-1.63,8.28-.62,26.57-1.93,34.85-2.4C811.69,486.29,813.26,487.38,814.38,488.32ZM638.06,274.72c9.53-3.08,12.66-.31,18,1.94,15.45,6.49,31,13,45.53,21.31,10.13,5.82,19.64,4.29,29.76,2.82,6.09-.89,12.16-2.51,18.24-2.55,3.14,0,6.47,2.41,9.41,4.23,13.22,8.15,26.34,16.45,40,25a3.61,3.61,0,0,1,.52,5.72c-5.24,4.75-7.86,7.3-14.41,12.89-3.53,3-4.56,6.66-3.27,12.33.34,1.5.62,1.79,1,3.26,3.51,13.22,6.8,26.49,10.22,39.72,3.24,12.48,6.56,24.94,10,38.14,2.63,8.37,4.65,17.62,3.09,22.37l-4,5.13c-8.21-7.81-16.06-16.7-25.43-23.49-4-2.88-11.17-1.85-16.88-1.7-7.7.2-15.38,1.28-23.07,1.94-3.66.32-7.4.2-11,.86-4,.73-3.38,3.29-1.64,5.94,4,6.16,8.13,12.3,12,18.57.64,1,3.45,5.1,3.58,6.46-.49,0-4,2.06-6.09-2.25-9.65-15-18.93-30.21-28.8-45.62a1.75,1.75,0,0,1,1.56-2.69c6.17.37,12.69.81,18.44,1.24,7.59.58,15.16,1.42,22.75,2.05,5.31.45,10.65,1.15,15.94.89,2.08-.1,4.42-2.17,5.93-3.94a1.61,1.61,0,0,0,.34-.91,2.85,2.85,0,0,0-3.7-2.93l-.12,0c-1.3.38-2.41,1.54-3.64,1.47-6.83-.41-14.87-1.16-22.53-1.81,1.39-1.68,2.52-3.5,2.63-4.38,0-.22.05-.43.06-.62a2.88,2.88,0,0,0-3.46-2.95,3,3,0,0,0-1.83.82c-6.2,8.63-6,6.54-13.07,6.21a125.32,125.32,0,0,1-13.37-1.17c2.5-3.09,5-5.91,7.18-9a3.63,3.63,0,0,0,.45-.93,2.89,2.89,0,0,0-2.73-3.74,2.3,2.3,0,0,0-1.89.6c-3.61,3.57-11.2,15.74-15.51,13.58-19.84-9.92-66.67-33-73.21-36.34a1.22,1.22,0,0,1-.68-1,1.25,1.25,0,0,1,.59-1.12,71.67,71.67,0,0,0,6.64-4.29c2.3-1.79,2.73-3.86.45-6.36-1.35-1.48-2-3.63-2.92-5.47a73.54,73.54,0,0,0-4.34-8.1c-3.41-4.93-5.15-7.18-10.16-10.37h0C610,343.34,550.4,305.26,555,303.6c9.2-2.71,17.8-5.36,26.49-7.69a7,7,0,0,1,5,.93c7.39,4.71,14.62,9.67,22.56,15-3.32,1-4.69,3.08-6.4,4.84a7.11,7.11,0,0,0-1.59,7.21c1,2.88,1,3,3.63,8.34,0,.05.76,1.19,1.8,3a3,3,0,0,0,3.47,1.33l65.23-21.16c4.16-1.35,8.34-2.66,12.47-4.09,6-2.09,10.24,1.37,15.12,4.92-5.05,1.88-9.72,3.74-14.47,5.37q-12.27,4.22-24.63,8.2c-9.64,3.1-19.33,6.08-29,9.12-3.34,1.05-6.87,1.74-9.9,3.36a7.67,7.67,0,0,0-2.6,2.94,2.27,2.27,0,0,0,1,3.27,7.05,7.05,0,0,0,4,1,112.23,112.23,0,0,0,14.54-4.35c7.57-2.6,15-5.55,22.62-8,10.27-3.36,20.64-6.4,31-9.6,5-1.55,9.93-3.56,15-4.56,2.08-.41,4.75.93,6.84,2.1.84.48,2.81,2.09,4.81,3.64-3.78,1.33-7.17,2.59-10.6,3.71q-22.72,7.38-45.47,14.69c-9.67,3.09-19.35,6.16-29.08,9.08-5.56,1.67-7,5.78-2.57,9.59,2.83,2.44,6.68,3.7,10.09,5.47,11.1,5.77,21.89,3.61,32.9-.68,8.12-3.16,16.68-5.17,25-7.95,11.24-3.78,22.39-7.81,33.58-11.73,3.14-1.1,6.31-2.09,9.42-3.29,7.15-2.75,13.38,3.14,17.26,5.79-24.64,8.34-48.29,16.35-71.94,24.38a12.89,12.89,0,0,0-3.86,1.6c-1,.82-2.33,2.37-2.15,3.34a5.28,5.28,0,0,0,2.81,3.48q27.42,9.92,55,19.49c12.35,4.3,24.73,8.52,37.17,12.56a5.68,5.68,0,0,0,4.7-1c1.19-1.07,2.36-3.36,2-4.76-3.85-16.38-8-32.69-12-49-.17-.68-.57-2.07-.74-2.7-2.65-9.82-3.14-9.59-8.26-12.73-10.76-6.6-21.33-13.49-32-20.2-15.9-10-31.86-19.87-47.74-29.88-7.74-4.88-15.55-9.67-22.95-15-4.59-3.31-8.69-3.14-13.66-1.24-9.27,3.53-18.72,6.63-28.15,9.7-5.71,1.86-9.64-2-14.55-5.42,4.58-1.75,8.64-3.5,12.82-4.88C625.28,279,629,277.66,638.06,274.72Zm33.46,24.06c3.17-.87,6.53,1.7,11.36,4.19a1.08,1.08,0,0,1-.11,2l-72.14,23.15c-1.18-2.36-2.2-4.39-3.4-6.81a1.72,1.72,0,0,1,1-2.4c3.56-1.2,7.4-2.51,11.26-3.75C636.79,309.57,654,303.59,671.52,298.78Zm-51.12-.66c4-1.56,7.51-3.25,11.22-4.36,5.67-1.71,10-3.66,15.49-5.59,8.44-3,13.48.67,19.11,5.46l-36.37,11.63ZM722.61,336.3c6.26-2.75,10.07-2,15.5,1.37a25.67,25.67,0,0,1,5.22,4.11c-8.06,2.75-15.64,5.37-23.25,7.91q-17.64,5.88-35.31,11.68c-7.63,2.52-15.23,5.11-22.89,7.53a7.47,7.47,0,0,1-4.24.1c-5.12-1.62-10.17-3.47-15.24-5.24a.79.79,0,0,1,0-1.5q29.94-9.54,59.86-19.08C709.1,341,716.08,339.16,722.61,336.3ZM743,376.67c-10.06,3.51-20.08,7.15-30.13,10.69a3.69,3.69,0,0,1-2.2.23c-4.28-1.51-8.51-3.13-14.1-5.22l70.15-23.92c.7,3.1,1.35,6,2.11,9.41C760.4,370.72,751.67,373.63,743,376.67Zm27.27-2.24c2.77,12.15,5.24,23,7.94,34.79-9.12-2.92-17.66-5.5-26.11-8.37s-16.84-6-25.25-9.06C723.56,391.12,750.24,381.32,770.25,374.43ZM629.37,271.16c-8.53,2.74-17.37,5.6-26.22,8.42-5.32,1.69-10.7,3.23-16,5-4.64,1.54-8.37.27-14.93-5.27,11.08-3.68,22.35-7.65,33.77-11.15C614,265.7,622.13,264.07,629.37,271.16Zm-21.93-11.23c-9.6,2.87-18,5.26-26.22,7.88-6.1,1.93-12.1,4.2-18.18,6.21-1,.34-2.48.64-3.24.17-2.48-1.54-4.73-3.44-7.54-5.57,14.81-4.45,29-9.12,43.47-12.75C598.75,255.11,602.74,258.19,607.44,259.93Zm-22.9-9.77c-10.66,3.38-21.16,6.43-31.44,10.09-6,2.14-11.1,2.39-16-3.8,2.81-.9,5.07-1.66,7.34-2.36,8.47-2.61,16.94-5.25,25.44-7.78C575.39,244.66,580,246.74,584.54,250.16Zm-24.08-11.94a36.68,36.68,0,0,1,4.76,3.31c-16.91,6.16-22.5,7-30.46.77a1,1,0,0,1,.32-1.66c3.83-1.06,7.75-2.07,12.45-3.31C552.51,236,556.55,235.72,560.46,238.22Zm-17.14-6.66c-6.66,2.59-13.19,4.68-20.18,3.83-2.16-.26-3.53-1.28-6.43-2.49-1-.47-3.84-1.71.59-2.59C525.82,228.34,534.34,222.88,543.32,231.56ZM487.26,201c14.8,7,26.75,13,39.43,18.9-10.31,1.9-47.43,15.26-49.32,15.91-6.07,2.09-9.3,1.75-19.91-4.63-8.94-5.37-12.67-7.42-9.74-9.66,10.56-6.87,22.84-14.47,33-21.09C484.26,198.15,484.6,199.73,487.26,201Zm-65.77,21.59c5.32-3.53,10.88-7.27,16.49-10.93,8.08-5.27,21.15-13.6,29.35-18.68a7.89,7.89,0,0,1,2.78-.95,5.33,5.33,0,0,1,4.59,1.26,8.77,8.77,0,0,1,1.65,1.68c-5.62,3.71-16.25,10.47-21.89,14.15-4.55,3-9.32,5.65-13.6,8.95-2.38,1.84-6.35,3.45-4.38,7.78,1.9,2.74,14.5,9.89,27.78,17.5,9.37,4.55,21.69-3,22.37-3.3,6.65-3.33,9.11-2.94,16.48,2,4.5,3,7.77,5.38,13.07,8.58.15.09.8.86-6.77,3.36-4,1-29.33,11-33.64,8.88h0a10.06,10.06,0,0,1-2.91-1.18C421.05,231.19,412.55,228.77,421.49,222.58Zm-113,35.59c-3.82-2.15-7.52-4.48-11.46-6.84,1.67-3.89,4.09-5.21,8-5.19,23.89.15,47.78,0,71.67.13,8.91,0,17.83.52,26.72,1.13a14.81,14.81,0,0,1,6.78,2.43c15.28,10,30.39,20.34,45.66,30.4,7.59,5,15.39,9.66,24.09,15.1-8.2,7.11-10.15,8.54-11.72,9.93a51.18,51.18,0,0,0-6,6.86,24.86,24.86,0,0,0-3.07,7.13c-.85,3.08.4,5.09,3.33,6.93,13.23,8.35,26.26,17,39.34,25.64,17.17,11.29,34.31,22.63,52.74,34.78-6.44,1.52-11.82,3.54-17.31,3.9-9.3.61-20.23.33-28,.28-9.75-.07-17.85-3-25.56-8.29q-7-4.75-13.89-9.59c-4.85-3.39-104.26-70.39-113.52-76.51,3.94-2.14,7.45-3.94,10.85-5.93.69-.41,1.37-.86,2-1.33a4.42,4.42,0,0,0,1-6.25,9.66,9.66,0,0,0-2.13-2.15c-7.92-5.56-16-10.85-24.15-16.11A131.75,131.75,0,0,0,329.43,256c-4-1.91-8.58-2.78-12.29,1.07C314.45,259.87,311.54,259.9,308.46,258.17Zm34.8,25.71c-2.07-1.25-5-2.87-8.61-5.22-6.55-4.26-9.9-5.87-14.8-8.9-6.1-3.78,1-11.24,4.67-10.43,5.57,1.89,15.26,8.82,23.35,14.1C353,276.81,360,281.3,362,283.63c2,2-6,6.73-10,5.39S347.24,286.29,343.26,283.88Zm-70.6,6.41a6.12,6.12,0,0,1,7.85-1.17c7.65,4.74,20.49,14,31.11,21.4,3,2,2.3,3,1.18,4.05l-12.74,8.54a3.75,3.75,0,0,1-4.16,0c-10.71-7.24-29.58-19.16-30.09-21.56C265.63,300.68,269.59,293.86,272.66,290.29ZM196.34,372a3,3,0,0,1-1.06-4c3.06-5.66,5.93-10.88,8.66-16.19,8.15-15.85,16.19-31.75,24.33-47.61,3.62-7.06,7.25-14.11,11.13-21a10.45,10.45,0,0,1,4.2-3.51,55.73,55.73,0,0,1,6.44-3.06c10.51-3.77,15-.21,21.12,6.73-.62.68-10.64,11.54-12.05,18.33-.54,2.58-.55,3.56,1.77,5,9.77,6.26,19.33,12.85,29,19.24,2.4,1.59,4.92,3.74,7.56,4,2.37.27,5.18-1.35,7.45-2.7,3.92-2.34,7.34-5.67,11.45-7.49,2-.88,5.49.07,7.6,1.35,5.85,3.56,113.58,63,117.15,65.09,12.42,7.33,20.05,11.36,31.74,18.71-5,12.16-9.6,24.46-15.26,36.25-2.06,4.3-6.68,7.37-10.15,11-1.55,1.61-3.22,3.1-4.71,4.76-2.63,2.92-4.72,4-8.78,1.16-21.68-15.34-43.65-30.29-65.57-45.29-8.57-5.87-17.16-11.7-26-17.16a11.4,11.4,0,0,0-7.43-1.14,206.42,206.42,0,0,0-21,4.91c-2.17.63-24.11,10.79-29.23,13.28-4.86,2.36-8.86,6.49-14.06,10.47C246.7,406.83,222.54,388.48,196.34,372Zm69.1,96.57-6.16,4.17L205.18,434l4.52-4.95Zm-62,36.47c3.26,2,6.21,4.51,9.87,7.27l-58.3,52-8.39-11.3c7.67-7.1,15.28-14.23,23-21.27,7-6.41,14.11-12.73,21.19-19.06,2.78-2.49,5.51-5.05,8.51-7.24A4.66,4.66,0,0,1,203.44,505.07ZM120,465.14c.8-.7,3-.68,4-.07,2.21,1.35,4.06,3.29,7,5.82l-26.55,27-8.74-10.86C104,479.58,111.88,472.26,120,465.14ZM92.24,480.21C82,467.26,74.43,457.59,64.39,444.89c8.09-4.6,15.07-8.65,22.13-12.55,14.08-7.8,28.34-15.32,42.22-23.45,2.76-1.61,4.1-.89,6,.37,7.39,5.05,12.6,7.5,20.66,13.05-6,5.45-11.5,10.63-17.27,15.5-1,.82-35.75,31.78-39.06,35.17C97.15,474.9,95.34,476.89,92.24,480.21Zm24.43,13.93c5.7-4.76,11.36-9.57,16.49-13.89,2.16,1.18,10,6.27,12.13,7.86l-28.63,25.24C107,504.47,107,502.19,116.67,494.14Zm24,6.18c5.76-5.14,11.78-10,17.35-15.33,8.13-7.77,8-7.9,18.86.51-16.18,14.72-32.28,29.34-48,43.65l-8.4-10.61C127.08,512.6,133.86,506.43,140.71,500.32Zm1.94,27.29c9-8.76,42.71-39.81,44.8-42.15l11.48,8.87-57.59,51.45C132.6,533.83,133.7,536.29,142.65,527.61ZM56.34,432.87c16.4-8.92,33.66-18.31,50.08-27.2,11.13-6,22.06-12.41,33.2-18.41,1.48-.8,4.21-1,5.39-.18,1.4,1,1.61.84,6,3.75,1.44.95,4.86,3.66,6.07,4.51,11.48,8.05,19,13.62,30.59,21.56,4.56,3.13,14.94,10.1,11.11,14.16C189,443.87,175,453.12,163,465l-26-16.37c8.61-7.72,16.44-14.59,24.09-21.66,3.64-3.37,3.57-6.49-.31-9.31-8.52-6.21-14.93-9.77-23.87-15.34-2.21-1.38-6.52-1.44-8.87-.21-12.95,6.73-25.54,14.12-38.35,21.13-10.22,5.59-20.57,11-30.86,16.42-.48-.32-3.1-3.3-3.58-3.63C54.66,435.16,55.34,433.41,56.34,432.87Zm77.88,146.68c-12.75-17-25.11-34.33-37.74-51.43C91.56,521.46,86.3,515,81.27,508.45c-9.17-12-18.34-24-27.39-36.14-5.69-7.6-11.23-15.32-16.67-23.09a4.14,4.14,0,0,1-.56-2.05,3.1,3.1,0,0,1,1.49-2.89c1.41-.83,3.49-2.13,5.29-3.23a4.58,4.58,0,0,1,6,1.12c3.93,5.14,7.36,9.59,11.51,15.1q24,31.89,47.9,63.79c14.41,19.14,28.91,38.23,43.31,57.38q15.85,21.1,31.54,42.34c1.27,1.72-.67,7.76-3.64,11.76a3.43,3.43,0,0,1-5.46,0C161.23,615,147.58,597.39,134.22,579.55Zm88.83,123c-4.07,2.09-7.18.1-10.1-2.2-4.87-3.84-26-19.46-34.16-26-3.78-3.06-7.28-6.33-7.83-11.48a6.84,6.84,0,0,1,1.31-4q9.82-15,19.87-29.87c1.35-2,2.39-5.38,2.25-9.76-.19-6.25-39.45-46.52-34.63-49.87A23.76,23.76,0,0,0,163.5,566c4.84-4.74,9.81-9.34,14.86-13.86,7.15-6.4,14.42-12.66,22-19.33l12.67,7.93c-3.24,3.28-34.95,30.91-41.22,36.65-.83.75-1,2.17-1.25,3.61a2.22,2.22,0,0,0,1.63,2.47c1.13.3,2.22.53,2.87.1a114.24,114.24,0,0,0,12.51-9.52c10.68-9.41,21.2-19,31.75-28.55.62-.56,6.39-6,10.84-2.92,3.29,2.25,8,5.13,8,5.13-6.62,6-13.09,11.7-19.42,17.56q-14.61,13.54-29,27.32a3.14,3.14,0,0,0-.6,2A2.26,2.26,0,0,0,191.1,597a4.09,4.09,0,0,0,2.72-.2,73.79,73.79,0,0,0,8.53-7.21q31-28.74,61.9-57.52c6-5.54,12.21-10.85,18.38-16.22a55.56,55.56,0,0,0,4.64-5.1,1.58,1.58,0,0,0-.62-2.44c-1.25-.54-2.47-1-3.11-.63a87.48,87.48,0,0,0-11,8.57c-6.12,5.47-12,11.15-18.95,17.6-3.52-3.37-12.77-11-13.74-11.64-3.47-2.32-7.11-4.46-10.12-7.28-.72-.68.11-4.42,1.34-5.55,8.53-7.87,15.39-14.05,24-21.82,14.41-13,14.1-14.74,17.87-12.4,16.44,11.66,72.1,49,79.5,52.1,4.68,2,10.37,3.93,15.73,5.66,1.55.51,11.17,2.93,18.65-.72,6.61-3.22,12.83-7.24,19.44-10.44a7.78,7.78,0,0,1,6.47.33c21.1,13.66,42.37,27.1,62.88,41.61,9.07,6.41,19.07,7.28,29.12,9.21,12.6,2.42,25.16,5,37.78,7.26,6.94,1.26,13.93,2.2,20.8,3.21a2.5,2.5,0,0,1,2.06,3.15c-1.66,5.44-7,3-11,2.4-9.33-1.44-18.56-3.61-27.82-5.48a14.49,14.49,0,0,0-2.36-.29c-8.85-.25-11.59,3.27-14.87,8.16-10,14.89-16.94,25-27.31,39.61-2,2.85-1.73,4.65.74,6.15,5.83,3.56,11.26,5.37,17.37,8.4,4.64,2.31,10.78,4.78,16.18,7a2.16,2.16,0,0,1,.27,3.86c-3.2,1.93-4.55,5.07-7,9.66-3.43,6.36-6.77,12-10.72,18.32-5.49,8.72-5.66,8.53-15.08,4-3.81-1.84-9-4.07-3.61-8.56,2.43-2,4.17-3.6,5.38-4.8,4.32-3,3.89-11.93,2.2-13.64-6.26-6.37-19.51-5.16-20.53-4.16-2.15,2.12-4.38,5-4.75,7.84s1.67,5.63,2.55,8.5c.31,1,.72,2.29.34,3.09s-1.43,1.47-1.77,1.25c-2.25-1.45-4.84-2.92-7.16-4.2-3.32-1.85-6.95-4.52-10.41-4.48-20.8.25-41.58,1.09-62.36,1.91-14.06.56-28.1,1.44-42.15,2.1-16.38.77-32.78,1.31-49.15,2.3-3.14.19-15.54-.22-27.35,5.79C247.45,690.12,240.58,693.56,223.05,702.52Zm388.28-96.2c6.89,1.19,13.72,2.73,21,4.21l-45.83,69.74c-6.18-3.4-30.51-15.1-36.15-18.19-1.35-.74,16.91-28.88,22.78-38,4.56-7.09,12.34-19,16.6-26.3a8.82,8.82,0,0,0,.89-4.12c3.87.64,7.72,1.3,11.55,2,1.32.25,3.18,2.8,3.12,4.21C605.15,604.41,607.49,605.66,611.33,606.32Zm-91.18,76.92c1.73.92,4.66,1.9,6.71,3-4.54,7.65-14.16,23.71-18.85,30.84-2.78,4.21-2.93,2.85-9.41-.69C504.58,707.8,514.56,691.26,520.15,683.24ZM520,647.42l-30.43-14.19c3.54-5.37,6.89-10.49,10.29-15.57,5.37-8,11-15.91,16.08-24.11,2.34-3.76,4.92-5.51,9.35-4.54,9.39,2.07,18.81,4,29,6.12C542.79,612.59,531.48,629.86,520,647.42Zm1,74c5-6.51,12.77-21,18.36-29.39,2.73,1.05,3.5,2,6.63,3.66-4.67,7.71-15.24,26-19.85,33.58a36.13,36.13,0,0,0-4.73-2.45C517.58,725.1,518.75,724.31,521,721.42Zm38.22-19.69c1.81.72,4.2,2.24,6.66,3.21-5.14,8.58-14.58,25.54-19.59,33.91-2.87-1.46-5.2-2.63-7.85-4C543.94,726.93,553.45,709.94,559.18,701.73Zm20.32,9.62,6.09,3.13c-4.49,7.74-12.8,23.89-17.56,30.89-2.77,4.08-5.63.54-9.1-1.25C564.46,735.84,574.15,719.38,579.5,711.35Zm3.19-7.1C572,699.56,536,682.9,525.61,677.54c-5-2.57-2.12-9.68,2.42-7.45,14.82,7.29,52,24.9,65.76,31.54,9.3,4.47,14.36,6.23,25.89,11.54a5.71,5.71,0,0,0,3.29.17c5.41-3.47,7.49-2.05,13.27,1.59.58.37,6.89,4.48,7.81,5-.42,1-3.83,5.48-3.87,5.59-2.54.24-9.18,1-10,.63-10-5.09-18.31-8.55-28.35-13.5C597.23,710.34,587.44,706.34,582.69,704.25Zm138.73,29.06c-4.73,6.79-5.09,6.52-12.79,2.65-1.85-.93-3.77-1.74-5.73-2.63L731,689.45c3.75,3.91,7.34,7.65,11.4,11.86C735.62,711.72,728.8,722.71,721.42,733.31Zm27.09-26.41c1.77,1.68,3.18,3,4.52,4.3,14.61,14.6,29.16,29.27,43.88,43.76,2.78,2.73,4.47,5.16,2.69,9.12-1.54,3.43-2.68,7-4.08,10.79-10.33-4.87-19.28-9.12-28.26-13.3-11.71-5.46-23.5-10.72-35.12-16.35-6.79-3.29-6.36-3.32-1.61-10.24C736.69,726,742.29,716.68,748.51,706.9Zm-51.62,23.47c-5.65-2.2-11.26-5.11-17.33-2.84a.79.79,0,0,1-1-1.16l34.71-55.09c4.14,4.22,8.08,8.24,12.39,12.62Zm-.64-44c-8,12.84-16,25.63-23.88,38.5-3.24,5.3-6.73,10.12-12.93,12.36-7,2.53-13.86,5.35-21.29,7.69,2-4.82,4.14-14.09,11.18-18.63,3.25-2.1,4.52-6.33,6.79-9.86q12.11-18.84,24.08-37.76C685.4,670.43,690.42,662,696,653l11.72,14.83C704.41,673.13,700.35,679.77,696.25,686.39Zm-38,12.85L642.92,692c12.22-18.51,24.17-36.62,36.64-55.53l10.89,12.35C679.79,665.51,669.09,682.26,658.23,699.24Zm-21-9.75L623,683c7.48-11.84,14.68-23.32,22-34.73,2.12-3.3,4.94-4.59,8.6-2,2.55,1.83,5.2,3.51,8.24,5.54Zm-28.23.62-16.24-7.61,35-53.65,16.85,7.31Zm57.62,51c4.87-2,9.85-3.8,14.52-6.2s8.64-.61,12.51,1.19c10,4.67,19.85,9.86,29.87,14.6,10.54,5,21.2,9.72,31.83,14.51,13,5.88,26,11.88,39.23,17.4,2.78,1.17,6.05,1.84,7.52-3.59,1.63-6,4.29-11.85,5.15-18.11.29-2.06-.08-5-1.39-6.37-19-19.33-38.24-38.46-57.42-57.63l-30.36-30.37C706.39,654.85,695,642.93,682.9,631.7c-3.06-2.85-39.48-14.46-46.51-16.2,3.77-5,9.72-8.89,3.92-10.11-9.8-2-15.07-2.75-24.89-4.67-3.34-.65-3.59-2.68-3.48-5.1a2.73,2.73,0,0,1,3.2-2.58c16.57,3,32.91,5.89,49.2,9.07,2.21.43,4.41,2.25,6.08,3.94q24.27,24.57,48.31,49.33c16.48,17,32.78,34.23,49.21,51.3,11.79,12.25,23.7,24.38,35.49,36.62q5.55,5.78,10.74,11.89a4.32,4.32,0,0,1,.66,3.51c-2.94,9.19-7.09,20.22-10.54,30.26a3.51,3.51,0,0,1-4.77,2.06c-7.86-3.54-17.39-8.23-24.22-11.1-21.45-9-33.49-14.68-55.68-25.28-9.54-4.56-19.92-8.65-29.72-12.6a14.22,14.22,0,0,0-8-.26c-5.64,1.71-10.23,4.24-15.65,6.54-7.38,3.13-14.92,5.9-22.47,8.62-3.45,1.24-7,1.73-7.54-3.49C646.27,749.37,656.44,745.25,666.59,741.09Zm-82-146.87c-9.91,15.53-29,46-39.13,61.35-.89,1.33-3.92,2.49-5.34,2-4.39-1.55-8.48-3.94-13.46-6.38,3.71-5.77,13.44-21.4,17.13-27q8.4-12.75,16.95-25.42c.6-.89,1.82-2.19,2.52-2,5,.95,6.94-2,8-6.15,4.79.76,9.51,1.49,14.19,2.24C585.21,593.27,584.92,593.76,584.63,594.22ZM282,706.43c-9.67-1.89.77-4.71,6-5.18,14.51-1.29,26.66-2.61,39.91-1.94,10.71.54,21.37,3.68,31.9,6.3,15.4,3.82,30.67,8.21,45.8,12.31.74,5.09,1.47,10.07,2.26,15.49Zm175.06,40.43a1.18,1.18,0,0,1-1.68,1.06c-8.7-4.13-14-5.48-25.91-10-3.73-1.43-5.59-2.54-9.36-3.77-4.93-1.61-5.58-8.88-5.46-14.15,1-16.55-.72-29.76,6.47-29a184.74,184.74,0,0,1,18.77,5.89c4.29,1.63,9,3.8,13.23,5.54,2.72,1.13,3.28,3.07,2.49,6a.85.85,0,0,1-1.16.55c-7.88-3.59-15.71-5.89-23.64-9.48-5.65-2.56-7.57-1.33-7.4,4.77.2,6.93.49,12.3,1.15,19.2a6.13,6.13,0,0,0,3,4.41c9.59,3.85,18.42,7,28.05,10.62a1.87,1.87,0,0,1,1.07,1,3.86,3.86,0,0,1,.38,1.24ZM445.7,685.09c-3.49-1.35-7.68-.94-11.55-1.26a26.83,26.83,0,0,0-3.23.06c-22.66.71-45.33,1.36-68,2.18-16.21.59-32.4,1.39-48.6,2.14-15.13.69-21.93,1-37.05,1.74-1.71.08-9,.43-10.71.43-2.5-.13-2.4-1.54.74-2.81,3.67-1.44,11.92-3.74,16.15-4,17.55-1.24,91.64-4.87,149.13-5.76,13-.2,16.61,1.55,27.75,7.19,9.39,4.75,16.52,8.56,26.06,13,1.33.62,3.14,3.23,2.48,4.69l-1.36,1.57c-6.63-3-13.28-5.93-19.87-9C460.33,691.87,453.21,688,445.7,685.09ZM549.07,795c-12.09-5.86-65.91-34.16-71.24-36.77-5.65-2.77-6.75-5.26-6.53-11.74a1,1,0,0,1,1.44-.9c1.32.6,2.58,1.17,3.83,1.78,6.41,3.15,10.51,3.27,10.77-4,.08-2.15.15-5.06.07-7.21-.13-3.18.76-8.82-.92-10.52-3.69-3.71-5.6-3.82-10.37-6.24a36.47,36.47,0,0,1-5.8-3.55,1.57,1.57,0,0,1-.54-1.51c.14-.82.54-3,.68-3.87a.87.87,0,0,1,1.26-.63c6.39,3.33,14,6.9,21.42,10.76.73.38,3.63,1.26,3.22,5.75-1.4,15.15-1.47,20.88-2.07,32.15,14.29,7.45,44.92,24.13,53.12,27.45a14.67,14.67,0,0,1,2.93,1.58l17.51,8.6c.16,2.65.32,5.16.51,8.12C561.94,801.22,555.33,798.4,549.07,795Zm30.36-42.23c5.45-7.85,14-24.34,19.36-32,1.68.84,4.79,2.18,7,3.31-4.76,8.08-13.7,24.33-18.53,32.54Zm20.21,9.57c5.75-8.5,15.1-24.36,20.2-31.9l6.25,3.16c-4.24,7.31-12.85,23-17.21,29.9C606.86,766.71,604,764,599.64,762.33Zm83.9-8.42c-5.74.53-11.35,3.74-16.85,5.79-10.28,3.83-16.79,6-28.54,10.92-6.21,2.61-14.4-2.2-15.71-3.45-2.29-2.89,3.57-5.57,6.52-3.83,6.87,4,11.13.22,18.19-2.42,11.13-4.17,20.73-7.81,31.8-12.13,1.71-.67,7.28-2.25,12.27-.14,14,5.91,22.51,10.2,36.38,16.34,21.66,9.58,40.84,18.93,62.52,28.47,2.22,1,7.64,3.46,9.87,4.43,4.8,2.07,8.16,1.85,9.9-3.11,4-11.4,7.83-22.86,11.75-34.29a7.57,7.57,0,0,0-2-8.67c-11.47-11.57-21-20.11-32.23-31.91-9-9.49-18-18.83-27.09-28.3-7.49-7.84-17.08-17.93-24.66-25.69-5.38-5.52-42.75-42.68-55-56.3-1.46-1.5-5.26-6.33-5.28-6.36-6.19-8-14.83-7.1-24.19-8.76-24.75-4.4-47.51-8-72.23-12.53-18.13-3.32-33.22-5.76-51.34-9.17-10.89-2-27.49-4.57-38.09-7.54-6.51-1.83-12.91-7-18.77-10.78-16.2-10.4-30.55-21.81-46.64-32.37a71.37,71.37,0,0,1-9-6.8,1.38,1.38,0,0,1,1.13-2.39,5.65,5.65,0,0,1,2.07.59c19.13,12.85,56.64,38.11,58.21,39.22,10.91,7.68,18.05,8.88,27.53,10.51,10.92,1.87,21.39,4.41,32.3,6.33,13.66,2.41,29.34,5.15,43,7.66,19.35,3.55,38.6,6.55,58,10,9.53,1.7,18.18,2.85,27.6,5.08,8.29,2,14.33,6.65,19,12.71,7,7.12,52,53.77,59,60.94,7.69,7.87,15.4,17,23,24.9,17.28,17.87,29.55,29.87,46.75,47.83.84.87,9.36,9.4,10.16,10.18,8.08,7.86,5.09,14.44,1.7,22.7-5.36,13.07-8.85,24.26-13.61,38-14-6.39-29.41-13.56-43.18-19.79q-36.17-16.35-72.37-32.56C691.82,755.58,687.09,753.58,683.54,753.91Zm115.52,93.85-65.18-34.15c14.31-2.3,27.81-4.5,41.33-6.58a7.24,7.24,0,0,1,3.46.76c7.09,2.77,10.91,6.26,14,15.11C795.35,830.47,801.16,848.79,799.06,847.76Zm-4.56,56.09c-1.45,3.34-7.2,5-10.11,3.64-13.31-6.32-26.7-12.5-40-18.89-9.47-4.55-18.82-9.36-28.68-14.29,6.5-7,10.57-7.29,18.79-3,13.11,6.79,26.45,13.17,39.77,19.54,5.13,2.46,10.66,4.11,15.69,6.72C792.2,898.69,796.27,899.8,794.5,903.85Zm.38-16.93a2.17,2.17,0,0,1-3.09,2c-14.73-6.92-28.75-13.73-37.5-17.17,0-5.9,0-11.8,0-17.7,0-6.68-3.93-9.92-11.32-13.25-9.57-4.31-24.08-12.84-28.25-14.5,1.13-2.86,1.72-6.29,3.67-8.54,1.27-1.47,5.12-2.38,6.79-1.54,14.19,7.21,28.1,15,42.18,22.39,11,5.81,22.17,11.39,33.81,17.35C793.87,864.84,794.62,876.85,794.88,886.92ZM809,866.48a102.29,102.29,0,0,0-1.28-16.2c-2.09-8.61-5-20-7.18-29.13,12.61,5.94,29.24,13.43,41.64,19.27C862.43,850,880,859,900.35,868.49c4.57,2.14,4.54,6.17,4.43,9.79-16.77-8.4-33-16.46-49.14-24.66-3.83-2-8.87-2.41-12.56.27s-6.53,4.9-10.39,7.63c-4.19,3-8,6.47-13.09,10.66Zm64.19,36.94c-8.66-4.62-17.27-9.35-25.91-14-5.87-3.16-11.86-6.09-17.52-9.57-1.14-.7-2-4.11-1.33-5.07a44.33,44.33,0,0,1,7.8-8A66.58,66.58,0,0,1,842,862c6.87-4.56,10.51-3.23,16.1-.27,14.72,7.8,29.64,15.23,44.62,22.51,3.39,1.65,12.83-.14,16.25-5.57,1.56-2.24,8.36,1.46,10.09,4.35a22.91,22.91,0,0,1,1.41,6.72c3.9,3.1,13.51,8.92,17.07,11.75-3.4,4-11.48,13.15-15.9,18.26l-7.49,8.69C920.61,926.58,884.28,909.37,873.15,903.42Zm70.39,70.18c-12.67-3.39-14.76-5.69-14.46-16.82,5.09,2.57,9.85,4.8,14.39,7.42.95.55,1.54,2.53,1.48,3.81C944.87,969.89,944,971.74,943.54,973.6Zm7.32-17.91c-7.69-4.23-15.65-8.09-22.87-13-1.47-1-.87-6.24.06-9.11.15-.47,31.68-38.4,38.06-44.51,4.79-4.59,5.79-5.52,9-6.2,1.53-.19,7.63,2.7,8.57,3.06,6.71,2.64,88.4,31.8,95,34.74,1.55.69,7.4,4.05,7.89,5.59,2.44,7.68,7.19,20.91,9.83,28.5a13.37,13.37,0,0,0,5.86,6.74c20.6,11.31,32.65,16.88,53.44,27.83,18.43,9.71,37.43,19.81,55.91,29.44,1.21.63,5.19,2.83,4.83,4.22l-.55,1.35c-.77.9-3.92,0-5.22-.65-26.65-14.19-52-27.71-78.56-42-11.45-6.13-20.74-11.49-32.14-17.72-5-2.7-11.37-4.5-15.7.27a13.7,13.7,0,0,1-5.39,3.78c-.83-.12-4-3.22-3.9-4.18.06-1.21,5.55-5.47,6.13-6.27,2.42-3.37,4.24-6.53,2.83-12.93a57.08,57.08,0,0,0-4-12.8,14.31,14.31,0,0,0-6.55-7.09c-5.94-2.82-86.12-31.94-96.18-35.62-3.18-.82-6.14,2.5-8.71,5.65-.46.56-31.47,35.57-32.35,37.82-1.73,4.46-1.09,8.84,2.94,11.06s5,2.75,8.15,4.41c2.12,1.11,5.3,2.4,7,4.12C957.17,955.56,954.42,957.85,950.86,955.69ZM1025,984.52c-6.84-3.35-14.13-6-20.36-10.26-4.51-3.08-7.18-1.44-11.15.37-3.7,1.68-7.83-.12-11-1.89-4.33-2.41-8.67-4.76-13-7.13a3.1,3.1,0,0,1-1.6-2.87v0c-.1-1.09,3.32-.3,4.63.3,3.83,1.75,7.54,3.83,11.25,5.73s6.42,3.06,9.12,1.61c8.17-4.4,11.77-1.21,17.17,1.55,4.12,2.1,8.18,4.33,12.14,6.73a25.56,25.56,0,0,1,4.84,3.44C1029.32,984,1027.87,985.53,1025,984.52Zm80.91,59.93,0,0a1.74,1.74,0,0,1-1.87.2c-11.68-5.72-21.08-9.62-32.47-16.2s-26.74-10.77-37-19.4c-2.8-1.89-1-5.68,2.89-4.88,9.33,4.73,18.68,9.43,28,14.19,13.14,6.71,26.28,13.41,39.34,20.26a5.88,5.88,0,0,1,1.47,1.14A3.15,3.15,0,0,1,1106,1044.45ZM1293,1150c-61.14-30.22-112.54-57.7-173.57-87.87-3.59-2.17-2.11-7.06,1.71-6.29,3.32,1.09,6.84,1.79,9.94,3.35,12.9,6.51,25.64,13.33,38.54,19.86l10.84,5.43q20.08,10.1,40.44,19.65c2,.95,40.53,22.08,56.4,29.93,5.49,2.73,3.57,1.57,9.17,4.06,2.69,1.19,5.56,3.07,8.34,4C1300.56,1145,1299.75,1153.71,1293,1150Zm109.6,23.38c-2.56.29-32.45,2.22-32.45,2.22-5,.54-7.19-5.47-.83-6.27.88-.11,37.86-2.33,40-1.75C1411.62,1168.22,1410.65,1172.44,1402.56,1173.39Zm19.36-71.46a2.9,2.9,0,0,0-.46.58c-.4.85-10.52,8.69-11.84,9.43l-31.23-29.63c4-3.58,8.38-7.47,12.45-11.13,10.44,9.93,20.72,19.74,31,29.5A.9.9,0,0,1,1421.92,1101.93Zm4.83-5.62c-.2,1.75-8-7.25-10-8.76-1.72-1.32-4.23-4.21-5.86-5.66-3-2.63-12.51-11.1-16-14.45-4.05-3.86-6.38-3.7-10.31-.06a115.93,115.93,0,0,1-9.62,7.95c-5.16,3.84-5.4,6.46-.66,11.34,3.38,3.48,6.61,7.13,10.23,10.34,9.44,8.37,18.54,17.5,20.86,18.94a1.17,1.17,0,0,1-.45,2.15,13,13,0,0,1-4.83-.29,75.94,75.94,0,0,1-11.71-6c-8.62-5.72-17.64-4.73-27.25-3.45-20.3,2.7-28.17,5.87-53.81-11.09a18.18,18.18,0,0,0,1.69-6.85,57.57,57.57,0,0,0-1.88-8.94c-2.13-6.13-7.51-6.72-12-7.55-2.53-.46-22.48-3.23-31.77,11.77-1.53,6.17-.39,11.56,3.53,14.79,6.17,4.84,21.39,8.47,26.78,6.57,4.7-1,8-2.77,10.3-5,26.18,19.43,37.48,15.73,62.18,11.36a29.11,29.11,0,0,1,13.22,1.33c7.5,2.93,14.41,7.27,21.83,10.43,3.21,1.37,3.81,3.53,4.18,6.3s.74,5.31.95,7.85c.63,7.66,2.28,11.25,6.2,17.12a2.36,2.36,0,0,1-1.32,3.59,31.17,31.17,0,0,1-7,1.44c-14.65.55-22.75,2.11-37.41,2.42-3.67.08-7.95.81-8.95,5.93-.33,1.65-.61,3.77-1,6.38a3.32,3.32,0,0,1-3.74,2.63,50.64,50.64,0,0,1-16-3.8c-11.1-4.77-21.69-10.73-32.54-16.23,7.54-6.1,6.46-18.09-1.87-22.27-4.38-2.2-42.26-22.54-48.28-25.76q-27.36-14.6-54.76-29.1c-2.49-1.31-2.83-2.58-1.31-5a13.79,13.79,0,0,0,2.13-6c.6-6.27.8-11.25,1.09-17.53.14-2.94-1.87-4.43-5.72-6a120.31,120.31,0,0,1-11.81-5.51c-12.53-6.68-25-13.53-37.42-20.36-3.08-1.68-6.07-3.52-9.06-5.27,2.62-8.1,2.37-7.56-6.31-11.2s-16.92-8.56-25.29-13c-5.76-3.08-11.33-6.54-17.2-9.39a5.18,5.18,0,0,0-5.66.92,21.72,21.72,0,0,0-4,7.4,3.79,3.79,0,0,0,1.49,3.37c7.62,3.83,15.5,7.19,23.06,11.14,13.56,7.07,26.93,14.48,40.41,21.7,16.22,8.68,32.43,17.4,48.74,25.92,3.58,1.87,2.31,4.79,2.29,7.36a95.21,95.21,0,0,1-1,9.48c-.56,5.31-4.55,7.14-9.08,4.62-9.38-5.24-18.93-10.18-28.42-15.21-6.67-3.54-36.57-18.35-46.81-24.22-8.94-5.12-18.14-10-27.28-14.83l-35.82-19c2.52-2.38,4.81-4.42,7-6.59,1.28-1.29,2.34-2.79,3.49-4.2a44.64,44.64,0,0,0-4.09-2.72c-12.74-6.67-25.57-13.19-38.26-20-6.69-3.58-12.9-8-21.13-3.62-1.89,1-5.36.11-7.64-.93-3.31-1.52-6.48-3.34-9.7-5.2h0c-6.41-3.48-26.26-14.19-33.43-18.08-4.14-2.37-.8-9.78,3.28-7.76,2.56,1.62,3.36,2.11,6.85,4.09,12.19,6.9,25.74,15.28,30.74,14,7.68-2,14.61-17,8.53-26.51-.19-.29-.46-.58-.6-.85-1.6-3.09-18.91-11-20.79-12.54-4.38-4.23-.66-10.42,7.25-8.53,16.26,6.41,30.39,12.62,46.71,18.87,11.76,4.51,23.57,9,35.56,12.82,4,1.28,5.07,4.12,6.33,7.06,1.43,3.37,1,3.45,2.52,6.75a4.23,4.23,0,0,0,2.27,1.65,2.2,2.2,0,0,0,2.93-1.15,3.54,3.54,0,0,0,.38-2.22c-1.89-6.33-1.17-4.12-3.3-10.38-1-2.53-.13-5.28,2.36-2.22a16.07,16.07,0,0,1,2.34,4.78c4.09,8.73,3.89,16.32-5.19,22.06-4.79,3-3,6.31.2,9.53,5.81,5.93,7.16,6.31,11.31,2.56a16.91,16.91,0,0,0,1.55-1.5c6.85-7.91,12.8-1.62,18.66,1.44q29.85,15.58,59.47,31.62c15.55,8.37,31,17,46.47,25.45,3.84,2.11,7.61,3.44,12,1,3.51-1.93,6.73-1.65,10.57.84,7.13,4.63,15,8.13,22.55,12.11q20.31,10.68,40.61,21.37c8.29,4.39,16.59,8.77,24.75,13.4,6.33,3.59,9.09-2.2,12.6-4.86,7.62-5.77,14.38-12.67,22-18.41,11.8-8.86,21.8-19.82,33.73-28.51,3-2.14,3.78-4.27.44-7.28q-25.59-23.1-50.88-46.52c-6.44-5.93-46.31-46.87-53.64-53.61q-28.14-25.89-56.23-51.86c-1.64-1.51-3.52-2.76-5.18-4.05.3-.81.43-1.13.53-1.46.78-2.65,7.26-2.15,4-7-3.84-5.68-10.29-8.19-14.81-5.77-2.13,1.14-4,2.66-7,4.66-3.15,2.28-8.9-3.29-14.11-9.59-9.32-11.27-11.9-13.45-20.14-23-4-4.59-8.31-8.83-12.38-13.33-7.3-8.08-14.53-16.24-21.8-24.36a1,1,0,0,1-.08-1.15h0a.94.94,0,0,1,1.29-.27,20.33,20.33,0,0,1,2.73,1.93c6.69,6,12.66,13.25,20.25,17.74,4.07,2.41,11.19,1.22,16.41-.24,8.79-2.45,14.84,1.11,16.38,10.22.48,2.87,3.39,5.62,5.74,7.85,7.8,7.4,15.81,14.59,23.82,21.77,4.57,4.09,8,9.63,16,8.4,2.68-.4,6.33,4.55,9.29,7.31q18.43,17.18,36.69,34.5c10.36,9.79,20.57,19.74,31,29.41,6.95,6.42,14.26,12.46,21.38,18.71a22.42,22.42,0,0,1,2,2.31c.68,1.06-1.34,1.06-3.79,0a30,30,0,0,1-8.1-4.62c-7-6.08-11.36-11-18.24-17.26-9.07-8.23-18.42-16.15-27.56-24.31-8.23-7.36-16.45-14.74-24.47-22.33a123.84,123.84,0,0,0-11.37-9.84c-2-1.48-5.47-2.53-7.37-1.08-2.51,1.93-1,3.68,2.16,6.11,7.42,5.77,14.74,12.58,21.92,18.69,7.46,6.35,13.24,12.43,20.71,18.79,7.17,6.11,23,21.45,34.29,31.28,8,6.94,15.38,11.45,24.81,12.35,5.72.55,9,3.64,12.65,6.67,7.77,6.52,14.64,12.1,21.71,19a73.64,73.64,0,0,1,10.6,12.13c1.59,2.22,1.82,3.73-.77,2.76-4.71-2.13-9.92-2.2-12.52.92a8,8,0,0,0-2.16,6.65c.2,2.41,1.3,4.33,3.51,6.29,6.44,5.74,7.3,7.61,16,9.61,5.84,1.35,15.79,12,16.41,12.5,1.33,1.2,2.56,2.52,3.83,3.79,10.51,10.51,10.24,10.45,7.23,25.1-1.24,6-1.16,12.37-1.42,18.57a9.5,9.5,0,0,0,1.44,4.46c2,3.72,4.19,7.35,6.3,11C1426.55,1091.19,1428.16,1095.9,1426.75,1096.31Zm42.9,18.15c-6.2-14.31-18.52-13.8-29.17-16.71a8.76,8.76,0,0,1-4.82-3.31c-3.78-6.14-7.34-12.42-10.59-18.85a15.18,15.18,0,0,1-1.27-7.33c.53-9.91,1.58-19.79,1.92-29.71a11.27,11.27,0,0,0-2.79-7.56c-6.1-6.19-12.71-11.87-18.67-17.33,2.51-1.52,6.55-3,9.13-4.58,0,0,19.88,17.14,28.56,24.88,11,9.8,21.19,17.7,27.68,31.67a12.32,12.32,0,0,1,1.46,4.46c.47,12.48.86,25,1.05,37.46C1472.16,1109.28,1471.78,1119.84,1469.65,1114.46Z"/></g><g id="Thrusters"><path d="M974.77,923.62c-4,1.85-7.06,5-6.65,10.61,1,4.62,4.78,7.82,10.65,7.25,5.06-1.59,6.74-5.71,5.76-11.21C982.85,924.86,979.49,922.37,974.77,923.62Zm425,78.9c-1.19-3.8-4.92-6.54-10.7-7.95-7.14-.53-9.91.24-10.16,1.6,1.37,4.41,4.88,7.66,11.69,8.67C1401.85,1007.39,1401.32,1005.15,1399.74,1002.52Zm-110.92,78.3c-8.48-.27-17.47,5.65-17.47,11.25,1.58,3.29,6.43,6.11,12,6.07,11.17.64,19.77-6.32,16-11.94C1295.7,1080.81,1292.2,1080.81,1288.82,1080.82ZM172,432.32a9.64,9.64,0,0,0-5.79,5.29c-2.39,5.49-.43,6.83,4.71,5.67,4.09-.91,6.94-2.46,7.88-6.75C180.23,431,177.63,430.48,172,432.32Zm300.2,231.43c-3.88,2.71-1.85,9.81,1.69,11.15a7.7,7.7,0,0,0,3.78-.63,11.87,11.87,0,0,0,2.66-2.5C486,664.93,475.82,661.24,472.23,663.75Z" fill="#007aff"/></g></g></svg>