<svg xmlns="http://www.w3.org/2000/svg" viewBox="0 0 1500 1500"><title>Federal Gunship</title><g id="Federal_Gunship" data-name="Federal Gunship"><g id="Colour"><path d="M1341.16,988.63c-6.78-12.48-13.27-25.12-19.91-37.67-2.69-5.08-5.68-10-8.15-15.2a27.53,27.53,0,0,1-2.57-8.85c-.28-2.61.6-5.33.87-8q1.11-11.32,2.11-22.66c.4-4.49,2.46-9.84.74-13.31-5.81-11.76-8.69-25.85-22.38-32.27-2.42-1.13-4.52-2.92-6.78-4.38-4.44-2.86-5.94-2.17-7.93,2.77-1.69,4.21-1.49,8.52-4.81,12.9-6.49,8.57-11.49,18.27-17,28.25a3.52,3.52,0,0,1-6.23-.11c-4.12-8.2-10.9-18.52-11.38-19.36q-10.5-18.18-20.76-36.52a4.93,4.93,0,0,1-.27-2.2c0-2.15.77-4.66-.08-6.4-6.73-13.92-13.83-27.66-20.67-41.52-2.14-4.34-57.43-86.07-69.28-99.29-8.77-9.78-16.62-20.4-24.9-30.62-2.78-3.43-5.87-2.56-8.37-.74-7.88-7.86-15.77-15.34-23.16-23.29-4-4.31-15.63-12.76-20.87-16.37a4.08,4.08,0,0,1-.87-1.35c-4.47-7.88-9.24-15.62-13.34-23.69-7.21-14.18-14-28.58-21-42.86-3.06-6.21-6.26-12.35-9.37-18.53-4.27-8.46-6.13-18.49-14-24.66a238.38,238.38,0,0,0-25.26-17.41c-6.79-4-10.16-9.92-11.51-17-2.39-12.74-10.56-21.52-20.09-28.89-8.59-6.64-18.28-11.84-27.41-17.8q-32-20.88-63.9-41.94c-4.28-2.83-7.71-3.32-12.14.09-8.09,6.24-16.53,12.05-25.15,17.53-3.22,2-5,4.11-4.32,7.78.65,3.44-1.17,5.29-3.71,6.95-8,5.19-15.86,10.43-23.8,15.66-2.78-1.83-5.42-3.68-8.17-5.35-3.8-2.31-7.44-5.64-11.57-6.51-10.13-2.12-14.25-8.24-12.71-18.34,1.07-7,4.37-14.5-1-21.45-.49-.65-.06-2.35.42-3.33,2.44-5,5.09-9.84,7.58-14.79,11.91-23.61,23.64-47.3,35.81-70.77,2.87-5.55,15.6-32.63,15.76-40.13,0-2.12-1.72-5.07-3.55-6.32-19-13-38.15-25.65-57.23-38.45-7-4.69-15.25-4.46-21.89.94S676.33,236,675.81,236.56c-2.34,2.32-4.56,4.79-7,6.93-12.07,10.37-24.29,20.58-36.32,31-9.87,8.54-19.6,17.26-29.3,26-1.82,1.64-3.21,3.74-5.34,6.28a14.27,14.27,0,0,1-4.12-1.32c-9.28-5.8-18.52-11.65-27.65-17.67-12.29-8.1-24.44-16.42-36.74-24.51-3.12-2.05-6.87-3.45-9.83,0a44.12,44.12,0,0,0-5.54,9.08c-3,6.11-5.47,12.55-8.9,18.42-1.7,2.91-4.42,6.79-9,3.88-5-3.18-9.51-7.19-14.73-9.9A17.62,17.62,0,0,0,470.54,283c-3.43.68-6.41,3.65-9.59,5.6-9.78,6-19.52,12.09-29.36,18-7.88,4.73-11,11.86-12.54,20.69-1.19,6.68.07,14.44-5.68,19.81-2.74,2.56-6.15,4.4-8.89,7-3.46,3.22-5.83,3.72-10,.18-9-7.71-13.81-7.87-21.08.07-2.91,3.18-5.28,6.84-7.93,10.26-6.25,8.09-45.82,66.19-46.85,67.41-4,4.71-8.28,9.18-12.49,13.71-4.91,5.28-6.48,11.53-5.5,18.55.71,5.14,1.39,10.28,2.07,15.32-5.3,2.6-10.33,5.17-15.45,7.55-9.64,4.48-19.62,8.34-28.93,13.43-8.95,4.88-39.59,18.93-45.65,21.82-12,5.71-24,11.45-35.7,17.72-7.78,4.16-9.64,15.8-3.62,20.38,10.32,7.86,20.89,15.4,31.39,23,4,2.93,8.19,5.71,12.31,8.53,10,6.83,17.16,17.77,31.67,17.57,9.51-.14,28.73-6.76,29.94-7,13.34-2.69,26.72-5.18,40-8,18-3.87,35.94-8,53.92-12a5.85,5.85,0,0,1,3.65.62c11.1,5.83,16.76,16,20.88,27.12,1.15,3.11,7.4,36.12,7.89,40.8.64,6.09,1.66,12.16,2.05,18.26a6.23,6.23,0,0,1-2.53,4.66c-15.89,10.39-31.94,20.52-47.88,30.82-14.62,9.45-29.16,19-43.72,28.53-16.67,10.89-33.28,21.86-50.06,32.57-1.57,1-4.17.42-6.3.51-3.63.15-8-1-10.77.6-11.48,6.61-22.33,14.33-33.76,21.06-4.33,2.55-4.64,6-3.69,9.58.58,2.19,3.31,3.92,5.29,5.6,13.54,11.41,27.06,22.85,40.73,34.11,15.59,12.85,31.39,25.44,47,38.3,11.95,9.85,26.25,13.59,41,16.08,11.17,1.88,22.45,3.09,33.64,4.83,12.4,1.93,24.76,4.18,37.15,6.21,11,1.79,22,3.45,33,5.19,12.24,1.93,24.46,4,36.71,5.8,11.22,1.67,22.49,2.94,33.69,4.68,12.4,1.94,24.72,4.41,37.13,6.29,16,2.43,32.11,4.27,48.1,6.78,23.39,3.66,46.73,7.68,68.16,11.23,2.92,4.65,4.41,9.2,7.55,11.65,18.69,14.62,37.8,28.71,56.69,43.06,14.77,11.22,29.38,22.64,44.17,33.81,4.25,3.21,8.55,7,13.45,8.57,10.17,3.36,20.77,5.38,31.14,8.14,2.7.72,25,5.54,33.27,7.63,12.26,3.1,24,8.21,36.08,12.07,24.19,7.71,48.47,15.14,72.71,22.71,11.57,3.61,23.11,7.28,36,11.34-4.21,1.48-7.05,2.45-9.85,3.48-12.39,4.56-25,8.69-37.06,13.92-5.82,2.52-10.12,3.76-14.9-1.55a4.63,4.63,0,0,0-8.26,2.52c-.75,6.47-.6,13-1.25,19.53-.57,5.83,1,10.23,6.34,13.16a16.56,16.56,0,0,1,5.07,4c6.28,7.89,15.51,7.17,23.82,7.42,6.38.19,12.79-2.91,19.28-3.57,15.36-1.56,30.78-2.47,46.16-3.77,7-.59,14-2,21-2.08,11.39-.15,33.74-7.66,50.4-3.09,7.34,2,50.8,12.8,61.1,12.78,6.09-.25,47.86-1.86,57.26-3.4,4.7-.77,12.06-.61,16.7-3.72a5.1,5.1,0,0,1,3.27-1.5c5.6-.49,11.22-.72,16.83-1.18,8.47-.68,17-1.24,25.39-2.3a25,25,0,0,0,15.21-7.06c8.63-8.45,18.29-15.76,28.06-22.86,10.76-7.82,16.65-16.91,13.54-30.68a62.3,62.3,0,0,1-1.1-17.88c1.07-15,2.83-29.84,4.22-44.77.64-6.85.74-13.77,1.69-20.58C1344.85,1001.58,1344.63,995,1341.16,988.63Z" fill="#1f3828"/><path d="M1341.16,988.63c-6.78-12.48-13.27-25.12-19.91-37.67-2.69-5.08-5.68-10-8.15-15.2a27.53,27.53,0,0,1-2.57-8.85c-.28-2.61.6-5.33.87-8q1.11-11.32,2.11-22.66c.4-4.49,2.46-9.84.74-13.31-5.81-11.76-8.69-25.85-22.38-32.27-2.42-1.13-4.52-2.92-6.78-4.38-4.44-2.86-5.94-2.17-7.93,2.77-1.69,4.21-1.49,8.52-4.81,12.9-6.49,8.57-11.49,18.27-17,28.25a3.52,3.52,0,0,1-6.23-.11c-4.12-8.2-10.9-18.52-11.38-19.36q-10.5-18.18-20.76-36.52a4.93,4.93,0,0,1-.27-2.2c0-2.15.77-4.66-.08-6.4-6.73-13.92-13.83-27.66-20.67-41.52-2.14-4.34-57.43-86.07-69.28-99.29-8.77-9.78-16.62-20.4-24.9-30.62-2.78-3.43-5.87-2.56-8.37-.74-7.88-7.86-15.77-15.34-23.16-23.29-4-4.31-15.63-12.76-20.87-16.37a4.08,4.08,0,0,1-.87-1.35c-4.47-7.88-9.24-15.62-13.34-23.69-7.21-14.18-14-28.58-21-42.86-3.06-6.21-6.26-12.35-9.37-18.53-4.27-8.46-6.13-18.49-14-24.66a238.38,238.38,0,0,0-25.26-17.41c-6.79-4-10.16-9.92-11.51-17-2.39-12.74-10.56-21.52-20.09-28.89-8.59-6.64-18.28-11.84-27.41-17.8q-32-20.88-63.9-41.94c-4.28-2.83-7.71-3.32-12.14.09-8.09,6.24-16.53,12.05-25.15,17.53-3.22,2-5,4.11-4.32,7.78.65,3.44-1.17,5.29-3.71,6.95-8,5.19-15.86,10.43-23.8,15.66-2.78-1.83-5.42-3.68-8.17-5.35-3.8-2.31-7.44-5.64-11.57-6.51-10.13-2.12-14.25-8.24-12.71-18.34,1.07-7,4.37-14.5-1-21.45-.49-.65-.06-2.35.42-3.33,2.44-5,5.09-9.84,7.58-14.79,11.91-23.61,23.64-47.3,35.81-70.77,2.87-5.55,15.6-32.63,15.76-40.13,0-2.12-1.72-5.07-3.55-6.32-19-13-38.15-25.65-57.23-38.45-7-4.69-15.25-4.46-21.89.94S676.33,236,675.81,236.56c-2.34,2.32-4.56,4.79-7,6.93-12.07,10.37-24.29,20.58-36.32,31-9.87,8.54-19.6,17.26-29.3,26-1.82,1.64-3.21,3.74-5.34,6.28a14.27,14.27,0,0,1-4.12-1.32c-9.28-5.8-18.52-11.65-27.65-17.67-12.29-8.1-24.44-16.42-36.74-24.51-3.12-2.05-6.87-3.45-9.83,0a44.12,44.12,0,0,0-5.54,9.08c-3,6.11-5.47,12.55-8.9,18.42-1.7,2.91-4.42,6.79-9,3.88-5-3.18-9.51-7.19-14.73-9.9A17.62,17.62,0,0,0,470.54,283c-3.43.68-6.41,3.65-9.59,5.6-9.78,6-19.52,12.09-29.36,18-7.88,4.73-11,11.86-12.54,20.69-1.19,6.68.07,14.44-5.68,19.81-2.74,2.56-6.15,4.4-8.89,7-3.46,3.22-5.83,3.72-10,.18-9-7.71-13.81-7.87-21.08.07-2.91,3.18-5.28,6.84-7.93,10.26-6.25,8.09-45.82,66.19-46.85,67.41-4,4.71-8.28,9.18-12.49,13.71-4.91,5.28-6.48,11.53-5.5,18.55.71,5.14,1.39,10.28,2.07,15.32-5.3,2.6-10.33,5.17-15.45,7.55-9.64,4.48-19.62,8.34-28.93,13.43-8.95,4.88-39.59,18.93-45.65,21.82-12,5.71-24,11.45-35.7,17.72-7.78,4.16-9.64,15.8-3.62,20.38,10.32,7.86,20.89,15.4,31.39,23,4,2.93,8.19,5.71,12.31,8.53,10,6.83,17.16,17.77,31.67,17.57,9.51-.14,28.73-6.76,29.94-7,13.34-2.69,26.72-5.18,40-8,18-3.87,35.94-8,53.92-12a5.85,5.85,0,0,1,3.65.62c11.1,5.83,16.76,16,20.88,27.12,1.15,3.11,7.4,36.12,7.89,40.8.64,6.09,1.66,12.16,2.05,18.26a6.23,6.23,0,0,1-2.53,4.66c-15.89,10.39-31.94,20.52-47.88,30.82-14.62,9.45-29.16,19-43.72,28.53-16.67,10.89-33.28,21.86-50.06,32.57-1.57,1-4.17.42-6.3.51-3.63.15-8-1-10.77.6-11.48,6.61-22.33,14.33-33.76,21.06-4.33,2.55-4.64,6-3.69,9.58.58,2.19,3.31,3.92,5.29,5.6,13.54,11.41,27.06,22.85,40.73,34.11,15.59,12.85,31.39,25.44,47,38.3,11.95,9.85,26.25,13.59,41,16.08,11.17,1.88,22.45,3.09,33.64,4.83,12.4,1.93,24.76,4.18,37.15,6.21,11,1.79,22,3.45,33,5.19,12.24,1.93,24.46,4,36.71,5.8,11.22,1.67,22.49,2.94,33.69,4.68,12.4,1.94,24.72,4.41,37.13,6.29,16,2.43,32.11,4.27,48.1,6.78,23.39,3.66,46.73,7.68,68.16,11.23,2.92,4.65,4.41,9.2,7.55,11.65,18.69,14.62,37.8,28.71,56.69,43.06,14.77,11.22,29.38,22.64,44.17,33.81,4.25,3.21,8.55,7,13.45,8.57,10.17,3.36,20.77,5.38,31.14,8.14,2.7.72,25,5.54,33.27,7.63,12.26,3.1,24,8.21,36.08,12.07,24.19,7.71,48.47,15.14,72.71,22.71,11.57,3.61,23.11,7.28,36,11.34-4.21,1.48-7.05,2.45-9.85,3.48-12.39,4.56-25,8.69-37.06,13.92-5.82,2.52-10.12,3.76-14.9-1.55a4.63,4.63,0,0,0-8.26,2.52c-.75,6.47-.6,13-1.25,19.53-.57,5.83,1,10.23,6.34,13.16a16.56,16.56,0,0,1,5.07,4c6.28,7.89,15.51,7.17,23.82,7.42,6.38.19,12.79-2.91,19.28-3.57,15.36-1.56,30.78-2.47,46.16-3.77,7-.59,14-2,21-2.08,11.39-.15,33.74-7.66,50.4-3.09,7.34,2,50.8,12.8,61.1,12.78,6.09-.25,47.86-1.86,57.26-3.4,4.7-.77,12.06-.61,16.7-3.72a5.1,5.1,0,0,1,3.27-1.5c5.6-.49,11.22-.72,16.83-1.18,8.47-.68,17-1.24,25.39-2.3a25,25,0,0,0,15.21-7.06c8.63-8.45,18.29-15.76,28.06-22.86,10.76-7.82,16.65-16.91,13.54-30.68a62.3,62.3,0,0,1-1.1-17.88c1.07-15,2.83-29.84,4.22-44.77.64-6.85.74-13.77,1.69-20.58C1344.85,1001.58,1344.63,995,1341.16,988.63Z" fill="none" stroke="#000" stroke-linecap="round" stroke-linejoin="round" stroke-width="8"/></g><g id="_2nd_colour" data-name="2nd colour"><path d="M734.54,370.57l62.72-115.7v-11l-65.82-42.43L715.11,208,596,310.66l132,95.27Zm143.84,82.78,2.51,4.85-31.56,22.93,82.58,57,12.76,3.47,1.09-3.91,5.87-68.37-8.44-18.78-14.38-10-91.95-60-29.7,21.84,1.62,3.49Zm-9.54,133.88-59.62,41.55,47.07,37.51,3,6.42a4.39,4.39,0,0,0,6.51,1.71l60.5-42.8L899,607.44Zm-21.35-54.92L875,548.25l42.12-15.15-110-76.62-7.45-3.13-5.25,3.13Zm54.85,178.74L920.46,722l37.12-6.08,36.13-34.29-27-22.08-69,46.48Zm441.51,285.31-21.52-37.75-14.52-28.05,3.88-48-9.59-21.48-19.81-13.35-29.63,55.92,37.22,51.83,17.93,37.06V1003l-70.09-91-14.89,10,33.94,50.89v5.37l-54.23,45-8.55,5.26v-10.39l-33.56-32.26-12.27-3.36-18.41,15-92.69-4.84-2.2,10.41-3.4,4.28-37.77-10-48-13.07-64.78-136-5.9-3.77-85.43,3.41-9.06,1.68-67.91,51.13L697.77,890l84.09-63.7,5.74-7.53L646.34,712.65l31.75-20.41,14.67-16-1.1-5.87,12.1-16.7L972.9,810.08l9.07-5.29-18.61-21L701.93,590.13l-18.34-57-31.67-33.3L665,485.3l46.89,29.89,21.52,5.08,6.77-16.5-22.31-26-20.66-40-13.66-10.56-52.4-15.34L603.23,380.6,531,322.22l-47-31.3-6.92,8.89-20.75,13-8.68,3.28-16.32-3.28-4.66,8.23,12.38,36.08L458,373.67l10.27,6.93,53.62,36,40.33,26-27.42,17-155.54-107-49.5,71.09-25.3,29.64v28.72l-108.53,51L175,544.89l-.34,9.63L231.19,600l34.86,3.51,126.14-29.82,51.52-10.56,17.71-2.83,8.77,5.8,29.79.56L486,590.4l-10.4,14.94-2.45,26.28-2.57,10.6-6.23,6.6-29.21,21.51L427.29,706l-4,24.88v9.62l17.33,16.32-89.93,62.34-12.47,8.3-13.93-4.61-59.77-48.78-13.93-5.88-25.89,16.87,101.42,77.27,355.53,53.17-7,8.16,1.13,27.09,114.53,82.78,60.14,16.92,162.43,49.94-63.71,23.82-11.82-3.71-3.54,1.89,2.61,27.77,10.83,7.41,14.67,2.49L1089,1146.93l72.69,14.63,69.78-6.35,56.77-7.1,48-40.28.37-11.46-1.84-9.54,4.16-39.11Z" fill="#575757"/></g><g id="Paint"><path d="M806.52,867.66,785.46,869l-36.23,25L732,882.53l-26.27-15v-8L573,771.36l-1.2,23.43,6.33,9.36,107.13,71.46,27.37,28.08,37.52,26.87,12.71-23.82,43.3-26.4-3-7.42,9-.13,17.89,2.9,15.51,4.65,46.89-3.48-7-14.6Zm416.3,54.25h0l6.16-4.07-93.77-154.41L1100,722.92s-3.74,4.21-5.8,4.38-7,5.62-7,5.62l40.43,39.49,83,132.16,8.53,12.18a.29.29,0,0,0-.16,0c-1.93,1.25-45.12,38.73-45.12,38.73l-11,3.09h-27.67l-39.28-63.67-60.43-61-38.82-23.91-8.25-5.29L982,815l43.36,28.71s51.81,59.47,53.13,63,52.59,88,52.59,88l15.62-12.42,21.93-2,17.47-5.45L1229.93,938S1226,928.22,1222.82,921.91Z" fill="#eaeaea"/></g><g id="Canopy"><path d="M1314,1076.89c-1.11-5.67-19.56-38.33-21.11-40.78s-9.45-9.44-12.22-9.89-9.69,5.65-12.45,7.34c-4.55,2.77-10.55,7.66-11.38,16-1,9.76-7.84,6.65-10.06,6.65s-13.78,5.89-11.78,9,56.56,41.89,59.67,42.56,8-5.45,14.77-11.22S1315.11,1082.56,1314,1076.89Z" fill="#82b3d1"/></g><g id="Shadows" opacity="0.2"><path d="M1299,1108.28c-12.47,1.28-64.71-12.53-64.71-12.53L1071.45,909.49,1022.52,846l-51.83-31.4,9.69-4.56-19.51-15.29S648.57,575,634.29,566.86c6.87,2.51,65.78,21.86,65.78,21.86l-20.16-57.19S597.67,477.8,596,477.8s-22.28-19.9-22.28-19.9l-4.53-17.37-2.38-25.83L425.18,316.11l-4.07,21.38-22.42,23.17-18.56-12-45,63.25-28.2,38.57-2.48,7.45v24.17l51.28-23.87,178.79,83.53,4.16,22.36L473.49,568l-15-9.22-80.36,17.82,15.16,13.85,16.62,88.86L273.05,762.48l177.47,146,44,6.36L669.19,938l8.27,16,112.83,82.74,57,12.78,173.66,51.58-66.85,17.64,51.64,40,84.13-8.62,61,14.33h51.73l66.13-14.33,20.29-21.11S1311.45,1107,1299,1108.28ZM629.92,409.39,740.19,485.3l68.59,15.5,1.37-10.55-22.25-36.9L695.7,383,521.89,265.62l-19.66,36.59,106,75.58Zm309.23,707.84-5.36,5.17v27.77l11.89,9.9,19.2,3.79-4-16.77ZM1302.1,861.12l-19.81-13.35-7.08,13.35L1311.5,885ZM1199,1028.46l16.47,21.11,41.37,34.45,29.5,20.84h8.37l1.58-26.44-39.45-30.7-8,9.9L1209.76,1017Zm0-3.08,10.76-10.57-3.42-10.87L1086.61,825.4l-19.06,11.27,127.22,178.14Z" fill="#111"/></g><g id="Outline"><path d="M1341.16,988.26c-6.78-12.47-13.27-25.11-19.91-37.67-2.69-5.08-5.68-10-8.15-15.2a27.46,27.46,0,0,1-2.57-8.85c-.28-2.6.6-5.32.87-8q1.11-11.34,2.11-22.67c.4-4.49,2.46-9.84.74-13.31-5.81-11.76-8.69-25.84-22.38-32.26-2.42-1.13-4.52-2.93-6.78-4.39-4.44-2.86-5.94-2.17-7.93,2.78-1.69,4.2-1.49,8.51-4.81,12.89-7.85,10.36-13.51,22.37-20.52,34.51-2.32-7.71-13.47-24.64-14.09-25.73q-10.5-18.18-20.76-36.51a5,5,0,0,1-.27-2.2c0-2.16.77-4.67-.08-6.41-6.73-13.92-13.83-27.65-20.67-41.52-2.14-4.34-57.43-86.07-69.28-99.28-8.77-9.79-16.62-20.4-24.9-30.63-2.78-3.43-5.87-2.55-8.37-.73-7.88-7.87-15.77-15.35-23.16-23.29-4-4.31-15.63-12.77-20.87-16.37a4.19,4.19,0,0,1-.87-1.35c-4.47-7.89-9.24-15.62-13.34-23.69-7.21-14.18-14-28.58-21-42.87-3.06-6.21-6.26-12.34-9.37-18.53-4.27-8.46-6.13-18.49-14-24.66a239.88,239.88,0,0,0-25.26-17.41c-6.79-4.05-10.16-9.91-11.51-17.05C951.67,455.12,943.5,446.34,934,439c-8.59-6.64-18.28-11.83-27.41-17.79q-32-20.9-63.9-41.95c-4.28-2.83-7.71-3.31-12.14.1-8.09,6.23-16.53,12.05-25.15,17.52-3.22,2-5,4.12-4.32,7.78.65,3.45-1.17,5.29-3.71,6.95-8,5.19-15.86,10.43-23.8,15.66-2.78-1.82-5.42-3.67-8.17-5.35-3.8-2.31-7.44-5.64-11.57-6.5-10.13-2.13-14.25-8.25-12.71-18.34,1.07-7,4.37-14.51-1-21.46-.49-.64-.06-2.35.42-3.32,2.44-5,5.09-9.85,7.58-14.8,11.91-23.6,23.64-47.3,35.81-70.77,2.87-5.55,15.6-32.63,15.76-40.12,0-2.13-1.72-5.07-3.55-6.33-19-13-38.15-25.65-57.23-38.45-7-4.69-15.25-4.46-21.89.94s-13,11.53-20.1,16.51c-6.82,4.8-25.69,21.73-28.18,23.88-12.07,10.36-24.29,20.57-36.32,31-9.87,8.55-19.6,17.26-29.3,26-1.82,1.63-3.21,3.74-5.34,6.27a14.51,14.51,0,0,1-4.12-1.31c-9.28-5.8-18.52-11.66-27.65-17.68-12.29-8.1-24.44-16.42-36.74-24.5-3.12-2.05-6.87-3.46-9.83,0a44.19,44.19,0,0,0-5.54,9.09c-3,6.1-5.47,12.54-8.9,18.41-1.7,2.91-4.42,6.79-9,3.88-5-3.18-9.51-7.19-14.73-9.9a17.64,17.64,0,0,0-10.75-1.8c-3.42.67-6.4,3.64-9.58,5.59-9.78,6-19.52,12.1-29.36,18a23.57,23.57,0,0,0-7,6.22c-3,4-4.59,8.91-5.58,14.46-1.19,6.68.07,14.44-5.68,19.81-2.74,2.56-6.15,4.41-8.89,7-3.46,3.22-5.83,3.72-10,.17-9-7.71-13.81-7.86-21.08.07-2.91,3.18-5.28,6.85-7.93,10.27-6.25,8.08-45.82,66.18-46.85,67.4-4,4.71-8.28,9.18-12.49,13.71-4.91,5.28-6.48,11.53-5.5,18.55.71,5.14,1.39,10.29,2.07,15.33-5.3,2.59-10.33,5.16-15.45,7.54-9.64,4.49-19.62,8.34-28.93,13.43-8.95,4.89-39.59,18.94-45.65,21.82-12,5.71-24,11.45-35.7,17.72-7.78,4.17-9.64,15.8-3.62,20.39,9.29,7.07,18.77,13.88,28.23,20.73,5.11,3.7,10.3,7.27,15.5,10.84,9.95,6.83,17.14,17.76,31.64,17.55,9.51-.14,28.73-6.76,29.94-7,13.34-2.68,26.72-5.17,40-8,18-3.86,35.94-8,53.92-12a5.78,5.78,0,0,1,3.65.63c11.1,5.82,16.76,16,20.88,27.11,1.15,3.11,7.4,36.12,7.89,40.8.64,6.1,1.66,12.16,2.05,18.26a6.26,6.26,0,0,1-2.53,4.67c-15.89,10.38-31.94,20.51-47.88,30.82-14.62,9.44-29.16,19-43.72,28.53-16.67,10.89-33.28,21.85-50.06,32.56-1.57,1-4.17.42-6.3.51-3.63.16-8-1-10.77.6-11.48,6.62-22.33,14.34-33.76,21.06-4.33,2.55-4.64,6-3.69,9.58.58,2.19,3.31,3.92,5.29,5.6,13.54,11.42,27.06,22.85,40.73,34.11,15.59,12.85,31.39,25.44,47,38.3,11.95,9.86,26.25,13.59,41,16.08,11.17,1.88,22.45,3.09,33.64,4.83,12.4,1.94,24.76,4.19,37.15,6.21,11,1.79,22,3.46,33,5.19,12.24,1.94,24.46,4,36.71,5.8,11.22,1.67,22.49,2.94,33.69,4.69,12.4,1.93,24.72,4.4,37.13,6.28,16,2.43,32.11,4.28,48.1,6.78,23.39,3.66,46.73,7.69,68.16,11.24,2.92,4.64,4.41,9.19,7.55,11.64,18.69,14.62,37.8,28.71,56.69,43.07,14.77,11.21,29.38,22.63,44.17,33.81,4.25,3.21,8.55,7,13.45,8.57,10.17,3.36,20.77,5.37,31.14,8.13,2.7.72,25,5.55,33.27,7.63,12.26,3.1,24,8.22,36.08,12.07,24.19,7.71,48.47,15.14,72.71,22.71,11.57,3.61,23.11,7.28,36,11.34-4.21,1.49-7.05,2.45-9.85,3.48-12.39,4.57-25,8.69-37.06,13.93-5.82,2.52-10.12,3.76-14.9-1.56a4.63,4.63,0,0,0-8.26,2.52c-.75,6.47-.6,13-1.25,19.53-.57,5.83,1,10.24,6.34,13.16a16.71,16.71,0,0,1,5.07,4c6.28,7.9,15.51,7.17,23.82,7.42,6.38.2,12.79-2.91,19.28-3.57,15.36-1.56,30.78-2.47,46.16-3.76,7-.59,14-2,21-2.09,11.39-.15,34.79-6.32,47.58-3.22,52.11,12.61,57.45,14.68,76.91,13,9.49-.8,37.31-1.78,46.7-3.32,4.7-.78,10.81.43,14.27-3.93a5.1,5.1,0,0,1,3.27-1.5c5.6-.5,11.22-.73,16.83-1.18,8.47-.69,17-1.25,25.39-2.31a25.13,25.13,0,0,0,14.4-6.29c9.36-8.45,19.18-16.46,29.32-24,10.48-7.74,16.15-16.78,13.09-30.35a62.28,62.28,0,0,1-1.1-17.88c1.07-14.94,2.83-29.84,4.22-44.76.64-6.86.74-13.78,1.69-20.58C1344.85,1001.21,1344.63,994.66,1341.16,988.26Zm-15.35-11.06c6-.81,8,3.21,8.25,9.54h-23.84l-4.13-7C1311.77,979.23,1320.71,977.89,1325.81,977.2Zm-105.6,118.19c-16.83-18.05-33.1-36.63-49.69-54.93-9-10-18.31-19.74-27.4-29.68-3.78-4.14-7.39-8.43-11.15-12.59,3.36-2.47,10.31-7.17,13.33-9.43,5.62-4.21,10.35-3.92,15.18.9,9.46,9.46,19,18.84,28.31,28.45a9.13,9.13,0,0,1,2.55,6.07c-.26,4.12,1.31,6.81,4.21,9.44,17.25,15.62,33.83,32,51.76,46.83,12.36,10.19,26.41,18.39,40,27,3.2,2,7.66,2,11.64,3-7.36,10.32-17.73,10.85-28.64,9.6-8.59-1-17.21-1.82-25.75-3.14-8.81-1.37-17.55-3.25-27.34-5.1a35.74,35.74,0,0,1,3.7-3.51C1226.84,1103.45,1225.69,1101.27,1220.21,1095.39Zm-188.35-57.09c5.57,1.41,7.48,1.75,16.77,4.26,8.1,2.18,9.35.75,18,10,.47.5,2.79,2.65,3.28,3.31,5.16,5.34,12.6,9.54-10.08,4l-20.14-4.77C1043.1,1046.7,1033.74,1044.1,1031.86,1038.3Zm31.16,1.37q-11.6-11.87-23.5-23.44c-.85-.84-2.85-1.56-3.67-1.12s-1.53,2.36-1.53,3.63c0,1.43.86,2.85,1.78,5.56-24.09-6.4-47.52-12.74-71-18.77-2.85-.72-7.83-9.3-11.48-16,21.68,7.78,69.36,18.91,72.83,19.47,3.7.6,7.15,1.68,9.35,0,1.66-1.37,1.15-7.24,1.37-9.63.15-1.63.8-3.9,5.86-4.86,3.33-.64,79.22,4.07,80.55,4.16a0,0,0,0,0,0,0c4,4.94,8.48,9.47,12.79,14.16,17.26,18.72,34.57,37.4,51.75,56.2,8.81,9.64,17.41,19.47,26,29.32,1.17,1.33,3.37,3.67,2.41,4.94-1.42,2.09-5.26,6.68-6.92,6.25-26.29-6.86-55.39-12.63-59.7-13.61-12.57-2.86-25.13-5.75-37.63-8.89-2-.49-3.76-2.12-5.3-3.58-8.64-8.13-17.29-16.26-25.7-24.62C1075,1052.65,1069.18,1046,1063,1039.67ZM608.41,818.16c-7.63-5.71-15.18-11.52-22.73-17.32a5.82,5.82,0,0,1-2.19-2.38c-1.77-5.85-3.35-11.76-5.4-19.13,6.29,4.33,10.69,8.74,16,10.7,8.48,3.13,14.34,4.08,26.42,6.54,7.29,1.49,35.88,8.29,40.33,10.13,6.85,19.41,16.61,46.93,24.38,68.91C658.75,855.82,633.56,837,608.41,818.16Zm59.81,73.05C647.11,874.59,652.59,871,652.59,858,673,872.92,669.3,877.31,668.22,891.21Zm-22.31-18.29c-14.26-10.58-18-12.32-14.26-29.92,2.37,1.67,7.7,5.34,10.33,7,5.31,3.3,4.5,10.49,4,15.25A70.45,70.45,0,0,0,645.91,872.92Zm-21.8-17.09c-17.52-11.47-14.56-17.63-12.75-28.36,3,1.72,7.44,5.87,12.75,9.57,2.59,1.81,1.42,5.11,1.08,8.91C625,848.35,623.56,852.2,624.11,855.83Zm-198.38-127c4-17.45,7-35.12,10.39-52.68.13-.67.49-2.77,1.26-2.12,10.3,7.58,20.7,15.13,31,22.84,10.94,8.19,21.73,16.57,32.65,24.78,14.21,10.67,28.36,21.44,42.81,31.79,4.83,3.46,3.13,8.38,4,12.56,2.85,13.49,5,27.13,7.34,40.73,1.72,10.08,3.32,20.19,4.89,30.29a21.39,21.39,0,0,1-.31,4.3c-10.45-7.89-20.31-15.29-30.13-22.75q-16.3-12.4-32.57-24.87-23.55-18-47.1-36.06c-5.71-4.36-11.29-8.94-17.33-12.8S424,736.59,425.73,728.87Zm-2.08-20.65c-1,5.83-2.44,11.6-3.7,17.48-2.88-1.49-5.94-3.11-9-4.64-4.61-2.27-2.81-9.4-2.22-13.22,2.38-15.57,5.82-29.89,8.58-44.9.86-5.47,4.71-10.1,5.73-10.81,7.35-5.1,14.86-10,22.56-14.57,1.17-.69,3.94.36,5.43,1.38,3.54,2.41,6.76,5.3,10.43,8.25-9,5.89-18.38,12-27.67,18.18-1.35.9-3.05,2.28-3.31,3.67C428,682.07,426,695.17,423.65,708.22Zm127.84,40.06a5.1,5.1,0,0,1-4.51-.44Q494.29,708.53,441.74,669c-.14-.1-.2-.3-.53-.82C449.26,663,457,657.84,464.89,653a5.06,5.06,0,0,1,4.55,0c11.63,8.43,23.1,17.09,34.63,25.66q12.77,9.48,25.6,18.87c9.25,6.79,18.68,13.37,27.68,20.48,1.74,1.38,2.09,4.75,2.7,7.29,1.18,4.84,2.09,9.76,3.2,15.07C559.5,743,555.63,745.85,551.49,748.28ZM441.66,505.67q-7.37-12.41-14.8-24.76c-1.14-1.89-3.38-3.17-5.24-4.56-5.61-4.2-39.92-19.76-49.26-23-.74-.25-2.86-.73-7.25-.34-1.83.09-2.9-1.25-3.91-3.25-4.71-9.26-2.93-14,7.39-20.36,5.34-3.3,10.29-7.22,15.68-10.41,1.56-.92,4.61-1.13,6-.21,7.78,5.15,14.89,11.4,22.92,16.08,34.31,20,64.59,45.75,97.73,67.42,15,9.82,29,21.26,43.47,31.92a26.15,26.15,0,0,0,3.13,1.91,1.76,1.76,0,0,1-.87,3.29c-10.52.44-53.16,3.05-70.66,4.3a132.71,132.71,0,0,1-19.23-.08c-1.76-.14-3.84-2.37-4.92-4.16q-10.12-16.82-20.12-33.71a.22.22,0,0,1,0-.08Zm80.68-91c-8.55-6-16.79-11.09-24.19-17.19-7-5.77-8.16-14.87-10.54-23.08a110.47,110.47,0,0,1-3-12.51c-.26-1.51.23-4,1.27-4.66s3.69-.54,5,.28c11.28,7.28,22.42,14.79,34,22.49C517.79,390.87,524.08,402.41,522.34,414.7Zm-25.62-12.26c3.31,2.94,55.91,36.69,60,39.63-3.77,2.47-7.59,4.55-10.88,7.28-2.73,2.25-4.76.95-7.07-.2a6,6,0,0,1-.87-.65c-6.9-5.08-62.5-41.64-69.66-46.92a7.65,7.65,0,0,1,1-1.29C482.78,391.11,484.17,391.31,496.72,402.44Zm73.43-38.37c-1.12-1.57-4.07-3.41-1.68-5.32.91-1,7.55,5.65,10.07,7.4,7.63,5.29,12.37,9.63,20.18,14.89a1.15,1.15,0,0,1,0,1.91c-9.19,6-18,11.95-27,17.62-9.64,6.1-12.13,12.5-8.79,23.55,1.29,4.26,2.54,8.53,3.62,12.85.22.87,1.45,5-.83,3.59-9.75-6.91-30.57-20.09-31.41-20.69-6.27-4.57-5.67-7.67-6.37-13.07a69.52,69.52,0,0,1-.6-15.67,29.54,29.54,0,0,1,2.23-8,2.59,2.59,0,0,1,2-1.57c2.4-.31,4.6-.67,6.21-.71a24.05,24.05,0,0,1,6.07.38c2.59.63,5,2.11,7.53,2.76,10,2.51,23.67-5.06,24-6.35C576.58,372.09,573.08,368.18,570.15,364.07Zm102.28,90.87c.75.55,38.37,28.1,53.31,38.05,2.57,1.72,3.77,2.81,3,6.27-.37,1.62,2.45,3.95,3.57,5.6-1,3.21-2.13,6.95-3.17,10.33-2.29-3.2-5.57-7.25-8.2-11.68-2-3.33-4-3.35-6.51-1.19-3.55,3.05-6.15,2.58-10.06-.32-8.73-6.49-18.26-11.88-27.32-17.94-5.67-3.8-11.28-7.74-16.54-12.07-1.72-1.42-7.14-4.62-13.68-8.27-8.71,6-24.43,16.81-30.42,21l-6.09-5.38c5.57-3.69,20.52-13.74,29.26-19.58-9.32-5.06-32.19-16.84-41.87-21.59l21.87-14.63c1.56,1.11,28.76,19.22,36.2,24.33,8-5.25,21.26-12.26,27.9-16.62a52.1,52.1,0,0,1,7.55,4.31c-6.15,4-12,7.73-17.81,11.51C670,449.26,667.86,451.58,672.43,454.94Zm45.45,9.6c6.84-5.28,7.28-5.09,33.33,13.9-2.26,3.48-4.14,5.11-8.57,1.89C734.71,474.57,726.12,469.72,717.88,464.54ZM698,514.05c-4.26,4.94-7.44,4.86-11.75,1.88-7.79-5.4-16-10.17-24.49-15.47l5.76-4Zm-122-84.6c-2.29-4.63-1.27-7.79,3.81-10.69,9.76-5.54,19-11.93,28.86-18.32a3.1,3.1,0,0,1,4.16.75c1.17,1.56,1.19,1.56,2.38,3.18,3.38,4.59,3.93,5.64,8.7,4.37a2.71,2.71,0,0,1,2.22.34l2.21,1.44L575.09,445c-.45-1.26-.87-2.48-1.33-3.77a1.33,1.33,0,0,1,.67-1.65C577.66,438.06,577.84,433.11,576,429.45Zm45.16-36.27c-1.66-2.77-3.23-5.58-5.65-9.8.09,0-27.55-21.16-31.2-23.64,10.64-7,12.43-9.67,22.44-2.94,2.19,1.47,24.71,17.31,27.29,19.15l23.34,15.62-25.29,16.72A76.61,76.61,0,0,1,621.19,393.18Zm-48.49,78c19.3,12.26,39.21,23.56,58.85,35.27,13.38,8,26.6,16.26,40.19,23.86,5.41,3,6.06,8.18,8,12.87,5.29,13.11,10.38,26.3,16,40.65-19.28-7-37.37-13.66-55.48-20.24s-36.29-13.17-54.44-19.75c-4.53-1.64-9.18-3.05-13.55-5.05-2.09-1-4.52-2.73-5.32-4.72-9.33-23.22-18.38-46.55-27.49-69.86a26.28,26.28,0,0,1-.73-2.61C551.28,460.63,562.12,464.45,572.7,471.17Zm321.46,334c-6.81.52-13.91,1.21-21,1.57-10,.51-20,.68-30,1.16-13.43.65-26.84,1.46-40.27,2.17-1.22.06-2.45,0-4.07,0a1.09,1.09,0,0,1-.78-1.84c6.39-6.82,12.17-13.06,18-19.19,4.32-4.51,5.84-9.35-1.59-15.83-5-3.81-12.77-9.49-15.86-11.92-7.64-6-12.52-5.6-19,1.46-6.85,7.52-13.69,15-20.43,22.66a19.91,19.91,0,0,0-2.35,3.77,1.74,1.74,0,0,1-2.58.58c-9-6.68-46.27-34.89-56.49-42.46,11.19-12,24-25.48,35-37.22a56.67,56.67,0,0,0,7.46,4.77c3.77,1.88,4.49,3,8,5,3.08,1.74,6.18,3.51,8.87-.73.61-1,2.94.54,4,1.17,20.94,12.88,41.74,26,62.59,39,6.35,4,12.79,7.79,19.14,11.74,4.64,2.88,9.2,5.21,11.92.67.77-1.28-.43-5.13-1.89-6.14-8.67-6-17.59-11.62-26.6-17.08-14.39-8.73-28.94-17.19-43.37-25.84-5.54-3.32-11-6.81-16.35-10.37a5.22,5.22,0,0,1-1.45-1.92,1.48,1.48,0,0,1,.42-1.88c.52-.4,1.19-.89,1.86-1.39a5.53,5.53,0,0,1,6.17-.31c40.09,24.2,141.64,83.76,141.85,83.35l22,12.87-32.23,1.77,0-.06C902.72,804.87,900,805,894.16,805.14ZM673.24,656.58c-5.14,2.8-8.47,8.92-12.76,13.75L646,659.83c4.79-7.38,7.53-11,1.66-15.2,1.53-.61,9.79-9.59,11.73-13,9,5.2,28.82,16.4,38.91,22.24l-8.65,8.79C684.91,659,679.52,653.16,673.24,656.58Zm14.38,20.63c-3.7,4.21-7.06,8.43-10.91,12.15-1,1-3.87,1-5.27.29-3.61-1.84-6.88-4.34-10.6-6.79l12.81-14.48Zm-37.57-45.68c-2.92,2.88-5.92,5.68-9.06,8.69-11-7.2-32.4-21.57-44.29-29.34-7-3.62-8.86,4.28-13.65,6.74-5.09-3.22-10.58-6.49-15.84-10.11-3.19-2.2-3.43-4.43-.65-8.08,3.55-4.66,6.83-8.33,10.48-12.28a4.33,4.33,0,0,1,4.06-.66c4.38,2.46,8.6,5.17,12.86,7.86.32-.15,53,29.88,54.92,30.77C652.68,626.88,652.74,628.88,650.05,631.53Zm-72.62-7.83c-.37,5.33-12.22,6.32-4.42,14.15l-9.36,11c-7.28-5.31-14.37-10.46-21.44-15.64-1.74-1.28-3.4-2.67-5.13-4-5.61-4.25-5.6-4.29-.89-9.21,4.53-4.73,9-9.51,13.84-14.66ZM575.75,652c6.65-7.3,6.76-7.47,14.42-2.35,7.9,5.27,15.56,10.9,23.3,16.4a7.59,7.59,0,0,1,1.25,1.38l-10.6,10.69L573,655Zm42.37,24.24c1.86-2,3.14-5.87,10.13-1.69.67.4,2.78-1.12,4-2.08,3-2.51,5.94-5.21,8.92-7.85l14.25,9.53c-3,3.49-6,7-8.91,10.55-3.3,4.08-1.81,4.42,3.58,8.46a70.43,70.43,0,0,0,6.29,4.57l-11.12,10.86c-9.7-7.26-23.14-16.11-33.9-24.15C613.73,681.46,615.79,678.71,618.12,676.2Zm47.76,28.58c8.35,5.3,14.45-2.25,16.75-5.33,4.65-6.24,10.4-11.68,15.9-17.25,1.4-1.41,9.08-8.13,6.85-9.56-1.46-.93-2.9-2-5-3.37l7.86-9.74c3,1.79,31.52,18.52,36.75,21l-56.37,60L655.1,715.75C658.89,712.07,661.3,708.41,665.88,704.78Zm97.5-5.38a3.4,3.4,0,0,1,1,2.22c0,.47-1.25,1.11-1.45,1.34-2.56,3-3.9,4.61-5.88,7.12-1.44,1.82-3.65,4.95-6.72,3-3.33-1.94-6.66-3.87-10.18-5.9,1.59-2.3,2.83-4.23,4.21-6.06C750.87,692.6,755.54,692.16,763.38,699.4Zm153.14,73c-5.28-3.25-9.44-6.26-14.52-8.79-9.08-4.53-17.76-9.89-26.56-15-12.71-7.35-25.36-14.81-38.09-22.13-13.16-7.58-26.4-15-39.58-22.58-16.28-9.34-32.68-18.51-48.72-28.25-5.13-3.11-26.67-15.22-29.11-16.64q-36-21.07-72.08-42.15c-.74-.44-57-32.12-64.72-37l3.1-4c3-3.76,1-6.23-2.75-9-2-1.49-2.88-2-7.21-4.13-1-3.75-2.28-8.86-3.72-14.47,19.42,7.12,38.32,14.08,57.24,21,23.16,8.45,46.37,16.77,69.48,25.36,2.75,1,5,3.38,7.45,5.17,17.68,13,35.41,25.85,53,38.92,18,13.4,35.91,27.07,54,40.47,12.55,9.31,25.35,18.27,37.93,27.54,23.31,17.16,46.52,34.44,69.81,51.63,13,9.6,26.33,18.81,39,28.8,5.65,4.43,10.13,10.36,15.14,15.61,2.27,3.15-3.14,1.69-4.23,1.07C953,793.48,934.45,783.43,916.52,772.38Zm-433.12-223c20.31-1.22,40.63-2.16,60.93-3.41,5.37-.33,10.69-1.43,16-2.05,2.67-.31,4.87-.26,5.37,3.58.56,4.39,2.11,8.65,3.4,13.58-1.69,0-64.6,1.09-83.39,1.51-3.24.07-6.45.79-9.69,1-4.76.35-9.07.4-12-5-2.39-4.42-7.28-2.15-10.8-1.39-15.37,3.31-30.64,7.11-46,10.67-1.16.26-3.18,0-3.76-.73-1.4-2.51,4.38-3.06,8.31-4,11.86-2.71,23.93-6.32,35.75-9.17,3.47-.83,9.71-1.86,13.17-2.43C468.27,550.44,475.85,549.85,483.4,549.39Zm27.83,23.73c3.65-4.44,7.39-5.33,12.49-5.14,6.24.23,39.79.37,48,1.3,3.21,2.09,6.91,4,6.42,4.59-5.37,6.43-16.2,18.41-21.82,25.11-2.79,3.33-8.6-7.05-11.49-4.09-.31.31-1.54,1.41-2.13,2.05-6.3,6.82-12.64,13.61-19.41,20.88l-32.5-24C497.75,586.92,505.12,580.54,511.23,573.12Zm11.33,52.13q20.88,15.5,41.65,31.17c12.08,9.07,24.1,18.22,36.22,27.25q21,15.66,42.16,31.15c3.5,2.58,7.18,4.91,10.94,7.46-2.77,4.29-5.34,8.26-7.89,12.19-10.54-8.64-70.21-56.57-89.58-70.88-12.14-9-24.41-17.76-36.57-26.7-13.6-10-27.15-20-41.1-30.35a35.84,35.84,0,0,1,1.45-3.31c3.58-6.35,3.69-6.48,9.66-2.19Q506.14,613,522.56,625.25ZM632.64,743.72c-6.1.9-11.12,2.12-16.18,2.29-10.82.36-21.67.64-32.47,0-6.37-.35-14.31-12.09-16.29-20.51-2.69-11.41,1.11-22,2.74-33.89,19.58,14.5,38.42,28.26,56.95,42.41C629.79,735.9,633.18,740.51,632.64,743.72Zm-72.52-49.4c-.93,4.38-2,8.32-3.06,13.77-6.65-5-13.22-9.6-19.34-14.75-1.39-1.17-1.88-4.3-1.62-6.38.71-5.66,1.95-11.26,3.19-16.84.15-.67.32-1.57.56-2.44a1.39,1.39,0,0,1,2.22-.71c2.57,2.12,8.22,6.07,13.89,10.52C564.46,683.5,561.8,686.41,560.12,694.32Zm-29.7-28.23c-.88,6.45-2,12.87-3.16,20.32-8-6-15.15-11-21.83-16.65-1.18-1-.53-4.49-.27-6.78.72-6.52,1.69-13,2.72-20.76,8.18,6.06,15.58,11.22,22.48,17C531.51,660.16,530.74,663.76,530.42,666.09Zm-51.54-44.41a1.43,1.43,0,0,1,2.3-.95c5.25,4.14,10.89,8.26,15.52,11.69,2.91,2,3.84,4.27,3,9-1.26,6.84-2.13,13.75-3.27,21.33-6.31-4.57-12.09-8.69-17.79-12.92-2.86-2.13-3.57-4.61-2.63-8.47C477.54,635,478,628.27,478.88,621.68Zm84.77,133.63c7.18-.45,14.35-.84,21.52-1.37,19-1.42,34.56-2.35,53.49-4.1,5.63-.53,10.82-8.05,12.77-11.91l7.17-12.1c35.89,27,87.88,65.94,123.26,92.6-2.58,3.13-3.57,5.35-6.6,4.4-6.38-2.52-59.67-17.12-61.6-17.54-22.21-4.84-87.88-19.36-88.9-19.58-8-1.71-16.41-2.61-24-5.56-7.91-3.08-30-18.35-37.5-23.46A.76.76,0,0,1,563.65,755.31ZM675.34,876.37c6.59,5.18,12.84,9.81,20.17,16.5-2.6,3.2-7.23,8.28-9.28,10.82C671.49,894.15,674.75,884.43,675.34,876.37Zm-2.68-68.72c26,5.85,70.44,15.65,97.12,21.64a1.1,1.1,0,0,1,.43,2c-19.88,15.3-55.33,40.6-73.46,53.19C689,860,679.87,829,672.66,807.65ZM756.56,856c6-4.33,12.18-8.42,17.61-13.37,5.64-5.14,12.48-6.31,19.35-7.11,8.11-.94,16.34-.79,24.51-1.25,18.49-1.06,37-2.1,55.45-3.45,1.6-.12,3-2.54,4.55-3.72,1.83-1.37,3.75-3.57,5.72-3.66,20.37-1,40.77-1.51,61.15-2.41,10-.44,20-.67,29.76-2.47,4.82-.89,9-5.11,14.37-8.33,13.34,6.63,29,13,42.93,21.95,6.51,4.17,8.09,2.84,13.35-1.19,1.27-1,6.21-4.56,7.48-5.71,3.06-2,4-3.52,7.21-2.35,2.59,1.09,8.2,7.19,7.55,13.77-.29,2.88,6.55,4.4,9.7,2.28,2.83-1.9,5.58-3.93,8.25-6.06s1.94-8.32-1.21-11.79c-2.09-2.3-4.44-4.37-6.59-6.62-2.88-3-2.44-5.89.71-8.37,4.65-3.68,9.23-7.5,14.16-10.78a45.62,45.62,0,0,1,10-5.36c1-.4,3.35.41,4.05.92,3,2.6,6.22,5.11,5.86,10.48-.31,4.65,6.13,5.24,11.19,2.36a20,20,0,0,0,2.52-1.77c7-5.71,6.86-8.34,2-13.78-2-2.17-3.19-5-4.77-7.4-1.35-2-4.09-6.32-2.48-7.15l1.41-.66a1.68,1.68,0,0,1,2.13.61c43.34,67.58,86.68,135.17,130.58,203.61-2-.13-3.26.15-3.63-.29-4.23-5-7.21-1.9-10.76,1.12-6,5.13-12.53,9.68-18.61,14.75-3.59,3-8.62,5.56-5.47,12,.39.8-1.08,2.94-2.16,4-5.16,4.84-10.49,9.51-16,14.51-1.85-9.7-9.51-14.44-15.71-20.52-5.51-5.4-8.61-7.93-12.31-12.15-6.57-7.51-11.34-11.13-19.82-10.86-4.3.14-11.74,5.15-14.8,8.25a67.24,67.24,0,0,1-7.63,6.27c-6.85-.66-90.87-6.22-93.16-2.78s-3.3,9.18-2.78,11.58c1,4.61-81.64-20.11-84.29-22.69S885.49,850.84,884,847.86c-1.93-3.81-4.4-6.33-8.31-6.33s-87.51,3.89-92.32,5c-4.56,1-56.43,39.58-70.89,51.18l-6.76-5.06C723.11,880.07,739.86,868.06,756.56,856Zm512.86,172.8c-2.78,1.57-5.09,4-7.47,6.23-3.86,3.56-8.67,6.28-8.2,13,.14,2-3.16,4.2-5,6.4-5.09-5.53-15.76,6.19-16.53,5.47-7.37-6.93-33.37-28.73-29.28-33,0-.5,3.86-3.06,3.86-3.57,10.92-9.46,21.74-19,32.8-28.35,5.07-4.26,10.68-7.86,15.89-12,2.56-2,3.81-1.58,5.43,1.19,6.42,11,13.08,21.8,19.65,32.69,1,1.69,2.72,4.51,4.17,6.9a.56.56,0,0,1-.68.81C1277.75,1022.05,1273.71,1026.33,1269.42,1028.77Zm9.88,11.49c-6.07,6.8-9.42,10-19.3,5l19.79-16.8A9.4,9.4,0,0,1,1279.3,1040.26Zm-9.58,36.52a.92.92,0,0,1-.74,1.63c-5.65-1-11.65-1.24-16.7-3.55-5.32-2.43-9.6-7.17-14.37-10.92,6.27-5.5,9.22-5.39,15.34-.26C1258.63,1068.18,1264.21,1072.43,1269.72,1076.78Zm25,28.08-26.11-17.71a.46.46,0,0,1,.34-.83c3.58.68,5.24,1,8.85,1.82s6.74-.53,7.64-3.41c.65-2.08-.62-5.87-2.36-7.38-8.34-7.22-17.11-14-25.75-20.85a1.29,1.29,0,0,1,1-2.27c14,2,25.43-.93,30.27-17.14,1,1.83,1.45,2.77,1.94,3.73,4,7.77,7.87,15.65,12.15,23.29,2.39,4.27,5.76,8,8.19,12.25a13.67,13.67,0,0,1-2.44,16.56c-2.33,2.26-4.94,4.23-7.4,6.35C1298.78,1101.23,1296.56,1103.22,1294.71,1104.86Zm5-67.92c-9.53-18.83-21.05-36.7-32.3-54.62-10.2-16.24-21.21-32-31.85-47.93-1.67-2.5-3-5.33-5-7.52-3.07-3.35-1.18-5,1.55-6.84,1.8-1.21,3.4-2.71,5.46-4.4,7.28,9.31,14.72,18.59,21.89,28.06,15.42,20.34,30.67,40.8,46,61.18,4,5.33,20.41,27.42,23.92,33.63s3.83,8.86,4.15,20.34c.14,4.93.37,6.7-.85,15.89-1.36,10.18-4.11,12.17-10.3,16.92C1318.18,1071.88,1308.53,1054.45,1299.67,1036.94Zm17.24-82.76c-7.91,2.57-12,2.67-21.25,4.43-8.71-12.7-18-26.18-27.44-40,4.62-1.94,8-1.35,11.69,1.42,8.16,6.11,17.31,11,25,17.62C1309.78,941.84,1312.75,948.27,1316.91,954.18Zm-34.08-101.5c19.24,10.86,18.9,14.05,22.09,24.06-5.27-3.49-17.64-11.28-22.5-15.25C1281.19,860.48,1282,855.79,1282.83,852.68Zm-25.17,46.1c3.49-6.23,7-12.46,10.62-18.59,2.81-4.73,5.87-9.31,8.93-14.14l30.6,20.72c-1,3.62-2.86,21.73-2.89,22-.69,5.28,0,14.44-1.29,16.91-.51,1-4.67-1.93-8.83-3.77-7-4-13.24-7.83-19.71-11-1.81-.9-4.57-.39-6.76.08-2.76.59-5.44,2.12-7.44-1.27S1255,903.47,1257.66,898.78Zm-19.8-11c23.1,32.83,46.88,64.31,64.24,99.79a.7.7,0,0,1-1.18.73c-5.26-6.79-10.53-13.58-15.73-20.42q-18.6-24.47-37.1-49c-2.16-2.87-4.3-5.75-6.39-8.68-.39-.55-.82-1.45-.62-2,2.24-6.11-.95-11.08-3.17-16.3C1237.52,891,1231.94,880,1237.86,887.77Zm-131.17-202c5.9,2.6,12,4.83,17.64,7.91,3.53,1.92,6.31,4.93,5.73,9.9-.29,2.57.56,5.33,1.15,7.94,3.2,14.31,6.06,28.71,9.93,42.84,1.46,5.33,4.91,10.26,8.1,14.94,8.34,12.26,16.94,24.33,25.53,36.42,4.21,5.92,8.11,12.07,12.54,17.83a2.22,2.22,0,0,0,.93.65,3.51,3.51,0,0,0,4.79-3.31,2,2,0,0,0-.29-1.05c-4.84-7.12-10.06-14-15.19-20.93-2.26-3.06-4.12-6-1-9.71a3.46,3.46,0,0,0,.52-2.52c-.4-2.43-.93-4.83-1.54-7.7a.89.89,0,0,1,1.3-1c7.67,4.24,11.16,9.66,9.3,18a2.63,2.63,0,0,0,.57,2c15.47,17.72,24,39.25,33.49,61.2-4.92,2.67-4.55,6.18-2.38,10.82,5,10.74,9.21,21.88,14.2,32.64,3.26,7,3.5,7.53-2.48,11.74-1.46,1-3,2-5,3.47-4.24-6.66-8.52-13.43-12.86-20.16-12-18.52-24.06-37-35.91-55.56-9.53-14.93-18.68-30.1-28.19-45-8.5-13.36-16.84-26.81-28.3-38.06-8.7-8.54-16.58-17.89-25.29-27.39,8.5-4.64,6.3-11,4.15-17.67-3.88-12-7.47-24.14-11.46-37.14C1093.89,680.05,1100.28,682.9,1106.69,685.73Zm-25.88-36.35c7.16,6.63,11.09,15.1,15.13,23.84-11.57-2.22-15.36-8.63-17.48-22.42C1078.07,648.24,1080.09,648.71,1080.81,649.38Zm-13.66-11.69c4.32,13.93,22.49,70.58,27.07,85.36l-4.52,4.25c-5.23-16.39-24-74.39-28.92-90C1059.73,633.57,1065.6,633,1067.15,637.69Zm-21.27-7.8a1.85,1.85,0,0,1,2.38,1.18c4.87,15,9.56,29.54,14.26,44.06-.22.43,11.37,33.34,15,44.09a.84.84,0,0,1-1.34.9c-9.16-7.87-35.58-33-41.89-38.27-5.61-4.21-23.16-20.43-24.8-21.56-5.45-3.77-14.78-11.78-19.93-16-4.68-3.79-12.09-10.65-16.68-14.55-4.22-3.58-30.49-28.1-38.64-35.45a1.42,1.42,0,0,1,.45-2.4c2.49-.95,6.43-2.36,7.82-3a1,1,0,0,1,1,.14c7.32,6,33.83,29.74,40.12,34.51,8.16,6.17,13.27,9.94,22,16.76,4.28,3.33,9.29.62,17.09-1.8C1030.75,635.79,1037.9,632.75,1045.88,629.89ZM866.24,510.42c3.36-1.28,7.76-2.58,10.74-1.41,3.9,1.54,7.22,4.53,10.76,7.31a1.34,1.34,0,0,1-.44,2.33,72.76,72.76,0,0,0-8.75,3.52c-6.54,2.86-18.31,10.93-24.69,7.67-1.56-.8-7.36-4.69-8.39-5.47C840.89,519.52,864.45,511.11,866.24,510.42Zm-40.77-31.89c4.15-3.94,6.81-.73,12.12,3.06,7.28,5.19,21.16,14.66,28.66,19.93-2.64,3-4.79,2.74-7.61.65C849.86,495.65,834.46,484.92,825.47,478.53Zm72.15,56.21c-7,4.91-10.53,4.23-19.24-3.74C885.45,526.89,886.78,527.15,897.62,534.74Zm-4.93,13.44c6.27-2.08,17.87-6.45,26.71-10.45l28.48,19.43c-9.65,3.27-17.67,6-25.69,8.68-3,1-6.31,2.1-9.1,3-3.7,1.21-5.36,1-7.93-1.53-4.52-4.4-9.68-8.13-14.34-12.4C887.09,551.5,887.6,549.86,892.69,548.18Zm83.17,27.94c2.43,2.06,28.4,19.24,30.17,20.3,2.86,1.71,5.62,3.6,8.65,5.56-7.73,3.86-16.29,7.42-25.52,11.64-3.57-2.63-17.39-13.23-25.3-19.22-.21-.08-12.49-10-16.64-13.59-3.41-2.92-6.69-6-10.15-9.13a40.62,40.62,0,0,0,4.59-1.83C956.3,563.3,965.59,567.42,975.86,576.12Zm-58.47,2.61c10.47-5,16.09-6,23.11,3.25-2,1.41-9.37,4.4-12.71,6.74C925.25,587.21,915.33,580.37,917.39,578.73Zm81.26-50.37a213.74,213.74,0,0,0,9.77,21.07c6,12,12.05,24,18.26,36.34,2.5,7.07,4.78,13.21,1.17,11q-14.14-9.42-28.29-18.84c-3.27-2.18-6.27-4.93-9.79-6.57-8.65-4-10.43-11.63-11.76-20-1.67-10.4-4.14-20.66-6.14-31-1.69-8.77-3.19-17.58-4.8-26.53C980.71,501.82,994.49,507.25,998.65,528.36ZM954.53,485.3c4.41,1.42,5.68,4.32,6.25,9.17,1.15,9.93,3.8,19.68,5.75,29.52,2.35,11.91,4.6,23.84,7,36.28-7.84-5.62-15.44-11-22.89-16.5a5.33,5.33,0,0,1-2.08-3.83c.47-6.09,1.39-12.14,2.06-18.22C951.94,509.69,953.2,497.65,954.53,485.3ZM822,393.46c4.37-3,7.59-2.59,11.27-.18Q858,409.5,882.65,425.86c10.92,7.22,21.76,14.56,32.81,21.58,1.53,1,5.24,1.21,5.91.3,1.93-2.61-.22-4.18-2.65-5.77q-41.44-27-82.72-54.38a3.71,3.71,0,0,1-1.58-2.29.65.65,0,0,1,.65-.84,7.19,7.19,0,0,1,3.37.57c11,7.13,21.81,14.48,32.78,21.63,15.63,10.19,31.15,20.55,47.06,30.27,10.5,6.4,21.06,12.8,26.6,24.07,2.66,5.41,5.14,9.86,4.24,19.37,0,.49-5.57,50.85-6.32,57.8-21.31-8.41-39-22.86-57.91-35.33C874.58,496,864.44,489,853.82,481.75c9-6.09,17.9-12,26.73-18,5.2-3.51,5.86-7.92,1.13-12.31A107.72,107.72,0,0,0,868,441c-11.31-7.54-22.83-14.76-34.18-22.25-6.58-4.35-13-8.94-19.48-13.46-1.28-.9-2.43-2-4.16-3.42C814.7,398.67,816.19,397.45,822,393.46Zm-17,20.6c3.8-3,6.77-2.76,10.75,0,19.53,13.38,39.28,26.43,58.93,39.63a46,46,0,0,1,3.9,3.29c-5.64,3.9-10.83,7.36-15.86,11-2.34,1.72-4,1.53-6.42-.16-18.14-12.53-36.42-24.85-54.67-37.21-3.4-2.31-6.86-4.52-10.43-6.86C796,420.39,800.7,417.49,805,414.06ZM790.2,430.94c10.81,8,22.24,15.13,33.44,22.58,8.92,5.93,17.88,11.81,26.8,17.73,1.15.77,2.19,1.72,3.5,2.77l-5.51,3.78L780.57,432C784.14,428.08,786.31,428.07,790.2,430.94Zm31.22,40.71c-5.08,3.57-13.37.63-20.49-12.74a.68.68,0,0,1,1-.88ZM766,445.58c5.78,4.62,12.32,8.6,17.06,14.11,6.76,7.86,12.17,16.86,18.18,25.36,1,1.47,2.09,2.93,3.07,4.48a1.32,1.32,0,0,1-1.85,1.8,38.62,38.62,0,0,0-4.26-2.47,1.9,1.9,0,0,0-.64-.18,3.22,3.22,0,0,0-3.26,4.27,2.22,2.22,0,0,0,.67,1.11C812,508.12,829.34,521.87,846.38,536c13,10.73,25.55,21.91,38.4,32.77,15.73,13.3,31.63,26.39,47.32,39.73,11.6,9.86,22.91,20,34.46,29.94,14.48,12.43,29.1,24.68,43.59,37.09,6.61,5.67,13.15,11.42,19.55,17.33q30.49,28.14,60.88,56.4c2.63,2.43,14.56,12.09,18.62,15.44,0,5.91-11.74-5.57-17.32-7.84-2.93-1.19-12,.34-16,5.56a6.73,6.73,0,0,0-1,2.42c-1.46,6,3.39,10,6,13.58,2.25,3,4.3.13,5.09-3.49a1.28,1.28,0,0,1,2-.81l11.66,7.69c-11.63,5.28-21.3,13.46-30.41,19.5-7-3.69-14-7.58-21.15-11.06-5.41-2.61-17.45,2.65-19,8.38-.48,1.76.66,4.13,1.48,6a33.55,33.55,0,0,0,3.84,6.78,5.11,5.11,0,0,0,3.55,1.77,3.87,3.87,0,0,0,2.69-2.07,7.19,7.19,0,0,0,.33-3,.74.74,0,0,1,1.18-.59l9.95,7.4c-3.54,3.21-7.52,5.68-11.9,9-9.12-5.4-15.85-9.42-24.94-14.73-6.79-4-13.71-7.7-20.43-11.77-3.68-2.23-6.75-2.52-9.66,1.84-3.27-3.78-6-7.71-9.49-10.8-7.07-6.28-14.35-12.35-21.9-18q-33.15-25-66.6-49.65c-15.45-11.43-31.11-22.59-46.58-34-23.44-17.28-46.75-34.73-70.21-52-12.59-9.25-25.43-18.15-38-27.37-8.13-6-16-12.21-24.08-18.29a32.36,32.36,0,0,0-3.27-1.9c.16-2,.34-4.31.57-7.2,7.68,5.34,15.06,10.41,22.37,15.57,11.45,8.07,22.8,16.29,34.29,24.31,20.28,14.15,104.68,73,113.43,78.67,18,11.55,35.18,24.27,52.66,36.58,8.81,6.2,17.6,12.44,26.24,18.87,7.39,5.5,12.25,5.32,20.11-.45,15.07-11,30.32-21.83,45.48-32.74,2.34-1.68,4.54-3.57,6.92-5.2,4.85-3.32,5.37-9.83.87-13.62q-30.69-25.85-61.44-51.61c-10-8.38-19.85-16.86-29.74-25.33-.82-.71-2.07-1.69-2.33-2.48-1.27-3.94-5.7-9-8.95-11.59-13.53-10.74-27.48-21-41.06-31.65-10.49-8.26-20.67-16.91-30.94-25.45-11.25-9.36-22.5-18.72-33.64-28.21-8.83-7.52-17.67-15-26.16-22.93-4-3.73-7.48-5.68-11.74-1.08-2.55-2-4.8-4.19-7.46-5.61a1.93,1.93,0,0,0-.8-.2,3.2,3.2,0,0,0-2.89,4.93l0,0c.61.83,88.92,68.12,107.14,82Q900.51,600,923.1,617.05h0a1.56,1.56,0,0,1-1.26,2.74,4.91,4.91,0,0,1-2.18-.79c-14-10.47-27.77-21.12-41.66-31.68-9.45-7.18-19-14.28-28.43-21.44-13.05-9.87-81.42-62-82.83-63.16a4.91,4.91,0,0,0-3.27-.57,7,7,0,0,0-5.2,2.48c-.79.95-1.11,2-.87,3.91s2.45,7.63,3.85,8.91h0a66.53,66.53,0,0,1,6.67,5.2c.89.83.86,3.35.4,4.82-2,6.53-1.7,12.24,4,17,1.86,1.56,3,4,4.44,6-7.8,7.55-9.49,7.65-18.52,3-6.24-3.21-12.21-6.85-20.2-4.39-4.72,1.46-10.31,1.11-14.67-3.16a57.87,57.87,0,0,0-10.3-7.84c-1.6-1-4-.58-6.07-.82-2.82.39-5.83.67-8.47,2.16a5.56,5.56,0,0,0-2.3,7.33,3.86,3.86,0,0,0,1,1.33q21.75,17.29,43.81,34.24c11.53,8.89,23.29,17.49,34.73,26.5,17.49,13.77,34.69,27.9,52.21,41.64,8,6.28,16.48,12,24.74,17.92v0c2.27,1.82,1.47,6-3.87,2-16.45-12.34-33.87-25.35-50-38-14.6-11.46-29-23.24-43.59-34.65-18.73-14.58-37.7-28.85-56.43-43.44-4.44-3.45-8.28-7.55-6.78-14.17.42-1.84-.14-3.9-.27-6.26l7.72-4.4c3.93.56,6.81.92,9.66,1.41a5.14,5.14,0,0,1,2.18.95,52.12,52.12,0,0,1,5.63,4.5c7.86,7.67,13.68,7.52,21.17-.44,2.84-3,.56-5-1.48-6.15a12.36,12.36,0,0,1-3.69-3,2.78,2.78,0,0,1,3.95-3.82c2.46,1.88,4.91,3.73,7.48,5.4a5.24,5.24,0,0,0,4.22.28c2.12-.87,3.87-2.6,5.94-3.62a10.72,10.72,0,0,0,3.69-2.66,2.9,2.9,0,0,0-.18-3.67c-2.4-2.84-4.14-8.28-6.83-10.07-4.6-3.06-3.42-7.67-3.87-12.14l9.19-5.09a15,15,0,0,0,2.37,2.1c1.31.75,3.27,2.09,4.06,1.63a6.29,6.29,0,0,0,2.72-4.22c.36-3.33.08-6.32,1.88-9.79,2.05-3.93.25-9.1-3.91-11.92-16.94-11.46-33.94-22.87-51.19-33.85-2.14-1.36-7.54-2.45-9,.16-2.84,5.1-6.91.28-6.49.43,2.73-5.36-8.25-9.69-8.93-10.13-5.87-3.8-38.35-22.56-35.27-24.38,7.7-4.55,15-9.9,10.77-12.63-1.73-1.11.46-3.71,1.49-5.51a.72.72,0,0,1,1.12-.14c5.49,4.27,39.72,29.47,41,29.6a7.09,7.09,0,0,0,3.11-.73,1.27,1.27,0,0,0,.7-1.76,9.88,9.88,0,0,0-2.1-3c-3-2.48-26-20-33.36-26.59.29-.36,1.54-4.29,1.83-4.65,5.68,4.48,17.37,12.5,23,17,9.22,7.39,18.37,14.86,27.58,22.24Q746.94,430.43,766,445.58Zm10.46,129.73c4.06-3.24,6.92-3.77,10.56.09,1.93,2,4.36,3.59,7.09,5.78-7.19,5.1-13.34,9.78-19.87,13.83-1.53,1-4.79.48-6.51-.56-3.64-2.21-6.79-5.22-9.38-7.3C764.3,583.32,770.77,579.82,776.44,575.31Zm-28.06-1.65c-5.15-3.89-10.14-7.39-14.77-11.32-1.2-1-1.75-3.44-1.63-5.14.07-.86,2.21-2,3.55-2.27,10.76-1.93,19.58,3.36,28.07,8.58,2.48,1.53,6.39,9.18,4.65,9.12C765.73,575.47,759.68,562.27,748.38,573.66Zm54.1-30.76c2.27-.55,4-1.52,4.64-1,7.34,5.43,14.52,11.07,22.84,17.52-2.43,1.16-15.1,8.71-24.53,14.27-4.83,2.84-5.64,2.77-10.4-.19a78.8,78.8,0,0,1-7.43-5.66c5.9-4,11.37-7.43,16.54-11.26C811.19,551.3,810,546.75,802.48,542.9Zm-16.75,8.85-13.55-18.48a1.09,1.09,0,0,1,1.5-1.54l17.13,12Zm-2.38,11.78-9.42,5.5c-.8-2.06-1.55-4-2.42-6.25l8.6-5.6ZM837.68,565l22.62,17.22C853.17,587,845.87,592,838.64,597c-11.19,7.78-22.28,15.7-33.55,23.36-1,.66-3.37.36-4.43-.42-6.61-4.89-13-10.06-20.16-15.63Zm-14.44,57.29C837.8,612.1,852.4,602,866.81,591.68c2.48-1.78,3.78-1.67,6,.14,6,4.8,12.22,9.28,18.56,14L833.77,646l-21.29-16.54C816.27,626.93,819.8,624.64,823.24,622.24Zm39.39,19c11.88-8.38,23.92-16.52,35.77-24.93,2.59-1.83,4.5-2.14,7,.06,5.48,4.87,11.14,9.55,17.27,14.77l-57.35,40.32a3,3,0,0,1-4.5-1.41c-2.69-7-7.34-9.36-15.32-16C851,649.92,856.7,645.44,862.63,641.25Zm101.91,45.52,8.36,5.76c-9.09,6.77-17.62,13.19-26.26,19.46a3.5,3.5,0,0,1-3.21,0,81.3,81.3,0,0,1-9.4-7.21c-4-3.71-8-3.53-12.2-.77a76.54,76.54,0,0,0-7,4.93c-4.13,3.42-8.13,6.35-12.45-.27,9.72-7,19.67-14.19,29.67-21.33s20-14,29.85-21.18c4.73-3.4,4.64-3.53,10.24,1.05l-7.77,5.53C957.65,677.51,957.72,682.08,964.54,686.77Zm38.87,7.45L1020.9,709l-58,42.65L943,737.9ZM910.31,689c-4.95,3.55-10.08,6.88-14.76,10.75-2.55,2.11-4.44,2-6.86.29-6.69-4.81-13.43-9.56-21.12-15,8.68-6.14,16.89-11.9,25-17.73,13-9.27,26.08-18.41,38.84-28,3.9-2.93,6.32-1.95,9.34.86,5.35,5,10.88,9.71,16.78,15ZM674.57,356.6c12,3.76,24,7.5,36,11.32,5.4,1.73,10.71,3.78,16.1,5.55,3.62,1.2,3.11,4,2.73,6.67-.75,5.15-1.72,10.26-2.82,16.66-21.08-16.2-35-26.4-52.68-38.78A.8.8,0,0,1,674.57,356.6ZM792.82,245.78c1.32,1,2.09,4.57,1.35,6.1-1.79,3.7-34.08,59-44.11,78.39-5.82,11.26-11.74,22.47-17.39,33.8-1.73,3.45-3.26,4.07-7.15,2.66-14.42-5.23-29.07-9.83-44.33-14.9L776.08,234.4C781.12,237.75,787.2,241.46,792.82,245.78ZM621,293c6.8-6.27,13.85-12.26,20.79-18.38,12.64-11.15,25.2-22.39,38-33.38,1.9-1.63,12.58-9.85,15.8-12.55,8.69-7.28,17.57-14.37,26.64-21.18,4.9-3.67,8.73-3.25,12.66-.09-4.41,2.49-9,5.05-13.58,7.68s-9.33,5.27-13.82,8.17c-6.19,4-6.1,9.86-.28,14.15,1.6,1.18,28.12,20.6,34.82,15.45,3.74-2.88,13.23-3.4,10.73.38-5.9,7.2-11.85,14.4-17.72,21.65-9.06,11.21-18,22.53-27.14,33.69s-28.46,35.31-29,36.17c-1.82,2.7-3.19,4.59-7.7,3.56-19.16-4.35-35.37-14.15-51-25.44-5.47-3.95-11.33-7.37-16.91-11C606.63,302.74,614.75,298.76,621,293Zm-25.86,29.2c4.6,2.94,43.78,29.14,43.7,28.88,9.9,6.65,19.75,13.33,29,19.58-3.62,4-7.22,8-11.16,12.33l-73.37-48.58Zm-17-11.56,13,8.56-13.63,11.19-4.74-2.56c2.82-3.08,5.58-6,8-9.1.16-.21-2-2.24-3.49-3.86Zm-3.46-2.61-10.94,13c-.07,0-23.76-14.21-28.08-17.2l14.49-11.76Zm-53.51-36.22,25.22,17.34a165.11,165.11,0,0,0-17.78,14.56c-.71.64-1.54,1.74,2,4.66,1.71,1.42,3.62,2.71,6,4.42-4.16,2.85-6.82,5.23-11.65,1-5.86-5.12-13-8.79-20.51-13.71C510.38,296.36,519.15,276.05,521.13,271.83Zm-78.87,38.39,30.26-18.62,4.19,4.13c-9.38,5.85-18.32,11.48-27.4,16.86-1.21.71-4.77-.36-7-.87C441.14,311.38,441.5,310.67,442.26,310.22Zm-10.79,5.68c.42-.71,3.22-.33,4.81.07a57.07,57.07,0,0,1,6,2.34c4,1.49,7.63,2,11.7-.79,7.7-5.23,16-9.52,23.73-14.74,2.79-1.9,4.55-5.34,7.07-8.43,11.74,7.93,24.79,16.71,37.77,25.6,1.49,1,3,1.94,2.78,4.8-.12,1.78,3.09,4.15,5.22,5.66,8.93,6.3,18,12.37,27,18.49-3,5.69-2.29,9.48,2.27,13.71a29.81,29.81,0,0,1,2.93,2.91c1.8,2.2,8.09,8.15,4.06,10.43a19.94,19.94,0,0,1-26.26-5.2c-2.8-3.57-7.29-4.24-9.73-2.57-5.49,3.77-8.93.1-12.5-2.16-9.39-6-18.5-12.36-27.62-18.72-2.7-1.89-4-1.62-6.7.79-9.82,8.72-5.08,18.17-2.43,27.67.7,2.55,1.27,5.14,2.21,9-4.9-3.71-8.65-6.72-12.58-9.44-1.4-1-3.53-2.11-4.86-1.69-4.21,1.32-6.26-1.23-7.42-4.08-2.38-5.86-7.46-8.91-12.38-11.34-3.85-1.91-5.54-4.49-6.91-8-3.53-9-7.35-17.89-10.42-27C428.54,321.18,430.17,318.07,431.47,315.9Zm-9.62,34.84c.23-.14,14,8.28,15.1,8.4,1.76,1,2.24,1.86.14,2.5-4.09,1.36-8.27,2.51-12.23,4.19-1.36.58-2.15,2.48-4,4.74l-17.13-8.36C410.59,357.82,416.17,354.2,421.85,350.74ZM311.43,448.88c7.06-8,14.35-15.87,21.51-23.83,2.64-2.93,13.78-21.84,19.9-31.21h0c1.12-1.71,2.06-3.09,2.76-4,1.89-2.82,3.33-5.05,4.27-6.38,6.36-8.9,12.74-17.79,19.35-27,6.25,4.15,12.27,8,18.13,12.07,9.57,6.67,19,13.51,28.57,20.25q36.72,26,73.46,52c8.22,5.79,16.6,11.35,24.85,17.08a7.21,7.21,0,0,1,2.77,2.91c3.07,8.54,5.8,17.21,8.91,25.73,2.12,5.81,4.56,11.49,6.38,17.77a.92.92,0,0,1-1.37,1.05c-3.14-1.93-6.33-3.82-9.33-6-16.1-11.47-32.12-23.06-48.18-34.58-16.49-11.84-33-23.71-49.54-35.41-1.73-1.22-4.9-2.59-6.25-1.83-9.24,5.15-15.28-1.13-21.82-5.55-7.43-5-8.39-6-15.81-11-3.89-2.64-21.64,10.6-28.69,16-14.49,10.44-8.15,17.9-5.47,28L308,477c-.31-5.71-.33-10.77-.91-15.77S308.42,452.32,311.43,448.88ZM262.84,505c14.42-6.72,28.88-13.38,43.3-20.1,17.53-8.17,35-16.5,52.59-24.47a20.27,20.27,0,0,1,9.63-2.23c3.63,0,44.14,17.93,48.53,22.58,5.55,5.89,10.06,12.89,14.34,19.82,1,1.62,2,3.26,3,4.89-16.71,5.64-42.06,14.8-57.89,20.27q-37.41,12.94-74.83,25.88c-12.9,4.48-25.76,9.09-39.06,13.8a1.33,1.33,0,0,1-1.78-1.27c.09-4.16,1.17-7.32,4.52-10.34,2.44-2.2-5.21-17-7.28-20.48-4.67-7.88-14.57-15.8-17.47-17.77C248.34,511.83,255.57,508.38,262.84,505Zm-84.2,46c-2.82-2.15-1.24-3.87,1.42-5.21,11.35-5.71,22.64-11.57,34-17.34,4-2,8-3.91,12-5.86,3.37-.84,5.76,1.72,2.18,3.68-8.72,5.91-15.46,9-24.2,14.85-8,5.37-11.42,11.28-4,17.55,1.71,1.45,24.9,17.14,25.75,19.61-.76.26-5.94,2.26-6.7,2.52C211.79,575.6,185.75,556.45,178.64,551Zm174.82,21.44c-13.4,3.18-26.77,6.47-40.18,9.56-12,2.78-24.17,5.12-36.14,8.14-5.59,1.41-10.74,4.87-16.36,5.78-6.8,1.11-14.28,2-20.7.17-5.62-1.57-10.16-7-15.41-10.84,8.12-2.91,15.77-5.69,23.45-8.38q20.4-7.12,40.86-14.14c14.36-4.9,28.78-9.64,43.14-14.56,10.49-3.59,20.92-7.34,31.38-11q24.76-8.73,49.52-17.47c4.7-1.64,19.24-6.48,24.55-8.68,6.39,10.63,12.6,21.37,18.86,32.07.92,1.57,3.08,4.25,1.57,4.63-4.55,1-8.42,1.82-12.26,2.74-13.55,3.25-27.08,6.59-40.63,9.82C387.9,564.37,370.67,568.38,353.46,572.46Zm51.11,24c-7.15-5.38-14.07-11.06-21.13-16.63,13.05-3.16,25.8-6.37,38.61-9.3q17.26-4,34.66-7.27c1.38-.27,3.55,1.15,4.65,2.41,2.37,2.73,5,3.62,8.6,3.53,8.89-.24,17.78-.08,27.77-.08-6.87,7.74-13.14,14.46-19,21.52a36.51,36.51,0,0,0-8.86,22.56c-.21,7.06-.35,14.16-1.17,21.16-.52,4.53-5.36,6-8.94,3.3C441.38,624,422.92,610.29,404.57,596.49ZM327.11,732.25c18.33-12,36.57-24,54.84-36.07,2.21-1.45,4.47-2.85,6.6-4.42C395,687,395,687,405,693.94c-1.48,8.58-3.68,16.83-3.91,25.15-.08,2.74,4.46,6.6,7.74,8.22,5.49,2.71,10.56,4.76,9.58,12.36-.16,1.29,1.48,3.21,2.77,4.22,5.49,4.32,11.16,8.41,16.92,12.71l-76.89,51.25L292.8,754.13C304.3,746.81,315.77,739.64,327.11,732.25Zm-43.05,27.34a5.67,5.67,0,0,1,5.13.26c9.94,7.43,19.67,15.14,29.49,22.73q16.65,12.87,33.33,25.69c1.16.9,2.24,1.89,3.73,3.14-5.5,3.59-10.6,6.36-15,10s-8.34,2.49-12.07-.33c-10.19-7.71-20.22-15.63-30.24-23.55-10.72-8.47-21.35-17.05-32.36-25.86C272.24,767.42,278,763.29,284.06,759.59Zm387.37,171c-15-2.1-29.43-4-43.79-6.14-11.54-1.72-128.88-19.85-142.73-22-6.75-1-109.74-17.5-122.15-19.43-9.07-1.41-18.19-2.5-27.31-3.6-1.35-.17-3.48-.1-4.06.72-1.8,2.52-3.57,1.42-5.68.84-12.55-3.41-22-11.64-31.73-19.65-13.9-11.51-28-22.75-41.88-34.3-12.5-10.41-24.79-21.08-37.69-32.09,3.3-2.28,6.21-4.69,9.51-6.33,1-.5,3.31.79,4.59,1.8q30.09,23.86,60,47.88c8,6.43,15.73,13.29,24,19.36,4.27,3.13,9.38,5.23,14.36,7.16,1.25.48,299.71,46.25,346.1,52.57A18,18,0,0,0,671.43,930.56Zm-342.5-72c-11.58-3.2-19.69-11.66-28.71-18.64-14-10.81-27.63-22-41.39-33.12-9.12-7.35-18.19-14.77-27.64-22.45,6.25-4,11.93-8.39,18.28-11.34,2.42-1.12,7,.13,9.5,1.89,8.81,6.24,17.14,13.15,25.63,19.83,14,11,27.65,22.6,42.18,32.91,6.59,4.68,14.07,2.35,20.86-2.46,12.73-9,25.86-17.47,38.84-26.13,17.92-11.95,35.81-23.94,53.85-35.69,1.49-1,4.69-1.19,6-.24,8.19,5.86,16.12,12.1,24.05,18.31,8.94,7,17.7,14.24,26.73,21.11,9.4,7.16,19.09,13.94,28.57,21,11.82,8.81,23,18.57,35.54,26.27,7.35,4.53,16.56,6.34,25.18,8.35,2.4.56,5.72-2.42,8.51-4,7.07-4,9.91-3.93,15.46.29,11.3,8.56,22.5,17.27,33.76,25.89,12.13,9.3,24.27,18.58,37.15,28.43a34.24,34.24,0,0,0-3.62,2.85C647.86,906.76,329.68,858.74,328.93,858.53Zm350.63,88c-2.9-4.77-1.57-12.12-2.21-19.52,6.59,4.55,12,8.24,17.31,12a2.77,2.77,0,0,1,.71,1.86c.46,6.3.87,12.61,1.38,20.19C690.15,955.73,683.05,952.22,679.56,946.51Zm18.21-12.58c-5.76-4.31-11.45-8.71-17.87-13.63L701.06,897l44.21,33.53c-15.53,1.68-29.85,3.27-44.19,4.71A5.52,5.52,0,0,1,697.77,933.93Zm50,3.58c8.19-1.27,12.59,4.55,17.87,8.41C779,955.68,792,966,805.1,976.09c9.52,7.31,19.06,14.6,29.66,22.72-9.36,1-17.33,1.82-25.3,2.63-4,.41-8,.36-11.86,1.17-9.43,2-15.16-4.36-21.56-9.13q-24.22-18-48.27-36.32c-6-4.57-11.72-9.49-18.39-14.91C713.88,941.36,739,938.87,747.77,937.51ZM840,1013c-2.33,0-41.62,2.92-43.86,2.48-5.82-1.15-4.73,1.14-5.56,4.9-.57,2.6-1.31,5.38-2.32,9.13-5.69-4-11.22-7.74-16.52-11.75-17.79-13.45-35.5-27-53.26-40.51-3.43-2.61-5.59-4-10.45-7.61-6.38-4.71-6-21-6-24.32,11.32,8.48,22.06,16.48,32.75,24.55q17.22,13,34.38,26.09c4.15,3.16,8.07,6.7,12.48,9.45,2.78,1.73,5.75,3.53,9.16,3.75,9.93-.82,41.15-3.66,51.66-4.53C842,1006.39,840.36,1011.57,840,1013Zm14.3-1.12a.71.71,0,0,1,.54-1.29c9.72,2.38,19.44,4.8,29.18,7.08q22.21,5.21,44.48,10.16c4.18.93,8.55,2.35,12.66,1.92,2.79-.3,5.39-3.32,7.82-5.42.49-.42.19-2.63-.46-3.26s-3-1.22-3.41-.75c-6.5,6.69-15.13,2-21.28.8-17.69-3.62-33.09-6.67-50.69-10.72S846,999.32,834.8,989.68a86.65,86.65,0,0,0-10.51-7.9c-3.28-2-4.63-4.42-4.73-8.37-.12-4.62-1.24-9.23-2.16-13.8-1.31-6.47-2.43-13-4.43-19.29-1.19-3.72-3.15-8-6.1-10.24C792.49,919,777.72,908.49,763,897.92c-5.21-3.73-9.48-1.4-10.43,5-1,7-2.52,13.89-4,21.78l-31.73-23.76h0c12.88-8.82,48.88-36.45,64.49-48.6a10.24,10.24,0,0,1,6.6-2.17c19.46.57,76.66-4.42,82.57-4.6a7.06,7.06,0,0,1,7.24,4.37C880.08,854.82,943.68,985,944,985.26c9.57,21.27,14.61,25.46,21.28,27.06,16.34,3.91,32.42,7.73,48.68,12,9.67,2.53,19.5,4.46,29.2,6.88,2.22.55,5.88,3,6.33,4.11-.19.5.28,1.5-.59,1.5-3.55-.82-7.14-1.53-10.66-2.48-23.31-6.31-46.62-11.52-69.88-18-3.75-1.05-6.59-.68-9.23,2.35a170.94,170.94,0,0,1-13.41,13.24c-1.7,1.58-5,2.78-7.19,2.28-14.28-3.25-28.41-7.14-42.66-10.55-10.44-2.49-21.07-4.22-31.43-7A36.78,36.78,0,0,1,854.28,1011.88Zm173.81,33.62-69.6-17.06c4.48-10.59,11.74-6.18,18-4.64,13.35,3.29,30.46,7.59,43.47,12,4.76,1.61,7.7,5.71,9.72,8.71C1030.58,1045.72,1030.7,1046.25,1028.09,1045.5Zm-171-21.25a3,3,0,0,1,3.87-2.56c16.14,5,87,23,91.1,23.93,6.1,1.37,12.22,2.67,18.21,4.42,1.42.42,35.31,9,45.33,11.49,1.35.34,11.95,3.45,12.69,3.61,9.56,2.11,19.12,4.28,28.69,6.45-2.31,8.36-2.73,8.74-10.32,6.84-22.52-5.63-45-11.46-67.51-17.07-10.24-2.55-20.59-4.64-30.84-7.15-15.44-3.77-30.83-7.73-46.24-11.59-9.54-2.38-19.1-4.64-28.61-7.11a85.08,85.08,0,0,1-11.72-3.76C858.26,1030.3,856.78,1027.8,857.07,1024.25Zm143.84,70.61c-22.34-7-44.72-13.82-67-20.93-23.67-7.54-47.27-15.32-70.9-23-3.94-1.29-7-3.19-5.21-9.45.48-2,.88-2.37,5.43-1.8,6.44.82,21,4.72,27.36,6.1,8.89,2,17.55,4.85,26.39,7,20.13,5,40.32,9.72,60.46,14.67,12.49,3.08,24.93,6.36,37.4,9.56,10.39,2.66,20.73,5.52,31.19,7.88,3.45.78,4.93,1.92,4.77,5.62-.27,6.39-.07,12.8-.07,20C1033.61,1105.16,1017.27,1100,1000.91,1094.86Zm-41.25,62.64c-23.55,1.38-24.66-16.72-22.52-35.44a.77.77,0,0,1,1.3-.46c10.39,10.42,16,24.52,22.21,33.92A1.27,1.27,0,0,1,959.66,1157.5Zm98.52-10.31c-1.58,0-4-1.18-4.57-2.45-1.49-3.59-5.18-7-12.18-6.64-11,.49-19.73,2.45-30.63,3.76-7.32.88-14.68,1.53-22,2.6-5.86.86-4.88,3.32-3.64,9.89l-15.26,1.49c-5.13-9.36-11-20.66-16.28-30.21l40.81-15.2c2.68-1,5.58-1.61,8-3,6.94-4,13.4-1.36,20,.8,8.14,2.65,16.36,5.07,24.52,7.69,1.58.51,4,.54,2.79,3.66-.29.78,1.13,2.53,2.13,3.44,7.08,6.47,17,15.71,25.61,23.38C1070,1146.75,1064.09,1147.22,1058.18,1147.19Zm25.81-5.51c-5.31,1.45-6.07-16.17-6.07-21.17,4.53.94,19,5.48,23.79,6.48C1096.83,1130.94,1088.49,1138.05,1084,1141.68Zm71.92,9.14c-.5,2.08-.77,4.21-1.3,7.25l-62.55-15.1c6-4.73,11.32-9,16.81-13a6.27,6.27,0,0,1,4.61-.74c11.8,2.81,23.59,5.65,35.29,8.82C1155,1139.73,1157.39,1144.55,1155.91,1150.82Zm3.8-38c-1,6-1.69,12-2.56,18.62l-15.47-2.87c1.59-5.83,3.09-11.46,4.68-17.06.88-3.09-10.36-6.94-16.92-8.59a1.38,1.38,0,0,0-1.66,1c-.87,3.29-1.94,6.58-2.07,7.1-1.92,7.2-1.92,7.2,5.17,10.76,5.18,3.42-7.65,2.49-18.39.77-7.83-1.71-15.7-3.38-23.53-5.15-5-1.13-14.76-4.48-21.4-11.62-2.46-2.64-4.64-5.56-7.19-8.11-5.11-5.09-3.69-8.67-.94-14.09a66.38,66.38,0,0,0,2.87-6.34c1.22-3.52,3.74-3.56,6.58-2.87,8.49,2.08,17,4,25.4,6.53,2.43.74,4.67,3.13,6.29,5.28,5.42,7.18,15.6,7.86,24.13,9.94.33.08,34.32,8.24,42.32,10.19a36,36,0,0,0-4.79,3C1161.18,1110.26,1159.92,1111.5,1159.71,1112.78Zm75.87,18c-2,2.12-5.61,3.06-3.4,8.34,1.74,4.15-.58,10-1.1,15.09-.31.25-48.71,2.77-61.16,3.58a21.2,21.2,0,0,1-2.9.24c0-3.13,1.58-9.17,1.58-12.11,3.46,0,25.51-.93,37.53-1.33h0c3.28-.11,6.95-.14,6.92-.12,1.42,0,10-.42,12.84-.94a3.91,3.91,0,0,0,2.78-2.88c.13-.71-2-2.63-3.05-2.62-6.7.07-13.39.6-20.08.87-10.39.41-20.78.85-31.17,1.07-7.14.16-12.08-5.93-10.34-12.69,1.44-5.57.89-11.39,6-16.3,4.7-4.56,9.07-2.24,13-1.39,17.3,3.7,34.41,8.24,51.62,12.36,2.27.54,4.76.08,7.05.57h0a1.75,1.75,0,0,1,.5,3.14A40.19,40.19,0,0,0,1235.58,1130.82Zm98.16-26a15.59,15.59,0,0,1-3.53,4.67c-13.74,11.42-27.52,22.79-41.59,33.79-2.58,2-6.48,2.84-9.88,3.2-10.09,1-20.23,1.55-30.34,2.36-3.36.26-6.7.81-10.47,1.29-.38-8.53,3.25-12.22,11.38-12.3,10.26-.09,17.28.11,25.72-.09,8.92-.21,19.44-5.68,25.57-11,10.12-8.71,23.72-20,33.83-28.71C1334.84,1098.4,1335.2,1101.5,1333.74,1104.86ZM1338.9,1003c-.73,10.44-1.52,20.88-2.3,31.32,0,.29-.19,4.07-1.15,2-6.84-14.27-13.94-28.74-20.8-43,1.48-.45,11.76-.68,14.68-.67C1336.46,992.67,1339.4,995.83,1338.9,1003ZM933.07,889.48c4.31,11,8.8,21.94,13.08,33,3.24,8.34,6.13,16.82,9.56,25.08.62,1.48,2.76,3.83,4.81,3.1,2.05-1,2.1-2.09,2-3.1-.55-5.3-4.18-21.1-4.65-22.75-2-7-4.1-13.6-6.42-20.54-4.62-13.83-8.73-26.8-13.26-40.54a2.27,2.27,0,0,1,1.91-3l.18,0a3.59,3.59,0,0,1,3.33,1.55,9,9,0,0,1,1.26,2.31c7.48,22.77,14.8,45.59,22.43,68.3a17.63,17.63,0,0,0,7.6,7.81,2.71,2.71,0,0,0,4-2,7,7,0,0,0-.13-2.65c-2-7-4.66-13.85-7-20.78q-8.38-24.63-16.66-49.32c-.64-1.92-1.45-4.76.06-6l1.47-.77c2.89,1,3.82,3.23,4.49,5.09,1.84,5.16,3.22,10.48,4.92,15.68,5.11,15.64,10.17,31.29,15.59,46.81a7.46,7.46,0,0,0,5.15,4.11c2.57.31,4-5.56,3.21-7.88-2.55-7.44-5.28-14.83-7.78-22.28-4.65-13.85-8.08-25.53-12.66-39.39a3.23,3.23,0,0,1,1.11-3.07,5.25,5.25,0,0,1,4,3.68c6.7,19.82,13.19,39.71,20,59.5a14.59,14.59,0,0,0,3.61,5.22c2.47.07,4.21-1.23,4.12-3.6-.13-3.46-.55-6.23-4-17.1-1.58-5.12-3.57-10.11-5.27-15.19-3.22-9.66-6.42-19.34-9.45-29.06a3.06,3.06,0,0,1,1.87-3.84l1.1.49a4.27,4.27,0,0,1,2.31,2.56c6.26,18.78,12.48,36.61,18.9,55.39.52,1.54,1.42,3.58,2.79,3.62,3.14.11,5.72-5.66,4.67-8.78-5.3-15.93-10.79-31.8-16.14-47.72-.61-1.8-1.81-4.72,0-5.65,2-.85,3.81,1,4.12,1.91,2.31,6.7,4.5,12.35,6.72,19.08,3.31,10,7.55,21.2,11.18,31.1.55,1.52,2.28,3.46,2.67,3.1,4.48.06,5.12-4.63,2.94-10.17-4.37-11.13-7.59-22.71-11.2-34.13-1.24-3.93-2.22-5.74-3.33-9.71-.43-3.27,2.16-2.58,2.68-2.77a33.17,33.17,0,0,1,2.68,4.87c3.39,9.56,6.68,19.15,9.94,28.75,1.55,4.56,2.85,9.22,4.5,13.74a4.13,4.13,0,0,0,2.69,2.15c.69.15,2.36-.94,2.41-1.58.32-3.75.42-11.39.35-16.12a1.41,1.41,0,0,1,2.45-1c2.89,3.22,5.6,6.21,8.26,9.24,6,6.81,11.79,13.75,17.94,20.41a5,5,0,0,0,2.57,1.23,2.17,2.17,0,0,0,2.7-2.1,7.37,7.37,0,0,0-.52-3.27c-1.09-2.2-3.24-3.85-4.86-5.79-7.87-9.44-15.67-18.93-23.59-28.32-6.52-7.75-13-15.56-19.89-23-2.27-2.45-5.68-5.22-8.68-5.35-6.21-.26-12.48,1.47-18.76,1.81-16.71.92-33.44,1.5-50.16,2.29-5.62.26-11.36.11-16.8,1.27-6.61,1.41-7.43,1.5-5,8.08C926.32,872.16,929.69,880.82,933.07,889.48Zm-23.82,57.86c-5.83-12.9-11.29-26-17.23-38.82-4-8.69-7.22-17.41-18.75-20.37-16.87-4.33-33.19-10.83-49.79-16.24-5.92-1.93-12-3.39-16.48-4.64-8.91-2.09-10.07,2.33-7.11,8.65a116.5,116.5,0,0,0,13,20.68c5.81,7.73,9.06,17.41,13.26,26.32,5,10.69,27.9,66.32,31.1,75a7.86,7.86,0,0,0,5,4.35c12.38,2,24.7,3.54,36.47-3.29,7-4.09,14.68-7.12,22-10.75,3.08-1.54,5.53-3.95,3.86-7.68C919.62,969.39,914.27,958.44,909.25,947.34Zm-14,45.4c-10.41,6.06-29.22,4.57-32.64,2.22-9-21.87-20.08-51.62-24.17-60.33-6.56-14-13-28-19.93-41.79-2.37-4.67-6.36-8.51-9.5-12.8-.68-.92-5.11-7.71-1.58-6.24,22.24,7.35,43,16.33,64.07,23,4.76,1.5,7.19,3.77,9.19,8.48,8,19,16.79,37.69,25.29,56.49,3.17,7,6.37,14,9.63,21.19C908.62,986.27,901.66,989,895.26,992.74Zm243.81-101.82c2.73,4.8,6.64,8.91,9.85,13.46,2.09,3,4.49,2.93,6.94,1,6-4.61,11.82-9.37,17.63-14.18a4.42,4.42,0,0,0,1-5,1.75,1.75,0,0,0-.18-.29c-3.7-4.87-7.2-9.93-11.35-14.39-1.11-1.2-4.82-1.52-6.28-.58a126.66,126.66,0,0,0-16.8,12.56C1138.48,884.81,1138,889.1,1139.07,890.92ZM984.39,949.35c-9,3.26-18.26,6-27.34,9.22a7.35,7.35,0,0,0-2.22,1.35,2.82,2.82,0,0,0-.53,3.78,5.55,5.55,0,0,0,2,2c9.49,4.61,19.13,8.91,28.68,13.39,6.13,2.88,9.29,1.66,9.26-7.56,0-6.73-.24-9.42-.59-16S989,947.7,984.39,949.35Zm-16.18,12,18.66-5.8c.5,4.77,1,9.41,1.57,14.88Zm139.7-113.21c6.66-5.14,13.55-10,20.23-15.11a12.79,12.79,0,0,0,2.51-3,3.25,3.25,0,0,0,.14-3.41,5,5,0,0,0-7.09-.8c-6.94,5.1-13.42,10.87-20.57,15.65-3.21,2.14-3.41,3.88-1.66,6.46C1103.35,850.65,1105.48,850,1107.91,848.11Zm12.6,19.72a3.53,3.53,0,0,0,2.54,4.73,4,4,0,0,0,3-.09c7.69-5.27,15-11,22.45-16.72a14.07,14.07,0,0,0,2.32-2.81c-.21-3.52-4.76-4.6-8.1-2.21-7.31,5.2-14.51,10.56-21.53,16.14A2.27,2.27,0,0,0,1120.51,867.83ZM443.59,739.73c5.35,3.74,10.47,7.81,15.64,11.8,7.13,5.51,14.13,11.19,21.33,16.61,10.9,8.21,22.09,16.06,32.82,24.5,3.82,3,7.27,2.66,10.29.21a27.4,27.4,0,0,0,6.63-8.61c4.31-8.3.67-22.48-1.14-31.61a11.11,11.11,0,0,0-3.11-4.71c-4.41-3.52-6.13-4.92-10.62-8.37-11.84-9.1-23.87-18-35.89-26.83-8.3-6.13-16.45-12.47-24.86-18.44-5.41-3.85-11.64-2-13.35,3.4-.69,2.15-2.56,4-3.09,6.13a132.81,132.81,0,0,0-3.1,16.62c-.24,2.26,1.58,4.69,1.68,7.07A14.7,14.7,0,0,0,443.59,739.73Zm4.92-40.34a1.07,1.07,0,0,1,1.68-.56c3.88,3,7.23,5.54,10.62,8.06,10.24,7.62,52.3,39.39,63.21,47.5l.13.07c.38,2.3.71,7.33.71,8.18a1.29,1.29,0,0,1-2.27.82,40.88,40.88,0,0,0-6.16-6.29c-16.26-12.15-61-44.06-68-48.72-.52-.34-1.62-1.75-1.49-2.54A57.59,57.59,0,0,1,448.51,699.39Zm1,16.51c19.6,14.65,38.95,29.24,58.49,43.58,4.16,3,13.86,8.9,13.86,13.89-.91,2.71-6.14-.68-16.22-7.65-3.38-2.33-39.05-27.86-58.75-42.25C443.71,720.53,445.08,713.2,449.54,715.9Z"/></g><g id="Thrusters"><path d="M780.51,775.33c-7.13,2.08-6.59,14.57-.87,18.14,3.67,2.29,10.5,2.35,16.89-1.44,4.94-2.93,3.44-15.82,2.11-17.56C793.87,769.7,783,774.62,780.51,775.33ZM1021,610.22c-5.24-2.68-13,1.76-12.12,5.66.54,2.5,4.25,5.76,10.18,7.51,4.59,1.35,12-3.67,12.43-4.88C1031.89,614.65,1022.75,611.14,1021,610.22ZM231.8,537c-7,0-12.74,4.28-12.74,9.55,0,4.6,6.27,8.18,13.3,8.18,5.07,0,9.68-2.47,11.71-7a3.94,3.94,0,0,0,.28-2.37C243.13,539,238.43,537,231.8,537Zm503.8-318c-6.63-1.07-12.17,3.24-12.17,7.23s10.58,7.31,12.17,7.23c7.45-.4,12.16-3.24,12.16-7.23S741.76,219.93,735.6,218.93Z" fill="#007aff"/></g></g></svg>