<svg xmlns="http://www.w3.org/2000/svg" viewBox="0 0 1500 1500"><title>Federal Assault Ship</title><g id="Federal_Assault_Ship" data-name="Federal Assault Ship"><g id="Colour"><path d="M1418.32,1125.32c1.38-15.09-4.63-27.38-11.86-39.65-10.83-18.37-21.18-37-32.19-55.29-11.55-19.16-20.67-39.75-35-57.32-12.94-15.88-24.92-32.56-37.2-49-6.61-8.84-13.51-17.54-19.28-26.93-8.73-14.22-16.47-29-24.93-43.44-1.55-2.62-2.6-4.07-.1-6.75,1-1,.56-4.23-.28-5.92-3.91-7.88-8.18-15.58-12.33-23.35-6.25-11.69-12.45-23.42-18.79-35.08-3.77-6.93-7-14.32-11.81-20.5-9.51-12.28-19.93-23.86-30-35.75-13.63-16.17-27.13-32.45-40.88-48.52-11.14-13-21.75-26.26-29.79-41.61-8.15-15.56-18.45-30-26.28-45.72-9.21-18.47-35.13-69.72-39.57-76.45-2.8-4.25-5.76-8.86-9.77-11.76-15.84-11.48-32.92-21.15-48.47-33.12-8.08-6.22-17-11.32-25.51-17-15.65-10.48-31.25-21.06-46.92-31.52-5.34-3.57-14.95-1.43-15,3.59-.27,15.2.06,30.42.46,45.62.18,7.07,1.06,14.12,1.73,22.51l-98.4-64.28c3.23-10.46,6.8-20.43,9.23-30.67,1-4.23.11-9.17-.9-13.55-1.67-7.19-8.16-9.65-13.86-13.07-15.85-9.5-31.33-19.6-47.17-29.11a9.59,9.59,0,0,0-7.9-.23,208.86,208.86,0,0,0-23.11,13.16c-4.6,3.09-7.31,3.64-12.47.07-17.77-12.29-36.32-23.47-54.45-35.25-13.24-8.61-26.2-17.63-39.46-26.21-11.86-7.68-23.93-15.06-36-22.48-18.88-11.64-36.87-24.58-57-34.46-16.48-8.11-31.45-19.33-47-29.25-5.66-3.6-12.76-1.57-14.7,4.73-1.85,6-3.37,12.08-4.67,18.2-1.15,5.36-7.47,12.23-12.69,12.93a4.89,4.89,0,0,1-3-.89c-5.74-3.68-11.17-8-17.22-11a46,46,0,0,0-14.65-4c-1.66-.21-3.57,2.91-5.63,4-5.17,2.78-10.57,5.14-15.74,7.93-7.85,4.22-15.4,9.07-23.45,12.86-5.49,2.58-12.93,11.76-13.4,17.81-.52,6.82-.91,13.75-2.51,20.36C346,300.52,336,303.79,327.63,307.68c-2.24,1.05-7-3.2-10.56-5.1a37.7,37.7,0,0,1-4.54-2.87c-5.72-4.22-12.09-3.29-15.89,2.94-8.23,13.47-16.22,27.09-24.13,40.76-.65,1.12-.37,3.23.23,4.54,3.31,7.19,5.12,15.52,13.53,19.13.34.15.47.79,1.17,2-4.21,1-8.48,1.07-11.65,3-16.07,9.6-33.34,17-47.93,29.39-5.65,4.78-11.29,9.28-15.49,15.26-4.74,6.73-7.79,14.24-6.19,22.76,1.18,6.31,2.92,12.52,4,18.85,1.68,9.55,2.89,19.19,4.6,28.73.81,4.52,1.46,9.41,3.7,13.24,4.45,7.55,10,14.48,15,21.67,9.72,13.81,19.36,27.67,29.15,41.42,12.58,17.68,25.29,35.28,38,53l-67,46c-.21-.55-6-1.2-8,0-9,5.51-17.77,11.35-26.57,17.17-7.16,4.74-14.33,9.46-21.23,14.55-1.36,1-2.11,3.63-2.12,5.52,0,7.8,7,10.62,11.59,14.73,14,12.56,28.63,24.5,43,36.68a30.8,30.8,0,0,0,22.84,7.22c12.12-1.07,24.07-3.87,36.12-5.78,11.54-1.82,23.12-3.4,34.67-5.18,12.24-1.89,24.46-4,36.71-5.81,11.21-1.67,22.49-2.92,33.69-4.66,12.41-1.94,24.74-4.38,37.15-6.32,13.15-2,33.83-5.8,46.62-9.17,9.3-2.45,9.27-1.33,15.36,4.69.88.87,5,5.46,5.84,6.41,5.92,6.94,7.19,9.86,8.06,18,.55,5.13,2,10.16,3.16,15.22,2.19,9.79,4.5,19.55,6.63,29.35,2.19,10.07,4.09,20.19,14.1,26.09,2.18,1.28,3.9,3.34,6.89,6-9.58.89-17.77,1.76-26,2.38-11.39.86-22.81,1.39-34.19,2.31-16.4,1.32-32.78,2.93-49.18,4.3-10.29.86-20.61,1.42-30.9,2.27q-25.14,2.08-50.26,4.39L323.56,845c-7.19.6-14.38,1.3-21.54,2.19q-25.44,3.17-50.87,6.6a9.24,9.24,0,0,0-5.12,2.3c-6.34,6.49-5.05,17.47,2.27,22.83s14.65,11,21.92,16.61c11.28,8.66,22.82,17,33.69,26.16,10.68,9,22.3,16.7,33.12,25.49,13.27,10.79,27,21.07,40.58,31.41a25.6,25.6,0,0,0,8.87,4.74c7.64,1.89,15.42,3.23,23.2,4.48a138,138,0,0,0,18.75,2.14c3.64.09,7.42-2.45,11-2.11,13.08,1.26,26.11,3.11,39.13,5,13.52,1.91,27,4.24,40.51,6.06,12.86,1.73,25.8,2.87,38.67,4.57,12.11,1.59,24.17,3.59,36.25,5.39q14.65,2.21,29.32,4.36c7.47,1.11,14.92,2.35,22.4,3.31,12.51,1.59,25.07,2.87,37.57,4.54,12.11,1.62,24.17,3.65,36.27,5.36,8.74,1.24,17.52,2.11,26.24,3.48a14.19,14.19,0,0,1,6.09,3.07c8.22,6.48,16.27,13.18,24.45,19.71,13.93,11.14,27.8,22.35,41.92,33.25,8.94,6.91,17.67,14.51,27.63,19.55,8.7,4.39,19,5.74,28.58,8.24,19.56,5.08,39.17,10,58.75,15q30.65,7.88,61.27,15.85,28.56,7.44,57.08,15c3.59,1,7.44,1.55,10.59,3.33,6.5,3.7,12.51,8.25,18.9,12.16,14.66,9,29.87,17.11,44,26.81,10.29,7.05,21.48,7.76,32.58,6.63a103.17,103.17,0,0,1,16.78-.77c19.63,1.15,39.3,1.56,58.95,2.43a64.41,64.41,0,0,1,13.35,1.8c14.7,3.81,29.25,8.23,44,11.88,7.45,1.85,15.22,3.8,22.77,3.52,14-.51,28-2.42,42-4.17,4.85-.61,10.7-1.14,14.09-4,12.73-10.88,24.5-22.87,36.93-34.11,3.63-3.28,5.15-7.15,3.7-11.1-1.79-4.85,1.18-6.74,3.52-9.68s5.08-6.26,5.2-9.52C1419.28,1144.94,1417.44,1135,1418.32,1125.32Z" fill="#243544"/><path d="M1418.32,1125.32c1.38-15.09-4.63-27.38-11.86-39.65-10.83-18.37-21.18-37-32.19-55.29-11.55-19.16-20.67-39.75-35-57.32-12.94-15.88-24.92-32.56-37.2-49-6.61-8.84-13.51-17.54-19.28-26.93-8.73-14.22-16.47-29-24.93-43.44-1.55-2.62-2.6-4.07-.1-6.75,1-1,.56-4.23-.28-5.92-3.91-7.88-8.18-15.58-12.33-23.35-6.25-11.69-12.45-23.42-18.79-35.08-3.77-6.93-7-14.32-11.81-20.5-9.51-12.28-19.93-23.86-30-35.75-13.63-16.17-27.13-32.45-40.88-48.52-11.14-13-21.75-26.26-29.79-41.61-8.15-15.56-18.45-30-26.28-45.72-9.21-18.47-35.13-69.72-39.57-76.45-2.8-4.25-5.76-8.86-9.77-11.76-15.84-11.48-32.92-21.15-48.47-33.12-8.08-6.22-17-11.32-25.51-17-15.65-10.48-31.25-21.06-46.92-31.52-5.34-3.57-14.95-1.43-15,3.59-.27,15.2.06,30.42.46,45.62.18,7.07,1.06,14.12,1.73,22.51l-98.4-64.28c3.23-10.46,6.8-20.43,9.23-30.67,1-4.23.11-9.17-.9-13.55-1.67-7.19-8.16-9.65-13.86-13.07-15.85-9.5-31.33-19.6-47.17-29.11a9.59,9.59,0,0,0-7.9-.23,208.86,208.86,0,0,0-23.11,13.16c-4.6,3.09-7.31,3.64-12.47.07-17.77-12.29-36.32-23.47-54.45-35.25-13.24-8.61-26.2-17.63-39.46-26.21-11.86-7.68-23.93-15.06-36-22.48-18.88-11.64-36.87-24.58-57-34.46-16.48-8.11-31.45-19.33-47-29.25-5.66-3.6-12.76-1.57-14.7,4.73-1.85,6-3.37,12.08-4.67,18.2-1.15,5.36-7.47,12.23-12.69,12.93a4.89,4.89,0,0,1-3-.89c-5.74-3.68-11.17-8-17.22-11a46,46,0,0,0-14.65-4c-1.66-.21-3.57,2.91-5.63,4-5.17,2.78-10.57,5.14-15.74,7.93-7.85,4.22-15.4,9.07-23.45,12.86-5.49,2.58-12.93,11.76-13.4,17.81-.52,6.82-.91,13.75-2.51,20.36C346,300.52,336,303.79,327.63,307.68c-2.24,1.05-7-3.2-10.56-5.1a37.7,37.7,0,0,1-4.54-2.87c-5.72-4.22-12.09-3.29-15.89,2.94-8.23,13.47-16.22,27.09-24.13,40.76-.65,1.12-.37,3.23.23,4.54,3.31,7.19,5.12,15.52,13.53,19.13.34.15.47.79,1.17,2-4.21,1-8.48,1.07-11.65,3-16.07,9.6-33.34,17-47.93,29.39-5.65,4.78-11.29,9.28-15.49,15.26-4.74,6.73-7.79,14.24-6.19,22.76,1.18,6.31,2.92,12.52,4,18.85,1.68,9.55,2.89,19.19,4.6,28.73.81,4.52,1.46,9.41,3.7,13.24,4.45,7.55,10,14.48,15,21.67,9.72,13.81,19.36,27.67,29.15,41.42,12.58,17.68,25.29,35.28,38,53l-67,46c-.21-.55-6-1.2-8,0-9,5.51-17.77,11.35-26.57,17.17-7.16,4.74-14.33,9.46-21.23,14.55-1.36,1-2.11,3.63-2.12,5.52,0,7.8,7,10.62,11.59,14.73,14,12.56,28.63,24.5,43,36.68a30.8,30.8,0,0,0,22.84,7.22c12.12-1.07,24.07-3.87,36.12-5.78,11.54-1.82,23.12-3.4,34.67-5.18,12.24-1.89,24.46-4,36.71-5.81,11.21-1.67,22.49-2.92,33.69-4.66,12.41-1.94,24.74-4.38,37.15-6.32,13.15-2,33.83-5.8,46.62-9.17,9.3-2.45,9.27-1.33,15.36,4.69.88.87,5,5.46,5.84,6.41,5.92,6.94,7.19,9.86,8.06,18,.55,5.13,2,10.16,3.16,15.22,2.19,9.79,4.5,19.55,6.63,29.35,2.19,10.07,4.09,20.19,14.1,26.09,2.18,1.28,3.9,3.34,6.89,6-9.58.89-17.77,1.76-26,2.38-11.39.86-22.81,1.39-34.19,2.31-16.4,1.32-32.78,2.93-49.18,4.3-10.29.86-20.61,1.42-30.9,2.27q-25.14,2.08-50.26,4.39L323.56,845c-7.19.6-14.38,1.3-21.54,2.19q-25.44,3.17-50.87,6.6a9.24,9.24,0,0,0-5.12,2.3c-6.34,6.49-5.05,17.47,2.27,22.83s14.65,11,21.92,16.61c11.28,8.66,22.82,17,33.69,26.16,10.68,9,22.3,16.7,33.12,25.49,13.27,10.79,27,21.07,40.58,31.41a25.6,25.6,0,0,0,8.87,4.74c7.64,1.89,15.42,3.23,23.2,4.48a138,138,0,0,0,18.75,2.14c3.64.09,7.42-2.45,11-2.11,13.08,1.26,26.11,3.11,39.13,5,13.52,1.91,27,4.24,40.51,6.06,12.86,1.73,25.8,2.87,38.67,4.57,12.11,1.59,24.17,3.59,36.25,5.39q14.65,2.21,29.32,4.36c7.47,1.11,14.92,2.35,22.4,3.31,12.51,1.59,25.07,2.87,37.57,4.54,12.11,1.62,24.17,3.65,36.27,5.36,8.74,1.24,17.52,2.11,26.24,3.48a14.19,14.19,0,0,1,6.09,3.07c8.22,6.48,16.27,13.18,24.45,19.71,13.93,11.14,27.8,22.35,41.92,33.25,8.94,6.91,17.67,14.51,27.63,19.55,8.7,4.39,19,5.74,28.58,8.24,19.56,5.08,39.17,10,58.75,15q30.65,7.88,61.27,15.85,28.56,7.44,57.08,15c3.59,1,7.44,1.55,10.59,3.33,6.5,3.7,12.51,8.25,18.9,12.16,14.66,9,29.87,17.11,44,26.81,10.29,7.05,21.48,7.76,32.58,6.63a103.17,103.17,0,0,1,16.78-.77c19.63,1.15,39.3,1.56,58.95,2.43a64.41,64.41,0,0,1,13.35,1.8c14.7,3.81,29.25,8.23,44,11.88,7.45,1.85,15.22,3.8,22.77,3.52,14-.51,28-2.42,42-4.17,4.85-.61,10.7-1.14,14.09-4,12.73-10.88,24.5-22.87,36.93-34.11,3.63-3.28,5.15-7.15,3.7-11.1-1.79-4.85,1.18-6.74,3.52-9.68s5.08-6.26,5.2-9.52C1419.28,1144.94,1417.44,1135,1418.32,1125.32Z" fill="none" stroke="#000" stroke-linejoin="round" stroke-width="8"/></g><g id="_2nd_Colour" data-name="2nd Colour"><path d="M1300.38,1112.79l16,13.48,7.92-6.33v-8.37l25.63-25.45,10.45,4.18,48.13,55.09-1.65-46.62-34.38-63.3-9.07-7.93-41.53-72.32L1278.39,898,1258,859l-15.4-38.53-34.41-61.88L1106.09,635.94l-21.3-15,40.15,105.19-6.32,9.08,41,40,164.67,251.21-73.64,63.86-4.71-11.09-41.77-40.94-11.82-2.8-89.93-89.88-28.87,19.25-63-66.55L976.77,856.8,971.49,854l-66.55,2.78-3.85,15.37-8.9,1.32-61,1.76-10.69-13-58.62,3.32-13.44,7.9-66.75,49.83-2.91,4.95-27.68-24,76-62.86L403,590l.32-13.2L415.12,574l50.44-55.16,4.9-2.54,44.39,31.29-3.32-34-10.71-13.26L419,442,318.37,374.5,293,366.72l-75.29,46.5-8.25,14.07L208,436.91l9.68,54.67,81.12,75.61L383,627.89l5.88,33v10.19l-11.26-4.29-30.37-18.06-78.71,55.37,5.29,25,196.64-36.3,26.38,19.84L507.48,741l96.65,77,15.64,3.12,23.92,64.77,1.65,16.22-88.48-72.49H545.79L356.87,846,251.54,856.77l-6.6,8.82,88.55,67.9L689.62,947l9.9-1.1,131.69,112.75,108.38,27.77,28.33-23.1,93.19,23.93,2.82-2.32-12.23-13.13-3.76-6.49,6.88-17.94,17.87,2.3-5.3,22.13,77.9,80.35,8.8,3.87,129,32.28,61.87,9.13,6-1.42-48.67-55.07-14-16.9L1261,1093.74h12.68Zm-55.69,36.48c-1.5,3.22-4.58,5.79-8.9,4.66-4.49-1.19-9-2.46-13.44-3.74q-14.41-4.12-28.81-8.31c-1.88-.55-15.2-5.6-16.81-6.61a5.6,5.6,0,0,1-1.52-1.58c-5.33-5.53-10.42-11.28-15.59-17-2.19-2.41-4.67-4.63-6.42-7.32-.63-1-.06-3.48.26-4.64a1.28,1.28,0,0,1,.74-.85l34.81-15a5.13,5.13,0,0,1,4.93,1.21c11,11.76,21.7,23.73,32.55,35.61,5.16,5.64,10.58,11.06,15.55,16.87C1243.58,1144.37,1245.4,1147.74,1244.69,1149.27ZM893,828l59.33-5.71L773,712.71l-73.2,76.78s58.3,42.8,60.79,42.54S893,828,893,828Zm73.45-184.64L937.12,616l-85,61,34.38,24.2Zm13.86-65.84-23.88,12.74,142.32,140.21,9.47-5-42.74-121.29-53-33.08Zm50.88,0L991,472.38l-77-47.87-6.53-1.88-2.2,4.66,2.2,71.14Z" fill="#404b56"/></g><g id="Paint"><path d="M810.36,379.82l-63.54-35.38L724,356.65c17.29,10.55,69.43,41.75,69.43,41.75L805.34,414l6.93-22.81ZM243.75,658.07l-12.09,8.18-7.89,2.55-2.3,1.46c22.49,17.93,68,54.81,68,54.81l6.88,22.52-14,2.48-7.7-23.65-63.22-49.79-25.6,16.24L178.67,702l54.22,45.38,20.61,8.33,81.29-14.27-9.27-22.18S247.84,659.54,243.75,658.07Z" fill="#e5e5e5"/></g><g id="Canopy"><polygon points="1352.91 1087.33 1325.97 1110.01 1325.97 1117.59 1316.34 1126.27 1309.85 1120.6 1272.15 1093.74 1259.69 1093.74 1294.75 1131.8 1363.64 1208 1408.47 1162.29 1412.59 1154.2 1352.91 1087.33" fill="#82b3d1"/></g><g id="Shadows" opacity="0.2"><path d="M1375.22,1181.87c-10.75-37.54-50.25-70.26-50.25-70.26l-50.46-39.84-8.8,10.48-169.1-162.54-36.72-66.55-48.89-34L653.62,537.53,651,530.68,638.47,502.1l-42-29.72-74-51.45-3.77-57.57L359.11,258.77s-3.22,37.12-4.43,37.61-26.17,18.07-26.17,18.07l-27.94-13.67L271.8,351.86l19.55,15.41-69,39L206,433.89,218.7,500.3l86,117.77L240.1,660.93l76.31,60.38,9,21.78L484.5,720l21.08,21.79L524,814.17l18.17,16.08-147.64,9,358.84,190.67L781,1041l64.25,52.78,211.57,65L1136.6,1208l21.2.49,68.91,1.38,79.48,13.44S1386,1219.4,1375.22,1181.87ZM554.34,333.05l17.15,18.81,7,19.79,152.87,62.9L901.49,571.34,935.22,599,1136.6,775.23l3-7-52.8-51.9L845.08,505.4l-53.64-38.62-1.26-13.59L765.12,414l-48.43-38.91L554.34,258.77l-88.6-52.28L452,238.16l-10.2,9.19,109.25,71Z" fill="#111"/></g><g id="Outline"><path d="M1139.6,882.33c3.79,6.84,8.51,13.15,12.88,19.66a2.38,2.38,0,0,0,1.26,1c5.67,1.49,11.21,2.49,16.31-2,6.52-5.68,13.37-11,19.88-16.72,2-1.71,4.25-4.09,4.51-6.38.28-2.49-1.08-5.64-2.69-7.77-4.07-5.39-8.57-10.46-13.11-15.47-2-2.14-9.64-11.13-14.24-7.61-9,6.89-17.73,14.12-26.53,21.26-.64.51-1.38,1.59-1.25,2.24C1137.43,874.55,1137.7,878.91,1139.6,882.33Zm7.83-7c6.23-5.47,12.62-10.77,19.2-15.82,1-.78,4-.65,4.84.23a130.53,130.53,0,0,1,10.68,12.9c.67.91.36,3.64-.5,4.36-7.14,6-14.5,11.81-21.82,17.64a10.94,10.94,0,0,1-1.81,1c-.65-.31-1.29-.41-1.56-.78-3.6-4.92-7.3-9.78-10.53-14.93C1145.36,879,1146.35,876.29,1147.43,875.34Zm32.46,48.4c5,6.8,10.09,13.53,15.55,19.94.79.92,4.08.72,5.52-.13a82.53,82.53,0,0,0,9.56-7.21c4.33-3.51,8.63-7.07,12.84-10.72a6.1,6.1,0,0,0,1.17-2.34c-.08-.9,0-1.37-.16-1.61-5.34-7-10.6-14-16.2-20.76-.68-.83-3.74-.88-4.72-.09-7.7,6.22-15.21,12.68-22.63,19.23C1180,920.77,1179.39,923.06,1179.89,923.74Zm-20.27,193c5.17,5.68,16.51,18.16,17.11,18.54,1.61,1,14.93,6.06,16.81,6.61q14.4,4.18,28.81,8.31c4.47,1.28,9,2.55,13.44,3.74,4.32,1.13,7.4-1.44,8.9-4.66.71-1.53-1.11-4.9-2.65-6.7-5-5.81-10.39-11.23-15.55-16.87-10.85-11.88-21.58-23.85-32.55-35.61a5.13,5.13,0,0,0-4.93-1.21l-34.81,15a1.28,1.28,0,0,0-.74.85c-.32,1.16-.89,3.67-.26,4.64C1155,1112.1,1157.43,1114.32,1159.62,1116.73Zm29.73-23a1.87,1.87,0,0,0,.25.41c7.4,8.5,38.4,42.21,46.27,50.78a.72.72,0,0,1-.69,1.19c-6-1.35-47.75-13.91-54.07-15.76-4.76-5.25-14.58-15.84-21.63-23Zm229.16,31.58c1.37-15.09-4.63-27.38-11.87-39.65-10.83-18.37-21.18-37-32.19-55.29-11.55-19.16-20.66-39.75-35-57.32-12.94-15.88-24.92-32.56-37.2-49-6.61-8.84-13.51-17.54-19.27-26.93-8.74-14.22-16.47-29-24.94-43.44-1.54-2.62-2.6-4.07-.1-6.75,1-1,.56-4.23-.28-5.92-3.9-7.88-8.18-15.58-12.33-23.35-6.25-11.69-12.45-23.42-18.78-35.08-3.78-6.93-7-14.32-11.82-20.5-9.51-12.28-19.93-23.86-30-35.75-13.62-16.17-27.13-32.45-40.87-48.52-11.15-13-21.76-26.26-29.8-41.61-8.15-15.56-18.45-30-26.28-45.72-9.21-18.47-35.13-69.72-39.56-76.45-2.81-4.25-5.77-8.86-9.78-11.76-15.84-11.48-32.91-21.15-48.46-33.12-8.08-6.22-17-11.32-25.51-17-15.66-10.48-31.25-21.06-46.92-31.52-5.35-3.57-15-1.43-15.05,3.59-.27,15.2.06,30.42.46,45.62.18,7.07,1.07,14.12,1.74,22.51l-98.41-64.28c3.23-10.46,6.8-20.43,9.23-30.67,1-4.23.12-9.17-.9-13.55-1.66-7.19-8.16-9.65-13.86-13.07-15.84-9.5-31.33-19.6-47.17-29.11a9.57,9.57,0,0,0-7.89-.23,209,209,0,0,0-23.12,13.16c-4.59,3.09-7.31,3.64-12.46.07-17.78-12.29-36.32-23.47-54.46-35.25-13.24-8.61-26.2-17.63-39.45-26.21-11.87-7.68-23.93-15.06-36-22.48-18.88-11.64-36.87-24.58-56.95-34.46-16.49-8.11-31.45-19.33-47-29.25-5.65-3.6-12.75-1.57-14.7,4.73-1.84,6-3.36,12.08-4.67,18.2-1.14,5.36-7.47,12.23-12.69,12.93a4.86,4.86,0,0,1-2.95-.89c-5.75-3.68-11.17-8-17.23-11a46,46,0,0,0-14.65-4c-1.66-.21-3.57,2.91-5.63,4-5.17,2.78-10.57,5.14-15.74,7.93-7.85,4.22-15.39,9.07-23.44,12.86-5.5,2.58-12.94,11.76-13.4,17.81-.53,6.82-.92,13.75-2.52,20.36-2.56,10.58-12.5,13.85-20.87,17.74-2.25,1.05-7-3.2-10.56-5.1a36.93,36.93,0,0,1-4.54-2.87c-5.73-4.22-12.09-3.29-15.9,2.94-8.23,13.47-16.22,27.09-24.13,40.76-.65,1.12-.37,3.23.23,4.54,3.31,7.19,5.12,15.52,13.53,19.13.35.15.48.79,1.18,2-4.22,1-8.48,1.07-11.65,3-16.07,9.6-33.35,17-47.94,29.39-5.65,4.78-11.29,9.28-15.49,15.26-4.73,6.73-7.78,14.24-6.19,22.76,1.18,6.31,2.92,12.52,4,18.85,1.69,9.55,2.89,19.19,4.6,28.73.81,4.52,1.46,9.41,3.71,13.24,4.44,7.55,10,14.48,15,21.67,9.71,13.81,19.35,27.67,29.14,41.42,12.59,17.68,25.29,35.28,38,53l-67,46c-.2-.55-6-1.2-8,0-9,5.51-17.77,11.35-26.57,17.17-7.15,4.74-14.33,9.46-21.23,14.55-1.36,1-2.11,3.63-2.12,5.52,0,7.8,7,10.62,11.6,14.73,14,12.56,28.62,24.5,43,36.68a30.78,30.78,0,0,0,22.84,7.22c12.11-1.07,24.07-3.87,36.12-5.78,11.53-1.82,23.11-3.4,34.66-5.18,12.25-1.89,24.46-4,36.72-5.81,11.21-1.67,22.48-2.92,33.68-4.66,12.41-1.94,24.74-4.38,37.15-6.32,13.15-2,36.34-6.44,49.12-9.81,9.3-2.45,8.81,1.49,14.9,7.52.88.87,2.92,3.33,3.8,4.22,6.6,6.6,7.19,9.86,8.06,18,.56,5.13,2,10.16,3.16,15.22,2.19,9.79,4.51,19.55,6.64,29.35,2.18,10.07,4.08,20.19,14.09,26.09,2.18,1.28,3.91,3.34,6.89,6-9.58.89-17.77,1.76-26,2.38-11.39.86-22.81,1.39-34.2,2.31-16.4,1.32-32.78,2.93-49.17,4.3-10.29.86-20.61,1.42-30.91,2.27q-25.14,2.08-50.26,4.39L323.74,845c-7.19.6-14.37,1.3-21.53,2.19q-25.45,3.17-50.87,6.6a9.27,9.27,0,0,0-5.13,2.3c-6.34,6.49-5.05,17.47,2.27,22.83s14.65,11,21.92,16.61c11.28,8.66,22.83,17,33.69,26.16,10.68,9,22.31,16.7,33.13,25.49,13.27,10.79,26.95,21.07,40.57,31.41a25.69,25.69,0,0,0,8.87,4.74c7.64,1.89,15.43,3.23,23.2,4.48a138.18,138.18,0,0,0,18.75,2.14c3.65.09,7.42-2.45,11-2.11,13.07,1.26,26.1,3.11,39.12,5,13.52,1.91,27,4.24,40.51,6.06,12.87,1.73,25.81,2.87,38.68,4.57,12.11,1.59,24.16,3.59,36.24,5.39q14.65,2.21,29.32,4.36c7.47,1.11,14.92,2.35,22.4,3.31,12.52,1.59,25.07,2.87,37.58,4.54,12.11,1.62,24.16,3.65,36.26,5.36,8.74,1.24,17.53,2.11,26.24,3.48a14.13,14.13,0,0,1,6.09,3.07c8.22,6.48,16.27,13.18,24.45,19.71,13.93,11.14,27.8,22.35,41.92,33.25,8.94,6.91,17.67,14.51,27.63,19.55,8.7,4.39,19,5.74,28.58,8.24,19.57,5.08,39.17,10,58.75,15q30.64,7.88,61.28,15.85,28.54,7.44,57.08,15c3.58,1,7.44,1.55,10.58,3.33,6.5,3.7,12.51,8.25,18.9,12.16,14.67,9,29.88,17.11,44,26.81,10.28,7.05,21.47,7.76,32.57,6.63a103.22,103.22,0,0,1,16.78-.77c19.63,1.15,39.3,1.56,59,2.43a64.32,64.32,0,0,1,13.35,1.8c14.71,3.81,29.26,8.23,44,11.88,7.44,1.85,15.21,3.8,22.76,3.52,14-.51,28-2.42,42-4.17,4.84-.61,10.69-1.14,14.08-4,12.73-10.88,24.5-22.87,36.94-34.11,3.63-3.28,5.14-7.15,3.69-11.1-1.78-4.85,1.18-6.74,3.52-9.68s5.08-6.26,5.21-9.52C1419.46,1144.94,1417.62,1135,1418.51,1125.32ZM1288.16,917.85q14.27,18.63,28.55,37.25a32.85,32.85,0,0,1,1.9,3c-1.79,1.4-4,2.33-4.54,3.85-.34,1,1.72,2.89,2.81,4.31,3,3.93,6.08,7.81,8.95,11.5-2.08,0-8.51,5.5-7.38,7,11.26,14.94,16.73,23.84,28.19,38.64,2.42,3.13,10,13.77,12.78,16.5,1.48,1.43,10.26-.79,10.71-1.4,5,8.67,10.1,17.31,15.06,26,5,8.88,10.13,17.76,14.91,26.79,1.71,3.24,3.53,6.89,3.66,10.41.46,12,.18,24,.18,36.28-3.32-4.39-6.76-9-10.29-13.59-8.8-11.39-18-22.53-26.35-34.2-4.75-6.6-8.24-14.1-12.41-21.13-7-11.85-13.73-23.92-21.3-35.4-15.83-24-32.4-47.51-48.18-71.54-15.43-23.5-30.19-47.43-45.38-71.09-6.78-10.56-14-20.86-20.8-31.39a15,15,0,0,1-2-5c0-1.31,1.24-2.13,3.12-.79,5,4.14,44.87,38.3,54.17,46.43C1280,905.08,1283.64,911.94,1288.16,917.85Zm55.75,171.7c-6.75,5.18-12.67,11.46-18.79,17.43-1.19,1.16-2.72,3.29-2.38,4.46,1.9,6.44-2.93,8.32-6.22,11.59a1.64,1.64,0,0,1-2.6-.49c-3.29-6.73-21.71-19.43-22.73-20.17-13.27-9.62-16.22-12.7-28.73-15,21.27-19.2,41.34-37.31,62.12-56.08l32.09,52.42a.53.53,0,0,1-.64.78C1350.67,1082.52,1347.18,1087,1343.91,1089.55Zm-1.29,25.07c-2.83,1.9-9.43.82-14.1-2.81l23.9-21.51C1354.64,1101.24,1351.35,1108.76,1342.62,1114.62ZM1049,1071.9c3.22,4.39,8,7.59,12.23,11.28a1,1,0,0,1-1,1.75q-14.77-4-29.54-8.06l-28.89-8.48c-.06-.63,4.33-28.56,5.27-33.89.27-1.54-.82-4.3-2.08-4.93-3.14-1.59-6.71-2.39-10.16-3.29-6.15-1.61-9.88-.28-10.86,4.22-2,9.21-5.65,25.6-6.7,30.68l-4.75-1.38c-1.79-.42-2.45-1.08-2.62-1.44-5.14-11.18-10.56-22.23-15.88-33.33q-19.29-40.23-38.57-80.47-16.17-33.73-32.38-67.46l17.33-2.58a7.6,7.6,0,0,0,3.69-1.6c3.54-2.46.72-13.44,4.75-14.54s27.26-1.54,29.49-1.58c5.77-.09,33.55-1.44,34.67,0,9,12.08,32.47,42,33.1,42.69,2.6,3.07,5.66,5.74,8.43,8.66,4.75,5,9.41,10.13,14.64,15.77-7.12,6.19-13.78,12.08-20.55,17.84-3.14,2.68-3.9,9.57-.82,12.15,1,.8,3.57,1.06,4.38.36,7.71-6.62,22.45-19.88,25.22-22.15,2.33,2.41,3.16,3.27,5,5.12-3.34,3-6.6,5.89-9.9,8.78-5,4.42-10.13,8.77-15.1,13.26a5.88,5.88,0,0,0-.25,8.18c4.34,4.65,6,4.16,10.82-.09q11.41-10,22.79-20.06l5.66,5.93c-4,3.28-19.25,16.24-24.4,21.13-2.71,2.59-1.67,6.22.32,8.28,2.51,2.59,5.63,3.9,8,1.94,5.18-4.24,10.25-8.61,15.28-13,3.51-3.08,6.87-6.33,10.26-9.47,6.16,2.95,5.52,7.82,3.74,13.7-7.18,23.78-14,47.68-20.95,71.52-1.19,4.06-3.6,8.07-3.57,12.09A22.5,22.5,0,0,0,1049,1071.9Zm1.32,28.94,24.74,6.38a8.6,8.6,0,0,0,3,.22c7.11-2.54,9.32,3.31,13.24,7.19q9.77,9.64,19.4,19.42c1.47,1.5,7,6.84,5,6.32-8.29-2.12-15-3.78-21.66-5.55-4.66-1.24-9.28-2.59-13.89-4a6.51,6.51,0,0,1-2.72-1.57C1068.6,1120.16,1059.93,1111,1050.28,1100.84Zm13,24.45-105.92-31.13c4.19-4.62,8.11-9.21,12.37-13.45a6.08,6.08,0,0,1,5-1.38c15.85,4.37,31.61,9,47.43,13.53,3.94,1.12,8.12,1.54,11.91,3,2.65,1,4.93,3.17,7.19,5a60.15,60.15,0,0,1,4.63,4.68q9,9.33,18.08,18.65A.65.65,0,0,1,1063.33,1125.29Zm13.24-23.85c-10.62-3-21.24-5.9-31.84-8.91-23.06-6.53-46.09-13.15-69.17-19.61-3.61-1-6.94-.63-9.81,2.72a206.41,206.41,0,0,1-16.31,17.27,10.37,10.37,0,0,1-8.12,2.27c-22.44-5.38-81.35-19.33-88-21.72-6.13-2.18-11.88-5.42-17.72-8.41a1.11,1.11,0,0,1,.86-2c4.63,1.55,9.23,3.18,13.94,4.4,17,4.4,34,8.58,51,12.79,1.21.3,38.2,8.9,39.35,8.52,1.35-.45,27.67-22.15,28.9-23,13.11,3.58,83.89,23.11,96.91,27,4,1.19,7.29,4.71,10.9,7.15C1078.92,1100.84,1078.4,1101.94,1076.57,1101.44Zm-678-517.26c-.2.67-.56,1.76-.78,2.43a.84.84,0,0,0,.22.89c5.54,4.9-1,28-2.61,41.55-.54,4.62,0,8.18,4.62,11.6,17.52,12.94,34.47,26.65,51.65,40.07,3.66,2.86,7.37,5.67,11.65,9l-185,35.11a1.41,1.41,0,0,1-1.67-1.21,13.69,13.69,0,0,1,1.09-8.84,7.7,7.7,0,0,0,.27-5.1c-.65-2.19-3.47-3.76-4-4.76,9.43-6.51,20.2-14,28.65-19.83q21-14.64,41.9-29.36c1.07-.76,5.05-3.7,5.14-4,9.3,6.76,25.94,18,28.1,19.16l.07,0c12.46,6,13.5,3.71,14.21,3.19a5.77,5.77,0,0,0,2-4.44c-.5-5.91-1.34-11.8-2.28-17.66-2-12.43-5.16-24.46-3.38-37.44,1.87-13.69,1.11-18.06,2.37-27,1.86-13.12,7.25-19,11.72-28,5.51-11.18,15.81-15.5,25.17-21.47,7.26-4.63,26.44-17.43,38.08-24.29a1,1,0,0,1,1.19,1.52c-13.19,13.56-42.53,44.35-44.24,45.54s-7.78,9.2-9.9,9.2C404.72,570,401.27,575.21,398.57,584.18ZM406.43,602c4.05,3.32,14,11.15,21.17,16.86,5.46,4.33,5.14,8.64,4.9,13.54-.35,7.13-1.82,14.2-2.83,21.43-8.06-6.1-16.49-12.21-24.52-18.8-1.52-1.26-2.17-4.53-2-6.76C404,619.67,405.25,611.14,406.43,602Zm31.81,53.68c1-8.7,2.27-17.38,3.53-26.88,8.43,6.57,16.17,12.41,23.63,18.59a7.45,7.45,0,0,1,2.31,5.58c-.91,8.9-2.29,17.75-3.64,27.57-5.25-3.9-10.12-7.42-14.87-11.09-2.72-2.09-5.2-4-8.32-6.39C437.17,660.14,437.92,658.43,438.24,655.65ZM462,371.24c-8.35-5.79-16.32-11.32-24.28-16.87-.45-.31-1.44-.76-2.07-1.16-7.12-4.55-7.55-9.06-9.33-15.07-2.49-8.37-4.55-16.87-6.64-25.35-.38-1.54-1.17-3.09-.05-4.62,5.74-6.1,9.88-.94,13.78,1.54,10.55,6.71,20.73,14,31,21.08C457.85,343.67,463,357.18,462,371.24Zm.58,12.92c5.51-3.38,9.22-4.25,14.42-.21,7.33,5.69,15.15,10.74,23.39,16.5-5.84,3.52-11.22,6.88-16.75,9.95-.85.47-2.69,0-3.63-.65-9.07-6.38-18.05-12.88-27.3-19.52C456.21,388.12,458.55,386.64,462.58,384.16Zm59.4-59c-2.33-4.57-4.84-9-7.16-13.61a17.76,17.76,0,0,1-1.1-3.25,1,1,0,0,1,.79-1.24,3.23,3.23,0,0,1,2.13.05,14.06,14.06,0,0,1,3,3.32c1.41,1.76,2.43,4.06,4.2,5.26,8.74,5.91,17.67,11.53,27.19,17.68-8.67,5.21-16.83,10.17-25,15-4.78,2.83-9.72,5.4-14.49,8.25-4,2.38-7.27,13-5.86,18.22,1.74,6.55,3.53,13.09,5.09,19.69.33,1.38,2.24,7-.48,5l-41.4-28.75c-.6-8.2-1.87-18.11-1.76-28a15.53,15.53,0,0,1,5.39-10.62c2.35-1.84,7.06-1.28,10.61-.83a45.24,45.24,0,0,1,11.27,3.32c1.83.75,3.12,2.74,4.79,4a11.13,11.13,0,0,0,4.06,2.17c.48.1,1.66-1.62,2-2.68,1.4-3.94,8.32-8.53,12.87-8.21C521.79,330.21,524.22,329.52,522,325.13ZM558.56,367c2.52,3.16,11.11,9.84,14.5,12.79l5.83,3.95c-.66,3-1.87,5.81-1.56,8.44.13,1.12,3.4,2.05,5.37,2.68a3.23,3.23,0,0,0,2.95-.73c3.13-5,6.24-2.14,9.27-.08,6.06,4.14,12,8.39,18.26,12.74-1,2.69-5.9,4.61-1.4,8.55,2.82,2.46,4.6,3.5,7.75.67,1.53-1.37,7.09-5,7.09-5.73A4.45,4.45,0,0,0,625,406.8c-1.61-1.33-2.21-1.48-5-2.84,8.58-5.49,16.59-10.69,24.74-15.67.66-.4,2.36.6,3.42,1.21,1.85,1.06,3.58,2.33,5.62,3.69-7.15,4.56-14.08,8.85-20.85,13.39-1.42.95-3,2.77-3.08,4.25,0,1.22,2.09,2.52,3.7,4.27-2.36,1.63-5,3.36-7.59,5.28-2.89,2.18-2.91,4.44.22,6.48q31.11,20.28,62.22,40.55c2.39,1.56,7.18,4.14,9.66,5.46,12.34,6.57,11.22,6.28,15.4,7.48,4.53,1.3,9.12-2.71,9.4-3.08l19.74,15c4.59,3,10.36-1.2,22.19,9.95,3.4,3.2,5.43,5.59,9.08,8.43-5.1,8-5.1,8,1,14.61-1.56,1.16-24.21,16.73-28.42,19.51-3.82,2.65-4.16,3.18-7,5.35-7.74-8.61-11.74-8.94-21.55-.4-5-3.83-10.09-7.4-14.74-11.49-2.35-2.07-5.25-5-5.52-7.71-.88-9.07-5.08-9.45-14-16.62-2.07-1.66-3.91-2.67-6-4.4-6.75-5.71-11.08-6.43-18.48-1.63l-8.08,5.25V502.85l12.15-7.27c7.47-4.65,9.82-7.07,13.45-9.94a5.29,5.29,0,0,0,1.95-5.38c-1.66-6.76-7.91-10.72-14.3-14.87-16-10.36-31.8-20.9-47.37-31.83-5.49-3.86-10.1-3.23-15.14,0-1,.67-6.12,4.62-7.12,5.36-.53-.19-7.25-4.14-7.78-4.32L565.74,448c-2.08-1.68-6.56-2.87-9.47-5.23,8.61-5.31,18.52-11.25,27-16.51l8.66,4.6a21.62,21.62,0,0,0,2.68-1.46c4.22-3.14,6.39-3.92,5.84-5.28-1.09-2.66-5.81-4-7.77-3.23-3.17,1.23-5,.18-7.12-1.23-6.22-4.25-12.34-8.65-18.75-13.16,2.87-5.11-.64-7.12-4.48-8.07a117.16,117.16,0,0,0-12.94-2,8.27,8.27,0,0,1-4.6-2.2c-3.69-3.46-10.92-8.35-13.15-10.54-1.71-1.68-6.88-4.1-3.45-6.24,9.38-5.85,13-7.57,22.56-13.17C555.27,361.67,557.11,365.21,558.56,367Zm-.46-31.66c9.51-6.65,16-11.18,21-14.52l38.47,24.42L593.73,359.9C584.34,353.42,564.86,340.09,558.1,335.37Zm120.67,76.47c4.45,3,9,5.84,13.48,8.8a9.08,9.08,0,0,1-1.32,1.45c-10.87,7.09-10.85,7.06-21.43-.88-2.43-1.82-5-3.52-7.56-5.11-4.86-3-8.57-.64-11.9,2.86l-6.22-3.23c9.18-5.86,17.83-11.58,26.73-16.88,1.55-.93,3.48,1.69,4.22,2.43C668,406.18,672.16,407.45,678.77,411.84Zm54.84,48.39c-4,3.89-8.15,4.95-15.15,10.18-.9.67-2,.85-2.47-.18a31.73,31.73,0,0,1-1.44-3.42c-1.56-4.9,4-7.4,6.94-9,2.55-1.43,5.08-2.92,7.51-4.34a1.79,1.79,0,0,1,2.32.47l2.5,3.27A2.31,2.31,0,0,1,733.61,460.23ZM738,471.88c2.78,2.17,4.33,3,6.85,4.71-7.43,7-5,4.8-17.47-4.25C730.89,467.91,733.71,468.58,738,471.88ZM713.64,442l-21.93-12.24c2.83-3.56,6-3.27,9.8-1.09,5.79,3.29,11.9,6,18.35,9.25Zm-17.23,22.63-59.58-38.91c1.21-1.72,2.34-3.31,3.39-4.81,17.91,11.8,36.08,23.6,54,35.79C696.13,458,696.5,461.63,696.41,464.65ZM994.05,684c12.51,9.71,25.17,19.22,37.79,28.79l53.31,40.4a38.37,38.37,0,0,0,4.76,3.54c1.34.71,4.67-.69,6.48-2.4a2.25,2.25,0,0,1,3-.08c2.24,1.83,4.62,3.77,7,5.67,2.89,2.27,2.44,4.67,0,6.66-6.3,5.09-12.51,10.35-19.29,14.73-2.39,1.54-8,2.09-10.28.73-6.75-4-12.29-8.39-18.61-13.12-2.8-2.88-1-5.43,2.29-3.85,2.65,1.86,10.79,9,15.31,10.82,1.58.64,5.24-1.7-5.42-9.87-20.54-15.75-41.37-31.14-61.94-46.86-11.87-9.07-21.6-17-33.91-26.75-4.3-2.68-7.37.33-3.78,3a82,82,0,0,1,10.26,8.9c1.43,1.72-.45,4-3.28,1.88-4.74-3.58-9.51-7.12-14.16-10.81-3.94-3.12-3.93-5,.21-8.12,6.49-4.81,13.08-9.49,19.68-14.15,3.31-2.33,8.18-1.09,11.94,2.87C990.48,678.06,989.87,680.79,994.05,684Zm11.41-109.65a9.64,9.64,0,0,1,6.85.64c4.51,2.51,8.62,5.74,13.43,9.06-8.2,2.69-15.94,5.14-23.6,7.85-1.53.54-3.79,2-3.83,3.17-.07,2.2.51,5.28,2,6.5,4.27,3.45,9.15,6.14,14.57,9.63-7.58,2.55-14.28,5-21.12,7a6.89,6.89,0,0,1-5.3-1.39c-10.61-8.63-21-17.47-31.88-26.54C973,584.9,989.19,579.49,1005.46,574.38Zm-51.82,6.31c-6.57,2.38-10.17-1.18-14.48-5-7.92-7-16.33-13.51-25-20.62,7.24-2.55,13.67-5,20.22-7.07,6.79-2.16,13.62-4.31,20.57-5.81a12.43,12.43,0,0,1,8.33,1.27c10.53,6.44,20.77,13.37,31.12,20.12.91.6,1.87,1.15,3.33,2C982.16,570.9,967.81,575.55,953.64,580.69Zm64.06,40.38c4.4-1.8,7.69-2,12.55.49,4,2,10.39-.06,15.45-1.36,6-1.55,11.72-4.21,18-6.54,6.94,18.17,35.29,90.11,42.13,108,2.28,4.52-4.1.21-8.23-1.46-7.43-3-33.49-34-42.29-43-20.74-20.9-34.79-35.34-55.06-49.87C1006.89,625,1012.39,623.26,1017.7,621.07ZM613.78,451c4.84,3.29,9.75,6.48,15,9.94-3.67,2.64-7,5.26-10.58,7.45-.94.57-3,.26-4-.43-4.44-3-8.7-6.31-13-9.53-4.8-3.58-10.51-5.32-16.32,1.49l-6.34-3.42c9.59-6.18,19-11.94,28.18-17.93,5.18-3.37,7.24-.75,8.56.52C608.41,444.63,608.41,447.35,613.78,451Zm23.28,17c8.13,4.64,12.25,7,18.59,10.49-4.21,5.62-5.3,5.34-12.63,1-5.76-3.43-9.69-5.82-14.62-8.72C633.18,466.36,633.52,465.92,637.06,468ZM626.4,496.82c2.63,1.52,3.92,3.06,4.69,6.65,1.31,6.08,1.85,13.08,8,17.44,1.79,1.27,2.5,4.22,3.41,6.52,3.65,9.17,7.19,18.38,11.11,28.46a.47.47,0,0,1-.67.59c-7.22-4.21-33.8-20.52-43.69-27.25a17.66,17.66,0,0,1-6-7.47c-3.57-8.59-7.33-17.22-9.58-26.19-2.35-9.4-8.5-14-16.31-18.42-27.27-15.56-54.17-31.77-81.24-47.69-3.54-2.08-7.19-4-11.09-6.1,10.5-3.6,18.7.61,26.94,5.69q28.1,17.31,56.52,34.07C587.73,474.49,607.1,485.61,626.4,496.82Zm36.14,76.88c-4.25,7.43-4.29,7.94,1.76,12.72,6.22,4.9,12.71,9.44,19,14.25,3.7,2.84,4.67,3,7.45-2.3.32-.6.63-1.27,1.17-2.3,2.55,2,47.15,35.06,49.34,36.63-4.4,2.33-5.76,8.46-2.29,11.82a104.74,104.74,0,0,0,11,8.72c6.08,4.46,12.48,8.5,18.33,13.23,4,3.22,4.67,3.38,8-1.81,1.21-1.86,1.57-2.65,2.43-4l47.75,35c-8.15,4.1-8,4.08-6.76,13.37.92,7.06,1.35,14.19,2,20.67-17-9.93-27.62-15.91-45.27-26.41-6-3.6-12,5.08-14,7.17q-27.75,29.26-55.37,58.65c-4,4.23-7.7,8.7-11.73,13.27-13.56-10.39-26.75-20.51-39.84-30.53,7.09-7.62,14.22-15.43,21.52-23.07,10.59-11.11,21.34-22.06,32-33.14,3.27-3.41,6.36-7,9.49-10.51,3.78-4.25,4.89-5.64,7.5-8.86,1.27-1.48-.76-2.47-4-4.5-5-3.15-45.67-27.27-51.09-30.35q-28-15.95-56-32.08c-6.7-3.88-77.16-51.54-91.63-61-1.93-6.76-6.5-21.26-8.23-27.87Zm5.63-46.27c10.36,7.78,48.88,35.81,59.16,43.7,10.7,8.23,22.39,17.39,33,25.67,17.33,13.46,34.54,26.53,51.89,40,9.35,7.25,27,20.55,25.83,22.27-.48.94-1.76,2.78-3.65,1.38-10-7.4-18.44-14.87-28.23-22.48-8.53-6.63-17.35-13.4-25.85-20.06-13.32-10.41-25.34-19.57-38.69-30-9.94-7.73-24.51-18-34.46-25.71-4.86-3.76-37.27-28.26-42.17-32C659.48,526.05,661.88,523.36,668.17,527.43Zm-5.56-13.28c3-5,6.45-3.63,10-.78,2.21,1.8,4.38,3.64,6.4,5.31C673.48,524.38,665.62,516.33,662.61,514.15Zm132.79,1.07,17.86,13.33c-8.14,5.77-22,15.22-29.58,21.15-4.91,3.86-8.8,3.62-13.18-.08-2.62-2.21-5.27-4.38-8.45-7,6.26-4.27,12-8.48,18-12.19C789.27,524.68,796,517.6,795.4,515.22ZM850.66,557c-2.38,1.46-14.52,9.52-18,11.9-11,7.48-21.9,15.05-32.84,22.59-5.77,4-11.46,8-17.34,11.82-1.17.76-3.59,1.18-4.5.5-8.2-6.16-16.2-12.59-24.82-19.39l30.61-20.71c10.4-7.05,26.59-18.92,37.11-25.8a18.28,18.28,0,0,0,2.47-1.85l27.34,20.42A.32.32,0,0,1,850.66,557Zm3.12,6a5,5,0,0,0,1.46-2.47.42.42,0,0,1,.64-.19l9.16,6.84q14.09,10.51,28.14,21.08c-21.61,15-48.79,34.47-70.27,49.35a2.5,2.5,0,0,1-.82.27l-35.68-27.51c13.32-9.16,26.42-18.14,39.5-27.16C833.29,578.17,846.56,568.38,853.78,563.06Zm-82.5-5.38-28.1,19.14L726,563.55c2.83-.87,5.78-1.17,8.05-2.57,6.4-4,12.44-8.47,18.81-12.47,1.36-.85,4-1.25,5.18-.5C762.43,550.75,766.44,554.06,771.28,557.68Zm-41.43,28.08h0l1.06.83h0c11.23,8.78,30.8,23.84,41.47,32.2h0c8.14,6.22,16.27,12.43,24.35,18.72,9.1,7.08,18.11,14.27,27.19,21.39,4.13,3.24,9.43,5.63,8.15,12.48a3.12,3.12,0,0,0,1.49,2.6c12.72,4.1,22.12,13.55,33,20.52C877,701.16,886.87,708.72,897,715.8c5.57,3.88,11.38,3.56,16.83-.63,1.39-1.07,2.95-1.91,4.67-3,.3,3.06-.39,6.46,1,8.21a72.8,72.8,0,0,0,11.6,11.2c14.49,11.56,29.16,22.9,43.4,34l-14.79,15.5L666.5,564.6v-7.87a7.16,7.16,0,0,0-.25-1.84c-4.49-15.9-8-20.84-10.58-25.31a.64.64,0,0,1,1-.82Q693.16,557.19,729.85,585.76ZM955.64,707.18c9.47,7.45,19.12,14.67,28.66,22q21.38,16.45,42.71,33,15.16,11.69,30.38,23.32c1.43,1.1,4.67-.85,9.6-2.42a55.8,55.8,0,0,1,5.37,3.93c2.21,1.92,2.47,3.42-3.17,7.8-6.25,4.84-8.65,6.61-13.83,10.88-6.06,5-9.92,6.23-14.44,3.2a168.23,168.23,0,0,1-16.39-12.8c-4.81-4.24-3.9-6.86-1.16-5.94,4.18,3.07,7.4,5.89,10.64,7.7,1.09.61,4.21,2.56,5.62,1,1-1.09-.82-2.81-1.75-3.59-6.77-5.64-13.86-10.9-20.84-16.3l-52-40.29c-8.25-6.39-16.44-12.86-24.8-19.1a3.75,3.75,0,0,0-2.34-.65c-1.13.11-1.54.24-1.56,1.38s0,2.27.57,2.84a114.21,114.21,0,0,0,9.54,7.81c0,.08,0,.21-.08.37a2.1,2.1,0,0,1-2.3,1.62,3.67,3.67,0,0,1-1.7-.54c-4.53-3.23-8.91-6.68-13.36-10s-4.77-6.41-.55-9.58c6.31-4.74,12.77-9.29,19.24-13.82,3.12-2.18,5.62-2.05,8.82-.22-1.39,1-4.33,2.31-4.24,3.34C952.37,703.87,954.05,705.93,955.64,707.18Zm50.09,84.27c-1.82,1.48-3.58,2.72-5.13,4.2-5.37,5.11-5.33,5.13-11.33.31-1.26-1-2.63-1.87-3.9-2.86s-2.19-1.84-3.28-2.76l-1.59-1.25c3.08-3.14,6.17-6.27,9.46-9.63ZM892.38,776.06c-7.37-4.21-16.7-10.42-24.24-14.85-12.48-7.33-18.87-12.48-31.35-19.8-5-2.92-7.63-17.31-8.09-22.68-.33-3.92-.43-7.86-.65-12.11,3.35-1.93,5.85-4,8.12-2.48,13.09,8.84,47.18,34.53,60,43.73C900.93,751.27,896.75,768.87,892.38,776.06Zm-375.14-219c1.13-1.06,2.1-2,3-2.69,7.35,4.87,22.19,14.77,37.6,25-4.8,4.64-16,15.71-16,15.71-3.37-1.82-5.58-1.86-8,.62a11.06,11.06,0,0,1-14,1.37c-4-2.71-8.18-5.2-12.19-7.92s-7.89-5.59-12.06-8.55c3.63-4.16,7.07-8.27,10.7-12.21S513.62,560.79,517.24,557.06Zm50,31.49a9.45,9.45,0,0,0,1.54-1.88c18.69,12.43,35.79,23.75,38.61,25.41l-15.07,15.09-37.95-25.25C558.77,597.3,562.91,592.85,567.21,588.55ZM602.84,635s9.83-11.54,14.73-17.12c12.46,7.29,29.11,17.16,41.94,24.66-9.18,9.65-17.85,18.94-26.8,27.94-.91.9-4,.8-5.29,0-10.34-6.78-20.49-13.84-30.93-21C600,644.64,608.79,637.87,602.84,635Zm67.27,13.66,9.36,5.46c.54.32,32.12,18.72,33.47,19.52C706,681,652.6,736.56,652.1,737.1c-7,7.72-7,7.72-15,1.46l-30-23.45Zm-30.36,98.73c25.18,20.56,62.33,49.24,88.81,69.37h0c9.22,6.59,17.29,12.39,21.32,15.27,1.25.92-19.35,7.93-20.34,7.1-3.25-2.73-10.16-7.35-17-12.7h0c-9.23-6.89-34.82-27.55-44.35-34.76-11.33-8.57-22.4-17.49-34-25.73-3.56-2.53-4.26-4.49-2-7.81S636.94,751.4,639.75,747.39Zm95.38,42.88c-4,4.47-7.62,9.24-11.81,14.35l-19.49-14.55,68.94-73.77,44.94,27.85-32.26,34.62c-6-4.78-11.81-9.55-17.79-14.07-4.41-3.33-8.57.19-11,2.48C749,774.36,742.13,782.4,735.13,790.27Zm36.69,35.07c8-8.45,16.07-16.91,24.18-25.3,5.23-5.43,5.34-9.26-.47-15.43l32-34.39c6.56,4,13.22,7.92,19.6,12.2,2.94,2,74.17,45.62,74.17,45.62l19.91,12.17c-11.08.53-55.6,2.62-57.52,2.69-21.83.72-43.67,1.28-65.49,2.25-15.59.7-31.16,1.94-47.77,3C768.39,828.38,771.43,825.76,771.82,825.34Zm126.47-44.88c7.84-8.53,8.51-13.88,8.1-25.73,7,5.25,14.08,10.58,21.2,15.81,13.45,9.88,26.9,19.77,40.48,29.47,1.54,1.11,16.3,11.42,21.48,17.16-2.87,3.47-5.69,6.87-9,10.84C974.3,823.59,899.75,781,898.29,780.46ZM962.42,788c-.74-.69-.78-1.27-.43-1.62l-.22-.15c5.22-5.64,11.69-12.86,16.5-18.06l8.5,6.56c-4,4.48-8.82,10.07-13.12,15a2.15,2.15,0,0,0,.4,3.18c18.28,13.19,19.9,17.64,28.3,10.88,3.33-2.69,5.89-6.22,9.09-9.58,8.92,6.9,17.14,13.65,25.82,19.75,2.84,2,6.94,2.13,10.35,3.44,1.28.49,17.72,6.79,21,9.36,4.53,3.5,9.28,6.7,14.21,10.23-.48,1.56-17.67,10.1-18.49,9.62-19.17-11.19-38.13-22.76-57.43-33.71-2.17-1.23-6.19.81-11,1.6C993.11,812.56,965.47,791.56,962.42,788Zm107.78,14.91c9.89-8.18,27.42-24.52,35.12-27.71,3,.83,8.12,4.19,13.14,7.69,9.55,7.71,12.71,8.45,4.45,16.05-1.72,1.58-3.68,3.76-5.75,5.45q-8.6,7-17.32,13.81a5.39,5.39,0,0,1-2,.89Zm44.9-40.65c-4-8.92-14.3-13.48-21.9-20.61-1.64-1.54-22.08-19-23.9-20.49,6.15-5.54,9.66-5.16,14.85-.41,8.73,8,41.18,37.3,49.2,44.65a.64.64,0,0,1-.59,1.09Zm4.35-34.17c-1.84.77-4.83-4.09-6.33-7.39s-3.09-9-4.4-12.48c-10.59-28.12-22.14-57.58-32.71-85.7a9.35,9.35,0,0,1-.61-4.76c.33-1.45,1.38-2.17,2.69-1.46s1.54.91,2.35,3l40.82,107.88C1120.65,727.5,1120.05,727.81,1119.45,728.12Zm-45-17c-3.64,2.32-7.42,5.78-11,6.73-1.82.49-3.62-1.13-5.92-2.37a1.49,1.49,0,0,1-.23-2.46c3.38-2.79,7.94-5,10.9-6.44C1069.57,705.88,1072.58,708.77,1074.49,711.07ZM941.22,686.84c-10.31,7.53-20.47,15.27-30.76,22.82-3.24,2.37-6.63,3.51-10.38.53-3-2.41-6.36-4.42-9.69-6.71l77.2-55.73,12.47,11.07C966.73,668.43,953.92,677.57,941.22,686.84Zm-27.77-8.07c-8.32,6-16.55,12-25.09,17.66-1.84,1.2-5.53,1.76-7.17.73-8.17-5.21-16-11-23.85-16.67a14.76,14.76,0,0,1-2-2.16L936,621l26.67,22.6C945.57,655.78,929.52,667.28,913.45,678.77Zm-12.23-43.34c-17.05,12.21-34,24.51-51.15,36.65-1,.68-2.89.51-4.19.13s-2.4-1.53-3.58-2.34c-5.1-3.49-5.1-3.6-.33-6.77a44.94,44.94,0,0,0,3.48,4.51c.82.87,2.75-.38,2.71-1.72-.09-3.25-.17-7.48-2.11-9.39-4.43-4.34-10-7.54-15.1-11.2-.75-.54-1.52-1-2.74-1.89,21.77-15.27,48.7-34.78,69.82-49.53.44-.3.9-.59,1.35-.87,4.5,3.39,9,6.78,13.51,10.19,2.1,1.6,4.5,2.45,3.55,6.92a2.51,2.51,0,0,0,.53,2.28,2,2,0,0,0,2.56.46,6.51,6.51,0,0,0,2.51-2.14,22.89,22.89,0,0,0,1.76-5.51,1.15,1.15,0,0,1,2.24,0c.73,3.26,1.48,6.59,2.45,10.88C920.38,621.85,910.76,628.6,901.22,635.43Zm18.1-34.95C907.66,591.7,781,496,759.86,480.07a2.54,2.54,0,0,1-.41-3.68l.76-.9a3,3,0,0,1,4.14-.44c21.46,16.69,144.83,114.8,156.45,123.56C922,600.4,920.75,600.93,919.32,600.48Zm-382.19-139c13.94,8.14,27.87,16.28,41.9,24.25a15.7,15.7,0,0,1,7.86,10A308.26,308.26,0,0,0,598.47,528c1.37,3.23,5.27,5.66,8.46,7.78,7,4.64,14.16,9,21,14.1a.66.66,0,0,1-.6,1.16c-3.61-1.17-7.22-2.33-10.79-3.6q-30-10.73-60-21.56c-14.17-5.11-28.37-10.13-42.43-15.52a10.65,10.65,0,0,1-5.3-5.22c-9.07-22.5-17.85-45.11-26.68-67.69-1.18-3-2.22-6-3.85-10.52C498.85,439,518,450.27,537.13,461.46ZM496.9,502.62c6.32,2.31,8,8.56,10.22,13.51,3.07,6.9,4.12,14.69,6.27,23-5-3-9.17-5.49-13.33-8-3.68-2.22-7.28-4.59-11-6.7-5.78-3.26-7.58-9.22-10.1-14.67-.81-1.76-.54-4.26-1.72-5.54s-4.08-2.15-5.18-1.48c-21.44,13-42.64,26.51-64.12,39.5-6,3.6-7.64,9.8-11.2,14.86-2.17,3.06-3.73,6.56-6,9.57-.93,1.26-1.69,4.28-4.38,2.62a4.39,4.39,0,0,0-.73-.47,1.71,1.71,0,0,1-.75-2.19c1.15-2.58,2.5-5.25,3.84-7.65,3-5.32,5.66-11,9.62-15.5,3.26-3.7,8.09-6.09,12.4-8.77,15.55-9.63,31.17-19.15,46.77-28.69,2.18-1.34,17.9-11,22.74-14.44l11.69,8.35A21.1,21.1,0,0,0,496.9,502.62Zm-88.63,26.23a95.4,95.4,0,0,1-8.71,5.34c-6.4,3.11-9.27,9-12.48,14.77-2.62,4.67-5.26,9.34-8.06,14.31-7.89-5.87-27.77-20.42-33.89-24.4-6.6-4.3-22.4-16.12-23.1-16.6-8.06-5.59-6.12-7.11-2.42-15.91a77,77,0,0,1,4.11-7.45c7-12.6,16-14.9,25-21.07s53.71-32.37,60.63-36.91c12.22,8.55,24.25,17.42,36.43,26.05q14.3,10.14,28.54,20.35C455.89,498.69,424.76,518.56,408.27,528.85ZM386.33,664.63a1.76,1.76,0,0,1-2.66,1.91s-57.27-41.4-74.41-52.61c-1.86-8.91-5.14-27.48-7-36.4,9.37,6.51,35.89,26.08,45.54,33.45,8.87,6.77,17.72,13.58,26.44,20.55,1.5,1.2,7.43,6.05,7.71,7.85C383.18,647.4,384.11,656,386.33,664.63Zm83.48-144.71L512.28,548c-5.53,5-47.68,47.47-53.55,53.76L419.2,572Zm20.67,67.3,32,21.38c-3.22,2.62-5.5,4.42-7.73,6.29-3.66,3.06-4.37,6.07.85,9.05-2.62,3-4.59,5.1-7.51,8.7-3.17,3.9-5.69,4.2-9.59,1.08-10.09-8.06-20.43-15.81-31.15-24.06Zm34.17,43.63,38,27.32-12.78,13.4L511.72,643ZM573,664.56c6.71,3.93,15.61-4.84,15.9-5.22,5-6.44,7.07-2.49,10.27-.35,8.76,5.88,17.29,12.12,26.44,18.58-9.22,9.84-18,19.28-26.93,28.59a3.51,3.51,0,0,1-3.4.32c-11.46-8.68-23.86-18.08-35.21-26.9C560.09,679.58,572.4,664.19,573,664.56Zm20.37,48.15c2.28,1.76,4.44,3.32,6.45,4.89h0c8.28,6.41,27.2,21,34.83,26.89l-11.91,13.41c-11.94-8.69-15.67-11.54-25.91-18.9a5.79,5.79,0,0,1-2-2.36C591.73,729.41,593.22,721.4,593.39,712.71Zm14.33,44.64c1.72,1,4.23,3,10.31,7.63,4.31,3.18,8.66,6.37,13,9.58,2.25,1.67,61.06,46,64.55,48.82,2,1.56,14.63,11.39,25.11,18.69.57.35.69.81,0,1.43l-68.16,52.17C637.83,852.24,620.8,802.26,606,758.73A1.16,1.16,0,0,1,607.72,757.35Zm52.16,146.52c11.42-8.41,21.82-16.23,33.23-24.64,16.88-12.45,29.76-21.84,47-33.83,4.47-3.12,21.3-7.23,26.73-7.52,24.19-1.27,50.41-3.06,74.62-4,14.63-.58,63.25-1.94,82.13-2.75,12.47,0,20.37,7,12.79,9a222.26,222.26,0,0,1-22.87,1.74c-14.22.45-62.61,2.4-76.82,2.92-16.35.59-36.87,1.58-53.21,2.33-6.89.32-25-.39-35.75,5.61-16,11.37-29.36,20.88-45,31.94q-18.45,13.05-37,26C664.69,911.26,656,907.62,659.88,903.87ZM705,891.78c14.11-10.22,29.68-21.34,44.18-31,4.84-3.22,11-4.93,16.87-5.87,7.31-1.16,17.85-1.29,25.3-1.65,16-.76,31.86-1,47.85-1.83,13.3-.66,28-1.11,41.25-2,19.15-1.3,32.94-.85,52.08-2.28,1.83-.14,3.67,0,5.5-.07,12.69-.72,25.54-.49,38-2.66,5.22-.91,9.85-6.6,14.17-10.73,2.41-2.3,3.64-5.85,5.34-8.74,20.61,10.28,40.33,20,59.9,29.95,4.87,2.48,8.1,1.82,13.42-.79,4-2,14-6.49,19.13-9.54,3.13,3.31,11.57,12.58,15.32,15.91.42.37,3.47,3.29,4.7,2.53a69.32,69.32,0,0,0,8.64-6.42c3.95-3.4,2.92-12.26-1.41-16-3.08-2.69-6.32-5.5-8.42-8.91-1.06-1.7-.72-6,.66-7.2,8.06-6.89,16.61-13.21,24.56-19.39,5.46-4.25,6.28-4.39,8.93-2.11,2.76,2.92,13.32,13.4,16,15.58h0c.82.68,3.38,2.92,3.94,2.59a56.25,56.25,0,0,0,5.93-4.69c6.28-5,4-7.92-1.08-14.39-3.79-4.86-9.16-12.37-11.23-15.61-1.71-2.45,4.52-6.6,6.31-4.36,4,5.51,8.4,10.82,12.09,16.56,11.85,18.4,23.34,37,35.17,55.44,10.38,16.15,22,31.6,31.24,48.34,5.63,10.16,13.18,18.8,19.07,28.67,6.41,10.75,12.83,21.5,19.69,32,13.36,20.41,27,40.6,40.46,61,.84,1.29,1.33,3.89.61,4.91-1.57,2.23-3.28.81-5.27-.51-1.6-1-5.1-1.5-6.3-.49-10,8.38-19.66,17.18-29.44,25.83-2.8,2.47-4.31,4.86-1,8.28.63.67.17,3.5-.72,4.34-7,6.67-14.26,13.14-22.27,20.4a1,1,0,0,1-1.71-.78c.47-12.42-10.43-16.5-16.64-23.5-7.73-8.71-17-16-25.06-24.47-5-5.28-11.4-3.6-17.24-4.55-8.08-7.63-37.29-35.31-42.73-41.7-6.33-7.42-46.41-47.46-46.41-47.46-3.93-3.07-6.64-8.17-12.55-8.09a12.49,12.49,0,0,0-5.8,2.75c-5.66,4.92-9.91,6.7-10.36,15.87-.08,1.69-1.16,3.34-1.78,5-3.08-2.07-54.33-54.44-62.21-63.49-.48-.55-36.27-44.53-37.48-44.92-1.44-.47-55.79,1.11-65.07,2-5.84.55-5.89,2-7.28,4.15-.71,1.08-1.17,6-1.39,9.08a2.86,2.86,0,0,1-2.74,2.66c-4.75.17-9.49.66-14.25.87l0,0q-26,1.15-52,2.14c-.68-.35-4-12.92-9-12.69-17.56.8-46.51,2.17-55.8,2.61-6.62,0-22,9.45-26.77,12.78-4.35,3-51.09,38.23-62.66,46.77l-6.4-5.86C672,915,695.16,898.93,705,891.78Zm57.62-22.59c5.35-1.47,13.65-1.51,57.88-3.35,2.82.69,6.17,13,8.74,13,3.51,1.76,33.08-1.47,33.1-1.17,6.2-.4,13.45-.57,13.79.12,4.1,8.32,7.88,16.14,11.88,24.51,7.08,14.84,14.05,29.73,21.17,44.55C916,961,923.08,975,929.8,989.18c9.83,20.74,19.41,41.6,29.19,62.37a64.33,64.33,0,0,0,5.86,10.15l.12.12c-2.05,1.31-24.61,21.26-25.22,21.1-12.78-3.3-54.83-13.25-64.52-15.87-15.24-4.13-31.58-5.27-44.68-15.47-11.39-8.86-23-17.46-33.68-27.15l-115-98.56C695.3,916.17,757.38,870.63,762.64,869.19Zm311,196.06c5-17,9.69-34.06,14.71-51,3.29-11.13,7.25-22.08,10.32-33.27.65-2.4-.36-6.5-2.14-8.11-9.71-8.75-8.89-11.26.55-19.6,2.18-1.92,3.26-2.75,5.56-4.76,8.1,7.34,34.5,35.71,43.27,45.26,9.2,10,39.23,38.72,44.45,43.69a4.65,4.65,0,0,0,.79.76,6.42,6.42,0,0,0,3.51,1.22c8.27-.21,13.4,4.85,18.71,10.24,9.22,9.37,19,18.2,28.3,27.48,1.89,1.89,3.94,4.78,3.92,7.2-.07,9,6.12,13.85,11.66,19.11,4.85,4.6,10.24,8.62,15.16,13.16,14.37,13.28,28.76,26.53,41,41.91,4.3,5.4,9.32,10.22,14,15.28,6.22,6.66,12.46,13.29,20,21.32-5.18-.61-8.93-1-12.68-1.49-14.84-1.83-29.74-3.23-44.48-5.66-10-1.66-19.81-4.8-29.72-7.2-14.26-3.46-28.56-6.75-42.8-10.29-12.14-3-20.76-4.46-32.87-7.61-7.45-1.93-13.89-3.71-23.52-6-8.31-2-15.92-7.43-21.15-13-4.92-5.22-9.68-10.6-14.69-15.73-18.82-19.32-37.72-38.56-56.24-57.46C1070.93,1068.72,1073.09,1067.22,1073.68,1065.25Zm190,30.49c11.5.63,21.23,9.75,35.13,20.19,2.86,2.15,4.6,3.92,7.34,6.26l-11.25,4.08C1287.32,1119.18,1271.13,1102.64,1263.72,1095.74Zm37.61,36.88c9.54-6,17-2.3,24.34,5,4.76,4.7,15,11.16,21.52,15.88a.88.88,0,0,1-.61,1.59C1330.48,1153.13,1309.89,1148.18,1301.33,1132.62Zm-40.59-261.57c1.2,2.11,0,2.56-1.48,1.18-14.28-10.69-32.78-21.14-47.24-32,1-1.57,7.43-4.13,6.07-7.61-1-2.58-2.14-3.71-4.52-4.46s-6.69,4.42-9.8,5.19a57.5,57.5,0,0,1-3.71-6.87c3.93-2.51,6.11-3.77,9.63-6.33,2.44-1.77-1-5.56-3.54-6-4.64-.86-6.36,2.19-12.56,5.23l-4.69-7.3c2.85-.63,4.14-1.8,6.9-3.16,6.21-3.07,2-9.46-4-6.71-7.58,3.44-10-4.21-12-7.9-3.27-5.8-4.65-8-8-13.25-1.92-3-5.74-4.45-8.66-6.64a23.92,23.92,0,0,1-2.94-2.36c-12.19-12.6-24.35-25.24-36.92-38.29,9.88-6.75,1.85-13.93-.29-20.38-3.05-9.17-6.49-18.21-10-27.23a.45.45,0,0,1,.77-.46c9.54,11,20.93,24.16,25.1,29.06,8.29,9.76,16.33,19.74,24.46,29.64s16.2,19.85,24.37,29.72q11.58,14,23.32,27.86c6.28,7.46,12.61,14.88,19,22.41C1249.7,846.72,1256.78,866,1260.74,871.05ZM1132.39,673.94q18.84,22.72,37.76,45.4c8.24,9.85,16.4,19.77,25,29.33s16.19,19.54,22.12,30.94c9.37,18,19.21,35.72,28.83,53.57a.35.35,0,0,1-.58.4c-5.07-6-10.19-11.93-15.2-18-8.3-10-16.53-20.05-24.81-30.06-7.38-8.9-14.82-17.75-22.18-26.67-8.15-9.89-16.21-19.84-24.34-29.75q-15.29-18.61-30.65-37.19c-1.63-2-23.55-26.59-23.58-26.61-.78-1.94-7-17.58-9.4-24.07-1.06-2.91-2.88-7.65-4.09-11.48a1.14,1.14,0,0,1,1.92-1.11c5.79,6.28,15,16.06,18.87,20.65C1118.91,657.44,1125.59,665.74,1132.39,673.94Zm-131-189.15c9.44,6.45,16.43,10.9,28.42,19.14,10.3,7.08,16.15,16.7,21.07,26.34.39.77,32,65.4,45.33,88.56a2.93,2.93,0,0,1,.31,2.47c-3.51-2.71-6.28-4.24-10.63-7.9-2.44-2.06-26.46-20.73-36.39-28.5-9.35-7.32-13.1-14.85-17.27-24.14C1022.46,539.05,996.79,481.42,1001.35,484.79Zm-90.53-58.93c2.31-.39,5.69,2.26,8.29,4,21.79,14.42,43.63,28.78,65.14,43.62,3.56,2.45,6.5,6.77,8.13,10.86,10.89,27.19,21.36,54.55,31.93,81.86.1.27,3.65,6.78,0,4.76-19.25-12.68-37.39-24.68-56.24-37.09-11.68-7.69-22.27-15.22-34.1-22.68-2.88-1.81-8.63-6.07-11.88-7.31-6-2.28-11.69-9.53-12.27-15.1-.49-4.82-1.63-36.13-2.18-52.2C907.56,433.5,907.13,426.48,910.82,425.86Zm-1.8,83a3.13,3.13,0,0,1,2.35.26c12,7.8,23.89,15.68,36.16,23.76-13,4.3-25.45,8.57-38,12.42-2.77.85-5.4,1.24-8.74-1.51-7.91-6.54-22.72-18.39-28-22.58a.72.72,0,0,1,.17-1.28C877,518.6,902.9,510.78,909,508.87Zm-44.27-30.56c11.61,7,22.66,14.92,34.41,22.87-4.17,1-5.91,1.48-11.19,2.93-8.45,2.31-13.7,1.66-19.88-3.08-6.67-5.11-16.86-13-23-17.35,2.49-2.82,5.4-4,7.85-5.13C855.92,477.13,862.48,476.94,864.75,478.31Zm5.1,31.25c-8.08,4.74-12,1.65-16-1.86-5.26-4.64-12.29-10.21-17.71-14.67-.74-.6.37-1.76,1.23-3a3.1,3.1,0,0,1,3.91-.95C851.86,494.28,858.82,503.36,869.85,509.56ZM809.7,448.21a4.27,4.27,0,0,1,3.15-1c2.08.17,4.21.23,5.81,1.19,11,6.62,21.8,13.64,32.83,20.61-4.92,3-11.34,4.83-15.32,2-9.3-6.63-19.49-13.93-28.85-20.46A14.24,14.24,0,0,1,809.7,448.21Zm-2.38-7.06c-12,6.6-18-3-23.9-16.64C790.68,429.47,800.77,436.68,807.32,441.15Zm-5.78-61.54c5.37.65,9.11,5.81,7.33,12.32-2,7.19-7.2,23.55-9.39,30.7l-9.3-5.67C793,407.66,798.67,389.11,801.54,379.61Zm-61-27.34a6.89,6.89,0,0,1,5.61.46c7.38,4.36,14.55,9.08,22.54,14.14-5,2.86-9.59,5.16-13.81,7.95-2.09,1.39-4.65,3.51-5,5.63-.22,1.38,2.93,3.66,4.93,5,5.81,3.88,11.64,7.77,17.79,11a10,10,0,0,0,7.54.08c3.54-1.5,6.6-4.11,9.87-6.26l1.42.75-7.16,22.16c-7.48-4.71-15.1-9.26-22.43-14.26-2.05-1.4-8.14-4.55-10.18-6a211.29,211.29,0,0,0-19.8-13.11c-7.61-4.21-6.2-9-7.86-18.35C729.27,358.49,734.77,355.12,740.54,352.27Zm-75.1,0c14.26,11,28.55,21.91,42.69,33,6.88,5.41,14.1,10.6,20,17,5.18,5.58,8.87,12.58,12.93,19.13,1.51,2.45,3.13,4.7,5.74,2.69,1-.72.57-4.56-.44-6.22-3.88-6.34-8.18-12.42-12.39-18.62a.43.43,0,0,1,.55-.62c24.42,12.4,37.83,34.67,52.1,57.79a.41.41,0,0,1-.62.52c-4-3.41-7.4-6.27-10.73-9.19-3.55-3.11-6.85-6.54-10.63-9.32a4.57,4.57,0,0,0-2.62-.6,2.61,2.61,0,0,0-2.55,3,5.38,5.38,0,0,0,1.17,3c3.6,3.49,7.77,6.39,12,9.77-3.44,3.17-2.4,4.74,1,7.05,12,8.17,24,16.5,35.41,25.49,15.31,12.06,30.14,24.74,45.08,37.27,12.47,10.46,24.7,21.21,37.22,31.61,16.09,13.39,32.43,26.47,48.49,39.89a49.14,49.14,0,0,1,9.19,10.61c3.48,5.18,9.62,8.58,14.63,12.74q15.19,12.63,30.42,25.24c10.28,8.52,20.6,17,30.84,25.57,10,8.36,19.9,16.8,29.83,25.22,3,2.55,6,5.15,8.76,7.53-3.67,2.14-7,4.29-10.5,6-1.21.59-3.43.67-4.4-.06-17.37-13.12-34.44-26.65-52.05-39.43-3.39-2.46-8.81-2.14-12.92-3,1.43-2.39,3.63-4.79,4.37-7.58,1.83-6.83-4.2-9.36-8.11-12.72-10.28-8.81-20.81-17.33-31.21-26-4.73-3.93-9.45-7.87-14.08-11.91-1-.91-2.59-2.47-2.38-3.37,1.21-5.1-2.81-6.78-5.66-8.89-19.29-14.4-39-28.33-58-43-12.44-9.59-24.05-20.27-36.14-30.33-14.28-11.9-28.7-23.62-43-35.5-6.82-5.66-13.75-11.24-20.13-17.37-4.16-4-7.77-5.33-11.8-.92-.66-.25-.83-.3-1-.37-12.54-5.53-11.13-18.77-15.9-28.6-1.32-2.73-2.75-5.95-5.08-7.54q-29.38-20-59.25-39.21c-1.86-1.19-5.57-.71-7.86.28-3.17,1.37-4.83,3-7.87,5.22a.65.65,0,0,1-.85-.11c-.71-.87-1.87-1.86-2.13-3.33a.78.78,0,0,1,.36-.83c1.59-.95,7-4.62,5.3-7.2-1.48-2.22-5.32-3.15-8.29-4s-6.8-.21-9.41-1.69c-5.89-3.35-32.4-21.05-36.75-21.82,3.05-1.9,5.85-3,7.78-5,2.49-2.53,5.58-5.53,6.12-8.71,1.12-6.69,3.5-12,9.38-15.24C634.75,328.13,660.44,348.39,665.44,352.24ZM470.19,236.34c1.28-1-5-3.46-7-4.55,1.37-5.36,2.67-10.46,4.12-16.11,6.92,4.47,149.33,93,163.16,106.93a1.11,1.11,0,0,1-.62,1.88c-7.71,1.34-10.12,7.24-12.6,13.16L598.9,325.79c-9.43-5.91-83.27-50-90.85-54.57-7.42-4.48-16.8-8.82-14.46-11.2,5.63-7.29.23-9.71-1.22-10.73-3.66-2.58-17.38,14.46-20,13.48-5.91-2.57-6.06-2.27-3-5.57,1.19-1.27,10.16-7.87,14.14-11.33a1.32,1.32,0,0,0,0-2,11.67,11.67,0,0,0-2.75-1.75c-3.11-1.74-3.86-.62-9.59,3.85-3.07,2.4-8.62,7.23-11.33,7.59-2.17.28-3.38-1.71-8-4.84C456.18,246.07,468.88,237.25,470.19,236.34ZM373.81,255.9l36.12-20,5.38,4.42c-11.32,6.32-21.9,12.59-32.88,18.07-2.09,1.05-5.49-.53-8.41-1.14A.74.74,0,0,1,373.81,255.9Zm-11.16,5.33c.74-.87,3.18-.91,4.58-.47,2.55.79,4.82,2.93,7.36,3.23,4.12.48,8.94,1.19,12.44-.43,8.93-4.12,17.27-9.51,25.88-14.33,4.34-2.42,8.64-4.8,9-10.75A.7.7,0,0,1,423,238c14.81,9.76,29.1,19.19,43.38,28.65.56.38,1.34,1.16,1.28,1.66-.78,5.8,4,7,7.5,9.35C485.13,284.28,495,291,505,297.75c-5.5,4.07-5.21,9,.34,14.27,2.93,2.76,5.56,5.84,8.37,8.93a1.37,1.37,0,0,1-.26,2.07c-2.24,1.48-4,2.68-5.72,3.76-5.73,3.52-10.27,2.67-15.38.64-4-1.59-8.18-2.64-10.86-7-2.54-4.16-7.93-4.45-12.91-1.36-2.89,1.79-4.88,1.21-7.36-.5-11.37-7.84-22.91-15.43-34.19-23.38-3.33-2.34-5.53-1.45-7.28,1.34-3.2,5.13-9,9.22-6.61,16.72,2.12,6.64,3.84,13.4,5.73,20.11.62,2.22,1.25,4.44,1.93,6.86a.63.63,0,0,1-1.09.57,92,92,0,0,0-6.6-7.5C410.81,331,382,311,375.67,308a5.29,5.29,0,0,1-2.32-2.59q-5.3-12.86-10.36-25.81c-1.48-3.77-3.42-7.54-3.86-11.46C358.89,265.94,361,263.19,362.65,261.23Zm18.87,57.71c-4.43,2.49-12.26,7.28-17.66,10-3.93,2-7.55,1.37-10.18-1.45,4.58-2.13,16.06-8.76,22.39-11.88C377.19,316.28,381.34,318.4,381.52,318.94Zm-32.9-5.62c3.37-1.93,4.92-3.05,12.07-7.44.87.45,7,4.53,8.57,5.34-5.39,3.12-10.31,6-15.24,8.8a30.11,30.11,0,0,1-4.25,2.21c-1.23.46-2.95,1.12-3.85.61-2.1-1.18-3.84-3-5.82-4.67C342.87,316.39,346.09,314.76,348.62,313.32Zm-68.68,34.92c-.29-1.05-.54-2.48-.07-3.31q10.8-19.23,21.83-38.33c.15-.28.61-1,1.07-.72,10.3,7.32,20.68,14.65,31,22.08a5.88,5.88,0,0,1,2,2.86c4.51,14.52,8.85,29.09,13.44,43.57.78,2.46,1.24,6.67,5.44,5,3.72-1.51,1.93-4.69,1-7.47-3.74-11.34-7.36-22.72-11-34.1-.84-2.63-.28-2.6-.06-2.49,2.42,1.52,8.32,5.82,9.2,6.43,24.11,16.88,47.16,33.06,71.23,50,11.74,8.25,24,15.89,34.92,25.13,4.8,4.07,7.29,11.22,10,17.35,5.45,12.41,7.83,19.2,13.06,31.72.57,1.38,3.29,7.61,5.1,11,.3.43-.21,1.87-1.29.94-17.11-12.13-30-21.23-47.08-33.42q-25.86-18.47-51.6-37.12c-9.46-6.84-18.76-13.88-28.29-20.61-1.34-.95-3.88-1.49-5.28-.88-7.05,3.08-12.14,2.15-19.1-2.72-9.5-6.64-12-8.69-20.73-14.73a22.54,22.54,0,0,0-19.16-2.89C287.49,359.79,282.89,358.81,279.94,348.24Zm12.17,24.94c1.27-.66,8.5-6,23.06,3.45,9.42,6.77,17.08,14.09,26.18,18.43,17.54,8.36,26.44,14.37,46.38,29.53,4.65,3.54,10.9,9,15.73,12.27-10,6-28.8,18-35.16,22-2.89,1.84-4.65,2.34-8-.13-24.68-18.26-49.69-36.08-74.53-54.13-7.1-5.16-14-10.61-21.07-16C273.75,383.44,282.78,378,292.11,373.18Zm-66,118.5c-1.88-4.51-12.55-46.61-13.48-52-1.56-9.1,4.76-21.63,11.39-27.92l34.37-19.5L357.82,465c-7.87,4.84-15.94,9-23.32,14.08-9,6.16-12.35,10.57-16.9,18.19a91,91,0,0,0-6.87,14.15c-1.82-1.1-4.82-2.72-5.35-3-7.82-4.58-17.26-5.89-21-6.71-13.29-2.93-26.58-5.83-39.84-8.84-3.47-.79-6.81-2.3-10.31-2.76C231.67,489.7,228.94,490.53,226.07,491.68Zm73.38,111.85c-3.34-4.75-6.56-9.6-9.84-14.39L283.12,580c-1.75-2.35-37.46-52.49-46.17-64.73a.6.6,0,0,1,.91-.78c8.56,8.48,24,24.08,32.7,32.7v-.05c8,7.92,16,15.78,23.86,23.82.84.86.78,2.67,1,4.06q2.58,14,5.12,28A.62.62,0,0,1,299.45,603.53Zm-22.09-66.47c-10.76-10.74-21.08-21.92-32.63-34.07a.83.83,0,0,1,.78-1.37c8.38,2,15.59,3.72,22.82,5.38,8.73,2,17.84,3,26.09,6.19,7,2.7,13.19,7.62,19.32,12.13,11.3,8.32,47.21,36,54.3,40.9,3.67,2.54,13.87,9.43,13.9,12.39,0,3.58-2.34,28.18-4.15,39.46-6-3-68.1-52.15-73.91-56.82A333.31,333.31,0,0,1,277.36,537.06Zm29.82,83.57c6.87,5.76,25,19.85,35.2,27.63-1.37.86-28.54,20.79-40.51,29.67l-35.68-28.25Zm-50.33,33.72,36.34,28.83c-4.35,3.3-8.36,6.57-12.61,9.47-2.44,1.67-4.78,2.23-7.77-.28-10.6-8.91-21.56-17.38-32.71-26.28ZM227,669.74c1.9-1.18,6-1.31,7.62,0,10.38,8,23.81,19.37,33.92,27.72.82.82-.83,3.43-4.26,1.37-1.37-.93-4.42-3-5.92-3.3-3-.7-10.87-1.17-13,.11-9.36,5.6-12.46,8.52-21.89,15l-26.07-21.11C207.36,682.69,217,676,227,669.74Zm29.44,81.58c-6.41.8-19.52-6.33-24.56-12h0C218.29,728,198,709.18,184.49,698c.39-.49,6.68-4.61,7.07-5.09,13.39,11,43.92,37.64,46.07,39s10.67,2.81,16.17,2.81c6.56,0,13.15-1.63,19.69-2.74,6.35-1.08,12.66-2.39,19-3.63,6.73-1.33,9,10.75,11.25,15.45C286.45,746.75,272.16,749.34,256.4,751.32Zm53.91-9c-1.58-3.15-3.81-12.36-5.63-16,16.59-3.08,152.51-29.54,160.63-30.83,1.56-.25,4.42,1.66,5.11,3.25,1.31,3,2.28,12.91,3.08,17Zm190.57-63.55c-1.18,8.91-2.31,17.82-3.46,26.75-.37,0-21.78-16.31-24.71-18.38,1.36-10.22,2.85-21.36,4.19-31.51,2.91,1.9,13.5,9.77,19.59,14.3C500.64,672.79,501.54,673.79,500.88,678.75Zm-96.4-92.68c1.32-2.52,2.75-5.23,4.5-8.54,5.31,3.82,10.52,7.44,15.59,11.24,10.93,8.22,21.78,16.55,32.68,24.81q26.88,20.37,53.79,40.7c9.77,7.34,19.67,14.51,29.46,21.82q22,16.47,44,33c3.41,2.58,2.58,6,1.38,9.38a35.53,35.53,0,0,1-2.2,4.17C524,677.5,464.62,631.68,404.48,586.07Zm104.9,143.49c-3.52-12.69-.73-24.78.39-37.11.39-4.38,3.6-5.31,7.14-2.6,15,11.46,30.05,22.83,45,34.27,3.87,3,7.6,6.17,11.21,9.26,4.74,4.06,14.64,11.16,16.36,14,6.24,10.38,11.3,31.27,13.63,36.84,4.05,9.68,7.48,19.61,11.12,29.45,1,2.82,1.16,4,.13,3.23-1.7-1.23-84.12-64.49-87.73-67C519.12,744.77,512.16,739.6,509.38,729.56ZM526,803.72c-3-14.52-6.44-29-9.74-43.42-.78-3.45-1.71-6.87-1.58-11,2.39,1.79,4.22,3.23,6.58,4.92a104,104,0,0,0,12.07,8.08c.88.51,1.62,2.1,1.37,2.7-3,7.22,2.58,10.29,6.73,13.75,10.78,9,21.79,17.76,32.72,26.6,7.7,6.24,15.34,12.57,23.16,18.65,4,3.07,5.61,0,6.27-2.61l14.32,6.37,22.87,63.62a.85.85,0,0,1-1.34,1c-12.33-10-24.63-20.09-37-30.06-11.71-9.43-23.52-18.74-35.27-28.11-1.33-1.05-2.62-2.16-3.89-3.27-3.39-3-6.89-5.27-12.1-5-2.73.14-6-2.14-8.3-4.2C536.78,816.19,528,813.3,526,803.72ZM323,921.58Q302.35,905.88,281.89,890c-10.41-8.09-20.76-16.26-31-24.32a2.94,2.94,0,0,1-.6-4.07c2.68-3.52,7.25-2.83,10.74-3.28,15.22-1.95,30.55-3.08,45.82-4.65,3.7-.38,38.92-4,41.61-4.28,14.9-1.6,29.83-3,44.76-4.37,6.32-.57,12.69-.7,19-1.22,16.95-1.4,33.88-2.93,50.82-4.34,5.79-.48,11.6-.63,17.38-1.17,14.57-1.36,29.11-3,43.67-4.26,7.24-.64,14.78.24,21.71-1.48,8.93-2.22,13.68,3.6,19.14,7.86,20.31,15.88,40.37,32.07,60.45,48.24,7,5.66,13.78,11.7,20.83,17.35,1.44,1.15,12.84,10.55,17.63,13.37l27.36,23.55a.52.52,0,0,1-.35.92q-28.56-1.08-57.12-2.12l-60.26-2.2q-29.76-1.1-59.52-2.2-30.32-1.11-60.62-2.21-29.22-1.08-58.43-2.2-26.18-1.05-52.37-2.21C334.83,930.31,328.8,926,323,921.58ZM486.71,984c-16-2.3-30-4.18-46.06-6.15-1.67-.2-9.77,2.44-12.79,3.81C419.28,980.05,405,978,397.09,976c-11.2-2.81-49-35.53-52.65-38.79,45.42,2,100.61,3.64,132.18,4.5,20.58.56,41.15,1.44,61.73,2.17,20.75.74,41.51,1.42,62.27,2.22,16.54.65,33.08,1.41,49.62,2.19,14.34.68,28.67,1.49,43,2.15,1.92.09,4.3.54,5.2-1.32L781,1018c-.34,0,.37,2.39-1,2a444.05,444.05,0,0,0-53.93-10c-13.23-1.73-26.54-2.85-39.77-4.57-7.27-.95-14.42-2.73-21.68-3.85-6.94-1.08-13.94-1.8-20.92-2.67-8.94-1.11-17.88-2.15-26.81-3.33-10.71-1.4-21.39-3-32.09-4.38-17-2.24-33.94-4.28-50.88-6.65S503.78,986.41,486.71,984Zm27.95,9c-9.29-1-.88-3.45,9.41-3.48,20.71.64,242.55,29,267.52,38.24,6,2.62-2.74,2.5-9.15,1.34C694.11,1016.86,603,1005.21,514.66,993Zm464.92,130.74a2.89,2.89,0,0,0,0,.29q-16.69-4.3-33.37-8.62c-19.7-5.13-39.43-10.12-59.06-15.51-11.88-3.26-24-6.23-35.27-11.05-8.05-3.45-15.1-9.48-22.22-14.86-10.63-8-21-16.42-31.34-24.82-5.3-4.29-10.33-8.92-15.78-13.66,9.43-.47,14.47,6.25,20.51,11,11.37,8.87,22,18.77,34,26.68,7.08,4.67,16,6.7,24.34,9.27,13.66,4.2,26.38,6.82,40.14,10.66,9.65,2.7,17.63,4.33,30.11,7.38,6.15,1.5,13.74,4.8,20.13-.44,1-.82,3.68.12,5.48.6,7.23,2,14.39,4.24,21.66,6.05C982.39,1107.52,984.19,1108.39,979.58,1123.72Zm72.3,19.22h0c-11-2.89-40.21-10.58-51.18-13.45-4.67-1.23-9.35-2.43-14-3.64a13.48,13.48,0,0,0,.46-1.4c3.47-13.16,5.26-13.39,8.26-12.58,7.39,2,120.82,33.88,121.91,34.25h0c8.26,2.81,17.42,12.87,23.45,19.41a.42.42,0,0,1-.42.68l-24.77-6.53C1111.64,1158.81,1063.4,1146,1051.88,1142.94Zm56,40.66c-7.94-4.75-15.83-9.61-23.74-14.43,16.41,2.18,31.28,8.3,47.49,13.52-3.62.46-13,1.42-20.22,2A6.51,6.51,0,0,1,1107.87,1183.6Zm76.78,18.15c-10-.11-18.64-1.85-30.1,1-2.47.6-5.69,0-8.52-.3-11-1.35-17.82-5.33-26-11.72,8.46-1,15.8-2.36,23.16-2.43a87.11,87.11,0,0,1,20.36,2.18c14.61,3.4,29,7.54,43.54,11.42a3.64,3.64,0,0,1,2.19,1.81C1201.06,1203,1192.86,1201.84,1184.65,1201.75Zm125,8.9c-1.89,8.1-1.17,9.21-10,6.89-5-1.31-10.78-3-15.9-4.33,2.06-6.23,2.06-6.23-2.87-7.38-2.71-.64-5.94-1.95-8.5-2.62v0c-14.06-3.68-34.61-8.92-44.32-11.55-2.52-1.19-1-5.8,1.37-5.82,10.75,2.5,69.1,16.67,81.24,18.7C1310.24,1206.5,1309.87,1209.64,1309.63,1210.65Zm41.65-7.94c-25.37-2.71-57.41-6.57-72-10-10.25-2.43-121-28.55-131.24-31.07a8.53,8.53,0,0,1-3.81-1.87q-9.66-9.39-19.07-19c-4.11-4.22-8.94-8.8-13.09-13-19.12-19.23-36.48-36.91-55.74-56-.94-.93-3.18-2.86-4.13-4a1.39,1.39,0,0,1,.31-2l0,0a2.9,2.9,0,0,1,2.7-.29,6.7,6.7,0,0,1,1.5,1.11c17.53,17.16,32.25,31.65,49.62,49,12,11.91,23.3,24.45,35.44,36.16,3.68,3.54,6.66,6.24,11.63,7.61,17,4.72,109.5,26.3,126.68,30.54,5.2,1.29,54.86,8.53,70.06,9.59a7.43,7.43,0,0,1,1.93,1.76A.94.94,0,0,1,1351.28,1202.71Zm32.71-19.42-21,19.6-28.77-33.53a.58.58,0,0,1,.73-.87c1.32.78,2.65,1.54,3.93,2.37,8.25,5.39,14.89,10.41,23.42,15.28,7,4,11.24,1.93,16.92-3.36C1380,1182,1385.82,1177.21,1384,1183.29Zm4.31-16.39c-4,3.68-8.12,7.28-12.07,11-5.49,5.18-8.14,5.07-14.24.76-8.82-6.23-18-12-27-18a.57.57,0,0,1,.44-1c4.87,1.13,9.71,2.57,14.63,3.14a11.19,11.19,0,0,0,7.75-1.9c4.45-3.16,1.68-6.16-1-8.43q-14.35-11.92-28.76-23.81c-.76-.63-1.51-1.27-2.26-1.91a2.28,2.28,0,0,1,.91-4c2.09-.54,4.17-1.08,5.8-.45,8.44,3.28,14.44.54,20.32-5.56,4.55-4.73,7.74-8.15,6.58-16-.36-2.62.13-3.91,1.81-.83,2.14,3.63,4.54,7.14,6.37,10.92,7.6,15.72,14.83,31.62,22.64,47.24C1392.23,1162.15,1391,1164.43,1388.3,1166.9Zm9.62,1.32c-2.79,3-4.51,1.12-2.26-1.66,2.08-2.58,1.81-6.63-.42-12.45-3.41-8.9-8.25-18.13-12.23-26.81-2.32-5.14-.19-6,2.89-1.6l6.31,7.83c2.1,2.61,4.2,5.22,6.27,7.85,4.1,5.2,8.12,10.46,11.38,14.68C1406.72,1159.22,1400.91,1165.07,1397.92,1168.22Z"/></g><g id="Thrusters"><path d="M252.4,706.78c-6.89,0-12.48,3.57-12.48,8s5.59,8,12.48,8,12.47-3.56,12.47-8S259.29,706.78,252.4,706.78ZM775.53,371.65c-5.75,0-10.41,3-10.41,6.64s4.66,6.64,10.41,6.64,10.41-3,10.41-6.64S781.28,371.65,775.53,371.65ZM756.35,782.1c-7.23,4.7-10.61,12.33-7.55,17s11.41,4.72,18.64,0,10.62-12.33,7.55-17S763.58,777.4,756.35,782.1Zm276.16-189.33c-6.54-1.12-12.43,1.43-13.16,5.69s4,8.62,10.52,9.73,12.43-1.43,13.16-5.69S1039,593.89,1032.51,592.77Z" fill="#007aff"/></g></g></svg>