<svg xmlns="http://www.w3.org/2000/svg" viewBox="0 0 1500 1500"><title>Federal Dropship</title><g id="Federal_Dropship" data-name="Federal Dropship"><g id="Colour"><path d="M1437.09,1133.17c-.5-10.55-1.16-21.13-1-31.68.1-6.53-2.19-12-5.19-17.34-6.2-10.91-12.67-21.68-19.26-32.36-18.46-29.92-33.51-61.93-55.82-89.51-13.78-17-25.89-35.46-39.9-52.31-15.13-18.19-24.37-39.78-37.31-59.21,6.17-3.94,2.24-7.6.6-10.62-5.83-10.73-12.11-21.21-18.09-31.85-7.24-12.88-13.63-26.3-21.75-38.59-6.53-9.88-15.1-18.42-22.76-27.57Q1204.79,728,1193,713.83c-8.3-10-16.53-20.05-24.82-30.06-6.28-7.58-12.61-15.13-19-22.79,3.72-1.28,7.08-2.46,10.47-3.58l63.72-21c3.28-1.08,8.36-14,6.56-17.09-.49-.83-1.65-1.29-2.55-1.85-13.58-8.41-27.8-15.95-40.55-25.45-11.06-8.24-22.76-9.35-35.43-8.29-16.21,1.36-32.42,2.84-48.62,4.34-5.75.54-11.46,1.63-17.21,1.83-6.19.22-12.56,2-18.47-1.91-9.12-6-18.43-11.79-27.65-17.69q-25.61-16.41-51.19-32.85c-8.76-5.62-16.92-12.86-26.45-16.37a120.69,120.69,0,0,1-21.89-10.87c-28.69-17.73-57.31-35.62-85.18-54.59-17.32-11.78-35.67-21.91-51.6-36.08-18.22-16.2-38.65-29.95-58.37-44.42-3.58-2.62-3.28-4.13-1.18-7.33,12.07-18.42,23.88-37,35.89-55.46,13.18-20.28,26.49-40.47,39.75-60.7,7-10.65,14.18-21.17,20.91-32,3.64-5.86.8-20.2-4.12-22.88-18.19-9.9-36.44-19.69-54.63-29.58-3.87-2.1-7.35-1.87-11.25.27-8.77,4.81-17.79,9.15-26.62,13.85a45.66,45.66,0,0,0-7.53,5.2c-2.31,1.91-3.94,4.87-6.48,6.22q-42.12,22.41-84.44,44.41c-20.11,10.49-40.25,20.93-60.5,31.15a8.63,8.63,0,0,1-6.76-.1c-4.47-2.22-8.54-5.25-12.82-7.88-15.51-9.58-31-19.1-46.55-28.69-6.12-3.79-11.27-3.92-15.32,6.09-2.61,6.44-3.79,13.52-6.83,19.72-1.52,3.09-5.57,5.2-8.88,7-1.15.62-3.71-.68-5.31-1.63-6-3.57-11.61-8-17.92-10.84-4.22-1.91-10.41-3.7-13.79-1.92-2.7,1.43-5.92,3.43-8.86,5.1-9.94,5.64-19.86,11.42-30.25,16.14-8,3.61-12.85,9.77-15.6,17.17-2.14,5.74-1.66,12.43-2.54,18.67-.78,5.51-1.67,11-7.45,14-4.6,2.32-9.14,4.78-14,7.34-3.36-2.65-6.81-5.54-10.43-8.2-7.18-5.28-14.33-4-19.2,3.87-7.17,11.59-13.69,23.6-21.06,35.06-2.89,4.51-2.5,8.16-.39,12.44,1.63,3.32,2.94,6.8,4.46,10.37a22.43,22.43,0,0,1-2.56,1.44c-12.56,5.08-15.82,13.22-15.11,23a45.54,45.54,0,0,1-.47,6.56c-.25,3.24-.36,6.51-.81,9.74-.19,1.35-.72,3.14-1.73,3.83-6.05,4.17-12.2,8.21-18.47,12-23.3,14.18-46.68,28.21-70,42.4-17.46,10.64-34.79,21.47-52.22,32.15q-16.47,10.11-33.07,20a19.71,19.71,0,0,1-5.38,1.86c-2.59.63-5.62.38-7.77,1.66-15.42,9.18-30.63,18.69-46,28-4.78,2.91-5.29,10.94-.9,14.55,15.62,12.84,31.93,25,46.51,38.91,9.87,9.44,21.43,9.08,32,7.29,21.08-3.58,41.69-10,62.49-15.28,11.62-2.94,23.22-6,34.86-8.84,16.67-4.12,33.39-8.08,50.06-12.23,15.77-3.92,31.49-8,47.26-11.94a5.83,5.83,0,0,1,4.29.56c9.79,7.07,20.08,13.31,23.78,26.42,1.92,6.81,7.14,12.67,10.69,19.06a6,6,0,0,1,.44,4.16q-3.54,12.63-7.43,25.16c-2.07,6.63-3,14.16-6.91,19.56-7.25,10.11-16.23,19-24.53,28.35-9,10.18-18.15,20.29-27.15,30.5-13.06,14.81-26,29.77-39.13,44.5-4.93,5.52-4.88,10.1,1,14.52,9.94,7.43,20.22,14.43,29.7,22.39,4.37,3.67,8,2.15,11.21.16,8.41-5.15,16.37-11,24.55-16.56,26.61-18,53.07-36.18,79.92-53.8C443.83,729.17,464,717,484,704.74a6.3,6.3,0,0,1,5.62.27q24.93,18,49.53,36.38c3.79,2.86,7.74,6.24,9.93,10.29s2.28,9.3,3.35,14c2.62,11.52,5.86,22.93,7.74,34.57,1.67,10.37,4.91,18.79,14.24,25,6.36,4.23,10.37,11.79,7.76,19.63-5.57,16.79-11.83,33.38-18.56,49.74-11,26.78-22.7,53.31-34,80-14,32.95-27.67,66.06-42.23,98.76-2.64,5.94.36,8.67,3.09,11.36,5.76,5.68,12.43,10.43,18.58,15.73,11.4,9.81,22.65,19.78,34.09,29.53a6.8,6.8,0,0,0,5,1.25,40.43,40.43,0,0,0,9.16-2.81c2.74-1.18,5.89-2.4,7.7-4.57,6.69-8,12.92-16.41,19.3-24.68q23.91-31,47.79-62c21.06-27.49,42-55.05,62.89-82.37,7,5.28,13.8,10.35,20.55,15.46Q733.72,984.12,752,998c9.87,7.55,19.63,15.23,29.49,22.8,13.69,10.52,27.44,21,41.14,31.48,11.57,8.88,23.34,17.52,34.58,26.81,12.14,10,25.2,17.93,40.71,21.4,13.41,3,26.84,5.9,40.19,9.13,17.73,4.28,35.41,8.78,53.08,13.31,16.28,4.17,32.48,8.7,48.8,12.74q38,9.42,76.17,18.36a313.51,313.51,0,0,1,32.82,9.61c9.88,3.49,20.38,5.22,30.58,7.8q25,6.33,49.92,12.75c28.25,7.22,56.56,14.21,84.73,21.76a75.22,75.22,0,0,0,25.84,2.28c13.85-1.11,27.67-2.63,41.45-4.37a18.85,18.85,0,0,0,9.22-3.75c6.17-5.1,11.78-10.86,17.64-16.33,5.06-4.72,9.65-10.16,15.37-13.88s6.73-8.73,5.36-14c-1-3.7,0-5.68,2.48-7.31C1437.31,1144.76,1437.37,1139.15,1437.09,1133.17Z" fill="#264037"/><path d="M1437.09,1133.17c-.5-10.55-1.16-21.13-1-31.68.1-6.53-2.19-12-5.19-17.34-6.2-10.91-12.67-21.68-19.26-32.36-18.46-29.92-33.51-61.93-55.82-89.51-13.78-17-25.89-35.46-39.9-52.31-15.13-18.19-24.37-39.78-37.31-59.21,6.17-3.94,2.24-7.6.6-10.62-5.83-10.73-12.11-21.21-18.09-31.85-7.24-12.88-13.63-26.3-21.75-38.59-6.53-9.88-15.1-18.42-22.76-27.57Q1204.79,728,1193,713.83c-8.3-10-16.53-20.05-24.82-30.06-6.28-7.58-12.61-15.13-19-22.79,3.72-1.28,7.08-2.46,10.47-3.58l63.72-21c3.28-1.08,8.36-14,6.56-17.09-.49-.83-1.65-1.29-2.55-1.85-13.58-8.41-27.8-15.95-40.55-25.45-11.06-8.24-22.76-9.35-35.43-8.29-16.21,1.36-32.42,2.84-48.62,4.34-5.75.54-11.46,1.63-17.21,1.83-6.19.22-12.56,2-18.47-1.91-9.12-6-18.43-11.79-27.65-17.69q-25.61-16.41-51.19-32.85c-8.76-5.62-16.92-12.86-26.45-16.37a120.69,120.69,0,0,1-21.89-10.87c-28.69-17.73-57.31-35.62-85.18-54.59-17.32-11.78-35.67-21.91-51.6-36.08-18.22-16.2-38.65-29.95-58.37-44.42-3.58-2.62-3.28-4.13-1.18-7.33,12.07-18.42,23.88-37,35.89-55.46,13.18-20.28,26.49-40.47,39.75-60.7,7-10.65,14.18-21.17,20.91-32,3.64-5.86.8-20.2-4.12-22.88-18.19-9.9-36.44-19.69-54.63-29.58-3.87-2.1-7.35-1.87-11.25.27-8.77,4.81-17.79,9.15-26.62,13.85a45.66,45.66,0,0,0-7.53,5.2c-2.31,1.91-3.94,4.87-6.48,6.22q-42.12,22.41-84.44,44.41c-20.11,10.49-40.25,20.93-60.5,31.15a8.63,8.63,0,0,1-6.76-.1c-4.47-2.22-8.54-5.25-12.82-7.88-15.51-9.58-31-19.1-46.55-28.69-6.12-3.79-11.27-3.92-15.32,6.09-2.61,6.44-3.79,13.52-6.83,19.72-1.52,3.09-5.57,5.2-8.88,7-1.15.62-3.71-.68-5.31-1.63-6-3.57-11.61-8-17.92-10.84-4.22-1.91-10.41-3.7-13.79-1.92-2.7,1.43-5.92,3.43-8.86,5.1-9.94,5.64-19.86,11.42-30.25,16.14-8,3.61-12.85,9.77-15.6,17.17-2.14,5.74-1.66,12.43-2.54,18.67-.78,5.51-1.67,11-7.45,14-4.6,2.32-9.14,4.78-14,7.34-3.36-2.65-6.81-5.54-10.43-8.2-7.18-5.28-14.33-4-19.2,3.87-7.17,11.59-13.69,23.6-21.06,35.06-2.89,4.51-2.5,8.16-.39,12.44,1.63,3.32,2.94,6.8,4.46,10.37a22.43,22.43,0,0,1-2.56,1.44c-12.56,5.08-15.82,13.22-15.11,23a45.54,45.54,0,0,1-.47,6.56c-.25,3.24-.36,6.51-.81,9.74-.19,1.35-.72,3.14-1.73,3.83-6.05,4.17-12.2,8.21-18.47,12-23.3,14.18-46.68,28.21-70,42.4-17.46,10.64-34.79,21.47-52.22,32.15q-16.47,10.11-33.07,20a19.71,19.71,0,0,1-5.38,1.86c-2.59.63-5.62.38-7.77,1.66-15.42,9.18-30.63,18.69-46,28-4.78,2.91-5.29,10.94-.9,14.55,15.62,12.84,31.93,25,46.51,38.91,9.87,9.44,21.43,9.08,32,7.29,21.08-3.58,41.69-10,62.49-15.28,11.62-2.94,23.22-6,34.86-8.84,16.67-4.12,33.39-8.08,50.06-12.23,15.77-3.92,31.49-8,47.26-11.94a5.83,5.83,0,0,1,4.29.56c9.79,7.07,20.08,13.31,23.78,26.42,1.92,6.81,7.14,12.67,10.69,19.06a6,6,0,0,1,.44,4.16q-3.54,12.63-7.43,25.16c-2.07,6.63-3,14.16-6.91,19.56-7.25,10.11-16.23,19-24.53,28.35-9,10.18-18.15,20.29-27.15,30.5-13.06,14.81-26,29.77-39.13,44.5-4.93,5.52-4.88,10.1,1,14.52,9.94,7.43,20.22,14.43,29.7,22.39,4.37,3.67,8,2.15,11.21.16,8.41-5.15,16.37-11,24.55-16.56,26.61-18,53.07-36.18,79.92-53.8C443.83,729.17,464,717,484,704.74a6.3,6.3,0,0,1,5.62.27q24.93,18,49.53,36.38c3.79,2.86,7.74,6.24,9.93,10.29s2.28,9.3,3.35,14c2.62,11.52,5.86,22.93,7.74,34.57,1.67,10.37,4.91,18.79,14.24,25,6.36,4.23,10.37,11.79,7.76,19.63-5.57,16.79-11.83,33.38-18.56,49.74-11,26.78-22.7,53.31-34,80-14,32.95-27.67,66.06-42.23,98.76-2.64,5.94.36,8.67,3.09,11.36,5.76,5.68,12.43,10.43,18.58,15.73,11.4,9.81,22.65,19.78,34.09,29.53a6.8,6.8,0,0,0,5,1.25,40.43,40.43,0,0,0,9.16-2.81c2.74-1.18,5.89-2.4,7.7-4.57,6.69-8,12.92-16.41,19.3-24.68q23.91-31,47.79-62c21.06-27.49,42-55.05,62.89-82.37,7,5.28,13.8,10.35,20.55,15.46Q733.72,984.12,752,998c9.87,7.55,19.63,15.23,29.49,22.8,13.69,10.52,27.44,21,41.14,31.48,11.57,8.88,23.34,17.52,34.58,26.81,12.14,10,25.2,17.93,40.71,21.4,13.41,3,26.84,5.9,40.19,9.13,17.73,4.28,35.41,8.78,53.08,13.31,16.28,4.17,32.48,8.7,48.8,12.74q38,9.42,76.17,18.36a313.51,313.51,0,0,1,32.82,9.61c9.88,3.49,20.38,5.22,30.58,7.8q25,6.33,49.92,12.75c28.25,7.22,56.56,14.21,84.73,21.76a75.22,75.22,0,0,0,25.84,2.28c13.85-1.11,27.67-2.63,41.45-4.37a18.85,18.85,0,0,0,9.22-3.75c6.17-5.1,11.78-10.86,17.64-16.33,5.06-4.72,9.65-10.16,15.37-13.88s6.73-8.73,5.36-14c-1-3.7,0-5.68,2.48-7.31C1437.31,1144.76,1437.37,1139.15,1437.09,1133.17Z" fill="none" stroke="#000" stroke-linejoin="round" stroke-width="8"/></g><g id="Canopy"><path d="M1412.33,1137.55l-59.4-110.84s-72,51.15-72.6,51.15,29,26.58,29,25.48,16.68,22.35,16.68,22.35l63.43,44.38,17.79-10.26,5.86-10.82Z" fill="#82b3d1"/></g><g id="Shadows" opacity="0.2"><path d="M1382.38,1135.38c-5.86-9.21-84.57-71.46-84.57-71.46s-179.43-225.86-185.44-228.31-10.61,4.77-10.61,4.77l-6.35,4.52s-1.56,10.14-3.07-.51a57.56,57.56,0,0,0-7.29-19.88l-87.42-74.73-136.7-96.52L695.8,550.64l-12-30.23L519.74,447.19l-7.25-23.62,51.34,10.5L562,423.57l-11-40.91L403.25,282.92,399.72,313,383.4,340.37,348.8,318.2l-29.91,47.48L326,376.54l19,47,145.69,99.72L503.36,550l-60.13.61-70.4,17.49L348,578.05l13.22,10.06L373.75,609l2.35-.44L386,624.36,367.94,682.1l-31.78,46.57,66.49,21.77L477.24,701l61.91,40.84,11.26,17,13.42,59.74L587,835.12l-28.82,73-.78,30.1,140.53,9.4,177.47,101.2,110,40.07,163.77,57.22,122.72,24s80.66,9.72,101.2,7.76,25.06-12.81,25.06-12.81S1388.25,1144.59,1382.38,1135.38ZM829.94,478.77l-16.28-39.16L743.5,388.39,672,336.94l-24.17,77.74,129.77,64.09Z" fill="#111"/></g><g id="Outline"><path d="M630.79,578.44c-17.54-9.87-34.67-20.44-52-30.64-2.76-1.62-6.33-4.31-8.71-3.64-4.82,1.37-2.37,5.31-1.41,8.8a17.53,17.53,0,0,0,7.78,10.3L605,580.61,627.16,594c4.29,2.17,6.82-.65,7.27-5C634.84,585,635.93,581.33,630.79,578.44Zm370.06,466.31c-10.06-21.39-20.43-42.64-30.66-64-6.76-14.07-13.36-28.2-20.12-42.26-7.61-15.81-15.37-31.54-23-47.35-3.62-7.54-7-15.21-10.71-23.36,6.05,0,11.34.11,16.63,0,5.79-.16,11.12-6,10.72-11.7a4.91,4.91,0,0,0-1.94-3.41c-.59-.37-2.43.47-3.18,1.27-1.07,1.13-1.46,2.91-2.5,4.08s-2.63,3-4.07,3.05c-6.28.44-28.77,1.5-38.93,2.56-9.38.59-13.53,1.65-17.57-6.09-.3-.57-1.65-.59-3-.6a2.2,2.2,0,0,0-2.18,1.79c-.23,1.22-.43,2.43.07,3.08a68.82,68.82,0,0,0,8.08,8.21,4.5,4.5,0,0,0,2.94,1c7.9-.62,15.8-1.21,23.66-2.19,3.66-.46,5.45,1.56,6.66,4.14,10,21.4,19.82,42.92,29.94,64.29,10.5,22.18,21.26,44.23,32,66.31,7.12,14.67,14.5,29.22,21.39,44,1.27,2.71,2.3,5.09,5.12,3.49C1001.32,1050.46,1001.67,1046.49,1000.85,1044.75Zm234.92-147.7c-2.55-3.85-5-3.62-8-1.32-6.53,5-13.11,9.88-19.35,15.2-1.07.92-1.46,4.3-.63,5.52a222.43,222.43,0,0,0,13.42,17.89c.9,1.09,4.18,1.75,5.14,1,7.07-5.46,13.87-11.3,20.66-17.11.87-.75,1.26-2,1.89-3.14a27.11,27.11,0,0,0-2.3-4.55C1243,906,1238.93,901.85,1235.77,897.05Zm-7.42-22.83a2.45,2.45,0,0,0,0-2.1,30.44,30.44,0,0,0-3-5.88c-5.3-6.82-11.27-13-15.7-19.81-3.48-5.33-6.93-5.23-11.41-2.41-9.93,6.25-20.31,12.66-30.62,19.93-1.82,1.29-3,6.37-2,8.3a340.54,340.54,0,0,0,18.72,30.17c1.35,2,6.69,3.3,8.34,2.08,11.93-8.89,22.9-18,33.4-26.68A10.42,10.42,0,0,0,1228.35,874.22Zm-216.1,176.09a71.62,71.62,0,0,0,12.11,4c3.24.77,7.55,2,5.55-4.39-.19-.63.69-1.53.89-2.34.64-2.63,1.19-5.29,1.78-7.93.19-.82.32-1.66.58-2.45a49.89,49.89,0,0,0,1.92-5.72c.44-2.25-1.9-4.71,1.68-6.81,1.64-1,1.12-4.58-2.35-5-5-.64-9.94-1.18-16.64-2-.23.26-2,1.38-2.31,2.83-2,8.5-3.87,17-5.42,25.64A4.94,4.94,0,0,0,1012.25,1050.31Zm252,78.5c-1.46,0-1.73,1.3-6.54.49-12.93-3.47-25.86-6.94-38.67-10.8-6.93-2.09-14.15-3.59-19-10.2-4.47-6.11-9.87-11.55-14.93-17.23a26.53,26.53,0,0,0-3.52-2.77c-1.31.92-3.06,1.58-3.09,2.3a7.55,7.55,0,0,0,1.29,4.82c3.67,4.28,8,8,11.48,12.43,7.31,9.46,16.76,14.88,28.34,17.47,9.56,2.13,18.81,5.78,28.42,7.58,5.9,1.1,12.84,4.1,18.45,1.35,1.72-1.61,4.19-2.46,2.06-4.54C1267.31,1128.48,1266.49,1128.88,1264.28,1128.81Zm172.81,4.77c-.5-10.55-1.16-21.12-1-31.68.1-6.52-2.19-12-5.19-17.33-6.2-10.92-12.67-21.68-19.26-32.37-18.46-29.92-33.51-61.92-55.82-89.51-13.78-17-25.89-35.46-39.9-52.31-15.13-18.19-24.37-39.77-37.31-59.2,6.17-3.95,2.24-7.61.6-10.63-5.83-10.73-12.11-21.21-18.09-31.85-7.24-12.87-13.63-26.3-21.75-38.58-6.53-9.89-15.1-18.43-22.76-27.58q-11.83-14.13-23.65-28.29c-8.3-10-16.53-20.06-24.82-30.07-6.28-7.58-12.61-15.13-19-22.79,3.72-1.27,7.08-2.46,10.47-3.57q31.86-10.53,63.72-21c3.28-1.08,8.36-14.06,6.56-17.1-.49-.83-1.65-1.29-2.55-1.85-13.58-8.4-27.8-16-40.55-25.45-11.06-8.24-22.76-9.35-35.43-8.29-16.21,1.37-32.42,2.85-48.62,4.35-5.75.53-11.46,1.62-17.21,1.82-6.19.22-12.56,2-18.47-1.91-9.12-6-18.43-11.79-27.64-17.69q-25.62-16.41-51.2-32.85c-8.76-5.62-16.92-12.86-26.45-16.36a121.38,121.38,0,0,1-21.89-10.88C911.21,492.85,882.59,475,854.72,456c-17.32-11.78-35.67-21.91-51.6-36.08-18.22-16.2-38.65-29.94-58.37-44.41-3.58-2.63-3.28-4.14-1.18-7.34,12.07-18.41,23.88-37,35.89-55.46,13.18-20.27,26.49-40.47,39.75-60.7,7-10.65,14.18-21.17,20.91-32,3.64-5.85.8-20.2-4.12-22.88-18.19-9.9-36.44-19.69-54.63-29.57-3.87-2.1-7.35-1.87-11.25.26-8.77,4.81-17.79,9.15-26.62,13.85a45.66,45.66,0,0,0-7.53,5.2c-2.31,1.91-3.94,4.87-6.48,6.22q-42.12,22.41-84.44,44.41c-20.11,10.49-40.25,20.93-60.5,31.16a8.67,8.67,0,0,1-6.76-.11c-4.47-2.22-8.54-5.24-12.82-7.88Q541.71,246.33,518.42,232c-6.12-3.78-11.27-3.91-15.32,6.09-2.61,6.45-3.79,13.52-6.83,19.72-1.52,3.09-5.57,5.2-8.88,7-1.15.63-3.7-.68-5.31-1.63-6-3.57-11.61-8-17.92-10.83-4.22-1.92-10.41-3.71-13.79-1.92-2.7,1.43-5.92,3.42-8.86,5.09-9.94,5.65-19.86,11.42-30.25,16.14-8,3.62-12.85,9.77-15.6,17.17-2.14,5.74-1.66,12.43-2.54,18.68-.78,5.51-1.67,11-7.45,13.95-4.6,2.33-9.14,4.78-14,7.34-3.36-2.65-6.81-5.54-10.43-8.2-7.18-5.28-14.33-4-19.2,3.87-7.17,11.6-13.69,23.6-21.06,35.07-2.89,4.5-2.5,8.15-.39,12.43,1.63,3.32,2.94,6.8,4.46,10.38a23.81,23.81,0,0,1-2.56,1.43c-12.56,5.08-15.82,13.22-15.11,23a45.54,45.54,0,0,1-.47,6.56c-.25,3.25-.36,6.52-.81,9.74-.19,1.36-.72,3.15-1.73,3.84-6.05,4.16-12.2,8.2-18.47,12-23.3,14.19-46.68,28.21-70,42.4-17.46,10.64-34.79,21.47-52.22,32.16q-16.47,10.1-33.07,20a19.38,19.38,0,0,1-5.38,1.86c-2.59.63-5.62.38-7.77,1.66-15.42,9.18-30.63,18.69-46,28-4.78,2.9-5.29,10.93-.9,14.54,15.62,12.84,31.93,25,46.51,38.91,9.87,9.45,21.43,9.08,32,7.3,21.08-3.59,41.69-10,62.49-15.28,11.62-3,23.22-6,34.86-8.85,16.67-4.12,33.39-8.08,50.06-12.23,15.77-3.92,31.49-8,47.26-11.94a5.88,5.88,0,0,1,4.29.56c9.79,7.07,20.08,13.31,23.78,26.43,1.92,6.81,7.14,12.66,10.69,19a6,6,0,0,1,.44,4.16q-3.54,12.63-7.43,25.16c-2.07,6.63-3,14.16-6.91,19.56-7.25,10.11-16.23,19-24.53,28.35-9,10.18-18.15,20.29-27.15,30.5-13.06,14.82-26,29.78-39.13,44.5-4.93,5.52-4.88,10.1,1,14.52,9.94,7.43,20.22,14.43,29.7,22.4,4.37,3.66,8,2.14,11.21.15,8.41-5.15,16.37-11,24.55-16.55,26.61-18,53.07-36.19,79.92-53.8C443.83,729.59,464,717.43,484,705.15a6.27,6.27,0,0,1,5.62.28q24.93,17.94,49.53,36.38c3.79,2.85,7.74,6.23,9.93,10.28s2.28,9.3,3.35,14c2.62,11.52,5.86,22.94,7.74,34.58,1.67,10.37,4.91,18.79,14.24,25,6.36,4.23,10.37,11.79,7.76,19.63-5.57,16.79-11.83,33.38-18.56,49.74-11,26.79-22.7,53.31-34,80-14,33-27.67,66.06-42.23,98.76-2.64,5.94.36,8.67,3.09,11.36,5.76,5.69,12.43,10.44,18.58,15.73,11.4,9.81,22.65,19.79,34.09,29.53a6.8,6.8,0,0,0,5,1.25,40.43,40.43,0,0,0,9.16-2.81c2.74-1.18,5.89-2.4,7.7-4.57,6.69-8,12.92-16.41,19.3-24.68q23.91-31,47.79-62c21.06-27.49,42-55,62.89-82.36,7,5.28,13.8,10.34,20.55,15.45q18.27,13.86,36.5,27.77c9.87,7.55,19.63,15.23,29.49,22.8,13.69,10.52,27.44,21,41.14,31.48,11.57,8.88,23.34,17.53,34.58,26.81,12.14,10,25.2,17.93,40.71,21.4,13.41,3,26.84,5.9,40.19,9.13,17.73,4.29,35.41,8.78,53.08,13.31,16.28,4.17,32.48,8.7,48.8,12.74q38,9.42,76.17,18.36a313.51,313.51,0,0,1,32.82,9.61c9.88,3.49,20.38,5.22,30.58,7.81,16.65,4.21,33.28,8.5,49.92,12.74,28.25,7.22,56.56,14.21,84.73,21.77a75.46,75.46,0,0,0,25.84,2.28c13.85-1.12,27.67-2.64,41.45-4.38a18.76,18.76,0,0,0,9.22-3.75c6.17-5.1,11.78-10.86,17.64-16.33,5.06-4.71,9.65-10.16,15.37-13.88s6.73-8.73,5.36-14c-1-3.7,0-5.68,2.48-7.3C1437.31,1145.18,1437.37,1139.57,1437.09,1133.58ZM1280,866.6c2.26,2.85,2,3.24-.86,1-9.75-7.88-19.27-16.07-29.36-23.49-4.3-3.15-9.83-4.58-14.7-7a11.14,11.14,0,0,1-4.24-3.46c-6.4-9.54-13.21-18.87-18.78-28.88-14.65-26.35-36.69-46.22-57.57-67.15a23.66,23.66,0,0,0-3.23-2.51,1.08,1.08,0,0,1,0-1.79c4.19-2.62,3.63-6.2,1.68-10.45-2.59-5.64-4.64-11.53-6.92-17.28l8.86,2c6.71,8,14.1,16.64,21.34,25.41q20.17,24.42,40.21,49,17.5,21.34,35,42.71c1.56,1.9,4,3.46,1.17,6.23a2.69,2.69,0,0,0,.07,2.52c4.92,7.5,9.33,15.15,17.5,20.25C1274.48,856.33,1276.78,862.18,1280,866.6ZM1343.67,1118c1.67,1.43,3.86,3.65,5.67,5.1,3.67,2.94,10,7.34,14.9,11.54a1.64,1.64,0,0,1-1.54,2.82c-5.37-1.58-11.73-3.67-15.6-4.43a37,37,0,0,0-8-1.08c-1.08,0-11.71-10.08-17.23-14.9C1329.28,1114.27,1335.51,1111,1343.67,1118Zm-26.45-7.8,3.69-10,8.12,6.46Zm22.83-88.27c-5.31-7.15-7.49-8.64-17.51-.43-7,5.75-13.5,12.13-20.41,18-3.83,3.25-2.13,11.09-.17,13.37-8.85,8-14.14,12.42-23.14,20.27a1.34,1.34,0,0,1-2.2-1.26c1.27-7.37-4.39-10.79-8.58-15-10.59-10.66-21.33-21.19-31.85-31.93-4.49-4.59-10.08-4.09-15.6-4.09-.44,0-40.14-56-74.58-104.6l0-.11h-.11c-23-32.44-43.66-61.51-48.66-68.23,2.12-1.22,4-2.87,6.12-4.23,5.28-3.49,11.24-3.72,16.07.6,1.73,1.55,5.54,5.48,8.91,13,.8,1.78,4.58.69,6.12-.31,1-.66,1.33-3.91.63-5.37a49.2,49.2,0,0,0-6.33-9.79c-2.17-2.64-5.16-5-1.26-8.1,3.41-2.76,4.86.24,7.32,2.41a21.86,21.86,0,0,1,6.51,10.69c.32,1,2.82,2.41,3.61,2,1.24-.56,3.22-2.26,2.6-3.7a106.8,106.8,0,0,0-7.14-13.5c-1.27-2.07-3.77-3.41-4.94-5.51-1.49-2.69-2.14-5.47,1.33-8,7.75-5.56,16.23-12.43,27-18.05,8,2.87,8.31,4.58,13,10.77a82.61,82.61,0,0,0,5.2,6.95c1.47,1.65,2.89.46,4.3-.3,6.06-3.28-16.33-18.85-10.92-23.63,4.68-4.12,6.88,1.55,18.1,13.43,4,4.3,9.29.3-4.39-15.3-.86-1-1.82-1.88-2.76-2.79-2.67-2.64-1.84-5.58.51-10.3,5.66,8,11,15,15.73,22.32,10.82,16.71,21.21,33.69,32,50.4q35,54,70.2,107.8c6.65,10.22,13.16,20.54,19.91,30.7,4.89,7.37,10.18,14.48,15,21.89C1348.3,1025.38,1341.29,1023.18,1340.05,1021.94Zm-27.89,80.62-24.61-22.5c4.2-6.5,4.13-6.43,14.69,3.07C1317.22,1096.6,1313.19,1098.33,1312.16,1102.56ZM1139.57,917.5c-4.3,3.18-27.2,19.79-28.14,20.67l-96.53-102.1c2-2.14,6.32-7.64,10.61-13.18,1.77-2.29,2.7-2.69,5.22-1.42,15.83,8,31.74,15.83,47.64,23.68,3.37,1.66,5.75,2.53,10.29,4.56C1092,851,1114,881.22,1139.57,917.5Zm16.56-237.63c10.24,12.37,20.4,24.82,30.65,37.19,7.61,9.18,15.57,18.09,22.92,27.47,9.93,12.67,21.76,23.74,29.16,38.57,8.32,16.7,18.43,32.5,27.76,48.69.52,1.38,0,2.09-1.19,1-4.65-5.75-9-11.86-13.6-17.61q-11.57-14.29-23.13-28.6c-11-13.6-21.94-27.27-33.11-40.73-8.79-10.58-17.94-20.86-26.83-31.35-5.6-6.62-10.68-13.72-16.64-20-4.9-5.15-5.78-11.89-8.86-17.71a45,45,0,0,0-6.72-9.66c-1.24-1.31-3.94-1.24-7-2.07-3.48-8.58-7.37-18.14-11.27-27.74a.7.7,0,0,1,1.18-.72c4.92,5.7,9.88,11.37,14.74,17.12Q1145.24,666.72,1156.13,679.87Zm7.5-90.16a17.9,17.9,0,0,1,9.74,2.28c15.15,8.88,30.1,18.11,45,27.37,1.84,1.14,7.55,5,5.44,5.6-13.14,4.13-25.08,8-37.1,11.63-14.16,4.27-28.47,8.06-42.55,12.61-3.56,1.15-5.52.42-7.51-2-4.45-5.43-8.55-11.19-13.36-16.27a55,55,0,0,0-12.46-10.06c-1.9-1.09-5.4.62-9.43,1.25.74-7.63-4.34-11.93-10.13-16.09C1120.13,597.27,1146.87,590.86,1163.63,589.71Zm-107.12,38.46c4.54,3.07,9.16,2.54,13.91,1.06,6.26-2,12.47-4.08,18.78-5.85a3.86,3.86,0,0,1,3.41,1.56c9.31,22.79,18.46,45.65,27.65,68.5a22.47,22.47,0,0,1,2.06,7.53l-89.24-68c7.35-2.07,12.9-3.77,18.52-5.15C1053.15,627.43,1055.32,627.36,1056.51,628.17Zm-9.73-39a71.23,71.23,0,0,0,7.1,5c-7.75,2.55-15.29,4.82-22.63,7.6a8.05,8.05,0,0,0-4.19,4.67c-.29,1,2,3,3.42,4.1,3.83,2.88,7.84,5.52,12.84,9-6.38,2-11.64,4.47-17.06,4.88-2.86.21-6.2-3-9-5.09-8.29-6.3-16.42-12.83-24.58-19.3a8.12,8.12,0,0,1-1.25-1.76c9.4-2.94,18.24-5.69,27.07-8.48,3.4-1.07,6.85-2.06,10.13-3.42C1035.34,583.54,1041.29,584.23,1046.78,589.14Zm-55-34c11.26,6.89,22.38,14,34.74,21.84-14.06,4.06-27.14,7.09-39.6,11.75-6,2.24-8.61-.34-12.31-3.41-8.3-6.86-16.84-13.43-25.71-20.45,12.66-3.61,24.92-7.19,37.25-10.51A8,8,0,0,1,991.77,555.14Zm-45.55-29.68c9.89,7,20.42,13.13,31.22,19.93-5.83,2-11.11,4-16.53,5.5-6.5,1.85-13.12,3.32-19.7,4.87-1.12.27-2.75.69-3.43.15-9.86-7.8-19.6-15.75-29.46-23.74,9.58-2.71,18.83-5,27.83-8C940.09,522.82,942.55,522.85,946.22,525.46Zm-60.08-29.41c3.14-1.39,7.74-3.38,10-2.1,11.46,6.45,22.37,13.88,33.76,21.15-5.6,1.7-10.7,3-15.65,4.82-4.53,1.62-7.75-1.13-10.9-3.15-7.67-4.92-15-10.34-22-15.23C883.09,499.46,884.23,496.89,886.14,496.05ZM844.58,464v0a1.31,1.31,0,0,1,1.53-.55,38.56,38.56,0,0,1,7.43,2.84c8.43,5,16.7,10.31,25,15.56A28.37,28.37,0,0,1,882,485c-4.89,3.49-7.5.53-10.82-1.8-7.58-5.33-15.58-10.06-23.4-15.05-.91-.58-1.81-1.2-2.7-1.82A1.76,1.76,0,0,1,844.58,464ZM784.76,423.6c14.87,9.85,21.85,25.3,31.64,38.82a50.23,50.23,0,0,1,5.66,9.86.66.66,0,0,1-.92.85c-2-1.08-3.92-2.15-5.86-3.25-1.25-.71-2.39-2-3.69-2.13a6,6,0,0,0-2.48.41,2.26,2.26,0,0,0-1.52,2.55,3.82,3.82,0,0,0,1,2.2c7.29,6.16,13,10.49,23.1,18.39,12.3,9.6,24.87,19,37.11,28.82q20.06,16.07,39.93,32.35c11,9,21.93,18.27,33,27.3,12.15,9.92,24.44,19.68,36.62,29.56,9.25,7.5,18.42,15.11,27.65,22.64q14.88,12.15,29.82,24.24c11.21,9.07,22.75,17.77,33.61,27.24,18.29,15.93,36,32.46,54.23,48.51,11.32,10,22.94,19.69,35,29.94a.89.89,0,0,1-.77,1.54,79.61,79.61,0,0,0-11.53-2.2c-6.82-.52-11.46,5.19-14.59,9.19-.65.82-.18,3.48.47,5,.19.48,2.83,8.09,8.11,10.6,1,.5,17,1.58,24.17,6.32-2.31.76-17.64,9.27-20.38,11.31-5.18,3.87-10.51,7.54-16.25,11.62-4.34-2.85-8.65-6.07-13.32-8.66a78.46,78.46,0,0,0-14.82-6.83c-5.47-1.69-15.65,3.63-18.5,8.71-1.26,2.24,1.34,4.65,3.56,6.2a21,21,0,0,1,5.07,5l2.79,3.88s8.53,13.59,3.52,17.78c-19.41-11.11-38.82-22.27-58.33-33.24-1.2-.67-4.46-.29-4.72.39-2,5.27-6.53,3.89-10.35,4.38-5.92.76-11.12,9.49-18.3,9.83-5.77.28-17-6.66-20.29-8.63q-20.32-12.17-41-23.76c-10.59-5.92-21.57-11.17-32.14-17.14-6.17-3.49-12.74-6.07-17.6-12.21-3.55-4.49-10.08-6.62-15.31-9.76q-30.87-18.53-61.79-37c-2.9-1.73-5.92-3.56-9.13-4.36A7.59,7.59,0,0,0,801,711.6c-11,11.37-21.74,23.06-32.65,34.55-9.55,10.07-19.72,19.6-28.64,30.19-4.27,5.06-6.81,4-10.94.87C717.94,769,707,760.93,695.68,752.54c6.73-6.63,13.54-13,20-19.76,14.35-14.9,28.51-30,42.81-44.94,2-2.09,3.5-4.41.72-6.41s-5.59-6.3-9.65-2.17c-8,8.14-15.83,16.43-23.67,24.72-2.16,2.29-4,4.88-6.17,7.16-11,11.49-22,22.92-33.29,34.64L648.91,718.5c2.88-3.35,5.49-6.72,8.45-9.77q24.55-25.28,49.26-50.44c2.1-2.15,5.36-4.17,2.16-7.65-3.38-3.69-8.18-3.93-11.42-.6-7.63,7.85-15.23,15.74-22.64,23.79-2.42,2.64-4.56,3.06-7.48,1.09-9.8-6.61-21.91-14.74-32-21.48,2.74-2.88,18.89-22.6,19.57-23.59,4.09-5.87,3.33-6.49,3.11-7.49-.6-1.94-.84-3.73-2-4.88-1.81-1.81-30.57-18.75-32.75-20.2L601,583.91c-3.45-1.72-7-3.32-10.33-5.2q-10.75-6-21.33-12.32a4.75,4.75,0,0,1-1.45-1.69c-.76-1.77-1.52-3.51-2.29-5.27-2.63-8.88-5.22-17.58-8.19-27.58,16.6,5.63,31.76,10.83,47,15.93,25.37,8.49,50.67,17.19,76.17,25.27,16.5,5.23,30.37,14.59,44,24.87,17.19,13,34.78,25.48,52.29,38.06,16.33,11.73,32.85,23.2,49.16,35,20.4,14.71,40.6,29.7,61,44.39,13.26,9.54,26.84,18.62,40.11,28.15,20.28,14.57,40.4,29.36,60.61,44,3.77,2.74,12.88,8.57,13.35,9,5,4.46,14.9,10.51,22.85,9.74,1.54-.75.58-2.81-1.7-4.92-7.11-6.61-15.26-12-23.09-17.77q-26.07-19.12-52.34-38c-13.27-9.5-26.82-18.62-40.09-28.13-16.35-11.72-32.48-23.76-48.82-35.5-20.27-14.57-40.73-28.87-61-43.48-20.69-14.94-41.14-30.2-61.83-45.13C725.2,586.2,715,579.51,705,572.66l2.46-7.78c7.63,5.27,15.1,10.46,22.61,15.61,18.66,12.78,37.29,25.6,56,38.3q26.94,18.29,54.06,36.29c1.58,1,5.32,1.7,5.85.95,2.6-3.62,3-5.93,5.13-4.24,4.06,3.25,13.14,10.06,17,13.47,1.43,1.25,3.76,7.93,4.62,9.82.57,1.24.75,3,1.7,3.66,15.37,10.17,25.44,16.34,40.74,26.61,18,12.11,35.82,24.56,53.73,36.85,9.16,6.29,18.36,12.54,27.5,18.86,4.37,3,11.44,2.85,16.15-.66,13.12-9.77,26.18-19.64,39.35-29.35,7.51-5.53,15.18-10.86,22.82-16.23a8.35,8.35,0,0,0,.45-13.52c-18.4-14.8-36.87-29.5-55.23-44.35Q993,635.17,966.3,613.16c-.69-.56-1.82-1.62-1.65-2,1.67-4.11-3.3-7.18-6.32-9.47-23.94-18.14-48.25-35.8-72-54.22-20.09-15.6-39.52-32-59.25-48.08-7.7-6.26-15.39-12.52-23.15-18.7-2.65-2.11-5.48-3.45-8.88-1.14a3.55,3.55,0,0,1-3.1,0c-2.48-1.44-.94-1.4-3.2-3.16-4.73-3.68-9.6-3.78-14.23-.12-2.27,1.78-1.64,6.25,1,8.35,3.16,2.55,13.54,10.31,16.61,13,7.06,4.92,13.91,10.12,20.87,15.21-5.83,5.55-6.37,5.59-12.31.88l-19.21-15.22.1-.06c-7.57-6.06-24-16-29-23.69l11.56-7.33c2.21,2.32,2.58,6.49,7.1,3.14.57-.42,4.64-3.13,4.58-3.3-2.41-7.19,4.39-11.1.09-18.27a19,19,0,0,0-5.61-6.17c-18.08-11.65-36.32-23.06-54.46-34.62-3.08-2-2.23-25.09-3.35-26-2.76-2.25-5.39-4.91-9.43-7.85a69.63,69.63,0,0,1-18-18.33c-1.5-2.22-3.5-4.92-5.14-7.2a1,1,0,0,1,1.34-1.4c5.76,3.76,11.68,7.31,17.2,11.41,12.57,9.32,24.88,19,37.37,28.44C752.09,399.45,767.85,412.4,784.76,423.6ZM742.33,815c-18.53-13.29-37-26.72-55.42-40.11-6.84-4.95-13.77-9.79-20.48-14.9-1.31-1-18.56-12-23.73-15.21l10-16.15,121.13,90.22-9.13,12.38C763.57,830.4,743.62,816,742.33,815Zm19.09,24-68.79,54.63c-14.54-43.09-31.31-92.64-45.57-134.93,4,2,20.11,12.84,23.48,15.21,2.77,1.95,63.42,47,68.36,49.95C740.44,824.83,753.75,834.11,761.42,839.06ZM769,794c-2.07,2.3-3.66,5-6.17,8.55L743.5,788.87l66.67-70.47,43.44,25.78c-3.82,4.29-7.7,8.82-11.78,13.17-3.5,3.74-7.22,7.28-10.85,10.9-2.75,2.76-5.34,7.44-8.32,7.71s-6.38-4-9.8-5.89c-3.81-2.11-7.71-4.55-11.86-5.35-2.4-.46-6,1.35-8,3.29C784.77,776.43,776.89,785.23,769,794Zm40.66,28.78c3.3-3.75,6.49-7.58,9.93-11.19,4.55-4.77,9.32-9.34,14-14s4.23-10.06-1.16-14.09l31-33.7c8.24,5.06,17.33,8.85,24.08,15.15,13.36,12.47,30.08,19,45.29,28.11,12.48,7.5,25.58,14,38.39,20.91a10.71,10.71,0,0,1,1.88,1.7l-.24,1.58c-9.79,0-19.58-.25-29.35,0-17.09.54-34.18,1.36-51.26,2.17-13.79.65-27.58,1.36-41.35,2.22-13.45.83-26.89,1.88-40.33,2.84A1,1,0,0,1,809.66,822.78ZM594.1,595.34c-5.11-2.73-7.69-3.36-16.37,6.95-8.17,8.45-8.15,8.42-17.11,2.39-7.27-4.9-14.61-9.7-22-14.56l20.83-22,37.37,21.93C596,591.79,595.09,593.43,594.1,595.34Zm11.38,5.53c3.06-3.72,5.71-3,9-.7,3.11,2.12,23.5,14.53,33.37,20.3-4.82,4.46-9.3,9.31-13.94,14.06l-37.06-23.87C600.58,607.31,602.86,604.06,605.48,600.87Zm-56.06-89c-5.28-14.25-11-28.34-16.61-42.49-4.13-10.47-8.3-20.93-12.41-31.41a16.83,16.83,0,0,1-.66-2.77c14.68-3.52,26.91,1.55,39.06,9,17.2,10.52,35.05,20,52.54,30,16.13,9.25,32.16,18.68,48.25,28,1.84,1.06,3.83,1.84,5.72,2.81,5.11,2.65,8.3,6.57,10.36,12.2,6.24,17.09,13.11,33.95,20.13,51.93-8.17-2.9-15.46-5.6-22.82-8.07-16.76-5.61-33.57-11.07-50.33-16.67-11.19-3.73-22.36-7.57-33.51-11.42-8.94-3.09-17.69-6.84-26.81-9.23C555.51,522,551.79,518.28,549.42,511.88Zm-5.13,55.87c-13.93,14.32-27.77,28.73-41.6,43.06L467.87,585.3c4.35-4.93,8.64-10,13.18-14.86s9.24-9.12,13.72-13.82c3.68-3.86,7.71-5.91,13.35-5.74,5,.15,21-.34,33.4-.85,2,1.38,9.45,6.44,12.67,8.5C551,561.52,547.47,564.48,544.29,567.75Zm-29.61,47.11c6.11-6,12.23-11.87,18.62-18.07l30.53,19.68a86.54,86.54,0,0,0-5.73,6.81c-1,1.5-2.52,4.05-1.94,5.1,2.58,4.71-.53,7.08-3.19,9.77-5.73,5.82-5.82,5.93-12.91,1.06-8.69-6-17.24-12.17-25.83-18.29C511.12,618.7,512.77,616.72,514.68,614.86Zm53.06,23.81,36.52,25.16L591.13,676l-34.19-24.89Zm46,33.34c.38-.37,1-1,1.28-.9,8.2,3,10.25-5.63,15.31-8.44,2.83-1.57,4.56-1.54,6.75-.12,9.91,6.45,19.76,13,29.36,19.3l-29,28.09-35.75-26.13Q607.77,677.9,613.77,672Zm35-382.75q24.27-12.78,48.62-25.39c13.5-7,27.05-13.94,40.54-21,14.92-7.8,29.79-15.69,44.68-23.55,4.36-2.31,4.62-4.76.49-7.27-12.12-7.35-24.34-14.53-36.52-21.78-.74-.44-1.49-.9-2.48-1.51,9.77-5.13,19.18-10.16,28.7-15,1.46-.74,3.78-1.29,5-.65,7.12,3.63,14,7.65,19.95,11-4,2.91-7.75,5.64-11.47,8.46-2.08,1.58-5.87,8.71-2.08,13.88,3.43,4.09,6.59,5.12,11.82,6.17,12.92,2.59,24.69-3.79,29.46-7.37a20,20,0,0,0,3.82-3.34c5.5,2.31,6.43,6.77,3,11.84-7.72,11.4-15,23.09-22.6,34.57-13.18,19.88-26.52,39.65-39.68,59.55Q754.36,331.59,739,355.53c-1.58,2.45-3.92,4.77-1.8,8.35.52.88-1,3-1.6,4.51-.34-.06-16.07-12.18-20.51-15.15-8.46-5.66-79.25-48.29-86.52-52.84C635.84,296.37,642.25,292.7,648.77,289.26ZM619.47,408.9c2.71,1.91,6.09,2.6,9.12-.5.5-.51,2.42-1.23,4.57.43,6,4.57,14.13,9.83,19.71,13.47a2,2,0,0,0,2.15,0c4.51-2.84,21.75-13.84,27.67-16.83,1.94-1,5.69,1.64,10.22,3.13-8,4.87-14.63,8.83-21.15,13-1.47,1-3.23,2.65-3.34,4.12s.5,2.88,1.94,4.78c1.58,2.34,43.63,26.7,60.73,38.84,13.58,9.65,15.65,8.46,19.91,12,3,2.48,10.92,8.21,11.82,8.93,1.5,1.21-.74,5-.63,5.56-16.28-14.63-21.5-11.19-18.89-8.72,3.86,3.66,10.36,7.29,14.2,11.44,3.12,3,4.1,5.43,5.53,4.39,3.83-2.78,4.27-.43,4.6-7.32a88.24,88.24,0,0,1,8.61,5.79c3,2.55,17.52,13.89,26.8,22.57,2.87,2.14.05,4.86-.25,6.54a14.52,14.52,0,0,0,1.78,9.71,1.36,1.36,0,0,1-.7,2c-2.7,1-3.93,1.44-5.3,1.86-3.74-5.47-6.82-10-9.56-13.93a79.06,79.06,0,0,0-8.79-10.3,3.46,3.46,0,0,0-2.18-.7,2.38,2.38,0,0,0-2.55,2.2,4.19,4.19,0,0,0,.35,2.5c2.77,4.35,5.92,8.48,9,12.62,4.57,6.14,5.57,6.83,8.15,11.36l-9.61,6c-1.91-5.33-15.69-18.34-18-22.7-.44-.84-1.76-1.22-3.2-1.53A2.38,2.38,0,0,0,759.3,532a6.77,6.77,0,0,0,.28,2c1.57,4.74,16,17.49,17.6,22.23.23.73-.34,1.72-.94,3.14a.93.93,0,0,1-1.38.42c-11.4-7.87-16.46,2.3-22-2.61-5.77-5.09-9.09-6.51-13.2-10.24a13.45,13.45,0,0,1-4.16-7.22,14.64,14.64,0,0,0-7.59-11.26c-6.72-4.09-12.56-9.6-19-14.12-1-.68-2.47-.63-4-.56a1.37,1.37,0,0,0-1.19,1.92,9.92,9.92,0,0,0,2.1,3.41c4,3.6,8.31,6.82,12.6,10.26l-6.5,2.79c-1.82-1.35-3.88-3.08-6.14-4.51-4-2.54-7.73-6.8-12.24-4.37a1.91,1.91,0,0,1-2.85-1.46c-.19-2.12-.36-4.13-.34-6.14A4.27,4.27,0,0,1,692,512.5c3.28-2.06,6.75-3.8,10.5-5.85,3.43-2,5.9-.89,9.83,2.57,5.18,4.31,10.21,8.72,15.53,12.74,1.09.81,3.57.71,4.93,0a67.19,67.19,0,0,0,9.1-5.69c2.56-1.81,3.09-3.91.34-6.21-5.26-4.42-10.35-9.07-15.77-13.28a3.33,3.33,0,0,0-2.47-.13,2.62,2.62,0,0,0-2.1,2.94,2.9,2.9,0,0,0,.67,1.68c4,3.87,8.28,7.45,13.33,11.89,1.53,1.64-1.85,2.28-2.74,2.33-5.33.27-19.52-12.38-18.34-16.37,3.32-6.66,2.06-13.16-7.5-19.36-16.55-10.74-33.37-21.07-49.63-32.23-6.24-4.28-19.22-5.94-24.67-2.15l-25.42,15.35-7.72-5.2c3.73-2.29,28.28-17.08,28.6-17.28.83-3.2-6.16-7.13-12.5-10.67a47.86,47.86,0,0,1-6.69-4.52c-.91-.73-1.93-2.25-1.78-3.23.71-4.43-2.71-5.56-5.44-6.13-4.33-.9-5.17,5.12-15-1.18,9.06-5.4,16.53-10.27,24.44-14.28,1.93-1,4.11-1.14,8,1.38C622.85,401.26,613.5,404.7,619.47,408.9Zm-2.4-21.83-49.9,29.68c-1.79-6.08-3.49-11.85-5.16-17.5l41.75-24.8C607.91,378.37,612.57,382.8,617.07,387.07Zm-57.34-60.3c10.87,8.49,26.79,21.32,31.59,24.88-11.15,6.48-21.61,13.31-32.74,18.78-7.32,3.59-13.32,14.25-10.29,22.78,3.22,9.05,5.13,18.56,7.53,27.9.17.65-.35,1.47-1.1,2.46-18-13.51-34.41-26.17-35-26.57-7.79-5.36-8.76-8.58-8.93-18a103.52,103.52,0,0,0-1.09-13.5,18.06,18.06,0,0,1,4.75-15.22c3.33-.43,5.28-1,7.19-.85a45.1,45.1,0,0,1,8.05,1.34c4.63,1.17,9.4,3,13,4.12,8,2.43,18.28-7.57,19.32-10.87,1.28-4.06.9-5-1.75-8.24-2.26-2.75-4.17-5.79-6.47-9.05C553.12,322.93,555.12,323.2,559.73,326.77ZM408.07,280.56,420.56,286c3.34,1.44,6.09,1.25,9.56-.86,8.73-5.31,17.92-9.89,27-14.58,4.19-2.15,7.48-4.61,6.05-11.47,5.75,3.84,10.45,7.08,15.25,10.19,9.16,5.92,18.37,11.76,27.55,17.64.9.58,2.88,1.1,2.56,1.83-3.81,8.73,14.29,16.41,16.67,17.94,6.92,4.46,12.11,8.11,19,12.64-2.91,4.69-.66,7.4,4.36,12.07a37.94,37.94,0,0,1,5.59,6.73,2.92,2.92,0,0,1-.77,4.06c-1.55,1-3,2-4.57,2.89-3.14,1.72-5.93,2.83-10.12,1.46-6.6-2.14-11.7-3.13-14.88-7.89a8.66,8.66,0,0,0-12.11-1.68c-1.45,1-4.86.78-6.53-.25-11.46-7-22.73-14.4-34-21.76-3.51-2.29-5.26-1.61-8.43,1.59-8.22,8.3-5.75,16.9-2.82,26,1.58,4.91,2.62,10,4.2,16.16-5.27-4.46-41.33-29.6-46.29-33.17-4.78-12-9.43-23.72-14.53-36.53C402.52,285.17,407.13,281.18,408.07,280.56Zm96.53,94c.24,4.43.65,8.85,1,13.82-10.59-6.85-19.89-13.26-29.6-19-4.6-2.72-4-7.29-5.24-11.05-2.84-8.62-4.8-17.53-7.2-26.31-1.09-4,.25-7.6,3.52-9.06,1.85-.82,5.31.86,7.56,2.22,9.15,5.57,18.07,11.53,27.18,17.17,4.66,2.89,5.78,6.7,3.46,11.29a15.61,15.61,0,0,0-1.19,6.69C504.09,365.09,504.34,369.83,504.6,374.57ZM329.31,358c6.27-9.18,11.76-18.89,17.31-28.54,1.73-3,3.1-3.67,5.79-1.27,3.27,2.92,18.68,12.34,21.56,14.26q42.25,28.23,84.26,56.86c15.41,10.45,30.94,20.75,46,31.65,3.29,2.37,5.64,6.69,7.26,10.59,6.57,15.86,12.7,31.91,19,47.9,0,.12-.11.33-.37,1C523,485.53,516,480.76,509,475.92q-36.5-25.37-73-50.77c-10.18-7-20.36-14.11-30.84-20.68a10,10,0,0,0-8.33-.3c-5.19,2.55-8.78,1.84-13.47-1.67-9.45-7.09-13.05-9.19-23.09-15.47-1.5-.94-4.25-2.27-11.17,3.22-5.81-4-11.2-7.51-16.33-11.37-1.86-1.41-3.22-3.57-4.57-5.55C324.61,368,325.68,363.28,329.31,358ZM170.42,606.09c-8.65,2.2-17.1,5.83-25.86,6.77s-17.26.81-25.57-6.17c-10.77-9.05-19.9-16.68-29.87-25-4.45-3.71-7.56-6.62-12-10.55,14.79-9.32,29.36-17.55,44.47-26.67a8.83,8.83,0,0,1,9,.42c8.85,6.48,14.58,11.17,22.91,18.47a.88.88,0,0,1-.89,1.48,13.81,13.81,0,0,0-1.5-.49c-9.52-2.43-23.51.83-28.82,10.48-1.14,2.07-6.62,11.69-2.55,19.29,2.66,5,10,7.9,16,8.4,5.23.44,11.13-.6,15.67-1.43,17.41-3.2,18.86-18,17.48-21.31-.62-1.51-3.22-4.49-1.26-6.23,4.33-2.1,8.84-3.9,13-6.37q22.56-13.53,44.89-27.46c16.42-10.28,32.66-20.84,49-31.19,13-8.25,26.16-16.37,39.23-24.57,11.55-7.24,23.06-14.53,34.61-21.77,8.79-5.5,17.59-11,26.44-16.39,3.61-2.21,4.31-5.69,1.12-8.21-10.73-8.47-21.59-16.78-32.37-25.21-1.84-1.44-3.5-3.13-5.15-4.62,6.08-4,11.85-7.94,17.81-11.57a5.44,5.44,0,0,1,4.67-.21c6,3.55,11.9,7.32,17.61,11.34,2.19,1.53,2.38,4.4,6.16,5.59,4.63,1.46,8.54.69,13-.38a1.51,1.51,0,0,1,1.88,1.42c.05,6.47,4.61,9.47,9.42,12.72,24.68,16.69,49.2,33.63,73.74,50.52,16.71,11.5,33.3,23.17,50.13,34.48,2.43,1.64,6,1.59,8.89,2.57a14.32,14.32,0,0,1,3.32,2,.69.69,0,0,1-.33,1.25c-6.76.65-12.1,1.25-17.46,1.6-18.11,1.17-36.23,2.19-54.33,3.35-9.76.63-19.53,1.28-29.25,2.32C442.85,524.86,183.76,602.68,170.42,606.09Zm121.05-21.77c-5.84,1.43-2.88-4.86,2.31-6.57,4-1.15,145-44.47,152.54-46.71a1.58,1.58,0,0,0,.35-.16c12.71-.82,25.4-2,38.11-2.87,7.61-.54,15.25-.69,22.87-1.21,13.33-.91,26.65-2,40.94-3l5.51,20.32c-19.63.16-62.63,1-81.5,1.34-24.56.46-35.58,2.08-44.29,4.12-22.79,5.33-46.64,11.91-69.32,17.7C342.7,571.38,316.32,578.25,291.47,584.32Zm63.09-9.51c8.78-2.27,16.3-4.23,23.83-6.16,10-2.57,20.05-5.19,30.11-7.63,11.12-2.7,22.25-5.39,33.38-8,10.29-2.38,27.56-2.42,42.23-2.42-9,9.29-21.27,22.5-29.49,31.18-5,5.31-11.61,14.94-8.18,21.57,2.73,5.3,1.34,10.82,1,15.54-.19,2.36-.48,6.63-.83,9.35-.73,5.74-1.92,13.75-7.86,10.15ZM451,709.53c-11.23,8.37-22.45,16.77-33.89,24.84-11.14,7.84-22.53,15.34-33.86,22.9q-29.33,19.54-58.72,39c-4.19,2.79-8.31,5.69-13.36,9.16-10.07-7.46-6.54-5.78-17.16-13.64,7.35-8.24,14.25-13.67,21-21.4q23.31-26.52,46.55-53.1c8.49-9.67,17.3-19.07,25.43-29,2.68-3.3,4-7.86,5.35-12,3.64-11.58,6.93-23.27,10.67-36,27.89,21.35,41.73,31,69.79,52.52C465.37,698.49,458.24,704.11,451,709.53Zm41.46-10.28q-27.15-20.43-54.19-41-25.35-19.23-50.61-38.6A13.93,13.93,0,0,1,384,615c-2.34-4.48-3.74-7.68-5.91-12.24-.91-2-.8-2.55.1-1.83,18.1,13.53,36.16,27.12,54.36,40.52,3,2.23,59.73,44.49,77.7,58,8.91,6.7,17.4,14.07,26.84,19.9,7.77,4.79,7,12.27,8.38,19.57Q518.93,719.08,492.43,699.25ZM451.64,641.8c.83-9.17,2.28-18.29,3.48-27.42a.59.59,0,0,1,1-.36c6.31,5.5,11.3,8.59,18.29,14.56,2.28,1.66,3.19,3.49,2.74,8.28-1.08,11.63-1.75,16.4-2.58,25.75-5.54-3.9-10.34-7.26-15.11-10.67-1.75-1.25-3.73-2.39-5-4S451.47,643.76,451.64,641.8Zm31.78,13.3c.74-5.83,1.86-11.61,2.88-17.81,8.07,6.15,16.21,12.26,24.21,18.56a4.91,4.91,0,0,1,1.36,3.84c-1.12,9-2.46,18-3.92,28.37-5.32-4-15.31-11.81-15.86-12.17C482.54,669.76,482.34,663.61,483.42,655.1ZM517,690.29c1.77-9.09,2.63-18.37,3.85-27.56.59-.14,15,9,19,12.89,3.74,2.83,5,6.73,4.3,12.28-1.14,9.63-2.24,15.47-3.3,23.59-4.64-3.21-8.64-5.91-12.55-8.74-1.14-.83-5.94-4.4-7.42-5.32C517.79,695.54,516.18,694.37,517,690.29Zm3-42.39q-32-23.34-64-46.65c-3.39-2.45-1.76-5-.53-7.41.88-1.72,2.39-3.12,4.48-5.73L647.06,725l-9,14.93c-.39.7-.78,1.41-1.3-.61-2.17-8.43-14.25-15.92-22.88-22.67-17-13.27-34.71-25.53-52.12-38.22Q540.89,663.17,520,647.9Zm31.69,82.4c-1.46-11.59-.22-18.19.88-31.76.12-1.57.11-3.69.17-6a1.38,1.38,0,0,1,2.2-1.08c12.15,9,24.58,18.65,36,27.1,8.51,6.31,17.09,12.52,25.49,19a13.7,13.7,0,0,1,4.33,5.62c7.53,19.69,14.86,39.45,22.21,59.2.91,2.44,1.58,3.93,2.13,5.76a1.17,1.17,0,0,1-1.94,1.18,96.55,96.55,0,0,0-7.62-6.37c-16.8-13.23-33.92-26-50.91-39-3.86-2.95-18.3-13.58-24.41-17.71C554.65,742.42,552.41,735.78,551.71,730.3Zm28.91,91.58c-8.26-4.68-12.39-11.19-14-20.85-2.57-15.47-7-30.62-10.59-45.92-.08-.32-.69-2.43.3-1.59,2.63,1.78,18.17,12.24,20.81,14-5.78,4.74-5.31,5.46-.1,9.28,8.79,6.44,17,13.65,25.53,20.46,4.77,3.82,9.75,7.39,14.48,11.26,7.05,5.76,13.91,11.77,21,17.53,4.65,3.8,7.87,3,9.71-1.54l11,3.37c8,22.75,16.56,46.84,25.08,70.92l-.86.71c-2.54-1.75-5.15-3.41-7.6-5.27q-19.57-14.81-39.07-29.71Q613.59,847.15,591,829.68C587.53,827.05,584.34,824,580.62,821.88Zm115.6,99.42a153.55,153.55,0,0,1-24.12,43.49c-15,19-29.08,38.83-43.58,58.28q-26.6,35.65-53.26,71.28c-4.85,6.48-9.85,12.85-14.69,19.34a14.13,14.13,0,0,1-21,2.36c-14-12-28.14-23.82-42.23-35.7-1.4-1.18,107.68-187.52,106.92-188.12-8-7.34-12.57-14.18-22.19-23,1.48-8,3.61-12,10.27-29.85,25.2,18.89,51.24,38.38,77.24,57.93,5.18,3.89,7.54,6.77,13,10.18,7.41,4.59,18.18-6.06,22.63-9.52,4.63-3.62,63.77-49.44,68.59-52.8,1.79-1.25,12.43-11.55,41.37-11.84,0,0,39.85-2.51,55-3.13,18.55-.76,20.7-1.45,39.24-2.27,2.45-.1,7.51,2.2,6.43,4.47-2.76,6.92-8.48,5.45-14.12,5.73-19.95,1-38.77,2.12-58.71,3.29-10.49.62-11.6.62-22.08,1.41-1.77.13-20.35.87-26.64,3.44-12.9,5.25-16.8,9.06-24.37,14.85-13.49,10.32-64.64,49.83-67.54,52A16.14,16.14,0,0,0,696.22,921.3Zm279,161.59c-11.14-2.64-22.22-5.53-33.35-8.19-18.79-4.48-37.76-8.28-56.32-13.56-4.69-1.33-9-4-13.21-6.86a1,1,0,0,1,.93-1.81c12.28,4.35,25.17,6.17,37.77,9.08,13.77,3.18,27.39,5.86,41.09,9.32,6.59,1.67,13.17,3.42,19.85,4.64a4,4,0,0,0,3.93-2.35c1.08-2.94-1.16-4.65-4-5.26-13.8-3-27.51-6.46-41.26-9.75-15.13-3.63-30.17-7.7-45.42-10.73-10.93-2.17-17.71-7.65-26.17-14-15.64-11.8-31.82-24.18-47.42-36-19.36-14.7-33.92-26.4-53.24-41.15-13.29-10.14-28.15-22.12-41.52-32.17-2.95-2.22-8.15-.28-9.59,2.79-5.54-4.55-5.53-4.53.22-8.81,24.65-18.38,49.57-36.42,73.78-55.35,9.4-7.35,19.21-10,30.79-10.44,19.35-.72,38.66-2.76,58-4.14,7.43-.53,14.89-.77,22.33-1.17,20.5-1.09,41-2.09,61.5-3.34q22.79-1.38,45.54-3.31a61.59,61.59,0,0,0,8.61-1.09l96.79,103.38c-.37,1.36-.69,2.73-1,4-4.29,15.12-8.44,30.29-12.59,45.45-.43,1.55-.35,3.24-.8,4.78-1.85,6.31-3.05,13-11.42,14.53-1.73.32-3.51,3.66-4.15,5.93-2.1,7.54-6.47,14.83-2.13,23.26,1,2-.41,5.62-1.23,8.34-.9,3-.81,4.17,2.35,6.3,5.52,3.73,9.94,9.09,14.81,13.79,9.17,9.78,13,13.39,16.52,17.31a.61.61,0,0,1-.61,1c-12.4-3.45-25.74-6.93-38-10.31-20.15-5.54-40.28-11.14-60.52-16.31-2.22-.57-5.83.83-7.57,2.55-6.31,6.26-12,13.14-18.2,19.51C979.35,1083.56,976.81,1083.27,975.19,1082.89Zm116.3,28.1-102.76-29c5.07-4.93,9.45-9.31,14-13.5a4.83,4.83,0,0,1,3.78-1.21c20,5.33,40.06,10.75,60,16.42,1.87.53,3.35,2.71,4.85,4.28q10.42,10.92,20.76,21.93A.67.67,0,0,1,1091.49,1111Zm52,14.64c-7-1.75-13.9-3.49-20.84-5.27-2.6-.67-5.12-1.83-7.74-2.13-7.56-.86-11.92-6.3-16.61-11.21-5.87-6.14-11.52-12.49-18.09-19.65,8.82,2.39,16,4.35,23.24,6.28,1.2.32,2.62,1,3.63.69,5.79-2,8.87,1.72,12.31,5.18,8.24,8.28,16.62,16.41,25,24.6A.9.9,0,0,1,1143.45,1125.63Zm73.27,29.19c-13.92-3.26-27.86-6.48-41.75-9.89a10.4,10.4,0,0,1-4.34-2.94c-14.3-14.21-28.48-28.55-42.83-42.72-10.58-10.45-21.45-20.61-32-31.06-3.7-3.66-6.9-7.82-10.72-12.19,4.5.6,8.35,1.49,12.19,1.45,1.8,0,4.76-1.46,5.18-2.86,4.37-14.55,8.18-29.28,12.5-43.85,1.44-4.86,4.11-9.34,5.81-14.15.84-2.36.43-5.14,1.11-7.59,1.81-6.54,5.77-20.84,6-21.95l199.48,213.07c-8-1.48-15.86-3.36-23.77-5.15-17.8-4-35.56-8.22-53.34-12.35Zm113.37,44.52-35.85-8.51,2.68-10.54,35.14,7.49C1331.52,1191,1330.88,1194.7,1330.09,1199.34Zm72.77-29.62c-3.2,2.93-5.81,5.86-9.92,9.24-10.64,8.77-22.43,5.62-33,4.65-7.48-.68-15-1-22.47-1.86l-222.14-238c.19-.19.38-.38.59-.57,3.22-3,21.8-16.06,27.12-20.69,29.68,42.21,62.51,89.76,73.52,103.9,2.27,2.91,5.59,1.07,6.18.84,7-1.1,10.57,3.75,14.66,7.85,8.16,8.18,16.15,16.53,24.57,24.43,4.76,4.46,8.4,9.06,9.07,15.85.4,4.13,3.13,6.52,7.54,7.14a11.42,11.42,0,0,1,5.63,2.8q12.45,11,24.58,22.38a7.18,7.18,0,0,1,1.71,3.75,8.71,8.71,0,0,0,2.08,4.4h0c3.14,5.1,23.32,22.26,24.37,23,11.58,7.86,23.31,15.48,35,23.17,3.14,2.07,6.11,4.46,9.43,6.16a63.09,63.09,0,0,0,7.76,3.73c4.84,1.59,9.59-6,13.11-5.07A1.74,1.74,0,0,1,1402.86,1169.72Zm-12.3-4.8-35.64-22.25c5.63,1.34,10.81,2.14,15.66,3.87,3.9,1.39,7.09.14,8.34-2.7.94-2.12.19-6.52-1.49-8-8.46-7.54-17.48-14.46-26.29-21.62-2-1.59-3.85-3.26-5.77-4.89l.15-1.83c2.93,0,6-.61,8.77.1,11.29,2.94,27.13-8.36,27-23.63,5.37,10.84,10.35,20.77,15.22,30.76,4.78,9.8,9.45,19.67,14.89,31C1413.34,1152.7,1393.67,1166.31,1390.56,1164.92Zm-34.44-74.65c5-4.69,10.43-8.89,15.87-13.47,5.9,2.61,2.48,7.74,2,11-1,6.34-13.82,13.36-22,13C1348.13,1095.08,1353.3,1092.93,1356.12,1090.27Zm74.33,43.41c0,6.73-5.5,15.18-12,19.67a1.46,1.46,0,0,1-2.16-1.75c3.34-8.73.38-13.61-2.08-19-6.89-15-13.41-30.28-21.31-44.77-11.45-21-23.42-41.79-36.22-62-13.36-21.11-28.24-41.25-42-62.14-17.12-26.09-33.66-52.55-50.57-78.78-7.87-12.21-16-24.24-24-36.39a10.34,10.34,0,0,1-1.46-3.12c-.3-1.21,1-1.19,1.36-.73,2.94,3.83,5.53,8,8.88,11.42,7,7.07,14.13,14,21.58,20.49,7.18,6.3,14.41,12.7,22.39,17.86,9.31,6,14,15.69,20.71,23.65,9.29,11,17.64,22.73,26.3,34l-5.08,2.52c1,1.67,1.93,3.41,3.05,5,8.56,12.15,17.27,24.19,25.7,36.42,5.91,8.57,11.46,17.38,17.16,26.09a18.08,18.08,0,0,1,2.2,3.69c2,5.79,2,5.81,7.27,2.46,4.18,6.83,8.44,13.61,12.51,20.51,7.09,12,13.66,24.38,21.22,36.1,4.42,6.84,6.12,14.1,6.43,21.82C1430.73,1115.71,1430.45,1124.7,1430.45,1133.68Z"/></g><g id="Thrusters"><path d="M144.1,575.19c-8.14,0-14.74,3.87-14.74,8.64s6.6,8.64,14.74,8.64,14.74-3.87,14.74-8.64S152.24,575.19,144.1,575.19ZM790.2,784.47c-6.14,6.14-8.19,14-4.6,17.62s11.48,1.53,17.62-4.6,8.18-14,4.59-17.61S796.33,778.34,790.2,784.47Zm269.69-184.75c-6.88-.48-12.68,2.41-13,6.44s5.08,7.69,12,8.16,12.68-2.41,13-6.44S1066.77,600.19,1059.89,599.72ZM802.11,191.67c-6.37,0-11.55,3-11.55,6.77s5.18,6.78,11.55,6.78,11.55-3,11.55-6.78S808.49,191.67,802.11,191.67Z" fill="#007aff"/></g></g></svg>