<svg xmlns="http://www.w3.org/2000/svg" viewBox="0 0 1500 1500"><title>Fer De Lance</title><g id="Fer_De_Lance" data-name="Fer De Lance"><g id="Colour"><path d="M1402.3,1183.49c-5.2-13.68-9.2-28.08-16.33-40.7-12-21.2-26-41.23-39.23-61.76-10-15.52-20-31-29.84-46.59-4.64-7.4-8.4-15.37-13.16-22.7-12.39-19.11-25.2-38-37.69-57-19-29-37.64-58.12-56.77-87-13.88-20.93-28.31-41.5-42.48-62.24q-23-33.59-45.87-67.18c-21.49-31.6-42.85-63.3-64.42-94.84q-14.28-20.91-29.21-41.38c-13.45-18.44-27.2-36.65-40.81-55-6.43-8.66-12.31-17.8-19.34-25.95-15-17.35-26.32-36.4-33.65-58.33-9.64-28.84-19-57.9-33.78-84.73-2.69-4.87-4.88-9.32-10.45-12.5-10.71-6.12-20.4-14-30.46-21.23-4.26-3.06-9.83-1-10.82,4.09a37.29,37.29,0,0,1-1,4.13c-3.29,10.38-6.19,20.92-10.08,31.09a134.2,134.2,0,0,1-11.59,24c-4.12,6.5-9.73,12.19-15.29,17.61-5,4.87-10.83,8.89-16.39,13.36-3.17-4-7.11-10.81-12.71-15.7q-26.32-23-53.74-44.69c-12.52-9.92-25.85-18.81-38.72-28.29-3.8-2.8-8.52-5.35-10.69-9.22-11.8-21-22.89-42.49-34.35-63.73-2.8-5.19-5.3-10.91-9.35-15s-9.88-6.41-15-9.36c-3.5-2-6.45-1.87-8.28,2.48-4.46,10.57-8.65,21.28-13.75,31.54-3.17,6.39-2.74,12.14-.64,18.51,1.48,4.5,2,9.32,3,14.08-2,.42-3.77.87-5.53,1.11-7.4,1-14.81,2.77-22.22,2.75-4.9,0-8.75,1.64-10.46,5.14-1.54,3.15-.53,7.54-.63,11.39,0,1.73.65,3.92-.16,5.08-2.09,3-3.66,5.66-1.85,9.45.33.71-1.06,2.9-2.15,3.51-4.13,2.3-9.36,3.33-12.53,6.49-5.57,5.53-9.87,12.32-14.82,18.5-2.09,2.62-4,5.7-6.78,7.38-13.61,8.36-27.33,16.54-41.29,24.28a45.18,45.18,0,0,1-14.16,4.45c-3,.52-6.92-1.94-9.53-.87-7.73,3.16-16.37,6.52-18,16-.91,5.17-4.33,7.68-7.53,9.65-12.93,8-26.31,15.16-39.53,22.64-4.17,2.36-6.93,5.2-6.28,10.75.6,5.23-9.75,15.51-15.21,15.45-8.57-.09-15.33,3.41-21,9.48-2.73,2.91-5.53,5.74-8.24,8.54-3.7-2.56-6.77-4.75-9.9-6.83-9.53-6.32-19.23-12.39-28.56-19-6.71-4.74-11.43-4.18-16.09,2.92-1.81,2.74-3.6,5.49-4.92,7.51-12.88-10.07-25.17-19.82-37.69-29.29-1.42-1.08-5.34-1.43-5.85-.65a9.83,9.83,0,0,0-1.08,6.73,60.36,60.36,0,0,0,3.64,11.73c3.42,8.16,4.52,17.57,12.57,23.31,3.31,2.36,6.26,5.22,9.69,8.12-5.94,5.82-10.71,12.11-16.92,16.22-8.28,5.47-10.16,11.47-4.38,17.61.18.19.83,3.68-.13,4.29-9.55,6-15.24,14.94-18.4,25.25-2,.32-4,0-4.75.86a128.18,128.18,0,0,0-10.7,12.84c-2.11,3-2.56,7.39-5.06,9.81-5.93,5.74-5.19,12.71-4.69,19.57.69,9.7,2.32,19.34,3,29,.78,11.66,5,21.2,14.76,28,1.55,1.08,3.61,2.87,3.67,4.4.2,4.66.2,9.54-1,14-1.24,4.64.18,7.83,3.41,10.36,4.62,3.62,9.76,6.57,14.39,10.18,10.95,8.53,21.72,17.28,32.58,25.92,7.87,6.26,15.76,12.48,24.52,19.42-14.92,5.53-28.7,10.51-42.39,15.75-13.26,5.09-26.44,10.37-39.6,15.72-3.07,1.25-5.32,1.29-8.24-.89-9.79-7.29-19.81-14.28-29.95-21.08A20.92,20.92,0,0,0,164,769c-2-.17-5,1.58-6.09,3.37-.84,1.4.16,4.38,1.1,6.28,1.19,2.37,3.15,4.36,4.8,6.49,10.13,13.13,19.37,26.95,33.53,36.52,14,9.45,27,20.41,41.26,29.38,17.83,11.19,36.16,21.7,54.92,31.25,19.36,9.86,39.45,18.31,59.3,27.2,24.26,10.87,48.52,21.64,73.71,30.34,28.05,9.68,55.67,20.58,83.62,30.58,21.7,7.76,43.57,15.06,65.43,22.37q37.11,12.42,74.35,24.49,32.37,10.55,64.81,20.88c19.4,6.14,38.89,12,58.28,18.15,13.94,4.43,27.79,9.15,41.68,13.76,18.67,6.19,37.29,12.56,56,18.56,21.44,6.88,43,13.29,64.47,20.19,23.83,7.67,47.52,15.74,71.31,23.5,18.85,6.15,37.65,12.46,56.67,18,27.46,8.06,55.11,15.44,82.64,23.26,16.5,4.69,32.93,9.63,49.37,14.56q41.36,12.39,82.69,24.91c17.85,5.42,35.85,10,54.43,12.29,9.77,1.22,19.37,3.74,29.12,5.15,10.36,1.5,20.73,2.2,30.88-1.93,8-3.28,15.21-13.64,15.74-22.26C1408.53,1198,1405.1,1190.83,1402.3,1183.49Z" fill="#c40001"/><path d="M1402.3,1183.49c-5.2-13.68-9.2-28.08-16.33-40.7-12-21.2-26-41.23-39.23-61.76-10-15.52-20-31-29.84-46.59-4.64-7.4-8.4-15.37-13.16-22.7-12.39-19.11-25.2-38-37.69-57-19-29-37.64-58.12-56.77-87-13.88-20.93-28.31-41.5-42.48-62.24q-23-33.59-45.87-67.18c-21.49-31.6-42.85-63.3-64.42-94.84q-14.28-20.91-29.21-41.38c-13.45-18.44-27.2-36.65-40.81-55-6.43-8.66-12.31-17.8-19.34-25.95-15-17.35-26.32-36.4-33.65-58.33-9.64-28.84-19-57.9-33.78-84.73-2.69-4.87-4.88-9.32-10.45-12.5-10.71-6.12-20.4-14-30.46-21.23-4.26-3.06-9.83-1-10.82,4.09a37.29,37.29,0,0,1-1,4.13c-3.29,10.38-6.19,20.92-10.08,31.09a134.2,134.2,0,0,1-11.59,24c-4.12,6.5-9.73,12.19-15.29,17.61-5,4.87-10.83,8.89-16.39,13.36-3.17-4-7.11-10.81-12.71-15.7q-26.32-23-53.74-44.69c-12.52-9.92-25.85-18.81-38.72-28.29-3.8-2.8-8.52-5.35-10.69-9.22-11.8-21-22.89-42.49-34.35-63.73-2.8-5.19-5.3-10.91-9.35-15s-9.88-6.41-15-9.36c-3.5-2-6.45-1.87-8.28,2.48-4.46,10.57-8.65,21.28-13.75,31.54-3.17,6.39-2.74,12.14-.64,18.51,1.48,4.5,2,9.32,3,14.08-2,.42-3.77.87-5.53,1.11-7.4,1-14.81,2.77-22.22,2.75-4.9,0-8.75,1.64-10.46,5.14-1.54,3.15-.53,7.54-.63,11.39,0,1.73.65,3.92-.16,5.08-2.09,3-3.66,5.66-1.85,9.45.33.71-1.06,2.9-2.15,3.51-4.13,2.3-9.36,3.33-12.53,6.49-5.57,5.53-9.87,12.32-14.82,18.5-2.09,2.62-4,5.7-6.78,7.38-13.61,8.36-27.33,16.54-41.29,24.28a45.18,45.18,0,0,1-14.16,4.45c-3,.52-6.92-1.94-9.53-.87-7.73,3.16-16.37,6.52-18,16-.91,5.17-4.33,7.68-7.53,9.65-12.93,8-26.31,15.16-39.53,22.64-4.17,2.36-6.93,5.2-6.28,10.75.6,5.23-9.75,15.51-15.21,15.45-8.57-.09-15.33,3.41-21,9.48-2.73,2.91-5.53,5.74-8.24,8.54-3.7-2.56-6.77-4.75-9.9-6.83-9.53-6.32-19.23-12.39-28.56-19-6.71-4.74-11.43-4.18-16.09,2.92-1.81,2.74-3.6,5.49-4.92,7.51-12.88-10.07-25.17-19.82-37.69-29.29-1.42-1.08-5.34-1.43-5.85-.65a9.83,9.83,0,0,0-1.08,6.73,60.36,60.36,0,0,0,3.64,11.73c3.42,8.16,4.52,17.57,12.57,23.31,3.31,2.36,6.26,5.22,9.69,8.12-5.94,5.82-10.71,12.11-16.92,16.22-8.28,5.47-10.16,11.47-4.38,17.61.18.19.83,3.68-.13,4.29-9.55,6-15.24,14.94-18.4,25.25-2,.32-4,0-4.75.86a128.18,128.18,0,0,0-10.7,12.84c-2.11,3-2.56,7.39-5.06,9.81-5.93,5.74-5.19,12.71-4.69,19.57.69,9.7,2.32,19.34,3,29,.78,11.66,5,21.2,14.76,28,1.55,1.08,3.61,2.87,3.67,4.4.2,4.66.2,9.54-1,14-1.24,4.64.18,7.83,3.41,10.36,4.62,3.62,9.76,6.57,14.39,10.18,10.95,8.53,21.72,17.28,32.58,25.92,7.87,6.26,15.76,12.48,24.52,19.42-14.92,5.53-28.7,10.51-42.39,15.75-13.26,5.09-26.44,10.37-39.6,15.72-3.07,1.25-5.32,1.29-8.24-.89-9.79-7.29-19.81-14.28-29.95-21.08A20.92,20.92,0,0,0,164,769c-2-.17-5,1.58-6.09,3.37-.84,1.4.16,4.38,1.1,6.28,1.19,2.37,3.15,4.36,4.8,6.49,10.13,13.13,19.37,26.95,33.53,36.52,14,9.45,27,20.41,41.26,29.38,17.83,11.19,36.16,21.7,54.92,31.25,19.36,9.86,39.45,18.31,59.3,27.2,24.26,10.87,48.52,21.64,73.71,30.34,28.05,9.68,55.67,20.58,83.62,30.58,21.7,7.76,43.57,15.06,65.43,22.37q37.11,12.42,74.35,24.49,32.37,10.55,64.81,20.88c19.4,6.14,38.89,12,58.28,18.15,13.94,4.43,27.79,9.15,41.68,13.76,18.67,6.19,37.29,12.56,56,18.56,21.44,6.88,43,13.29,64.47,20.19,23.83,7.67,47.52,15.74,71.31,23.5,18.85,6.15,37.65,12.46,56.67,18,27.46,8.06,55.11,15.44,82.64,23.26,16.5,4.69,32.93,9.63,49.37,14.56q41.36,12.39,82.69,24.91c17.85,5.42,35.85,10,54.43,12.29,9.77,1.22,19.37,3.74,29.12,5.15,10.36,1.5,20.73,2.2,30.88-1.93,8-3.28,15.21-13.64,15.74-22.26C1408.53,1198,1405.1,1190.83,1402.3,1183.49Z" fill="none" stroke="#000" stroke-linejoin="round" stroke-width="8"/></g><g id="Canopy"><path d="M967.51,750.84l-31.93-26.3-9.35,8L874,700.25,798.9,630l-10.69-4.68L758.8,644v2.9L819,682.46l37.1,24.7,42.27,39-12.88,14.59L827,739.91l-2.51,20L898.72,805l68.79,19.15s29.23-17.71,30.23-17.71S967.51,750.84,967.51,750.84Z" fill="#82b3d1"/></g><g id="Paint"><path d="M1051.73,934.6c-11,0-239.18-119.35-249.76-124.59S629,693.15,620.22,686.52c-8.41-6.34-17.85,3.74-13,30.22,2,10.82,103.62,109.8,136.24,132C771.79,871.33,798.9,899.47,930.2,988c10.73,7.23,67.07,46.34,98.49,65.2,40,19.18,47.48,32.24,47.48,32.24s82.27,33.34,94.72,38.57,125.88,46.48,137.13,50.88-115.37-117.23-126.58-136.71S1062.79,934.61,1051.73,934.6ZM1296,1029c-3.67-6.71-107.45-137.28-111.07-141.75s-139.7-142.6-152.76-159.7-91.3-77.79-94.6-80-1-19.8-6.56-20.54-51.4-42.5-56.14-41.09-43.8-9.31-30.64,3.5C858,602.75,900.17,643,903.47,646.85S924.55,669.1,930.78,675s27.38,21.77,34.13,26.79,21.47,27.3,21.47,27.3,86.49,96.79,105.19,118.1,85.8,94.46,85.8,94.46,147,139.78,149.42,139.88S1299.68,1035.71,1296,1029ZM682.1,591l24.34,22.24L724.57,627l-6.64,10.35,5.68,35.75-5.68,14.71,4.92,17.71,5.54,7.43,123,80.53,2.34-11.1L825,763l2-23.12,58.49,20.87,16-12.85-45.44-40.77,5.3-8.69,10.73-1.67s51.13,34.09,54.14,34.09,11-8.26,11-8.26l-7.06-18.81L872.76,654l-51.51-33.68-45.07-10.14L708.34,570l3-2.4-3-2.31-3-2.33-26.07-14.78-55.28-28-28,14.6L599.07,547l75.81,49.75Zm107.78,34.33L817,646.9l21.67,23.72L837,677.46l-12.36,5.86-8.69-4-59-34.2ZM513,652.81c-6-4.52-89.5-72.81-90.67-74.75S353.17,522.33,352,521.67s-45.33-23.34-54.83-28.17-13.84,4.67-13.44,7.17,50.27,45.16,58.1,49.66,6.34,6,6.17,8.5-7.83,8.67-10.17,8S269,516.67,266.76,517.06c0,0-26.76,18.11-23.93,27.61s22.5,35.16,28.83,40.16,40.17,29.34,67.84,51,82.5,54,98,63.17,42.49,20.33,53,23.83,8.5-3,8-4.24-32-36.76-36-41.17S438.17,655.83,435.36,651s1.14-12,6.69-16.62,12.45-9.21,15.8-7.71,66.15,52.16,70,54.66,4.67,2.67,5.24,1.17-1.07-10-2.4-13S519,657.33,513,652.81ZM620,381.67C629.33,386.83,734,458,740.33,465s9.67,20.17,12.17,21.79S776.67,505.5,786,511s11.67.33,10.57-2.14-13.9-41-15.4-43.86-14-22.17-15.62-25.17-2.88-9.66,0-9.66,13.12-2.5,11.28-4.54-30.5-27.8-35-31.87-47.5-35.93-51.66-39.26-5.84,1.17-7.34,5.17-4,2.16-7.16,1.5S621.5,323.31,618.83,323c-2.84-.33-48,4-46.66,6s7.83,4.67,11.5,10.17.8,6.73-4.84,5.66c-3.68-.69-9.5-3.83-12.11-3.66s-11.72,10.33-1.5,21,34.78,23,38.45,25.85S610.67,376.5,620,381.67Z" fill="#fff"/></g><g id="Detail"><path d="M670,415.67c-.66-1.56-29.41-20.43-33.59-21.78-5-1.61-14.09,12.53-10.59,15.69s36.33,24.49,38.42,25.34C666.5,435.83,670.67,417.22,670,415.67Z" fill="#ff7100"/></g><g id="Grey"><path d="M565.22,454.11c-17.45-7.56-53.27.53-60.78,4.45-30.22,15.77-26,44.66-4.66,55.56s50.66,14,79.78-7.34S582.67,461.67,565.22,454.11Zm.89,100.33c-3.44.89-17.55,6.67-14,12.12s12.45,5.77,19.45,4.22,13-8.56,11.66-11.78S569.17,553.65,566.11,554.44Zm86.07-38.55c7.4.22,15.49-2,13.75-5s-7.26-5-13-6-16.86,2.63-15.67,4A21.09,21.09,0,0,0,652.18,515.89Zm152-54.67c-1.89-2.78-29.47-29.43-32.78-30.11-4.33-.89-6.44,2.56-5.77,5.45s25.77,46,27.82,46.22S806.11,464,804.22,461.22ZM660.22,533c-2.78.44-1.44,2.89,0,3.22s53.89,29,55.34,29.64,5.44,1.58,5.11,0-9.34-22.53-11.11-22.86S661.54,532.79,660.22,533Zm60,99.3c2.45-3,4.67-3.52,2.63-5.33s-116-72.41-117.74-73.41c-.86-.49-3.33-.56-2.85,2.21s22.3,54.9,23.63,56.23,18.33,10,23.67,12.44,61,46.56,63.22,47.78,10.22-3,10.83-4.44S717.78,635.33,720.22,632.3ZM527.67,681.83c-1.67-1-63-47.83-65.34-50.16s-5.08-4.67-9.16-3.84c-4.67.95-13.34,7.84-15.66,11s-2.84,11-1.15,14,16.64,16,27.14,25.52,26,30.84,29.67,34.59,8,5.41,9.83,3.75,19.67-22.67,23.23-26.34S529.33,682.83,527.67,681.83Zm-53.18,62.34c-2.18-1.34-29.82-19.34-33.29-22.76s-7.53-2.79-11-2.74c-3.34,0-9.67,4.16-11.84,8.28s-6.33,16.72,7.17,18.88,10.5,5.5,12,7,14.32,11.5,22,14,10.33-1.5,15-5.83S476.67,745.5,474.49,744.17Z" fill="#aaa"/></g><g id="Shadows" opacity="0.2"><path d="M608.76,384.36S655.54,358,658.94,358h21.43l-53.22-99.17-12.38-7.23L595.4,291l5.76,27.88-23.81,6.32-14.55,1-5.5,35.15L599.07,388ZM790.55,514.12h6v-46.9l-30.16-33.34s-7.94-5.09-13.62-5.09-61.15,3.73-61.15,3.73l67.5,62.72ZM624,613.2s50.27,79.19,86.86,106.54,207,115.58,169.93,66.45c0,0-37.95-56.9-46-67s-3.08-6.09-24.64-18.9S619.17,599,619.17,599ZM755.16,796.59l-28.27-7.18-9,15.56s11.65,21.22,18.89,24.36C722.18,790.27,753,800.23,755.16,796.59Zm-369.3-75.18c64.5,10.25,111.05,3.13,111.05,3.13l4-5.39,4.63-12.28-24.77-28.31c-3.38-3.86-44.36-38.24-44.36-38.24L434,643.47s6.69,18.32-2.33,8.43S315,579.84,317,576.5a14.34,14.34,0,0,1,10.7-6.35,94.92,94.92,0,0,1,10.36,0l-1.68-5.64-59.17-62.62-32.6-28.32-3.47,2.67,4,24.43,15.07,6.25L259.54,523l-20.86,17.4,2.15,16-9.29,100.41S321.37,711.17,385.86,721.41Zm918.55,423.19c-261-55.14-1076.61-462.84-1082.63-469.19l.19,32,71.49,55.52L399.56,871l643.85,273.23,263.07,76.46S1494.15,1239.12,1304.41,1144.6Z" fill="#0c0c0c"/></g><g id="Outline"><path d="M1235.88,950.2c2.35-.17,5.93,1,5.69-3-.1-1.68-5.21-10.24-12.13-10.64a17.45,17.45,0,0,0-2.27.09c-3.82,1.35-3.84,3.61-1.24,7.31S1231.08,950.53,1235.88,950.2ZM666.24,707.12c8,5.35,7.89,6.22,12.82,5.65,3.34-.8,10-1.8,12.43-2.76,8.66-3.4,12.22-16.17,6.16-21.76C690.2,681.37,682.87,674.33,675,668c-4.31-3.47-7.9-8.42-14.53-8.51-5.89-.07-10.67,2.87-15.76,4.84-4.33,1.67-6.42,5.61-6.78,10.28-.22,2.85-.4,11.93.72,12.77C643.34,690.94,656.38,700.39,666.24,707.12ZM760.89,653c16.49,9.7,33.33,18.78,49.84,28.46,11.2,6.57,16.28,6.52,26.79-1.77.28-.22.51-.52.8-.74,5.56-4,6.07-9,1.23-13.78-13.23-12.94-26.43-25.94-39.89-38.65-6.52-6-12.53-6.22-17.91-3.15-6.74,4-13.59,7.88-19.85,12.55-3.09,2.31-6.16,6-6.93,9.55C754.52,647.48,758.2,651.39,760.89,653Zm.89-8.11q8.63-5.76,17.22-11.51c1.49-1,2.92-2.1,4.46-3,3.83-2.26,7.51-2.69,11.06.73,13.39,12.92,26.86,25.75,40.2,38.73a4,4,0,0,1,.81,3.65c-2.27,4.44-11.8,7.47-16.22,5-18.85-10.55-37.6-21.28-56.37-32C762.67,646.33,760.9,645.67,761.78,644.86ZM574.47,644c.79.3,1.59.59,2.39.87a24.55,24.55,0,0,0,17.36-.47l.08,0c6-2.53,7.85-6.25,7.27-14.51-.35-5.19-4.3-7-8.45-8.59-7.27-2.86-13.46-.28-19,4.06C569.24,629.15,569.14,642,574.47,644ZM469.78,736.5c-8.73-5.71-19.23-8.94-25.9-17.93-2-2.72-7.08-3.14-9.15-5.84-2.64-3.44-5.67-2.66-8.27-2-12.3,3-20.56,19.7-15.64,31.5a8.63,8.63,0,0,0,4.84,4.35c4,1.24,8.38,2.51,12.47,2.17,7.19-.59,6,5.17,7.77,8.73a1.92,1.92,0,0,0,.75.77c7,4,13.66,8.9,21.11,11.72,11.52,4.36,22.84-4.48,22.84-17.27C481.64,744.54,476.31,740.78,469.78,736.5Zm-41.08,5.78c-3.52.27-8.46-4.55-8.56-8.16-.17-6,6.7-12.69,13.06-12.71,5,0,8.95,3.41,8.85,8.06C441.92,735.58,437.29,741.64,428.7,742.28Zm44.54,15.49c-2.61,5.68-9.83,8.32-15,5.59a116.93,116.93,0,0,1-14.14-8.78c-2.15-1.56-4.56-3.85-1.38-7.14.9-.94,4.79-3.9,10.24-12.87,5.19,3.14,10.2,6.64,15.62,9.34C475,747.08,475.56,752.7,473.24,757.77Zm929.06,425.72c-5.2-13.68-9.2-28.08-16.33-40.7-12-21.2-26-41.23-39.23-61.76-10-15.52-20-31-29.84-46.59-4.64-7.4-8.4-15.37-13.16-22.7-12.39-19.11-25.2-38-37.69-57-19-29-37.64-58.12-56.77-87-13.88-20.93-28.31-41.5-42.48-62.24q-23-33.59-45.87-67.18c-21.49-31.6-42.85-63.3-64.42-94.84q-14.28-20.91-29.21-41.38c-13.45-18.44-27.2-36.65-40.81-55-6.43-8.66-12.31-17.8-19.34-25.95-15-17.35-26.32-36.4-33.65-58.33-9.64-28.84-19-57.9-33.78-84.73-2.69-4.87-4.88-9.32-10.45-12.5-10.71-6.12-20.4-14-30.46-21.23-4.26-3.06-9.83-1-10.82,4.09a37.29,37.29,0,0,1-1,4.13c-3.29,10.38-6.19,20.92-10.08,31.09a134.2,134.2,0,0,1-11.59,24c-4.13,6.5-9.73,12.19-15.29,17.61-5,4.87-10.83,8.89-16.39,13.36-3.17-4-7.11-10.81-12.71-15.7q-26.32-23-53.74-44.69c-12.52-9.92-25.85-18.81-38.72-28.29-3.8-2.8-8.52-5.35-10.69-9.22-11.8-21-22.89-42.49-34.35-63.73-2.8-5.19-5.3-10.91-9.35-15s-9.88-6.41-15-9.36c-3.5-2-6.45-1.87-8.28,2.48-4.46,10.57-8.65,21.28-13.75,31.54-3.17,6.39-2.74,12.14-.64,18.51,1.48,4.5,2,9.32,3,14.08-2,.42-3.77.87-5.53,1.11-7.4,1-14.81,2.77-22.22,2.75-4.9,0-8.75,1.64-10.46,5.14-1.54,3.15-.53,7.54-.63,11.39,0,1.73.65,3.92-.16,5.08-2.09,3-3.66,5.66-1.85,9.45.33.71-1.06,2.9-2.15,3.51-4.13,2.3-9.36,3.33-12.53,6.49-5.57,5.53-9.87,12.32-14.82,18.5-2.09,2.62-4,5.7-6.78,7.38-13.61,8.36-27.33,16.54-41.3,24.28-4.25,2.36-9.3,3.62-14.15,4.45-3,.52-6.92-1.94-9.53-.87-7.73,3.16-16.37,6.52-18,16-.91,5.17-4.33,7.68-7.53,9.65-12.93,8-26.31,15.16-39.53,22.64-4.17,2.36-6.93,5.2-6.28,10.75.6,5.23-9.75,15.51-15.21,15.45-8.57-.09-15.33,3.41-21,9.48-2.74,2.91-5.54,5.74-8.25,8.54-3.7-2.56-6.77-4.75-9.9-6.83-9.53-6.32-19.23-12.39-28.56-19-6.71-4.74-11.43-4.18-16.09,2.92-1.81,2.74-3.6,5.49-4.92,7.51-12.88-10.07-25.17-19.82-37.69-29.29-1.42-1.08-5.34-1.43-5.85-.65a9.83,9.83,0,0,0-1.08,6.73,60.36,60.36,0,0,0,3.64,11.73c3.42,8.16,4.52,17.57,12.57,23.31,3.31,2.36,6.26,5.22,9.69,8.12-5.94,5.82-10.71,12.11-16.92,16.22-8.21,5.42-10.13,11.36-4.53,17.45.83.91,1,3.86,0,4.47-9.52,6-15.2,14.94-18.35,25.23-2,.32-4,0-4.75.86a128.18,128.18,0,0,0-10.7,12.84c-2.11,3-2.56,7.39-5.06,9.81-5.93,5.74-5.19,12.71-4.69,19.57.69,9.7,2.32,19.34,3,29,.78,11.66,5,21.2,14.76,28,1.55,1.08,3.61,2.87,3.67,4.4.2,4.66.2,9.54-1,14-1.24,4.64.18,7.83,3.41,10.36,4.62,3.62,9.76,6.57,14.39,10.18,10.95,8.53,21.72,17.28,32.58,25.92,7.87,6.26,15.76,12.48,24.52,19.42-14.92,5.53-28.7,10.51-42.39,15.75-13.26,5.09-26.44,10.37-39.6,15.72-3.07,1.25-5.32,1.29-8.24-.89-9.79-7.29-19.81-14.28-29.95-21.08A20.92,20.92,0,0,0,164,769c-2-.17-5,1.58-6.09,3.37-.84,1.4.16,4.38,1.1,6.28,1.19,2.37,3.15,4.36,4.8,6.49,10.13,13.13,19.37,26.95,33.53,36.52,14,9.45,27,20.41,41.26,29.38,17.83,11.19,36.16,21.7,54.92,31.25,19.36,9.86,39.45,18.31,59.3,27.2,24.26,10.87,48.52,21.64,73.71,30.34,28.05,9.68,55.67,20.58,83.62,30.58,21.7,7.76,43.57,15.06,65.43,22.37q37.11,12.42,74.35,24.49,32.37,10.55,64.81,20.88c19.4,6.14,38.89,12,58.28,18.15,13.94,4.43,27.79,9.15,41.68,13.76,18.67,6.19,37.29,12.56,56,18.56,21.44,6.88,43,13.29,64.47,20.19,23.83,7.67,47.52,15.74,71.32,23.5,18.84,6.15,37.64,12.46,56.66,18,27.46,8.06,55.11,15.44,82.64,23.26,16.5,4.69,32.93,9.63,49.37,14.56q41.36,12.39,82.69,24.91c17.85,5.42,35.85,10,54.43,12.29,9.77,1.22,19.37,3.74,29.12,5.15,10.36,1.5,20.73,2.2,30.88-1.93,8-3.28,15.21-13.64,15.74-22.26C1408.53,1198,1405.1,1190.83,1402.3,1183.49ZM1197.47,888.28c2.55,3.22,31.29,30.81,35.48,38.31a31.24,31.24,0,0,1,5.24,5.58h0c11.06,15.63,28.13,41.11,38.87,57q11.31,16.71,22.33,33.64c.81,1.25,5.53,8.72,5.94,9.46,6.47,11.75,9.5,15.69,13.38,22.55.92,1.63,18.52,33,11.92,28-2.77-2.35-35.22-34.53-38.32-37.22-21.29-18.51-53.44-56.27-63.68-67.5a50.58,50.58,0,0,0,5.53-2.72c4-2.13,6.94-1,9.29,2.55-3.42,6.1-.37,17.07,9.68,13.86.52-.16,1.1.8.84,1.28-3,5.51.75,9.62,3.69,12.56,4.94,5,17,18.56,19.23,21,2.8,3.07,5.86,1.39,6.12-.89.41-3.62.17-8.32-1.85-11-9.55-12.87-19.69-25.31-29.85-37.72-6.87-8.4-14.17-16.47-21.22-24.73-10.21-12-20.35-24-30.55-36-6.07-7.12-12.21-14.2-18.11-21.07.88-2.84,2.37-6.27,5.28-8C1189,885.92,1191.85,880.82,1197.47,888.28ZM994,942.18c-7.29-6.09-15.14-11.52-22.73-17.26-8.76-6.62-17.42-13.36-26.16-20-11-8.38-22.1-16.69-33.13-25.07q-14-10.67-28-21.41a.53.53,0,0,1,.56-.9l22.35,11.14,49,24.4c20.75,10.35,41.47,20.78,62.27,31,9.11,4.5,18.65,8.2,27.52,13.12,4.8,2.65,9,6.78,12.77,10.82,3.61,3.83,6.41,8.42,9.31,12.34l-34.13,49.08L848.56,915.36a.48.48,0,0,1,.29-.91c8.41,1.3,16.89,2.27,25.22,4,14.72,3,29.51,6,44,10,14,3.92,27.76,9.07,41.54,13.91,9.41,3.31,18.75,6.81,28,10.64,4.32,1.8,4.83-1.93,5.82-3.78S995.11,943.07,994,942.18Zm4.07-36.37c-5.07-2.22-9.74-5.32-14.16-7.79.9-5.39,2.07-10.6,2.48-15.87a7,7,0,0,0-2.59-5.45c-9.4-6.18-19-12.07-28.69-17.81a.73.73,0,0,0-.23-.09c-14.28-9.61-41.53-27.86-47.71-31.84-7-4.5-13.94-9.08-21.47-14a.63.63,0,0,1,.3-1.16,5.92,5.92,0,0,1,2.2.12c20.65,7,41.28,14.05,61.93,21.06,3.54,1.21,7.46,1.67,10.65,3.45,2.88,1.62,4.81,4.84,7.5,6.91,14,10.75,28.06,21.37,42.12,32,5.45,4.12,11,8,16.38,12.3,6.16,4.93,11.65,9.57,14.55,12,5.06,4.2,7.78,6.79,12.72,11.16,2.94,2.68-1.08,1.3-2.36,1-1.52-.32-3.79-.37-5,.89-1.34,2.41-.09,4,.83,5.29,2.37,3.4,10.51,3.64,15,.78a13.52,13.52,0,0,0,1.71-1.47l63.61,48.39a.52.52,0,0,1-.53.88C1092.07,950.06,1002.63,907.79,998.11,905.81ZM717.43,647.32c1.19,6.34,2.3,12.69,3.47,19.17-2.54-.07-5.32,1.84-7.13,4.13-39.64-33.45-66.62-51.08-86.42-60.47-5.21-12.39-23.78-52.64-23.08-54.38,2.2.77,103.31,66,117.53,72.93-.81.68-1.58,1.33-2.31,2C714.16,635.66,716.34,641.55,717.43,647.32ZM580.75,501.89l-14-11.94L585.19,495C583,498.39,581.87,500.17,580.75,501.89Zm.87,58.31c-5.14,9.79-17.75,12.4-27.35,5.42C559,555.85,570.89,553.63,581.62,560.2Zm-13.31-76.49c-12.35-4-26.67-3.84-35.19-15.1,12.62-12,26.5-17.54,42.18-6,8.69,6.41,14.9,14.47,12.82,25.81C581.34,486.86,574.66,485.8,568.31,483.71Zm-15.13,5.7c3.42,4.14,8.86,6.6,13.38,9.84,2.62,1.88,5.19,3.81,8.93,6.55l-6.92,4c-7.45-5.63-14.65-11.27-22.08-16.59-2.39-1.71-5.77-2.12-8-4s-3.15-4.69-5.47-8.41C540.75,483.53,547.89,483,553.18,489.41Zm9.62,24L551,517.06l-6.48-16.39ZM566,529.52c3.16,2.29,6.41,4.56,9.24,6.47-6.4.62-12.31.27-17.59,1.92-9.76,3.05-18.7,8-23,18.13-5.29,12.53.24,23.32,11.13,28.76,16.86,8.43,33.23,5.85,47.8-5.89,3.31-2.68,4.94-6.22,7.07-10.11.88-1.6.18-3-1.14-4s-3.74,0-4.31,1c-7.48,13.68-19.65,18-34.16,16.84-8.75-.71-19.08-5.12-21.58-15.06-1.29-5.11,1.43-12.3,7.61-16-4.24,6.81-3.13,12.31,1.55,17.27,7.53,8,24.94,8.47,33.26,1.16,7.33-6.43,10.39-14.28,1.75-25.2,5.84,3.15,14.49,8.35,16.56,14.1C604,569.38,613,594.34,622,607a.38.38,0,0,1-.46.56c-38.43-16.26-47.87.13-78.15-20-5.65-3.76-12.17-8.87-14-10.21-10.36-7.56-18.18-14.29-27-20.88a.67.67,0,0,1,.25-1.2c4.85-1.06,9.68-2.18,14.55-3.15,1.23-.25,2.68.27,3.81-.15.55-.21,1.15-.44,1.74-.7h0Zm107.31-28.41c8,3.39,10.57,14.9.29,20.79-4,2.28-8.34,2.88-12.8,3.5-3.74.51-8.85.76-17.08-1-7.45-1.57-11.64-4.53-16.47-8.13-6-4.5-3.41-13.47,4.93-18.5-5.54,10.09,3,18.3,12,20.93a30.72,30.72,0,0,0,22.5-2C673.35,513.51,675.45,508.37,673.34,501.11ZM662.6,431.94a.42.42,0,0,1-.63.5L651,425a1,1,0,0,1-.17-1.41,25.78,25.78,0,0,0,3.47-4.27c1.59-2.76,2.75-5.76,4.26-9l9.17,6.22C664.54,421.07,660.28,425.45,662.6,431.94Zm-16.23-10-19.22-12.75c1.14-3.06,2.28-5.53,3-8.12,1.26-4.69,4.4-7.58,9.67-3.79l12.38,8.93C650.1,411.82,648.31,416.68,646.37,421.93Zm-9.89.65q23.13,15.26,46.18,30.63c30.81,20.45,61.7,40.76,92.34,61.45,6,4.07,10.8,9.92,16.58,14.38q22.21,17.13,44.85,33.73c18.23,13.4,36.59,26.62,55,39.82,11.24,8.06,22.28,16.49,34.08,23.64,5.76,3.49,2.58,8.11,3.75,12,2.71,9,4.38,18.39,6.94,27.48.27,1,1.4,1.68,2.63,2.38a2.05,2.05,0,0,0,3-1.19c.37-1.2.41-5.27.69-8.18.21-2.23,3.19-3,4.82-1.47,4.55,4.32,7,7.88,12.71,11.51,28.13,18,50.26,42.61,74.32,65.17,6.41,6,10.09,13.29,15,20,14.91,20.24,28.37,35,43.17,55.37.28.39,4.21,6.6,2.37,8.23-4.42-4.19-7.8-7.59-11.38-10.77q-28.08-24.88-56.24-49.69c-8.83-7.79-17.64-15.61-26.63-23.22-3.51-3-7.92-5-11.17-8.17-7.06-7-13.64-14.41-20.39-21.69-1.47-1.59-4.39-4.9-4.43-4.93a3.06,3.06,0,0,0-4.66,3.14,2.45,2.45,0,0,0,.35.9,105.54,105.54,0,0,0,7.49,9.21.59.59,0,0,1-.68.93c-3.82-1.71-6.93-3.16-10.13-4.39-6.65-2.56-13.52-4.57-20-7.48A49.71,49.71,0,0,1,925.78,694c-8.89-7.45-17.33-15.42-26.29-22.77-13.37-11-26.71-22-40.67-32.21-10.63-7.76-22.05-14.43-33.62-21.77a.78.78,0,0,1,.42-1.44c1,0,2.09,0,3.15,0,4.63-.14,8.72-1.58,10.23-6.37s1.29-8.63-4.12-12.09c-8.92-5.69-16.62-13.25-25.39-19.21-4.88-3.32-10.94-7-16.37-6.83s-12.91.46-15.59,8c-.8,2.26-1.92,4.85-1.54,6.28a15.68,15.68,0,0,0,5.88,8.57c6.06,4.37,12.43,8.3,18.42,13a.56.56,0,0,1-.56,1c-5-2-10-3.94-14.68-6.4-12.28-6.39-24.33-13.21-36.48-19.84q-6.15-3.36-12.31-6.69c-26.64-22.64-31.21-61.43-38.87-71-3-3.81-5.3-6.95-13.25-12.56,3.21-1.29,26.56-11.37,26.56-11.37S683,459.35,668.81,449.84c-28.3-19-98.36-64.58-103.59-68,6.1-3.79,10.53,1.08,14.28,3.45C594.48,394.7,621.69,412.82,636.48,422.58ZM960.59,655.63c-3-5.43-7.71-10-12.06-14.54-6.9-7.26-14-14.37-21.28-21.25-3.1-2.91-6.91-5.07-10.4-7.56-1.94-1.42-.91-2.38.85-1.41,7.57,4.77,15.36,9.23,22.64,14.41,7.46,5.31,14.63,11.08,21.55,17.1,7.13,6.2,13.78,13,20.67,19.44,7.06,6.62,14.16,13.19,21.24,19.79a1,1,0,0,1-1.1,1.6c-9.84-4.74-30.46-14.59-30.44-14.69C973.55,659.68,963.55,661.07,960.59,655.63ZM918.4,604c-6.32-2.87-12.11-5.16-17.57-8.06-10.8-5.75-22.47-9.83-32.28-17.5-12-9.38-24.29-18.46-36.59-27.47,0,0-4.57-3.59-3-3.64,11-.33,20.85-1.69,23.09-1.93a6,6,0,0,1,4.11,1.21c10.25,9,20.44,18,30.51,27.13,10.28,9.35,20.41,18.89,30.58,28.37C917.6,602.37,921.11,605.27,918.4,604Zm-13.62,152c12.52,12.08,24.65,24.57,37,36.85,1.66,1.65-8.28-.15-12.44-1.08-5.91-1.33-12.13-2.12-17.54-4.63-4.32-2-8.23-5.72-11.22-9.54-3.74-4.77-6.34-10.42-9.56-15.9,2.41-2,4.48-4.46,7.12-5.71C900,755,903.58,754.78,904.78,755.93Zm-42.32-48.58a3.25,3.25,0,0,1-.11-4.77c3.1-3,5.61-3.05,9.63-.5,13.14,8.33,26.11,16.94,39.19,25.37,2.69,1.72,5.46,3.31,8.22,4.9s3.2,2.52.28,5a77.62,77.62,0,0,1-6.44,4.9c-5.85,4.08-7.85,3.68-13.32-1.29C887.49,729.66,875,718.52,862.46,707.35ZM904.21,794a10.32,10.32,0,0,1,1.86-.87c5,1.06,9.87,2,14.72,3.16,10.6,2.53,33,8.41,33.69,8.68,3.23,1.32,7.3,2.22,7.19,6.53-.07,2.91-9.32,6.29-12.38,5.22-15.31-5.37-30.66-10.62-46-16a29.91,29.91,0,0,1-4.6-2.58C900.55,796.71,902.35,795.29,904.21,794ZM961,796.78c-1.06.65-3.78,0-4.85-1-7-6.57-13.63-13.45-20.49-20.12-6.27-6.1-12.66-12.07-19.79-18.86,5.28-3.69,9.41-6.22,13.12-9.27,3.22-2.66,5.65-1.05,8,.84,12.62,10.28,25.16,20.66,37.72,31l3.65,3C973.82,789.31,967.27,793,961,796.78Zm-30-63.65c3.32-4.7,6.29-5.24,10.12-1.69,6.1,5.67,12.87,10.7,18.44,16.84,3.43,3.79,5.34,9,7.84,13.59a.78.78,0,0,1-1.18,1Zm47.68,59.52c2.67-2,5.31-1.8,7.18,1.24s3.53,6.13,5.35,9.33l-15.79,11.5-10.52-11.29C969.51,799.81,974,796.13,978.69,792.65ZM949.44,713a.38.38,0,0,1,.43-.61c8,3.74,16,7.41,23.87,11.48,2.07,1.07,3.32,3.7,5,5.58,11,12.51,22.17,24.91,33,37.55,11.66,13.55,23,27.34,34.59,41,1.7,2,3.58,3.88,5.37,5.82,2.39,2.53.85,2.86-1.14,1Zm-232-148.56a66,66,0,0,0-5.15-4.34c-5.82-3.84-11.55-7.94-17.78-11-8.46-4.14-13.43-6.15-22.13-9.78-1.93-.81-6.93-2.71-10.2-4a.26.26,0,0,1,.15-.49l45.58,9.43a128.38,128.38,0,0,0,9.94,19.78A.28.28,0,0,1,717.47,564.44Zm-25.8-58.6c4,3.76,8.79,18.6,14.77,34.73l-40.51-9.42.29-.06c12.59-2.84,21.56-10,19.78-21.42-.73-4.71-3.94-9-6.66-13.92-.52-1.27,1.71.18,2.11.5C688.91,502.23,689.08,503.43,691.67,505.84Zm-51.78,4c7.78-4.56,16.4-4,24.17,1.45C655.85,514.78,648.13,514.19,639.89,509.83Zm25.37-21.61c-8.92,0-18.23-.51-27.46.15-10.59.75-19.1,11.24-20,23.45-3.57-2.4-7-4.89-10.59-7.14,5.56-4.58,15.83-13.11,24.95-20.95,0,0,2.72-5.06,2.89-5.54,4-11.33,4.87-9.87,14.31-2.26,5.34,4.31,11.08,8.11,16.08,11.68A.34.34,0,0,1,665.26,488.22Zm-50.39,43.3c10.67-7.67,13.06-5.45,22.68,1.84,2.11,1.6,4.92,2.4,7.53,3.21,4.36,1.35,9,1.89,13.19,3.69,8.68,3.74,17.14,8,25.61,12.23,1.48.74,2.36,2.63,3.83,3.44,5.15,2.85,15.23,8.34,18.77,10.35-1.71,1.14-6,4.48-6.28,4.69-3.73,2.75-3.52,2.86-12.74-2.8-14.65-9-29.59-17.52-44.48-26.12-3.74-2.16-12.38.8-13.3,4.9-.37,1.67,1.65,4.72,3.4,5.86,6.62,4.28,13.6,8,20.41,12,9.43,5.52,18.84,11.08,28.14,16.55,1,.7.39,1.22.23,1.42-2.65,3.39-4.3,5.55-6.41,8.5-29.35-19.28-71.31-41.75-72.7-46.06-.93-2.87-.92-6.61,3.44-8.34C609.31,535.64,612.11,533.51,614.87,531.52ZM708,604.94c6-3.9,11.74-7.84,17.73-11.3,1.27-.74,3.84-.24,5.33.58,9.66,5.33,19.19,10.9,29.55,16.85L736.68,627Zm19.55,27.91a2.9,2.9,0,0,1,2.41-.07c3.55,1.48,5.69,3.59,6.49,8,1.26,7,4.15,13.65,6.08,20.54a8.65,8.65,0,0,1-.3,5.42,70.44,70.44,0,0,1-5.77,10.32c-2,3.13-4.21,5.33-6.81,5.39-1-5.22-1.88-9.33-2.56-13.48-1.52-9.38-2.78-18.8-4.46-28.15C721.77,636.26,725.12,634.05,727.5,632.85Zm.09,56c13.54-1.17,16.4-13,22.14-21.83.72-1.11.33-3.25-.12-4.74-2.07-7-4.47-14-6.45-21-.35-1.28.27-3.67,1.26-4.35,10.78-7.45,21.7-14.69,32.65-21.89a6.21,6.21,0,0,1,4-1.2c10.53,2,21.31,3.4,31.42,6.76,8.12,2.7,16.53,6.65,22.84,12.26C847.87,644,862.51,652.13,875.13,663c6.7,5.78,13.52,11.43,20.23,17.21,8.51,7.34,17.45,14.25,25.22,22.31,4.59,4.76,7.6,11.21,10.46,17.31.44.95-3.52,4.31-5.83,6-.84.63-3.09.24-4.19-.48-11.09-7.22-22-14.66-33.1-21.93-4.92-3.23-9.91-6.39-15-9.25s-15.21-.18-18.15,5c-2.47,4.32-1.63,8.42,2.11,11.73,5.16,4.55,10.5,8.89,15.59,13.51,7.93,7.18,15.72,14.53,23.28,21.55l-11.12,8.7c-14.78-1.07-30.09-7.24-45.26-14-11.08-4.92-22-10.2-33.39-14.37-12.26-4.51-21.9-12.76-32.16-20.24-2.8-2-6.58-6.26-9.33-3.38-2.24,2.35,2.58,5.84,5.23,8,4.29,3.58,8.66,7.06,13.49,11-3,1.49-5.53,2.82-8.12,4-5.21,2.41-5.69,6-.83,9.19,11.35,7.57,22.83,14.94,34.33,22.27,13,8.24,26.09,16.2,38.89,24.67,1.84,1.22,2.22,4.64,3.27,7l-1.33,1-16.55-10.62c-.31-.2-.52-.6-.84-.7l-.91-.3c-19.12-12.18-51.41-32.58-55.54-35.39-15.31-10.37-30.72-20.6-45.64-31.51-5.85-4.27-6.8-11.69-7-18.57C722.81,691.48,725.83,689,727.59,688.81ZM829,759.86c-.68-7.46-2.87-19.11,5-14.86,18,9.76,33.34,15.53,37.67,16.13,9.31,1.31,13.16,7.83,15.93,15.58.2.56.44,1.1.68,1.62a1.13,1.13,0,0,1-1.22,1.58C869.6,776.93,843.72,769.12,829,759.86Zm252.48,154.77c11.07,9.49,25.52,18.94,36.31,28.76,3.06,2.8.34,5.92-3.4,3.71l-71-54.12c8.9-6.71,17.76-13,26.11-19.86,3.4-2.81,5.21-2.86,8.23.33,5.62,5.93,11.73,11.38,18.11,17.49-5.5,4.34-8.69,6.61-14.23,10.75C1073.13,908,1074,908.2,1081.52,914.63Zm24.94-22.22c-2.1-2-3.77-3.59-2.46-7.36,1.24-3.59.51-7.46-3.79-10.26-3.7-2.41-4.31-.51-5.32,3.59a1.13,1.13,0,0,1-1.85.58c-4.94-4.4-10.13-9.13-14.2-13.12q-16.87-16.56-33.44-33.42c-10.69-10.85-20.57-22.61-32-32.58-9.92-8.63-25.17-36.19-27-39-1.44-2.69-1.21-3.24,1.17-1,2.41,2.56,4.75,5.17,7.23,7.66,13.06,13.11,26.22,26.13,39.22,39.3,6,6,11.64,12.28,17.4,18.47,5,5.41,11.48,5.61,18.21,5.36a6.92,6.92,0,0,1,4.89,1.91c4.41,5,27.61,34,29.76,36.84q17.6,23.54,35,47.22a159,159,0,0,1,10.16,15.29.49.49,0,0,1-.75.6c-5-4.63-10-9.25-14.94-13.94C1124.6,909.89,1115.55,901.13,1106.46,892.41Zm40.89,7c-.89.27-2.37-.61-3.28-1.33-16.07-12.59-28.68-28.35-40.9-44.5-8.05-10.63-16.37-21.08-25.05-31.19-13.94-16.23-28.29-32.1-42.45-48.14-.32-.36-2.63-4.31,0-2.11,11.29,10.19,22.66,20.3,33.86,30.59q17.26,15.88,34.25,32c4.38,4.15,8.66,8.42,12.78,12.83,2.63,2.82,5.87,3.84,8.65,1.59,3-2.4.11-4.63-1.58-6.83-6.18-8-12.17-16.25-18.24-24.4-1.3-2-.45-2.73,1.19-1l64.3,74.83C1162.91,894.43,1155.17,897.05,1147.35,899.42Zm4.35,4.79c6.72-1.2,13.42-2.74,20.19-3.36,6.21-.57,9.61,4.62,13.08,8.63,12.18,14.06,24.1,28.34,36.09,42.56,4.54,5.38,9,10.83,13.75,16.55a4,4,0,0,0-.77.26c-8.58,5.62-14.19.36-20.08-5.14-19.38-18.13-38.93-36.09-58.44-54.08a41.56,41.56,0,0,0-4.33-3.18A1.25,1.25,0,0,1,1151.7,904.21Zm17.75,57.86,15.72,15.69c3.21,3.2,51.34,51.29,73.79,73.55a50.94,50.94,0,0,1-7.18,7.88c-20.37-17.24-84.4-71.22-90.29-76-2.8-2.26-5.62-4.5-8.93-7.14Zm-18.69-117.73c9.28,8.58,17.82,17,27.42,25.28,1.2,1,5.49,4.86,6.25,6.25,1.29,2.38,1.8,3.12,0,4.53l-9,6.86-78.75-91.21c-3.56-4.79-.37-5.5,2.75-2.08,1.15,1.06,5.84,5.66,7,6.74C1122.64,816.19,1134.31,829.11,1150.76,844.34ZM1042.5,719.86c12.15,12.87,23.19,26.77,34.94,40,6.61,7.47,13.71,14.52,20.56,21.78,5.36,5.69,10.72,11.38,16,17.16a6.9,6.9,0,0,1,1.68,4.94c-1.87-1.56-3.79-3.07-5.6-4.7s-3.54-3.41-5.3-5.13c-20.53-20.16-41-40.41-61.63-60.46-15.09-14.66-30.44-29.06-45.71-43.54-1.34-1.27-3-2.15-4.48-3.31A1,1,0,0,1,994,685c7.71,4.25,16,7.69,23.07,12.85A184.93,184.93,0,0,1,1042.5,719.86ZM863.68,510.49c20.39,21.45,73.93,78.17,74.13,78.41,4.79,5.57,41.85,47.39,48.88,57.61,6.21,9,13.26,17.47,19.93,26.18a6.41,6.41,0,0,1,1.53,3.18c-5.84-5.29-11.79-10.46-17.49-15.9-11.76-11.22-23.25-22.74-35.1-33.86-11-10.31-22.35-20.22-33.45-30.4-7.18-6.58-14.13-13.41-21.3-20Q875.33,552.3,849.69,529c-3.06-2.77-6.75-4.86-9.72-7.71-5-4.79-10.93-7.2-10.48-17.38C829,492.59,819.69,472.36,863.68,510.49Zm-41,3.63c.09.48,6.35,9,7.9,10.24,5.53,4.38,10.79,9.1,16.11,13.75.59.51,3.43,2.81,1.87,2.88-6.49,0-24.13.44-29.59-.42-2.83-.45-5.3-3.43-7.82-5.41-5.67-4.47-11-9.32-17-13.44C789.07,518.16,813.54,515.05,822.68,514.12Zm-22.2-53c-10.4,4.23-6.51,13.22-7.46,19.1l-25.56-44.49a1.64,1.64,0,0,1,1.23-2.43c2.86-.39,5,.8,7.2,3.08C783.86,444.69,792.13,452.74,800.48,461.1Zm-60.74-62.69c4.62.81,8.84,5,12.82,8.23,7.17,5.78,14,11.94,21.45,18.32a55,55,0,0,1-6.41,1.61c-7.38.87-10.21,7.89-6,14.35,6.58,10,14,19.69,19,30.45,5.41,11.54,8.79,24,12.93,36.19a1.75,1.75,0,0,1-2.65,2c-10.5-7.18-21-14.33-31.47-21.61a10.79,10.79,0,0,1-3-3.74c-3.87-7.11-7.43-14.39-11.51-21.37a23,23,0,0,0-6.59-7.4c-12-8.11-24.36-15.77-36.37-23.91-1.23-.84-2-4.29-1.3-5.71,3.7-7.57,7.71-15,12.12-22.2a10,10,0,0,1,6.34-4.23C726,398.5,733.12,397.26,739.74,398.41ZM689.11,358.2l44.61,32.72-16.59,1.6c-5.65.54-8.17,5-10.58,9.09-4.49,7.68-8.53,15.63-13,24-8.81-5.8-17.21-11.27-25.55-16.85-9.7-6.48-19.32-13.06-29-19.56-5.5-3.71-11.31-7-16.49-11.13-4.47-3.54-8.24-3.39-12.28.17-1.37,1.21-2.65,2.51-4.08,3.64-2.67,2.11-4.5,2.43-8.15,0-3.09-2-5-3.4-7.78-5.22L618,333.55c2.53-3.88,14.3,2.22,20.69,6.37,11.57,7.52,23.09,15.13,34.7,22.61C678.66,365.94,686.93,363.93,689.11,358.2Zm-84.88-72c3.62-8.81,7.63-17.47,12-27.38,4.68,2.84,11.78,7.7,14.71,12.91,5.9,10.5,9.81,22.12,14.65,33.23,4.93,11.32,11,20.26,16.35,31.35,2.2,4.53,11.07,19.12,7,15.64-9.32-6.16-18.61-12.35-28-18.44-7-4.6-13.92-9.57-21.39-13.35-3.61-1.83-8.39-1.31-13.52-2-1.66-6.6-4-13.43-4.86-20.44C600.79,294,602.72,289.85,604.23,286.16Zm-35.87,43.93c2.11,1.67,5,3.86,7.13,5.5,1.86,1.48,2.63,2.21,4.49,3.7,2.11,1.83,2.78,4.06-.08,3.63a79.64,79.64,0,0,1-9.57-4.5C564.3,335.33,565.36,332.64,568.36,330.09Zm-.16,14.38c3.31,1.28,6.54,3.14,10,3.69a16.09,16.09,0,0,0,5.79-.54,3.22,3.22,0,0,0,2.52-3.52c-.29-2.53-.56-5.08-1.72-7.12-1.61-2.81-5-4.62-8.68-7.84,15.48-1.92,28.88-5.54,43-3.22-4.07,4-8.15,7-10.82,10.9-7.35,10.8-14.12,22-21.08,33.06-1.64,2.59-3.61,3.3-6.17,1.37-3.3-2.49-6.52-5.1-9.86-7.52C563.17,358,562.23,351.39,568.2,344.47Zm-27.55,52.17c6.54-4.94,10.43-8,16.14-12.28,6,3.59,56.18,36.86,77.26,50.86s42.38,28.11,64.36,42.69l-20.29,8.59c-6.83-5.29-119-75.93-132.84-84.8C539.5,398,539.24,397.7,540.65,396.64Zm-23.57,59.78,21.27-3.51c-.66,7-6.94,7.76-11,9.25-2.81,1-7.15-2.15-10.8-3.44C514.2,457.74,514.52,457,517.08,456.42Zm9.16,27.88a37.27,37.27,0,0,1,8.19,11.2c3.35,6.69,5.94,13.75,8.79,20.69a8.46,8.46,0,0,1,0,2.64c-21.75,1.09-42.05-.83-56.68-20.7,8.21-9.41,19.38-13.66,27.83-19.29C519.14,480.92,523.4,481.8,526.24,484.3Zm-28.59-17c1.31-.44,3.47.78,4.89,1.76,1.89,1.3,3.44,3.11,5.74,5.26l-22.63,13.78C484.46,479.48,493,468.86,497.65,467.32Zm-97.58,16.41c3.7,2.78,16.82,12.32,19,13.91q19.62,14.25,39.35,28.35c3.05,2.19,6.19,4.27,9.64,6.64,26.19,18.93,27.2,29,29.53,31.26A149.44,149.44,0,0,0,511,575c3.87,3,7.9,5.86,11.72,8.68l-23.18,20.07L372.17,508.16C374.36,506.45,394.31,488.71,400.07,483.73ZM367.27,513c11.42,8.56,23.43,17.58,35.47,26.57,18.83,14.08,37.75,28.06,56.5,42.24,10.34,7.82,20.35,16.08,30.66,23.95,3.09,2.36,6,4.18,9.23,6.43l4.88-4.14L504,608l4.91-4.08h0c4.6-3.83,9.07-7.55,13.56-11.25,2.16-1.78,4.45-3.44,6.59-5.25h0a72.63,72.63,0,0,1,7.59,5.81c35.07,30.58,51.91-23.72,175.29,82.7,2.15,8.85,4.77,17.64,6.09,26.62a21.26,21.26,0,0,0,9.46,15.13c19.81,13.62,39.86,26.89,59.83,40.28.45.31,47.41,30.28,49.15,31.36q25.92,16.59,51.84,33.14c12.7,8.09,57.71,38.32,70.56,46.16a1.6,1.6,0,0,0,.3.13q7.62,5.1,15.44,9.88c7.43,4.53,7.63,4.67,4,12.57-4-1-144.74-69.22-144.63-68.7-8.42-4.35-16.76-8.88-25.33-12.91-1.33-.63-3.15-.2-4.92.12a1.16,1.16,0,0,0-.79,1.73c.84,1.41,1.66,2.87,2.9,3.57,11.3,6.32,23,12,34.09,18.61,6.63,4,12.33,9.48,18.52,14.22,15.43,11.81,30.84,23.65,46.37,35.33,18.1,13.62,36.34,27,54.46,40.65,8.76,6.57,32.47,23.32,25.62,20.89-7.71-3-15.34-6.17-23.13-8.87q-18.21-6.3-36.61-12a208.12,208.12,0,0,0-20.51-5.36c-13.58-2.8-27.19-5.38-40.83-7.86s-27.25-4.57-40.85-7c-12.26-2.19-13-3.52-17.65-6.81-11.46-8.1-22.46-16.85-33.52-25.5s-21.68-17.33-32.52-26c-1.55-1.24-3.16-2.39-4.69-3.64-2.19-1.78-2-6.64.35-8.16,2.94-1.91,2.51-4,.54-6.35-4.31-5.15-7.24-12.49-9.22-19.07a10.52,10.52,0,0,1,11-13.51c6,.5,12.21,1,16.12,2a4.68,4.68,0,0,0,1.83,0,2.86,2.86,0,0,0,1.41-5,4.24,4.24,0,0,0-1.57-.9c-12.75-3.51-25.56-6.9-38.5-9.62-2.83-.59-7.52.8-9.08,2.94s-1.09,6.76.22,9.46c6,12.42,11.71,25.08,21.39,35.31.14.14-5.23,12.86-.64,16.48,2.87,2.26,2,7.19,1.5,10.73-1.33,10.24-2.45,21-6.51,30.28-5.12,11.7-5.09,23.46-5.2,36.4-1.7-1.45-2.92-2.35-4-3.42C700.81,905.52,687.46,891.72,674,878c-7.36-7.51-14.71-15.07-22.39-22.25-3.51-3.28-3.76-6.61-3.61-11.12.16-4.74-1.86-9.57-3-14.35-2.73-11.64-5.62-23.26-8.21-34.94-2.21-9.94-4.14-20-6.08-30-.72-3.7-1-7.49-1.71-11.19-.56-2.89-1.46-6.27-5.43-5.09-3.55,1.06-1.8,3.78-1.28,6.32,1.41,6.84,2.16,13.82,3.51,20.68,2.38,12.11,4.76,24.24,7.63,36.24,2.41,10.06,5.37,20,8.43,31a.82.82,0,0,1-1.33.85c-45.84-40.06-139.42-119.35-140-119.81,7.7-9.2,20.87-22.72,27.05-29.39,2.2-2.39,5.24,1.13,6.54,2.18,8.16,6.56,16.15,13.34,24.18,20.06a16.39,16.39,0,0,1,1.69,1.94c-2.44,2.91-4.89,5.76-7.25,8.69-1,1.25-2.26,2.58-2.55,4.05a2.8,2.8,0,0,0,0,.71,3.22,3.22,0,0,0,4.73,2.65,3.42,3.42,0,0,0,.46-.26c1.15-.73,1.89-2.1,3.53-4l20.46,17.12c0,.67.15,1.12,0,1.36-5.72,8.09-5.74,8.09,1.52,14.47,2.58,2.27,5,4.82,7.89,6.59a4.1,4.1,0,0,0,2.08.47,2.85,2.85,0,0,0,2.8-3.65,4.54,4.54,0,0,0-.95-1.84c-2.84-3-6.21-5.48-9.56-8.34l2.32-2.47c3.47,2.92,6.63,6,10.21,8.39a3.59,3.59,0,0,0,2.13.41,2.8,2.8,0,0,0,2.66-3.23,4.1,4.1,0,0,0-1-2.41c-12-10.8-24.19-21.36-36.36-32,1.26-1.93,2.2-3.4,3.16-4.86,2.5-3.75.7-6-2.34-8.5-8.44-6.81-16.66-13.91-24.91-20.84.86-1.42,1.45-2.5,2.14-3.52,4.5-6.68,4.37-6.54-1.36-12.63-4.32-4.6-7.73-10.16-12.41-14.32-11.47-10.21-23.51-19.79-35.19-29.77-9-7.71-17.73-15.75-26.73-23.47s-18-15.11-27-22.59c-9.94-8.22-19.95-16.36-29.91-24.55-8.16-6.7-16.09-13.72-24.56-20-3.84-2.85-21.83-15.59-25.27-19.37ZM478,683.12c.67,1.46,24,25.06,22.45,31.58a.94.94,0,0,1-1.67.36c-5.35-7.06-28.69-33.39-30-34.61-9.43-9-18.6-18.19-28.24-26.9-4.48-4.06-3.4-8.58-1.12-12.1,2.8-4.31,7.35-7.28,12.05-10.53,3.23-2.24,5.07-.74,7.32,1.09,10.11,8.21,54.3,41.83,66.91,51.9a1.24,1.24,0,0,1-.83,2.2c-7.59-.51-33.59-24.94-40.13-24.29C480.05,662.3,471.37,668.55,478,683.12Zm-95.14-51.3c-3.28-4.26-1.19-12.83,3.68-18.26,7.89-8.77,15.65-17.67,23.75-26.24,1.17-1.24,4.07-1.69,5.91-1.31,14.39,3,25.43,11.58,36.39,20.85,17.05,14.43,34.95,27.85,52.2,42a272.45,272.45,0,0,1,21.93,20.51c2.22,2.29,2.86,6.1,3.08,9.9-8.34-6.31-16.75-12.54-25-19-11-8.51-21.82-17.15-32.68-25.8-2.4-1.91-4.67-4-6.92-6.09-6.92-6.48-17.7-5.8-26.37,3.85-2.91,3.23-5.62,5.38-7.32,10-2.41,6.62,0,10.58,3.69,14.22,8.31,8.25,17.47,15.63,25.73,23.92,9,9.06,17.52,18.69,26.11,28.19,3,3.36,5.7,7.08,8.73,10.87a13.86,13.86,0,0,1-4.5-.06c-18.22-5.08-34.79-14-51.28-22.91-12.55-6.79-24.71-14.33-37-21.6-4.14-2.45-8.3-4.91-12.19-7.73a7.13,7.13,0,0,1-2.51-4.62,65.29,65.29,0,0,1-.07-11.53C388.83,644,387.41,637.64,382.9,631.82ZM284.19,506.13c17,15.06,42.43,38.14,58.89,52.7l-2.79,3c-17.23-10.8-48.62-45.92-56.49-55.34A.27.27,0,0,1,284.19,506.13Zm-28.68-6.59c-4.17-4.3-5.52-11.36-8.08-17.21a12.31,12.31,0,0,1-.56-2.71.44.44,0,0,1,.7-.42c18.92,15.2,37.86,38.07,54.3,55a.32.32,0,0,1-.41.48c-6.62-4.78-16.55-11.87-21.73-15.81C271.49,512.6,262.63,506.9,255.51,499.54Zm-9.62,40.8c3.71-3.38,7.77-6.37,11.38-9.84s6.89-7.44,10.31-11.18c6,4,12.06,7.64,17.75,11.87,12.55,9.33,24.89,19,37.34,28.43,4.29,3.26,8.62,6.48,13,9.59,2.46,1.74,4.25,1.67,7-.81,5.15-4.62,9.23-6,8-12.66-.23-1.28-.85-2.93-1.83-3.55-18-11.42-32.82-26.59-48.81-40.39-3.26-2.82-6.9-5.21-10.13-8.07-1.73-1.52-4.58-3-1.9-6.21,2.49-3,5.56-3.69,8.74-2.09,5.52,2.78,10.83,6,16.77,9.33a.38.38,0,0,1-.1.71c-1.37.28-2.62.41-3.36,1.09a6.52,6.52,0,0,0-1.9,4.08c0,.52,2.54,2,3.43,1.64,5.68-2,10.59.79,15.45,2.48,8.84,3.1,18.67,3.94,26,10.83,1.64,1.54,38,32.14,54.14,44.12,2.72,2,5.26,4.28,8.4,6.95a.89.89,0,0,1-.48,1.55c-9.64,1.21-14.71,7.83-19.92,14.51-4.79,6.12-10.06,11.89-15.34,17.61-5.9,6.39-8.19,20.25-2.38,26.64,7.34,8.09,3.76,15.09,5.49,22.71.79,2.12-.08,2.28-2.05,1.16-8.08-5.17-16.48-9.91-24.19-15.59-18.52-13.66-36.72-27.76-55.05-41.69-3.15-2.39-6-5.5-9.52-7-7.32-3.16-8-9.42-8.4-15.81-.6-10-.65-20-1.29-30-.12-1.82-1.66-4.8-3-5.05-3.91-.77-3.62,2.58-3.46,5.11.66,10.85,1.44,21.69,2.16,32.54.07,1,0,2,0,3.83-26.79-25.31-30.88-39.35-32.84-43.87A2.73,2.73,0,0,1,245.89,540.34ZM227.75,676.49c5.6-13.91,10.83-28.11,17.9-41.27,5.88-11,14.12-20.63,21.43-30.79,2.62-3.63,5.58-7,8.38-10.52,1.85-2.34,2.17,3.83,1.33,5-4.23,6-8.37,12.19-13.27,17.65-9.88,11-16.77,23.69-22.47,37.15-2.35,5.56-4.79,11.1-6.84,16.78-2.65,7.3-5,14.72-7.74,23C224.09,687.05,225.71,681.55,227.75,676.49Zm41.57,58.68-5.83-4.68c-9-7.22-18.05-14.4-27-21.73-1.12-.92-6.11-3.29-4.74-8.52,2.22-8.45,3.16-12.24,6.42-21.68l16,5.71c-5.92,7.58-9.91,19.57-9,22.57,1,3.2,4.36,5.73,7.05,8,6.28,5.23,12.85,10.74,19.39,15.67C271.3,731,269.68,734.71,269.32,735.17ZM749,980.65c-11.71-5.43-23.17-10.72-34.58-16.09-17.48-8.24-34.72-17-52.5-24.58-6.06-2.58-13.43-2.07-20.21-3-10.7-1.41-21.45-2.52-32.08-4.33-10.93-1.86-22-3.67-32.53-6.87-9.61-2.9-18.66-7.64-29.32-12.14,4.18-.88,6.69-1.45,9.22-1.92,7-1.32,7.48-2.5,3.54-8.7q-8.52-13.39-16.9-26.88a17.31,17.31,0,0,1-1.19-2.4,1.19,1.19,0,0,1,1.71-1.49c4.46,2.73,8.36,5.11,12.25,7.52q13.94,8.6,27.83,17.24c1,.64,50.68,30,52,30.61,2.62,1.21,5.18-3.28-.61-6.81-4.13-2.52-66.82-41-81.61-50.63-6.28-4.09-12.71-8-19.36-11.45-2.25-1.16-5.38-.63-7.1-.78-1.49-2.21-2.42-5-4.37-6.26C509.21,843,495.08,834.49,481,826a156.62,156.62,0,0,0-14.1-7.82c-3.29-1.54-7.5-3.89-10.4-3-13.12,4.09-23.91-1.63-34.2-7.71-15.9-9.38-31.32-19.63-46.6-30-13.51-9.19-26.51-19.14-39.88-28.54-1.56-1.09-4.18-1.31-6.18-1-5.31.76-10.53,2.07-15.81,3.06-2.82.52-2.53.57-6.28,1.11-5.62.82-8.62,1.13-7.58,5.83a.85.85,0,0,1-1.36.86L272.62,738c.19-.35,2.56-5,2.75-5.35a44.47,44.47,0,0,1,4.28,3.32c4.35,3.52,8.28,7.78,13.11,10.41,2.65,1.45,6.82.49,10.25.09,7.31-.87,11.06-2.23,18.38-3,2.79-.29,4-1,4.85-3.84,1.22-4.07,3.19-8.78,3.17-10.43-.06-3.93-4.71-5.83-7.92-9.07-5.14-5.18-19.22-14.13-24.95-19.8,8.8-13.34,20.28,10,24.51,3.16,2.58-4.16,4.37-8.82,6.54-13.54a1,1,0,0,1,1.46-.47c2.56,1.48,9.53,5.44,14,7.49a6.73,6.73,0,0,0,5.9-1,38.38,38.38,0,0,0,7.45-8.57c1-1.58,1-4.17.71-6.17-1.18-7.25-1.84-14.77-4.42-21.53-1.57-4.11-5.95-7.46-9.68-10.37-15-11.72-30.36-23.09-45.48-34.69-3.08-2.36-5.61-3.05-8.26.44-3.81,5-7.59,10.07-11.67,14.86-2.57,3-4.51,2.67-11.52-4.46,0-6.32,14-16.35,17-27.44,65.75,52.84,134.7,100,212.67,133.56a.87.87,0,0,1,.17,1.5c-3.1,2.22-2.28,4,1.54,7q26.88,21,53,42.93c9.47,7.93,18.15,16.8,27.42,25,13.3,11.74,26.82,23.22,40.23,34.84,3.43,3,6.89,5.92,10.16,9,10.75,10.28,21.65,20.42,32.06,31,13.15,13.4,26.11,27,38.71,40.92,11.47,12.66,22.34,25.86,33.46,38.83.49.57,10.49,10.44,17.07,17.14A.45.45,0,0,1,749,980.65Zm176.38,74.15c-18.91-8.54-37.91-16.9-56.78-25.53-16.41-7.51-32.72-15.25-49.05-22.93q-29-13.64-57.92-27.32c-6.11-8.46-24-33-30.08-41.47-4.25-5.94-7.37-12.25-6.93-20.33.23-4.15-.06-6.29,0-9.45,0-3.51.34-7.41,1.59-10.45a123.63,123.63,0,0,0,9.89-46.16c3.5,2.62,6.62,4.88,9.65,7.25,20.29,15.86,40.43,31.92,60.9,47.54,12.85,9.8,26.18,19,39.33,28.38,12.12,8.66,25.19,16.26,36.2,26.15,9.29,8.35,20.38,13.78,29.68,21.79,2.6,2.24,4.26,5.68,6.06,8.74,8.14,13.91,16.34,27.8,24.19,41.87,4.34,7.8,7.93,16,12,23.93,2.34,4.51,5,8.84,6.66,14.16C949,1065.58,937.19,1060.13,925.37,1054.8Zm40.86,7.35-31.48-62.52c1.52.93,3.94,2.36,7,4.19,8.37,5.36,9.64,8.89,16.21,27.16,2.6,7.23,5.76,14.26,8.08,21.57C967,1055.33,966.72,1059.57,966.23,1062.15Zm-7.41-48.42c7.4,4.3,15.91,9.21,24.85,14.37a.74.74,0,0,0-.12.13c-2.45,4.27-3.93,9.08-5.94,13.61-1.23,2.76-2.76,5.39-4.63,9-3.75-9.74-7.19-18.58-10.57-27.44C961.18,1020.19,960,1017,958.82,1013.73Zm65.65,90.71c-2.75-1-5.57-1.87-8.25-3.06-14.34-6.37-28.69-12.74-42.9-19.38-1.25-.58-2.46-3.37-2.14-4.78.81-3.56,1.53-8.46,4-10,4.68-2.94,8.89,3.8,11.16,6.24,5.64,6,18.08,15.24,29.38,23.78a98.65,98.65,0,0,0,9.23,6.08C1027,1104.44,1026.81,1105.36,1024.47,1104.44Zm52.74,15.93c-7-2.89-14.48-5.06-21.21-8.57-12.57-6.55-25.17-13.19-37.07-20.87-13.78-8.91-27.23-18.43-38.48-30.66-2.33-2.53-3-4.38-1.26-7.51q5.8-10.29,10.9-21c32.81,18.92,69.2,39.85,78.09,45.19-11.1,17-3.17,30.27,9.61,42.48A.54.54,0,0,1,1077.21,1120.37Zm49.28-16.2c-16.9-7.18-33.63-14.77-50.38-22.29a18.38,18.38,0,0,1-3.66-2.47c0-3.61.13-6,0-8.41a99.08,99.08,0,0,0-1.32-13.49,6.87,6.87,0,0,0-2.22-3.14,1.9,1.9,0,0,0-3,.47,6.85,6.85,0,0,0-1.06,3.06c-.07,3,.74,6,1.39,10.38-4.72-2.81-8.45-5-12.16-7.26s-20.22-11.81-39.75-23.07c1.11-1.7,5-8.85,7.85-14.74a3.47,3.47,0,0,0-.64-4c-1.67-1.72-3.13-3.39-4.93-3.94-5-1.53-17.25,7.9-17.83,13.16a3.94,3.94,0,0,0,0,.5l-52-29.91C939.13,994,931.43,989,924,983.66c-3.66-2.62-6.1-7-9.78-9.55-25.23-17.8-50.64-35.34-76-53-.8-.56-6.29-5-1.6-2.84,8.6,4.07,17.27,8,25.81,12.23q25.86,12.76,51.61,25.77c17.91,9,35.75,18.21,53.62,27.31,21.67,11,43.39,22,65,33.16,4.55,2.36,5.84,1.1,8.37-3.24,7.66-13.16,16.28-25.78,24.79-38.42,2.61-3.88,6.08-7.18,9.42-11.06l75.07,68c-7,9.71-14,19.26-20.93,28.84-17.15-9.19-34.81-18.65-52.46-28.14-3-1.61-5.83-3.66-9-4.83a2.69,2.69,0,0,0-.76-.13,3.27,3.27,0,0,0-2.47,5.32,2.37,2.37,0,0,0,.72.63c24.3,13.56,48.77,26.82,73.08,40.35,14.74,8.21,29.26,16.81,43.94,25.12,4.69,2.65,18.07-1.52,20.46-6.2a3.55,3.55,0,0,0,.15-2.61c-2-5.14-2.94-6.87-11.74-13.2-6.22-3.83-9.3-5.5-17.06-10.23-5-3-7.48-3-10.53,2.06a59.52,59.52,0,0,1-3.62,5.57.57.57,0,0,1-1-.54,43.43,43.43,0,0,0,2.87-9.62c.41-3.29-.13-9.07-1.82-9.74-3.1-1.21-7.87-.41-11,1.29s-5.17,5.67-7.92,8.38a4.21,4.21,0,0,1-2,.91,1.63,1.63,0,0,1-2-1.45,3.11,3.11,0,0,1,.28-2c6.11-8.51,12.26-17,18.7-25.26,9.88,8.24,37.67,31.33,54.19,44.28s52.21,47.85,76.28,83.22c-11-4.45-37.15-14.56-64.4-25,0-.3.07-.6.1-.92a23.48,23.48,0,0,0-2.63-11.13c-2.67-4.68-6.2-7.38-14.46-9.17-6.29-1.36-7.75-1.87-13.15,1.4-1.81,1.1-3.4,3.17-4.43,6.55-24.12-9.25-43.93-16.82-47.75-18.33C1135.68,1105.76,1130.67,1106,1126.49,1104.17Zm32.87,47.51c1.44-1.51.66-4.83,0-6-5.74-9.94-11.66-19.79-18.15-30.71,3.31,1.44,22.07,8.48,45.43,17.18a61,61,0,0,0,.26,10.51c.38,3.72,2.84,15,4.34,15.8,3.09,1.63,6.59,2.47,9.92,3.64,7.64-.31,13-4.71,16.21-10.19a44.32,44.32,0,0,0,3.63-7c30.3,11.24,60,22.22,70.22,26.07,4.49,7.75,13.83,25,15,27-9.71-3.08-18.35-5.87-27-8.54-18.63-5.73-37.31-11.31-55.92-17.11-15.52-4.83-31.13-9.53-46.54-14.35C1160.87,1153,1158.56,1152.51,1159.36,1151.68Zm150,63.89-50.73-14.89q-40.85-12-81.72-23.89c-6.94-2-8.25-4.6-4.36-10.73a5.15,5.15,0,0,1,4.54-1.6c15.91,4.71,31.76,9.61,47.59,14.59,17.86,5.63,35.67,11.46,53.53,17.09,8.17,2.58,16.45,4.82,24.64,7.36C1308.29,1205.17,1310.28,1208.82,1309.4,1215.57Zm29.81-65.43c-4.38-4-58.62-47.58-74.39-60.5.18-3.94,15.32-13.69,19.34-17.26,21.38,23.79,42.1,47.31,59.84,73.26C1343.44,1146.09,1339.77,1149.69,1339.21,1150.14Zm27.48,21.78L1344,1154.16l5.45-5.3,17.94,22.33A.52.52,0,0,1,1366.69,1171.92ZM846.44,595.76c1.87,2.32,4.59,4,5.86,5L846.46,609a1.1,1.1,0,0,0,.23,1.51c2.29,1.78,4.46,4,7,4.66s5.82-.83,8.79-1c1.63-.1,3.81,0,4.87.92,7.16,6.45,14.08,13.16,22.18,20.82-2.71.48-4.37.29-5.34,1-2,1.52-5.33,4-5,5.25.76,3,3.17,5.66,7.44,4,1.11-.44,3.16.21,4.16,1.08,4.69,4,9.17,8.28,13.7,12.49,5.73,5.33,11.5,10.62,17.12,16.08,3.41,3.32,6.42,1,9.14-.73,1.52-1-.94-4.06-2.26-5.49-4.84-5.25-10-10.15-15-15.27a11.77,11.77,0,0,1-2.05-3.39c-1-2.28-1.29-5.26-2.94-6.82-13.48-12.74-27.17-25.25-40.87-37.75-5.89-5.37-11.87-10.65-18-15.69-.93-.77-2.4-.87-3.83-1a1,1,0,0,0-1.11,1.27C845.06,592.64,845.4,594.48,846.44,595.76Zm-116.7-52.9a19.94,19.94,0,0,0,19.78,1.55c6.12-2.75,7.06-9.25,2.48-14.22-3.84-4.16-8.49-5.94-14.68-5.64a10.77,10.77,0,0,0-3.19.05c-4.38,1.15-9.07,2.29-10.28,7.49S726.09,540.5,729.74,542.86Z"/></g><g id="Thrusters"><path d="M269,677.42c11.5-2.49,15.21-21.59,8.57-27.92C269.45,652.58,263.3,667.65,269,677.42Zm932.12,446.7a5.3,5.3,0,0,0-3.63,1,11.23,11.23,0,0,0-3.3,3.26c-4.36,7.46-1.41,18,5.92,22.65,5.22,3.33,10.86,1.48,13.1-4.37.56-1.49.88-3.07,1.36-4.59C1217.13,1133.83,1211.28,1125.19,1201.08,1124.12Z" fill="#007aff"/></g></g></svg>