<svg xmlns="http://www.w3.org/2000/svg" viewBox="0 0 1500 1500"><title>Hauler</title><g id="Hauler"><g id="Colour"><path d="M1293.26,1104.27c-3.09-13.06-4.15-26.72-8.35-39.36-5.16-15.56-51.26-105.91-55-113.25-10.44-20.62-20-41.68-29.86-62.59-2.12-4.5-3.7-9.27-6-13.65-5.73-10.74-45.08-77.22-49.22-83.81-6.65-10.6-12.7-21.58-18.91-32.45-6.65-11.64-13.1-23.39-19.81-35-4.21-7.27-8.82-14.31-13.11-21.53-3.35-5.66-6.41-11.5-9.74-17.17s-6.87-10.91-10-16.53c-2.84-5.09-21.47-34-27-43.92-6-10.9-10.34-22.74-15.68-34-9.51-20.1-19.41-40-28.84-60.15C991.59,509.06,982,487,971.65,465.29c-5.92-12.4-15.46-21.79-26.35-30.29-21.06-16.44-41.4-33.78-62.06-50.72-4.81-3.95-9.32-4.34-14.93-1.33-13.69,7.34-27.37,14.7-40.84,21.94-3.78-4-7-7.87-10.72-11.17-7.39-6.53-14.27-13.16-19.09-22.14-11.09-20.7-22.92-41-34.59-61.38-8.66-15.11-17.51-30.12-26.35-45.13-3.16-5.37-5.4-12.13-10-15.66-19.27-14.68-39.54-28-58.9-42.61-5.8-4.37-10.79-7.42-17.63-3.83-2.57,1.35-5.94,3.05-6.83,5.4-7,18.34-13.42,36.87-20,55.34-1.53,4.27-1.81,8.31.9,12.39,2.17,3.28,3.78,6.93,5.67,10.39,6.56,12,13.19,23.92,19.68,35.94,2.8,5.17,5.35,10.48,8.18,16.05-2.18,1.09-4.05,2.07-6,3-10.93,5.15-21.93,10.19-32.81,15.46-15.57,7.55-31.07,15.27-46.63,22.86a3.11,3.11,0,0,1-2.57,0c-7.8-5.1-15.43-10.47-23.32-15.43A92.2,92.2,0,0,0,531,356.05c-4.71-1.83-7.86.75-7.74,6,.18,7.36,1,14.7,1.56,22.56-2.26,1.29-4.9,2.77-7.51,4.31-16.34,9.62-32.76,19.11-48.92,29-4.1,2.51-7,3.29-10.84-.29a50.42,50.42,0,0,0-10.13-7.05c-3-1.67-7.82-4.55-9.34-3.45-3.29,2.36-7.06,7-6.91,10.61.41,10.29.74,20.92,6.52,30.22,1.88,3,3.33,6.29,5,9.49-16,10.95-31.95,21.67-47.66,32.72-3.26,2.29-5.58,1.64-7.88-.61-9.25-9-18.36-18.16-27.57-27.22a15.48,15.48,0,0,0-3.06-2.16c-11.86-7.09-23.79-14.07-35.6-21.24-12.57-7.63-25.15-15.27-37.5-23.24-6-3.89-10.83-6-17,.48-4.89,5.13-7.15,9-5.91,16.19,1.71,9.92,2.7,20,4.23,29.91.78,5,.55,11.23,3.43,14.72,8.57,10.39,18.35,19.8,27.83,29.43,11,11.17,22.17,22.16,32.94,32.91-2.89,5-5.09,9.64-8.08,13.74-7.26,10-12.94,20.4-14.49,33-1.15,9.24-9.72,82.06-9.89,84.89-.49,8.48-1.54,16.93-2,25.41-.32,5.52.1,11.08-.08,16.61-.2,6.15-.56,12.31-1.18,18.43a7.15,7.15,0,0,1-2.37,4.68c-22.63,16.22-45.44,32.18-68.05,48.42-20.44,14.67-40.51,29.87-61.15,44.24-4.84,3.38-7.79,7.1-8.59,12.5-.31,2.14.29,5.38,1.75,6.63,4,3.45,8.74,6.11,13.17,9.09,11.59,7.8,23.06,15.78,34.78,23.37,13.37,8.66,27.16,16.66,40.38,25.54,11.71,7.87,24,14.81,37.46,18.41,22.46,6,45.29,10.63,68,15.58,15,3.27,30.23,5.88,45.27,9.18,22,4.84,43.91,10.19,65.92,15,11.91,2.6,24,4.27,35.92,6.84,19.24,4.15,38.42,8.58,57.57,13.12,17.22,4.08,34.39,8.39,51.55,12.77,11.26,2.88,22.43,6.14,33.69,9.07,20.07,5.24,40.25,10.13,60.25,15.64,8,2.21,15.47,6.29,23.48,8.47,15.52,4.22,31.29,7.51,46.87,11.54,21.59,5.57,43.07,11.57,64.65,17.18,18,4.67,36.1,8.91,54.1,13.57,30.29,7.85,60.51,16,90.82,23.8,18.35,4.72,36.86,8.85,55.23,13.51,20.11,5.09,40.09,10.68,60.21,15.7,15.27,3.81,30.64,7.26,46.05,10.49,10.35,2.18,20.87,3.52,31.25,5.56,7.89,1.55,15.66,3.77,23.54,5.4,18.56,3.85,37.38,4.8,56.28,4.36,3.49-.08,7.65-.31,10.29-2.18a180.16,180.16,0,0,0,20-16.53C1289.43,1124.8,1296.2,1116.72,1293.26,1104.27Z" fill="#506666"/><path d="M1293.26,1104.27c-3.09-13.06-4.15-26.72-8.35-39.36-5.16-15.56-51.26-105.91-55-113.25-10.44-20.62-20-41.68-29.86-62.59-2.12-4.5-3.7-9.27-6-13.65-5.73-10.74-45.08-77.22-49.22-83.81-6.65-10.6-12.7-21.58-18.91-32.45-6.65-11.64-13.1-23.39-19.81-35-4.21-7.27-8.82-14.31-13.11-21.53-3.35-5.66-6.41-11.5-9.74-17.17s-6.87-10.91-10-16.53c-2.84-5.09-21.47-34-27-43.92-6-10.9-10.34-22.74-15.68-34-9.51-20.1-19.41-40-28.84-60.15C991.59,509.06,982,487,971.65,465.29c-5.92-12.4-15.46-21.79-26.35-30.29-21.06-16.44-41.4-33.78-62.06-50.72-4.81-3.95-9.32-4.34-14.93-1.33-13.69,7.34-27.37,14.7-40.84,21.94-3.78-4-7-7.87-10.72-11.17-7.39-6.53-14.27-13.16-19.09-22.14-11.09-20.7-22.92-41-34.59-61.38-8.66-15.11-17.51-30.12-26.35-45.13-3.16-5.37-5.4-12.13-10-15.66-19.27-14.68-39.54-28-58.9-42.61-5.8-4.37-10.79-7.42-17.63-3.83-2.57,1.35-5.94,3.05-6.83,5.4-7,18.34-13.42,36.87-20,55.34-1.53,4.27-1.81,8.31.9,12.39,2.17,3.28,3.78,6.93,5.67,10.39,6.56,12,13.19,23.92,19.68,35.94,2.8,5.17,5.35,10.48,8.18,16.05-2.18,1.09-4.05,2.07-6,3-10.93,5.15-21.93,10.19-32.81,15.46-15.57,7.55-31.07,15.27-46.63,22.86a3.11,3.11,0,0,1-2.57,0c-7.8-5.1-15.43-10.47-23.32-15.43A92.2,92.2,0,0,0,531,356.05c-4.71-1.83-7.86.75-7.74,6,.18,7.36,1,14.7,1.56,22.56-2.26,1.29-4.9,2.77-7.51,4.31-16.34,9.62-32.76,19.11-48.92,29-4.1,2.51-7,3.29-10.84-.29a50.42,50.42,0,0,0-10.13-7.05c-3-1.67-7.82-4.55-9.34-3.45-3.29,2.36-7.06,7-6.91,10.61.41,10.29.74,20.92,6.52,30.22,1.88,3,3.33,6.29,5,9.49-16,10.95-31.95,21.67-47.66,32.72-3.26,2.29-5.58,1.64-7.88-.61-9.25-9-18.36-18.16-27.57-27.22a15.48,15.48,0,0,0-3.06-2.16c-11.86-7.09-23.79-14.07-35.6-21.24-12.57-7.63-25.15-15.27-37.5-23.24-6-3.89-10.83-6-17,.48-4.89,5.13-7.15,9-5.91,16.19,1.71,9.92,2.7,20,4.23,29.91.78,5,.55,11.23,3.43,14.72,8.57,10.39,18.35,19.8,27.83,29.43,11,11.17,22.17,22.16,32.94,32.91-2.89,5-5.09,9.64-8.08,13.74-7.26,10-12.94,20.4-14.49,33-1.15,9.24-9.72,82.06-9.89,84.89-.49,8.48-1.54,16.93-2,25.41-.32,5.52.1,11.08-.08,16.61-.2,6.15-.56,12.31-1.18,18.43a7.15,7.15,0,0,1-2.37,4.68c-22.63,16.22-45.44,32.18-68.05,48.42-20.44,14.67-40.51,29.87-61.15,44.24-4.84,3.38-7.79,7.1-8.59,12.5-.31,2.14.29,5.38,1.75,6.63,4,3.45,8.74,6.11,13.17,9.09,11.59,7.8,23.06,15.78,34.78,23.37,13.37,8.66,27.16,16.66,40.38,25.54,11.71,7.87,24,14.81,37.46,18.41,22.46,6,45.29,10.63,68,15.58,15,3.27,30.23,5.88,45.27,9.18,22,4.84,43.91,10.19,65.92,15,11.91,2.6,24,4.27,35.92,6.84,19.24,4.15,38.42,8.58,57.57,13.12,17.22,4.08,34.39,8.39,51.55,12.77,11.26,2.88,22.43,6.14,33.69,9.07,20.07,5.24,40.25,10.13,60.25,15.64,8,2.21,15.47,6.29,23.48,8.47,15.52,4.22,31.29,7.51,46.87,11.54,21.59,5.57,43.07,11.57,64.65,17.18,18,4.67,36.1,8.91,54.1,13.57,30.29,7.85,60.51,16,90.82,23.8,18.35,4.72,36.86,8.85,55.23,13.51,20.11,5.09,40.09,10.68,60.21,15.7,15.27,3.81,30.64,7.26,46.05,10.49,10.35,2.18,20.87,3.52,31.25,5.56,7.89,1.55,15.66,3.77,23.54,5.4,18.56,3.85,37.38,4.8,56.28,4.36,3.49-.08,7.65-.31,10.29-2.18a180.16,180.16,0,0,0,20-16.53C1289.43,1124.8,1296.2,1116.72,1293.26,1104.27Z" fill="none" stroke="#000" stroke-linejoin="round" stroke-width="8"/></g><g id="Detail"><path d="M485.11,735.67c-.67-1.56-27.11-34-42-52.45s-23.78-20-28.43-20.47c0,0-2.68,12.25-2.24,18.92s50,49.33,62.67,59.77S485.78,737.22,485.11,735.67Z" fill="#ff7100"/></g><g id="Canopy"><path d="M1256.44,1012.78c-2.88-3.78-48.44-80.45-53.11-73.32S1151.52,990,1130.44,995s-79.42-15.08-79.33-10.67c.22,10.45,34.31,47,48.22,63.56,6.8,8.07,93.11,62.44,117.56,57.33s56.89-36,58.89-46.22S1259.33,1016.56,1256.44,1012.78Z" fill="#82b3d1"/></g><g id="Grey"><path d="M312.5,681.67c6,.33,17.67,9.81,21.83,22.91s6.5,24.59,2,29.75-16,9-14.5,13.84,12,8,18.5,4.83,17.43-17,13.3-40.56S339,676,326.83,671.17s-23.83-1.34-25.16,11.5C301.21,687.05,306.5,681.33,312.5,681.67Zm47.17-50.5c7.33,5.16,23.5,4.33,31.79,8.59s11.71,11.74,15.38,9.24-.34-16.83-1.75-22.5-12.26-16.33-15.42-18.32-5.17-5.51-10-21.13-14.87-17.63-17.34-18S354,571.33,348,575.33,342.33,590,341.67,598,352.33,626,359.67,631.17Zm154.44-65.73c4.45,3.34,20.22,11.34,49,.56s17-33.11,15.45-36.07-7.45-6.93-6.45-1.26-2.67,28.77-32.67,29.11c-31.79.35-27.84-25.94-30.22-24.56C488.33,545.33,509.67,562.11,514.11,565.44ZM589,627.89c.78-13.11-14.89-18-20-18.78-10.89-1.67-23.78,2.67-28.33,5.11s-8.11,9.11-9.89,16.89,1.55,9.89,5,15,52.89,38.76,55,38.31,10-17.55,10.33-20.88-11.67-19-12.89-22.56S588.22,641,589,627.89Zm38.44,21.44c6.28,4.67,21.89,16.34,50.89,4.37s21.5-30.87,19.15-36.87-9-10.83-8.81-6.23,2.16,27.4-29.84,30.23-31.77-30.09-34-28.33C605.5,627.83,621.17,644.67,627.44,649.33Zm69.78-198.22c13.11,6.22,21.45,9,45.22,1.33s17.78-25.22,17.12-28-8.56-13.77-7.67-4.33-4.67,24-30.78,24.54S693.8,419,690.33,421C676.11,429.22,684.11,444.89,697.22,451.11Zm123.22,21.45c10.78,5.11,15.66,2,25.1,3.05s18.57,7.06,23.64,9.81,2.49,3.91,15.86,2.25,10.74-5.78,9.4-8.45-24.22-20.44-30.44-25-14.35-10.17-21.22-11.45c-23.89-4.44-36.67,4.66-38.89,12.55S809.67,467.44,820.44,472.56Zm-7.66,56.11c10.44,7.66,25.55,9.11,47.55,1.77s19.23-20.88,18.34-25.66-9.22-13.27-9.5-9.95c-.69,8.2,3,12-10.17,22.18-14.17,11-41.17,2.14-49.17-10.84-5.14-8.35,3.83-16.5-4.72-10.17C790,507.2,802.33,521,812.78,528.67Zm148.44-69.11c-3.22-3.56-31.09-10.8-30.55-9.13,3.91,12.17,40.54,90.83,42.08,96.82,2.33,9.08,8.83,36.58,10.25,36.58s29.22-11.94,28.78-18.24S964.44,463.11,961.22,459.56ZM701.56,781.22c-1.56-2.89-44.89-19.33-49.78-17.33,0,0-22.45,42.89-26.89,56.29s4.22,11.26,8,9.71S703.11,784.11,701.56,781.22ZM561,948c-5-4.33-297.13-72.35-299-67-2.33,6.67,5.33,29.33,12,35.33s256,57,270.33,58,19-4,22-11.33S566,952.33,561,948Zm183.67,34.33c-6-1.33-67.93-1.63-70,3.19-3.67,8.53,15.66,27.81,20.66,31.93s265.67,72.88,273,72.88,17-35,13.34-39.33S750.67,983.67,744.67,982.33Z" fill="#8e9ba5"/></g><g id="Shadows" opacity="0.2"><path d="M1188.49,1047.66l-41.8-59.05-9.11,4.74h-10.69s-46.2-3.87-43.91-4.74-71.23-10.67-71.23-10.67L697.48,790.74l-64.63-24.28L419.22,629s49.5-3.3,56.47-4.4,18.47-11,18.47-11l-110-72.18-51.6-9.32-21.89,39.23-6.17,62.33,3.41,24.68c85.2-15.08,27.72,66.74,27.72,66.74l-20.08,18.74,7.61,28.6,109.3,145.68L593,979l401,91.88,231.88,37.4ZM679.37,325.81,590.29,371l225.43,41.9ZM735.29,438c9.32-12.83-30.07-49.12-66-22s-6.6,44,0,44S705.55,478.94,735.29,438ZM486.1,576.79c6.6,0,36.26,18.93,66-22,9.32-12.83-30.07-49.12-66-22S479.5,576.79,486.1,576.79Zm116.42,81.59c6.6,0,36.26,18.92,66-22,9.32-12.83-30.07-49.13-66-22S595.92,658.38,602.52,658.38ZM781.49,495c-35.93,27.14-6.6,44,0,44s36.27,18.93,66-22C856.81,504.2,817.43,467.9,781.49,495Zm-160,54.3,8.17,5.74,46.55-3.39-32.7-14.63Zm191,36.32-24.17,14.79,8.17,5.75H839Zm-67.16,34.1-8.7,6,4.37,7.91-33.55,24.68,111.4,99,315.22,215.15-12.21-16.79L864.35,740.05l-50.69-73.16Z" fill="#111"/></g><g id="Outline"><path d="M1293.26,1104.27c-3.09-13.06-4.15-26.72-8.35-39.36-5.16-15.56-51.26-105.91-55-113.25-10.44-20.62-20-41.68-29.86-62.59-2.12-4.5-3.7-9.27-6-13.65-5.73-10.74-45.08-77.22-49.22-83.81-6.65-10.6-12.7-21.58-18.91-32.45-6.65-11.64-13.1-23.39-19.81-35-4.21-7.27-8.82-14.31-13.11-21.53-3.35-5.66-6.41-11.5-9.74-17.17s-6.87-10.91-10-16.53c-2.84-5.09-21.47-34-27-43.92-6-10.9-10.34-22.74-15.68-34-9.51-20.1-19.41-40-28.84-60.15C991.59,509.06,982,487,971.65,465.29c-5.92-12.4-15.46-21.79-26.35-30.29-21.06-16.44-41.4-33.78-62.06-50.72-4.81-3.95-9.32-4.34-14.93-1.33-13.69,7.34-27.37,14.7-40.84,21.94-3.78-4-7-7.87-10.72-11.17-7.39-6.53-14.27-13.16-19.09-22.14-11.09-20.7-22.92-41-34.59-61.38-8.66-15.11-17.51-30.12-26.35-45.13-3.16-5.37-5.4-12.13-10-15.66-19.27-14.68-39.54-28-58.9-42.61-5.8-4.37-10.79-7.42-17.63-3.83-2.57,1.35-5.94,3.05-6.83,5.4-7,18.34-13.42,36.87-20,55.34-1.53,4.27-1.81,8.31.9,12.39,2.17,3.28,3.78,6.93,5.67,10.39,6.56,12,13.19,23.92,19.68,35.94,2.8,5.17,5.35,10.48,8.18,16.05-2.18,1.09-4.05,2.07-6,3-10.93,5.15-21.93,10.19-32.81,15.46-15.57,7.55-31.07,15.27-46.63,22.86a3.11,3.11,0,0,1-2.57,0c-7.8-5.1-15.43-10.47-23.32-15.43A92.2,92.2,0,0,0,531,356.05c-4.71-1.83-7.86.75-7.74,6,.18,7.36,1,14.7,1.56,22.56-2.26,1.29-4.9,2.77-7.51,4.31-16.34,9.62-32.76,19.11-48.92,29-4.1,2.51-7,3.29-10.84-.29a50.42,50.42,0,0,0-10.13-7.05c-3-1.67-7.82-4.55-9.34-3.45-3.29,2.36-7.06,7-6.91,10.61.41,10.29.74,20.92,6.52,30.22,1.88,3,3.33,6.29,5,9.49-16,10.95-31.95,21.67-47.66,32.72-3.26,2.29-5.58,1.64-7.88-.61-9.25-9-18.36-18.16-27.57-27.22a15.48,15.48,0,0,0-3.06-2.16c-11.86-7.09-23.79-14.07-35.6-21.24-12.57-7.63-25.15-15.27-37.5-23.24-6-3.89-10.83-6-17,.48-4.89,5.13-7.15,9-5.91,16.19,1.71,9.92,2.7,20,4.23,29.91.78,5,.55,11.23,3.43,14.72,8.57,10.39,18.36,19.8,27.83,29.43,11,11.17,22.17,22.16,32.94,32.91-2.89,5-5.09,9.64-8.08,13.74-7.26,10-12.94,20.4-14.49,33-1.15,9.24-9.72,82.06-9.89,84.89-.49,8.48-1.54,16.93-2,25.41-.32,5.52.1,11.08-.08,16.61-.2,6.15-.56,12.31-1.18,18.43a7.15,7.15,0,0,1-2.37,4.68c-22.63,16.22-45.44,32.18-68.05,48.42-20.44,14.67-40.51,29.87-61.15,44.24-4.84,3.38-7.79,7.1-8.59,12.5-.31,2.14.29,5.38,1.75,6.63,4,3.45,8.74,6.11,13.17,9.09,11.59,7.8,23.06,15.78,34.78,23.37,13.37,8.66,27.16,16.66,40.38,25.54,11.71,7.87,24,14.81,37.46,18.41,22.46,6,45.29,10.63,68,15.58,15,3.27,30.23,5.88,45.27,9.18,22,4.84,43.91,10.19,65.92,15,11.91,2.6,24,4.27,35.92,6.84,19.24,4.15,38.42,8.58,57.57,13.12,17.22,4.08,34.39,8.39,51.55,12.77,11.26,2.88,22.43,6.14,33.69,9.07,20.07,5.24,40.25,10.13,60.25,15.64,8,2.21,15.47,6.29,23.48,8.47,15.52,4.22,31.29,7.51,46.87,11.54,21.59,5.57,43.07,11.57,64.65,17.18,18,4.67,36.1,8.91,54.1,13.57,30.29,7.85,60.51,16,90.82,23.8,18.35,4.72,36.86,8.85,55.23,13.51,20.11,5.09,40.09,10.68,60.21,15.7,15.27,3.81,30.64,7.26,46.05,10.49,10.35,2.18,20.87,3.52,31.25,5.56,7.89,1.55,15.66,3.77,23.54,5.4,18.56,3.85,37.38,4.8,56.28,4.36,3.49-.08,7.65-.31,10.29-2.18a180.16,180.16,0,0,0,20-16.53C1289.43,1124.8,1296.2,1116.72,1293.26,1104.27ZM1122.7,766.49q19.17,32.37,38.11,64.87a11.39,11.39,0,0,1,1.69,6.13c-21.38-28.48-42.76-57-64.86-86.42l14.42,4C1117.9,756.75,1120,762,1122.7,766.49Zm-71.85-120.92c3.29,4.9,58.8,99.14,60.55,101.17-4.87-.38-8.59-1.46-11.8-6.09-12.81-18.42-26.46-36.25-39.68-54.39-13.53-18.57-26.91-37.26-40.39-55.86-10.19-14.08-20.44-28.11-30.78-42.31l13.16-10.82c5.13,6.84,10,13.05,14.57,19.46C1028.05,612.93,1039.74,629.05,1050.85,645.57Zm-66.28-65.28c-2-9-3.74-17.29-5.52-25.56-.61-3,.75-1.38,1.55-.47,4,4.39,8.25,8.58,11.88,13.25,1.81,2.34,2.5,4.43-1.27,7.54C989,576.85,984.62,580.25,984.57,580.29Zm.53-66.81Q990,524.12,995,534.74c4.56,9.78,9.17,19.59,13.83,29.54l-4.15.71-3.45.6c-6.28-7.16-12.78-14.24-18.69-21.74-1.69-2.15-3.33-4.32-4.9-6.55s-3.09-4.49-4.51-6.82-2.76-4.72-4-7.17c-.62-1.23-1.21-2.48-1.78-3.74a82.4,82.4,0,0,1-3-7.83l3.54-.77,3.47-.75c2.3-.5,4.56-1,6.81-1.51C982.21,507.77,983.62,510.26,985.1,513.48Zm-44-58.28c5.8,1.77,11.51,3.53,17.13,5.52a4.24,4.24,0,0,1,1.27.77,10,10,0,0,1,1.83,2.24,19.64,19.64,0,0,1,1,1.82c1.3,2.71,2.57,5.42,3.84,8.14s2.52,5.44,3.78,8.16q2.79,6,5.63,12c.68,1.41,1.34,2.84,2,4.25.1.21.16.38.23.57,1,2.38-.12,3-2.33,3.39s-4.24.84-6.35,1.23a40.58,40.58,0,0,1-6.37.77,7.15,7.15,0,0,1-.91,0,12.44,12.44,0,0,1-2.09-.34,9.45,9.45,0,0,1-2.81-1.14,4.12,4.12,0,0,1-.67-.53,2.38,2.38,0,0,1-.43-.6c-1.51-3-3-6.06-4.46-9.1-5.92-12.19-11.67-24.54-17.56-37.08l-1.25-2.66C935.49,453.49,938.31,454.34,941.12,455.2Zm-38.18,24.69c13.5,11.17,26.9,22.46,40.36,33.69,1.66,1.38,3.33,2.77,5.1,4,10.75,7.4,13.41,18.86,15.92,30.61,2.89,13.45,7.25,26.65,9.32,40.21,2.26,14.82,13.15,24,20.63,35.29,7.63,11.53,16.58,22.18,24.93,33.24q16.42,21.74,32.8,43.5c7.43,9.92,14.66,20,22.1,29.92,11.23,14.95,22.6,29.79,33.85,44.72a382.43,382.43,0,0,1,22.51,32.4c-5.24-1.35-20.23-1-30.83,7.92-3.11,2.61-6.44.36-9.14-2.69-15.88-17.93-31.93-35.73-48-53.53-7.54-8.38-15.21-16.63-22.75-25q-23.85-26.5-47.63-53.08c-7.35-8.16-14.79-16.24-22.16-24.38-14.16-15.61-27.23-32.4-42.74-46.52-15.34-14-33.13-25.26-49.87-37.69-3.16-2.35-6.45-4.52-9.63-6.73,13.52-10.69,26.4-20.79,39.15-31a7.21,7.21,0,0,0,2.42-4.63c.31-5.3-.17-12.86-.44-18-.39-7.21-11.51-12.5-9.46-16.07l3.52-4.85c5.68-.71,10-2.21,16.43-3.18,1.18-.18,4.29-.95,4.26-1.65-.06-1.6-1.32-3.09-2.47-4.12C897.28,478.76,899.21,476.81,902.94,479.89Zm150.7,433.51c-19.58-15.13-37.71-29.22-57.39-44.35-16.69-12.82-33.52-25.45-50.18-38.3-12.41-9.58-24.6-19.43-37-29C895.6,791.23,882,781,868.46,770.45c-11.37-8.85-23.05-17.39-33.69-27.07-4.06-3.69-5.93-10-8.21-15.39-7.14-16.77-13.63-33.82-21.22-50.37-1.81-3.93-6.77-6.57-10.58-9.4C776.9,655,758.93,641.86,741,628.73c0-8.66,10.38-13.39,18-18.59,10.69-7.35,20.06-13.7,30.75-21.06,8.4-5.8,13.79-10,23-15.44.15,4.8,1,7.45-1,10.44-.57.82-.3,4.34.73,5.14,7.69,5.9,15.59,11.54,23.6,17,2.38,1.62,9.28-1.66,11-5.14s.65-6.28-3.12-7.86c-8.37-3.51-10.72-11.45-13.81-18.85-1.16-2.77-2.48-5.46-3.85-8.48,3.55-4.56,7.85-.82,10.49,1,21,14.17,42,28.32,62.1,43.63,8.24,6.26,14.33,15.36,21.35,23.21,4.82,5.39,9.49,10.94,14.37,16.29,12.24,13.43,24.61,26.77,36.85,40.2q21.48,23.57,42.83,47.22c13.27,14.68,26.46,29.43,39.73,44.11,11.22,12.39,22.51,24.71,33.76,37.08q16.13,17.74,32.19,35.53a40.4,40.4,0,0,1,2.93,4.32C1099.18,875.85,1076.62,892.69,1053.64,913.4Zm70.1-47.67c2.6-1.92,5.14-2.56,7.43.69,3,4.23,39.87,45.12,48.77,55.63,2.49,2.93,3.78,6.9,5.44,10.48.33.7,0,4-1.48,5.8-7.09,8.49-14.07,13-22.45,20.21a86.58,86.58,0,0,1-20.11,13.39c-2.94,1.38-5,2-7.23.6-7.59-4.69-15.3-9.27-22.43-14.6-17-12.68-33.65-25.78-52.54-40.31,5.87-4.92,11.43-9.74,17.16-14.35,12.49-10,25-20,37.61-30C1117.15,870.74,1120.41,868.18,1123.74,865.73ZM819.28,520.42c3,1.5,6.23,3.16,9.44,3.38,11.93.82,24.07,1.66,34.33-6.36,5.67-4.43,10.87-12.36,7.64-20.92,9.47,9,6.69,20-3.9,27.38s-22.82,9.17-35.36,7.73A45.24,45.24,0,0,1,808,522c-6.55-5.18-9.61-17.86-2.16-24.08C804.8,509,810.31,515.91,819.28,520.42Zm71.07-40.57a2.29,2.29,0,0,1-1,4c-3.12.64-5.91,1.2-8.73,1.52a11.84,11.84,0,0,1-5.7-1.05c-4.72-2-9.63-3.84-13.91-6.61-9.67-6.27-20.35-5.49-31-5.37-8.29.09-14.5-4.93-20.5-9.47-2-1.51-4.58-5.84-2.09-9.26,7.08-7.17,15.2-9.91,24.66-8.75a2.32,2.32,0,0,1,1.73,3.49,17.93,17.93,0,0,0-2.18,4.58,6.35,6.35,0,0,0,.29,3.24,2.31,2.31,0,0,0,3.24,1.45,6.48,6.48,0,0,0,2.46-1.8,68.49,68.49,0,0,0,4.73-8.13,2.29,2.29,0,0,1,3-1C862.61,454.55,875.41,468,890.35,479.85ZM647.29,352c11.08-5.2,20.4-9.57,31.54-14.69,7.13-3.28,10.65,1.63,13.2,3.75a35.25,35.25,0,0,0-4.22,3.67A3,3,0,0,0,692,349c2.67-2.42,5.15-5.13,7.75-7.84l5.59,3.69c-.55,3.21-2.2,6.82-1.37,9.73.88,3.15,3.68,6.14,6.35,8.32,7.23,5.91,14.72,11.55,22.42,16.84,1.55,1.07,4.65.66,6.71,0s3.84-2.57,6.87-4.76c1.58,3.85,3.28,7.39,4.5,11.09,2,6.11,3.54,12.38,5.69,18.44a2.15,2.15,0,0,0,.64.88,3.43,3.43,0,0,0,5.42-1.46,3.26,3.26,0,0,0,.23-1.29,9.6,9.6,0,0,0-.76-2.94,2.1,2.1,0,0,1,3-2.58,32.07,32.07,0,0,1,3.24,2.1c8.06,6.06,16.18,12,23.93,18.48,3.35,2.78,6.46,3.72,10.3,1.88,4.21-2,8.34-4.2,13.23-6.67,11.69,9,29,22.45,41.12,31.79-1.29,3.26-9.09-5.17-24-5.54-11.49-.28-20.78,2.64-29.11,8.73-2.43,1.78-5.06,5.61-5.15,7.64-.21,4.9,5,11.63,8.88,14.21,5.74,3.86,10.82,7.86,17.41,8.85a.85.85,0,0,1,.07,1.66,76.36,76.36,0,0,0-9,2.68c-3.92,1.49-7.38,4.21-11,6.42a50.8,50.8,0,0,1-4.55,2.86c-11.56,5.26-23.14,10.5-34.78,15.57a5.4,5.4,0,0,1-4.34-.14c-10.45-6.62-20.79-13.43-31.13-20.22a8.85,8.85,0,0,1-1.5-1.87c10.26-6.95,21-13,30.14-20.85,5.87-5,8.86-8,10.8-15.46,2.2-8.43.37-13.68-1.66-18.43a56.24,56.24,0,0,0-6.71-11.88c-6.92-9.1-16.87-12.67-27.75-14.76-11.78-2.25-23,.16-33.83,3.9-8.36,2.88-16,7.74-24.09,11.51-8.73,4.09-17.53,8-26.41,11.78-1.15.49-3.24-.22-4.45-1-8.46-5.73-16.8-11.63-25.19-17.49,8.28-4.18,16.52-8.48,24.89-12.51,3.81-1.84,4.22-4,.94-6.38-7-5-13.86-10.38-21.44-14.35-2.45-1.29-7.14.82-10.44,2.23A178.65,178.65,0,0,0,597.21,390c-1.72.95-3.07,2.59-5.13,4.39l-13.64-9.16C586.74,380.91,614.39,367.44,647.29,352Zm61.26,93.17c11.68,3.93,23.06,2.29,33.49-2.83,7.7-3.79,13.26-10.58,12.08-20.59,6.87,5.82,5.54,17.26-2.65,22.84-18.26,12.45-37.25,12.28-56.45,2.46-8.87-4.53-12.6-17.33-4.87-23.89C689.67,435.65,696.81,441.24,708.55,445.2ZM440.05,422c.05-.17.16-.9.28-1.78a2.4,2.4,0,0,1,3.82-1.6c.29.22.54.41.74.54,7.67,5,10.66,7.6,18.51,12.28,1.76,1,7.39-.47,8.92-1.41C497,414.91,534.19,392.9,547,385.62a47.58,47.58,0,0,1,9.66-4.5c1.61-.49,4,.23,5.56,1.24C582.7,396,603,409.85,623.41,423.61c6.7,4.52,13.44,9,20.18,13.41,5.14,3.39,9.15-.58,13.41-2.28,5.07-2,18.67-8.06,25.3-11-7.88,12.62,1.48,25.53,5.63,28,11.7,7,26.44,11.85,38.24,9.69,26.72-4.87,32.37-13.86,38.25-20.87,2.45,3.53-1.09,10.25-2.37,12.15-6.5,9.61-26.71,20.93-31.29,23.79-5.54,3.47-9.64,6.55-15.56,1.46-1.72-1.48-4.65-1.87-7.08-2.05a4.15,4.15,0,0,0-3.22,2.54c-.18,1.13,4.48,3.73,5.45,4.32,20.23,12.3,24.83,16,39.78,25.57,2.75,1.76,5.39,3.69,8,5.69,4.65,3.63,9.22,2.45,13.87.16,6.23-3.07,15-7.26,22.53-10.88-5.29,13.29,1.68,20.77,8.82,26.05,14.83,11,28.59,10.7,38.52,11.28,5,.29,16.28-1.31,26.13-6,3.16-1.51,6.1,2.42,0,7.68L852,553.9c-1,.7-2.47,1.92-3.37,2.7-3.93,3.38-7.85,5.47-13.48,1.78-3.46-2.27-7.69-2.12-11.64.72-1.58,1.14-4.57,1.11-6.64.57-3.35-.88-5.61-.9-5.39,1.91.13,1.7.52,5.7.52,5.7-3.79,2.67-8.22,6-10.52,7.5-30.06,19.61-41.16,26.1-61.79,41.67-4.93,3.72-8.93,9.19-7.72,16.57.16,1-1.42,2.68-2.58,3.44-10.33,6.72-23.72,15.82-35,21.73-4.4,1.1-3.37-4.74-.18-7.51,7-6.07,12.28-14.49,13.93-22.92a26.46,26.46,0,0,0-2.93-16.13c-7.74-14.12-16.13-21.82-33.66-22.22-8.63-.2-10.94.22-17.45,2.3a8,8,0,0,1-3.86.23c3.82-3.42,15.37-11.3,10.48-15l-39.21-27.59c-2.87-2-3.85-1.88-7.88.78-10.67,7-12.28,7.9-18.6,11.66-8.15,4.84-12.07,7.71-22.27,13.17-8.59,4.59-15.31,7.28-24.91,8.36-7.77.88-21.16.45-28-1.74-10.79-3.73-15.54-8.3-20-18.87-1-2.44-.52-6.33,2-3.18,15.44,17.65,34.51,15.72,42.21,14.85,27.87-3.13,38.78-16.3,41.89-22.3,4.64-9,1.82-22.88-4.39-30.79-8.74-11.13-20.85-13.66-33.72-14.69-2.41-.2-4.91.66-8.81,1.25,6.21-5,5.48-4,10.31-8.27,1-.92-5.44-4.77-13.3-10.4q-30.24-21.63-60.65-43c-4-2.85-8.29-5.61-13.65-1.36a17.68,17.68,0,0,0-7.15-11.9C448.07,428,446.61,426.86,440.05,422Zm198.1,219.44c6.36,2.69,13.91,3.47,20.93,3.46a36.68,36.68,0,0,0,25.1-9.47c5.36-4.82,7.87-10.59,7.29-17.75-.09-1.21,0-2.44,0-4.06,8.16,8,7.23,15.94,1.92,23.54-6.64,9.51-16.74,13.31-27.31,15.46-13.67,2.77-26.76.42-38.49-7.53-8.51-5.76-13.65-17.65-4-29.4C621.28,629.56,628.13,637.17,638.15,641.41ZM516.34,554.53c8.37,5.65,18.36,7.08,28.52,5.48,8.59-1.35,16.85-3.57,23.26-10,5.58-5.55,8.51-12,5.76-20.13,9.52,7.37,6.89,20.12-1.93,27.1-11.81,9.36-25.53,12.48-40.05,10.87-11-1.21-24.56-6.31-27.92-18.35-1.47-5.27-.15-9.7,3.4-14C506.44,543.9,510.37,550.49,516.34,554.53Zm-84.69-78.25q15.77-11.17,30.9-23.22c4.2-3.36,7.63-3.55,11.64-.3,2.38,1.92,4.87,3.71,7.39,5.61-8.92,6-17.86,11.92-26.66,18-3.19,2.21-3.08,5.92,0,8.06,6.46,4.53,13.17,8.75,19.36,13.62,2.61,2.05,4.51,1.85,6.75.35,8.05-5.39,16.13-10.73,24-16.44,1.41-1,1.66-3.66,2.5-5.7l32,22.95c-11.67,9.22-23.73,17.9-34.7,27.78-4.89,4.4-9.79,9.9-11.48,16.49a42.26,42.26,0,0,0-.9,14c.79,5.42,3.32,16.1,14.82,25.62,7.89,6.53,30.83,9.9,51.73,3.84,15.62-4.54,28.08-13.83,41.88-21.23,5.05-2.71,9.85-5.91,14.92-8.61,1.43-.76,4-1.39,5-.66,10.9,7.53,21.61,15.35,32.65,23.3-12.24,10.92-24.74,20.87-35.69,32.31-6,6.32-13.12,21.54-12.17,31.09,1.12,11.2,6.5,18.48,15.35,24.11,16.52,10.5,47.94,7.48,56,5.45,21.41-5.42,37.63-20.31,56.26-30.74,5.38-3,8-.68,11.22,1.62,7.49,5.29,14.68,11,22.13,16.33,1.3.93,3.29.92,5,1.28,1.07.23,2.4,0,3.2.56,7.78,5.47,15.68,10.81,23.07,16.77,2.13,1.71,2.89,5.23,4.07,8,7.94,18.62,15.33,37.5,24,55.76,2.56,5.38,8.46,9.4,13.36,13.38,13.29,10.77,26.85,21.2,40.33,31.74q18.72,14.64,37.49,29.22,27.54,21.31,55.17,42.53,19.7,15.1,39.49,30.09c4.65,3.54,9.36,7,13.95,10.63v0c10.06,7.56,29.49,22.72,39.78,30.55,11.74,8.94,23.41,18,35.1,27,4.42,3.41,26.36,17.82,34,21.72,1.26.65,5.4,1,6.73.26,14.7-8.3,27.79-18.28,35.78-26.44,5.16-5.27,9.51-9.58,14.24-15.31a7.15,7.15,0,0,0,.93-6.79c-4.55-10.38-12.27-18.47-19.81-26.78-12.28-13.54-24-27.57-36-41.35-5.21-6-10.53-11.86-15.16-18.63,3.73,1.09,16.44,0,20.47-3.71,4.3-3.91,4.38-6.6,3.3-10.82-.22-.86-.36-6.23,3.13-1.58,8.41,11.92,17,23.69,25.18,35.79a184.14,184.14,0,0,1,24.49,54.48.14.14,0,0,0,0,.06c2.53,5.85,5.29,11.24,1.78,18.17-3,6-7.48,10-12.29,14.07-8.57,7.2-17.29,14.23-25.75,21.56-9.21,8-18,17.2-30.76,18.39-8.41.78-17.21-.28-25.56-1.89-17-3.27-33.87-7.59-50.84-11.17a9.44,9.44,0,0,0-4.56.65,4.5,4.5,0,0,0-3.06,3.35v0c-17.25-10.81-34.57-21.5-51.71-32.48-12.24-7.83-24.25-16-36.33-24.1Q916.28,896.68,874,868.38c-22.67-15.16-45.37-30.27-68-45.56-14.68-9.93-28.94-20.5-43.82-30.12-19.8-12.83-40-25-62.28-33.32-16.84-6.26-29.55-12.77-45.89-20.25a277.25,277.25,0,0,1-25.41-13.75c-23.38-14.3-46.74-28.66-70.2-42.83-22.2-13.42-44.52-26.63-66.8-39.92-13.56-8.09-26-15.36-39.45-23.61-1.35-.82-3.08-3.78-3.84-5.44s-10.21-18.61-14.5-25.36C452,599.87,477.31,616,482.79,619.45a3.48,3.48,0,0,0,1,.3c4.81,1.12,17.44-11.94,15.55-16.44a36,36,0,0,0-6.57-10.92c-10.49-11-21.34-21.68-32.19-32.35q-20.52-20.19-41.27-40.16c-7.09-6.82-14.41-13.4-22-20.41C409.18,491.52,420.58,484.13,431.65,476.28ZM1083,994.35c-.88,8-1.73,15.88-2.74,25.18l-26.6-30.92ZM470.92,721.44c3.59,4.84,7.49,10.34,11.27,15-.3.33-1.48,3.26-1.78,3.59-8.26-6.33-22.66-20.51-30.94-26.86C457.69,709.5,459.6,706.18,470.92,721.44Zm-23.1-16.86c-9.9-10.49-14.41-15.48-19.07-20.59-3.62-4-9.65-6-14.07-2.93V667.18c3.46-1,8.37.81,11.87,3.39,9.43,6.94,16.18,16.91,23.67,26.28C449.9,697.31,448.14,704.12,447.82,704.58Zm25.8,9a428.63,428.63,0,0,0-59.07-61.88,8.18,8.18,0,0,1-2.4-4.76c-.88-6.6-.9-13.36-2.3-19.83-.77-3.59-3.24-7-5.62-10-3.72-4.68-8.21-8.76-12-13.4-2-2.43-4.33-5.54-8-14.28a1.7,1.7,0,0,1,2.42-2.12c12.14,7.09,46.89,28.12,54.9,32.82-3.51,3.64-1.79,5.56,1.89,7.71,17.64,10.36,35.07,21.07,52.67,31.49,22,13,44.07,25.88,66.08,38.87,3.4,2,6.58,4.36,9.93,6.45,2.61,1.64,5.06,3.31,8.38.66.91-.73,4,.54,5.65,1.56,15.26,9.38,30.21,19.3,45.71,28.27a363.62,363.62,0,0,0,33.49,16.66c18.22,8.15,36.67,15.77,55.22,23.7l-6.54,4.87c-4.37-2.05-42.84-17.65-58.39-24.09-4.33-1.79-6.42-1.08-8.32,3.25C638,780.85,628.36,802,619,823.36c-1.2,2.72-3,6.83,1.2,10.14,4.54,3.57,10.46,3.73,14.27,1.21,19.46-12.87,39-25.6,58.27-38.77,4.06-2.78,6.78-2.46,10.54,0,16.48,10.87,33,21.65,49.69,32.2,18.47,11.69,37.16,23,55.67,34.64,9.26,5.81,18.3,12,27.51,17.86,13.71,8.8,27.49,17.5,41.23,26.25,1.36.87,2.65,1.83,4.17,2.88-11.84,22.43-29.41,42.15-32.49,69.21-18.32-7.41-35.49-14.46-52.75-21.32-20.28-8.06-40.75-15.66-60.92-24-23.48-9.71-47-19.35-70-30.25-18.08-8.59-35.35-18.92-52.83-28.75a164.84,164.84,0,0,1-20.08-13c-3.91-3-6.84-7.34-10-11.25-9.18-11.35-18.26-22.8-27.38-34.21q-14.34-17.94-28.68-35.91c-7.3-9.21-14.49-18.51-21.77-27.74C494.37,739.53,484.15,726.43,473.62,713.57ZM405.09,643.9c0,1.08-.24,1.76-1.5.71-3.55-2.67-6.79-6-10.71-7.88-5.86-2.85-10.5-3.57-16.84-4.75-9.79-1.83-18.56-4.23-22.68-12.52a156.86,156.86,0,0,1-7.3-17.46c-3.34-8.66.18-16.62,3.32-24,1.36-3.23,6.91-5,10.88-6.64,1.19-.49,4.88,1.13,6.43,2.36,11.46,9,11.92,14.63,14.85,23.49a40.74,40.74,0,0,0,8.9,14.46c4.55,4.77,8.73,9,11.67,14.65S405.09,638,405.09,643.9ZM696.77,783c-21.79,14.51-42.9,29-64.48,42.85-3.34,2.14-6.27,1.25-4.1-3.47q12.3-26.79,24.67-53.54c.37-.79.82-1.54,1.26-2.35ZM364.59,546.45c6.7,2.17,7.3,7.22,8.06,12.61a10.88,10.88,0,0,0,4.31,6.7c9.09,6.07,18.4,11.82,27.83,17.35,3.86,2.26,8.28,5.48,11.83-1.09.42-.78,4.61-.87,5.17,0,5.74,8.64,11.11,17.53,16.58,26.36a1,1,0,0,1-1.39,1.43c-4.62-2.69-9.25-5.36-13.86-8.06-10.64-6.25-21.35-12.39-31.87-18.82-3.66-2.24-29.51-20.93-32.54-24.22C360.57,555.12,362.58,550.31,364.59,546.45Zm-55.1,67.14c4.41-22.29,4.71-34.59,15.4-53.11,1.9-3.29,5.83-8.67,8.41-13.77,8.61,6.4,15.21,12.35,23.91,18.82-3.6,1.49-6.83,2.61-9.82,4.18a7.29,7.29,0,0,0-3.44,3.61c-2.06,6.46-4.36,12.94-5.34,19.6-.57,3.94.63,8.15,1.3,12.58.06.43,7,18.79,6.71,19A143.81,143.81,0,0,0,327,642.43c-2.69,4.13-7.32,6.56-10.17,4.42-2.49-1.88-2.77-1.23-6.48-6.62C306,633.94,308.6,618.13,309.49,613.59Zm13.81,59.1A43.14,43.14,0,0,1,343.87,693a69.36,69.36,0,0,1,7,32,37.12,37.12,0,0,1-6.13,19.29c-3.11,4.7-9.57,6.53-18.84,3.08,2.75-2,5.58-3.84,8.2-6,6.87-5.56,9.18-13,8.52-20.86-.94-11.08-4.55-22.43-11.88-31.52-6-7.51-15.66-14.81-26.22-8.46C308.24,671.88,315.53,669.12,323.3,672.69Zm33.89,237.78a78.66,78.66,0,0,1-6.28,13.62c-.89,1.43-4.28,2.31-6.23,1.91-20.29-4.11-40.49-8.68-60.78-12.8-6.68-1.36-10.2-5.35-12.6-11.31-2-5.06-4.7-9.87-7.27-15.18,4.71.87,9.09,1.56,13.41,2.51q29.31,6.43,58.57,13c6.62,1.47,13.28,2.82,19.83,4.54C356.61,907,357.57,909.49,357.19,910.47Zm98.18,39.15-97-21c3-5.87,5.69-13.42,8.45-18.85l96.2,21.43C460.44,936.73,458,944,455.37,949.62Zm107,13.09c-6.38,5.92-13.46,6.85-20.71,5.18-12.58-2.9-75-16.11-76.86-16.67l8.27-18c27.06,5.81,54,11.42,80.8,17.56,3.64.83,9.41,4.2,9.91,6.77C563.81,959.59,563.48,961.71,562.4,962.71Zm47.94-3.48c-26.1-8.8-33-11-40-15.69C562.24,938,413,825,408.15,821.08c-7-5.65-23-17.29-27.76-21.59-4.17-3.75-3.22-11-2.35-16.48,1.55-9.88,4.36-19.56,6.37-29.38a3.59,3.59,0,0,0-.19-1.78,3.29,3.29,0,0,0-4.65-2,1.64,1.64,0,0,0-.67.63c-4.39,8.4-8.81,12.37-20.19,13.49-6.55.64-11.37-1.6-18.06-4,2.47-.33,12.2-2.64,16.51-6.23,6.43-5.37,9.6-16.84,10.18-26.48.55-9.17-.12-12.67-1.6-20.14a64,64,0,0,0-7.83-20.36c-3.84-6.41-6.16-10.35-11.47-15.64-7.89-7.84-17.05-9.13-30.9-10.06,6.76-5.35,17.61-16,27-17,1.82-.21,9.35.67,17.59,6.13,24,15.87,25.76,39.8,29.16,61.88.29,1.94.68,9.09,2.75,10.45,4.54,3,39.4,27.56,62.91,44.68,1.14.83,2.74,1.81,3,3,2.06,9.52,8.28,13.74,17.5,13.28,4.12-.21,6.38,1.86,9.2,4,6.46,4.86,15.68,21.88,16.76,23.53,14.41,22.09,28.57,44.34,43.27,66.24,13.5,20.1,22.88,40.18,42,56,4.65,3.85,10.66,6.33,16.4,8.53,19.54,7.49,76.1,26.82,82.88,28.86-3,2.05-9.33,6.46-9.67,6.73C671.39,981.23,626.27,964.59,610.34,959.23Zm93.77,55.13c-4.21-1.42-3.13-3.21-2.61-4.05,5-8-2.42-9.1-17-14.6-7.53-2.84-7.16-11.08,5-7.65,32.73,9.92,44.16,11.67,44.65,11.32,1.62-1.19,9.61-10.22,11.77-11.32,2.89.79,88.15,24.23,92.54,25.25-7.35,16-10.34,21.88-15.8,34.35C812.28,1044.77,709.4,1016.14,704.11,1014.36ZM965.53,1086l-16.64-4.3q-16.7-4.31-33.52-8.67-8.42-2.18-16.81-4.39c-11.86-3.12-23.8-6-35.78-9.06-10.52-2.71-21.07-5.61-31.63-9.09l3.61-7.48,10-20.69,99.17,27.55L977,1059Zm136.52-9q-33.93-9-67.82-18.25-29.52-8-59-16c-24.66-6.73-49.39-13.21-73.87-20.54-5-1.48-9.2-5.94-13.29-9.57-9.78-8.69-19.44-17.53-28.75-26.71a10.29,10.29,0,0,1-2.34-8.11c3.94-19.46,13.79-36.31,24-53q8.19-13.29,16.11-26.74c.94-1.59,1.22-3.57,1.81-5.39,29.45,19.56,59,38.65,87.88,58.57,18.91,13,38.89,26.69,59.2,37.35.22.11,1.52,4.89,2.93,6.61,7,8.49,14.38,16.72,21.55,25-1.8,1.2-4.54,2.13-4.66,3.33-.18,1.73,1.21,3.92,2.49,5.47,6.19,7.55,13.09,14.57,18.7,22.51a26.88,26.88,0,0,0,17,11.29c4.12.87,4.27,2.69,4.44,5.89s1.1,6.17,1.78,9.67A80.31,80.31,0,0,1,1102.05,1077Zm8-26.83c-9.3-4-21.71-16-19.07-29.36,1.53-7.74,1.83-15.73,2.78-24.54l18.81,2.6c.83,2.41,1.18,4.8,2.37,6.65l6.94,10.52c4.19,6.3,8.43,12.58,12.62,18.9q8.41,12.72,16.66,25.55c.88,1.37,1.23,3.08,2,5.14C1138.18,1060.32,1110.05,1050.15,1110.05,1050.15Zm159.52,8.07c-.59,9.36-31.39,33-51.65,40.3-2.54.92-3.36.1-6.47-2.44-1.3-1.06-2.08-4.14-3.84-5.32q-9.18-6.09-18.85-11.43c-1.93-1.07-4.63-.66-6.76-1.5-7.72-3-12.11-9.62-16.51-16.16q-15.18-22.56-30.39-45.12c-3.68-5.48-7.26-11-11-16.71,12.5-1.76,23.09-5.47,32.24-13.66,12.92-11.56,26.59-22.27,39.74-33.57,2.81-2.41,4.8-5.77,7.48-9.08,8,11.6,16.06,23.29,24.19,34.91s16.25,22.83,24.14,34.41c1.2,1.76.79,4.53,1.49,6.72q3.87,12,8,23.93c.51,1.45,1.74,3.76,2.67,3.78,5.86.09,4.57,4.15,5,7.67a22.32,22.32,0,0,0,.5,3.26ZM982.34,931c3.12,3.78,5,5.18,13.65,7.38,1.89.48,16.68,2.38,24-.19,3.77-1.32,9.26-10.06,10.45-19.33.76-5.85-3.25-14.9-8.54-17.51-4.84-2.4-12-5.08-18-4.48-5,.5-8.32.64-14.36,3.73a40.68,40.68,0,0,0-6.64,4.25c-5,4.38-5.67,14.85-3.1,21C980.49,927.42,981.13,929.49,982.34,931ZM537.71,652.1q27.25,19.78,54.74,39.25c1.08.77,3.07.71,4.46.35.58-.15,1.3-2.79.93-3.11-3.33-2.88-.6-5.35.53-7.63a59.85,59.85,0,0,1,5.33-8.13c3.38-4.67,2.93-9.33-.71-14.24A100,100,0,0,1,593.36,642c-.45-.94-1.6-2.14-1.45-3.09.66-4.23,1.82-8.38,2.34-12.62.29-2.34.57-5.49-.69-7.05-3.34-4.17-6.94-8.83-11.52-11.13a28.32,28.32,0,0,0-8.08-2.37,61,61,0,0,0-14-.61c-4.41.3-8.3.55-11.78,1.87-5.58,2.11-24.32,9.9-19.8,33.23C529.57,646.22,535,650.11,537.71,652.1Zm1-33.14c7.94-8.17,21.42-9,31.68-8,2.81.28,5.67,1.8,8.15,3.32a28,28,0,0,1,6.95,6,10.71,10.71,0,0,1,2.16,6.19c0,2-1.44,4-1.77,6.12-.77,4.87-1.46,9.52,2.07,14.14,4,5.22,7,11.17,10.23,16.94a5.39,5.39,0,0,1,0,4.43c-2.35,4.41-5.09,8.62-8.12,13.62-18.06-14.81-39-24.6-55.93-41.58,8.21-2.65,15.45-5,22.66-7.33,2.61-.86,5.75-1.8,4.53-5.46-1.18-3.51-3.82-2-6.34-1.21-7.1,2.19-14.29,4.11-22,6.3C533.37,626.79,538.28,619.44,538.75,619ZM995.08,998.65a4,4,0,0,0-.51-.25c-9.92-4.06-48.92-16.78-49.72-17-8.91-2.59-17.82-5.2-26.8-7.51-.94-.24-2.77,1.19-3.51,2.3-5.37,8.05-6,17.09-3.14,25.85,2.47,7.64,5.2,12.93,16.16,15.85,5.73,1.85,12.91,2.81,19.39,4.11,10,1,29.93-4.93,36.47-6.7l.07,0c3.18-.91,2.63-5.77-.68-6a6.94,6.94,0,0,0-.79,0c-4,.18-8,1.19-14,2.19,5.29-7.41,1.9-9.78-2.3-15.79,10.28,3.93,17.65,4.87,26,8.73l.26.12C995.67,1006.13,998.6,1000.69,995.08,998.65ZM435.84,526.41a4.27,4.27,0,0,0,4.55-.07l0,0C448.64,520.58,457,515,465,509c5-3.8,3.86-6.16-2.35-9.94a116.22,116.22,0,0,1-14.86-10.42c-3.46-2.94-6.17-3.62-9.63-1.1-7.67,5.6-15.47,11-23.24,16.51-4.05,2.84-3.93,4.28.22,7.33,5.07,3.73,9.91,7.76,15,11.49A61.76,61.76,0,0,0,435.84,526.41Zm74.1-94.51c1.84,1.67,4.77,2.23,7.3,3,2,.62,5.45-.93,7,.16,8.57,5.9,17,12.06,25.3,18.33,3.81,2.87,5.29,4.75,7.93,8.57-4.45,6.1-6.83,13.8,3.07,6.83,6.56-4.62,18.22-11.46,25.12-15.57,6.58-3.93,13.18-7.85,19.56-12.1a2.46,2.46,0,0,0,.54-.53,3.24,3.24,0,0,0-2.43-5,8.72,8.72,0,0,0-.89,0c-1,0-1.85,1.33-2.82,1.42-1.95.17-4.45.65-5.81-.3-11.63-8.1-23.08-16.47-34.52-24.84a4.62,4.62,0,0,1-1.94-2.89c.13-7.14.13-10.15-7.73-5.83-.47.26-26.39,16.11-38.16,22.87C508.49,427.69,507.69,429.84,509.94,431.9Zm134.58,90.92c.52,2.78,1.71,6.7.39,8.31-3.52,4.29-1.47,6.7,1.7,9,5.5,4,11.31,7.56,16.82,11.54,4.38,3.16,8.21,4.3,12.81,0,3.62-3.37,4.58-7.64.31-9.65-9.45-4.43-12.54-12.9-16.17-21.53a21,21,0,0,0-13.67-11.92c-4-.41-5.31,1.64-4.68,5C642.61,516.69,643.94,519.68,644.52,522.82ZM632,378.88c5.33,3.67,10.66,7.35,16.11,10.82a68.39,68.39,0,0,0,7.06,3.58c1.59.91,5.7-1.35,6.3-1.65,7.72-3.81,12.58-6,20.1-10.21,3.4-1.87,2.88-5.68-.67-7.89-6.25-3.86-12.43-7.86-18.9-11.33-2-1.06-5.19-1.49-7.17-.65-7.69,3.26-15.12,7.13-22.63,10.8C628.94,374,628.82,376.66,632,378.88Z"/></g><g id="Thrusters"><path d="M992.93,912.17c-.95,1.08-5.11,6.09-3.82,10.39,1.4,4.69,9.91,8.8,20.74,6.18s10.24-11.85,8-14.19C1010.78,907.31,999.54,904.65,992.93,912.17Zm142.76-92.83c-7.85-7.38-30.62-6.23-26.41,5.22,2.12,4.68,11.45,11.21,19.07,9.63,2.87-.59,7.06-1.27,8.82-6.6C1138.24,824.34,1137.05,820.63,1135.69,819.34ZM949.8,993.67c-7-1.49-13.08,2.4-13,9.56,0,6.58,11.38,13.84,17.79,11.91,6.1-1.83,10.84-7.11,7.84-11.52C959.28,999.06,956,995,949.8,993.67Z" fill="#007aff"/></g></g></svg>