<svg xmlns="http://www.w3.org/2000/svg" viewBox="0 0 1500 1500"><title>Keelback</title><g id="Keelback"><g id="Colour"><path d="M1317.9,860.61c-.88-8.57-2.06-17.11-3.28-25.64-.93-6.5-.71-13.35-5.44-18.8a59.85,59.85,0,0,1-4.84-6.47c-5.4-8.25-10.66-16.6-16.07-24.85-7.87-12-15.86-23.92-23.74-35.92q-21.9-33.36-43.73-66.78-10.6-16.2-21.29-32.37c-11.81-17.85-21.88-36.92-38.21-51.56-9.27-8.32-17.43-17.88-26-27-1-1.07-2.29-3.09-1.91-4.07,3.75-9.52,5.95-19.29,5.35-29.55-.17-2.79-.15-6.14-1.65-8.22-3.94-5.47-8.65-10.39-13.07-15.52-3.27-3.78-6.14-8.06-10-11.15-4.4-3.55-9.67-6-14.55-9-21.78-13.17-43.57-26.3-65.27-39.58a7.29,7.29,0,0,1-3.26-4.44,92.78,92.78,0,0,0-15.2-39.78,11,11,0,0,1-1.67-9.44,15.82,15.82,0,0,0-1.83-10.19c-2.46-4.39-7.49-7.37-12-5-4.73,2.46-7.35-.15-10.6-1.71-2.57-1.24-4.7-3.37-7.25-4.65-10.91-5.47-22-9.81-34.55-5.38a9,9,0,0,1-5.86-.13c-3.93-1.58-7.63-3.76-11.43-5.66-16.88-8.45-33.83-16.79-50.63-25.38-8.29-4.25-15.82-4-23.49,1.61-6.94,5.07-14.45,9.36-21.52,14.27-2.23,1.56-3.83,4-5.95,6.32-2.75-1.67-6.2-3.89-9.76-5.92-15.06-8.57-29.74-17.95-45.35-25.37-14-6.64-29-11.18-43.53-16.48-16.13-5.87-32.32-11.58-48.5-17.3-11.08-3.93-22.3-7.5-33.26-11.74-6.22-2.41-12-5.92-18-8.81a20.38,20.38,0,0,0-5.54-1.78c-6.48-1-12.08,1.7-17.38,4.82a70.88,70.88,0,0,1-22.82,8.51,50.38,50.38,0,0,0-14.14,5.36C556,304.09,541.43,312.6,527,321.25c-3.44,2.06-6,5.55-9.46,7.57-6.42,3.76-11.34,8.88-15.64,14.77a3.31,3.31,0,0,1-1.65,1.39c-7,1.31-10.5,6.41-12.64,12.38A28.75,28.75,0,0,0,486,368.54c.68,11.16,1.92,22.29,2.88,32.81-5,2.25-9.41,3.81-13.38,6.09-12.76,7.32-25.39,14.89-38,22.44-2.87,1.72-6.2,3.25-8.17,5.77a167.93,167.93,0,0,0-11.93,17.88c-2.09,3.53-4.76,4.8-8.46,4a22.72,22.72,0,0,1-7-2.6c-11.51-7.24-22.71-15-34.43-21.89-5-2.93-11-5.77-16.46-5.72-5.2.05-10.6,3.51-15.51,6.22-9.57,5.29-19,10.93-28.24,16.75-10.7,6.7-22.09,12.08-32,20.44-8.48,7.17-19.41,11.37-28.95,17.37-6.88,4.33-16,6.16-18.87,15.45-.2.62-29.74,14-35.69,27-1.54,3.35-3.35,7-3.39,10.49-.3,23.46-.06,46.92-.24,70.38a17.37,17.37,0,0,0,4,11.33c8,10.56,16.23,21,23.33,32.17,14.73,23.1,28.78,46.62,43.37,70.39-4.78,3-9.39,5.44-13.55,8.52-3.56,2.64-8.1,5.41-7.36,10.67,1.56,11,3.73,21.89,5.7,32.82,2,11.46,3.67,23,6.42,34.34,1.89,7.8,3.31,16.11,11.27,21.19,4.66,3,8.41,7.38,12.58,11.14l-2.16.88c-.69,2.11-2.44,4.6-1.86,6.27,1.55,4.45,3.11,9.77,6.49,12.51,5.88,4.78,8.87,10.93,12.57,17.09a242.47,242.47,0,0,0,20.28,29.13c5.78,7,12.49,13.8,20,18.82,7.3,4.85,19.09,16.91,38.51,13.38,4.56-1.38,9-1.9,14-3.52,9.91,8.61,21.1,18.38,32.33,28.09,7.67,6.62,15.36,13.22,23.14,19.71,12.47,10.41,25.07,20.68,37.52,31.1,12.06,10.1,23.93,20.43,36.13,30.36,1.44,1.17,5.17,1.42,6.64.39,11.74-8.3,23.26-16.93,34.68-25.67,2.29-1.76,4.77-4.15,5.62-6.75,1.69-5.21,2.1-10.82,3.46-16.15a13.15,13.15,0,0,1,3.51-5.63c.34-.34,3,1.29,4.29,2.31,2.45,1.85,4.68,4,7.08,5.9,5.91,4.73,11.31,10.48,17.91,13.88,13.18,6.79,27,12.3,40.61,18.3,18.82,8.33,37.55,16.89,56.52,24.88,22.09,9.29,43.15,21,66.66,27,15.4,3.9,30.43,9.25,45.71,13.64,14.76,4.24,29.68,7.89,44.43,12.14,23.7,6.82,47.29,14,71,20.88q36.85,10.68,73.8,21c4.42,1.25,9.12,3.11,13.45,2.61s8.67-3.31,12.67-5.67a11.25,11.25,0,0,0,4.45-5.45q6.12-16.85,11.61-33.92a40.65,40.65,0,0,0,2.3-11.53c.11-5-.8-10-1.31-15.46,12.23-2.29,23.71-4.3,35.12-6.61q29.76-6,59.45-12.44c2.58-.56,6.14-.22,6.35-5.1.1-2.11,3.31-2.93,6.09-.81,9.56,7.31,19.41,14.24,29,21.53,3.33,2.53,7,5.07,10.84,3.22,10.89-5.3,23.49-6.94,33-15.18,3.44-3,6.54-6.37,10-9.38,11.16-9.8,22.47-19.43,33.51-29.36,1.49-1.34,2.26-4,2.52-6.11.62-5,.78-10.1,1-15.16.46-9.11,5.85-17.73,1.45-27.41-2.61-5.74-2.19-12.91-5-18.48-4.58-9-7.79-17.45-1.93-27,1.27-2.07,1.51-4.74,2.38-7.08,2.57-6.93,5.22-13.83,8-21.2,4.57,3.92,8.63,7,12.17,10.54,3.13,3.16,5.49,2.77,8.19-.3,3.9-4.45,7.72-9,11.93-13.13,9.16-9,16.22-19.2,17.9-32.26A53.48,53.48,0,0,0,1317.9,860.61Z" fill="#444b70"/><path d="M1317.9,860.61c-.88-8.57-2.06-17.11-3.28-25.64-.93-6.5-.71-13.35-5.44-18.8a59.85,59.85,0,0,1-4.84-6.47c-5.4-8.25-10.66-16.6-16.07-24.85-7.87-12-15.86-23.92-23.74-35.92q-21.9-33.36-43.73-66.78-10.6-16.2-21.29-32.37c-11.81-17.85-21.88-36.92-38.21-51.56-9.27-8.32-17.43-17.88-26-27-1-1.07-2.29-3.09-1.91-4.07,3.75-9.52,5.95-19.29,5.35-29.55-.17-2.79-.15-6.14-1.65-8.22-3.94-5.47-8.65-10.39-13.07-15.52-3.27-3.78-6.14-8.06-10-11.15-4.4-3.55-9.67-6-14.55-9-21.78-13.17-43.57-26.3-65.27-39.58a7.29,7.29,0,0,1-3.26-4.44,92.78,92.78,0,0,0-15.2-39.78,11,11,0,0,1-1.67-9.44,15.82,15.82,0,0,0-1.83-10.19c-2.46-4.39-7.49-7.37-12-5-4.73,2.46-7.35-.15-10.6-1.71-2.57-1.24-4.7-3.37-7.25-4.65-10.91-5.47-22-9.81-34.55-5.38a9,9,0,0,1-5.86-.13c-3.93-1.58-7.63-3.76-11.43-5.66-16.88-8.45-33.83-16.79-50.63-25.38-8.29-4.25-15.82-4-23.49,1.61-6.94,5.07-14.45,9.36-21.52,14.27-2.23,1.56-3.83,4-5.95,6.32-2.75-1.67-6.2-3.89-9.76-5.92-15.06-8.57-29.74-17.95-45.35-25.37-14-6.64-29-11.18-43.53-16.48-16.13-5.87-32.32-11.58-48.5-17.3-11.08-3.93-22.3-7.5-33.26-11.74-6.22-2.41-12-5.92-18-8.81a20.38,20.38,0,0,0-5.54-1.78c-6.48-1-12.08,1.7-17.38,4.82a70.88,70.88,0,0,1-22.82,8.51,50.38,50.38,0,0,0-14.14,5.36C556,304.09,541.43,312.6,527,321.25c-3.44,2.06-6,5.55-9.46,7.57-6.42,3.76-11.34,8.88-15.64,14.77a3.31,3.31,0,0,1-1.65,1.39c-7,1.31-10.5,6.41-12.64,12.38A28.75,28.75,0,0,0,486,368.54c.68,11.16,1.92,22.29,2.88,32.81-5,2.25-9.41,3.81-13.38,6.09-12.76,7.32-25.39,14.89-38,22.44-2.87,1.72-6.2,3.25-8.17,5.77a167.93,167.93,0,0,0-11.93,17.88c-2.09,3.53-4.76,4.8-8.46,4a22.72,22.72,0,0,1-7-2.6c-11.51-7.24-22.71-15-34.43-21.89-5-2.93-11-5.77-16.46-5.72-5.2.05-10.6,3.51-15.51,6.22-9.57,5.29-19,10.93-28.24,16.75-10.7,6.7-22.09,12.08-32,20.44-8.48,7.17-19.41,11.37-28.95,17.37-6.88,4.33-16,6.16-18.87,15.45-.2.62-29.74,14-35.69,27-1.54,3.35-3.35,7-3.39,10.49-.3,23.46-.06,46.92-.24,70.38a17.37,17.37,0,0,0,4,11.33c8,10.56,16.23,21,23.33,32.17,14.73,23.1,28.78,46.62,43.37,70.39-4.78,3-9.39,5.44-13.55,8.52-3.56,2.64-8.1,5.41-7.36,10.67,1.56,11,3.73,21.89,5.7,32.82,2,11.46,3.67,23,6.42,34.34,1.89,7.8,3.31,16.11,11.27,21.19,4.66,3,8.41,7.38,12.58,11.14l-2.16.88c-.69,2.11-2.44,4.6-1.86,6.27,1.55,4.45,3.11,9.77,6.49,12.51,5.88,4.78,8.87,10.93,12.57,17.09a242.47,242.47,0,0,0,20.28,29.13c5.78,7,12.49,13.8,20,18.82,7.3,4.85,19.09,16.91,38.51,13.38,4.56-1.38,9-1.9,14-3.52,9.91,8.61,21.1,18.38,32.33,28.09,7.67,6.62,15.36,13.22,23.14,19.71,12.47,10.41,25.07,20.68,37.52,31.1,12.06,10.1,23.93,20.43,36.13,30.36,1.44,1.17,5.17,1.42,6.64.39,11.74-8.3,23.26-16.93,34.68-25.67,2.29-1.76,4.77-4.15,5.62-6.75,1.69-5.21,2.1-10.82,3.46-16.15a13.15,13.15,0,0,1,3.51-5.63c.34-.34,3,1.29,4.29,2.31,2.45,1.85,4.68,4,7.08,5.9,5.91,4.73,11.31,10.48,17.91,13.88,13.18,6.79,27,12.3,40.61,18.3,18.82,8.33,37.55,16.89,56.52,24.88,22.09,9.29,43.15,21,66.66,27,15.4,3.9,30.43,9.25,45.71,13.64,14.76,4.24,29.68,7.89,44.43,12.14,23.7,6.82,47.29,14,71,20.88q36.85,10.68,73.8,21c4.42,1.25,9.12,3.11,13.45,2.61s8.67-3.31,12.67-5.67a11.25,11.25,0,0,0,4.45-5.45q6.12-16.85,11.61-33.92a40.65,40.65,0,0,0,2.3-11.53c.11-5-.8-10-1.31-15.46,12.23-2.29,23.71-4.3,35.12-6.61q29.76-6,59.45-12.44c2.58-.56,6.14-.22,6.35-5.1.1-2.11,3.31-2.93,6.09-.81,9.56,7.31,19.41,14.24,29,21.53,3.33,2.53,7,5.07,10.84,3.22,10.89-5.3,23.49-6.94,33-15.18,3.44-3,6.54-6.37,10-9.38,11.16-9.8,22.47-19.43,33.51-29.36,1.49-1.34,2.26-4,2.52-6.11.62-5,.78-10.1,1-15.16.46-9.11,5.85-17.73,1.45-27.41-2.61-5.74-2.19-12.91-5-18.48-4.58-9-7.79-17.45-1.93-27,1.27-2.07,1.51-4.74,2.38-7.08,2.57-6.93,5.22-13.83,8-21.2,4.57,3.92,8.63,7,12.17,10.54,3.13,3.16,5.49,2.77,8.19-.3,3.9-4.45,7.72-9,11.93-13.13,9.16-9,16.22-19.2,17.9-32.26A53.48,53.48,0,0,0,1317.9,860.61Z" fill="none" stroke="#000" stroke-linecap="round" stroke-linejoin="round" stroke-width="8"/></g><g id="Paint"><path d="M1022.38,906.82l-8-12-56.59-61L902.75,787.3l-24.66-18.19L846,770l16.78,12.94,9.39,7.12L866,792.81l-42.16-27.15-26,.74,54.86,38.17-2.61,21.58-18.28,7.78-63.06-47.7L728,782.9l-45.47-33.07h-36.3l-9.08,2.7-42.62-34.86L586.93,721,787.5,883l145.76,23.8h49.15l5.14,12,83.21,75.44,19-22.1-54.86-49.75ZM1153,778.9l.49-49.88-.42-52.91-19.75-51.48s-14.42-32.47-19.24-31.51S933.26,481.74,933.26,481.74l-12.49,5.08,48.35,31.95-4.53,5.73V548l42.87,27.73L1010,598.3l65,44.92-9.34,7.33-54.9-35.15v21.22l37.48,26.75s-5.68,2.07-7.88,1.23-29.6-18.72-29.6-18.72l2.49,23.3,44.87,27.57,34.32,34.47,58.67,51.68L1188,818.49l15.52,36.38,11.19,12.36,23-11.28v-6.66Z" fill="#c6c9e0"/></g><g id="Grey"><path d="M321.78,470.46c4.45,6.35,12.52,12,18.64,8.29,2.4-1.47,15.18-8,18.12-9.72-4.2-3.34-8.47-10.07-16.29-10.34C336.43,458.48,329.39,463.21,321.78,470.46ZM578.25,317.92c-8.48.47-19.28,8.41-22.9,12.27,3.54,4.49,10,10.07,17.41,10.48s13.49-6.25,19.56-13C585.67,320.92,583.52,317.62,578.25,317.92Zm497.86,463.41c-.55-1.89-17.89-11.14-20.11-11.22-3-.11-13,9.89-12.89,12.67s16.11,11,19.67,11S1076.67,783.22,1076.11,781.33Z" fill="#aaa"/></g><g id="Canopy"><polygon points="1258.25 973.51 1240.52 912.14 1234.29 901.5 1183.78 945 1125.78 960.56 1122.89 978.33 1137.78 1039.44 1134.26 1048.12 1171.93 1081.06 1182.2 1083.67 1209.1 1071.13 1253.37 1034.09 1258.25 1023.1 1262.83 987.75 1258.25 973.51" fill="#82b3d1"/></g><g id="Shadows" opacity="0.2"><path d="M568.24,909.81l-34.38,33.62L385.36,811.89l-4.89-18.7,23.31-31.63S296.59,680.9,289.57,670.25s-68.06-97-68.06-97l-28-35.72-5.36,76.9,30.7,45.86,45,65.76-20.72,12-4.54,10.88,15.34,75.44,20,19.57-.76,11s8.77,16.77,31.64,49.24S363,942.57,363,942.57l18.74-4.07,114.74,97.3L564.76,994,594,1016l144.83,64.1,263.79,76.33,18.72-75.56S776.47,994,743.72,983.33,568.24,909.81,568.24,909.81Zm573-4-36.76-23.41L1065.87,847l-24.06-22.61-305.88-210-29.72-6s-94.41-68.06-105.55-76.11-10.48-8.76-10.48-8.76l28.56-31.91-54.63,37.52-7.06,15.66,15.71,24.11s85.41,58.89,106.29,74.93,23.9,6.68,36.5,14.05,34.13,25.21,34.13,25.21H772s74.67,55.64,89.51,65.86,51.32,38.57,58.28,49.2,71.29,97,71.29,97l91.27,83.53,9.7,24.56L1029,1044.1l-4.53,17.22,5.29,22.35,113.21-24.14,34.83,25s-.8,5.09,20.54-6.19c17.45-9.23,0-114.21,0-114.21ZM328.36,536.42l21.7-7.87V511.9l-20.12-14.69L283.22,470l-25,11.37,2.93,11.85Zm193.5-141.8L520.6,380l3.74-12.67,43.9,23.5,24.08-.26-6.15-12.06-73-40.48-20.66,15.75-7.41,19.38,7.41,27.5Zm2.48,101.48,16.71-8.74,55-34.32-46.74-37.22H535.86L558.17,453l-57.73,32.75Zm280.87,57.24-5-8.5-98-64.1-19.09-3.1-10.35,9.72,24.1,36.14Zm483.4,270.54-57.44,76.59,8.16,5.35,10.23,37.61,39-83.33,9.18-35.73Zm-210.37-43.22-18.35-15.26-10.2,7.86L1071,788.05Z" fill="#111"/></g><g id="Outline"><path d="M610.41,532.1c23.7,16.88,45.55,34.08,69.42,50.72,9.28,6.47,15,10.17,24.46,16.36a21.23,21.23,0,0,0,7.76,3.22A146,146,0,0,0,736,604c9.54-.09,20.29-7.3,19.75-7.5q16.23-11,32.47-22.1c1.33-.9,2.6-1.91,3.88-2.9,3.09-2.42,13-6.86,16.83-13.39,5.29-8.94-1.33-15.11-9.62-20.57-25-16.5-52-35.17-77-51.68-7-4.64-16.22-10.92-23.65-14.79-6.73-3.5-9.64-3.59-15.44-1.84-13.21,8.37-44.93,27.72-58.08,35.74-1.29.79-19.71,12.14-18.06,20.7C607.49,527.7,608.6,530.81,610.41,532.1Zm38.73,10c-2.35-2.68,18-2,25.16,8.53a.75.75,0,0,1-.71,1.16C658.52,550,655.48,548.75,649.14,542.09Zm139.44-1c3.11,1.54,11.34,7.66,11.66,10.7-20.38,13.91-41,27.58-61.14,42-6.09,4.35-10.32,2.91-15.94,2.06-3.55-3.45-5.8-6.27-8.64-8.27-11.28-8-22.73-15.66-34.15-23.41-2.14-1.46-4.43-2.68-6.73-4.06s.79-1.23,1-1.24c10.32-.58,10.47-.83,5.84-10.09l-4.08-8.2c13.05-8.57,38.09-26.26,48.29-30.69,7.8,3.65,14.73,6.75,21.53,10.11C760.36,527,774.42,534.15,788.58,541.14Zm-71.36-47.72,24.52,14.85c1.14.69,2,2.16,1.19,3.37-.06.08-.23.26-1,.26-4.59,0-20-7.38-26.24-16.94A1.1,1.1,0,0,1,717.22,493.42Zm-14.49,13.83c1.09,1.6,2.2,3.2,3.48,5-11.09,7-22,14.12-33.2,20.74-2.36,1.4-5.87,1.52-8.75,1.24-4.78-.48-9.47-1.75-14.16-2.68,1.07-7.08,7.21-10.55,12.72-14.29,7.09-4.81,14.58-9,21.81-13.63C693.48,498,696.84,498.61,702.73,507.25Zm-22.89-21.17c1.61-1,4.83.74,7.56,1.65,1,.49,1.23.83.06,1.51l-39.05,25.09L643,509.56C655.12,501.71,667.31,493.61,679.84,486.08Zm45.4,503.84c-3.1.13-6.21,0-9.75,0-1.25-10.28-9.44-12.54-16.7-15.24-23.28-8.64-46.72-16.85-70-25.34-6.17-2.25-8.9-1.67-13.08,3.66a19,19,0,0,0-2.68-3.26,13.79,13.79,0,0,0-1.78-1.14,3.37,3.37,0,0,0-4.76,3.49,23,23,0,0,0,4,7.34c5.14,6.77,6,11.55,3,15.94l-2.62-1.48a3.59,3.59,0,0,0-5.29,2.47,12.86,12.86,0,0,0,.94,4.55c2.15,3.83,4,7.91,6.54,11.45,1.88,2.59,4.36,5.32,7.19,6.55,8,3.47,16.37,6.14,24.54,9.23,18.38,6.94,36.7,14,55.13,20.83a6.67,6.67,0,0,0,5.52-.76,24.8,24.8,0,0,1,17.57-5.61c.71,0,1.48-1.11,2.26-2.48a4,4,0,0,0-2.11-5.78,4.4,4.4,0,0,0-.47-.1,90.86,90.86,0,0,0-10.79-.25c-.15-1.43-.19-2.41-.21-3.44-.28-11.41,1.42-12.63,10.13-11.85,1.09.1,2.21-.07,3.3,0,3.48.31,4.37-1.49,4.35-4.65S728.27,989.8,725.24,989.92ZM253.93,635.74c-4.11-5.53-14.23-21.61-17.69-25.94-1.25-1.55-4.21-3.11-5.78-2.63s-2.68,3.49-3,5.55a67.37,67.37,0,0,0-.32,10.92c.14,7.14-.59,14.5.94,21.34,1.18,5.27.48,5.78,3.05,10.8,4.48,8.77,23.24,37.32,28.28,42.64,1,1,3.42,1.15,5,.82.84-.17,1.73-2.18,1.84-3.43.62-7,1-14.1,1.63-23.66-.59-3.29-.79-9.23-2.8-14.46C262.15,650,258.78,642.25,253.93,635.74ZM338.33,487c9-5.55,18.08-10.91,26.8-16.82,3-2,1.34-4.22-2-6.18-4.37-2.55-7.49-4.94-13.79-8.66-6.11-3.61-10.65-2.79-11.84-2.06-8.36,5.07-16.74,10.1-25,15.36a4.8,4.8,0,0,0-1.95,3.84c.2,1.33,1.32,2.49,2.8,3.48,7.68,4.73,20.08,9.95,22.84,11.39A7.21,7.21,0,0,0,338.33,487Zm-11.71-19c4-3.41,9.46-7.22,14.41-7.52,4.16-.26,7.91,2.24,11.56,5.27a3,3,0,0,1-.53,4.9c-3.85,2-8.91,4.46-10.61,5.5C336,479.44,332,477,326.58,472A2.71,2.71,0,0,1,326.62,468ZM652.44,844.51c6.62-7.63,13-15.47,19.58-23.15,4.86-5.7,10-11.14,14.67-17a2.36,2.36,0,0,0,.28-.42c1.5-2.75-2-5.78-4.49-3.87a3.39,3.39,0,0,0-.34.31c-11.74,12.17-23.25,24.58-34.89,36.85a10.75,10.75,0,0,1-4.29,3c-18.15,5.28-36.36,10.34-54.48,15.71a2.81,2.81,0,0,0-.78.38,3.74,3.74,0,0,0,.19,6.16l.11.07a43.63,43.63,0,0,0,4.52-.52c18.31-4.66,36.62-9.29,54.88-14.12A11,11,0,0,0,652.44,844.51Zm-189-243a2.77,2.77,0,0,0-.38-5.24l-.28-.07c-3.3-.66-7.36.21-9.95-1.4-16-9.91-31.65-20.25-47.33-30.6-14.67-9.69-29.18-19.63-43.91-29.24a2.67,2.67,0,0,0-.77-.33,3.35,3.35,0,0,0-3.81,4.52,3,3,0,0,0,1,1.46c11.47,7.92,23.18,15.49,34.85,23.12q28.32,18.51,56.71,36.92a37.57,37.57,0,0,0,5.58,2.53c3.35-.63,5.9-.83,8.24-1.65ZM819.94,842.46c-3.12-2.51-6.89-4.17-7.73-8.81-.2-1.15-2.17-3-3-2.85-5.38.94-8.26-2.77-11.94-5.37-1.13-.81-4.89-2.17-5.53.58-.28,2.43.33,2.94.86,4.25.94,2.29,3.29,3.79,4.31,5.84-4.48,4.27-9.74,8-14.4,1.78-2.43-2.88-7.42-2.52-5.68,2.16,1.18,2.2,19.17,16.2,22.47,18.12,5.51,3.19,6.94,2.71,7.15-3.44.11-3.16,1-5.36,4.54-5.48a68.65,68.65,0,0,0,7.18-.16,8.08,8.08,0,0,0,1.94-.56,2.85,2.85,0,0,0,1.42-4A6.28,6.28,0,0,0,819.94,842.46ZM437.39,681c-1.65-1.5-5.43-1.67-5.54.55-.25,5.37-1.21,38.58-1.62,57.37-.05,2.74.44,4.62,3.81,4.63s3.86-1.68,4-4.5c.39-10.92,1.29-48.16.85-55.83A3.79,3.79,0,0,0,437.39,681Zm214.82-333.8c8.16-6.29,2-15.58,1.17-17.05-.65-1.18-1.24-2.12-1.81-2.19-5.87-.75-10.9-.19-15.08,2.09-14.29,7.79-28,16.59-41.93,25.1-7,4.28-15.14,7.21-19,15.29A7.86,7.86,0,0,0,575,372a6.6,6.6,0,0,0,2,6.51,78.69,78.69,0,0,1,8.71,9.58,6.33,6.33,0,0,0,5.37,2.71,3.34,3.34,0,0,0,1.2-.25c3.7-1.63,7.12-3.88,11-6.07C603.61,385.42,652.56,347.23,652.21,347.24Zm107.6,53.41c-4.38-2.38-8.85-4.61-13.22-7-18.34-10.12-36.38-20.84-55.09-30.23-9.73-4.88-18.37-12.57-29.55-15.24a5.13,5.13,0,0,0-5.07,1.57c-10.81,12.35-51.47,39.32-53.13,43.16-1.29,3,8.81,9.52,10.48,10.47,11.45,6.59,22.85,12.15,34.22,18.87,10,5.91,20,10.7,29.87,16.87,3.58,2.23,7.65,3.31,11.06,1,4.57-3.06,7.75-2.54,11.72,2.55.83,1.06,4.68,1.37,5.41.53,1.28-1.48,1.6-4.12,1.58-6.26,0-1.05-1.7-2.07-3.15-3.68-.36-.55,2.21-2,4-.82,4.81,3.25,7.65.62,11.09-1.46,3.22-1.95,6.28-4.2,9.59-6,3.89-2.12,5.5-4.39,2.67-7.34a1.6,1.6,0,0,1,.43-2.52l3.31-1.75a2.64,2.64,0,0,1,3,.42c.41.39.76.72,1.09,1.06,2,2.08,4.09,4.86,7.28,2.06s2.21-5.42-.24-8.5a4.59,4.59,0,0,1-.75-2.58,2.88,2.88,0,0,1,4.06-2.77c4,1.83,6.65,3.59,6.91,8.79.08,1.64,3.38,1.2,4.2.56C763.89,410.65,762.43,402.08,759.81,400.65ZM592.47,335.09c7.76-5.09,11.15-5.89,5.91-10a208.77,208.77,0,0,0-18.14-12.4,4.88,4.88,0,0,0-4.22,0q-12.91,7.54-25.56,15.56c-.9.57-2.08,3.41,0,4.58,4.58,2.52,17.08,9.55,20,11.36a5.86,5.86,0,0,0,5.26.71C576.44,344.61,585.41,339.72,592.47,335.09Zm-34.3-4.82c6.2-4.54,12.2-8.5,18.31-10.41,2.67-.84,8.15,3.74,13.7,7.76-6.61,4.82-11.85,8.88-15.07,9.9C572.21,338.44,570.09,338.88,558.17,330.27ZM1110.75,623c-2-1.8-18.81-12.15-23.22-14.73-1-.6-3.86.06-4.2.57a3.55,3.55,0,0,0-.31,3.49c.88,2.48,3,3.55,4.91,5.74-3.72,5.09-8.32,4.17-12.15,1.8a4.05,4.05,0,0,0-2.08-.48,2.67,2.67,0,0,0-2.5,3.76,8.37,8.37,0,0,0,1.15,1.89c2.18,2.59,16.75,11.78,20.75,13.18l1.85.61a2.67,2.67,0,0,0,3.41-2.15,9.66,9.66,0,0,0,.15-1.93c-.1-3.1,1.56-6.92,5.09-6.23,2.16.42,3.66,2,5.9,1.81,2.9-.3,3.51-1.81,3.6-2.91C1113.22,625.94,1112,624.06,1110.75,623ZM456.65,461.57c.57,3.94,1.23,7.6,5.43,9.69,18.59,9.27,37.08,18.74,55.66,28,1.53.77,3.72,1.45,5.15.94A161.72,161.72,0,0,0,539,493.41c2.84-1.39,28.43-17.68,34.5-21.15,1.41-.8,15.38-9.5,16.39-10.27,2.27-1.73,4.85-3.07,7.18-4.73,4.71-3.37,5-9,.46-12.26q-22.74-16.25-45.65-32.25a9,9,0,0,0-4.58-1.35q-20-.69-39.92-1.1a11.23,11.23,0,0,0-5.71,1.19c-14.45,8.68-28.79,17.55-43.18,26.33-3.85,2.35-4.55,5.84-3.91,9.92C455.26,452.35,456,457,456.65,461.57Zm111,6.45L531,491.11a3.05,3.05,0,0,1-4.07-.72l-2.21-2.94a1.84,1.84,0,0,1,.58-2.72l40.85-22.63C569.05,460,578.9,462.23,567.63,468Zm-102.06-24a8.6,8.6,0,0,1,3.67-5.23c11.86-7.34,23.87-14.46,35.91-21.5a11,11,0,0,1,5.5-1.51c11.1.22,22.3,0,33.26,1.39,4.18.54,8.18,4.75,11.66,7.94,9.28,8.5,30.42,28.48,32.36,30-4.43,3.45-8.07,6.17-13.43,1.36-1.83-1.64-6.5-2.11-8.75-.94-14.8,7.65-29.39,15.73-43.84,24-6,3.42-6.6,6.25-3.5,12a.55.55,0,0,1-.74.76l-54.16-28.06C464.18,457.22,464.56,450.59,465.57,444.06ZM588.56,603c18.31,13.27,36.81,26.26,55.21,39.4,15.05,10.76,30,21.67,45,32.42q20.6,14.7,41.36,29.17a5.66,5.66,0,0,0,4,.82,2.06,2.06,0,0,0,1.09-.91,3.37,3.37,0,0,0-.1-4.19,7.42,7.42,0,0,0-1.25-1.2c-7.88-5.63-15.83-11.17-23.74-16.75q-24.63-17.38-49.24-34.8c-23-16.33-45.85-32.76-68.9-49a2.46,2.46,0,0,0-.39-.22c-2.89-1.38-5.65,2.5-3.49,4.86A2.93,2.93,0,0,0,588.56,603ZM864,788.82c-.6,3.18,5.84,7.82,9.26,7.29,2.34-.37,5.42-.71,7.1.47,3.78,2.65,6.66,1.59,9.65-.76,4-3.12,7.84-6.35,11.77-9.52,3.53-2.84,3.53-5.63,0-8.5-4.47-3.67-8.92-7.35-13.31-11.1-2.44-2.09-4.88-2.84-7.78-1-4.36,2.84-8.62,5.88-13.19,8.32-5.22,2.78-8.6,5.57-3.4,11.36C864.63,786,864,787.66,864,788.82Zm175.7-131.68c-4,1.94-6.24-.12-9.23-1.33-1.34-.55-3.62-.8-4.53,0-4.73,3.93-9.26,8.13-13.67,12.42-3.71,3.61-3.3,5.74,1.34,8.32s9.45,5.12,14.17,7.7c.74.4,1.48.83,2.31,1.32a5.4,5.4,0,0,0,5.93-.32c4.65-3.45,9.35-6.76,13.37-10.77,1.23-1.22-1.37-11.4-2.13-12.06C1044.82,660.29,1041,656.46,1039.67,657.14ZM1159.2,810.68c-4.33-5.12-9.19-7.48-16.09-6.8-8.43,2-7.61,3.27-14.5-3.64-.51-.52-2.46-.9-3-.44-2.27,1.88-5,3.8-6,6.33-.48,1.14,1.48,3,2.93,4.94a31,31,0,0,0,3,2.75c-6.34,5.08-12.17,9.72-18,14.42-8.6-8.08-7.33-9.06-13.48-3-4.86,4.83,2.9,7.71,3.34,11.45.2,3.13-1,5.13-1,9.07.21,4.51.82,7.5,2.89,10.27,4.82,6.42,16.55,8.17,24,4.72,6.51,6.2,6.82,6.55,12.85,1,4.52-4.14-3.2-6.22-2.62-10.35l16.67-13.15c6.21,5.63,9.33,6.29,13.78,1.18,3.87-4.45-3.92-5.59-4.41-9C1163.37,826,1163.2,815.41,1159.2,810.68Zm-75.48-33.46c-5.26-4.37-10.83-8.37-15.89-13-6.73-6.09-8.79-5.14-14.61.19a5.43,5.43,0,0,1-4.45.76c-3.81-1.17-8.27,1.21-7.87,5.1.36,3.48-1.1,4.8-3.74,6.38-4.49,2.71-4.2,5.94.35,8.66,3.39,2,6.66,4.25,10.1,6.16,3.9,2.16,7.89,4.18,12.15,6.38a5.45,5.45,0,0,0,5.06,0,22.34,22.34,0,0,0,3.42-2.13c5.08-4,9.73-8.7,15.08-12.32C1086.92,781,1086.27,779.34,1083.72,777.22Zm-20,13.54a4.24,4.24,0,0,1-3.67.07c-5-2.67-9.91-5.58-15.4-8.73l12-9.52,17.34,10C1070.44,785.5,1067.22,788.29,1063.77,790.76ZM870.9,665.33a30.05,30.05,0,0,0,4,8.2c.71,1,2.77,1.69,4.12,1.57.83-.08,1.54-1.94,2.2-3.07s.85-2.59,1.72-3.39c6.22-5.69,12.64-11,21.55-12.07,1.14-.14,3.06-2,2.92-2.83a5,5,0,0,0-2.89-3.44,108.44,108.44,0,0,0-11.11-2.06,6.72,6.72,0,0,0-5,1c-5.46,3.75-10.9,7.54-16.1,11.62A4.55,4.55,0,0,0,870.9,665.33Zm447,195.28c-.88-8.57-2.06-17.11-3.28-25.64-.93-6.5-.71-13.35-5.44-18.8a59.85,59.85,0,0,1-4.84-6.47c-5.4-8.25-10.66-16.6-16.07-24.85-7.87-12-15.86-23.92-23.74-35.92q-21.9-33.36-43.73-66.78-10.6-16.2-21.29-32.37c-11.81-17.85-21.88-36.92-38.21-51.56-9.27-8.32-17.43-17.88-26-27-1-1.07-2.29-3.09-1.91-4.07,3.75-9.52,5.95-19.29,5.35-29.55-.17-2.79-.15-6.14-1.65-8.22-3.94-5.47-8.65-10.39-13.07-15.52-3.27-3.78-6.14-8.06-10-11.15-4.4-3.55-9.67-6-14.55-9-21.78-13.17-43.57-26.3-65.27-39.58a7.29,7.29,0,0,1-3.26-4.44,92.78,92.78,0,0,0-15.2-39.78,11,11,0,0,1-1.67-9.44,15.82,15.82,0,0,0-1.83-10.19c-2.46-4.39-7.49-7.37-12-5-4.73,2.46-7.35-.15-10.6-1.71-2.57-1.24-4.7-3.37-7.25-4.65-10.91-5.47-22-9.81-34.55-5.38a9,9,0,0,1-5.86-.13c-3.93-1.58-7.63-3.76-11.43-5.66-16.88-8.45-33.82-16.79-50.63-25.38-8.29-4.25-15.82-4-23.49,1.61-6.94,5.07-14.45,9.36-21.52,14.27-2.23,1.56-3.83,4-5.95,6.32-2.75-1.67-6.2-3.89-9.76-5.92-15.06-8.57-29.74-17.95-45.35-25.37-14-6.64-29-11.18-43.53-16.48-16.13-5.87-32.32-11.58-48.5-17.3-11.08-3.93-22.3-7.5-33.26-11.74-6.22-2.41-12-5.92-18-8.81a20.38,20.38,0,0,0-5.54-1.78c-6.48-1-12.08,1.7-17.38,4.82a70.88,70.88,0,0,1-22.82,8.51,50.38,50.38,0,0,0-14.14,5.36C556,304.09,541.43,312.6,527,321.25c-3.44,2.06-6,5.55-9.46,7.57-6.42,3.76-11.34,8.88-15.64,14.77a3.31,3.31,0,0,1-1.65,1.39c-7,1.31-10.5,6.41-12.64,12.38A28.75,28.75,0,0,0,486,368.54c.68,11.16,1.92,22.29,2.88,32.81-5,2.25-9.41,3.81-13.38,6.09-12.76,7.32-25.39,14.89-38,22.44-2.87,1.72-6.2,3.25-8.17,5.77a167.93,167.93,0,0,0-11.93,17.88c-2.09,3.53-4.76,4.8-8.46,4a22.72,22.72,0,0,1-7-2.6c-11.51-7.24-22.71-15-34.43-21.89-5-2.93-11-5.77-16.46-5.72-5.2.05-10.6,3.51-15.51,6.22-9.57,5.29-19,10.93-28.24,16.75-10.7,6.7-22.09,12.08-32,20.44-8.48,7.17-19.41,11.37-28.95,17.37-6.88,4.33-16,6.16-18.87,15.45-.2.62-30.84,16.07-34,23.08-1.5,3.38-5.08,10.89-5.12,14.41-.3,23.46-.06,46.92-.24,70.38a17.37,17.37,0,0,0,4,11.33c8,10.56,16.23,21,23.33,32.17,14.73,23.1,28.78,46.62,43.37,70.39-4.78,3-9.39,5.44-13.55,8.52-3.56,2.64-8.1,5.41-7.36,10.67,1.56,11,3.73,21.89,5.7,32.82,2,11.46,3.67,23,6.42,34.34,1.89,7.8,3.31,16.11,11.27,21.19,4.66,3,8.41,7.38,12.58,11.14l-2.16.88c-.69,2.11-2.44,4.6-1.86,6.27,1.55,4.45,3.11,9.77,6.49,12.51,5.88,4.78,8.87,10.93,12.57,17.09a242.47,242.47,0,0,0,20.28,29.13c5.78,7,12.49,13.8,20,18.82,7.3,4.85,13.79,14.06,33.76,13.93,4.2,0,13.71-2.45,18.74-4.07,9.91,8.61,21.1,18.38,32.33,28.09,7.67,6.62,15.36,13.22,23.14,19.71,12.47,10.41,25.07,20.68,37.52,31.1,12.06,10.1,23.93,20.43,36.13,30.36,1.44,1.17,5.17,1.42,6.64.39,11.74-8.3,23.26-16.93,34.68-25.67,2.29-1.76,4.77-4.15,5.62-6.75,1.69-5.21,2.1-10.82,3.46-16.15a13.15,13.15,0,0,1,3.51-5.63c.34-.34,3,1.29,4.29,2.31,2.45,1.85,4.68,4,7.08,5.9,5.91,4.73,11.31,10.48,17.91,13.88,13.18,6.79,27,12.3,40.61,18.3,18.82,8.33,37.55,16.89,56.52,24.88,22.09,9.29,43.15,21,66.66,27,15.4,3.9,30.43,9.25,45.71,13.64,14.76,4.24,29.68,7.89,44.43,12.14,23.7,6.82,47.29,14,71,20.88q36.85,10.68,73.8,21c4.42,1.25,9.12,3.11,13.45,2.61s8.67-3.31,12.67-5.67a11.25,11.25,0,0,0,4.45-5.45q6.12-16.85,11.61-33.92a40.65,40.65,0,0,0,2.3-11.53c.11-5-.8-10-1.31-15.46,12.23-2.29,23.71-4.3,35.12-6.61q29.76-6,59.45-12.44c2.58-.56,6.14-.22,6.35-5.1.1-2.11,3.31-2.93,6.09-.81,9.56,7.31,19.41,14.24,29,21.53,3.33,2.53,7,5.07,10.84,3.22,10.89-5.3,23.49-6.94,33-15.18,3.44-3,6.54-6.37,10-9.38,11.16-9.8,22.47-19.43,33.51-29.36,1.49-1.34,2.26-4,2.52-6.11.62-5,.78-10.1,1-15.16.46-9.11,5.85-17.73,1.45-27.41-2.61-5.74-2.19-12.91-5-18.48-4.58-9-7.79-17.45-1.93-27,1.27-2.07,1.51-4.74,2.38-7.08,2.57-6.93,5.22-13.83,8-21.2,4.57,3.92,8.63,7,12.17,10.54,3.13,3.16,5.49,2.77,8.19-.3,3.9-4.45,7.72-9,11.93-13.13,9.16-9,16.22-19.2,17.9-32.26A53.48,53.48,0,0,0,1317.9,860.61ZM1055,474.07c16.42,9.9,32.71,20,49.47,30.26-6.5,4.59-12.55,9.07-18.86,13.14-1.05.68-3.51.12-4.81-.68-20-12.33-39.8-24.89-59.8-37.19-31.69-19.5-63.49-38.85-96.27-58.89,10.07-2.2,19.1-4.25,28.18-6.08a6.62,6.62,0,0,1,4.34.82Q1006.22,444.67,1055,474.07ZM862.22,347.61c5.09-3.54,9.78-2,14.66.46,21.38,10.79,42.67,21.8,64.31,32,7.16,3.39,13.34,6.1,21.11,8.08a1.34,1.34,0,0,0,1-.23,3.52,3.52,0,0,0,.75-5.49,2.78,2.78,0,0,0-.71-.54,59,59,0,0,0-10.29-3.3c28.15-4.89,69.21,33.25,70.86,67.18a1,1,0,0,1-1.92.6,73.19,73.19,0,0,1-4-7c-1.13-2.42-1.35-5.28-2.63-7.58a6,6,0,0,0-1.47-1.66,2.55,2.55,0,0,0-4.09,1.23,9.11,9.11,0,0,0-.46,2.7c0,1.57,1.35,3.13,1.2,5.59-11.32-6.82-22.62-13.68-34-20.45-5.85-3.5-11.51-7.66-17.82-9.92-4-1.42-9.09-.28-13.58.45-6.5,1.05-24.85,5.68-31.29,7.12-2.06-.83-12.78-5.95-11.36-6.51,9.44-3.71,11.43-8.31,8.83-9.69-25.55-13.54-40.17-21.55-65.63-35.26-1.67-.9-3.24-2-5.1-3.14C848,357.27,855.16,352.53,862.22,347.61Zm-26.34,19.93,67.83,36.51c-4.21,3.13-7.77,2.27-12-.4C873.63,392.15,855.26,381,837,369.74,833.83,367.77,834.47,366.81,835.88,367.54ZM632.22,288.26c5.16,1.6,11.62,4.42,21.36,8.51-11.23,1.53-30.44,4.18-36.45,5-11.23,1.48-15.68-2.35-21.08-7.18C600.73,292.8,615.45,281.24,632.22,288.26ZM432.75,441.52a11.37,11.37,0,0,1,3.48-3.46c15.07-9,29.93-18.51,45.46-26.69,6.78-3.58,14.92-4.69,22.54-6.51s36-5.13,42.82-4c16.85,2.76,30.19,12.72,44.46,20.74,15.09,8.49,29.78,17.66,44.94,26,5.61,3.09,4.33,14.59,13.65,14.77l26.22.46c3.77-.37,15.43-1,19.18-.87,2.71.08,9.5,4.33,11.69,5.77,23,15.06,45.33,31.41,68.2,46.6,11.93,7.92,21.48,13.9,35,23.46a11.38,11.38,0,0,1,3.7,5.41c1.43,4.2,1.5,9.08,3.67,12.76,2,3.47,5.87,6.08,9.3,8.5,7.32,5.17,14.89,10,22.75,15.2-2.73,1.92-4.74,3.3-6.7,4.74-2.88,2.1-4.8,4.49-2.5,8.2,1.81,2.93.85,4.41-2.08,6.39-12.93,8.76-25.48,18.08-38.39,26.88a9.25,9.25,0,0,1-7.24.89c-6.26-2.19-11.19-.61-15.8,3.67-3.23,3-5.92,3.53-10,.08-7-5.83-15.26-10.1-22.5-15.67a23.91,23.91,0,0,0-15.45-5.31c-14.09.47-25.49-4.79-36.63-13-18-13.36-36.9-25.51-55.33-38.3q-18.37-12.75-36.44-25.92c-3-2.17-5.56-2.38-9-1.12-10.06,3.69-20.28,7-30.38,10.55-1.67.59-4.31,2.3-4.25,3.08.29,3.7,1.86,4.61,3.7,6.07a126.33,126.33,0,0,0,14.07,9.69c3.28,1.94,4.07,3.57,3.36,7.41-1.52,8.15-1.89,16.51-2.73,24.78a93.26,93.26,0,0,0-1,10.76,2.42,2.42,0,0,0,0,.47,3.2,3.2,0,0,0,5.54,1.32,2.81,2.81,0,0,0,.7-1.37c1.1-7.68,1.66-15.44,2.36-23.18.42-4.69.69-9.39,1.14-14.07.35-3.79,7.4-6.53,10.86-4.17q19.33,13.21,38.59,26.54,17.92,12.4,35.77,24.93c12.79,9,25.4,18.23,38.37,26.95,3.08,2.07,7.39,2.21,10.93,3.72a64.53,64.53,0,0,1,11.65,6c12.86,8.87,25.48,18.1,38.36,27a5.52,5.52,0,0,0,5.17-.29c2.88-2.32,5.06-1.45,7.57.31q29.94,21.12,59.92,42.16c23.78,16.71,47.39,33.65,71.44,50,8.8,6,15.22,13.48,21.34,22,11.53,16.08,21.48,33.41,36.17,47.14,6.43,6,12.11,12.84,18.4,19.58-1.12,1.2-2.28,2.34-1.68,1.64C977,851,966.85,842,956.82,832.81c-4.28-3.93-13.58-2.69-15.76,2.61-.52,1.25.23,3.66,1.23,4.79,9,10.13,18.17,20.09,26.14,28.84.77,3.6.52,6.63,1.85,7.72,2.4,2,3.54,8.13,8.87,3.89.51-.4,1.94,0,2.73.41,5.5,2.93,8.56,2.33,12.48-2.58,3.48-4.38.13-6.91-2.59-9.61a20.85,20.85,0,0,1-1.34-1.75,17.23,17.23,0,0,1,3.26-.36c14.89,1.46,29-2.78,43.29-5.83,10-2.13,19.9-4.54,29.91-6.49,1.69-.32,4,.67,5.5,1.76a35.65,35.65,0,0,1,6,5.92c17,20.06,39.25,33.43,60.3,48.48,9.37,6.7,16.91,16,25.15,24.24,3.16,3.16,6,6.66,9.16,10.25-12.9,3.88-25.23,8-37.8,11.12-3.8.94-10.17.68-12.1-1.69-6.7-8.23-16-9.79-25.06-12.33q-17.49-4.89-35.07-9.47c-5.8-1.52-6.27-1-5.26,3.91-1,1-2,1.86-2.83,2.67a2.81,2.81,0,0,0-.13,4,9.59,9.59,0,0,0,2.67,2.17c12.91,6.3,25.92,12.39,39.46,18.82-6.46,5.45-12.8,10.79-19.13,16.15-1.63,1.38-3.24,2.77-4.81,4.23-4.55,4.23-6.42,4.15-10.89-.31q-23.82-23.82-47.65-47.62c-2.85-2.85-8.91-8.29-8.05-9.27.22-.31,4.57,3.66,6.65,5.69,6.27,6.14,6.26,6.22,12.9.64,3.19-2.68,6.14-5.65,9.4-8.24s1.9-5.29,0-7.27c-8.43-8.61-14.44-12.45-21.49-13.77H942.07c-.56-2.93-1.64-5.28-1.3-7.41,1.21-7.54-2.18-12.48-7.41-17.5-15-14.4-29.89-29-44.14-44.13-12.9-13.71-27.67-25-42.91-35.77-18.43-13.07-36.8-26.22-55.62-39.64,2.37-1.69,4.53-3.18,6.63-4.74,3.4-2.53,3.45-5.48.14-8-.85-.65-2.15-1.44-3-2-5.48-3.82-8-4.87-13.27.23s-6,4.35-12.12-1.6c2.19-1.6,4.22-3.35,6.49-4.68,3.38-2,3.19-4.33.71-6.53-2.67-2.39-5.52-4.91-8.76-6.17-1.75-.68-4.74.73-6.71,2-7.61,4.73-7.52,4.82-14.51-.52a52,52,0,0,0-7.11-4.83,3.38,3.38,0,0,0-.52-.22,3.17,3.17,0,0,0-4,3.6,1.78,1.78,0,0,0,.44.89,38.45,38.45,0,0,0,8.57,6.5c4.62,2.51,6.79,5.82,5.36,11.09-8.17-5.66-16.7-11-24.39-17.29-2.19-1.81-2.16-6.53-2.77-10s-.63-7.19-1.27-10.73a2.27,2.27,0,0,0-.26-.65,2.92,2.92,0,0,0-4.67-.37,1,1,0,0,0-.29.64c.17,7.26-.24,14.74,1.44,21.68.81,3.33,5.53,6,8.85,8.38,13.93,10.16,28,20.14,42,30.17,5.06,3.61,10.17,7.17,15.8,11.14-11.09,2.45-19.8,0-28.16-6.74-11.89-9.56-24.56-18.16-36.89-27.19Q685.53,720,652.69,696q-20-14.61-40.19-29a12.5,12.5,0,0,0-5.36-2.45c-7.7-1-15.46-1.51-23.18-2.35-10.43-1.14-20.85-2.41-31.27-3.62-2.52-.29-6.65-.59-9.18-.81-2.22-.19-4-1-5.07-4.77-1-3.48-6.58-5.66-10.17-8.35-4.41-3.29-8.89-6.5-14-10.23,4.8-2.75,9-5.23,13.35-7.63a7.59,7.59,0,0,0,.66-13c-4.8-3.46-9.53-7-15.37-11.32,9-5.56,26.05-16,26.47-16.39,3.5-2,5.15-5.93,5.46-9.91,1-12.39,2.68-24.72,4.15-37.07.33-2.81-.07-6.74,1.56-8.06s5.39-.12,8.17.13c6,.53,5.1-.92,5.4-2,.94-3.58-2.29-3.22-4.58-3.5-5.53-.68-11.2-1.2-16.55-1.82-13.51-1.55-20.08-4.57-29.09-9.65-9.84-5.55-19.64-11.2-29.17-17.27-7.93-5.06-15.27-11.05-23.18-16.17-8.4-5.43-17-10.66-25.84-15.3-4.51-2.37-9.79-3.27-15-4.92C424.73,454.12,428.67,447.77,432.75,441.52Zm179.59-21.6c5.74-6.18,10.12-.84,14.35,1.58,16.76,9.58,50.85,29.7,51.33,29.86,1.17,1.07,1.58,1.68,0,1.66-6.7,0-13.41.11-20.1-.16-.76,0-1.89-2.13-2.06-3.38-.59-4.52-3.74-6.38-7.29-8.4C636.35,434.16,624.31,426.94,612.34,419.92ZM1230,830.36a7.5,7.5,0,0,1-5.3-1.48c-16.86-15.89-33.56-32-50.32-48-8.89-8.49-8.89-8.45.83-16.22,5.78-4.61,11.36-9.47,17.27-13.9,4.35-3.25,7.61-2.36,10.93,1.64,1.79,2.16,4.33,3.7,6.42,5.63,15.47,14.36,31,28.67,46.33,43.17,5.57,5.27,10.67,11,16.44,17.06-10,8.35-19.1,16.06-28.4,23.5-1.11.89-4.6,1.09-5.14.18a9.93,9.93,0,0,1-.38-3.51C1239.19,834.13,1234.52,829.93,1230,830.36Zm1.18,21.32L1208,871c-2-6.1-4.07-11.54-5.43-17.17-2.51-10.42-4-21.13-7.1-31.36-1-3.16-3.2-5.93-5.4-8.83a.54.54,0,0,1,.8-.71Zm-53.31-40c6.33,5.3,7.05,12.73,9.11,19.67,3.35,11.3,6.19,22.76,9.35,34.12a8.35,8.35,0,0,0,2,3.15q14.09,15.25,28.25,30.39l.06.05a3.42,3.42,0,0,1-.12,5l-8.06,6.86c-4-4.41-7.63-8.64-11.49-12.69-2.39-2.5-3-2.5-6.06.57l-.73.73c-6.6,5.87-2.11,8.12,1.18,11.33,2.38,2.32,4.85,5.11,7.91,8.11l-8.32,6.61c-4.14-4.62-7.9-9-11.94-13.18-.86-.89-3.26-1.54-4-1a22.82,22.82,0,0,0-6,6c-.58.89.25,3.42,1.23,4.47,3.71,4,7.75,7.65,11.78,11.55l-11.68,10c-10.52-11.32-20.42-22.45-30.9-33-4.1-4.14-9.33-7.29-14.38-10.34a250.51,250.51,0,0,1-57-47.11,22,22,0,0,0-2.93-2.32c2.72-2.39,5.13-4.72,7.56-7.22,3.61-3.71,5.23-5.5,4.06-8.42-3.53-8.78,1.2-13.31,7.42-18,9.09-6.78,17.72-14.18,26.8-21,1.66-1.25,4.58-1.44,6.8-1.18,3.69.44,7.48,2.8,10.86,2.22s7.1-3.22,9.78-5.85c3.16-3.1,5-2.94,8,.13C1163.32,798.41,1170.32,805.39,1177.86,811.7Zm61,173.73c-4,3.63-8.26,7-12.42,10.5-.26-.08-.74-.14-.76-.26-1.08-8.42-7.48-11.57-14.2-14.5a5,5,0,0,1-2.5-2.61c-1.65-4.73-2.91-9.59-4.61-14.3-.18-.5-.3-.82-.4-1a2.92,2.92,0,0,1,1-3.46c4.57-3.41,8.24-7.08,11.84-9.94,7.06-5.6,16.32-15.14,23.71-21.6a197.29,197.29,0,0,0,6,22.92c1.58,5.64,7.11,12.3,4.88,17.64C1245.6,982.76,1239.93,984.5,1238.9,985.43Zm11.92,22.94-17.43,14.73a101.72,101.72,0,0,1-3.13-10.56c-.24-1.25.7-3.16,1.71-4.13,4.19-4,8.61-7.74,13.33-11.92a69.6,69.6,0,0,0,2.32,6.71A46.37,46.37,0,0,0,1250.82,1008.37Zm-82.07-36.07c6.5-1.69,18.43-4.74,25.93-7,.11.29.23.59.33,1,2,6.32,3.8,12.74,6.57,18.71,1.07,2.3,4.33,4,7,5.06,5.85,2.22,8.79,6.19,9.13,11.82-9.83,4.7-57.64,9.4-64.33,8.37-1.09-.16-20.51-9.89-21-11.21-1.21-3.26-2.59-9.91-3.35-17C1139.27,979.54,1163.08,973.79,1168.75,972.3Zm-40.26,3.12a50.18,50.18,0,0,1,.68-12.18,56.26,56.26,0,0,0,9.45-1.17c14.05-4.14,24.35-7.31,38.32-11.7,2.87-.89,4.87-1,6.86,1.8.81,1.11,3.46,5.45,5.53,8.18a9.13,9.13,0,0,0-1.06.1c-3.84.64-7.53,2.14-11.32,3.08C1168.33,965.67,1139.4,972.55,1128.49,975.42Zm108.13-53.64c-.26.43-1.57,2.38-1.85,2.66-7.87,8-17.82,18.21-29.36,25.7-.45.3-10.49,6.64-10.91,6.64-2.89-4.21-7-10-7.57-10.6,15.72-13.38,31.37-26.72,47.38-40.36C1238.05,911.11,1240.07,916,1236.62,921.78Zm-165.88-95c3.57,8,.92,13-6.13,16.11-7.8-7.37-15-15.78-23.77-22.12-21-15.28-42.78-29.57-64.2-44.31Q958.24,763.8,940,750.9c-9-6.31-7.33-7.55-1.66-3.49,13.68,9.24,26.29,17.75,39.94,27,3.71,2.52,8.44,5.94,12.24,8.32a7.77,7.77,0,0,0,4,1.39c6.69-.22,12.81-.21,19.41-1.18,3.08-.45,6.12-2.56,8.72-4.52q17.66-13.35,35-27.17c1.56-1.26,2.48-3.83,2.88-5.95,2.11-11.12-3.48-17.49-13.79-23.81-9.89-6.06-43.36-29.7-22.62-17.83,6.52,4.21,13.08,8.35,19.54,12.64C1062.74,729,1081.68,742,1101,754.4a175.72,175.72,0,0,1,36.35,30.47c-3.3,2.72-5.4,5.49-11.27,3.37-7-2.55-14.52-1.14-21,4.6-10.39,9.17-21.7,17.28-32.26,26.27C1071.08,820.58,1069.87,824.84,1070.74,826.79ZM850.35,600.55c-2.22-4.92-1.46-6.89,4.88-8.43l21.07,13.5a.84.84,0,0,1-.42,1.54c-2.82.08-4.09.49-7.21.1-8.74-1.1-14.36.14-21.27,5.44-9.4,7.21-21.7,15.66-31.19,22.74-6.23,4.64-10.27,13.06-7.66,20.74a1.26,1.26,0,0,1-1.91,1.45l-22.77-15.94a1.24,1.24,0,0,1,.57-2.24c3.46-.44,7.2-1.9,10.32-1.05,5.41,1.48,7.46,2.11,12.49-2.23,8.76-7.57,20.52-16.48,30.11-23.1a99.23,99.23,0,0,0,10-7.7C848.81,604.14,851,602,850.35,600.55Zm47.54,88.22c8.93,3.35,15.32-.36,21.51-5.88,1.07-.95,2.4-1.59,3.52-2.48,6.42-5.15,6.93-11.5,1.31-17.49a6.75,6.75,0,0,0-2.61-1.8c.51-.54.5-.5,1-1,6.64-7.31,12.65-5,19.91,0,35,24.14,70.4,47.78,105.64,71.6,4.61,3.12,5.49,12.48,1.17,15.88q-18,14.19-36.39,28c-4.48,3.36-17.57,3.09-22.21-.06l-72.14-49c-10.39-7.07-20.71-14.24-31.19-21.16-2.43-1.6-5.51-2.2-8.11-3.6-1.62-.87-3.53-2.13-4.11-3.67-.43-1.12.68-3.51,1.83-4.43,4.63-3.67,7.22-5.33,12.52-9.14C892.68,686,894.9,687.65,897.89,688.77Zm-2.5-8.86,20.4-14.7a6.74,6.74,0,0,1,3.82,5.32,6.24,6.24,0,0,1,0,2.72c-.69,2.46-13.59,10.21-16.13,9.8A25.33,25.33,0,0,1,895.39,679.91Zm-.19-10.23c-8.17,5.85-16.5,11.53-24.27,17.88-3.39,2.78-5.74,2.14-8.62.15-3.84-2.65-36.06-23.82-42.73-29.86-4.3-3.89-4.7-12.72,0-16.07,11.28-7.95,22-16.82,34-23.6,7-3.95,15.52-5.89,23.79-.31,15.27,10.32,30.89,20.13,47.47,30.86C914.53,656,904.82,662.8,895.2,669.68Zm-95.33-9.11c14.35,10.19,28.52,20.62,42.94,30.7q45,31.49,90.14,62.68,33.85,23.44,67.84,46.71c12.12,8.31,24.71,16,36.37,24.91,7.2,5.51,13,12.8,20.23,20-8.18,2-15.74,4-23.36,5.7-4.37,1-9.13.83-13.18,2.49-7.7,3.16-15.52,2.08-23.29,1.76-2.25-.1-4.67-2.29-6.54-4-2.63-2.46-4.55-5.69-7.23-8.08-14.47-12.89-26-28.13-36.45-44.34-5.43-8.44-10.69-17.19-17.41-24.53-5.22-5.7-12.59-9.44-19-14-15.34-10.95-30.62-22-46.07-32.79-17.8-12.43-35.76-24.63-53.65-36.94-9.6-6.61-19.23-13.19-28.77-19.88-1-.72-2.21-2.1-2.25-3.2-.21-6.51-.1-13-.1-20.65C787.27,652,793.65,656.16,799.87,660.57Zm351.91,91.21c-.7,7.19-1.67,14.35-2.51,21.48-7.08-1.88-12.68-10.7-13.19-18.12-.19-2.89-4.95-8.17-6.54-7.79-6.33,1.5-8.8-3.37-12.15-6.08-7.9-6.38-15.08-13.65-22.88-20.16-1.29-1.08-4.74-.93-6.33,0a14.16,14.16,0,0,0-5.06,6.2c-.58,1.33.18,4,1.28,5.18,2,2.15,4.26,4,6.27,6.23a.52.52,0,0,1-.67.78L882.55,602.06c4.36-4.71,4.34-4.88-1-8.48q-20.76-14-41.52-28c-1.19-.8-3.07-1.53-3.33-2.6-2.69-11.24-11.81-18.3-18-27.16-3.39-4.84-9.9-7.56-15.15-11q-28.29-18.67-56.69-37.2l-8-5.21c10.28-.63,19.15-1.31,28-1.61a12.05,12.05,0,0,1,6.6,1.76c27,17.6,54,35.4,81,53q29.12,19,58.42,37.73a12.3,12.3,0,0,0,5.79,1.89c8,.56,16,.51,23.9,1.35,2.81.3,5.49,2.36,8.09,3.87,2.92,1.7,5.68,3.69,9,5.84-1.82,1.53-4.17,2.67-5.06,4.51s-1.1,5,0,6.36c5.06,6.26,9.41,6.52,15.89,1.79,1.3-.94,2.74-1.71,4.43-2.76l6.26,4.5c-.27.58-.33,1-.54,1.14-2.7,2.44-8.17,3.64-4.8,9,3.5,5.57,10.21,7.29,14.73,4.24,2.08-1.41,4.07-3,6.44-4.7,8.4,5.52,16.92,11.13,25.46,16.71,17.18,11.23,34.42,22.38,51.55,33.69a76,76,0,0,1,10.4,8.27c11.84,11.28,23.51,22.74,35.29,34.09,7.75,7.47,15.2,15.32,23.47,22.17C1151.88,732.49,1152.77,741.71,1151.78,751.78ZM1006.21,607.21a1.23,1.23,0,0,1-1.85,1c-8.23-4.85-25.52-15.92-29.89-18.72s-10.64-6.69-14.6-10.14c-9.86-8.61-19.38-10.36-32.24-9.87A29.25,29.25,0,0,1,912,565.12c-19.81-12.31-39.17-25.32-58.73-38s-39.09-25.32-58.62-38c-6.59-4.28-13.13-8.64-19.71-12.92a4.73,4.73,0,0,0-2.42-1c-10.74.27-21.48.73-32.23.92-5.29.09-10.53,1.11-15.42-3-5.11-4.33-11.23-7.46-16.7-12.24,5.18,0,10.43-.55,15.52.12,7.91,1,13.8-2.52,19.52-7,9.15-6.25,12.52-8.52,16.9-11.26,2.63-1.52,4.84-.32,6.64.66a99.42,99.42,0,0,1,12.07,8.06,13.9,13.9,0,0,0,16.49.26c3.46-2.56,6.88-5.3,10.7-7.17,1.61-.79,4.56-.12,6.3.91q11.12,6.63,21.78,14a10.32,10.32,0,0,1,4,5.57c3.66,12.34,7.18,24.72,10.32,37.19,1.27,5.07,5.74,6,9.06,8.16,20.22,13.33,40.6,26.42,61,39.56,20,12.93,38.41,23.33,58.47,36.22,8,5.14,19.42,12,27.13,17.51C1006.14,605.13,1006.27,606.2,1006.21,607.21Zm-237.16,63c-3.8-2.89-6.79-5.33-9.94-7.54-10.86-7.63-21.73-15.27-32.73-22.7-1.82-1.23-4.35-1.38-6.54-2.07-3.5-1.1-7.51-1.5-10.41-3.49-13.61-9.36-26.83-19.29-40.37-28.77-20.08-14.07-40.31-27.93-60.48-41.88-1.53-1.06-4-2.88-5.43-4.06-5.68-4.67-11.61-7.84-19.24-2.51a2.76,2.76,0,0,1-2.53,0c-4-2.78-8-5.68-12.54-9a1.46,1.46,0,0,1,.39-2.56c8.77-2.93,16.66-5.6,24.61-8.11a4.83,4.83,0,0,1,3.59.82c15.66,10.79,31.24,21.69,46.89,32.51,14.31,9.89,28.69,19.69,43,29.56,5.76,4,11.15,8.62,17.31,11.77,3.93,2,9,1.9,13.53,2.56,5.33.76,11,.41,15.94,2.21,5.59,2.05,10.61,5.77,15.68,9.06,5.87,3.81,11.59,7.85,17.22,12a5.72,5.72,0,0,1,1.94,4C769.13,651,769.05,660,769.05,670.25Zm233.56,253.19-11.55-11.3h22.15C1009.26,916.34,1005.7,920.14,1002.61,923.44Zm18.55-8.58,8.85,7.41-9.9,8.22-7.36-7.77Zm-16.64,27.33c13.41,13.4,26.91,26.7,40.12,40.3,2.19,2.25,2.83,5.94,4.65,8.65.71,1.07,2.69,1.27,4.07,1.92s3.26,1,3.5,1.9c.41,1.56.39,4.19-.59,5-9.75,8.29-19.72,16.33-29.69,24.36-.76.62-2,.68-3.88,1.3-2-1.41-69-67.88-73.53-73.12-1.13-1.3-1.31-5.37-.28-6.26,9.55-8.25,19.29-16.31,29.38-23.88,3-2.25,6.34-.43,9.05,2.48C992.86,930.83,998.77,936.44,1004.52,942.19Zm-69.81-41.72c-44.64-51.15-94.59-94.08-151.35-129.24l3.73-5.83c7.72,5.5,15.29,10.82,22.78,16.25,12.36,9,24.65,18.05,37,27,6.39,4.64,13.24,8.73,19.22,13.85,7.81,6.68,15,14.1,22.38,21.26,3.75,3.62,7.4,7.34,11.08,11,10.25,10.23,20.36,20.6,30.79,30.65C934.41,889.37,935.72,893.7,934.71,900.47ZM770,760l-8.58-5.5c1.33-2,2.39-3.56,3.74-5.58C770.58,753.32,774.57,754.47,770,760ZM538.81,544.84l-64.28-40.3c3.5-3.19,6.63-3,10.55-.5Q503,515.42,521.44,526c3.11,1.78,7,2.22,10.65,3,2.67.6,6.65.7,9,1C540.5,534.39,539.52,539.12,538.81,544.84Zm-324,27.68c-.56,9.68,0,19.42-.24,29.13-.31,12.5-1.08,25-1.6,37.46,0,.64-5.47-6-10.16-11.46-9.5-11.16-9.75-18.77-9.09-28.21.41-5.8,1-11.6,1.05-17.41.17-11.73.78-23.53-.18-35.18-.75-9.13,3.07-15.47,9.73-19.86,12.63-8.35,25.89-15.77,38.88-23.58,7.06-3.9,16.61-7.43,29.89,1.33-.93,1.1-1.79,2.22-2.75,3.23-17.18,17.93-34.49,35.72-51.4,53.9C216.53,564.49,215.06,568.86,214.84,572.52Zm40.39,234.19c-1.93-15.28-5-30.42-7.6-45.62-.43-2.53-1.21-5-1.66-7.53l56.16,44.57a.73.73,0,0,1-.38,1.3c-9.48,1-15.12,6.59-20.12,13.92C276,821.67,279.9,830.79,278,840,267.65,830.58,257.17,822,255.23,806.71Zm122.12,120.6c-1.06,6.21-2.67,7.84-10.93,8.43a33.69,33.69,0,0,1-18.86-3.52c-4.09-2.38-8.47-4.67-12.59-7.36-13.34-8.71-23.79-20.29-32.2-33.69-4-6.46-7.19-13.5-11.22-20-2.3-3.7-5.45-6.9-8.43-10.14-2.12-2.32-4.74-4-6.16-6.63-3.08-6.86,4.25-6.29,5.77-7.42,1.33-1,2.38-3.41,2.43-5.66.14-7.38.45-8.81-.24-16.13-.95-9.94,9-17.05,17.83-11.22,9.8,6.46,19.52,13.06,30,20.06-7.23,3.93-13.92,5.54-16.29,12.74-1.07,3.26-.06,4.56,3.09,4.52,5.67-.06,9.05,3,9.6,8.43a28.23,28.23,0,0,0,.78,4,2.59,2.59,0,0,0,4.15,1.37,20.51,20.51,0,0,0,3.62-3.59c2.79-3.82,4.79-8.21,7.21-12.29a.76.76,0,0,1,1.32,0c8.67,16,18.23,31.57,25.72,48.09C376,906.49,379.13,916.8,377.35,927.31Zm-39.59-86.72c4.43,4.34-.32,11.52-2.6,15.76-2.74-3.5-4.1-8.18-11.18-11.91C325.26,843.15,334.18,837.07,337.76,840.59Zm212.58,63.35c-18.63,8.83-26.44,25.92-34.28,43.18-4.06,8.94-8.29,17.93-12.46,26.63-11.12,23.22-14.14,25.86-11.75,41.4.4,2.64.74,5.29,1.37,9.8l-105.74-89.6c1.13-5.31,3-10.09,3-14.85-.11-11.24,4.3-21.41,6.26-32.11,1.43-7.81,1.25-15.92,1.6-23.9.94-20.92-4.25-40.71-11.3-60.14-2-5.64-2.87-10.88,1.44-16.27a128.4,128.4,0,0,0,10.82-16.72c1.92-3.38,3.33-2.77,5.85-.77,14.66,11.62,29.5,23,44.17,34.66,12,9.52,23.82,19.29,35.79,28.87q19,15.2,38.11,30.23,17.38,13.71,34.84,27.32c1.26,1,2.6,1.88,4.26,3.06C558.21,898,554.71,901.87,550.34,903.94ZM968.12,1140.6c-9-2.75-18.56-5.8-28.2-8.6-19.38-5.63-38.83-11-58.2-16.72-11.28-3.32-22.45-7-33.69-10.5-1-.32-2.19-.16-3.21-.47-4.79-1.48-9.22-2.4-10.75-9-2.2-9.4-6.13-18.36.24-27.83l133.81,46.58Zm157.4-99.62c-3.73,1-3,4-3.35,6.62-.63,4.46-1.52,8.88-2.4,13.88l-87.69,17.59c-1.1-8.27-2.15-13.69-2.83-21.85-.15-1.81,2-6.39,2.54-8.42a8.22,8.22,0,0,0,.12-2.81,2.22,2.22,0,0,0-3-1.89,4.59,4.59,0,0,0-2.69,1.69c-5.11,9.84-10.42,19.65-14.39,30-2.79,7.27-3.71,15.28-5.18,23-2.32,12.13-4.6,24.28-6.47,36.49-.68,4.39-.11,9-.11,14.09-6.92-1.84-14.4-3.74-21.8-5.91a4.73,4.73,0,0,1-2.47-3c-2.24-7.87-3.57-15.8-.59-24.12,3.65,1.4,7.09,2.89,10.64,4,5.08,1.63,7.63.19,8.54-5,2.33-13.08,4.46-26.18,6.75-39.26.36-2.1,1.54-4.11,1.64-6.19,0-.13,0-.25,0-.38-.12-2.79-3.45-4.38-5.46-2.44a1.56,1.56,0,0,0-.48.77c-2.15,9.42-3.82,19-5.64,28.44-1.1,5.8-2.2,11.6-3.38,17.8-13.14-4.7-25.85-9.35-38.64-13.79-14.87-5.16-29.84-10-44.7-15.21-18.9-6.59-37.73-13.4-56.61-20.05-4.89-1.72-10.06-2.79-14.75-4.92s-5.64.41-6.91,3.8c-4.2,11.2-2.43,22,1.69,32.78a5.85,5.85,0,0,1-.14,3.29c-5.59-1.67-11.28-3.43-17-5.08-22.49-6.49-45.14-12.48-67.42-19.63-10.66-3.43-20.61-9.06-30.9-13.66q-26-11.65-52.08-23.28c-17.79-8-35.31-16.59-53.44-23.69-13.4-5.25-22.41-16.15-34.15-23.29-10.54-6.41-6.51-15.36-6-24,.39-6.23,2.22-45.34,3.11-64.23.5-10.51-2.75-12.86-8.79-17.43-13.07-9.9-25.7-20.4-38.53-30.62Q506.78,842.57,490.86,830q-20.39-16-40.8-32-23.16-18.21-46.28-36.44c-2.62-2.07-4.57-2.51-6.61.82-6.26,10.27-12.75,20.39-19,30.66a5.53,5.53,0,0,0-.28,4.09c3,9.18,7,18.12,9.1,27.5a262.15,262.15,0,0,1,5.6,37.79c.6,8.37-1.23,16.92-2.07,25.38-.08.81-.87,1.55-1.24,2.17-3.6-7.83-7.06-15.77-10.94-23.51a2.2,2.2,0,0,0-.48-.62,3.11,3.11,0,0,0-5.15,2.42,3,3,0,0,0,.19,1c3.26,8.34,7.24,16.39,10.37,24.77,2.3,6.12,4.53,12.58.37,18.68-14-44.39-37.48-81.76-77.71-104.91a.89.89,0,0,1,0-1.58,36.69,36.69,0,0,0,6.48-3.77c.7-.55.18-4.38-.92-5.26-16.33-13-32.89-25.75-49.28-38.69-6.11-4.82-11.91-10-18.79-15.85,7.58-4.81,14.4-9.31,21.39-13.53,7.65-4.62,15.29-9.27,23.24-13.3,4.26-2.16,8.44-1.34,12.72,2,13.39,10.3,27.21,20,40.89,29.94,11.49,8.32,22.95,16.68,34.6,24.76a2.38,2.38,0,0,0,.44.25c2.91,1.32,5.66-2.6,3.42-4.88l0,0c-2.28-2.24-5.18-3.84-7.78-5.76-16.88-12.46-33.72-25-50.64-37.39-7.39-5.41-14.67-11-22.52-15.71-6.27-3.73-10.94-1.06-18.11,2.78l-2.65,1.47c.4-8.7.78-16.58,1.14-24.46.38-8.36.4-16.75,1.25-25.07.36-3.55,1.6-7.61,3.83-10.25,7.87-9.29,16.34-18.08,24.6-27,9.13-9.9,18.23-19.83,27.53-29.57a5.07,5.07,0,0,1,4.57-1c15.15,6.86,30.19,14,45.26,21,13.73,6.41,27.42,12.91,41.25,19.1,1.43.63,4.82-.05,5.34-1.09,1.19-2.41-.38-3.63-3.14-4.89-17.27-7.85-34.27-16.28-51.44-24.35-11.17-5.25-22.48-10.2-34.71-15.73,5.77-4.8,11.27-9.15,16.49-13.82,2.39-2.13,7.08-4.32,4.34-8.17-3.26-4.59-6.2,1-7.76,2.43-14.28,13.57-28.15,27.58-42,41.59-4.66,4.71-9.19,9.55-13.68,14.42-7.7,8.37-15.79,16.38-23.32,24.9a12.19,12.19,0,0,0-2.69,6.79c-.64,8.89-.73,17.82-1.25,26.72-.6,10.13-1.08,20.29-2.44,30.32-.34,2.53-.64,3.29-6.85,7.29-5.64-9.13-10.45-16.87-15.49-25.07-8.63-14-17.11-28.14-25.89-42.07-6.68-10.6-3.92-22.15-3.88-33.44,0-1.6,1-34,2-48.57.27-3.83,3.09-8,5.86-11,12.6-13.6,25.76-26.68,38.55-40.1,2.91-3.06,5.66-6.25,8.48-9.39,3.07-3.42,5.9-4.06,10.13-1.18,12.46,8.48,25.18,16.58,38,24.58,1.53,1,5.18,1.23,5.88.32,1.94-2.55,0-4.19-2.53-5.78-12.94-8.07-25.67-16.48-38.56-24.64-2.47-1.56-2.79-2.82-1-5.2a44.69,44.69,0,0,0,3.86-7.73,3.2,3.2,0,0,0-4.84-3c-.2.13-4.18,6.18-6.2,9.48L266,493.09c2.2-10.25,10-15.06,18.21-19.86,3.76,2.29,43.18,29.44,43.41,29.48a3,3,0,0,0,3.21-4,3.13,3.13,0,0,0-.89-1.54c-3.1-2.62-37.13-26.56-40.85-29.06l52.21-30.61c21.4,14.35,37.43,24.89,42.33,27.86,5.35,3.24,9.2-1.48,3.86-4.84q-19-11.91-38-23.78c-1.56-1.22-.46-1.95.56-2.27,2.93-.51,4.13-.6,5.73.12,5.2,2.33,40.7,26.17,53.7,32.17-12.84,7.68-25.58,15.3-38.33,22.91-10,6-20.22,11.55-29.84,18.05-4,2.69-6.76,7.23-9.76,11.17-.54.71.34,3.38.83,3.77,1.08.87,14.14,10.62,24.86,3.17,10.27-7.14,21.22-13.32,32-19.76,10.12-6.06,20.47-11.76,30.43-18.07,1.24-.79,7.23-6.6,8.82-11.67v-6.24c5.46.39,33.44,16.41,45.8,26.79l-6.5,3.55a257.18,257.18,0,0,0-22.66-13.08c-5.57-2.84-61,31.35-65.34,33.84-14.31,8.24-3.38,16-3,16.27,14.64,9.52,16.87,11.39,24.14,16,15,9.54,29.63,18.59,43.86,29.23,6.25,4.67,10.11,7.94,16.47,3.08,2.28-1.74,6.09-2.3,7.82,1.37,2.12,4.52,5.29,4.37,8.21,1.8,3.26-2.88,1.39-5.85-1.31-8.28a15.91,15.91,0,0,1-1.11-1.21c2.61-2.41,5.08-2.82,8.27-.66,1.11.75,3.8,0,5.32-.85,5-2.81,9.89-5.84,14.62-9.08,3.22-2.2,4.81-5.1,1.05-8.64,1.42-1,2.72-2,4-2.94,4.42-3.3,5.14-1.76,6.82,1.16,1.85,3.21,3.29,4.45,7.16,1.88s3.19-4.2.72-6.71c-3.63-3.68-2.9-7,.79-10.17,4.27,1.06,7.81,4.14,11.36,7.25a7,7,0,0,1,2.39,5.86c-.62,7.63-1.25,15.43-1.94,23.89l-27.74,17.76A24,24,0,0,0,478,601.7c-5.48,5.34-8.08,7.37-13.56,12.7-3.87,3.75-.49,7.93,2.95,11.88,1.78,2.05,4,3.8,8.28,7.06,3.72,2.85,7.25,6,11.08,8.65,4.76,3.33,9.78,3.85,15.17,1,1.2-.63,3.58-.18,4.84.65,6.29,4.14,12.78,8.13,18.47,13,7.29,6.27,16.15,6.36,24.7,7.59,16.93,2.43,33.88,5,50.91,6.42,11,.94,17.35,8.95,25.23,14.37,20.12,13.86,39.59,28.67,59.33,43.08q37.59,27.42,75.24,54.74a14.33,14.33,0,0,0,7.13,2.35c6.88,0,13.77-1,20.63-.78a17.11,17.11,0,0,1,8.82,3.4c9.33,6.73,18.24,14,27.59,20.77,11.47,8.25,23.8,15.41,34.68,24.36,7.84,6.45,14.57,14.23,22,22.17a.65.65,0,0,1-.84,1c-3.12-2.12-6-4.1-8.93-6.1-1.62-1.12-5.8-6-9.54-2.94-9.73,7.86-18,15.66-27.1,23.29-5.34,4.47-6.42,10.3-1.64,15.1q12.8,12.84,25.64,25.63c5,4.94,11.06,5.54,16.46,1.41,8.43-6.45,16.9-12.88,25-19.69,3.76-3.14,3.28-7.63,1.95-12a5.9,5.9,0,0,1,.12-2.76l26.22,22.24c-10.93,8.69-20.29,16.17-29.69,23.59C893.1,928.66,886.64,933,881,938.3a5.45,5.45,0,0,0-1.37,2.56c-1,3.62,2.31,7.19,5.89,6a3.31,3.31,0,0,0,.89-.42c7-4.75,13.49-10.2,20.15-15.42,8.65-6.77,17.27-13.59,25.94-20.35a4.21,4.21,0,0,1,2.39-1c12.75.29,25.5.51,38.24,1.11,3.25.15,6.45,1.58,9.68,3.45-7.77-1.12-11.6,4.69-16.36,8.44-7.79,6.15-15.54,12.35-23,18.86-4.32,3.75-4.07,10.22,0,14.31,10.48,10.52,21.1,20.91,31.47,31.53,14.18,14.51,28.18,29.2,41.24,42.75-.88,2.77-2.8,6-2,6.9,2.27,2.62,4.85,1.18,7.45-.91,5.81-4.65,12.13-8.67,18-13.27,7.52-5.91,16.07-11.13,21.9-18.45,11.08-13.92,26.6-22.49,38.8-34.92,3.88-3.95,12.3-.79,14.2,5.23,4.84,15.34,9.51,30.73,14.21,46.12,1.72,5.63,3.34,11.29,5.06,17.12C1131.15,1039,1128.39,1040.18,1125.52,1041Zm21.42,9.15-7.44-5.31c-.31-4.74,0-8.35-.86-11.71-1.71-7.12-4-14.09-6-21.14a7,7,0,0,1-.21-1.49,1.57,1.57,0,0,1,2.41-1.4c4.4,2.71,8.57,4.8,11.22,8.11s4.05,8.72,4,13.17C1150,1036.73,1148.16,1043.08,1146.94,1050.13Zm33.57,30.81c-3.06-2.81-18.83-12.35-23.28-16.43.26-.44,1.38-2.75,1.64-3.19,7.53,2,32,10.3,39.43,12.28C1194.91,1075.49,1185.15,1078.36,1180.51,1080.94Zm25.74-12.52a94.76,94.76,0,0,1-9.84-1.78c-14.68-4.09-29.31-8.36-44.38-12.69,1.9-7.66,3.9-13.36,5-19,1.82-9.27-.6-8.14-1.38-14.17,10.22-.52,59-4.07,62.38-4.31,4.41-.31,7,3.47,5.23,7.65C1221,1029.64,1208.38,1064.51,1206.25,1068.42Zm51.65-54.55c-1.3,8.12-7.4,16.17-15.42,23.62a158,158,0,0,1-19,14.24,1.84,1.84,0,0,1-2.75-1.9,26.8,26.8,0,0,1,2.28-8.11c1.78-3.36,5.28-5.9,8.27-8.53,6-5.29,15.92-14.1,23.77-20.87A1.71,1.71,0,0,1,1257.9,1013.87Zm-1.42-35.23c5.25,6.41,2.15,18.2-.8,24.56-1.15-2.74-4.93-9-4.86-11.66C1250.91,988.44,1255.25,981.82,1256.48,978.64Zm36.85-156.9c-1.71.17-4.48,1.09-4.72,2.14-.37,1.58,1.07,3.57,2.13,6.43-3.76,11.45-7.88,24.2-12.22,36.87-.53,1.55-2.26,2.68-3.42,4a10.4,10.4,0,0,0-2.18,2.75q-8.4,22.9-16.62,45.87c-1.14,3.18-2,6.47-3.37,9.57-.69,1.63-2.08,3-4.08,5.69-1.73-8.54-2.67-15.64-4.73-22.39a34.64,34.64,0,0,0-6.75-12.42c-6.07-6.94-12.91-13.21-19.47-19.72-5.34-5.31-5.19-5.08.72-9.83,7.62-6.1,14.8-12.76,22.42-18.86,10.46-8.39,21.29-16.33,31.69-24.79,3.92-3.19,7.14-7.24,10.52-11,.51-.58.52-2.53,0-2.88-1-.78-2.54-1-3.85-1.35-1.79-.54-4.09-.52-5.3-1.66-17.25-16.29-34.34-32.76-51.51-49.14-5.79-5.53-11.69-11-17.54-16.44a12.26,12.26,0,0,0-16-.37c-8.13,6.55-16.69,12.59-24.48,19.51-2.71,2.4-3.67,6.77-5.61,10.6-3.82-1.28-2.89-5.61-2.65-9.43q.89-14.64,2.17-29.25a6.54,6.54,0,0,1,1.73-4.19c10.27-8.52,20.71-16.85,31.06-25.28,2.1-1.71,4.44-3.35,6-5.52a5,5,0,0,0,.73-2.22,3.87,3.87,0,0,0-3-4.24c-1.53-.35-3-.56-3.86,0-7.1,4.89-13.73,10.48-20.55,15.79-6.35,4.94-12.74,9.84-18.66,14.41l-17.1-17.09c2-.85,5.09-1.49,7.37-3.17,7.11-5.22,13.91-10.86,20.88-16.28,3.43-2.67,4.71-9.26,1.78-12.15-8.82-8.73-17.56-17.59-27-25.59a10.7,10.7,0,0,0-13.56-.45c-6.47,4.88-23.26,18.1-27.49,21.45-7.53-6-14.74-12.66-22.78-18.06-19.64-13.22-39.68-25.85-59.51-38.8-1-.66-2.36-2.26-2.15-3.07,2.15-8.47-4.38-11.56-9.55-15-12.57-8.28-25.51-16-38.21-24.11q-31.93-20.37-63.74-41c-14.77-9.52-29.74-18.79-44.07-28.94-2.93-2.07-3.82-7.45-5-11.5-3.18-10.81-5.63-21.85-9.23-32.5-1-2.84-4.81-5-7.73-6.83-6.64-4.19-13.53-8-20.42-12a18.16,18.16,0,0,1,2-2.08c4.67-3.51,4.76-7.83-.15-11.15-5.49-3.72-11.26-7-16.78-10.69-14.18-9.42-16.5-8-17.94-7.26-9.9,5.39-13.5,7-19.42,10.78-7,4.47-9.62,10-5.42,18.73l-22.82,14.76c-3.39-.61-5.94-1.5-8.47-1.46-11.29.19-22.57.68-33.86,1-1.19,0-2.86,0-3.51-.71-8.2-9-19.79-12.68-29.75-18.84-18-11.14-36.55-21.4-54.86-32-3.85-2.24-7.55-4.81-11.61-6.53a3.53,3.53,0,0,0-2.21,0,3.14,3.14,0,0,0-1.84,5,2.17,2.17,0,0,0,.55.5c7.17,4.7,14.54,9.11,21.84,13.61-6.73,5.76-6.33,4.06-20.06-3.59-11.86-6.61-20-12.84-40.76-16.5-6.25-1.1-26.24,1.43-27.38,1.73-7.8,2-15.62,4-23.53,5.43-1.14.21-3.94-2.47-4.08-4-.89-9.32-1.24-18.69-1.77-28,0-11.43,4.75-15.1,9-14,4.95,2.67,13.76,7.31,17.84,9.52.37,5.27.57,10.88,1.31,16.42a2.38,2.38,0,0,0,.43,1,3.32,3.32,0,0,0,5.5-.17,2.12,2.12,0,0,0,.35-1c.21-5.76-1.5-11.62-1.45-17.27a12.09,12.09,0,0,1,4.19-8.61c.9-.84.89-2.3.72-3.86a2.12,2.12,0,0,0-3.21-1.55,11,11,0,0,0-2.3,1.73c-1.6,1.64-2.65,3.82-4.25,6.24l-14.29-7.55,16.54-17.18c5.53,3.09,39.93,21.64,42,22.67s3.93-3.7-.15-6.08c-6.35-3.72-12.92-7.06-19.28-10.76-5.4-3.14-10.65-6.55-16.16-10,13.87-8.18,27.24-16.31,40.88-24,4.56-2.56,9.79-4,14.77-5.75a3.82,3.82,0,0,1,2.6.74c4.91,2.95,9.68,6.15,14.67,8.95s9.75,4.58,15.6,1.55c3.69-1.9,8.17-2.52,12.38-3.15,11.39-1.7,22.79-3.48,34.26-4.39,3.83-.31,7.94,1.69,11.79,3q29.58,10.36,59.08,21C746.7,329.67,758,334,771,338.81c-9,1.22-16.44,2.29-23.89,3.22-12.12,1.51-24.16,2-35.18,7.87a8.61,8.61,0,0,0-2.9,2.42,9.47,9.47,0,0,0-.69,2.19,2.78,2.78,0,0,0,2.36,3.28,2.19,2.19,0,0,0,1.4-.07,38.48,38.48,0,0,1,12.41-5.35c5.1-1.18,7.8-.63,11.55,2.18,23.74,17.78,47.26,35.89,71.61,52.79,19.42,13.47,39.9,25.4,59.94,38,24.09,15.12,48.27,30.1,72.29,45.34,19.24,12.21,38.23,24.81,57.45,37.06,11.31,7.2,22.86,14,33.38,20.5-1.23,2.45-3.18,4.48-2.88,6.1.68,3.69,3.46,1.62,5.64,1.19,7.9-1.56,15.81-3.14,23.76-4.4,4.62-.74,6.09-3.16,5.49-7.53-.81-5.89-1.19-11.85-2.31-17.66a4.42,4.42,0,0,0-.14-.52c-1.08-3.24-6.12-2.42-6.13,1v.06c.07,5.39.86,10.77,1.34,15.91-2.87,1.09-5,1.94-7.13,2.71-4.94,1.78-9.06,1.43-14-1.74-30-19.37-60.35-38.15-90.53-57.22-12-7.58-23.75-15.49-35.73-23.07C888.6,450.68,869,438.5,849.4,426.21c-3.88-2.44-7.66-5-11.53-7.58,12-4.54,22.16,1.81,32.82,4.08,10.46,2.22,20.61,5.89,31,8.54a2.3,2.3,0,0,0,.87.06,3.42,3.42,0,0,0,1.86-5.92,2.65,2.65,0,0,0-1-.59c-11.15-3.37-22.44-6.26-33.68-9.34-2.53-.7-6.62-2-9.12-2.74-8.31-2.57-16.64-3.5-25.26-.34-5.64,2.06-10.33-1.14-14.66-4-5.31-3.52-42.18-30.5-55.67-39.91-8.22-5.73-16.11-11.94-25.13-18.67,3.82-.88,6.74-1.76,9.73-2.2q15.45-2.26,31-4.22a5.85,5.85,0,0,1,3.41,1c18.13,11.28,36.16,22.72,54.34,33.91,32.32,19.91,64.79,39.57,97.08,59.53,27.78,17.16,55.37,34.64,83.1,51.87,14,8.71,28.23,17.11,42.28,25.78,15.79,9.74,31.78,19,44.41,33.22,11.71,13.15,24.45,25.38,36.7,38,9.14,9.45,18.71,18.54,27.18,28.56,6.34,7.5,11.36,16.14,16.73,24.42,9.65,14.9,19,30,28.7,44.87,13.93,21.38,28.1,42.59,42.06,63.95,13,19.82,25.74,39.75,38.68,59.58,2.83,4.35,6,8.49,9.57,13.51C1300.28,821.65,1296.78,821.42,1293.33,821.74Z"/></g><g id="Thrusters"><path d="M496.47,607.08c-7.59,0-13.74,4.47-13.74,10s6.15,10,13.74,10,13.74-4.46,13.74-10S504.05,607.08,496.47,607.08Zm290-187.84c-7.59,0-13.74,4.47-13.74,10s6.15,10,13.74,10,13.74-4.47,13.74-10S794.09,419.24,786.5,419.24Zm89,446.07c-8.66-2.93-17.6.35-20,7.32s2.75,15,11.42,17.94,17.6-.34,20-7.32S884.12,868.25,875.45,865.31Zm261.17-202.82c-8.67-2.94-17.6.34-20,7.31s2.76,15,11.43,17.94,17.6-.34,20-7.32S1145.29,665.42,1136.62,662.49Z" fill="#007aff"/></g></g></svg>