<svg xmlns="http://www.w3.org/2000/svg" viewBox="0 0 1500 1500"><title>Krait Mk II</title><g id="Krait_Mk_II" data-name="Krait Mk II"><g id="Colour"><path d="M1405.19,564.29q-32.58-18.37-65.13-36.77a70.44,70.44,0,0,1-6.56-4.43c-2.94-2.14-5.62-4.69-8.73-6.53-10.65-6.32-21.45-12.4-32.09-18.51.23-1.26.36-2,.5-2.69.6-3.1,1.34-6.14-2.16-8.28-8.8-5.36-17.39-11.09-26.32-16.23q-44.55-25.62-89.28-50.93c-14.45-8.22-29-16.34-43.38-24.59a20.33,20.33,0,0,1-3.86-3.52c-1.75-1.72-3.15-4-5.18-5.2q-36.91-22.39-74-44.52c-1.63-1-3.38-2.2-5.18-2.42-9-1.12-17.94-1.9-26.91-2.87-7-.77-14.07-1.82-21.14-2.42-9.26-.78-18.54-2.47-27.8.44a95.16,95.16,0,0,1-14.79,3.68c-7.17,1-14.45,1.35-21.67,2-11.78,1.11-23.55,2.31-35.33,3.43-7.22.68-14.46,1.23-21.68,1.95-11,1.09-22,2.95-33.1,3.28-25,.74-50,1-75.08,1-25.6,0-51.21-.63-76.81-.74a23.07,23.07,0,0,1-12.13-3.4c-8.89-5.22-88.18-37.59-95.93-40.09a20.46,20.46,0,0,0-7.81-1.24,30.27,30.27,0,0,1-20.92-5.38,10.76,10.76,0,0,0-8.63-.9c-23,8.61-45.93,17.65-68.9,26.45-2.66,1-4.16,2.31-4.33,5.37-.1,1.9-1.22,3.76-2,5.59-.69,1.62-2.2,3.17-2.19,4.74,0,6.08.92,12.19.63,18.24-.23,4.77,2,7.51,5.41,9.91,2.82,2,5.68,3.91,8.67,6-3.7,1.87-7,3.28-9.95,5.14-1.32.82-2.92,2.55-2.94,3.88-.06,5.48.81,11,.66,16.45-.22,7.6,2.44,13.51,8.63,17.9,1.73,1.23,3.32,2.66,5,4l-.58,1.35c-7.91-2-15.95-3.66-23.68-6.23-3.47-1.15-60-30.88-71.81-34.69a31.83,31.83,0,0,0-11.29-1.68,13.4,13.4,0,0,1-11.1-4.12,28.53,28.53,0,0,0-3.55-2.69,11,11,0,0,0-11.3-1.39c-24.62,9.9-49.26,19.74-73.82,29.79-2,.83-3.7,2.93-5.06,4.78-1.49,2-4.83,4.23-4.83,6.57,0,8.05.5,17.74.2,22.54-.36,5.95,2.52,9.43,6.8,12.56,2.57,1.87,5,3.94,7.69,6.08-2.64,1.72-4.61,4-6.81,4.22-4,.47-4.15,2.71-3.91,5.56.49,5.87,1.08,11.73,1.7,18.37-1.6-1.07-2.59-1.7-3.54-2.37-13-9.12-25.94-18.33-39-27.34-5.34-3.68-8.07-2.93-11.8,2.59-7,10.35-14,20.69-20.88,31.09-9.76,14.71-19.57,29.39-29.1,44.24-4.17,6.5-4.25,13.05.23,20,13.65,21.06,26.87,42.4,40.4,63.54,1.61,2.53,1.47,4.26,0,6.78a113.93,113.93,0,0,0-5.17,11.54c-1,2.22-1.29,5-2.84,6.64Q161.08,681,122.21,722.07a14.44,14.44,0,0,0-3.38,5.53q-6.37,21.71-12.34,43.53a16,16,0,0,0-.36,6.16c.67,5.27,1.86,10.47,2.48,15.74.94,8.08,3.15,15.17,10.93,19.55,1.75,1,2.42,3.94,3.56,6,1.55,2.81,2.51,6.22,4.71,8.37,16.29,16,32.85,31.65,49.27,47.48,2.7,2.6,5.1,5.37,9.51,4.63,1-.17,2.37,1,3.3,1.87,17.56,16.26,35.2,32.44,52.58,48.89,21,19.87,41.81,40,62.65,60,1,.94,14.83,13.84,18.22,16.33,4.49,3.3,23.2,23.56,31.3,22,6.17-1.2,6.17-1.2,6.17-7.7v-5.84c1.13.92,1.7,1.34,2.2,1.82,7.54,7.21,15,14.48,22.64,21.61a17.72,17.72,0,0,0,4.83,2.73c1.82.84,4,1.09,5.56,2.23,2.39,1.75,4.17,4.33,6.58,6a93,93,0,0,0,11.85,7.29c5.46,2.74,11.23,4.6,15.74,9.28,8.37,8.7,17.28,16.87,26,25.21q18.75,17.91,37.57,35.77c2.18,2.08,4.65,3.2,7,.81s2.18-5.33-.36-7.84-5-5.07-7.64-7.52c-19.62-18.53-119.06-111.8-134-125.87,2.12-2.25,3.39-3.58,5-5.25,2.6,3,17.7,16.89,22.69,21.49,10.85,10,21.46,20.27,32.24,30.33,7.29,6.79,14.68,13.47,22.09,20.13,2.68,2.41,5.81,2.72,8.31,0,2.75-3,.6-5.38-1.65-7.6-3.26-3.23-6.23-6.77-9.67-9.78-17.5-15.35-31.55-28.72-50.5-48.31,5-3.12,5.15-5.31,1-9.24-10.18-9.62-20.34-19.24-30.58-28.79-9.15-8.54-18.31-17.07-27.64-25.42-1.48-1.33-4.07-2.58-5.76-2.19-1.51.35-2.48,3-3.86,4.9-1.41-1.24-24.38-8.62-26.8-10.56-6.12-4.91-12.58-9.42-18.46-14.59-6.86-6-11.69-5.93-17.83,2l-14-12.9c4-13.71,42.8-4.79,46.1-4.09C316,892,342.4,897.47,368.83,903.07s52.85,11.3,79.27,16.94c10.71,2.28,21.32,6.85,32.42,1.59a2.37,2.37,0,0,1,1.3-.06c9.76,1.44,19.72,2.13,29.26,4.49,33.13,8.22,66.15,16.9,99.16,25.63q107.6,28.44,215.1,57.22c2.73.73,5,3.22,7.51,4.8s5.25,3.94,8.19,4.72c26.79,7.14,53.38,15.07,80.76,19.82,11.07,1.92,21.42,8.25,33.28,5.39.64-.15,1.43.29,2.14.48,23.57,6.26,47.15,12.47,70.69,18.84,8.53,2.31,18,2.65,23.93,10.93.66.92,2.34,1.19,3.59,1.62,10.83,3.65,21.55,7.68,32.55,10.72a34.67,34.67,0,0,0,14.87.46c8.56-1.54,98.83-24.25,112.26-28.4a8.85,8.85,0,0,0,4.36-3.58c5.54-8.71,9.75-18,10.16-28.49.28-7.15,2.76-12.56,9.31-16.19,3.72-2.06,6.85-5.2,10.2-7.92,5.23-4.25,5.4-8.74.69-13.74-12.76-13.57-25.45-27.21-38.28-40.72-2.83-3-4-5.66-1-9.24a25,25,0,0,0,3.52-6.18c1-2.43,2.3-2.55,4.5-1.53,4.3,2,8.76,3.66,13.08,5.6,9.07,4.06,18.43,7.6,27,12.47a224.55,224.55,0,0,1,25.4,17.29c5.26,4,10,5.36,15.63,1.35,2.41-1.72,4.11-1.21,5.72,1.53s4.14,4.63,7.79,4c5.8-1,11.61-2.15,17.45-2.89,5.23-.66,7.57-3.91,10-8.24,7.81-14.11,11.21-29.89,17.57-44.51,5.36-12.35,11.31-24.43,14.27-37.72,1.24-5.61,1.5-10.55-1.79-15.7-3.75-5.86-6.49-12.36-10.18-18.27a23.71,23.71,0,0,0-7.33-7.42c-4.28-2.64-7.72-5.59-10.22-10.1-5.11-9.21-11-18-16.08-27.21-4.6-8.36-12.09-15.42-12.16-25.93a3.82,3.82,0,0,0-.51-1.69c-5-9.37-9.75-18.84-15-28.05-6.55-11.47-13.56-22.69-20.24-34.09-2-3.47-4-6.51-8.67-6.66-.93,0-2-1.51-2.69-2.55-7-11.19-14-22.37-20.81-33.67-22.27-37-44.24-74.19-66.81-111-7.52-12.27-13.3-25-16.18-39a9.59,9.59,0,0,1-.31-3.09c1.57-12-2-22.74-7.93-33.06-3.54-6.16-6.18-12.83-9.22-19.27-4.12-8.69-8.24-17.37-12.24-25.82,4.49-4.31,8.45-3.43,13.09-.76q37.24,21.45,74.78,42.39c11.71,6.51,23.8,12.33,35.62,18.65,6.59,3.53,12.45,8.59,20.52,8.79,1.28,0,2.52,1.42,3.8,2.17,12.52,7.3,24.9,14.86,37.63,21.77,5.75,3.13,12.54,4.35,18.27,7.5,20.94,11.53,41.65,23.46,62.38,35.35,2.86,1.65,5,1.15,6.34-1.45C1407.74,568.91,1408.36,566.08,1405.19,564.29Z" fill="#c9c9c9"/><path d="M1405.19,564.29q-32.58-18.37-65.13-36.77a70.44,70.44,0,0,1-6.56-4.43c-2.94-2.14-5.62-4.69-8.73-6.53-10.65-6.32-21.45-12.4-32.09-18.51.23-1.26.36-2,.5-2.69.6-3.1,1.34-6.14-2.16-8.28-8.8-5.36-17.39-11.09-26.32-16.23q-44.55-25.62-89.28-50.93c-14.45-8.22-29-16.34-43.38-24.59a20.33,20.33,0,0,1-3.86-3.52c-1.75-1.72-3.15-4-5.18-5.2q-36.91-22.39-74-44.52c-1.63-1-3.38-2.2-5.18-2.42-9-1.12-17.94-1.9-26.91-2.87-7-.77-14.07-1.82-21.14-2.42-9.26-.78-18.54-2.47-27.8.44a95.16,95.16,0,0,1-14.79,3.68c-7.17,1-14.45,1.35-21.67,2-11.78,1.11-23.55,2.31-35.33,3.43-7.22.68-14.46,1.23-21.68,1.95-11,1.09-22,2.95-33.1,3.28-25,.74-50,1-75.08,1-25.6,0-51.21-.63-76.81-.74a23.07,23.07,0,0,1-12.13-3.4c-8.89-5.22-88.18-37.59-95.93-40.09a20.46,20.46,0,0,0-7.81-1.24,30.27,30.27,0,0,1-20.92-5.38,10.76,10.76,0,0,0-8.63-.9c-23,8.61-45.93,17.65-68.9,26.45-2.66,1-4.16,2.31-4.33,5.37-.1,1.9-1.22,3.76-2,5.59-.69,1.62-2.2,3.17-2.19,4.74,0,6.08.92,12.19.63,18.24-.23,4.77,2,7.51,5.41,9.91,2.82,2,5.68,3.91,8.67,6-3.7,1.87-7,3.28-9.95,5.14-1.32.82-2.92,2.55-2.94,3.88-.06,5.48.81,11,.66,16.45-.22,7.6,2.44,13.51,8.63,17.9,1.73,1.23,3.32,2.66,5,4l-.58,1.35c-7.91-2-15.95-3.66-23.68-6.23-3.47-1.15-60-30.88-71.81-34.69a31.83,31.83,0,0,0-11.29-1.68,13.4,13.4,0,0,1-11.1-4.12,28.53,28.53,0,0,0-3.55-2.69,11,11,0,0,0-11.3-1.39c-24.62,9.9-49.26,19.74-73.82,29.79-2,.83-3.7,2.93-5.06,4.78-1.49,2-4.83,4.23-4.83,6.57,0,8.05.5,17.74.2,22.54-.36,5.95,2.52,9.43,6.8,12.56,2.57,1.87,5,3.94,7.69,6.08-2.64,1.72-4.61,4-6.81,4.22-4,.47-4.15,2.71-3.91,5.56.49,5.87,1.08,11.73,1.7,18.37-1.6-1.07-2.59-1.7-3.54-2.37-13-9.12-25.94-18.33-39-27.34-5.34-3.68-8.07-2.93-11.8,2.59-7,10.35-14,20.69-20.88,31.09-9.76,14.71-19.57,29.39-29.1,44.24-4.17,6.5-4.25,13.05.23,20,13.65,21.06,26.87,42.4,40.4,63.54,1.61,2.53,1.47,4.26,0,6.78a113.93,113.93,0,0,0-5.17,11.54c-1,2.22-1.29,5-2.84,6.64Q161.08,681,122.21,722.07a14.44,14.44,0,0,0-3.38,5.53q-6.37,21.71-12.34,43.53a16,16,0,0,0-.36,6.16c.67,5.27,1.86,10.47,2.48,15.74.94,8.08,3.15,15.17,10.93,19.55,1.75,1,2.42,3.94,3.56,6,1.55,2.81,2.51,6.22,4.71,8.37,16.29,16,32.85,31.65,49.27,47.48,2.7,2.6,5.1,5.37,9.51,4.63,1-.17,2.37,1,3.3,1.87,17.56,16.26,35.2,32.44,52.58,48.89,21,19.87,41.81,40,62.65,60,1,.94,14.83,13.84,18.22,16.33,4.49,3.3,23.2,23.56,31.3,22,6.17-1.2,6.17-1.2,6.17-7.7v-5.84c1.13.92,1.7,1.34,2.2,1.82,7.54,7.21,15,14.48,22.64,21.61a17.72,17.72,0,0,0,4.83,2.73c1.82.84,4,1.09,5.56,2.23,2.39,1.75,4.17,4.33,6.58,6a93,93,0,0,0,11.85,7.29c5.46,2.74,11.23,4.6,15.74,9.28,8.37,8.7,17.28,16.87,26,25.21q18.75,17.91,37.57,35.77c2.18,2.08,4.65,3.2,7,.81s2.18-5.33-.36-7.84-5-5.07-7.64-7.52c-19.62-18.53-119.06-111.8-134-125.87,2.12-2.25,3.39-3.58,5-5.25,2.6,3,17.7,16.89,22.69,21.49,10.85,10,21.46,20.27,32.24,30.33,7.29,6.79,14.68,13.47,22.09,20.13,2.68,2.41,5.81,2.72,8.31,0,2.75-3,.6-5.38-1.65-7.6-3.26-3.23-6.23-6.77-9.67-9.78-17.5-15.35-31.55-28.72-50.5-48.31,5-3.12,5.15-5.31,1-9.24-10.18-9.62-20.34-19.24-30.58-28.79-9.15-8.54-18.31-17.07-27.64-25.42-1.48-1.33-4.07-2.58-5.76-2.19-1.51.35-2.48,3-3.86,4.9-1.41-1.24-24.38-8.62-26.8-10.56-6.12-4.91-12.58-9.42-18.46-14.59-6.86-6-11.69-5.93-17.83,2l-14-12.9c4-13.71,42.8-4.79,46.1-4.09C316,892,342.4,897.47,368.83,903.07s52.85,11.3,79.27,16.94c10.71,2.28,21.32,6.85,32.42,1.59a2.37,2.37,0,0,1,1.3-.06c9.76,1.44,19.72,2.13,29.26,4.49,33.13,8.22,66.15,16.9,99.16,25.63q107.6,28.44,215.1,57.22c2.73.73,5,3.22,7.51,4.8s5.25,3.94,8.19,4.72c26.79,7.14,53.38,15.07,80.76,19.82,11.07,1.92,21.42,8.25,33.28,5.39.64-.15,1.43.29,2.14.48,23.57,6.26,47.15,12.47,70.69,18.84,8.53,2.31,18,2.65,23.93,10.93.66.92,2.34,1.19,3.59,1.62,10.83,3.65,21.55,7.68,32.55,10.72a34.67,34.67,0,0,0,14.87.46c8.56-1.54,98.83-24.25,112.26-28.4a8.85,8.85,0,0,0,4.36-3.58c5.54-8.71,9.75-18,10.16-28.49.28-7.15,2.76-12.56,9.31-16.19,3.72-2.06,6.85-5.2,10.2-7.92,5.23-4.25,5.4-8.74.69-13.74-12.76-13.57-25.45-27.21-38.28-40.72-2.83-3-4-5.66-1-9.24a25,25,0,0,0,3.52-6.18c1-2.43,2.3-2.55,4.5-1.53,4.3,2,8.76,3.66,13.08,5.6,9.07,4.06,18.43,7.6,27,12.47a224.55,224.55,0,0,1,25.4,17.29c5.26,4,10,5.36,15.63,1.35,2.41-1.72,4.11-1.21,5.72,1.53s4.14,4.63,7.79,4c5.8-1,11.61-2.15,17.45-2.89,5.23-.66,7.57-3.91,10-8.24,7.81-14.11,11.21-29.89,17.57-44.51,5.36-12.35,11.31-24.43,14.27-37.72,1.24-5.61,1.5-10.55-1.79-15.7-3.75-5.86-6.49-12.36-10.18-18.27a23.71,23.71,0,0,0-7.33-7.42c-4.28-2.64-7.72-5.59-10.22-10.1-5.11-9.21-11-18-16.08-27.21-4.6-8.36-12.09-15.42-12.16-25.93a3.82,3.82,0,0,0-.51-1.69c-5-9.37-9.75-18.84-15-28.05-6.55-11.47-13.56-22.69-20.24-34.09-2-3.47-4-6.51-8.67-6.66-.93,0-2-1.51-2.69-2.55-7-11.19-14-22.37-20.81-33.67-22.27-37-44.24-74.19-66.81-111-7.52-12.27-13.3-25-16.18-39a9.59,9.59,0,0,1-.31-3.09c1.57-12-2-22.74-7.93-33.06-3.54-6.16-6.18-12.83-9.22-19.27-4.12-8.69-8.24-17.37-12.24-25.82,4.49-4.31,8.45-3.43,13.09-.76q37.24,21.45,74.78,42.39c11.71,6.51,23.8,12.33,35.62,18.65,6.59,3.53,12.45,8.59,20.52,8.79,1.28,0,2.52,1.42,3.8,2.17,12.52,7.3,24.9,14.86,37.63,21.77,5.75,3.13,12.54,4.35,18.27,7.5,20.94,11.53,41.65,23.46,62.38,35.35,2.86,1.65,5,1.15,6.34-1.45C1407.74,568.91,1408.36,566.08,1405.19,564.29Z" fill="none" stroke="#000" stroke-linecap="round" stroke-linejoin="round" stroke-width="8"/></g><g id="Grey"><path d="M512,904.37l1.46,14.37s247.5,69.59,249.3,70.29,1.87-19.22,1.87-19.22L516.14,904.37Zm402.88,53.07-49.78-8.59-17.6,15-9.69,23.36v26.23l70.55,19.88,41.77,10.46,5.34-32.34-14.31-17.55ZM1192,1013.26l-104.36,26.79s-24.93,2.18-26,2.18-11.66,2.71-11.66,2.71l-87.62-22.38-4.41,16.36,66.76,15.78,29.63,14.67,33,11.36h11.19l11.3-12.1,114-30.44,1.32-15.72-17.6-16.67Zm162.94-171.42-9.9-5.18v22.66l-32.13,67.43s-13,9.52-14.07,9-73.7-50.05-73.7-50.05-40.7,21.62-42.18,21L1196.73,933l12.64-9.54h9.77s65.06,40.33,66.13,40,27.63,2.52,27.63,2.52l24.53-8.48,31.8-80.21v-8.62Zm-40.72-68.63-33.13-52.62-17.45-9.21L1236.89,718,1248,749ZM998.87,431.41l93.41,50.86,22.22,34.48,14.39,8.31h26.94l1.84-12.69-34.1-87.9,2.43-31.25-88.18-50.94-60.11-4.41-18.54,4.53,10.21,25.27-14.2,11.89L953.33,386l25.61,33.56Zm-1.16,455.3c15.51,3.09,23.72.66,30.87-4.34l6.25-5.54,95.34,67.5-4.6-15.65L1061.15,852l3-11.09,16.5,2.16,22.45-13.13V818.22s32.18-6.62,32-6.56,18.51-10.86,18.51-10.86l-18.51-31.21-139.91-95,15.45-20-81.86-57.11-8.77-.2-36.71,16.14-5.9-2.18,28.86-46.46V555l-18.06-56.43-22.75-21.48-29.7-24.73-14.31-4.87-87.57,37-14.74,17.17V511l-3.62,3.78-22.3-16.19-9.69,8.19-24-17,5.25-6.4v-3.3l-10.19-5.27-7.33,5.27h-2.66L604.75,452.4l-2.22,27.69L571,457.66l-22,12.91,78.2,58.19,2.28,9.09L509.71,593.07,496.2,622.44,498,638l82.14,44,47.3,19h15.2l82.81-13.27,13.31,2.2-39.73,24.35-.64,4.87,84.88,58.05,30.11-11.75L955.18,870.63Zm-788-259,2.26.49L325.7,504.76l10.4,5.9,12.49-29.35,12.49-8.85,19.61,12,28.45-13.91L433,483.68,467.23,466l-13.51-11,20.07-13.92-4.36-10.91,3.07-4.11,27.78,4.11,35,18.92v-37.9l19-18.1,11.58-1.65,21.2,5.81L613.21,386l17.69,8.82,35.83-12.6-13.91-10.42,12-8.23,17.87-8,23.55,11,86-11.83-125.5-2.93-56.5-28.49-30.69-13.94-33.33-7.62s-71,23.12-69.08,25.48-7.7,12.47-7.7,12.47l3.09,26.52,19.21,8.62L472.52,386l1.27,23.39L493,427.5,467.6,424l-62.21-30.89-51-18.29-65.47,24.31-23.2,14.61,3.13,27.36,12.67,10.14-1.27,6.86-8.75,6.38.63,24L285,498.61l-3.5,5.49Zm292,234.09L488.13,849l-79.52-20.27-86.9-90.12L298.57,724.7,239.9,710.54l-30.18,8.39-17.85-1.68-54.75-8.68-14.91,13.5-13.83,42.21-1.83,16s9.78,25.13,11,24.92,49.36,53,49.36,53l12.1,4.76,19.44-14.3,68.23,29.7,187,41.17,18.8,1.84,24.41-.74-1.46-30.17,14.24-21.63ZM302.52,926.75,274.13,902.4l-8-1.1-7.92,7.11,17.3,19.18,33.31,16.74,51.38,64,33.1,31.71h15.31l-46.06-44.93Z" fill="#5e5e5e"/></g><g id="Canopy"><path d="M1194.7,933.7s-36.85,25.85-37.4,26.06l61.84,55.71,30.83-23.1Z" fill="#82b3d1"/></g><g id="Shadows" opacity="0.2"><path d="M1219.14,1015.47c-8.19,18.7-15.51,16.5-15.51,16.5s-89.23,22.73-102.73,22.73-51-9.76-51-9.76L475.33,885.09l-35.45-3L265,845.42,198.91,815l-71.49-60.42-5.21-32.46-16.08,55.22,11.44,27.87,9.85,16.77s90.25,71.64,74.35,53.1c-12.37-14.41,12.33-17.57,12.33-17.57L241.85,873,453.72,919.5l21.61.3L511.08,926l310.38,82.31,118.21,32.8,90.58,18.74,61.27,27,128.82-46.87S1227.33,996.77,1219.14,1015.47Zm134.42-111s-15.86,34-22.46,39.83-19.8.74-20.53,0S1223,878,1223,878s-134.59-77.37-138.7-77.37A13.18,13.18,0,0,0,1077,803s18.29,16.72,27.83,25.52,26,27.5,36.66,41.86,42.17,63.74,45.51,68.74l33.08-5.37L1250,944.33,1292,965.92h31.45L1348.33,949l5.25-32.34ZM212.82,615,259,544.3l35-2.25,178.59,86.48L552.67,669l55.55,24.25s-43.46-32.59-51.16-41.46-9.31-21.8-10.65-25.38C542.86,616.93,552,615,552,615L529.2,579.87l-71-52.07L305.79,412.13l-6,9-31.16-1.52-1.75,22.7,14.61,8.93-11.71,14.83-2,14.63-66.1,3.76-24.2,36.16L166.2,538.43l8.43,20.66ZM473.08,382.2l-3.25,24.67,17.2,12.4,56,46.82,89.2,66.2,46.66,39.33,49.53-10.09,28.33-3.62,70.21,49.31s-68.56-78.69-72.6-84.4,3.67-8.59,3.21-10.91-16.47-26.53-16.47-26.53L508.89,333.1,501.69,345l-27.9-14.16-6.27,30.93,7.81,9.62Z" fill="#0c0c0c"/></g><g id="Outline"><path d="M1405.19,564.29q-32.58-18.37-65.13-36.77a70.44,70.44,0,0,1-6.56-4.43c-2.94-2.14-5.62-4.69-8.73-6.53-10.65-6.32-21.45-12.4-32.09-18.51.23-1.26.36-2,.5-2.69.6-3.1,1.34-6.14-2.16-8.28-8.8-5.36-17.39-11.09-26.32-16.23q-44.55-25.62-89.28-50.93c-14.45-8.22-29-16.34-43.38-24.59a20.33,20.33,0,0,1-3.86-3.52c-1.75-1.72-3.15-4-5.18-5.2q-36.91-22.39-74-44.52c-1.63-1-3.38-2.2-5.18-2.42-9-1.12-17.94-1.9-26.91-2.87-7-.77-14.07-1.82-21.14-2.42-9.26-.78-18.54-2.47-27.8.44a95.16,95.16,0,0,1-14.79,3.68c-7.17,1-14.45,1.35-21.67,2-11.78,1.11-23.55,2.31-35.33,3.43-7.22.68-14.46,1.23-21.68,1.95-11,1.09-22,2.95-33.1,3.28-25,.74-50,1-75.08,1-25.6,0-51.21-.63-76.81-.74a23.07,23.07,0,0,1-12.13-3.4c-8.89-5.22-88.18-37.59-95.93-40.09a20.46,20.46,0,0,0-7.81-1.24,30.27,30.27,0,0,1-20.92-5.38,10.76,10.76,0,0,0-8.63-.9c-23,8.61-45.93,17.65-68.9,26.45-2.66,1-4.16,2.31-4.33,5.37-.1,1.9-1.22,3.76-2,5.59-.69,1.62-2.2,3.17-2.19,4.74,0,6.08.92,12.19.63,18.24-.23,4.77,2,7.51,5.41,9.91,2.82,2,5.68,3.91,8.67,6-3.7,1.87-7,3.28-9.95,5.14-1.32.82-2.92,2.55-2.94,3.88-.06,5.48.81,11,.66,16.45-.22,7.6,2.44,13.51,8.63,17.9,1.73,1.23,3.32,2.66,5,4l-.58,1.35c-7.91-2-15.95-3.66-23.68-6.23-3.47-1.15-60-30.88-71.81-34.69a31.83,31.83,0,0,0-11.29-1.68,13.4,13.4,0,0,1-11.1-4.12,28.53,28.53,0,0,0-3.55-2.69,11,11,0,0,0-11.3-1.39c-24.62,9.9-49.26,19.74-73.82,29.79-2,.83-3.7,2.93-5.06,4.78-1.49,2-4.83,4.23-4.83,6.57,0,8.05.5,17.74.2,22.54-.36,5.95,2.52,9.43,6.8,12.56,2.57,1.87,5,3.94,7.69,6.08-2.64,1.72-4.61,4-6.81,4.22-4,.47-4.15,2.71-3.91,5.56.49,5.87,1.08,11.73,1.7,18.37-1.6-1.07-2.59-1.7-3.54-2.37-13-9.12-25.94-18.33-39-27.34-5.34-3.68-8.07-2.93-11.8,2.59-7,10.35-14,20.69-20.88,31.09-9.76,14.71-19.57,29.39-29.1,44.24-4.17,6.5-4.25,13.05.23,20,13.65,21.06,26.87,42.4,40.4,63.54,1.61,2.53,1.47,4.26,0,6.78a113.93,113.93,0,0,0-5.17,11.54c-1,2.22-1.29,5-2.84,6.64Q161.08,681,122.21,722.07a14.44,14.44,0,0,0-3.38,5.53q-6.37,21.71-12.34,43.53a16,16,0,0,0-.36,6.16c.67,5.27,1.86,10.47,2.48,15.74.94,8.08,3.15,15.17,10.93,19.55,1.75,1,2.42,3.94,3.56,6,1.55,2.81,2.51,6.22,4.71,8.37,16.29,16,32.85,31.65,49.27,47.48,2.7,2.6,5.1,5.37,9.51,4.63,1-.17,2.37,1,3.3,1.87,17.56,16.26,35.2,32.44,52.58,48.89,21,19.87,41.81,40,62.65,60,1,.94,14.83,13.84,18.22,16.33,4.49,3.3,23.2,23.56,31.3,22,6.17-1.2,6.17-1.2,6.17-7.7v-5.84c1.13.92,1.7,1.34,2.2,1.82,7.54,7.21,15,14.48,22.64,21.61a17.72,17.72,0,0,0,4.83,2.73c1.82.84,4,1.09,5.56,2.23,2.39,1.75,4.17,4.33,6.58,6a93,93,0,0,0,11.85,7.29c5.46,2.74,11.23,4.6,15.74,9.28,8.37,8.7,17.28,16.87,26,25.21q18.75,17.91,37.57,35.77c2.18,2.08,4.65,3.2,7,.81s2.18-5.33-.36-7.84-5-5.07-7.64-7.52c-19.62-18.53-119.06-111.8-134-125.87,2.12-2.25,3.39-3.58,5-5.25,2.6,3,17.7,16.89,22.69,21.49,10.85,10,21.46,20.27,32.24,30.33,7.29,6.79,14.68,13.47,22.09,20.13,2.68,2.41,5.81,2.72,8.31,0,2.75-3,.6-5.38-1.65-7.6-3.26-3.23-6.23-6.77-9.67-9.78-17.5-15.35-31.55-28.72-50.5-48.31,5-3.12,5.15-5.31,1-9.24-10.18-9.62-20.34-19.24-30.58-28.79-9.15-8.54-18.31-17.07-27.64-25.42-1.48-1.33-4.07-2.58-5.76-2.19-1.51.35-2.48,3-3.86,4.9-1.41-1.24-24.38-8.62-26.8-10.56-6.12-4.91-12.58-9.42-18.46-14.59-6.86-6-11.69-5.93-17.83,2l-14-12.9c4-13.71,42.8-4.79,46.1-4.09C316,892,342.4,897.47,368.83,903.07s52.85,11.3,79.27,16.94c10.71,2.28,21.32,6.85,32.42,1.59a2.37,2.37,0,0,1,1.3-.06c9.76,1.44,19.72,2.13,29.26,4.49,33.13,8.22,66.15,16.9,99.16,25.63q107.6,28.44,215.1,57.22c2.73.73,5,3.22,7.51,4.8s5.25,3.94,8.19,4.72c26.79,7.14,53.38,15.07,80.76,19.82,11.07,1.92,21.42,8.25,33.28,5.39.64-.15,1.43.29,2.14.48,23.57,6.26,47.15,12.47,70.69,18.84,8.53,2.31,18,2.65,23.93,10.93.66.92,2.34,1.19,3.59,1.62,10.83,3.65,21.55,7.68,32.55,10.72a34.67,34.67,0,0,0,14.87.46c8.56-1.54,98.83-24.25,112.26-28.4a8.85,8.85,0,0,0,4.36-3.58c5.54-8.71,9.75-18,10.16-28.49.28-7.15,2.76-12.56,9.31-16.19,3.72-2.06,6.85-5.2,10.2-7.92,5.23-4.25,5.4-8.74.69-13.74-12.76-13.57-25.45-27.21-38.28-40.72-2.83-3-4-5.66-1-9.24a25,25,0,0,0,3.52-6.18c1-2.43,2.3-2.55,4.5-1.53,4.3,2,8.76,3.66,13.08,5.6,9.07,4.06,18.43,7.6,27,12.47a224.55,224.55,0,0,1,25.4,17.29c5.26,4,10,5.36,15.63,1.35,2.41-1.72,4.11-1.21,5.72,1.53s4.14,4.63,7.79,4c5.8-1,11.61-2.15,17.45-2.89,5.23-.66,7.57-3.91,10-8.24,7.81-14.11,11.21-29.89,17.57-44.51,5.36-12.35,11.31-24.43,14.27-37.72,1.24-5.61,1.5-10.55-1.79-15.7-3.75-5.86-6.49-12.36-10.18-18.27a23.71,23.71,0,0,0-7.33-7.42c-4.28-2.64-7.72-5.59-10.22-10.1-5.11-9.21-11-18-16.08-27.21-4.6-8.36-12.09-15.42-12.16-25.93a3.82,3.82,0,0,0-.51-1.69c-5-9.37-9.75-18.84-15-28.05-6.55-11.47-13.56-22.69-20.24-34.09-2-3.47-4-6.51-8.67-6.66-.93,0-2-1.51-2.69-2.55-7-11.19-14-22.37-20.81-33.67-22.27-37-44.24-74.19-66.81-111-7.52-12.27-13.3-25-16.18-39a9.59,9.59,0,0,1-.31-3.09c1.57-12-2-22.74-7.93-33.06-3.54-6.16-6.18-12.83-9.22-19.27-4.12-8.69-8.24-17.37-12.24-25.82,4.49-4.31,8.45-3.43,13.09-.76q37.24,21.45,74.78,42.39c11.71,6.51,23.8,12.33,35.62,18.65,6.59,3.53,12.45,8.59,20.52,8.79,1.28,0,2.52,1.42,3.8,2.17,12.52,7.3,24.9,14.86,37.63,21.77,5.75,3.13,12.54,4.35,18.27,7.5,20.94,11.53,41.65,23.46,62.38,35.35,2.86,1.65,5,1.15,6.34-1.45C1407.74,568.91,1408.36,566.08,1405.19,564.29Zm-1044.84,433c.27-.6,18.36,16,18.7,16.3,4.2,3.69,12.07,11.61,16.16,15.43,6.39,5.3,3.64,9.33-3,4.38-4.29-3.1-27.13-25-31.3-28.23C360.32,1004.75,360,998.11,360.35,997.32Zm-30.94-15.4,14,12.32c5.14,4.61,8.57,7.51,8.83,12.61.22,4.16.67,7.54.69,10.18a2.43,2.43,0,0,1-3.88,2c-3.12-2.31-10.17-8.21-15-12.5C325.17,999,325.25,993.24,329.41,981.92ZM266.32,906.1a3.18,3.18,0,0,1,4.22.1c4.49,3.65,24.33,19.16,28.39,23.28,5.76,5.85,5.9,9.59.92,5.83-7.88-6.56-17.58-9.8-18.15-10.23-5.38-4-13-11.54-18.33-15.65C263.56,908.79,264.72,907.65,266.32,906.1ZM247.43,911c2-2.88,3.59-1,5,.34,7.24,6.87,14.47,13.74,21.61,20.72a16.1,16.1,0,0,0,8.17,4.69,21.86,21.86,0,0,1,9.47,5c10.39,9.38,20.5,19.07,30.55,28.82,1.07,1,1.54,3.32,1.36,4.92-.35,3.11-3.59,9.75-4.51,13.54-9.28-9-16.42-15.32-28.49-27.37C275.08,946.15,259,931,244.12,915.18,243.52,914.55,245.4,913.16,247.43,911Zm863.19-523.77c4.3,2.36,10.7,5.84,13.13,7.2-1.13,1.53-4.39,5.77-5.62,7.42-1.5-2.1-6.14-9.09-8.8-13.23A1,1,0,0,1,1110.62,387.18ZM964.8,345.57c1.62-3.68,9.53-3.29,11.9-3.29,5.46-.08,10.3,4,12.78,6.83a2,2,0,0,1-.85,3.22c-4.85,1.66-14.39,4.81-17.94,6.21a1.35,1.35,0,0,1-1.69-.68C967.66,355.13,963.43,348.66,964.8,345.57Zm7.88,30.89s22.12,16.24,28,20.25l-18.79,11.65-11.25-17h.06c-2-3.19-7.54-11.8-8.09-12.82C965.65,376.17,968.28,373.43,972.68,376.46Zm24.11-7.06c8.33-4.55,19.34-1.5,25,3.06,3,2.41,2.65,4.84-.92,6.4a39,39,0,0,1-5.35,1.77,15.84,15.84,0,0,1-9.88-.52,67.53,67.53,0,0,1-9.56-4.38C992.73,373.77,993.33,371.29,996.79,369.4ZM1093.53,476a12,12,0,0,1,4,3.93c6.21,9.34,10.35,16.53,16.14,26a28.93,28.93,0,0,0,12.76,11.63c3.32,1.45,5.62,5.21,3.54,5.21s-2.39-2.63-4.7-3.2c-6.78-1.7-10.56-6.41-13.92-12.12-5-8.57-10.44-16.94-16.09-25.11-2-2.92-2.67-3.52-5.78-5.2-33.53-18.12-69.34-37.2-103.06-55-5.34-2.81-9.5-7.52-12.71-12.52-5.61-8.71-11.36-17.35-17.05-26-1.23-2.12.47-4,1.38-2.5,5.23,7.94,13,18.67,18.22,26.84a40,40,0,0,0,15.18,13.9Q1042.59,448.8,1093.53,476Zm-94.66-59.61h0c.13-.92,7.92-8,8.84-7.92,1-.43,3.14-.51,6.08.24,14.15,3.6,28.11,7.95,42.13,12a6,6,0,0,1,2.64,1.33c4.63,5.1,12.9,11.57,16.64,17.73l9.22,16c-3.91,2.6-7.25,2.29-11.32.09-23.49-12.71-47.14-25.09-70.74-37.59C1001.19,417.7,1000,417.06,998.87,416.43Zm102,41.25c6-2.4,8.81-1.6,11.81,3,4.84,7.49,9.71,15,14.54,22.45.69,1.08,1.29,2.22,2,3.48-2.35.5-4.34,1.23-6.34,1.26-1.45,0-3.62-.43-4.27-1.44C1112.6,477,1106.8,467.34,1100.9,457.68ZM818.76,357.44c7.66-.72,92.93-8.83,104.55-9.9,8-.74,15.93-1.31,23.89-1.92,2.44-.19,5.57-1.21,7.15-.1s1.85,4.45,2.7,6.79c1.29,3.58,2.61,7.15,4,10.87-5.33.48-10.16,1-15,1.32-5.91.4-11.87.37-17.75,1a24,24,0,0,1-17.45-4.87c-7.18-5.22-13.88-5.18-23.73-4.38-5.1.41-35.34,3.3-39.82,3.71-8.11.73-16.25,1.16-24.36,1.91-11.33,1.06-22.64,2.35-34,3.43-4.05.52-34,3.21-38.05,3.59-7.67.71-15.34,1.28-23,1.91-1.33.11-2.4.25-4,.37-4.75.35-8.74.75-12.78-3.39,4.6-.57,8.72-1.21,12.86-1.56C735.62,365.25,807.28,358.52,818.76,357.44Zm427.71,400.28-1.51-4a.89.89,0,0,1,1.17-1.15c8.79,3.55,35.07,14.45,37.12,15.88a3.42,3.42,0,0,1,.56,3.32c-2.25,3.28-1.21,6.08.55,9,9.12,15.44,18.12,30.95,27.34,46.33,1.59,2.67,2,4.21-1.08,6.05s-5.88,4.5-8.81,6.79c-2.5,2-18.11,1.13-26.58-.56a8.16,8.16,0,0,1-3.75-1,4.68,4.68,0,0,1-1.42-.74,5.53,5.53,0,0,1-1.45-2.76,26.26,26.26,0,0,1-1.62-7.06c-.93-7.56-6.79-11.34-14-12.44a4.25,4.25,0,0,1-2.93-2.2c-6.68-15-13.23-30.08-20.17-45.94,2.07-.4,7.76-1.75,13-2.93A5,5,0,0,0,1246.47,757.72Zm-7.75,1.22c-11.28,2.33-11.36,2.37-16.09-8.3-6-13.6-26.42-60.21-27.28-62.88-3-9.31-9.37-15.4-17.58-20.36-19.68-11.88-39.11-24.18-58.64-36.31-.6-.38-1.15-.85-1.72-1.28l.34-.62q14.91,2,29.81,4c9.8,1.35,19.59,2.74,29.39,4.08,2.93.4,6,.2,8.77,1.12a12.51,12.51,0,0,1,6.07,4.34c4,5.89,7.39,12.18,11.14,18.23,1.83,2.94,4.24,5.55,5.82,8.61.89,1.73.44,4.09.94,6.09,1.3,5.27,2.7,10.52,4.15,16,7.07,18,19.06,49.13,25.74,66.59C1239.87,758.86,1238.85,758.92,1238.72,758.94Zm-60.47-83a28.26,28.26,0,0,1,9.24,10.91c5,10,9.17,20.53,13.65,30.85.44,1,7.68,17.26,8.84,20.24,9.69,22.91,19.77,45.67,29.69,68.48.57,1.32,1,2.68,1.77,4.68-4.43-.34-52.36-5.32-52.5-5.32-10.42.15-13.18-4.33-16.17-12.5-8.48-23.2-17.8-46.1-26.78-69.13-.27-.68-3.23-8.22-5.88-15l-.06-.14c-.13-.36-.27-.72-.41-1.08-1.83-4.72-3.42-8.83-3.72-9.71q-7.08-18.43-14.54-36.73a19.09,19.09,0,0,0-6.12-7.63c-5.8-4.34-12.11-8-18-12.17-1-.74-5.62-13.41-6.5-16.76,4.44,1.27,9.87,2.36,12.32,3.88C1129.76,645.33,1151.79,659,1178.25,675.93ZM1097,649.2c13.22,7.25,20.16,17.79,25.36,31.64,20.16,53.67,63,162.5,63.67,164.58l-46.46-31.1c4.24-2.73,8.09-5.13,11.86-7.64,5.08-3.37,5.8-5.9,2.92-11.17-5.26-9.64-10.56-19.26-16-28.76a31.78,31.78,0,0,0-5.35-6.91c-2.07-2.19-24.8-16.07-28.06-18.24-8.88-5.93-17.68-12-26.68-17.7-2.57-1.64-2.87-3.09-1.88-5.79,2-5.55,4.2-11.15,5.3-16.92.81-4.31,1-9.22-.24-13.34-3.09-10.34-7.07-20.43-10.9-30.54-1-2.74-.82-4.39,2-5.59a43.57,43.57,0,0,0,5.81-3.26C1086.49,643.53,1090.08,645.43,1097,649.2Zm.93,321.66c-19-3.73-37.91-7.59-56.9-11.15-3.13-.59-4.25-2-4.63-4.87-1.93-14.48-3.89-29-6-43.42-.48-3.28,1.36-3.21,3.4-2.83,14.35,2.66,28.6,6.15,43.06,7.9,12.68,1.53,21.49,9.18,31.07,16,18.26,13,36.4,26.18,54.89,38.86,5,3.42,4.75,7.82,5.34,13.25C1144.17,979.91,1121,975.4,1097.9,970.86Zm81.23,23.25c4.71.53,6.72-.21,9.22-4l14.12,13.36c-4,2.3-7.51,4.6-11.24,6.4-11.77,5.66-23.89,2.94-36,1.29q-17.12-2.34-34.3-4.07c-10.45-1.05-20.93-1.83-31.41-2.51-6.61-.43-8.43-4-10.28-10.28-1-3.38-6.32-19.71-7.56-22.07C1094.48,976.69,1174.1,992.94,1179.13,994.11ZM873,944.61c-12.36-2-34.32-5.62-47.63-7.7-14-2.44-44.41-8.07-55.08-5.95a2.5,2.5,0,0,1-1.74-.23c-12.56-7.94-27.43-8.62-41.1-13.05-9.45-3-9.17-2.64-9.71-12.41-.75-13.6-2.27-27.15-3.32-40.73-.27-3.4,0-6.83,0-10.34,21.59,17.34,43.73,34.18,64.75,52.32,13.1,11.3,28.63,14.05,44.44,17.13,1.75.34,76,14.84,103.74,20.35,4.59.91,9.2,1.72,13.82,2.58-2,8.12-3.1,8.95-11,7.66C911.1,951.1,892.07,947.76,873,944.61ZM919.8,969c4.74,7.86,10.65,15,16.63,23a.8.8,0,0,1-.86,1.25c-4.5-1.22-8.29-2.26-12.08-3.27-2.22-.58-3.24-1.63-3.55-4.25-.8-6.65-1.75-9.56-9.83-12a25.83,25.83,0,0,0-4.67-1.33c-3.42-.35-4.21-2.13-4.31-5.39-.09-2.65-1.51-5.26-2.55-8.58C906.29,961.15,914.7,960.53,919.8,969Zm6.5-31.74c-8.7-1.69-17.41-3.34-26.11-5h0l-5.41-1.06-1.95-.38-.23-.06c-10.11-2-25.29-5.07-30.07-6-17.38-3.37-34.72-7-52.14-10.05-13-2.32-22.81-10-32.65-18-20.13-16.44-40.51-32.57-60.84-48.76-4.75-3.78-8.48-8-9.18-15.35,9.68,2.82,18.41,5.56,27.26,7.81,2.52.64,5.9.72,8-.49,3.26-1.88,5.12-.76,7.45,1.11,5.8,4.64,11.94,8.88,17.46,13.83,6,5.4,13.38,6.57,20.77,7.95q35.19,6.56,70.36,13.14h0c32,5.93,85.41,16,117.16,21.86,14.35,2.67,28.69,5.45,43.06,8,3.72.67,4.58,2.5,5,6.24,1.66,14.64,4,29.22,6,43.82,0,.27.06,1.22-.35,1.58l-32.35-6.3Q961.92,944.2,926.3,937.23ZM263.44,545.71c6.65-11.17,13-22,19.59-32.68a4.26,4.26,0,0,1,3.56-1.69c8.39,1.94,16.71,4.18,25.55,6.45-5.79,6.39-11.24,12.42-16.72,18.43-3.5,3.85-7.17,7.55-10.52,11.51a5.49,5.49,0,0,1-6.21,2ZM277,556c-21.19,23-41.86,45.37-62.53,67.79a.23.23,0,0,1-.36-.28c14.28-22.74,28.62-45.44,42.76-68.27,1.83-3,3.76-3.69,6.85-2.8C267.83,553.59,272,554.62,277,556Zm34.51-44.92c-6.93-2.3-14.17-3.69-21.27-5.47a.86.86,0,0,1-.14-1.62l15.66-6.81c5.75,3.79,11.52,6.27,16.18,8.74C319.63,511.57,316.62,512.74,311.54,511.05Zm-20.67-52.93a88,88,0,0,1,1.93-17.84.65.65,0,0,1,1.23-.12c1.82,4,6.8,13.27,14.79,16.91a120.93,120.93,0,0,0-4.25,24.34.87.87,0,0,1-1.47.62C299.1,478.3,290.73,467.18,290.87,458.12Zm25.62,33.33c-1.07-6.82.25-19.22,4.12-25.45,2.33,1.68,14.67,10.34,16.69,12.2a4.32,4.32,0,0,1,.82,3.49c-1.65,7.63-3.49,15.21-5.33,23.07C320.69,497.15,316.9,494.1,316.49,491.45ZM480.83,472.3a5,5,0,0,1,2.93-1.34c10.37.5,20.73,1.12,31.08,1.8a6.14,6.14,0,0,1,2.79,1.27c30.9,21.59,62.26,42.86,93.74,64.83,1.58,1.11-1.66,2.28-3,2.54-2.94-2.12-6-4.12-8.78-6.42-3.3-2.69-6.45-2.46-9.77-.19-2.75,1.88-3,4.37-.46,6.56,2.26,1.9,4.77,3.51,7.84,5.73-3.07,1.46-3.44,1.68-6.17,2.94-13.73,6.35-27.52,12.56-41.14,19.13-2.9,1.39-4.85,1.2-7.11-.77s-4.46-3.46-6.63-5.26-4.4-1.91-7-.68c-4.48,2.12-5.08,5.2-1.32,8.5,1.89,1.66,4,3.09,6.27,4.85-2.94,2.91-4.68.32-6.35-.91-13.61-10.06-27.34-20-40.64-30.45-17.62-13.86-37.79-23.42-57-34.58-2.88-1.67-3.83-3-2.44-6.18,1.68-3.91,2.78-8.08,4.22-12.39C444,493.69,479.11,473.7,480.83,472.3Zm-19.78-16.89c5.27-3.42,15.29-10.78,17.75-13.08l28.8,23.76c-7.17-.2-13.88-.82-21.56-1.07C475,464.66,467.65,460.41,461.05,455.41Zm114.3,2.44c-3-2.15-5.81-2.45-9.31-.54-1.37.75-4,.36-5.5-.52-5.7-3.43-11.18-7.25-16.72-11-2.75-1.84-4.32-4.15-4.13-7.79a125.1,125.1,0,0,0,0-17c-.58-6.75,2.42-11.73,6.67-16.32,1.61-1.76,3.33-3.42,5-5.07,2.35-2.25,5.1-6.26,7-6.27,5.83,0,10.39-.44,15.75,2.38,32.87,17.32,66.42,33.36,99.05,51.11,16.9,9.19,32.37,21,48.48,31.67,2.84,1.88,5.63,3.82,9.3,6.31-3.34,3.18-6.1,6.08-9.15,8.64-3.59,3-5.56,6.42-4.81,11.24a49.53,49.53,0,0,1,.05,6.69c-6.73-4.35-12.81-8.19-18.79-12.19-5.79-3.87-8.37-5.11-12.69,1.77-.47.75-2.57,1.38-3.21,1-6.09-3.92-12-8.07-18.33-12.37a32,32,0,0,0,4.16-3.82c2-2.67,2.32-5.43-.7-7.72-1.42-1.08-2.93-2-4.41-3-7.19-4.84-7.23-4.89-13.6.61-1.9,1.65-3.29,1.74-5.43.22-7.51-5.33-15.28-10.29-22.73-15.7a7.91,7.91,0,0,1-2.73-5.37c-.31-7.14,0-14.31-.21-21.46a5.51,5.51,0,0,0-.06-.57,3.64,3.64,0,0,0-6.06-2,3,3,0,0,0-.33.38c-7.64,10.17-11.1,20.37-11.24,34.46,0,1.57,0,3.18,0,6-7-3.57-13.15-6.6-19.23-9.79A52,52,0,0,1,575.35,457.85Zm6,11.64c-2.89,2.68-5.57,3.19-9.42,1.08-2.72-1.49-5.57-3-7.66-4.26C569.45,461.93,569.45,461.93,581.34,469.49Zm-59.9-52.86,10.74,7.45c0,3.92.07,7.53-.73,8.94-3.41-2.45-8.7-6.26-11.73-8.73C519.36,424,521,418.46,521.44,416.63ZM515.5,421c-.64.95-6.93-3.12-6.93-4.38.84-4.34,8.66-23.85,8.83-24.31,2.28,2.41,6.33,4.43,5.73,6.83C522.08,402.11,515.5,421,515.5,421Zm16.75-27.88c5.15-4.86,6.49-10.86,5.8-17.73a108.1,108.1,0,0,1-.66-17.33c.13-2.16,2.29-4.54,4.11-6.16,2-1.76,4.46-4.08,7.54-2.05,16.1,10.63,53.28,35.56,53.49,36.12-6.38,3.12-16.08,7.83-18.19,6.7-9-4.85-16.73-6.23-22.16-6.22-4.27,0-5.87-1-8.21,1.39-4.06,4.14-8,8.37-12.24,12.76l-9.5-6.44C531.45,393.73,532.1,393.27,532.25,393.13Zm307.35,1a56.47,56.47,0,0,0,24.61,9.42c6.94.84,11.23,5.39,17.06,9.64a1,1,0,0,1-.16,1.69c-10.05,4.73-19.09,9-28.18,13.17a3.61,3.61,0,0,1-2.78-.46q-15.69-9.32-31.28-18.82a7.47,7.47,0,0,1-3.25-3.39c-2.36-7.18-7.57-11.46-13.89-14.9-3.36-1.83-6.5-4.07-10.3-6.48,5.8-2.55,11-5,16.31-7.05,1.32-.5,3.45.09,4.8.87C821.64,383.14,830.82,388.34,839.6,394.14Zm-22-21.1c5.54-4,11.65-5.19,17.69-5.82,17.19-1.79,34.6-2.08,51.58-5,12.22-2.08,20.26,4.12,30.18,9.81-12.2,5.55-23.59,10.53-34.78,15.91-5.14,2.47-9.89,5.74-14.84,8.61-.58.34-1.35.82-1.9.68-4.43-1.07-9.27-1.47-13.14-3.6C840.69,387.25,829.41,380.13,817.56,373Zm299.62,473.33c17.64,18.15,41.67,51,51,69.39l-18.7,12.92-5-7.54c-7.89-12-15.22-24.51-23.83-36-7.91-10.57-17.15-20.15-25.91-30.08-2.57-2.9-12-3.71-15.44-1.54-1.88,1.18-3.66,2.53-6.07,4.21a62.25,62.25,0,0,1-5.67-6.41c-2-2.9-.79-4.69,2.72-4.65a4.18,4.18,0,0,1,1.33.06c8.24,2.85,14.54-1.18,20.75-5.73a77.94,77.94,0,0,1,8.9-5.9c5.08-2.75,8.64-6,5.64-12.5a.74.74,0,0,1,1-1l9.5,5.7a55,55,0,0,0-3.34,6.53C1112.53,838.59,1113.47,842.55,1117.18,846.37ZM1058.47,880c-2.76-2-5.5-4-7.15-5.22,0-4.44.89-7.84-.25-10.3s-4.32-4.28-7-6.7c3-4,5.92-8.13,9.37-12.87.69-1,1.87,3,1.76,4-.65,5.16,2.68,8.32,5.65,11.58,14,15.29,28.35,30.21,41.9,45.87,6.52,7.53,14.94,17.72,21.43,26.73a1.14,1.14,0,0,1-1.59,1.59c-19.13-13.67-41-29.26-59.66-42.43-2.2-1.56-3.12-2.89-2-5.43C1062.27,883.79,1060.88,881.69,1058.47,880ZM583.41,742.83h0c-22.13-11.38-52.92-27.38-75-38.89a20,20,0,0,1-3.05-1.76c-7-4.9-13.81-4.76-21.07-.27a142.52,142.52,0,0,1-15.87,8,6.54,6.54,0,0,1-4.87.33c-6-2.87-11.82-6.13-18.48-9.65,18.84-9.14,36.83-17.93,54.9-26.54a9,9,0,0,1,5.54-.4c7.59,1.84,15.12,4,23,6.11-1.69,2.71-4.8,5.48-1.36,8.45,2.27,2,17.14,9.46,18,9.9,22.8,11.66,45.58,23.37,69.21,35.51h0c4.3,2.24,8.51,4.5,8.91,4.7,7.13,3.58,14.22,7.26,22,11.25-7.45,3.9-14.2,7.31-20.81,11-2.47,1.37-4.46,1.56-7,.15C610.93,757.08,590.9,746.71,583.41,742.83Zm29.8,23.59c-6.92,3.65-13.54,7.28-20.32,10.58a6.18,6.18,0,0,1-4.85-.26q-39.52-20.88-78.93-42l-36.59-19.54c7.21-3.5,13.94-6.85,20.76-10a4.78,4.78,0,0,1,3.66.24q57.84,30,115.6,60.22C612.66,765.72,612.74,765.88,613.21,766.42Zm-148-229c14.36,8.5,27.18,19.61,40.69,29.54,5.12,3.77,11,8.46,16.45,12.58a1.9,1.9,0,0,1-.27,3.2,18.43,18.43,0,0,0-4.4,3.11c-4.29-3.48-8.28-6.89-12.43-10.07-8.38-6.41-16.88-12.65-25.24-19.07-3.36-2.58-6.07-2-9,.71-1.66,1.55-3.44,3-5.24,4.37a1.11,1.11,0,0,1-1.5-1.62c.68-.73,1.34-1.47,2-2.25,3.67-4.61,4.35-10.43-2.23-14.07C428.59,524.2,394,504.74,358.64,485c-1.12-.63-3.05-1.44-4.23-2,2.65-4.19,5.27-5.28,8.53-3.45C397.09,498.76,431.52,517.47,465.23,537.43Zm-80.18-53c5.88-.28,20.48-7.86,24.52-9.59,3.9,2.73,9.68,6.95,14.39,10.06,1.91,1.25,2.58,2.31,1.64,4.67-1.86,4.65-3.29,9.46-5.08,14.78Zm68.76,117.26c2.37-9.44,4.92-18.84,7.57-28.21a6.15,6.15,0,0,1,2.36-3.38c4.06-2.4,8.3-4.51,13.52-7.29l31.63,23.91c-13.56,8.21-15.15,27.61-21.12,40.07a98.55,98.55,0,0,1-32.87-21A5,5,0,0,1,453.81,601.67Zm-8-14.56c-1,3.23-1.92,6.46-3.1,10.42-6.21-4.72-12.06-9.13-17.88-13.59-8.6-6.59-17.1-13.3-25.79-19.76-2.5-1.86-3.34-3.59-2.46-6.69,2.55-8.93,4.44-18.06,7.33-26.87,1.17-3.57,4.25-6.52,6.62-10,16.93,9.83,32.81,19.09,48.73,28.25,2.31,1.33,4,3.18,1.56,5.06C449.83,562.37,449.44,575.43,445.85,587.11Zm-40.46-69.35c-9.71,7.22-8.84,18.39-12.16,27.8-1.25,3.55-2,7.28-3.14,11.51-8.15-6.23-15.8-12.06-23.43-17.91a46.94,46.94,0,0,1-5.9-4.72c-1.45-1.54-3.13-3.52-3.35-5.46-1.19-10.27-1.94-20.6-2.88-30.91-.22-2.44-.58-4.87-1-8.28Zm3.75,67.51c-7.76,3.49-14.9,6.63-22,9.91-9.25,4.29-18.45,8.71-27.69,13a3.79,3.79,0,0,1-2.5.38c-7-2.42-14.8-2.91-20.56-8.71-3.62-3.64-8-6.55-12.82-10.44,15.11-6.63,55.88-25,58.21-25C383.72,564.47,402.36,580,409.14,585.27Zm-74,21.82a34.37,34.37,0,0,0,12.78,5.57c10.57,1.83,18.84,7.23,26.49,14.27,5.44,5,11.22,9.67,17.36,14.92-4.39,2-8.48,4-12.62,5.78-9.35,4.12-18.65,8.39-28.16,12.12a10.39,10.39,0,0,1-6.66.33,24.93,24.93,0,0,1-6.45-3.35c-8-6.38-11.1-10-12.41-19.1-.54-3.71-5.25-7.16-8.63-10.06-8.89-7.65-18.1-14.93-27.92-23,9.23-4.06,17.71-7.9,26.32-11.43,1.07-.43,3.11.5,4.24,1.39C324.78,598.67,329.64,603.37,335.16,607.09Zm45.53,16.71c8.07,1.18,13.58-2.94,19.47-5.82,4.74-2.32,5.2-8,1.13-11.22-2.65-2.13-5.38-4.18-8.73-6.77,7.41-3.27,14.47-6.41,21.56-9.46a2.38,2.38,0,0,1,2,.31c6,4.59,35.81,28.17,36.76,28.72,21.55,12.47,43.06,25,64.31,37.36-4.69,2.34-10.31,5.22-16,7.91a5.57,5.57,0,0,1-3.41-.13q-48.18-12.83-96.32-25.81a20.6,20.6,0,0,1-7-3.55C390,631.93,385.81,628.15,380.69,623.8ZM651.83,489c-2.18,2.63-3.15,6.27-4.74,9.64-5.31-4.25-2-12,9.3-20l4.64,3.08C657.7,484.22,654.2,486.12,651.83,489ZM678,507.25a2.84,2.84,0,0,1,.82,1.6c.22.87-.3,2.66-1.12,2-7.16-4.94-15.47-10.71-22.63-15.64-1-.68-.15-2.29,1-2.29,1.25.18,3.29,1.59,4.25,2.22Q669.29,501,678,507.25Zm-20.82-2.33c5.58,3.46,15.46,10.58,20.88,14.29l-1,1.43c-2.71-1.89-5.39-3.85-8.16-5.66s-5.15-4.58-8.51-1.61c-1.4-1.57-6-5.36-8.11-7.31a2.4,2.4,0,0,1-.75-1.73v-.23C651.54,502,655.7,504,657.17,504.92ZM664.4,520a1.47,1.47,0,0,1,.28.14c12.22,8.34,24.37,16.79,36.53,25.22,2.61,2.12.36,5-1.51,3.85-6.12-3.71-31.46-21.5-37.35-25.75a13,13,0,0,1-1.22-1C660.13,521.64,663.15,519.54,664.4,520Zm435.77,301.21c2.65,5.12-.54,7.37-4.36,9.6-3.45,2-7.1,3.94-10,6.65-5.89,5.62-12.36,2.77-18.73,2.06-.47,0-.91-.66-1.32-1L1050,823.22c4-2.42,33.6-20.85,34.48-20.26,4.55,3.07,9,6.23,13.48,9.43,2.29,1.64,4,3.57,2.25,6.67A2.71,2.71,0,0,0,1100.17,821.24Zm-108.34,4.5c-8.84-6.3-67.59-48.4-81.23-58.15l-2.49-1.78a29.37,29.37,0,0,1-7.41-5.26C890,752.92,877,743.62,872.89,740.36c-5.42-4.33-11.57-5.9-18.16-7.31-8-1.7-12.81-9.07-19.65-12.79,4.32.5,8.67.69,13,1.21,7,.85,14,1.68,21,2.77,2,.3,3.85,1.4,5.71,2.26a16.17,16.17,0,0,1,2.59,1.72c2.66,1.92,5.79,3.54,8.49,5.43,9.06,6.41,25.7,18.55,37.83,27.4,2.21,1.61,4.75.61,7-.9a29.2,29.2,0,0,0,4.08-3.39c28.59,20.13,55.79,39.07,84.39,59.19-.33.47-5.58,8.35-5.91,8.82l-7.65,10.79c-4.8-3.41-9.41-6.56-13.84-9.82ZM975,754.26a99.22,99.22,0,0,1,8.84-5.08c.95-.44,2.91.21,3.86,1,4.1,3.46,8.89,4.18,14,4.45a14.68,14.68,0,0,1,6.58,2.06c4,2.43,7.76,5.3,12.13,8.35-7.48,4.5-14.37,8.77-21.41,12.76-.92.52-2.86,0-3.93-.65-3.5-2.22-6.69-4.93-10.23-7.08-3.77-2.27-6.48-4.62-6-9.74C979.06,758.62,976.61,756.64,975,754.26Zm30.38-8.71c-3.61-1.36-28.19-8.62-33.76-10.68l-15.13,8.85c2.76,6.17,11.94,23.07,13.16,25.12,1,1.6-.37,1.33-1,.75-6-4.18-18.29-14.32-24.85-18.9-1.83-1.65-.56-5.68,2.77-7.46,6.67-3.54,13.15-7.44,19.7-11.17,8.25-4.7,16-3.42,21.35-.12,4,2.46,14.49,9.73,18.32,12.39C1007,745.23,1007.64,746.24,1005.39,745.55Zm-36.15-21.27c-2.78.08-4.42-.66-4.6-3.95-.08-1.39-1.61-3-2.92-3.94-11.8-8.2-24.49-16.76-35.57-24.37-1.35-.93.42-2.29,8.59,3.12,13.09,8.68,26.1,17.49,39.13,26.26,1,.66,1.87,1.39,3.84,2.87C974,724.27,971.61,724.21,969.24,724.28Zm-14.06-4.45c-5.86,3.39-11.55,6-16.44,9.65-9.08,6.8-16.84,7-25.5-1.23-6.22-5.94-14-10.21-21.59-15.53l29-16.47Zm69.64,100.52,25.12,17.72-11.52,16.21-25.2-17.86Zm-1.52-23.5c-1.17.68-3.54.35-4.82-.4-3.56-2.1-6.84-4.68-10.84-7.49,6.55-4,13.06-7.26,18.73-11.61,7.24-5.56,10.66-7.31,19.57-.16.9.72,2.52,2.16,4.08,3.37C1040.76,786.26,1032.11,791.7,1023.3,796.85Zm53.57-17.14h0a5.74,5.74,0,0,1-4.19-.9c-16.51-11.13-117.72-79.19-136.1-90.61a36,36,0,0,0-7-2.55c-14.15-3.94-28.38-7.64-42.4-12-4.12-1.27-7.67-4.37-11.19-6.46l2.74-8.4c-.3,0,.06-.11.19,0,11.19,10,25.8,11,39.25,15.17,2.63.81,17.94,5.4,20.19,6.93,48.93,33.35,79.69,53.74,128.56,87.17.6.41,6.55,4.59,11,7.72A2.16,2.16,0,0,1,1076.87,779.71ZM873.43,638.47c5.09,3.59,10.46,6.8,15.34,10.65s14.13,9.87,20.48,15a.9.9,0,0,1-.87,1.54c-6.32-2.3-15-5.34-19-7.87-13.71-8.75-27-18.24-40.86-27.77l14.37-5.83C861.17,632.8,868.31,634.86,873.43,638.47Zm92,13.13c-1.33.8-3,1.82-4,2.61-5.53,4-9.94,5-17.21,1.2-6.75-3.51-14.27-5.94-20.33-10.83a68.33,68.33,0,0,1-8.27-7.87,1.15,1.15,0,0,1,.32-1.77c4.42-2.42,9.53-5.18,13.77-7.42a2.6,2.6,0,0,1,2.13-.06c8.85,5.36,19.67,7,27.45,14.37a20.62,20.62,0,0,1,1.9,1.83c2,2.43,3.36,3.68,4.74,5.59A1.62,1.62,0,0,1,965.46,651.6Zm8.84,3.21c2.23-.87,5.87,1.87,8.91,3.07a.76.76,0,0,1,.1,1.38c-5.83,3.23-11.44,7.07-17.61,9.42-2.12.81-5.42-1.47-8.27-2.6a1,1,0,0,1-.16-1.71C962.9,661.06,968.29,657.14,974.3,654.81Zm-65.76-24.56a3.9,3.9,0,0,1-3.24-.13c-2.51-1.51-4.83-3.35-8-5.6,6.34-3.38,12.06-6.61,18-9.41,1-.48,3,.66,4.3,1.4,1.92,1.07,3.67,2.45,6.26,4.23C919.67,624.17,914.15,627.3,908.54,630.25Zm-6.21,6c4.39,2.78,51.3,35,54.8,36.89h0c1,.58-.86,1.37-1.68,1.61-1.64.47-3.5.51-4.34,0-6.55-4.24-19.47-13.13-19.47-13.13l-44.55-30.15c-2.18-1.25.24-2.88,1.77-2.88C894.42,628.78,898,633.48,902.33,636.21Zm137.19,101.44c-8.53-5.92-16.88-12.09-25-18,1-1.19,18-11.55,20.07-10.07,8.64,6.25,17.35,12.41,26.6,19-5.91,3.57-11.14,7-16.62,9.86C1043.31,739.1,1040.81,738.55,1039.52,737.65Zm-35.63-25.38c-.71.39-2.29-.18-3.13-.78-8.42-6-24.63-17.84-24.63-17.84l19.15-10.49L1021.4,702C1015.27,705.65,1009.64,709.08,1003.89,712.27ZM988.29,653c-5.48-3.3-55.39-37.23-63.54-42.06-1.13-1-.32-1.12.32-1.65,2.2-.18,4.56-.8,6,.12,21.05,13.65,42,27.52,62.88,41.36a12.38,12.38,0,0,1,1.88,1.54C993.64,654.77,991.25,654.74,988.29,653ZM875.35,628.46c-2.49,1.27-5.15.63-5.15-3.07.37-3,52.07-29.95,53.68-26,.19.54.37,1.8.55,2.34C915,606.69,881.71,624.65,875.35,628.46ZM858,614a3.59,3.59,0,0,1-3.37-.47c-6.73-7.52-13.29-15.18-20.27-23.24,1.63-.88,3-1.66,4.37-2.35,16-8,32.11-16,48.12-24,2.46-1.24,4.69-2.93,7.71-4.83,2.13,2.23,4.48,4.67,7.13,7.43-6.57,9.15-21.09,29.35-21.74,30.32C873.32,606.73,866.28,609.54,858,614ZM738.39,721.57a3.82,3.82,0,0,1-3.2-.32c-2.7-1.77-5.21-3.82-8.43-6.24,7.2-3.85,13.88-7.55,20.71-10.94.91-.46,2.78.39,3.9,1.1,2.37,1.5,4.55,3.32,7.51,5.53C751.74,714.52,745.11,718.14,738.39,721.57Zm24.48-4.25a1.47,1.47,0,0,1,1.25.22c7.48,5.87,18.13,5.74,24.79,13.31,2.43,2.77,6.53,4,6.47,8.82,0,1.39,2,2.79,3.28,4.53-5,2.82-10.19,5.89-15.54,8.71a3.89,3.89,0,0,1-3.43-.34c-3.7-2.89-7.58-5.05-12.45-5.16a6.29,6.29,0,0,1-3.13-1.53c-3.94-2.89-7.94-5.71-11.65-8.88-1.48-1.27-2.21-3.41-3.33-5.12-1-1.54-2.08-3-3.62-5.26C751.11,723.6,757,720.43,762.87,717.32Zm-59,.71c-2.31,1.11-5.42-1.67-2.87-3.12,3.21-2,38.59-19.9,39.72-20.53,4.65-2.6,9.23-5.37,14.1-7.5,2.37-1,5.31-.77,7.94-.13Zm73.67-112c-1.24,3-6.73,4.15-10.38,6-5.13,2.65-10.65,4.7-15.37,7.93-7.7,5.25-15.59,5.47-24,2.83a25,25,0,0,0-3-.59c-10-1.76-13.18-4-18.49-13.16l51.31-25.28c7.53-3.71,10.41-3.28,15.83,3.38,1.35,1.66,1.54,4.33,2.06,6.58C776.36,597.91,778.87,602.81,777.51,606Zm23.25,1.52c2-.79,7.26-.25,7.78,2.42,0,.45,0,.9,0,1.35-4.59,2.39-60.62,31.59-66.59,34-1.9.77-8.11.15-7.68-2.63.1-.51.2-1,.29-1.54C741.31,637.74,795.57,609.66,800.76,607.56Zm-58.45,66.76c-8.37,4.21-15.48,9.29-24.61,10.68-17.93,2.74-35.77,6.09-53.64,9.23q-8.49,1.49-17,3.17c-6,1.2-8.4-4.07-12.31-6.24,3.8-1.4,7.37-2.31,10.55-3.95q29.25-15.13,58.31-30.64c2.52-1.35,4.37-4,7-6.45Zm16.23,4.75a20.89,20.89,0,0,1,2.77-3.29c2.38-1.89,4.58-3,7.79-.59,13.91,10.35,28.15,20.26,42,30.65,1.7,1.27,6.42,6.58,10.12,10.86a.81.81,0,0,1-1.11,1.18c-5.24-4-11.91-9.17-14.69-10.87-13.69-8.39-27.54-16.51-40.2-26.48C763.72,679.33,761.05,679.57,758.54,679.07Zm22.35-13.2c16.9-8.92,35.08-19.12,52-28,2.4-1.23,5.29,2.68,2.87,4.06l-50.6,26.93C782.89,669.72,777.9,667.39,780.89,665.87Zm30.44-27c-15.76,8.25-31.56,16.43-47.25,24.83-2.48,1.33-4.26,1.23-6.37-.36-3.41-2.56-6.91-5-10.85-7.86,4.93-2.62,9.44-5.07,14-7.43,19.35-10,38.74-20,58-30.1,2.72-1.43,4.72-1.54,7.2.45,3.11,2.49,6.57,4.52,10.57,7.22Zm71.87-80.37c-16.4,8.09-32.83,16.13-49.18,24.3-3.14,1.57-5,1.79-7.64-1.5-6.17-7.79-13.06-15-19.92-22.74,4.08-2,41.08-18.92,51.76-24.47,6.6-3.43,8.17-.12,11.49,2.88,4.74,4.29,9.52,8.55,14.37,12.73C888.65,553.69,888.47,555.94,883.2,558.54ZM778.46,511.4c-1.49-2.81-2.78-5.24-4.37-8.22,3.71-1.73,7.15-3.32,10.56-4.94,12-5.7,24.1-11.38,36.11-17.13,9.91-4.75,9.89-4.79,20.87,0Zm67.8-35.73c-2.72-1.13-6.92-2.58-10.27-3.69a13.69,13.69,0,0,0-10.14.61L766.66,500.5a1.94,1.94,0,0,0-.65,3,26.1,26.1,0,0,1,3,4.22c1.1,2.05,2.11,4.15,3.26,6.42-1.68.89-3,1.55-4.25,2.24-5.14,2.76-6.26,7-2.51,11.75,5.35,6.75,11.08,13.21,16.67,19.77q17.36,20.37,34.75,40.71,7.92,9.25,15.87,18.48a.94.94,0,0,1-1.27,1.38q-34.87-25.11-69.76-50.24c-2.77-2-5.24-3.75-3.84-8.2,1.13-3.57.68-7.63,1.07-11.46a9,9,0,0,0-4.6-9.37c-2.78-1.69-5.41-3.62-8.12-5.43-6-4-7.21-10.63-1.54-15,1.87-1.44,7.15-5.08,7.15-5.09,12.79-8.45,67.72-32.87,80.59-37.38h0c4-2,7.88-1.41,13.28,1.85l9.6,5.81C852.36,476.55,849.82,477.16,846.26,475.67ZM833.63,456.6a20,20,0,0,0-5.55,1.31c-26.63,10.31-77.66,35.58-79.31,36.72-3.48,2.4-8.34,5.56-8.57,5.75-5.26,4.5-9.75,9.36-7.42,17.84-9.22-4.05-10.85-6.82-9.52-15.33A6.24,6.24,0,0,1,724.5,500c9.91-12.93,36-20.3,75.1-39.7,6.28-3.12,12.71-5.94,19.13-8.76,4.15-1.83,10.91-.73,15.31,4.08A.56.56,0,0,1,833.63,456.6ZM732.81,527c1.82,1,4.26.9,6.4,1.33a10.5,10.5,0,0,1,3.22.8c10.34,6,11.87,9.54,9.38,21.31-.77,3.64-5.15,7.08-9.86,7.35-6.69.39-12.88,0-18.79-4.57-11.21-8.74-23.11-16.59-34.78-24.74-4.88-3.41-6.47-11.09-3-16.1,2.1-3.05,4.45-5.92,6.92-9.19,5.73,3.75,11,7.3,16.39,10.69,3.8,2.4,7.26,4.88,12.2,5.71C725.13,520.31,728.69,524.69,732.81,527Zm-31.95,36.81c3-1.35,4.7-3.2,4.57-6.78,0-1.47.82-3.69,2-4.29s3.16.24,4.67.8a15.34,15.34,0,0,1,3.35,2.17c5.77,4.13,11.36,8.77,18.67,9.18,8,.26,14.39,3.08,17.48,6.42a63.54,63.54,0,0,0,6,5l-40.37,20c-3.72,1.84-7.57,3.44-11.11,5.57-3.25,2-5.65,1.88-7.89-1.36-1.34-1.94-18.09-21.4-21.2-25.14,1.7-1,2.86-1.83,4.13-2.42C687.66,569.87,694.23,566.77,700.86,563.81ZM721.51,648a.82.82,0,0,1-1.13,1.19q-20.65-15.78-41.29-31.59a5.69,5.69,0,0,1-1.84-1.88q-7.35-15.88-14.53-31.86c-.44-1-1.69-2.42-.44-3.34l1.09-.68Zm-50.73-21.79c6.19-2.62,7.49-1.38,10.3,1.48,7,7.07,13.68,14.44,21,22.27-21.87,11.43-42.88,22.43-63.92,33.36-1,.51-2.3.42-3.44.67-7.32,1.54-12.34-2.54-17.4-6.86-6-5.1-12.16-10-17.89-14.64C603.44,660,670.37,626.42,670.78,626.24Zm-99.27-15.88c-1.85-2.83-3.58-5.49-5.58-8.57,9.25-4.42,18-8.64,26.85-12.83,10.32-4.91,20.75-9.6,30.93-14.79,4-2,7.68-2.6,11.83-.91,2.44,1,5,1.6,8,2.53ZM647,570c-17.92-6-18-5.78-35,2.4q-24.29,11.64-48.6,23.19c-5.54,2.64-6.11,4.67-2.77,10.1l4.6,7.55c-2.19,1.08-4,2-5.84,2.88-4.75,2.45-6.57,6.54-4.46,11.49,3.13,7.36,5.8,15.16,10.34,21.6,4,5.67,10.08,9.94,15.56,14.45,11.37,9.33,22.88,18.49,34.05,28.25a.75.75,0,0,1-.83,1.24c-4.23-2.13-8.47-4.26-12.78-6.23-11.32-5.19-22.53-10.72-34.18-15.07-7.8-2.92-13-8.33-18.23-14.14-3.48-3.87-6.38-8.41-10.35-11.67-6.21-5.11-6.45-11.82-6.76-18.79-.13-2.8-.58-5.58-.77-8.38a5.57,5.57,0,0,1,.4-3c3.74-5.56,9.19-12.87,15.1-15.79,29.91-14.81,58.59-28.61,88.74-42.94,4.36-2.08,9.52-.82,13.39,2.63,3.26,2.92,7.15,5.14,11.06,7.89C655.44,570.57,651.84,571.67,647,570ZM582.7,686.09a.69.69,0,0,1-.46,1.3l-72.53-19.46c5.61-2.71,10.09-5,14.68-7a5.12,5.12,0,0,1,3.77,0C546.22,669.16,564.24,677.53,582.7,686.09Zm-45.74.09c-4.55-1.86-4.92-5.2,5.65-2.53,15.32,3.87,30.55,8.09,45.87,11.94,3.24.81,6.78.33,10.12.85a75.81,75.81,0,0,1,11.88,2.62c7.27,2.37,14.39,5.16,21.6,7.7a4.86,4.86,0,0,0,3.07.26c5.18-2.19,8.67.76,12.37,3.63,9.46,7.34,19,14.57,29.09,22.27-8.09,4.25-15.6,8.34-23.3,12-1.16.56-3.36-.42-4.83-1.18C610.78,724.36,574.63,705.65,537,686.18Zm113.46,18.53c5.05-.89,9.79-1.77,14.44-2.56l-.07,0c12.31-2.29,55.21-8.56,66.52-10.66,0,0,1.31-.32,1.41.34s-.87,1-.87,1c-4.55,1.71-29.73,13.13-37,19.63a9.14,9.14,0,0,0-1.39,3.87c-.29,6.5,5,8.53,9,11.63,2.09,1.64,69.1,51.82,76.94,58.11,1.33,1.07,1.88,3.6,2.08,5.53a126.6,126.6,0,0,1,.81,15.07,5.91,5.91,0,0,1-2.6,4.35,5.49,5.49,0,0,1-4.86-.38c-17.29-12.9-34.31-26.14-51.7-38.9a25,25,0,0,1-9.71-14.15c-1.19-5-4.31-8.46-8.39-11.51C686.91,732.51,669,718.79,650.42,704.71Zm128.65,64.44c-20.68-15.68-41.52-31.14-62.31-46.66l-1.26-.91c2.73-2.88,5-3.34,8.06-.7,3.82,3.26,8.18,5.88,12.18,8.94,2.6,2,47,34.94,52.12,38.76C784.78,771.39,782.35,771.63,779.07,769.15ZM786.15,759c6.87-3.95,13.08-7.67,19.47-11.06a5.87,5.87,0,0,1,4.69.22c2.17,1.1,4,2.88,6.27,4.59-6.93,3.9-13.46,7.67-20.11,11.2a4.62,4.62,0,0,1-3.82-.23A66.41,66.41,0,0,1,786.15,759Zm21.54-22.36c-2.08-1.55-31.87-23.47-32.88-24.18-6-4.22-12-8.6-18.09-13,3.35-3.07,6-3.72,9.82-.87,19.91,14.71,40.07,29.08,60.13,43.58,1.15.84,2.19,1.84,3.23,2.73-3.71,3.77-6.93,3.6-10.72.14C815.71,741.84,811.49,739.48,807.69,736.66Zm-17.33-63.52c.76.23,22.32,3.2,29.91,4.12,12.21,1.06,13.9,2.52,22.11-4.16,1.07-.87,1-3.59.53-5.81,0-.19-3.55-16.54-4.32-20.18,2.59,1.69,31.12,25.61,35.72,30.67,1.66,1.82,1.82,3.64-.76,5.06-13.9,7.63-27.77,15.31-41.2,22.73C824.13,698.56,790.6,673.44,790.36,673.14Zm44.45,38.7c7.83.93,15.66,1.84,23.48,2.81,5.86.72,11.76,1.25,17.54,2.4,3.8.75,7.86,1.76,11,3.85,10.65,7,21,14.44,31.32,22,4.23,3.09,9.58,2.88,14.19,1.17,6,3-5,9.25-6.48,10.49-10.45-7.39-18.77-12.58-29.27-20-3.75-2.66-10.53-7.5-14.18-10.23-6.89-5.15-12.71-5.31-20.2-6.23-8.78-1.07-17.73-1.4-26.49-2.67C832,714.84,832.16,711.45,834.81,711.84Zm19.27,46,30.67,23.58-20.66,12.51-30.83-23.83Zm38.71,27.94,32,24.55c-7.17,4.44-13.68,8.49-20.8,12.91L872.71,799Zm40,28.77,47.68,36.67c-6.73,4.16-13.06,8.16-19.51,11.94a3.93,3.93,0,0,1-3.55-.14c-14.61-11.15-44.7-35.66-44.7-35.66Zm62.85,41.36a3.62,3.62,0,0,1,3.25.14c10,6.82,19.91,13.78,30.1,20.88-.63.69-.81.93-1,1.12-9,8.14-18.13,8.39-30.26,5-12.88-3.6-20-5.8-28.08-10.72C979.63,865.93,985.94,861.87,995.59,855.89Zm31.26,1.64c-3.08-2.32-6.07-2.47-8.87-.11-2.29,1.92-3.93,1.78-6.08-.12s-4.68-3.47-7.3-5.37l6.43-8.87c8.26,5.82,16.34,11.51,24.4,17.21,2.66,1.87,5.37,3.69,7.92,5.7a2.58,2.58,0,0,1,.66.91,1.05,1.05,0,0,1-1.13,1.49,2.77,2.77,0,0,1-1.13-.4C1036.72,864.58,1031.69,861.18,1026.85,857.53Zm76.27-68.73,29.59-18.43,16.64,29.75c-4.85,3.08-9.34,6.18-14.1,8.8-1.1.6-3.42,0-4.64-.81C1121.57,801.93,1112.66,795.54,1103.12,788.8ZM1100,776.61c-1,.61-3.07.82-3.92.21-14.21-10.13-43.69-31.82-43.69-31.82l18-11.54,46.25,32.86C1110.84,770,1105.52,773.42,1100,776.61ZM1069.44,718,1002,673c5.11-5.16,9.42-10.62,14.85-14.51,2.4-1.72,7.09-.46,10.72-.2,9.15.65,18.27,1.79,27.43,2.12,2.68.1,5.43-1.85,8.57-3,3.19,8.83,6,17.88,9.74,26.49,3.25,7.42,3.56,14.26.12,21.59C1071.72,709.2,1070.91,713.34,1069.44,718Zm-17.87-63.63c-7.37-.58-14.72-1.37-22.07-2.15-3.22-.33-6.48-1.35-9.65-1.08-4.17.36-6.84-1.89-9.89-3.92q-37.63-25.05-75.41-49.9a21.66,21.66,0,0,0-13.46-3.86h0c-10.6,1.49-22.89,9-34.87,15.15a1,1,0,0,1-1.3-1.49c5.46-7.7,16.14-22.79,19.34-27.28l7.86-11.71c7.26,4.66,14.21,9.12,21.15,13.6,12.84,8.3,25.37,17.14,38.62,24.72,6.51,3.72,14.35,5.07,21.57,7.58,2.9,1,6,1.81,8.56,3.43,17.55,11.14,35,22.46,52.43,33.73.61.4,1.13.95,2.44,2.07C1054.69,653.78,1053.09,654.52,1051.57,654.4ZM950.28,584.8c-11-7-22.21-13.74-32.78-21.36-3.33-2.4-5.77-6.91-7.21-11-5-14.21-9.46-28.63-14.08-43a4,4,0,0,1-.11-1.29,1.29,1.29,0,0,1,2.16-.91l74.3,68.57c-6.55,3.48-12.36,6.7-18.31,9.61C953.25,586,951.36,585.48,950.28,584.8Zm3.25-35.56h0c-9.29-8.43-18.53-16.93-27.77-25.41L913.7,512.73c6.13-3.07,11.5-5.92,17-8.38,1.07-.47,3.21.17,4.19,1,9.33,8.33,18.52,16.82,27.73,25.28,4,3.64,7.94,7.31,12.11,11.17,4.5,4,17.78,16.3,22.63,20.82-6,3.18-11.41,6.22-17,8.79-1.1.51-3.57-.3-4.49-1.32C972.42,566.26,956.77,553.32,953.53,549.24ZM957,516.61c-9.3-8.55-18.62-17.07-28.27-25.92,5.1-2.55,9.8-5,14.64-7.18.85-.38,2.58.19,3.39.91,13.62,12,27.14,24.12,40.7,36.18q14.68,13,29.41,26.06c1.1,1,2.15,2,3.83,3.54-5.61,3-10.72,5.83-16,8.42-.71.36-2.31-.23-3-.89Q979.34,537.24,957,516.61Zm-31.71-31.5c-5.52,2.8-6,6.08-1.36,10.08l3.55,3.12c-6,3-11.33,6-16.89,8.29-1.32.55-3.81-.49-5.21-1.53-3.32-2.47-5.58-6.94-11-4.86-.35.13-1.36-.94-1.79-1.62-2.39-3.78-4.69-7.62-7.21-11.76,2.92-1.43,6.46-3.19,10-4.9,9.08-4.36,18.26-8.54,27.23-13.14,3.24-1.66,5.41-1.92,8,1.07s5.66,5.1,8.94,8Zm-25.89,67.44a.58.58,0,0,1-1,.6c-12-11.37-23.14-21.49-34.6-32.52-1.23-15.65-2.57-28.55-3-34.37a1.52,1.52,0,0,1,2.48-1.31c5.84,4.7,12.92,11.22,17.47,14.7a6.28,6.28,0,0,1,1.88,2.94Q891.1,527.55,899.44,552.55ZM864,472.46c-6.23-10.13-12.71-12.31-25.2-22.56-13.93-10.47-15.29-11.47-26.11-19.25l16.26-8c4.48,2.68,10.08,6,15.64,9.37a4.1,4.1,0,0,1,1.42,1.61q9.74,18.74,19.4,37.48C868,476.6,866.38,476.05,864,472.46Zm-55.2-67.1c-7.56,3.38-14.14,6.37-20.78,9.22a3.72,3.72,0,0,1-2.95-.27c-8.47-5.18-16.87-10.48-26-16.18,7.93-3.46,14.92-6.68,22.09-9.49a7.43,7.43,0,0,1,5.65.5c5.81,3.29,11.47,6.86,17,10.62C805.64,401,806.84,403.08,808.83,405.36Zm-27.36-24.2c-8.82,3.86-17.64,7.73-26.52,11.43-1.3.54-3.32.81-4.4.17-8.26-4.88-16.36-10-25.07-15.44l82.13-7.75C798.9,373.43,790.2,377.33,781.47,381.16Zm26,66.85c-.11.23-2.81,1.66-2.92,1.9-3.06-2-5.93-4.42-9.23-5.88a10.54,10.54,0,0,0-7-.28c-3.79,1.32-4.15,4.54-1.12,7.19,1.77,1.54,3.83,2.75,6.09,4.35a11.33,11.33,0,0,1-2.06,1.66c-13.44,6.29-22.34,10.51-35.85,16.64-1.52.69-5.33-2.81-10.81-7.42-5.09-4.28-17.28,1.5-11.1,7.7,2,2,6.64,4.94,7.69,6.1,0,0-1.74.61-3.32,1.34-8.92-6-18-11.75-26.73-18-22.49-16.14-46.59-29.54-71.3-41.86-4.07-2-4.84-3.7-4.3-8.74.3-2.77.89-4.9,1.32-7.57,14.43-.46,26-9,39-13.59,1.79-.64,3-2.83,4.57-4.15a5.09,5.09,0,0,1,2.84-1.4q12.48.25,24.94.84a10.71,10.71,0,0,1,5.06,1.2Q760.37,417.93,807.43,448Zm-172.38-56.4c-.94.37-2.49-.25-3.55-.8-2.68-1.42-5.24-3.06-8.47-5,8.05-3.31,15.23-6.82,22.76-9.17,4.85-1.51,9.23,1.42,13.75,4.74C651,385,643.09,388.4,635.05,391.61Zm-4.54,12.45c-1.19,3.4-1.35,7.16-2.09,11.54-11.95-6-23.1-11.51-34.71-17.31a166.11,166.11,0,0,1,19.46-7.52c4.32,2.55,10.45,5.14,14.83,7.71C630.18,399.75,631.63,400.91,630.51,404.06Zm-11.87-23.39c-5.27,2.64-8.86,1.7-13.48-1.51-14.87-10.3-30.13-20-45.22-30-.85-.57-1.62-1.26-2.88-2.26,10.22-4,20-8,29.93-11.73a4.77,4.77,0,0,1,3.68.67C608.14,347,625.56,358.24,643.88,370,634.88,373.76,626.51,376.71,618.64,380.67Zm-11.63,90c0-.67,6.25,4.47,7.46,5.26l.62.41c7.31,4.82,14.54,9.79,21.62,14.94a10.83,10.83,0,0,1,3.1,3.45,1.54,1.54,0,0,1-.48,1.87h0a1,1,0,0,1-1.18.05c-9.67-6.66-21.44-14.79-31-21.38C607.22,474.7,606.91,471.16,607,470.63Zm28.41,12.3C628,478,614.14,468.5,613.9,468.35c-6.66-3.9-7.55-7.27-6.32-11.62,1,1.16,2.34,3.7,4.45,5.2,9.3,6.59,18.78,12.92,28.23,19.3,3.89,2.62,2.13,4.9,1.2,4.9C640,485.94,636.49,483.64,635.42,482.93Zm-49.54,6.13a13.42,13.42,0,0,1,3.93-.55,11.14,11.14,0,0,1,5.28,2.05c7.47,5,69.13,47.48,77,53.52,3.11,2.39,5.29,6,8,9.22-5.87,3.25-12.38,1.73-15-2.71-1.2-2-1.95-4.42-3.44-6.21a35.86,35.86,0,0,0-6.08-5.36c-2.72-2.06-5.56-4-8.36-5.95l-2,2.36c-1.44-.9-32.59-22.38-34-23.34-8.31-5.66-16.69-11.23-24.84-17.11a7,7,0,0,1-2-3A2.17,2.17,0,0,1,585.88,489.06Zm50.8,59.45c-39.69,16.92-96.21,41.91-103,48.22a128.23,128.23,0,0,0-10.71,12,7.52,7.52,0,0,0-1.74,4.67c-.16,8.52-.64,17.1.18,25.54.37,3.71,3.49,7.18,5.51,10.67.52.89,1.3,1.62,1.85,2.64a.45.45,0,0,1-.6.61c-8.45-4.59-17.09-8.89-25.14-14.09-2-1.31-3.22-6.23-2.53-8.9,2.17-8.28,5.42-16.28,8.29-24.37a7.85,7.85,0,0,1,1.48-2.71c9.19-9.72,16-14.31,28.66-21.3,6.11-3.38,49-22.56,63.89-29.49,5.43-2.52,10.85-5.08,16.26-7.64C627.62,540.28,629.08,541.59,636.68,548.51ZM448.59,470.69c-2.85,1.22-4.56,2.1-8.71,4.13-8.37,4.08-14,2.78-20.07-4.05,6.85-2.86,14-5.31,20.57-8.73,7.52-3.89,13.47-2,19.58,3.76C456,467.51,452.3,469.11,448.59,470.69Zm-38.66-3.19a3.93,3.93,0,0,1-3.12-.7C389.32,454,371.89,441.2,353.91,428c9.18-3.73,18-6.69,26.31-10.88,7.67-3.9,13.32-3.16,20.19,2.35,13.89,11.13,28.71,21.12,43.13,31.59a23.5,23.5,0,0,1,2,1.84C433.42,457.89,421.7,462.76,409.93,467.5Zm-14.05-.38c5,4.21,3.85,3.83-7.23,9.16-3.86,2.37-7.42,2.66-11.28-.47a89.11,89.11,0,0,0-12.09-8.32,9.14,9.14,0,0,0-6.45-.76c-4.81,1.42-9.4,3.57-14.11,5.34a6,6,0,0,1-3.33.61c-5-1.37-9.33-7.22-9.19-12.49.19-7.12.57-14.24.88-21.36.23-5.27,5-6.36,8.38-8.29,1.44-.82,4.67,0,6.29,1.18C363.75,443.28,379.57,455.08,395.88,467.12ZM351.26,531c-3.48-2.37-6.31-4.13-8.92-6.19a3.54,3.54,0,0,1-.79-3c1.88-8.33,3.91-16.63,5.91-24.93a.34.34,0,0,1,.67.05C349.15,508,350.17,519.1,351.26,531Zm-18.33,2.18c2-2.24,3.89-4.27,7-1.86,11.86,9.11,23.71,18.23,36.17,27.82L270,605.66a.93.93,0,0,1-1.07-1.47c4.64-5.26,8.82-10,13.08-14.75Q307.44,561.28,332.93,533.17Zm-62,78.46c7.41-3.73,13.49-3.31,19.61,2.6,8.32,8,18,14.63,26.7,22.27,1.93,1.7,2.4,5.14,3.28,7.87.14.44-1,1.66-1.76,2-10.29,4.09-20.77,7.76-30.91,12.17-15.51,6.74-30.84,13.89-46.15,21.09-3.15,1.48-5.84,3.92-9.17,6.21-6-5.33-12-10.72-18-15.95-2.2-1.89-2.25-3.43-.33-5.53,11.33-12.44,22-25.58,34.12-37.17C255,620.76,261.12,616.6,271,611.63Zm-22.92,72.26q30.09-13.87,60.3-27.49c2.42-1.1,4.91-2.43,7.48-2.75a13.83,13.83,0,0,1,7.46,1.06,89.83,89.83,0,0,1,13.32,8c6.73,4.95,13.64,5.28,20.94,1.9,10.39-4.77,31.51-14.19,41.45-18.65a5.43,5.43,0,0,1,3.34,0q44.12,11.73,88.18,23.59a11.68,11.68,0,0,1,1.46.66c-1.45.82-2.54,1.53-3.7,2.09-15.78,7.6-42.45,20.74-58.3,28.18-16.65,8-33.09,15.89-49.43,23.94a34.63,34.63,0,0,0-8.77,6c-2.57,2.49-4.8,3-8.25,2q-54.86-16.29-109.81-32.17c-6.09-1.76-10.9-5-16.09-10.31C241.5,687.64,244.63,685.46,248.05,683.89Zm133.79,47.28c17.58-8.62,35.17-17.24,52.87-25.61a7.83,7.83,0,0,1,6.08.39q42.93,22.63,85.7,45.57l49.1,26.22c2.45,1.31,4.89,2.65,7.82,4.23-2,1.14-3.52,2.16-4.88,2.93-12.11,6.8-13.37,6.54-21.87,4-58.95-17.6-118-34.74-177.07-52-1.2-.35-2.37-.82-4.38-1.52A76.55,76.55,0,0,1,381.84,731.17Zm194.9,62.53c9.14-5,17.87-10,26.73-14.67,25-13.29,50.15-26.42,75.16-39.77,2.75-1.47,4.74-1.47,7.13.43,5.82,4.62,11.78,9,17.62,13.65a6.83,6.83,0,0,1,2.43,3c3,10.06,12.21,20.63,17.8,24.8,12.53,9.26,32.85,24.06,45.28,33.45l0,0a1.75,1.75,0,0,1-.12,2.94c-9.95,5.76-18.93,11-28,16-1.43.78-3.76.55-5.48.08-8.12-2.22-16.18-4.67-24.25-7.06-6.77-2-6.77-2-9.91,4.42l-23-6.7c-26.43-7.63-71.48-21-97.86-28.75C580.05,795.51,574.67,794.73,576.74,793.7ZM964.23,889c-37.29-7-74.6-13.82-111.89-20.76q-35.69-6.64-71.35-13.44a9.28,9.28,0,0,1-3.65-1.56c-8.06-6-16.05-12.14-24.68-18.68,7.4-4.29,23.77-14,30.64-17.65,6.37-3,5.32-7.83,4.84-12.8a124.73,124.73,0,0,1-.38-15.59c0-.95,1.61-2.33,2.74-2.7,8.17-2.64,16.36-5.23,24.65-7.43,1.59-.43,4,.52,5.47,1.6C837,791.92,853.18,804,869.44,816l8.61,6.38c2.85,1.72,12.2,9.09,12.89,9.6,12.23,8.91,53.69,43.16,82.41,51,11.83,3.24,38.93,12.78,46.88,7.9,4.3-2.64,8.39-5.63,12.74-8.18,1.2-.7,3.44-1.27,4.33-.64,13,9.08,25.8,18.37,39.74,28.39C1038.56,903.14,1001.41,896,964.23,889ZM1164.6,961c-2.81,1.73-4,.59-1.34-1.45,8.86-6.68,18.33-12.52,27.27-19.09,3.29-2.42,4.84-1.28,6.2.72a91.2,91.2,0,0,0-11.15,6.15C1178.62,951.81,1171.65,956.64,1164.6,961Zm25-27.85c-10.84,7.55-21.6,15.22-32.55,22.62-1.18.8-3.48,1.46-6.12-.75-3.88-3.25-7.35-5.69-9.13-11.27-2.23-7-7.39-13-11.56-19.27-12.49-18.79-27.65-35.36-43.27-51.54-3.08-3.19-5.9-6.63-8.82-9.95,6.14-6.23,9.57-6.07,15,.2,7.09,8.23,14.83,16,21.42,24.56s12.27,18.22,18.29,27.41c3.74,5.71,7.35,11.52,11.11,17.23,2.91,4.42,4.83,4.81,9.1,1.91q9.39-6.4,18.7-12.92c3.79-2.66,4.69-5.77,2.22-9.48-13.14-19.75-24.34-40.89-41.4-57.87-4-4-7.4-8.55-11.14-12.8-2.61-3-2.51-4.09,1.11-7.4,5.21,5.86,10.26,11.87,15.66,17.56,21.4,22.51,35.32,50.21,52.65,75.54C1192.83,929.79,1192.11,931.4,1189.63,933.13Zm-28.58-69.67c8.16-1.64,12.87-1,16.27,2.12l-7.35,8Zm25.61,30.11c-2.93-3.74-5.75-7.56-8.56-11.39-3.65-5-3.63-5,1.94-9.22l10.3,21.75C1192,898.5,1187.33,894.42,1186.66,893.57ZM1065,648.21a3.76,3.76,0,0,1-3.21-.11c-12.33-7.88-34.34-22.06-48-31a9.21,9.21,0,0,1-1.72-1.11,43,43,0,0,0-21.26-9.35c-11-1.65-19.48-8.27-28.41-14-.85-.55-1.65-1.16-3.06-2.15,15.34-8.2,30-16,44.63-23.84,9.82-5.23,19.72-10.31,29.47-15.67,3.78-2.07,6-1.57,8.31,2.25,7.09,11.72,20.35,32.71,28.72,46a6.53,6.53,0,0,1,1,1.34c2.07,3.77,8.11,13.25,10.54,16.81,2.63,3.85,4.55,11.74,6.33,17.79C1080.51,639.6,1072.81,644,1065,648.21ZM1026.92,547l-93.41-83.34c13.11-6.28,25.63-12.3,38.18-18.26,2.76-1.31,3.91.63,5.17,2.69q25.13,41,50.34,81.88c2.63,4.27,5.24,8.53,7.88,12.84ZM943.35,451.4c.19.17-11.9,5.81-22.11,10.76L878.88,482.6l-24.65-47.78c8-3.69,15.81-7.16,23.54-10.74,6.25-2.89,8.26-4.58,9.32-5.86l0,0c2.7-3.26,2.36-7-.94-9.54-3.94-3.08-7.9-6.15-12.32-9.59,4.53-2.11,8.5-4,12.51-5.83,11-5,22.14-10,33.16-15.1,3.25-1.51,6-1.26,9.22.44a34.6,34.6,0,0,1,14,13.76c9,15.3,18.54,30.33,28.14,45.92C962.55,442.29,951.88,447.32,943.35,451.4ZM763.44,356.51c1.3,1.69-52.35,5.07-52.32,5.12-9.25.47-9.42.16-17.8-5.28C700.61,356.35,753.13,356.51,763.44,356.51ZM701.7,379.69c-9.42,0-18.74.39-28-.21-3.1-.2-10.56-5.55-14.17-7.42,4-3,9.73-7.7,15.12-11.79ZM609.34,330.3c9.74,3.91,19.73,7.19,29.52,11,3.39,1.32,6.46,3.43,9.75,5.22-3.4,4.46-.89,6.84,11.25,14.54-2.5,1.73-5.71,3.27-8.93,5.5-16.85-10.87-38.18-24.49-56.42-36.25C600,328.39,604.51,328.35,609.34,330.3ZM593.43,317c10,3.45,9.36,3.05-1.58,7.2-17,6.46-32,12.88-48,19-8.53,3.24-12.77,8.79-12.13,17.88a118,118,0,0,1-.12,20.51c-.28,2.65-3,5.28-5,7.47-2.41,2.52-19.58-10.64-23.22-13.28-1.92-1.28-1.93-2-1.25-2.69,7.93-7.81,6.44-17.32,7.39-26.87.54-5.43-.85-12,5.72-15.27a7,7,0,0,1,1.52-.5c10.47-4,38.78-15.14,48.65-18.89C575.22,309.05,591.23,316.19,593.43,317Zm-39.08-8.76a48.9,48.9,0,0,1-9.52,3.49c-4.49,1.24-6.62,2.7-13.18-2.21C535.58,308.63,545.31,300.19,554.35,308.19Zm-32.52,5.91c2.22-.56,7.3,1.86,9.82,2.5-.06.61-8.53,3.85-11.3,4.5-4.05.95-7.49,2.62-13.37-1.43C512,317.71,516.78,315.36,521.83,314.1Zm-25.19,9.65c3.5-1.17,10.2,2.28,11.93,3.8-2.56.88-6.4,7.05-5.63,9.46-2.28,2.64-9.71.4-13-2.29a90.62,90.62,0,0,0-8.08-5.37C486.91,327.42,491.71,325.39,496.64,323.75Zm-22.85,18.76c5.33,3.24,10.35,5.85,14.8,9.2a8.32,8.32,0,0,1,3.14,6.19c-.34,4.58-.55,10.7-.55,10.7a80.75,80.75,0,0,1-9.76-3.92C474.27,361.1,474,359.77,473.79,342.51Zm1.84,49c6.54,2,12.71,4.27,12.35,6-2.47,11.76-2.78,12.79,1.31,15.17,1,.56.3,3,0,4.62C477.08,411.1,474.31,405.52,475.63,391.48Zm-1.14,36.06c5.82,1.54,12.2,2.23,17,5.32,13.85,8.89,26.92,19,40.29,28.58a21.63,21.63,0,0,1,2,1.82c-4.94,2.19-5.14,4.7-.57,7.89q26.09,18.23,52.28,36.31l39.42,27.29c-4.51,3-7.75,1-11.49-1.68-30.64-21.69-61.63-42.88-92.08-64.83C508.2,458.8,496.1,448,483.54,437.73c-3.36-2.74-6.7-5.51-10-8.26A1.11,1.11,0,0,1,474.49,427.54Zm-21.26-4.63c3.27,1.24,6.18,3.39,9.15,5.06-2.41,8.6-1.69,7.64,7.05,13.57-1.47.65-11.16,4.61-17.36,7.59l-55.43-40.29c6.61-3,12.68-2.31,19.08.24C428.1,414,440.78,418.18,453.23,422.91ZM335.84,385.23c6-2.36,11.88-5.24,18.08-6.83,1.94-.5,8.05,3.39,10.46,4.71-.05.53-14.14,4.55-19.61,7-4-1.24-5.41-2.28-8.87-3.31A.82.82,0,0,1,335.84,385.23Zm-25.69,10.34c5.45-2.25,10.82-4.83,16.47-6.26,2.29-.58,6.76,2.91,9.48,4.05-3.57,1.57-14.13,5.19-20.67,7.25,0,0-3.91-1.77-5.31-2.5A1.39,1.39,0,0,1,310.15,395.57Zm3,13.6q16.92-6.74,34-13.09c8.29-3.08,16.58-6.21,25.07-8.61a19.53,19.53,0,0,1,10.4.52c4.56,1.39,18.37,6.4,22.62,7.81,1.93.64,1.07,1.7.52,1.92-.18.22-37.24,14.62-52.5,20.87-7.07,2.89-14,6.18-20.77,9.72-3.88,2-4.11,5.63-4.47,9.11-.63,6-1.59,13-2.1,19.43-.05,1-.12,1.92-.2,2.85-2.71-1.83-12.52-8.05-14.59-9.07-7.57-3.7-7.56-9-7-17.24.52-7.25.57-10.12,1.07-15.41C305.68,413.5,309.49,410.65,313.19,409.17Zm-32.07-1.91c6.11-2.43,12.09-5.33,18.4-7,2.12-.56,5.07,2,7.84,3.2-6,3.28-8.58,7.79-9.34,13.78C294.37,416.33,277,409.18,281.12,407.26ZM277.39,445c-5.24-3.12-5-8-5.12-15.68,0-2.28,0-4.58,0-7.54,6.17,3.64,10.08,5.38,16,10.11,0,4.16-1.29,14.78-1.84,15.81C285.26,449.85,280,446.56,277.39,445ZM285,474.68c-.05,1.89.17,5.64,0,18-10.06-3.73-8.42-4.34-9.46-26.71C282.29,468.7,285.13,467.23,285,474.68Zm-3.64,25.44c0,4.69-32.45,54.44-36.85,62.34-6,10.75-13,20.91-20,32l-8.25-12.31q-14.1-21-28.21-42.1c-3.56-5.34-3.59-7.32.26-12.41,10.66-14.1,21.42-28.12,32.13-42.18l15.26-20C249.22,475.3,281.35,497.15,281.33,500.12Zm-84,86c-8.41-13.29-16.68-26.67-25.22-39.87-2.15-3.32-2.46-6.3-.42-9.5,6.78-10.64,13.52-21.29,20.47-31.81,9.58-14.5,19.33-28.89,29-43.32.73-1.09,1.56-2.13,2.61-3.54L230,461.8c-4.91,6.51-9.67,12.87-14.48,19.19-10.7,14.07-21.36,28.16-32.15,42.15-5,6.49-5.58,14-.57,21.27,11.64,16.83,22.68,34.09,34.34,50.9,2.79,4,3,6.57.18,10.73-1.35,2-2.28,3.37-3.73,5.59C208,602.83,202.62,594.52,197.33,586.16ZM161,690.91c13-14,26-28,39.19-41.85h0c9.92-10.85,31.35-34.25,41-44.75,7.46-8.11,15.07-16.09,22.4-24.32a6.57,6.57,0,0,1,.59-.59c18.52-20.07,45.41-49.07,63.14-68.3a1.38,1.38,0,0,1,2.38.81c.37,4.06.76,8.26,1.27,13.8-3.47,3.92-8.12,9.28-12.88,14.55-9.38,10.39-18.88,20.67-28.18,31.13-8.89,9.87-25.86,28.41-34.51,38-7.77,8.62-15.7,17.11-23.26,25.92q-.63.72-1.23,1.35c-5,5.51-16.66,18.16-20.29,22-6.3,6.61-6.3,10.64.4,16.93,3,2.84,6.21,5.5,9.69,8.56-5,6.27-9.72,12.29-14.5,18.3-2.12,2.68-4.39,5.24-6.37,8-1.81,2.54-3.9,3.7-7.11,3.12-13.93-2.5-27.89-4.88-41.82-7.35a12.43,12.43,0,0,1-2.69-1.27C152.62,700.08,156.77,695.46,161,690.91Zm-4.21,22.66c4.33.77,23.61,4.16,28.77,5-9,5-16.69,9.44-24.63,13.51-1,.53-3.36-.61-4.63-1.57-3.9-3-7.44-6.38-11.39-9.25-2.38-1.73-4.83-3.12-10.23-4.31C142.89,710,144.55,711.4,156.78,713.57ZM121.41,804c-1.3-6.52-2.63-13-3.8-19.42a3.26,3.26,0,0,1,.84-2.71,2.89,2.89,0,0,1,2.75.06c9.86,7.58,19.64,15.27,29.61,23.07l-2.87,3.75c-3.43-2.79-6.88-5.31-10-8.18-2.76-2.55-5.45-2.5-8.48-.85C126.89,801.15,124.27,802.5,121.41,804Zm48.9,48c-13.49-12.59-22.8-19.91-36.12-32.69-.81-.78-6-10.47-6.77-11.3.31-.35,5.25-2.49,5.56-2.84,18.7,14.81,35.75,32.39,59.28,38.31a2.19,2.19,0,0,1,.85,3.75l0,0C181.7,858.35,178,859.18,170.31,852Zm65.19,54.83c-11.34-10.77-22.43-21-33.73-31.79-4.19-4-9-8.78-15.83-9.39a.5.5,0,0,1-.35-.83c3.13-3.5,8.81-9.58,11.09-12.16l13.86,13.14c.22.21.53.42.58.68,2.1,11.32,12.11,16.38,19,23.84,4,4.35,8.63,8.18,12.93,12.19C241.09,905.73,238.09,909.28,235.5,906.82Zm156.89-6.08c-.39.07-10.68-2.06-11.08-2a9.17,9.17,0,0,1-.83-2.33c-.37-4.88-.72-9.76-.92-14.65-.13-3.45-2.15-5.11-5.17-5.73-30.51-6.32-51.13-10.33-81.62-16.71-6.57-1.37-13-3.24-19.33.86-1,.62-2.91,0-4.27-.37-28.87-8.76-57.87-17.15-86.48-26.7-7.63-2.54-14.08-8.64-21-13.21-.5-.32-.55-1.49-.59-2.27a4.75,4.75,0,0,1,.51-1.69c5.09-13,5.28-10.32-5.9-19.32-5.29-4.27-8.69-6.53-12.73-9.43a1.72,1.72,0,0,1,1.2-3.1c9.35,1.08,19.46-1.91,25.35-8.1,7.62-8,5.06-19.58-5.43-22.77-9.81-3-19.43-1.83-28,4.18-5.39,3.79-8,9.08-7.55,14,.15,1.83-1.78,3.67-3.7,1.93a8.91,8.91,0,0,0-2-1.18s-5-.86-8.63,5.94c-.78,1.56-2.93-.64-2.39-2.16L126,726.63c2.11-6.9,14.09-1,15.57.26,4.34,3.61,8.85,7,13.21,10.6,2.93,2.41,5.87,2.39,9.06.62,9.23-5.09,18.65-9.86,27.65-15.32,6.29-3.81,12.13-1.24,17.72.59,3.23,1.06,5.94,3.72,8.4,5.77a.72.72,0,0,1-.38,1.28c-5.49.49-11.32.6-16.76,2.13A33.4,33.4,0,0,0,187.64,740c-7.41,6.7-6.16,16.7,2.13,22.36,11.43,7.79,31.94,5.68,41.79-4.16a15.2,15.2,0,0,0,4.58-14.29.55.55,0,0,1,.88-.53c7.75,5.68,15.15,11,22.4,16.56a6.59,6.59,0,0,1,2.12,4.22c1,11.5,1.85,23,2.79,34.54.87,10.62,1.71,21.24,2.8,31.84.37,3.6,2.71,5.59,6.41,6.38,20.35,4.36,40.67,8.89,61,13.33,11.54,2.51,23.11,4.88,34.63,7.51a8.09,8.09,0,0,1,4.59,2.87,12,12,0,0,0,9.38,5.89c3.17.33,6.26,1.44,10.15,2.38C388.94,879.46,391.28,890.11,392.39,900.74ZM226,740.93c5.16,3.58,5.34,8.58.57,13-5.39,5-12.22,6.28-21.35,7.38a17.41,17.41,0,0,1-13-5.77c-3.25-3.8-4.05-6.49-.83-10.28C198.91,736.5,215.86,733.9,226,740.93ZM432.33,906.15c-1.9-.31-3.23-.5-5.66-1-2.85-.65-3.82-1.82-4.1-4.28-.71-6.23-.16-6.77,6.09-5.8l5.47.86c4.43.72,4.43.72,4.68,4.88C438.81,907.33,438.54,907.16,432.33,906.15Zm57.95,10.45c-2.41-.51-4.69-1.38-7-1.4-4.57-.05-5.78-2.17-5.36-6.44.39-4,.09-8,.08-12.06,0-5.23-1.36-6.64-7-6.72-9.08-.13-18.19.25-27.26-.16A156.44,156.44,0,0,1,424,887.41c-6.32-1.09-7.55-.38-7.56,5.84,0,4.13,0,8.26,0,13-5.12-1-10.83-2.05-16.51-3.24a2.19,2.19,0,0,1-1.37-1.57c-.34-10-3.73-20.2.91-30.09a9,9,0,0,1,.76-.91c6.8,1.42,13.92,3.22,21.14,4.36,11.94,1.9,23.93,3.5,35.93,5,6.75.85,13.69.61,20.28,2.08,4.62,1,8.8,4.06,13.13,6.32a2.37,2.37,0,0,1,.84,1.87C491.18,898.76,490.73,907.47,490.28,916.6Zm2.63-35c-3.79-1.65-7.32-4-11.22-5.21a46.7,46.7,0,0,0-12.25-1.73c-29.16-.72-57.08-8.71-85.37-14.5a7.69,7.69,0,0,1-4.3-3,12.15,12.15,0,0,0-8.44-5.73c-30.76-6.53-61.48-13.29-92.25-19.76-4.31-.9-5.93-2.34-6.16-7.12-.56-11.66-2.2-23.26-3.26-34.9-.75-8.26-1.49-16.53-1.84-24.81-.21-5-1.9-8.71-6-11.66-14.47-10.4-44.67-31.83-45.39-32-2.58-1.68-.93-3,1.45-1.68,1.88,1.22,3.82,2.35,5.63,3.66,11.19,8.11,22.52,16,33.45,24.49,5.41,4.19,11,4.12,16.75,2.23,7.7-2.55,27.89-10.89,35.57-13.87,3.3-1.17,11,3.37,5.06,5-5.26,1.34-25.59,6.93-30.71,8.26-4.87,1.28-6.15,3-4.74,7.7q5.81,19.35,12.16,38.52c.49,1.5,2.41,2.95,4,3.57.4.16.8.3,1.2.44a1.21,1.21,0,0,1,.14,2.23,12.56,12.56,0,0,0-4.79,4.82c-1.62,2.64-3.92,4.86-5.71,7.41-3.26,4.66-2.63,6.78,2.7,8.52,8,2.61,16.09,5,24.16,7.47q62.1,18.66,124.21,37.26a14.4,14.4,0,0,0,5.34.57c3.42-.29,6.81-1.38,10.2-1.35a7.48,7.48,0,0,0,6.76-3.42c1.38-1.94,2.74-3.89,4.1-5.84,3.17-4.57,3.39-6.51.09-10a.52.52,0,0,1,.53-.85c6.09,1.73,12,3.39,17.84,5.1,5.39,1.57,9.81,4.16,13.12,9.14,2.11,3.16,5.93,5.17,9.57,8.18-2.49,4-5.17,8.57-8.14,12.91C496,882.25,493.93,882.08,492.91,881.64Zm-266-164c6.39-4.37,12-5.13,18.65-3.23h0c13.53,4.14,43.15,12.79,57.42,17.15-11.71,4.55-22.65,9-33.77,12.93-2,.7-5.13-.11-7-1.33C256.53,739.48,230.19,720,226.94,717.64ZM378,817.74c-12.65-2.68-35.21-7-41-8.69-9.32-2.78-27-12.41-36.39-15.11-1.67-.48-3.75-2.06-4.27-3.6-3.66-10.79-7-21.69-10.64-33.3a1.27,1.27,0,0,1,.88-1.61c3.57-1,6.83-1.92,10.1-2.65v0c4.12-1.27,18-4.94,21.47-6C340.3,768.59,361,789,383.64,811.28ZM446,843.24c.24.07.42.38.63.58,0,.29.16.65,0,.85-4.94,8.43-4.93,8.41-14.29,5.7q-29.35-8.49-58.72-17a30.5,30.5,0,0,1-3.09-1.27c1.64-2.54,3.08-5,4.81-7.26.42-.55,1.93-.66,2.78-.43Q412.07,833.76,446,843.24Zm63.83,60.38a47.43,47.43,0,0,0-.29,7v7.48c-7,.58-8.23-1-9.21-7.43-2-12.71,3.74-22.67,10.31-32.56,8.22-12.37,6.24-10.65-4.19-16.86a27.22,27.22,0,0,1-7.87-6.87c-3.29-4.48-7.66-6.83-12.69-8.4-12.78-3.49-54.9-15.85-67.6-19.65a13.12,13.12,0,0,1-5.27-3c-22.12-22-63.7-63.57-74.77-74.77-.77-.79-11.41-11.69-13-13.34-4.92-5.1-33.62-14-33.64-14-15.44-4.59-30.8-9.47-46.29-13.88a19.25,19.25,0,0,0-9.91.07c-8.7,2.38-17.21,5.43-25.84,8.11-1.35.42-2.88.27-5.44.46,1.14-1.88,1.39-2.42,1.75-2.86l19.83-24.46c3.93,3.29,8.05,6,11.28,9.63,4.59,5.07,10.58,6.92,16.69,8.71,12.9,3.8,47.81,13.87,60.69,17.73,0,0,49.84,14.51,77.94,22.72C479.12,772.81,654.74,823,693,834.34c1.69.5,3,.88,4.1,1.22h0s0,0,0,0a7.58,7.58,0,0,1,3.25,1.7c3.62,3.55,6.68,11.54,6.91,14.54q1.82,23.49,3.62,47c.37,4.7.87,9.38,1.38,14.71-7-1.84-13.49-3.55-20-5.29-42.25-11.32-84.48-22.74-126.8-33.81a17.16,17.16,0,0,0-11.07,1.15c-11.16,5.55-30.58,17.88-41.52,23.89A5.45,5.45,0,0,0,509.79,903.62Zm87.47,34.56-76.92-20.53c-5.66-1.51-4.2-5.79-4.2-10.23,8.77,2.3,16.54,4.35,24.32,6.38l51.88,13.54C598.61,929,599.31,930.42,597.26,938.18Zm88.52,23.25c-2.47-.62-4.15-1-5.81-1.46-7.84-2.14-7.85-2.16-6.31-10.94a88.42,88.42,0,0,1,10.1,2.6c1,.38,1.69,2.41,1.94,3.79A36.77,36.77,0,0,1,685.78,961.43Zm56.64,14.74c-3.51-1-9.26-1.93-12.66-3.18-1-.36-1.8-2-2-3.14-.34-1.85-.09-3.8-.09-6.4,3.26.68,11.42,2.34,14.76,3ZM776.5,989l-7.65-1.93c0-5.18-.26-10.1.08-15,.26-3.73-1.28-5.35-4.67-6.22q-27.48-7.08-54.9-14.35-93.92-24.7-187.81-49.42c11.09-6.26,26.47-15.82,35.75-20.7a9.89,9.89,0,0,1,6.6-.74q97.26,25.81,194.43,52a8.17,8.17,0,0,1,4.82,4.29c4.66,12.16,9.36,24.35,13.13,36.81C777.65,978.34,776.5,983.62,776.5,989Zm57.84.27c-.45,3.82-.43,7.7-1.06,11.47-.17,1-2.18,2.74-2.94,2.54-15.86-4-31.66-8.25-47.61-12.49.37-5.92.83-8.25.88-13.43,0-4.27-2-9.16-2.42-10.26-4-11.07-6.56-18.08-10.86-29.9,29.58-.34,57.25,7.2,86.15,11.26-4.41,5.14-8.26,9.43-11.9,13.89C838.2,970.2,835.52,979.49,834.34,989.3Zm70.29,39.31-52.75-13.93c-.57-.15-1.14-.33-1.71-.47-9.3-2.33-9.58-2.36-8.77-11.61,1-10.92,2.89-21.69,7.69-31.71a13.67,13.67,0,0,1,2.81-3.95c2.14-2,4-.76,4.69,1.37,5.27,16.08,24.12,22.63,37.54,12.94,1.77-1.28,3.75-3.54,5.46-3.39A30.57,30.57,0,0,1,911,981.08c1.55.83,2.8,4.4,2.38,6.34-1.46,6.76-4.09,13.26-5.56,20S905.72,1021.11,904.63,1028.61Zm44.52-13.88a163.89,163.89,0,0,0-2.91,19.67c-.28,2.58-1,3.44-3.6,2.71-9.53-2.64-19.11-5.06-28.6-7.79-1.15-.33-2.82-2.13-2.7-3,.9-7,2.14-14,3.4-20.93a10.36,10.36,0,0,1,1.47-2.87c3.73,1,6.71,1.8,9.71,2.55,6.72,1.7,13.43,3.44,20.18,5C948.84,1010.66,950,1011.26,949.15,1014.73Zm5.67-25c-5.3,2.61-9.75,2-13.41-2.62-2.48-3.24-16.32-21.72-20.85-27.83l14.09,2.36a8.76,8.76,0,0,0,8.62-3.63c.89-1.28,1.6-2.28,1.63-2.37,3.1-7.35,3.14-7.52,11.09-6q36.75,7,73.43,14.38a4.44,4.44,0,0,1,2.64,2.29c2.56,5.66,7,8,13,8.42,5.38.34,18.61,1.38,19.91,1.46a4.91,4.91,0,0,1,3.44,3c.51,2.09,6.36,18.48,3,20.47-6.41,3.73-12.6,7.84-19.05,11.5-1.32.74-3.49.54-5.1.13-28.43-7.4-56.82-15-85.28-22.29A11.26,11.26,0,0,0,954.82,989.7Zm39.49,55.24-26.56-7.34a35,35,0,0,1-5.43-1.5c1.88-8.47,2.48-11.11,12.29-7.72h0c6.1,1.39,15.86,4.13,19,5.23C997.12,1034.82,995.48,1041,994.31,1044.94Zm45.87-6.5c-27.3-7.08-54.66-14-82.27-21,.41-7.66,2.37-13.75,4.78-21.65,8.38,2.19,16.9,4.4,25.42,6.64,16.39,4.32,39.86,10.71,58.25,15.76a12.81,12.81,0,0,0,11.2-2.21l.21-.16c5.2-3.42,10.55-6.62,16-9.73a3.56,3.56,0,0,1,3.13.08c3,1.82,8.75,4.84,13.36,5,18.35.55,66.31,6,68.19,6.27,2.34.14,1.72.83.61,1.09-24.68,6.58-49.29,13.42-74.08,19.56a46.1,46.1,0,0,1-10.68,1.09h0C1062,1040.57,1045.28,1039.77,1040.18,1038.44Zm57.06,38.46c-.5.81-2.22,2.57-3,2.35-12.27-3.8-24.55-7.6-36.66-11.88-8-2.82-6.07-7.49-3.46-7.49,6.69.52,13.88,2.85,22.83,5.36,6.92,1.94,12.59,4,19.5,6.14C1100.27,1072.53,1098.46,1074.93,1097.24,1076.9Zm122.85-49.67c-1.58,5.28-4.38,7.61-9.07,8.8-11.16,2.84-64.41,16.87-80.06,20.29-10.1,2.2-20.06,5-30.12,7.34a9.42,9.42,0,0,1-4.65-.24c-11.06-3.26-22-6.82-33.15-9.93-4.3-1.21-5.55-3.77-5.35-7.71,6-.44,13.64-.53,19.49-.84,16.48-.87,24.25-4.63,36.94-7.83,26.78-6.75,53.46-14,80.05-21.41,4.52-1.27,8.44-4.66,13.12-7.36C1210.1,1011.33,1220.69,1025,1220.09,1027.23Zm21.66-32.41-22.08,16.59c-7.1-6.93-13.73-13.75-20.73-20.15-5.79-5.28-12-10.08-18.07-15.1l-10.63-8.85c6.64-4.81,11.57-8.58,16.77-11.95,1-.61,3.36,0,4.48.83,15.13,11.46,30.16,23.07,45.21,34.64C1238.21,992,1239.69,993.19,1241.75,994.82Zm-7.57-15a.63.63,0,0,1-.83.93c-11.52-8.73-31.51-23.7-38.1-28.8,2.75-2.17,5.77-5.47,11.5-.11C1211.39,956.21,1225.59,970.87,1234.18,979.85Zm-20-64.23c-5,3.81-10.26,7.36-15.61,11.13L1188,910.22c3.25-.65,6-1.25,8.81-1.76,2.31-.42,4.66-.65,7-1.13,6.71-1.41,7.91-1,11.24,4.77A3.72,3.72,0,0,1,1214.22,915.62Zm-11.35-57.43c-4.66-3.16-8.24-6.43-9.89-12.6-2.71-10.09-7.28-19.68-11-29.49-.46-1.18-.83-2.41-1.51-4.44,6,.44,11.45.73,16.83,1.25,7.64.74,15.26,1.71,22.9,2.46,7.06.69,14.16,1,21.18,2a7,7,0,0,1,4.56,3.62c11.81,26.83,32.69,75.8,35.22,82-5.77.57-11.36.75-16.45-2.72Q1233.77,879.21,1202.87,858.19Zm25.55,69.16c-2.34-1.32-9-17.48-3.06-13.77,4.78,3.23,9.66,6.26,14.44,9.49,4.13,2.78,13.16,13.25,13.75,16.63C1245.93,936.41,1235.07,931.08,1228.42,927.35Zm71.88,24.32a76,76,0,0,1-11.1-6.11c-22.3-15-44.39-30.24-66.68-45.21-3.62-2.42-2.2-8.7.44-12.62,26.86,19.2,54.67,38.64,81.6,59.67C1307,949.07,1303.05,952.74,1300.3,951.67ZM1298.71,926a80.66,80.66,0,0,1-9.5-7.83,5,5,0,0,0,3-6.22c-9.9-22.84-18.8-44.33-27.74-64.92-1.09-2.4,2.31-2.1,10.19-1.52,6.4.47,20.52,1.94,23.8,3.26,5.46,2.2,9,7.7,10.16,16.21,2.22,15.61,5,31.15,6.81,46.81.62,5.47-2.7,10.41-6.87,14.32C1305.18,929.2,1303.15,929.12,1298.71,926Zm49.17-79.84v0a1.76,1.76,0,0,1,2.85-1.74,15.6,15.6,0,0,1,3.57,3.7c4,6.61,7.35,13.57,11.28,20.21,2,3.36,1.65,6.29.14,9.57-5.53,12-11,24-16.32,36.08-.84,1.93-.37,4.4-.65,6.61a13.36,13.36,0,0,1-.92,3.76c-3.25,7.16-6.47,14.34-10,21.37a8,8,0,0,1-4.14,3.29c-3.71,1.39-7.6,2.33-12.6,3.8,3.31-7.22-10-14.48-13.2-18,12.88-7.61,14.95-21.75,20.94-33.38,6.38-12.37,11.87-25.2,17.64-37.88A24.51,24.51,0,0,0,1347.88,846.11Zm-43.35-65.53a5.08,5.08,0,0,1,3.45,2.13c10,16.4,21.67,36.18,32.32,53.95a16.17,16.17,0,0,1,2.28,3.8c.09.14.18.29.26.44l-.1,0c1.93,4.9,1.15,10.29-.92,15.48-4.06,10.18-8.74,20.11-13.23,30.12-1.6,3.57-3.27,7.11-5.06,10.92a2,2,0,0,1-3.74-.56c-1.46-9.83-2.82-19-4.22-28.24-.62-4.09-.87-8.31-2.14-12.2a70.23,70.23,0,0,0-4.79-10.16,3.31,3.31,0,0,1,.31-3.56,15.8,15.8,0,0,1,6-4.89,8.3,8.3,0,0,0,3.93-11.4.76.76,0,0,0-.07-.13c-8.87-15.07-17.69-30.17-26.81-45.76C1296.37,780.48,1300.46,780.32,1304.53,780.58ZM1274,736.82c3.66-2.07,5-5.2,5.31-8.88a.93.93,0,0,1,1.73-.41l8.55,14.39c.3.46.59.93.85,1.42,3,5.61,5.38,11.49,7,15.43a1.87,1.87,0,0,1-2.45,2.45c-12.32-5.14-32.24-13.47-42.22-18-1.58-.71-2.67-2.53-3.75-4.18a.76.76,0,0,1,.8-1.16c3.88.83,7.48,1.9,11,1.69C1263.9,739.43,1267.42,739.78,1274,736.82Zm-27.56-57.54c4.89,8.07,9.64,16.24,14,23.71-9.4,2.7-18.35,5-27.11,7.91-3.62,1.19-5,.19-6.15-3.07-3.18-8.74-6.84-17.32-9.84-26.12-1.36-4-1.62-8.31-2.53-13.31a48.13,48.13,0,0,1,5.7,1.14q11.54,3.88,23,8A5.56,5.56,0,0,1,1246.45,679.28Zm-81.14-134c24.72,41.18,49.33,82.16,74.43,123.94-7.81-2.54-14.65-5.31-21.74-6.9-5.66-1.27-9.15-3.91-12.12-9-18.83-32-38-63.68-57.08-95.49-.45-.75-.81-1.56-1.58-3.08Zm-8.16-12.4c2.16.4,3.84,3.4,6.26,5.73-7,3.81-12.8,6.74-18.37,10-5.82,3.47-6.19,5.45-2.76,11.16q20.25,33.79,40.54,67.59c.82,1.37,1.54,2.79,2.58,4.68L1162.63,629c-9.8-1.34-19.6-2.72-29.4-4-9.52-1.27-28.32-2.68-37.75-4.41a12,12,0,0,1-7.35-5L963.54,414c-3.35-4.9-12.56-20.68-15.67-25.74-5.67-9.21-5.66-9.21-18.07-16.77l31.67-2a.66.66,0,0,1,.43,1.2c-2.84,2-5.69,3.95-8.5,6-4.44,3.21-5,6.32-2,11,2.62,4.06,11.07,16.45,15.94,23.57a65.23,65.23,0,0,0,7.64,9.2l1.4,1.41a27.11,27.11,0,0,0,6.49,4.82c11.93,6.33,31.2,16.57,40.25,21.42,19.63,10.5,39.2,21.13,58.91,31.48a21,21,0,0,1,9.22,8.57c1.71,3,7.51,12.06,11.77,18.68h0c1.49,2.29,2.91,4.17,4,6.22a24.4,24.4,0,0,0,14.51,12.36,11.72,11.72,0,0,1,5.52,3.56c5,6.53,11.65,4.86,18.18,4.37C1149.21,533,1153.33,532.19,1157.15,532.89Zm-19.86-59.27c8.87,14.3,13,30.24,16.16,46.54.51,2.6-.2,3.57-2.78,3.69-3.69.17-7.38.78-11.05.69a4.48,4.48,0,0,1-3.13-2.77c-1.53-5.72-5.11-8.86-10.69-10.66-2.28-.74-4.12-2.84-6.1-4.53a.92.92,0,0,1,.52-1.63c4.87-.32,9.74-.57,14.6-1,5.08-.47,8-6.74,5.49-12.34a51.69,51.69,0,0,0-4.8-7.95c-14.16-20.7-28.41-41.33-42.49-62.07-2.19-3.23-4.82-4.67-8.57-4.21-6.22.76-14,2-19,2.59-1.93-2.06-3.89-2.9-7.85-4.12-13.12-4.06-29.47-8.39-42.61-12.38-4.24-1.28-8-.14-11.37,2-1.13.72-11.16,8.35-11.18,8.35-1.1,0-4.88-1.69-4-2.34,4.15-3,18.64-11.7,22.09-14.44,18.37,7.19,20.34,6.28,61.37,15.64,9.63,2.2,19.34,4.07,28.95,6.35a7.66,7.66,0,0,1,4.42,3.49c6.62,13,12.83,26.2,19.56,39.13,2.07,4,9.5,11.76,10.6,11.57C1137,472.89,1137.15,473.38,1137.29,473.62Zm-1.7-11.87c1.63,4.54-4.3-2.18-5.25-4q-10-19.6-19.63-39.36a9.47,9.47,0,0,0-7.3-5.63c-26.75-5.48-53.51-10.94-80.13-17-5.38-1.24-10.17-5.11-15.06-8.13,5.87-.2,11.56-.18,16.59-3.25,5.85-3.56,7.11-10.62,2.52-15.71-7.43-8.25-26.41-10.42-35.47-3.79-2.33,1.71-3.7,4.72-5.83,7.56l-12.21-8.57c7.87-2.81,14.3-4.94,20.56-7.47,2-.8,5-2.72,4.93-4.06,0-1.93-2.18-4.08-3.88-5.64a23.65,23.65,0,0,0-4.07-2.76.79.79,0,0,1,.47-1.47l25.46,2.58c-3.87,2.81-5.74,7.14-3.44,10.72a18.27,18.27,0,0,0,10,7.25c5,1.26,10.53.92,15.72.29s7.28-4,7.93-10.66c6.13,3.94,12,7.83,18,11.57,7.39,4.59,14.78,9.18,22.32,13.51,6.44,3.69,10.58,9.28,14.23,15.57-2.43,0-5-.61-6.94.16s-5,2.41-5.3,4.63c-.2,1.41,1.16,4.22,2.65,5.48,5,4.27,12.52,2.23,14-4.15,4.41,6.43,8.57,12.47,12.69,18.54.3.44.58,1.34.36,1.61-3.59,4.33-.22,7.88,1.42,11.44C1125.68,441.27,1130.68,451.49,1135.59,461.75ZM235.1,817.4c-6.39-1.3-12.63,1.17-13.63,5.4a6.4,6.4,0,0,0-.08.88c-.65,5.77,2.89,8.72,10.44,8.71,6,0,9.39-2.08,9.94-6C242.37,822,239.62,818.31,235.1,817.4Zm70.38-117.26q13.44,5.24,26.94,10.31a7.23,7.23,0,0,0,2.63.24c6.39,0,10.74-2.36,11.18-5.92A6.8,6.8,0,0,0,340.9,697c-10.83-2.8-21.76-5.26-32.72-7.55-3.06-.64-6.09.52-7,4C300.14,697,302.48,699,305.48,700.14ZM203.57,522.56A16.77,16.77,0,0,0,200,540.17c2.17,6.34,6.73,7,13.61,7.66,9.41.56,16.18-3.38,21.13-10.63,5.71-8.37,2.48-18-7.13-21C218.39,513.36,210.33,515,203.57,522.56ZM935.38,400.83c-1.83-1.57-6.22-1.15-8.92-.18-1,.37-1.33,5-.72,7.32.92,3.53,2.87,6.79,4.48,10.12,2,4.2,5,7,9.71,6.26,8.12,0,11.47-4.12,7.7-9.55A73.32,73.32,0,0,0,935.38,400.83Z"/></g><g id="Thrusters"><path d="M147.46,759.72c-6.39,2.72-10.18,8.17-8.48,12.17s8.26,5.05,14.65,2.33,10.18-8.17,8.47-12.17S153.84,757,147.46,759.72Zm731.48,194c-6.91-.72-12.91,2.61-13.42,7.45s4.68,9.35,11.58,10.07,12.91-2.62,13.42-7.46S885.84,954.49,878.94,953.77ZM1261.2,715c-6-.62-11.12,1.83-11.5,5.47s4.15,7.1,10.12,7.72,11.11-1.82,11.49-5.46S1267.16,715.6,1261.2,715ZM213.73,524.35c-5.42,3.13-8.23,8.43-6.26,11.83s7.95,3.62,13.38.49,8.23-8.43,6.26-11.83S219.16,521.22,213.73,524.35ZM1031.67,345c-5.61-.63-10.47,1.71-10.86,5.23s3.83,6.87,9.44,7.5,10.47-1.72,10.86-5.23S1037.28,345.66,1031.67,345Z" fill="#007aff"/></g></g></svg>