<svg xmlns="http://www.w3.org/2000/svg" viewBox="0 0 1500 1500"><title>Mamba</title><g id="Mamba"><g id="Colour"><path d="M1411.9,948c4.69-8.4,5.22-7-.38-15.77-7.19-11.23-14.53-22.44-22.8-32.88-21.75-27.44-45.3-53.34-69.26-78.85q-35.48-37.77-73.83-72.6c-33.07-29.93-67.29-58.52-102.22-86.25-19.66-15.61-39.83-30.52-61.62-43Q1026.1,586.77,970,555.59c-18.32-10.2-36.09-21.46-55.41-29.83a17.89,17.89,0,0,1-3.26-2.13c-5.39-3.93-10.83-7.8-16.14-11.84-13.45-10.24-27.84-19.24-40.39-30.65q-52.32-35.53-104.67-71a20.84,20.84,0,0,1-6.94-7.31q-17.13-31-34.4-61.88c-7.07-12.72-7.06-12.73-20-19.55l-.43-.24c-4.9-2.53-5.75-2.3-8.51,2.4-7,11.93-14.09,23.82-21,35.81-1.42,2.47-2.8,3.35-5.8,2.76-11.65-2.27-23.35-4.31-35.31-2.27-3,.5-5.71-.35-8.45-1.69-15.64-7.63-31.38-15.07-47-22.66a352.39,352.39,0,0,0-42.91-17.44,26,26,0,0,0-14.88-.79c-9.76,2.49-19.55,4.89-29.26,7.58a31.1,31.1,0,0,0-8.91,3.89c-19.25,12.9-31.44,29.75-30.56,54.22.26,7.39,2.66,13.29,7.93,18.13,3.71,3.41,7.61,6.62,11.54,9.79,5.31,4.29,10.76,8.4,13.88,14.78a20.66,20.66,0,0,0,3.32,4.2c8.26,9.34,18.16,16.77,28.2,24a9.66,9.66,0,0,1,4.31,6.09A30.62,30.62,0,0,0,516,477.86c9.68,7.68,19.55,15.13,29.35,22.67,1.22.94,2.45,1.86,4,3-1.39.74-2.23,1.22-3.09,1.64-6,2.93-12.14,5.57-17.93,8.85-6.66,3.77-10.57,9.51-10.34,17.52,0,1.4-.12,2.79-.22,4.79-1.52-1.05-2.59-1.71-3.56-2.48-19.54-15.44-39.33-30.58-58.55-46.41-22.95-18.9-47.28-35.75-73.52-49.63-23.86-12.63-48.29-24.17-72.39-36.37a32.92,32.92,0,0,0-25.57-2c-19.69,6.25-38.14,14.71-52.63,30.34-11.28,12.18-23.23,23.75-35,35.49A45,45,0,0,0,184,489.05c-1.68,8.67-.88,17,7.24,22.71a18.4,18.4,0,0,1,2.2,1.94c4.2,4,8.39,8.06,12.83,12.34-1.56,1-2.74,1.79-4,2.48-20.19,11.24-40.42,22.4-60.55,33.74a86.3,86.3,0,0,0-10.29,7.29c-4.23,3.28-8.3,6.74-12.17,9.91-6.15-5.2-12.23-10.28-18.26-15.43a5.75,5.75,0,0,0-6.32-1.22c-2.33.94-2.72,2.93-3,5.15-.49,4.84-1.25,9.65-1.74,14.5-.78,7.58-1.34,15.19-2.16,22.78-.36,3.31,1.09,5.43,3.45,7.52,22.68,20.07,46.28,39,70.23,57.53,5.76,4.45,12.24,6.58,18.87,8.7a17.64,17.64,0,0,0,3.87.23c1.88.15,3.87,0,5.61.61,12,4.06,24,8.27,35.92,12.47a33.7,33.7,0,0,1,4,1.77c4.78,2.4,9.38,5.24,14.35,7.14,7.57,2.91,15.34,5.34,23.13,7.66,11.81,3.53,23.84,6.36,35.67,9.69,21.89,6.16,43.27,14.12,64.84,21.41a7.19,7.19,0,0,1,3.51,2.34c1.79,2.6,4.27,3.81,7.12,4.79,20.74,7.17,41.44,14.46,60.62,25.37.56.32,1.16.58,1.73.89,6.57,3.6,13.08,7.22,18.86,12.1a242.31,242.31,0,0,1,18.09,16.89c12.67,13.1,26.33,25.24,39.24,38.12,23.93,23.89,49.71,45.84,73.2,70.19.68.7,1.42,1.34,2.08,2.06A90,90,0,0,0,629,936.86c18,6.52,35.86,13.67,54,19.85a105.8,105.8,0,0,1,30.49,16.62c5.13,3.93,10.21,9.83,17.09,9.21,10.36-2.5,18.56-1.82,22.88-.24q60.94,22.25,120.67,47.58c26,11.09,52.22,21.89,77.24,35.19,46,24.42,91.81,49.12,137.77,73.58a37.34,37.34,0,0,1,13,10.67,10.22,10.22,0,0,0,4.94,3.64c8.59,2.48,17.31,4.37,26.34,4.32a71.35,71.35,0,0,1,10.24.37,57.54,57.54,0,0,0,35.86-6.08c17.42-9.17,35-18.06,52.59-27.13,1.55.93,3,1.9,4.61,2.75a56,56,0,0,0,7.8,4c1.49.53,3.87.59,5-.26a64.1,64.1,0,0,0,10.91-10.77c-1.84-1.92-3.38-3.55-5-5.16q-14.51-14.87-29-29.72c-13.83-14.22-26.87-29.31-44-39.91a6.28,6.28,0,0,1-.77-.59c-2.21-2-4.59-3.09-7.3-1.19L1059,946.25c1.39-1.07,2.21-1.8,3.12-2.38,5.91-3.76,11.76-7.61,17.77-11.19,13.11-7.8,24.26-18,35.46-28.23,4.81-4.37,7.38-9.79,6.86-16.5-.61-7.77-1.11-15.55-1.56-23.32-.15-2.65,0-5.32,0-8.43,10,4.95,19.91,9.19,29.17,14.47q92.26,52.59,184.26,105.61a37.26,37.26,0,0,0,15.48,5.3c5.15.45,9.78,2.08,12.42,4.49,1.92,4.64,2.79,8.18,4.7,11,3.45,5.13,9.11,7.78,14.42,10.51,2.16,1.1,5.35,1.21,7.4-.79,3.1-3,6.46-5.88,8.47-10-2.53-2.94-5-5.77-7.61-8.88.71-1.37,1.21-2.39,1.77-3.37C1398.06,972.37,1405.08,960.26,1411.9,948Z" fill="#c40001"/><path d="M1411.9,948c4.69-8.4,5.22-7-.38-15.77-7.19-11.23-14.53-22.44-22.8-32.88-21.75-27.44-45.3-53.34-69.26-78.85q-35.48-37.77-73.83-72.6c-33.07-29.93-67.29-58.52-102.22-86.25-19.66-15.61-39.83-30.52-61.62-43Q1026.1,586.77,970,555.59c-18.32-10.2-36.09-21.46-55.41-29.83a17.89,17.89,0,0,1-3.26-2.13c-5.39-3.93-10.83-7.8-16.14-11.84-13.45-10.24-27.84-19.24-40.39-30.65q-52.32-35.53-104.67-71a20.84,20.84,0,0,1-6.94-7.31q-17.13-31-34.4-61.88c-7.07-12.72-7.06-12.73-20-19.55l-.43-.24c-4.9-2.53-5.75-2.3-8.51,2.4-7,11.93-14.09,23.82-21,35.81-1.42,2.47-2.8,3.35-5.8,2.76-11.65-2.27-23.35-4.31-35.31-2.27-3,.5-5.71-.35-8.45-1.69-15.64-7.63-31.38-15.07-47-22.66a352.39,352.39,0,0,0-42.91-17.44,26,26,0,0,0-14.88-.79c-9.76,2.49-19.55,4.89-29.26,7.58a31.1,31.1,0,0,0-8.91,3.89c-19.25,12.9-31.44,29.75-30.56,54.22.26,7.39,2.66,13.29,7.93,18.13,3.71,3.41,7.61,6.62,11.54,9.79,5.31,4.29,10.76,8.4,13.88,14.78a20.66,20.66,0,0,0,3.32,4.2c8.26,9.34,18.16,16.77,28.2,24a9.66,9.66,0,0,1,4.31,6.09A30.62,30.62,0,0,0,516,477.86c9.68,7.68,19.55,15.13,29.35,22.67,1.22.94,2.45,1.86,4,3-1.39.74-2.23,1.22-3.09,1.64-6,2.93-12.14,5.57-17.93,8.85-6.66,3.77-10.57,9.51-10.34,17.52,0,1.4-.12,2.79-.22,4.79-1.52-1.05-2.59-1.71-3.56-2.48-19.54-15.44-39.33-30.58-58.55-46.41-22.95-18.9-47.28-35.75-73.52-49.63-23.86-12.63-48.29-24.17-72.39-36.37a32.92,32.92,0,0,0-25.57-2c-19.69,6.25-38.14,14.71-52.63,30.34-11.28,12.18-23.23,23.75-35,35.49A45,45,0,0,0,184,489.05c-1.68,8.67-.88,17,7.24,22.71a18.4,18.4,0,0,1,2.2,1.94c4.2,4,8.39,8.06,12.83,12.34-1.56,1-2.74,1.79-4,2.48-20.19,11.24-40.42,22.4-60.55,33.74a86.3,86.3,0,0,0-10.29,7.29c-4.23,3.28-8.3,6.74-12.17,9.91-6.15-5.2-12.23-10.28-18.26-15.43a5.75,5.75,0,0,0-6.32-1.22c-2.33.94-2.72,2.93-3,5.15-.49,4.84-1.25,9.65-1.74,14.5-.78,7.58-1.34,15.19-2.16,22.78-.36,3.31,1.09,5.43,3.45,7.52,22.68,20.07,46.28,39,70.23,57.53,5.76,4.45,12.24,6.58,18.87,8.7a17.64,17.64,0,0,0,3.87.23c1.88.15,3.87,0,5.61.61,12,4.06,24,8.27,35.92,12.47a33.7,33.7,0,0,1,4,1.77c4.78,2.4,9.38,5.24,14.35,7.14,7.57,2.91,15.34,5.34,23.13,7.66,11.81,3.53,23.84,6.36,35.67,9.69,21.89,6.16,43.27,14.12,64.84,21.41a7.19,7.19,0,0,1,3.51,2.34c1.79,2.6,4.27,3.81,7.12,4.79,20.74,7.17,41.44,14.46,60.62,25.37.56.32,1.16.58,1.73.89,6.57,3.6,13.08,7.22,18.86,12.1a242.31,242.31,0,0,1,18.09,16.89c12.67,13.1,26.33,25.24,39.24,38.12,23.93,23.89,49.71,45.84,73.2,70.19.68.7,1.42,1.34,2.08,2.06A90,90,0,0,0,629,936.86c18,6.52,35.86,13.67,54,19.85a105.8,105.8,0,0,1,30.49,16.62c5.13,3.93,10.21,9.83,17.09,9.21,10.36-2.5,18.56-1.82,22.88-.24q60.94,22.25,120.67,47.58c26,11.09,52.22,21.89,77.24,35.19,46,24.42,91.81,49.12,137.77,73.58a37.34,37.34,0,0,1,13,10.67,10.22,10.22,0,0,0,4.94,3.64c8.59,2.48,17.31,4.37,26.34,4.32a71.35,71.35,0,0,1,10.24.37,57.54,57.54,0,0,0,35.86-6.08c17.42-9.17,35-18.06,52.59-27.13,1.55.93,3,1.9,4.61,2.75a56,56,0,0,0,7.8,4c1.49.53,3.87.59,5-.26a64.1,64.1,0,0,0,10.91-10.77c-1.84-1.92-3.38-3.55-5-5.16q-14.51-14.87-29-29.72c-13.83-14.22-26.87-29.31-44-39.91a6.28,6.28,0,0,1-.77-.59c-2.21-2-4.59-3.09-7.3-1.19L1059,946.25c1.39-1.07,2.21-1.8,3.12-2.38,5.91-3.76,11.76-7.61,17.77-11.19,13.11-7.8,24.26-18,35.46-28.23,4.81-4.37,7.38-9.79,6.86-16.5-.61-7.77-1.11-15.55-1.56-23.32-.15-2.65,0-5.32,0-8.43,10,4.95,19.91,9.19,29.17,14.47q92.26,52.59,184.26,105.61a37.26,37.26,0,0,0,15.48,5.3c5.15.45,9.78,2.08,12.42,4.49,1.92,4.64,2.79,8.18,4.7,11,3.45,5.13,9.11,7.78,14.42,10.51,2.16,1.1,5.35,1.21,7.4-.79,3.1-3,6.46-5.88,8.47-10-2.53-2.94-5-5.77-7.61-8.88.71-1.37,1.21-2.39,1.77-3.37C1398.06,972.37,1405.08,960.26,1411.9,948Z" fill="none" stroke="#000" stroke-linecap="round" stroke-linejoin="round" stroke-width="8"/></g><g id="Colour_2" data-name="Colour 2"><path d="M671.57,874.38,687,875.8s127.64,22.7,151,28.28,46.48,12.42,46.48,12.42L775.57,831.88,588,696.16,534.5,673.39l-41.27-11.34L358,608.18l-73-39.26a3.6,3.6,0,0,0-2.32,4.32c.6,3.45,1.21,11.14,2.25,18.1a12.34,12.34,0,0,0,7,9.37s162.38,86,170.42,90.24,12.62,8.26,13.23,11.3-1.11,25.22-1.11,25.22l1.53,8.2L663.92,880.18ZM655.52,813.6c.35-5.17.5-31.08,1.57-32.33s14.61-11.58,16-11.88,5.22,2.67,5.22,2.67l88.47,65.38,7.53,18.23-26.28,21.27a12.41,12.41,0,0,1-5.62,0c-2.43-.77-20.66-6.69-20.66-6.69L657.69,821S655.17,818.77,655.52,813.6Zm-335.3-406c-3.55-.89-15.33-8.67-24-8.67s-47.11,15.39-48.66,18.47S215.33,448,211.33,452.44s-21.3,20.17-23.65,28.75-5.9,18.81-2.35,22.37,13.78,11.55,13.78,11.55c2,.45,2-.44,2.89-5.33s2.67-16.89,10.44-26.22S258,437.37,262.6,434s41-23.09,45.62-23.86S323.78,408.44,320.22,407.56Zm138.67-33.5c1.55-3.84,18-30.5,38-37.84s41.24-9,40.84-9.93-22.2-8.73-24.63-8.73-39.07,8-44.08,11.11-21.24,13.55-27,28.22S458.89,374.06,458.89,374.06ZM680,550c1.11,0,21.16,13.67,21.8,13.67s15.53.77,17.2.77-1.06-2.66-4.86-5.66-15.77-11.87-21.84-11.88-11.41,2.48-12.52,2.35-28.34-15.47-32.11-15.47-33.34,14-33.67,15.57c0,0,2.33,4.43,4.33,6.26s20.34,14.57,20.34,14.57l-8.67,5.6s-3,8.66,1.64,11.66,23.69,16.34,23.69,16.34,4.84-11.67,3.76-17-18.09-16.11-18.2-17.11S678.89,550,680,550ZM482.5,631.61s47,22,63.86,28,32.43,3.4,32.86-.68-6.86-6.75-1.36-9.92,28.58-17.82,31.25-18.19c1.32-.19,6.07,6.29,9.28,7s5-4.39,3.39-6.15c-3.13-3.5-65.11-59.64-95.11-84.71s-78.34-63.35-82.34-65.71A20.12,20.12,0,0,0,431,478.42c-5.33.58-13.17,3.91-14.17,3.91s5.5,6-3.16,13.17c-4.78,3.95-12,7.57-22.34,8.83s-14.72-.66-14.72-.66l-2.44,5.16,105,114ZM657.13,506.83c9,4.59,17.64,2.8,27.24,4.33,23.42,3.72,30.63,5.67,59.13,16.2,10.26,3.78,32.77,18.75,37.5,19.54,5.42.9,13.92-.43,16.92-2.59,1.08-.78-4.92-7.51-1.5-8.89,6-2.42,17.91-8.71,26.3-10.61,2.53-.58,5.9,6.06,7.95,5.61a5.13,5.13,0,0,0,4.24-5.09c-.12-.35-4.77-7.61-14.36-18.18,5.19,4.83,11.14,10.54,15.93,15.9,10.63,11.89,14.88,23.66,18.7,29.28S867.32,559,867.32,559l81.21,52.49s135.85,91.36,147.39,99.81,53.16,40.3,48,27.7-45.57-69.57-52.37-77.76S1069,632.07,1069,632.07l2.25-3.47-93.2-57.74S894.5,522.1,890.9,520.28s-26.78-9.12-37.11-12.76l-44.36-15.69a4.61,4.61,0,0,0-1.14,2.8c-2.67-2.53-5.54-5.14-8.62-7.8-12.23-10.55-30.52-22.17-46.67-32.33-47.67-30-101-59.5-104.5-61.21s-7.25-3.71-7.33-1.86c-.34,7.26-5.84,10.74-17.45,11.78-5.38.48-16.27-2.78-18.29-2.18-5.25,1.55-23.1,19.14-27.93,25.64-3.73,5-11.33,27.16-10,29.09S631.68,493.83,657.13,506.83Zm315,94.64c1.45.28,39.41,9.11,42.26,10.7s59.7,38.05,62,40.11,11.67,11.16,10.16,12.07-13.71,6.84-15.24,7.29-19.53-3.47-25.46-6.29-80.07-54.54-82.3-56.82S969.13,600.89,972.09,601.47Zm75.79,395.42c-3,4.22-2.1,7.78,0,11.11s26.56,14.22,31.45,16.88,7.78-.66,8.67-2.48,0-6-2-7.73-20.15-17.29-25.69-21.11C1058,992,1050.89,992.67,1047.88,996.89ZM1247.68,844c-3.88,0-3.9,6.67-2.35,8.46s19.19,17.32,25.46,19.1,9.21.22,9.88-1.49-18.48-22.26-19.78-23.65C1258.52,843.88,1251.56,844,1247.68,844Zm-125.24-33.78c-1.11-4.49-17.13-15.24-18.88-16.22-3-1.67-10,24-9.34,27.63,1.56,8.81,14.92,41.4,13.56,39.93-.84-.92.12,14.13-4.54,10.47-15.69-12.34-47.19-34.09-55-41-10.14-8.91-20.72-33.16-24-37.24S962,748.2,933.69,728s-59-44.46-59-44.46S814,641.77,798.36,631.61s-40-29.05-61.38-40.27-29.92-14.56-33.87-14.56-17.33,1.44-13.78,10c0,0,15.09,25.69,20.82,30.1s116.24,84.68,116.24,84.68l2.38,11,14.75,30.17s35.09,24.12,54.66,40.44,51,42,51,42l53.28,28.53s23.88,51.92,24.75,55.58,1.53,14.44,1.53,14.44L1049,939.36s23.24-12.41,31.45-18.51,36.75-31.54,37.85-32.71c4.6-4.9,2-14.64,0-33.88a104.81,104.81,0,0,1,0-22.89C1119.35,819.7,1120.17,815.9,1122.44,810.22ZM862.59,701.42c-3.7,1.47-5.85,5.65,0,9.89s-1.92,7.82-7.48,2S833,695.11,830.94,692.67s-5.86-5.78,2.71-10.45,16.32-11,22.13-4.1c3.2,3.77,19.51,23.22,19.2,25.33S866.29,700,862.59,701.42Zm60.13,245.69a56.65,56.65,0,0,1-6.51,10c-3.35,3.74-17.59,0-17.59,0L685.76,898.9l-109-3.32s22.93,25.76,36.35,33.95,68.07,24.92,68.07,24.92S793.78,992,878.92,1028.83s138.15,58.65,167,74c74.76,39.82,119.38,51.81,119.38,51.81l6.21-2.07s-80.87-68.16-143.34-120.6S922.72,947.11,922.72,947.11ZM1383,895.58c-15.33-17.76-62.81-75.74-122.44-132.12s-164.44-134.58-168.23-135.68c-7.66-2.22-2.33,6.89,1.67,11.89s55,58.46,96.84,110.33c9,11.14,5.16,12.82-.84,12.73s-15.67-5.73-22-8.06-2.67,3.81-2.67,3.81L1353.64,897.2a10,10,0,0,0,5.2,0c3.4-.7,46.16,36.47,48.49,36.21S1398.33,913.33,1383,895.58Z" fill="#930000"/></g><g id="Paint"><path d="M470.25,695.76c-2.73-1.62-175.52-93.69-178.33-95a14.26,14.26,0,0,1-6.38-5.72c-1.06-2.15-2.13-26-.56-26.07s39.11,21.72,40,20.47,3-7.29,2.28-8.89,1.55-1-12.93-13.77-2.53-24.58.74-30.66a12.46,12.46,0,0,0,0-11.63l-85.77-61.15s-12.89,15.37-19.23,23.26-8.85,21.73-7.18,22.33,17.92,14.28,18.83,15.26-.91,3.58-1.21,4.79-77.77,43.6-77.32,43.6,16.71,10.94,17.47,14-.46,22.18-.46,24.16,58.18,41,62,43.13,99.65,38.28,103.44,39.8,56.77,39.8,61.1,44.24,4.86,9.43,11.17,12.48,54.23,27.17,60.38,31.61,12.72,10,12.11.53,4.79-60.76,5.5-71.47S473,697.39,470.25,695.76ZM1361.36,975c-1.93-1.93-47.62-37-48.31-38.6s2.21-8.07,3.35-8.3,8.43,4.26,13,6.92,7.21,1.13,5.39-1.63-1.59-3.31-35.92-31.56S1139,782.14,1139,782.14L1088.91,758S1009,687.06,993,672.78s-99.66-85.84-99.66-85.84l-35.12-29.82S847.29,539.91,837,524.8c-6.63,10-12.17.61-13.79,0-1-.39-16.12,5.08-26.75,10.62-3.84,2,3.31,8,1.94,8.89-3.88,2.5-13,7.25-25.28,0s-20.45-12.79-23.56-15.79-29.7-9.76-40.84-12.8-32.93-4.7-37.9-5.61l.44,3.56,61.56,32.89-18.64-.41,12.53,9.46-.83,8L759.19,589c6.69,2.11,113.74,30.62,119.91,33s70.39,54.39,70.39,54.39L1015.9,726,1122,807.06s0,4.11,7.94,9.42S1265.67,916.81,1277.52,925s67.44,44.89,76.17,50.58S1363.3,977,1361.36,975ZM552.76,568.44c1.57-.79,7.62-3,10.46-.77a78.6,78.6,0,0,0,9.67,5.83s4.67-9.83,10-13.83c4.14-3.11,9.4-6.52,12.05-7.62-1.09-1.15-2-1.75-2.62-1.6-2.71.66-5.43-9-5.43-9a141.47,141.47,0,0,1,18.89-9.27c1-.38,7.91,1.49,8.89,1.11,8.17-3.17,9.79-6.34,9.05-6.63-4.15-1.63-45.81-25-46.72-25S534.84,520,531.89,523.33c-5.33,6.11-7.45,19.36-5,22.34C527.55,546.47,539.13,556.24,552.76,568.44ZM1172.28,1051c-.8-1.5,2.31-4.52,2.31-4.52s-28.31-24.42-88.46-75.23S990.89,893.1,950.67,864.63c-115.5-81.73-214.75-144-219.53-146.51a99.13,99.13,0,0,1-14.81-10.43c-2.51-2.23-30.54-74.33-33.32-77.55-1.35-1.56-15.27-10.33-29.85-19.33-14.38,1.54-16.6,1.68-16.6,1.68s-20.07-14.4-20.67-15.21c-2.29,5.57-8.84,18.62-10.21,18.65.4.8,11.71,11.25,12.71,13.21s3.05,5.68-.16,7.61c-1.69,1-7.33-6.92-8.67-6.53-3.94,1.14-29.62,17.32-33.26,19.78s3.45,8.51,3.22,10.37-12.06,6.12-33.16-.8c-2-.65-49-20.86-70.7-29.92-4.6-1.92,10.92,19.85,24,33.85,34.18,6.45,75.65,26.37,83.92,30.47s10.09,2.77,19.37,6.09,138.23,65.82,146.59,70S927,863.17,930.93,865.23s30.1,38.36,32.38,40.87,60.38,47.85,84.54,66.76,121.21,100,122.12,100.16,14.58-3.33,16.86-3.1,39.65,36.23,48.27,43.29,7.78,2.28,6.87,0S1173.09,1052.51,1172.28,1051ZM644.33,384c3.67,2.5,15.84,2.67,24,7.43s74,46.74,79.54,50.79,87.34,58.28,90.69,59.9,48.31,16,52.38,18.16,12.43.55,9.1-2.45-31.5-25-37.5-29.16-105.17-64.5-114.83-70.84-81.84-42.16-84.13-43.76-6.71-.4-9.53-1.4-13.18-8.17-17.34-9.2-16.77,1.3-19.84,1.86C609.29,366.71,640.67,381.5,644.33,384Z" fill="#fff"/></g><g id="Grey"><path d="M1164.16,1117.85l-22.52-17.33h-28.4l46.18,41.82s9.24.75,12.09,0c8.1-2.12,7.82-3.9,7.54-7.8s19.22-15.89,17.73-19.16C1195.78,1113.17,1164.16,1117.85,1164.16,1117.85Zm204.25-150.51-.24.19Zm31-37.55c-3-3.42-28.7-23-35.08-28.7s-7.95-5-7.12,0,1.88,18.06,8.71,22.59,13.4,5.87,13.49,13.82c0,2.6-.12,18.6-3.3,22-5.26,5.62-7.12,7.34-7.7,7.84L1395,945.83s5.68,1.44,6.83-1C1404,940.33,1402.38,933.21,1399.41,929.79Zm-81.94-2.15-4.87,8.42s32.13,26.09,45.24,36.34,3.07,8.2,3.07,8.2l-42.38-27.78s-191.17-137.63-195-139.68-5.21,19.82-5.21,19.82l.57,16.21a4.9,4.9,0,0,0,3.16,3.61c1.81.73,214.72,124.92,220.21,125.77s20.52,2.22,21,6.38,5.92,11.62,10.25,15.5,10,6.38,13.44,4.45,7.29-9.24,7.29-9.24l-26-28.11-34-29.7ZM1116.2,694.2c20,26.43,30.18,49.9,30.18,49.9s27.47,14.12,37.47,18.07,11-2.12,10.33-5.53-1.42-4.57-16-22.79-73.82-82-79.74-87.8c0,0-16.18-11.32-19.83-13.72s-8.43-3.75-7.14,0S1096.15,667.77,1116.2,694.2ZM903.62,933c-11.85-10.7-18.69-15.26-26.43-17.54l-70.64-17.89S686,875.34,677.36,874.2s-13.42,3.74-11.16,7.06,19.82,17.09,22.91,18.46,202.2,55.14,209.51,57.36,5.76,2.85,17.59,0S915.47,943.69,903.62,933ZM383.9,734.8,326.48,694S222.81,654,220,652.88s-58.72-41.92-59.79-44.2.92-21.57,0-23.7c-.68-1.59-10.95-7.89-18.7-10.68-1.59-.57,50.94-29.17,75.37-44.52,13-8.17-.68-8.14-5.75-4.25-1.6,1.23-69.4,37.24-72.25,38.91-4.41,2.6-20.21,17.61-20.21,17.61s-16.18-13.62-17.77-15.32-4.79-3.09-7.06-1-4.11,32.32-4.33,36A25.16,25.16,0,0,0,91.28,611c.4.91,66.82,54.68,75.63,59.92s15.8,5.92,19.46,5.92,31.88,11.27,31.88,11.27,27.8,11.75,32.81,13.8c1.11.45,6.41,2.13,14.12,4.52,3.39,1.28,8.56,2.82,13.71,4.2,29.32,9,72.06,21.83,79,24.13,10.48,3.45,38,18.46,36.91,15S383.9,734.8,383.9,734.8ZM411,477.29c-14.35-12.53-96.66-59.93-96.66-59.93a47,47,0,0,0-4.36,2.28c.37,0,6.92,5.93,6.46,7.07s-19.82,10.7-21.42,10.7S275.9,426,275.9,426l-8.66,4.56s79,51.72,109.59,72.2c5.7,3.8,24.31,2,33.88-4.68C412.29,497,425.36,489.82,411,477.29Zm187.75-81c10.25,5.85,18.51,8.35,32,6s9.21-9.35,7.59-11.78-23.22-14.88-45.32-26.82S535.19,334,535.19,334l-1.41,1.39s6,2.51,4.37,4.68-15.72,5.34-18.23,5.34-21.22-9.79-21.22-9.79l-4.07,2.64s24.15,12.39,36.78,19S588.5,390.48,598.76,396.33ZM632.4,522.91c3.72-10.84,13.9-6,18.2-3.31s4.53,0,4.53,0l2-12.08S601.64,475,589.47,468.39s-57.39-34.19-67-35.6c-8.83-1.29-15.67,3.48-16.64,10.09s-1.13,21.19,7.09,30.53,40.31,30.16,40.31,30.16l15.26-7.2s45.91,24.78,52.41,28.77S630.46,528.58,632.4,522.91ZM929.14,866.78s-98-52.55-181.45-96.26-148.34-72-148.34-72-19-6.19-7.4,1.64c2.44,1.65,81,54.69,116.25,81.12s67.37,50.64,67.37,50.64l49.26,4s115,86,146.3,114c4,3.59,45.72,0,45.72,0L960.8,905.18Zm265.19-43s-3.62-27.48-6.81-31.15S1052.59,700,1050.1,698.48s-11.6-28-11.6-28-116.28-76.28-132.19-86.76-37-23.24-40.82-24.91-10.87-3.46-5.15,1.49l230.11,199s39.65,16.42,48.53,22.81S1194.33,823.8,1194.33,823.8ZM639,363l14.78,10.81s-9,3.23-2.48,7.46c13.57,8.79,25.3,15.91,27.46,16.48s8.36,1.48,4.92-3.42-3.32-11.12-2.18-11,69.59,35.92,73.36,38.43,6.95-1.7.8-6-9-5.13-13.56-11.39-38.39-70.64-40.33-72.69-14.82-11.24-18.09-10.14-21.1,36.57-23.26,39.19-5.13,4.39-10.37,3S636.11,361,639,363Zm375.75,427.81c-8.43-14.61-27.25-25.31-45.94-38.3s-54.18-33.82-74.17-41.11c0,0-23.84-8.79-26.9-9.7s-14.62.13-9.52,4.85,6.37,8.29,10.14,21.39c.9,3.1-12.33-.43-8.91,2s98.16,74.78,99.2,77.51S974,823.27,979,825.26s19.49,9.22,30.48,10.63,17.26,3,16.75-8.17S1023.15,805.44,1014.72,790.83Zm187,271.67c-3.81-4-18.94-19.65-23.53-18.67-2.34.5-7,7-4.35,8.68s64.85,60.16,67,64.32-9.16,4.34-8.16,5.84,5.66,5.5,13.16,6.66,12-6.83,11.5-9.66S1205.5,1066.5,1201.7,1062.5Z" fill="#212121"/></g><g id="Grey_2" data-name="Grey 2"><path d="M557.06,785.57,572.84,798l7.92-7.63L564.92,778.5ZM246.5,571.77c-1.59-1.67-25.29-5.39-28.25-6s-8.1-3.59-8.1-3.59c-2.14-1.14-6.61-1.49-11-1.46-13,.1-25.52,14.36-27.34,17.09s-8,16.63,4.16,23.37,24.55-1.5,27.61-3.08,6.05-4.11,10.61-4.66,15.26,3.51,19.07,4.66,11.2-4.32,16.55-12.32S248.1,573.44,246.5,571.77ZM568,497.34s-30.76,14.35-37.14,17.54-7.75,6.16-9.67,10.37-1.61,13.22,0,15.19c.36.43,4.71,5.25,4.59-.1-.22-10,4.54-16.92,10.44-20.12,18.12-9.82,37.45-18.33,39.32-19S568.18,497.34,568,497.34ZM286.74,405.59,262.6,417.36l32.21,20.74s19.14-8.51,21.57-10.48,0-4.56,0-4.56Zm234.43-60.11c1.26.11,6.27-1.37,12.19-3.19s4.11-3.65,4.11-3.65l-31-15.72L486,328.39s24.61,13.78,28.14,15.95S519.92,345.36,521.17,345.48Zm125.5,171.74s-3.45-2.34-9,0a11.7,11.7,0,0,0-6.94,8.95s16.71,4.83,17,4.5,5.47-7.72,5.47-7.72A27.6,27.6,0,0,0,646.67,517.22Zm285.38,373c-1-.16-6.67.67-7,4.68s5.73,6.64,8.29,6.89,5.55-1.41,5.93-5.5S933.54,890.49,932.05,890.23Zm193.77-131.17s-5.3-1.8-7.09,1,2.48,6.11,5.38,7.49a4.73,4.73,0,0,0,6.63-2.29C1131.65,762.92,1128.64,760.38,1125.82,759.06ZM824.44,525.59a2.18,2.18,0,0,0-2.42-.68c-1.61.45-20.36,8.77-23.33,10.23s-3.3,2.3-2.05,3.27S815,557.6,818.17,560.35s4.33,2.15,5.23,2.15,19.72-7.17,20.08-7.74-1.27-6.38-3.61-10.71S824.44,525.59,824.44,525.59ZM609.1,631.84c-1.49.68-24.17,13-28.27,15.68s-4.86,4.45-4.43,6,24.79,28.07,26.53,28.38,29.36-16.49,29.09-19.43c-.61-6.55-17.34-27.6-18.93-29.33C612.1,632.06,610.6,631.16,609.1,631.84Zm560.49,443.63,16.1,39.64,9.14,1.06L1179.61,1133l-1.61,6.32-12.41,5.84,8.26,7.43,66.15-34.27s-42.46-38.31-51-45.31S1169.59,1075.47,1169.59,1075.47Zm243.27-134.28c-1.82-1.94-1.35-1.85-5.18-4.27-2.11-1.33-3.67,0-6.35,6.91-1.72,4.44-2.66-2.83-21,12.67-1.26,1.07-3.22-8.48-3.22-8.48l-39.79-14.61-3.1,4.42L1386.43,987S1414.67,943.13,1412.86,941.19Zm-297.92-49.31c0,2-23.12,21-27.92,25s-36.43,21.62-36.43,21.62a10.1,10.1,0,0,0,7.05,5.54c5.47,1.36,33.5-20.51,46.26-29.28a41.8,41.8,0,0,0,16.74-22.88C1121.44,889.41,1115,889.92,1114.94,891.88Z" fill="#636363"/></g><g id="Canopy"><path d="M1010.69,801.52c-1.38-4.33-12.29-18.69-23-32.81s-42.38-31.45-53.09-37.88-37.59-18-39-18.21c0,0-1.82-.65-4.67,1.89s-2.62,5.44-.62,6.23,17.6,18.8,21.24,23.81S923.27,769.44,926,770.3s21,11.84,21,11.84L951.3,780s6.77,8.79,9.44,9.79-.14,7.63-.14,7.63l1.14,4.44s14.11,8.57,23.66,14.27,19.43,7,24.11,3.83S1012.07,805.85,1010.69,801.52Z" fill="#ccbc7a"/></g><g id="Shadows" opacity="0.2"><path d="M368.33,611.5,474.07,656H454.39s-11.33-.57-5.56,5.81S476.2,688.6,476.2,688.6s-14-20.73-14.41-22,41.52,1.5,49.29,3.09,27.68,5.85,27.68,5.85L588,696.16s15.74,2.75,17,1.53-21.82-30.54-34.6-40.94S444,605,364.38,548.06s-144-104.34-144-104.34l-27.95,28.51s-16.1,23.44-6.08,34.07,12,12.06,12,12.06l114.94,65.56ZM110.25,586.78c-8.66-9.45-14.82-11.46-14.82-11.46l-3.15,4.5-2.4,26.33,5.55,8.47,63.82,50.88,7.76,3.09s3.72-3.58,1.58-7.64S118.91,596.22,110.25,586.78ZM447.62,403.21c10,8,21.4,19.35,21.4,19.35s3.81,9.31,14.45,18.12,21.26,17,21.26,17,1.9,12.69,11.28,20.17,33.38,26.88,33.38,26.88,18.61-11.68,22.37-10.68,7.1,5.48,14.69,10.68,36.71,22.83,38.86,23,2.77-.88,6.71-.36S701.8,546.9,701.8,546.9s19.28,13.27,24.88,17.78S883,612.89,836.78,591.34c0,0-38.28-40.53-55.29-53.37S450.66,345,450.66,345s-11.25,9.4-12.76,27S437.59,395.2,447.62,403.21ZM874.74,751.47c20.07,29.77,81.49,88,116.07,111.79,29,20,47.73-3.72,18.7-43.33s-86-79-130.59-104.43S854.67,721.69,874.74,751.47Zm442.73,176.17-4.87,8.42,48.76,39,3.73,5.51-6.25,1.11L1146.05,846.42l-22.56-33.28a119,119,0,0,0-5.62,23.73c-1.74,13.41,2.77,15.14,2.77,15.14l218.93,127.3,11.24,2.13,12.38,3.49,4.93,12.31,18.23,10L1397,996.78l-57.41-54.9Zm-139.68,116.69s-5.51,6.68-4.32,10,70.1,61.37,69,62.57-8.37,3-7.59,4.62,12,8.15,15.32,6.94,7.29-9,7.29-9l-58.2-59.37ZM486.66,789.9c-41-35.08-113.47-62.43-113.47-62.43S238.59,674,230.81,687c-1.52,2.54.13,7.17,1.19,8.37,4,4.5,38.11,15.41,77.51,25.9a592.92,592.92,0,0,1,69.31,23.4s45.4,16.56,71,33.87S522.2,840.93,557.06,874s32.13,47.11,83.62,65.79,201.84,72.46,201.84,72.46l146.31,66.53s18,7.67,49.94,16.32c-106.65-70-395.81-170.35-417.23-180.2S527.67,825,486.66,789.9ZM675.3,691l.62-3.43L644,657.74l-15.17-11.3,4.59,16.16-15,10.7ZM860,568.56v-4.69l-20.14-21.38,2.7,12.77-6,3.75ZM666.87,375.21,735,409.62s-32.13-58.33-40.56-69.1-16-11.56-16-11.56-10.71,17.54-14.12,24.38-7.29,9.34-11.32,8.77S642.73,365,642.73,365l10.36,5.51Zm474.77,725.31c-3.72-.84-30,1.34-30,1.34s39.51,36.72,48.31,40.29,18.45-1.93,18.45-1.93l3-7,17.78-19.82-35,4.41Zm260-166.55c-2.28-4.18-42.41-37-42.85-36.77a27.18,27.18,0,0,1-3.4.7s4.1,17.24,4.56,19,19.46,14.88,19.53,17.09,0,24.08,0,24.08,15.92-13.81,17.45-13.17,2.45-.18,3.24,0S1404,938.15,1401.69,934ZM819.74,737.76c1.74-4.24.33-16.19.33-16.19S802,732.22,801.56,733.24s-.89,13.87-.89,14.54,6.44,16.89,7.61,16.89-.28-10.89,1.15-16.23S818,742,819.74,737.76Zm103-57.09c5.28,0,25.14-1.11,28.88,0s-11.16-8.07-11.82-7.37-31.21-2.86-32.6-2.52-22.36,8.93-22.36,8.93l17,9C906.89,686.44,917.45,680.67,922.72,680.67ZM716.56,711.31s-23.23-44-39.86-59.1-151.93-133-151.93-133-.68-3.51-3.58,6,0,15.19,0,15.19L681.06,688.81Z"/></g><g id="Outline"><path d="M244,568c-1.43-.33-2.87-.62-4.31-.91-1.87-.38-3.8-.77-5.66-1.25-2.64-.67-5.35-1.2-8-1.72-5.6-1.09-11.4-2.22-16.64-4.88A16.3,16.3,0,0,0,203,558h-.11c-8.09-.42-15.87,2.31-24.5,8.61a29.35,29.35,0,0,0-11.9,17.55c-2.36,10.54,2.6,18.61,13,21a34.31,34.31,0,0,0,7.88.94c7.25,0,14.11-2.48,20.47-7.4a9.12,9.12,0,0,1,8.93-1.75c3.38.89,6.86,1.46,10.53,2.07l2.54.42a13.64,13.64,0,0,0,5.4-.15h0a19.17,19.17,0,0,0,6.4-2.29,42.74,42.74,0,0,0,9.9-9,12.23,12.23,0,0,0,2.21-11.79A13.17,13.17,0,0,0,244,568Zm4.56,13.82c-1.47,5-10.45,13.19-16.75,12.6l-5.12-1c-4.1-.78-8.33-1.59-12.42-2.62a7.78,7.78,0,0,0-7.9,2,30.1,30.1,0,0,1-18.32,7.89,18.44,18.44,0,0,1-12.71-3.35c-3.42-2.56-4.64-6.33-3.63-11.23a23.64,23.64,0,0,1,7.94-13.47,42.36,42.36,0,0,1,18.65-9.1,17.23,17.23,0,0,1,3.65-.41,11.7,11.7,0,0,1,5.66,1.34c4.41,2.39,9.18,3.35,13.78,4.28,1.84.37,3.74.75,5.57,1.21,5.46,1.39,11.16,2.56,16.2,3.59,2.65.54,4.33,2.15,5.27,5.06A5.86,5.86,0,0,1,248.6,581.82ZM689.26,912.18h-.09a8.33,8.33,0,0,0-6,2.46,6.73,6.73,0,0,0-1.91,5c.19,3.83,3.76,6.91,8,6.91h.13c4.28-.06,7.74-3.34,7.7-7.3C697,915.15,693.8,912.23,689.26,912.18Zm-32.2-87.56q17.63,13.44,35.22,26.93l25.62,19.61a16.29,16.29,0,0,0,4.93,2.78c4.37,1.33,8.83,2.58,13.15,3.78l7.47,2.11a8.14,8.14,0,0,0,2.26.35,6.48,6.48,0,0,0,4-1.47c4.46-3.38,9-6.76,13.46-10q5.61-4.14,11.19-8.32c3.42-2.57,3.76-3.88,2-7.83-2.51-5.73-4.89-10.8-7.27-15.5a12.9,12.9,0,0,0-3.77-4.29c-27.35-20.44-56-41.82-85.31-63.55-5.3-3.94-7.91-3.9-13.3.2-1.83,1.38-3.6,2.88-5.32,4.32-1.46,1.24-3,2.52-4.51,3.71a6.48,6.48,0,0,0-2.61,5.33c-.15,4.77-.39,9.49-.64,14.47q-.15,2.88-.29,5.83v.05c0,1.32,0,2.67,0,4,0,3.32.07,6.75-.1,10.17C653.16,821.12,655.12,823.14,657.06,824.62Zm114.68,30.73-2,1.5c-1.81,1.39-3.55,2.72-5.31,4l-1.85,1.38c-4.78,3.54-9.71,7.22-14.63,10.73-2,1.46-2.81,1.42-3,1.37-4.6-1.12-9.23-2.46-14.12-3.87l-3.53-1c4.36-3.49,8.55-7.08,12.62-10.56,8-6.88,15.65-13.39,24.4-19.17ZM702,792q27.38,20.44,54.7,40.94c.93.69,1.83,1.47,2.71,2.22l.34.28-38.2,31.45L660.28,820l.92-.77,4.09-3.4,26.32-21.75c.82-.68,1.7-1.4,2.63-2.07C698.15,789.19,698.15,789.2,702,792Zm-42.72-6.95a5.49,5.49,0,0,1,1.53-3.52c3.25-3,6.89-5.82,10.09-8.3a4.7,4.7,0,0,1,2.8-1.21,3.51,3.51,0,0,1,2.16.85c4.27,3.21,8.53,6.3,13,9.56l4.36,3.16-34.05,28c0-2,0-3.87,0-5.77C659.15,800,659.13,792.54,659.25,785.09ZM564.56,775a1,1,0,0,0-1.1.15l-10.84,9.55a1,1,0,0,0-.34.77,1,1,0,0,0,.38.76l4.22,3.37c4.93,3.95,9.59,7.67,14.3,11.3a3.13,3.13,0,0,0,1.89.53,3.16,3.16,0,0,0,2-.6c2.56-2.24,5-4.59,7.44-6.87l2.37-2.24a1,1,0,0,0,.12-1.31C582.39,786.77,570.07,777.72,564.56,775Zm8.23,20.3-12.42-10,4.4-4,13.06,9.41Zm513.9,216.32-.81-.67c-7.22-6-14.7-12.31-22.25-18.23a11.91,11.91,0,0,0-7.35-2.59c-5.48-.26-12.12,3.7-13.3,8.63s-1.4,9.84,4.65,13c12,6.23,24.14,11.65,34.46,16.13a5.79,5.79,0,0,0,2.32.49,5.93,5.93,0,0,0,3-.82,8.38,8.38,0,0,0,3.92-6.24C1091.84,1016.57,1089.12,1013.63,1086.69,1011.59Zm-1.16,10a2.64,2.64,0,0,1-2.64.72,9.16,9.16,0,0,1-1.91-.71l-5-2.24c-6.84-3.08-13.9-6.26-20.82-9.45a21.43,21.43,0,0,1-4.75-2.87,6.12,6.12,0,0,1-2.53-5.37,6.42,6.42,0,0,1,3.71-4.88,20,20,0,0,1,3-1.16l.1,0a3.92,3.92,0,0,1,2.68.07h0a13.3,13.3,0,0,1,3.47,1.75c8,6.4,15.71,12.79,22.14,18.19a10.13,10.13,0,0,1,2.67,3.44A2.42,2.42,0,0,1,1085.53,1021.61Zm195.15-157c-5-6.19-9.35-11.35-13.92-16.37a21.69,21.69,0,0,0-16-7.46h-.39a12.24,12.24,0,0,0-1.44.12c-3.77.63-6.29,2.65-7.29,5.84s.12,6.22,3.42,8.66l3.68,2.72c6.5,4.82,13.22,9.79,19.88,14.62a16.78,16.78,0,0,0,4.63,2.25,15,15,0,0,0,4.54.93,5.6,5.6,0,0,0,4.67-2.24c2.73-3.54.18-6.68-1.69-9Zm-3.26,5.32c-1.63.39-3.25-.09-5.27-1.53-5.89-4.24-11.82-8.62-17.56-12.86q-3-2.2-5.95-4.4c-1.54-1.13-1.89-1.81-1.5-2.9s1.24-1.64,2.95-1.78c.43,0,.85-.05,1.27-.05a12.11,12.11,0,0,1,9,3.68c4.47,4.77,9.17,9.82,13.32,14.76,1.37,1.62,2.33,2.52,3.7,4.14C1277.89,869.6,1277.67,869.83,1277.42,869.94ZM200.72,568.68a38,38,0,0,0-5.23,0c-8.16.6-16.88,7.07-19,14.13-1.17,3.84-.88,7.42.83,10.08s4.42,4.08,8,4.41h.54a25.73,25.73,0,0,0,8.42-1.46l.61-.27c5.94-2.65,8.39-3.74,12.81-11.82a.41.41,0,0,0,.05-.09c1.8-4.44,1.9-8.38.29-11.1C206.66,570.27,204.14,568.93,200.72,568.68Zm724.77,317.5a9.89,9.89,0,0,0-5.84,6.81,9.76,9.76,0,0,0,2.45,8.51,13.18,13.18,0,0,0,10.27,4.68h.54l1-.07a11,11,0,0,0,2.52-.33c4.12-1.18,6.67-3.53,7.59-7a9.6,9.6,0,0,0-3-9.82A14.11,14.11,0,0,0,925.49,886.18Zm7.81,15.62c-2.56-.25-8.65-2.88-8.29-6.89s6.08-4.84,7-4.68c1.49.26,7.56,2,7.18,6.07S935.86,902.05,933.3,901.8ZM312.65,447.1c0,4.47,7.14,8.09,16,8.09s15.95-3.62,15.95-8.09S337.41,439,328.6,439,312.65,442.63,312.65,447.1Zm54.68,32.12c8.81,0,15.95-3.62,15.95-8.09S376.14,463,367.33,463s-15.95,3.62-15.95,8.09S358.52,479.22,367.33,479.22ZM557.51,363.47c5.81,0,10.52-2.39,10.52-5.33s-4.71-5.34-10.52-5.34S547,355.19,547,358.14,551.7,363.47,557.51,363.47Zm33.81,17.91c5.81,0,10.52-2.39,10.52-5.34s-4.71-5.33-10.52-5.33S580.8,373.1,580.8,376,585.51,381.38,591.32,381.38Zm821.59,551.2-.55-.86c-6.91-10.81-14.37-22.25-22.86-33-22.85-28.83-47.86-56.07-69.31-78.92-24.07-25.62-48.92-50.06-73.89-72.65-30.9-28-64.35-56.19-102.27-86.3-16.25-12.9-38-29.45-61.74-43.08-34.79-19.93-71.37-40.57-111.83-63.09-4.91-2.73-9.87-5.59-14.66-8.35C942.7,538.81,929.15,531,915,524.84a12.75,12.75,0,0,1-2.5-1.59l-.57-.42-4.08-3c-4-2.87-8.08-5.85-12-8.87-4.55-3.46-9.28-6.83-13.85-10.1-8.95-6.38-18.2-13-26.47-20.49a.31.31,0,0,0-.11-.09l-21.69-14.73c-27.18-18.47-55.29-37.57-83-56.29a19.71,19.71,0,0,1-6.63-7q-11.74-21.25-23.58-42.46l-10.84-19.48c-7.13-12.82-7.32-13-20.36-19.9l-.17-.09-.26-.15c-5.35-2.76-6.82-2.34-9.84,2.79l-4.89,8.3c-5.31,9-10.8,18.3-16.1,27.51-1.3,2.26-2.32,2.76-4.74,2.28-12.5-2.44-23.81-4.3-35.67-2.27-2.33.39-4.75-.1-7.84-1.61-8.47-4.13-17.1-8.27-25.45-12.27q-10.8-5.18-21.59-10.39a354,354,0,0,0-43-17.49,26.79,26.79,0,0,0-15.45-.81l-7,1.79c-7.3,1.84-14.85,3.75-22.24,5.79a31.94,31.94,0,0,0-9.19,4c-21.68,14.52-31.82,32.54-31,55.08.28,7.94,2.9,13.92,8.25,18.83,3.78,3.48,7.81,6.78,11.59,9.84l1.08.87c5,4,9.72,7.81,12.53,13.57a15.45,15.45,0,0,0,2.72,3.59c.25.28.51.55.75.83,8.34,9.43,18.17,16.81,28.36,24.16a8.65,8.65,0,0,1,3.92,5.49,31.43,31.43,0,0,0,11.45,18.48c6.88,5.46,14,10.89,20.83,16.14l8.53,6.54c.81.63,1.64,1.26,2.55,1.94l.18.14c-.65.35-1.16.63-1.69.88-1.88.92-3.77,1.81-5.66,2.7-4.09,1.93-8.32,3.92-12.33,6.18-7.42,4.21-11.07,10.4-10.84,18.42,0,.87,0,1.79-.11,2.84v.1c-.81-.54-1.45-1-2.05-1.45q-8.76-6.92-17.56-13.78c-13.52-10.58-27.5-21.52-41-32.61-24.59-20.25-48.69-36.52-73.69-49.75-14.95-7.91-30.38-15.52-45.29-22.88-8.9-4.39-18.11-8.93-27.11-13.49a33.78,33.78,0,0,0-26.33-2.08c-16.29,5.17-37,13.32-53.06,30.61-8.73,9.43-18,18.64-27,27.55q-4,3.94-8,7.91A46.11,46.11,0,0,0,183,488.86c-2.12,11,.31,18.52,7.66,23.72a16,16,0,0,1,1.85,1.62l.23.22c3.15,3,6.29,6.05,9.54,9.18l2.37,2.28-.4.25c-.89.58-1.66,1.07-2.46,1.52q-8.94,5-17.9,9.94c-14,7.77-28.47,15.81-42.65,23.8a79.34,79.34,0,0,0-9.44,6.61l-1,.76c-3,2.31-5.88,4.71-8.69,7l-2.85,2.36-4.5-3.79c-4.4-3.71-8.78-7.39-13.13-11.1a6.67,6.67,0,0,0-7.33-1.39c-2.85,1.15-3.33,3.58-3.57,6s-.56,4.82-.87,7.16-.63,4.88-.88,7.33c-.35,3.45-.66,6.91-1,10.36-.36,4.08-.74,8.29-1.18,12.42s1.66,6.5,3.78,8.37c19.75,17.48,42.08,35.78,70.28,57.58,6,4.66,13,6.89,19.18,8.86a8.44,8.44,0,0,0,2.77.26,11.48,11.48,0,0,1,1.32,0c.55,0,1.11.06,1.67.08a13.1,13.1,0,0,1,3.7.48c11.1,3.76,22.35,7.7,33.22,11.52l2.69,1a32.08,32.08,0,0,1,3.86,1.72c1.54.77,3.09,1.6,4.59,2.41a86.07,86.07,0,0,0,9.85,4.77c7.85,3,15.79,5.47,23.2,7.68,6.85,2,13.88,3.88,20.67,5.67,4.94,1.29,10,2.63,15,4,15.88,4.46,31.77,10,47.14,15.31,5.78,2,11.76,4.09,17.65,6.08a6.17,6.17,0,0,1,3,2c2,2.93,4.85,4.22,7.61,5.17,19.07,6.58,40.69,14.05,60.45,25.29l1,.51c.26.13.51.25.76.39,6,3.29,12.8,7,18.69,12A242.52,242.52,0,0,1,477,803c7.18,7.44,14.81,14.67,22.18,21.67,5.64,5.35,11.47,10.89,17.06,16.47,10.71,10.69,22,21.16,32.86,31.28,13.45,12.51,27.36,25.45,40.33,38.89.3.31.62.62.94.92s.76.73,1.12,1.12c10,11,22.16,19,37.14,24.41,7.09,2.57,14.28,5.27,21.22,7.89,10.71,4,21.78,8.21,32.8,12,12.71,4.33,22.51,9.31,30.82,15.67,4.68,3.59,9.5,9.9,17.09,9.21,1.52-.14,8.28-2,9.58-1.94a40.56,40.56,0,0,1,13,2.64c41.39,15.11,82,31.11,120.62,47.56,2.69,1.15,5.37,2.29,8.06,3.42,23,9.75,46.7,19.83,69.11,31.73,24.61,13.07,49.59,26.45,73.75,39.38,21,11.22,42.66,22.83,64,34.2,5.73,3,9.66,6.26,12.72,10.38a11.18,11.18,0,0,0,5.46,4c7.14,2,16.59,4.41,26.62,4.35h1a62.13,62.13,0,0,1,9.06.37,65.7,65.7,0,0,0,9.18.66,57.44,57.44,0,0,0,27.29-6.84c12.2-6.43,24.71-12.84,36.81-19q7.62-3.9,15.27-7.84l.94.58c1,.64,2.13,1.31,3.24,1.91.59.32,1.18.66,1.76,1a40.11,40.11,0,0,0,6.17,3c1.53.54,4.38.78,5.94-.41a64.71,64.71,0,0,0,11.07-10.93,1,1,0,0,0,0-1.32l-1.71-1.79c-1.14-1.19-2.19-2.29-3.25-3.38l-10.45-10.7q-9.29-9.49-18.56-19-3.33-3.43-6.63-6.91c-11.34-11.89-23.07-24.19-37.54-33.15a3.76,3.76,0,0,1-.63-.49c-1.06-1-4.17-3.74-7.88-1.68l-113.91-96,.31-.25a20.08,20.08,0,0,1,1.76-1.32l4.59-2.94c4.29-2.75,8.71-5.59,13.15-8.23,12.86-7.66,24-17.78,34.76-27.57l.86-.78c5.29-4.81,7.71-10.63,7.18-17.32s-1-14.15-1.55-23.3c-.1-1.76-.07-3.55,0-5.46,0-.43,0-.86,0-1.31,2.74,1.34,5.48,2.63,8.14,3.89,6.83,3.23,13.27,6.27,19.55,9.85,53.47,30.47,112,64,184.25,105.6,5.65,3.25,10.7,5,15.89,5.44,4.89.43,9.23,1.95,11.67,4.09.6,1.44,1.08,2.76,1.55,4a32.07,32.07,0,0,0,3.16,6.94c3.36,5,8.63,7.7,13.72,10.3l1.07.55c2.39,1.22,6.09,1.44,8.56-1l1.22-1.18c2.77-2.64,5.62-5.37,7.45-9.14a1,1,0,0,0-.14-1.09l-7.17-8.37.35-.68c.39-.76.72-1.41,1.09-2.05q3.32-5.84,6.65-11.65c4.66-8.13,9.47-16.54,14.11-24.86.52-.93,1-1.74,1.4-2.45C1417.58,940.18,1417.54,939.8,1412.91,932.58ZM1092,630.3c5.26,3.51,17.41,11.66,24.08,16.4.75.51-.11.49-4.07-1.57-1.14-.6-3,.82-3.48,1.78a3.64,3.64,0,0,0,.66,3.83,42.87,42.87,0,0,0,4.43,3c.62.38,1.25.77,1.9,1.19a1.09,1.09,0,0,0,.54.16,1,1,0,0,0,.56-.17c.39-.26.79-.49,1.16-.69a4.86,4.86,0,0,0,2.29-2A3.36,3.36,0,0,0,1120,650a.2.2,0,0,1,.3-.22c4.35,3.15,8.64,6.36,12.86,9.68,35.49,27.89,64,51.54,89.76,74.42,19,16.9,38,34.54,56.53,52.44,33.85,32.74,66.65,68.46,100.27,109.2,6.22,7.53,11.94,15.71,17.48,23.61,2.35,3.36,1.79,2.64,4.23,6,.25.35,1.46,2.09,2.48,3.64a.49.49,0,0,1-.72.66c-8.56-6.88-27.76-22.35-39.67-32l-.11-.09c-1.52-1.23-3.07-2.5-5.25-2.5a6.58,6.58,0,0,0-2.12.37c-.34.12-1.49-.2-3.25-1.51l-.17-.13c-10.84-8.1-22-16.47-32.93-24.88-46.81-36.18-94.27-70.91-146.16-106.73-.44-.3-1.5-1-3-2.09-.48-.35-.13-.62.26-.45,1.3.59,2.67,1.27,3.16,1.5,3,1.44,3.37,1.6,6.49,3a32.54,32.54,0,0,0,6.65,2.24,8.57,8.57,0,0,0,9.24-3.32c2.46-3.31,1.54-6.9.63-9.3a14.93,14.93,0,0,0-2.63-4l-.24-.29c-21.84-26.73-43.4-52.78-67.15-77.54-7.61-7.93-15.24-16.14-23.27-25-2-2.28-5.17-6.21-6.93-8.72-1-1.4-1.66-2.4-2.75-3.8-.62-.8-1.66-2.05-2.59-3.15A.43.43,0,0,1,1092,630.3Zm282.72,296.23a90.5,90.5,0,0,1-9.75-7.85,9.31,9.31,0,0,1-2.68-3.8c-1.16-3.57-2.08-7.31-3-10.92l-.42-1.68c-.08-.34-.59-1.76-.06-1.3,0,0,1.67,1.13,2.35,1.68,3.25,2.62,6.47,5.26,9.7,7.9,7.21,5.89,14.66,12,22.18,17.76,3.66,2.82,5.37,6.52,7.07,10.72.23.57-.18,1.72-.59,2.83-.14.38-.28.77-.41,1.16-4.37-.47-7.33,1.62-10,3.83-1.85,1.53-3.73,3-5.91,4.63l-1.61,1.22v-.27c0-1.42,0-2.64,0-3.83l0-.86a24.47,24.47,0,0,1,.53-4.73C1384.46,934.19,1379,929.38,1374.73,926.53Zm-.32,17.79-7.57-2.78c-8.32-3-16.92-6.21-25.28-9.54a28.82,28.82,0,0,1-8.18-5.34c-23.85-21.14-49.08-40.23-75-59.55q-26.79-20-53.63-39.89c-19.93-14.8-40.53-30.11-60.76-45.21-5.34-4-11.36-6.71-17.18-9.33-1-.47-1.42-1.16-.52-1.16.38,0,.77,0,1.16,0,3.14.2,6.55-.13,8.21-4,.9-2.11,1.08-5.42-3.23-9.19a15.76,15.76,0,0,0-11.44-3.86c-3.38.14-5.68,1.49-6.83,4-1.28,2.8-.66,5.73,1.73,8.24.64.67.22.94-.68.51-6.09-2.92-12.69-5.94-20.37-9.34-4-1.76-7-4.61-10.24-7.62-1-.9-1.92-1.8-2.9-2.66-30.18-26.59-60.81-53.68-90.44-79.88l-22.61-20c-.7-.63-1.39-1.27-2.24-2.06l-.64-.6,12.33-9.7.91.55c1,.62,2,1.21,3,1.85q15.57,10.6,31.1,21.24c21.38,14.63,43.5,29.76,65.39,44.42,51.92,34.78,102.77,70.5,163.15,113.44,14.48,10.29,28.84,21.3,42.72,31.94,6.06,4.64,12.32,9.44,18.51,14.12q7.77,5.86,15.53,11.76c10.22,7.75,20.78,15.76,31.23,23.57a9.67,9.67,0,0,1,4,6c.55,2.46,1.22,4.92,1.86,7.3.41,1.5.83,3,1.21,4.52a11.84,11.84,0,0,0,4.55,6.9c2.3,1.74,4.58,3.61,6.79,5.42s4.32,3.55,6.55,5.24,2.88,3.33,2.52,5.71c-.21,1.43-.33,2.88-.46,4.41l-.09,1.13-.18,0A14.25,14.25,0,0,1,1374.41,944.32Zm-2.56,16.07a25.7,25.7,0,0,0-3.89,2.84l-.93.76-2.47-2.3c-8.62-8-17.53-16.34-26.23-24.51-.23-.23-.15-.3,0-.23,8.35,2.93,16.61,6.06,24.61,9.1,4.33,1.64,8.63,3.28,12.93,4.87C1376.64,955.57,1375.41,958.42,1371.85,960.39ZM1332.77,934l-2.21-1.43c-2.24-1.44-4.56-2.93-6.8-4.44a21.56,21.56,0,0,0-8.29-3.31c-4.89-1-9.66-2.38-14.72-3.89-1.76-.52-3.55-1.06-5.38-1.58L1300,906c5,3.61,9.53,7.53,13.92,11.33l2.88,2.49c1.56,1.34,3.15,2.65,4.74,4,3.83,3.18,8.44,7.09,10.53,8.84C1332.76,933.26,1333.1,934.18,1332.77,934ZM1093.68,833.2c1.33,3.83,3,7.6,4.57,11.24,1,2.38,2.1,4.83,3.08,7.27a74.4,74.4,0,0,1,3.47,10.48,18.24,18.24,0,0,1,.16,4.7c0,.31,0,.63,0,1a8.64,8.64,0,0,1-1.29-1.18c-23.37-28.07-50.76-56.71-83.73-87.57-27-25.25-55.69-46.73-87.71-70.2-8.4-6.16-17.05-12.26-25.42-18.16q-6.19-4.37-12.38-8.76c-.45-.32-.88-.68-1.46-1.16,1.08-.43,2.15-.88,3.19-1.32,5.94-2.49,11.56-4.85,18.14-3.83,6.8,1.06,13.73,2,20.44,2.83,4.69.61,9.54,1.24,14.31,1.92a9.81,9.81,0,0,1,4.37,1.73c43.49,33.14,87.66,66.88,130.38,99.52l14.38,11a3.07,3.07,0,0,1,.29.26l.34.31c-.41,1.57-.79,3.18-1.15,4.75a73.33,73.33,0,0,1-3.4,11.7A31.51,31.51,0,0,0,1093.68,833.2ZM795.13,740.31c1,4.05,1.65,8.24,2.37,12.68.22,1.39.45,2.82.7,4.28l-74-47.11.08-.07,1.77-1c5.48-3.09,5.68-3.4,5.55-8.24,0-.88-.06-1.93-.05-3.22,0-6.46-.08-13-.17-19.38,0-3-.09-5.94-.12-8.91,0-1,0-2,0-3.37v-.61l78.18,51.23L807,718.83c-2.22,2.08-4.32,4-6.49,5.83C795.31,728.93,793.59,733.91,795.13,740.31Zm-69.31-47v9.46l-6.23,3.52L692,640.34l6.59,4.15q12.52,7.9,25,15.82a4.39,4.39,0,0,1,2.16,4.05C725.81,673.93,725.81,683.5,725.82,693.29ZM808.91,732l.85.61c1,.74,2,1.5,3.08,2.3q13.7,10.68,27.42,21.35c25.87,20.12,52.61,40.93,78.79,61.56a297.12,297.12,0,0,1,25.45,22.6c15.43,15.35,24.5,24.61,39.49,39.89l8.88,9.06a.69.69,0,0,1-.91,1c-25.32-19-51.46-37.06-76.9-54.64l-17.77-12.31c-22-15.25-44.67-30.25-66.61-44.75q-9.51-6.29-19-12.57c-3-2-4.31-3.93-4.67-6.92l-.11-.89a100,100,0,0,0-2.61-15.1C802.85,738.15,804.23,734.76,808.91,732Zm154.21,118.9c-22.73-23.56-47.64-43.5-69-59.9-18.52-14.2-37.23-28.81-55.32-42.94q-11.84-9.26-23.7-18.5c-.5-.38-1-.77-1.64-1.3l-.34-.28,7-6.43a1,1,0,0,0,.23-1.15,19.25,19.25,0,0,0-7.67-8.46l-25.28-16.58C773,686,758.2,676.25,743.57,666.77c-12.24-7.94-24.76-15.88-36.87-23.56-5.41-3.43-31.09-20.81-40.48-26.85l-3.85-2.48c-.2-.13-.53-.31-.91-.52a15,15,0,0,1-2-1.28,2.9,2.9,0,0,1-.25-2.08,8.46,8.46,0,0,1,2.67,1.46l.59.42c12.63,8.54,25.19,17,37.35,25.13,11.74,7.87,24.88,16,37.06,24.26,8.06,5.45,13.92,5.45,20.6,0,.73-.59,1.51-1.16,2.34-1.76l.72-.52,5,3.54c4.17,2.92,8.29,5.82,12.41,8.73l13.22,9.38c9.12,6.46,18.54,13.15,27.84,19.68a10.35,10.35,0,0,1,4.2,5.51,166.85,166.85,0,0,0,18.29,36.86,17.68,17.68,0,0,0,4.53,4.86c33.68,23.68,65.69,48.29,95.13,73.14,10.51,8.87,22.51,15.61,34.12,22.12q3.39,1.9,6.77,3.82c2.08,1.19,4.19,2.35,6.29,3.51,3,1.64,6,3.34,9,5.09a8.23,8.23,0,0,1,3.34,3.13c8.64,18.76,17,37.25,24,52.86a17.18,17.18,0,0,1,1.3,4.42c-.55-.53-1.1-1.07-1.63-1.62L1007.75,897C993.1,881.89,978,866.3,963.12,850.92ZM634.78,648.56c-1.14-.28-9.08-7.22-11.64-9.56-3.21-2.92-6.21-5.55-9.43-8.46-2.88-2.6-4.16-3-7.66-1-10.45,6.05-20,11.75-30.19,17.86-2,1.18-2.94,2.28-3.19,3.59-.31,1.68.77,3.33,1.75,4.59.69.87,1.41,1.69,2.24,2.64l.41.46c-8.8,4-17.57,1.86-25.39-.17-.84-3.43.21-6.17,3.19-8.38,3.65-2.71,6.93-4.93,10-6.79,8.72-5.26,17.65-10.51,26.29-15.58l2.65-1.56c1.39-.81,2.89-1.54,4.33-2.24l.8-.39c5.07-2.46,9.46-2,13.16,1.75,6.94,7,21.42,19.33,23.56,22.74C635.92,648.48,635.92,648.84,634.78,648.56Zm18.67,22a.53.53,0,0,1-.64.84c-5.54-3.6-12.8-8.31-15.32-10a3.64,3.64,0,0,1-1-1.07c-1-1.84-3-5.5-4.16-7.87a.33.33,0,0,1,.51-.39Zm526.1,434.49,2.71,6.36a7.53,7.53,0,0,1,.36,1.4l0,.16-3.86.58c-3.86.58-7.5,1.12-11.13,1.71a5.45,5.45,0,0,1-4.93-1.55c-5.16-4.6-10.56-9.18-16-13.61a11,11,0,0,0-5.7-2.5l-4.69-.3c-3.82-.25-7.71-.51-11.6-.51a64.83,64.83,0,0,0-7.25.37c-5.17.58-8.39-1.19-12.52-4.65-75.07-62.9-145.26-120.15-214.57-175C834.19,873,787.19,836.89,742.42,803.76L727,792.4l-6.49-4.79.07,0c.79-.48,1.48-.89,2.17-1.23,2.77-1.37,5.56-2.73,8.34-4.09,5.17-2.53,10.52-5.14,15.74-7.78a4.76,4.76,0,0,1,5,0q25.88,13.53,51.78,27c20.49,10.66,41.68,21.69,62.49,32.59,11,5.76,22.11,11.72,32.87,17.48,8.85,4.74,18,9.64,27,14.4a19.29,19.29,0,0,1,6.56,5.69c8.18,10.78,16.29,21.35,24.11,31.39a28.8,28.8,0,0,0,5.29,5.34c71.86,54.83,142,113.09,201.08,162.85a14.31,14.31,0,0,1,4,4.82C1171.27,1085.68,1175.48,1095.54,1179.55,1105.08Zm-6.08-28.46c3-2.82,7-3.38,11-1.54a34.44,34.44,0,0,1,8,5c4.87,4.13,9.69,8.51,14.34,12.74l4.21,3.81a11.4,11.4,0,0,1,1.21,1.37l.13.17c-1,.91-1.91,1.83-2.85,2.74-3,2.93-5.91,5.7-9,8.34-1.11,1-3,1.38-4.66,1.74l-.23,0a50.27,50.27,0,0,1-5,.75c-.64.07-1.3.14-2,.23ZM917.62,952.76c-.14,1.63-1.93,2.2-3.41,2.38l-6.18.79a6.62,6.62,0,0,1-2.13-.09l-1.16-.24c-1.86-.37-4-.79-6-1.38-66.87-19.8-133.72-37.43-198.36-54.47-7.46-2-13.21-4.81-18.11-8.94-2.1-1.77-4.34-3.44-6.51-5.06-1.69-1.25-3.44-2.56-5.1-3.89-1.11-.9-1.66-1.89-1.48-2.64s1-1.21,2.18-1.46a37,37,0,0,1,7.08-.82,19.07,19.07,0,0,1,3.13.25c33.73,5.79,62,10.74,90.59,16.07,23.6,4.4,44.66,8.69,64.38,13.11,9.48,2.13,19,5,28.16,7.72l8.36,2.48a51.44,51.44,0,0,1,22.35,13.35c3.84,3.87,7.87,7.67,11.77,11.35,2.86,2.69,5.81,5.48,8.66,8.26A5.18,5.18,0,0,1,917.62,952.76ZM742.72,770.27,719.79,781.6l-4.15,2L610.8,708.9a.9.9,0,0,1,.9-1.56c42.56,19.32,85.7,39.93,131.28,62.72A2.37,2.37,0,0,1,742.72,770.27ZM846.08,889.79q9.64,7.58,19.31,15.12l5.53,4.32c.44.34.26.7-.25.54l-2.77-.85c-5.57-1.71-11.33-3.47-17.11-4.77-25.68-5.76-48.14-10.56-68.67-14.68-18.8-3.76-38-7.17-56.55-10.47l-4.36-.78c-9.69-1.72-19.57-3.32-29.13-4.87l-12.72-2.08a17.71,17.71,0,0,0-2.83-.23,21.77,21.77,0,0,0-8.68,2,9.62,9.62,0,0,0-3.21,2.73l-.8.88-.71-.52c-1.08-.8-2.24-1.64-3.37-2.52L531.74,775,518,764.33c-12.59-9.71-25.6-19.75-38.45-29.57-2.08-1.59-3-2.88-2.57-5.91,1.1-7.75,1.54-15.48,1.93-23.37.27-5.47-2.49-10-8-13.16-3.74-2.14-7.61-4.18-11.36-6.15l-3.71-1.95q-71.1-37.77-142.22-75.51l-19.41-10.3-.34-.19a5.93,5.93,0,0,0-1.13-.54c-3.72-1.22-5.26-3.48-5.29-7.79a110.51,110.51,0,0,0-.89-11.56c-.19-1.7-.38-3.4-.53-5.09,8.94,4.6,18,9.32,26.72,13.89C333.51,598,355,609.19,376.49,619.45c27.73,13.23,57.07,24,85.52,34.39-.9-.14-1.81-.27-2.71-.38a65.54,65.54,0,0,0-9.86-.62c-2.55,0-4.49,1-5.31,2.68s-.45,3.72,1.06,5.77a100.58,100.58,0,0,0,6.9,8.15l2.06,2.28c4.27,4.79,8.57,9.54,12.88,14.3l3.19,3.52a4.25,4.25,0,0,0,2.89,1.8,4.14,4.14,0,0,0,3-1.39,1,1,0,0,0,.1-1.35c-4.19-5.36-8.66-10.28-13.4-15.49-3.77-4.15-7.66-8.43-11.46-13l.85,0a24.49,24.49,0,0,1,4.36.09c3.31.49,6.63,1,9.94,1.43,11.43,1.63,23.25,3.32,34.78,5.46a101.17,101.17,0,0,1,13.2,3.74c2.83.94,5.75,1.91,8.68,2.7,19.14,5.16,37.45,13.42,55.15,21.41l5,2.24a29,29,0,0,1,4.42,2.69C677.4,761.83,764.33,825.75,846.08,889.79Zm-531-367.89-77.81-55.67c-.6-.43-1.18-.89-1.86-1.41l-.41-.32a5.08,5.08,0,0,1,.44-.63c.73-.86,1.49-1.71,2.37-2.71l.61-.69L456.77,620.54a15.27,15.27,0,0,1-2.2-.24c-25.26-5.32-52.31-9.93-82.69-14.07a12.91,12.91,0,0,0-1.86-.12c-1.08,0-2.16.1-3.21.19-.88.08-1.79.17-2.68.19a5.63,5.63,0,0,1-2.25-.24c-9.1-4.57-18.26-9.23-27.12-13.73l-5.6-2.85a1.93,1.93,0,0,0,0-.27c0-.1,0-.17,0-.24,3-6.7,1.29-12.31-5.18-17.13a53.17,53.17,0,0,1-4.53-4,54.51,54.51,0,0,0-4.23-3.76c-6.19-4.83-6.78-9-2.52-17.76.78-1.62,1.73-3.21,2.65-4.75.72-1.2,1.46-2.45,2.13-3.71a22.9,22.9,0,0,0,1.84-4.73C320.74,527.77,319.85,525.3,315.09,521.9Zm4.58-98.1,2.18,1.23c3.18,1.78,6.18,3.46,9.18,5.24l6.61,3.92c24.36,14.44,49.54,29.37,72.79,46.4,3.21,2.35,4.81,4.47,4.89,6.49s-1.3,4.15-4.21,6.64a32.33,32.33,0,0,1-19.38,7.88h-.25l-.33,0c-10.46.41-10.46.41-19.26-5.36l-96.23-63.2c-.87-.58-1.73-1.18-2.74-1.89l-.44-.31,2.27-1.36.08,0a2.6,2.6,0,0,1,.65.25l3.6,2.26c3.55,2.23,7.23,4.54,10.75,6.93a7.74,7.74,0,0,0,8.76.53c3.38-1.81,6.77-3.59,10.16-5.37,2.36-1.24,4.73-2.48,7.08-3.73C319.74,428.32,320.68,427.2,319.67,423.8Zm53.13,79.72-2.4,4.59a1,1,0,0,0,.15,1.15l17.25,18.5c12.56,13.48,25.53,27.41,38.41,41,26.59,28,47.26,51.38,52.24,58.81a36.07,36.07,0,0,1-9.13-4.75Q434.1,597,398.87,571.15L246.79,459.68c-1-.76-2-1.52-3.2-2.4l-1-.71c2.3-2.26,4.5-4.62,6.64-6.9,5.5-5.88,10.71-11.44,17.55-15.7ZM469,632.6A125,125,0,0,1,462.34,644c-.46-.17-6.51-1.8-6.76-2.39s7.51-14.59,8-14.5C464.92,627.33,468.75,632,469,632.6Zm139.86,62.14a28.46,28.46,0,0,1-4-.08c-5.52-.53-10-1.08-14-1.72a26.94,26.94,0,0,1-7.64-2c-25.92-12.77-53.49-21.62-79.43-29.27-.55-.81-1.05-1.59-1.52-2.33a29.94,29.94,0,0,0-3.42-4.69c-4.83-5-9.85-10.09-14.7-15-1.95-2-3.91-3.93-5.85-5.91a1.21,1.21,0,0,1-.16-.16l.54.22,13.4,5.73c16.46,7,33.49,14.33,50.2,21.57a71.78,71.78,0,0,0,22.49,5.31,31.14,31.14,0,0,0,8.74-.87l1.61-.31a31.42,31.42,0,0,0,4.69-1.37l1.68-.57,2.65,2.83c8.94,9.52,17.42,18.55,25.95,28.55Zm-29.35-42.55c6.33-5,6.59-4.78,9.91-1.83l.9.8-7,5Zm24,26.15c-6.14-5-10.27-11.23-14.76-19.43l4.81-2.87,12.24,20.71Zm-12.19-33.52.93-.59a48.06,48.06,0,0,1,4.72-2.74,3.12,3.12,0,0,1,2.27.14,18.43,18.43,0,0,1,2.91,2l.42.33-6.36,4.1Zm9.38,6.87,4.92-2.81,11.89,20.56-5.21,3.31Zm3.11-13.88c2.33-2,3.6-2.95,4.65-3s2.24.8,4.44,2.52l-5.18,3.37Zm8.3,6.75,4.93-3,11.79,20.71-5.2,3.25ZM603,558.64c-1.76-2.91-3.51-5.81-5.29-8.7-.19-.32-.36-.69-.55-1.07l0-.1a20.61,20.61,0,0,1,9-7.65c6.11-2.79,12.72-6,20.22-9.78,4.4-2.23,7.73-2.48,11.12-.81a16.53,16.53,0,0,0,3.25,1.09c-4.15,2.17-8.29,4.23-12.31,6.24-6,3-12.21,6.08-18.27,9.43a1,1,0,0,0-.42,1.29c2.64,5.69,5.49,9.12,9.53,11.47,3.73,2.18,7.4,4.58,11.28,7.11q2,1.3,4.09,2.66l-1.08.64a46.68,46.68,0,0,1-4.3,2.37,5.12,5.12,0,0,0-3.1,5.72l0,.24a10.56,10.56,0,0,1,.09,1.12c0,6.43,2.4,10.57,7.66,13.45a122.49,122.49,0,0,1,12,7.8c1.89,1.34,3.85,2.73,5.82,4,1.65,1.11,2.11,1.83,1.7,3l-.13,0c-2.46-1.5-4.93-3-7.41-4.46-6.34-3.78-12.9-7.7-19-12A39.49,39.49,0,0,1,616.91,581C612.08,573.67,607.45,566,603,558.64Zm-18.2-12.19a46.31,46.31,0,0,0,2.38,4.57l.71,1.27c-7.77,4.36-9.15,6-15.51,17.89l-.82-.44a21.6,21.6,0,0,1-3.48-2.11,13,13,0,0,0-8.17-2.89,14.86,14.86,0,0,0-2.7.26c-2.77.5-5-.24-7.48-2.48-6.69-6-12.56-10.92-19-16.22-2-1.6-2.39-3.24-2.5-5.54-.42-9,3.58-15.34,12.22-19.53,7.39-3.58,15-7.12,22.3-10.54q5.61-2.61,11.21-5.25c1.69-.79,3-1.29,4.61-.39,7.54,4.26,14.66,8.13,22.2,12.24,6.22,3.38,12.64,6.88,19.3,10.6-3.09,2.12-5.42,3.56-8.86,1.85-2.49-1.23-5.41-1.09-8.44.41L598.92,532c-3.62,1.77-7.37,3.61-11,5.5C584,539.56,583,542.38,584.78,546.45Zm57.87-151.61a6.77,6.77,0,0,1,.14-1.45l0-.1.64.26a29.87,29.87,0,0,1,3.08,1.41l4.76,2.65c30,16.75,61,34.07,90.31,53.14l9.95,6.46c11.37,7.38,23.12,15,34.56,22.7,12.36,8.31,23.09,19.32,32.6,29.23a185.86,185.86,0,0,0-21.16,8.15c-2.77,1.2-5.64,2.44-8.47,3.6-7.6,3.1-15.91,7.55-20.39,17.08l-.52-.27c-.91-.48-1.73-.9-2.53-1.36a180.44,180.44,0,0,1-26.88-19.46c-24.68-21-57.53-48.27-92.75-73.28-10.26-7.29-21-14.25-31.37-21-4.66-3-9.48-6.16-14.2-9.27-.9-.6-1.81-1.18-2.93-1.91l-.63-.4,1.9-1.42c2.25-1.67,4.37-3.25,6.42-4.87,1-.79,1.87-.66,3.46-.33l.29,0c8.91,1.79,16.27,1.91,23.15.36a25.79,25.79,0,0,0,5.25-1.78C641.18,401.28,643,398.52,642.65,394.84ZM838.52,553.7l-2.14,1.06-10-19,2.44-.92Zm-3.61-21.48,2.08-2.91c3.76,5.05,9.78,14.94,12.12,18.84a.17.17,0,0,1-.27.2Zm194.83,276c8,13.21,15.69,25.63,19.35,40.48a53.5,53.5,0,0,1,1.49,11.32c.13,4.5-1.26,6.12-5.49,6.41a48,48,0,0,1-12.24-1.15c-8.6-1.71-16.39-6-23.92-10.17l-1.22-.68q-7.34-4-14.63-8.13c-6.1-3.41-12.41-6.94-18.65-10.35a7.87,7.87,0,0,1-3.54-4.08c-1.42-3.07-3.15-6-4.83-8.88-.43-.73-1.53-2.64-2.28-3.93a.31.31,0,0,1,.44-.41,159.55,159.55,0,0,0,20.34,12,110.19,110.19,0,0,0,32.35,9.71,10.92,10.92,0,0,0,12.76-11,65.53,65.53,0,0,0-8-32.38c-.6-1.1,0-1.28,1.6.92S1027.84,805.1,1029.74,808.25Zm.14-11.88a739.79,739.79,0,0,1,54.68,57.26.38.38,0,0,1-.52.55c-2.19-1.7-4.84-3.74-5.73-4.42-5.11-3.94-5.78-4.44-10.9-8.36l-18.31-14-.46-.36a11.15,11.15,0,0,1-3.08-3c-5.53-9.89-10.93-18.83-16.34-27.07A.44.44,0,0,1,1029.88,796.37Zm-7.76,17.27a72.81,72.81,0,0,1,2.05,14.7c.13,2.42-.47,4.28-1.71,5.38s-3.08,1.41-5.4,1a209,209,0,0,1-21.13-5.27,46.9,46.9,0,0,1-7.08-3l-2.61-1.25c-4.23-2-9-4.6-12.68-9.46a45.06,45.06,0,0,0-4.62-5.16.4.4,0,0,1,.48-.63c4.12,2.37,8.29,4.83,12.22,7.5,7.88,5.34,16.81,6.3,24.56,6.78,5.46.34,8-1.92,8.41-7.3a90.9,90.9,0,0,0,0-13.32,14.1,14.1,0,0,0-2.52-6.28c-1.61-2.41-3.26-4.83-4.91-7.23-1.19-1.71-3.31-4.74-5-7.19a.59.59,0,0,1,.89-.77A63.93,63.93,0,0,1,1022.12,813.64ZM1006,797.91c2.31,3.8,4.71,7.72,3.26,12a1.13,1.13,0,0,0,0,.32c0,.78,0,1.52,0,2.23a26.72,26.72,0,0,1-.08,4c-.27,2.26-.84,2.72-3.21,2.52-8.48-.69-15.39-2-21.56-6.31-4.68-3.25-9.7-6.12-14.56-8.91-1.29-.74-2.59-1.48-3.87-2.23-2.54-1.47-3.24-2.91-2.5-5.14,1.63-4.86.37-8.83-3.73-11.78-2.31-1.67-2.86-3.81-1.67-6.55q1.46-3.33,3-6.65a5.11,5.11,0,0,1,4.24-3.35c2.43-.42,4.56-2.33,6.44-4l.08-.07a3.86,3.86,0,0,1,2.61-1.17,5.42,5.42,0,0,1,2.83,1,14.75,14.75,0,0,1,2.55,1.9A162.3,162.3,0,0,1,1006,797.91ZM743.29,614.55c6.13,4.49,12.39,9,18.44,13.4q5.4,3.91,10.8,7.84c1.06.76,2.09,1.56,3.18,2.4l.55.42L762.4,649l-1.88-1.31c-1.82-1.27-3.64-2.54-5.43-3.85q-6.51-4.72-13-9.49c-7.23-5.3-14.72-10.78-22.11-16.11-11.67-8.43-19.91-19.85-26.43-29.91a7.17,7.17,0,0,1-.94-1.9,11.78,11.78,0,0,1-.29-1.81,2.45,2.45,0,0,0,0-.27,7.45,7.45,0,0,1,2.54-1.6c.5-.07,1.23.36,2.69,1.23C712,592.6,727,602.61,743.29,614.55ZM701.8,579.86l.33,0a10.24,10.24,0,0,1,3.32.58q3.9,1.68,7.82,3.33c8.16,3.46,16.59,7,24.51,11.21,7.49,4,14.75,8.72,21.78,13.32,2.23,1.46,4.45,2.92,6.69,4.36,6.56,4.21,13.17,8.6,19.56,12.84l7.3,4.84.24.17-2.08.94c-2.75,1.24-5.34,2.42-8,3.68-1.35.65-2.14.12-3.54-1l-.65-.49c-3.39-2.46-6.77-5-10.16-7.43-7.24-5.32-14.72-10.82-22.23-16-10-6.91-20.19-13.77-30.09-20.4q-6.55-4.4-13.12-8.82C702.94,580.65,702.37,580.25,701.8,579.86Zm66.55,71.7a42.08,42.08,0,0,1,3.87-3.14c7.37-5,14.7-9.79,23.29-12.35,3.18-1,5.67-.47,8.61,1.66,10.36,7.54,21,15.14,31.19,22.48l17.05,12.25a.38.38,0,0,1-.35.67,12.28,12.28,0,0,0-8.86.55,113.5,113.5,0,0,0-13.48,8.07,10.54,10.54,0,0,0-3.75,5.1,6.84,6.84,0,0,0,2.38,8c5.47,4.49,11,9.15,16.3,13.66,3.15,2.67,6.29,5.34,9.46,8a26,26,0,0,0,4.56,3.17,7.82,7.82,0,0,1,4,4.17l-1.09-.67c-2.2-1.35-4.49-2.74-6.62-4.25q-11.71-8.28-23.4-16.61c-11-7.8-22.34-15.87-33.54-23.75-2.52-1.76-4-4.2-5.61-6.78-.33-.55-.67-1.1-1-1.64-.16-.25-.32-.5-.47-.75-1.38-2.21-2.92-4.69-6.41-4.69a5.15,5.15,0,0,0-.55,0h-.15c-2.18-3.15-5.38-4.91-8.48-6.62-2.79-1.54-5.67-3.13-7.8-5.75Zm117.83,70.5c1.61,1.56,3.25,3.1,4.89,4.64,2.71,2.53,5.5,5.15,8.1,7.85a59.62,59.62,0,0,1,7.47,9.27c3,4.73,5.94,9.64,8.77,14.39,2,3.35,4.08,6.81,6.16,10.19a9.29,9.29,0,0,1,1.6,6,.5.5,0,0,1-.85.31,30.16,30.16,0,0,1-2.48-2.82l-1.33-2c-3.23-4.77-6.58-9.71-9.51-14.76-5.67-9.77-13.15-18.12-19.73-25-4.51-4.72-9-9.62-13.35-14.35-1.75-1.91-3.51-3.83-5.27-5.73,2.72-3.28,3.22-3.29,7.33-1.92,2.91,1,5.81,2,8.95,3.06l3,1-.62.54c-1.24,1.08-2.32,2-3.32,3.07C883.59,718.31,883.64,719.59,886.18,722.06Zm65,49.47c-.27.75-.49,1.53-.71,2.28-.64,2.25-1.26,4.39-3.15,6l-4.12-2.52c-4.84-2.95-9.85-6-14.73-9.08a6.89,6.89,0,0,1-1.85-2.24c-1.29-2.09-2.56-4.2-3.82-6.31-1.42-2.36-2.83-4.71-4.28-7s-1.73-4.47-.81-6.55a57.53,57.53,0,0,1,4.73-9.25,7.47,7.47,0,0,1,6.34-3.57,9.7,9.7,0,0,1,3.28.61,49.58,49.58,0,0,1,10,4.47c6.26,4,12.52,8.22,18.57,12.31l7.28,4.91C959.51,758.27,954.18,763.39,951.21,771.53Zm4.8,17.12c3,3,3.21,3.29,1.67,7.21l-.72-.51a46.85,46.85,0,0,0-4-2.61c-3.32-1.87-4.44-4.18-3.58-7.43l2.47-1.79.81,1.07A36.34,36.34,0,0,0,956,788.65ZM943.8,790c0,.21,0,.43,0,.66l-3.57-2.61c-4-2.89-7.7-5.62-11.32-8.48-1.3-1-1.12-2.32-.67-4.73a.36.36,0,0,0,0-.11l2.88,1.75c4,2.42,7.75,4.7,11.46,7.09a3.29,3.29,0,0,1,1.12,2A32.51,32.51,0,0,1,943.8,790Zm-88.11-82c2.49,1.92,2.82,2.17,3.45,5.3a5.38,5.38,0,0,1-.9-.58q-11.5-9.68-22.94-19.42L832.54,691c-1.08-.92-1.63-1.76-1.6-2.42s.41-1.05,1.17-1.59a81.1,81.1,0,0,1,14-8.32,6.7,6.7,0,0,1,2.65-.55,7.69,7.69,0,0,1,5.86,3c4,4.76,8.09,9.55,12.07,14.18l3.84,4.47c-1.25-.34-2.49-.68-3.73-1.06a11.42,11.42,0,0,0-11.87,3.79C853.39,704.56,853.66,706.48,855.69,708Zm11.63-3.21-2.61,2.37-2.91-2.29C863.26,703.35,863.85,703.36,867.32,704.83Zm1.46,27.69a1,1,0,0,0,1.33-.4c2-3.58.9-5.35-.38-7.62,7.23,6.5,19,19.79,25.58,28.64a.54.54,0,0,1-.77.75l-30-22.58Zm15.05-28.14c-1.12-.28-2.54-.65-4.78-3.1-.2-.22-.38-.46-.57-.68q-4.86-5.64-9.7-11.31-5.14-6-10.31-12c-.49-.56-.32-.63.31-.17,1.85,1.33,5.16,3,6.93,5.11,4.48,5.28,9.63,10.9,14,16.17C879.67,698.38,886,705.08,883.83,704.38ZM859.7,671c-11.53-8.54-23.4-17-34.89-25.2q-7.3-5.21-14.6-10.44c-.58-.41-1.14-.86-1.66-1.28l3.11-3.71,63.67,48.74A53.26,53.26,0,0,1,859.7,671Zm-25.4,44.87c3,2.2,9.9,7.31,13.49,10,13.11,9.73,26.67,19.8,39.87,29.85,3.51,2.67,6.86,5.71,10.1,8.64,2.21,2,4.49,4.07,6.82,6,8.16,6.83,16.88,14,28.27,23.25,5.8,4.71,11.9,9.43,17.28,13.59a8,8,0,0,1,3.1,4.43,23.73,23.73,0,0,0,3.16,6.15c.46.72.92,1.43,1.34,2.16,1.17,2,3.82,6.45,5.07,8.56a.39.39,0,0,1-.51.54,63.8,63.8,0,0,1-10.52-7.09c-4.44-3.58-8.85-7.2-13.27-10.81-7.79-6.38-15.85-13-23.94-19.27-12.51-9.73-25.41-19.38-37.89-28.72l-8.83-6.61c-3.48-2.61-7.08-5.19-10.55-7.68-2.55-1.83-5.1-3.65-7.63-5.51a10,10,0,0,1-2.83-2.68c-4.24-7.66-6.31-11.54-10.37-19.13l-2.76-5.14A.41.41,0,0,1,834.3,715.84Zm156.24,50c-10.37-7.68-21.81-16.57-32.62-23.67a683.25,683.25,0,0,1-58.27-42.66c-2.18-1.77-.77-1.47-.24-1.18a101.2,101.2,0,0,1,13.19,8C934.06,722,956.83,739,982.22,758.3c3.71,2.83,7.35,5.83,10.93,8.88C995.17,769.15,991.69,766.71,990.54,765.86Zm-90.27-49.1c6.82,3.08,13.72,6.28,20.4,9.36l1.21.56a6.43,6.43,0,0,1,.84.49c-5.92,3.17-8.84,8.31-10.78,13.25l-2.47-2.66c-2.56-2.76-5-5.42-7.48-8.09s-4.93-5.39-7.43-8.13l-2.93-3.22C893.91,715.21,895.59,714.64,900.27,716.76Zm-4.54-26.3c-3.24-2-6.81-4.26-10.42-6.32l-.49-.28a2.46,2.46,0,0,1,2.91.24l2.71,1.92c2.16,1.52,4.35,3.07,6.53,4.65C898.15,691.61,897.33,691.47,895.73,690.46ZM883.89,673.6l-4.39,1.66L812,623.58a.21.21,0,0,1,.14-.37l5,.37c1.14.09,2.36.18,5.29.46q10.71,1,21.42,2.14l9.48,1c3.83.38,7.79.77,11.67,1.22,2.67.3,5.74.33,8.2-1.74,3.28-2.78,5.82-1.83,9.1.73,7.28,5.7,14.76,11.41,22,16.92q5.46,4.17,10.91,8.35c6.5,5,13.37,10.3,21.62,16.71a6.77,6.77,0,0,1,1.2,1.15l-4-.51q-6.86-.87-13.7-1.76c-1.13-.15-2.26-.33-3.38-.51-1.91-.31-3.87-.63-5.84-.78-6.44-.49-11.59.25-16.23,2.32C891.27,670.83,887.52,672.24,883.89,673.6Zm-14.58-51.17a7.77,7.77,0,0,1-3.65.34q-14.26-1.34-28.54-2.73L822,618.59c-5.53-.52-11.24-1.06-16.85-1.65a6.53,6.53,0,0,1-3.12-1c-7.22-5.27-14.83-10.94-22.25-17a.38.38,0,0,1,.34-.65l89.12,23.08A.53.53,0,0,1,869.31,622.43ZM782,611.88q10,7.33,20,14.68c.67.5,1.34,1,2,1.6a.51.51,0,0,1-.21.89c-1.81.36-3.27-.45-4.88-1.52-4.89-3.25-9.81-6.46-14.72-9.68-7.62-5-15.5-10.14-23.15-15.34a215.61,215.61,0,0,0-31.44-18l-4.74-2.17c-14.87-6.82-30.24-13.88-45.42-20.67a73.19,73.19,0,0,0-8.27-2.92l-2-.61a62,62,0,0,1,10.58-4.59c.44-.16,2,.81,2.53,1.17l.12.08c4.7,3,10,6.32,15.12,9.8A12.94,12.94,0,0,0,705.4,567a55.06,55.06,0,0,1,9.57.44,34.79,34.79,0,0,1,15.94,6.64C747.87,586.78,765.23,599.54,782,611.88ZM602.64,510.48q0,.58,0,1.23l-2-1.12c-3.27-1.84-6.1-3.42-8.93-5.09a2.7,2.7,0,0,1-.8-.85c.53-3.57-1.84-5.1-3.75-6.33l-.86-.56c-2.3-1.6-4.63-3.18-7-4.75l-4.73-3.23a8.22,8.22,0,0,1-3.49-5.26,7.17,7.17,0,0,1,1.21-5.46,22.93,22.93,0,0,1,6.29-6.12,5.89,5.89,0,0,1,3-.71,5,5,0,0,1,2.06.38c4.63,2.15,9.17,4.58,14,7.15l4.41,2.36-.75.59c-1.16.91-2.08,1.63-3,2.42A6.32,6.32,0,0,0,596,490a6,6,0,0,0,2.49,4.54c1.61,1.27,3.32,2.44,5,3.57l1.51,1q-.29.74-.57,1.44a25.08,25.08,0,0,0-1.61,4.9A22.72,22.72,0,0,0,602.64,510.48Zm.72-19.36-1.84-1.27L607.6,485l16.12,8.46,0,0L621.8,495c-2.94,2.3-4.56,3.57-5.81,3.68s-2.58-.81-5.35-2.64l-2.3-1.51C606.73,493.48,605.17,492.39,603.36,491.12Zm6.73,11.54.45.17a9.53,9.53,0,0,0,2.44.71c3.07.32,7.29.77,10.33-2.75,3.7-4.29,7.35-4.53,13-.86a120,120,0,0,0,12.37,6.7c1.73.86,3.51,1.73,5.31,2.66l-1.61,8.21-3-2a13.89,13.89,0,0,0-17,1.05,8.85,8.85,0,0,0-3.39,5.94,3,3,0,0,1-1.12,2.29,2.93,2.93,0,0,1-2.57-.42c-5.43-2.9-10.68-5.93-16.49-9.32a2.77,2.77,0,0,1-1.23-1.35C607.28,509.68,607.25,505.8,610.09,502.66Zm28.33,16.71c4.56-2.19,7.66.39,11.21,3.47l-3,4.52-12-3.46C634.35,521.46,635.9,520.58,638.42,519.37Zm7.91,17.69c7.72,2.27,14.66,6,22,9.94,1.65.89,3.34,1.8,5.06,2.69l-33.38,17q-2.49-1.6-5-3.2c-5-3.22-10.23-6.55-15.26-9.94a10,10,0,0,1-2.28-2.63l-.64-.89,1.17-.61c1.39-.72,2.62-1.36,3.86-2l6.58-3.3Q634.73,541,641,537.8A6.72,6.72,0,0,1,646.33,537.06Zm20.33,1.52A147.52,147.52,0,0,1,685,545l-4.72,1.93-14-6.78C664.68,539.53,664.91,538.11,666.66,538.58Zm46,23.2c-3-.19-6.17-.38-9.25-.65a5.16,5.16,0,0,1-2.21-.85c-5-3.24-10-6.52-14.67-9.6a.19.19,0,0,1-.09-.09,7.7,7.7,0,0,1,6.61-.88c4.84,1.33,9.13,2.69,12.72,5.84a82,82,0,0,0,6.74,5.17l1.61,1.16ZM707.06,544a6.84,6.84,0,0,1-2.84-1.44c-.8-.58-1.59-1.25-2.36-1.89a26.35,26.35,0,0,0-3.82-2.85c-11-6.36-21.93-12.48-32.32-18.19a32,32,0,0,0-5.36-2.12l-2.08-.71,1-4.81,62.19,31.39c-4.55,1.25-9.06,1-13.8.65Zm-17-22.77c-4.3-2.16-13.18-6.65-16.3-8.24a.22.22,0,0,1,.13-.41l7,.87,10.34,1.27c14.59,1.79,28.5,6.9,42,11.84,3.58,1.32,7.28,2.68,10.94,4a48.72,48.72,0,0,1,9,4.71c1.07.65,2.13,1.3,3.21,1.92,4.34,2.5,8.73,5.08,13,7.58,2.55,1.5,5.1,3,7.66,4.5a12,12,0,0,0,8.53,1.52c1-.16,1.92-.29,2.88-.43,4-.56,8-1.14,12-3.3l44.14,42.91c1.11.86,4.36,4-.24,2-27.94-12.23-53.68-25.51-76.3-38.22-1.85-1-3.72-2.05-5.58-3.07-2.52-1.37-5.12-2.79-7.65-4.25a26.68,26.68,0,0,1-3.09-2.22c-.52-.41-1-.83-1.62-1.25a1,1,0,0,0-.6-.2h-.14l-1.9.28c-1.54.23-3.13.46-4.76.64-4.92.56-9.63-.51-15.28-3.45C715,533.78,702.27,527.4,690,521.24Zm108.35,16.42c1.88-1,3-1.57,3.89-1.52s1.68.63,3.15,1.78l-4,2.51Zm11.21,4.83,5,10.19a23.45,23.45,0,0,1-7.71-8.87Zm-.6-9.25c3.16-1.92,3.81-1.85,6.58.58l-3.21,1.6Zm7.69,6.47,2.67-1.09,9.44,19.17L826.32,559Zm2.5-10.69c1.05-.71,1.7-1,2.27-1,.74.1,1.81.85,3.34,2l-2.35,1.2Zm13.08-3.12a2.86,2.86,0,0,1-1.2,1.65l-.87-.94c-1-1.11-2-2.15-2.93-3.23a5.15,5.15,0,0,0-6.38-1.53q-4.33,1.86-8.69,3.69c-5.83,2.46-11.86,5-17.74,7.62-1.83.81-2.82,1.79-3,3-.31,1.67,1,3.2,2,4.2.74.74,1.55,1.41,2.33,2.06l.08.06a18.82,18.82,0,0,1-22.06-1.67c2-4.26,4.77-8.78,10-11.11,10.43-4.62,21.1-9.16,31.43-13.56l1.2-.51a7.32,7.32,0,0,1,7.76.82,55,55,0,0,1,7.57,7.86A2,2,0,0,1,832.24,525.9Zm-100.06-7.54L736,521.5c.92.6-3.29-.87-4.49-1.28-3.75-1.27-5.27-1.81-8.13-3-15-6-30.06-8.05-48.26-10.09l-2.08-.23c-3-.35-6.07-.71-9.13-.85-2.85-.13-5.09-1.53-7.46-3-.52-.32-1-.65-1.57-1-7.28-4.33-14.79-8.54-22.06-12.61l-6.35-3.57-29-16.32q-12.06-6.78-24.11-13.57c-1.58-.89-2.62-1.47-2.86-2s0-1.58.38-3.41a62.42,62.42,0,0,1,21.52-35.53C642.62,444.6,688.15,482.09,732.18,518.36Zm-80,80.45c-1.78-1.19-3.54-2.4-5.31-3.62-3.41-2.36-6.94-4.8-10.56-7-3.39-2-4.81-4.58-4.61-8.23,0-.47,0-.94,0-1.52,0-.15,0-.31,0-.49l8.08-4.47c1.2.89,2.4,1.76,3.59,2.63,4.19,3.07,8.15,6,12.1,9a3.3,3.3,0,0,1,.93,2.4c-.35,3.23-.87,6.46-1.42,9.87-.14.86-.28,1.74-.42,2.63l-.17-.09A18.74,18.74,0,0,1,652.2,598.81Zm-3.92-25.91-3.12-2.38,14.84-7.9c-.74,4,1.31,6.65,3,8.84,10.94,14,24.26,30.27,40,44.27,8.19,7.27,17.09,14,25.69,20.48l4.61,3.49c5.1,3.87,10.24,7.46,15.68,11.26,2.13,1.49,4.28,3,6.43,4.51-2.6,3.78-4.18,4.9-7.3,4.9-1.36,0-6.1-1.77-7.65-2.78l-6.82-4.43c-5.12-3.3-9.94-6.43-15.29-10-16.36-11.08-33.7-22.19-50-33.29l-6.72-4.56c-.41-.28-.81-.59-1.33-1l-.57-.44c.16-1.18.3-2.38.44-3.59.39-3.26.79-6.62,1.45-9.9.74-3.67.81-7.83-4.23-10.93A109.08,109.08,0,0,1,648.28,572.9Zm372.47,314.58-1.2-2.58q-3.07-6.58-6.2-13.15-2.11-4.46-4.21-8.9c-.2-.43-.38-.88-.59-1.44,1.21.61,2.19,1.1,3.17,1.61,8,4.18,17.79,8.52,29,9.05l.39,0,.61,0c5.39.13,9-.88,11.31-3.21s3.28-5.73,3.15-10.64c-.16-6.56-2.11-12.63-4-18.5l-.68-2.12c-.22-.7-.47-1.37-.78-2.2.9.58,1.6,1,2.26,1.56l12.26,9.62c7.42,5.83,15.1,11.87,22.7,17.72,2.07,1.6,4.27,3.06,6.39,4.48,2.52,1.68,5.12,3.42,7.47,5.35A31.84,31.84,0,0,1,1112,888.69a3.05,3.05,0,0,1-.8,2.23c-2.39,2.17-4.74,4.37-7.1,6.57-9.8,9.14-19.93,18.59-31.78,25.52-5.19,3-10.25,6.14-15.61,9.43l-6.84,4.18-3.28-2.61c-4.18-3.31-8.13-6.44-12.08-9.64a2.68,2.68,0,0,1-.81-1.41C1031.41,910.32,1026,898.71,1020.75,887.48Zm71.46-106.31c-18.37-13.83-37.36-28.13-55.93-42.34-28.61-21.9-57.62-44.28-85.67-65.92l-38.12-29.4-8.38-6.43c-5.13-3.92-10.43-8-15.6-12a53.47,53.47,0,0,0-20.84-10c-18.55-4.51-37.33-9.41-55.5-14.14l-16.28-4.24c-11-2.85-21.64-5.72-30.61-8.16a12.78,12.78,0,0,1-4.11-1.7c-16.62-12.11-33.46-24.49-49.76-36.46l-1.26-.93c.76-.07,1.44-.12,2.1-.12,3.25,0,6.5,0,9.75,0,6.74,0,13.71,0,20.56-.1a20.35,20.35,0,0,1,11,2.89C783,568.76,809.88,582.46,835.81,594l1.94.89a39.2,39.2,0,0,0,6.3,2.51,10.14,10.14,0,0,0,6.2-.34c2.27-1,3-2.28,3.15-3.22s0-2.56-1.87-4.46c-5-5-10.12-10-15.08-14.9l-7.53-7.4c-.59-.58-1.15-1.19-1.81-1.91l-.19-.21,19-8.17a1,1,0,0,0,.53-.56,1,1,0,0,0,0-.77l-.85-1.9c-.74-1.4-.58-2,.87-.28.7.84,2.24,2.71,3.79,4.74,2.21,2.89,4,5.1,6.43,7.82a12.08,12.08,0,0,0,2.07,1.75c.38.29.79.59,1.24.95a1,1,0,0,0,1.56-.44l1-2.91a5.05,5.05,0,0,1,.84.52l10.34,8.64c9.64,8,19.6,16.33,29.3,24.6l7.49,6.38c22.75,19.39,46.27,39.44,69.21,59.39,17.21,15,34.55,30.37,51.33,45.26q9.27,8.24,18.55,16.46,7,6.24,14.06,12.51c7.22,6.43,14.69,13.09,22.08,19.58a29.52,29.52,0,0,0,6.79,4.27c5.4,2.56,10.9,5.11,16.22,7.58,6.86,3.19,14,6.48,20.88,9.81a70.21,70.21,0,0,1,11.57,6.79c40.55,30.2,81.73,61,121.55,90.76l28.68,21.43c.28.22.59.42.89.62a5.63,5.63,0,0,1,1.54,1.26,4.19,4.19,0,0,1,1,2.45c-.55,1.52-1.06,3.06-1.57,4.6-2.07,6.2-4.2,12.59-8.62,18.15l-7.26-5.3-16.25-11.87-18-13.15q-54.66-40-109.29-80l-1.55-1.1c-3.1-2.19-6-4.26-7.3-8.09-.51-1.51-2-2.51-3.44-3.48-.42-.27-.83-.55-1.2-.83Q1106.32,791.78,1092.21,781.17ZM883.65,573.86c31.12,19.16,60.63,38.26,89.72,58.07l-12,9.41L883,574.69A.52.52,0,0,1,883.65,573.86ZM1118.73,760c1.79-2.75,7.09-1,7.09-1,2.82,1.32,5.83,3.86,4.92,6.15a4.73,4.73,0,0,1-6.63,2.29C1121.21,766.12,1116.93,762.76,1118.73,760Zm-131-137.83a18.37,18.37,0,0,1,3-1.33c6.42-1.88,13.25-3.87,20.14-5.6a5.43,5.43,0,0,1,3.8.55c15.53,9.89,31.26,20.05,46.47,29.87l7.84,5.07-24.13,10.51-57.48-38.88Zm-6.43-3.93-16.87-11.41c4.68-2.66,8.41-3.35,12.26-2.32,6.55,1.74,13.1,3.52,19.89,5.36l5.81,1.58Zm73.24,44.59c3.37-1.38,6.75-2.72,10.14-4.07,2.65-1,5.3-2.1,8-3.18,1.56-.63,2.36-.73,3.28.29,1.67,1.83,3.44,3.64,5.3,5.55.55.56,1.11,1.13,1.68,1.73l-2.68,1.36c-3.27,1.67-6.36,3.25-9.43,4.69a3.85,3.85,0,0,1-2.54.19c-4.22-1.34-8.45-2.79-12.93-4.32l-2.93-1A14.74,14.74,0,0,1,1054.56,662.84Zm27.37-18.38-4.34-5.6c-1.09-1.41-2.15-2.85-3.36-4.48l-.78-1.06a2.25,2.25,0,0,1,.89.08c6.81,4.06,14.54,8.67,22,13.46a12.46,12.46,0,0,1,2.75,2.77c.46.55.93,1.12,1.43,1.66,35.77,37.71,63.76,69.44,88.07,99.88l.42.52a22.88,22.88,0,0,1,2.81,4.06c.71,1.47.77,2.81.17,3.67s-1.83,1.27-3.46,1.12a15.92,15.92,0,0,1-5.26-1.47c-11.43-5.42-21.91-10.49-32-15.5a7.19,7.19,0,0,1-3-2.79C1129.73,706.15,1105.43,674.79,1081.93,644.46ZM922.07,533.89c4.24,1.94,17.69,10,24.84,14,35.57,20,72.18,40.57,108.81,61.25A116.21,116.21,0,0,1,1085,632a.35.35,0,0,1-.43.53c-18.73-11.17-161.46-96.47-163.82-98.33C919.54,533.22,921,533.38,922.07,533.89ZM939.32,552l11.85,6.9c.52.3,1,.62,1.61,1l-4.92,1.71a1,1,0,0,0-.35,1.67c.55.52,1,1,1.43,1.4a13.56,13.56,0,0,0,2.3,2c1.58,1,3.21,1.95,4.78,2.87,2.29,1.34,4.65,2.72,6.85,4.23,4.55,3.13,9,3.07,13.67-.18l90.59,55.21c-1.55,3.28-1.3,3.88,1.51,7.57s9,11.83,12.38,16.22a.2.2,0,0,1-.3.25,39.87,39.87,0,0,0-5.93-5c-15-10.12-30.59-20-45.64-29.53l-11-7a28.08,28.08,0,0,0-7.31-3.33c-9.53-2.69-19.26-5.26-28.67-7.75l-2.85-.76c-1.39-.36-2.78-.62-4.39-.92l-2.57-.49a1,1,0,0,0-.57,0c-.87.31-1.8.6-2.77.91a49.23,49.23,0,0,0-7.25,2.75c-2.74,1.38-4.07,2.8-4.19,4.48s1.07,3.4,3.76,5.29l.64.44,16.22,11c20,13.55,40.75,27.57,61.16,41.31a35,35,0,0,0,7.54,3.9c5.59,2,11.77,4.1,19.45,6.5a11.65,11.65,0,0,0,3.31.56,5.2,5.2,0,0,0,2.08-.38c5.09-2.23,10-4.73,15.82-7.72,2.07-1,1.56-1.54,2-2.26a.47.47,0,0,1,.78-.06c5.78,7.58,11.58,15.24,17.28,22.87,12.46,16.7,21,29.35,29.79,45.31.18.33,1.14,2.08,1.81,3.38a.46.46,0,0,1-.64.61c-1.48-.87-3.81-2.26-5-3.07l-11.19-7.59c-37.11-25.19-75.48-51.24-113.16-76.94C953.78,611.59,906.89,581,861.69,553a21.22,21.22,0,0,1-8-8.14c-8.49-15.75-20.37-30.62-36.32-45.44-1-.92-2.91-3.14-4-4.43a.27.27,0,0,1,.32-.41l3.52,1.63,18,8.26,1.11.53c1.82.9,3.88,1.92,6.42,1.4a3.47,3.47,0,0,1,1.37.52l.23.11c10.18,5.16,21.24,8.15,31.93,11l4.23,1.14a30.33,30.33,0,0,1,7,2.7C904.77,531.9,922.34,542.13,939.32,552ZM780.44,443.38l3.43,2.35c17.44,11.94,36,22.57,54,32.84l12.15,7c5.78,3.34,11.34,7.33,16.72,11.19l.6.43c7.67,5.51,15.41,11.2,22.89,16.7l4.35,3.19a.43.43,0,0,1-.39.76l-6.38-2c-11.28-3.48-22.95-7.07-34.36-10.78a41.66,41.66,0,0,1-9.68-5.05C795.27,468.07,743,434.08,689.62,402c-.73-.43-1.44-.89-2.26-1.42l-.33-.2.36-.3c1.22-1,3.07-2.56,1.69-5a16,16,0,0,0-3-3.48c-.35-.34-.7-.67-1-1l-.74-4q4.23,2.26,8.46,4.57c7.43,4,15.12,8.19,22.82,12C738.47,414.63,759.81,429.25,780.44,443.38ZM663.14,361q10-17,20.06-34c.35-.6.74-1.18,1.23-1.91.11-.15.22-.32.33-.49,1.15.66,2.3,1.29,3.43,1.91,5.65,3.09,11,6,14.34,12.32,9.58,18.07,19.78,36.18,29.66,53.7l7.49,13.3a18.17,18.17,0,0,0,3.18,4.19c.32.35,6.66,5.32,2.78,3.22-7.79-4.06-15.56-8.35-23.09-12.51-16.13-8.92-32.8-18.13-50.16-25.3-8.14-4.17-12.14-6.16-12.14-7C660.35,366.69,661.78,363.33,663.14,361ZM682,396c-4.34-1-8.63-3.76-12.23-6.29-.24-.17-1.62-1.09-2.87-1.91a.34.34,0,0,1,.22-.62,47.44,47.44,0,0,0,9.64-.34,1.14,1.14,0,0,1,1.3,1,14.52,14.52,0,0,0,.57,3.09c.47,1.36,2.42,3.21,3.73,4.33A.4.4,0,0,1,682,396Zm-13.9-14.79a.8.8,0,0,1-.46,1.32c-10.14,1.57-15.49-3.75-15.21-5.55C656.61,374.54,665.53,378.21,668.09,381.22Zm-20.23-15c1.45.05,3.13.09,3.62.18a23.63,23.63,0,0,0,4.8.47.44.44,0,0,1,.4.64,15.79,15.79,0,0,0-.64,3,.81.81,0,0,1-1.33.49l-7.1-3.84A.5.5,0,0,1,647.86,366.26Zm-20.61,1.16,1.75-.18c1.57-.16,3.19-.32,4.79-.58a13.8,13.8,0,0,1,8.71,1.92c2.14,1.34,6.82,4.27,6.59,4.39-1.32.7-2.82,1.49-3.36,2.83-1.08,2.66,2,4.27,3.47,5.2,0,0-2.39.91-3.41.48a188.07,188.07,0,0,1-24.35-13.82A30.56,30.56,0,0,0,627.25,367.42Zm-86.9-34.18c.65-1.28,27.72,11.89,40.81,18.93l2,1.08c18,9.64,35.45,19.53,56.19,31.42,6.13,3.52,12.77,5.56,19.19,7.53a54.75,54.75,0,0,1,11.86,4.88c22.51,13.4,50.91,29.95,76.48,48.46,2.89,2.1,10.61,7.4,7.29,6.12a43,43,0,0,1-5.57-3.14c-11.12-7.07-22.62-14.39-34.16-21.22-16-9.47-32.52-18.77-48.47-27.76q-8.62-4.86-17.24-9.73l-.19-.11a9.87,9.87,0,0,0-4.5-1.67l-.4,0c-3.12.33-5.33-1.11-7.9-2.79l-.73-.48c-18.19-11.75-38.34-23.1-63.41-35.73-7.54-3.8-15.25-7.59-22.7-11.25C546,336.35,539.93,334.1,540.35,333.24Zm1.43,7.28,3.84,1.85c3.37,1.62,6.75,3.25,10.1,4.91,29.46,14.61,51.48,26.65,71.42,39l.72.45c2.34,1.45,4.75,2.94,6.93,4.61,1.84,1.42,2.75,2.87,2.57,4.08s-1.51,2.33-3.71,3.13a34.85,34.85,0,0,1-7.4,1.5,36.16,36.16,0,0,1-23.72-4.55c-21.7-12.7-44.51-25.88-69.73-40.3-4.29-2.46-8.78-4.71-13.13-6.88a21.67,21.67,0,0,0,6.11-1c2.15-.66,4.38-1.2,6.55-1.72,1.55-.37,3.16-.76,4.74-1.19C539.94,343.61,540.35,343.27,541.78,340.52Zm-14.64-14.85c-6.69,1.44-9.76.57-16.55-4.51C515.4,321.35,521.2,322.93,527.14,325.67ZM494,328c3.94-1.12,7.34-2.08,10.83-2.95.46-.12,1.51.42,2,.67,7.74,3.89,16,8.11,26.94,13.66l.23.15-2.33.6c-3.72,1-7.24,1.88-10.78,2.66a4.93,4.93,0,0,1-3.05-.44c-6.9-3.63-13.79-7.36-21.08-11.3l-4.67-2.52Zm-48,28.18c9.78-16.29,21.71-25.54,37.41-29,.1,4.09,3.18,5.28,5.69,6.25a13.13,13.13,0,0,1,2.89,1.37c-15.35,9.34-26.62,21.09-34.39,35.86Zm86.55,77.15a24.06,24.06,0,0,0-11.87-2.86,43,43,0,0,0-6.79.6,12.6,12.6,0,0,0-10.68,11.47c-.21,1.89-.3,3.79-.38,5.64,0,.51-.05,1-.07,1.53C493.59,443.23,484,436,476,427.11a47.42,47.42,0,0,1-11.48-23.81c-1.25-7.14-2.2-14.47-3-20.69a16.17,16.17,0,0,1,1.21-9.45c6.42-12.93,16.39-23.71,29.66-32.05,40.79,19.33,79.13,42,108.23,59.84l-.08.06c-8.49,6.72-16.51,13.07-22.89,21.33-5.94,7.68-10,16.87-12.82,28.82l-.64-.36-3.48-1.94-9.41-5.17Q542,438.52,532.57,433.33Zm-9.88,95.1a18.2,18.2,0,0,1,6.77-9.78,46.7,46.7,0,0,1,8.63-4.91c.88-.41,5.83-2.61,6.7-3,8.22-4,21.75-10.11,22-10.22a5,5,0,0,1,2.09-.72,2.36,2.36,0,0,1,1.64.8,10.12,10.12,0,0,1-2.75,1.61S544.83,513,537.47,516.34c-7.05,3.19-12.16,8.64-13.32,14.16a16.68,16.68,0,0,0-.41,8.14C521.06,535.5,522,531.39,522.69,528.43ZM437,481.24c2.52.15,4.91,1.22,7.74,3.47l10.79,8.63c12.21,9.76,24.83,19.86,37.43,29.55,30.94,23.79,60.15,49.76,89.84,76.5,4.72,4.24,9.46,8.62,14,12.85l4.3,4,.19.19c-1.15.57-2.28,1.11-3.41,1.65-3.25,1.56-6.32,3-9.32,4.74-7.56,4.35-15.17,8.91-22.53,13.32l-5.61,3.36c-2,1.19-3.86,2.47-5.76,3.78-6.13,4.23-7.61,6.24-9.06,13.09l-.37-.13c-1-.35-2-.69-2.92-1.09l-17.83-7.64c-11.93-5.11-24.26-10.4-36.42-15.56-2.25-.95-3-1.91-3.06-4.07-.07-1.61-1-3.43-2.94-5.57-9.07-10.2-19.85-22.28-31-34.49-17-18.55-31.15-33.94-44.67-48.45-7-7.48-14.2-14.93-21.19-22.14l-4.85-5a31,31,0,0,0-3.1-2.69l-.72-.57c.75-2.37,2-2.34,4.14-2.06,11.12,1.4,20.42-.22,28.43-5,6.65-3.93,12.62-8.85,11.62-18.08C426.91,482,431.83,480.94,437,481.24ZM325.76,414.47c6.59,3.37,13.34,6.71,19.87,9.93,11.95,5.91,24.31,12,36.16,18.56,18.82,10.38,34.37,19.25,48.87,30.88l2.24,1.82-2.58.46c-3.61.64-7,1.24-10.36,2.06a4.67,4.67,0,0,1-4.51-.82c-26.22-19.3-54.68-36-82.2-52.24l-4-2.34c-3-1.78-6.12-3.51-9.13-5.18-1.78-1-3.55-2-5.32-3-.68-.38-1.36-.8-2.16-1.3C317.75,412.38,321.72,412.41,325.76,414.47Zm-14.24-6.87c-.46.06-.89.13-1.33.21-.78.15-1.57.27-2.36.4a30.24,30.24,0,0,0-6.26,1.45,4.5,4.5,0,0,1-4.53-.36c-2.84-1.7-5.66-3.3-8.65-5l-1.65-.93C295.18,401.17,303.16,402.53,311.52,407.6Zm-41.47,7.85c4.27-2.1,8.68-4.26,13.06-6.26a3.68,3.68,0,0,1,2.73.1c7.35,4.17,14.57,8.39,22.21,12.86l5.2,3a16.84,16.84,0,0,1-1.64,1.08q-3.78,2-7.57,4L297,434.05c-1.65.88-2.66,1.15-4,.29q-8.21-5.4-16.44-10.74l-9.93-6.47Zm-70.69,91.1a35.71,35.71,0,0,0-.43,5l0,.49c-11-8.33-13.17-12.1-9.71-25.1a41.19,41.19,0,0,1,11.34-19.55c3.38-3.23,6.67-6.41,9.69-9.75a14.81,14.81,0,0,1,8.52-4.91c5.15-.95,9.31-2.41,12.88-6.51,4.23-4.84,9-9.52,13.15-13.65a14,14,0,0,0,4.07-8.74c.19-3.17,1.8-5.26,5.23-6.77,2.36-1,4.73-2.1,7.08-3.17a4.13,4.13,0,0,0-1.57,2.81c-.09,1.42.76,2.81,2.53,4.15s3.67,2.59,5.66,3.9l1.63,1.07a19.72,19.72,0,0,1-2,1.31A64.35,64.35,0,0,0,252.2,438.9c-5.48,5.64-11.14,11.28-16.62,16.74-4.84,4.81-9.84,9.79-14.7,14.75A147.12,147.12,0,0,0,207.81,485C203.66,490.6,201,497.44,199.36,506.55Zm-59.84,62.24c23.5-13.12,47.41-26.4,70.53-39.25l7.21-4c.22.15.52.35,1,.62l.35.23a17.9,17.9,0,0,1-3.17,2.09l-.81.47c-13.14,7.85-36.39,20.91-51.78,29.56-9.8,5.5-14.95,8.4-15.62,8.86-4.58,2.95-6.25,3.5-9.84,3.12A12.68,12.68,0,0,1,139.52,568.79Zm29.37,98.27a16.93,16.93,0,0,1-1.44,1.19l-.44.34q-5.28-4.1-10.49-8.09c-8.41-6.46-16.34-12.56-24.25-19s-16-13.4-23.69-20c-4.66-4-9.47-8.13-14.24-12.16a4.88,4.88,0,0,1-2-4.62c.27-2.68.53-5.36.8-8,.44-4.51.9-9.16,1.4-13.74.41-3.71.89-7.43,1.4-11.37.19-1.44.38-2.9.57-4.41l.33.11a6.67,6.67,0,0,1,1.9.86c7.71,6.22,14.54,12,20,19.47,11.74,16.14,23.93,32.35,35.73,48q7.68,10.23,15.35,20.46C173.21,660.62,173,663,168.89,667.06ZM296,714.44c-1.33.45-25.87-6.53-33-8.88-15.86-5.24-24.33-9.45-26.89-11.12s-2.78-1.88-3.11-4c-.16-1,2.05-4.63,13.37-.25,20.19,7.81,40.18,16.47,46.52,19.92C297.69,712.73,297.33,714,296,714.44Zm79.39,26.11c-1.61-.84-3.54-5.18-3.56-5.22-1.22-4-35-24.27-42.77-29.46a111.67,111.67,0,0,0-12.76-6.65c-15.57-5.73-31.42-11.79-46.74-17.65-14.7-5.62-36.05-13.84-51-19.36a20.67,20.67,0,0,0-7.26-1.42,18.61,18.61,0,0,0-4.21.5,180.53,180.53,0,0,1-17.91,3.31c-4.22.68-9.14,2.33-10.54,8.91l-6-2,.05-.07c.55-.74,1-1.41,1.57-2.05,4.27-5.2,4.37-10.83.3-16.28q-9.66-12.95-19.33-25.87l-13.7-18.34c-.79-1-1.56-2.12-2.37-3.23l-.74-1c1.67-2.38,4.22-6.6,1.1-10.9-2.92-4-7.21-3.48-11.13-2.46l-6-8c.62-.6,1.22-1.21,1.8-1.82a22.58,22.58,0,0,1,5.29-4.46,13,13,0,0,1,12.18-.33c4.17,2.23,8.09,4.72,12.24,7.36,1.58,1,3.17,2,4.78,3-.13,1.81-.24,3.6-.35,5.39-.32,5-.61,9.69-1.11,14.47a6.82,6.82,0,0,0,3.16,7.05q15.57,11,31.08,22.16,13.08,9.35,26.19,18.67a22.13,22.13,0,0,0,5,2.43l33.46,12.71c21,8,42.74,16.23,64.1,24.39a36.64,36.64,0,0,1,7.9,4.23c9.64,6.75,19.4,13.66,28.85,20.34q10.9,7.73,21.83,15.42a38.81,38.81,0,0,1,11.09,12A74.07,74.07,0,0,1,375.39,740.55Zm95.72-5.25q-1.2,14.46-2.35,28.93c-.36,4.55-.57,9-.79,13.73q-.12,2.56-.24,5.19a5.46,5.46,0,0,1-1.1-.48c-16.75-10-34.5-18.84-51.68-27.33q-6.63-3.27-13.26-6.59a18.83,18.83,0,0,1-8.26-7.21c-2.55-4.29-6.19-8-11.45-11.76-20.49-14.55-37.22-26.37-52.64-37.21a28.67,28.67,0,0,0-6.29-3.17l-44.24-16.78q-26.44-10-52.89-20.06a30.79,30.79,0,0,1-6.67-3.44c-15.84-11.22-31.9-22.7-47.42-33.81l-6.25-4.47c-.77-.54-1.51-1.16-2.29-1.81l-.8-.67c.14-1.77.27-3.54.4-5.31.35-4.76.71-9.69,1.25-14.5.37-3.21-.51-5.13-3-6.61-3.4-2-6.8-4.14-10.39-6.4l-3.51-2.2,1.71-1.12c1.9-1.25,3.54-2.33,5.24-3.34,10.47-6.25,21.38-12.34,31.93-18.23C196.38,544.92,207,539,217.24,532.9c2.65-1.58,6-3.55,8-7.34a1,1,0,0,0-.16-1.18c-.87-.89-1.79-1.87-2.75-2.89-2.4-2.54-5.11-5.41-7.46-7.51s-4.69-3.85-7.25-5.77l-2.84-2.14c.44-1.25.86-2.51,1.28-3.77,2.21-6.66,4.3-12.95,9.45-18,3.69-3.61,7.1-7.36,10.7-11.33,1.39-1.53,2.79-3.07,4.22-4.61l2,1.36c1.74,1.2,3.33,2.3,4.9,3.42l69.48,49.63,3.64,2.6c4.62,3.3,4.86,4.25,2.39,9.25-.82,1.66-1.77,3.3-2.69,4.9-.76,1.31-1.54,2.67-2.26,4a33.52,33.52,0,0,0-2.32,5.53c-2.43,7.85-.78,13.93,5,18.58,3.07,2.46,6,5.22,8.84,7.89l2.7,2.52c3.43,3.18,3.69,3.9,1.43,8.33l-.44-.23c-1-.48-1.92-1-2.86-1.47l-11.13-6q-10.76-5.82-21.5-11.61l-.68-.39c-1.44-.85-3.41-2-6-.5a1,1,0,0,0-.5.87c0,.56,0,1.12,0,1.7a38.91,38.91,0,0,0,.05,4c.22,2.47.47,4.94.72,7.42.42,4.07.85,8.28,1.08,12.42.24,4.33,1.84,6.89,5.55,8.83,23.37,12.28,47.08,24.88,70,37.08l32.56,17.3q37.53,19.93,75.05,39.9a34.22,34.22,0,0,1,5.17,3.31,7.72,7.72,0,0,1,2.84,7C472.72,715.77,471.91,725.54,471.11,735.3ZM582.33,892.62c-2.28-.27-4.19-1.38-6.4-3.71q-4.86-5.13-9.7-10.28c-10.11-10.74-20.56-21.85-31.14-32.48-16.49-16.59-34.35-34.08-56.2-55a16.94,16.94,0,0,1-5.61-13.56c.22-7.19.77-14.5,1.3-21.58l.13-1.72c.27-3.62.64-7.27,1-11.13.13-1.28.26-2.58.39-3.92L680.31,896.52H679.1c-3,0-5.83,0-8.72,0-15.13-.39-30.76-.82-47.8-1.33l-3.18-.09c-8.06-.24-16.4-.49-24.58-.92-2.69-.15-5.43-.55-8.08-.94C585.27,893,583.8,892.79,582.33,892.62Zm143.57,85c-3-1.09-10.46-7.94-11.51-8.66l22,8.16C735.05,977,729.27,978.88,725.9,977.64Zm437.66,172.88c-2.57-.88-5.37-2-5.37-2-14.7-5.46-29.9-11.11-44.8-16.8a74,74,0,0,1-7.43-3.51c-1.15-.6-2.3-1.2-3.46-1.77q-16-7.83-32-15.71c-39.46-19.47-80.27-39.6-121.29-57.56-42-18.4-89.7-39.26-137.18-56.5-19.65-7.13-39.78-14-59.25-20.57-14.6-5-29.69-10.08-44.47-15.29-22.89-8.08-46-16.67-68.42-25l-11.72-4.35C616,927,607,921.36,599.88,913.81c-2.83-3-5.83-5.92-8.72-8.75-1.72-1.68-3.44-3.36-5.14-5.07a9.3,9.3,0,0,1-.89-1.09l5.89.33c6.09.34,11.83.66,17.67.89,3.38.14,6.82.18,10.15.23,2.92,0,5.94.08,8.9.18q14.61.5,29.22,1.08l14.12.53c1.19.05,2.35.08,3.5,0,8.49-.35,17.26.79,27.6,3.57q17.9,4.82,35.78,9.6c52.16,14,106.1,28.41,158.71,44.16,6.72,2,13.29,1.72,18.26,1.23,4.71-.46,7.82-3.65,8.5-8.42a.69.69,0,0,1,1.12-.45c77.82,62.33,155.59,126.49,240.3,198.31C1165.76,1150.82,1165.39,1151.14,1163.56,1150.52Zm-5.66-13.46-28-23.64-10.79-9.13a.81.81,0,0,1,.52-1.42h2.48c6.05,0,12.3,0,18.44.09.84,0,2.07,1,2.66,1.53,5.48,4.55,11.14,9.25,16.71,14.16a9.05,9.05,0,0,0,8.36,2.2c6.13-1.11,12.23-2,18.68-3l2.83-.41a.85.85,0,0,1,.72,1.46l-.77.75c-2.68,2.58-5.45,5.25-8.32,7.69-2.61,2.21-5.31,4.94-4.75,9.41l-.94.5c-1.1.58-2.14,1.13-3.2,1.64A13.77,13.77,0,0,1,1157.9,1137.06Zm76.45-19.24c-1.14.7-2.22,1.37-3.32,1.94-19.25,10-36.82,19-53.71,27.73-2.43,1.25-3.63,1.84-4.5,1.72s-2-1.12-4-3l-.39-.38c3.63-.28,6.43-1.79,9.14-3.25.88-.47,1.72-.92,2.58-1.33a3.66,3.66,0,0,0,2.19-4.79c-.44-1.32,0-2.43,1.32-3.72,8.58-8,17.14-16.12,25.77-24.25l7.08-6.67,18.39,15.6Zm-56.48-69.94.38.23c.78.47,1.49.9,2.17,1.35,11.29,7.47,22,16.87,33.84,29.59,8.22,8.86,16.83,17.61,25.16,26.07q5.77,5.87,11.53,11.75c.8.83,1.56,1.67,2.44,2.66l.74.81-1.32,1.36c-1.59,1.62-3.09,3.16-4.71,4.52a3.25,3.25,0,0,1-2.44.55,70.68,70.68,0,0,1-6.38-3.45l-1.41-.82,4.1-2c2.35-1.39,3.56-2.35,3.7-3.7s-.87-2.51-2.76-4.21c-6.53-5.84-41.39-38.87-41.39-38.87q-11.88-10.62-23.77-21.23a11.3,11.3,0,0,0-1.79-1.25l0,0Zm-6.33-.83,0,.08a4.07,4.07,0,0,1-.38,1,5.51,5.51,0,0,0-1.05,2.94,53.87,53.87,0,0,1-3.45-6.63l-.62-1.33c-.16-.33-.3-.64-.42-1Zm-13.73-8.22c1.79,3.67,3.48,7.13,4.93,10.75a27.82,27.82,0,0,0,7.84,10.3c2.33,2.07,4.63,4.18,7.07,6.41l2,1.8-9,2.22-35.49-29.74c4-2.3,11.52-4.44,20.71-5.85C1156.48,1036.11,1157.15,1037.47,1157.81,1038.83Zm-36.39-34.34q14.32,12.25,28.68,24.49c.15.13.3.29.48.48l-21.07,6.39-5-4.15c-3.87-3.18-7.86-6.46-11.76-9.74-42.17-35.49-89.3-73.22-144.08-115.35a51.6,51.6,0,0,1-10.06-10.13c-7.51-10-15.12-19.93-22.61-29.45a20.12,20.12,0,0,0-6.14-5.22c-64.88-34.85-132-70.88-200.28-104.6-26.38-13-53.39-25.86-79.51-38.28q-18.1-8.59-36.18-17.24c-.51-.24-1-.5-1.6-.79-1.18-.61,0-.88.79-.78,1.59.22,4.75.65,5.32-1.84.29-1.25-.37-2.82-2.07-4.94-1.54-1.9-3.19-3.75-4.78-5.53-.88-1-1.76-2-2.63-2.95-.45-.52-.85-1.08-1.36-1.79l-.24-.34,26.46-17,1.34.86c1.31.85,2.59,1.67,3.89,2.49l7.36,4.63c8,5,16.3,10.26,24.5,15.32,2.2,1.37,5.53,3.42,9.83.42a1,1,0,0,0,.41-.66,1,1,0,0,0-.18-.75c-.35-.47-.66-.93-1-1.38a19.51,19.51,0,0,0-2.17-2.8l-7.81-8c-10.11-10.31-20.57-21-31-31.32-6.5-6.43-13.25-12.82-19.79-19q-4.75-4.5-9.5-9a13,13,0,0,1-1-1.14l-.15-.17,9.93-22.45c12.47,8.52,25.61,16.41,38.33,24,5.16,3.1,10.48,6.3,15.69,9.5l.66.4c9.59,5.88,9.59,5.88,14,16.49l1.57,3.8c8,19.13,16.17,38.91,24.15,58.41a19.64,19.64,0,0,0,8.24,9.41c12.35,7.92,25,15.94,37.12,23.68,32.11,20.43,65.31,41.56,97.42,63.13,37.74,25.36,78.36,53.88,127.84,89.76,24.2,17.54,47.11,36.36,68.5,54.13C1075.26,965,1098.72,985.07,1121.42,1004.49Zm-4.17-111.15a14.15,14.15,0,0,1-4.1,6.83c-10.09,9.53-20.08,18.67-31.42,25.85-5.91,3.75-10.82,7.49-16.78,11.26l-8.28,4.6-2-1.49.08-.14,5.55-3.45c5.23-3.26,10.63-6.63,16-9.76,9.28-5.38,17.26-12.56,25-19.5l1.55-1.4c1.6-1.44,3.18-2.91,4.76-4.39a81.49,81.49,0,0,0,6.88-6.74c.69-.79,1.32-1.38,2-2.07A.42.42,0,0,1,1117.25,893.34Zm0-75.55-.18.87c-3,13.72-2.32,27.38-1.13,40.1.13,1.36.2,2.77.26,4.13.12,2.5.52,5.05.75,7.6.41,4.62.62,11.45-1,12.75a25.89,25.89,0,0,0-2.74-5,21.87,21.87,0,0,0-4.27-5.13c2.09-3.73,2.43-8,1-13.06a100.5,100.5,0,0,0-3.64-10.26c-.63-1.6-1.28-3.26-1.88-4.9s-1.33-3.52-2-5.28a125.21,125.21,0,0,1-4.74-13.87c-.84-3.34-.16-7.38.53-10.53.87-4,2.12-8,3.33-11.89.5-1.61,1-3.22,1.49-4.84.13-.47.3-.93.49-1.47,6.85,4,14.66,10.39,17.12,13.87C1118.32,812.63,1117.78,815.25,1117.24,817.79Zm71.61,60.9c-.16,1.07-.31,2.16-.5,3.25l-2-1c-2.18-1.12-4.3-2.2-6.41-3.31l-15.36-8.08c-13.33-7-27.11-14.29-40.73-21.32-2.66-1.36-3.58-2.86-3.66-5.9-.21-8.27,1.16-16.36,2.59-23.94.39-2.08.8-2.39.92-2.44l.12,0c.24,0,.84.16,2.22,1.17,16.8,12.28,33.58,24.58,50.5,37l16.24,11.9C1190.13,869.84,1189.51,874.15,1188.85,878.69Zm14.2,9.3a61.37,61.37,0,0,1-7.81-4.62,3.32,3.32,0,0,1-1.19-2.3c.36-2.57.94-5.08,1.56-7.75.13-.58.27-1.17.4-1.76,4.63,3.05,7.52,8.61,8.63,16.57A3.78,3.78,0,0,1,1203.05,888Zm91.18,54.35-85.36-49.52c2.57-2.63,1.57-6.1,1.05-7.87-.69-2.4-1.5-4.79-2.28-7.11l-.45-1.33,4.43,3.24q7.44,5.43,14.86,10.86l6.86,5c15.82,11.58,43.45,30.87,59.26,42.46,1.25.92,2.15,1.58,2.26,2A5,5,0,0,1,1294.23,942.34Zm61.89,33.57c-20.85-13.45-59.65-41.06-66.46-46.45l2.66-4.67a122.32,122.32,0,0,1,20,5.09l-.14.32-1,2.14c-2.13,4.61-2,5.15,2.1,8.34,9.34,7.26,34.72,26.52,43.94,33.92C1361.29,977.88,1360.15,978.51,1356.12,975.91Zm35.3,21.14-4.72,5.37c-.32.37-2,2.14-3.49,1.18-.74-.48-1.49-1-2.24-1.42-3.7-2.32-7.53-4.73-10.49-7.78-3.44-3.56-3.15-4.49.25-8.66.56-.69,1-1.38,1.68-2.26.32-.44.66-.92,1.06-1.46a1,1,0,0,0-.12-1.31,140.87,140.87,0,0,0-12.63-10.28c-2.1-1.57-4.26-3.2-6.33-4.85-4.5-3.58-9.12-7.16-13.6-10.62l-6-4.67-18.89-14.7,2.22-4.4.29.16c.78.45,1.46.83,2.12,1.26l4,2.69c2.27,1.52,4.62,3.09,7,4.56a84,84,0,0,1,15.32,12.39c6.58,6.62,13.35,13.28,19.9,19.71q7.07,7,14.1,13.93c2.57,2.56,5,5.18,7.59,8Zm-4.92-13.76-15-15.53,2.39-1.88c2.72-2.14,5.58-4.4,8.45-6.64,3.44-2.68,7.1-5.53,10.8-8.31.28-.21.56-.44.83-.66,1.69-1.35,2.81-2.15,4.68-1.42,1.22.47,3.36-.55,4.07-1.66.3-.46.62-.91,1-1.37,1.29-1.8,2.71-3.78,2.65-6.59l3.57,2.79C1402.6,955.84,1395,968.94,1386.5,983.29ZM700.3,734c-1.84-.85-5.13,1.5-3.13,3.07s10,5.26,15.5,7.2,6.83.23,5.5-1.15S704,735.69,700.3,734Zm38.87,18.83c-2.17-1.33-12.83-6.35-15-7.38-1.34-.65-3.53,1-2,2.38s10.16,5.5,13.66,7S741.33,754.17,739.17,752.83Zm19.66,10c-3-1.83-10.16-5.77-11.66-6.3s-7.42-.41-4.19,1.54c1.49.91,10.35,5.93,13.19,6.6S761.83,764.65,758.83,762.83ZM911.39,610c-1.32-1.1-4.54,0-3.25,1.77s7,6.5,11.08,9.3,5.54,1.72,4.75.31S914,612.2,911.39,610Zm17,14.62c-.95-.83-3.12,0-2.19,1.47s7.09,6.72,9.62,8.72,4.65.7,3.17-.86S929.91,625.94,928.39,624.63Zm16.32,14.11c-1.11-.76-6-2-3.77.3,1,1.07,7.16,7.12,9.33,8.29s4.63,1.27,2.59-.88S945.82,639.5,944.71,638.74Z"/></g><g id="Thrusters"><path d="M691.48,917c-.91-1.65-5.53-.82-5.7,1.51s.58,4.57,4.5,3.79S692,917.87,691.48,917ZM130.76,595.24l5,6.3c2.07-1.13,1.41-4.44.38-6.07S130.55,594.17,130.76,595.24Z" fill="#007aff"/></g></g></svg>