<svg xmlns="http://www.w3.org/2000/svg" viewBox="0 0 1500 1500"><title>Orca</title><g id="Orca"><g id="Colour"><path d="M1472.49,1192.27a312.47,312.47,0,0,0-16-44.3c-11.86-26.67-29.1-54.66-42.85-75-13.06-19.31-39.4-49.78-49.46-60.21-15.17-15.72-29.66-32.09-44.82-47.82-9.94-10.3-20.58-19.92-30.85-29.91-5.52-5.37-10.34-11.66-16.51-16.09s-8.43-9.89-9.15-17.14c-.75-7.54-.77-15.53-6.11-22-.94-1.13-1.18-3-1.36-4.57-.84-7-1.4-14-2.33-21-2.09-15.69-4.51-31.34-6.45-47-1.18-9.52-3.14-18.29-11.39-24.63-6.45-5-12.29-10.72-18.43-16.08-8.33-7.26-16.63-14.56-25.08-21.67-4.11-3.46-8.42-2.64-11.31,1.84q-11.5,17.82-22.92,35.7c-5.2,8.11-10.38,16.22-15.49,24.2C1023.37,702.9,866.78,585,794.72,534.7c-20-14-41-26.32-61.46-39.57a9.69,9.69,0,0,1-3.73-4.11c-2.07-5.21-4.44-10.47-5.38-15.93-4-23.2-7.48-46.48-11.18-69.72-1.36-8.55-2.48-17-11.06-22.27-9.29-5.77-18-12.42-27-18.7Q654.6,350.18,634.3,336c-4.92-3.43-7.06-3-10.29,1.82a52.26,52.26,0,0,0-2.38,4.73c-6.53,12.44-13.07,24.87-20,38.16-5.28-5.83-9.79-11.26-14.78-16.22-9.42-9.38-19-18.64-28.75-27.67a144.3,144.3,0,0,0-15.95-12.92c-9.88-6.84-20-13.44-30.21-19.71-17.15-10.47-34.52-20.57-51.76-30.88-14.63-8.75-29.05-17.88-43.92-26.19-5.12-2.87-6.86-6.85-7.91-11.86-.48-2.27-1-4.54-1.52-6.8-2.8-11.66-5.5-23.33-8.5-34.94-.83-3.19-1.68-7.52-4-9-12.24-7.83-24.87-15-37.52-22.2-5.09-2.89-7.74-1.89-10.09,3.54-4.63,10.68-9,21.48-13.56,32.53-14.83-11.07-31.7-15.2-49.61-15.2-18.63,0-36.11,5.47-52.9,13.05-23.92,10.82-47.68,22-71.44,33.15-1.25.59-2.74,2.63-2.61,3.83.42,3.81-1.69,5.52-4.47,7.07-11.87,6.61-23.79,13.11-35.53,19.93-4.4,2.56-8.34,5.39-13.91,3.34-1.48-.55-4,.35-5.46,1.37-15.56,10.6-30.93,21.49-46.53,32-12.53,8.47-24.81,17.23-35,28.55-7.15,8-11.13,17.37-9.76,28.15.8,6.33,3.19,12.44,4.73,18.69,6.46,26.4,12.76,52.83,19.42,79.17,1.16,4.57,2.85,9.68,6,12.93,8.18,8.5,17.12,16.29,26.05,24,14.07,12.2,28.45,24,42.57,36.18,12.15,10.46,24,21.31,36.21,31.68q25.63,21.71,51.69,42.9c8.78,7.15,18,13.81,27,20.69l14.37,11c-11.93,2.64-22.9,5.29-34,7.47-23.39,4.6-46.84,8.91-70.23,13.52-2.21.44-5.89,2.08-5.94,3.28-.18,4.27-2.37,9.27,2.17,12.77,5.41,4.16,10.88,8.26,16.36,12.34,16.29,12.15,32.53,24.36,49,36.34,4,2.93,8.37,6.62,13,7.32,14.79,2.23,29.77,3.27,44.69,4.7,8.82.84,17.68,1.42,26.49,2.38,11.82,1.28,23.6,3,35.43,4.19,12.59,1.3,25.25,2,37.8,3.55,4.07.5,8.6,1.91,11.74,4.4,11.52,9.12,25.49,8.32,38.57,9.12,6.8.42,10.11,2.82,13.84,7.22a83.6,83.6,0,0,0,11,10.88c6,4.87,12.24,9.44,18.64,13.75q13.52,9.11,27.43,17.57c3.7,2.24,8.33,3,11.84,5.45,13.58,9.44,26.78,19.41,40.28,29,25.51,18,51.21,35.77,76.7,53.83,32.09,22.74,64,45.7,96.09,68.51,23.85,17,47.79,33.81,71.63,50.79a137.27,137.27,0,0,1,12.57,9.95c3.83,3.48,6.71,8.14,10.85,11.1,11,7.88,22.5,15.13,34.22,22.91-11.33,4.8-22.5,9.55-33.68,14.28-15,6.34-30,12.84-45.11,18.89-5.31,2.13-5.42,6.78-5.47,10.64,0,2.43,2.85,5.74,5.29,7.22q26.28,15.84,53,31c6.41,3.66,13,6.21,20.92,6.12,37.94-.45,75.89-.22,113.84-.16a21.56,21.56,0,0,1,6.33,1c7.07,2.25,13.92,5.94,21.13,6.79,11.15,1.33,22.68,3.57,33.63-1.86.83-.41,2.38.12,3.38.63,15.66,8,31,16.62,47,24.12,25.71,12.12,51.7,23.62,77.65,35.19,12,5.33,23.93,10.66,36.18,15.22,31.18,11.6,62.45,23,95,30.44,13.27,3,26.57,6,40,8.22,14.75,2.4,29.66,3.84,44.5,5.69,14.66,1.82,29.28,4.44,44,5.23,18.62,1,37.18.4,55.49-5,18.77-5.57,32.7-15.66,37.33-35.21C1477.41,1218.55,1476,1205,1472.49,1192.27Z" fill="#eaeaea"/><path d="M1472.49,1192.27a312.47,312.47,0,0,0-16-44.3c-11.86-26.67-29.1-54.66-42.85-75-13.06-19.31-39.4-49.78-49.46-60.21-15.17-15.72-29.66-32.09-44.82-47.82-9.94-10.3-20.58-19.92-30.85-29.91-5.52-5.37-10.34-11.66-16.51-16.09s-8.43-9.89-9.15-17.14c-.75-7.54-.77-15.53-6.11-22-.94-1.13-1.18-3-1.36-4.57-.84-7-1.4-14-2.33-21-2.09-15.69-4.51-31.34-6.45-47-1.18-9.52-3.14-18.29-11.39-24.63-6.45-5-12.29-10.72-18.43-16.08-8.33-7.26-16.63-14.56-25.08-21.67-4.11-3.46-8.42-2.64-11.31,1.84q-11.5,17.82-22.92,35.7c-5.2,8.11-10.38,16.22-15.49,24.2C1023.37,702.9,866.78,585,794.72,534.7c-20-14-41-26.32-61.46-39.57a9.69,9.69,0,0,1-3.73-4.11c-2.07-5.21-4.44-10.47-5.38-15.93-4-23.2-7.48-46.48-11.18-69.72-1.36-8.55-2.48-17-11.06-22.27-9.29-5.77-18-12.42-27-18.7Q654.6,350.18,634.3,336c-4.92-3.43-7.06-3-10.29,1.82a52.26,52.26,0,0,0-2.38,4.73c-6.53,12.44-13.07,24.87-20,38.16-5.28-5.83-9.79-11.26-14.78-16.22-9.42-9.38-19-18.64-28.75-27.67a144.3,144.3,0,0,0-15.95-12.92c-9.88-6.84-20-13.44-30.21-19.71-17.15-10.47-34.52-20.57-51.76-30.88-14.63-8.75-29.05-17.88-43.92-26.19-5.12-2.87-6.86-6.85-7.91-11.86-.48-2.27-1-4.54-1.52-6.8-2.8-11.66-5.5-23.33-8.5-34.94-.83-3.19-1.68-7.52-4-9-12.24-7.83-24.87-15-37.52-22.2-5.09-2.89-7.74-1.89-10.09,3.54-4.63,10.68-9,21.48-13.56,32.53-14.83-11.07-31.7-15.2-49.61-15.2-18.63,0-36.11,5.47-52.9,13.05-23.92,10.82-47.68,22-71.44,33.15-1.25.59-2.74,2.63-2.61,3.83.42,3.81-1.69,5.52-4.47,7.07-11.87,6.61-23.79,13.11-35.53,19.93-4.4,2.56-8.34,5.39-13.91,3.34-1.48-.55-4,.35-5.46,1.37-15.56,10.6-30.93,21.49-46.53,32-12.53,8.47-24.81,17.23-35,28.55-7.15,8-11.13,17.37-9.76,28.15.8,6.33,3.19,12.44,4.73,18.69,6.46,26.4,12.76,52.83,19.42,79.17,1.16,4.57,2.85,9.68,6,12.93,8.18,8.5,17.12,16.29,26.05,24,14.07,12.2,28.45,24,42.57,36.18,12.15,10.46,24,21.31,36.21,31.68q25.63,21.71,51.69,42.9c8.78,7.15,18,13.81,27,20.69l14.37,11c-11.93,2.64-22.9,5.29-34,7.47-23.39,4.6-46.84,8.91-70.23,13.52-2.21.44-5.89,2.08-5.94,3.28-.18,4.27-2.37,9.27,2.17,12.77,5.41,4.16,10.88,8.26,16.36,12.34,16.29,12.15,32.53,24.36,49,36.34,4,2.93,8.37,6.62,13,7.32,14.79,2.23,29.77,3.27,44.69,4.7,8.82.84,17.68,1.42,26.49,2.38,11.82,1.28,23.6,3,35.43,4.19,12.59,1.3,25.25,2,37.8,3.55,4.07.5,8.6,1.91,11.74,4.4,11.52,9.12,25.49,8.32,38.57,9.12,6.8.42,10.11,2.82,13.84,7.22a83.6,83.6,0,0,0,11,10.88c6,4.87,12.24,9.44,18.64,13.75q13.52,9.11,27.43,17.57c3.7,2.24,8.33,3,11.84,5.45,13.58,9.44,26.78,19.41,40.28,29,25.51,18,51.21,35.77,76.7,53.83,32.09,22.74,64,45.7,96.09,68.51,23.85,17,47.79,33.81,71.63,50.79a137.27,137.27,0,0,1,12.57,9.95c3.83,3.48,6.71,8.14,10.85,11.1,11,7.88,22.5,15.13,34.22,22.91-11.33,4.8-22.5,9.55-33.68,14.28-15,6.34-30,12.84-45.11,18.89-5.31,2.13-5.42,6.78-5.47,10.64,0,2.43,2.85,5.74,5.29,7.22q26.28,15.84,53,31c6.41,3.66,13,6.21,20.92,6.12,37.94-.45,75.89-.22,113.84-.16a21.56,21.56,0,0,1,6.33,1c7.07,2.25,13.92,5.94,21.13,6.79,11.15,1.33,22.68,3.57,33.63-1.86.83-.41,2.38.12,3.38.63,15.66,8,31,16.62,47,24.12,25.71,12.12,51.7,23.62,77.65,35.19,12,5.33,23.93,10.66,36.18,15.22,31.18,11.6,62.45,23,95,30.44,13.27,3,26.57,6,40,8.22,14.75,2.4,29.66,3.84,44.5,5.69,14.66,1.82,29.28,4.44,44,5.23,18.62,1,37.18.4,55.49-5,18.77-5.57,32.7-15.66,37.33-35.21C1477.41,1218.55,1476,1205,1472.49,1192.27Z" fill="none" stroke="#000" stroke-linejoin="round" stroke-width="8"/></g><g id="Detail"><path d="M71.32,435.21c2.17,9,4.05,17.37,6.25,25.63.76,2.88,1.71,6.1,3.63,8.18,3.8,4.1,8.27,7.59,12.58,11.19,9.43,7.85,18.93,15.61,28.4,23.42,10.16,8.38,20.24,16.85,30.5,25.11,3.59,2.88,16,13,18.55,15.33,5.13,4.56,10.45,8.93,15.73,13.32,8.28,6.88,16.59,13.71,25.12,20.74,2.71-6.78,5.41-13.51,8-20Z" fill="#ff7100"/></g><g id="Shadows" opacity="0.2"><path d="M1199.63,1000.1s-28.27-6.09-141.69-69.16S753.36,724.63,702,681.12s-105.6-72.84-105.6-72.84-260.58-177-300.67-195.87-150-28.22-150-28.22v5.86c0,5.86-3.2,9.37-11,4.2s-45.72-24-45.72-24L34.69,380.45l-16.5-10.18-1.45,7.48,17.39,84.18L240.52,632.36l-45,8.18s51.33,47.43,68,64.76-16.65,23.13-2.93,23.91,119.78,11.65,119.78,11.65l23,9.72,424.84,300.63-24.22,10.49s45.73,39.87,65.29,58-19.56,21.46-8.31,21.52,125.15,2.44,136.32,6.55,138.68,58.36,241.59,83.89,155-36.18,164.75-44.49S1199.63,1000.1,1199.63,1000.1ZM230.74,208.85c3.67,2.44,21.51,13.39,21.51,13.39l129.07,34.28,25.42,14.67h5.87l-19.56-82.87L330.9,210.08s0,12.35-4.09,12.16c-4.83-.22-14.38-13-22.4-13.35-21.13-.93-48.56-2.09-57.05-2.24C232.94,206.41,227.07,206.41,230.74,208.85Z"/></g><g id="Outline"><path d="M1472.49,1192.27a312.47,312.47,0,0,0-16-44.3c-11.86-26.67-26.14-50.31-42.52-74.44-9.48-14-18.15-24.75-49.79-60.76-14.42-16.41-29.66-32.09-44.82-47.82-9.94-10.3-20.58-19.92-30.85-29.91-5.52-5.37-10.34-11.66-16.51-16.09s-8.43-9.89-9.15-17.14c-.75-7.54-.77-15.53-6.11-22-.94-1.13-1.18-3-1.36-4.57-.84-7-1.4-14-2.33-21-2.09-15.69-4.51-31.34-6.45-47-1.18-9.52-3.14-18.29-11.39-24.63-6.45-5-12.29-10.72-18.43-16.08-8.33-7.26-16.63-14.56-25.08-21.67-4.11-3.46-8.42-2.64-11.31,1.84q-11.5,17.82-22.92,35.7c-5.2,8.11-10.38,16.22-15.49,24.2C1034,710.36,809.8,544.39,794.72,534.7Q764,514.93,733.26,495.13a9.69,9.69,0,0,1-3.73-4.11c-2.07-5.21-4.44-10.47-5.38-15.93-4-23.2-7.48-46.48-11.18-69.72-1.36-8.55-2.48-17-11.06-22.27-9.29-5.77-18-12.42-27-18.7Q654.6,350.18,634.3,336c-4.92-3.43-7.06-3-10.29,1.82a52.26,52.26,0,0,0-2.38,4.73c-6.53,12.44-13.07,24.87-20,38.16-5.28-5.83-9.79-11.26-14.78-16.22-9.42-9.38-19-18.64-28.75-27.67a144.3,144.3,0,0,0-15.95-12.92c-9.88-6.84-20-13.44-30.21-19.71-17.15-10.47-34.52-20.57-51.76-30.88-14.63-8.75-29.05-17.88-43.92-26.19-5.12-2.87-6.86-6.85-7.91-11.86-.48-2.27-1-4.54-1.52-6.8-2.8-11.66-5.5-23.33-8.5-34.94-.82-3.19-1.68-7.52-4-9-12.24-7.83-24.87-15-37.52-22.2-5.09-2.89-7.74-1.89-10.09,3.54-4.63,10.68-9,21.48-13.56,32.53-14.83-11.07-31.7-15.2-49.61-15.2-18.63,0-36.11,5.46-52.9,13.05-23.92,10.82-47.68,22-71.44,33.15-1.25.59-2.74,2.63-2.61,3.83.42,3.81-1.69,5.52-4.47,7.07-11.87,6.61-23.79,13.11-35.53,19.93-4.4,2.56-8.34,5.39-13.91,3.34-1.48-.55-4,.35-5.46,1.37-15.56,10.6-30.93,21.49-46.53,32-12.53,8.47-24.81,17.23-35,28.55-7.15,8-11.13,17.37-9.76,28.15.8,6.33,3.19,12.44,4.73,18.69,6.46,26.4,12.76,52.83,19.42,79.17,1.16,4.57,2.85,9.68,6,12.93,8.18,8.5,17.12,16.29,26.05,24,14.07,12.2,28.45,24,42.57,36.18,12.15,10.46,24,21.31,36.21,31.68q25.63,21.71,51.69,42.9c8.78,7.15,18,13.81,27,20.69l14.37,11c-11.93,2.64-22.9,5.29-34,7.47-23.39,4.6-46.84,8.91-70.23,13.52-2.21.44-5.89,2.08-5.94,3.28-.18,4.27-2.37,9.27,2.17,12.77,5.41,4.16,10.88,8.26,16.36,12.35,16.29,12.14,32.53,24.35,49,36.33,4,2.93,8.37,6.62,13,7.32,14.79,2.23,29.77,3.27,44.69,4.7,8.82.84,17.68,1.42,26.49,2.38,11.82,1.28,23.6,3,35.43,4.19,12.59,1.3,25.25,2,37.8,3.55,4.07.5,8.6,1.91,11.74,4.4,11.52,9.12,25.49,8.32,38.57,9.12,6.8.42,10.11,2.82,13.84,7.22a83.6,83.6,0,0,0,11,10.88c6,4.87,12.24,9.44,18.64,13.75q13.52,9.11,27.43,17.57c3.7,2.24,8.33,3,11.84,5.45,13.58,9.44,26.78,19.41,40.28,29,25.51,18,51.21,35.77,76.7,53.83,32.09,22.74,64,45.7,96.09,68.51,23.85,17,47.79,33.81,71.63,50.79a137.27,137.27,0,0,1,12.57,9.95c3.83,3.48,6.71,8.14,10.85,11.1,11,7.88,22.5,15.13,34.22,22.91-11.33,4.8-22.5,9.55-33.68,14.28-15,6.34-30,12.84-45.11,18.89-5.31,2.13-5.42,6.78-5.47,10.64,0,2.43,2.85,5.74,5.29,7.22q26.28,15.84,53,31c6.41,3.66,13,6.21,20.92,6.12,37.94-.45,75.89-.22,113.84-.16a21.23,21.23,0,0,1,6.33,1c7.07,2.25,13.92,5.94,21.13,6.79,11.15,1.33,22.68,3.57,33.63-1.86.83-.41,2.38.12,3.38.63,15.66,8,31,16.62,47,24.12,25.71,12.12,51.7,23.62,77.65,35.19,12,5.33,23.93,10.66,36.18,15.22,31.18,11.6,62.45,23,95,30.44,13.27,3,26.57,6,40,8.22,14.75,2.4,29.66,3.84,44.5,5.68,14.66,1.83,29.28,4.45,44,5.24,18.62,1,37.18.4,55.49-5,18.77-5.57,32.7-15.66,37.33-35.21C1477.41,1218.55,1476,1205,1472.49,1192.27ZM1275.57,931c12.94,12.49,26,24.82,38.65,37.63,14.51,14.74,28.56,29.93,42.83,44.9,8.74,9.16,14.49,16.41,23.18,25.62,1.55,1.63,9,11.07,11.37,14.21,0,0,16.68,22,21.5,32.06-13.22-3-27.21-20.2-33.7-30.42-2.76-3.71-7.73-10.4-10.73-13.72-15.18-16.86-30.17-33.88-45.54-50.57-13.59-14.75-27.45-29.25-41.41-43.64-19.23-19.83-36.38-35.1-55.94-54.59-11-10.9-24.48-22.43-35.75-33l0,0c-1.76-1.74.83-4.47,2.74-2.89,1.55,1.27,3.08,2.56,4.58,3.89q29.34,25.95,58.57,52C1262.6,918.46,1269.08,924.75,1275.57,931Zm150.7,235.54c-.24-4.44-1.07-8.85-1.67-13.28-.43-2.74,1.83-3.29,2.93-.4a67.52,67.52,0,0,1,3.37,13.34c3.37,22-7.43,30.76-23.83,31.94-17.94,1.28-41.32-1.53-58.83-5.54-21.09-4.84-29.33-6.42-57.47-15.43-14.22-4.56-28.3-9.86-42-15.79-25.82-11.16-51.58-22.51-76.94-34.67-27.34-13.12-54.36-26.92-81.19-41.06-21.19-11.17-42-23.15-62.76-35.06-22.54-12.91-45.16-25.7-67.23-39.37-27.61-17.09-54.85-34.79-81.94-52.69-21.26-14-42.32-28.42-63-43.32C782,890.94,748.81,866,715.23,841.55,699.41,830,683.25,819,667,808c-4.11-2.78-6.27-5.56-5.83-10.76,1.07-12.49,2-25,2.92-37.49,8.88,6.59,71.08,51.29,79.31,56.52,14.35,11,40.85,31.61,55.69,42.85l0,0c127,99.52,261.73,188.87,284,202.57q43.21,26.58,87.59,51.27c20.09,11.18,40.71,21.52,61.67,31,46.16,20.89,79.61,31.59,94.71,35.15,58,13.7,70.57,11.35,75.64,11.13,0,0,12.84-.09,17.7-5.4S1426.72,1171.3,1426.27,1166.55ZM655.7,829.19a114.62,114.62,0,0,0,6.61,38.12,105.92,105.92,0,0,0,34.09,47.74C711,926.74,726,938.2,741.22,949.4c-3.6,4.07-4.83,3.57-11-.94-15-10.91-30.41-21.33-44.29-33.5-11.19-9.82-19.28-22.62-24.61-36.85-6.9-18.42-11-35.49-11-57.85,0-10.86.58-21,1.2-31.81,1.26-22,1-38.87,6.46-64,1.06-4.88,4.19-9.91,8-13.81a.83.83,0,0,1,1.32,1c-4.51,8.19-6.12,17.88-7,27.41-1.51,16.39-3.64,34-4.3,50.47C655.41,803.28,655.54,815.33,655.7,829.19Zm528.86-77.08a3.1,3.1,0,0,1,4.7-.77c11.75,10.21,23.55,20.4,35.24,30.74,4,3.56,8.16,7.19,11.32,11.47,2.18,3,3.38,7,4,10.69,2.42,15.45,4.54,30.94,6.59,46.45,1.3,9.82,2.26,19.69,3.44,29.53.17,1.37.27,3.19,1.14,4,6.16,5.45,4.5,12.81,5.82,20.06L1170.15,829c-1.15-1-.44-2.56.55-3.73a152.82,152.82,0,0,0,9.45-12.67c7.61-11.07,11.72-18.72,18.91-30.08,4.55-7.2,4.91-10.62-2.25-15.47-5.19-3.52-10-6.37-15.22-9.9C1182.24,756.06,1183.46,754,1184.56,752.11Zm-33.33,51.83c6.37-10.14,13-20.12,19.75-30.43,5.66,7.71,12.36,10.51,21.83,5.14-8.66,13.81-17.28,28.06-25.32,40.87-5.49-3.68-11.62-7.14-16.36-10.63C1149.14,807.42,1150.8,804.62,1151.23,803.94Zm-337.5-69.76C831.82,749,850.22,764.33,868.46,779c15.6,12.55,32.71,25.79,48.4,38.22,12.84,10.17,26.23,20.14,39.32,30,11.91,8.95,23.16,17.49,35.48,25.85a1424.64,1424.64,0,0,0,139.84,83.8c34.66,18.19,72.7,30.62,77.27,31.83,8.1,2.16,15.88,4.14,24.2,4.82,9.84.8,15.19-1.37,16.11-11.77,6.47,5.85.37,17.39-8.71,17.33a92.19,92.19,0,0,1-20.27-2.7c-7.8-1.83-19.11-4.71-26.59-7.63-39-15.2-59.58-23.28-106.52-50,0,0-49.43-29.07-51.33-30.25-15.9-9.92-31.46-19.41-47.12-29.7C980.14,873.22,971,866,962.88,860c-5.87-4.29-30.62-22.82-36.4-27.22-10.23-7.77-61.71-47.09-74.52-57.48-18.45-15-35.37-28.16-53.63-43.36-9.56-8-61.71-55.1-75.35-67.37-6.84-6.17-45-38.68-52.6-43.69-17.83-11.73-35.71-23.36-53.56-35-1.65-1.09-3.14-2.41-4.81-3.46-6-3.85-6.26-4-2.34-10,2.56-3.9,5.82-7.34,8.86-11.11l73,47.85c-3.23,3.94-2.24,1.69-4.28,5-.81,1.32-3,5.27.56,8.84,13.71,13.7,31.32,29.07,45.93,41.8s30,25.67,44.55,38.23C790.78,713.93,801,723.68,813.73,734.18ZM197.89,331.78c-7.2-1.3-18.77-3.44-24.95-4.55-1.59-.4-1.31-2.19.89-3.7,5.12-3.38,8.64-5.1,13.93-8.21,13.53-8,27.22-15.66,40.81-23.52q24.66-14.25,49.26-28.59,16.47-9.61,32.82-19.42c7.72-4.61,14.75-5.59,23,.11,15,10.39,30.89,19.57,46.29,29.43,14.66,9.38,29.29,18.81,43.7,28.57,13.33,9,26.36,18.5,39.62,27.85-9.33,5.35-10.69,3.72-19.34-2.65-6.34-4.65-8.45-6.21-13.55-9.86C424,312.7,389.5,288.41,375,279.53c-18.14-11.11-28.09-19.19-46.3-30.25-4.3-2.61-11.08.05-14.2,1.65-17.36,8.89-25,13.27-41.94,23-17.27,9.89-34.7,19.88-51.7,30.25-7.77,4.74-16.5,9.9-24.06,15C191.77,322.51,193.43,326.86,197.89,331.78Zm82.23,13.89a365.33,365.33,0,0,1,35.88,9.9c2.65.85,11.45,4.15,13.95,5.24,21.39,9.37,28.95,13.65,42,22a1.89,1.89,0,0,1,.18,3.21c-6.67,4.33-6.53,3.21-13.68-1.4a236,236,0,0,0-22.8-13.35,180,180,0,0,0-24.31-10c-14.25-4.53-26.67-8.6-41.28-11.83-22.41-4.95-29-6.56-33.14-8.94C228.14,334.6,275.75,344.64,280.12,345.67Zm81.69,23.56c-12.39-7.75-16.11-9.81-23.39-12.58-1.54-.59-5.64-1.72-7.84-2.6,1.13-1.29,3.87-5.12,5.27-6,12.19-7.49,24.49-14.81,36.72-22.24,8.74-5.3,17.31-10.88,26.2-15.92,2-1.13,5.55-1.54,7.39-.5,6.69,3.75,61.69,42.8,79.58,55.71,5.3,4.47,3.64,5.46-1.09,8.77l-13.24,9a2.41,2.41,0,0,1-2.44.2,5.06,5.06,0,0,0-1.39-.47,15.3,15.3,0,0,0-1.66-.17,2.88,2.88,0,0,0-2.54,4.5,3.35,3.35,0,0,0,.74.76c8.3,6,16.82,11.69,25.29,17.46,6.38,4.34,12.64,8.87,19.26,12.77a3,3,0,0,0,.4.2c3,1.2,5.53-2.7,3.39-5.1l-.18-.2a27.2,27.2,0,0,0-3.75-3.8,1.34,1.34,0,0,1-.16-2.06c13.88-12.74,13.31-13.49,27.63-1.65-2.39,1.64-6.51,3.72-8.52,5.69s-4.09,4.35-4.9,6.94c-2.34,7.47-8.86,9.94-14.88,12.31-4.5,1.78-10.14.6-14.72,2.28-4.39,1.61-9.66,6.19-13.08,8.53-4.4,1.1-8.9-2.78-12.1-5.7a121.06,121.06,0,0,1,20.26-14.23c2.37-1.36,5.88,3.57,9.05,5.12l.05,0a3.11,3.11,0,0,0,4-4.23,2.73,2.73,0,0,0-.77-1c-12.17-8.88-24.56-17.46-36.92-26.06-2.91-2-4.14-2.74-7.14-4.59-2.84-1.75-4.76-.76-5.17-.41-1.65,1.4-1.25,3.16-1.25,4.9-4.09,3.27-8.53,7-13.17,10.4-.77.58-7.17,6.53-11.56,3.88C405.82,396.05,368.71,373.54,361.81,369.23Zm129.47,8.67c.64-.39,2.1,0,2.88.51,7.35,4.72,14.65,9.53,21.83,14.22-3.43,2.94-4.6,4.45-7.74,6.65-1.22.86-3.81,2.91-4.82,2.22-7.33-5-16-10.67-23.53-16.17C483.62,382.87,487.37,380.26,491.28,377.9ZM465.09,423c-7-4.93-14-9.79-21.37-14.89a107.86,107.86,0,0,0,8.55-6.63,7,7,0,0,1,9,0c6.57,4.91,13.92,10.19,19.92,14.57A65.93,65.93,0,0,1,471,422.9C468.32,424.33,467.15,424.46,465.09,423ZM387.71,392.1c18.08,11.7,36.21,23.34,54.26,35.07,10.68,6.94,19.84,13.45,30.71,20.07,2.09,1.27,7.16,1.6,9.77.74a28,28,0,0,0,8.76-5.19c5.53-4.6,12.3-5.1,18.81-6.93,8.18-2.31,16.41-5.46,18.31-15.68.23-1.25,1.87-2.48,3.13-3.26,4.13-2.57,8.5-4.78,12.58-7.42,4.27-2.76,4.09-7.8-.12-10.79q-39.69-28.29-79.37-56.63c-1.18-.84-3.85-2.14-3.25-2.95,6.45-6,6.51-5.92,14.12-.46,18.09,13,36.26,25.88,54.36,38.85,25.84,18.52,51.61,37.13,77.48,55.59,13.88,9.89,28,19.5,41.88,29.34,11.14,7.88,22.13,16,33.15,24C701,500,708.41,504.55,721.17,514c13,9.62,26.17,19,39.33,28.36,4.51,3.22,9.19,6.21,13.42,9l-4.31,3.35c-11.87-8.75-24.82-18.47-37.94-27.93q-22.49-16.23-45.24-32.09c-11.6-8.1-17.27-7.66-28.77.36-10.23,7.14-21,13.5-31.25,20.6-4.37,3-8.17,6.95-12,10.69-2.49,2.44-1.35,9.9,1.74,11.89,14.46,9.29,29,18.39,43.45,27.73,17,11,33.82,22.17,51.78,34-14.81,4.4-12.15,6.6-20.65,1-23.21-15.25-46.6-30.22-69.84-45.44-15.85-10.38-57.24-38.14-59.39-39.52-17.67-11.32-35.25-22.77-52.86-34.18q-29.53-19.16-59.08-38.28c-14.29-9.22-28.69-18.26-42.92-27.58-11.24-7.37-22.28-15-33.41-22.56C380,387.53,380.61,387.5,387.71,392.1ZM773,572.21c-10.5,7.19-20.61,15-31.57,21.46-5.29,3.09-12.08,4-18.33,4.83-2.2.29-4.87-2.62-7.25-4.18-15.28-10-30.43-20.23-45.83-30.05-13.09-8.35-26.48-16.23-39.69-24.4-2.24-1.39-4.39-2.91-6.78-4.61a4.37,4.37,0,0,1-.69-6.52c3.93-4.32,19.61-14.6,21.75-15.93,8-5.7,15.78-10.61,24-16,3.76-2.47,7.7-1.4,11.4,1.39,11,8.35,22.23,16.49,33.41,24.66q24.36,17.82,48.79,35.57c3.63,2.63,7.44,5,11,7.79C775.57,568.06,776,570.2,773,572.21Zm-47.59-70.14c18.54,12.93,36.83,26.22,55.2,39.4,1.39,1,2.74,2.08,4.35,3.31l-4.9,3.53L712.41,500.1C718.4,494.92,722,499.69,725.45,502.07Zm-97-160.53c.79-1.23.88-1.8,2.9-1C650.1,353.76,666,365,684.76,378.15c2.2,1.54,7.41,5.15,9.62,6.6,11.37,7.42,11.76,14.75,13.19,25.36,1.76,13,4.26,25.86,6.35,38.8,2,12.38,3.86,24.79,5.79,37.19-26.36-21.23-57.94-35.88-78.56-65.11,7.36-14.51,15.13-30.19,23.27-45.68,2.25-4.29.07-6-2.94-8.07-10.18-6.9-20.18-14.51-30.42-21.33C629.78,345.05,627.92,343.32,628.42,341.54ZM617.76,364.8c3,5.61,7.78,7.18,13.46,6.26,5.3-.85,8.52-4.11,9.54-9.59l16.87,12.2-22,42.91-29.49-31C610,378.65,613.81,371.83,617.76,364.8ZM517.59,318.94c27.06,15.52,47.78,38.27,69.45,59.95,8.31,8.31,16.31,16.93,24.38,25.48,2,2.14,3.76,4.56,5.64,6.86.63,1.24.26,1.5-1,.8L496.37,326.36c4.19-2.88,7.78-4.89,10.8-7.54C510.93,315.52,513.61,316.66,517.59,318.94Zm-99.91-60.08,88.27,53c-3.18,2.14-5.64,3.61-7.89,5.34-7.23,5.55-7.12,5.34-14.2.37-12.48-8.76-25.08-17.36-37.9-25.61-3.27-2.1-8.09-1.85-11.26-4-5.57-3.84-11.36-8-15.26-13.4-2.67-3.67-3.42-8.75-4.61-13.51A1.92,1.92,0,0,1,417.68,258.86Zm16.72,36.87c33,23,65.72,46.3,98.49,69.57q45.9,32.59,91.69,65.35c13.75,9.78,27.59,19.44,41.35,29.21Q688.76,476,711.52,492.3c-5.29,4.38-8.88,1.19-12.88-1.76-14.75-10.89-29.62-21.61-44.51-32.3q-42.37-30.47-84.84-60.81c-18-12.84-36-25.52-54-38.35-11.55-8.24-23-16.58-34.49-24.92-19-13.77-37.68-27.87-56.91-41.26-10.71-7.46-22.17-13.85-33.26-20.78,0,0,0,0-.06,0-12.19-7.07-45.68-29.44-58.13-36a23.68,23.68,0,0,0-14.46-2c-6.15,1.19-12,4.26-17.74,7.11-8.78,4.39-35.46,20.74-40.44,23.76q-24.57,14.91-49.34,29.51c-12.48,7.35-25.24,14.23-37.54,21.86-3.13,1.95-6.07,4.31-7.27,9.12-1.08,4.34,2.63,8.44,8.46,9.46,8.81,1.53,17.53,3.55,26.28,5.37,12.44,2.58,24.9,5.07,37.31,7.8,10,2.2,19.89,4.5,29.75,7.11C280,358.52,292.8,361.48,305,365.9c17.54,6.34,34.52,14,50.26,24.3,19.83,12.93,40,25.32,59.83,38.24,20.3,13.22,40.28,26.93,60.55,40.19q55,35.94,110.11,71.59c9,5.85,18.1,11.57,27.32,17.45L598.48,574c-11.85-8-24.31-16.37-36.83-24.71-15.08-10-30.27-19.92-45.29-30.06-12.22-8.24-24.12-17-36.39-25.12-13.42-8.92-27.17-17.34-40.66-26.14-9.88-6.45-19.55-13.24-29.39-19.75-5.2-3.45-10.58-6.63-15.87-9.95-8.6-5.4-17.26-10.72-25.77-16.26-8.84-5.75-17.12-12.48-26.37-17.43-15.55-8.32-31.25-16.65-47.66-23-13.92-5.36-29-7.75-43.45-11.71-11.66-3.2-23.21-6.81-34.82-10.18-12-3.46-24.3-5.11-36.52-7.32-6.5-1.18-12.87-3-19.33-4.36-12.62-2.63-25.28-5-37.89-7.71-5.48-1.16-10.87-2.68-16.48-4.07,1.57-7.9,5.67-13.49,13-17.38,11.07-5.86,21.65-12.62,32.5-18.89,17.06-9.87,34.2-19.6,51.26-29.46,16.74-9.69,33.39-19.56,50.16-29.2,15.49-8.89,31-17.71,46.73-26.18,2-1.06,5.7-.63,7.74.59,13.57,8.06,26.89,16.53,40.29,24.86,8.8,5.46,23.75,14.15,33.18,20.58l.37.24c6,3.92,12,7.86,18.05,11.72C410.84,280.67,422.94,287.73,434.4,295.73Zm56.47,215.06c-1.51,2.54-2.95,5.78-4.72,8.77-8.59-5.81-17-11.67-25.61-17.29-11.48-7.51-23.1-14.81-34.64-22.23-6.56-4.22-5.4-5.73-.74-13.43C447.5,481.15,468.53,496.25,490.87,510.79Zm-126.26-336c6.86,4,13.44,8.29,20.43,11.76,4.72,2.36,6.59,6.22,7.74,10.71q7,27.51,13.84,55.07c1.37,5.52,2.56,11.09,4,17.38l-66.93-40.55a51.85,51.85,0,0,0,5-9.76c5.25-12.42,10.17-25,15-37.57C364.52,179.73,364.32,177.26,364.61,174.78Zm-12.23-6.46c6.13,2.12,6.32,6.22,4.36,11.92C352,194,342,219.85,338.6,225c-2.4-1.45-4.9-2.71-7.7-4.4C336.57,207,346.64,182.11,352.38,168.32Zm-31.25,33.45c.72.42,1.4.9,2.08,1.37,2,1.37,5.58,2.92,5.48,4.14-.31,3.71-2.11,7.29-3.44,11.27l-18.75-12.3c1.36-1.4,6.41-4.63,9.79-7.1Q318.74,200.38,321.13,201.77ZM22.6,333.16c4.85-6.14,11.38-10.93,17-16.47,1.46-1.43,2.36-3.44,3.46-5.22.55-.89.76-2.18,1.52-2.71q27.19-18.92,54.51-37.64c1.11-.76,2.91-1.44,4-1.07,7.52,2.4,12.83-2,18.65-5.4,12.8-7.55,25.81-14.76,38.69-22.19,1.33-.77,3.44-2.27,3.32-3.15-1.07-7.39,5.51-7.95,9.36-9.84C188.57,221.9,204.29,215,220,208c5.69-2.53,11.09-5.68,17.89-5.4,3.25.13,6.58-2.39,9.9-3.64,13.28-5,26.87-7.82,41.21-7.21a63.63,63.63,0,0,1,20.88,4.51c-3.53,1.76-7.33,3.81-8.7,4.43-2.24,1-4.46,2.08-6.6,3.3q-37.67,21.61-75.29,43.29-24.72,14.25-49.39,28.56-40.08,23.3-80.06,46.72c-5.74,3.36-11.31,7-17,10.52a10.66,10.66,0,0,1-10.79.94c-7.37-3-9.6-2.16-13.1,4.7-2.89,5.66,0,7.92.58,8.13-4.23,2.49-21.35,12.52-26.6,16.17a27.91,27.91,0,0,1-5.39-9.82C15.22,345.27,18.24,338.68,22.6,333.16Zm80.54-9c-1,2.8-1.6,6-2.54,9A2.25,2.25,0,0,1,98,334.69c-2.9-.56-6.91-1.28-10.23-1.73a1,1,0,0,1-.38-1.89c4.82-2.78,10.25-5.59,14.37-8A.94.94,0,0,1,103.14,324.16ZM78.66,354.68c2.75,2.34,5.77,11.55,1.63,8.86C70,356.61,61.9,349.16,53.36,342c-1.38-1,1.3-6.19,3.3-4.79C65.22,344.46,70.1,347.47,78.66,354.68ZM30.12,424.4c-2.76-8.64-4.32-17.62-6.51-26.63,2.27,1.73,4.52,3.25,6.54,5,4.69,4.14,12.48,8.74,15.23,20.91,2,8.78,6.88,29.18,9.28,38.22C31.63,446.81,38,449,30.12,424.4ZM19,381.36c-.71-3-2.24-9.35,2.69-4.88,20.73,17.58,38.15,32.35,58.89,49.92,5,4.73,3.15,8.57-2.45,5C73.48,427.62,21.18,389.61,19,381.36ZM186.81,557.2c-5.29-4.4-10.6-8.76-15.74-13.33-2.57-2.28-15-12.45-18.54-15.33-10.26-8.26-20.35-16.73-30.51-25.11-9.46-7.81-19-15.57-28.39-23.42-4.32-3.6-8.79-7.09-12.58-11.19-1.93-2.07-2.87-5.3-3.64-8.17C75.22,452.38,73.34,444,71.16,435c50.26,41.52,99.47,82.18,148.78,122.9l-8,20C203.4,570.9,195.08,564.07,186.81,557.2ZM218.94,612c-1.93-1.39-11-6.24-9.75-9.36.38-.92,2.25-5.2,2.25-5.2,4.87-12.68,9.06-23.74,14.07-36,1.67-4.06.4-6.83-2.43-9-6.65-5.19-13.2-11.37-19.91-16.48-.87-.66-103.52-85.48-109.39-89.7-6.87-4.95-5.5-13.46-1.36-10.11,15.46,12.93,30.34,25.58,45.43,38,18.83,15.43,37.52,31.06,56.86,45.82,26,19.83,49.6,42.15,72.15,65.68,11.52,12,22.89,24.2,34.22,36.41,12.12,13.06,24,26.35,36.2,39.32C348,672.7,359,683.78,369.83,695a.74.74,0,0,1-.89,1.16c-8.64-4.84-17.43-9.44-25.84-14.65-16.92-10.49-33.76-21.14-50.34-32.16A294.3,294.3,0,0,1,265.55,629c-4.59-3.87-9.17-2.74-13.18-1.36-7.49,2.58-12.72-.23-18.15-4.62C229.33,619.11,224,615.68,218.94,612Zm35.44-127.34c-9.87-4.64-19.95-8.82-29.81-13.47-12.67-6.1-9.24-22.14-6-27.34,2,1.48,41,28.83,49.31,35,22.63,16.81,45.13,33.81,67.68,50.73,15.27,12.5,62.21,49.61,64.5,51.2-10.13,10.1-7.24,22.34-6.81,33.9.31,8.07,1.9,16.09,2.92,24.13,1.72,13.57,3.38,27.16,5.21,40.72a85.43,85.43,0,0,0,2.66,13.1,2.56,2.56,0,0,0,1.18,1.28,2.44,2.44,0,0,0,.56.51c1.44.91,7.85,5.28,17.16,11.65a83,83,0,0,0-7.45,6c-4.79,4.3-6.8,6-11.25,1.71-2.35-2.27-5-4.58-7.49-7.27-1.8-1.95-3.82-3.75-5.69-5.67-11.65-12-23.41-23.84-34.9-36-14.39-15.2-28.57-30.6-42.81-45.94-9.21-9.93-18.33-19.94-27.56-29.84C279,581.8,272.22,574.35,265,567.36c-7.94-7.73-16.4-14.92-24.5-22.49-4.21-3.93-37.35-31.17-40.88-34.54,4.32-2.53,12-8.19,17.42-11.21,7.33-4.12,14.62-8.35,22.21-11.95,1.82-.86,4.81.39,7.14,1.09,2,.61,3.84,2.21,5.88,2.57,1.22.22,3.78-1,3.85-1.76C256.3,487.62,255.5,485.19,254.38,484.66ZM431,600.17c.52.5,36.75,26.76,43.69,31.41q42.91,28.78,85.8,57.61a73,73,0,0,1,9.47,7.15c1.56,1.47,3.21,3.94,3.14,5.9-.44,12.14-1.35,24.27-2.15,36.39,0,.46.14,3.11-1.28,1.93-7.13-4.82-14.22-9.56-21.25-14.38Q526.25,711,504.1,695.64c-11.94-8.29-23.69-16.86-35.68-25.07-20.25-13.86-40.52-27.69-61-41.2-5.46-3.6-7.45-8.21-7.53-14.3-.13-9.31-2.23-18.81,2.13-26.92C408.11,579.22,418.85,591.1,431,600.17ZM406,577.67v-67.6c9.06,6,17.25,11.27,25.35,16.69l4.15,2.79c-.3,11.18-.06,66.13-1.78,64.77-6.88-5.44-14.31-10.22-21.66-15.05C410.59,578.33,408.56,578.32,406,577.67ZM530.48,773.78c-2-1.26-105.67-73.92-120.43-83.53-1.53-1-1.86-6.45-2.67-10.76a3,3,0,0,1,4.58-3.22l146.87,102C547.53,784.78,547.53,784.78,530.48,773.78Zm13.34,15.13c-6.4,4-15.26,12.1-31.08,4.9-4.39-2-17.18-10.68-32.12-21.39,5.57-5.32,8.25-8.16,13.29-13.21.77-.78,2.2-2.94,3.22-2.2C520.55,773.08,541.21,787.33,543.82,788.91ZM401,632.36c7.37,5.08,15.49,10.38,22.54,15.25,9.87,6.82,19.7,13.73,29.66,20.43,2.53,1.7,24.64,17.28,27.88,19.51,8.06,5.53,8.68,6.73,8.44,17.75-16.13-11.12-32-22-47.84-33q-15.72-10.82-31.47-21.57C402.3,645.39,402.54,643.85,401,632.36ZM177,649.08c9.41-1.88,20.32-4,31.23-6.25,9.31-1.88,18.73-3.36,27.86-5.9,6.52-1.81,11.1-.17,16,4.08,7.58,6.58,15.79,12.45,24.21,19-13.87,2.91-19,4-32.2,6.77-8.41,1.75-22.47,5.42-30.71,6.82s-14.53,2.6-21.64,4c-6.53,1.28-12.83,2-20.16-3.82-2.58-2.06-8.42-7-11.73-9.53,6.37-.4,17.38-1.06,19.11-7C179.86,654.24,179.49,652.69,177,649.08ZM472.66,792.64c-19.14-13.66-39.22-28-58.85-42-4.34-3.63-7.41-5.43-10-5.43,0-1.93.3-4.51.26-5.9-.1-3.87-2.42-7.25-8.1-7.57-2.91-.17-5.87-.71-8.63-1.09-13.18-1.84-15-3.64-21.48,2.64a24,24,0,0,1-2.15,1.83c-9.33-1.53-17.56-3.16-25.86-4.19-13.6-1.67-114.54-11.36-120.11-11.91-10.26-1-17.31-4.3-21.42-6.9-9-5.68-14.81-10.64-21.08-15.32-16.13-12-26.8-20.85-42.9-32.9-1.26-.94-4.35-7.66,4.58-6.64a9.31,9.31,0,0,1,3.84,1.47c10.95,8.18,21.61,16.74,32.74,24.65a14.55,14.55,0,0,0,10,2.15c15.13-2.82,30.1-6.47,45.2-9.48,16-3.2,32.06-6,48.09-9a36.18,36.18,0,0,0,8.25-2.3c3.62-1.65,3-4.36.44-6.48q-9.09-7.69-18.47-15c-3.66-2.86-7.57-5.4-11.37-8.09a0,0,0,0,0,0,0c-2.27-1.79,1-3.07,3.21-2.59a6.44,6.44,0,0,1,2.36,1.35c15.47,10.77,30,22.89,45.82,33.07,18.36,11.81,37.64,22.18,56.09,33.87,12.86,8.16,42.88,26.9,52.18,32.67,8.9,6.33,18.35,13.08,27.84,19.77,9.25,6.52,18.69,12.78,27.66,19.65,1.58,1.21,1.57,4.87,1.73,7.43C472.85,784.36,472.66,788.48,472.66,792.64ZM413,723.91c5.68-4.41,11.39-8.59,16.73-13.18,16.94,11.61,40.2,27.6,61.23,42-4.39,4.49-10.4,10.85-14.93,15.93ZM587.57,872.26s-4.14-2.51-7.17-4.57c-8.12-5.5-7.73-9.81-6.35-17.43,1.09-6,1.82-12,2.82-18.76L591,841.15C589.82,852,588.86,860.56,587.57,872.26Zm29.81,20.87c-3.74-2.52-9.49-6.15-13.07-8.79-1.06-.78-2.37-2.32-2.28-3.41.82-9.84,1.91-17.45,3-27.26.07-.63-.13-2.55.29-3.58,4.81,3.61,10.85,7.93,14.58,10.73C618.69,872.07,618.53,882.12,617.38,893.13Zm83.51,63.34c-11-7.83-21.84-15.78-32.77-23.65-7.29-5.24-27.58-19.77-33.21-23.94-6.61-4.9-5-17.25-4.46-25.65.68-10.14,1.69-15.08,1.91-22a14.85,14.85,0,0,0-5.13-10.64c-11.5-8.86-23.63-16.91-35.54-25.25-4-2.78-7.83-5.78-12-8.25-5.12-3-12.3-3-13,5.75-.06.72-2.79,15.59-4.81,25.62-9.39-6.52-21.33-15.45-24.3-17.48-18.05-12.39-35.91-25-53.85-37.6-5.07-3.54-5-6.45-4.25-14.14,10.54,6.84,21.93,15,32.86,21.72,10.74,6.62,21.18,3.92,31-2.41,6.63-4.29,13.12-8.85,19.31-13.76,7.89-6.25,11.18-15.21,12.8-24.77.77-4.6,4.47-53.19,5.58-75,0-7.35.24-14.32,0-21.27-.71-16.56-3.57-32.94-13.54-46.37-6.69-9-15.49-16.83-24.5-23.65-13.82-10.47-28.62-19.65-43-29.34-17.24-11.59-34.41-23.28-51.78-34.68-14.5-9.53-29.26-18.67-43.87-28-12.5-8-24.86-16.25-37.43-24.15A339.94,339.94,0,0,0,294.23,443c-14-4.72-28.46-8.72-43-10.87-12.22-1.79-25-1.33-37.36-.1-6.52.65-12.43,5.47-15.6,12a3.8,3.8,0,0,0-.21,2,2.69,2.69,0,0,0,3,2.39,4.58,4.58,0,0,0,2.16-.72,80.56,80.56,0,0,0,6.87-6.12.65.65,0,0,1,1.06.71c-3.16,8.33-7.62,23.13,5.43,31.94,0,.1,7.79,4.1,7.81,4.07,3.14,1.81,4.63,2.38,8.11,4.18l-39.92,22.68c-5.26-4-18.45-16.05-19.62-17-13.15-10.79-26.17-21.73-39.3-32.55C122,446,110.17,436.52,98.45,426.92q-18.81-15.39-37.58-30.85c-10.32-8.48-21.07-16.5-30.76-25.66-.91-.86-1.83-1.73-2.74-2.63,5.75-3.13,18.34-10.69,20.69-12.32,9.14-6.31,8.18-3.49,14,1.33a191.23,191.23,0,0,0,36,23.32c13.27,6.75,26,14.56,39.07,21.72,12.41,6.81,24.87,13.53,37.51,19.91,1.59.8,5.18,0,6.34-1.3s1.6-5.28.54-6.49a172.42,172.42,0,0,0-17.06-17.34c-10.67-9.15-21.85-17.7-32.75-26.58-8.54-6.95-14.1-12.52-21.4-17.81-6.16-4.46-16.66-6.85-24.07-9.36-2.5-.85-7-2.52-11-3.94-2.75-1.2,1.1-2.39,4.84-1.63,16.65,3.38,36.73,6.85,53.27,10.7,9.34,2.17,62.14,13.63,72.24,16,21.08,5,55.62,15,63.51,17.13,32.37,8.7,48.76,17.82,57.35,22.59,15.28,8.5,27.89,16.45,42.49,26.19,14,9.36,28.64,19.13,42.71,28.42,1.76,1.16,5.39,3.09,7.7,4.4-1.53,3-3.53,7.28-5.34,9.84-2.93,4.16-.95,7,2.3,9.16,16.45,10.82,33,21.46,49.56,32.16,5.27,3.42,10.55,6.82,15.8,10.27,5.79,3.81,8.59,3,11.77-3.21.89-1.75,1.84-3.47,3-5.58,16.06,10.67,31.91,21.21,47.78,31.73,7.33,4.85,14.72,9.61,22,14.49,8.65,5.77,17.12,11.82,25.91,17.37,9.34,5.9,19.1,11.12,28.41,17.06,13.15,8.4,26,17.23,39.09,25.79,4.62,3,13.26,8.24,17.68,11.52,6.13,4.56,8.28,6.86,14.14,11.77,9.94,8.35,20.05,16.52,29.71,25.18,15.37,13.76,30.19,28.13,45.7,41.73q27,23.7,54.84,46.44C834,768.61,847,778,859.61,787.72c14.53,11.22,29,22.52,43.51,33.77q14,10.83,28,21.6c6.14,4.7,29.47,21.15,34.36,24.89,8.72,6.67,48.24,32,53.15,35.14,12.4,7.93,20.69,12.52,33.28,20.12,9.4,5.68,19.55,11.2,29.1,16.65,35.15,20.07,62,33.47,83.37,41.85,22.56,8.86,30.18,11.69,51.74,18.21,0,0,17.28,5.79,29.19,2.81,9-2.25,11.74-14.48,9.54-19.43s-6-15-37.12-59.4c-10.72-15.31-73.7-92.17-79.2-97.37s5.5-1.35,9.62,2.5,66.48,80.53,74.53,92.12c10.71,15.41,30.15,40.94,37.37,59.26,6,15.35-4,23.85-7.12,25.94-9.21,6.24-27.5,1.89-41.25-2.42-75.36-23.64-100-40.2-111.83-46.2-16.86-8.32-27.53-15.42-44-24.35Q1016.12,912,977.2,889.16c-18.56-10.88-36.62-22.62-54.66-34.35-6.39-4.16-32.65-22.48-39.64-27.09Q856.19,810.08,829.79,792c-15.55-10.68-30.86-21.68-46.3-32.5-20.14-14.12-40.48-28-60.4-42.39-11.26-8.15-22.48-16.06-36.18-19.58-11.4-2.92-21.86,2.28-27.86,11.57-6.3,9.74-9,20.63-9.84,32-1.21,15.91-2.4,31.82-3.28,47.74-.64,11.65-1.38,23.34-1,35,.7,22,3.66,43.85,13.57,63.85,4.26,8.59,10.11,16.57,16.14,24.1,13.14,16.4,31.49,26.64,48,39,2.7,2,5.34,4.14,8.2,6.36-2.39,2.06-10.16,9-12.75,11.18C712.91,964.78,706.84,960.72,700.89,956.47ZM83.71,353.17c3.49,1.25,9.12,3.19,11.61,4,7.14,2.27,11.27,3.77,18.2,6.54,3.2,1.28,7.45,4.51,10.24,6.79C136.61,381,149.15,390.35,162,400.88a98.57,98.57,0,0,1,12.66,12.71c.63,1.65-.95,2.21-3.31.9-19.15-10.62-31.89-17.57-48-26.53-9.52-5.3-18.65-10.29-28-15.82-2.07-1.21-4.11-4.47-5.42-6.56C87.83,362.28,86.23,358,83.71,353.17Zm699.1,659.39c-14.51-9.93-28.84-20.13-43.28-30.19-4.68-3.26-9.43-6.44-13.57-9.26l12-10.61c46.6,31,69.29,46.09,116.31,77.34-.14.27-2.74,1.56-8.12,4.4-5.08,2.7-10.8,3.7-15.1.81C815,1034.23,798.82,1023.51,782.81,1012.56Zm-40.55-54.8c1.32-1.28,2.63-3.48,3.93-4.72,171.14,124.6,373.75,216.61,412.5,234.85a316.23,316.23,0,0,0,32.89,12c6.9,2.16,16.9,4.66,23.94,6-7,3.67-14.48,2.53-22,.6-21-5.41-40.87-14-60.51-23.14-15.74-7.3-31.57-14.44-47.19-22-13.57-6.57-26.93-13.6-40.35-20.49-16.21-8.33-32.47-16.56-48.55-25.13-12.49-6.65-24.79-13.67-37.07-20.7-17.87-10.24-35.75-20.47-53.46-31-16.34-9.71-37.55-21.7-53.49-32-27.72-18-51.73-34.55-79.2-52.89C762.79,971.86,753.58,965.61,742.26,957.76Zm89.34,99.42c1-.42,2.69-.61,3.43-.07,5.2,3.82,10.23,7.86,15.91,12.29l-56.59,24.09c0-3.54,1-7.41-.28-10.31s-4.77-4.66-7.57-7.18C801.31,1069.8,816.44,1063.44,831.6,1057.18ZM1001,1142.74c-2.38-1.92-3.47-2.53-6.23-2,.4-9.85-.43-11.68-10.54-11.68-6.8,0-13.61,0-20.42,0-6.57,0-11.48,3.15-15,6.61H928.41c-35.38,0-70.75-.05-106.12.08-3.75,0-15.25-2.27-18.55-4-9.91-5.13-15-8.07-22-12.28-14.53-8.7-42.9-22.55-34.28-26.68,13.2-5.59,12.83-5.13,25.39,3.39,11.68,7.93,13.18,9.5,23.18,4.7,15.39-7.38,31.38-13.52,47.09-20.22,4.84-2.06,9.83-3.9,14.39-6.48,5.2-3,5.22-6,.65-9.46-5.31-4-10.67-7.87-16.28-12,3-1.51,5.68-3,8.49-4.23.51-.23,9.34-5.29,10-4.92,13,7.46,129,74.8,140.11,80.66C996.52,1131.7,1006.78,1137.61,1001,1142.74Zm430.79,59.77c-20.28,15.67-77.64,4.65-77.64,4.65-17.11-2.81-29.06-4.38-76.91-18.13-2.86-.67-4.8-.62-5.07,3.48-1,15.15-2.28,28.42,4,43,3.3,7.64,6.85,11,15.65,12.69,12.76,2.52,46.94,7.06,59.89,10.9a1.83,1.83,0,0,1-.56,3.58c-9.61-.32-26.63-3.17-32.36-4-12.78-1.91-25.58-3.87-38.23-6.45-13.84-2.83-27.73-5.72-41.24-9.78-22.75-6.84-45.43-14-67.73-22.18-20.48-7.48-40.57-16.09-60.55-24.83-22-9.61-43.72-19.76-65.41-30-13.08-6.18-25.86-13-39.28-19.78,5-5.11,3.7-9.9.71-14.64a1,1,0,0,1,1.32-1.49c4.22,2.06,8.46,4.11,12.66,6.21q26.4,13.2,52.79,26.44c9.09,4.55,18.12,9.23,27.31,13.58,13.86,6.55,27.71,13.19,41.81,19.19,12.64,5.38,25.54,10.16,38.47,14.82,10.14,3.65,20.85,5.61,31.47,3.81,11.21-1.89,16.19-11.31,20.24-20.73a44.56,44.56,0,0,0,3.39-10.77,8.33,8.33,0,0,0-5.24-9.56c-7.73-3.16-16.18-6.94-23.84-10.27-18.06-7.84-38.86-17.79-56.83-25.85-16.79-7.53-27-12.91-43.63-20.71-13.75-6.43-29.57-15.47-43.08-22.38-19.66-10-39.34-20.06-58.81-30.47-16.15-8.64-32.07-17.72-48-26.81-17.73-10.15-35.43-20.35-52.93-30.89-13.2-7.95-26.07-16.46-39.09-24.72-10.27-6.52-20.69-12.82-30.8-19.58q-32.17-21.53-64.08-43.44-38-26-75.81-52.27c-10-6.93-20.27-13.64-29.84-21.19-2-1.61-2.52-5.21-3.34-8.36a2.36,2.36,0,0,1,1.09-2.67h0c13.24,9.48,26.43,19,39.72,28.41,10.71,7.57,21.59,14.89,32.29,22.47,23,16.3,45.73,33,69,48.95q37.3,25.56,75.44,49.91c23.26,14.81,47,28.87,70.68,43,17.07,10.22,34.17,20.43,51.61,30,21.31,11.71,42.88,23,64.53,34,26.54,13.57,53.08,27.16,80,40,22.31,10.63,45,20.38,67.78,30.08,15.9,6.78,32.08,12.93,48.23,19.11,5.44,2.08,11,3.8,16.54,5.62h.05c39.47,12.2,57.59,15.49,84.33,19.73,17.61,2.79,32.33,3.31,45.78,1.92,31.9-3.3,31.21-25.18,30-36.3-1.7-15.41-4.52-21.47-10.45-36.57-6.61-16.82-10.53-23.2-17.66-36.87-.54-1-1.09-2.06-2.09-4-2.11-3.23,6,1.31,7.55,4.15,2.31,4.32,6.28,11.84,13,28.27C1448.23,1172.53,1445.39,1192,1431.8,1202.51ZM648.24,624c0-7.19-2-9.52-8.38-9.54-6.92,0-10.21,3.17-10.32,10-.09,5.9,4.47,11.07,9.58,10.84S648.23,630.24,648.24,624ZM353.37,425.25c-4.64,0-8.65,5.45-8.75,12.31-.39,3.86-.13,7.66,5.89,7.51C355.62,445,360,440,360,434,360,428.78,357.32,425.22,353.37,425.25Zm163.45,34.62a4.09,4.09,0,0,0,2.83.66c8.28-1.12,12.79-5.68,17.09-10.41.61-.68.47-2.67-.09-3.57a3.78,3.78,0,0,0-3.15-1.28c-4.52.7-7.06-1.23-8.53-5.36-1-2.84-2.58-4.86-6.08-2.69-4.11,2.55-8.64,4.53-12.4,7.5-1.49,1.17-2.49,5.66-1.81,6.4C505.66,452.18,513.24,457.46,516.82,459.87Zm30.27-16.33a1.94,1.94,0,0,0,1.66-.18c5.15-3.14,10.37-6.18,15.33-9.6.79-.55.6-3.16.17-4.61a3.45,3.45,0,0,0-3-1.54c-4.9,1.05-7.37-1-8.88-5.55-1-3.15-3.38-4.67-6.78-2.51-3.78,2.4-7.79,4.48-11.29,7.22a6.91,6.91,0,0,0-2.33,5.41C532.43,435.14,542.48,441.83,547.09,443.54Zm-96.47-61.08c9.3-8.82,8.35-19.14-2-26.68-6.07-4.43-11.37-5.37-20.36-5.29-8.43.34-15.59,1.95-22.35,6.68-9.08,6.37-11.28,15.76-2.81,25.19C412.48,392.76,440.07,392.45,450.62,382.46Z"/></g></g></svg>