<svg xmlns="http://www.w3.org/2000/svg" viewBox="0 0 1500 1500"><title>Python</title><g id="Python"><g id="Colour"><path d="M1437.86,1211.81c-3.69-5-6.56-10.6-9.68-16-6.86-11.92-13.56-23.94-20.48-35.82-11.26-19.32-22.54-38.62-34.08-57.77-1.63-2.71-4.74-4.54-7.22-6.73-2.19-1.93-4.94-3.44-6.56-5.75a61.43,61.43,0,0,1-6.69-12.28c-1.15-2.91-1-6.33-1.41-9.53-.24-1.76,0-3.77-.78-5.23-4.35-8.06-9.11-15.9-13.36-24-1.62-3.08-3.32-6.76-3.09-10,.34-4.9,2.43-9.66,3.65-14.51,2.32-9.18,3.11-18-3.82-26-3.92-4.56-6.67-10.11-10-15.18-13.76-21-27.38-42.09-41.34-63-12.65-18.91-25.78-37.51-38.54-56.35-11.06-16.34-21.75-32.94-32.9-49.22-8.18-11.95-14.2-25.68-26.62-34.29a122.37,122.37,0,0,0-16.8-10.15c-6.27-3-13-4.94-19.55-7.43a8.11,8.11,0,0,1-3.53-2.11q-13.35-17-26.48-34.15c-6.39-8.31-12.79-16.62-19-25.09-1.59-2.19-1.87-5.35-3.52-7.46-2.43-3.1-5.83-5.43-8.34-8.48-5.84-7.1-11.44-14.39-17-21.67q-15.8-20.54-31.46-41.15c-7-9.17-14.1-18.22-20.76-27.62-6.48-9.15-17-15.66-15.84-29.7.82-10.45-1.95-21.15-2.85-31.76-.92-10.84-1.24-21.73-2.37-32.54-.53-5-2.05-10.19-6.93-12.83-8.1-4.39-16.48-8.27-24.69-12.46-14.85-7.57-29.63-15.3-44.54-22.76-4.81-2.41-9.95-4.17-15.92-6.64a29.26,29.26,0,0,0-4.63-4.12c-6.11-3.83-12.24-7.68-18.65-11-6.57-3.39-13.57-5.91-20.2-9.19-13.18-6.54-26.17-13.47-39.37-20a102.42,102.42,0,0,0-16.25-6.59c-7.36-2.16-15-3.39-22.44-5.22a332.35,332.35,0,0,1-68.66-25.35c-28.65-14.18-57.77-27.43-86.85-40.71a37.84,37.84,0,0,0-15.55-3.37c-11.23.09-22.45,1.22-33.67,2.07-4.3.33-8.57,1.08-12.86,1.64-9.61,1.26-19.18,2.88-28.83,3.69s-19.28,1-28.93,1.17q-38.1.69-76.22,1.08a6.8,6.8,0,0,1-4-1.18c-5-3.87-9.61-8.27-14.78-11.87-6.37-4.44-12.58-1.8-18.61,1.45-18.84,10.17-37.94,19.87-56.48,30.55-14.73,8.48-28.94,17.89-43.07,27.35a183.78,183.78,0,0,0-20.51,16.22c-3.83,3.45-4.8,8-3.52,13.74,1.49,6.72,0,14.15,6.05,19.55-1.11,1.2-2.06,2.05-2.81,3.06-12.22,16.61-24.37,33.27-36.64,49.84-6.95,9.38-14.21,18.52-21.1,27.93-7.1,9.7-13.95,19.59-20.87,29.42-4.28,6.07-8.5,12.19-12.74,18.29-.83,1.17-3.32,1.17-4.39,2.4-5.21,6-10,12.27-15,18.46-9.69,12.1-19.33,24.24-29.06,36.3-7.47,9.26-11.44,19.41-8.6,31.47,1.64,7,3,14,4.93,20.89,2.06,7.58,3.5,15.59,7.09,22.42,5.3,10.09,12.33,19.25,18.5,28.89,9.65,15.08,19.28,30.17,28.72,45.38,2,3.28,4.29,7,4.54,10.65.37,5.49-.89,11.11-1.52,16.66-1.15,10-4.1,20.2,1.87,29.58,5.12,8,10.62,15.8,16.34,23.4,18.49,24.59,37.28,49,55.73,73.57,15.52,20.71,30.66,41.7,46.2,62.38a16.89,16.89,0,0,0,7.93,5.41c10.37,3.39,21,2.39,31.7,1.43,12.7-1.14,25.51-1,38.27-1.26,25-.45,50.09-.59,75.12-1.25,6.38-.17,12.37-2.39,15.23-9.13a30.66,30.66,0,0,0,3.5,1.55c8.33,2.68,16.9,4.78,25,8.08,10.67,4.38,21.28,8.76,32.3,12.29,18.9,6.05,37.49,13,56.19,19.7,20,7.14,39.93,14.68,60.11,21.38,9,3,17.42,7.55,27.27,8.65,6.33.71,12.17,5.15,18.41,7.43,20.48,7.47,41,14.83,61.59,21.94,3.42,1.18,4.94,2.72,4.32,6.13-1.29,7.06-1.07,13.82,3.38,19.88,3.62,4.93,7.21,9.88,10.93,14.73,1.38,1.79,2.82,4.14,4.74,4.82,13.61,4.76,27.39,9,41,13.71,20.58,7.06,41.07,14.37,61.63,21.47q38.61,13.34,77.28,26.5c21.93,7.45,43.94,14.67,65.86,22.15,18.45,6.28,36.77,13,55.27,19.1,7.85,2.6,15.77,4.16,24.3,1.3,16.72-5.6,33.65-10.56,50.59-15.44,3.89-1.12,7.51-3.49,12.29-1.77,11.94,4.29,24.09,8,36.22,11.71,26.16,8,52.18,16.58,78.61,23.59,17.75,4.7,34,13.54,52.45,16.44,12.44,2,24.67,6.06,36.57,10.4,12.69,4.63,22.41,1.68,31.56-7.74,8.86-9.11,18.7-17.28,27.88-26.1C1439.66,1220.66,1441.54,1216.79,1437.86,1211.81Z" fill="#3e471b"/><path d="M1437.86,1211.81c-3.69-5-6.56-10.6-9.68-16-6.86-11.92-13.56-23.94-20.48-35.82-11.26-19.32-22.54-38.62-34.08-57.77-1.63-2.71-4.74-4.54-7.22-6.73-2.19-1.93-4.94-3.44-6.56-5.75a61.43,61.43,0,0,1-6.69-12.28c-1.15-2.91-1-6.33-1.41-9.53-.24-1.76,0-3.77-.78-5.23-4.35-8.06-9.11-15.9-13.36-24-1.62-3.08-3.32-6.76-3.09-10,.34-4.9,2.43-9.66,3.65-14.51,2.32-9.18,3.11-18-3.82-26-3.92-4.56-6.67-10.11-10-15.18-13.76-21-27.38-42.09-41.34-63-12.65-18.91-25.78-37.51-38.54-56.35-11.06-16.34-21.75-32.94-32.9-49.22-8.18-11.95-14.2-25.68-26.62-34.29a122.37,122.37,0,0,0-16.8-10.15c-6.27-3-13-4.94-19.55-7.43a8.11,8.11,0,0,1-3.53-2.11q-13.35-17-26.48-34.15c-6.39-8.31-12.79-16.62-19-25.09-1.59-2.19-1.87-5.35-3.52-7.46-2.43-3.1-5.83-5.43-8.34-8.48-5.84-7.1-11.44-14.39-17-21.67q-15.8-20.54-31.46-41.15c-7-9.17-14.1-18.22-20.76-27.62-6.48-9.15-17-15.66-15.84-29.7.82-10.45-1.95-21.15-2.85-31.76-.92-10.84-1.24-21.73-2.37-32.54-.53-5-2.05-10.19-6.93-12.83-8.1-4.39-16.48-8.27-24.69-12.46-14.85-7.57-29.63-15.3-44.54-22.76-4.81-2.41-9.95-4.17-15.92-6.64a29.26,29.26,0,0,0-4.63-4.12c-6.11-3.83-12.24-7.68-18.65-11-6.57-3.39-13.57-5.91-20.2-9.19-13.18-6.54-26.17-13.47-39.37-20a102.42,102.42,0,0,0-16.25-6.59c-7.36-2.16-15-3.39-22.44-5.22a332.35,332.35,0,0,1-68.66-25.35c-28.65-14.18-57.77-27.43-86.85-40.71a37.84,37.84,0,0,0-15.55-3.37c-11.23.09-22.45,1.22-33.67,2.07-4.3.33-8.57,1.08-12.86,1.64-9.61,1.26-19.18,2.88-28.83,3.69s-19.28,1-28.93,1.17q-38.1.69-76.22,1.08a6.8,6.8,0,0,1-4-1.18c-5-3.87-9.61-8.27-14.78-11.87-6.37-4.44-12.58-1.8-18.61,1.45-18.84,10.17-37.94,19.87-56.48,30.55-14.73,8.48-28.94,17.89-43.07,27.35a183.78,183.78,0,0,0-20.51,16.22c-3.83,3.45-4.8,8-3.52,13.74,1.49,6.72,0,14.15,6.05,19.55-1.11,1.2-2.06,2.05-2.81,3.06-12.22,16.61-24.37,33.27-36.64,49.84-6.95,9.38-14.21,18.52-21.1,27.93-7.1,9.7-13.95,19.59-20.87,29.42-4.28,6.07-8.5,12.19-12.74,18.29-.83,1.17-3.32,1.17-4.39,2.4-5.21,6-10,12.27-15,18.46-9.69,12.1-19.33,24.24-29.06,36.3-7.47,9.26-11.44,19.41-8.6,31.47,1.64,7,3,14,4.93,20.89,2.06,7.58,3.5,15.59,7.09,22.42,5.3,10.09,12.33,19.25,18.5,28.89,9.65,15.08,19.28,30.17,28.72,45.38,2,3.28,4.29,7,4.54,10.65.37,5.49-.89,11.11-1.52,16.66-1.15,10-4.1,20.2,1.87,29.58,5.12,8,10.62,15.8,16.34,23.4,18.49,24.59,37.28,49,55.73,73.57,15.52,20.71,30.66,41.7,46.2,62.38a16.89,16.89,0,0,0,7.93,5.41c10.37,3.39,21,2.39,31.7,1.43,12.7-1.14,25.51-1,38.27-1.26,25-.45,50.09-.59,75.12-1.25,6.38-.17,12.37-2.39,15.23-9.13a30.66,30.66,0,0,0,3.5,1.55c8.33,2.68,16.9,4.78,25,8.08,10.67,4.38,21.28,8.76,32.3,12.29,18.9,6.05,37.49,13,56.19,19.7,20,7.14,39.93,14.68,60.11,21.38,9,3,17.42,7.55,27.27,8.65,6.33.71,12.17,5.15,18.41,7.43,20.48,7.47,41,14.83,61.59,21.94,3.42,1.18,4.94,2.72,4.32,6.13-1.29,7.06-1.07,13.82,3.38,19.88,3.62,4.93,7.21,9.88,10.93,14.73,1.38,1.79,2.82,4.14,4.74,4.82,13.61,4.76,27.39,9,41,13.71,20.58,7.06,41.07,14.37,61.63,21.47q38.61,13.34,77.28,26.5c21.93,7.45,43.94,14.67,65.86,22.15,18.45,6.28,36.77,13,55.27,19.1,7.85,2.6,15.77,4.16,24.3,1.3,16.72-5.6,33.65-10.56,50.59-15.44,3.89-1.12,7.51-3.49,12.29-1.77,11.94,4.29,24.09,8,36.22,11.71,26.16,8,52.18,16.58,78.61,23.59,17.75,4.7,34,13.54,52.45,16.44,12.44,2,24.67,6.06,36.57,10.4,12.69,4.63,22.41,1.68,31.56-7.74,8.86-9.11,18.7-17.28,27.88-26.1C1439.66,1220.66,1441.54,1216.79,1437.86,1211.81Z" fill="none" stroke="#000" stroke-linecap="round" stroke-linejoin="round" stroke-width="8"/></g><g id="Canopy"><polygon points="1245.76 1016.24 1226.92 997.14 1158.57 1048.08 1144.67 1067.42 1187.94 1093.26 1226.92 1104.25 1260.61 1071.58 1266.11 1053.42 1245.76 1016.24" fill="#82b3d1"/></g><g id="Grey"><path d="M1371.07,1104.8l-11.46-10.1-15.4-20.67,3.3-9.65-16.8-33.71,5.8-31.36-25.89-44.66-125.9-180.18-44.56-22.91L1001,566.12l-7.7-77.88-3.9-4.94L805.85,388.14l-54.18-14.67L712.26,356.8,620.08,315l-13.5-.58-38.41,4.08,103.39,61.92-33,30-15.77,19.62L817,595.42l-15.09,40.8-60.77-33.68-35.5,19.3-6.58,6.39,3.28,8L737,678.69l-76.8,26.66-2.53,24.72,19.79,23.45H683l79.11-15.43,10.1,15.6L993.31,959.2l-193.76,8.88L788.19,983.8l-302-154.08-12-3.07-24.2,4-60.26-61.28L182.06,551.68,253,454.43l13-12.24-28.94,67L266,540.5l64.59-35.42L352,527l61-21.88L296.85,427.47l-11.79-8.87,11.79-28.25,52.83-44.25,26.92-13.37,40.31-15.9-11.37-8.25-54.27,24.15-75.53,55.41,1.61,22.05,3.16,4.62-3.16,3.79L181.87,547.42l-40,49.86-12.84,23,4.77,30.41,51,85L193,753.33,190.55,800l60.78,83.67,57,78.08L491,958.31l279.11,94.55c-.59,12.14-.85,27.65,1.22,33.14,3.6,9.5,21.51,18.25,21.51,18.25L1078.61,1205a55,55,0,0,0,39.08-1l47.75-19.53L1387,1257.47l8.91-3.32,40.7-37.7ZM1336.23,1198l-55.56-10.32-109.87-37-15.67,4.68-6.72-1.65L931,1036.89l-10.82-67h.06l69.17-7.59,24,3.75,112.74,94.51,89-81.54-56.58-56.78-60.85-59L846.28,667.58l-5.21-9.21,2.64-41.74-17.09-14.09,22.45-46.92-2.79-10.72-76.35-65L744.4,458.7l8.16-33.24,155.08,88.66V531.3l18.05,20.38,126.64,153.67,39.32,46L1105,825.2l42.75,14.69,23,11.11,134.62,169.47v14.31L1377,1163.67ZM469.53,350l72.41,44.73,8.62,10.92L553.44,418c2.36,6.26,5.78,8.33,9.67.56l11.16-34-27.16-12.28,21.67-18.6-35-20-64.25-7.85-36.31.51,8.45,9.34ZM291.89,621.84l61.58,68.22L440,658.37,547.07,755.9l17.82,1.1,69.88-25.1-9.6-14.18-188.72-164-14.75-1.82L296.85,608.15Z" fill="#454545"/></g><g id="Shadows" opacity="0.2"><path d="M772.16,1040.63s-231.73-89.54-263-101.86S454,925.3,439.6,926.5s-45.75,4.15-69,7.49-52.92,8-60.19-3.1S228.76,823,216.73,804.31s-6-33.4-8-50.79-38.09-62.81-58.14-101.12-9.36-36.55-8.66-55.12l-15.08,18.36,2.24,20.58L141,681.5l49.6,74.4-3.38,43.92L287.59,938.77l27.32,26,171.84-5.13,283.18,97.32Zm10.68-276.48L979.66,943.63l30,19.1,126.72,102.48,59.52,30.3,18.08.66s-49.53-39.87-66-55.54-122.5-106.64-146-127.41S756.65,706.93,756.65,706.93L766.34,748Zm-162-22.59,57.59,15.18,12.34-23.82S493.43,524.85,487.42,519.56a13.86,13.86,0,0,0-13.23-2.65l23.07,47.16ZM1336.23,1198l-51.47-12-409.6-72.18-105.23-36.43,4,18.82,317.95,115.07,77-25.53L1391,1257.47ZM1037.31,902.91l-4.1-7.7h-13l-3,7.7,12,9Zm39.09-28.57,3.29-6.1-7.3-5-7.68-2.64-7.19,7.6,9,8.77ZM268,484.35c31.08-9,27.07,21.06,32.1,16.57s7-5,10.7-12.68-6.71-14.92-18.06-17.78S259,487,268,484.35Z"/></g><g id="Outline"><path d="M259.3,507.25c3.21,5.69,9.16,8.31,13.83,9.33a34.93,34.93,0,0,0,21-2.38c10.2-4.22,16.19-15.4,16.26-15.56,1.73-4.11,2.86-7.27,4.27-11.49.65-1.94.41-7.65-.05-9.67-.38-1.63-1.31-6-1.49-6.42a19.22,19.22,0,0,0-4.06-6.56c-7.1-6.61-16.34-5.77-24.3-4.06-14.48,3.12-24.16,13-28.07,27.4A25.24,25.24,0,0,0,259.3,507.25Zm16.33-15.59c4.08-8.37,11.2-12.38,19.83-14,6.54-1.22,10,3.36,8,9.8-2.9,9-13.18,17.33-21.74,17.59C274.1,505.3,271.69,499.73,275.63,491.66Zm103.65-58c5.51,3.61,20.46,12,31.56,18.72,11.28,6.82,15.91,6.53,22.73-1.54,4.42-5.23,8.57-10.71,13.17-15.78s4.52-6.26-1.77-9.28c-18.13-9.87-33-18.64-34.94-20.18-2.62-2.12-5.74-3.75-7.57-2-8.16,7.74-16.15,15.67-23.81,23.89C377.66,428.55,378.12,432.92,379.28,433.67ZM311.9,398c8.27,5.59,16.93,10.61,25.51,15.73,4.4,2.63,13.17.09,16.45-3.55,6.45-7.15,13.38-13.88,20.3-20.6,4.41-4.3,9.39-8,13.61-12.5.84-.88.76-2.62.73-4.33a2.6,2.6,0,0,0-3.73-2.07c-5.53,4.84-10.82,9.94-16.25,14.9-7.76,7.1-15.53,14.2-23.43,21.14a4.91,4.91,0,0,1-4.18.88,47.18,47.18,0,0,1-7.86-4.42c-4.93-3.2-9.77-6.53-15-10,5.45-5.09,10.59-10.23,16.1-15,7.78-6.68,15.87-13,23.7-19.63a4.56,4.56,0,0,0,1.5-3.68,5.72,5.72,0,0,0-2.89-3.53c-.85-.37-2.65.7-3.63,1.57q-10.89,9.62-21.6,19.44c-6.7,6.15-13.47,12.26-19.73,18.84C310.41,392.41,310.7,397.19,311.9,398ZM762.06,626.67c0-1.06-1.06-2.26-1.93-3.08a54,54,0,0,0-5.46-4.41c-3.31-2.37-6.67-4.66-10.77-7.49a3.25,3.25,0,0,0-3.4-.16c-5.72,3.08-11.93,5.69-16.66,9.94-5.59,5-4.23,8.45,1.61,13.88a34.28,34.28,0,0,1,3.06,2.73c8.87,6.25,8.87,6.25,14.22,3.92C754.51,634.73,762.22,631.72,762.06,626.67ZM605,930.74a2.39,2.39,0,0,0,.76.15,3.39,3.39,0,0,0,2.86-5.1,2.66,2.66,0,0,0-1.19-1.24c-11.15-4.76-22.48-9.06-33.75-13.55-10-4-20-7.89-29.88-12-4.08-1.7-5.42-2.86-4.63-5.09a14.67,14.67,0,0,0-.49-11.78,30.75,30.75,0,0,0-3.65-5.35c-4.55-6.06-11.23-5.59-17.84-5.41-7,.19-13.2,9.93-15.13,15.74-2.32,7-.7,13.95,0,14.95,9.67,13,23,15.56,34.66.93l7.68,3.11C564.61,914.34,584.76,922.65,605,930.74Zm2.42,28.58a4.32,4.32,0,0,0-2.46-2c-12.74-5-25.54-9.79-38.28-14.77-7.67-3-14.92-6.67-23,0-3.33,2.73-4.77,5.39-3.24,8.6,1.86,3.9,4.72.79,6.82-.42,5.16-3,7.36-6.68,14.92-2.62-1.07,3.52-1.6,7.51,3.08,8.7,6.79,2.4,8.24,3.09,13,4.62,4.22,1.13,8.84,2.57,13,1.88,5.34-.9,8-.33,9.8,4.89a31.23,31.23,0,0,0,3.57,7.75,5.34,5.34,0,0,0,4.53,1.89c1-.23,2.45-2.8,2.21-4A134.12,134.12,0,0,0,607.42,959.32Zm492.5,191.47c-9.21,0-17.3,7.25-16.4,15.65,1.09,10.13,5.92,14.31,18,15.09,6.14.39,13.88-7.66,13.78-14C1115.11,1158.42,1110,1149.85,1099.92,1150.79Zm199-171.49c-4.11-.36-7.31,1.22-6.56,6-.05,8.29,11.81,18.87,19.87,18,4-.4,6.89-5.11,5.85-9C1315.78,985.58,1307.13,980,1298.94,979.3Zm-341.79-148c6.18,5.86,12.41,11.76,19.24,16.8,1.9,1.4,6.78,1.07,8.82-.45,7.67-5.71,14.82-12.13,22-18.52,2.41-2.14,4-4.85.4-7.73-6.32-5.1-12.21-10.81-18.94-15.28-2.7-1.79-8-2.49-10.61-1-6.54,3.64-12.31,8.69-18.17,13.46a1.67,1.67,0,0,0-.4.5c-1.07,2,.76,4.36,3.06,4.2a2.89,2.89,0,0,0,1.47-.44c6.43-4.43,12.61-9.24,18.82-13.87l19.26,16-21.55,18.72c-6.37-5.58-12.66-11.3-19.25-16.66a3,3,0,0,0-4.59,3.65A2.44,2.44,0,0,0,957.15,831.31Zm80.73,63.22c-2.82-1.89-5-4.84-7.92-6.44-1.91-1.05-5.2-1.5-6.94-.53a35.52,35.52,0,0,0-10.45,8.28c-1.39,1.71-1.53,6.12-.26,7.95,2.39,3.46,6.11,6.05,9.46,8.77a31.93,31.93,0,0,0,4.74,2.89,3.38,3.38,0,0,0,3.78-.38c2.8-2.35,5.48-4.56,8-6.91C1044.69,902.28,1047.11,900.71,1037.88,894.53ZM1032,905l-2.17,1.79a3.38,3.38,0,0,1-4.33,0l-3.1-2.63a3.38,3.38,0,0,1,.22-5.32c4.34-3.13,5.7-2.87,9.66,1.24A3.37,3.37,0,0,1,1032,905Zm45.5-45.47c-1.75-1.26-3.3-2.8-5.06-4a12.91,12.91,0,0,0-1.14-.71,6.53,6.53,0,0,0-6.79.32c-3.06,2.05-6.11,4.08-9,6.29-4,3-4.17,7-.53,10.61,2.84,2.78,6.19,5.07,8.89,8,3.45,3.7,6.64,2.72,10.06.28,1.17-.84,2.3-1.72,3.49-2.51C1088.28,870.52,1088.29,867.39,1077.48,859.56Zm-3.07,12.57-3.19,2.26a3.42,3.42,0,0,1-4.14-.14l-3.67-3a2.81,2.81,0,0,1-.43-3.92c4.43-5.56,6.29-5.46,11.88.61A2.8,2.8,0,0,1,1074.41,872.13ZM271.17,803.6c23.64-14.5,23.27-26.16,18.67-31.35-1.89-2.13-3.24-4.75-5.2-6.8-4.81-5-7.86-12.61-15.26-11.88-11.09,4.55-22.45,16-28.62,21.65-4.32,4.39-1.82,9.89,3,17.11a25.68,25.68,0,0,1,3,4.26C256.17,809.24,260.51,810.52,271.17,803.6Zm701.09,218.46c12.94,9.25,24.86,19.92,37.17,30,8.37,6.88,16.65,13.88,25.21,20.51,1.12.87,4.52.59,5.49-.45,10.22-10.91,20.16-22.09,30.16-33.2a19.18,19.18,0,0,0,1.38-2.1,22.61,22.61,0,0,0-2.73-3.29c-5.82-4.84-11.72-9.59-17.6-14.37q-21.22-17.22-42.46-34.42c-2.47-2-5.34-5.32-7.73-5.08s-4.54,4.07-6.66,6.46c-7.94,8.94-15.69,18.05-23.78,26.85C966.9,1017.15,967.27,1018.49,972.26,1022.06Zm63.51,38.55L1001.92,1033a6,6,0,0,1,.58-.66c8-5.41,13.64-2.84,20.62,3.39,8,7.15,13,10.75,19.68,16.15Zm-16.31-42.33c1-3.49,1.06-4.38,1.67-7.16l33.69,27.64c-2.43,3-4.56,5.7-6.74,8.44-8.87-7.16-17.52-14.13-26.15-21.13C1019.45,1024.05,1018.31,1022.23,1019.46,1018.28Zm-15.67-20.86,11.26,9c-.79,3.75-1.62,6.86-2.09,10-.62,4.2-3,5.76-7,7.12-12.32,4.21-12.22,4.49-21.52-5.47Zm211.14-75.31c-8-7.28-16.86-16.22-24.72-23.59-11-10.92-26.4-26.1-29.4-29.39s-4.43-3.39-7.08-2.15q-12,5.57-24,10.92c-4.22,1.86-4.79,3.67-1.44,7q28,27.64,56.25,55.09c1.1,1.07,3.6,2.07,4.72,1.55,9-4.21,17.94-8.77,26.84-13.3a2.73,2.73,0,0,0,.84-.77,2.51,2.51,0,0,0,0-3.1A20.54,20.54,0,0,0,1214.93,922.11Zm-71.45-35,12.74-5.77,9.19,9.71a4.6,4.6,0,0,1-2.45,7.33C1154,899.38,1147.78,895,1143.48,887.11Zm43.92,43.56-26.59-25.81c6-2.19,20.33,15.62,29.3,24.12C1191.58,930.27,1189.38,932.19,1187.4,930.67Zm9.24-3.14c-5.94-6.14-11.39-11.82-16.9-17.44-1.91-2-4.13-3.62-5.88-5.69a68.94,68.94,0,0,1-4.43-6.55l1.93-1.5L1200,923.26ZM791.82,409.3c-1,1.38,41.25,20.76,42.08,20.52s12.28-5.28,12.37-6.29-1.46-3.75-2.56-4.58-14.49-10.72-28.6-12.74c-2.53-.36-9.9-.83-12.38-.46S792.92,407.81,791.82,409.3Zm646,802.51c-3.69-5-6.56-10.6-9.68-16-6.86-11.92-13.56-23.94-20.48-35.82-11.26-19.32-22.54-38.62-34.08-57.77-1.63-2.71-4.74-4.54-7.22-6.73-2.19-1.93-4.94-3.44-6.56-5.75a61.43,61.43,0,0,1-6.69-12.28c-1.15-2.91-1-6.33-1.41-9.53-.24-1.76,0-3.77-.78-5.23-4.35-8.06-9.11-15.9-13.36-24-1.62-3.08-3.32-6.76-3.09-10,.34-4.9,2.43-9.66,3.65-14.51,2.32-9.18,3.11-18-3.82-26-3.92-4.56-6.67-10.11-10-15.18-13.76-21-27.38-42.09-41.34-63-12.65-18.91-25.78-37.51-38.54-56.35-11.06-16.34-21.75-32.94-32.9-49.22-8.18-11.95-14.2-25.68-26.62-34.29a122.37,122.37,0,0,0-16.8-10.15c-6.27-3-13-4.94-19.55-7.43a8.11,8.11,0,0,1-3.53-2.11q-13.35-17-26.48-34.15c-6.39-8.31-12.79-16.62-19-25.09-1.59-2.19-1.87-5.35-3.52-7.46-2.43-3.1-5.83-5.43-8.34-8.48-5.84-7.1-11.44-14.39-17-21.67q-15.8-20.54-31.46-41.15c-7-9.17-14.1-18.22-20.76-27.62-6.48-9.15-17-15.66-15.84-29.7.82-10.45-1.95-21.15-2.85-31.76-.92-10.84-1.24-21.73-2.37-32.54-.53-5-2.05-10.19-6.93-12.83-8.1-4.39-16.48-8.27-24.69-12.46-14.85-7.57-29.63-15.3-44.54-22.76-4.81-2.41-9.95-4.17-15.92-6.64a29.26,29.26,0,0,0-4.63-4.12c-6.11-3.83-12.24-7.68-18.65-11-6.57-3.39-13.57-5.91-20.2-9.19-13.18-6.54-26.17-13.47-39.37-20a102.42,102.42,0,0,0-16.25-6.59c-7.36-2.16-15-3.39-22.44-5.22a332.35,332.35,0,0,1-68.66-25.35c-28.65-14.18-57.77-27.43-86.85-40.71a37.84,37.84,0,0,0-15.55-3.37c-11.23.09-22.45,1.22-33.67,2.07-4.3.33-8.57,1.08-12.86,1.64-9.61,1.26-19.18,2.88-28.83,3.69s-19.28,1-28.93,1.17q-38.1.69-76.22,1.08a6.8,6.8,0,0,1-4-1.18c-5-3.87-9.61-8.27-14.78-11.87-6.37-4.44-12.58-1.8-18.61,1.45-18.84,10.17-37.94,19.87-56.48,30.55-14.73,8.48-28.94,17.89-43.07,27.35a183.78,183.78,0,0,0-20.51,16.22c-3.83,3.45-4.8,8-3.52,13.74,1.49,6.72,0,14.15,6.05,19.55-1.11,1.2-2.06,2.05-2.81,3.06-12.22,16.61-24.37,33.27-36.64,49.84-6.95,9.38-14.21,18.52-21.1,27.93-7.1,9.7-13.95,19.59-20.87,29.42-4.28,6.07-8.5,12.19-12.74,18.29-.83,1.17-3.32,1.17-4.39,2.4-5.21,6-10,12.27-15,18.46-9.69,12.1-19.33,24.24-29.06,36.3-7.47,9.26-11.44,19.41-8.6,31.47,1.64,7,3,14,4.93,20.89,2.06,7.58,3.5,15.59,7.09,22.42,5.3,10.09,12.33,19.25,18.5,28.89,9.65,15.08,19.28,30.17,28.72,45.38,2,3.28,4.29,7,4.54,10.65.37,5.49-.89,11.11-1.52,16.66-1.15,10-4.1,20.2,1.87,29.58,5.12,8,10.62,15.8,16.34,23.4,18.49,24.59,37.28,49,55.73,73.57,15.52,20.71,30.66,41.7,46.2,62.38a16.89,16.89,0,0,0,7.93,5.41c10.37,3.39,21,2.39,31.7,1.43,12.7-1.14,25.51-1,38.27-1.26,25-.45,50.09-.59,75.12-1.25,6.38-.17,12.37-2.39,15.23-9.13a30.66,30.66,0,0,0,3.5,1.55c8.33,2.68,16.9,4.78,25,8.08,10.67,4.38,21.28,8.76,32.3,12.29,18.9,6.05,37.49,13,56.19,19.7,20,7.14,39.93,14.68,60.11,21.38,9,3,17.42,7.55,27.27,8.65,6.33.71,12.17,5.15,18.41,7.43,20.48,7.47,41,14.83,61.59,21.94,3.42,1.18,4.94,2.72,4.32,6.13-1.29,7.06-1.07,13.82,3.38,19.88,3.62,4.93,7.21,9.88,10.93,14.73,1.38,1.79,2.82,4.14,4.74,4.82,13.61,4.76,27.39,9,41,13.71,20.58,7.06,41.07,14.37,61.63,21.47q38.61,13.34,77.28,26.5c21.93,7.45,43.94,14.67,65.86,22.15,18.45,6.28,36.77,13,55.27,19.1,7.85,2.6,15.77,4.16,24.3,1.3,16.72-5.6,33.65-10.56,50.59-15.44,3.89-1.12,7.51-3.49,12.29-1.77,11.94,4.29,24.09,8,36.22,11.71,26.16,8,52.18,16.58,78.61,23.59,17.75,4.7,34,13.54,52.45,16.44,12.44,2,24.67,6.06,36.57,10.4,12.69,4.63,22.41,1.68,31.56-7.74,8.86-9.11,18.7-17.28,27.88-26.1C1439.66,1220.66,1441.54,1216.79,1437.86,1211.81ZM1244.34,870.18c8.72,12.93,16.11,26,24.75,39q8.92,13.44,18,26.8c2.54,3.75,3.49,7.32,1.89,12.05-3.72,10.94-6.69,22.13-10.28,34.3l-69.88-86.7c3.72,0,6.87-.2,10,0,6.66.52,8.49-.89,8.66-7.69.16-6.39,0-12.78,0-19.73-.61-8.12,1.13-11.23,8.15-7.3C1241.72,864.13,1242.12,866.9,1244.34,870.18Zm57.3,164.82c3.07,5.88,6.34,11.65,9.69,17.37,4.32,7.4,8.85,14.68,13.17,22.08,10.2,17.51,20.47,35,30.42,52.62,5.86,10.38,11.16,21.06,16.15,32.11-3.71-3.19-7.44-6.34-11.1-9.57-6.25-5.51-13-10.59-18.5-16.77-3.7-4.18-6.21-9.72-8.2-15-4.57-12.15-10.52-23.15-20.54-31.8-10.71-9.23-20.74-19.25-31.62-28.25-12-9.92-18.38-23.66-26.41-36.33-2.21-3.49-4.14-7.31-7-10.15s-2.94-6.19-2.51-9.54c1.26-9.78,3.49-19.5,3.89-29.3.15-3.59-3.5-7.52-5.88-11-2.76-4-6.11-7.56-9.07-11.42-4.86-6.35-3.92-7.53-1.82-14.16,12,14.64,23.76,29,35.39,43.41,9.48,11.77,18.75,23.71,28.14,35.56,1,1.28,2.25,2.39,3.36,3.61,3.29,3.62,6,7.28,2.65,12.44A4.83,4.83,0,0,0,1301.64,1035Zm-127.2,111.8c-3.67-.91-6.13-1.87-9.9,1.44-4.41,3.86-10.22,5.63-17.08,1.73-21.73-12.38-44-23.81-66-35.79-4.75-2.59-29.85-17-40-23.31,5.56-1.8,12.69-4.37,18.3-6a6.44,6.44,0,0,1,4.11.8c7.68,3.87,15.32,7.8,22.89,11.87a18.23,18.23,0,0,0,14.49,1.67c16.69-4.72,33.42-9.43,50.4-12.92,4.43-.91,9.81,2.55,14.69,4.2,2.69.91,20,8.3,24.43,8.94,12.67,1.84,21.06,10.61,29.89,18.69,11.52,10.54,22.8,21.4,34.92,31.21,4.16,3.36,10.53,4,15.93,5.82,8.29,2.75,16.69,5.22,24.91,8.18a29.42,29.42,0,0,1,9.27,5.17c8.59,7.44,16.92,15.2,25.33,22.87a1.64,1.64,0,0,1-1.31,2.85,73.13,73.13,0,0,1-10.39-1.73c-20.29-5.67-40.51-11.59-60.75-17.42C1260.61,1166.45,1246.67,1164.57,1174.44,1146.8ZM897.91,1045.87c-11.66-4.18-42.65-15.53-55.84-20-2.78-.93-8.13-.58-9.69,1.36-1.44,1.77-9.85,21.16-13.85,31.09-5.35-1.44-18.77-5.87-25.69-8.1.43-8.17.45-16.37,1.49-24.43.34-2.64,3.18-5.06,5.11-7.38,2.77-3.35,5.77-6.51,8.63-9.78a4.45,4.45,0,0,0,1.32-2.27c.21-6.27,1.08-24.07,1.42-26.66,5.7-.55,11.26-1.29,16.84-1.61,14.69-.84,29.39-1.49,44.09-2.24q20.94-1.08,41.89-2.23a9.81,9.81,0,0,0,1.18-.16,3.5,3.5,0,0,1,4.11,2.94c.92,6.82,1.81,13.56,2.77,20.28,1.77,12.44,4,24.83,5.22,37.32.57,6,5.38,6.65,8.67,8.61,14.52,8.69,29.41,16.76,44.08,25-1.74,7-3.37,13.85-5.23,20.66a4.72,4.72,0,0,1-2.54,2.93c-10.11,2.93-20.27,5.65-30.42,8.4-2.36.64-4.74,1.17-5.9,1.45-3-2.28-5.47-5-8.52-6.22-8.64-3.33-17.5-6.15-26.37-8.86-3.12-1-3.56-2-2.44-5.06,2.93-7.88,5.48-15.89,8.11-23.88C908.52,1050.48,904.37,1048.18,897.91,1045.87Zm-63.82,45.75c7.79,2.6,15.39,5.79,23.14,8.52,9.36,3.31,15.58.17,19.22-9.52.87-2.32,1.52-4.72,2.37-7.4l4.47,2c-2,7.37-4,14.89-6,22.26a4.29,4.29,0,0,1-5.62,3c-12.82-4.45-38.29-13.22-48-16.61a3.29,3.29,0,0,1-2-4.31c1.84-4.7,4-10.39,5.75-14.76,1.25-3.19,2.9-1.67,2.91-.73,0,2.69-1.12,6.47-1.1,9.15C829.33,1087.34,829.76,1090.17,834.09,1091.62ZM883,1072.14a41.92,41.92,0,0,0,1.2-4.31c1-6.51-1.81-11.34-8-13.48-6.75-2.35-13.62-4.39-20.3-6.92-11-4.16-16.64,4.4-20.82,13.18,0,0-3.72-.88-3.52-2,.41-2.42,8.59-21.61,8.73-21.71,2.66,0,48.71,16.29,53.16,18.51-1.29,3.45-4.63,12.95-6.46,17.83ZM444.16,725a6.73,6.73,0,0,0-3.35.86q-23.49,16.68-46.71,33.73c-1.18.87-1.44,3-2.32,4.93-2.27-2.67-4.4-5.32-6.68-7.84-7.62-8.4-15.16-16.87-23-25.09-6.92-7.29-14.37-14.08-21.2-21.44-7.37-8-14.18-16.45-21.49-24.48-3.15-3.47-6.93-6.39-10.45-9.52-2.86-2.55-3.2-4.34.74-6.48,11.47-6.24,10.16-5.86,21.22,5.56,5.2,5.38,10.09,11,14.87,16.81,3.54,4.25,6.85,6.19,12.64,4.09,19.8-7.22,39.84-13.8,59.75-20.72,6.05-2.1,11.94-4.68,18-6.62,1.69-.54,4.47-.27,5.72.81,11.22,9.78,22.17,19.86,33.28,29.77,8.51,7.6,17.18,15,25.7,22.62s17.13,15.42,25.6,23.24c7,6.48,13.81,13.21,21,19.54,1.22,1.08,3.92,1.32,5.63.85,11.87-3.31,23.61-7.06,35.5-10.26a8.09,8.09,0,0,1,6.66,1.68c5.19,5.29,9.75,11.18,14.75,16.67,2.21,2.42,8.38,8.4,9.24,10L575.43,794.4c-15.29,3.74-30.74,7-45.76,11.59-3.52,1.09-6.21,6.54-8.2,10.52-2.8,5.58-5,11.44-7.32,17.16a4.66,4.66,0,0,1-6.37,2.45c-1.84-.89-3.45-2-4.35-2.45-8.06-4.35-19.56-10.19-27.07-9.18-6.28.94-12.48,2.41-18.73,2.65-5.55.21-10.13-3-13.72-7.34-2.44-2.95-4.87-5.91-7.48-8.71-11.71-12.54-23.59-24.92-35.35-37.4-3.48-3.69-2.53-9.36,1.69-12.4,13.84-10,27.68-20,41.31-30.26,1-.76,1.62-2.5,1.77-4.29A1.62,1.62,0,0,0,444.16,725ZM314.94,774c-8.43-12.71-18.58-24.28-28-36.32-6.44-8.22-17-10.07-26.61-2-5.09,4.27-10.52,8.15-15.8,12.21-3-3.24-3.78-5.37-3.34-10.46.34-4,.8-6,1.92-8.07,4.89-9.15-.52-15.53-5.36-22.19Q223.8,688,210,668.79c-4.16-5.8-8.17-11.7-12.17-17.44,6.67-8,7.06-14.09,2.32-20.39a12.42,12.42,0,0,0-13.07-4.4c-5.17,1.29-7.36-.14-9.76-3.95s-5.49-7.55-8-11.51a4.46,4.46,0,0,1,.14-4.1c8.8-10.57,17.77-21,26.72-31.44.71-.82,1.58-1.51,3.13-3,7.28,8,14.47,15.85,21.65,23.73,1,1.07,1.76,2.3,2.75,3.34,14.58,15.34,29.27,30.57,43.74,46,12.62,13.45,24.95,27.17,37.49,40.71,14.84,16,29.82,31.93,44.63,48,10.09,10.94,19.94,22.1,30,33l.14.15a5.94,5.94,0,0,1-.2,8.77l-.56.47q-19.37,15.63-38.93,31c-8.48,6.64-17.46,12.64-25.77,19.49-1.33,1.1-2.48,2.4-3.71,3.6-2.71,2.65-8.17-6.31-10.11-9.2-2.49-3.72-5.31-7.21-8.14-11,8.21-7.12,16.75-12.84,22.78-20.53C317.79,786.74,317.53,777.94,314.94,774Zm14.39-221.38c8.63-5.39,10.09-10.26,5.37-19-.17-.31-.57-1.59-.73-1.91-2.17-4.14-5-7.12-10.07-7.53-5.27-.42-5,.21-10,2.8-2.82,1.47-8.78,4.92-11.78,6.89-2.12-3.58-3.74-6.43,1.93-9.48,6.35-3.42,14.44-8.62,23.5-13.19l15.18,16.08c3.61,3.81,6.88,5.81,13,3.38,19.41-7.77,39.09-14.89,58.92-21.55A293.41,293.41,0,0,1,449.8,500c2.29-.46,6,2.8,8.1,5.17,9.05,10.09,17.76,20.49,26.58,30.79,6.19,7.23,12.35,14.49,18.69,21.93-11.48,4.81-21.92,9-32.22,13.54-5,2.2-7.68-1.12-10.82-3.73-8.2-6.78-16.32-13.66-24.74-20.16-1.36-1-4.05-.59-6.11-.48-2.47.12-5.23,1.5-7.33.78-8.78-3-15.17,2-22.19,5.55-11.14,5.54-22.41,10.83-33.69,16.09-4,1.85-6.95,3.12-12.05,5.14-5.34,2.11-8.37.12-12.14-.54-7.86-1.4-26.23-9-28.4-10.81C319.27,559.36,324.2,555.84,329.33,552.63Zm-20.28-1.15c-1.45-3.4-2.92-6.79-4.72-11,5.27-3.17,10.09-6.58,15.38-9,1.76-.8,5.33.36,7,1.85,2,1.79,3.2,4.77,3.85,7.45.34,1.38-.81,3.91-2.07,4.76-4.27,2.87-9,5-13.3,7.84C311.89,555.63,310.33,554.5,309.05,551.48ZM582.39,385c6.39,3.36,12.17,2.75,18.43-.68,2.27-1.24,7.28-.07,9.59,1.79,8.44,6.81,16.28,14.37,25.29,22.51-6,6.08-11.8,11.7-17.15,17.74-1,1.12-.94,4.72.09,5.83,3.41,3.7,7.52,6.77,11.32,10.12,5.61,5,11.2,9.95,17.09,15.19l-11,13.55c-9.16-6.24-18.27-12.54-27.48-18.67-12.77-8.5-25.45-17.15-38.55-25.12-3.76-2.29-3.51-4.57-2.37-7.36C572.41,408.36,577.38,396.87,582.39,385Zm-8.12-10.42c2.8-2.75,8.74-4.6,22.49,3.45C593.09,381.92,586.9,381.24,574.27,374.62ZM913.14,541.16c2.42,2.62,4.53,5.52,7.35,9-9.15.55-17.71,1.12-26.27,1.52-.87,0-1.88-.77-2.67-1.39-5.23-4.13-10.68-7.19-17.61-8.35-4.55-.77-8.92-4.21-12.75-7.24-14.35-11.36-28.45-23-42.7-34.62a1.42,1.42,0,0,1-.3-1.84c1.57-2.53,2.25-4.74-1.7-6.8-3.28-1.71-2.46-7.09,1.09-9.11,1.69-.95,3.62-1.52,5.22-2.6,6.6-4.46,12.93-4,19.69,0,10.19,6,20.66,11.54,31,17.28,9.8,5.44,19.69,10.71,29.32,16.45,1.72,1,3.71,4.38,3.21,5.88C903,528.57,907.41,535,913.14,541.16Zm40.68,33.08a17.27,17.27,0,0,0,2.52,5.54q17.79,22.44,35.82,44.68c6,7.43,12.41,14.59,18.51,22,1.18,1.42,1.82,3.31,2.7,5a.68.68,0,0,1-1.12.74c-4.51-5.33-9.1-10.61-13.52-16-8.91-10.87-17.7-21.83-26.59-32.71q-13-15.93-26.09-31.79c-5.69-6.88-11.53-13.65-17.18-20.57-5.45-6.69-11.11-13.27-15.91-20.41-1.68-2.49-1.08-6.51-1.51-9.83l1.42-1.26c6.72,3.55,13.22,7.63,20.22,10.52,10.15,4.19,12.53,14.74,19.08,21.84,2.45,2.67,5.62,5.51,2.79,10.65A16.33,16.33,0,0,0,953.82,574.24Zm7.34-6a3.38,3.38,0,0,1,1-1.53,5.37,5.37,0,0,1,3.63-.41c3.24,1.07,5.37,1.27,8.26,2.83,3.06,1.65,5.37,3.54,5.66,5.76.47,3.55-3.57,4.57-10,2.09S960.07,571.18,961.16,568.2Zm265,382.08c3.69,3.9,6.18,8.94,10,12.69,7.08,7,6.66,15.15,5.14,23.76-.71,4.06-1.42,8.13-2.19,12.58-7.6-8.14-42-43.4-48-49.27-7.82-7.61-15.88-15-23.66-22.65-11.11-10.92-22-22.06-33.11-33-4.59-4.53-9.34-8.93-14.24-13.13-4.45-3.81-4.82-8.9-5.36-14.11-1.17-11.25-2.48-22.49-3.74-33.8,9.63,3.21,19.08,6.3,28.48,9.53,5.65,2,11.08,4.92,16.87,6,7.24,1.32,11.12,6.38,15.15,11.27,17.54,21.3,35.1,42.6,52,64.43,2.2,2.85,1.1,8.91.29,13.25C1222.91,942.54,1222.53,946.39,1226.2,950.28Zm-328.88-19c-4.25-4.54-8.31-9.48-13.34-13-2.58-1.81-7.34-1.87-10.63-1-3.75,1-7.79,3.29-7.77,8.49,0,3.84,0,7.68,0,12-2.52-2.07-4.58-4-6.84-5.58-7.93-5.7-7.12-11.91-5.75-21.77,1.54-11,1.42-20,2.54-29.91.2-1.77-1.08-4.17-2.42-5.57-5.31-5.55-36.12-38.42-40.52-42.89,9.16-.46,18.51-1.07,27.88-1.28,1.68,0,3.72,1.2,5,2.43,13.32,12.43,26.52,25,39.77,37.5q18.76,17.71,37.58,35.37c9.83,9.2,19.77,18.28,29.6,27.48,7,6.56,13.94,13.21,21.94,20.81-2.91.31-4.22.51-5.53.57-16.72.75-33.44,1.36-50.15,2.28-7.2.39-14.36,1.48-21.56,2.11-6.68.58-13.29.75-15.8-7.74,8.37,3,10.19-1.56,16.54-9.15C900.63,939.22,900.6,934.76,897.32,931.26Zm-47.14-49.79a89.18,89.18,0,0,1-1,15c-.69,4.59-.33,6.73-4.51,7.33-7.8,1.11-15.62,2.12-24.66,3.33,1-17.08,1.78-37.59,2.78-54.19C831.84,861,841.07,872.36,850.18,881.47Zm-118.4-19c.9.84,1.94,1.6,3,2.39,12.47,9.44,24.84,19,38,29.15-5.66,5.41-10.79,10.58-16.29,15.32-1,.88-4.13.77-5.26-.14-15.13-12.26-30.09-24.75-45.11-37.16a35.43,35.43,0,0,0-3.76-2.23C707.62,868.73,727,863.86,731.78,862.46Zm-43.67-4.09c-2-1.61-4-3.1-5.16-4,12-12.58,36.82-39.11,38.37-40.55,3.18-2.94,6.33-3.49,9.5.25,1.61,1.9,3.63,3.47,6.23,5.92-2.49,11.19-8,36-8,36.43-9.13,2.2-16.62,4.56-24.73,6.31C696.86,864.39,692.85,862.28,688.11,858.37Zm60.65,9c-3.68-2.88-7.43-5.7-10.9-8.82a5.48,5.48,0,0,1-1.73-4.2c1.82-9.61,3.94-19.17,6-29.1l54.41,42.93c-6.6,7.17-13,14.09-19.58,21.24C767.38,881.86,758.06,874.6,748.76,867.32Zm-23.44-77.58,23.8-5.74c3.44,0,11.61,9.09,17.22,14.73,7.8,7.83,11.31,12.75,19.62,20.07,1.61,1.42,22.9,21.34,27.93,26.4,3.29,3.31,4.08,8.89,1.85,15.83Zm145.9-39.18c-.12-.92,1.25-2.29,2.24-3.07,4.52-3.55,9.14-7,13.77-10.42,1-.74,2.27-2,3.21-1.8,8.9,1.53,14.11-5.14,20.69-8.83a5.18,5.18,0,0,1,4.61.16c12,9.16,23.91,18.52,35.83,27.83,12.35,9.65,24.74,19.22,37,28.94,14,11.07,27.83,22.32,41.84,33.37,4.21,3.32,8.76,6.22,14,9.92-6,4.19-11.49,7.75-16.67,11.65-2.41,1.82-33.71,25.83-37.53,28.92-3.39,2.73-6.46,5.84-9.81,8.61-7.17,5.94-10.68,14-13.71,22.49-.83,2.3-2.11,4.43-4,8.3-5.91-6.38-10.94-12.33-16.5-17.72-13.85-13.44-28-26.6-41.92-39.94-6.13-5.87-13.23-11.18-17.81-18.12-4.15-6.26-9.44-7.43-15.44-7.73-9.74-.49-17.18-4.72-24.07-11.39-20-19.39-40.43-38.42-60.72-57.55a57.05,57.05,0,0,0-7.87-6.64c-1.69-1.1-4.07-1.16-7.06-1.92l-6.65-15.83c8,7.19,16.23,14.23,24.19,21.51,10.6,9.72,21.05,19.6,31.6,29.36,3.22,3,6.5,5.91,9.91,8.66,3.11,2.5,11.57.41,13-3.32a54.54,54.54,0,0,1,22.63-27.09C868.87,757.17,871.77,754.88,871.22,750.56Zm87.87,160.09C958.54,911.82,958,913,957,915L866.73,829.8c9-.82,13.78,4.94,18.6,9.36,10.52,9.64,20.26,20.13,30.45,30.15C929.31,882.61,958.07,910,959.09,910.65Zm-17.17,61.94c19.49-1.45,39-2.85,58.47-4.4,5.79-.46,10.82.39,15.48,4.42,13.65,11.82,27.64,23.25,41.4,34.95,13.29,11.3,26.4,22.84,39.71,34.13s26.58,22.24,39.88,33.34c2.11,1.75,4.27,3.44,6.4,5.15-.23.57-.45,1.13-.68,1.69l-12.68,3.29c-8.13,2.1-16.58,3.42-24.32,6.5-8.69,3.45-15.6.89-22.69-3.49-6.4-4-12.63-8.4-19.48-11.32-2.79-1.18-7.11.85-10.62,1.82-6.7,1.86-13.23,5.06-20,5.67-4.27.38-9.1-2.51-13.26-4.71-16.59-8.75-33-17.83-49.5-26.74-11-5.92-22.06-11.67-33-17.72a7.57,7.57,0,0,1-3.16-4.53,86.76,86.76,0,0,1-2.06-13.79c-.09-1.44-5.16-40.65-5.55-43.15C931.53,973.33,936.72,973,941.92,972.59Zm189.37,65.71c-6.21.13-9,3.51-12.27,7.51-3.09-2.34-6.4-4.78-9.61-7.35a4.41,4.41,0,0,1-1.73-2.52c-1.7-17.1-13.77-26.39-26.4-35.28a13.12,13.12,0,0,1-1.59-1.79c5.83-6.52,10.78-12.71,17-21.09a12.45,12.45,0,0,0,1.37-7.47c-.83-4.51-2.63-8.84-4.13-13.58-1-4.28,4.11-4.65,5.12-1.09,2,6.15,3.81,12.35,6.21,18.3a3.84,3.84,0,0,0,2.09,1.67,2.66,2.66,0,0,0,3.66-1.74,5,5,0,0,0,.18-2.57c-1.16-4.46-3-8.75-4.63-13.38,6.79-5.44,13.57-11,20.57-16.34,1.23-.92,3.44-1.08,5.08-.82,5.46.86,10.84,2.28,16.31,3a3.28,3.28,0,0,0,2.12-.83,2.69,2.69,0,0,0,.72-3.58,4,4,0,0,0-1.81-1.85c-5.74-1.92-11.69-3.23-17.48-5-1.54-.47-5.06-.57-4.14-2.93l.46-.72a1.92,1.92,0,0,1,2.1-.8c5.22,1.43,10.52,2.63,15.58,4.5,5.86,2.15,8.6-2.07,12.59-6,17.2,18.18,34.08,36,51.05,54-5.51,3.37-12.61,7.5-19.48,12-4.19,2.75-38,34.27-41.54,38.78C1144,1037.11,1137.49,1038.16,1131.29,1038.3Zm99.3-34.42c.57,2.76,4.26,8.06,3.2,9.07-3.78,3.64-26.76,18.27-35.53,24.8a1.69,1.69,0,0,1-2.59-.79c-1.29-3.43-3.37-6.26.79-9.88,1.85-1.6,3.55-3,5.15-4.25C1201.61,1022.83,1227.05,1006.92,1230.59,1003.88Zm-70.91,48.4c3.78-3.88,22.85-12.11,27-15.68.5.17,3.76,9,4.26,9.21-1.09,3.28-9.63,11.7-12.05,13.22-.37.23-20.59,4.71-23.54,5.35C1154.58,1060.85,1156.11,1057.64,1159.68,1052.28Zm12.56,15.14c2.18.25,15.63,10.46,22.67,15.7a2.52,2.52,0,0,1,.3,3.76l0,0a1.19,1.19,0,0,1-1.39.26c-10-4.8-22.88-11.32-34-16.65C1163.54,1069.69,1170.23,1067.19,1172.24,1067.42Zm11.73-.2,23.55-26.59,27.59,32.75c-1.47,4.35-3.42,8.5-4.18,12.86-.69,4-2.52,4.87-6.14,5.26-6.79.74-11.59-2.38-16.57-6.38C1200.27,1078.72,1191.81,1073,1184,1067.22Zm30.36-32.67,24.68-14.08c14.16,8.48,25,31.24,20.6,43.2l-17.67,3.75Zm-64.1-115.37a3.19,3.19,0,0,1,.75,1.54,3.86,3.86,0,0,1-3.55,4.74,3,3,0,0,1-.91-.11c-6.27-1.93-12.38-4.37-18.64-6.33-1-.32-2.74.52-3.75,1.31-10.25,7.93-19.93,16.74-30.77,23.74-9.18,5.93-9.24,12.62-5.46,21.11,1.14,2.58,2.21,5.19,2.74,6.43l-19,21.69c-3.81-4.11-7.83-9.48-12.89-13.55-3.29-2.63-8-4-12.26-4.75-4.44-.78-9.14.09-13.7-.22a17.18,17.18,0,0,1-6.94-2.1c-5.25-2.92-6.57-9-10.18-13.32s-7.69-7.33-14-6.71c-5.73.56-12.08-6.71-11.84-12.28.09-1.91.12-4.5-1-5.67-6.75-7.17-13.83-14-21.47-21.63,2.87-5.74,6.49-12.51,9.67-19.47,4.51-9.89,13.49-15.16,21.49-21.45,11.45-9,23-17.92,34.51-26.85,4.69-3.64,9.41-7.23,14.14-10.82,2.93-2.22,5.49-1.48,8.25.66,13.93,10.8,27.95,21.47,41.94,32.2a10,10,0,0,1,.78.68C1115.53,885,1133,902,1150.23,919.18Zm-52.55-59.95a57.62,57.62,0,0,1-6.43-3.73q-24.8-19.12-49.5-38.4-32.6-25.4-65.15-50.85c-7.94-6.19-16.51-11.73-23.64-18.75-3.1-3-4.23-10.21-4.63-13.81a.7.7,0,0,1,1.1-.64c4.25,3,8.53,6,12.74,9,.55.4,18.94,15,21.22,16.76,5.3,4,10.07,9,15.86,12.1,4.53,2.41,10.26,2.6,15.48,3.66,11.24,2.29,22.5,4.47,33.73,6.82,1.29.27,2.43,1.33,4.2,2.35-3.13.74-5.78.92-8,2-3.86,1.9-4.72,6.28-2.12,8.62a142.12,142.12,0,0,0,20.55,15.29c6.27,3.86,10.2-1.91,14.62-5.45,1.21.65,13.31,10.32,14.64,10.6.17,0,.35.05.53.08,1.52,13.5,3.19,27,4.77,40.48C1097.78,856.43,1097.68,857.52,1097.68,859.23ZM995.55,724.14l-14.06,5.93-43.81-37c.06-.46.13-.91.2-1.37,6.74.87,18.47,2.64,23.51,3.25Zm-32.07-34.36c.3-5.08,1.58-10.18,2.59-16.32l49.27,42.32-10.91,4.6-2.08.89Zm61.13,79.61c-24.43-2-28-12.71-40.55-22.43,5,.83,10,1.57,15,2.52,4.31.82,19.23,2.49,25.74,3.2C1024.76,758.31,1025.1,764.06,1024.61,769.39Zm-67.88-81.65c-14.09-3.12-30,1.51-39.25-13.86,7-3,10.38-4.7,21.25-9.27,9.26-3.89,16-5,22.22,5.38C959.74,675.07,958.24,681.41,956.73,687.74Zm17.46,49.76c.3,1.89.62,4.37,0,4-5.16-3.6-41.45-28.88-47.16-33.28-7.12-5.48-14.37-13.22-21.83-18.19a77,77,0,0,1-13.05-10.76c.58-2,1.61-5.42,3-10.12Zm82.41,38.84c-5.14-3.38-11.95-3.16-18.06-5a57.28,57.28,0,0,0-6.85-1.29c0-9.25-.16-19.37.16-28.38.05-1.43,2-3.27,3.55-4.1,7.88-4.32,15.84-8.51,23.95-12.37,1.43-.68,4.47-.3,5.45.79,6.66,7.37,13.66,14.61,19.13,22.84,2.79,4.2,3.13,10.3,3.76,15.64,1.51,13,2.63,26,4,38.95C1081.16,794.78,1065.3,782.05,1056.6,776.34Zm-28.78-44.09c-4.5,1.94-4,4.4-3.59,7.58.27,2.09.72,4.18,1.11,6.27-9.7-1.61-28.1-3.34-36.52-4.93,8.28-3.95,15.1-7.33,22-10.5,8.29-3.8,16.67-7.37,25-11.16a4.53,4.53,0,0,0,2.31-2.53c.19-.7-.7-2-1.45-2.6-6.82-5.54-13.85-10.83-20.56-16.49-14.94-12.58-29.74-25.33-44.57-38-5.92-5.07-11.65-10.36-17.74-15.21-1.58-1.25-4.62-2.28-6.24-1.6-15.32,6.41-30.46,13.24-45.7,19.86-1.51.66-3.3.68-5.26,1.06,3-13,5.91-24.93,8.4-37a5.29,5.29,0,0,0-.36-2.72,2.72,2.72,0,0,0-4.33-1.2,4.5,4.5,0,0,0-1.51,2c-4.69,15.75-9,31.6-13.49,47.41-.89,3.16-3.35,6.82-2.46,9.3,1,2.68,5,4.26,7.52,6.16l3.33,2.48h0a97.42,97.42,0,0,1,7.73,6.05c10.27,8.08,25.83,20.26,32,24.06,6.68,4.08,6.56,9.74,7.06,17.29-10.49-8.25-41.83-34.3-42.17-34.57-5.37-4.28-10.45-8.92-15.89-13.09-4.79-3.66-9.93-6.87-15-10.22-2.13-1.43-3-2.7-2.09-5.68,5.55-19.25,10.72-38.6,16-57.92,1.8-6.55,11.94-47.34,15.2-56.17a6.15,6.15,0,0,1,4.5-3.23c7.13-.35,14.29-.3,21.43-.05a7.79,7.79,0,0,1,5.12,2.23c5.83,6.65,11.42,13.52,17,20.39,8.74,10.78,17.37,21.65,26.11,32.43,5.45,6.72,28.74,34.89,31.58,38.25Q1013.2,663,1023.85,676c7.08,8.65,14,17.42,21.07,26.08,4,4.87,8.11,9.62,12.44,14.74C1047.17,722.27,1037.79,727.94,1027.82,732.25ZM855.18,627.36c-6.38-8.79-11.74-18.63-23.2-23.52L840.93,585c9.15,6.19,23.9,14.93,32.32,20.28.54.34,1.15.87,1.8,1.39q-7.95,26.54-15.83,53.09c-1.06,3.58-1.62,7.31-2.48,11.27-8.26-4.71-3.49-11-3-16.32.64-6.72,3-13.27,3.89-20C858,632.38,856.65,629.39,855.18,627.36ZM737.59,502.65c10.23,8.86,20.51,17.7,31.32,25.82,2.38,1.79,7.19,1.58,10.43.67,4-1.12,6.74-1.17,9.66,2.1,3.6,4,7.42,7.32,8.31,13.54.58,4,4.39,8.05,7.65,11.11,7.66,7.15,15.88,13.71,23.83,20.56.69.6,1.65,1.76,1.48,2.37-1.69,5.93-3.6,11.79-5.7,18.46L631.13,435.12c8.35-.57,15.3-1.42,22.23-1.31,2.29,0,4.73,2.29,6.76,3.95,12.72,10.4,25.34,20.92,38,31.41,2.65,2.19,5.72,4.07,7.78,6.73,5.29,6.83,12.54,7,19.76,5.9,6.75-1,8.92,4.39,12.25,7.78,1.05,1.07-1,4.91-1.16,7.52C736.6,499,736.49,501.7,737.59,502.65Zm24-24.27q21.52,17.76,43.87,36.16a.32.32,0,0,1-.28.56c-2.53-.6-4.73-1.65-5.79-1.07-8.17,4.47-12.28-2-17.26-6.06-5.6-4.54-10.93-9.42-16.66-13.78-2.79-2.12-4.78-3.75-3.46-7.75C762.69,484.42,761.86,481.91,761.61,478.38Zm51.14,55.36c0,6.25,2.68,10.67,7.81,14.42a79.11,79.11,0,0,1,15.2,14c1.65,2.06.92,6,.91,9.44a1.39,1.39,0,0,1-2.3,1.06c-5.63-5-11.22-10.06-16.93-15a88.15,88.15,0,0,0-10.62-8.32c-4.31-2.68-4.44-7.18-4.69-10.94-.36-5.26-3.64-7.55-7-10.22-1.38-1.09-2.66-2.31-4.06-3.54,2.89-1,5.33-1.87,7.8-2.67a5.91,5.91,0,0,1,2.12-.32C803.87,521.79,812.75,530.79,812.75,533.74Zm-4.41-16.83c4.37,3.56,8.78,7.06,13.11,10.67,7.09,5.9,13.9,12.15,21.24,17.71,5.65,4.27,3.16,9.41,1.42,14.57-4.88-4-9.25-7.63-13.64-11.22-1.25-1-2.63-1.89-3.82-3-3.83-3.51-7.84-6.44-7.64-12.95.1-3.21-3.39-6.73-5.73-9.75a34.2,34.2,0,0,0-5.57-5.3C807,517,807.85,516.51,808.34,516.91ZM656.86,465.42c15.37,12.9,30.49,26.1,45.86,39,14.23,11.94,28.72,23.57,43,35.44,3.35,2.78,10.13,8.08,14.81,12.64a.69.69,0,0,1-.87,1.07c-37-24.7-79.4-52.9-116.2-77.48,2.9-3.72,5.55-7.52,8.7-10.86C652.9,464.46,655.87,464.58,656.86,465.42ZM694,517.24c15.39,10.22,30.67,20.62,45.91,31,16.73,11.45,33.34,23.07,50.08,34.51,7,4.75,14.09,9.22,21.29,13.9l-9.74,25.92c-9.76-6.54-19.45-13.12-29.23-19.57-19.92-13.11-39.91-26.11-59.78-39.31a11.23,11.23,0,0,1-4.13-5.16c-4-11.09-7.38-22.41-11.7-33.37C695.3,521.68,685.9,511.86,694,517.24ZM807.15,635.37c3.56-9.35,6.71-18.85,10-28.3.47-1.33,1-2.64,1.76-4.53l22.14,15.32c-3.42,11.3-6.54,21.62-9.64,31.85-1.22-.15-11.46-6.15-24.49-13.94A3,3,0,0,0,807.15,635.37ZM803.6,479.92c-1.18-.14-3.62.48-3.57,1.48.1,1.78.49,3.94,1.62,5.2,2.28,2.54,5.2,4.48,7.68,6.85s5.33,4,3.68,8.49c-.48,1.3,1.63,3.48,3,4.65,15.08,12.32,30.07,24.77,45.55,36.57,4,3.07,9.83,3.69,14.54,6a103.63,103.63,0,0,1,13.13,8.06c.61.42.25,2.74-.15,4-2.54,8.19-5.33,16.29-7.81,24.5-1.16,3.84-2.3,7.69-3.46,11.54-.17-.11-.33-.22-.51-.32-8.53-4.9-23.2-13.58-31.53-19,2.71-6.7,5.41-13.31,8.07-19.94,1.05-2.62-2.14-12.93-4.3-14.75-10.24-8.63-20.37-17.37-30.62-26-8.86-7.43-17.8-14.76-26.73-22.09-9.48-7.78-19-15.5-28.49-23.27-5-4.11-10-8.25-15.57-12.82l7.72-26.67,69.76,38C817.92,474.33,812.65,481,803.6,479.92Zm-55.14-2.71a11.42,11.42,0,0,1,4.61,4.11c1.23,2.19,3.1,5.89,2.2,7.08-4.71,6.32.58,8.93,4,11.88,7.6,6.57,15.52,12.78,23.67,19.44-7.87,5.85-11.94-1-16.68-4.63-6.55-5.05-12.86-10.42-19.07-15.88-1.31-1.15-2.66-3.42-2.44-4.95,1.07-7.43-2-12.09-8.65-14.87a5,5,0,0,1-1.56-1.5,3.73,3.73,0,0,1-.44-1C738.46,474.32,744.29,474.94,748.46,477.21Zm-10.11-9.47c-4.94.38-7.71-1-13-7.29,12.05-3.78,13.24-1.48,22.59,7.24C745.12,467.69,741.72,467.48,738.35,467.74Zm6-44.18c-.52.89-6.63,23.72-7.43,26.47s-13.44,4.4-15.09,4.4a6.92,6.92,0,0,1-6.32-5.78v-1.23c.27-1.52,11-32.62,12.65-32.61S744.91,422.67,744.4,423.56Zm-20.64,47a17.63,17.63,0,0,1,1.74,1.93c-9.08,5.23-13.16-3.1-18.41-6.84-7.55-5.38-14.24-12-21.31-18.07,8.2-3.71,12.82,2.34,18,6.38C710.58,459.28,717.12,465,723.76,470.54ZM709,405.75c-1.1,3-9.9,27.69-12.38,31.18s-12.81,4.52-14.14,4.57c-1.91.07-4.94-3.78-5.66-4.57-1.17-1.29,19.8-36.46,21.45-37.68S710.06,402.8,709,405.75Zm-24.75-11c-.83,1.1-23.05,27.65-24,28.81s-.6,1.88-2.53,1.74-22.94.42-26.51,0c-2.13-.25,37.13-36.87,38.23-37.15S685,393.65,684.21,394.75Zm-84.83,81,31.45,7.48C662.07,497,669.71,502,677.06,508.64c8.44,7.61,13.84,16.75,15.94,24.5,2.52,9.31,6.26,18.28,8.81,27.58,1.57,5.73,5.85,8.32,10.14,11.12,17.56,11.47,35.19,22.84,52.78,34.26,10.37,6.74,20.8,13.4,31,20.33,1.71,1.16,4,2.37,3.76,4.92-23.45-14.05-51.69-30.77-54.46-31.27-3.07-.55-4.74-.73-11,1.84s-30.53,15.65-34.91,20.7c-.42.49-4.15,8.8-1.77,12.1,8.05,11.18,27.71,32.86,34.4,41.49a1,1,0,0,1-.59,1.62,11.64,11.64,0,0,0-1.32.35c-3.23,1.1-5.08.4-7.15-1.82-16.34-17.49-32.66-35-49.14-52.37-7.24-7.63-14.81-14.94-22.3-22.34a6.11,6.11,0,0,0-3.11-1.82c-29.52-2.53-41.79-4-62.71-5.67a3.79,3.79,0,0,1-2.38-.76c-5.12-5.79-28.43-32.82-42.29-48.15-7.07-8.93-8.34-17.12-8.34-25.36,5.91-.53,14.64-.49,20.55-.84,8.53-.5,14.43-.53,22.71-2.21,5.45-1.1,10.55-4.86,14.76-8.93,8-7.66,8.94-8.52,9-16.6C599.53,486.47,599.38,481.57,599.38,475.79ZM740,683.91c1.63-.48,2.33-1,2.19-2.65a5.41,5.41,0,0,0-.7-1.82c-2.29-4.1-5.06-5.76-11.35-13.8-6.54-8.36-28.91-33.12-28.17-36.51s34.89-24.64,39.63-23,76.54,43.29,88.12,52.35l.21.16c9,7.12,18.06,14.16,27.06,21.29,10.45,8.27,20.91,16.53,31.2,25,5.61,4.62,10.86,9.66,16.32,14.55-4.84,2.89-9.06,7.52-16.73,7-2.82-.19-6,2.71-8.78,4.61a112.44,112.44,0,0,0-13.29,10.12c-2.13,2-2.71,5.58-4.58,8a55.46,55.46,0,0,1-8.34,8.71c-3.21,2.64-6.13,4.87-7.42,9.4s-4.54,8.75-6.91,13.1c-1.65,3-3.61,2.33-5.61.47-7.8-7.29-15.52-14.68-23.39-21.91-9.6-8.82-19.38-17.45-28.95-26.3-5-4.65-10.37-9.15-14.46-14.56-2.26-3-5.63-11.69-9.36-11.18a4,4,0,0,0-.66.14c-19.17,5.44-37.9,10.7-56.59,16.1a59.43,59.43,0,0,0-11.91,4.4c-4.19,2.27-6.17,6.26-6.29,11.25-.1,3.95-.83,7.88-1.37,12.54-6.45-6.36-13-12.12-18.56-18.72-1.67-2-1-6.29-.75-9.48A61.83,61.83,0,0,1,662.71,711c.5-1.75,2.14-3.94,3.75-4.48,11.69-3.92,23.49-7.52,35.29-11.11C714.06,691.68,739.09,684.21,740,683.91ZM670.59,751c6.2,7.45,12.79,7.45,21.15,5.64,22.74-5,45.61-9.35,68.46-13.75a1.64,1.64,0,0,1,1,.16,3.41,3.41,0,0,1,1.12,5.38,1.59,1.59,0,0,1-.81.53c-11.08,2.86-22.26,5.35-33.38,8-10.23,2.47-20.42,5.15-30.67,7.59-17.39,4.14-34.82,8.14-52.22,12.23-3,.7-5.88,1.66-8.74,2.42-8.91,2.34-11.57.67-15.91-4.81-6.27-7.93-13-15.53-19.55-23.35,13-4.42,26-8.43,38.69-13.29,6-2.3,5.88-6.21,1.14-10.39C632.79,720.32,625,713,617,705.86c-14.27-12.57-28.69-25-43-37.54-8.17-7.21-16.07-14.73-24.24-21.94-14.26-12.58-28.69-25-42.94-37.55-8.45-7.46-16.68-15.15-25-22.74l-7.64-7c10.88-4.49,21.61-9.06,32.49-13.23,1.3-.5,4,.69,5.09,1.94,9.68,11.21,19.08,22.67,28.7,33.93,7.77,9.09,15.85,17.91,23.59,27,13.45,15.83,26.72,31.81,40.17,47.63a6.78,6.78,0,0,0,4.5,2.36c5.11-.07,6.47,3.42,7.07,7.19,1.06,6.74,6.63,12.17,13.43,14.1,2.21.64,4.74,4,5.13,6.49,1,6.52,4.83,11.18,8.95,15.62C652.31,731.86,662.15,740.83,670.59,751ZM515.23,715a.49.49,0,0,1-.81.44l-46.07-43.75c-1.58-1.05,5.21-.56,10.25-.41,7.88.24,9.33.35,11.94,3.05,5.41,5.61,11.64,10.76,17.38,16.27,5.15,4.94,13.77,8.6,6.89,18.45C513.9,710.39,514.74,712.31,515.23,715Zm-15.48-47.58c-3.63-3.19-6.55-8.26-15.94-3.11-1.82,1-6.78-.63-9.71-1.72a14.59,14.59,0,0,1-4.57-3.5c-3.57-3.73-2.94-10.64,1.47-15,.44.11,2.86,1.21,3.13,1.8,2.83,6.3,8.86,9,19.16,7.59a9.43,9.43,0,0,1,6.36,2.07c6.63,5.69,13.16,11.51,19.3,17.64,4.48,4.47,13.13,8,5,16.8C515.58,682.2,507.89,674.61,499.75,667.45Zm-55.31-50.76c-4.61-4.57-12.17-8.69-5.1-15.57,7,6.11,11.92,10.09,19.64,16.79,4.72,4.1,15.9,9.94,7.26,18.31a19.21,19.21,0,0,1-2.38-1.57C457.29,628.64,450.57,622.77,444.44,616.69Zm13.63,32.08c-1,3.35-1.52,4.61-2.93,9.6-11-9-14.19-10-6-21.93C459.58,643.93,459.58,643.93,458.07,648.77Zm-18.85-13.28c-1.56,2.93-5,9.29-5.81,10.34-1.1,1.37-79.2,32.45-81.4,32.86s-13.26-14-12.51-15.26c1.79-3,90.61-41.91,93.08-40.81,1.88.84,5.18,7,6.66,9.86A3.24,3.24,0,0,1,439.22,635.49Zm81.55,84.82c2,1.34,4.31,2.81,5.59,3.5,4.11,2.23,8.86,5.75,13.33,5,8.89-1.47,12.78,2.73,17.46,6.62,1.45,1.21,2.62,2.7,4,4C566,744,565.56,744,571,749.09c-7.6,2.28-13.81,8-19.74,1.72-7.64-8-10.88-10.51-18.87-18-3.69-3.46-8.19-7.86-12.21-11.78A.45.45,0,0,1,520.77,720.31Zm39.69,7.44c-4.92-5.29-10.74-7.58-19.15-6.51-4,.52-16-8.26-16-11.58a6.2,6.2,0,0,1,.59-2.46c1.26-2.88,2.58-5.71,4.09-9,1.57,1.37,3.14,2.6,4.53,4,3.42,3.36,6.34,6.68,13.27,6.28,4.89-.28,10.67-.79,14.09,3.53,3,3.84,6.94,7.16,10.74,10.51,6.61,5.83,17.46,13.39,24.28,19.19a1.23,1.23,0,0,1-.67,2.15c-4.49.54-10.24,2.78-13.22,1.08C576,740.87,565.81,733.5,560.46,727.75Zm9.65-18.81c-3.86-3.09-8.94-6.61-14-6.68-8-.11-12.11-3.79-17.25-7.12-4.17-2.7-4-5.61-2.35-9.89,1.29-3.41,1.75-8.28-.42-10.49-9.77-10-20.39-19.22-30.91-28.36-1.12-1-4.7-.76-7.16-.57-3.46.28-7.4,2-10.17,1.41s-11.21-4.84-8.81-11.13c2.49-6.55,3-10.7-4.93-17.49-3.62-3.1-5.23-4.41-7.71-6.68-11.8-10.75-23.49-21.36-34.86-31.89-1.8-1.67-4.31-3.69-3.83-5.44,1.42-5.2,4.07-10.22,6.6-16.12,58.55,52,129.54,112.06,195.83,170.89-7.36,3.42-16.3,5.64-23.21,8.64-.72.32-2.2-.56-3-1.24C595.09,729,579.18,716.19,570.11,708.94ZM419.93,556c5.84-2.62-4.67,27.45-4.67,27.45s-107,44-108.45,43.62-6.68-3.88-9.25-6.22c-1.84-1.66.42-9.75,2.49-10.62C307.71,607,404.12,563.05,419.93,556ZM315.06,638.13c3.5-2.7,29.31-14.7,56.13-24.89s52-20.35,54-20.21.76,17.05-1.71,18.7-94,38.65-95.15,38.92S313.32,639.47,315.06,638.13ZM520.48,834.47c2.77-6.58,5.57-13.16,8.75-19.54a8,8,0,0,1,4.69-3.67c19-5,93.17-22.74,105.18-25.65,13.2-3.19,26.42-6.27,39.62-9.45q26-6.25,52.08-12.6c9.73-2.36,19.52-4.51,29.14-7.24,3.23-.91,5-.33,7.4,1.86q27.23,25.35,54.73,50.42c4.13,3.78,8.4,7.4,13.06,11.51-1.35.86-2,1.64-2.72,1.68-9.79.59-19.58,1.18-29.39,1.48-1.25,0-2.81-1.29-3.81-2.38-6.9-7.53-39.21-38.09-39.35-38.29-5.35-7.6-11.08-7.45-20-4.48-20.11,6.7-41,11.08-61.59,16.25-10.94,2.75-22,5.06-32.89,7.87a2.84,2.84,0,0,0-1.48,1.39,3.15,3.15,0,0,0,1,4.37,2.5,2.5,0,0,0,1.67.49c9.46-1.93,18.87-4.17,28.26-6.42,13.57-3.24,27.11-6.59,40.68-9.83,1-.24,4.92-1.21,4,0-1.8,1.93-3,3.26-4.22,4.51q-20.67,20.7-41.37,41.38c-3,3-6.12,6-9.09,9.11-2.63,2.74-2.52,5.52.38,8,8,6.83,15.9,13.71,23.95,20.43,9.7,8.08,19.42,16.15,29.3,24,11.28,9,22.77,17.63,34.12,26.5,2.53,2,4.43,1.62,6.63-.6C772,912.62,785,899.82,797.81,886.87c4.73-4.79,9.23-9.8,13.7-14.83,1.45-1.64,2.49-3.66,4.74-5.34-.68,13.92-1.36,25.64-2,39.16-4.7.93-16.06,3.15-16.62,3.31-6.77,1.94-12,5-14.65,7.41-12.33,11.29-18.22,16.47-30.41,27.91-3.55,3.34-6.37,7.47-10.19,12-34.24-17.14-185-98.55-204.88-108.3-5.25-2.58-10.45-5.26-15.68-7.87C518.93,838.92,519.61,836.55,520.48,834.47Zm234.4,119.69c7.61-7.39,15.68-14.3,23.45-21.52,4.82-4.48,9-9.8,14.33-13.53,3.39-2.37,8.27-2.92,12.59-3.58,13.33-2,26.71-3.75,40.07-5.57a6.27,6.27,0,0,1,1.56.43c0,4.57-.38,7.14-.14,11.8.54,10.74,3.74,13.16,7.7,17.27C861,946.25,868,952.55,874.85,959a1,1,0,0,1-.63,1.7q-29.78,1.53-59.54,3.07c-4.88.26-9.77.59-14.62,1.17a6.67,6.67,0,0,0-4.09,2.07c-2.91,3.61-5.48,7.5-8.72,12-8-3.82-16-7.6-24-11.48-2.23-1.09-4.24-2.61-6.46-3.7C752.14,961.58,751.06,957.86,754.88,954.16Zm176.26,154.89c11.22-2.92,29.09-7,36.94-8.88,9.23-2.24,12.55-4.46,14.78-12.24,2.65-9.25,3.08-10.54,5.49-16.35l110.57,60.77c-13.43,6-26.26,11.69-39.06,17.45-11.59,5.22-23.24,10.31-34.66,15.87-6.76,3.29-12.24-.64-17.88-2.5-22.84-7.54-45.53-15.53-68.22-23.49-8.77-3.07-17.41-6.51-26.12-9.75-1.66-.62-3.37-1.09-5.11-1.64,1.7-8.23,1.27-11.92,7.88-14.59A123,123,0,0,1,931.14,1109.05Zm377.06,52.7a10.06,10.06,0,0,0-3.59-2.15c-13.57-4.47-27.21-8.74-40.73-13.36a22.32,22.32,0,0,1-7.69-4.83c-11.23-10.49-22.27-21.18-33.76-32.17,11,0,17.84-7.4,25.25-13.41q12.45-10.08,24.2-21c2.78-2.59,4.53-6.29,6.85-9.64,7.42,6.65,14.56,13.67,22.35,19.88,13.56,10.8,22.17,25,28.57,40.63,4.1,10,12.41,15.78,19.6,22.73,6.17,6,12.83,11.42,19.79,17.56l-28.6,25.6C1329.44,1181.4,1318.85,1171.54,1308.2,1161.75Zm-79.59-320.56,10,15.26c-4.28-1.67-7.67-3.31-11.24-4.2-1.15-.29-3.53,1.06-4.06,2.24-1,2.22-1,4.85-1.63,8.25-4.21-6.82-8-13-12.05-19.56C1216.62,842.22,1223.07,848.6,1228.61,841.19ZM1172,773.63c12.91,3.31,15.82,9.74,22,21.44-7-1.83-39.16-6.58-44.93-8-.94-.23-2.8,0-2.9.32-.44,1.58-1.05,3.65-.38,4.89,2.3,4.24,5,8.25,7.75,12.25,5.51,8.18,9,14.57,14.4,22.79,1.47,2.21,4.23,6.82,5.89,8.83,3.25,3.92,8.14,4,12.79,4.44,3.78.35,7.85,0,11.21,1.43,2.88,1.19,5.26,4.12,7.3,6.72,5.38,6.83,10.48,13.88,15.59,20.91a5.67,5.67,0,0,1,1.19,3.4c-.38,5.21-1,10.41-1.58,16-.9-.35-13.06,3.46-19.9-7.4-8-12.67-18.42-23.76-29-34.35-4.56-4.58-12.12-6.41-18.56-8.81-14.4-5.38-29-10.2-43.38-15.67-1.55-.59-2.56-3.86-2.93-6-1-5.85-1.56-11.78-2.15-17.69-1.2-12.05-2.32-24.1-3.43-36.16a30.92,30.92,0,0,1,.19-3.95C1107.36,761,1165.75,772,1172,773.63Zm-70.79-70.09,18.24,24.3c19.46,23.31,10.68,20.25,5.8,19.74a14.56,14.56,0,0,1-3.89-.81c-10-4.52-20.18-18.17-26.09-24.87Zm0,39c-7.61,2.94-12.59,1.47-17.35-4.31-4.14-5-8.66-9.74-13.4-15,5.14-1,5.3-3.51,2.59-6.92q-8-10.1-16.09-20.21c10.28-.4,18.92,3.8,29.83,2.31,3.85,3.37,3.85,7.68,2.13,12.47a56.23,56.23,0,0,0-2.88,10.27,7.59,7.59,0,0,0,1.59,5.21C1091.91,731.87,1096.55,737.14,1101.14,742.57Zm-91.51-158.08c2.18,2.64,74.62,95.81,82,105.57-4.48,3.56-17.39-19.64-24.28-20.88-1.58-.28-28.45-4.76-29.93-4.51-6.69,1.13-52.11-58.86-71.8-83.31a.61.61,0,0,1,.71-.94c10.86,4.22,14.36,7.68,22.52,19.41,7.89,11.35,16.2,22.4,24.44,33.5a3.75,3.75,0,0,0,3.18,1.3,3.6,3.6,0,0,0,1.86-2.83,9,9,0,0,0-1.27-5.11c-10.28-13.67-20.73-27.21-31.22-40.91.62-1.21,1.36-2.62,1.59-3.08,1.32-2.81-.19-15.25-20.5-21.83-2.08-.67-3.53-4.19-5.21-6.45-2.57-3.46-5.11-7-8.5-11.59,7.84,4.32,14.71,7.93,21.4,11.84,6.35,3.71,12.43,7.88,18.79,11.57C1000.88,570.57,1004.46,578.21,1009.63,584.49ZM907.78,442.19c14.08,7.49,37,20.05,51.08,27.55l-.18-.17c9,4.38,18.08,8.53,26.9,13.21,5.62,3,5.94,8.92,6.48,14.45.78,7.91,1.57,15.83,2.15,23.76.92,12.66,1.66,25.34,2.52,38.67-1.41-.6-39-21.8-53.67-31.07-9.13-5.76-19.35-9.76-28.94-14.82-2.89-1.53-5.1-4.33-8-5.93-15.47-8.68-31.06-17.15-46.59-25.72-1.57-.86-14-7-15.85-8.17,2.65-1.65,8.8-3.49,14.8-7.16,8.74-4.21,18.19-8.76,27.65-13.3,1.11-.53,2.28-.94,3.37-1.5C894.47,449.47,900.8,447.24,907.78,442.19Zm-43.64-16.46v-5.3l34.44,17.74-19.31,9.25-21-11.91C860.64,434.59,863.82,428.71,864.14,425.73Zm-10.62-8.23c7.05,11.35-10,18-18.39,19.42-2.88.47-39.46-17.79-56.81-26.13-2.55-1.22-1.88-2.25.34-3.17,2.87-1.18,5.67-2.55,8.54-3.73,3.79-1.56,7.54-3.74,11.47-4.21a52.35,52.35,0,0,1,12.39-.11C819.87,401.35,852.34,416.88,853.52,417.5ZM743.14,373.83c20.91,7.68,75.75,18.87,64,19.77a25.93,25.93,0,0,0-16.38,2.13c-3.47,1.55-6.88.23-10.66-.6A180.89,180.89,0,0,1,741,382c-19.59-9.64-38.83-20-58.44-29.57-4.13-2-6.34-4.69-8.1-9.13C697.75,353.77,719.9,365.29,743.14,373.83Zm-83.62-37.35c-5.52,3.13-6.89,1.13-23.74-7.4C643.73,325.16,642.36,327.8,659.52,336.48Zm-18.58,1.71c2.95,1.53,6.64,2.79,6,7.47-.16,1.16,1.95,3.33,3.44,3.88,5.15,1.89,10.51,3.22,15.76,4.87s11,2.93,16,5.39c15.27,7.47,30.19,15.64,45.46,23.12a283.26,283.26,0,0,0,29.27,12.65c6,2.12,11.84,3.14,19,4.51a.68.68,0,0,1,.21,1.25c-3.27,1.87-5,2.61-5.81,4.48-1.62,3.88-.52,7.89,3.8,10.14,16.21,8.45,32.31,17.13,48.68,25.24,6.44,3.19,13.5,5.07,20.5.82,6.08-3.68,11.34-1.28,16.76,1.87,4.74,2.75,9.82,4.92,15.53,7.73L834.7,470.46c-1.56-2.9-2-5.18-3.34-6-11-6.44-22.08-12.59-33.14-18.85l-54.66-31c1.1-4.28,4.12-9.37-1.34-12.32-5-2.7-9,.38-12.07,4.58-5.46-2.92-10.81-5.61-16-8.66-1.13-.67-2.47-3.35-2.1-3.81,3.34-4.15,1.23-7.94-1.89-9.67-3.88-2.15-8.12-.84-10.36,3.81-.14.3-.41,1.37-1.13,1L685.4,382c-.87-5.1-.22-10.36-2.38-12.09-4.81-3.85-9,.37-12.39,3.93L598.37,333c6.87-1,12.83-1.71,18.71-2.82,6.56-1.23,9.66.68,14.78,3.46C636.71,336.24,638.46,336.91,640.94,338.19Zm-50.66-20.05c6-.49,12-.74,17.92-1.16,7.52-.53,14.73.18,21.56,5.67-4.66.71-8.87,1.43-13.1,2-9.09,1.15-18.18,2.37-27.31,3.17-1.65.14-3.51-1.49-5.18-2.46-2.85-1.66-5.63-3.45-9-5.52C580.74,319.19,585.5,318.54,590.28,318.14Zm-83.53,6.61c16-.12,32-1.21,48-1.07,1.84,0,3.78,1,5.47,1.95q43.6,23.64,87.13,47.39c4.53,2.47,8.94,5.17,14.75,8.54-2.36.54-3.35,1-4.29.93-5.37-.49-10.72-1.18-16.08-1.68-5.64-.52-6.89,4.7-8.93,8-.74,1.2,2.36,4.62,4.37,6.59a28.35,28.35,0,0,0,5.61,4.55l-3.22,2.55c-7.73-7.25-15.18-14.5-22.95-21.39-2.33-2.06-5.43-3.39-8.36-4.6-9.38-3.9-18.82-7.66-28.23-11.47-4.5,3.28-12.11,8.26-15.6,10.53-2.28-1.23-5-2.35-8.36-4.14-2.24-1.14-.63-3.18,1.68-4.54,9-7.56,21.93-13.83,11.07-19.21-11.65-5.76-22.84-12.49-34.58-18.07-4.16-2-9.32-2-14.06-2.66-4.46-.59-8.95-.94-13.43-1.34A.43.43,0,0,1,506.75,324.75Zm31.61,27.8c-14.29-1-25.86-4.47-37-11.05C511.18,336.34,531.91,342.64,538.36,352.55Zm-44.48-21.41c-1.58,1.87-2.67,3-3.56,4.25-2.3,3.29-.89,5.88,2.84,6.89,2,.55,3.57,2.75,5.41,4.1a63.18,63.18,0,0,0,27.85,11.56c4.33.71,8.09-.68,13.5,3.66.79.64,6.77-2,9.34-4.3,1.23-1.1.48-5-.13-7.41a10.84,10.84,0,0,0-2.29-3.72.7.7,0,0,1,.88-1.05l16.36,8.42-18.57,12.94c-4.86,3.39-4.72,5.89.42,8.58,7.93,4.15,15.84,8.34,24.46,12.88L557,418.56c-2.27-1.61-.5-7.57-3.2-12.59-5-9.26-12.39-15.56-21.19-21.34C509.31,369.34,499.22,363,485.66,355c-2.47-1.47-15.85-10.32-18.34-11.72-1.14-.64-7.1-4.05-10.08-3.59-4,.61-16.68-7-20-11.29C453.1,329.29,477.13,330.17,493.88,331.14Zm-120.17-2.76,33.91-17.62,5.36,4.92-38.9,13.55A.47.47,0,0,1,373.71,328.38Zm.65,11c-1.42,4.15.63,6,4.45,5.06,6.77-1.63,13.44-3.7,20.08-5.83,8-2.57,15.88-5.52,23.91-8,1.39-.43,3.47.36,4.87,1.2,6.6,4,13.08,8.11,20.63,12.84l-36.8,12c-1,.33-2.06.64-3.08.9-3.24.83-5.75,1.25-4.51,4.14.63,1.47,4.53,2.79,6.51,2.32,5.88-1.38,11.51-3.79,17.3-5.62,8-2.51,16.11-4.69,24-7.39,2.21-.75,4-2.84,6.59-4.83L485,363l-24.56,7.88c-1.53.49-3.26.64-4.59,1.46-2.58,1.59-4.61,4.62-1.57,6.59,8.86,5.72,22.69,14.06,27.64,17.33,8.35,5.5,15.13,8.92,25.43,4.59,6.35-2.68,19.53-7.32,23.2-9.27,10.34,3.07,14.93,12.84,19.82,22.34-3.12-1.53-5.76-5-9.88-2.3-.87.56-2.44,1.27-2.4,1.81.37,4.53,1.05,9,1.62,13.55a17,17,0,0,1,.29,2.82c-.34,8.54-.81,17.08-1.05,25.63-.1,3.88,6.48,10.51,10.29,11.21,10,1.84,31.45,5.77,32.15,5.88,10.61,1.58,12.1,4.88,10.58,16.7-.06.53-1.32,8.2-3,9.83-4.32,4.13-13.56,11.12-22.63,11.44-11.51.41-23,.1-35.28.1-.69-6.9-2.24-13.55-1.82-20.06.67-10.15-3.51-15.69-15.55-15.3-12.37.4-24.79-.53-37.18-1-1.35-.05-2.65-1.09-4-1.2-1.56-.12-4.19-.18-4.53.57-.75,1.63-1.17,4.42-.26,5.62a154.64,154.64,0,0,0,10.85,12.21C491.31,505,504.26,518.49,517,532.18,527,543,536.66,554,546.5,565s19.36,21.9,29.49,32.42c2.07,2.14,6.13,2.86,9.39,3.27,13.79,1.72,27.62,3,41.43,4.56q9.13,1,18.24,2.26a4.21,4.21,0,0,1,2.28,1.25c6.18,6.44,12.25,13,18.46,19.42,13.73,14.18,27.57,28.27,41.29,42.46,3.33,3.44,6.39,7.13,9.62,10.76-3.83,1.69-29.94,9.31-32.81,10.33-3.08,1.08-10.08,3-18.1,5.88-11.1,3.54-10.71,14.74-12.15,25.89-3.74-4.43-6.95-7.45-9.18-11.07-3-4.89-5-10.41-8-15.28-1.14-1.84-3.82-3.25-6-3.77-3.74-.88-8.6-5.37-9-9.31-.74-7.43-3.38-10.14-10.3-11.89-2.05-.52-4-2.45-5.45-4.16q-13.21-15.12-26.16-30.47c-11.18-13.26-22.19-26.66-33.4-39.89-9.24-10.91-18.69-21.65-28-32.5-10.85-12.62-21.63-25.3-32.48-37.92-7.32-8.51-14.74-16.94-22.08-25.44-4.08-4.73-6.72-9.37-18.6-9-3,.47-8.49.56-12.44,1.88-6.55,2.18-13.09,3.32-19.61,5.58-12.4-8.27-45.33-29.92-46.34-30.59-5.38-3.57-10.79-7.08-16.2-10.6-9.93-6.47-47.05-30.92-60.14-39.2a71,71,0,0,0,7.07-9.51c2.13-3.61,1.66-8.67,3-12.89a15.78,15.78,0,0,1,4.34-7Q324.7,373,345.22,356.15C353.92,349,362.41,341.35,374.36,339.34Zm-31.23,5.5a.55.55,0,0,1,.67.88c-6.23,5.38-12.37,10.86-18.69,16.14-8,6.7-16.13,13.27-24.22,19.87-4.82,3.94-4.84,3.93-11.43-1.2ZM277.35,393c0-2.46,2.52-5.35,4.64-7.19.78-.69,3.79.86,5.59,1.77a46.14,46.14,0,0,1,5.18,3.45c.31,9.13-8.4,12.47-11.39,19.44-.54,1.23-1.28,1.28-1.61-.2C278.87,404.47,277.41,398.72,277.35,393Zm-4.73,51.18c3.08-6.16,7.6-11.63,11.74-17.21.58-.78,1.18-1.54,1.79-2.3,7.53,5.3,38.19,25.17,42.24,27.82,10.46,6.84,58.77,38.36,77.15,50.25L381.79,511c-9.11,3.19-18.14,6.63-27.32,9.6-1.52.49-4.14-.32-5.39-1.47-5.51-5.1-10.87-10.39-15.95-15.92-2.82-3.07-5.37-2.93-8.6-1q-26.19,15.35-52.46,30.58c-1.24.72-2.53,1.36-4.43,2.37-8.07-9-16.18-18-24.7-27.54,4.83-9.82,9.91-19.65,14.56-29.68C262.69,466.74,267.09,455.16,272.62,444.14Zm-80.93,98.58c20.15-27.32,40.32-54.63,60.85-81.85a.78.78,0,0,1,1.35.76q-1.11,2.75-2.29,5.45c-5.56,12.64-10.7,25.49-17,37.74-2.78,5.42,0,8.32,2.6,11.36,8,9.18,16.45,18,24.55,27,2.89,3.25,5.87,3.2,9.17,1.28,6.81-4,13.55-8,21.07-12.53,2.12,4.5,4,8.3,5.71,12.17,3.82,8.56,7.49,17.18,11.41,25.7a5.58,5.58,0,0,0,3.15,2.35c8.93,3,17.9,5.93,27.24,9-2.08,2.66-3.75,5.38-6,7.44-1,.88-3.33.81-4.86.4-3.08-.83-6-2.4-9.06-3.21a6.86,6.86,0,0,0-4.47.73q-9.29,4.79-18.36,10a8,8,0,0,0-2.62,3.26q-3.15,6-6,12.08c-4,8.52-2.95,13.82,3.46,20.48,8.19,8.51,16.19,17.2,24.58,26.14l-14.85,9.09c-10.89-12-22.07-24.37-33.29-36.69q-7.73-8.48-15.58-16.82c-12.68-13.46-25.46-26.84-38.09-40.35-7.48-8-14.74-16.18-22.11-24.28C190.27,547.32,190,545.08,191.69,542.72ZM136.11,649.57c-.12,1.48-3.25-11.72-4.1-19.49a26.66,26.66,0,0,1,1.49-13c1.31-3.6,3.39-6.23,5.82-9.1,8.58-10.18,16.61-20.83,24.88-31.27,3.13-4,6.4-7.79,9.52-11.75,2.2-2.78,4.08-5.86,6.51-8.42.7-.75,3.47-.79,4.18-.07,3.36,3.39,6.33,7.17,10.18,11.67-9,10.14-18.5,20.58-27.68,31.29-8.92,10.4-18.13,20.63-25.92,31.84C137.71,636,137.73,643,136.11,649.57Zm89.35,194.92c-9.53-12.83-19-25.75-28.51-38.58-4.94-6.63-4-13.7-3.18-21.42,1.2-10.53,3.54-21,1.29-32-1.24-6.06-1.91-11.22-5.72-16.74C179.19,721,170,705.54,161.28,689.9c-6.73-12.06-15.26-23.17-17.61-37.62-1.54-9.48,1.36-16.51,6.81-23.27,3.63-4.5,7.62-8.73,11.7-13.37,3.69,5,7.5,9.82,10.81,14.94.84,1.31.36,3.68,0,5.49-.63,3.48-2.64,7.06-2.19,10.33,1.06,7.65,9.35,11.91,17.06,10.23,1.79-.39,4.92,1,6.05,2.64,10.82,15.19,21.36,30.2,32,45.5,3.09,4.42,5.37,7.33,9.76,13.24,2.16,2.91,2.09,5,1.51,7.77-.93,4.36-2.68,8.68-2.8,13.05a22.22,22.22,0,0,0,2.82,10.5c1.42,2.67,1.63,3.66-1,5.62-5.65,4.19-10.85,9-16.27,13.5-8.06,6.68-8.87,14.21-2,23.47,9.31,12.53,18.2,25.37,27.32,38.05.72,1,1.64,2.28,2.7,2.56a4.79,4.79,0,0,0,3.93-.66c.63-.57.54-2.74,0-3.67-2.5-3.93-5.2-7.84-7.87-11.54-11.07-15.32-16.57-23.23-21.33-29.92-3.25-4.55-4.17-8.64.16-12.22q21.69-17.89,43.84-35.2c5.09-4,11.43-2.69,15.27,2.2,5.68,7.23,11.48,14.36,17.05,21.66,1.47,1.93,9.17,10.92,10.4,13.81s1.53,8-.14,9.5c-11,9.77-22.72,18.77-34.12,28.11-5.46,4.48-10.83,9.07-16,13.87a3.24,3.24,0,0,0-.77,1.9,2.6,2.6,0,0,0,2.22,3,3.4,3.4,0,0,0,2.32-.27c5.41-3.86,10.52-8.16,15.8-12.23,2.67-2.06,5.48-4,8.43-6.06l15,18.93c-15.69,15.7-38.06,25-49.89,46.58C242.68,867.51,234,856,225.46,844.49ZM456.05,946.92a38.84,38.84,0,0,0-12.2-1.71c-4.32-.06-38.33,2.44-51,3.21a4.37,4.37,0,0,0-2.5.71c-5.53,5-12.62,5.08-19.3,5.73-9.22.88-37.46,3.58-47.65,3.51-3.87,0-16.13-2.52-19.86-7.87-2.54-3.65-11.38-16.69-13.47-19.42-9.86-12.82-19.7-25.66-29.4-38.61-3.59-4.8-3-9.12,1.22-14.12,1.28-1.51,104.85-83.06,127-100.61a5.65,5.65,0,0,1,7.66.59c10.89,11.81,22.31,24.21,33.77,36.57,3,3.28,5.92,6.87,9.49,9.46,7.17,5.2,8.72,12.77,10,20.64,2.89,17.89,6,35.76,8.61,53.69.92,6.26,3.6,28.26,5,32.84,2.25,7.51,4.52,15,6.91,22.47C471.69,958.49,457.2,947.33,456.05,946.92Zm216.35,66.35a4.68,4.68,0,0,1-3.83.41c-30.87-11.42-61.7-23-92.56-34.45q-35.12-13.07-70.28-26c-.83-.3-2.17-.75-2.59-.37-4.29,3.83-6.26,2.4-10.2,1.62s-7.12-2.17-11-3.41c-4.08-1.31-5.12.1-7.59-8.82-2.89-10.45-18-93.59-19.72-101.67-1.26-6-.44-7.22,5.79-7.77,4.82-.43,9.6-1.37,14.4-2,6.73-.94,11.51,3.6,16.92,6.23C503,842.46,514,848.16,525.11,853.8c5.27,2.69,128.49,67.81,141.3,73.69,1,.45,1.86,3.25,2.17,3.43-1.11,1.31-2.59,2.39-3.13,3.83-4.79,12.73-9.42,25.52-14.07,38.3-1.46,4-3,8.33,1.37,11.29,4.59,3.11,7.94-.08,10.09-2.54,1.8,2.75,3.06,6.76,5.67,8.06,2.4,1.2,6.25-.52,9.47-1,1.46,1.66,3.34,4.64,6,6.45,1.24.85,4.15-.28,6.06-1.08a5.86,5.86,0,0,0,2.73-3.18c5-13.35,10.92-29,16-43,9.67,4.94,45.07,21.47,47.73,22.83,5,2.58,10,5.38,15,8,3.59,1.89,7.16,3.83,10.85,5.48,5.49,2.45,6.77,7,2.82,12.88-2.51,3.72-5.77,6.93-8.69,10.37-11.22-5.24-22-10.24-32.7-15.33-1.32-.63-9.46-4.86-12.38-3.75-12.18,4.62-22,7.56-34.21,12C688.34,1003.76,679.9,1007.49,672.4,1013.27Zm97.48,4.94c-.78,8.64-1.63,17.29-2.15,26-.36,5.9-.7,6.13-6.43,4-20.24-7.64-40.54-15.14-60.82-22.69l-17-6.32c5.41-2.5,10.72-5.27,16.21-7.59,10.06-4.26,20.29-8.12,30.27-12.55,4.31-1.9,7.49-.33,11.15,1.47,8.29,4.07,16.67,8,25.19,11.57C769.56,1013.36,770.14,1015.26,769.88,1018.21Zm23.47,80.16c-9.69-2-17-6.34-19.74-15-1.56-4.89-1.55-10.46-1.37-15.69.27-7.75,1.45-15.47,2-23.22s.48-15.28,1.3-22.85c.3-2.84,2.19-5.58,3.68-8.17a11.77,11.77,0,0,1,3.46-3.5c8.46-6,11.05-14.52,11.49-24.36.28-6.4,4.16-11,10-14.35-.65,5.27-.82,13.63-1.57,21.05-.88,8.69-2.39,14.15-8.66,19.24-8,6.47-7.9,15.22-8.68,23.92-.81,9-1.93,18-2,27,0,4.27,1.61,8.74,3.31,12.78s5.19,7.55,6.51,11.72C794.23,1090.46,793.35,1094.6,793.35,1098.37Zm104.06,37c-15.24-5.33-29.56-10.37-43.89-15.35q-24.07-8.34-48.18-16.56c-2.54-.87-4-2.1-3.58-5,1.39-10.82-2-20.08-8.4-28.84-2.14-2.91-1.17-6.8-1.17-12.74,8.5,2.65,13.94,4.17,20.56,6.6,1,.38,2,3.28,1.65,4.56-2.14,6.83-4.59,13.57-7.21,20.23-2.93,7.43.36,12.18,7.9,13.92,8.65,2,17,5.54,25.36,8.54,10.93,3.9,21.74,8.15,32.73,11.83,6.79,2.27,8.62,1.19,11.29-5.41,3.47-8.58,6.75-17.23,10.12-25.9l30.79,10a1.33,1.33,0,0,1,.08,2.5c-2.82,1.11-5.62,2.38-8.54,2.79-8.62,1.24-12.44,5.32-15.12,14.34C900.39,1125.72,898.93,1130.5,897.41,1135.41Zm527.76,88.88c-8.16,7.22-16.09,14.71-24.25,21.94a58,58,0,0,1-9.48,7.08,8.39,8.39,0,0,1-6.21.45c-11.63-4.08-23.07-8.74-34.73-12.73s-23.54-7.25-35.25-11.08c-10.66-3.49-21.25-7.23-31.79-11.09a2.25,2.25,0,0,1-.6-.34,2.79,2.79,0,0,1,1.06-4.81,2.61,2.61,0,0,1,1.23-.08,141.22,141.22,0,0,1,13.93,3.78q29.48,9.15,58.9,18.42c7.83,2.48,15.51,5.42,23.39,7.68,1.93.55,5.75-.12,6.36-1.37,1.76-3.65-1.83-4.37-4.35-5.15q-35.62-11-71.29-21.87c-9.46-2.88-29.48-9.67-33.76-6.53-4.95,3.63-7.58,3.25-11.89,1.65-3-1.11-6.35-1.44-9.17-2.86-3.35-1.71-6.78-3.36-7-8.44s-3.39-7.18-8.61-9.35c-8.59-3.57-12.08-4.31-25-8-5.78-1.67-9.46.3-13,3.72-2.91,2.78-5.49,3.61-9.61,2.25-10.52-3.46-14.16-3.73-24.68-7.16-4.63-1.5-9.79-1.59-13.67.66-3.78,1.38-7.08,2.38-10.2,3.76-14,6.21-28,12.45-41.94,18.93-1.57.73-13.43,1-18.57-.91-6.37-2.32-13.08-3.68-19.52-5.83-13.71-4.59-27.34-9.44-41-14.15-11.93-4.11-23.9-8.14-35.83-12.26-10.93-3.78-21.84-7.63-32.75-11.47q-22.75-8-45.48-16c-1.5-.53-3.39-.94-4.25-2.06s-.46-3,.26-4.34a1.89,1.89,0,0,1,2.67-.94q27.72,9.63,55.36,19.51c15.53,5.59,31.2,10.87,46.39,17.28,8.25,3.48,14.4-.24,21.07-3.14,21.86-9.54,43.65-19.24,65.49-28.82a41.89,41.89,0,0,1,8-2.84c2-.42,4.44-.6,6.1.25,11.66,5.94,23.39,11.81,34.62,18.5,4.94,3,9.19,3.94,13.88.82,8-5.31,15.11-.2,22.29,1.84,8.89,2.53,17.42,6.29,26.24,9.09,12.77,4.06,25.69,7.64,38.5,11.6,13.14,4.07,26,9.72,39.42,12.05,8.5,1.48,16.89,3.44,25.32,5.16,7.88,1.61,15.64,3.85,23.4,6,2.8.77,4,.5,5.87-2.45,2.6-4.14,6.91-7.24,10.63-10.64,7-6.41,14.45-12.43,21.1-19.22,2.53-2.59,8.87-2.25,7.43-8-.93-3.7-3-7.16-4.71-10.62-3.24-6.35-7.48-12.31-9.85-19-10.86-30.5-30.64-56.09-45.82-84.2-2.57-4.77-6.51-8.78-9.66-13.27-.77-1.1-1.61-3-1.2-4,4.35-10.82-5.08-15.77-9.49-22.82-3.1-4.94-10.67-12.4-10.85-12.62-7.15-8.71-3.25-13.11-2.13-18.18,2.11-9.56,5.28-18.89,8.13-28.29a53.33,53.33,0,0,1,2.8-6.17c5,7.51,9.87,14.54,14.45,21.75,5.07,8,9.88,16.12,14.83,24.17a8.89,8.89,0,0,0,1.51,1.56c4.6,4.48,7.54,9.21,5,16.16-2,5.32-2.81,11.06-4.37,16.55s-1.41,10.34,1.82,15.43a227.72,227.72,0,0,1,11.52,21.32c.66,1.34-.42,3.51-.64,5.31-.28,2.25-1.48,5-.6,6.67,4.3,8,9.08,15.81,13.89,23.56a7.92,7.92,0,0,0,3.91,3c9.82,3.42,13.25,12.19,17.44,20.37.16.32,51.3,87.32,51.47,87.54C1434,1215.51,1433.73,1216.71,1425.17,1224.29Z"/></g><g id="Thrusters"><path d="M1171.61,803.74c9,16.35,13,20.74,26.47,19C1193.74,809.73,1188.48,806,1171.61,803.74ZM808.69,411.8c0,3.56,26.58,14.94,28.69,10.91C837.38,419.23,817.26,405.57,808.69,411.8ZM189.58,632.68c-4.16-.34-12.37,6.57-12.51,11.26-.07,2.61,4.69,6.56,8.2,6.26,6.09-.52,10.47-4.29,10.4-11.07C196.51,634.74,193.89,633,189.58,632.68Zm79.28,134.13c-5.29-.43-15.73,8.35-15.9,14.31-.1,3.32,6,8.34,10.41,8,7.75-.66,13.32-5.45,13.24-14.06C277.67,769.43,274.33,767.26,268.86,766.81Zm258,114.87a17.87,17.87,0,0,0-4.53-.4c-8.15.05-13.17,5-13.2,13.09s6.11,12.26,14.19,10.25c5-1.26,7.48-4.63,8.63-8.72a13.87,13.87,0,0,0-.79-10.37C530.78,884.61,528.86,882.16,526.91,881.68ZM974,569.09a22.54,22.54,0,0,0-8.26-2.83c-.85-.15-3-.16-3.63.41a3.38,3.38,0,0,0-1,1.53c-1.09,3,2.12,6.3,8.47,8.74s10.5,1.46,10-2.09C979.37,572.63,977.06,570.74,974,569.09ZM856.2,1061.32c-8.14,0-13.16,5-13.2,13.09s6.11,12.26,14.2,10.25c5-1.26,7.47-4.63,8.63-8.72C866.92,1072.07,867.63,1061.32,856.2,1061.32Zm251.56,101.52c-3.1-2.08-6.06-4.29-9.06-4.36-4.59-.11-8.29,4.18-6.29,9.47,1,2.66,4.07,5.87,6.65,6.33,4.5.8,7.2-2.06,9.85-6.44A3.73,3.73,0,0,0,1107.76,1162.84ZM1310.46,995c-.8-5.8-4.82-7.62-10.43-7.46-1.14.27-1.58.8-1.19,1.63,1.33,3.72,4.3,6.51,10.16,7.69C1310.31,997.5,1310.94,997.09,1310.46,995Z" fill="#007aff"/></g></g></svg>