<svg xmlns="http://www.w3.org/2000/svg" viewBox="0 0 1500 1500"><title>Sidewinder</title><g id="Sidewinder"><g id="Colour"><path d="M1266,774.49c-5.87-4.39-12.92-7.84-17.34-13.38-11.29-14.19-24.81-26.34-34.76-41.88-8.31-13-20.13-23.7-30.35-35.46-6.41-7.38-12.83-14.74-19-22.27-5.82-7.06-11.27-14.41-17.09-21.47-3.58-4.34-7.65-8.28-11.32-12.55C1123,612.27,1110,597,1096.89,581.74c-3-3.44-5.94-6.87-9.09-10.13-6.44-6.66-13.26-13-19.46-19.85-9.12-10.09-17.67-20.71-26.86-30.74-2.07-2.27-6-2.7-8.67-4.58-5.14-3.62-10.07-7.57-14.93-11.57-9.26-7.64-18.06-15.9-27.72-23-7.65-5.62-15.83-9.13-26.46-5.81-12.25,3.81-25.32,4.87-37.89,7.75-16.56,3.79-33,8.07-49.45,12.36q-28.77,7.51-57.44,15.49c-5.45,1.52-11.25,3.06-15.77,6.2-3.43,2.39-5.77,3.15-9.39,1.53-1.49-.67-3.62-1.12-5-.57-18.19,6.91-36.29,14.06-54.45,21-4.32,1.66-8.67,2.38-13-.37s-8.5-1.69-12.79.61c-12.56,6.77-25.26,13.29-37.88,20-15.11,8-30.33,15.77-45.21,24.15-3.65,2.06-6.68,5.77-9.08,9.34-3.89,5.76-6.33,12.51-13.52,15.52-2.74,1.15-5,3.45-7.53,5.16-15.41,10.52-30.66,21.3-46.32,31.44-10.8,7-11.65,7.66-9,16.4.08.26-.19.64-.45,1.39-9.1-1.68-15.63,3.47-22.12,8.87a102.89,102.89,0,0,1-11.14,8.55c-21.41,13.28-39.05,31.58-60.53,44.85-8.38,5.18-18.76,9.09-22.17,20.13Q405.19,760.76,387,775.65c-9.49,7.8-19,15.61-28.33,23.55-8.71,7.37-17.27,14.92-25.9,22.38-10.27,8.88-20.6,17.67-30.75,26.68-1.12,1-1.64,3.17-1.68,4.82-.17,7.69-.26,15.4,0,23.09a13,13,0,0,0,2.43,6.87c4.14,5.52,8.71,10.72,12,14.74.77,3.91,1.16,6.68,1.88,9.36,1.23,4.6,5.16,5.35,9,7,5.87,2.45,11.12,6.38,16.64,9.67,16.19,9.63,32.42,19.19,48.55,28.92,3.82,2.3,7,5.94,11,7.55q26.13,10.39,52.62,19.88,44.16,15.87,88.52,31.2c26.19,9,52.56,17.5,78.83,26.3,22.52,7.54,45,15.25,67.52,22.78q39.17,13.1,78.39,26,26,8.58,51.93,17.09c8.16,2.68,16,6.61,25.06,5.46a123.72,123.72,0,0,1,15.73-1.08c8.34,0,15.55-3.35,22-7.85,13.71-9.56,27-19.73,40.44-29.65,14.6-10.79,29.11-21.71,43.83-32.34,10.2-7.36,52.2-35.6,54.18-37.46,8.47-7.92,16.9-16,26.23-22.81,5.93-4.32,8.4-8.86,7.73-15.87-.18-1.86.52-4.57,1.83-5.66,13-10.86,59.58-48.36,61.11-49.5,4.56-3.43,8.91-9.07,13.86-9.67,13.06-1.59,23.68-6.84,34-14.68,7.09-5.42,44.21-39.42,49.48-44.31,12.24-11.38,24.69-22.54,37-33.81q7.45-6.81,14.92-13.59C1276.5,781.48,1266.28,774.71,1266,774.49Z" fill="#c8ccce"/><path d="M1266,774.49c-5.87-4.39-12.92-7.84-17.34-13.38-11.29-14.19-24.81-26.34-34.76-41.88-8.31-13-20.13-23.7-30.35-35.46-6.41-7.38-12.83-14.74-19-22.27-5.82-7.06-11.27-14.41-17.09-21.47-3.58-4.34-7.65-8.28-11.32-12.55C1123,612.27,1110,597,1096.89,581.74c-3-3.44-5.94-6.87-9.09-10.13-6.44-6.66-13.26-13-19.46-19.85-9.12-10.09-17.67-20.71-26.86-30.74-2.07-2.27-6-2.7-8.67-4.58-5.14-3.62-10.07-7.57-14.93-11.57-9.26-7.64-18.06-15.9-27.72-23-7.65-5.62-15.83-9.13-26.46-5.81-12.25,3.81-25.32,4.87-37.89,7.75-16.56,3.79-33,8.07-49.45,12.36q-28.77,7.51-57.44,15.49c-5.45,1.52-11.25,3.06-15.77,6.2-3.43,2.39-5.77,3.15-9.39,1.53-1.49-.67-3.62-1.12-5-.57-18.19,6.91-36.29,14.06-54.45,21-4.32,1.66-8.67,2.38-13-.37s-8.5-1.69-12.79.61c-12.56,6.77-25.26,13.29-37.88,20-15.11,8-30.33,15.77-45.21,24.15-3.65,2.06-6.68,5.77-9.08,9.34-3.89,5.76-6.33,12.51-13.52,15.52-2.74,1.15-5,3.45-7.53,5.16-15.41,10.52-30.66,21.3-46.32,31.44-10.8,7-11.65,7.66-9,16.4.08.26-.19.64-.45,1.39-9.1-1.68-15.63,3.47-22.12,8.87a102.89,102.89,0,0,1-11.14,8.55c-21.41,13.28-39.05,31.58-60.53,44.85-8.38,5.18-18.76,9.09-22.17,20.13Q405.19,760.76,387,775.65c-9.49,7.8-19,15.61-28.33,23.55-8.71,7.37-17.27,14.92-25.9,22.38-10.27,8.88-20.6,17.67-30.75,26.68-1.12,1-1.64,3.17-1.68,4.82-.17,7.69-.26,15.4,0,23.09a13,13,0,0,0,2.43,6.87c4.14,5.52,8.71,10.72,12,14.74.77,3.91,1.16,6.68,1.88,9.36,1.23,4.6,5.16,5.35,9,7,5.87,2.45,11.12,6.38,16.64,9.67,16.19,9.63,32.42,19.19,48.55,28.92,3.82,2.3,7,5.94,11,7.55q26.13,10.39,52.62,19.88,44.16,15.87,88.52,31.2c26.19,9,52.56,17.5,78.83,26.3,22.52,7.54,45,15.25,67.52,22.78q39.17,13.1,78.39,26,26,8.58,51.93,17.09c8.16,2.68,16,6.61,25.06,5.46a123.72,123.72,0,0,1,15.73-1.08c8.34,0,15.55-3.35,22-7.85,13.71-9.56,27-19.73,40.44-29.65,14.6-10.79,29.11-21.71,43.83-32.34,10.2-7.36,52.2-35.6,54.18-37.46,8.47-7.92,16.9-16,26.23-22.81,5.93-4.32,8.4-8.86,7.73-15.87-.18-1.86.52-4.57,1.83-5.66,13-10.86,59.58-48.36,61.11-49.5,4.56-3.43,8.91-9.07,13.86-9.67,13.06-1.59,23.68-6.84,34-14.68,7.09-5.42,44.21-39.42,49.48-44.31,12.24-11.38,24.69-22.54,37-33.81q7.45-6.81,14.92-13.59C1276.5,781.48,1266.28,774.71,1266,774.49Z" fill="none" stroke="#000" stroke-linejoin="round" stroke-width="8"/></g><g id="Paint"><path d="M1164.6,720.14c-1-2.53-10.07-11.37-23.65-26.22S995.17,535.85,973.83,515.62C960.05,507.39,927,488.56,927,488.56s-47.74,6-38.17,10.39,52.11,28.6,57.79,33S1125,722.88,1125,722.88s4.4,3.22-3.85,10c-10,8.13-41.88,29.45-50.91,35.28s-158.56,116.54-171.8,125-61.93,32.82-68.93,36-24.61-5.48-46.61-14.88S488.51,804.5,459.71,792s-33.21-23.86-37.06-28.24c-1.81-2.07-27.64,20.74-35.34,28.24L442,830l10.35,4.12L628,901,774.1,960.26s32.48,12.14,42.64,15.21,9.06,2,24.46-4.62,74.45-39.78,86.42-48.89,173.32-129.14,183.7-136.37,51.08-37.47,57.68-41S1170,733.48,1164.6,720.14Z" fill="#af421c"/></g><g id="Canopy"><path d="M940,711c-1.65-9.35-20.9-25.12-20.9-25.12l-15.95-10.12L842.1,640.94s-25.81-.37-42.68,9.53S765.94,682,765.94,682s37.15,33.18,38.62,35.19,7,11,6.23,15.64,14.3,18.65,31.31,25.8A108.21,108.21,0,0,0,883,766.89c8.07,0,26.6-5.53,41.69-16.59S941.69,720.32,940,711Z" fill="#82b3d1"/></g><g id="Grey"><path d="M716,743.79l-4.22-2.2L706,790l-40.45-60.32L663,783l-37.76-55-7.34,55-35.51-53.7-14.9,143.9L731.59,937s6.78-151.8,6.6-157.48S716,743.79,716,743.79Zm383.35-104.92c-3.85-4.44-11.37-3.25-15.4-6.92s-6.42-13.93-8.62-17.05-8.8-1.28-12.1-4-6.78-18.15-8.8-21.45-8.43-1.1-14.57-4.55-5.23-12.5-8-15.62c0,0-110-24-115.9-24.75s-2,1.29,0,6.79.4,8.43-2.53,9,7.15,12.65,9.35,18.15-10.45-6.78-3.32,6.45,6.62,18.3,6.62,18.3l28,40.52,154.36,28.41S1103.21,643.32,1099.36,638.87Z" fill="#8e9ba5"/></g><g id="Shadows" opacity="0.2"><path d="M868.91,1091.3l-16.56-3.4L842.1,1074,839,1046.59l-80.78-16.75L387.31,893.1l-66.74-42.8-11.93,5.11L302.76,883l12,14.74,5.79,16.48,78.58,44.53L839,1109.16l38.81-6.13,62.77-48.3Zm-177.71-177-14.35.87,12.86,5.14Zm-52.56-16.75-4.82.41,4.27,1.71Zm93,39.51-41.88-16.75L685.57,937Zm-54.74-21.89-38.76-15.5-4.65,18.14Zm-91-13.09,48-4.12-72.18-28.86,13.08-105.53-19.14-18.95L538.17,893.1l52.23-11ZM731.59,672.1c31,23.38,33.92,33,59.29,60.74s37,38.26,62.36,41.67,36.2,2.46,21.7-24.15-114-84.86-114-84.86S700.6,648.72,731.59,672.1Z" fill="#111"/></g><g id="Outline"><path d="M931.06,842.84c-18.1-16.78-36.75-33-54.87-49.71-3.69-3.41-6.19-3.77-10.23-.94-13.65,9.58-27.52,18.85-41.31,28.24-5.54,3.78-5.89,5.91-1,10.45,15.07,14.11,30.43,27.91,45.33,42.2,13.14,12.6,25.78,25.73,38.71,38.55,3,2.93,3.89,3.76,7.1,7.28,6.41,6.16,7,7.53,12.88,3.05,14.5-11,28.67-21,43-32.13,4.23-3.15,1.77-6.85.92-7.69C958.11,869,944.85,855.62,931.06,842.84ZM870.38,798c4.08,3.46,8,6.23,11.13,9.67,1.6,1.75,3.67,6.26,3.25,8.42-1.43,7.48-2.92,14.32-5,22-8.72,0-12.67.86-23,.55-11.27-.36-15.44-2-27.32-13Zm56.9,116.26c-4.21-3.66-8.67-7.29-12.84-11.24-16.14-15.28-32.17-30.69-48.3-46-3.23-3.07-6.73-5.86-10.83-9.39,8.25-.6,15.4-1.59,22.52-1.41,2.79.08,6,2.3,8.18,4.38,10.68,10,21,20.25,31.6,30.29,7.76,7.36,15.72,14.52,23.95,22.11Zm21.6-16.75c-9.61-9.09-18.9-17.86-28.16-26.66q-15.27-14.52-30.48-29.11c-.57-.55-1.51-1.37-1.4-1.89,1.4-6.74,3-13.45,4.68-21l71.66,65.79Zm163.38-120c-10.29-8.83-20.66-17.59-30.87-26.52-18.48-16.16-36.83-32.47-55.32-48.63-3.49-3-7.36-5.67-11-8.45a25,25,0,0,0-3.32,1.45c-3.48,2.2-6.89,4.51-10.36,6.74-9.35,6-18.75,12-28,18.1-3.65,2.41-4.47,6.53-2,8.71,7.5,6.53,15.15,12.89,22.62,19.45,15.54,13.61,31.11,27.19,46.45,41,8.93,8.06,17.49,16.56,26.1,25,2.08,2,3.48,2.4,6,.34,5.37-4.48,11.08-8.57,16.7-12.75,7.35-5.48,14.8-10.83,22.1-16.37C1114.25,783.37,1115.94,780.68,1112.26,777.52Zm-120.07-41.1a3.14,3.14,0,0,1-1.87-.63c-4.17-3.33-8.28-6.72-12.77-10.38l36.38-23.74c4.41,3.47,8.6,6.58,12.52,10a5.43,5.43,0,0,1,1.63,4.13,145,145,0,0,1-3.14,16.83c-.37,1.41-2.77,3.17-4.31,3.24C1011.16,736.3,1001.67,736.31,992.19,736.42Zm86.22,65.9c-4.45,3.29-6.77,2.43-10-.47q-20.84-18.68-41.73-37.29c-7.16-6.34-14.49-12.47-22.79-19.6,8.65,0,16.52-1.1,23.83.43,4.16.87,7.44,6,11.07,9.27q17.37,15.66,34.7,31.36c3.9,3.51,7.89,6.92,12.24,10.73C1082.94,798.83,1081.81,799.52,1078.41,802.32Zm15.3-11.64c-.62.44-2.72-.52-3.66-1.37-12.42-11.19-24.72-22.51-37.13-33.71-5.24-4.73-10.69-9.23-16-13.86-1.93-1.69-3.14-3.2-2.09-6.39,1.37-4.17,1.46-8.77,2.26-14.27l69,60.13C1101.84,784.5,1097.9,787.77,1093.71,790.68ZM1266,774.49c-5.87-4.39-12.92-7.84-17.34-13.38-11.29-14.19-24.81-26.34-34.76-41.88-8.31-13-20.13-23.7-30.35-35.46-6.41-7.38-12.83-14.74-19-22.28-5.82-7-11.27-14.4-17.09-21.46-3.58-4.34-7.65-8.28-11.32-12.55C1123,612.27,1110,597,1096.89,581.74c-3-3.44-5.94-6.87-9.09-10.13-6.44-6.66-13.26-13-19.46-19.85-9.12-10.09-17.67-20.71-26.86-30.74-2.07-2.27-6-2.7-8.67-4.58-5.14-3.62-10.07-7.57-14.93-11.57-9.26-7.64-18.06-15.9-27.72-23-7.65-5.62-15.83-9.13-26.46-5.81-12.25,3.81-25.32,4.87-37.89,7.75-16.56,3.79-33,8.07-49.45,12.36q-28.77,7.51-57.44,15.49c-5.45,1.52-11.25,3.06-15.77,6.2-3.43,2.39-5.77,3.15-9.39,1.53-1.49-.67-3.62-1.12-5-.57-18.19,6.91-36.29,14.06-54.45,21-4.32,1.66-8.67,2.38-13-.37s-8.5-1.69-12.79.61c-12.56,6.77-25.26,13.29-37.88,20-15.11,8-30.33,15.77-45.21,24.15-3.65,2.06-6.68,5.77-9.08,9.34-3.89,5.76-6.33,12.51-13.52,15.52-2.74,1.15-5,3.45-7.53,5.16-15.41,10.52-30.66,21.3-46.32,31.44-10.8,7-11.65,7.66-9,16.4.08.26-.19.64-.45,1.39-9.1-1.68-15.63,3.47-22.12,8.87a102.89,102.89,0,0,1-11.14,8.55c-21.41,13.28-39.05,31.58-60.53,44.85-8.38,5.18-18.76,9.09-22.17,20.13Q405.19,760.76,387,775.65c-9.49,7.8-19,15.61-28.33,23.55-8.71,7.37-17.27,14.92-25.9,22.38-10.27,8.88-20.6,17.67-30.75,26.68-1.12,1-1.64,3.17-1.68,4.82-.17,7.69-.26,15.4,0,23.09a13,13,0,0,0,2.43,6.87c4.14,5.52,8.71,10.72,12,14.74.77,3.91,1.16,6.68,1.88,9.36,1.23,4.6,5.16,5.35,9,7,5.87,2.45,11.12,6.38,16.64,9.67,16.19,9.63,32.42,19.19,48.55,28.92,3.82,2.3,7,5.94,11,7.55q26.13,10.39,52.62,19.88,44.16,15.87,88.52,31.2c26.19,9,52.56,17.5,78.83,26.3,22.52,7.54,45,15.25,67.52,22.78q39.17,13.1,78.39,26,26,8.58,51.93,17.09c8.16,2.68,16,6.61,25.06,5.46a123.72,123.72,0,0,1,15.73-1.08c8.34,0,15.55-3.35,22-7.85,13.71-9.56,27-19.73,40.44-29.65,14.6-10.79,29.11-21.71,43.83-32.34,10.2-7.36,52.2-35.6,54.18-37.46,8.47-7.92,16.9-16,26.23-22.81,5.93-4.32,8.4-8.86,7.73-15.87-.18-1.86.52-4.57,1.83-5.66,12.59-10.5,59.58-48.36,61.11-49.5,4.56-3.43,8.91-9.07,13.86-9.67,13.06-1.59,23.68-6.84,34-14.68,7.09-5.42,44.21-39.42,49.48-44.31,12.24-11.38,24.69-22.54,37-33.81,5-4.54,10-9.11,14.92-13.59C1276.16,782.51,1266.28,774.71,1266,774.49Zm-47.52-39.9c10.62,8.92,12.77,15.78,10,15.77s-6.67-2.13-10.54-5.43c-4.78-4.08-13.7-10.83-13.88-15.65S1214,730.85,1218.48,734.59Zm-211.2-234c7.24,2.95,7.82,7.3,5.52,8.26a10.18,10.18,0,0,1-7.78-.38c-3.24-1.37-9.45-3.29-8.75-6.82S1004.25,499.4,1007.28,500.63ZM314.52,888.25v-17C325.94,879,318.4,882.05,314.52,888.25ZM357.57,864a18.27,18.27,0,0,1-7,10.76c-4,2.8-11,9.16-13.56,3.29s4.74-14.73,8.43-17.43C354.27,854.22,358.67,859.38,357.57,864Zm126.9,102.26c-8.06-2.75-16.12-5.52-24.15-8.38-16.7-5.93-33.23-12.33-49.75-18.75-11.47-4.46-23-8.87-34.12-14.12-6.14-2.9-12-6.42-18-10,0,0,1.64-6.72,3.31-13,4.24,2.61,8.49,5.44,12.93,8,11.94,6.75,99.79,39.29,110.31,42.86C484.32,957,483.75,962.8,484.47,966.29Zm252.65,101.82c-22.41-7.3-41-14-61.81-20.88q-37.66-12.39-75.27-25c-23.37-7.79-46.79-15.45-70.07-23.5q-38-13.15-75.83-27c-19.44-7.15-35.51-12.87-54.68-20.71-6.2-2.54-20.28-12.58-24.55-15.54-1.39-1-2.54-3.85,4.12-1.39,12.12,4.69,24.17,9.57,36.37,14,17.62,6.45,35.36,12.56,53,18.89,10.94,3.91,21.78,8.09,32.75,11.92,16.2,5.66,32.49,11.08,48.72,16.69,12.49,4.31,24.9,8.87,37.41,13.15,25.88,8.86,51.8,17.58,77.69,26.38q31.75,10.8,63.5,21.65c2.54.86,5,1.84,7.58,2.61C738,1060.06,737.12,1064.62,737.12,1068.11Zm527.75-284.58c-8.45,7.43-16.51,14.45-24.48,21.57-11.1,9.92-22.43,19.62-33,30-4.07,4-17.8,18.17-22.35,22.3l-13-16.87c2-1.18,5.59-4.58,6.8-7.81,3.62-9.7,9.34-13.94-2.6-19-6.63-2.8-12.75-6.76-19.51-9.19-4.48-1.61-15.69,8.81-19,14.22-2.54,4.16,7.2,12.93,14,21,.59.71,4,5,4.72,4.91,1-.14,2.05-1.19,2.87-1.94,3-2.75,16.61,17.05,19.24,20-6.69,5.07-13.41,9.81-19.71,15.06-5.33,4.45-10.62,5.91-17.52,3.73-2.2-.7-6,1.75-8.35,3.67-3.72,3-7.41,6.12-11.11,9.19l-2.28-3.52-37.38-35.49-54,44.49,34.75,35.36,3,5c-4.53,3.14-9.21,6.1-13.64,9.38-1.73,1.28-4.09,4-3.74,5.42,2.68,11.29-5.4,16.34-12.15,22.21-4.91,4.28-10,8.35-14.82,12.72s-5.63,4.52-10.19.09c-5.7-5.53-11.49-11-17.21-16.43,4.85-5.57,4.21-9-1.49-12-7-3.68-12.39-7-19.53-10.32a9.54,9.54,0,0,0-8.17-.33c-21.37,12.28-20.4,15.34-19.29,17.25,4.7,8,9.77,15.87,15,23.6a9.1,9.1,0,0,0,5,3.42c5.27,1,9.57-.1,10.46-.75,5.68-4.14,11.19-8.5,16.81-12.83l18.43,17.15c-5.08,4.65-43.2,28.81-52.25,35.09-12.55,8.71-24.49,18.32-36.72,27.5-15.82,11.87-31.52,23.91-47.62,35.38-3.59,2.55-8.57,3.42-13.06,4.33a92.71,92.71,0,0,1-17.13,2.09,41,41,0,0,1-13.16-2.17c-19-6.32-37.8-13-56.73-19.48-9.29-3.15-18.67-6.06-28.07-8.88-2.5-.75-2.11-1.53-1.92-6.81.38-10.38.15-10.72-9.36-13.93q-37.35-12.62-74.72-25.21c-9.15-3.07-18.32-6.15-27.61-8.75-3.26-.91-3.82-2.47-3.87-5.37-.08-4.74,1.32-8.79,3.08-13.26,4.51-11.45,7.92-23.37,11.19-35.27,2.94-10.73,2.56-10.7-8.13-14.68-18.9-7-37.73-14.3-56.62-21.38-20.17-7.56-40.42-14.93-60.56-22.57a7.91,7.91,0,0,0-9.72,3.53c-7.06,12.71-14.48,25.21-21.57,37.9-14.9-6.33-100.56-37.33-114.89-46.32-2.74-1.72-5.47-3.48-8.2-5.21h0c2-6.64,23.68-28.25,23.68-28.25L355,846.22l-28.39,25.59-10.21-6.49c89.22-74.51,175.47-151.43,273.17-213.44,7.18,5.06,29.33,21.81,46.23,31.4a42.65,42.65,0,0,1-7.25,4.25c-23.13,9.05-46.4,17.71-69.47,26.91-15.41,6.14-30.59,12.9-45.82,19.5-10,4.35-20.38,7.81-28.53,15.95-14.89,14.86-30.43,29.08-45.64,43.62-8.45,8.08-8.4,8.13-5.36,19.28.33,1.21,1.33,4.47,1.68,5.61,1.58,5.17,3.12,10.27,6.61,11.63,13.28,5.17,26.41,10.71,39.69,15.88,16.24,6.31,31.78,12.58,48,18.88,25.55,9.91,51.88,19.67,77.4,29.68,18.58,7.29,37.14,14.65,55.72,21.95s37.46,14.63,56.16,22c21.91,8.66,43.74,17.5,65.73,25.94a10.68,10.68,0,0,0,8.33-.57c4.7-2.94,8.86-6.82,13-10.57,1.18-1.07,2.4-3.17,2.18-4.56-2.34-14.7-5-29.34-7.52-44-2.25-13.09-4.38-26.21-6.63-39.3-1.77-10.25-3.85-20.46-5.44-30.74-2.39-15.45-4.41-31-6.78-46.42a6.85,6.85,0,0,0-2.74-3.83c-7.08-5.22-14.29-10.27-21.44-15.4q-6.66-4.77-13.28-9.57h0c-16-10.95-69.21-47.95-86.5-59.75,8.21-2.53,20.85,8,29,13.18,7.37,4.7,14.39,10,21.51,15.08.94.67,40.41,26.94,41.15,27.89,7.18,5.1,14.37,10.18,21.43,15.43,2.38,1.77,5,3.35,7.08.75,1.61-2-.36-7.21-.9-9.43-4.18-17.21-8-29-11.95-46.26-2.11-9.15-6-13.66-15.27-18.88-11.37-6.43-15-8.36-22.75-12-18.63-8.62-37.46-16.79-56.56-25.3,3-3.5,6.1-6.6,8.54-10.13a3.72,3.72,0,0,0,.55-1.56c.36-2.49-2.35-4.47-4.43-3.05l0,0c-4.81,3.38-9.52,6.91-14.5,10.63-12.61-6.21-44.32-22.48-47.79-23.33,5.76-3.73,13.63-8.35,18.45-12.19,13.23,5.15,38.26,14.16,48.84,18.31,17.25,7.2,71.13,36.86,83.64,46,12.42,9.48,47.62,40.33,44.65,49-.31.57.45,2.18,1.16,2.79,8.38,7.19,16.38,14.93,25.4,21.23,10.7,7.48,23.92,12.72,53.44,11,4.58-.26,11.92-2.2,15.74-4.41,10-5.8,17.83-10.4,27-17.55,9-7,10.92-13.41,13-21.1,1.93-7.15.33-15.26-3.92-22.72C934,691.94,923.22,685.64,914.66,677c-4-4.1-9-7-15-7.45-1.62-.13-2.66-1.16-8.24-3.72-4.67-1.65-20.54-9.83-48-26.91-5.73-3.89-15-12.32-28.6-24.79-22.73-20.9-39.3-34.48-44.6-39h0c-2.22-2-4.67-3.84-7-5.74-4.54-3.78-9.34-7.25-14.08-10.9,5.66-2.88,11-5.84,16.54-8.25,1.38-.6,4,.17,5.17,1,12.79,9.24,29.54,20.29,30.21,24.91-3.86,1.73-8.56,3.69-13.08,6a2.76,2.76,0,0,0-1,.83,2.8,2.8,0,0,0,1.17,4.33,2.1,2.1,0,0,0,.7.12c3.22,0,10.75-2.44,13.62-3.65,6.31-2.67,9.59,2.57,13.55,6.23,12.84,11.83,21.66,22.28,34.67,33.92,5.61,5,13.5,11.36,20,15a69.9,69.9,0,0,0,16.33,6.91c20.17,5.6,40.39,11,60.49,16.86,4.62,1.34,7.33.11,8.06-6.3,1.36.85,3.43,3.27,4.52,4.27,8.63,8,19.89,8.95,30.54,11.63q24.41,6.15,48.72,12.65c11.55,3.06,23.1,6.18,34.56,9.57,12.86,3.81,23.61,7.21,36.58,10.64,8.58,2.27,11.5,3.58,22,6.6,6.8,2,9.42,1.3,14.56-2,3.38-2.17,4.83-3.66,2.78-6.14-5-6-11.78-13-17.05-18.72-6.79-7.38-14.09-14.32-20.53-22-2.47-2.94-3.42-7.3-4.6-11.15-1.09-3.58-.55-8.1-2.57-10.85-2.69-3.66-6.89-7.93-10.93-8.51-8.11-1.16-10.28-6-11.81-12.54s-6.18-10.92-12.42-11.3c-7.18-.44-7.43-6.07-8.43-10.72-2-9.19-5.82-13.45-15.15-14.58-3.92-.48-6.29-2.09-6.6-6-.43-5.49-3.37-9.43-7.45-12.63a10.73,10.73,0,0,0-5.14-2.29c-5.72-.61-10.72-2.22-14.8-6.68-10.83-11.82-22.21-23.14-32.71-35.24-5.67-6.55-11.28-7.29-20.62-10.89-11.16-4.3-21.45-.59-32.08,1.68-8.41,1.79-16.93,3.05-25.31,4.93-3,.67-6.28,1.87-8.49,3.86-14.35,12.89-28.43,26.07-42.62,39.13-3.07,2.82-6,6-9.48,8.09-1.77,1.05-5.13.78-7.14-.2-5-2.43-9.61-5.59-14.36-8.5-.86-.53-20.92-15.18-22.59-18.08,11.3-4.36,23-8.71,34.52-13.37,24.27-9.78,49.44-16.43,74.92-22.18,13.76-3.11,27.27-7.3,41-10.44,12-2.75,24.28-4.71,36.43-7,.83-.15,2.12-.46,2.92.17,2.85,2.27,7.16,5.27,12.62,9.21,1.59,1.14-17.88,3.58-16.35,4.63,5.93,4.08,18.27,12.36,24.19,16.41,1.35.92,13.58-2.38,14.86-1.51,8.33,5.73,16.19,9.42,17.32,10.87,1.94,2.47,35,39.37,35.82,40.36-.74.35-18.32,0-18.61.11a4.94,4.94,0,0,1-.53.1,5.18,5.18,0,0,0-3.33,8.1c.19.27.38.52.57.74,16.15,18.19,32.47,36.23,48.73,54.33,6,6.69,12.26,12.34,22.16,12.91a60.7,60.7,0,0,1,19.22,4.5c3.5,1.44,6,5.49,8.72,8.6,5.92,6.83,11.6,13.86,17.51,20.69,12.58,14.52,26.39,28.13,37.49,43.69,0,0-9,1.15-13.82,1.55a3.26,3.26,0,0,0-3,3.2,3.48,3.48,0,0,0,.5,2.27q9.88,12,20.4,23.56c1.44,1.59,4,2.23,6,3.18,11.22,5.08,20.53,8.52,31.41,14.24,5.14,2.69,11.22,8,16.09,12A1.45,1.45,0,0,1,1264.87,783.53Zm-523.24,80a13.75,13.75,0,0,1-2.81-.27c.47-8.27,1-16.4,1.38-24.54.79-17.27,1.44-34.54,2.25-51.81.24-5.2-.05-10.09-4.13-14l0,0c-1.17-1.16.5-3,1.84-2,7.08,5.09,16.78,12.39,25.45,18.29,5.67,3.86,6.82,8.1,7.63,13.58,1.16,8,2.27,16,3.52,24,1.7,10.81,3.44,21.62,5.3,32.4,2,11.48,12.41,73.74,14.21,86,.57,3.87-6.61,9.28-10.32,7.83L735.6,933.22c.53-10.85,1.07-21.74,1.62-32.8a35.64,35.64,0,0,1,3.38-1.25c8.41-2.24,8.28-2.23,8.46-10.77.13-5.8.62-11.59,1.07-17.37C750.7,863.61,749.25,862.3,741.63,863.56Zm-5.76-73.34c-.56,11.19-.67,22.39-1.18,33.58-1,22.7-5.58,91.32-6.8,103.68-6.29-7-10.71-12-17.47-19.36-4.53-5-4.64-10.81-4.19-16.82.53-7.2,6-112.8,6.51-123,.31-6.84,1.19-13.87,1.25-22.51,3.23,5.21,7.67,11.83,10.91,17,2.1,3.36,4.06,6.81,6.36,10C735,778.1,736.19,783.86,735.87,790.22Zm-29.82-37.45a39.21,39.21,0,0,1-4.34-2.57c-4-1.92-5.38-.37-5.5,4-.17,5.84.08,9.69,0,15.54-5-8.35-9.88-16.76-14.93-25.07-3.54-5.85-7-11.79-11-17.3-1.07-1.48-4.09-2.44-6.14-2-1.36.28-1.79,3.13-1.92,4.89-.29,4-.09,8-.09,12.09-7-1.54-7-1.5-7.72,5.53-.51,5-1.14,9.91-1.9,16.5-4.27-6.71-7.75-12.14-11.18-17.6-4.37-7-8.52-14.08-13.19-20.84-.92-1.34-3.77-1.73-5.74-1.74-.68,0-1.77,2.39-2,3.8-.71,4.46-1.09,9-1.64,13.8-5-2.31-7.25-.81-7.48,4.81s-.75,11.45-1.23,18.5c-5.81-9-11-17-16.19-25.07-2.72-4.23-5.25-8.59-8.22-12.63a6.24,6.24,0,0,0-4.51-2.16c-.91,0-2.37,2-2.6,3.31-.77,4.25-1.09,8.58-1.57,12.69-1.81.51-4.33.55-5.73,1.82-1.18,1.06-1.25,3.54-1.47,5.43-1.86,15.58-3.76,31.15-5.38,46.75-1,9.72-1.46,19.51-2.38,29.24-1.24,13-2.71,26-4.13,39.53-19.17-7.61-37.28-14.84-55.42-22-16.78-6.61-33.62-13-50.34-19.79a9,9,0,0,1-4.25-4.56c-3.21-7.75-2.88-13.53,5-19.92,14-11.35,26.47-24.65,39.14-37.57,7.6-7.76,17.53-11,26.9-15.16,20.31-9,41-17,61.55-25.49,16.83-6.93,33.6-14,50.53-20.68a8.49,8.49,0,0,1,6.8.93c19.76,13.39,39.36,27,59,40.59,2.66,1.84,7.75,5.7,10.36,7.6C710.64,750.57,708.32,754.11,706.05,752.77Zm-15.79,40.17c0,1.41-1.12,34.19-1.81,49.14-.82,17.76-4.07,61.82-4.71,65.24a202.16,202.16,0,0,1-17.41-16.18c-4.37-4.56-4.83-9.76-4.45-17,2-38.55,6.81-123.19,6.84-136.88l16.49,26.65c1.12,1.81,2.23,3.62,3.37,5.41C693.39,776.9,690.06,785.05,690.26,792.94ZM647.83,780.8c-.75,17.61-1.14,35.25-2.31,52.84-1.27,19.26-3.25,38.47-5.08,59.46-9.87-9.06-18.86-15.6-21.08-27.8-1.36-7.43-.22-15.36.17-23,.21-4.28,6.73-99.54,7.56-105.8,6.76,10.79,13.77,21.09,19.09,30.61,1.73,3.09,1.45,7.33,2,11.05A15.77,15.77,0,0,1,647.83,780.8Zm-41.93-.47c-.84,12.62-2.11,25.21-3.18,37.81-1.49,17.47-4.66,56.11-5.33,58-6.44-6.47-13.48-13.75-19.26-20.27-5.07-5.72-3.1-13.07-2.7-19.73.56-9.33,2.13-18.6,3.06-27.92,1.47-14.63,2.82-29.28,4.15-43.93.51-5.65,1-11.3,1.25-17,.15-3.22.49-6.42.7-9.64,6.71,10.49,13.89,20.71,20.08,31.5C606.38,772.18,606.15,776.62,605.9,780.33Zm304.35-86.09s-4.15,1.24-12.13-2.52c-9.44-12.57-53.62-39.14-56-41s-4.56-8.07-2-8.43,66.24,36.24,65.24,39.5C904.45,684.74,913.41,693.09,910.25,694.24Zm2.77-6.31a10.55,10.55,0,0,1-2.6-5.92c3.73,3.12,7.86,5.88,11.12,9.43,5.53,6,11.33,12.09,15.38,19.09,2.17,3.75,2.38,10,.9,14.21-2.1,6-4.53,12.38-9.15,16.66-6.23,5.78-12.83,10.27-23.1,16.14-8.24,4.7-30.94,8.8-48.41,3.48-7.64-2.33-14.63-6.18-21.49-10.64-5.11-3.32-9.53-7.73-14.16-11.76-6.09-5.31-6.06-5.35-1.52-12.32l29.37,5.31c1.58.28,3.16.61,4.75.88,4.5.76,8.23,0,10.28-4.74,1.36-3.14,3.46-6,4.46-9.23,3-9.84,20-22.49,38.68-20,2.74.35,6.53-.75,8.09-2.62C918,693,915.06,690.31,913,687.93Zm-20.48,4.25c-12.1,4-18.7,8.28-25.3,16.5-6.6-7.82-73-39.6-76-41.06,0-7.34,2.27-11,11.8-15.77,13.67-6.83,25.67-2.57,29-1.83S898.52,690.19,892.54,692.18Zm-96.26-16.45c4.27-.22,67.66,35.15,66.56,37.35s-5.5,11.74-7.53,12.1-35.1-6.14-35.1-6.14-33.7-23.19-50.87-37C778.5,674.77,787,676.2,796.28,675.73ZM1047,657.27c-15.64-3-31.26-6.23-46.94-9.08-13.58-2.47-27.25-4.43-40.82-6.9-2.3-.42-5.13-1.73-6.35-3.55-6.24-9.38-12-19-18.62-29.63,6.14,1,11.05,1.61,15.89,2.59,13.49,2.76,26.91,5.86,40.43,8.46,16.71,3.21,33.5,6,50.23,9.09,9.51,1.74,19,3.64,28.48,5.57,6.47,1.31,11.41,1.8,19.75,3.08s10,6.94,11.72,13.09,2.67,12.2,4.25,19.65C1095.05,667.14,1052.26,658.27,1047,657.27Zm60.32,19.47c2.38.64,4.66,2.61,6.41,4.49,6.39,6.89,12.54,14,19.92,22.32-7.38-2-13.28-3.5-19.08-5.3-13.1-4.08-26.09-8.52-39.25-12.44-16.07-4.78-32.21-9.39-48.42-13.68-16.05-4.25-32.39-7.5-48.29-12.23a48.32,48.32,0,0,1-19.2-10.2c-2.73-2.37-1.24-2.87,5.63-1.63,17.14,3.08,29.52,5.72,44.29,8.56,10,1.93,20.07,3.74,30.09,5.71,2.46.49,4.87.71,6.15,4,.66,1.7,4.06,2.74,6.41,3.29,7.49,1.77,15,3.39,22.62,4.51,1.7.25,3.73-1.77,7-3.47C1089,672.37,1098.23,674.29,1107.36,676.74Zm-51.61-51.94c-17.24-3.23-34.48-6.46-51.7-9.83-13-2.54-26-5.28-38.93-7.93-8.6-1.75-17.14-4-25.81-5-4.95-.62-8.07-3.87-10.6-8-2.31-3.8-2.8-4.19-5.14-7.81,5.89,1,10.78,1.55,15.58,2.55,16.81,3.5,33.55,7.3,50.39,10.67,19.66,3.92,39.4,7.48,59.09,11.25,7.38,1.4,14.81,2.66,22,4.59,2,.53,3.8,3,4.94,5s1.48,4.72,2.57,8.51C1070.15,627.34,1062.94,626.15,1055.75,624.8Zm-9.66-21.31c-14.42-2.73-28.84-5.43-43.23-8.33-9.11-1.84-18.13-4.12-27.23-6-12.11-2.49-24.2-5.19-36.42-7-6.66-1-9-3-14.51-9.5-2.34-2.74-3-4.34-5.21-8.09,9.12,1.91,18.21,3.93,27.34,5.75,16.15,3.21,32.34,6.29,48.5,9.49,9.69,1.92,19.35,4,29,6,5.73,1.13,11.47,2.16,17.25,3,9,1.25,11.23,3.25,14,12.27.36,1.2.63,2.44,1.06,4.13C1053.07,604.6,1049.56,604.15,1046.09,603.49ZM1000.25,574c-16.71-3.22-33.43-6.34-50.13-9.63-8.59-1.7-17.15-3.61-25.7-5.55a5.27,5.27,0,0,1-3-2c-1.83-3-3.36-6.17-5.4-10,5.22.83,9.93,1.36,14.54,2.34,20.12,4.26,40.2,8.76,60.33,13,10.18,2.12,20.45,3.81,30.68,5.67,7.5,1.37,9.49,3.31,12.42,12.81C1022.45,578.32,1011.35,576.14,1000.25,574Zm-24.54-22.2c-16.17-3.16-32.36-6.23-48.53-9.43-5.43-1.07-10.78-2.54-16.22-3.6-1.59-.31-3.34.12-5,.22.12,1.85-.27,3.94.46,5.5,1.5,3.2,3.61,6.11,6.11,10.18-3.56-.56-6.08-1.25-8.6-1.25a12,12,0,0,0-3.27.55,2.31,2.31,0,0,0-1.44,3.25,8.15,8.15,0,0,0,1.93,2.75c4,3.3,8.47,6.06,12.56,9.28,1.34,1.06,2.11,2.86,3.52,4.87-4.24-.73-7.91-1.55-11.63-1.9a4.77,4.77,0,0,0-2,.37,2.71,2.71,0,0,0-1.64,3.36,4.76,4.76,0,0,0,1.16,2.1c3.2,2.89,6.83,5.28,10.14,8.06,2.54,2.13,4.85,4.54,8.39,7.89-5.31-.42-8.93-.91-12.55-.9a5.58,5.58,0,0,0-1.77.36,3,3,0,0,0-1.6,4.16,5.31,5.31,0,0,0,1.44,1.83c6.65,4.88,13.52,9.45,20.28,14.17a21.59,21.59,0,0,1,2.38,2.22c-11.33.92-20.61-2.34-29.54-9.32-15.26-11.92-31.44-22.65-47.91-34.36,12.62-11.33,25-22.48,37.48-33.63,3.24-2.9,6.25-6.16,9.84-8.55a32.19,32.19,0,0,1,11-5c11.06-2.28,19.15-4.11,33.33-6,6.91-.95,12,.33,17.36,2.12,3.89,1.29,7.25,5.15,10.21,8.1,8.36,8.35,16.28,17.13,25.56,27C989,554.51,982.38,553.11,975.71,551.8ZM1019.64,794l-49.57-41.74a8.51,8.51,0,0,0-5.46-2H949a7.8,7.8,0,0,0-4.34,1.32l-31.54,21.11A6.34,6.34,0,0,0,910.3,778v16.34a6.55,6.55,0,0,0,2.16,4.85l44.85,40.55a8,8,0,0,0,10.19.49l51.91-38.54A4.87,4.87,0,0,0,1019.64,794ZM938.72,1009.9c-7.42,1.27-14.86,2.42-22.27,3.74-15.51,2.75-31,5.69-46.52,8.3-6.1,1-8.71,3.46-8.71,11.22,2.6,9.66,5.48,21.06,8.8,32.32,1,3.44,6.25,5,8.93,3q9-6.45,17.69-13.2,22.83-17.65,45.51-35.47c1.93-1.53,4.82-4.32,4.44-5.79C945.73,1010.77,942.48,1009.26,938.72,1009.9Zm304.54-236.65a18.8,18.8,0,0,0-4.42-3c-7.27-3.49-14.62-6.8-21.89-10.28-5.92-2.83-11.2-.21-12.52,6.1-2,9.6-4.24,19.15-6.29,28.74-1,4.55-1.75,9.13-2.84,14.89-.79,4,.63,5,3.61,4.81a20.8,20.8,0,0,0,5.32-1.48,9.89,9.89,0,0,0,2.61-1.87c12-9.79,23.92-19.63,36-29.36C1247.06,778.31,1247.3,776.94,1243.26,773.25Zm-407,261.48a6.8,6.8,0,0,0-4.8-6.52l-32.57-10.06s-29.52,23.1-32.91,26.4-5,14.3-5,16.5,77.71,30.25,81.2,30.25.09-5-3.15-8.8C836.35,1079.41,836.18,1047.33,836.22,1034.73Z"/></g><g id="Thrusters"><path d="M345.47,860.65c-3.69,2.7-11,11.57-8.43,17.43s9.57-.48,13.56-3.29a18.27,18.27,0,0,0,7-10.76C358.67,859.38,354.27,854.22,345.47,860.65Zm661.81-360c-3-1.23-10.31-2.46-11,1.06s5.51,5.45,8.75,6.82a10.18,10.18,0,0,0,7.78.38C1015.1,507.93,1014.52,503.58,1007.28,500.63Zm211.2,234c-4.45-3.74-14.61-10.14-14.43-5.31s9.1,11.57,13.88,15.65c3.87,3.3,7.76,5.42,10.54,5.43S1229.1,743.51,1218.48,734.59ZM806.39,1030.15a18,18,0,0,0-18.41,7.48c-3.87,5.5-2.39,8.84,2.38,15.16s14.49,13.85,23.93,9,11.41-9.68,10.8-14.3C823.85,1038.13,815.9,1031.8,806.39,1030.15Z" fill="#007aff"/></g></g></svg>