<svg xmlns="http://www.w3.org/2000/svg" viewBox="0 0 1500 1500"><title>Alliance Chieftain</title><g id="Alliance_Chieftain" data-name="Alliance Chieftain"><g id="Colour"><path d="M1439.83,616.28c-.39-3.65-1.31-7.88-3.5-10.73-8.08-10.53-17.85-19.95-24.91-31-5-7.85-17.6-22.6-18.08-23-27.78-23.22-56.28-45.44-86.12-65.88-12.18-8.33-23.7-17.68-35.91-25.94-9.15-6.19-18.91-11.45-28.46-17a47.14,47.14,0,0,0-14.68-5.39c-2.07-.45-9.93-5.68-14.5-9.31-7.6-6-14.07-7.38-21.75-2.26-10.21,6.81-20,14.24-29.58,21.94-2.45,2-5.1,6.27-4.49,8.94,2,8.57,2.47,18.46,12.81,22.36-4.24,16.61-.29,32.24,4.83,48.16-2.31.57-4.59,1.58-6.94,1.62-7.67.13-13.38,3.12-16.68,10-1.75,3.65-2.41,8.44-5.18,10.89-8.47,7.48-17.73,14.06-26.68,21-20.83,16.15-41.7,32.25-62.45,48.49-5.4,4.23-9.87,4.28-15.49-.63-6.7-5.86-13.24-12-20.15-17.54-6.62-5.35-13-11.78-20.57-15-27.6-11.7-55.62-22.32-83.53-33.21-21.59-8.43-43.29-16.55-64.88-25-8.75-3.41-18.37-5.13-25.1-12.89-5.17-6-10.42-11.84-15.37-18a6.77,6.77,0,0,1-1.11-5.12c2.19-8.65,4.64-17.21,7.12-25.77,4.35-15,8.8-30,13.3-45.31,5,3.87,6.56.42,7.85-2.87,2-5.12,3.7-10.38,5.52-15.55,11.51,8.37,22.67,16.74,34.09,24.71,10.31,7.19,10.77,7.39,19.46-.08,3.91-3.36,7.3-3.33,11.38-1.28,9,4.49,18,9,26.75,13.92,4.29,2.42,7.47,2.25,11-.62,4.55-3.67,9.63-6.69,14.2-10.34,5.27-4.2,11.47-7.58,12.68-15.45.72-4.69,2.47-9.17,3.7-13.76,1.33-4.94,3.42-9.8,3.7-14.86.47-8.77-.07-17.66-.49-26.5a9.81,9.81,0,0,0-2.47-5.16c-5.57-6.69-12.6-12.59-16.65-20-4.14-7.6-10.12-13.24-15.33-19.7-3.15-3.92-9.25-5.6-8.84-12.26.07-1.19-2.2-2.85-3.61-4-8.32-6.87-16.53-13.88-25.1-20.41-17.7-13.47-35.56-26.74-53.45-40-12-8.91-24.07-17.87-36.42-26.32-10.13-6.92-20.61-13.32-31.15-19.57-6.27-3.72-12.08-8-20.09-8.59-4.7-.38-9.48-5.63-13.87-9.14-7.14-5.72-12.72-7.13-19.58-2.36-11.51,8-22.47,16.8-33.59,25.35-1,.77-2.29,2.21-2.15,3.23,1.44,10.09,2.15,20.58,11,25.43.27,8.84,10.72,57.15,10.92,58.37-2.31.57-4.42,1.24-6.59,1.59-12,1.95-18.19,11.79-19.33,21.19-1,8.19,1.78,19.32,10.94,25.91,4.85,3.49,9.6,7.13,14.79,11-11.56,9.28-22.34,18.57-33.89,26.82-3.84,2.74-9.11,4.74-15,1.43-8.36-4.7-16.06-1.83-23.52,2-5.7,2.9-11.57,5.5-16.78,7.95-4.69-8-8.64-15.84-13.77-22.9-2.69-3.7-4.77-6.76-5.67-11.47-3.27-17.15-12.25-61.8-13.57-66.91-2.3-8.89-3.85-18.32-12.32-24.41-8.84-6.35-17.52-13-26.6-18.91-9.58-6.26-16.92-2.78-18.19,8.49-.65,5.88.17,12-.46,17.9-1.68,15.85-3.71,31.64-5.78,47.42-.51,3.91-4.79,35.27-12.25,45.06-1.62,2.13-9.71,23.86-14.18,31.35-3.82-5.77-3.82-5.77-7.19-4.24-4.11-1.75-6.67-3.41-9.36-3.85-3.76-.61-7.76.4-11.41-.54-12.16-3.12-22.05.21-30.69,7.94-1.61,1.45-3.49,2.7-4.72,4.43-1.53,2.16-3.9,4.87-3.51,7.06,1.22,6.92,1.78,14.51,9.9,18.32,2.51,1.18,4.5,3.55,6.91,5.52a8.7,8.7,0,0,1-1.11,1.35c-6.18,5-12.31,10-18.63,14.79a10.6,10.6,0,0,1-5.82,2.44c-8.8.1-17.64-.22-26.46-.4-14.23-.3-28.77-1.88-39.74,9.3-2.95,3-7.36,4.87-6.5,10.38.76,4.78,1.41,9.56,2.28,15.54-3.85,0-9.47,1.52-13.41-.5-10.58-5.42-20.43-12.39-30.59-18.73-10-6.23-19.82-12.68-30-18.54-5.44-3.14-11.36-.65-14.71,5.14-3,5.14-2.35,12.67,1.6,15.5,6.95,5,14.25,9.49,21.09,14.62,9.92,7.44,21.17,12.24,27.49,25.27,4.93,10.15,15.86,17.78,24.54,26.08,4.17,4,9.44,6.81,13.93,10.51a6.19,6.19,0,0,1,1.79,4.9c-2,10.18-3.94,20.36-6.55,30.34-1.5,5.74-1.84,11.76-6.51,16.65C338,600,325.08,615.31,311.47,629.86c-3.14,3.36-2.72,6.31-1.15,9.82,4.85,10.85,4.9,10.83-4.86,17.5-.81.55-1.51,1.25-2.3,1.83-13.74,10-27.41,20-41.34,29.75a7.57,7.57,0,0,1-6.89,0c-9.79-6.67-19.91-13.09-28.65-21-7.08-6.44-13.14-2.35-19.1-1.19-4.89.95-9,5-13.41,7.79a4.15,4.15,0,0,0-1.13,1.32c-4.62,7.18-9.23,14.37-14,21.76l-23.35-16.59c-6.62-4.71-13.08-9.71-20-14C132.2,665,128,665,124.67,663.19c-5.47-3-10.56-6.75-15.81-10.21s-10-3.21-14.58.4c-8.91,7-17.76,14.06-26.88,20.78-10.82,8-10.77,23-.34,32.43,4.57,4.13,8.27,9.72,7.61,16.42-.61,6.24-1.86,12.39-2.37,18.64-.89,11,3.8,21.33,5.74,32a5.54,5.54,0,0,0,1.74,2.43c8.4,8,16.39,16.53,25.37,23.81,14.06,11.37,28.76,21.93,43.24,32.76Q174.1,851.9,199.91,871q22,16.4,44,32.84c4,3,7.72,4.21,11.33.29s7.51-4,11.93-.33a78.12,78.12,0,0,0,9.21,6.46c7.36,4.5,14.69,9.08,22.32,13a9.43,9.43,0,0,0,7.66-.24c4.61-2.51,8.68-5.93,13-9,9-6.37,16.58-13.63,17.83-25.83.49-4.69,2.9-9,4.13-13.63a45.82,45.82,0,0,0,1.84-10.44c.14-6-.48-12.06-.51-18.07,0-6.33-1.62-11.44-6.89-16.26-5.85-5.34-12.25-10.82-13.82-19.52-.38-2.09-2.74-4-4.37-5.87-2.85-3.24-5.84-6.34-9.64-10.45,3.11.11,4.78.52,6.23.17,14.39-3.43,28.76-6.9,43-10.67,1.18-.31,2.15-2.86,2.28-4.49s-.9-3.48-1.36-5c.74-.6,1-1,1.35-1.07,33.07-8.18,66-16.67,99.26-24.32,12.81-3,26.15-4.07,39.27-5.9,3.74-.52,7.75-1.59,11.31-.71,20.79,5.11,41.49,10.73,62.22,16.2,5.33,1.4,11.22,1.82,15.86,4.53,14.45,8.45,28.42,17.79,42.6,26.75,2.2,1.39,4.55,2.54,6.77,3.89,1.49.91,3.5,1.69,4.21,3q13.79,26.26,27.16,52.73c1.72,3.43,4.48,8.08,3.48,10.78-7.8,21-16.32,41.69-24.85,62.37-1.78,4.32-3.58,9.4-7,12-20.1,15.4-40.72,30.15-61.11,45.18-16.18,11.93-32.26,24-48.47,35.89-4.46,3.27-8.66,6.85-15,6.89-10.57.07-17.94,6.71-23.57,14.09-5.45,7.15-8.65,16.06-12.87,24.27-.89-.57-1.44-.87-1.94-1.25-5.64-4.25-10.79-10-17-12.31-5.27-2-9.5-4.7-14-7.67-3.11-2-7.05-2.71-10.58-4.14a34.48,34.48,0,0,1-5.53-2.78c-5.31-3.33-10.42-7-15.86-10.12-4.85-2.73-9.58-2.53-14,1-9.36,7.34-19.23,14.08-28.32,21.73-5.39,4.55-9.17,10.5-5.13,18.65,2.12,4.3,9.64,20.47,11.94,25.28,2.51,5.26,3.33,14,.53,18.69-4.22,7-3.44,15.91-.71,22.68,3.27,8.12,7.3,16.74,15,22.91,11.65,9.3,22.37,19.81,34.1,29,13,10.13,26.71,19.22,40,29,17.09,12.55,33.91,25.48,51.1,37.87,7.93,5.71,16.73,10.15,24.66,15.86,7.07,5.09,13.89,8.3,22.47,5.71,1.74-.53,4.63,1.9,6.88,3.19,1.18.68,2,2.09,3.16,2.78,8,4.66,16.34,8.88,24.13,13.92,6.36,4.11,9.27,4.6,15.09.38,2.36-1.72,5-3.07,7.27-4.91,5.42-4.43,12.52-8,15.64-13.82A89.78,89.78,0,0,0,648.29,1235c.38-6.58,0-13.24.07-19.85.06-5.55-1.93-10-6.07-14.17-4.52-4.52-10.46-9.24-12-14.74-2.76-9.58-10.66-14.41-16-21.41-2.88-3.74-5.29-6.62-3.46-11l37.75-12.16c11.51-3.71,11.59-3.79,10.7-11.49,3-1.21,6.1-2.5,9.21-3.71,7.19-2.81,14.39-5.58,21.59-8.37,11.07-4.27,22.06-8.76,33.24-12.77,10.5-3.77,21.27-6.87,31.8-10.55,14.82-5.18,29.32-11.18,44.34-15.77,14.08-4.3,28.64-7.28,43-10.65a8.76,8.76,0,0,1,5.7.77c26.44,14.5,52.74,29.27,79.2,43.74,15,8.21,30.28,15.87,45.34,24,26.83,14.45,53.54,29.15,80.4,43.54,9.33,5,18.87,9.58,28.48,14,5.88,2.67,10.83,5.06,16.72,7.69,3.15,1.4,7,3.68,10.13,5.14,10.66,5,21.83,8.85,32.1,14.53,7,3.87,11.77,2.07,16.3-2.07,5.72-5.24,10.83-11.15,16.39-16.58,1.17-1.14,3.39-2.37,4.76-2,18.08,5.16,36.41,4.65,54.66,6.11,2,.17,38.08,2.22,39.55,2.29,17,.84,34.09,1.79,51.14,2.75,4.49.26,5.68,0,10.92-4.66,7.78-6.9,28.57-27,29.6-27.86,4.75-3.89,4.57-9.52,4.78-14.84.24-5.75,1.16-12.15-1-17.24-3-7.21-8.64-13.44-13-20.15-3.37-5.14-6.89-10.22-9.73-15.62-1.74-3.31-13.12-19.18-16.1-24.35-3.41-5.91.74-9.18,7-10.14a10.78,10.78,0,0,0,3.53-.89c11.3-6.14,23.63-10.55,33.25-19.54,3.56-3.33,4.72-6.89,3-11.11-2.74-6.57-6.21-12.88-9.39-19.33,8.35-4.24,9.51-9.39,3.45-18.58-.9-1.38-1.78-2.78-2.68-4.16-4.78-7.36-10-14.38-9.86-23.75.07-4.09-1.37-8.43-2.79-12.46a113.7,113.7,0,0,0-5.92-12.86,36.26,36.26,0,0,0-4.41-7.31c-7.61-9-16.36-17.24-23-26.88-16.3-23.81-31.68-48.23-47.36-72.44-14.69-22.68-29.36-45.36-43.79-68.19-1.3-2.05-1.85-5.63-1-7.69,5.29-12.86,10.78-25.64,16.78-38.15,11.47-24,23.33-47.69,34.93-71.33,10.4,3.49,17.54-20,20.18-25.49,1.19.66,29.46,23.62,42.8,34.46,4.65,3.78,9.3,8.21,16,5.39.86-.36,2.34.32,3.43.8,8.13,3.52,17.59,5.49,24,11,10.81,9.35,18,6.73,27.06-.61,9.83-8,19.77-15.11,21.76-29.14,1-7.17,4.18-14,4.92-21.15S1440.59,623.5,1439.83,616.28Z" fill="#9c9286"/><path d="M1439.83,616.28c-.39-3.65-1.31-7.88-3.5-10.73-8.08-10.53-17.85-19.95-24.91-31-5-7.85-17.6-22.6-18.08-23-27.78-23.22-56.28-45.44-86.12-65.88-12.18-8.33-23.7-17.68-35.91-25.94-9.15-6.19-18.91-11.45-28.46-17a47.14,47.14,0,0,0-14.68-5.39c-2.07-.45-9.93-5.68-14.5-9.31-7.6-6-14.07-7.38-21.75-2.26-10.21,6.81-20,14.24-29.58,21.94-2.45,2-5.1,6.27-4.49,8.94,2,8.57,2.47,18.46,12.81,22.36-4.24,16.61-.29,32.24,4.83,48.16-2.31.57-4.59,1.58-6.94,1.62-7.67.13-13.38,3.12-16.68,10-1.75,3.65-2.41,8.44-5.18,10.89-8.47,7.48-17.73,14.06-26.68,21-20.83,16.15-41.7,32.25-62.45,48.49-5.4,4.23-9.87,4.28-15.49-.63-6.7-5.86-13.24-12-20.15-17.54-6.62-5.35-13-11.78-20.57-15-27.6-11.7-55.62-22.32-83.53-33.21-21.59-8.43-43.29-16.55-64.88-25-8.75-3.41-18.37-5.13-25.1-12.89-5.17-6-10.42-11.84-15.37-18a6.77,6.77,0,0,1-1.11-5.12c2.19-8.65,4.64-17.21,7.12-25.77,4.35-15,8.8-30,13.3-45.31,5,3.87,6.56.42,7.85-2.87,2-5.12,3.7-10.38,5.52-15.55,11.51,8.37,22.67,16.74,34.09,24.71,10.31,7.19,10.77,7.39,19.46-.08,3.91-3.36,7.3-3.33,11.38-1.28,9,4.49,18,9,26.75,13.92,4.29,2.42,7.47,2.25,11-.62,4.55-3.67,9.63-6.69,14.2-10.34,5.27-4.2,11.47-7.58,12.68-15.45.72-4.69,2.47-9.17,3.7-13.76,1.33-4.94,3.42-9.8,3.7-14.86.47-8.77-.07-17.66-.49-26.5a9.81,9.81,0,0,0-2.47-5.16c-5.57-6.69-12.6-12.59-16.65-20-4.14-7.6-10.12-13.24-15.33-19.7-3.15-3.92-9.25-5.6-8.84-12.26.07-1.19-2.2-2.85-3.61-4-8.32-6.87-16.53-13.88-25.1-20.41-17.7-13.47-35.56-26.74-53.45-40-12-8.91-24.07-17.87-36.42-26.32-10.13-6.92-20.61-13.32-31.15-19.57-6.27-3.72-12.08-8-20.09-8.59-4.7-.38-9.48-5.63-13.87-9.14-7.14-5.72-12.72-7.13-19.58-2.36-11.51,8-22.47,16.8-33.59,25.35-1,.77-2.29,2.21-2.15,3.23,1.44,10.09,2.15,20.58,11,25.43.27,8.84,10.72,57.15,10.92,58.37-2.31.57-4.42,1.24-6.59,1.59-12,1.95-18.19,11.79-19.33,21.19-1,8.19,1.78,19.32,10.94,25.91,4.85,3.49,9.6,7.13,14.79,11-11.56,9.28-22.34,18.57-33.89,26.82-3.84,2.74-9.11,4.74-15,1.43-8.36-4.7-16.06-1.83-23.52,2-5.7,2.9-11.57,5.5-16.78,7.95-4.69-8-8.64-15.84-13.77-22.9-2.69-3.7-4.77-6.76-5.67-11.47-3.27-17.15-12.25-61.8-13.57-66.91-2.3-8.89-3.85-18.32-12.32-24.41-8.84-6.35-17.52-13-26.6-18.91-9.58-6.26-16.92-2.78-18.19,8.49-.65,5.88.17,12-.46,17.9-1.68,15.85-3.71,31.64-5.78,47.42-.51,3.91-4.79,35.27-12.25,45.06-1.62,2.13-9.71,23.86-14.18,31.35-3.82-5.77-3.82-5.77-7.19-4.24-4.11-1.75-6.67-3.41-9.36-3.85-3.76-.61-7.76.4-11.41-.54-12.16-3.12-22.05.21-30.69,7.94-1.61,1.45-3.49,2.7-4.72,4.43-1.53,2.16-3.9,4.87-3.51,7.06,1.22,6.92,1.78,14.51,9.9,18.32,2.51,1.18,4.5,3.55,6.91,5.52a8.7,8.7,0,0,1-1.11,1.35c-6.18,5-12.31,10-18.63,14.79a10.6,10.6,0,0,1-5.82,2.44c-8.8.1-17.64-.22-26.46-.4-14.23-.3-28.77-1.88-39.74,9.3-2.95,3-7.36,4.87-6.5,10.38.76,4.78,1.41,9.56,2.28,15.54-3.85,0-9.47,1.52-13.41-.5-10.58-5.42-20.43-12.39-30.59-18.73-10-6.23-19.82-12.68-30-18.54-5.44-3.14-11.36-.65-14.71,5.14-3,5.14-2.35,12.67,1.6,15.5,6.95,5,14.25,9.49,21.09,14.62,9.92,7.44,21.17,12.24,27.49,25.27,4.93,10.15,15.86,17.78,24.54,26.08,4.17,4,9.44,6.81,13.93,10.51a6.19,6.19,0,0,1,1.79,4.9c-2,10.18-3.94,20.36-6.55,30.34-1.5,5.74-1.84,11.76-6.51,16.65C338,600,325.08,615.31,311.47,629.86c-3.14,3.36-2.72,6.31-1.15,9.82,4.85,10.85,4.9,10.83-4.86,17.5-.81.55-1.51,1.25-2.3,1.83-13.74,10-27.41,20-41.34,29.75a7.57,7.57,0,0,1-6.89,0c-9.79-6.67-19.91-13.09-28.65-21-7.08-6.44-13.14-2.35-19.1-1.19-4.89.95-9,5-13.41,7.79a4.15,4.15,0,0,0-1.13,1.32c-4.62,7.18-9.23,14.37-14,21.76l-23.35-16.59c-6.62-4.71-13.08-9.71-20-14C132.2,665,128,665,124.67,663.19c-5.47-3-10.56-6.75-15.81-10.21s-10-3.21-14.58.4c-8.91,7-17.76,14.06-26.88,20.78-10.82,8-10.77,23-.34,32.43,4.57,4.13,8.27,9.72,7.61,16.42-.61,6.24-1.86,12.39-2.37,18.64-.89,11,3.8,21.33,5.74,32a5.54,5.54,0,0,0,1.74,2.43c8.4,8,16.39,16.53,25.37,23.81,14.06,11.37,28.76,21.93,43.24,32.76Q174.1,851.9,199.91,871q22,16.4,44,32.84c4,3,7.72,4.21,11.33.29s7.51-4,11.93-.33a78.12,78.12,0,0,0,9.21,6.46c7.36,4.5,14.69,9.08,22.32,13a9.43,9.43,0,0,0,7.66-.24c4.61-2.51,8.68-5.93,13-9,9-6.37,16.58-13.63,17.83-25.83.49-4.69,2.9-9,4.13-13.63a45.82,45.82,0,0,0,1.84-10.44c.14-6-.48-12.06-.51-18.07,0-6.33-1.62-11.44-6.89-16.26-5.85-5.34-12.25-10.82-13.82-19.52-.38-2.09-2.74-4-4.37-5.87-2.85-3.24-5.84-6.34-9.64-10.45,3.11.11,4.78.52,6.23.17,14.39-3.43,28.76-6.9,43-10.67,1.18-.31,2.15-2.86,2.28-4.49s-.9-3.48-1.36-5c.74-.6,1-1,1.35-1.07,33.07-8.18,66-16.67,99.26-24.32,12.81-3,26.15-4.07,39.27-5.9,3.74-.52,7.75-1.59,11.31-.71,20.79,5.11,41.49,10.73,62.22,16.2,5.33,1.4,11.22,1.82,15.86,4.53,14.45,8.45,28.42,17.79,42.6,26.75,2.2,1.39,4.55,2.54,6.77,3.89,1.49.91,3.5,1.69,4.21,3q13.79,26.26,27.16,52.73c1.72,3.43,4.48,8.08,3.48,10.78-7.8,21-16.32,41.69-24.85,62.37-1.78,4.32-3.58,9.4-7,12-20.1,15.4-40.72,30.15-61.11,45.18-16.18,11.93-32.26,24-48.47,35.89-4.46,3.27-8.66,6.85-15,6.89-10.57.07-17.94,6.71-23.57,14.09-5.45,7.15-8.65,16.06-12.87,24.27-.89-.57-1.44-.87-1.94-1.25-5.64-4.25-10.79-10-17-12.31-5.27-2-9.5-4.7-14-7.67-3.11-2-7.05-2.71-10.58-4.14a34.48,34.48,0,0,1-5.53-2.78c-5.31-3.33-10.42-7-15.86-10.12-4.85-2.73-9.58-2.53-14,1-9.36,7.34-19.23,14.08-28.32,21.73-5.39,4.55-9.17,10.5-5.13,18.65,2.12,4.3,9.64,20.47,11.94,25.28,2.51,5.26,3.33,14,.53,18.69-4.22,7-3.44,15.91-.71,22.68,3.27,8.12,7.3,16.74,15,22.91,11.65,9.3,22.37,19.81,34.1,29,13,10.13,26.71,19.22,40,29,17.09,12.55,33.91,25.48,51.1,37.87,7.93,5.71,16.73,10.15,24.66,15.86,7.07,5.09,13.89,8.3,22.47,5.71,1.74-.53,4.63,1.9,6.88,3.19,1.18.68,2,2.09,3.16,2.78,8,4.66,16.34,8.88,24.13,13.92,6.36,4.11,9.27,4.6,15.09.38,2.36-1.72,5-3.07,7.27-4.91,5.42-4.43,12.52-8,15.64-13.82A89.78,89.78,0,0,0,648.29,1235c.38-6.58,0-13.24.07-19.85.06-5.55-1.93-10-6.07-14.17-4.52-4.52-10.46-9.24-12-14.74-2.76-9.58-10.66-14.41-16-21.41-2.88-3.74-5.29-6.62-3.46-11l37.75-12.16c11.51-3.71,11.59-3.79,10.7-11.49,3-1.21,6.1-2.5,9.21-3.71,7.19-2.81,14.39-5.58,21.59-8.37,11.07-4.27,22.06-8.76,33.24-12.77,10.5-3.77,21.27-6.87,31.8-10.55,14.82-5.18,29.32-11.18,44.34-15.77,14.08-4.3,28.64-7.28,43-10.65a8.76,8.76,0,0,1,5.7.77c26.44,14.5,52.74,29.27,79.2,43.74,15,8.21,30.28,15.87,45.34,24,26.83,14.45,53.54,29.15,80.4,43.54,9.33,5,18.87,9.58,28.48,14,5.88,2.67,10.83,5.06,16.72,7.69,3.15,1.4,7,3.68,10.13,5.14,10.66,5,21.83,8.85,32.1,14.53,7,3.87,11.77,2.07,16.3-2.07,5.72-5.24,10.83-11.15,16.39-16.58,1.17-1.14,3.39-2.37,4.76-2,18.08,5.16,36.41,4.65,54.66,6.11,2,.17,38.08,2.22,39.55,2.29,17,.84,34.09,1.79,51.14,2.75,4.49.26,5.68,0,10.92-4.66,7.78-6.9,28.57-27,29.6-27.86,4.75-3.89,4.57-9.52,4.78-14.84.24-5.75,1.16-12.15-1-17.24-3-7.21-8.64-13.44-13-20.15-3.37-5.14-6.89-10.22-9.73-15.62-1.74-3.31-13.12-19.18-16.1-24.35-3.41-5.91.74-9.18,7-10.14a10.78,10.78,0,0,0,3.53-.89c11.3-6.14,23.63-10.55,33.25-19.54,3.56-3.33,4.72-6.89,3-11.11-2.74-6.57-6.21-12.88-9.39-19.33,8.35-4.24,9.51-9.39,3.45-18.58-.9-1.38-1.78-2.78-2.68-4.16-4.78-7.36-10-14.38-9.86-23.75.07-4.09-1.37-8.43-2.79-12.46a113.7,113.7,0,0,0-5.92-12.86,36.26,36.26,0,0,0-4.41-7.31c-7.61-9-16.36-17.24-23-26.88-16.3-23.81-31.68-48.23-47.36-72.44-14.69-22.68-29.36-45.36-43.79-68.19-1.3-2.05-1.85-5.63-1-7.69,5.29-12.86,10.78-25.64,16.78-38.15,11.47-24,23.33-47.69,34.93-71.33,10.4,3.49,17.54-20,20.18-25.49,1.19.66,29.46,23.62,42.8,34.46,4.65,3.78,9.3,8.21,16,5.39.86-.36,2.34.32,3.43.8,8.13,3.52,17.59,5.49,24,11,10.81,9.35,18,6.73,27.06-.61,9.83-8,19.77-15.11,21.76-29.14,1-7.17,4.18-14,4.92-21.15S1440.59,623.5,1439.83,616.28Z" fill="none" stroke="#000" stroke-linejoin="round" stroke-width="8"/></g><g id="Paint"><path d="M1104.88,994.44l-31.25-24.87-33-12.4-36.42-38.79-6,6.44h-4.66l-26.23-24L973,888.1,946.35,858l-49.29-42.81-19.54,13-37.27-21.34,28.89-30.94-79-58.31-85-18.47-60.39-12.35-16,.37,39.21,37.43h26.38l78.51,15.17,72.42,53.94-6.75,14.89,39.39,20.94,29.95,23.87,20.39,32.24L920,897.53l88.4,101,144.89,78.1,11.34,23.18,35.77,12.12,2-49.49-29.78-32.19Zm-409-63.05L683,1010.33l-50.44,26.9-38.27,49.69,5.67,5.49L638.91,1042,717,1003.67l5-65.34-20.43-13.51ZM671.08,606.48l52.38,47.87L875.87,767.67l8.57-3.17,5.95,7.84,75.17,79.1L1067.43,954.9l120.93,76,3.19-.63-50-53.76L986.35,825.1,951,787.49l-40.08-38.93-1.5-5.73-10-6.81-7,3.71-65.1-28-27.51-19.41,3-17.13,4.15-6.51-77.81-57.47-6.55-17L588.13,510.7l-40-24.36-71.83-33.73-4.1,2,89.27,59.47Zm-65.17,48.25L515.25,542l-21.53-4.74-17.4,9-21.65,7.5-19.21,28.4-39.11,66L293.1,722.39l4.79,7.25,106.32-76.21L446,584.59l8.45-17,33-11.52,9.54-4.92,12.18,4.92,94.93,134.14ZM750,571.35l37.52,14.32,62.5,46.9,28-5.52L716.31,528.77l-189-113.9-8,.49,58.6,49.45Zm58.82-59.82L611.69,441.1l97.42-22.82,71.57-56.91-7.91-2.83-68.42,53.79-102,23.89v6.87l197.43,76.77Zm338.1,163.71L1187,636.09l46.28-31.75-7.77-5.34L1180,629l-29,25-72,5.58,31.28,18.75Z" fill="#e89800"/></g><g id="Grey"><path d="M338.4,667l-21.9-13-52,38.26,22.67,23.55,54.9-43.18Zm1.7,84.37,3.85,9.79,7.56,9.75,138.79-33L479.5,715ZM726.24,602.78l11.11,12.39,44.82,34.59,24.59,17.16,4.71-1.95L846,635.63l4-3.06-4-4.49-11.18-9-47.29-33.45-14.75-7.53-15.71.89L719.6,555.16l-114-69.56-23,18.44,139.13,88.17Zm26.29-255.71L735.05,337l-47.46,37,16.76,11.79Zm76.52,53-14.39-7.84L788.59,482,804,487.39Zm172.52,284.67-27.79,17.15,38.89,22.63,25.11-16-8.67-34.88ZM884.44,764.5l-46,44.06,39.08,19.61,30.92-23.61-20.66-36.89ZM760.65,774l-3.59-3.09S740.33,765,738.4,764.5,762,836,762,836l71.35,69-16-82.61Zm541.91,263.23c-1.45-3.45-37.2-19.13-42.56-16.34-2.78,1.44-54,39.67-56,44s-1.56,31.22-1,40.53,3.22,9.47,7.56,8.47,13.33-15.56,17.11-18.45,69-50.11,72.55-52.11S1304,1040.67,1302.56,1037.23Zm-393.45-80.9c-.89,3.11,3.78,42.67,4.67,45.89s1.78,9.11,4.11,12.56,25.33,14.89,32,18,6.78.66,7.67-2.5,8.22-16.84,11-21.06,21.66-23.78,21-26.11S909.69,954.3,909.11,956.33Zm331.06-141.17c.66-1.67-11.67-19-16.1-24.33s-7.9-7.66-20.4-13.5-37-10.79-39.34-11.16c-2.1-.34-1.5.83,0,3.66s21.67,51.84,24,56,3.14,4.67,5.14,4.67,19-8.83,23.5-10.83S1239.5,816.83,1240.17,815.16Zm-4.06-77.38c2.78.22,45.67-84.22,43.33-86.12s-16.81-16-18.56-15.57c-2.56.65-14.1,26.35-13,28.47s16.12,13.22,16.9,13.77-4,14.92-7,15.11-19.89-15-21.89-14.33-12,23.45-12.45,25.78,6,25,7.23,29S1233.33,737.56,1236.11,737.78ZM1178,568c-1.44-3.67-22.33-17.11-25.56-17.11s-94.57,70.59-93.22,73.78c1.56,3.66,23.78,15.89,27.78,16.66s40.78-34,39.89-37-13.45-11-18.11-14.33,3.66-9,6.22-8.89,21.89,14.89,26.22,16.22S1179.44,571.67,1178,568ZM767.9,1064.2c-3.8-.57-18.79-1.42-25.68,0-2.92.6-22.4,7.84-43.86,16.18a25.26,25.26,0,0,1,5.2-.49c1.77.44,17.55,21.78,19.77,22.17s54.23-19.5,61.11-22,8.67-2,8.86-6.67S773.3,1065,767.9,1064.2Zm-131.46,42.48c0,2.78,14.45,17.43,18,17.9S699.78,1111,699.85,1109c.07-1.81-14.21-17.42-17.82-22.2C658.21,1096.25,636.44,1105.37,636.44,1106.68Zm44.83-21a7.77,7.77,0,0,0,.76,1.13c5.41-2.15,10.93-4.32,16.33-6.42C691.46,1081.45,680.42,1083.9,681.27,1085.67ZM586.75,981c4,1.74,22.14,17.6,24.81,17.82s52.88-38.45,52.44-41.61-16.89-20.61-21.91-19.73-119.2,84.21-119.2,87.07c0,4.62,21.33,20,25.33,20.16s38.91-26.41,44-36.05c1.32-2.51-17.55-15-19.11-17.62S582.8,979.22,586.75,981Z" fill="#545454"/></g><g id="Detail"><path d="M565.4,549.3c-10.49,1.88-14.35-1-24.71,1.43-1.73.4,71.67,92.59,70.2,93.92.44.7,21.71,1.29,33.79-12.95,3.15-11.07-8.27-22.58-12.08-34C630.2,596.58,566.72,549.06,565.4,549.3Zm204.43-25.58c-10.44-4.28-91.61-37.16-97.83-40.05s-10.69-3.15-5.56,0c5.63,3.44,65,37.74,69.12,38.66,9,2,29.82,7.52,32.93,6.2S780.28,528,769.83,523.72Z" fill="#ff7100"/></g><g id="Canopy"><polygon points="1295.66 1056.05 1282.95 1057.66 1230.92 1094.79 1228.96 1109.78 1234.98 1126.72 1242.85 1140.16 1311.33 1178.8 1322.95 1179.49 1353.33 1158.83 1362.31 1145.11 1295.66 1056.05" fill="#82b3d1"/></g><g id="Shadows" opacity="0.2"><path d="M577.07,1199.3l-5-.29-2.79,9.45-32.63-21.62L366.42,1055l16.31,46.67-2.74,27,17.59,25.71,157.18,112.1,10.28-.63,30,9.18,2.87-18.34-5-25.11ZM1375.4,645.6c-3.48-18.12-11.75-20.33-11.75-20.33L1172,484.11l3.47,32.85,6.5,23.68-50.45,21.18,122,80.5,23.13,21.78,2.67-6.15,21-23.88,46,34.93,26.2,5.72,8.76.52S1378.87,663.72,1375.4,645.6Zm-654.8-303-13.77,11.2,99.56,61.8,19.5,18.32,11.37-38.23L889.5,430,902,420.92,922.74,432l6.65-9.16V399.05l-3-15-20.17-17.3-193-137.36,7.62,53.46L701.58,291l-6.86,16.45,5.2,17.54ZM551.88,416l54-6s-15.37-99.61-17.78-117.43-7.87-22.26-14.86-28.6-28.7-21-28.7-21-10,93.7-12.1,93.58-16,42.65-17.19,42.35S551.88,416,551.88,416Zm-144.34,86.3s26.73-51.09,32.08-52.81,64.56-47.54,64.56-47.54l-55.52-7.49-6.91,2.7L448.66,414l13.78,11.23-48.89,28.9-53.25,4.74,5.29,15.8ZM271.42,837.61l-7.82-.46-42.35-32.81L62.1,686.68l-3.3,7.65,15.64,19.06,21.9,77L236.88,894.78l58,10.63-17-62.49Zm1023.25,296.83-53.92-46.67-9.83,7-28.47-32.32-2,30.45-61.51-37.09-94.52-78.65L1017.71,954,948.46,909.6l-57.4-8.23-186-135.2L619.4,664.07l7.28,52.84L516.1,574.19l-91.29-69.34-16.45,18.86-130.51-81L276,454l98.13,76.33-17.94,55-32.9,37.28,38.24,31.52L454,721.63l15.46,21.25,25.69-6.15,95.44,23.51,51.9,31,33.81,64.59-34.22,76L611.2,955.27l108.88,73.08,39.88,27.3,24.27,26.16,61-18.25,23,13.1,275.07,143.92,32.26-22.64,143.54,8.48s18.54-1.59,8-26.69C1316.73,1155.11,1294.67,1134.44,1294.67,1134.44Zm12.1-86.12s17.54,3.94,18.36,4.53-27.63-89.65-27.63-89.65L1268.93,936l-7,2.54,23.22,36.24,14.51,57.61Z" fill="#111"/></g><g id="Outline"><path d="M829.52,869.37c-3.1-13.46-6.36-26.89-9.48-40.35-.25-1.12-.46-2.93.14-3.4,4.63-3.67,1.74-6.38-1.36-9.3-18.56-17.46-37-35-55.63-52.41-6-5.63-7-5.38-11.05,1-3.49-1.16-6.94-2.45-10.46-3.46-5.77-1.65-7.9.37-5.88,6.09,3.59,10.14,7.7,20.12,11.47,30.2,4.65,12.44,9.06,24.95,13.91,37.32a2.14,2.14,0,0,0,.84.92c2.4,1.6,5.09-.68,4.4-3.5a103.39,103.39,0,0,0-3.21-10.09c-2.33-6-3.49-10-5.86-16C752.5,794.1,747,780.48,742,768.06c7,2.54,9.29,3.55,10.79,9.25,2.1,8,5.34,15.71,8.13,23.53,5.28,14.87,10.5,29.75,16,44.55a4.53,4.53,0,0,0,1.06,1.54c1.51,1.52,3.68,1.15,4.23-.28.41-1.09-.76-4.28-.92-4.82-2.25-7.32-3.87-11.6-6.58-18.79-3.44-9.1-6.91-18.73-10.3-27.85-1.58-4.27-3.28-8.94-4.59-13.31-.61-1.85-1.69-4.49-1.69-4.49,3.93,3.78,7.95,8.24,9,10.68,2.76,6.5,5.1,13.18,7.31,19.86,5.5,16.61,10.73,33.3,16.37,49.87a4.68,4.68,0,0,0,.8,1.37c1.84,2.27,5.16,1.13,5-1.71a4.39,4.39,0,0,0-.16-1c-4.58-14.7-9.42-29.32-14.31-43.94-1.92-5.73-4.66-12.75-6.75-18.43,0,0,2.56,2.32,5.51,4.94,1.82,1.66,2.34,4.66,2.59,5.69,4.57,14.13,8.64,28.39,12.89,42.6,2.58,8.61,5,17.25,7.87,25.78a4.41,4.41,0,0,0,2,1.94,2.16,2.16,0,0,0,3.16-.9,4.3,4.3,0,0,0,.46-2.27c-.4-2.84-1.54-5.62-2.38-8.42-5.36-17.91-10.71-35.81-16.5-55.15,3.36,2.85,6.76,4.36,7.43,6.55,3.27,10.7,5.71,21.61,8.64,32.4q4.67,17.16,9.81,34.22c.13.44.63.79,1.25,1.1a2.71,2.71,0,0,0,3.71-1.16,2.87,2.87,0,0,0,.35-.78,8.6,8.6,0,0,0-.35-3.15q-7.11-25.86-14.18-51.71c-.22-.79-1.57-5.37-1.62-6.2l3.73,2.76a9.48,9.48,0,0,1,3.54,5.16c.43,1.67.77,3.39,1.43,5.59,2.45,8.12,4.3,16.4,6.2,24.65,1.21,5.19,3.26,12.29,4.4,17.5,2.16,9.84,3.49,15.24,6,25,.17.65,1.28,4.11,2.06,4.64,1.19.8,1.92.92,2.94,0,.23-.19.56-1.31.29-3.05C834.43,891,832,880.2,829.52,869.37Zm133.82,33.76c9.43,9.26,18.84,18.57,28.55,27.54,1.11,1,5,.94,6-.13a120.07,120.07,0,0,0,12.72-16c1.06-1.62.45-5.93-1-7.47-9-9.39-18.4-18.4-27.81-27.4-2.23-2.13-4.57-3.36-7.06.17-3.36,4.76-7.61,8.87-11.19,13.49a11.39,11.39,0,0,0-1.53,3,6.73,6.73,0,0,0,.78,6.09A4.4,4.4,0,0,0,963.34,903.13Zm7.5-8c1.9-3.12,4.66-5.69,7.72-9.24,8.11,7.9,16,15.45,23.69,23.26.94,1,1.17,3.79.48,5a40.65,40.65,0,0,1-6.57,8.21c-.68.67-3.33.46-4.18-.33-7.28-6.75-14.5-13.58-21.35-20.76C969.6,900.2,969.9,896.73,970.84,895.17Zm-96.34,2.42c-8.73-6-16.87-12.69-22-11.91-4.21.64-8,17.5-7.24,19.15,1.78,3.72,8.05,8,14.59,12.93,13.16,9.48,15.3,8,17.89,3.88,1.63-3.65,2.23-4.86,3.49-11.2C882.3,905.27,878.57,900.4,874.5,897.59Zm.63,12.85a28.86,28.86,0,0,1-1.68,6,3.12,3.12,0,0,1-4.85,1.31c-5.79-4.25-11.47-8.38-17-12.71-.77-.6-.86-2.91-.45-4.1a52.64,52.64,0,0,1,2.3-5.38,3.78,3.78,0,0,1,5.64-1.34c5,3.44,9.73,6.69,14.23,10.28C874.68,905.56,875.4,908.57,875.13,910.44Zm237.73-81.76c3.8,4.05,7.28,4.09,11.49,2.45,2.75-1.07,5.44-2.33,8.26-3.22,6.81-2.13,7.74-5.49,2.44-10.85-7.55-7.66-15.51-14.93-23-22.63-3.78-3.86-7.5-6-12.65-3.89-3.29,1.36-6.5,2.9-9.87,4-6.11,2-6.63,4.59-1.82,9.25C1096.15,812,1104.8,820.09,1112.86,828.68Zm-8.8-32.81,26.17,25.45c-2.92,1.38-5.39,2.93-8.11,3.67a5.91,5.91,0,0,1-4.67-1.31c-7.87-7.32-15.54-14.85-24.57-23.57Zm-5,190.4c-5.95-5.42-12-10.78-17.6-16.53-3.09-3.16-5.67-2.27-7.86-.17-4.63,4.45-9,9.21-13.22,14a5.59,5.59,0,0,0-.8,1.26c-.66,1.39-1.28,3.26-.32,4.57s1.59,2.05,1.7,2.17c7.46,8.32,13.35,15.14,21.17,23.11,1.8,1.69,5.26.08,6.81-1.29,5.91-5.22,10.15-9.65,15.63-15.33C1107.46,995.47,1100.55,987.6,1099.09,986.27Zm104.05-63.33c5-1.56,9-4,13.81-7.28,4.61-3.56,7.11-4.38,2.46-9.32-5.65-6-12-11.35-17.69-17.33-5.22-5.49-10.56-6.06-16.16-2.55a56.74,56.74,0,0,0-5,3.28c-2.23,1.78-5.69,3.8-5.8,6C1174.61,899.38,1198.54,924.38,1203.14,922.94Zm-67.22,102.74c-7,1.79-10.25,7.47-8.22,14.54,1.88,6.51,7.73,10.08,14,8.54,7-1.72,10.46-7.26,8.55-13.68C1148.14,1028,1142.14,1024.1,1135.92,1025.68Zm109.26-55.2q9.27-2.1,6.85-10.12c-2-6.61-9.36-11.14-15.68-9.64s-8.53,4.78-6.8,10.66S1239.08,971.86,1245.18,970.48ZM377.2,709c-7.94,1.89-11.55,7-9.65,13.59,1.82,6.31,5.38,8.18,12.21,6.41S390,721.31,388,714.81C386.39,709.28,383.2,707.57,377.2,709ZM790.87,414.19c-1.43-5.16-8.14-8.39-14.47-7s-9,4.87-7.51,9.7c1.62,5.23,8.5,8.12,15.28,6.44C789.67,422,792.12,418.65,790.87,414.19Zm-205.4,620.86c-7,1.79-11.27,8-9.48,14,1.37,4.53,6.82,7.29,11.94,6,6.19-1.51,11.44-9.31,9.64-14.31C596,1036.34,590.53,1033.77,585.47,1035.05Zm478.14,21.28c5.82-1.34,8-4.28,6.65-9.1-1.19-4.35-6.45-7.48-11.07-6.58-4.18.82-7.79,5.88-6.94,9.72S1059.05,1057.38,1063.61,1056.33ZM1264.17,905.2c5.47-1.39,7.87-4.74,6.6-9.21-1.6-5.64-5.63-8-11.16-6.44-4.65,1.29-8,6.58-6.61,10.36S1260.05,906.24,1264.17,905.2Zm-86.91-324.29c-7.73,1.88-11.07,6.75-7.1,11.54,2.09,2.53,6.91,4.38,10.11,4.07,4-.38,11.28-3.55,11.28-7.53C1191.55,582,1185.07,579,1177.26,580.91ZM947.33,789.71C950,789.54,996,752.11,996,750s-41.19-34.93-44.67-34.93c-2.69,0-28.89,18.58-41.94,27.76a6.42,6.42,0,0,0-1,9.68C919.46,764.1,945.24,789.85,947.33,789.71Zm-32.89-41.82c1.78-1.33,35.69-26.18,36.89-25.49,1.83,1.06,37.11,26.38,36.23,27.6S949.74,781.23,948,780.78,912.67,749.22,914.44,747.89Zm524.92-131.63c-.38-3.65-1.3-7.89-3.49-10.73-8.08-10.54-17.85-20-24.91-31-5-7.85-17.6-22.6-18.08-23-27.78-23.22-56.28-45.44-86.13-65.87-12.17-8.34-23.69-17.69-35.91-26-9.15-6.19-18.9-11.45-28.45-17a44.77,44.77,0,0,0-14.68-5.39c-1.76-.35-9.93-5.68-14.51-9.31-7.6-6-14.07-7.38-21.74-2.26-10.21,6.82-20,14.25-29.58,21.94-2.45,2-5.11,6.27-4.49,8.94,2,8.57,2.47,18.47,12.81,22.36-4.25,16.61-.3,32.24,4.83,48.16-2.31.57-4.59,1.58-6.94,1.62-7.67.13-13.38,3.12-16.68,10-1.76,3.65-2.41,8.44-5.19,10.89-8.47,7.48-17.73,14.07-26.68,21-20.82,16.15-41.7,32.25-62.45,48.5-5.39,4.22-9.86,4.27-15.48-.64-6.71-5.86-13.24-11.94-20.16-17.54-6.61-5.35-13-11.78-20.56-15-27.61-11.71-55.62-22.33-83.53-33.22-21.59-8.42-43.29-16.54-64.89-25-8.74-3.42-18.36-5.14-25.1-12.9-5.16-6-10.41-11.84-15.36-18a6.77,6.77,0,0,1-1.11-5.12c2.18-8.64,4.63-17.21,7.11-25.76,4.36-15,8.81-30,13.31-45.32,4.95,3.87,6.55.43,7.85-2.87,2-5.12,3.7-10.37,5.51-15.55,11.52,8.37,22.68,16.74,34.1,24.71,10.31,7.2,10.77,7.39,19.46-.08,3.91-3.36,7.3-3.33,11.38-1.28,9,4.5,18,9,26.75,13.92,4.29,2.43,7.47,2.25,11-.62,4.56-3.66,9.63-6.69,14.21-10.33,5.27-4.2,11.46-7.59,12.67-15.46.73-4.69,2.47-9.17,3.71-13.76,1.32-4.93,3.42-9.8,3.69-14.86.48-8.76-.06-17.65-.48-26.5a9.94,9.94,0,0,0-2.48-5.16c-5.56-6.69-12.59-12.58-16.64-20-4.14-7.6-10.13-13.23-15.33-19.7-3.15-3.91-9.26-5.6-8.85-12.25.08-1.2-2.19-2.86-3.6-4C926,290,917.76,283,909.2,276.45c-17.71-13.48-35.57-26.75-53.45-40-12-8.92-24.07-17.88-36.42-26.32-10.13-6.93-20.62-13.33-31.16-19.58-6.26-3.71-12.07-7.94-20.09-8.59-4.69-.38-9.48-5.63-13.87-9.14-7.14-5.72-12.71-7.13-19.57-2.36-11.52,8-22.47,16.81-33.6,25.35-1,.77-2.28,2.21-2.14,3.23,1.43,10.09,2.15,20.58,11,25.43.27,8.84,10.72,57.15,10.92,58.37-2.32.57-4.42,1.24-6.59,1.6-12,1.94-18.19,11.79-19.33,21.19-1,8.18,1.78,19.31,10.94,25.9,4.85,3.49,9.6,7.14,14.79,11-11.57,9.27-22.34,18.56-33.89,26.81-3.84,2.75-9.11,4.74-15,1.43-8.36-4.7-16.06-1.83-23.52,2-5.7,2.89-11.57,5.49-16.78,7.94-4.7-8-8.65-15.84-13.77-22.89-2.7-3.7-4.78-6.77-5.67-11.48-3.27-17.14-12.25-61.8-13.57-66.91-2.3-8.89-3.85-18.32-12.33-24.41-8.83-6.35-17.51-13-26.6-18.9-9.57-6.27-16.92-2.79-18.18,8.49-.66,5.88.17,12-.46,17.89-1.68,15.85-3.71,31.64-5.78,47.43-.51,3.9-4.8,35.27-12.25,45.05-1.62,2.13-9.71,23.86-14.19,31.35-3.82-5.77-3.82-5.77-7.18-4.23-4.12-1.76-6.68-3.42-9.36-3.85-3.76-.62-7.76.39-11.41-.54-12.16-3.12-22.05.2-30.7,7.94-1.61,1.44-3.48,2.7-4.71,4.42-1.54,2.16-3.9,4.88-3.51,7.06,1.22,6.93,1.77,14.51,9.9,18.33,2.5,1.17,4.5,3.55,6.9,5.51a9.34,9.34,0,0,1-1.1,1.36c-6.18,5-12.31,10-18.63,14.79a10.75,10.75,0,0,1-5.82,2.44c-8.81.1-17.64-.23-26.46-.41-14.23-.3-28.78-1.88-39.74,9.31-3,3-7.37,4.86-6.5,10.38.75,4.77,1.41,9.56,2.28,15.53-3.85-.05-9.47,1.52-13.41-.5-10.58-5.42-20.44-12.39-30.59-18.73-10-6.22-19.82-12.68-30-18.54-5.43-3.13-11.36-.65-14.7,5.15-3,5.13-2.35,12.67,1.59,15.49,7,5,14.25,9.49,21.1,14.63,9.91,7.44,21.17,12.23,27.49,25.26,4.92,10.15,15.86,17.78,24.54,26.08,4.17,4,9.44,6.81,13.93,10.51a6.24,6.24,0,0,1,1.79,4.91c-1.95,10.17-3.95,20.35-6.55,30.33-1.5,5.75-1.84,11.77-6.52,16.65C337.49,600,324.62,615.28,311,629.83c-3.14,3.36-2.71,6.32-1.14,9.82,4.84,10.86,4.9,10.83-4.86,17.5-.81.55-1.51,1.25-2.3,1.83-13.74,10-27.41,20-41.34,29.75a7.59,7.59,0,0,1-6.9,0c-9.79-6.66-19.91-13.09-28.64-21-7.09-6.43-13.14-2.35-19.1-1.19-4.89,1-9,5.05-13.41,7.8a4.11,4.11,0,0,0-1.13,1.31c-4.62,7.18-9.23,14.37-14,21.77-8.08-5.75-15.71-11.18-23.35-16.6-6.63-4.7-13.08-9.71-20-14-3.14-2-7.39-1.91-10.67-3.71-5.47-3-10.57-6.75-15.81-10.21s-10-3.21-14.58.4c-8.91,7-17.76,14.06-26.88,20.78-10.82,8-10.77,23-.35,32.43,4.58,4.13,8.28,9.72,7.62,16.43-.61,6.24-1.87,12.38-2.37,18.63-.89,11,3.8,21.33,5.74,32a5.36,5.36,0,0,0,1.74,2.43c8.4,8,16.39,16.54,25.37,23.81,14,11.38,28.75,21.93,43.23,32.77q25.72,19.23,51.53,38.35,22,16.39,44,32.85c4,3,7.72,4.2,11.33.28s7.5-4,11.93-.33a78.56,78.56,0,0,0,9.21,6.47c7.35,4.49,14.69,9.07,22.31,13a9.45,9.45,0,0,0,7.67-.24c4.6-2.5,8.68-5.93,13-9,9-6.37,16.57-13.63,17.83-25.83.48-4.68,2.9-9,4.13-13.63a45.17,45.17,0,0,0,1.83-10.44c.15-6-.48-12-.51-18.07,0-6.33-1.61-11.44-6.88-16.26-5.85-5.34-12.25-10.82-13.82-19.51-.38-2.1-2.74-4-4.38-5.88-2.84-3.23-5.83-6.34-9.64-10.44,3.12.11,4.79.51,6.24.16,14.38-3.43,28.76-6.9,43-10.67,1.18-.31,2.15-2.85,2.27-4.49s-.9-3.48-1.35-5c.74-.6,1-1,1.35-1.07,33.06-8.18,66-16.67,99.26-24.32,12.81-3,26.15-4.07,39.27-5.9,3.74-.52,7.75-1.59,11.31-.71,20.79,5.12,41.49,10.73,62.21,16.2,5.33,1.4,11.23,1.82,15.86,4.53,14.46,8.45,28.43,17.79,42.61,26.75,2.2,1.39,4.55,2.54,6.77,3.9,1.49.9,3.5,1.68,4.21,3q13.77,26.26,27.15,52.74c1.73,3.42,4.49,8.08,3.49,10.77-7.81,21-16.32,41.7-24.86,62.37-1.78,4.32-3.58,9.41-7,12-20.1,15.41-40.71,30.15-61.1,45.19-16.19,11.92-32.26,24-48.47,35.88-4.46,3.27-8.66,6.85-15,6.9-10.58.06-17.95,6.7-23.58,14.08-5.44,7.15-8.64,16.06-12.86,24.27-.9-.57-1.45-.87-1.94-1.25-5.64-4.24-10.79-10-17-12.3-5.27-2-9.5-4.71-14-7.68-3.11-2-7.06-2.71-10.58-4.13a36.21,36.21,0,0,1-5.53-2.78c-5.31-3.34-10.42-7-15.87-10.12-4.84-2.74-9.57-2.54-14,.94-9.37,7.34-19.23,14.08-28.32,21.74-5.4,4.54-9.17,10.49-5.14,18.64,2.13,4.3,9.58,20.47,11.95,25.29,2.56,5.23,3.32,14,.53,18.69-4.23,7-3.44,15.9-.72,22.67,3.27,8.12,7.3,16.75,15,22.91,11.65,9.3,22.36,19.81,34.1,29,13,10.13,26.71,19.22,40,29,17.08,12.55,33.9,25.48,51.1,37.87,7.92,5.71,16.73,10.15,24.66,15.86,7.07,5.1,13.88,8.3,22.47,5.71,1.74-.53,4.63,1.9,6.87,3.19,1.19.69,2,2.09,3.17,2.78,8,4.66,16.33,8.88,24.13,13.92,6.36,4.11,9.27,4.6,15.09.38,2.36-1.72,5-3.07,7.27-4.91,5.42-4.43,12.52-8,15.64-13.81A89.82,89.82,0,0,0,647.83,1235c.38-6.57,0-13.23.07-19.85.06-5.55-1.94-10-6.07-14.16-4.53-4.53-10.46-9.24-12.05-14.75-2.77-9.58-10.66-14.41-16-21.41-2.88-3.74-5.29-6.62-3.46-11L648,1141.6c11.52-3.71,11.6-3.79,10.71-11.48,3-1.22,6.1-2.5,9.21-3.72q10.78-4.2,21.59-8.36c11.07-4.28,22.06-8.77,33.24-12.78,10.5-3.76,21.26-6.87,31.8-10.55,14.81-5.17,29.32-11.18,44.34-15.76,14.08-4.31,28.63-7.29,43-10.66a8.83,8.83,0,0,1,5.7.77c26.43,14.51,52.74,29.27,79.19,43.74,15,8.21,30.29,15.88,45.35,24,26.83,14.44,53.54,29.14,80.4,43.53,9.33,5,18.87,9.59,28.48,14,5.88,2.67,10.83,5.06,16.72,7.69,3.15,1.41,7,3.68,10.13,5.14,10.65,5,21.83,8.85,32.1,14.53,7,3.87,11.77,2.07,16.29-2.07,5.73-5.24,10.84-11.15,16.4-16.57,1.17-1.15,3.38-2.38,4.76-2,18.07,5.16,36.41,4.65,54.65,6.12,2,.16,38.09,2.21,39.56,2.29,17,.83,34.09,1.79,51.14,2.75,4.49.25,5.59-.12,10.92-4.67,13.38-11.43,28.57-27,29.59-27.86,4.75-3.89,4.57-9.52,4.79-14.84.24-5.75,1.16-12.15-1-17.24-3-7.2-8.63-13.44-13-20.15-3.36-5.13-6.88-10.21-9.72-15.61-1.74-3.32-13.13-19.19-16.1-24.36-3.41-5.91.73-9.17,7-10.13a11,11,0,0,0,3.52-.9c11.31-6.14,23.64-10.54,33.26-19.54,3.56-3.33,4.71-6.89,3-11.1-2.74-6.58-6.21-12.88-9.39-19.34,8.35-4.23,9.5-9.38,3.45-18.57-.91-1.38-1.78-2.79-2.68-4.17-4.78-7.36-10-14.38-9.86-23.75.07-4.09-1.37-8.43-2.79-12.46a113.7,113.7,0,0,0-5.92-12.86,37,37,0,0,0-4.42-7.31c-7.6-9-16.35-17.23-23-26.88-16.29-23.81-31.68-48.23-47.36-72.44-14.68-22.68-29.35-45.36-43.78-68.19-1.3-2-1.85-5.63-1-7.69,5.29-12.86,10.78-25.64,16.77-38.15,11.48-23.94,23.33-47.69,34.94-71.32,10.4,3.49,17.54-20,20.17-25.49,1.2.66,29.46,23.61,42.81,34.45,4.65,3.78,9.29,8.22,16,5.39.86-.36,2.34.33,3.43.8,8.12,3.52,17.59,5.49,24,11.05,10.81,9.35,18,6.72,27.06-.62,9.83-8,19.77-15.11,21.76-29.13,1-7.18,4.17-14,4.91-21.16S1440.12,623.47,1439.36,616.26Zm-81.66-78.42c11.81,6.21,22.89,13.7,32.32,23.64,1.56,1.65,3.32,3.12,5,4.65,5.69,5.13,5.41,10-.54,14.39-8.33,6.09-16.52,12.39-25.19,18.91-4.24-2.84-6.21-2.6-9.18,5.43-11-8.92-23.37-18.28-33.77-27.93-2.95-2.73-2.93-8.7-4.36-13.47C1338.36,560.36,1350.91,553.28,1357.7,537.84Zm-104.15-76.18a2,2,0,0,1,1.91-2c1.66-.12,3.36-.29,4.48.46,8.66,5.76,17.18,11.74,25.72,17.72,0,0,0,0,0,0,1,.7,2.21,1.53,3.52,2.47l2.91,2,0,0c11.5,8.24,29.57,21.58,37.34,27.15-7.44,4.92-26.59-11.47-55.74-32-6.71-4.64-12.39-8.41-19.36-13.51a1.94,1.94,0,0,1-.8-1.53Zm-7.14,56.63c-1.22,4.52-2.28,8.47-3.5,13l-57.62-42.54c5.36-.92,11.09-2,16.84-2.88C1204.93,485.45,1241.6,514.72,1246.41,518.29Zm-44.91-89.46c10.57,4.26,18.12,12,26,16.74a11.28,11.28,0,0,1,1.47,1.22,1.81,1.81,0,0,1-2,3,19.82,19.82,0,0,1-2.89-2.11c-8.47-7.1-14.58-10.44-23.45-17A1,1,0,0,1,1201.5,428.83Zm-5.55,6.63c8.54,5.78,14.17,10.2,22.54,16.22,4.55,3.28.77,6.52-2,5-10.21-7.3-14.31-10.09-26-18.44C1188,436.45,1192,432.77,1196,435.46Zm-11.16,8.22c10.3,7.59,13.06,9.05,23.37,16.64,5.46,5,.6,7.66-5.79,3-10.68-7.73-14.47-9.72-24.49-16.95C1175.41,444.66,1179,439.94,1184.79,443.68Zm-16.57,24.85c-5-5.38-4.71-13.77.55-17.82l30.56,22.22C1189.21,482.5,1179,480.27,1168.22,468.53Zm-16.49,86.16c1.13-.84,3.64-1.32,4.62-.64,6.27,4.4,12.3,9.17,18.84,14.14l-33.65,26.28-22.46-15.21C1130.57,570.57,1141.07,562.53,1151.73,554.69Zm69.75,142.54a7.31,7.31,0,0,1-1,1.71c-6,11.73-15.8,30.18-19.57,37.8-8.44-8.16-16.78-16.06-24.85-24.24-.85-.86-.56-3.43-.07-4.93.69-2.13,3.88-10.12,5.76-14.58l-.14,0,20.59-41.3,31.11,22.17C1229.34,681.55,1225.1,689.23,1221.48,697.23Zm-7.8,59.86c-1.3-2-2.66-4.21-4.21-6.32s-3.09-3.8-5-6.08l14-28.46C1229.31,731.52,1222.6,744.26,1213.68,757.09Zm-41.18-74.88c-.94,2.55-6.51,16.36-7.74,19.72-5.14-4.36-9.74-8.72-14.79-12.42-4.21-3.09-8.71-6.12-13.49-7.92-10.53-4-21.43-6.79-31.94-10.79-4.39-1.67-8.37-4.9-12.21-7.86s-7-6.34-10.94-9.89c1-1,18.86-12.68,18.87-12.68l34.31-28.64,54.65,34.82C1183.53,658.68,1177.87,670.77,1172.5,682.21ZM1146.92,599c10.11-8,20.17-16.24,30.71-23.87,1.58-1.15,5.75-.05,8.07,1.26,3.91,2.2,9.46,6.26,13.27,8.7,6.49,4.15,11.11,7,17.47,11.34q15.69,10.71,30.82,22.26c4.29,3.28,7.84,7.57,10.52,10.22-4.9,11.33-9.74,22.49-14.4,33.24ZM1110.7,585.9c3-2.78,5.68-.49,8.21,1.13,6.28,4.06,12.47,8.26,18.7,12.4v0a1.73,1.73,0,0,1-1.68,1.85c-1.88.07-3.8.24-5.2-.57-6.66-3.87-13.06-8.22-19.74-12.57A1.45,1.45,0,0,1,1110.7,585.9Zm-9.33,6.8c1.11-.87,3.87-.77,5.25,0,5.22,3,10.14,6.62,15.27,9.82,3.11,2,2.84,3.59.43,5.56-11.18,9.14-22.29,18.36-33.56,27.39a4.83,4.83,0,0,1-4.29.18c-7.22-3.69-14.32-7.65-22.24-11.95C1075.73,613,1088.45,602.71,1101.37,592.7Zm-92.93,5.72c10.94,10.21,21.58,21.61,32.23,32.72-4.18.79-9.59,1.6-13.78.53-7-1.8-74-39.63-78.3-39.72s-2.26-.72-10.59-.14c-7.45.52-32.63,2.31-38.38,5.22q-15.35-9.35-30.72-18.66c-3.22-2-6.46-3.86-9.72-5.75h0L833,556.1l18.47-3.23a33.37,33.37,0,0,1,8.87-.35l13.14,1.21s71,30.62,77.54,35.5c5.2,3.86,34.42,3.25,47.26,2.94A30.15,30.15,0,0,1,1008.44,598.42Zm21.85,92.8c-2.07,2.22-38.29,18.45-39.18,18.45s-13.33-7.74-13.33-7.74c.66-1.37,42.66-24.93,47.33-24.93C1026.51,677,1032.35,689,1030.29,691.22Zm1,6c1.14,0,3.06,5.78,2.77,7.67s-21.38,15-22.95,15-12.9-7.32-12.9-7.32S1030.15,697.22,1031.3,697.22Zm-57.72-7.28c-1.53.8-4.88-.14-6.62-1.39-16-11.52-31.9-23.27-47.8-35-5-3.69-10-7.46-15.68-11.75,10.37-4.79,22.3-10.51,32.53-14.64,2-.83,3.2.22,7.76,3.25,16.26,11.16,38.91,27.86,45.34,32.16,4.74,3.18,9.26,6.71,14.37,10.44C992.94,679.08,983.41,684.77,973.58,689.94Zm-78.12-57.3c-1.23.55-3.3.93-4.25.27-7.29-5.06-14.4-10.39-22.07-16,9.21-4.27,17.67-8.28,26.24-12.08a5.9,5.9,0,0,1,4.59-.05c8.06,4.45,16,9.18,25,14.44C914.38,624.07,905,628.44,895.46,632.64Zm-9.68,15c-1.1.66-2.45,0-3.8,0s-10.42,4-10.65,5.77-1.11,9.56-2.19,10.26S852.67,677.22,850,677.22s-12.46,2-13.32,2-7.37,6.89-8,7.54-11.56,13.57-11.56,13.57-14-10.44-14.27-12.44,1.44-12.58,2.78-13.47l46-36.68h0c3.88-2.14,19-5.41,21-4.48S886.89,647,885.78,647.67Zm5.28,6.62s49.85,45.64,49.85,47.64-47,35.66-47.32,35.25-60.92-25.74-62.92-27.29-7.56-6-7.11-6.89,14.22-15.15,16.44-16.24,11.56-2.2,12.89-2.2,18.67-12.67,20.89-15.56,2.66-11.45,3.55-12.17S889.83,653,891.06,654.29ZM575.26,461.78q-22.92-20.49-45.89-41c-1.11-1-2.11-2.12-3.16-3.18-.46-.5-.11-.78.46-.43L615.41,473,563.64,510.7l-87.1-55.06c-.48-.34-.09-.86.5-.7q35.57,15.68,71.11,31.4c3.34,1.49,5.88,1.57,8.8-.79,5.89-4.78,12.18-9.09,18.33-13.56C579.82,468.7,579.87,465.9,575.26,461.78Zm-41.68-46.85c7.3,2.21,21.65,6.68,28.95,8.86,9,2.68,17.9,5.73,27,7.84,7,1.63,9.34,5.52,8.72,12-.32,3.28-.65,6.55-1,9.82-.19,1.4-.74,1.45-1.89.79-6-3.73-55.73-34.85-61.8-37.47C531.82,415.84,532.4,414.57,533.58,414.93ZM680,468.57c30.05,10.83,60,22,90,33,11.3,4.17,22.58,8.43,33.94,12.67-3.52,4.64-12.43,7.68-17.28,6.55-33.63-7.8-64.62-24-97-35.81-17.5-6.41-34.84-13.42-52.06-20.65a179.11,179.11,0,0,1-17.71-8.58c-4.88-2.8-11.85-6-13.11-8.21a36.73,36.73,0,0,1-2-5.09c-.3-1.11.29-1.67,1.48-1.28C616,445.1,667.07,463.9,680,468.57Zm-41-24c7.69-1.36,27.53-5,36.79-6.73,24.63,13.81,47,31.45,71.76,46.25,16.34,9.85-12.31-1.51-20.41-4.74-18.2-7.24-25-9.19-35.55-13.36-6.73-2.66-49.69-18.2-49.43-18.19-1.08-.46-2.16-.91-3.24-1.34A1,1,0,0,1,639,444.54Zm86.52,95.33c9.7,5.8,19.82,10.88,29.55,16.63C774.61,568,794,579.82,814.66,592.24l-5.5,4.47c-3.11-2-6.14-3.69-8.95-5.71-6.57-4.72-12.53-8.79-19.68-12a153.91,153.91,0,0,0-24.71-8.19c-3.67-.91-7.58-1.76-10.81-3.68-18-10.74-35.93-21.76-53.84-32.75q-16.35-10-32.59-20.29c-15.5-9.74-31-19.55-46.89-29.62,2.9-2.35,5.21-4.65,8-6.23a6,6,0,0,1,5,.19c8.52,5.09,16.82,10.58,25.3,15.74Q687.71,517.13,725.55,539.87Zm-2.68-11.1c10.42,1.65,31.75,4.81,40.62,6.31a.4.4,0,0,1,.11.75A181.32,181.32,0,0,1,745.37,542S733,535.2,722.71,529.32A.29.29,0,0,1,722.87,528.77Zm-72.79-11.9c16.2,10.06,32.86,19.33,49.13,29.28,19.87,12.15,39.69,24.43,59.25,37.11,8.18,5.3,16.06,11.09,24,16.77,18.64,13.56,44.29,32,46.35,33.45q4.17,3,8.44,5.8L816,656.77c-6.23-4.53-33.46-24.47-46.34-33.72-.27-.44-23.21-16.25-34.18-23.88-7.81-5.44-15.29-11.4-23.24-16.61-15.53-10.16-31.28-20-47-29.89-3.46-2.19-7.08-4.1-10.56-6.24-13.44-8.25-26.88-16.47-40.25-24.84-9.41-5.89-18.69-12-28.2-18.12l20.25-15C621,497.89,635.32,507.71,650.08,516.87Zm120.49,67.59a1.57,1.57,0,0,1,1.16-2.87c7.91,2,15.17,7.32,20.82,11.24,10.41,7.2,15.73,10.49,28.23,19.25.85.59,5,3.82,5.7,4.34,13.23,9.58,21.13,14.18,19.23,15.9l-3.54,2.91C837.26,631.64,786.87,596.09,770.57,584.46ZM833,614.13c1.71-1.34,8.08-6.77,9.66-8,6.36,4.77,12.52,8.59,21.8,14.75,1.89,1.21,4.67,3.15,8,5.51a92.22,92.22,0,0,0-18.69,3.75,7.09,7.09,0,0,0-.32-.69,4.68,4.68,0,0,0-1.1-1.37C846.29,623.23,839.82,619,833,614.13Zm25.27-4.67c-3.91-2.55-15.1-9.79-18.18-11.74-5.94-3.78-16.36-9.71-19.43-12,2.06-1.11,18.72-6.77,19.6-7.09l0,0c7.11-2.61,13.18-1.65,20.86,2.8,15.83,9.18,19.11,11.46,29.93,17.81-9.42,4.33-17.86,8.45-26.56,12C862.93,611.84,860,610.62,858.23,609.46Zm-43-31.18c-1.8.53-3.42,1.6-6.13,2.91-.67-1.11-39.8-24.93-56.54-33.85,6.76-2.84,14-5.76,20.13-8.47l38.81,13.23s19.82,11,32.14,18.19Q829.38,574.22,815.2,578.28Zm-46.71-49.75c-3.11,1.32-23.89-4.15-32.93-6.2-4.1-.92-63.49-35.22-69.12-38.66-5.13-3.15-.66-2.89,5.56,0s87.39,35.77,97.83,40.05S771.6,527.21,768.49,528.53ZM605.9,452.88c9.66,6.15,15.42,8.85,25.14,14.9,2.63,1.63,9.54,6,12.19,7.64,19.23,11.63,38.27,23.6,57.57,35.13,7.56,4.52,4.81,8.54,4.29,9.31-6.58-3.36-14.94-8.79-21.25-12.64-13.2-8.08-52.5-31.37-55.67-33.24-9.67-5.69-17.83-10.34-24.88-14.85C601.58,458,604.24,451.19,605.9,452.88ZM579,509.16a5.68,5.68,0,0,1,4.87.35c20.7,13.08,41.29,26.34,61.94,39.5,9.45,6,19,11.88,28.46,17.88,14.49,9.19,29,18.33,43.37,27.78a14.17,14.17,0,0,1,5,6.78c3.72,10.88,11.94,17.44,21.08,23.43,4.64,3,8.92,6.68,13.39,10.07-2.1,3.49-3.69,4.29-7.51,1.45q-30-22.32-60.61-43.9c-12.21-8.64-24.68-16.9-37.2-25-20.19-13.13-40.53-26-60.77-39-6.47-4.17-12.81-8.56-19.71-13.19C573.91,513.08,576.21,510.77,579,509.16ZM735.81,610.91a7.63,7.63,0,0,1-1.35-1.5,1.89,1.89,0,0,1,2.68-2.62c8.76,6.34,21.23,15.32,30.38,21.7,12.71,9.37,38.25,28,44,32l-3.88,3.19c-1.62-.09-10.24-6.85-14.57-10.7-1.17-1-9.55-6.91-15.73-11.42-3.08-2.24-7.69-5.24-11.38-7.91h0C760.59,630.2,740.93,615.48,735.81,610.91Zm146.52-64.65q13.83,5.06,27.59,10.3c25.28,9.69,50.07,20.9,75.17,31.18-10-.71-23.86-1.89-28-3.15S913.68,562.93,882,547.13A.47.47,0,0,1,882.33,546.26Zm-51.68-18.47c17.42,7.79,39,17.49,41.75,19.1,6.78,3.89-9.4.61-19.72.91-3.4.1-29.15,4.3-30.24,3.2s-6-4.56-8.94-5.33c-6.82-1.82-24.67-7.82-32.82-10.58,9-4.36,17.81-9,26.79-13.27a7.6,7.6,0,0,1,5.29-.38Q821.7,524.64,830.65,527.79ZM815,511.53c-5.24-2.2-14.79-6.16-14.79-6.16-13-5.29-22.74-8.37-32.71-14.85C756.83,483.6,746.55,476.06,736,469c-16.35-10.85-32.84-21.49-50.76-33.2,26.46-7.91,35.64-5.86,35.56-17.62,0-7.57-.45-11.13-4.43-20.27,6.93-5.27,20.52-15.09,28-21S759.1,365,767,358.54c9.29,6.89,19.24,14,28.94,21.56a108,108,0,0,1,11.55,10.8,5.51,5.51,0,0,1,1,4.49Q797.18,435,785.49,474.54c-2.41,8.2-2,8.57,5.64,12.5a47.11,47.11,0,0,1,11.17,8.65A93.34,93.34,0,0,1,815,511.53Zm-16.93-55.1,10.25,7.12-5.86,21.56-11.1-4.85C793.54,472.49,795.65,465,798.06,456.43Zm12.31.31-10.17-6.32c1.37-4.62,2.78-9.39,4.19-14.2C816.14,443.4,815.12,441.72,810.37,456.74Zm7.43-26.64h0c-.53,1.81-1.1,3.68-1.68,5.58l-9.73-7.24c1.56-5.07,9.08-31.41,9.18-31.87L825.89,404C825.14,406.29,818.67,427.39,817.8,430.1Zm58.49-68.26a39.18,39.18,0,0,1-1.08-21.66c8.41,6,16.41,12.42,24.39,18.17.49.35,1,1.4.86,1.83-3.43,9.1,5.76,33.8,8.66,46h0c1.24,3.71,2.37,7.53,3.47,11.47C897.42,425.53,876.29,361.84,876.29,361.84Zm50,55.76c-.91,6.93-2.91,10.55-6.15,2.08-4.38-14.63-9.7-32.51-13.52-47.24-1-4,.34-8.63,1-12.9.48-3.09.79-4.63,1.39-8a.34.34,0,0,1,.66,0C918,373.8,927.54,394.32,926.24,417.6ZM945.9,327l6.9,7.55c-7.5,5.34-23,17-23.84,17.73-4.71,4.34-4.6,6.5-2.6,13.78,1.59,4.5-3,7.45-5.15-.12-1.21-3.66-2.06-7.48-3.71-11-2.51-5.28.8-7.06,4.1-9.47C929.63,339.67,937.44,333.51,945.9,327Zm-60.06-27.35c4.77-4.59,9.4-9.31,14.81-14.7,10.33,3.65,19.11,12.95,28.74,21,2.22,1.85,4.35,3.82,6.52,5.73,5.13,4.53,5,10.37-.32,14.5-4.77,3.71-8,6.93-13,10.19-3.81,2.44-7.56,8.43-14.54,5.37-4.25-1.86-6.76,2.78-6.42,9.38-4.81-4.27-8.22-7.48-11.81-10.46-7.32-6.09-15.28-11.53-21.87-18.32-2.73-2.81-2.85-8.37-3.5-12.74-.09-.61,3.53-1.61,5.47-2.35,3.72-1.43,7.53-2.66,11.17-4.25A16.89,16.89,0,0,0,885.84,299.68ZM782.65,203.24c3.24-4.9,5.72-6.11,10.83-2.31,9.87,7.34,21.14,14.4,31.2,21.47,10.69,7.51,13.28,9.36,24,16.86,4.85,3.4,17.46,12.93,22.71,16.56-6.38,10-25.89-7.33-37.78-15.72C821.27,231.43,781.3,205.4,782.65,203.24Zm5.94,60.95-4.68,12.18-57.23-42.44c5.23-.9,11-2.2,16.92-2.71,1.6-.13,3.55,2.16,5.54,3.47C760.48,243.19,783.44,260.44,788.59,264.19ZM767.66,192c-2.75,3-5.43,1-28.67-16.07C740.4,173.63,743.81,171.79,767.66,192Zm-34.21-10.83c12,7,16.21,11.24,24.36,16.55,2.49,1.59-1,5-3.27,3.61-8.83-6.31-14.81-11.09-23.64-17.4C728.63,182.1,732.21,180.34,733.45,181.15ZM721.31,189c3.49.05,7.37,3,25.81,16.78,1.85,1.76-1.23,4.66-3.81,3.27-7.63-5.49-15.25-10.61-23-16.11C718.64,191.7,719.33,188.93,721.31,189Zm-8.74,28.73c-6.55-7.85-8.12-14.93-1.4-21l25,18.59C726,224.8,719.32,225.78,712.57,217.68Zm7.71,29.13c-.73-5-2-10.17-1.07-9,6.49,4.58,10.73,7.44,17.14,12.13,13.26,9.69,26.43,19.51,39.67,29.23,3.82,2.8,24.49,18.15,30.87,22.87a88,88,0,0,0,1.47-11.59c0-10.74,8.87-14.42,15.7-19.28,7.89-5.61,13-8.53,18.92-12.7,1.53-1.08,4.29-2.73,6.17-2.08,2.42.94,4.89,2.09,5.24,2.76-6.79,5.08-16.17,11.76-23.44,16.11-6.68,4-6.92,13.12-7.09,18.4-.08,2.52-.53,7.32-.83,11,5.19,4.44,36.89,29.3,41.34,33a8.71,8.71,0,0,1,2.49,5.5c.22,2.55-.8,8.36-.85,8.68h0c1,11.85,4.2,18,5.58,22,2.42,6.36,10,27.95,22.33,45.68,1.75,2.1-5,7-9.09,4.35-10.79-7.9-23.89-17.41-34.49-25.57-4.74-3.66-5.52-6.6-6.29-9.15-.86-2.87,1.85-19,2.73-30.16-2.58-1.15-112.91-81.52-121.75-87.75C723.22,262.65,722.77,259.21,720.28,246.81Zm-18.57,61.06c9.37,7.07,23.33,17.2,31.94,23.69-.1.66-5.7,6.41-6.86,5.84C719.06,333.61,699.84,323.07,701.71,307.87Zm26.17,37.85c9-6.76,9.22-6.44,19.7,2.73-15.48,12-42.93,32.07-45.55,33.46-1.12-.72-7.88-5.89-10.41-7.51C703.87,364.67,715.66,354.92,727.88,345.72Zm-100,55.51c6.08-18.8,32.9-31.32,48.24-21.45a3.86,3.86,0,0,0,3.79.33c1.83-.9,4.13-2,5.27-2.62l11.53,8.07c-8.87,5.8-18.59,11.84-25.39,16a3.14,3.14,0,0,0-.16,5.12l0,0c8.75,7.25,18.63,13.11,27.9,19.5-9.34,2.3-17.83,4.63-26.49,6.31-1.78.34-4.65-1.25-6.17-2.8-7-7.15-15.52-9.27-24.82-9.62-5.85-.23-13-5.91-14.37-10.74a11.28,11.28,0,0,1,.64-8.1ZM548.38,251c1.65-11.9,4.17-8.22,17-.36,20.88,14,26,22.31,27.46,36.18,1.26,11.7,4.71,29.65,6.79,41.3,2.54,14.27,6.31,35.12,8.16,48.19,1.28,7.42,3,17.23,4.73,24.58,1.94,8.33-.48,8.83,8.17,7.56,1.44,13.43,12.51,17.14,25.5,18,3.32.22,7,2.17,10.88,4a1.8,1.8,0,0,1-.2,3.4c-8.46,1.93-15.81,3.36-22.74,5.85-7.46,2.67-13.69,1.17-19.92-3.34-8.35-6-18-13.37-27.55-20.43a1.08,1.08,0,0,1,.63-2,44.11,44.11,0,0,0,9.6-.16c3.16-.43,4.11-1.87,3.56-5.47-5.2-34.34-.31-32.09-20.16-46.06-2.86-2.1-16.93-13.09-22.55-17.12-16.1-11.64-17.92-10.11-16.1-18.31,2.41.78,10.78,6.29,12.36,5.55s2.24-4,2.55-6.38c1.67-12.43,3.25-24.87,4.55-37.36.6-5.72,1.86-11.88.29-17.23-1.17-4-6-7.75-9.93-10.3C546.88,258.23,547.76,256.76,548.38,251Zm-3.66,34.79c.24-2.14,1.74-14.42,2.41-19.12,7.82,3.62,9.31,6.91,8.35,15.66-.39,3.59-1.23,12.26-3.08,23.77-1,6.93-1.82,10.71-2.26,14.37l-.15,1.36c-1.57-.47-3.25-.95-5.3-1.58C539.44,317.72,540.16,318.17,544.72,285.83Zm-5.88,54.49c6.19,4.43,12.24,8.6,18.14,13,9.73,7.25,19.38,14.61,29,22,1.09.84,2.53,2,2.76,3.11,1.74,8.6,2.26,14.31,3.73,23,.06.37.21,1.08.34,1.87a2.61,2.61,0,0,1-2.52,3c-3.36.11-6,.34-9.23.47a34.62,34.62,0,0,0-5.21.27c-2.61.39-5.87,1.94-3.49,5.23a31.28,31.28,0,0,0,3.79,4.54,44.1,44.1,0,0,0,5.42,4.11,1,1,0,0,1-.84,1.77c-4.84-1.65-10-2.82-14.21-5.48-4.53-2.82-6.33-4.78-12.57-11.86-4.45-5.28-6.87-7.47-1.39-11.19.23-.19,14.46-10.34,14.71-10.53,7-5.43,4.13-7.25-3.24-13.48-9.19-7.77-19-14.77-28.9-22.48Zm-8,13.33c12.32,9,22.44,16.71,33.12,24.53-11.81,11-16.69,11.1-28.75,1.61-3.67-2.88-9.81-6-10.08-9.14C524.69,365.06,528.28,360.1,530.88,353.65Zm-10.52,67.91,49.17,45.74c-5.94,4.48-11.21,8.65-16.74,12.45-1,.67-3.18.19-4.57-.42q-32-13.83-63.9-27.88a17.11,17.11,0,0,1-2-.94C494.76,441.06,507.54,431.27,520.36,421.56Zm-69.8-17c-1.33-2.65-1.69-5.55-1.38-6.2,13.15.9,28.9,4.93,39.55,7a.85.85,0,0,1,.21,1.63A176,176,0,0,0,469,415.41c-3,1.56-4.74,1.57-7.43-.72C457.47,411.18,452.41,409.37,450.56,404.53Zm5.3,48.74c6,.64,8.63,1.38,14.05,4.8,1.6,1,7,4.91,8.71,6.09,5.87,4,55,35.28,59.62,38.18,3.57,1.91.87,3.67-2.4,3.79-5.3.07-12.32-.14-17.06.32A188.23,188.23,0,0,0,499,509c-3.36.64-4.21-1.05-6.31-3.19-13.82-14.15-38.59-39-49.74-49.64C446.61,453.8,452.94,453,455.86,453.27Zm-27.55,51.09c3.15-8.1,11.65-29.69,14.66-37,12.48,13.49,17.62,19,27.13,28.61,4.89,6.06,10.1,10.76,16.19,17.37a26.32,26.32,0,0,0,3.81,3.34l13.19,75a.83.83,0,0,1-1.2.88l-73.5-38.46c-1.56-.63-1.12-9.71-1.23-20.07C427.23,522,426.77,508.33,428.31,504.36ZM580.45,702.6h0c2.44,3.11,4.69,7,7.68,10.79-10-2.25-18.65-4.16-27.25-6.1-5.58-1.27-11.12-2.87-16.73-3.79-4.62-.75-8.28-2.56-10-7-3.07-7.79-10.26-11.18-16.36-15.52-14.29-10.16-28.9-19.85-43.36-29.75-13.84-9.48-21.3-14.64-35.15-24.1-.75-.51-8.07-5-9.1-5.44l2.62-4.85c.7-1.31,1.37-2.54,2-3.63l.06,0c5.54-10.09,15-28.23,24.49-34.92,5.9,2.81,35.88,18,44.15,22.22a8.87,8.87,0,0,1,3.08,2.6C525.69,628.84,562.34,678.34,580.45,702.6ZM566,625.49a1.09,1.09,0,0,1,2-.51c6.81,10,30.23,44.66,30.32,46.92s.13,34.09-2.69,41.52c-9.79-13.16-19.57-26.42-30.12-40.65l-4-6.77C561.3,663.13,565.11,635.17,566,625.49Zm7.67,91.8c-21.21-2-52.59-5-54.35-5.51-2.66-.78-28.71-20.53-31.91-21.54s-73,7.07-73.87,4.14-2.57-33.25-3.73-37.65c5.3-10.05,10.95-19.9,16.38-29.68,9.6,6.59,18.36,12.61,27.13,18.61Q480.2,664,507.08,682.39a87.9,87.9,0,0,0,8.45,5.44c7,3.64,10.84,9.83,14.81,16.19,1.27,2,4.22,3.73,6.64,4.34Q555.3,713,573.68,717.29ZM413.55,466l-10.27,29.4c-7-4.17-24.22-14.33-30.79-19.68-3.21-2.61-4.25-8.17-5-12.85C372.5,463.2,406.62,465.75,413.55,466Zm-51.84,39.39c-20.88-14.17-40.91-26.59-63.15-41.67-4.48-2.78-13.77-8-18.3-10.54-3.49-3.27-.94-7.68-.2-8.63,4-5.1,15.74,4.11,23.44,8.36,8,4.44,19.18,12.19,27,17.1,2.14,1.35,4.35,2.59,6.5,3.92,10,6.22,55.14,34.42,61.2,37.91C413.55,521.34,421,524.45,421,533c0,12.76-35.75-12-43.1-16.76C375.06,514.36,366.4,508.07,361.71,505.43Zm11.67,34.91c4.55.27,13,1,19.77,4.52,2.56,1.32,48.22,26.12,55.51,30.49-7.73,7.6-16.13,25.59-21.78,36.09l-10.55-6.13,2.34-20.77L390.51,569l-25.18,15.54L362,581.73C365.92,567.6,369.61,554.1,373.38,540.34ZM329.61,619.7c10.28-11.4,20.7-22.77,29.19-32.25,2.3,1.72,5.46,3.88,6.87,3.88,2.33,0,23-14.33,24.84-14.17s18.82,10.17,21.16,12.07-3.34,17.77-1.85,20c1.08,1.6,9.69,5.66,14.37,7.79-5.67,11.56-13.84,24.61-20,36.44-7.59-5.07-11.32-7.73-16.7-11.1-5.16-3.25-14.51-8.76-19.45-12.23-3-2.11-8,4-10.28,6.38-6.64,7.08-13.34,14.1-20.06,21.18-4.13-2.52-10.58-5.77-15.72-8.9-.26-.47-6.42-13.09-6.68-13.56C317.83,632.47,323,626.67,329.61,619.7Zm-11.73,36.86,6.26,3.53c5.92,3.4,11.16,8.13,16,12.41-3.67,2.92-40.84,30.61-52.9,39.28-5.61-5.68-14-12.15-20-18.3C282.6,682.22,302.33,667.88,317.88,656.56Zm-208.43,4.57c7.42,4.83,12,8,18.88,12.81-3.23,2.85-5.48,4.39-10.19,1.43-8.13-5.11-14.52-9.69-21.8-15C101.07,654.82,105.93,658.83,109.45,661.13ZM87.93,667.3l.34-.32a3.25,3.25,0,0,1,3.31-.4l21.86,15.71c1.06.77.31,2.84-.62,3.66l0,0a2,2,0,0,1-2.47.08L88.25,670.4A2,2,0,0,1,87.93,667.3Zm6.24,37.81c-2.26,3.14-4.87,7.74-7.19,10-3.79-1.67-10.6-7.81-13.77-10.66C65,697.1,65,692.79,65.09,688.84c0-1.6,1-4.61,2.25-5.28s3.55.51,5.07,1.59c6.23,4.42,14.4,10.74,21,15.71A3.1,3.1,0,0,1,94.17,705.11Zm10-11.44,0,0a4.11,4.11,0,0,1-3.77.37c-7.23-5.19-14.29-10.49-21.52-15.68-1.14-.82-.33-2.62.66-3.5l.17-.15a2.09,2.09,0,0,1,2.64-.08l21.57,15.7A2.14,2.14,0,0,1,104.19,693.67Zm17.34,82.65c-.07,2-.45,14.46-1,25-15.24-10-14.67-12.58-13.62-40.51a65.67,65.67,0,0,1,.49-8C119.68,761,121.91,759.63,121.53,776.32Zm58.55,3.59c-1,7.83-1.09,12-1.91,20.93-12-8.89-16.13-12.21-29.19-21.7-1.71-1.23-4.52-2.49-6-1.91-1.33.52-2.1,3.52-2.18,5.52-.29,8-1.13,11.8-.31,19.77.34,3.24,5.08,9.31,7.68,12a64.06,64.06,0,0,0,8.74,7.3c1.29.73,6.13,9.41-9.4-1.22-5.88-4-14.7-11.34-20.74-15.44.07-13.14.1-26.31.22-39.48,0-5.25-2-9.2-6.82-11.86-1.42-.79-3.43-2.06-4.78-2.93-8.28-5.42-10.59-11-8.79-19.77a12,12,0,0,1,1.46-4.57c2.41-3.33,5.14-6.42,7.8-9.67l33.56,24.69c4.66,3.78,15.08,11,22.93,16.72,10.07-7.65,27.81-19.27,37.84-26.13,5.09-3.48,11.8-2.46,6.58,2.36-6.33,4.68-11.19,7.84-17,11.75-9.76,6.6-14.95,8.06-17.88,21.46C181.24,773,180.59,775.67,180.08,779.91ZM239.4,888c-11-6.84-47.9-35.84-52.62-39.47-.55-.42-.6-1.74-.62-2.63-.28-18.26-.57-36.53-.69-54.78a37.62,37.62,0,0,1,.8-6.42c2.45-.6,21.18,7.33,30.79,7,.11,3.22.05,5.54.13,10.09.13,3.33,1.28,10,10.49,16.89-.31,6.43-1,12.23-.47,17.86.3,3.26,2.27,9.42,3.34,12.76,3.07,9.56,6,19.16,8.58,28.83C239.74,880.44,243.09,890.87,239.4,888Zm13.72-6.07a6.07,6.07,0,0,1-3-1.38c-1.83-1.62-2.58-4.3-6.75-18.23-1.63-5.45-3.52-10.84-5.49-16.19-2.87-7.81-4.72-16.9-1.44-22.76,5.16,3.33,19,14.12,19.12,14.24,3.08,3,3.36,6.25,4.78,14.88C265.56,884,268.72,884.65,253.12,881.92Zm11.71-47c-10.77-8.95-26.49-18.6-37-28.41-2.77-2.59-3.08-8.52-3.49-14.84,16.82-3,28-11.69,36.88-26.08,7.7,5.54,31.23,23.59,34.67,26.58,1.09,1,2.95,2.63,5.06,4.73a6,6,0,0,1-.37,9.12c-10,7.23-28.85,21-30.85,22.72A17.36,17.36,0,0,0,264.83,834.91Zm10.81,55.66c-2.61-9.14-6.57-28.2-8.33-37.48-2.48-13.07,4.78-16.06,6.13-10.89,7.69,26.69,9.29,33.7,15.46,58.5C284.21,899.77,277,895.49,275.64,890.57Zm32.1-80.22a3.28,3.28,0,0,1,4.83.7c1.31,1.86,2.57,3.65,3.93,5.8,1.25,2,2.37,5,.22,4.14-4.68-1.85-13.42,5-18.36,8.52-9.46,6.82-10.78,15.82-11.93,23.38-.25,1.63-2.89,1.24-3.44-.36-1.7-4.95-5.14-15.23-5.14-18.09C277.85,830.93,297.81,819.25,307.74,810.35Zm72.56-49.48c-7.66,2-22.56,6.21-28,5.48-6.15-.81-7.23-7-9.27-12.69,5.94-1.46,18.7-5.65,24.31-7,5.75-1.94,13.39-3.48,18.77-4.93,9.41-2.54,10-2.53,15.53,6,.31.48,3.23,6.32,3.57,6.85C399.93,755.82,382,760.48,380.3,760.87ZM412,753.08c-2.74-3.31-6.79-11.7-10-15.59l28.39-7c1.57,2.56,7.23,11.7,9.29,15C431.05,748.34,420.39,750.34,412,753.08Zm35.57-9.66s-7.91-10.61-10.07-14.42c15.69-3.85,26.7-7.88,41.12-11.42.92,3.07,6.27,13.38,8.84,17.75C474.91,738.53,460.07,741.43,447.53,743.42Zm139.61,5.12q-23.24-5.61-46.44-11.29c-4-1-6.72-.51-5.32,5-13.31-3.63-26.4-6.63-39.08-11-3.55-1.23-5.48-2.87-7.54-6.85a63.37,63.37,0,0,1-3.79-8c-2.92-8.08-5.8-6.86-11.19-5.33q-23.5,6.71-47.18,12.91c-11.18,2.94-22.56,5.29-33.68,8.4-16.6,4.65-33.14,9.49-49.5,14.79-5.58,1.81-9.91.2-14.23-3-11.69-8.67-23.3-17.45-36.09-27.06l58.78-43.42c27.9-18.57,31.81-23.89,49.41-14,.26.15.5.29.75.41.3,10,1.34,39.54,3.13,41.9,2.16,2.85,76.83-5.6,79.5-4.71s29.77,22.66,29.77,22.66,69.75,8.55,85,9.68a71.5,71.5,0,0,0,5.1,6.06c7.55,6.46,10.15,7.89,18.78,14.65a49.19,49.19,0,0,1,9.25,9.17Q609.86,754,587.14,748.54Zm48.74,2.5c-8.15-4.39-16.62-11.68-25.11-19.22A48,48,0,0,1,606,727c0,.05-1.61-2-2.76-3.54,1.15-15.48,2.27-54.79,2.71-54.75S570.58,618,565.4,611.38s-9.73,42.55-9.68,48.2h0c-2.41-3.25-4.76-6.41-7-9.43.47,0-33.06-46-33.64-46.78a27,27,0,0,0-4.83-5.61C508.13,586.69,498.94,538,497,522a3.15,3.15,0,0,1,2.84-3.52h0c11.31-1.18,30.7,28.53,40.62,41.11,12.42,15.74,24.92,32.43,42.76,55.38,8.12,10.45,17.06,20.33,24.63,31.14,5,7.12,6.1,15.93,7.37,24.38.92,6,2,12.07,3.11,18.09.83,4.56,1.7,8.84,2.7,13.82-.06,0,4.18,17.24,5.88,22.11C631.56,737.68,637.73,751.92,635.88,751Zm71.3-70h0a15.71,15.71,0,0,1,2.38-3.89c3.51-5.83,9.44-15.73,10.59-17.56,2,1.54,15.56,11.55,25.91,19.21a88.46,88.46,0,0,1,7.28,5.21c1.46,1.14,2.93,2.31,4.51,3.56h0l2.79,2.21c-6.49,7.54-12.84,14.91-19.17,22.3-2.59,3-4.7,2.08-7.44-.59-9.2-9-18.63-17.65-28-26.43a5.83,5.83,0,0,1,.09-1.22,24.57,24.57,0,0,1,1-2.79ZM858,812.78s-13.78-3.78-13.67-5.11,39.67-40,39.67-40l8.44,16.22Zm38.13-24.22s8.09,11,8.54,13.59-25.34,23.48-26.89,22.94-17.34-7-16-7.2S896.13,788.56,896.13,788.56Zm-44.81-3.23a136.57,136.57,0,0,1-10.7,10c-1.09.87-4,1-5.08.16C828.3,790,821.39,784,814.23,778.37c-3.09-2.43-21.26-17.27-33.65-27-3.12-2.44-4.78-3.76-2.24-6.74,7.33-8.61,14.74-17.16,22.28-25.91l67.54,49.52C862.44,774.06,856.93,779.74,851.32,785.33Zm-85-45.6-23-19.89L766.24,694l23.86,17.42ZM733.36,722c0,3-15.36,29-14,35.4s25.67,73.27,27,76.93-11.66,28-13,29.07L725,858.09c-14.14-10.13-41.19-31.32-41.91-33-1-2.24,5.63-44.76,6.3-47.42s-1.34-10-2.67-13.17-41.67-47.83-44.2-50.56,8.2-24.27,8.52-25.27,21-19.34,21-19.34a12,12,0,0,1,1.27-.6c5.94,4.93,13,10.74,19.25,15.82C709.36,699.42,733.34,720.05,733.36,722Zm122.7,299.3c1.15,4.64,2.7,9.21,4.57,15.45-17.23-12.49-30.45-21.62-49.33-35.3-8.79-6.37-11.48-13.48-14.88-22.41-3.68-9.69-4.74-11.59-8.49-21.87,5.42,3.73,11.76,8.08,15.86,10.63,13.73,8.56,26.46,16.51,40.68,24.16,5.81,3.13,67.8,37.13,86.55,47.23,16,8.61,32.06,17,48.07,25.54,7,3.74,13.92,7.63,21.31,11.69-3.24,1.95-16.9,11.1-19.81,12.49-3.49,1.67-7.44-.44-39.78-16.1-5.18-2.51-10.8-4.44-15.51-7.71-2.58-1.79-3.76-5.84-5.32-9-1.12-2.25-3.14-7.32-4.57-9.31-9.39-13-21.77-16.4-35.49-22.68-6-2.75-12-5.56-18.07-8C857.38,1014.28,854.88,1016.56,856.06,1021.3ZM831.62,1027c-25.52,9.2-87.9,32.85-88.93,33.24-8,3-16.06,5.71-24.06,8.64-6.81,2.5-13.55,5.17-20.51,7.83L671,1051.91c24-8.58,54-18.18,77.43-26.57,12.45-4.35,24.58-8.67,36.79-12.81,4.66-1.59,7.64-2.46,13.12-4.58,3.54-1.38,6.17-.12,8.91,2,5.62,4.35,11.79,7.95,17.69,11.93C826.93,1023.24,828.81,1024.81,831.62,1027ZM793.3,996.21c-7.25,2.77-13.39,5.22-19.61,7.47-9.65,3.5-19.31,7-29,10.25h0l-1,.33-1.36.47-.1,0c-15.85,5.27-41.06,13.17-54.92,17.94-6.16,2.12-12,5-18.32,6.69-2.38.62-6.06-.64-8.29-2.26-9.38-6.82-18.47-14.06-27.6-21.23-5.19-4.09-10.26-8.34-16.25-13.21,17.48-12.27,48.55-34.78,56.52-42.28,2.19-2,26.73-26.71,30.17-30.85,0,0,26.73,20.7,44.7,34.51Zm-31-86.41c-3.32.06-4.18,1.42-4.25,1.94-.69,5.21-5.14,3.58-9.15,3.12-2.39-.27-4.78-.69-6.83-1.11-6-1.25-9.38-.09-10.83,5.94-1.71,7.12-4,13.39-.79,22-5.42-3.79-15-10.36-19-15.29s-3.92-7.88-7-15.29c6.49,1.45,11.6,2.35,16.59,3.79,4.35,1.25,5.55-.59,4.31-4.18-1.89-5.43-4.25-10.75-6.64-16-1.59-3.48-2.77-8.24-5.55-9.9-6.77-4.06-14.37-6.66-22.37-10.16-2.26-5.41-4.81-11.51-7.44-17.78a2.46,2.46,0,0,1,3.55-3.11c3.06,1.74,6.61,3.89,9,5.44l71.53,48.42a1.16,1.16,0,0,1-.53,2.16C764.94,909.8,764.64,909.75,762.26,909.8Zm-70.65-61.55a3.87,3.87,0,0,1-1.81-3.7c.46-2.44,2.83.76,23.84,13.73,9.4,5.81,18.47,12.21,27.77,18.22,14,9,28.06,17.87,42,27,4.21,2.77,4,4.92,3.1,6.45-.63,1.16-1.52,1.72-2.39,1.23C753.24,890.25,722,868.79,691.61,848.25ZM644.68,686.76c-2.87,4-8.53,22-8.27,21.79s-4.52-4.33-8.18-7.58c-2.71-11.63-5-23.37-7.68-35-.23-1,.58-2.55,1.36-3.42,8.18-9.18,16.37-18.34,24.8-27.28,3.75,6.56,11.6,20.13,13.62,22.4.61.69,3.49,3.18,7.55,6.58C661.93,669.71,647,683.56,644.68,686.76Zm-4.5-91.7,20.15,12.64-12.5,12.93Zm1.55,33.56a.61.61,0,0,1,.62,1c-7.6,9.21-18.94,8-31.27,10.08-1-2.6,2.3-3.94,3.31-4.21C623.45,633,632.61,630.87,641.73,628.62Zm-6.38-7.76c-10.54,2.85-21.18,5.38-31.8,8-.37-.86-.74-1.73-1.1-2.59-.5-1.46,3.06-2.83,4.89-3.33,9.15-2.47,18.41-4.62,29.07-7.24C636,618,636.06,620.67,635.35,620.86Zm-3.47-12.77-37.1,9.11-1-2c-.55-1.42,2.8-2.5,4.46-2.94,9.36-2.48,18.75-4.85,28.23-6.88,1.75-.38,4.32.78,6,1.45C633.45,607.22,633.67,607.65,631.88,608.09Zm-5.67-11.64-39.9,9.8L585,604.17c-.57-1.39,2.71-3.47,4.44-3.87,10.36-2.4,20.83-4.42,31.3-6.38C624.29,593.25,628.58,595.73,626.21,596.45Zm-49.73-2.52c6-7.71,29.86-12.5,35.83-7.07C600.21,589,589.52,594,576.48,593.93ZM568,583.13c1.28-6.69,23.62-12.17,29.16-7.16Zm-9.28-12c3.16-6.17,20.23-9.51,25.85-5.07Zm-8.87-11.08c1.29-8.29,13.08-10.46,20.08-4.93ZM656.5,782.47c-7.19-19.41-15.93-38.39-22-58.06-1.2-3.84-2.29-7.71-3.31-11.6,13.54,15.22,47.65,53.76,49.52,58.1s-3.69,42.58-5.54,60.25a.79.79,0,0,1-1.53.17C670.43,822.07,661.58,796.2,656.5,782.47Zm11,105.22c2.34-5.75,10.87-28.84,11.19-28.76.27,3.43,8.66,22.63,10.72,28.26,2.88,7.86,6.94,18.76,12.13,32.38-9.38,9.4-22,21.22-31.43,30.64-5.33-5.48-13.49-14.09-19.15-19.91C655.61,918.5,662.67,900.08,667.53,887.69Zm-63,80.23c11.81-8.57,23.82-16.89,35.43-25.71,3.36-2.56,5.08-2.25,7.84,1,4,4.71,8.54,9,13.76,14.34-6.51,4.85-12.32,9.34-18.31,13.61-10.61,7.56-21.43,14.86-31.94,22.55-2.6,1.9-4.15,1.91-6.66-.32C599.73,989,594.48,985,588.42,980,593.92,975.86,599.18,971.82,604.55,967.92ZM589.1,989c5.08,4.34,10.18,8.63,15,12.68-3.53,5.51-6.5,6-11.77,1.3-6.84-6-10.11-8.42-15.23-12.58C581.73,983.4,582.47,983.33,589.1,989Zm-19,4.83c6.13,5,11.48,9.53,17.06,13.78,2.75,2.1,2.25,3.6.11,5.18s-33.79,24.82-40.12,29.93q-8.89-6.48-17.77-13a36,36,0,0,1-3.47-3.29ZM566.43,1136a125.68,125.68,0,0,1,35.4,26.42,24.64,24.64,0,0,1,4.71,6.43c1.94,4.24,0,6.66-3.68,9-6.72,4.33-10.42,7.77-16.82,12.58-1,.77-4.35,4.9-5.53,4.82-8.37-.56-10.49-.85-13.19,7.29-5.83-3.85-11.71-7.46-17.25-11.56-1.67-1.23-2.2-4-3.6-5.72a21.81,21.81,0,0,0-5.12-5c-7-4.43-11.8-9.76-9.44-19.06C546.93,1158.65,558.65,1150.37,566.43,1136ZM410,1028.18c9.31,6.1,18.74,12,28.63,18.25l-6.91,5.13-29-21.27C400.45,1028.75,406,1025.59,410,1028.18Zm-12.18,8.71c10.86,6.6,14.32,10.2,24.57,17.21a2.19,2.19,0,0,1-2.16,3.81c-10-7.31-16.26-11.24-26.3-18.55C390.58,1037.11,393.88,1034.26,397.77,1036.89Zm-20.2,34.45c-4.26-4.66-7.84-13.94-4.18-19.69l29.3,21.68c-2.18,5.58-5,7.56-11.27,4.52C386.18,1075.29,382.08,1076.27,377.57,1071.34Zm27.64,60.16s-.62,16.38-.7,18.33c-3.31-3-6.83-6.21-10.33-9.31-10.7-9.46-8.85-11.72-6.06-36.32h0c0-.76,0-1.51.1-2.24C406.31,1116.58,406.18,1112.13,405.21,1131.5Zm2.75-65.71c-8.83-6.85-18.73-14.12-23.76-18-3.29-2.55-.51-5.78,2.81-4.17,9.91,7.31,13.67,10.28,24,17.88C414.89,1065.8,409.91,1067.29,408,1065.79Zm18.37,99c-15.44-9.25-15-9-14.23-34.86h0a60,60,0,0,1,.64-7.6c13.31,10.26,13.59,4.68,13.59,30.7C426.32,1155.3,426.34,1162,426.33,1164.75Zm60.52-24.49c-4.61,7-3.8,23.35-4.37,29.13l-12.38-8.94,0,0c-12.71-9.45-22.21-16.75-24.32-18.44-3.91-3.15-6.35-3.86-6.48,7.06-.07,5.61-.45,15.21.3,20.8.79,5.81,2.95,6.68,9.15,11.17,2,1.45,22.94,16.38,24.93,17.83,4.17,3,6.94,12.13-1.38,7-5-3.71-27.61-19.36-34.7-25-4.16-3.32-5.29-7.86-5.21-12.6.27-16.17.31-21.93,0-33.77-.07-2.39-1.83-5.3-3.63-7.16a67.39,67.39,0,0,0-8.52-7.82c-8.48-5.89-9.57-6.91-9.09-13.93a73,73,0,0,0,.25-8l10.3-10.65,34.48,25.16c5.88,4.27,20,14.38,27,19.42h0c4.42-3.54,14.69-10.8,19.19-14.23a198.61,198.61,0,0,1,16.6-12c4.29-2.73,8.63-.58,12.37,3.2-5.36.45-29,18-39.83,26.74A20.38,20.38,0,0,0,486.85,1140.26Zm-25.43,23.48c-.27,5.75-.27,12.88-.73,18.61-17.56-9.36-16.37-13-16.82-35.49,3.32,2.26,13.09,10.53,16.13,13A5.35,5.35,0,0,1,461.42,1163.74Zm30.16,54c1.08-21.23-1.79-42.71.55-64.68,3.69,2.68,5.94,4.52,8.31,6.12,13.4,9.1,21.61,1.54,21.61,5.81,0,7.49,5.34,17,11.53,20.42,3.73,2.07.52,10.31,1,17,1.19,16.06,5.29,25.41,7,32.07a108.62,108.62,0,0,0,5.09,14c2.13,5.14,4.7,10.6,6.17,13.62C547,1258,497,1221.57,491.58,1217.71Zm69,43c-9.16-13.26-22.16-59-17.83-65.54,8.4,5.84,15.51,11,23.55,16.58-.66,3.77-1.37,5.4-1.71,10.39-.55,8.16,7.88,33.06,10.33,41.27C575.54,1265.36,567.1,1258.29,560.62,1260.74Zm31.25,11.56c-4.11-1.94-7.13-3.33-8.58-7.14-3.78-9.94-7-24.71-10.13-34.86a24,24,0,0,1-.48-12.49c1-5.42,1.57-8.59,2.45-13.7a1,1,0,0,1,2,0C583.64,1226,596.81,1247.82,591.87,1272.3Zm20.48-93.25c1.42-1,4.62-1.84,6.67.17,2.22,2.19,4.72,4.8,4.72,11.18a17.49,17.49,0,0,0-11.82,3.1,141.22,141.22,0,0,0-16.86,13.4c-1.79,1.58-3.27,4.8-3.8,7.48a60.75,60.75,0,0,0-.93,9.3,20.86,20.86,0,0,1-1.51-3.53c-6.62-18-6.58-17.92,8.31-29C602.3,1187.32,607.22,1183.15,612.35,1179.05Zm15.16-77.54c-18.35-13.28-36.53-26.77-54.79-40.16q-9.93-7.29-19.89-14.53c10.71-7.55,41.08-30.54,45.58-33.69l82.86,69.53c-13.22,5.33-24.46,9.92-35.75,14.39-4.24,1.68-8.53,3.26-12.91,4.58C631.05,1102.1,628.68,1102.36,627.51,1101.51Zm27.58,20.17-16.18-15c12.41-4.86,24.66-9.63,36.88-14.48,3.05-1.21,5-.32,7.23,2.37,3.86,4.68,8.28,8.93,12.87,13.79Zm45.78-18.45L685,1086.53l14.11-4.94,15.59,16.2ZM787,1076.38l-63.25,21.79-14.5-17.84c6.2-2.43,12.48-4.94,18.8-7.36,5.89-2.26,11.62-5.27,17.78-6.35,5-.89,10.62.42,16,1.05,6.59.78,13.2,1.61,19.73,2.91a19.63,19.63,0,0,1,5.63,2.58A1.77,1.77,0,0,1,787,1076.38Zm87.87.47c-6.77-4.19-13.64-7.8-21.81-12.65-3.7-2.2-6.87-3.77-11.41-2.53-14.83,4.06-23.72,6.31-40,9.7-4.63,1.23-4.88,0-5.75-2.36-.57-1.87-1.8-5.49-16.89-8-3.92-.64-7.9-1.08-13.61-1.81,19.2-7.18,36.8-13.79,54.43-20.35,4.47-1.66,9-3.22,13.49-4.75,5.29-1.8,9-.66,20.51,7.53,8.42,7,11.09,8.67,12.12,14.46.68,3.79,2.86,7.88,4.81,11.64a70.64,70.64,0,0,0,4.44,7.06C876.1,1076.15,876.19,1077.69,874.83,1076.85ZM977,1124.26c-6.65-1.46-17.25-2.32-23.18-5.34-21.2-10.79-37.47-19-58.19-30.79-4.15-2.36-10.24-9.3-12.74-12.65a1.57,1.57,0,0,1,2-2.35l9.18,4.93a2.7,2.7,0,0,0,4-2.65c-.25-2.31-.5-5.2-.75-8.81a35.19,35.19,0,0,0-3.25-13.65c-1.83-3.6-3.36-6.18-6.62-8.59-3-2.21-4.13-3.19-12-6.93-6.67-3.15-9.44-6.41-10.6-12.92,6.44,2.9,12.07,5.77,17.79,8.18,9.31,3.92,16.49,7,23.6,14.2,12.67,12.82,11.29,32.69,11.73,44l59.35,31.88C980.65,1124.51,980.43,1125,977,1124.26Zm116.85,68.1a13.39,13.39,0,0,1-5.28-1.31c-16.61-8.73-34.45-17.71-51.06-26.46-18.87-9.95-54.89-29.21-57.27-30.64-1.34-.81-.93-2.49.59-2.23,2.42.4,4,.7,8.42,1.13h.05c5,.41,7.08-5.88,3.07-9a18.78,18.78,0,0,0-1.77-1.27c-13.54-7.36-19.57-10.13-33.16-17.39-5.56-3-19.51-10.09-32.7-17.07a.8.8,0,0,1-.49-.78h0c.06-2.2-.06-12.58,0-14.54,86,39.82,96.55,43.6,104.87,58.11.5.5,6.12,11.49,7.41,13.95,4.27,8.12,8.3,15.31,11,17,10.88,6.65,22.62,13.5,33.64,19.84a54.72,54.72,0,0,0,16.31,6.55c1.11.24,4-3.49,4.14-5.62.41-7.35-.31-14.83,0-22.21.13-3.39,1.58-6.65,2.44-10,17.86,11.79,12.92,28.12,13.16,43.12C1109,1193.12,1102.1,1192.86,1093.89,1192.36Zm-14.09-17.86c-1.46-.7-23.28-14.58-27.65-17.15-3.29-1.77-4-5.51-.93-4.51,7.25,2,7.49,1.33,7.26-3.53-.35-7.56-.27-14.87-7.68-20-3.48-2.4-6.66-9.9-6.37-11.45.45-2.3,1.55-2.94,4.48-1.16,5.93,3.61,37.76,21.52,41.53,23.43C1075.14,1153.7,1080.07,1150.3,1079.8,1174.5Zm55.57,37.7c-7.94-3.61-21.51-9.56-29-13,8.22.15,8.82.27,13.32.12,3.72-.13,4-.69,4.57-14.53,4.26,3.45,6,3.54,9.72,5.71,1,.58-3.32,10.45-2.36,11.78,2.79,3.93,3.82,5,7.14,9C1140,1212.91,1139.9,1213.89,1135.37,1212.2Zm14.69-60.52c-2.79,6.3-5.22,12.79-7.92,19.51a114.58,114.58,0,0,0-4.46,10.61c-.41,1.25-3.16.08-7.46-1.69-7.24-3.06-6.34-5.86-6.34-9.78s-.8-9.6-3.93-13.63a61.78,61.78,0,0,0-10-11.11c-2.56-2.36-3.91-4.52-21.3-13.34-7.79-4.23-17.19-9.3-26.56-14.45-3.13-1.72-6.16-3.66-9.26-5.46-9.91-5.74-13.08-4.24-13.88,5.79-7.38-3.34-15-6.75-22.54-10.2-9.93-4.51-19.84-9-31.07-14.17,6.89-4.2,12.31-8,18.14-11,7-3.62,8.24-7.57-5.87-15.31-23.06-12.65-44.19-23.43-67-36.22-16.75-9.39-33.79-18.25-50.75-27.27-2.18-1.16-59.9-34.07-74.32-43-3-1.89-6.12-3.75-9.26-5.47-5-2.76-11.45-4.9-19-17.9-3-5-7-13.31-10.74-20.62,7.37,1.12,13.79,2.2,20.24,3a4.27,4.27,0,0,0,3.43-1.54,13.58,13.58,0,0,0,1.19-3.28c3.15-13.13,3.2-13.23-12.93-23.59-11-7.1-22.29-13.84-33.4-20.82L740.64,868c4.29-8.19,13-27.8,14-29.66C756,836,731,762.55,727.33,759.44c-3.4-2.88,9.83-27.65,12.83-33.79,22.66,19,45.6,37.54,68.47,56.23,9.28,7.59,18.68,15,28.49,22.89l.8.51-1.53,1.57a4,4,0,0,0,1.21,6.46c11.73,5.41,39.43,18.18,40,18.36a83.23,83.23,0,0,0,8.45-5.29,4.21,4.21,0,0,0,1.33,4.65c6.64,5.54,20.66,16.92,44,36.41,2.34,2,7.57,4.72,9.43,4,4-1.58,7.89-4.29,14.67-10.87,4.19-4.9,2.13-7.9-6.94-17-2.35-2-5-3.76-7.22-5.9C936.64,833.21,914,810,909.68,809c2.33-2.09,3.71-3.7,3.43-4.39-1-2.55-16.34-29.28-23.58-41.71a5.76,5.76,0,0,0-9-1.24L877.1,765c-9.84-6.59-21.5-14.93-28.93-20.38-20.64-15.13-34.75-25-55.37-40.17-23-16.89-46.21-33.4-69.34-50-6-4.3-6.89-4.15-10.33,1.94-4,7.16-7.66,14.59-12,21.51a21.52,21.52,0,0,0-1.36,2.5l-31.07-28.92-15.33-24c5.11-6.12,12.2-14.58,17.74-20.88,0,0-24.7-15.34-33.29-20.59-5.08-3.11-6.11-2.46-6.53,4.09L529.91,515.12a1.65,1.65,0,0,1,1.08-3c8.19,1,12,.13,13.59-1.31a4.35,4.35,0,0,1,5.17-.22c68.34,42,135.45,85.23,199.6,134.13-5.82,9.48.41,13.77,7.71,18.26,1.39.86,3.6,2.29,4.91,3.3,6.91,5.3,7.86,1.78,11.46-4.28,4.31-7.05,6.88-8.28,8.52-9.45,6.81,5.25,13.5,10.69,20.52,15.62a25.61,25.61,0,0,0-3.58,2.86c-2.22,2.22-2.45,19.56-2.45,20.89s29.78,23.78,29.78,23.78,67,29.11,68.56,29.11,55.91-38.18,57-40.18c.87-1.58-47.59-46.75-67.33-67.84a.65.65,0,0,1,.86-1c12.34,9.1,25.79,19.27,30.28,22.66,13.11,9.91,26.46,19.48,39.57,29.36,5.19,3.91,9.89,8.52,15.15,12.3a9.07,9.07,0,0,0-2.11,1.81c-1.18,2.49,38.89,25.07,42.9,25.74,1.08.17,3.55-.87,6.62-2.55,0,.25.06.52.11.81.51,2.62,15.58,17.34,16.22,18,9,8.78,28.16,25.51,31,27.5,1.06.74,5.15-.21,9.43-2.15.9-.41,3.81-2.27,8.43-5.36a4,4,0,0,0,.49-6.08c-11.2-11.9-36.34-38.34-40.17-42.37-2.15-2.25-4.07-3.63-6.22-3.66a13.42,13.42,0,0,0,3.18-3.44c1.24-2.91-5-26.2-7.69-36.05,16.74,9.52,33.47,19.05,50.09,28.8.85.5,4-.38,6.93-1.11a1.17,1.17,0,0,0,.34-2.09c-6.65-5-18.58-13.74-27.28-20.48-8.08-6.25-17-11.41-25.26-17.4-2.14-1.54-3-5-5.13-6.5-3.53-2.51-7.63-4.18-11.48-6.21l0-.52c6-2.07-1-5.67-3.27-7-22-12.65-44.15-25-66.33-37.37a3.77,3.77,0,0,0-1.51-.42,3,3,0,0,0-3.28,3.33,6.33,6.33,0,0,0,.52,2.23c.85,1.77,2.69,3.11,4.25,4.82-3.28,3.47-4.43,6.1,1.26,9.73,12.28,7.83,24,16.58,35.94,25,8.87,6.23,17.59,12.7,26.69,18.55,3.25,2.09,7.4,2.7,11.15,4h0l-10.49,3.59a73.61,73.61,0,0,0-7.11-5.37c-14.16-9.05-28.16-18.37-42.1-27.79-8.46-5.7-16.65-11.8-25-17.59-3.21-2.22-6.68-4-10-6.06L906.16,601c7.76-1,30-4,33.62-3.88,4.44.1,3.34-1.44,15.67,4.89s67.88,36.3,69.66,36.42c1.26.09,13.13-.79,21.1-1.54,22.46,23.09,45.2,43.71,71.12,47.92,3.41.55,6.06,1,9.57,1.85,16.72,3.87,24.34,12.1,34.51,21.31.75.68,1.37,1.25,1.91,1.78h0v0a13.61,13.61,0,0,1,1.93,2.18c8.25,9.17,33.33,34.58,38.3,41.85,5.32,7.8,10.62,15.63,16.66,24.54a.72.72,0,0,1-.92,1c-3.56-1.85-10.09-5.22-13.77-7.15-14.08-7.4-26.17-9-38.88-11.22-6.15-1-13.15-12.93-17.43-20.57a4,4,0,0,0-3-2c-1.7-.18-3.38-.48-5.14-.74-7.21-1.09-25.24-4.12-29.61-2.88-1.66.76-16.44,18.35-20.25,23a1.86,1.86,0,0,0,0,2.3c3.47,4.61,5,6.79,8.82,11.47a171.39,171.39,0,0,0,13.26,14.85c1.86,1.77,4.43,1.58,9.78-.64,3.64-1.43,30.93-13.25,34.8-15,3.73,7.08,24,49.26,29.69,61.54l-64.16,25.37c-7.05-6.25-14.19-12.42-21.15-18.77a3.25,3.25,0,0,0-.36-.47c-4.8-5.22-52.91-47.48-57.57-52.17,1.21-1.17,5.55-4,7.73-4.5,6-4.05,3.75-7.33.33-10.4q-20.06-18-40-36.23c-3.45-3.14-5.87-2.67-7.18,1.45a60.56,60.56,0,0,0-2.86,11.53,9.54,9.54,0,0,0,2.09,6.27c2.65,3.28,5.93,6.07,9.22,9.33L959,805.09a52,52,0,0,1-4.52-3.18,22.32,22.32,0,0,0-21.7-5c-4.61,1.25-6.35,1.39-9.38,2.45a15.42,15.42,0,0,0-2.59,1.25,4.07,4.07,0,0,0-1.27,5.6,14.45,14.45,0,0,0,2.17,3c11,11,21.78,22.18,33.14,32.76,9.91,9.24,14.17,5.84,15.22,4.42,2.12-2.87,4.21-5.83,6.43-8.67,10,10.51,35.44,36.39,42.35,44,2.52,2.79,3.61,6.86,6.09,9.71,6.26,7.21,12.66,14.36,19.56,20.94,3.12,3,3.38,4.15.62,7.17-15.79,17.28-31.31,34.81-46.91,52.27-2.34,2.62-4.62,5.29-6.7,7.66l-43.32-15c-31.49-11.15-33-10-28.16-16.4,4-4.41,26.28-28.84,30.26-33.31,3.72-5.81,5.16-7-4.58-18-13.87-15.67-26.41-30.36-42.27-43-7.13-5.67-14.08-11.59-21.13-17.38a3.4,3.4,0,0,0-1.62-.94c-.64,0-1.27-.07-1.91-.09a2.66,2.66,0,0,0-1.59,4.79l0,0c12.52,10.56,20.32,17.31,25,21.25,2.2,1.85,15,15,16.43,16.16a39.74,39.74,0,0,0-4.77,2.72c-7.56,5.19-15.08,10.43-22.47,15.85-1.53,1.12-3.24,2.91-3.5,4.67-1.88,12.83-3.57,25.7-4.94,38.61-.38,3.54,0,7.21,5.24,8.34,3.92.84,7.74,2.85,11.35,4.83a6.59,6.59,0,0,1,3,4.28c1.34,9.67,2.22,19.37,3.5,29,1.09,8.26,2.55,16.49,3.79,24.74.81,5.33,4.74,8.26,9.64,10.93,14.92,8.11,19.84,10.85,32.39,16.71,7.76,3.64,15.54,4.92,24.12,5.82a85.08,85.08,0,0,1,34.73,11.19,221.27,221.27,0,0,1,47.86,37,3.22,3.22,0,0,0,.92.66,3.08,3.08,0,0,0,4.22-4,3,3,0,0,0-.54-.78c-6.31-6.59-12.87-13-19-20.07a.8.8,0,0,1,1-1.21q10.88,6.61,21.73,13.27c4.79,2.94,8.89,3.84,13.54-.33,6.36-5.7,12.39-11.61,19.46-16.94,5.92,5,13.16,11.35,19.88,17.08-6.16,5.58-11.85,10.63-17.39,15.84-1.11,1-2.49,2.8-2.25,4s2.32,2.26,3.61,3.35c3.28,2.79,5.42,4.41,9.8,8.4,8.35,7.63,15.11,16.86,22.94,25a88.62,88.62,0,0,0,11.74,9.83C1150.46,1148,1151.18,1149.13,1150.06,1151.68Zm4.28-388c-12.57,5.89-24,9.93-36.24,15.45-1.14.51-2.66.34-5.09-2.16-3.72-3.82-4.25-3.95-7.91-9.33.51-4.27,11.83-11.84,19.16-14.78,10.49-4.22,15.88-3.37,22.66-2.15Zm-121.65,28c3.68-2.9,6.25-2,9.22,1,3.64,3.67,30.46,27.66,45.58,41.12l-.56.4c-8.66,6.66-17.5,13.09-26.22,19.67-11.2,8.45-22.35,17-34.18,25.94l-23.74-24c-.74-.75-16.54-17.46-22.14-22.94a43.77,43.77,0,0,1,4.42-4.2C1000.58,815.84,1016.91,804.09,1032.69,791.66Zm-21.54-48.92c5.82,5.13,12.41,11.87,18.47,17.2a1.75,1.75,0,0,1-1.53,3.07C1017.14,760.08,1006.7,750.35,1011.15,742.74Zm20.31,142.44,28.45-21.28c14.17,14.88,54,56.26,67.52,70.17,8.08,8.3,16.14,16.61,24.28,25-8.9,6.89-17.76,13.3-26,20.36-3.92,3.34-6.29,3-9.84-.85-18.63-20.08-37.47-40-56.2-60-.81-.87-9.94-11.13-15.7-17.65C1037.13,893.26,1030.14,885.74,1031.46,885.18Zm110.72,55.12c-15.7-16.28-31.29-32.66-47-49-1.28-1.33-24-25.33-30.15-31.26,7-5.16,13.93-10.3,20.71-15.68,3.35-2.65,5.24-3.25,9.45.13,18.88,15.12,24.55,20,40.35,36.06l52.77,52.15L1157,954.9C1152.12,950.09,1147,945.32,1142.18,940.3ZM955.44,825.21a3.06,3.06,0,0,1-5.32,2l-22-21.5c10-5.65,17.29-4.67,25,3.8,1.54,1.69,2,4.79,2.12,7.25C955.45,819.49,955.46,822.23,955.44,825.21Zm5.7,205.09c8.46-17.85,22.26-30.57,34.25-44.62,37.56,17.68,68,45.17,98.38,71.9-6.58,5.86-12.51,11.44-18.83,16.54-1.27,1-4.49,1-6.06.07-8.31-4.87-13.37-8.85-21.6-13.85-1.62-1-4.25-1.91-5.49-1.26a12.66,12.66,0,0,0-4.6,4.57c-21.29-16.77-45.12-27-72.42-27.74A4,4,0,0,1,961.14,1030.3Zm-7.24.61c-11.33-6.34-21.91-12.11-32.31-18.21a8.63,8.63,0,0,1-3.69-5.25c-2.5-15.62-4.67-31.27-7.08-47.84,24.9,8.21,50.31,16.64,75.27,24.87C974.16,999.09,959.26,1011.79,953.9,1030.91Zm-45.69-83.35c-3.69-1.62-7.43-4.48-10.78-5.95-4.17-2.3,2.52-15.67,8.32-24.08,10-14.55,19.58-24.78,24.42-21.8,4,2.91,7.55,5.69,11.29,8.27,3.15,2.18,3.21,4.17.77,6.72-10.68,11.16-8.83,9.13-19.39,20.4C921.54,932.51,913.05,941.94,908.21,947.56Zm264,151.34a156.83,156.83,0,0,1-19.36-7.28c-14.27-6.41-24.45-15.66-35.81-24.62-24.09-19-47.43-39-71.71-57.72-13.84-10.67-28.93-19.64-43.77-29.59l51.13-58.53c12.51,13.52,24.9,26.94,37.32,40.33,7.48,8.08,14.85,16.26,22.54,24.14,4.84,5,8.48,7.28,14.92,1.32,11.27-10.41,11.54-10.12,20.55,3.07,1.39,2,2.47,4.43,4.25,6a3.91,3.91,0,0,0,2.25.72,2.56,2.56,0,0,0,2.78-2.6,3.69,3.69,0,0,0-.43-2c-3.78-5.89-7.89-11.58-12.49-18.22,5.93-4.63,25.88-21.47,29.57-21.31s7.65,5,11.45,7.9c2,1.5,3.75,3.42,5.89,4.56a3.65,3.65,0,0,0,.53.25,2.88,2.88,0,0,0,3.8-3.9,3.17,3.17,0,0,0-.69-1c-3.27-3.16-7.13-5.69-10.69-8.55-1.59-1.27-3-2.71-4.89-4.37l13.55-9.73c3.08-2.21,4.55-5.45,1.37-8.84-7.37-7.84-14.86-15.2-22.44-22.83-13.86-14-28-27.63-42.88-42.23l57.84-23.94c20.5,28.15,40.69,55.23,60.15,82.81,11.88,16.84,23.72,33.89,33.5,51.89,6,11.11,8.45,24.12,12,36.4,1.65,5.8,3.25,13.55,3.25,18.49-8-3.5-11.05-4.5-17.75-7.48-3-1.34-8.26-3.83-11.37-4.8s-6.34-2-10.76.4c-3.52,1.93-4.27.4-5.67-.65-20.61-15.44-41-31.14-61.64-46.58-1.54-1.15-4.72-1.85-6.13-1.07a145.36,145.36,0,0,0-16.45,10.77c-4.8,3.63-4.1,8-.64,13.17,12.91,19.16,23.64,35.7,36.34,55,.89,1.35,2.41,3.71,3.8,6-5.37,3.67-6.26,7.08-6.33,13.37-.16,13.79-.13,26.41-.16,38.62C1190.11,1103.94,1179.75,1101.34,1172.22,1098.9ZM1319,1046.46c-8.54.77-8.25-5.66-9.74-9.36s-2.26-7.81-7.15-3.65a174.83,174.83,0,0,0-5-31.75,108,108,0,0,0-8-25.61c-5.47-9.54-12-20.54-17.65-30.48a1.07,1.07,0,0,1,1.67-1.33c5.46,4.8,12,12.45,17.49,17.87-.29,2.26-.61,5.41-.9,8.26C1298.08,992,1302.79,1004.17,1319,1046.46Zm-27,115.62a1.42,1.42,0,0,1-2.14,1.52l-3.76-2.1c-7.44-4.19-14.88-8.35-22.31-12.55-.47-5.27-1.17-14.29-1.17-15.2,0-.66-8.74-10.82-16.94-20.21,2.54-3.13,5-6.42,7.61-9.84,6.86,6,13.67,11.86,20.36,17.84,6.21,5.54,12.33,11.19,18.47,16.81a4.32,4.32,0,0,1,1.44,3.74C1292.8,1148.14,1290.62,1155.52,1292.05,1162.08Zm-85.8-93.7a9.21,9.21,0,0,1,2.85-6.38c16.08-12.69,32.28-25.24,48.77-37.4,1.89-1.4,6-1.11,8.62-.08,10.31,4.1,20.43,8.77,30.58,13.34,1,.44,1.64,1.69,2.55,2.66-13.09,3.78-21.63,13.61-31.84,21-13.29,9.59-26.56,19.27-39.27,29.58-7,5.64-16.82,18.63-16.83,18.64-2.24,2.06-5.35,1.25-5.3-2.55,0-.13-.14-8.77-.11-13.52C1206.33,1085.22,1206,1076.77,1206.25,1068.38Zm19.88-30.44-15.86,11.82c-12.87-19.16-26.29-39.1-39.17-58.25a6.23,6.23,0,0,1,1.19-8.5l1-.75C1191.08,1001,1208.57,1019.44,1226.13,1037.94Zm-47.24-59.31c4.1-3.58,7-2.22,11.21,1.14,14.47,11.52,29.53,22.27,44.23,33.49,3.74,2.85,7,6.35,11,10l-14.06,10.87Zm54.17,120.5c1.65-2.32,4.21-4.52,7.54-7.23l7.41,6.91c-2,3.35-4.83,6.06-7.32,9Zm4.2,13.49a15.85,15.85,0,0,0-1.87,6,.32.32,0,0,1-.62.05c-1.56-4.46-3.88-9.05-3.84-13.22Zm5.19,5.94c7.14,8.2,14.44,16.7,14.44,17.11s-.06,5.49-.29,9.16c-2.36-1.35-4.72-2.7-7.08-4.07-5-2.91-7.35-7.61-8.26-14.91A20.52,20.52,0,0,1,1242.45,1118.56Zm10.66-24-7.08-6.39c12.63-9.69,24.51-19.56,37.33-28.07,3-2,11.54-1.26,13.59,1.3,1.38,1.73,2.75,3.48,4.11,5.23C1292.78,1070.25,1262.87,1087.18,1253.11,1094.59Zm-27.68,103.5c-.55-.14-5-.2-5.55-.33.26.07-35.52-3.55-39.86-4.66.06-.31,3.75-47.91,4.66-58.12a1.07,1.07,0,0,1,1.75-.71c22.09,16.9,48.31,37.53,48.4,37.74C1236.19,1175.06,1227.9,1192.38,1225.43,1198.09Zm75.67,7c-17.69-1-63.79-4.17-67.19-4.44,3.72-9.38,5.55-12.24,11.26-28,.48-2.53-7.39-8-10.5-10.73-19.92-17.64-40.22-34.84-60.1-53,5.09,1.8,12.6,3.84,24.59,7a9.36,9.36,0,0,1,3.35,1.19c7,5.51,7.73,5.5,13.87-1.33,7.91,11,9.46,15.7,17.22,26.62,4,5.55,31.3,24.43,32.23,24.88,19.59,9.64,31.2,15.86,48,25.47.89.51,2.94,3.14,2.94,11.43C1316.73,1207.34,1311.94,1205.71,1301.1,1205.07Zm20.46-29.17c-1.6.85-4.31.43-6.29-.21a42.19,42.19,0,0,1-9.31-3.92c-5.46-3.14-6.39-8.18-7.28-12.84-.49-2.55-.23-7.69.8-12.09,4.94,7.16,17.74,23.27,22.43,28.87Zm27.08-43.93c4.32,6.57,6.9,9.62,9.26,15.35-8,9.55-20,19-31.36,25.77-4-6.23-14.94-20.19-22.2-29.3l37.35-21.84C1344.21,1125.42,1346.57,1128.82,1348.64,1132Zm-16.24-22.35c1.95,2.49,3.88,5,5.77,7.54-8,4.18-28.79,16.77-37.13,21.66-.42-.52-4.11-4.85-5.88-6.48-8.67-8-17.59-15.75-26.38-23.63l-10.92-9.84c6.28-3.84,39.8-24.35,46.2-28.29C1313.7,1083.26,1322.84,1096.4,1332.4,1109.62Zm-20.27-190c3,4.74,5.67,10.11,10.4,15.33a1.47,1.47,0,0,1-1.31,2.48c-10.46-1.82-14.94,2.13-19,5-8.59,6.14-12.66,9.09-13.39,9.57l-16.79-16.95c6.65-4.92,13.11-9.3,19.07-14.29,2.84-2.38,9.25-7.28,14.23-10.82C1307.89,913.59,1309.79,915.93,1312.13,919.63ZM1240,821c1.52.09,7.15,1.56,7.77,2.61,12.84,21.73,18.69,30.25,28.11,43.45,4.34,6.08,10.1,15.43,14,22,3.35,5.63,6.84,9.33,10.52,14.35-14.34,12.41-25.55,18.82-33.53,25.06-5.54-6.41-11.58-13.62-17.93-20.56-1.61-1.76-4.26-2.52-6.32-3.92-1.66-1.13-3.55-2.26-4.65-3.84-13.69-19.83-27.17-39.79-40.93-59.57-2.55-3.66-3-5.42,1.59-7.06,4.4-1.58,14.12-6.26,18.5-8C1227.55,821.4,1232.52,820.54,1240,821Zm-11.76-18.14c2.25,3.56,4.9,6.89,7.21,10.12-7.5,1.84-15.07,3.22-22.25,5.6s-13.73,5.65-21,8.73c-8.9-19.56-17.73-39-26.71-58.74,13.75,2.13,26.29,6.72,38.87,12C1215.4,785.27,1222.18,793.31,1228.22,802.85Zm24.86-106.09c-5.78,12-11.72,23.92-17.66,35.84-.13.25-1.13,2.38-1.89.64-2.73-9.1-5.79-18.09-7.91-27.24-.58-2.52,1.4-5.68,2.66-8.3,2.51-5.23,5.34-10.3,8.59-16.48,5.8,4.31,10.83,7.9,15.63,11.77C1253.25,693.59,1253.54,695.8,1253.08,696.76Zm2.67-9.63-17.43-12.85,3.8-8.2,18.76,14.29Zm9.68-11.17L1250,663c2.68-6.41,6.36-15.59,10.28-24.58l16.54,14C1273,660.48,1269.26,668.08,1265.43,676Zm43.5-43.21c.7-4.82,1.7-9.54,2.55-14.58,1.93,1.35,3.18,2.57,5.4,4.26,1.68,1.28,4.39,1.53,4-.52s-1.14-6.52-1.31-7.19c-1.69-7-2.32-6.72-20.9-19.76-3.3-2.45-6.35-4.65-9.27-6.85h0c-9.35-6.77-28.09-20.58-39.8-29.12-18.83-13.45-48.15-33.65-66.73-46.58-6.79-4.72-7.68-6.93-7.68-12.48v-9.88c15.48,11.37,28.79,21.13,43.1,31.66,5.64,4.14,32.79,23.55,41.67,30.58,4.33-14.25,6.88-17.09,13.84-22.08,9.52-6.82,19-13.71,28.88-20.88a29.92,29.92,0,0,1,4.27,2.49c-3,2.36-6.77,5.17-9.48,7.32-5.45,4.32-11,8.59-16.3,13-3,2.45-4.55,5.76-2.3,9.63,3.2,5.51,3.31,10.39-2.92,22.14h0l9.65,7c.9-3.06,1.8-6.07,2.28-8.22,2.36,1.87,5,3.49,7.44,5.17h0l0,0,.45.32c6.22,4.4,26.19,18.36,31.46,22.32.6.45-1.17,5.53-1.54,6.41-2.83,6.7.16,13.07,2,19.51.8,2.72,6.29,23.64,8.72,32.65.41,1.3.76,2.58,1.06,3.81v0h0a43.93,43.93,0,0,1,1,5.61C1331.3,651.61,1315.27,638.85,1308.93,632.75Zm40.48,27.61c-3.56-2.68-5.71-11-6.06-11.88-4.63-16.15-11.39-36.27-11.36-42.75,0-5.66.91-7.19,2.13-10L1359.24,613c-.51,3.12.3,8.1.51,10.29.14,1.52,6.36,29.19,8.21,34.62h0c.06.18.11.33.16.46h0c1.55,4.69,2.88,9.51,4.47,14.81C1354.66,664,1349.43,660.38,1349.41,660.36Zm35.19,12.21c-5.39-.9-6.21-1.81-8.35-6.69-3.2-7.28-4.63-17.7-7.12-25-5.68-21.84-3.14-30.14-2.14-35.59C1374.13,611.36,1386.67,658.82,1384.6,672.57Zm29.89-79.11c-7.6-2-9.85,1.25-24.35,10.47-3.3,2.09-5.9,3.66-7.57,6.88-1.47,2.84-.85,7.35.23,11.19.62,3.59-1.08,5.49-2.44.51-.28-.78-.6-1.56-.82-2.35-1.52-5.41-5.08-11.47-3.91-16,1-4,7.33-6.43,11.35-9.49,5.57-4.25,13.37-10,19.42-14.56a100.57,100.57,0,0,1,9.48,12.13C1416.25,592.73,1415.12,593.63,1414.49,593.46Z"/></g><g id="Thrusters"><path d="M378.15,713.27a5.31,5.31,0,1,0,5.85,5.28A5.58,5.58,0,0,0,378.15,713.27Zm401-302.44c-3.78,0-6.84,1.94-6.84,4.34s3.06,4.33,6.84,4.33,6.83-1.94,6.83-4.33S782.94,410.83,779.17,410.83Zm401.44,173.76c-3.53,0-6.39,1.88-6.39,4.2s2.86,4.19,6.39,4.19,6.39-1.88,6.39-4.19S1184.14,584.59,1180.61,584.59Zm81.58,308.06c-2.85,0-5.15,1.87-5.15,4.17s2.3,4.18,5.15,4.18,5.14-1.87,5.14-4.18S1265,892.65,1262.19,892.65ZM1236,956.39c-2.06,2.06-1.59,5.86,1,8.5s6.45,3.11,8.51,1.05,1.59-5.87-1-8.51S1238,954.33,1236,956.39Zm-101.34,73.52c-3.31,1.64-4.43,6.13-2.5,10s6.18,5.74,9.49,4.1,4.43-6.13,2.5-10S1137.93,1028.27,1134.62,1029.91Zm-72.7,13.76a4.59,4.59,0,1,0,4.6,4.59A4.59,4.59,0,0,0,1061.92,1043.67Zm-476.22-5c-3.87.92-6.37,4.36-5.58,7.67s4.57,5.26,8.44,4.34,6.37-4.36,5.58-7.68S589.57,1037.74,585.7,1038.67Z" fill="#007aff"/></g></g></svg>