<svg xmlns="http://www.w3.org/2000/svg" viewBox="0 0 1500 1500"><title>Type 9 Heavy</title><g id="Type_9_Heavy" data-name="Type 9 Heavy"><g id="Colour"><path d="M1317.78,775c-3.8-8-7.81-16.61-13.92-22.82-13.65-13.87-28.61-26.44-43.06-39.52-3.27-3-6.66-5.8-10-8.69-6.68-5.79-12.15-11.62-10.65-22,1.41-9.68-1.29-19-6.32-27.77-6.47-11.18-12.38-22.68-18.47-34.08q-19.77-37-39.46-74-23.36-43.76-46.7-87.49c-11.69-22-23.25-44-35-66-3.19-6-5.4-13.59-10.4-17.26-12.42-9.11-26.1-16.52-39.44-24.33-12.5-7.31-25.27-14.16-37.8-21.42-6.83-4-13.94-7.29-21.83-5q-31.34,9.18-62.38,19.34c-3,1-5.89,4.08-7.71,6.91-3,4.74-5.28,10-7.64,15.16-1.44,3.13-2.8,4-6.6,2.79-12.61-4.08-25.39-7.72-38.23-11-13.4-3.46-26.91-6.45-40.44-9.36a11.9,11.9,0,0,0-7,1.07c-9.1,4.28-18.22,8.58-26.95,13.55-2.26,1.29-4.29,4.95-4.44,7.63-.54,9.35-.25,18.76-.2,28.14,0,8.87-2,18.24,6.22,25.67a52.15,52.15,0,0,1-12.74-1.11c-8.61-2-17-5.61-25.71-6.36-12.46-1.09-20-7.26-25.64-17.75-1.85-3.46-5.59-6.18-9-8.49-5-3.41-10.52-6.1-15.77-9.17-16-9.34-32.13-18.4-47.78-28.25-5.59-3.52-10.39-4.09-15.46-.52-9.58,6.75-18,3.4-25.85-2.82-5-4-10.06-3.78-15.48-1.72-4.82,1.83-6.08,5.8-3.2,9.95.85,1.22,1.89,2.3,2.94,3.57-.91,1-1.43,2-2.11,2.13-12.1,2-24.21,4-36.36,5.63-2.2.3-4.59-1.35-6.93-1.51a27.27,27.27,0,0,0-8,.54c-8.82,2-17.58,4.29-26.38,6.41a3.3,3.3,0,0,1-1.94-.37c-8.75-3.88-17.36-8.17-26.28-11.62-7.95-3.07-15.86-7.69-25-4.07-2.58,1-5.26,1.8-7.88,2.71-9,3.13-18.16,6-27.07,9.52-3.74,1.46-5.67,4.17-1.91,8.2,2.27,2.43,3.75,5.59,6,9.09-5.81,0-10.53-.37-15.17.11s-9.39.88-13.32,2.88c-11.23,5.72-21.9,12.53-33.1,18.34-9.07,4.7-15.76,10.59-16.93,21.51-.7,6.54-4,11.69-11,13.46-2.21.55-4.88,2.86-6.35,2.19-9-4.12-18.19-2.88-27.1-.81A287.5,287.5,0,0,0,276.4,456c-3.22,1.16-6.56,4.76-7.82,8-3.77,9.79.18,18.2,6.37,25.89a13,13,0,0,1,2.68,5.67c1.95,11.43,2.86,23.11,5.82,34.24,1.35,5.07,0,8.68-2.49,11.33-5.2,5.44-10.94,10.84-17.51,14.24-2.33,1.2-7.53-4.36-11.74-5.14-2.63-.49-7.46,1.42-8.47,3.58-2.16,4.62-2.47,10.09-3.87,16.85-3.26,2-8.23,5.19-13.33,8.16-7.85,4.57-10.38,10.16-8.16,18.7.54,2.11,1.81,4.21,1.71,6.26-.14,3.1-.41,6.66-2,9.13-3.28,5.09-3.38,10.18-2.27,15.75,2.13,10.71,3.08,21.78,6.39,32.09,2.86,8.91,6.45,19.06,13,25C250.43,700,268.1,712.05,285,725c8.65,6.65,17.2,13.32,28.5,15.18,1.32.22,3.24,4.23,2.88,6.08-2.55,12.88-5.62,25.65-8.58,38.66-6.87-5.35-13.53-10.37-20-15.61-16.58-13.41-33.07-26.92-49.61-40.37-2.19-1.78-4.51-4.87-6.74-4.84-4.69.08-7.62-2-10.14-5.2-3.42-4.4-7-3.69-10.9-.83-12.86,9.51-25.87,18.84-38.48,28.66-2.17,1.69-4.18,5.71-3.75,8.21,1.68,9.65,4.38,19.11,6.71,28.64,5,20.6,10,41.19,15.21,62.31-4.3-1.55-8-2.79-11.58-4.22s-28.86-2.24-30.95-2.61c-7.84-1.41-18.15,5.58-15.91,13.64,1.57,5.67,2.23,11.62,4.2,17.13,1.47,4.14,3.61,8.59,6.75,11.51,18.31,17,36.93,33.75,55.6,50.41,9.54,8.51,18.89,17.38,29.23,24.85,22.87,16.54,46.27,32.34,69.53,48.34,19.64,13.51,39.41,26.84,59.08,40.32q60.86,41.7,121.66,83.45c11.16,7.64,22.54,14.94,33.71,22.54,21.5,14.63,42.83,29.49,64.41,44,10.13,6.8,21.81,7.83,33.59,6.87,10.72-.87,21.38-2.51,32.08-3.65,5.7-.61,11.47-.66,17.16-1.33,12.4-1.44,22.63-.47,33.53,9,13.63,11.86,29,23.57,48.88,24.62,2.7.14,5.45,1.57,8,2.85,6.36,3.28,12.59,6.82,18.89,10.23,8.78,4.75,16,8,25.43-1.67,13.91-14.2,31.89-24.42,43-41.5,4.16-6.37,9.6-7.59,16.17-7.61,8.29,0,16.74,1,24.86-.23,14.24-2.1,28.29-5.53,42.42-8.38,25.69-5.18,51.37-10.43,77.08-15.49,18-3.54,36.1-6.18,53.31-13.18,7-2.84,14.73-4,17.74-11.58a1.37,1.37,0,0,1,2.45-.15c1.27,2.22,3.5,2.44,7.13,1a12.63,12.63,0,0,1,8.45,0c4.52,2,7.74.78,11-2.1,8.72-7.83,17.63-15.48,26.06-23.61,3.47-3.35,6.12-3.71,9.92-.91,5.46,4,10.74,9.38,16.93,11,7.23,1.92,16.21,2.58,22.85-.1,7.36-3,13-10.27,19.28-15.84,6.63-5.9,12.73-12.45,19.74-17.84,4.86-3.74,7.76-8,7.2-13.82-1.37-14.47-.78-29.5-11.38-42,10.46-6.45,10.72-14.64,5.39-24.1-.56-1,.58-3.93,1.77-4.75,9.6-6.61,15.62-17.81,27.51-21.5a3.81,3.81,0,0,0,2-2.5c2.84-13.23,5.87-26.42,8.2-39.74,2.49-14.24,4.5-28.58,6.33-42.92,1.36-10.7,2.72-21.47,3-32.23.24-10.38-1-20.78-1.46-31.17a3.91,3.91,0,0,1,.8-2.8c4.66-4.2,9.48-8.21,14.18-12.36,6.31-5.56,12.89-10.85,18.74-16.85,7.4-7.59,14.46-15.55,21.07-23.84C1317.05,782.45,1318.93,777.46,1317.78,775Z" fill="#353a4a"/><path d="M1317.78,775c-3.8-8-7.81-16.61-13.92-22.82-13.65-13.87-28.61-26.44-43.06-39.52-3.27-3-6.66-5.8-10-8.69-6.68-5.79-12.15-11.62-10.65-22,1.41-9.68-1.29-19-6.32-27.77-6.47-11.18-12.38-22.68-18.47-34.08q-19.77-37-39.46-74-23.36-43.76-46.7-87.49c-11.69-22-23.25-44-35-66-3.19-6-5.4-13.59-10.4-17.26-12.42-9.11-26.1-16.52-39.44-24.33-12.5-7.31-25.27-14.16-37.8-21.42-6.83-4-13.94-7.29-21.83-5q-31.34,9.18-62.38,19.34c-3,1-5.89,4.08-7.71,6.91-3,4.74-5.28,10-7.64,15.16-1.44,3.13-2.8,4-6.6,2.79-12.61-4.08-25.39-7.72-38.23-11-13.4-3.46-26.91-6.45-40.44-9.36a11.9,11.9,0,0,0-7,1.07c-9.1,4.28-18.22,8.58-26.95,13.55-2.26,1.29-4.29,4.95-4.44,7.63-.54,9.35-.25,18.76-.2,28.14,0,8.87-2,18.24,6.22,25.67a52.15,52.15,0,0,1-12.74-1.11c-8.61-2-17-5.61-25.71-6.36-12.46-1.09-20-7.26-25.64-17.75-1.85-3.46-5.59-6.18-9-8.49-5-3.41-10.52-6.1-15.77-9.17-16-9.34-32.13-18.4-47.78-28.25-5.59-3.52-10.39-4.09-15.46-.52-9.58,6.75-18,3.4-25.85-2.82-5-4-10.06-3.78-15.48-1.72-4.82,1.83-6.08,5.8-3.2,9.95.85,1.22,1.89,2.3,2.94,3.57-.91,1-1.43,2-2.11,2.13-12.1,2-24.21,4-36.36,5.63-2.2.3-4.59-1.35-6.93-1.51a27.27,27.27,0,0,0-8,.54c-8.82,2-17.58,4.29-26.38,6.41a3.3,3.3,0,0,1-1.94-.37c-8.75-3.88-17.36-8.17-26.28-11.62-7.95-3.07-15.86-7.69-25-4.07-2.58,1-5.26,1.8-7.88,2.71-9,3.13-18.16,6-27.07,9.52-3.74,1.46-5.67,4.17-1.91,8.2,2.27,2.43,3.75,5.59,6,9.09-5.81,0-10.53-.37-15.17.11s-9.39.88-13.32,2.88c-11.23,5.72-21.9,12.53-33.1,18.34-9.07,4.7-15.76,10.59-16.93,21.51-.7,6.54-4,11.69-11,13.46-2.21.55-4.88,2.86-6.35,2.19-9-4.12-18.19-2.88-27.1-.81A287.5,287.5,0,0,0,276.4,456c-3.22,1.16-6.56,4.76-7.82,8-3.77,9.79.18,18.2,6.37,25.89a13,13,0,0,1,2.68,5.67c1.95,11.43,2.86,23.11,5.82,34.24,1.35,5.07,0,8.68-2.49,11.33-5.2,5.44-10.94,10.84-17.51,14.24-2.33,1.2-7.53-4.36-11.74-5.14-2.63-.49-7.46,1.42-8.47,3.58-2.16,4.62-2.47,10.09-3.87,16.85-3.26,2-8.23,5.19-13.33,8.16-7.85,4.57-10.38,10.16-8.16,18.7.54,2.11,1.81,4.21,1.71,6.26-.14,3.1-.41,6.66-2,9.13-3.28,5.09-3.38,10.18-2.27,15.75,2.13,10.71,3.08,21.78,6.39,32.09,2.86,8.91,6.45,19.06,13,25C250.43,700,268.1,712.05,285,725c8.65,6.65,17.2,13.32,28.5,15.18,1.32.22,3.24,4.23,2.88,6.08-2.55,12.88-5.62,25.65-8.58,38.66-6.87-5.35-13.53-10.37-20-15.61-16.58-13.41-33.07-26.92-49.61-40.37-2.19-1.78-4.51-4.87-6.74-4.84-4.69.08-7.62-2-10.14-5.2-3.42-4.4-7-3.69-10.9-.83-12.86,9.51-25.87,18.84-38.48,28.66-2.17,1.69-4.18,5.71-3.75,8.21,1.68,9.65,4.38,19.11,6.71,28.64,5,20.6,10,41.19,15.21,62.31-4.3-1.55-8-2.79-11.58-4.22s-28.86-2.24-30.95-2.61c-7.84-1.41-18.15,5.58-15.91,13.64,1.57,5.67,2.23,11.62,4.2,17.13,1.47,4.14,3.61,8.59,6.75,11.51,18.31,17,36.93,33.75,55.6,50.41,9.54,8.51,18.89,17.38,29.23,24.85,22.87,16.54,46.27,32.34,69.53,48.34,19.64,13.51,39.41,26.84,59.08,40.32q60.86,41.7,121.66,83.45c11.16,7.64,22.54,14.94,33.71,22.54,21.5,14.63,42.83,29.49,64.41,44,10.13,6.8,21.81,7.83,33.59,6.87,10.72-.87,21.38-2.51,32.08-3.65,5.7-.61,11.47-.66,17.16-1.33,12.4-1.44,22.63-.47,33.53,9,13.63,11.86,29,23.57,48.88,24.62,2.7.14,5.45,1.57,8,2.85,6.36,3.28,12.59,6.82,18.89,10.23,8.78,4.75,16,8,25.43-1.67,13.91-14.2,31.89-24.42,43-41.5,4.16-6.37,9.6-7.59,16.17-7.61,8.29,0,16.74,1,24.86-.23,14.24-2.1,28.29-5.53,42.42-8.38,25.69-5.18,51.37-10.43,77.08-15.49,18-3.54,36.1-6.18,53.31-13.18,7-2.84,14.73-4,17.74-11.58a1.37,1.37,0,0,1,2.45-.15c1.27,2.22,3.5,2.44,7.13,1a12.63,12.63,0,0,1,8.45,0c4.52,2,7.74.78,11-2.1,8.72-7.83,17.63-15.48,26.06-23.61,3.47-3.35,6.12-3.71,9.92-.91,5.46,4,10.74,9.38,16.93,11,7.23,1.92,16.21,2.58,22.85-.1,7.36-3,13-10.27,19.28-15.84,6.63-5.9,12.73-12.45,19.74-17.84,4.86-3.74,7.76-8,7.2-13.82-1.37-14.47-.78-29.5-11.38-42,10.46-6.45,10.72-14.64,5.39-24.1-.56-1,.58-3.93,1.77-4.75,9.6-6.61,15.62-17.81,27.51-21.5a3.81,3.81,0,0,0,2-2.5c2.84-13.23,5.87-26.42,8.2-39.74,2.49-14.24,4.5-28.58,6.33-42.92,1.36-10.7,2.72-21.47,3-32.23.24-10.38-1-20.78-1.46-31.17a3.91,3.91,0,0,1,.8-2.8c4.66-4.2,9.48-8.21,14.18-12.36,6.31-5.56,12.89-10.85,18.74-16.85,7.4-7.59,14.46-15.55,21.07-23.84C1317.05,782.45,1318.93,777.46,1317.78,775Z" fill="none" stroke="#000" stroke-linecap="round" stroke-linejoin="round" stroke-width="8"/></g><g id="Paint"><path d="M932.49,1126.1l-26.27-50.58-34.1-30.37L818,1033.35,762.14,956,649.55,872.37l6.62-70.53-90.68-69.4-22,14.62,91,66.93-5.77,71.58L738,969.67,809.33,1072,842,1066l28.69,25.84,39.63,69.87,128.06-25-9.05-10.69ZM1253.18,863l-51.06-79-1.64-30.65-67.3-94.77-108-61.34-46-4.6-42.41-7-80.93-47-17.23,6.09,84.34,53.33,56.23,7.4,17.55-7.4L1126,680.87l57.21,78.54,3.27,24.57,7.88,18,45,63.19v72l6.79,12.06,12.7-62.77Z" fill="#d43515"/></g><g id="Canopy"><polygon points="1205.53 1040.44 1174.06 1014.41 1159.43 1003.03 1137.34 1017.78 1137.34 1047.08 1155.01 1079.69 1141.59 1100.23 1178.95 1122.21 1217.81 1084.88 1205.53 1040.44" fill="#82b3d1"/></g><g id="Grey"><path d="M715.39,1176.89c1,3.2.93,7.42,3,9.41,8.47,8,17.6,15.34,26.72,23.12,1.69-2.68,2.87-4.57,3.8-6.06L717,1176.57Zm318.19-215.66-8.45-5.48-13.43,7.75,2.2,10.58,11.23,19.16,4.66,13.29-36.67-22.72-52.8-69.13-8.08,7-1.73,5,57.85,91.18,54.63,13.07,61.6,71.9,9.9-25v-12.83l-17.6-10.67ZM838.93,1070.88l-16.67,4.55-5.73,4.26,56.05,85.06,33.64-7.7-37.15-63.32Zm340-171.31-3.63-31.21L1159.43,848l-6.32,4.41,2.58,9.86,7.24,37.32L1139.79,870l-9.66-5.5-4.17,8.14,66.44,99.83v22.75l10.88,13,26-12.19-51.69-77.09Zm124-140.16-49.78,48.38-6.41,13-3.58-3.34-32.12-40.62-9,7.8,50,73.56,5-20.9,58.3-60.46ZM386.56,490.49l17.88-11.61-32.25-23.57,85.6-47.61,33.82,17.65,17.6-10.61-49.7-31.09-12.41,6.88-32.21,1L360.71,419l-6.87,25.86L333.25,453l6.29,4.13ZM650,564.05l-1.37-25.36-10.45-11.51-41.53-23.91-26.95-12.78L523,516.2l4.69,21.18,51.69,35.82,36.85,2.68ZM441.68,802.58l-91.86-70.14-19.71,69.4s54.07,47.7,54.57,47.7S441.68,802.58,441.68,802.58ZM892,498l56.14-28.53-39.7-26.89L808,441.22ZM244,741c-1.14-4-25.56-18.58-30-18-2.5.33-35.5,24-38.44,28.83-2.46,2-4,4.08-.9,5.71a48.59,48.59,0,0,0,.78,7.37c-1.16,2.3.06,4.78,1.79,7.31,1.36,4.16,3.13,7.49,5.05,8.26a1.21,1.21,0,0,1,.05.18l.15-.09a2.36,2.36,0,0,0,.52.09c4.87.28,47.29-26.26,58.39-36.27l2.63-1.68-.6-.4C243.88,741.73,244.1,741.28,244,741Zm198.65-96.52c-.34-5.19-113-85.47-119.17-85.47-2.67,0-17,7.83-16.69,12.33S420,660.67,424.33,660.5,443,649.67,442.67,644.47Zm96.44-4.25c-4-1.33-12.89-1.78-13.22.56s30.22,81,34,81.78,13.89-6.67,14.33-9.89S542.55,641.37,539.11,640.22ZM721.78,470.3c4.44.19,12.89-6.19,12-9.52S621.52,387.45,616.67,388s-13.11,3.85-13.11,7.18S717.33,470.11,721.78,470.3Zm76-42.88c4.44,2.19,18.89,1.36,20,0s.89-40.42,2.69-43.77,21.31-15.54,27.31-19.34.44-6.2-3.78-7.8-23.38-3.28-26.22-3.29c-2.45,0-26.88,8.25-29.11,13.56s-2.23,36.66-2,41.3S793.33,425.22,797.78,427.42ZM802.5,610c3.33,3.67,120.67,51.33,130.67,55.83S942.83,664,941,662s-105.4-69.39-111.83-71.17C827.36,590.33,799.17,606.33,802.5,610Zm-19,177.5c-1.84-3-90.71-102.93-95.32-102.25-2.84.42-34.5,20.25-31.84,22.58s105.84,76.5,120.5,85.49S785.33,790.5,783.49,787.5ZM511.11,1011.44c-4.67.89-134.44,23.34-143.11,24.67s-9.11.45-7.11,5.56,44.22,32.89,48.74,33.82,115.26-20.71,124.59-22.49,7.56-6.89,6.45-9.51S516.39,1010.44,511.11,1011.44ZM829,1164.75c-4,2.41-39.67,32.25-43.67,36.25S759,1232.33,759,1236s21.67,8.67,25,8.67,20.67-22.34,22-26.34,23.71-21,29.54-25.33,6.5-8.33,6.5-11.58S831,1163.52,829,1164.75Zm306.41-183.31c-2.49-.22-10.74,2.78-11.89,5.89s5.37,11.56,6.37,14.23,4.22,11.33,9.89,8.44,7.11-8.44,8-11.62S1137,981.59,1135.41,981.44ZM748.22,590.82c1.34-4,6-13.82,4.89-16.71s-20-14.22-24.55-14.22c0,0-20.34,12.67-22.34,16s2.45,5.34,3.56,10-49.34,35.33-53.61,37.55-12.61-4.66-16.39-4.22-24.22,12.89-25.11,15.34,20,16.22,22.22,17.11,20.44-.67,24.22-1.56S746.89,594.78,748.22,590.82Zm410.89-18.34c1.33-2.3,2.45-44.37,1.78-47s-22.9-39.63-23.55-38.22c-1.33,2.89-.9,53.11,0,58.45S1157.78,574.78,1159.11,572.48Z" fill="#707070"/></g><g id="Shadows" opacity="0.2"><path d="M226.58,855.94l57.34,50.3L288.33,887l-61.75-34.34Zm-9.93-222.58,9.93,40.47,73.76,58.61L321.42,741l12.19-50.73-113.45-77Zm408,415.4-15.82-3.61,36.38,153,34-5.16,21.34,20.14L777.17,1248,806,1218.33l-19.2-18.71Zm-265.28-8.32,225.6,157.18h8.16L415.82,1025.85ZM1146,1026l-10.56-.1,1.93,21.23L1030.71,956l-22.21,4.65,5.4,13.44,11.23,19.16,4.66,13.29-36.33-26.09-65.68-89.08,10-15-90.58-63.59L816.53,802v7.31l79.77,82-12.12,47.95,141,219.54,21.62-5.35,83.38-37.93,42.51,13.75,25.66-26.57s7.52,3.3-5.35-30.13S1146,1026,1146,1026Zm125-252.74L1167.06,664.5l-9.22,25.5,44.28,70.85,55,76.46,28.9-30ZM969.05,423.32l-2.5,12.19,13,7.09s44.11,25.84,57.64,32.86,16.55,6.51,26.07,6,46.62-14,46.62-14-32.58-72.23-44.61-79.45-100.76-53.61-100.76-53.61l-42.61,16.1-17.2,21.78v32.51l1.95,6.3Zm-111.28,4.1h26.42v-9.1l-96.35-55.15V412.3l5.27,17.21Z" fill="#111"/></g><g id="Outline"><path d="M335.88,869.88a3.09,3.09,0,0,0,.56-3c-3.26-5-5.83-11-10.32-14.63-15.05-12-31.08-22.73-46.16-34.67-5.41-4.28-9.84-2.25-13.6.34-10.08,7-19.67,14.66-29.24,22.35a56.73,56.73,0,0,0-10,10.19c-.72.95-.58,2.53-.39,4.16a2.22,2.22,0,0,0,2.85,1.86c1.34-.41,5.73-4,6.91-4.93,11.3-9.06,22.59-18.13,34.1-26.92,1.15-.88,4.21-.61,5.53.32,13.16,9.34,26.13,18.93,39.8,28.92-10.5,8.14-20.44,15.36-29.82,23.25-10.34,8.68-11,13.87-4.84,25.39,2.14,4,4.33,6.35,9.36,3.93s10.69-3.67,15.73,0c8.4,6.06,12.18-2.12,19.91-9.18a22.21,22.21,0,0,1,4.34-3c7.32-4,9-5.54,5.69-10.93C333.88,879.37,328.89,874.57,335.88,869.88Zm-21.94,28.26c-2.59,1.53-7.36-.17-11-1-2.49-.58-4.73-2.23-7-3.36L322,872.37c2.18,4.51,4.22,8.75,6.35,13.17C323.6,889.87,319.33,895,313.94,898.14ZM605.53,965c1.12.85,3.76,1.38,4.56.71,5.59-4.7,11.24-9.44,16-14.92,1.26-1.43.58-6.76-1-8.14-8.33-7.09-17.24-13.51-26-20.09a61.5,61.5,0,0,0-5.28-3.25c-.49-.3-1.85.58-2.3,1-5.42,4.91-11,9.65-16,15-1.08,1.15-.75,5.58.5,6.62C585.6,949.87,595.55,957.45,605.53,965Zm-7.27-33.3c5.63,4.53,15.71,11.56,20.72,15.59a70.9,70.9,0,0,1-9.72,8.72C602.71,950.43,584.12,945.59,598.26,931.68Zm-114.52-96.8a95,95,0,0,0,8.16-9.5c2-2.88-3.62-5.07-6.68-7.73-2.86-2.49-7.53-5.54-11.58-8.52A66.51,66.51,0,0,0,461.1,821c-5.05,6.22-7.18,6.51.64,12.85,2.22,1.8,4.63,3.39,6.68,5.37,4.48,4.31,8.29,2.59,12-1C481.54,837.1,482.68,836,483.74,834.88Zm-75.35,149a65.4,65.4,0,0,1,7.52,6c5,4.86,9.33,2.92,13.52-1.16,1.26-1.23,2.55-2.43,3.73-3.73,3.22-3.5,8-6.58,9.2-10.7,1.92-6.41-5.7-6.81-9.14-9.81-3.22-2.81-6.87-5.14-11.43-8.48-6.19,4.7-12.5,8-16.61,13C399.49,976,400.64,978.32,408.39,983.83Zm663.75-479.35a50.88,50.88,0,0,1,5.77,3.4c3.88,2.73,7.17,1.64,10.38-.65,1-.69,2-1.37,2.86-2.1a62.81,62.81,0,0,0,7.06-6c1.43-1.62-4.37-3.84-7-5.52-1.93-1.23-4.06-2.3-6.56-3.6a4.76,4.76,0,0,0-4.39,0c-4,2.07-7.91,3.75-10.57,6.15C1065.31,500.09,1066.19,501.38,1072.14,504.48ZM228.94,827.9c8.07-4.67,15.21-11,22.41-17.07,0,0,1-4,0-5.42l-14.59-13.07c-1.08-.93-3.51-1.39-4.42-.74-7.51,5.32-14.9,10.82-22.08,16.57-3.26,2.61-3.53,6.11-.36,9.19,2.36,2.28,4.77,4.73,7.6,6.27C221.13,825.63,226.65,829.22,228.94,827.9Zm651.17-18.78a39.31,39.31,0,0,0,4.69-1.34c1.14-.42,2-1.78,2.88-2.74,3.67-3.76,7.58-3.18,11.49-.51,3.23,2.21,6.35,4.58,9.72,7-2.23,2.82-5.11,5.44-6.56,8.69-.62,1.41-.25,3.26.14,5.12a2,2,0,0,0,2.79,1.37,9.71,9.71,0,0,0,3-2c6.12-6.77,11.6-14.16,18.1-20.53,5.45-5.35,5.89-7.52-.49-11.89s-11.5-7.83-18.86-12.91c-5.31-3.66-7.38-2.47-11.76.34-8.26,5.31-12.77,13.18-16.9,21.42a15.28,15.28,0,0,0-1.19,5.37A2.43,2.43,0,0,0,880.11,809.12Zm89.57-77.43a190.33,190.33,0,0,0,21.85,14.41c2.6,1.42,7.33,1.21,10-.25,4.65-2.59,8.76-5.38,14.51-4.85.85.07,1.81-1,2.77-2.15a2.84,2.84,0,0,0-.16-3.8,4.66,4.66,0,0,0-2.58-1.68c-5.47-.47-11.14-1-15.37,4-.67.79-3,1-4.09.48-3.73-1.72-7.25-3.88-11.71-6.35,4-3.31,7-5.57,9.79-8.06,2.55-2.3,2.66-4.8-.81-6.17-8.51-3.36-21.76.55-26.13,8.07C966.93,726.72,968.19,730.59,969.68,731.69Zm-46.35,34.19a2.69,2.69,0,0,0,3.3.59,21.44,21.44,0,0,0,2.32-1.39c6.68-4.9,13.37-9.77,19.95-14.8,2.23-1.72,5-3.59,1.94-7-2.76-3.06-5.33-5.13-9.46-1.53-4.75,4.15-10.33,7.4-14.88,11.74-2.45,2.33-6.4,5.16-5,9.34A9.07,9.07,0,0,0,923.33,765.88Zm-10.5,274.83c-3.29-4.87-8.39-6.59-13.88-5.68-8.15,1.37-16.19,3.37-24.25,5.22-5.85,1.35-7.74,6.59-4.27,11.45,5.71,8,11.78,15.8,17,24.14,3.36,5.41,7.82,7.23,15.24,7.39,6.75-1.57,15-3.47,23.26-5.44,6.5-1.55,8-4.87,4.52-10.3C924.64,1058.5,918.81,1049.55,912.83,1040.71Zm-6.15-629.59a10.17,10.17,0,0,0,2.94-.9c8.33-4.34,16.47-9.05,24.84-13.3,1.21-.61,3.37.33,5,.88,13.8,4.68,27.58,9.44,42.43,14.54-3.92,2.11-7.11,3.93-10.38,5.58-11.32,5.71-14.38,13.88-10.1,25.95,1.15,3.23,2.25,4,5.71,3.1s8-1.94,10.43-.36c7.16,4.7,12.83,2.13,18.81-1.66a28.79,28.79,0,0,1,4.38-2.26c6.35-2.62,6.6-4.22,2.25-9.49a11.87,11.87,0,0,1-2.45-7.18c.19-11.46-2.7-16.62-12.2-19.9-15.83-5.46-31.62-11.09-47.63-15.95-3.65-1.11-8.36,0-12.23,1.2-4.51,1.42-8.71,3.92-12.88,6.25-3.79,2.13-7.71,4.28-10.85,7.2-.79.74-1,2.15-1,3.66A2.55,2.55,0,0,0,906.68,411.12Zm88,25.2c-5.94,6.39-12.58,3.66-19.5,1.32C984.78,428.76,988.11,428.61,994.68,436.32Zm64.69,150.73c6.85,4.25,13.61,8.66,20.46,12.91,5.76,3.58,12.37,5.93,18.62.53,1.78-1.54,6.55-4.88,7.23-5.8a2.73,2.73,0,0,0-.26-3.55,18.34,18.34,0,0,0-3.17-2.71c-5.76-3.54-9.5-5.53-17.39-10.4-9.07-5.6-16.09-8.68-24.56-.77-.29.27-1.87,1.63-2.19,1.92C1055,582.15,1054.2,583.84,1059.37,587.05ZM1075,581l19.1,11.8c-4.85,4-8.81,3-18.09-4.92C1074.93,586.91,1074.68,584.27,1075,581Zm133.23,230.45q-7.54-12.61-15.78-24.81c-2.94-4.35-9.84-5.39-10.34-2.06-1.46,9.67-6,19.49-.61,29.3,1.46,2.67,3.49,5,5.21,7.56,4.38,6.44,8.46,13.12,13.21,19.29,3,3.89,7.24,2.79,8.17-1.89,1.12-5.62,1.78-11.33,2.77-18.18a6.06,6.06,0,0,0-.15-2.47A27.42,27.42,0,0,0,1208.24,811.41ZM451.48,639.89c-5.54-4.57-11.61-8.49-17.42-12.74q-23.31-17.07-46.56-34.22c-19.76-14.51-39.63-28.87-59.18-43.65-3.63-2.74-6.09-2.36-9.35-.27-7,4.47-14.15,8.67-21,13.28-3.6,2.41-4.24,5.76-.59,8.8s7.31,5.58,11,8.36l61.22,46.47c12.91,9.79,25.8,19.61,38.77,29.32,4.32,3.24,8.81,6.26,12.35,8.71a4.73,4.73,0,0,0,2.46.83c1.76.08,2.61.26,3.11-.08,8.78-6.1,17.59-12.17,26.06-18.69C453.16,645.34,452.71,640.91,451.48,639.89ZM424.72,656c-1.31.69-4.58-1.57-6.54-3q-29.71-22.23-59.27-44.68c-16.35-12.38-32.65-24.84-49.08-37.35,3.16-2.31,6.05-4.57,9.08-6.61,4-2.68,7.24-2.56,11.56.76,21,16.08,42.37,31.62,63.62,47.35L439.37,646C434.21,649.69,429.74,653.39,424.72,656Zm378.93,502.42c.48-7.15,7-4.47-4.3-15.2s-63.17-59.26-67.19-60-43.73-6.13-43.73-2,90.08,97.36,94.84,95.33S803.18,1165.6,803.65,1158.45ZM1317.78,775c-3.8-8-7.81-16.61-13.92-22.82-13.65-13.87-28.61-26.44-43.06-39.52-3.27-3-6.66-5.8-10-8.69-6.68-5.79-12.15-11.62-10.65-22,1.41-9.68-1.29-19-6.32-27.77-6.47-11.18-12.38-22.68-18.47-34.08q-19.77-37-39.46-74-23.36-43.76-46.7-87.49c-11.69-22-23.25-44-35-66-3.19-6-5.4-13.59-10.4-17.26-12.42-9.11-26.1-16.52-39.44-24.33-12.5-7.31-25.27-14.16-37.8-21.42-6.83-4-13.94-7.29-21.83-5q-31.34,9.18-62.38,19.34c-3,1-5.89,4.08-7.71,6.91-3,4.74-5.28,10-7.64,15.16-1.44,3.13-2.8,4-6.6,2.79-12.61-4.08-25.39-7.72-38.23-11-13.4-3.46-26.91-6.45-40.44-9.36a11.9,11.9,0,0,0-7,1.07c-9.1,4.28-18.22,8.58-26.95,13.55-2.26,1.29-4.29,4.95-4.44,7.63-.54,9.35-.25,18.76-.2,28.14,0,8.87-2,18.24,6.22,25.67a52.15,52.15,0,0,1-12.74-1.11c-8.6-2-17-5.61-25.71-6.36-12.46-1.09-20-7.26-25.64-17.75-1.85-3.46-5.59-6.18-9-8.49-5-3.41-10.52-6.1-15.77-9.17-16-9.34-32.13-18.4-47.78-28.25-5.59-3.52-10.39-4.09-15.46-.52-9.58,6.75-18,3.4-25.85-2.82-5-4-10.06-3.78-15.48-1.72-4.82,1.83-6.08,5.8-3.2,9.95.85,1.22,1.89,2.3,2.94,3.57-.91,1-1.43,2-2.11,2.13-12.1,2-24.21,4-36.36,5.63-2.2.3-4.59-1.35-6.93-1.51a27.27,27.27,0,0,0-8,.54c-8.82,2-17.58,4.29-26.38,6.41a3.3,3.3,0,0,1-1.94-.37c-8.75-3.88-17.36-8.17-26.28-11.62-7.95-3.07-15.86-7.69-25-4.07-2.58,1-5.26,1.8-7.88,2.71-9,3.13-18.16,6-27.06,9.52-3.75,1.46-5.68,4.17-1.92,8.2,2.27,2.43,3.75,5.59,6,9.09-5.81,0-10.53-.37-15.17.11s-9.39.88-13.32,2.88c-11.23,5.72-21.9,12.53-33.1,18.34-9.07,4.7-15.76,10.59-16.93,21.51-.7,6.54-4,11.69-11,13.46-2.21.55-4.88,2.86-6.35,2.19-9-4.12-18.19-2.88-27.1-.81A287.5,287.5,0,0,0,276.4,456c-3.22,1.16-6.56,4.76-7.82,8-3.77,9.79.18,18.2,6.37,25.89a13,13,0,0,1,2.68,5.67c1.95,11.43,2.86,23.11,5.82,34.24,1.35,5.07,0,8.68-2.49,11.33-5.2,5.44-10.94,10.84-17.51,14.24-2.33,1.2-7.53-4.36-11.74-5.14-2.63-.49-7.46,1.42-8.47,3.58-2.16,4.62-2.47,10.09-3.87,16.85-3.26,2-8.23,5.19-13.33,8.16-7.85,4.57-10.38,10.16-8.16,18.7.54,2.11,1.81,4.21,1.71,6.26-.14,3.1-.41,6.66-2,9.13-3.28,5.09-3.38,10.18-2.27,15.75,2.13,10.71,3.08,21.78,6.39,32.09,2.86,8.91,6.45,19.06,13,25C250.43,700,268.1,712.05,285,725c8.65,6.65,17.2,13.32,28.5,15.18,1.32.22,3.24,4.23,2.88,6.08-2.55,12.88-5.62,25.65-8.58,38.66-6.87-5.35-13.53-10.37-20-15.61-16.58-13.41-33.07-26.92-49.61-40.37-2.19-1.78-4.51-4.87-6.74-4.84-4.69.08-7.62-2-10.14-5.2-3.42-4.4-7-3.69-10.9-.83-12.86,9.51-25.87,18.84-38.48,28.66-2.17,1.69-4.18,5.71-3.75,8.21,1.68,9.65,4.38,19.11,6.71,28.64,5,20.6,10,41.19,15.21,62.31-4.3-1.55-8-2.79-11.58-4.22s-28.86-2.24-30.95-2.61c-7.84-1.41-18.15,5.58-15.91,13.64,1.57,5.67,2.23,11.62,4.2,17.13,1.47,4.14,3.61,8.59,6.75,11.51,18.31,17,36.93,33.75,55.6,50.41,9.54,8.51,18.89,17.38,29.23,24.85,22.87,16.54,46.27,32.34,69.53,48.34,19.64,13.51,39.41,26.84,59.08,40.32q60.86,41.7,121.66,83.45c11.16,7.64,22.54,14.94,33.71,22.54,21.5,14.63,42.83,29.49,64.41,44,10.13,6.8,21.81,7.83,33.59,6.87,10.72-.87,21.38-2.51,32.08-3.65,5.7-.61,11.47-.66,17.16-1.33,12.4-1.44,22.63-.47,33.53,9,13.63,11.86,29,23.57,48.88,24.62,2.7.14,5.45,1.57,8,2.85,6.36,3.28,12.59,6.82,18.89,10.23,8.78,4.75,16,8,25.43-1.67,13.91-14.2,31.89-24.42,43-41.5,4.16-6.37,9.6-7.59,16.17-7.61,8.29,0,16.74,1,24.86-.23,14.24-2.1,28.29-5.53,42.42-8.38,25.69-5.18,51.37-10.43,77.08-15.49,18-3.54,36.1-6.18,53.31-13.18,6.4-2.6,13.44-3.78,16.89-9.8a2.77,2.77,0,0,1,4.15-.86c1.34,1.17,3.36,1.08,6.28-.1a12.63,12.63,0,0,1,8.45,0c4.52,2,7.74.78,11-2.1,8.72-7.83,17.63-15.48,26.06-23.61,3.47-3.35,6.12-3.71,9.92-.91,5.46,4,10.74,9.38,16.93,11,7.23,1.92,16.21,2.58,22.85-.1,7.36-3,13-10.27,19.28-15.84,6.63-5.9,12.73-12.45,19.74-17.84,4.86-3.74,7.76-8,7.2-13.82-1.37-14.47-.78-29.5-11.38-42,10.46-6.45,10.72-14.64,5.39-24.1-.56-1,.58-3.93,1.77-4.75,9.6-6.61,15.62-17.81,27.51-21.5a3.81,3.81,0,0,0,2-2.5c2.84-13.23,5.87-26.42,8.2-39.74,2.49-14.24,4.5-28.58,6.33-42.92,1.36-10.7,2.72-21.47,3-32.23.24-10.38-1-20.78-1.46-31.17a3.91,3.91,0,0,1,.8-2.8c4.66-4.2,9.48-8.21,14.18-12.36,6.31-5.56,12.89-10.85,18.74-16.85,7.4-7.59,14.46-15.56,21.07-23.84C1317.05,782.45,1318.93,777.46,1317.78,775Zm-19.24-17-19.7,17.79-6.68-6c3.67-3.46,6.31-7,6.39-9.34.23-7-66.64-71.24-76.58-75.86,0,0-9.77-6.65-4,11.9s.08,20.86,9.61,29.09,37.69,47.52,42.38,53.35c2.63,3.26,9.82.3,16.34-4.33.53.47,5.72,4.8,6.78,5.67l-22.5,24.91c-7.72-11.87-14.84-22.8-21.94-33.74-16.3-25.09-31.81-50.75-49.25-75-7.25-10.09-8.58-20.53-10.06-31.68-1.2-9.09-2.66-18.13-4.31-29.25ZM1167,545.83q3.27,6.38,6.52,12.78c-1.64,10.93-.34,29.31-.31,34.11,0,5.07,14.92,18.68,17.43,22.48s3.08-17.6,1.28-21c12,22.57,24.39,44.92,36.75,67.29,4.38,7.93,5.33,16.33,5,25.85-4.35-3.55-8.21-6.39-11.71-9.62-13.54-12.49-27.22-24.85-40.3-37.81-5.24-5.19-9.06-11.81-13.54-17.76-1.06-1.4-2.33-2.67-3.31-4-3.31-4-1.09-68.47-1.09-68.47C1163.41,540.08,1165.23,542.85,1167,545.83ZM1157.73,528l-.84,39.57-16.61-23.68c-.23-8.7-.47-39.34-2.08-52.73Q1148.07,509.52,1157.73,528Zm-20.1,113.2c-.05-1.71,1.72-53.26,2.26-77.3.06-2.37-.44-9.4.67-7.1l16,24.16s-.77,38.87-.36,42.86c.76,7.71,1.8,15.38,2.8,23.06,1.62,12.4,2.93,21.55,5.13,33.85.8,4.47,3.29,8.87,5.83,12.76,19.34,29.68,38.91,59.2,58.35,88.82q7.74,11.79,15.1,23.82c1.32,2.18,4,6,4.93,8.39.88,2.7-1.65,5.21-3.43,2.66-5.54-9.2-10.91-18.51-16.68-27.56-2.65-4.16-6.46-7.57-9.12-11.73-7.22-11.28-13.77-23-21.18-34.14-11.5-17.3-23.41-34.34-35.31-51.38-7.89-11.3-16.82-22-23.76-33.82C1136.26,654.06,1137.8,647.06,1137.63,641.2Zm112.31,211.19c-10.66-17.61-12.39-17-6.89-25.44C1255,844.31,1255.44,843.45,1249.94,852.39ZM1234.39,827c-4.09-6.2-6.07-9.73-9.21-15.05,2-3.09,2.86-4.6,4.4-6.68C1238.9,820,1238.65,821,1234.39,827Zm-14.33-22c-4.42-7.11-6.56-11.21-10.83-18.73.56-.21,3.83-3.49,4.4-3.7C1224.28,798.11,1226.54,798.69,1220.06,805ZM951.19,506.68c-4.25-2.61-8.4-5.41-12.84-7.66-4.77-2.42-16.69,1.88-17.75,6.88-.5,2.38,1.73,6.09,3.79,8.11,4.71,4.65,10.35,8.36,15.12,13a118.23,118.23,0,0,1,11.41,13,.86.86,0,0,1-1,1.32c-11.59-4.93-36.33-19.76-42.07-23.83-7.31-5.19-8.55-5.07-13.49-15.47,8.69-4.7,17.37-9.53,26.18-14.11,11.42-5.94,23-11.55,34.41-17.56,13.14,5.5,81.61,50.81,93,56.88s9.17,2.87,19,2.26,23.69-1.88,27.88-2.26,38.35,22.67,38.35,22.67c0,1.87-.81,46.27-1.43,68.75-.3,11-1.14,22.07-1.78,34-9.8-5.86-19.37-11.45-28.8-17.25-18.62-11.47-37.08-23.18-55.76-34.54-13.7-8.32-27.83-15.95-41.46-24.4-20.2-12.53-36.25-29.7-51.74-47.45-2.9-3.33-6.61-6-10.15-9.08,3.88-2.72,6.84-4.58,9.54-6.76S954.28,508.59,951.19,506.68ZM843.81,456.42c2.3,1.88,9.84,6,12.36,7.63,12.47,8,20.59,13.27,35,23.38-1,.48-5.45,2.11-6.28,2.52-21.71-17.51-46.1-29.42-70.82-47.35,13.44.94,29,.06,41.67.74,5.89.32,12,1.62,17,5.11,3.64,2.58,5.69,4,11.5,7.49,5.13,3.08,17.31-1.31,23.76-4.77,1.61-.87,5.45-3.09,8-1.72a241.59,241.59,0,0,1,26.79,19.08l-5.41,3.57c-2.28-2.19-10.47-8.75-12.52-10.22-5-3.57-9.67-5.08-13.92-3.06-1.25.59-4.61,1.85-5.85,2.62-3.1,1.95-1.22,4.42,3.09,7.64,5.38,4,8.11,6,13.12,10-3.6,2.7-13.53,6.23-17.74,9.39-2.06-4.92-2.06-4.94-3.81-8.7-.56-1.21-3-3-4.38-4.17-7.29-5.91-11.59-7-19.17-12.6-7.21-5.33-10.12-7.11-18.32-12.86-4.18-2.93-8.11-4.65-11.3-3.23C841.32,449.27,837.6,451.31,843.81,456.42ZM936.32,348c13.85-2.38,27.34-7.4,40.65-12.19,6.94-2.5,12.54-1.39,18.51,1.92q32.92,18.28,66,36.35c12,6.52,21.57,14.71,27.64,27.66,10,21.32,21.49,41.94,32.35,62.86.65,1.26,1.24,2.56,2.63,5.46-11.87-6.53-22.39-12.1-32.71-18-21.71-12.51-43.3-25.22-65-37.81-18.89-11-37.57-22.35-56.86-32.55-6.28-3.32-14.15-4.41-21.4-4.91-11.76-.81-23.77.73-35-5.35C917.51,360.22,922,350.45,936.32,348ZM874.78,371.1c3.84,1.14,6.06,2.32,12.67,4.5-4.33,2.08-7.6,3.13-10.2,5.07-1.87,1.38-3.74,3.87-3.93,6-.14,1.62,4,5.57,4.26,5.87,10.51,10.55,20.95,4.13,30.44-1.56,2-1.18,2.45-3.43,2.63-6.09,0-.78-2.63-2.94-3.1-3.32a41.07,41.07,0,0,1,8.48-.85c12,1.13,24,2.32,36,3.95a37.15,37.15,0,0,1,12.81,3.82c22.68,12.54,45.15,25.45,67.69,38.24q45.88,26,91.73,52.16c2.13,1.34,5.5,6.5,5.5,9.13,0,2,1.88,34.14,2.87,51.36-10.43-6.6-35.21-22-38.48-21.19-4.17,1-38.71,5.12-38.71,5.12L954.94,461.08c-15.89-9.63-31.94-19-47.86-28.57-7.69-4.62-15.16-9.63-22.89-14.19-2.72-1.6-6.18-5.73-8.9-1.18-1,1.75,1.69,5.75,2.47,8.08H822.53c-3.28-14-3.07-27.15,3.85-38.89,2.59-4.39,7.15-6.93,11.73-10.1C851,367.27,857.82,366.05,874.78,371.1ZM818.17,357a5.44,5.44,0,0,1,1.82-.52c15.07.84,18.75.2,28.49,5.3-4.39,2.76-16.46,10.2-20.29,12.33-7.11,3.95-10.58,3.78-17.71,0-6.47-3.41-8.37-4.43-13.76-7.14C804.59,363.35,811.37,360.18,818.17,357Zm-28.28,15.28c8.46,4.56,15.82,8.36,23,12.56,1,.57,1.13,3.08,1.14,4.7.09,11.47,0,22.95,0,35.78-4.93,0-11.83.44-14.2-1.78a36.32,36.32,0,0,1-9.54-15.2c-1.59-5.11-.38-11.09-.39-16.69C789.89,385.9,789.89,380.12,789.89,372.31Zm.38,59.2c1.54,0,35.23-.16,52.84.06,10.18.12,20.36.71,30.52,1.38a17.92,17.92,0,0,1,5.56,1.81,1.68,1.68,0,0,1,1,1.91l-.15.75c-12.48-.63-24.95-1.55-37.44-1.82-14.94-.31-29.89,0-44.83-.17-2.29,0-4.58-.93-6.84-1.7C787.33,432.49,788.74,431.51,790.27,431.51Zm-58.06-12.39c8.16,5,15.12,5.63,25.58,7,4.06.52,8.41,1.35,11.77,3.41,36.71,22.5,73.11,45.49,110,67.72,4.91,3,6.48,7.07,9.21,11.06s5.19,8.79,9,11.34c16.55,11,33.47,21.48,50.42,31.87,21.67,13.28,43.5,26.31,65.27,39.45a.9.9,0,0,1-.58,1.66c-3.5-.44-7-.93-10.51-1.26-7.68-.73-16,.23-22.91-2.41C969,585,959.31,578.87,949.69,573c-30.14-18.4-60.11-37.09-90.11-55.73-6.08-3.78-12-7.83-18.39-12,3.22-6.48-.34-10.83-6.14-14.37-9.33-5.69-18.54-11.57-27.9-17.18-1.81-1.08-4.26-2.16-6.15-1.81-6.2,1.14-10.54-1.77-15.48-4.88C760,451,734.27,435.34,708.63,419.54c-12.75-7.87-39.49-24.21-44.67-27.29a1.46,1.46,0,0,1,1.1-2.68,101.7,101.7,0,0,0,11.88,3C698.88,395.72,714.33,408.19,732.21,419.12Zm-77-54.33C667.53,372,679.55,379.73,693,388c-23-3-41.86-11.3-58.33-24.93C643.61,358.39,643.76,358.13,655.19,364.79Zm-49,3.1c5.36,2.26,10,3.56,14,6,21.77,13.41,43.3,27.18,65,40.65,20.8,12.89,41.77,25.52,62.62,38.33,11.06,6.79,22,13.72,34.16,21.28l-59.46,4.59a1.16,1.16,0,0,1-.7-2.15c7-4.26,13.83-8.73,21-12.74,5.27-3,5.83-6,.85-9.34-5.59-3.73-11.42-7.1-17.11-10.69-14.61-9.19-29.12-18.55-43.81-27.61-18.74-11.56-37.87-22.53-56.33-34.52-7.06-4.59-8.34-6.32-20.29-1.37-5.88,2.43-13.16,4.06-15.4,12.59-5-3.18-15.7-9.76-22-13.75C579.13,377.37,594.65,372.56,606.15,367.89Zm.64,26.74c5-3.29,9.45-4.51,15.13-.88,20.62,13.18,41.55,25.87,62.36,38.76,15.42,9.55,30.82,19.13,46.62,28.93l-9.63,6.05Zm-66.42-16.78c10.16-2.88,17.31,3.27,24.89,8.06q31.23,19.71,62.38,39.55c13.47,8.55,26.91,17.17,40.42,25.68,15.91,10,32.64,18.94,47.56,30.27,10.55,8,20.67,2.63,30.93,3.1,6.06.27,12.19-1.4,18.31-2,9.42-1,18.84-2,28.29-2.56,3.2-.21,7-.22,9.63,1.22,8.92,4.81,17.47,10.31,27,16.05-5.48,3.32-10.11,6-14.62,8.9-5.24,3.35-5.35,5.61-.28,8.87,18,11.57,36.09,23,54.06,34.58,2.09,1.35,15.84,9.57,18.33,11.11,15.42,9.58,30.44,19.84,46.21,28.79,5.34,3,12.41,3.37,18.78,4.21,10.56,1.4,21.2,2.2,33.84,3.46-5.32,3.12-9.22,4.93-12.48,7.53-1,.77-1.34,2.25-1.72,3.75a2,2,0,0,0,1.68,2.45,7.47,7.47,0,0,0,3.7-.15c4.61-1.9,8.89-4.6,13.49-6.53a6.9,6.9,0,0,1,5.34.37c8.35,4.75,16.53,9.8,23.68,14.1-1.65,5.7-3.27,10.79-4.43,16-.2.87,1.73,3.18,2.55,3.12a28.23,28.23,0,0,0,7.82-2c1.38-.52,3.09-2.91,3.59-2.62,4.52,2.64,7.26-1.32,7.85-3.59.75-2.87-.16-7.5-2.19-9.5-4.15-4.06-9.45-7-14.43-10.17-5.33-3.37-10.85-6.46-16.85-10,29.88-3.5,49.17,17.24,72.34,29-6,3.19-6.3,6.05-.91,9.48,10.71,6.8,21.46,13.52,32.34,20,4.61,2.76,8,1.33,8.84-3.82a43.2,43.2,0,0,1,13.84,7.8c0,.08-3.67,9.89-8.66,22.85h0c-3.46-4.23-23-12.18-58.61-32.67-3.27-1.89-15.41,18.74-21.61,26.3q-5.7-8.25-11.42-16.49c-1.74-2.5-4.88-4.13-7.58-5.84-20.8-13.24-41.59-26.52-62.52-39.57-27-16.82-70.11-41.58-96.77-58,0-.25-21.14-17.06-28.15-21.11-10-5.78-17.75-9-27.77-11.07C789.51,523.1,772,519.56,754.4,516c-9.42-1.92-19.37-2.51-28.13-6.06-9.14-3.69-17.22-10.09-25.63-15.51-19.29-12.46-38.45-25.12-57.76-37.57q-37.11-23.91-74.38-47.6c-13.83-8.8-27.8-17.38-41.69-26.09a13.83,13.83,0,0,1-1.82-1.64C530.37,380.25,535.43,379.25,540.37,377.85ZM1172.75,920c-.17.3-2.45,2.1-3.74,3.19a1.94,1.94,0,0,1-2,.34c-1.61-.61-3.39-1.1-4.21-2.26q-16.2-23-31.89-46.39c-1-1.41-.82-3.38-.82-5.58,0-1.72.52-3,2.21-.94A489.61,489.61,0,0,1,1172.75,920Zm-14.91-66.77c13.42,14.3,19.77,21.07,16,46.34C1160.54,893.18,1166.59,892.54,1157.84,853.23Zm-12.36,19.88c-4.45-7.86-10.42-13-19.29-15.44-15-4.21-23.92-15.72-31.62-28.39-2-3.35-4.93-6.19-6.83-9.6-1.45-2.59-3-5.84-2.7-8.6,1.44-13.21,3.48-26.36,5.54-41.18L1112.77,802c10.94,15.8,21.45,31.91,33,47.25,5.27,7,5.76,14.83,7.46,22.58,1,4.43,1.53,8.94,2.48,14.71C1151.75,881.42,1148,877.6,1145.48,873.11ZM955.73,664.76q-20.26-13.39-40.62-26.65c-26.2-17.07-52.69-33.69-78.5-51.33-.48-.32-1-.61-1.44-.91h0l-62.75-38.53s5.22,1.06,7.09,1.37c27.45,4.56,74.36,12.21,81.22,15.8q59.84,37.75,119.66,75.54c12.4,7.81,25.74,14.33,37.27,23.23,7.71,6,13.51,14.7,19.24,22.85,12.69,18.08,24.54,36.75,37.34,54.76,2.52,3.55,6.26,6.24,9.74,9.48a1.36,1.36,0,0,1-1.27,2.3,22.16,22.16,0,0,1-7.08-2.82c-11.05-7.69-21.38-16.41-32.48-24-12-8.22-24.59-15.65-36.94-23.39-13.67-8.57-27.42-17-41-25.74-2.7-1.75-6.46-3.29-5.43-8.18C960,667.6,957.33,665.81,955.73,664.76ZM655,696.53l-14.29-40.65c5.92-1,11.44-2.66,16.94-2.59,11,.14,18.86-6.54,27.12-11.84,17.65-11.34,34.54-23.86,52.16-35.25,9.34-6,17.22-12.71,19.18-24.15.68-3.93,2.73-4.86,6-4.34,10.56,1.69,21.1,3.54,31.66,5.3,6.45,1.07,12.9,2.09,19.36,3.14a1.22,1.22,0,0,1,.49,2.21Zm39.73-2.45c6.09,7.58,13,14.5,19.45,21.78,9.83,11.06,19.45,22.32,29.41,33.26,12.24,13.44,24.75,26.64,37.11,40a39.6,39.6,0,0,1,2.54,3.37c.39.75.3,1.22-.62.51l-122.47-85.3c7-4.81,21.31-14.41,22.14-15.09C689.2,687,689.34,687.31,694.76,694.08Zm-95.1,60.83a6.94,6.94,0,0,0,3.69-.41c4.63-2.4,8.82-5.65,13.28-8.62,11.7,8.48,23.77,17.22,35.83,26,17.88,13,35.69,26.12,53.63,39,11.54,8.3,23.31,16.27,34.89,24.5,7.15,5.07,13.85,10.84,21.29,15.41,3.37,2.19,8.79,6,4.32,5S684.44,838.29,679.5,835c-16.63-11.82-42.41-29.73-47.61-33.27l-.06,0c-7.53-6.06-15.4-11.72-23.13-17.54q-39.13-29.49-78.27-59c-3.86-2.9-7.79-5.72-11.45-8.86A13.72,13.72,0,0,1,515.1,711c-1.61-4.18-4.15-4.28-7.19-2.07A133.06,133.06,0,0,0,495,719.15c-4.95,4.67-11.66,5.09-16.92.67a199.3,199.3,0,0,0-18.83-14.38c-3.47-2.28-3.59-4.15-2.33-7.59C463,681.29,468.6,664.53,475,648.08c1.83-4.74,0-7.1-3-9.5-5.84-4.65-11.73-9.24-17.78-13.61-25.18-18.22-50.48-36.29-75.64-54.53-23.23-16.85-46.33-33.87-69.52-50.75-2.59-1.89-21.88-16.56-21.92-19.89-.14-9.17-.54-16.2,3.33-21.64,4,2.69,36,25.69,39.95,28.53,28.8,21,57.5,42.19,86.37,63.12,20.38,14.79,41,29.28,61.48,43.89,13.54,9.65,27.81,18.46,40.31,29.3,5.23,4.53,7,13.26,9.88,20.26,8.65,20.75,17,41.63,25.69,62.35,3,7.1,4.13,7.08,10.89,2.7,4.22-2.73,8.56-5.29,13-7.64a4.74,4.74,0,0,1,4.13.06c3.08,2.09,5.86,4.63,9.34,7.47-2.55,3.11-5.33,5.83-7.23,9.06a9.62,9.62,0,0,0-.94,4.28,2,2,0,0,0,2.43,2.1,23.53,23.53,0,0,0,3.46-.94c1-.35,1.64-1.48,2.41-2.29,6.93-7.29,6.93-7.3,14.1-2.49-2.51,3.1-5.48,6.21-7.75,9.77a9.41,9.41,0,0,0-1.16,3.49A3.19,3.19,0,0,0,599.66,754.91Zm118,161.26c7.87,5.26,43.62,30.42,49.74,35-12.68,6.14-23.49,11.33-30.45,14.67-4.07-3.54-9.06-6.42-13.37-9.76q-34.87-27-69.8-53.89l-19.33-14.93s5.25-59.2,5-65.15a8.1,8.1,0,0,0-1.52-3.93.77.77,0,0,1,1.07-1.07c19.9,13.79,51.28,35,60.62,41.79-9.33,4.75-9.58,12.31-8.82,20.09.14,1.49,1.21,3.62,2.39,4.07a5.6,5.6,0,0,0,4.74-1.12c1.55-1.34,2.17-3.71,3.62-5.23a58.28,58.28,0,0,1,6.44-5.36c1.8-1.4,4.75-2.34,5.29-4.08.66-2.11.2-5.79-1.28-7.14-6-5.44-11.27-8.66-14.62-11.9-11.87-7.21,64.35,13.74,96.93,19.26-22.59,9.2-86.51,34.9-87.25,37.86C706.15,908.88,707,909,717.67,916.17ZM474,919.29c-3-2.48-62.34-47.54-86.08-66.66C399.33,843.35,411,834.3,422.48,825c14.72-11.87,29.33-23.89,44-35.83a5.16,5.16,0,0,1,1.66-.91c7.43-2.08,18.43-4.15,31.63,3.38a32.36,32.36,0,0,1-2.73,3.7,2.58,2.58,0,0,0-.18,2.83,19.32,19.32,0,0,0,4.56,5.24c2.36,2,5.47,5.86,10.46,2.34,1-.74,4.47,1.09,6.3,2.42,7.28,5.26,14.36,10.79,20.54,15.47-2.1,3.18-2.4,5.79-1.24,6.85,9,8.18,9.22,10.16,14.94,5.74.77-.6,3.53.61,4.86,1.64,7.83,6,15.51,12.19,23.26,18.34-3.45,6.35,2.53,8.69,5.77,11.45,1.91,1.63,9,.25,9.12-.29,8.18,6.25,16.45,12.38,24.45,18.84,1.4,1.13,2.08,3.63,2.33,5.6,1,7.75,8.52,11.71,15.09,7.75l91.26,70.23c-19.74,3.11-37.61,5.78-55.42,8.79-12.92,2.19-25.75,4.91-38.65,7.23-19.17,3.46-38.38,6.73-57.55,10.16-16.35,2.93-32.67,6-49,8.94-4.54.8-9.27.74-13.67,2,0,0-45.1-27.63-46.28-32.15S477.73,922.42,474,919.29Zm-108.18-104c4.84-4.29,6.27-4.91,1.75-8.91-5.94-5.25-11.52-9.25-18.36-15.05-5-4.28-7.39-6.54-5.86-12.78,3.32-13.47,6.09-27.09,9.23-41.28l67.2,53.34-3.25,3.32L379,764.11c-2.41-1.92-4.75-3.92-7.19-5.8-6.6-5.07-9.83-4.71-15.67,1.66-3.57,3.88-2.48,6.51,1.91,9.61,8,5.71,15.58,12.13,23.27,18.33s14.93,12.33,22.53,18.31a11.27,11.27,0,0,0,5.45,2c5.86.68,11.75,1,19.5,1.7l-18.33,14.68c-5.17-4.12-10.66-8.1-15.67-12.62-4-3.62-7.6-4.86-12.05-.9-1.78,1.58-4.06,2.57-6,4-5.14,3.69-3.49,6.59,1.63,10.42,2.75,2,14.72,12.22,14.72,12.22l-8.08,7-28-22.74A93.7,93.7,0,0,0,365.77,815.26ZM354.7,814c-20.07-15.75-20.07-15.75-18.8-23.14l23.42,18.72Zm49,15.9-4.59,3.49-15.26-13.33C390.05,816.56,395.05,819.12,403.7,829.89Zm-8.36-367.07c-5.42-3.57-6.38-4.41-9.88-6.74,13.55-7.72,27-15.34,40.4-23,9.48-5.45,19-10.81,28.29-16.58,3.21-2,5.66-2.52,8.81-.2,4.94,3.62,10.08,7,15.14,10.43-4,1.05-8.25,1.46-11.83,3.27-8.33,4.22-16.35,9.08-24.45,13.76-4.55,2.62-9.25,5.07-13.43,8.19a129.8,129.8,0,0,0-12.28,10.95C409.1,469.62,403.76,468.37,395.34,462.82ZM549.21,694.6c-6.89-17.29-13.7-34.38-20.74-52.07,11.2-1.24,10.91-1.12,14.84,8.5,3.44,8.45,7.69,16.58,11.51,24.88C560,687.07,561,684.9,549.21,694.6Zm13.41-.86,8.49,18.2-10.49,7.63L553,704.19ZM586,659.65h0l-1.53-1h0c-6.27-7-171.07-115.62-174.12-119.91-2.09-2.93.59-9.84,3.37-17.91,0,0,32.66,13.25,44.15,16.63,16.06,4.71,27.83,16.14,41.14,25.1,18.69,12.59,36.84,26,55.38,38.81,2,1.37,5,1.68,7.55,1.73,9.83.2,19.87-1.18,29.45.37,15.45,2.51,27.36-3.88,39.2-11.95,15.21-10.37,30.65-20.41,45.66-31.06a12.83,12.83,0,0,0,4.73-8.94A207.63,207.63,0,0,0,679.79,525c-.26-2.64-1.77-6.11-3.84-7.49-20.74-13.81-41.59-27.49-62.69-40.76-15.37-9.66-29-20.94-38.23-36.82-.32-.56-7.69-13.4-6.17-12.45,7.7,5,175,114.33,232.37,149l-.22,0c-12-2.41-24.12-4.55-36.29-5.81-11.3-1.16-18.76-8.88-27.51-14.35-5-3.13-9-3.56-13.81,0-7.56,5.61-15.41,10.82-23,16.39-6.15,4.51-6,5.83.11,10.17,1.2.85,2.38,1.74,4.46,3.27-16.56,10.88-32.53,21.48-48.7,31.74-1.32.84-4.71.06-6.1-1.15-5.47-4.76-10.22-5.3-16.41-.65-7.12,5.36-15.28,9.32-22.8,14.18-6.26,4-6.28,6.88-.6,11.29,3.81,3,7.31,6.64,11.58,8.62,9.65,4.46,11,13.34,13.91,22,2.36,6.93,6.45,17.23,8.49,22.48C645.78,698.32,603.83,671.33,586,659.65Zm83.79-127.86c.18,13.84-2.06,21.33-16.4,25.25-.54-7.09-.94-14.31-1.72-21.49-.24-2.22-.88-5.07-2.41-6.36a159.22,159.22,0,0,0-15.86-11.7c-11.68-7.61-23.53-14.95-35.33-22.36-2.38-1.5-4.86-2.82-5.58-3.24-1.65-3.81-2.16-6.91-4-8.7a42,42,0,0,0-11-8.18c-2.11-1-5.67-.23-8.07.86-3.34,1.51-6,4.56-9.35,6a10.46,10.46,0,0,1-7.45-.16c-3.65-1.55-6.2-2.37-10.19.31-10.32,6.95-21.13,13.2-32,19.21-5.53,3-6.52,6.09-1.39,11.2l-10.27,6.27c-5.2,3.19-5.55,8.32-.62,11.74,6.36,4.42,12.34,10.87,20.64,5.13,2.54,2.82,4.56,6.06,7.43,8.08,15.56,11,30.88,22.38,47.26,32,6.47,3.8,15.43,3.68,23.34,4.6,5.8.67,11.75.13,19.17.13-7.93,9.35-15.84,10.42-25.31,8.6a71.11,71.11,0,0,0-20.66-.4c-9.91,1.05-15.83-5.95-22.75-10.43-13-8.45-25.37-18-38.1-26.86-7.51-5.26-15.28-10.17-22.85-15.35-3.94-2.7-6.74-5.4-3.69-11.15,3.44-6.51,4.77-14.17,8.44-20.51,2.09-3.63,6.83-5.91,10.66-8.34,9.61-6.08,19-12.65,29.21-17.57,7.09-3.42,15.24-5,23.1-6.36a242.72,242.72,0,0,1,28.25-2.76,16.27,16.27,0,0,1,9.07,2.62c24.57,16,48.91,32.33,73.49,48.3,3.5,2.27,5.07,3,5,8.54C669.82,529.33,669.81,531.13,669.82,531.79ZM549.7,528.1c12.42-7.73,24.79-15.54,37.39-23,2.37-1.39,5.73-1.09,8.57-.26l-32.75,20.21c-3.34,2.06-6.73,4-10,6.15-3.82,2.42-5.3,6.13-4.11,10.29.43,1.51,2.9,2.72,4.69,3.49s4.24.27,5.79,1.28c5.32,3.45,10.29,7.46,15.57,11,3.06,2,6.51,3.34,6.19,8.11-.06.86,2.29,2.46,3.7,2.68,1.15.18,3.66-1.2,3.66-1.88,0-7.57,7-8.53,11.18-11.76a174.44,174.44,0,0,1,19.83-12.78c2.27-1.3,5.39-1.07,8.09-1.66,1.22-.27,3.29-.69,3.4-1.32A23.1,23.1,0,0,0,631,531c-.19-1.12-1.53-2.05-2.55-3a.5.5,0,0,1,.62-.78c4.28,2.6,8.74,5,12.72,8,1.66,1.25,2.82,3.85,3.19,6,1.79,10.35-1.16,17.54-11.13,23.52-12.37,7.43-24.28,8.83-38.53,8.47-15-.39-24.08-9.12-35-15.79-9.09-5.58-17.56-12.18-27-18.84C538.88,535,544.25,531.48,549.7,528.1Zm-16.37-8.87c8.37-8.45,26.94-21.45,34.54-13.45l-28.94,17.55C538.64,522.82,533.63,519.74,533.33,519.23ZM597,517c7.72,4.7,15.23,9.74,23.11,14.86-10.12,6.49-19.77,12.06-28.67,18.64-5.39,4-9,3.66-13.93-.54-5.6-4.78-12.06-8.56-18.71-13.15,11.29-7,21.95-13.67,32.79-20.07A6.28,6.28,0,0,1,597,517Zm115.9,61c-1-.75-2.19-1.33-3.6-2.17,6.36-4.5,12.34-8.86,18.49-13a4.37,4.37,0,0,1,3.78.23c5.81,3.46,11.49,7.14,17.65,11-1.31,4.43-2.44,8.38-3.67,12.29a3.84,3.84,0,0,1-1.4,1.89c-24.64,16-49.35,32-73.9,48.17-3.21,2.12-5.61,5.46-8.48,8.13A5.77,5.77,0,0,1,659,646c-5.82,1-11.64,2.16-17.5,2.57-2.11.15-4.61-1.27-6.49-2.6-5.13-3.6-10-7.54-15.38-11.63,6-3.8,11.48-7.81,17.48-10.83,2.11-1.06,5.93-.56,8.1.71,5.71,3.32,10.37,3.77,16.25-.31,16.86-11.72,34.19-22.75,51.3-34.11C719.07,585.57,719.08,582.4,712.93,577.94Zm114.51,15.34c1.12-.69,3.71.09,5.12,1q34,21.68,67.78,43.57c12.44,8,24.86,16.06,36.95,24.78a1,1,0,0,1-1,1.8L803.65,608.78C812.14,603.17,819.67,598,827.44,593.28ZM527.25,434.19l27.22-3.62,22.37,29.52c-8.44,1.23-16.67,3.85-24.66,3.28-16.19-1.14-28.57,6.63-41.26,14.48-6.69,4.14-13.13,9-20.33,11.92-10.52,4.27-13.84,13.08-17.12,22.42-1.66,4.72-3.64,9.33-5.88,15l-49.35-17.07c5.07-18.5,16.79-34,19.77-54.28,8.37-4.92,18.3-10.7,28.16-16.6,2.37-1.43,4.08-.94,6.78-.27,5,1.23,10.61.77,15.88.19C501.67,437.75,514.45,435.88,527.25,434.19ZM502,414.7c0,.07,0,.25-.14.35C492.92,424.1,485.9,416.2,479,412c-8.69-5.31-16.75-11.64-25.61-17.89l9.33-5.48ZM459.2,369.39c1.53,8.71-2.38,13.27-14.21,17.41-3.91,1.37-5.75-.13-10.31-8.89Zm-10,29.67c.87.73,1.21,2.16.43,2.9-12.13,7.27-9.81,7.08-29.08-7.79C420.71,393.57,436.16,390,449.22,399.06Zm-36.59-2.66c7.42,4.81,13.9,10,21.07,14.65-19.45,11.11-19.41,11.24-28.89,3.69-3.55-2.82-7.47-5-11.92-8.26C397.55,403.7,409.34,398.36,412.63,396.4ZM382,412.8c2.77-.51,6.32,1.43,9.07,3.05,4.85,2.86,9.36,6.32,15.37,10.47-4.1,2.23-7.42,3.91-10.59,5.83-2.29,1.39-5.3-1-8.85-3.38-2.52-1.69-5.15-3.25-7.67-5s-4.89-3.43-7.63-5.36C375.2,416.39,378.38,413.45,382,412.8Zm-16.69,11.28c5.81,4,14.28,9.7,20.17,13.79-3.39,1.86-9.76,5.62-12.18,6.95C359.52,435.63,362.18,432.43,365.29,424.08Zm-4.12,30.18c10.64,8,21.68,15.52,32.79,23.4l-7.9,4.92L346.84,455C352,450.18,356.13,450.45,361.17,454.26Zm-43.78,8.26c17.64,12.2,43,30.76,61,43.25-2.84,4.2-10.31,2.42-13.69,0-10.65-7.62-39.6-26.27-48.83-35.53C313.71,468.06,312.72,465.51,317.39,462.52Zm-9.75,9.32,55,40.38c1.75,1.21,2.75,2,.2,2-2,0-8.7-.17-11.79-2.19-10.21-6.67-35.37-23.31-44.52-31.34C301.15,476,304.32,475.23,307.64,471.84Zm-3.32-16.53c-1.09,6-2,11.12-3,16.35a1.19,1.19,0,0,1-2.35,0c-.85-4.71-1.7-9.38-2.6-14.34Zm-23.08,31.47c-12.28-17.58-5.47-22.95,8.9-26.74,1.37,1.44,1.31,3.95,1.37,5.66s0,3.5-1.07,4.8c-.79.46-1.31,1-1.89,1.06C284.28,472.07,281.06,478.88,281.24,486.78Zm3.67,62.52c5.22-8.06,9.85-17.47,15.43-25.85,52.38,37.08,115.36,84,167.63,121-6.5,18.17-12.66,35.36-19.2,53.64L274.6,566.78A172,172,0,0,1,284.91,549.3Zm-34.77,8.79c9.95,7.51,19.87,15.08,29.87,22.53,9.65,7.18,19.46,14.15,29.08,21.37,11.75,8.82,23.37,17.82,35.06,26.7q19.38,14.73,38.78,29.4c21.81,16.57,43.56,33.21,65.41,49.71,9.61,7.26,19.61,14,29.05,21.47,4.33,3.42,7.31,8.57,11.66,12,18.5,14.44,37.24,28.55,56,42.69,12.24,9.25,24.65,18.27,36.86,27.55,9,6.87,17.84,14.09,26.88,21,6.57,5,13.25,9.87,19.93,14.71l-3.19,33.15Q613,870.64,600.42,861q-19.5-15-39.08-29.86c-18.92-14.45-37.92-28.81-56.7-43.45-3-2.31-4.42-6.95-7.57-8.52s-7.82-1.35-11.75-1.06c-20.77,1.57-31.83-14.9-46-25.07-21.74-15.58-42.61-32.38-63.78-48.75-7.13-5.52-14.28-11-21-17.08-2.24-2-3.62-5.54-4.32-8.62s0-6.68-.22-10c-.35-4.43-1.67-7.94-5.91-10.91-11.13-7.82-21.69-16.46-32.37-24.91a10.67,10.67,0,0,1-3.14-4.57c-2.8-7.78-1.46-7.25-4.6-14.88-1.59-3.85-4-7.93-7.18-10.45-13.73-10.87-32.77-24.59-46.72-35.2C249.09,566.84,249.92,560.15,250.14,558.09Zm.48,19.81c6.31,3.64,42.19,28.49,43.28,32.05,2.79,9.12,6,18.14,9.36,27,.73,1.92,2.1,3.58,3.38,5.71a1.17,1.17,0,0,1-1.44,1.69c-5.13-2-10.5-3.79-14.84-6.94-17.38-12.61-34.23-26-52.46-39.9C241.65,591.83,244.15,582.76,250.62,577.9Zm63.75,212c7-31.73,14.29-63.41,21.2-95.17a5,5,0,0,0-.53-3,3.19,3.19,0,0,0-5.25-.92,4.08,4.08,0,0,0-1,1.73c-3.46,13.27-6.52,26.65-10.18,41.93-7.47-3.36-15.25-5.39-21.24-9.83-18-13.33-35.15-27.8-52.91-41.44-10.92-8.39-15.6-19.35-16.46-32.72-.4-6.06-1.06-12.53-3.54-17.94-4-8.81-1-15.2,4.45-21.57,1-1.16,1.82-2.45,3.06-4.13q20.61,15.62,41.25,31.28c6.46,4.93,12.27,11,19.35,14.73,5.34,2.8,12.26,2.53,18.43,3.87,9.63,2.1,19.48,2.17,27.82,9.88,4.75,4.39,4.27,9.66,4,12.9-1.32,16.89,10.86,24.54,21.23,32.95,21.13,17.13,42.91,33.45,64.45,50.08,9.89,7.63,19.83,15.21,30.53,23.41-7.23,6-11.11,10.43-15.81,7.06s-9.37-7.28-14-11q-30-23.76-59.91-47.49c-5.51-4.36-11.19-8.49-16.56-13-6-5.07-8.76-4.37-10.53,3.58-3.74,16.84-7.05,33.77-10.93,50.58-1.64,7.13-4.32,14-6.35,21.06-.38,1.32.08,2.89.18,5-3.37-2.58-6.58-4.73-9.35-7.34A5.7,5.7,0,0,1,314.37,789.92Zm-135.24-39c11.12-8.1,22.23-16.22,33.46-24.18,1.19-.84,3.57-1.46,4.59-.84,7.83,4.72,15.45,9.78,24.47,15.6L183.09,779C181.84,773.28,175.55,753.49,179.13,750.89ZM282.25,983.81c-22.43-16.7-47.62-30.78-68.11-49.88-18.64-17.37-40.72-41.49-60.5-57.53-7.54-6.12-14.85-23.17-4.83-27.71,12.16-4,33.43-2.62,43.88,7.09,2.7,2.51-2.62,17.47-3.82,20.4-2.18,5.36-.8,8.45,4.1,12,8.52,6.23,16,13.84,24,20.87q29,25.67,58.09,51.32c10.17,9,68.78,57.63,78.26,67.59C353.29,1028,344.37,1030.06,282.25,983.81ZM315.39,986c-12.82-11.21-25.35-22.75-38.15-34-16.76-14.7-33.71-29.17-50.46-43.88-9.57-8.39-19-16.94-28.22-25.74-1.36-1.3-1.73-4.54-1.32-6.64,1-5.33,1.88-11,4.46-15.68,6.62-11.89,3.69-23-1-34.32-1.57-3.81-2.41-7.92-4-11.74-3.65-9-7.52-17.92-11.44-27.18,12.65-8,24.22-15.34,35.74-22.72,7.36-4.72,14.76-9.39,21.91-14.42,3.82-2.68,6.52-2.15,9.94.81,4.83,4.17,10.22,7.69,15.35,11.52.71.53,195.25,160.61,196.21,163.15,1.18,3.07-7.7,49.71-5.44,53.34,1.81,2.91,32.27,22.44,44.42,30.16-33,5.31-130,20.91-131.16,20.91-1.34,0-4.52,1.83-8.37-1.54C347.81,1013.92,331.49,1000.08,315.39,986Zm64.93,66c-5.45-3.76-10.49-8.11-15.58-12.21L512.1,1015c8.35,9.45,21.87,24.72,23.25,26.1,2,2,4.19,6.53,2,8-1.72,1.19-91.82,16.71-127.84,22.79Q394.9,1062,380.32,1052Zm314.41,135.66c-7.26.65-14.58.76-21.84,1.44-22.34,2.12-44.63,5-67,6.31a42.93,42.93,0,0,1-26.79-7.36q-54.2-37.14-108.37-74.33c14.23-1.2,51.19-10.35,55.42-11,4.92-.73,37.1-4.64,38.44-7.77s-17.43-24.13-21-27.71S439,1086.49,432.41,1087.51l.09.09q-6.6-4.5-13.21-9L547,1055c6.23-1.08,54.22-8.63,61.74-9.86a12.1,12.1,0,0,0,1.4,3.58c5.8,10,12.9,19.25,19.32,28.9,10.26,15.44,20.24,31.07,30.68,46.39,9.75,14.28,20,28.22,29.91,42.4,3.12,4.47,5.87,9.2,8.75,13.83C701.9,1185.15,699.38,1187.25,694.73,1187.66Zm-77.41-145.51c2.82-.26,4.45-.55,6.09-.55,15.64,0,31.28.15,46.91-.08,12.21-.17,24.41-1.12,36.6-1.08,2.94,0,5.82.86,10.66,5.91,20.69,21.54,41.81,42.67,62.68,64.05,15.17,15.54,45.63,47.39,45.83,47.65-7,6.78-35.46,32.76-40.57,36.79Zm102.61,127.36c-5.13-3.89-3-9.75-5.16-14.36-.81-1.75-6.41-1.42-6.51.41-.35,6.74-.18,13.51-.16,21.68a.58.58,0,0,1-1.05.33l-76.83-111.94a.54.54,0,0,1,.8-.71l126,114.44-12,10.57C736.69,1183.08,728.52,1176,719.93,1169.51Zm24.13,54.1c1.62-3.78,11.75-14.11,12.8-18,.49-1.8-.1-5.12-1.37-6-4.8-3.1,7.19-10.66,10.34-14.06l14.39,14.62c-4.7,5.14-19.36,24.84-23.18,29C754.73,1228.39,746.25,1224.45,744.06,1223.61Zm37.18,18.21-17.61-9.17c6.92-8.3,13.88-16.82,21.06-25.15,2.08-2.41,4.72-3.21,7,.14,2.48,3.59,5,7.13,7.63,10.79C793.37,1226.15,787.48,1233.75,781.24,1241.82ZM835,1190c-8.08,7.14-16.51,13.89-24.64,21-2.9,2.53-4.77,3.48-7.19-.68-2.52-4.34-5.87-8.2-9-12.46,9.38-7.72,25.38-21.68,35-30.08a.89.89,0,0,1,1.43.37c.33.87.68,1.73,1.08,2.56a29.66,29.66,0,0,0,4.85,7.77C841,1183.16,838.54,1186.83,835,1190Zm14.18-3.94c-3.3-5.79-6.55-11.14-9.42-16.69-1.35-2.6-1.79-5.67-3-8.39-1.09-2.55-2.14-5.38-4-7.31-20-20.67-40.78-40.62-60-62-12-13.29-21.71-28.6-32.36-43.07-2.19-3-4.65-6.23-6.81-9.19-4.11-5.62-5.19-9.43-11.88-6a6,6,0,0,1-2.19.14q-50.47.67-101,1.33c-1,0-61.87,8.22-72.68,12.23a26.34,26.34,0,0,0-1.82-6.37c-1.57-3.58-14.91-18.59-22.61-27.16,8.37-1.34,16.71-2.93,25.06-4.44,16.78-3,33.54-6.12,50.33-9.09,19.16-3.4,38.35-6.69,57.52-10,16.8-2.92,33.61-5.81,50.4-8.77,8.82-1.56,17.6-3.41,26.45-4.74,2-.29,5.18.37,6.15,1.75q26.25,37.69,52,75.73,17.65,26,34.92,52.21c14.28,21.68,28.58,43.36,42.34,65.37,2.07,3.31,1.26,8.42,1.81,12.92Zm-3.48-72.45c-1.17.19-3-1-3.87-2.09-3.84-5-7.44-10.22-11.18-15.43,19.5-4.84,26.13-10.17,38.46,13.06C861,1110.73,853.34,1112.35,845.66,1113.6Zm27.2,2a2.77,2.77,0,0,1,2.14,1.22c3,4.66,5.83,9.41,9.18,14.88-8.47,1.85-15.79,3.63-23.21,4.93-1.35.24-3.49-1.15-4.49-2.41-3.09-3.92-5.81-8.13-9.33-13.19C856.35,1119,864.59,1117.24,872.86,1115.58ZM820.59,1079c14.72-3.37,24.32.85,26.56,5.68C834.88,1087.11,824.36,1088.44,820.59,1079Zm54.31,82.8-12.46-17.9c8.39-1.56,16.2-3.07,24-4.4,1.24-.21,3.26,0,3.85.75,3.86,5.14,7.42,10.51,11.48,16.37Zm167.75-12.1c-.63-2.34-1.17-4.68-1.9-7-2.93-9.19-4.33-9.63-13.2-7.33-10.13,2.63-20.44,4.59-30.69,6.74-16.23,3.39-32.35,7.61-48.75,9.74-11.11,1.45-12.19,9.14-14.86,16.83-.72,2.1-2.52,5.19-4.1,5.37-4.28.47-43.33,6.79-47.56,7.37-.54-3.69-1.12-7.71-1.85-12.77,7.14-1.53,15.31-3.39,23.53-4.94,1.26-.24,12.14-2.73,10.78-4.86-10.1-15.86-19.5-33.38-29.84-49.09q-7.53-11.44-14.92-23c-.69-1.06-21-18.47-25.68-21.16-7.09-4.07-14.1-1.64-21.15-.81-4.1.48-8.11,1.8-12.21,2.07-1.4.09-3.39-1.59-4.35-3-21.17-30.66-42-61.59-63.54-92h0c0-1,11.86-7.45,29-16.12L793.4,985s95.2-43.5,97.88-45c1.89-1.06,3.5-1.28,5.82,1.39a38.27,38.27,0,0,0,4.13,7.4c12.82,19,25.89,37.92,38.9,56.83,8.06,11.72,15.89,23.6,24.39,35a24.92,24.92,0,0,0,10.39,7.53c11.51,4.66,23.34,8.5,34.92,13a14.51,14.51,0,0,1,6.2,5c7.22,10.43,14.09,21.09,21.18,31.61,6.73,10,14.13,19.55,20.1,30,2.56,4.45,2.25,10.54,3.26,16Zm36.4-31.75-12.3,5.78c-5.93-8.35-12.17-16.71-17.94-25.37-8.84-13.29-17.2-26.88-26.13-40.1a17.78,17.78,0,0,0-7.78-5.83c-10.43-4.3-21.1-8-31.57-12.22-2.5-1-5.25-2.58-6.75-4.69Q953,1002.35,929.9,968.93c-7.09-10.23-13.79-20.73-20.84-31-1-1.47-3-2.26-3.87-2.89,1.21-9.4,2.63-18.54,3.42-27.73a15.77,15.77,0,0,0-2.17-8.42c-2.43-4.38-4.81-9.36-8.61-12.26-4.47-3.42-10.26-5.47-15.78-7.11-11.69-3.49-23.59-6.26-35.36-9.45-21.45-5.79-43-11.28-64.23-17.75-7.08-2.16-13.78-6.32-19.93-10.6-19.4-13.52-38.5-27.47-57.63-41.38q-35.08-25.5-70-51.25c-5.73-4.24-10.76-9.44-16.56-13.57q-.83-.59-1.68-1.14s-1.23-9.69-3-14.81c-1.29-3.64-12.25-30.35-19.24-46.15,26,17.76,84.21,56.06,96.39,64.57,29.24,20.41,58.7,40.54,87.68,61.33,6,4.33,9,.51,12.43-2.31,4-3.29.9-6.09-1.57-8.88-8.93-10.08-17.62-20.36-26.56-30.43q-27.88-31.38-56-62.57c-4-4.39-8.73-8.07-13.06-12,4.83-1.69,8.11-3.2,11.56-3.87a9.17,9.17,0,0,1,5.8,1.29q30.92,18,61.67,36.22c7.9,4.66,15.74,9.4,23.91,14.29-2.91,5.1-.29,7.71,4.08,9.65,6.57,2.9,13.07,5.94,19.87,9-2.52,3.59-5.32,6.77-7.07,10.45-.55,1.15.15,2.9.73,4.59a1.91,1.91,0,0,0,2.21,1.25c1.58-.32,3.23-.61,4-1.58,3.12-4.12,5.6-8.73,8.32-13.16,2-3.35,2.38-5.7-2.29-7.52-7.63-3-15-6.74-22.81-10.35,2.05-4.55.63-7.11-3.6-9.54-15.11-8.66-29.83-18-44.84-26.8-14.66-8.61-29.49-16.91-44.91-25.73,11.75-7.87,22.83-15.05,33.65-22.6,13.82-9.64,27.83-19.09,41-29.6,6.49-5.19,12.13-5.24,19-2.36C831.57,628.43,859.29,640,887,651.64c6.22,2.63,12.27,5.68,19,8.8-5.1,1.52-9.9,2.85-14.62,4.45-1.28.44-3.28,1.78-3.21,2.55a5.51,5.51,0,0,0,2.46,4c9.43,4.53,18.67,9.89,28.61,12.71,6.19,1.76,13.54-.14,20.29-1,4.49-.57,8.79-2.47,13.27-3.19,1.59-.25,3.64,1,5.17,2,20,13.26,39.88,26.75,60,39.89,17.76,11.6,35.63,23,53.73,34.08,6.32,3.86,2.55,8.79,2.07,12.75-2,16.93-5,33.75-7.4,50.64-.2,1.41,1.16,3,1.27,3.31-7.45,6.46-14.88,12.58-21.82,19.21-1.34,1.28-1,4.57-1,6.93-.14,8.5-4.09,11.32-12.65,10.79a21.44,21.44,0,0,0-12.77,3.26c-6.86,4.35-12.93,9.94-19.38,15.07-18.64-2.53-38.52-4.92-58.27-8.1-4.93-.8-9.88-3.53-14.07-6.46-19.29-13.52-37.91-28-57.57-41-15.22-10-31.6-18.31-47.48-27.34-4.75-2.7-9.44-5.57-14.4-7.82a4.35,4.35,0,0,0-5.92,4.34,4.39,4.39,0,0,0,.68,2.1c14.54,20.56,35.49,33.53,55.95,47.14,10.58,7,26.43,18.63,32.6,23.23,6.37,4.75,8.82,6.49,12.18-.46,2.5-5.18,4.37-4.73,8.14-1.7,4.59,3.69,9.61,6.85,12.9,9.15-2.51,7.49-5,14.55-7.16,21.7-.29,1,.74,3.33,1.26,3.36,8.54.48,9.82,8.67,14.34,13.33,2.21,2.28,2.65,4.21,1.06,5-5,2.46-11.36,11.25-6,17.36,5.21,5.88,7,8.35,9.43,12.75,6.74,12.18,44.8,69,48.07,75.45,1,1.93,42.84,12.66,50.28,14.86,4.32,6.33,8.41,11.76,11.81,17.59,1.21,2.08.9,5.13,1,7.75.14,3.7-1.17,8.45,5.55,6.14.56-.2,1.64-.34,1.78-.09,2.89,4.93,7.73,9.8,8,14.92.4,7.36-.34,8.16,6.72,6.5l12,17.82C1081.52,1109.71,1080.54,1113,1079.05,1117.9ZM1021.7,992.54a20.32,20.32,0,0,1,3.43,5.84c-12.64-7.32-26.35-12.41-35.41-25.64-17.78-26-36.84-51-56.61-78.19,14.55,1.73,27.64,3.12,40.66,5a11.71,11.71,0,0,1,7,4.05c5.93,7.85,10.86,16.48,17.09,24,6.05,7.35,7.23,16.14,7.55,24.54A62.23,62.23,0,0,0,1021.7,992.54Zm-7.8-26.84c5-2.2,8.45-4.26,12.13-5,1.65-.34,4.52,1.43,5.67,3.07,11.45,16.26,22.65,32.69,31.16,45.06-3.5,5.82-6.55,10.91-10.22,17C1040.4,1004.08,1024.41,986.62,1013.9,965.7Zm19.68,60.25c-9.2-2.81-32.37-9.39-40.06-11.87a5.65,5.65,0,0,1-2.41-2.23c-10.88-15.34-46.24-68.57-57-84-.52-.75-5.87-3.88,6.42-9,3.46,3.35,41,54.39,42.89,58.46,6.6,14.43,20.33,20.08,32.51,27.38,3.93,2.35,6.92,4.61,9.18,8.39S1030.08,1020.71,1033.58,1026ZM893,855.78q-32.82-23.21-65.43-46.3l1-1.69c3,1.56,6,3,8.87,4.7,18.73,11.55,37.39,23.2,56.12,34.75C897.56,849.7,897,852.14,893,855.78ZM1112.1,1075.1a46,46,0,0,1-11.66,22.65c-7.51-11.65-41.28-63.41-42.43-65.64l11.31-13.4c7.62,11.6,14.59,23.1,22.53,33.88a39.85,39.85,0,0,0,13.54,11.47C1110.51,1066.68,1113.62,1067.75,1112.1,1075.1Zm-3.72-18.28c-5.91-1.23-8.53-5.48-11.5-9.92-18-26.89-35.78-54-54.49-80.36-7.82-11-10.8-23-10.84-35.71,0-11.47-5.09-20-11.51-28.48-4.86-6.41-9.35-13.08-13.75-19.28,5.38-4.31,10.67-8.24,15.59-12.59,3.57-3.15,7.12-4.18,11.78-2.82,8.66,2.55,20.21-6.59,20.44-15.7.07-2.75,0-6.42,1.55-8.05,4.13-4.19,9.08-7.62,14-10.92.52-.35,3.32,1.81,4.39,3.29,4.6,6.38,9.44,12.66,13.26,19.51,4.83,8.66,13.25,12.58,21.47,15,11.9,3.53,19,11.29,25.29,20.9,17.58,26.67,35.8,52.93,52.64,80,3.68,5.92,4.68,15.11,3.37,22.14-1.65,8.85-15.86,11.24-25,8.21-14.16-4.66-13.91-17.13-16.93-27.57-5.14-17.77-8.85-35.77-21.54-50.53-8-9.37-14.1-20.43-21.43-30.45-.89-1.22-2.79-1.71-4.63-2.23a1.48,1.48,0,0,0-1.9,1.48c.06,1.65.11,3.31.89,4.48,8.81,13.31,17.63,26.64,27,39.54,8.17,11.22,8.82,24.87,13.3,37.26.65,1.81.88,3.76,1.72,7.43-6.24-9.07-7.6-9.18-14.89-2.47-1,.87-2.57,2.22-3.59,3-6.42,4.91-6.25,6.48-1.16,14a4.33,4.33,0,0,1,1.1,3.56c-7.75-5.87-16.45-10.85-23-17.84-8.58-9.11-15.61-19.72-23-29.88-4-5.46-7.23-11.46-11.18-17-2.58-3.57-5.5-7.23-10.92-6-3.42.79-4.5,2.58-2.42,5.66,10.95,16.31,21.17,33.18,33.19,48.65,6,7.78,15.36,13,23.22,19.37,6.67,5.38,13.93,10.19,19.81,16.31,2.51,2.62,2.18,8,3.17,12,3.45,14.23-5.68,22.16-15.42,30.13C1113.92,1059.75,1111.33,1057.43,1108.38,1056.82Zm83.72,22.38c-4.54.57-28,2.09-32.69,2.68-2-5.78-4.14-12.17-6.3-18.52,7.89,3,33.26,11,39.29,13.33C1195.37,1077.73,1194.6,1078.92,1192.1,1079.2Zm2.5,13.15c-4,.86-15.17,5-20.8-3.37C1190.14,1087.46,1192.59,1086.54,1194.6,1092.35Zm-53-60.79c12.72,5.18,22.27,13,23,27.88C1148.41,1055.56,1141.37,1047.11,1141.6,1031.56Zm16.1-1.24c-5.19-2.62-9.87-6.26-15.29-9.84,4.06-3.42,10.32-9,14.25-12.3,6.09,4.07,11.85,8.25,19.8,13.57-3.14,2.28-8,6.72-10.94,8C1163.2,1030.75,1159.74,1031.35,1157.7,1030.32Zm-20.49-23.79c-2.84-4.11-8.16-13.36-11.15-17.68l7.13-5C1147.86,998.38,1147.86,1001.35,1137.21,1006.53Zm-18.82,81.6c0-4.87,0-9.73,0-14.6a.5.5,0,0,1,.92-.26l14.21,23.34C1121.18,1100.62,1118.41,1098.63,1118.39,1088.13Zm5.13-21.38,11.81-12.51,15.58,24.77-11.64,11.14Zm63.19,41.21c-1.82,1.57-10.27,8.71-11.35,9.49-9.11-7.12-18.7-12.81-27.5-19.7.16-.6,7.47-8.26,7.64-8.85,1.93.53,4.17.63,5.74,1.69,4,2.7,7.31,4.33,11.2,7.16,6,4.35,14.23,4.34,23.27,1.55C1193,1102.18,1188.52,1106.38,1186.71,1108Zm17-15.61c-7.41-18.69-3.71-16.25,5.8-20.15C1215.48,1084.08,1213.48,1084.37,1203.66,1092.35Zm4.7-32c-.13,2.61-14.35,7.56-21.21,4.93-8.38-3.21-12.76-7.18-16-15.34-3-7.44-3.18-12.55,3.63-17.26a61.33,61.33,0,0,0,7.65-6.84c5.81,4.23,16.45,10.21,19.23,15.33C1204.91,1047.21,1208.7,1053.24,1208.36,1060.36Zm-5-28.8-21.7-19,12.7-9.51c4.56,7.3,8.92,14,12.79,20.86S1206.65,1034.54,1203.34,1031.56Zm2.19-28.53c-13.77-10.45-2.25-19.22-16.75-40.13-.1-.14-16.34-27.87-17.46-30.62-.89-2.18,5.59-4.95,7.34-5.68,8.1,12.3,36.87,54.77,44.26,66Zm30.21-17.27c-2.56-1.1-10.12-8.76-11.51-10.7-7.67-10.73-34.67-49.62-39.15-59.2-2.17-4.63-4.6-8.12-3.44-15.21,3.22-19.65-2.57-36.22-5.18-39.7-15.3-20.3-24.31-31.84-39.36-52.32-3.08-4.19-4.48-9.61-6.69-14.45-.44-1-10.06-14.53-15-20.82-.82-1-3.58-2.64-5.27-2.41-2.21.3-4.2,2.14-6.9,3.66-2.15-3.13-5.15-7.37-8-11.72-.46-.71-.58-2.47-.18-2.74a4.53,4.53,0,0,1,3.28-.65c5.69,1.41,11.79,2.17,16.86,4.84,4.36,2.29,8.21,6.36,11.1,10.47,12.32,17.53,45.21,66.05,49.52,72.57,11.61,17.56,12.91,22.29,13.51,35.38.82,17.86,10.71,31.39,20,45.35C1218.09,941.2,1231,961.44,1239,975,1240.28,977.18,1236.94,982.1,1235.74,985.76Zm16.37-79.09c-2.31,16.05-2.77,18.27-5.65,39.75-1.93,14.4-2.9,20.38-7.81,12.42s-28.61-43.12-36.43-57.22a46,46,0,0,1-5.59-20.79c-.64-18.12-10.07-31.83-19.87-45.8-12.56-17.91-24.55-36.22-36.77-54.36-4.24-6.3-8-13-12.84-18.77a12.49,12.49,0,0,0-3-2.48h0c0-4.39,15.18-45.22,18.26-48.79,2.48-2.89-10.39-14.86-17.29-21.6,3.78-9.61,7.18-17.85,9.44-22.52a110.22,110.22,0,0,1,11.56,14.71q23.72,34.65,47.76,69.07c2.35,3.36,3.73,6.53,2.3,10.62-2.77,7.93.28,13.81,3.38,22.06,4.8,12.77,9.67,17.57,19.35,32.21,10.93,16.53,23,32.53,32,50.17C1256.65,876.4,1253,900.41,1252.11,906.67Zm21.19-91.13c-5.26,5.55-11.68,9.77-16.76,15.54-7.3-14.66-2.94-24.44,15.39-38.36C1279.21,803.62,1282,806.36,1273.3,815.54ZM1288.43,803c-3.56-5-8.54-12.7-11.43-16.78l26.44-21.32,8.33,13.18Z"/></g></g></svg>