<svg xmlns="http://www.w3.org/2000/svg" viewBox="0 0 1500 1500"><title>Alliance Crusader</title><g id="Alliance_Crusader" data-name="Alliance Crusader"><g id="Colour"><path d="M1396,1080.3c-7.6-8.34-13.91-17.46-17.94-28.11a66.38,66.38,0,0,0-18-26.2c-6.47-5.85-12.5-12.21-18.55-18.51-2.67-2.78-4.88-6-7.25-9,1.12-1.73,1.92-3.16,2.91-4.45,2.58-3.39,2.66-6.67.4-10.37a133.76,133.76,0,0,1-6.3-12.05c-.52-1.09-.91-2.78-.43-3.73,2.14-4.24,4.62-8.31,7.08-12.62,3.56,2.13,7,3.93,10.13,6.12s5.53,1.54,8.14-.59c4-3.26,6.83-10.16,5.34-13.41-8.39-18.37-16.68-36.79-25.29-55.06-2.33-4.93-5.65-9.4-8.51-14.08a55.06,55.06,0,0,1-3.36-5.66c-1.48-3.28-1.91-7.34-4.13-9.92-9.67-11.27-19.82-22.13-29.81-33.12q-16.31-17.94-32.65-35.86c-15.51-17-31-34-46.61-50.85-9.06-9.72-18.41-19.18-27.81-28.56-4.21-4.2-8.7-8.12-13.09-12.14a.5.5,0,0,1,.57-.8c7.39,4,17.8,9.4,31,16.79s26.39,16.81,37.08,23.27a13.31,13.31,0,0,0,11.08,1.23l10-3.32a14,14,0,0,0,6.66-4.74l18.12-23.55,15.86-32.74,0-.09c1-3.46,1.82-6.9,3.11-10.25,2.68-7,2.27-13.38-1.81-19.85-7.65-12.13-11.1-26.88-23.15-36.27-9.35-7.29-17.57-16.17-29-20.56-2.59-1-6.74-2.82-9.24-4-9.33-4.39-18.47-9.23-28-13-4.75-1.89-10.62-1-15.35-2.94-15.79-6.41-31.2-13.72-46.93-20.24-7.73-3.2-15.72-6.94-23.83-7.65-8.71-.76-17-1.54-24.79-5.64-3.06-1.61-6.43-2.63-9.61-4a22.37,22.37,0,0,0-17.17-.38L1051.07,545s-3.59,3.21-2.94,6.42,4.76,13.15,4.76,13.15a10.74,10.74,0,0,1,.79,7.33c-3.07,9.69-1.37,19.56-1.69,29.33-.09,2.89-.73,4.49-3.79,4.87-4.79.6-7.77,2.5-8.62,6.48a22.72,22.72,0,0,0-8.56,3c-.67.4-2.32-.37-3.27-1-6.26-4-12.19-8.64-18.72-12.13-23.23-12.41-46.54-24.66-70-36.54-13.85-7-28.07-13.29-42.21-19.7-6.87-3.12-13.95-5.78-20.26-8.37,2.45-6.24,4.79-12,6.93-17.76,1.16-3.16,2-6.45,2.93-9.68.86-2.86,1.54-5.8,2.61-8.59a17.28,17.28,0,0,0-1.51-16.49c-6.35-10.08-9.22-22.34-19.23-30.14-7.58-5.9-14.26-13.07-23.35-16.81-2.25-.92-5.94-2.46-8.15-3.49-7.84-3.68-15.51-7.75-23.53-10.94-4-1.57-8.83-.85-12.76-2.45-13.12-5.32-25.93-11.4-39-16.81-6.42-2.66-13.06-5.77-19.81-6.36-7.24-.63-14.1-1.28-20.59-4.69-2.55-1.34-5.35-2.19-8-3.34A18.58,18.58,0,0,0,698.8,390c-5.16,1.86-10.62,3.86-15.83,5.8-13.3,4.95-7.15,14.51-7.15,14.51,1.58,1.8,3.63,3.47,4.71,5.62a8.9,8.9,0,0,1,.66,6.09c-2.55,8.05-1.14,16.26-1.4,24.38-.08,2.4-.61,3.73-3.15,4-4.47.56-9.34,4.31-9.65,8.51-.51,6.86-.14,13-.14,20.13-5.15-1.59-42.23-12.94-54.86-17.32-1.27-.43-2.91-1.54-3.21-2.65-.77-2.86-2.41-4-5.18-4.6-10-2.14-27.59-6.14-27.59-6.14l-5.78-9.62s12.34-.64,13.35-1.86L656.13,353a3.83,3.83,0,0,0,.93-3l-1.19-9a3.76,3.76,0,0,0-.94-2.06l-2.14-2.4A3.74,3.74,0,0,0,651,335.4l-41.65-12.26a3,3,0,0,0-2.1.14l-17,7.56a3,3,0,0,0-1.81,2.64l-.13,3.12L474.33,384.75a2.37,2.37,0,0,1-2-.07l-2.7-1.36a2.38,2.38,0,0,0-2.26.05c-1.65.94-6,3-6.32,3.07-1.29.34-14.55.5-15.78.83l-1.53,2.13a2.39,2.39,0,0,0-.45,1.44l0,3.16-4.67-2.33a14.93,14.93,0,0,0-3.46.12L422.28,394l-6.91,5.29-1.47.79a2.19,2.19,0,0,0-1.18,1.95v1.94l-141.28,27a2.7,2.7,0,0,1-2-.36l-3.4-2.06a2.73,2.73,0,0,0-1.83-.36L247.45,431a4.87,4.87,0,0,0-4.09,4.8V446a3.37,3.37,0,0,0,1.76,3c8.26,4.54,43,23.48,47.93,23.47,13.35.49,125.63-.19,138.67.29L399,488.46c-3.57,1.67-5.2,4.58-4.87,8.16.61,6.41.22,13.21,5.26,18.09-.95,1.77-1.78,3.16-2.47,4.61-8.39,17.67-16.73,35.37-25.2,53a11.65,11.65,0,0,1-3.52,4.29c-12.35,8.91-24.81,17.65-37.2,26.5-7,5-8,4.56-3.48,13.13.09.18,0,.44,0,.75a5.11,5.11,0,0,1-.85.6C309.45,625.78,292.26,634,275,642a5.31,5.31,0,0,1-4.35-.35c-7.63-4.85-15.5-9.46-22.53-15.1-4.67-3.74-10.1-3.35-14.63-3.16-5.77.25-11.4,3.8-17.08,6a.9.9,0,0,0-.52.53c-.77,4.54-5.24,4.83-8.11,6.89a4.19,4.19,0,0,1-3.78-.2c-7.47-4.87-14.71-10.1-22.24-14.88-5.26-3.35-10.56-7.46-16.41-8.83-5.33-1.25-9.3-4-13.63-6.58-2.48-1.48-4.75-3.33-7.25-4.78-3.59-2.08-7.18-3.9-11.64-2.18-10.27,4-20.7,7.54-30.93,11.6-8.74,3.47-11.41,9-9.27,18.11.46,2,.78,4.84,2.13,5.63,5,2.91,5.6,6.17,5.23,12.24,0,.48,0,1,0,1.51-.28,4.52-.55,9-.85,13.55-.72,10.91-1.69,21.8-2,32.72a16.52,16.52,0,0,0,2.7,9c10.19,15.33,23.28,28,37.52,40-.88.6-1.57,1.1-2.29,1.56-4.25,2.74-4.43,4.7-.54,7.71,6.47,5,13,10,19.53,14.92q33.36,25.39,66.78,50.72c1.06.81,3,1.54,4,1.14,6.77-2.54,13.42-5.4,20.55-8.33,6.38,5.11,12.71,10.29,19.17,15.29,2.28,1.77,4.74,3.12,7.95,1.64,8.77-4,17.64-7.86,26.42-11.86,1.22-.55,2.88-1.39,3.21-2.45,4.42-14.26,14.54-26.45,13.23-42.84a63.13,63.13,0,0,1,2.57-23.7c1.42-4.56-.4-7.59-2.41-10.78-4-6.31-7.87-12.67-12.13-19.55,5.17-.7,9-1.31,13.3-1.67,6.82-.57,13.62-1.32,20.39-2.31,9.45-1.38,9.54-.42,8.65-7.13a28.51,28.51,0,0,1,0-3.6c14.23-2.81,28-5.51,41.82-8.26,8.28-1.66,16.45-3.84,25.09-2.73,13.53,1.72,27.08,3.28,40.65,4.53,13.87,1.27,27.78,2.11,41.68,3.09,11.65.81,23.32,1.37,34.95,2.39,4.55.39,9.58.7,13.4,2.83,13.6,7.56,26.83,15.81,40.06,24,2.19,1.35,9.08,5,9.82,7.43,6,20,7.84,26.12,14,44.83.39,1.19,17,12.59,17,12.59C619.5,801.59,610,818.66,605,826.77a17.39,17.39,0,0,1-6.13,5.77q-60,32.91-120.07,65.59c-4.86,2.66-10.08,5-14.47,8.31-5.95-4.53-6.08-3.71-14.39-.79-6.92,2.43-8.05,2.07-15.26,4.79a1.16,1.16,0,0,0-.65.69c-.21,1-.48,2-.48,2s-4.9,4.74-14.65,13.83c0,0-5.19-3.85-6.39-4.64-9.49-6.18-18.68-12.82-28.23-18.89-6.69-4.24-13.41-9.46-20.83-11.2-6.77-1.59-11.81-5.09-17.31-8.36-3.15-1.88-6-4.22-9.2-6.06-4.55-2.64-9.11-5-14.78-2.77-13,5-26.27,9.57-39.25,14.72-11.11,4.4-14.49,11.39-11.78,23,.59,2.52,1,6.15,2.71,7.14,6.37,3.7,7.35,6.1,6.64,15.54,0,.61-3.25,46.8-3.68,60.65a20.88,20.88,0,0,0,3.43,11.46c12.93,19.47,29.54,35.62,47.63,50.83-1.12.76-2,1.4-2.92,2-5.39,3.48-5.62,6-.68,9.78,8.22,6.37,16.51,12.64,24.79,18.94q42.34,32.24,84.76,64.39a6.43,6.43,0,0,0,6.66.86c4.07-1.58,24.56-10,24.56-10,8.1,6.48,16.13,13,24.33,19.41,2.89,2.24,6,4,10.1,2.08,11.13-5.13,22.38-10,33.54-15.06,1.54-.7,3.65-1.77,4.06-3.11,5.05-16.26,15.93-30.4,16.89-48.2.69-13,2.31-26,3.74-38.91.49-4.38-1.48-7.64-3.62-11-5-8-10-16.08-15.4-24.81,7.18-1,12.29-1.81,18.47-2.25a263,263,0,0,0,26.85-3.11c8.08-1.41,9.13.24,9-6.19q64.6-17.51,129.22-35c4.33-1.18,8.71-2.82,13.1-3,6.23-.2,12.48.92,18.73,1.25,7.43.39,14.87.46,22.29.85a53.43,53.43,0,0,1,8.13,1.25c13.57,2.82,27.13,5.63,40.66,8.62,5.94,1.31,12.4,1.94,17.57,4.8,22,12.12,43.64,24.93,65.32,37.63,1.68,1,103.34,58.57,105.52,59.77q17.85,9.78,35.84,19.29c5.52,2.92,11,6.21,16.91,8a41.78,41.78,0,0,1,9.88,4.13c6.64,4,13.1,8.57,20.15,11.76,12.2,5.52,24.78,10.2,37.22,15.18,2.25.9,4.18.92,5.87-1.57,2.6-3.85,5.73-7.36,8.54-11.08,1.39-1.83,2.91-2.3,5.22-1.79,7.16,1.57,14.34,3.12,21.58,4.24,11.24,1.75,22.54,3.11,33.81,4.7,2.18.31,45.43,4.61,50.76,4.88,11,.56,22,1.49,33,2.18,6,.37,12.09.47,18.12.82,7.14.41,11.67.54,21.41.4,5.8-.08,9-.4,9.61-4.25.77-4.77,4.87-6.24,7.82-8.4,3.65-2.68,8.68-3.43,12.45-6,6.32-4.28,13.15-8.48,17.89-14.26,6.72-8.19,11.79-17.75,17.46-26.79C1399.55,1086.88,1399.2,1083.8,1396,1080.3ZM245.31,811.44c-.32-.18-.16-.12,0,0Z" fill="#444d59"/><path d="M1396,1080.3c-7.6-8.34-13.91-17.46-17.94-28.11a66.38,66.38,0,0,0-18-26.2c-6.47-5.85-12.5-12.21-18.55-18.51-2.67-2.78-4.88-6-7.25-9,1.12-1.73,1.92-3.16,2.91-4.45,2.58-3.39,2.66-6.67.4-10.37a133.76,133.76,0,0,1-6.3-12.05c-.52-1.09-.91-2.78-.43-3.73,2.14-4.24,4.62-8.31,7.08-12.62,3.56,2.13,7,3.93,10.13,6.12s5.53,1.54,8.14-.59c4-3.26,6.83-10.16,5.34-13.41-8.39-18.37-16.68-36.79-25.29-55.06-2.33-4.93-5.65-9.4-8.51-14.08a55.06,55.06,0,0,1-3.36-5.66c-1.48-3.28-1.91-7.34-4.13-9.92-9.67-11.27-19.82-22.13-29.81-33.12q-16.31-17.94-32.65-35.86c-15.51-17-31-34-46.61-50.85-9.06-9.72-18.41-19.18-27.81-28.56-4.21-4.2-8.7-8.12-13.09-12.14a.5.5,0,0,1,.57-.8c7.39,4,17.8,9.4,31,16.79s26.39,16.81,37.08,23.27a13.31,13.31,0,0,0,11.08,1.23l10-3.32a14,14,0,0,0,6.66-4.74l18.12-23.55,15.86-32.74,0-.09c1-3.46,1.82-6.9,3.11-10.25,2.68-7,2.27-13.38-1.81-19.85-7.65-12.13-11.1-26.88-23.15-36.27-9.35-7.29-17.57-16.17-29-20.56-2.59-1-6.74-2.82-9.24-4-9.33-4.39-18.47-9.23-28-13-4.75-1.89-10.62-1-15.35-2.94-15.79-6.41-31.2-13.72-46.93-20.24-7.73-3.2-15.72-6.94-23.83-7.65-8.71-.76-17-1.54-24.79-5.64-3.06-1.61-6.43-2.63-9.61-4a22.37,22.37,0,0,0-17.17-.38L1051.07,545s-3.59,3.21-2.94,6.42,4.76,13.15,4.76,13.15a10.74,10.74,0,0,1,.79,7.33c-3.07,9.69-1.37,19.56-1.69,29.33-.09,2.89-.73,4.49-3.79,4.87-4.79.6-7.77,2.5-8.62,6.48a22.72,22.72,0,0,0-8.56,3c-.67.4-2.32-.37-3.27-1-6.26-4-12.19-8.64-18.72-12.13-23.23-12.41-46.54-24.66-70-36.54-13.85-7-28.07-13.29-42.21-19.7-6.87-3.12-13.95-5.78-20.26-8.37,2.45-6.24,4.79-12,6.93-17.76,1.16-3.16,2-6.45,2.93-9.68.86-2.86,1.54-5.8,2.61-8.59a17.28,17.28,0,0,0-1.51-16.49c-6.35-10.08-9.22-22.34-19.23-30.14-7.58-5.9-14.26-13.07-23.35-16.81-2.25-.92-5.94-2.46-8.15-3.49-7.84-3.68-15.51-7.75-23.53-10.94-4-1.57-8.83-.85-12.76-2.45-13.12-5.32-25.93-11.4-39-16.81-6.42-2.66-13.06-5.77-19.81-6.36-7.24-.63-14.1-1.28-20.59-4.69-2.55-1.34-5.35-2.19-8-3.34A18.58,18.58,0,0,0,698.8,390c-5.16,1.86-10.62,3.86-15.83,5.8-13.3,4.95-7.15,14.51-7.15,14.51,1.58,1.8,3.63,3.47,4.71,5.62a8.9,8.9,0,0,1,.66,6.09c-2.55,8.05-1.14,16.26-1.4,24.38-.08,2.4-.61,3.73-3.15,4-4.47.56-9.34,4.31-9.65,8.51-.51,6.86-.14,13-.14,20.13-5.15-1.59-42.23-12.94-54.86-17.32-1.27-.43-2.91-1.54-3.21-2.65-.77-2.86-2.41-4-5.18-4.6-10-2.14-27.59-6.14-27.59-6.14l-5.78-9.62s12.34-.64,13.35-1.86L656.13,353a3.83,3.83,0,0,0,.93-3l-1.19-9a3.76,3.76,0,0,0-.94-2.06l-2.14-2.4A3.74,3.74,0,0,0,651,335.4l-41.65-12.26a3,3,0,0,0-2.1.14l-17,7.56a3,3,0,0,0-1.81,2.64l-.13,3.12L474.33,384.75a2.37,2.37,0,0,1-2-.07l-2.7-1.36a2.38,2.38,0,0,0-2.26.05c-1.65.94-6,3-6.32,3.07-1.29.34-14.55.5-15.78.83l-1.53,2.13a2.39,2.39,0,0,0-.45,1.44l0,3.16-4.67-2.33a14.93,14.93,0,0,0-3.46.12L422.28,394l-6.91,5.29-1.47.79a2.19,2.19,0,0,0-1.18,1.95v1.94l-141.28,27a2.7,2.7,0,0,1-2-.36l-3.4-2.06a2.73,2.73,0,0,0-1.83-.36L247.45,431a4.87,4.87,0,0,0-4.09,4.8V446a3.37,3.37,0,0,0,1.76,3c8.26,4.54,43,23.48,47.93,23.47,13.35.49,125.63-.19,138.67.29L399,488.46c-3.57,1.67-5.2,4.58-4.87,8.16.61,6.41.22,13.21,5.26,18.09-.95,1.77-1.78,3.16-2.47,4.61-8.39,17.67-16.73,35.37-25.2,53a11.65,11.65,0,0,1-3.52,4.29c-12.35,8.91-24.81,17.65-37.2,26.5-7,5-8,4.56-3.48,13.13.09.18,0,.44,0,.75a5.11,5.11,0,0,1-.85.6C309.45,625.78,292.26,634,275,642a5.31,5.31,0,0,1-4.35-.35c-7.63-4.85-15.5-9.46-22.53-15.1-4.67-3.74-10.1-3.35-14.63-3.16-5.77.25-11.4,3.8-17.08,6a.9.9,0,0,0-.52.53c-.77,4.54-5.24,4.83-8.11,6.89a4.19,4.19,0,0,1-3.78-.2c-7.47-4.87-14.71-10.1-22.24-14.88-5.26-3.35-10.56-7.46-16.41-8.83-5.33-1.25-9.3-4-13.63-6.58-2.48-1.48-4.75-3.33-7.25-4.78-3.59-2.08-7.18-3.9-11.64-2.18-10.27,4-20.7,7.54-30.93,11.6-8.74,3.47-11.41,9-9.27,18.11.46,2,.78,4.84,2.13,5.63,5,2.91,5.6,6.17,5.23,12.24,0,.48,0,1,0,1.51-.28,4.52-.55,9-.85,13.55-.72,10.91-1.69,21.8-2,32.72a16.52,16.52,0,0,0,2.7,9c10.19,15.33,23.28,28,37.52,40-.88.6-1.57,1.1-2.29,1.56-4.25,2.74-4.43,4.7-.54,7.71,6.47,5,13,10,19.53,14.92q33.36,25.39,66.78,50.72c1.06.81,3,1.54,4,1.14,6.77-2.54,13.42-5.4,20.55-8.33,6.38,5.11,12.71,10.29,19.17,15.29,2.28,1.77,4.74,3.12,7.95,1.64,8.77-4,17.64-7.86,26.42-11.86,1.22-.55,2.88-1.39,3.21-2.45,4.42-14.26,14.54-26.45,13.23-42.84a63.13,63.13,0,0,1,2.57-23.7c1.42-4.56-.4-7.59-2.41-10.78-4-6.31-7.87-12.67-12.13-19.55,5.17-.7,9-1.31,13.3-1.67,6.82-.57,13.62-1.32,20.39-2.31,9.45-1.38,9.54-.42,8.65-7.13a28.51,28.51,0,0,1,0-3.6c14.23-2.81,28-5.51,41.82-8.26,8.28-1.66,16.45-3.84,25.09-2.73,13.53,1.72,27.08,3.28,40.65,4.53,13.87,1.27,27.78,2.11,41.68,3.09,11.65.81,23.32,1.37,34.95,2.39,4.55.39,9.58.7,13.4,2.83,13.6,7.56,26.83,15.81,40.06,24,2.19,1.35,9.08,5,9.82,7.43,6,20,7.84,26.12,14,44.83.39,1.19,17,12.59,17,12.59C619.5,801.59,610,818.66,605,826.77a17.39,17.39,0,0,1-6.13,5.77q-60,32.91-120.07,65.59c-4.86,2.66-10.08,5-14.47,8.31-5.95-4.53-6.08-3.71-14.39-.79-6.92,2.43-8.05,2.07-15.26,4.79a1.16,1.16,0,0,0-.65.69c-.21,1-.48,2-.48,2s-4.9,4.74-14.65,13.83c0,0-5.19-3.85-6.39-4.64-9.49-6.18-18.68-12.82-28.23-18.89-6.69-4.24-13.41-9.46-20.83-11.2-6.77-1.59-11.81-5.09-17.31-8.36-3.15-1.88-6-4.22-9.2-6.06-4.55-2.64-9.11-5-14.78-2.77-13,5-26.27,9.57-39.25,14.72-11.11,4.4-14.49,11.39-11.78,23,.59,2.52,1,6.15,2.71,7.14,6.37,3.7,7.35,6.1,6.64,15.54,0,.61-3.25,46.8-3.68,60.65a20.88,20.88,0,0,0,3.43,11.46c12.93,19.47,29.54,35.62,47.63,50.83-1.12.76-2,1.4-2.92,2-5.39,3.48-5.62,6-.68,9.78,8.22,6.37,16.51,12.64,24.79,18.94q42.34,32.24,84.76,64.39a6.43,6.43,0,0,0,6.66.86c4.07-1.58,24.56-10,24.56-10,8.1,6.48,16.13,13,24.33,19.41,2.89,2.24,6,4,10.1,2.08,11.13-5.13,22.38-10,33.54-15.06,1.54-.7,3.65-1.77,4.06-3.11,5.05-16.26,15.93-30.4,16.89-48.2.69-13,2.31-26,3.74-38.91.49-4.38-1.48-7.64-3.62-11-5-8-10-16.08-15.4-24.81,7.18-1,12.29-1.81,18.47-2.25a263,263,0,0,0,26.85-3.11c8.08-1.41,9.13.24,9-6.19q64.6-17.51,129.22-35c4.33-1.18,8.71-2.82,13.1-3,6.23-.2,12.48.92,18.73,1.25,7.43.39,14.87.46,22.29.85a53.43,53.43,0,0,1,8.13,1.25c13.57,2.82,27.13,5.63,40.66,8.62,5.94,1.31,12.4,1.94,17.57,4.8,22,12.12,43.64,24.93,65.32,37.63,1.68,1,103.34,58.57,105.52,59.77q17.85,9.78,35.84,19.29c5.52,2.92,11,6.21,16.91,8a41.78,41.78,0,0,1,9.88,4.13c6.64,4,13.1,8.57,20.15,11.76,12.2,5.52,24.78,10.2,37.22,15.18,2.25.9,4.18.92,5.87-1.57,2.6-3.85,5.73-7.36,8.54-11.08,1.39-1.83,2.91-2.3,5.22-1.79,7.16,1.57,14.34,3.12,21.58,4.24,11.24,1.75,22.54,3.11,33.81,4.7,2.18.31,45.43,4.61,50.76,4.88,11,.56,22,1.49,33,2.18,6,.37,12.09.47,18.12.82,7.14.41,11.67.54,21.41.4,5.8-.08,9-.4,9.61-4.25.77-4.77,4.87-6.24,7.82-8.4,3.65-2.68,8.68-3.43,12.45-6,6.32-4.28,13.15-8.48,17.89-14.26,6.72-8.19,11.79-17.75,17.46-26.79C1399.55,1086.88,1399.2,1083.8,1396,1080.3ZM245.31,811.44c-.32-.18-.16-.12,0,0Z" fill="none" stroke="#000" stroke-linejoin="round" stroke-width="8"/></g><g id="Paint"><path d="M1354.37,1113.8,1264.49,1065l-18-41.93-16.63,8.47-14.26-12,14-3.52,5.77-47.82,49.48-36,23,21.2,2.15-1.13-23.41-40.59-97.3-100.09-119.1-111-6-18.83-48.76-38.18-6.09,1.84-34.53-28.23-15.89-9.11L910.5,584l-42.77-27.89L800.5,524.8,761,510.72,573.82,452.94l-33.18-11.68-40.5,14.23-13.23,11,2.65,9.77-4.45,2.8-17.67-2.16L453.6,488l35.29,13.71-.22,8.22,18.89-11.64,33.29-6.92L628,531.39l4.88,9.61L873.57,664.52l10.92-2.65,33.23,31-10.39,4,57.34,40L972.49,750l15.1,17.55,60.87,55.57L1193,969.46l11,44.77,60.34,79.71,51.25,56.44,21.75-.23s15.4-23.82,14.45-23.67S1354.37,1113.8,1354.37,1113.8Z" fill="#304c54"/></g><g id="Grey"><path d="M625.78,856.17l-64.17,34.57,51.91,38.5s86.53-20.9,89.1-21.1S625.78,856.17,625.78,856.17ZM137,602.35S95.79,615,96.15,616s0,16.21,0,16.21c2.24,5.17,20,4.87,20,4.87L160.32,616ZM243.37,780.71,238.91,756l-11.86-4.59c0,.19,2.33,25.12,2.33,25.12l12.45,7.7ZM136.3,750.12l87.62,66.73,24.58-7.56L142,740.4ZM430.37,590.31l-11-4.7,1.18-13.51-18-8-30.88,12-7.7,22,42.9,18.7Zm-134.43,219,16.73-27.92,2.51-39.86-25-39.49.13-.07,34.06-19.54L248.5,631.5l-33.42.56-7.53,8.79L183,668.73l3.68,14.66,17.23,20,42.57,27-3.15,6.57,11,66.37,20.18,17.6Zm294.11-195L547.7,573l-8.25,30.34,46.45,51.43ZM471.33,468.33s-2.14-13.89-1.77-14.44-145.12,2.89-145.12,2.89.67,12.26.67,13.07S471.33,468.33,471.33,468.33ZM756,520.22,611.49,475l-21.44,10.06,136.77,46.49,5.32,9.43s76.14,37,77.12,37S853,557.7,853,557.7l-78-36.38ZM774.12,509l27.94-2.1s35.72,17.64,36,17.66c.55,0,33.92,14.22,33.92,13.54s13.67-41.57,13.67-41.57L873.9,460.63l-29-22.24-43.81-14.84-31.26,6.78-5.54,8.34L775,450.33l28.26,11.72,1.28-14.63,34.22-9.78,31.95,21.13-29.34,14.78-5.83,12,.08,32.42s-34.13-12.14-35-12.42c-.21-6-.91-16.25-.91-16.25s-99-51.13-109.74-49.66c-.65.09-6.89,2.26-6.89,2.26l-.31,14.12,21.69,23.83ZM745.31,660.88l-14.76-1.79,24.14,65L823,781.65l-8.7-73.78ZM909.71,699l8-6.05-33.23-31-48.42,36s38,26,40.91,27.63c-1.4,0-9.25,8.3-9.25,8.3l51,28.3,13.4-2.69s-7.49-7.46-8.51-7.55-43.55-32.22-43.55-32.22l9.53-6.17s53.84,41.69,54.6,40.82,19.1-17.74,18.37-18.1S909.71,699,909.71,699ZM1028,671.84l-56.65,29.33L973,733.44l1.14,1.6,21.47-19.18,54.39-30.2Zm-17.33-66.19L972.3,616.72l37,28.72,6.09-1.84,53,36.27,15.4-6.8ZM898.6,783.77l-10.81,33.45,5,4.58,23.46-35.75-9.71-4.4ZM839.47,905.4v48.38l56.93,24.78L898.88,945,886.69,926.3Zm190,117.7-8.61,25.61,23.46,14,5.87-12.52v-10.45l-17.42-18.42Zm62,77.4,22-46.6s-5.13-3.48-5.68-3.48-7.52,2.38-13.75,8.29-16,37.82-16,38.37Zm58.12-109.3-18.38,12.85-20.74,24.85,22.22,44-22.22,42.38h-35.9l6.77,5.71,47.5,22.71h8.31l22.81-28,35.25-61.79v-7.21l-34.65-47.85Zm204.75-45.84-28.61-68.19-7.7-1.83-15.75,9.79,3,27,11.86,42.18-3.48.55L1285.8,935l-12.1.87-68.2-57.22-10.26,2.81-8,9.86,48.88,68.48,1.28,6.81-4.4,4.75-5.5,44.7-2,3.52h-5.69s-2.93,2.64-2.2,2.82,12.31,9.2,12.31,9.2h3.83l12.8-8.47,7.36,25.61,4.23-.39,27.31-35-12.65-10.94,60.58-44.55ZM731.22,807.14l-23.39,1.56-10.34,21.4v16l67.34,40.48,1.59-54.79-26.77-24.65Zm-456,90.19c.47,1.28-2.75,19.68-2.75,19.68,2.88,6.66,25.71,6.28,25.71,6.28L355,896.16,328.5,877.58S274.75,896.06,275.22,897.33ZM587.11,427.89l54.45-60.67-.9-10.22-3-2.74L576,411.88l8.43,5.12Zm494,203.61,82.67,46.5,38-3.67,34,13.74s4,51.18,4.34,51.19c.72,0,13,2.55,20.77-4.85,31.8-30.41,39.78-69.41,39.78-69.41l-14.54-43.33-24.57-21.17-37.5-21.17-32.06-6.8L1160.34,583l-6.67,9,11,16.13,36.87,12,.44-17.77,35.72-11.44,23.06,10.22,18.33,17.29-31.55,13.82-9.27,20.06.45,34L1197.5,672l-.83-18.17s-120.91-62.26-134.84-60.35c-.85.12-5.06,3.06-5.06,3.06l.9,14.5ZM480.81,921.2l-50.65-.78-12.93,9.15-33.32,34.71,4.73,18.86,23.59,24,52.9,35.78-3.62,14.53,14.13,79.94,26,22.64,27.53-14.91,21.52-35.92.94-54.88-28.72-44,35.87-30.37Z" fill="#333"/></g><g id="Detail"><polygon points="627.95 527.42 540.85 491.33 513.73 497.01 614.18 586.89 618.1 580.17 640.66 562.75 627.95 527.42" fill="#ff7100"/></g><g id="Canopy"><polygon points="1360.79 1031.57 1310.55 975.8 1274.62 1001.04 1249.78 1019.55 1256.06 1047.71 1258.13 1060.52 1358.95 1112.1 1381.32 1092.59 1389.02 1077.82 1360.79 1031.57" fill="#82b3d1"/></g><g id="Shadows" opacity="0.2"><path d="M309.29,782.36l1.91-35.51-18.05-24-28.4,9,1.46,30.53-2.46,9.34-7.36-31.35L92.05,621.59l2.27,9.91,6,5.62L97.12,697l37.72,41.56L133.22,752l90.7,66.5,21.2-9.16L271,822.79l26.93-11.46Zm855.4,320.3-4.54-16.2-25.23-39.31-9.77-9.63L925.08,908.14s-80.87-40.9-102.11-52.3-44.36-32.05-44.36-32.05l-61.4-72.39L591.51,616.84l-42.21-43L442.53,481.68l-12.16-3.52-33.18,16.91L402.57,514h18l55.18,37.45s59.7,117,41.66,113.95-52.8,0-52.8,0l-129,26.07,7,10,71.18-13L545.12,697,590.05,728l35,63L604.94,830.1l32,13.41S740,910.68,770,929.24s28.07,31.57,28.07,31.57l-67.55,11.52,112.66,16.55,47.57,30.67L1038,1102.66l88.49,42.3,8.44.31,28.07-34.83ZM801.1,505.31,848.89,529,853,493.35,682.76,418.1l-2.25,13.5,2.31,21.73Zm0,106.63,36.18,19.95,49.48,9L801.09,583ZM969.7,728.46c0-.58,1.69-29,1.69-29s-70-42.44-76.38-45-9.13-.18-4,4.71S969.7,729,969.7,728.46ZM846.13,772c3.26,4.51,41.66,50.47,41.66,50.47l8.83-36.69s-46.48-17.72-50.49-19.63S842.88,767.48,846.13,772Zm428.49,99,24.91,54.15,10.47,27.1,14.44,11.13,9.74-10-28-59.83-37.41-35.33Zm72.54,194-74.37-62.64L1257.28,1016l-6.13.08,10.49-7.82-27.12-36.54-18.87,47.8L1165,998.84l33.26,48.31-46.09,84.14,46.09,11.12,107.92,7.49,31.1.25L1359,1119Zm-857.53-20.2,2.86,41.84-5.13,11.87-9.65-49.66-58.62-36.49-33-33L273,902.48l.86,17.67,7.65,7.14-4.08,76.11,48,52.87-2.06,17.09,115.36,84.58,27-11.65,32.87,17.17,34.24-14.58,14.5-36.85,2.43-45.16-25-33.5ZM545.78,438.4l37.33-5.4,71.56-80.22-2.89-14.22L570,416.78l-20.7,2.89-64.86-15.78L464.17,391l-15.28.07,27.66,24.82ZM473.33,470l8.45-3.4L507.56,451V440.56l-29.12,12.22-186,2.71-44.22-19.82-1.33,12,40.22,20.87Zm696.34,184.85,25.86,58.33L1244,741.57l40.73-30.51,19.72-50.39L1289,636.52l-8-.82-17.33,21.54-205.32-89.08-2.25,13.49.21,17Z" fill="#0c0c0c"/></g><g id="Outline"><path d="M811.27,857.81c-.11-.06-14.72-7.84-22-11.52-3.68-1.86-5.3-.86-5.34,3s0,7.84,0,11.76.19,7.85-.07,11.75c-.18,2.71.93,4.19,3.17,5.36,8,4.17,15.94,8.45,23.94,12.62,4.41,2.3,5.87,1.39,5.9-3.53,0-5.94.25-10,.25-17.78C817.26,861.4,817.5,860.67,811.27,857.81Zm.48,27.64c-7.47-4-14.76-7.86-22-11.86-.62-.35-1-1.68-1-2.56-.08-6.2,0-12.4,0-19.29l24,12.65C812.45,871.22,812.11,878.09,811.75,885.45ZM913.29,650.13q24.18,16.36,48.44,32.59a20.55,20.55,0,0,0,3.2,1.46,19.11,19.11,0,0,0,2.4-.8c11.39-5.91,22.8-11.76,34.12-17.8,3.45-1.84,3.33-3.85,0-6.26-15.17-11-30.39-21.9-45.47-33-2.86-2.11-5.23-2.25-8.28-.65-11.2,5.88-22.5,11.58-33.75,17.37C909.6,645.28,909.35,647.46,913.29,650.13Zm36.92-20a3,3,0,0,1,2.57.33c14.61,10.43,29.17,20.93,44.2,31.75-6.79,3.64-13.14,7.1-19.54,10.46-3,1.57-6.22,2.79-9.14,4.5-2.43,1.42-4.13,1.11-6.45-.49-14.47-9.94-29.1-19.68-44.13-29.79C928.88,641.14,939.52,635.6,950.21,630.17Zm175.44,255c-9.19-7.44-18.57-14.64-27.9-21.9a7.4,7.4,0,0,0-1.82-.93,2.23,2.23,0,0,0-1.89.08,13,13,0,0,0-2.65,1.59c-5.13,4.48-10.32,8.91-15.13,13.71-.92.91-.81,3.69-.15,5.15.85,1.85,2.71,3.26,4.16,4.83,6.75,7.34,13.48,14.7,20.27,22,2.15,2.3,4,2.13,6.21-.45,3.53-4.06,7.53-7.73,11.43-11.46a33,33,0,0,1,6.34-5.34C1129,889.9,1129.54,888.28,1125.65,885.13Zm-599.4,29.59c-6.47-.58-11.24,2.37-15,7.13-4.48,5.68-1.59,13.6,5.21,14.35,6.28.69,11.94-.65,16.37-5.63,2.83-3.18,4.78-6.57,2.88-10.87C533.91,915.58,530.46,914.22,526.25,914.72Zm477.29-94.92a1.65,1.65,0,0,0,1.54,0,9,9,0,0,0,2.1-1.71,130.75,130.75,0,0,0,11-11.51c4.81-5.73,6.35-5.65,2.76-8.77-14.13-12.32-19.08-17.08-30.18-28-3.12-3.07-4.61-3.11-6.74-.69-4.22,4.79-8.72,9.3-13.34,13.7-2.71,2.59-2.62,4.52.05,7,10.52,9.63,20.93,19.38,31.41,29.07A7.46,7.46,0,0,0,1003.54,819.8Zm-16.17-46.64,29.75,27.65c-4.44,4.3-8.77,8.49-13.34,12.93l-29.6-27.52Zm214.2,29a21.52,21.52,0,0,0-2.57-.92c-3.8,1.07-7.62,2.16-11.45,3.23-3.65,1-4.25,2.92-1.85,5.76q10,11.82,19.91,23.68c3.66,4.4,3.66,4.4,9.3.41,2.62-1.86,4.86-3.58,8-2.67,2.07.6,3.85,1.2,5.14-1.2s2.47-4.89.39-7.32A84.65,84.65,0,0,0,1201.57,802.12Zm-38.4,150.08c8.69,0,13.47-4.79,14-12.77.46-7-7.08-15-15.59-15-7.76,0-14.32,5.61-14.32,12.9A14.79,14.79,0,0,0,1163.17,952.2Zm-74-241.92c-3.4.69-3.66,2-1.15,4.46,2.78,2.74,5.73,5.31,8.62,7.92,7.76,7,15.49,14.05,23.35,21a5.64,5.64,0,0,0,3.81,1,107.25,107.25,0,0,0,10.7-1.4c1.2-.22,3.15-1,3.22-1.73a5.08,5.08,0,0,0-1.6-3.71q-15.16-13.63-30.53-27c-1.14-1-2.13-2.09-3.29-2.09C1097.27,709.23,1093.14,709.47,1089.13,710.28Zm36.3,23.38c1.06.94,6.26,5,3.59,5.44-3.73.11-6.19.82-9.1-2-7.68-7.38-16.48-15.09-24.44-22.28a.64.64,0,0,1,.19-1.1c6.11-1.26,7.19-.26,9.82,2.18C1112.44,722.35,1118.33,727.4,1125.43,733.66ZM243.84,769.25a70.72,70.72,0,0,0-2.27-10.55c-2.25-6.76-8.95-8.84-14.12-12.42-1.58-1.1-3.51-.21-3.52,2.33a26.44,26.44,0,0,0,.11,3.78c.67,4.69,1.63,9.34,2.14,14,1.33,12.53,1.22,12.6,11.54,18.88,1.29.79,3.57,1.21,4.77.59a6.5,6.5,0,0,0,2.25-2.38,4.24,4.24,0,0,0,.64-2.86C244.83,776.32,244.43,772.77,243.84,769.25Zm-12.19,0c-.3-4.1-1.44-10-2.27-15.23,8.65,3.14,8.53,10.42,9.71,17,.57,3.17.9,6.38,1.37,9.75C235.28,778.51,232.64,776.29,231.65,769.24Zm148.4-118.1c-5.89-.75-11.36,0-15.85,4.82-2.68,2.85-3.58,6-2.44,9.25s3,3.28,7.49,3.52c7.36-.83,10.44-2.34,13.84-6.67C386.18,658.13,384.44,651.7,380.05,651.14Zm82.09,439.62a88.86,88.86,0,0,0-2.88-13.39c-2.85-8.59-11.36-11.23-17.92-15.78-2-1.38-4.46-.26-4.47,3a33.49,33.49,0,0,0,.13,4.81c.86,6,2.08,11.85,2.72,17.81,1.7,15.92,1.56,16,14.65,24,1.64,1,4.54,1.53,6.05.75a8.34,8.34,0,0,0,2.87-3,5.47,5.47,0,0,0,.81-3.63C463.39,1099.73,462.89,1095.23,462.14,1090.76Zm-15.47,0c-.38-5.2-1.82-12.67-2.88-19.33,11,4,10.82,13.22,12.32,21.52.72,4,1.15,8.09,1.74,12.37C451.28,1102.51,447.93,1099.69,446.67,1090.74ZM1396,1080.3c-7.6-8.34-13.91-17.46-17.94-28.11a66.38,66.38,0,0,0-18-26.2c-6.47-5.85-12.5-12.21-18.55-18.51-2.67-2.78-4.88-6-7.25-9,1.12-1.73,1.92-3.16,2.91-4.45,2.58-3.39,2.66-6.67.4-10.37a133.76,133.76,0,0,1-6.3-12.05c-.52-1.09-.91-2.78-.43-3.73,2.14-4.24,4.62-8.31,7.08-12.62,3.56,2.13,7,3.93,10.13,6.12s5.53,1.54,8.14-.59c4-3.26,6.83-10.16,5.34-13.41-8.39-18.37-16.68-36.79-25.29-55.06-2.33-4.93-5.65-9.4-8.51-14.08a55.06,55.06,0,0,1-3.36-5.66c-1.48-3.28-1.91-7.34-4.13-9.92-9.67-11.27-19.82-22.13-29.81-33.12q-16.31-17.94-32.65-35.86c-15.51-17-31-34-46.61-50.85-9.06-9.72-18.41-19.18-27.81-28.56-4.21-4.2-8.7-8.12-13.09-12.14a.5.5,0,0,1,.57-.8c7.39,4,17.8,9.4,31,16.79s26.39,16.81,37.08,23.27a13.31,13.31,0,0,0,11.08,1.23l10-3.32a14,14,0,0,0,6.66-4.74l18.12-23.55,15.86-32.74c1-3.46,1.85-7,3.14-10.34,2.68-7,2.27-13.38-1.81-19.85-7.65-12.13-11.1-26.88-23.15-36.27-9.35-7.29-17.57-16.17-29-20.56-2.59-1-6.74-2.82-9.24-4-9.33-4.39-18.47-9.23-28-13-4.75-1.89-10.62-1-15.35-2.94-15.79-6.41-31.2-13.72-46.93-20.24-7.73-3.2-15.72-6.94-23.83-7.65-8.71-.76-17-1.54-24.79-5.64-3.06-1.61-6.43-2.63-9.61-4a22.37,22.37,0,0,0-17.17-.38L1051.07,545s-3.59,3.21-2.94,6.42,4.76,13.15,4.76,13.15a10.74,10.74,0,0,1,.79,7.33c-3.07,9.69-1.37,19.56-1.69,29.33-.09,2.89-.73,4.49-3.79,4.87-4.94.61-8,2.6-8.72,6.84-2.54.71-5,1.41-8.46,2.6-.74.26-2.32-.37-3.27-1-6.26-4-12.19-8.64-18.72-12.13-23.23-12.41-46.54-24.66-70-36.54-13.85-7-28.07-13.29-42.21-19.7-6.87-3.12-13.95-5.78-20.26-8.37,2.45-6.24,4.79-12,6.93-17.76,1.16-3.16,2-6.45,2.93-9.68.86-2.86,1.54-5.8,2.61-8.59a17.28,17.28,0,0,0-1.51-16.49c-6.35-10.08-9.22-22.34-19.23-30.14-7.58-5.91-14.26-13.07-23.35-16.81-2.26-.93-5.94-2.46-8.15-3.49-7.83-3.68-15.51-7.75-23.53-10.94-4-1.57-8.83-.85-12.76-2.45-13.12-5.32-25.93-11.4-39-16.81-6.42-2.66-13.06-5.77-19.81-6.36-7.24-.63-14.1-1.28-20.59-4.69-2.55-1.34-5.35-2.19-8-3.34A18.58,18.58,0,0,0,698.8,390L679,399.67s-3,2.66-2.45,5.33,4,10.93,4,10.93a8.9,8.9,0,0,1,.66,6.09c-2.55,8.05-1.14,16.26-1.4,24.38-.08,2.4-.61,3.73-3.15,4-4.47.56-9.34,4.31-9.65,8.51-.51,6.86-.14,13-.14,20.13-5.15-1.59-42.23-12.94-54.86-17.32-1.27-.43-2.91-1.54-3.21-2.65-.77-2.86-2.41-4-5.18-4.6-9.7-2.07-29.7-6.61-29.7-6.61l-4.24-8.12a.71.71,0,0,1,.57-1l11.43-.9a2.85,2.85,0,0,0,1.92-1l73.5-83.58a3.87,3.87,0,0,0,.93-3l-1.19-9a3.84,3.84,0,0,0-.94-2l-2.14-2.41a3.89,3.89,0,0,0-1.79-1.13l-41.66-12.26a3,3,0,0,0-2.09.13l-17,7.56a3,3,0,0,0-1.81,2.65l-.14,3.12L473.91,385.41a2.39,2.39,0,0,1-2-.07L469.2,384a2.36,2.36,0,0,0-2.25,0c-1.66.94-4.61,2.61-4.95,2.7-1.29.33-14.55.5-15.79.83l-1.53,2.13a2.46,2.46,0,0,0-.45,1.44l.09,5.37-7.06-4.22a1.63,1.63,0,0,0-1.1-.21l-12.94,2.17-6.9,5.3-1.48.78a2.23,2.23,0,0,0-1.17,2v1.94L270.06,431.73a2.78,2.78,0,0,1-2-.35l-3.39-2.07a2.73,2.73,0,0,0-1.83-.36l-14.46,2.33a4.87,4.87,0,0,0-4.09,4.8v10.23a3.42,3.42,0,0,0,1.77,3c8.28,4.54,43,23.46,47.93,23.46,13.35.49,125.63-.19,138.67.29,1.14,0-11.48,8.09-12.84,8.62-11.5,4.43-19.28,8-22.34,9.45-3.57,1.67-3.71,1.91-3.38,5.49.61,6.41.22,13.21,5.26,18.09-.95,1.77-1.78,3.16-2.47,4.61-8.39,17.67-16.73,35.37-25.2,53a11.65,11.65,0,0,1-3.52,4.29c-12.35,8.91-24.81,17.65-37.2,26.5-7,5-8,4.56-3.48,13.13.09.18,0,.44,0,.75a5.11,5.11,0,0,1-.85.6C309.45,625.78,292.26,634,275,642a5.31,5.31,0,0,1-4.35-.35c-7.63-4.85-15.5-9.46-22.53-15.1-4.67-3.74-10.1-3.35-14.63-3.16-5.77.25-11.4,3.8-17.08,6a.9.9,0,0,0-.52.53c-.77,4.54-5.24,4.83-8.11,6.89a4.19,4.19,0,0,1-3.78-.2c-7.47-4.87-14.71-10.1-22.24-14.88-5.26-3.35-10.56-7.46-16.41-8.83-5.33-1.25-9.3-4-13.63-6.58-2.48-1.48-4.75-3.33-7.25-4.78-3.59-2.08-7.18-3.9-11.64-2.18-10.27,4-20.7,7.54-30.93,11.6-8.74,3.47-11.41,9-9.27,18.11.46,2,.78,4.84,2.13,5.63,5,2.91,5.79,4.8,5.23,12.24,0,.48-2.56,36.86-2.9,47.78a16.52,16.52,0,0,0,2.7,9c10.19,15.33,23.28,28,37.52,40-.88.6-1.57,1.1-2.29,1.56-4.25,2.74-4.43,4.7-.54,7.71,6.47,5,13,10,19.53,14.92q33.36,25.39,66.78,50.72c1.06.81,3,1.54,4,1.14,6.77-2.54,13.42-5.4,20.55-8.33,6.38,5.11,12.71,10.29,19.17,15.29,2.28,1.77,4.74,3.12,7.95,1.64,8.77-4,17.64-7.86,26.42-11.86,1.22-.55,2.88-1.39,3.21-2.45,4.42-14.26,14.54-26.45,13.23-42.84a63.33,63.33,0,0,1,2.57-23.7c1.42-4.56-.4-7.59-2.41-10.78-4-6.31-7.87-12.67-12.13-19.55,5.17-.7,9-1.31,13.3-1.67,6.81-.57,13.61-1.31,20.37-2.3,9.47-1.39,9.56-.42,8.67-7.14a28.51,28.51,0,0,1,0-3.6c14.23-2.81,28-5.51,41.82-8.26,8.28-1.66,16.45-3.84,25.09-2.73,13.53,1.72,27.08,3.28,40.65,4.53,13.87,1.27,27.78,2.11,41.68,3.09,11.65.81,23.32,1.37,34.95,2.39,4.55.39,9.58.7,13.4,2.83,13.6,7.56,26.83,15.81,40.07,24,2.18,1.35,7.68,4.76,9.53,6.93,5.81,19,13.14,43.49,14.23,45.33a20.49,20.49,0,0,0,9.29,8.38c2.58,1.2,5,2.71,7.73,4.21-5.7,10.24-15,26.81-19.15,33.52a17.39,17.39,0,0,1-6.13,5.77q-60,32.91-120.07,65.59c-4.86,2.66-10.08,5-14.47,8.31-5.95-4.53-6.08-3.71-14.39-.79-6.92,2.43-8.05,2.07-15.26,4.79a1.16,1.16,0,0,0-.65.69c-.21,1-.48,2-.48,2s-4.9,4.74-14.65,13.83c0,0-5.19-3.85-6.39-4.64-9.49-6.18-18.68-12.82-28.23-18.89-6.69-4.24-13.41-9.46-20.83-11.2-6.77-1.59-11.81-5.09-17.31-8.36-3.15-1.88-6-4.22-9.2-6.06-4.55-2.64-9.11-5-14.78-2.77-13,5-26.27,9.57-39.25,14.72-11.11,4.4-14.49,11.39-11.78,23,.59,2.52,1,6.15,2.71,7.14,6.37,3.7,7.35,6.1,6.64,15.54,0,.61-3.25,46.8-3.68,60.65a20.88,20.88,0,0,0,3.43,11.46c12.93,19.47,29.54,35.62,47.63,50.83-1.12.76-2,1.4-2.92,2-5.39,3.48-5.62,6-.68,9.78,8.22,6.37,16.51,12.64,24.79,18.94q42.34,32.24,84.76,64.39c1.36,1,3.77,1.94,5.14,1.43,8.59-3.21,17-6.84,26.08-10.56,8.1,6.48,16.13,13,24.33,19.41,2.89,2.24,6,4,10.1,2.08,11.13-5.13,22.38-10,33.54-15.06,1.54-.7,3.65-1.77,4.06-3.11,5.05-16.26,15.93-30.4,16.89-48.2.69-13,2.31-26,3.74-38.91.49-4.38-1.48-7.64-3.62-11-5-8-10-16.08-15.4-24.81,7.18-1,12.29-1.81,18.47-2.25a263,263,0,0,0,26.85-3.11c8.08-1.41,9.13.24,9-6.19q64.6-17.51,129.22-35c4.33-1.18,8.71-2.82,13.1-3,6.23-.2,12.48.92,18.73,1.25,7.43.39,14.87.46,22.29.85a53.43,53.43,0,0,1,8.13,1.25c13.57,2.82,27.13,5.63,40.66,8.62,5.94,1.31,12.4,1.94,17.57,4.8,22,12.12,43.64,24.93,65.32,37.63,1.68,1,103.34,58.57,105.52,59.77q17.85,9.78,35.84,19.29c5.52,2.92,11,6.21,16.91,8a41.78,41.78,0,0,1,9.88,4.13c6.64,4,13.1,8.57,20.15,11.76,12.2,5.52,24.78,10.2,37.22,15.18,2.25.9,4.18.92,5.87-1.57,2.6-3.85,5.73-7.36,8.54-11.08,1.39-1.83,2.91-2.3,5.22-1.79,7.16,1.57,14.34,3.12,21.58,4.24,11.24,1.75,22.54,3.11,33.81,4.7,2.18.31,45.43,4.61,50.76,4.88,11,.56,22,1.49,33,2.18,6,.37,12.09.47,18.12.82,7.14.41,13.39.54,21.41.4,5.8-.1,9-.4,9.61-4.25.77-4.77,4.87-6.24,7.82-8.4,3.65-2.68,8.68-3.43,12.45-6,6.32-4.28,13.15-8.48,17.89-14.26,6.72-8.19,11.79-17.75,17.46-26.79C1399.55,1086.88,1399.2,1083.8,1396,1080.3Zm-35.34-44.15c5.84,5.9,5.85,6.85-.75,11.86-4,3-8.16,5.8-12.17,8.79-2.85,2.13-5.22.79-7.29-1-9.31-8.14-18.5-16.4-27.75-24.61l-18.87-16.74c8.28-6.26,16.17-12.31,24.19-18.17a3.53,3.53,0,0,1,3.38.32C1334.57,1009.7,1347.61,1023,1360.68,1036.15Zm-226,33.81c-5.3-10.92-11.07-21.62-16.69-32.44,9.4,3.58,14,11.61,19.07,19.23l17.44,26.37c.4.61.68,1.3,1.35,2.6-5.78-.3-11.08-.43-16.36-.89-3-.26-4.61.84-5.68,3.6s-2.64,5.33-4.18,8.37l-3.71-2.74c3-5.66,6.13-11.09,8.63-16.8A9.81,9.81,0,0,0,1134.72,1070Zm-7.46-114.58-1.55.15c-13-10.6-25.9-21.29-39-31.77-14.36-11.5-28.48-23.34-43.46-34-11.11-7.9-23.41-14.11-35.6-21.31l60.31-56.9c11.71,12.28,23.43,24.5,35.07,36.79,9.56,10.1,19,20.28,28.54,30.44,1.64,1.75,3.15,3.62,4.82,5.33,3.41,3.49,5.95,3.69,9.94,1,4.15-2.83,8.32-5.64,12.78-8.66,4.88,6.5,9.72,12.88,14.51,19.31,17.43,23.43,34.77,46.93,52.33,70.26,4.28,5.68,4.27,12,3.63,18.33-.88,8.81-2.33,17.56-3.58,26.33-.26,1.84-.66,3.66-1.08,5.89-4.13-.28-8.24-.45-12.32-.89-2.59-.28-1.72-2.29-1.28-3.71,3-9.77,6.1-19.52,9.17-29.28.26-.83.54-1.71.8-2.48,1.51-4.44.78-7.29-2-10.4q-26.49-29.92-52.87-59.92c-1.94-2.22-3.55-2.34-5.76-.76q-15.36,11-30.78,21.85a5.71,5.71,0,0,0-2.73,5.35C1127.38,942.66,1127.26,949,1127.26,955.38ZM965.8,825.62C958,821,950.16,816.6,942,812c3.83-3.52,7.37-6.93,11.13-10.05.61-.51,2.52-.12,3.4.48,6.13,4.18,12.15,8.51,18.21,12.8.41.29,2.28,1.19,2.67,1.4a3.1,3.1,0,0,0,3.6-.43c1.75-1.92,0-3.58-1.74-4.87-8-6-16.08-12.13-24.31-18.35,4.53-8.55,21.49-40.07,23-42.52,1.86-3,2-5.91.13-8.84-1.3-2-1.09-3.51.79-5.19,2.62-2.35,4.94-5,7.69-7.92,13.11,12.74,25.78,25.08,38.48,37.41q3.66,3.55,7.46,7c2.07,1.87,4.07,3.52,3.75,6.89-.11,1.18,1.58,2.71,2.71,3.8,7.92,7.63,15.92,15.17,23.86,22.77a10.71,10.71,0,0,1,1.31,2l-38.67,36.52c-7,6.59-13.91,13.25-21,19.73-1,.91-3,1.71-4.09,1.32-16.24-5.76-32.4-11.73-48.85-17.75,1.38-3.46-.32-5-3.43-6-9.68-3.35-19.29-6.91-29.37-10.55l13.08-11.67c9.36,4.31,18.57,8.53,27.76,12.79,2.79,1.29,7.69-.67,8.19-3.65C968,828,966.82,826.23,965.8,825.62Zm139.48-124.3c-.77-2-1.55-4-2.37-6-.88-2.17-2-4.25-3.38-7.21,6,0,22.11,1.55,22.74,1.55,5.4,0,6.69,2.94,10.51,8.74.47.71.94,1.45,1.7,2.67-7.12,1.08-14,2.05-20.89,3.22a22.88,22.88,0,0,0-3.49,1,3.43,3.43,0,0,0-2.32,3.9,1.45,1.45,0,0,0,.34.69c6.82,6.76,13.7,13.47,20.8,19.94,1,.9,3.1,1,4.94.57,1.41-.45.22-1.66-.65-2.7-2.62-3.15-7.34-7.71-10.13-10.72s-7-6.92-6.78-7.38,6.14-1.35,6.87-1.51c2.15-.47,1.8,0,3.36,1.22s15.51,18.34,17.65,18.22c2.66-.15,2.66-.56,2.83-1.75s-1.42-2.47-2.89-4.17A185.4,185.4,0,0,1,1132.48,707c-.93-1.29,3.44-1.88,4.44-2,1.93-.28,2.71.45,3.58,1.77,5.83,6.84,29.77,41.36,37.39,51.85-14.64,2.56-28.9,5.08-43.19,7.48a4.1,4.1,0,0,1-2.91-1.06c-8.72-7.85-17.3-15.86-26.11-23.62-2.14-1.89-5.29-2.64-7.41-4.54-15.39-13.79-30.64-27.75-46.31-42,4.39-.65,6.41-1.25,10.84,2.85,1.71,1.58,4.79,2.34,7.39,2.86,10,2,20,3.83,30,5.55a8.39,8.39,0,0,0,1.82.09A3.64,3.64,0,0,0,1105.28,701.32ZM1066,652c-5.74-4.95-11.42-10-16.87-15.29a.39.39,0,0,1,.48-.61l44,28.18a67.91,67.91,0,0,1-6.32,4.08c-.65.33-2.08-.16-2.77-.73Q1075.12,659.94,1066,652Zm12.3,17.39c-4.73,3.12-12.46,3.49-16.45-.52-3.6-3.63-22.38-19.64-26.51-22.87,1.86-1,7.48-2.78,9.68-4C1051.06,646.59,1071.82,664.59,1078.25,669.42Zm71.3-3.31c-1.24-.55-37.08-20.83-60.34-32.94-4.35-2.27,8.3-9.48,13-7.5,21.83,9.27,46.94,21.69,56.38,26.11C1156.78,655.11,1151.92,662.11,1149.55,666.11Zm13.47,16c4.06,2.72,1.76,6.21.49,9.43-5.86-3.89-11.42-7-16.17-11.11-1.21-1-.1-5.87.33-8.41C1153.43,675.8,1158.26,678.91,1163,682.11Zm-95.48-90.73c-2-.8-6.87.41-9.67.62-.26-6.69-.89-13.75,3.05-20.48l72.72,33.71c7.75,3.55,15.4,7.06,23,10.69.63.3.94,2.31.64,3.3-1,3.29-2.29,6.48-3.68,10.27-7.26-3.38-14.65-6.75-22-10.28h0c-4.55-2.07-23.23-10.77-28.22-12.92C1091,601,1084.84,598.13,1067.54,591.38Zm16.67,13.24c.48.2,12.38,5.49,12.81,5.71,4,2.34,3,3.33,3,5.1-4.72,2.85-12.1,6.75-17.62,3.35-5.07-3.12-14.89-7.1-21.1-10,0-2.36-2-8.75-2-12C1063.14,595.21,1064.85,594.69,1084.21,604.62Zm-11.57,37.62a.5.5,0,0,1,.3-.93c5.46.69,10.09-.19,11.87-4.79l59.09,31.53-2.28,10.36Zm64,40.08a63.65,63.65,0,0,1-7.53,2,5.13,5.13,0,0,1-3.71-1c-5.43-5-10.74-10.06-15.8-15.52a.39.39,0,0,1,.48-.61Zm109.51,182.36c-1.26.19-2.87,2-3.22,3.29-.54,2.09-.14,4.42-.14,6.47l-7.86-7.86c4.38-2.76,8.46-5.38,12.63-7.88a3.88,3.88,0,0,1,2.37,0,5.2,5.2,0,0,1,1.68.84c5.63,3.38,12.21,5.86,16.6,10.43s6.88,11.32,10,17.23c7.63,14.63,15.12,29.33,22.68,44a.75.75,0,0,1-1.2.88l-46.37-46c3.68.33,6.14.63,8.61.76,2.64.15,3.85-1.18,4-3.85C1266.34,873.47,1255.51,863.22,1246.13,864.68Zm6.36-10.48a7.15,7.15,0,0,0-8.09.32c-4.49,3-9.09,5.86-13.7,8.69-2.66,1.63-2.64,3.21-.5,5.38,11.73,11.88,23.38,23.84,35.07,35.76q19.13,19.51,38.25,39a32.24,32.24,0,0,1,2.3,2.88c.83,1,.08,2-1.09,1l-109.65-93.86c4-2.46,7.5-4.59,11-6.79,4.27-2.71,4.6-4.86,1.11-8.32q-29.28-29-58.63-57.86c-3.22-3.17-6.63-6.15-10.58-9.8,4.69-.88,8.62-1.68,12.58-2.34,10.73-1.79,21.53-3.29,32.1-5.74.45.57.94,1.19,1.51,1.87,14.53,17.43,46,56.64,60.73,73.93,5.72,6.72,11.41,13.45,16.85,20.64C1258.64,857.43,1255.54,855.86,1252.49,854.2Zm66.88,109.55c-26.82,24.31-59.52,40.93-86.85,65.21-3.41-2.43-6.62-4.71-10.58-7.51,6.73-.18,7.18-.11,8.38-7.7,1.82-11.47,3-23,4.36-34.57,0-.38,0-.78,0-1.13.25-5,1.39-7.8,4.86-10.65a354.11,354.11,0,0,1,41.73-29.8c1.89-1.14,2.93-1.14,4.55.13C1296.88,946.39,1308,955,1319.37,963.75Zm-.3-12.64c-4.82-18.39-13.18-35.32-14.56-54.2a.42.42,0,0,1,.8-.2c2.26,5,4.5,9.95,6.81,14.9,4.46,9.54,8.91,19.08,13.49,28.56.92,1.9.84,3.15-.74,4.62C1323,946.57,1321.3,948.65,1319.07,951.11ZM1233,1034.22l8.15-5.83c6.88,21.32,13.69,42.45,20.51,63.59-5.87,1.21-6,1.2-8.85-3.81-7.06-12.43-14.07-24.89-21.35-37.77C1240,1045.9,1234.49,1039.86,1233,1034.22Zm19-11.12c4.07,2.91,9.33,11.39,12.28,13.5l-7.07,7.86C1256.08,1039.27,1253.16,1028.52,1252,1023.1Zm5.29-3.61a38.7,38.7,0,0,1,7-8.24,81.39,81.39,0,0,1,7.39-5.91l8.57,7.68c-5.13,6-8.11,9.56-13.46,15.88C1263.33,1025.06,1257.28,1019.49,1257.28,1019.49Zm21.37-18.46,7.28-5.25c6-4.32,12-8.69,18-12.86a3.69,3.69,0,0,1,3.39.07,76.69,76.69,0,0,1,6.35,5.49l-26.61,19.81ZM1125,843.33c-17.38-12.86-35.14-25.26-52-38.74-10.32-8.25-19.31-18.17-29.23-27.65,8.52-5.07,16.62-10,24.83-14.67.77-.44,2.63,0,3.38.72,10.82,10.08,21.72,20.07,32.23,30.46,20,19.75,39.69,39.74,59.49,59.66,2.65,2.67,5.12,5.53,8,8.63a96.18,96.18,0,0,0-8,5.56c-2.39,2-4.19,1.63-6.5-.12C1146.41,859.16,1135.68,851.26,1125,843.33Zm30.81,29.1-14.1,9.7-60-63.64a.35.35,0,0,1,.46-.51ZM1070,718.17l25.25,22.92-55.78,32.07c-7.18-8.12-14.34-15.24-22.09-23.59,5,1.1,11.37,2.47,17.72,3.9,5.83,1.32,11.63,2.8,17.48,4a6.24,6.24,0,0,0,3.88-.8c4.73-2.63,9.42-5.33,14-8.29,1.14-.74,2.37-2.58,2.28-3.81C1072,736.09,1071,727.64,1070,718.17Zm116.54,134.28a103.39,103.39,0,0,1-9,5.41c-.83.39-2.76-.49-3.62-1.36-10.25-10.31-20.28-20.85-30.58-31.11q-25.14-25-50.56-49.8c-5.87-5.72-12-11.16-18.2-16.89,7.57-4.2,14.85-8.17,22-12.27,2.19-1.24,3.67-1,5.58.77,8,7.55,16.49,14.55,24.12,22.42,5.1,5.28,9.15,11.61,13.48,17.61C1155.33,808.85,1170.82,830.53,1186.54,852.45Zm-43.8-70.67L1203.93,842l-13,7.84-48.59-67.75A.25.25,0,0,1,1142.74,781.78ZM1188,857.63c2-1.33,3.35-1.12,5,.3q14.55,12.66,29.15,25.28c11.85,10.2,23.76,20.34,35.61,30.54,7.16,6.15,14.26,12.36,21.43,18.58-1.26,2-2.33,2.16-4.1.53-1.59-1.45-34-27.47-48-39.69-6.64-5.79-13.63-11.19-20.5-16.72-.65-.52-1.71-1.19-2.31-1-4.79,1.57-10.11,1.92-13.86,5.94-1.72,1.84-3.42,3.73-5.26,5.45s-2,3.19-.56,5.27c14.13,20,28.17,39,42.33,59,1.64,2.31,4.11,6.24,5.71,8.57,1.12,1.64,3.21,4.55,2.18,5.06l-2.11,1.82-69.54-93.32C1171.61,868,1179.88,862.92,1188,857.63Zm10.28,25.28c3.63-2.3,6.2-1.88,9.59,1,17,14.22,34.37,28,51.51,42,2.28,1.86,7.33,6.77,11.43,10.34L1256.9,945Zm54.58,65-14.37,11.32c-16.5-23.17-32.77-46.05-49.17-69.08l4.22-5ZM1063.36,713.56c1.86,2,1.93,5.92,2.29,9,.82,7.07,1.32,14.18,2,21.56-4.18,2.49-8.23,5-12.41,7.29a6,6,0,0,1-3.86.58c-13.25-2.93-26.48-6-39.7-9a5.43,5.43,0,0,1-2.59-1.29c-6-6-11.87-12.08-17.79-18.14,4.07-6,11-8.38,17.24-11.82,9.44-5.23,19.12-10,28.56-15.27,3.56-2,6.4-1.36,9.15,1.12C1052,702.81,1058.1,707.81,1063.36,713.56ZM999,709.47c-8.78,4.6-14.52,12.36-21,19.35-.85.91-1.59,1.93-3.18,3.88v-6.76c0-7,.09-13.92-.05-20.88a4.51,4.51,0,0,1,2.83-4.69c15.13-7.93,30.16-16,45.32-23.9a6.56,6.56,0,0,1,5.23-.06c5.21,2.68,10.2,5.81,15.68,9C1028.63,693.59,1013.89,701.66,999,709.47Zm-6.29,161.36c-13.39,14.73-28.32,28-36.59,46.9-6.33-3.53-12.09-6.73-17.84-10s-11.44-6.88-17.44-9.73c-4.48-2.12-5.67-5.44-6.12-9.9-1.05-10.44-2.47-20.84-3.66-31.27-.61-5.33-1-10.68-1.53-16.1ZM972,900.63l120.93,72.75-11,13.23c-2.83-3.1-5.37-6-8-8.79-6.62-7-12.95-14.25-20.09-20.62-4.52-4-10.27-6.67-15.51-9.87-8.47-5.18-16.75-10.73-25.54-15.28-4.26-2.21-9.46-2.8-14.32-3.63-13-2.21-26-4.16-39.51-6.3Zm123.16,77.93,30,19.46c-7.1,7.81-14,15.44-21.08,23.22l-28.56-18.8Zm0-9.87c-14.95-9-29.94-17.9-44.89-26.89q-35.06-21.1-70.07-42.27a15.28,15.28,0,0,1-1.53-1.17c6.08-10.7,16.52-17,24.43-25.87l12.16,6.21c12.5,6.43,29.44,18.16,56.23,39,2.57,2,44.23,37.06,46.87,39.13a112.37,112.37,0,0,0-16.48,11.1C1099.26,969.92,1096.83,969.73,1095.1,968.69Zm36.17-12.89c.52-6.14.52-12.32.9-18.48a4,4,0,0,1,1.52-2.62c9.08-6.55,18.27-12.94,27.33-19.53,1.89-1.38,2.85-.71,4.07.68,6.42,7.31,12.9,14.56,19.32,21.86q12.63,14.37,25.21,28.76c2.16,2.47,4.56,4.77,6.45,7.42a5.7,5.7,0,0,1,.6,4.4c-3.45,11.34-7.1,22.62-10.74,34.06q-21.42-9.47-42.89-19a5.1,5.1,0,0,1-2.28-2.33c-5.57-12-15.89-19.63-25.75-27.63C1132.48,961.31,1131,959.3,1131.27,955.8Zm47.94,99.38c-3-5,1-8.27,4.71-13l3.32,2.76Zm11.76-6.64c2.7,2.22,2.42,4,.48,6.2-2.37,2.73-4.3,5.84-6.42,8.79-3.24-2.46-2.77-4.63-.33-7.18C1187,1054,1188.8,1051.27,1191,1048.54Zm-16.78-1.63c-5.39-7.13-5.57-4.23,2.5-14.24l5.47,4.34C1179.36,1040.5,1176.8,1043.67,1174.19,1046.91Zm-7.1-10.49c-5.85-6-5.63-7.84,1.86-15.05l6,5Zm-7.95-11.39-3.58-5.33,6.9-8.94,4.87,3.91Zm2.93-22.17L1151.91,1016l-14.73-14.21c3.41-2.6,7.23-5.61,11.18-8.43a3.12,3.12,0,0,1,2.93-.1C1155,996.34,1158.45,999.6,1162.07,1002.86ZM1145,1016.79c10.06,13.51,19.62,27.39,29.26,41.22a4.35,4.35,0,0,1,.29,3.81c-4.27,7.24-8.76,14.34-13.47,22-4.73-7.07-9.26-13.81-13.74-20.58-2.71-4.09-5.68-8.06-8-12.38-5.27-10-14.45-15.48-23.28-21.47-.51-.34-1-.73-1.83-1.38l18.76-22.7C1137.19,1009.22,1141.79,1012.48,1145,1016.79Zm-5.42,73c2.65,0,5.31-.07,8,0,4.51.15,9,.64,13.52.52,1.24,0,2.82-1.47,3.6-2.68,4.79-7.49,9.39-15.09,14-22.64,3.4,1.82,2.87,3.81,1.18,6.46-5,7.83-9.85,15.73-14.47,23.77-1.9,3.31-3.9,4-7.3,2.42-4.4-2-8.95-3.82-13.48-5.57a43.12,43.12,0,0,0-5.16-1.39A.46.46,0,0,1,1139.57,1089.81Zm31.42,11,16.3-27.87c8.5,7.29,19.78,17.9,29,26a15.87,15.87,0,0,0,6.7,3.49c7.63,1.86,14.63,4.61,14.36,5.21-1,2.18-6.27,10-10.31,15.44-19.14-5.12-41-10.45-60.11-15.56C1168.42,1105.13,1169.72,1102.94,1171,1100.81Zm52.62-4.56a29.71,29.71,0,0,1-6.2-3.61c-1.68-1.67-18.91-18.92-23.14-22.52-3.79-3.23,3.34-14.72,4.23-16.32,1.32-2.36,2.79-3,3.69-2.1,2.85,3,31.92,40.27,38.7,46.79,1.23,1,1.55,4.77-.65,4.09C1235.08,1101.08,1228.58,1098.24,1223.61,1096.25Zm15.31-8.31c-11-13.63-22.16-27.15-33.24-40.73-8.11-9.94-26.39-32.4-35.14-43.16,6,2.41,35.2,15.29,45.29,21,1.88,1,10.32,4.82,11.06,7.34a38.09,38.09,0,0,0,2.2,6c1.84,3.79,2.06,7.1-1.8,9.86-2.09,1.49-1.11,3.25-.12,5,6.86,12.12,21.36,37.9,21.87,38.82C1244.13,1093.76,1241.52,1091.14,1238.92,1087.94Zm14.8,14.94c7.84-4.33,14.54-4.06,22.39.55,12.29,7.23,25.31,13.22,38.05,19.75-3.79,4.41-4.51,3.42-9.15,2.54-20.15-3.82-61.38-13.27-61.7-13.57C1245.85,1108,1249.38,1105.28,1253.72,1102.88Zm6.93-54c1.57-1.94,3-4,5-6.71,8.41,10.08,22.26,15.21,24.36,30.63-9.49-5.18-18.63-10.14-27.73-15.16C1258.82,1055.68,1258.19,1051.87,1260.65,1048.85Zm27.18,3.29c-5.89-5.11-11.62-10.4-17.69-15.85l17.59-16.74c5.32,4.62,10.57,9.12,15.75,13.69,9.75,8.61,19.42,17.3,29.22,25.85,2,1.71,2.17,3.21,1.24,5.56-3.26,8.24-6.3,16.56-9.63,25.39-7.44-3.89-14.38-7.38-21.16-11.17a8.33,8.33,0,0,1-3.05-4c-1.76-4.27-3.35-8.62-4.79-13C1293.94,1057.66,1291,1054.89,1287.83,1052.14Zm63.81-111c-11.35,3.74-22.14,8-29,18.66l-1.44-1.21c-.88-.91.56-2.59,1.29-3.52,4.35-5.52,8.92-10.39,16.07-12.91,4-1.4,7.16-2.87,11-4.48Zm-4.48-8L1333,939l-2.23-3.36c4.17-1.67,8-3.43,12-4.64C1343.79,930.69,1345.33,932.18,1347.16,933.12Zm-4.56-7.92L1329,930.84l-3.27-6.34,12.43-5Zm-4.8-11.1c-3.72,1.51-7.31,2.8-10.75,4.42-2.71,1.29-4.13.53-5-2.17-.41-1.28-1.06-2.49-1.71-4,3.73-1.44,7.25-2.91,10.86-4.1a3.33,3.33,0,0,1,2.69,1A56.33,56.33,0,0,1,1337.8,914.1Zm-19.51-6.57-2.77-5.7c4.11-1.49,7.92-3.36,11.93-4.07,1.44-.25,3.36,2.3,5.92,4.21Zm11.65-16.39-18,6.43-7.5-12.38,13.88-8.81Zm-14-25.8c3.08,3.6,2.82,4.84-1,7.25-5,3.12-10.08,6.15-14.92,9.51-1.22.84-2.51,2.86-2.36,4.18.86,7.81,1.45,15.75,3.43,23.31,3.23,12.3,7.47,24.34,11.27,36.49.66,2.08,1.28,4.17,1.92,6.25.32,1.21-.35,1.44-.86.36-.4-.89-.88-1.76-1.2-2.68a464.52,464.52,0,0,0-40.39-87.51c-2.86-4.8-7.18-8.74-10.87-13q-17.12-20-34.28-39.91c-1.28-1.49-2.52-3-3.77-4.54-.63-.77,0-1,.49-.46,4.88,5.18,9.74,10.37,14.66,15.52,11,11.52,22.12,22.91,33,34.59,2.94,3.17,5.39,2.85,8.48.82,5.93-3.91,11.9-7.77,17.88-11.67C1303.59,851,1309.82,858.15,1316,865.34ZM1215.19,758.4c16,17.07,31,32.61,47.14,49.57.75.78,29.48,31.77,30,32.8-1.15.44-9,6.08-14.85,10.28-1.87.82-2.69-.46-3-.2q-3.74-3.86-7.45-7.72-16.24-17-32.48-34c-14.06-14.71-35.47-36.17-46.38-47.67l-.19-.18a119.56,119.56,0,0,0,16-5.46C1208.54,753.86,1211.75,754.73,1215.19,758.4Zm-6-8.92c-7.58,1.83-14.65,3.63-21.78,5.15-1.25.27-3.36-.12-4-1-11.37-14.86-22.57-29.85-33.78-44.77C1174.9,714.38,1191.76,731.88,1209.14,749.48Zm-36.9-38.42c-1.87-.6-3.76-1.16-5.62-1.81q-12.55-4.41-25.1-8.88a4.34,4.34,0,0,1-1.83-1.14c-2.7-3.28-5.34-6.62-8.1-10.07a18.09,18.09,0,0,1,11.37-.84c8.7,2,14,8.39,20.12,13.77A71,71,0,0,1,1172.24,711.06Zm18.38-40.3-9.17,1.4c-.38-2.88-2.23-9.89-3.47-15.85a6,6,0,0,0-1.09-2.42l-2-2.61c-21.93-10.06-43.34-20.11-65.19-30.34-.78-.36,4-3.13,5.57-2.43q30.45,13.9,60.74,28.15c3.62,1.69,11,4.7,14.57,6.61Zm12.12-5.27c-.06,1.8-.06,5.37-.9,5.37l-1.46-.11c0-5-.15-10.08,0-15.11.12-3-1-4.71-3.82-5.84-3.49-1.37-6.85-3-10.27-4.66-5-2.31-19.49-9.39-24.38-12.06-1.1-.6-2-3.5-1.49-4.83,2.25-6.31,5-12.45,7.27-17.92,5.71,2.68,34.71,15.1,39.53,17.23a.61.61,0,0,1,0,.52C1200.83,640,1203.14,652.88,1202.74,665.49Zm31.09,58.2c.5,3.14,1.4,6.64.45,6.64s-25.91-14.83-26.93-16-.11-34.76.44-36.21,27,11.38,27,11.38S1233.33,720.55,1233.83,723.69Zm4.4-78.73c-4.59,10-1.78,20.65-2.52,31-.17,2.42,0,4.86,0,8.11-9.07-4.22-17.54-8.08-25.9-12.17a4.51,4.51,0,0,1-2-3.42c.13-8.64.19-17.3,1-25.88.34-3.6,2.41-7,3.9-11.07,8.38,3.64,16.39,7.06,24.32,10.67A3.15,3.15,0,0,1,1238.23,645Zm16.52,35.9c-1.18,4.77-9.19,37.53-10.75,42.83l-.19,12.72a.54.54,0,0,1-1,.24c-2.68-5-2.68-6.14-2.68-17.82,0-3.33,1.38-55,1.38-64.25,0-1,0-3.81.74-5.29,0,0,3.1-7,5.53-13.11a.76.76,0,0,1,1.45.15c1.72,10.28,4.06,31.81,5.77,41.89,0,0,0,0,0-.05A8.19,8.19,0,0,1,1254.75,680.86Zm41.14-9.42c-3,7.51-10.64,25.67-14.67,34.34-.26.57-2.6,3.92-4.42,6.4a1.05,1.05,0,0,1-1.89-.73c.16-1.81.21-1.88.31-2.82,2-19,4.87-50.48,6.55-65.74.16-1.41.34-2.83.52-4.24.11-.94,3.13-1.53,3.49-.81,2,3.72,4,7.61,6,11.27C1296.56,657.77,1299.18,663.23,1295.89,671.44Zm-13.16-46.34c1.6,2.1,2.58,4.69,3.86,7.16-9.91.88-18.2,5.85-26.8,9.72-1.62.73-2,4.11-2.59,5.28a76.27,76.27,0,0,1-1.71-9.61c-.11-1.48,1-3.87,2.2-4.48,6.86-3.42,13.88-6.54,21-9.45C1279.7,623.29,1282,624.12,1282.73,625.1Zm-35-27.85c3,1.88,13.42,8.23,17.3,11.15l0-.06c3,2.47,5.37,4.49,8.5,7.09-2.44.86-16.79,6.65-20.13,7.83-5.88,2.42-11.65,6.73-12.12,14-8.32-3.64-16.11-6.8-23.65-10.49-3-1.47-5.38-4.21-8.14-6.23-5.27-3.84-4.61-9.7-5.59-15.61,2.41-.4,6.52-1.11,10.37-1.74a48.77,48.77,0,0,0,13.27-4.26C1235.8,594.89,1242,593.57,1247.78,597.25Zm-124.23-50.9c4.8,2,51.6,22.61,57.63,25.17-1.9.65-8.6,1.83-9.1,1.58-4.26-2.2-51.87-21.2-55.18-25.07C1117.1,547.62,1123.34,546.76,1123.55,546.35Zm-36.58,16c1.19.54,56.68,25.23,66.7,29.64a50.38,50.38,0,0,1,11.48-6.1v0c13.82-6,29.41-10.79,46.45-6.21-6.09,2.46-12.14,4.7-18,7.38-2.8,1.28-2.62,5.23.13,7.12,4.9,3.36,8,3.48,13.63,1.75a55.08,55.08,0,0,0,11.6-4.8c1.86-1.11,4.84-2.9,6.62-5.22l6.4,2.92a60.85,60.85,0,0,1-5.89,4c-7.2,3.65-14.9,5.38-22.92,6.21-1.48.15-3.65,2.66-3.86,4.29-.54,4.34-.18,8.79-.18,13.92-6.3-2.43-22-8.87-32-12.91a3.6,3.6,0,0,0-4.68,2,40,40,0,0,1-2.22,4.34l-14-6.39v0l-76.67-35.54C1074.12,566.73,1079.18,564.91,1087,562.33ZM1053.41,549c.72-1.29,3.94-2.38,5.42-1.85,6.64,2.38,14.36,6.76,20.86,9.53-6.62,1.87-13.33,7.19-21.43,3.55C1054.74,558.61,1051.55,552.28,1053.41,549Zm-17.56,69.78c1.92-.12,4.12-.91,5.73-.25,6,2.46,11.77,5.4,17.75,8.22-5.15,3.8-6.62,3.91-11.6.8-4-2.51-8-5.1-12-7.66C1035.8,619.47,1035.82,619.1,1035.85,618.73Zm-8.62,4.39c3.57,3.17,6.94,6.57,10.86,10.35-9.53,3-18.28,5.76-27.06,8.44a3.22,3.22,0,0,1-2.42-.3c-4.64-3.15-9.2-6.41-14.37-10.05,10.46-3.2,20-6.18,29.68-9A4.09,4.09,0,0,1,1027.23,623.12Zm-14.86-13.26c2.41,2.73,4.88,5.41,7.71,8.53l-29.59,9.08-13.69-9.63c5.11-1.63,9.63-3.11,14.18-4.49,5.36-1.64,10.8-3,16.1-4.88A4.29,4.29,0,0,1,1012.37,609.86ZM945.72,578.7c6.36,3.3,42,21.95,50.41,25.73-8.14,2.47-15.77,4.84-23.44,7a5.28,5.28,0,0,1-3.45-.36c-18.74-9.09-37.48-18.2-56.13-27.48-3.88-1.93-7.38-4.61-11.78-7.4,8.74-1.52,20.73-3.72,20.7-3.52C931,571.55,941.07,576.28,945.72,578.7ZM580.3,482.48c-4.07,2.37-7.46,4.18-12.41,2.33C554,479.62,513.8,468,499.09,463.1c-3.18-1.06-3.8-2.81-1.28-2.15C516.4,465.6,561.7,477.83,580.3,482.48Zm-79.72-24.23c3.49-1.33,24.08-9.37,25.42-9.83a16.16,16.16,0,0,1,5.67-.75c5.26.42,66.4,25.35,72.53,27.29-5,2-10.07,4.08-14.26,5.64a4.12,4.12,0,0,1-2.55-.06C582.08,478.81,500.59,458.28,500.58,458.25Zm93.81,30.8c36.31,12.63,72.83,24.65,109.28,36.88,4.14,1.39,8.37,2.6,12.4,4.28,2.81,1.18,6.55,2,7.92,4.66,1.9,3.66,2,6.84,19.91,14.4,4,1.68,26,11.66,31.06,14.11-4.32,2.54-5.28,5.63-8.17,11.44-13.48-6.14-115.53-50.63-144.21-61.93A325.37,325.37,0,0,1,578.19,491C583.46,488.18,588.13,486.88,594.39,489.05ZM735.1,539.79c-2.75-1.65-3.75-5.4-3.57-5.78,9.83,4.68,71.71,34.65,81.54,39.33-.17.36-4,1.12-4.17,1.48C799.06,570.15,744.94,544.45,735.1,539.79Zm70.59,43.32q27.39-12.78,55-25.12a6.2,6.2,0,0,1,5,.58c6.58,4.09,13,8.48,20.08,13.18-7.23,1.63-6,7.52-6.77,12.17-.37,2.11-.88,3.41-2.86,4.29-5.26,2.36-10.28,5.4-15.73,7.13-3.68,1.17-8,1-11.9.67-6.3-.56-12.57-1.47-18.34,1.9a20.35,20.35,0,0,0-5.85,4.93c-3.42,4.49-6.42,9.29-9.52,13.86-.32,0-.47,0-.57,0-11-5.87-10.24-3-10.33-16.2,0-4.51-.67-9-.59-13.52A5.22,5.22,0,0,1,805.69,583.11Zm39-23.43c-10.29-4.83-69.82-32.53-80.12-37.35,12.37,0,12.65,1.89,84.36,35.37Zm29.25-1.95c6.09-1.76,11.19-2.48,16.65.36,6.06,3.15,12.58,5.42,19.46,8.32-6.11,1-11.56,1.93-17,2.8a3.11,3.11,0,0,1-2-.13C885.42,565.46,879.93,561.76,873.9,557.73Zm-44.69,46.92a13.56,13.56,0,0,1,7.86-4,49.81,49.81,0,0,1,12.85.07c5.33.6,10.41.94,15.39-1.78a117.94,117.94,0,0,1,13.94-6.55c3-1.15,3.84-3.27,4.34-5.9.32-1.72.53-3.46.78-5.19.76-5.29,4.87-7.11,9.36-4.15l52.17,34.36L909.41,629.6c-6.1,3-12.14,6.19-18.37,8.92a12.39,12.39,0,0,1-7,.88c-14.88-3-29.71-6.38-44.54-9.7a19.31,19.31,0,0,1-4.43-1.94c-5.23-2.71-10.42-5.48-15.91-8.37C822.52,614.3,825.44,609.12,829.21,604.65Zm78.72-47.38c12.75,6,27.69,12,25.24,12.41a87,87,0,0,1-14-4.18c-4.34-1.9-60.61-26.5-81.85-35.09-5.64-1.83-10.9-5-16.54-6.8a20.93,20.93,0,0,0-3.34.32,1.3,1.3,0,0,0-.34,2.48c3.48,1.44,7.22,3.26,11.27,5,8.62,3.67,37.88,17,46.64,20.51-4.31,1.94-7.56.9-11.89-1.1-28.46-13.16-45.48-20.75-57.5-25.4-8.83-3.9-18.34-8.32-26.43-11a1.46,1.46,0,0,1,.34-2.84c8.45-.79,19.85-1.62,24.34.6,9,4.48,34.2,15.63,43.56,19.46h0c2.27.86,4.36,1.76,6,2.4C863.18,537.89,888.17,548.78,907.93,557.27ZM706.56,449.18c.4.17,10.29,4.56,10.65,4.75,3.36,1.94,2.45,2.76,2.45,4.23-3.92,2.37-10.06,5.61-14.65,2.79-4.21-2.59-12.36-5.9-17.53-8.35,0-2-1.65-7.27-1.65-10C689.06,441.36,690.47,440.93,706.56,449.18ZM684.68,438.7c-.22-5.57-.75-11.43,2.53-17l60.43,28c6.44,2.95,12.8,5.86,19.1,8.88.52.25.78,1.92.54,2.74-.81,2.74-1.91,5.39-3.06,8.54-6-2.81-12.18-5.61-18.27-8.55h0c-3.78-1.72-19.3-9-23.45-10.74-10.27-4.43-15.41-6.78-29.79-12.39C691,437.52,687,438.52,684.68,438.7Zm36.81,28c18.15,7.71,36.58,16.37,44.42,20l-9.39,11.54c-1-.46-34-13.78-49.33-20.09C703.43,476.61,717.62,465,721.49,466.67Zm6.28-3.93c-.64-.3,3.35-2.6,4.64-2q25.3,11.53,50.47,23.39c3,1.41,9.18,3.9,12.11,5.49v14.53l-7.62,1.17c-.34-2.57-2.09-9.12-3.11-14.28A4.2,4.2,0,0,0,782,488h0C763.73,479.6,745.93,471.24,727.77,462.74Zm77.29,37c0,1.5,0,4.47-.75,4.47l-1.21-.09c0-4.19-.12-8.38,0-12.56a4.35,4.35,0,0,0-3.17-4.85c-2.9-1.14-5.7-2.52-8.54-3.88-4.18-1.92-16.19-7.79-20.25-10-.92-.51-1.64-2.92-1.24-4,1.87-5.25,4.15-10.35,6-14.89,4.74,2.22,28.84,12.55,32.85,14.31a.55.55,0,0,1,0,.44C803.48,478.54,805.4,489.29,805.06,499.76Zm27.41,8.68c-.15,2,0,4,0,6.74-7.53-3.51-14.57-6.71-21.51-10.12a3.69,3.69,0,0,1-1.67-2.84c.11-7.17.16-14.37.82-21.5.28-3,2-5.85,3.24-9.2,7,3,13.63,5.87,20.21,8.86a2.64,2.64,0,0,1,1,2.33C830.74,491.05,833.08,499.87,832.47,508.44Zm15.82,4.1c-1,4-2.25,7.85-3.54,12.26-2.19-.86-4.37-1.58-6.41-2.59a2.83,2.83,0,0,1-1-2.15c-.07-7.66-.05-21.69-.05-29.36a11.92,11.92,0,0,1,.6-4.4s2.57-5.8,4.59-10.87a.63.63,0,0,1,1.22.11c1.43,8.54,3.37,26.43,4.8,34.81l0-.05A6.86,6.86,0,0,1,848.29,512.54Zm30.61-7c-2.5,6.23-4.13,12.82-6.17,19.24-.26.81-.64,1.57-1,2.35l-1,.27c-1.48,0-1.52-2.29-1.48-3.41.37-11.06,1-22.11,1.39-33.17.14-3.28,0-6.58.07-9.87a35.21,35.21,0,0,1,.43-3.52c.09-.78.75-.89,1-.29,1.7,3.09,3,6.5,5.17,9.21C882.33,492.57,881.64,498.74,878.9,505.57Zm-7.36-39.37a39.62,39.62,0,0,1,3.2,5.95c-8.23.73-15.12,4.86-22.27,8.08-1.35.6-1.7,3.41-2.15,4.38a62.32,62.32,0,0,1-1.42-8,4.6,4.6,0,0,1,1.83-3.72c5.7-2.85,11.53-5.44,17.42-7.86A3.84,3.84,0,0,1,871.54,466.2Zm-29-23.14c2.46,1.56,14.37,9.23,14.36,9.21l7.07,5.9c-2,.71-14,5.52-16.73,6.5-4.89,2-9.68,5.6-10.08,11.61-6.91-3-13.38-5.65-19.65-8.72-2.5-1.23-4.47-3.51-6.77-5.18-4.37-3.19-3.83-8.06-4.64-13l8.62-1.44a40.74,40.74,0,0,0,11-3.54C832.53,441.09,837.68,440,842.49,443.06ZM739.25,400.75c4,1.69,42.88,18.8,47.9,20.92-1.58.55-7.15,1.53-7.57,1.31-3.54-1.82-43.11-17.61-45.85-20.83C733.9,401.81,739.08,401.1,739.25,400.75ZM708.86,414c1,.44,47.09,21,55.43,24.63a41.39,41.39,0,0,1,9.54-5.07h0c11.49-4.95,24.45-9,38.61-5.16-5.06,2.05-10.09,3.91-15,6.14-2.32,1.06-2.18,4.35.11,5.91,4.07,2.8,6.66,2.9,11.33,1.46a45.38,45.38,0,0,0,9.63-4,19.68,19.68,0,0,0,5.51-4.34l5.31,2.43a49.4,49.4,0,0,1-4.89,3.29,53.33,53.33,0,0,1-19.05,5.16c-1.23.13-3,2.21-3.2,3.56-.45,3.61-.15,7.31-.15,11.58-5.24-2-18.3-7.38-26.56-10.73a3,3,0,0,0-3.89,1.69,34.67,34.67,0,0,1-1.85,3.6l-11.68-5.32v0l-63.71-29.53C698.17,417.69,702.38,416.18,708.86,414ZM681,402.92c.6-1.07,3.28-2,4.51-1.54,5.52,2,11.93,5.62,17.33,7.92-5.5,1.55-11.07,6-17.8,2.95C682.07,410.94,679.42,405.68,681,402.92Zm-50,70.79c29.89,9.44,59.78,18.89,89.79,28,19.46,5.88,39.26,10.67,58.63,16.82,10.56,3.36,68.29,30.88,78.53,35.24,1.61.73.93,1.07-.8,1.27s-2.81.42-4.19-.16c-8.87-3.79-65.27-30.44-74.24-34a41.2,41.2,0,0,0-13.51-2.67c-14-.45-26.92-5-40-9.23-35.05-11.32-70.14-22.5-105.63-33.86C623.38,472.09,627,472.43,631,473.71ZM748.21,521.5C765.91,527,782.27,535.39,799,543c12.66,5.79,25.18,11.89,37.76,17.86.65.31,1.26.71,2.37,1.33-6.63,3.06-12.82,6-19.08,8.72-.7.31-1.9-.22-2.74-.62-24.65-11.88-49.07-24.26-74-35.49-13.07-5.88-27-9.87-40.62-14.5-35.56-12.07-71.17-24-107.39-36.24,5.24-2.1,9.88-4.2,14.7-5.75,1.59-.51,3.71.18,5.46.74C659.7,493.22,703.86,507.68,748.21,521.5Zm-134-52.36c-3.5,2.32-6.44,2.72-10.13,1.21-10.37-4.27-50.26-18.66-60.72-22.71a31.1,31.1,0,0,1-5.05-2.14c-1.61-1.27,1.53-1.31,2.56-1C555.4,449.14,599.28,464.39,614.18,469.14Zm-57.85-30.47c.67-.34,6.5,0,6.5,0,1,.83,6.17,8.94,5.34,9a42,42,0,0,1-4.49,0C562.83,447.5,555.67,439,556.33,438.67Zm32.15-15.12c-.75-2.8-2.41-8.74-3.06-9.34a12.76,12.76,0,0,0-4.09-3c-1-.51,54.37-54.22,55.39-54.22a3.94,3.94,0,0,1,2.17,1.17c.37,1,.48,5.1.51,8C624.53,383,600.89,409.62,588.48,423.55ZM453.67,391.17c2.16-.17,8.83.16,10.5-.17s2.5-1.83,4-1.83,40.5,21.83,43.33,22,121.83-60,121.83-61-28.7-12.43-36.24-15.45a.81.81,0,0,1,0-1.49c3.76-1.62,12.21-5.23,12.6-5.23s36.06,10.73,37.5,11.17c2.46.75,4.33,1,4.5,2.33s2.15,8.67,1,9.83c-.26.27-4,4.47-9.65,10.83-.28-3.46-1.22-8.49-2.56-9.38-2-1.34-2-1.34-3.24-1.34s-50.83,47.72-63.43,59.83a2,2,0,0,0,.8,3.32c2.13.6,4.59,1.77,5.73,4,1.89,3.65,2.12,5.82,3.81,9.89-2.21,2.48-3.59,4-3.81,4.22-.83.81-30.63,1-31.63,1.57s-68-24.57-68.5-24.57S452,391.29,453.67,391.17Zm-161,75c-2.17,0-41.11-19.34-42.11-20.46s-.37-7.8.11-9.21c.27-.8,11.83-2.33,12.33-2.26S308.17,455.5,310.83,455s138.84-27.12,138.84-28.62-32.06-21.68-31.67-22c.67-.54,7.5-5.66,8.17-6.16s8.33-1.67,9.58-1.67S469,417,470.67,417.67s33.48,23.3,33.49,24.61v5.8a2.26,2.26,0,0,1-.92,1.83c-10.86,7.92-21.49,15.83-23.74,16.42-.29.08-2.46.14-6.11.18.46-13.19-2-17.14-4.61-17.14s-135.44,5-142.56,5.32c-7.55.32-10.22.56-8.18,2.07l2.29,1.82s.92,4.31,1.62,7.72ZM486.91,476a11.35,11.35,0,0,1-5.58.83c-1.5-.33-5.5-5.83-4.66-6.33s2.66-.33,3.66-.67a24.93,24.93,0,0,0,3.5-2S487.66,475.5,486.91,476Zm-57.13-9.38c-32.22,0-73.39-.18-102.17-.3-.3-1.75-1.42-7.33-1.75-8.13-.62-1.48,137.14-3.08,139.14-2.62s2.44-.46,2.44,2v8.93Zm7,17.67L428.89,500a1,1,0,0,1-1.89-.16l-4.52-14.69C427,481.34,431.55,480.12,436.75,484.29Zm-37.41,12.24,18.45-9.39c1.47,4.78,2.69,9.35,4.34,13.75a8.87,8.87,0,0,0,3.43,4.49c22.7,12.68,45.49,25.2,68.27,37.76a8.9,8.9,0,0,0,3,.4,2.12,2.12,0,0,0,1.51-3.18,2.82,2.82,0,0,0-.9-1c-6.6-3.91-13.33-7.6-20.05-11.29-10.9-6-21.82-11.93-32.91-18,2.24-4.13,4.44-8.25,6.67-12.33.75-1.36,29,16.22,29.71,14.86s7.19-9.49,8-11c.57-1-30.82-14.19-29.6-14.42,1.84-.34,10.71-3.92,18.32-7.33,2.18-1,20.2,13.81,19.39,11.21-1.74-5.56-3.67-10.35-6.5-18.69-.83-4-2-7.27,1-8.33,0,0,58,19.48,76.27,26.13,2.77,1,5,3.54,7.53,5.15,21.1,13.15,44.36,21.58,67.2,31,24.72,10.17,117.25,51.43,124.7,54.42,3.23,1.3,4.22-.48,4.74-2.9,1.13-5.26,4.06-8.78,9.33-10.09a6.15,6.15,0,0,1,3.78.15c6.45,3,12.81,6.28,19.19,9.45-.08.26-.08.57-.21.64-6.3,3.42-6.51,4-5.78,11.63.39,4.12.5,8.27.77,12.4.24,3.76.34,7.54.87,11.26a4.92,4.92,0,0,0,2.46,2.93c10.5,5.67,20.86,11.67,31.7,16.6,5.68,2.59,12.21,3.34,18.4,4.74,11.07,2.49,22.15,4.92,33.27,7.19a8.91,8.91,0,0,0,5.33-.56c18.76-9.09,37.43-18.36,56.15-27.52,5.93-2.9,6.28-4,2.1-9.51,7,3.42,14.4,5.66,19.92,10.17,4,3.26,8,6.7,12.08,9.87,7.8,6,15.65,11.93,23.41,18a8.75,8.75,0,0,0,9.45,1.27c4.16-1.67,39.84,29.69,47.92,36.73.46.4,4.18,3.12,6.88,3.41,4.12.44,5.21-.51,9.28-1.22,4.4-.77,7.84-3.1,10-8.12,4,8.11,7.73,15.57,11.43,23a.68.68,0,0,1-.73,1c-4.64-.81-16.36-2.86-26.6-5-6.34-1.37-11.46-7.65-19.19-6.13-1.33.26-1.45-2.18-.31-2.9,1.46-.9,2.91-1.8,3.09-1.94.34-1.11-.13-2-5.24-5.52-16.59-11.45-32.74-23-41.94-27-3.64-1.6-3.1,1.64,6.25,8.32,3.45,2.47,7.63,5.6,10.87,8.12-5.71,3-13.3,6.79-18.88,9.76-11,5.84-22,11.69-32.88,17.65a4,4,0,0,1-4.69-.3c-4.06-2.75-8.11-5.56-12.38-7.95a10.56,10.56,0,0,0-6.3-1.45c-7.25,1.17-14.43,2.79-21.61,4.38-1.16.26-2.88,1.06-3,1.88a4.5,4.5,0,0,0,1.48,3.48c6.51,5.78,13.14,11.42,19.75,17.08,6.13,5.26,12.25,10.52,18.42,15.72,1.38,1.16,3,2.1,4.13,2.92.94,3.25,1.46,6.65,2.91,9.58,1.77,3.57,1.26,5.35-.33,8.07-6.52,12.1-16.74,31-20.41,36.92-5-3.57-10-7.23-15.07-10.67-2.88-1.94-6.09-3.39-9-5.33-5.11-3.46-9.33-1.17-13.75,1.52-5,3-10.35,5.5-15.19,8.74a13.39,13.39,0,0,0-5.08,6.4c-3,9.12-5.43,18.42-8,27.66-1.16,4.15,1.73,9.16,5.84,9,2-.08,4.38-2.36,5.67-4.26,4.23-6.24,8.21-12.67,12-19.21,4.28-7.49,11.5-11.93,17.68-17.42,1.62-1.45,4.49-1.48,7.72-2.44l17.06,12.2c-5.6,4.71-11.2,9-16.32,13.84-8.06,7.59-17.07,14-25.33,21.34-1.12,1-1.7,2.58-2.29,3.5-20.35-7.37-40.89-14.93-61.52-22.24-21.56-7.65-43.33-14.75-64.78-22.73-9.2-3.42-17.9-8.26-26.65-12.79-10.37-5.35-20.54-11.06-31.12-16.79,5.94-9.22,11.77-18.36,17.7-27.44,6.68-10.23,6.15-13.4,8.16-8a14.54,14.54,0,0,0,3.57,5.55c15.52,14.27,31.17,28.42,46.78,42.6q9.58,8.7,19.18,17.38a9.89,9.89,0,0,0,2.28,1.58c3.44,1.67,5.38.61,5-3-.65-6.6-1.6-13.16-2.46-19.73-.91-6.94-1.88-13.86-2.8-20.79q-1.8-13.56-3.56-27.13c-.31-2.43-.54-4.88-.75-7a.5.5,0,0,1,.91-.32,16.69,16.69,0,0,0,2.76,3.54c12.56,11.14,25.24,22.16,37.89,33.2,9.89,8.63,19.7,17.37,29.78,25.77A11,11,0,0,0,900,775.1c6.88-3,13.5-6.65,20.43-9.56,3.77-1.58,8-2,11.93-3.3,1.36-.44,3.24-1.64,3.41-2.73s-1.18-2.86-2.33-3.72c-16.21-12.17-32.5-24.22-49-36.5l5.37-3.8,32.42,24.81C929,745.51,936,750.59,942.61,756c2.87,2.32,11.26-1.62,13.27-2.66a17,17,0,0,0,5-3.43,22.17,22.17,0,0,0,6.11-9.36c1.43-4.11-2.22-6.71-5-8.88-7.77-6-15.85-11.63-23.62-17.65-4.88-3.78-9.38-8-14.13-12-1.91-1.6-3.84-3.25-6.78-1.81-.74.36-2.15-.66-3.81-1.24,2.12-1.46,3.63-2.55,5.19-3.58a3.58,3.58,0,0,0,.63-5.69c-4.82-5-25.56-24.59-31.33-29.18-.48-.38-1.06-1.05-1.52-1-6.76.82-11.41-3.92-16.72-6.56-22.69-11.33-45.17-23.07-67.77-34.56-2-1-95.25-51.77-101.63-55.1C690.4,558,681.1,551.42,671,546.4c-9.58-4.75-19.79-8.22-29.74-12.21-1.86-.74-6.14-1.79-7.29-4.25a6.67,6.67,0,0,0-4.16-3.69c-22.3-10-39.7-17.73-62-27.69-7.34-3.27-14.63-6.65-22-9.78a10.64,10.64,0,0,0-5.37-.6c-10.68,1.49-31.27,4.38-41.94,5.49-.77.08-10.41,15.16-9.77,16.22s12.66-5.33,12.66-5.33c5.92-.81,9.91-1.2,10.54-.51,1.09,1.19,24.88,23.26,33,30.49C551,540,557,545.47,563.3,551.09c-3.46,2.17-5.89,2.29-9-.78-9.21-9.19-18.86-17.94-28.33-26.88-.62-.59-1.67-1.34-2.23-1.93-3.3-3.43-4.1-1.8-6.62,1-6.55,7.31-9.77,13.5-10.73,23.62-.58,6.06-2.06,12-3.19,18.42l-25.31-7.28a40.63,40.63,0,0,1-5.37-1.63c-5.11-2.26-9.71-2.32-14,1.94a5,5,0,0,1-4.57.54c-14.73-7.11-29.33-14.49-44.05-21.64-2.2-1.07-2.94-2.33-2.73-4.64.36-3.86.68-7.74.7-11.61a15.6,15.6,0,0,0-1.09-5.77C404.51,508.61,402,502.85,399.34,496.53ZM967.15,700.78v23.27l-33.52-28.71c6.53-1.34,12.32-2.63,18.16-3.63,1-.18,2.34.68,3.37,1.32C959.3,695.63,963.38,698.34,967.15,700.78Zm-52.41,86.3c-10.46,8.7-14.69,21.29-23.08,32.22-.29-1.51-.79-2.51-.58-3.3,2.41-8.89,4.86-17.77,7.44-26.62,1.32-4.52,7-6.91,11.24-4.88C911.32,785.25,912.84,786.09,914.74,787.08ZM775.37,946.59c-4,1.09-8,1.88-11.9,3.24-6.36,2.23-12.6,3.1-19.34,1.43-7.58-1.87-15.35-2.94-23.09-5,7.53-2.06,15.05-4.16,22.59-6.19,21-5.68,42.1-11.37,63.19-16.92a6.69,6.69,0,0,1,4.83.61c4.18,2.75,8.1,5.9,12.68,9.33C807.51,937.73,791.44,942.17,775.37,946.59Zm50.54-8.8c2.47-.68,4.89-1.54,7.66-2.42V951l-77.45,13.51c-.36-1.82-.71-3.14-.87-4.49-.22-1.83.29-2.75,2.47-3.34C780.48,950.47,803.19,944.12,825.91,937.79ZM710.17,944c-.8-10.5-1.57-20.54-2.34-30.72,16.55-4.57,32.82-8.4,48.62-13.66,9.61-3.19,17.18-2.2,25,4.08,6.81,5.43,14.54,9.69,22.54,14.92ZM764,881.07c0,.21-.19.42-.46,1l-62.35-37.3c-2.52-13,1.74-23.22,6.19-31.3A5.49,5.49,0,0,1,711,811q12.48-1.41,25-2.26a5.8,5.8,0,0,1,4,1.48c7.6,7.41,15.1,14.94,22.54,22.51a5.22,5.22,0,0,1,1.5,3.23C764.07,851,764,866,764,881.07Zm-43.1-17q19.25,11.55,38.47,23.16a18.87,18.87,0,0,1,1.63,1.36c-20,5.3-39.55,10.49-59.08,15.59a4.63,4.63,0,0,1-3.37-.51q-35.35-24.44-70.61-49c-.47-.33,25.89-20.4,31.89-23.57,2.3-1.22,3.88-1.44,6.09.16C669.68,834,718.12,862.41,720.91,864.09Zm-28.57,41.52c-6.89,1.86-13,3.6-19.21,5.19-17.39,4.47-34.81,8.82-52.18,13.36a6.64,6.64,0,0,1-6.23-1.14c-14.94-10.65-30-21.14-45-31.69-.41-.29-.74-.67-1.86-1.69,19.14-10,37.77-19.69,56.49-29.24,1-.52,3.08.08,4.19.84q26.55,18.32,53,36.82C684.88,900.42,688.26,902.77,692.34,905.61ZM630.85,792.46c4.78-8.28,16.95-30.11,21.62-38.17.17.07,1.15,2.82,1.32,2.89C656,768.06,661,791.56,664,805.87a41.22,41.22,0,0,1,1.28,6.18c.23,1.58.41,3.16.67,5.16Zm-.43-96.38c-.8-9-5.62-14.47-13.25-18.76a234.34,234.34,0,0,1-25-16.44c-3.72-2.57-4.73-4.44-4.54-6.09.54-4.84,1.48-12.93,2.11-17.76.43-3.33,1-6.64,1.61-10.54,9.05,8.48,17.55,16.9,26.58,24.7a20.21,20.21,0,0,1,3.32,3.59h0c3.71,4.49,13.35,35.82,14.2,38,3.19,8.25,6.22,16.58,9,25-8.25-4.48-38.45-20-37.94-19.94,8.82,1.52,10.1,1.86,18.74,3.41C630,702.12,630.83,700.8,630.42,696.08ZM507.63,567.59c-.2-.37.22-2.64.64-2.17,3.58,3.6,6.92,6.91,10.21,10.28,5.74,5.88,11.35,11.88,17.2,17.65,2,2,2.74,4,1.8,6.55-1.25,3.39-.72,6.11,1.87,8.85a233.36,233.36,0,0,1,15.8,18.55l-68.24-27.62c.3-3.59-.21-7.43,1.13-10.44,1.21-2.72,4.36-4.64,6.82-6.74,3.44-2.94,7-5.74,10.56-8.56C507.51,572.27,509.26,570.58,507.63,567.59ZM930.4,730.11c-1.57-1.14-18.79-13.51-20.69-14.67a81.34,81.34,0,0,0,8.92-9.55c7.75,5.57,30.84,22.5,38.92,28.31-3.29,2.6-6.09,5-9.11,7.09a3.5,3.5,0,0,1-3.18-.23C940.24,737.51,935.37,733.74,930.4,730.11Zm13.35,20.33c-8.28-6.36-32-24.11-40.69-30.8,1-4.17,9.2,3.19,12.88,5.93,3.52,2.62,22.36,17,26.06,19.31C944.28,746.33,944.69,747.88,943.75,750.44ZM874,720.92,859,710.6c12.94-12.57,28.71-20.8,42.33-31.48l13.27,12.64Zm-55.54-20C798,685.81,777,671.21,756.64,656c-2.52-1.89-4.44-2.22-6.81.27a5.71,5.71,0,0,1-4.29,1.46c-4.19-.52-8.32-1.52-12.47-2.35-2.77-.56-3.29-.6-3.77,1.45a.53.53,0,0,1-1,.12c-1.62-3.24-1.53-5.15-.15-10.93.84-3.51,1.52-7.06,2.28-10.59s1.53-7.07,2.28-10.54l108.21,63.85c-2.29,2-4.33,3.64-6.28,5.42-3.29,3-3.23,4.19.38,6.63q17.3,11.76,34.65,23.46c.82.55,1.58,1.2,2.59,2l-5.36,5.65L820,706.27C821.16,704.49,820.55,702.49,818.46,700.94ZM663,660.5c-7.21-5.89-14.64-11.5-22-17.22-1.08-.84-2.14-1.72-3.2-2.59C649.73,622.81,662.24,606,680.34,594c9.55,6.51,19.49,13.31,29.46,20.08,5.19,3.52,10.49,6.91,15.59,10.57a4.18,4.18,0,0,1,1.37,3.41q-1.6,9-3.75,17.91a26.16,26.16,0,0,0,.94,14.76q9.06,27.57,17.82,55.24a5.65,5.65,0,0,1-.12,4.14c-6.73,10.73-13.64,21.34-20.58,32.11l-46.93-26c-5.71-3.17-11.34-6.5-17.15-9.47-2.67-1.36-3-2.78-2.36-5.64,3.53-15.3,6.83-30.65,10-46A5.64,5.64,0,0,0,663,660.5Zm-33.11-26c-2.91-2.06-6.32-3.61-8.36-6.22-1.47-1.88-1.19-5.18-1.56-7.86-1.45-10.64-2.92-21.28-4.2-32a4.7,4.7,0,0,1,1.46-3.68q11.49-8.55,23.29-16.67a4.27,4.27,0,0,1,3.89,0c5.8,4,11.41,8.3,17.13,12.52,2.88,2.18,7.41,5.61,10.62,8.06C656.38,598.61,641.18,620.37,629.91,634.54Zm105.86,28.69a16.74,16.74,0,0,1-.4-2.35,44.88,44.88,0,0,1,7.13,1.2,5,5,0,0,1,2.76,2.86c6.52,20.91,12.92,41.86,19.08,63.06-3.73-3.59-9.05-5-10.93-11.12C747.9,698.88,741.69,681.1,735.77,663.23ZM751,666.75c4,2.84,7.31,4.94,10.29,7.41,1,.82,1.37,2.55,1.74,3.94q7.71,29.68,15.3,59.4a16.74,16.74,0,0,1,.24,2.81,28.29,28.29,0,0,1-9.33-14.58C763.54,706.36,757.38,687.12,751,666.75Zm17.9,14.38a4.7,4.7,0,0,1,.18-1.26c3.24,2.34,6.9,4.06,9.14,6.91,1.75,2.22,1.83,5.81,2.47,8.83q5.74,27.24,11.4,54.5a7.89,7.89,0,0,1-.11,1.75c-3.32-2.13-6.14-4.23-7.12-8.08Q776.94,712.45,768.94,681.13Zm15.88,10.17c3.57,2.55,7.13,4.38,9.66,7.15,1.54,1.69,1.71,4.79,2.13,7.32,2.14,12.89,4.13,25.81,6.22,38.7,1,6.12,2.11,12.21,3.25,18.74-7.05-3.22-8.27-9-9.48-15C792.86,729.41,788.85,710.67,784.82,691.3Zm19.24,30.84c-1-6.18-1.94-12.39-3-19,3.53,2.51,6.94,4.66,10,7.25,1,.88,1.38,2.85,1.58,4.39q3.14,23.36,6.09,46.73c.56,4.44,1,8.89,1.51,13.56-7-4.25-9.42-10.49-10.4-18C808.28,745.4,806,733.8,804.06,722.14Zm33.35-.6,76.11,41.75c-5.58,2.55-10.67,5.2-16,7.13a7.35,7.35,0,0,1-6.12-1.21c-14-11.92-27.83-24.09-41.7-36.17-4.2-3.66-8.44-7.28-12.66-10.92A.35.35,0,0,1,837.41,721.54ZM875.87,733c-.54-.3-1-.68-2-1.33l7.7-8.14,46.73,34.64c-2.61,1.61-4.58,1.71-7.17.22C906.11,749.75,891,741.4,875.87,733ZM878,689.5q-10.77,7.9-21.33,16.08c-1.81,1.39-3.25,1.73-5.25.26-4-3-8.27-5.67-12.55-8.57,13.78-13.2,30.31-22.19,45-32.75,4.32,4,8.4,7.72,12.79,11.75C890.16,680.85,884,685.08,878,689.5Zm-34.67-7.29a3.43,3.43,0,0,1-3-.15c-10.39-5.86-65.45-37.5-68-39,8-6.7,15.86-13.31,23.81-19.77a4,4,0,0,1,3.52-.54q36.57,18.66,73,37.54a6.51,6.51,0,0,1,.84.68C863.44,668.14,853.41,675.24,843.29,682.21Zm-78.69-46a3,3,0,0,1-2.59.53c-7.72-4.85-15.35-9.83-23.42-15,7.94-5.79,15.41-11.29,23-16.66a3.41,3.41,0,0,1,2.93-.14c7.76,3.79,15.44,7.72,23.68,11.89C779.94,623.58,772.3,629.93,764.6,636.19Zm-28.89-18.8a4,4,0,0,1-3.6.08c-10.5-6.64-20.9-13.44-31.56-20.36,1.09-1.43,2-2.71,3-3.92,2.38-2.92,8.43-11.28,11.33-11.29,5.91,0,18.09,6.21,33.1,14.14,3.21,1.7,6.41,3.44,9.83,5.26C750.32,606.79,743.08,612.18,735.71,617.39ZM693,592.11c-12.31-8.79-31-22-43-30.58l.22-.72c3.07-2.22,10.34-9.14,14.19-11.93,5.22,3,37.37,21.84,43.74,25.48Zm-48-37.32-7.73-16.65,20.51,8.39Zm-7.3,7L610.82,581.9c-5.15-4.51-10.26-9-15.36-13.45q-17.79-15.62-35.55-31.23c-9.47-8.34-18.9-16.74-28.37-25.07-3.79-3.34-7.68-6.56-11.46-9.89a7.48,7.48,0,0,1-1.17-2c.59-.31,1.17-.64,1.76-.91,3.78-1.72,19.2-5.75,23.58-3.71,30.12,14,46,21,76.18,35a10.12,10.12,0,0,1,6.05,5.09C629.39,541.64,633.63,551.75,637.63,561.75ZM615.73,640c-6-6.78-12.48-14.28-19.09-21.7-1.9-2.12-2.26-4-.23-6.27a131.66,131.66,0,0,1,14.25-12.81C612.4,613.2,614.11,627,615.73,640Zm-28.11-66.11c1.9-1.44,1.32-1.5,5.81,2.64,1.46,1.35,2.59,2.4,3.58,3.3-4,4-11,10.84-14.89,14.72a6.62,6.62,0,0,1-.71-.52l-7.15-7.27C577.66,583.76,584.05,576.58,587.62,573.86Zm-16.94,9.76-7-6.64c2.37-2.78,9.24-8.8,11.79-11.27s3-1.87,5.75.71c1.18,1.1,2.74,2.65,3.41,3.15C580.21,574.05,574.39,579.86,570.68,583.62Zm3.14-23.71c-4.23,4-10,9.28-14,13.11l-6.52-6.79c3.31-3.5,8.56-9.53,14.15-12.19C567.49,554,573.33,559.25,573.82,559.91Zm-21.24,33.38a7.31,7.31,0,0,0,1.84,6.75c2.76,3.39,5.42,6.86,8.12,10.31a.58.58,0,0,1-.78.84c-1.85-1.25-3.72-2.48-5.54-3.78-4.53-3.22-5.28-3-6.86,2-.15.48-.31,1-.69,2.07-2.27-2.51-4.38-4.75-6.36-7.09a2.71,2.71,0,0,1-.49-2.06c2-8.44,4.06-16.86,6.08-25.15C556.76,580.7,553.7,587.49,552.58,593.29Zm-5.1-29.84a10.67,10.67,0,0,0-3,5.11c-1.35,5.41-3.56,15.87-4.35,19.4,0,.14-.06.28-.09.42s-.07.29-.1.4h0a10.91,10.91,0,0,1-.57,1.54c-9.8-10.2-17.84-18.37-27.21-28.45a7.86,7.86,0,0,1-2-5.94c.22-2.57,1.14-6.83,1.85-10.87.21-1.94,1-6.35,2.37-8.61a23.33,23.33,0,0,1,3.47-4.87l31.41,30.1Zm-60.64,19.22a11.75,11.75,0,0,0-3.73,5.68c-.79,3.64-.61,7.49-1,11.24-.27,2.71.91,4.13,3.38,5.12,17.67,7.07,35.31,14.25,53,21.38,5.8,2.34,11.43,5.61,17.47,6.76,8.59,1.64,12.08,8.63,18.41,14.43-4.07-.34-7.08-.5-10.06-.85q-19.18-2.23-38.36-4.56c-2.75-.33-5-1.37-6.19-4.13-1.78-4.18-5.16-6.53-9.15-8.51-24.53-12.12-49-24.4-73.46-36.62L434,591c2.24-2.42,23.23-24.67,29.21-30.19a5.67,5.67,0,0,1,4.39-1.31c4.41,1,16.19,4.58,22.36,6.43.24,0,.48.12.74.2,3.73,1.24,7.54,2.24,11.93,3.51C497.06,574.19,491.81,578.27,486.84,582.67ZM563.2,627.8c-2.61-2.9-5-6-7.75-8.76-2-2-3.33-3.87-1-6.66,2.22,1.64,4.64,3.52,7.17,5.26,2.84,2,4.45,1.33,5.39-2,1-3.64,1.21-7.13-1.74-10.16a52.43,52.43,0,0,1-3.47-4.48c-4.5-5.73-4.5-5.73-2.87-14.08,3,3.07,5.78,6,8.64,8.77q7.31,7.15,14.73,14.19c6,5.68,5.87,5.64,4.71,13.25s-2,15.07-3,22.61c-.15,1.09-.53,2.14-1,3.94C576,642,569.6,634.91,563.2,627.8Zm22.7-30.15c3.05-2.69,9.44-9.61,13-12.34,2-1.55,2.72-1.65,3.9-.62,1.57,1.38,5.17,4.6,6.35,5.62-4.6,4-11.84,11.4-15.86,15Zm38.33,40.73c10.73,8,20.83,15.68,31.09,23.14,2.66,1.93,1.66,4.07,1.21,6.28q-3.74,18.45-7.54,36.88l-.68.23C640.35,682.92,632.4,660.94,624.23,638.38Zm39.83,118.17a6.52,6.52,0,0,1-3.46-4.84c-1.44-7.2-3.3-14.32-4.89-21.49a24.34,24.34,0,0,1,0-4.66c34.43,18.67,81.51,44.7,115.81,63.31-.25,1-.51,2-.74,3a4.08,4.08,0,0,1-3.52,3.07c-10.52,1.19-20.68,2.35-30.85,3.44a4.32,4.32,0,0,1-2.43-.74C715,786.44,683,767.67,664.06,756.55ZM400.55,526.92a.5.5,0,0,1,1,.25c-.2,3-.35,5.93-.68,8.88-.3,2.7.87,4,3.26,5.17,15.61,7.55,31.14,15.26,47.05,23.1-4.82,5.47-9.49,10.88-14.29,16.17-5.69,6.28-5.74,6.24-13.44,2.79-.34-.15-1.42-.54-1.36-.83.72-2.33,1.43-4.78,2.23-7.19,1-2.9.67-4.94-2.67-6.24-5.26-2-10.24-4.78-15.52-6.72a10.79,10.79,0,0,0-6.81,0c-6.12,2.17-12,4.87-19.08,7.78Zm-24.08,51a4.64,4.64,0,0,1,2.35-1.74c7.5-3.12,15-6.21,22.56-9.18a4.5,4.5,0,0,1,3.11.09c4.26,1.83,8.41,3.9,12.66,5.74,1.73.74,2.17,1.39,1.46,3.38-.77,2.16-1.07,3.46-1.86,5.65-1,2.88-.08,4.18,2.44,5.17,2.67,1,5.27,2.28,8.38,3.65-2.92,3.4-5.61,6.61-8.39,9.75-4,4.53-8,9.07-12.17,13.46-.73.77-2.56,1.46-3.33,1.08-12.06-5.94-24-12.07-36.27-18.28C370.49,590.22,373.41,584,376.47,577.88ZM217.41,637.26a4.22,4.22,0,0,1,3.34.65c6.07,3.92,12.06,8,18.84,12.51-12.77,5.28-20.05-3.39-29-9.11A59.92,59.92,0,0,1,217.41,637.26Zm-28.58,33.26c.78-2.92,25.79-12.16,31-13.37,7.71-1.81,12.11-.18,18.18,3,4.4,2.28,8.28,5.55,12.35,8.35-4.1,7.15-11.54,8.86-18.26,11.17-6,2.08-12.55,3-18.92,4-2.81.44-3.57,1.9-3.76,4.23-.38,4.63-.73,9.26-1.12,14.13a17.62,17.62,0,0,1-9.54-9c-1-2-3-3.69-4.58-5.21-2.07-2-5.83-5.08-6.54-6.92C187,679.28,188.62,671.35,188.83,670.52Zm58.63,36.06c3.34,3.14,6.65,4.26,10.9,2.61,4.43-1.71,8.82-3.52,13.2-5.35,3.6-1.51,5.08-6.3,2.52-9.13a84.59,84.59,0,0,0-17.69-15.54c-1.5-1-4.5-1.55-6.24-1.89,2.41-4.61,3.08-4.71,7.52-1.74,10.27,6.86,20.52,13.72,28.69,23.85l-16.59,7.16c-6.2,2.67-12.52,5.12-18.55,8.14-2,1-3.51,3.31-4.74,5.33-1.13,1.84-1.57,4.1-2.42,6.48C236.14,721,228.28,716,221,710.36c-6.43-5-8.73-12.07-7.36-20.1.16-1,1.79-2.18,2.88-2.35,3.7-.56,7.47-.71,10.53-1,1.74,2.22,2.73,3.9,4.11,5.16C236.52,697,242.15,701.61,247.46,706.58Zm-11.41-18.53c4.56-1.73,9.59-3.7,14.68-5.52a3.45,3.45,0,0,1,2.54.34A63.84,63.84,0,0,1,271,698.62c-5,2-9.73,3.89-14.43,5.9-2.38,1-4.1.2-5.73-1.48C246,698.11,241.14,693.22,236.05,688.05ZM133.91,603.92a7.33,7.33,0,0,1,5.07.57c4.64,2.64,9.1,5.59,13.73,8.54a1,1,0,0,1-.13,1.68c-2.47,1.16-4,.1-6.61-1.59-4.16-2.7-8.2-5.16-12.31-8C133.06,604.67,133,604.23,133.91,603.92Zm-5.22,3.68c2.81,1.59,9.17,6.5,13.71,9.72,1.14.92-1.81,1.34-2.64.8-4.88-3.22-8.9-6-14.16-10.13C124.71,607.12,127.46,606.91,128.69,607.6Zm-8.75,2.64c2.34.91,14.4,9.49,14.87,10.4.25.85-1.61,1.28-2.77.65a91.29,91.29,0,0,1-14.81-10.35C116.69,610.33,118.65,609.73,119.94,610.24ZM112,613.09c4.83,3.13,13.38,9.66,14.31,10.9.29.27,0,.73-.33,1.18-.5.79-2.51-.23-3.44-.84a87.73,87.73,0,0,1-12.85-9.53C108.53,613.72,111.07,612.48,112,613.09ZM97.19,626.22c-.07-3.39-.65-7,3.41-8.61a3.92,3.92,0,0,1,3.14.07c5,3.32,9.88,6.84,14.59,10.15l-7.12,6.07c-.09.08-.21.21-.3.2-3.38-.36-6.86-.34-10.12-1.19S97.25,629.13,97.19,626.22Zm17.12,61.72-.06.52v.06h0c-.5,4.63-1.13,9.2-1.53,12.42-2.89-2.39-5.83-3.47-8.59-7.06-1.41-1.84-.82-7.17-.66-10.06.13-2.25,2.4-38.47,2.62-39.53,10.38,4.76,11.71,5.43,11.07,13-.24,3.7-2.29,24.57-2.84,30.51Zm12.1,24.77c-1.24-.79-2.18-1.34-3.07-2-5.44-3.79-6.62-4.76-6.17-9.12h0s0-.09,0-.14l0-.25c.57-5,3.21-27.66,3.69-32,3.49,2.14,9.59,6.54,9.59,7.93,0,5.12-3.13,30.2-3.59,31.76C126.75,710.13,126.58,711.39,126.41,712.71Zm6.46,9.67c-2.3-1.89-2.68-3.18-2.25-5.76,1-5.89,1.61-11.84,2.29-17.78.8-7,1.45-14.06,2.24-21.07.34-3.08,0-5.6-3.08-7.38-3.57-2-6.87-4.56-10.66-7.12.28-3.66.51-7.66.9-11.65.28-2.81-.53-4.7-3.21-6.11-3.09-1.62-5.89-3.8-9.16-6-.94-.72.19-.83,1.14-.37,5.8,2.78,10.93-.88,15.82-3.59a4.34,4.34,0,0,1,5.43.36c7.95,5.76,16.08,11.26,24.14,16.88.79.55,12.66,8.77,13.69,9.65h0c3,2.07,6,4.15,8.94,6.31.79.57,3.93,1.72,3.94,6.53,0,2.11-2.2,5.32-4.95,7.37-3.12,2.34-3.34,5.68-3.67,9.08-.41,4.21-.88,8.41-1.39,13.29-5.17-3.68-10.46-6.64-14.83-10.39v0c-1.17-.73-15.32-11.1-16.89-12-2-1.1-3.75-.93-4.1,1.76-.83,6.32-1.54,12.65-2.29,19-.27,2.24-.42,4.49-.78,6.71-.71,4.33.88,7,4.72,9.5a42.16,42.16,0,0,1,4.52,3.39c1,.83,3.47,1.39,1.49,3.22-1.21,1.11-2.37,3.15-5.06,1.25C136.67,725.35,135.57,724.59,132.87,722.38Zm35,11.86c-5.39-3.42-19.86-14.12-25.76-18.09l-.32-.21-.26-.17v0c-2.36-1.77-2.66-4.17-2-8.87.85-5.75,1.13-11.58,1.72-18l30,20.86C171.11,711.89,168.84,727.16,167.91,734.24Zm.08,14.33L145.93,732c1.37-1.09,3-2.49,4.42-3.58,5.89,3.82,11.38,7.86,17,11.82,1,.7,1.48,2.61,1.61,4S168.41,746.91,168,748.57Zm55.82,66.36c-27.86-21.22-58-44.28-85.44-65.2,2.08-2.65,5.65-3.87,8.12-1.93C159.56,758.09,215,798,222.88,803.38l15.11,2.5c.31,1,.6,1.89.92,2.87C234.81,810.4,228,813.23,223.81,814.93Zm21.5-3.49c-.32-.18-.16-.12,0,0Zm6.64-4.25c-4-2.3-7.08-3.8-12.13-6.86h0c-2.12-.88-30-18.5-33.3-21-1.76-1.33-29-23.07-32.18-26.37-1.32-1.39-1.15-4.62-1-7,.49-5.85,1.41-11.65,2.08-17.48,1-8.82,2-17.63,3-26.45a61.88,61.88,0,0,0,.76-8.22c-.1-4.12,1-7.4,4.33-9.15,2.19,2.08,4.4,4,6.4,6.1s4.09,4.09,5.43,6.52a17.27,17.27,0,0,0,6.74,7.18c4.74,2.71,19.53,12.79,19.53,12.79h0l21.22,14.49c-4.35,7.42-.75,15,.27,22.43,1.57,11.48,3.63,22.91,5.85,34.28,1.29,6.64.69,13.89,5.39,19.89C253.55,808,252.72,807.63,252,807.19Zm6.77-15.91a77.12,77.12,0,0,1-.76,7.86.86.86,0,0,1-1.68.16,41.56,41.56,0,0,1-1.64-5.81c-2.33-13.69-6-39.69-8.4-54.55,0-.11,0-.22-.05-.34l0-.14,0,0a5.15,5.15,0,0,1,.22-1.67c1.12-3.79,2.33-7.56,3.53-11.34a.78.78,0,0,1,1.51.1c1.77,10.25,5.39,32.59,7.13,42.6a10.29,10.29,0,0,1,.18,2.62C258.79,777.62,258.87,784.45,258.72,791.28Zm18.43,24.21q-5.47-40.29-10.94-80.59c.29,0,1.68-.08,2-.12.92,6.5,1.82,13,2.75,19.5,1,6.8,2.07,13.58,3,20.39s1.77,13.64,2.52,20.48,1.34,9.08,2,15.88A6.37,6.37,0,0,1,277.15,815.49Zm6.4-3.86C280,784.91,276.5,758.51,273,732.11l2-.23q4.8,38.18,9.53,76.36C284.67,809.28,283.92,810.43,283.55,811.63Zm5.79-2.34c-3.55-26.72-6.73-53.23-10.24-79.63l2-.23c3.2,25.45,6.09,51,9.21,76.47C290.45,807,289.71,808.1,289.34,809.29Zm5.55-3.43q-5.07-39.11-10.15-78.23a20.5,20.5,0,0,1,2.32-.22c3.34,24.44,5.65,50.62,8.86,75.09C296.07,803.59,295.23,804.81,294.89,805.86Zm12.46-50.44c-.78,8-1.72,15.89-2.62,24-3.85,0-4.94-10.35-5.5-15-1.39-11.6-1.88-17.14-3.6-28.7-.3-2.07-.42-4.17-.69-7,4.52,5.93,9.2,11.07,12.56,17C308.91,748,307.68,752.11,307.35,755.42Zm5.41-13.33a.41.41,0,0,1-.68.47q-4.56-5.91-9.11-11.81c-2.46-3.19-5-6.33-7.33-9.62-1.91-2.7-4.1-2.87-7.44-.83a84.68,84.68,0,0,1-20.83,8.82c-4,1.14-5.89,2.37-5.57,5.73q1.14,12.33,2.19,24.68c.1,1.07,0,2.16,0,3.24s-.81,1.38-1,.19c-2.24-12.71-4.54-25.41-6.58-38.16-.17-1.06,1.17-3,2.28-3.53q14.82-6.42,29.85-12.34c1-.42,3.27-.12,3.75.62C299.24,720.31,306,731.22,312.76,742.09Zm-12.41-58.44c-5.07.44-9.93.65-15.18,1.1-7.95.69-11.17-3.14-16.74-7.87-4.94-4.19-9-8-14.28-11.93-2.13-1.58-12.34-8.3-13.15-11-.31-1,7.47-.55,12.84,0,7.69.94,14.88,1.76,22,2.77,1.37.19,11.31,1.7,14.91,4.28,9,6.44,27.52,18.87,29.33,20C321.71,681.78,314.83,682.41,300.35,683.65ZM344.91,697c.48-6.53-3.25-9.38-9.33-11.87,5.64-1.28,86.8-18.68,91.4-19.56h0c12.27-2.52,24.29-4.92,36.24-7.59,2.42-.54,2.64.09,3.07,2.11.91,4.22,2,7.71,3.25,12.19C456.57,674.8,346,696.75,344.91,697Zm109.83-6.69c-.05-.13-34.14-3.42-34.19-3.55,10.47-2,46.69-8.49,57.23-10.11,3.29-.5,9.74.53,13.18,1.08a74.32,74.32,0,0,1,13.27,3.15c5,1.63,9.62,4.61,14.4,7,5.78,2.93,12.44,7.58,12.28,8C507,693.78,478.63,692.28,454.74,690.26Zm19.8-19.36c-1.16-4.25-2.78-9.85-4.18-15.49-.65-2.62-1.43-3.76-4.61-3.07-24,5.25-48,10.27-72.05,15.34l-.17,0c-10.9,2.22-57.12,12-62.64,12.94a4.74,4.74,0,0,1-3.07-.82c-9.87-6.51-19.69-13.09-29.93-19.93,4.45-2.2,8.63-4.25,12.8-6.32,11.83-5.87,34.14-16.88,42.68-20.86a1.9,1.9,0,0,0,.14-3.36c-6.22-3.59-14.59-8.65-17.93-10.47-4.9-4.57,0-12,1.55-13.09C348.2,598,353.62,593.28,365,585.73c-2.1,4.18-3.19,7.82-5.11,12.91,5.54,2.82,40.47,20.52,43.26,22,.58.17,1.76.82,1.45,1.47-1.92,10-7.41,32.72-3.54,32.72a94.25,94.25,0,0,0,12.33-1.17c20.53-3.55,41.09-6.93,61.58-10.67,5.38-1,8.34,2.43,11.84,5,3.95,2.91,7.64,6.18,11.59,9.08,3.59,2.64,5.78-1.55,3.13-3.77-6.19-5.16-11.54-9.7-19-14.95-2.3-1.62-5-1.14-9.25-.34-7.44,1.61-57.18,10.28-68.56,12.22-1.24.16,2.43-20.87,3.77-28.38a8.87,8.87,0,0,1,1.89-4.07l.1-.12c6.55-7.84,13.57-15.29,20.39-22.88,1.68,1,3.13,1.93,4.68,2.71C460,609.72,484.58,621.9,509,634.28a14.77,14.77,0,0,1,5.87,5.43c2.28,3.94,4.83,6.61,9.72,7,7.23.51,14.43,1.51,21.64,2.37,7.57.89,25.35,2.84,26.94,3,6.2.5,7.36,2.31,9.72,5.3,2.19,2.78,4.23,5.92,7,7.93,9,6.46,18.31,12.47,27.52,18.63,5.87,3.91,5.88,3.89,7.53,12.11C575.05,688,525.56,678.72,474.54,670.9ZM583.8,718.41l-22.19-16.64c5.76-1.18,11-2.23,16.32-3.35a3.24,3.24,0,0,1,4.1,2.32c1.35,4.06,4,12.53,7,22.5A34.18,34.18,0,0,0,583.8,718.41Zm36.58,67.86c-4.47-2.29-7.19-4.07-8.56-8.24-1.53-4.71-8-26.79-12-40.49l0,0c-5.86-20.39-11.63-40.29-13.31-43l6.3,1.09c.46.07,37.07,19.85,53.21,27.45,1.19,4.43,2.15,8.93,3.33,13.36a24.79,24.79,0,0,1-1,15c-.19.53-.63,1.42-1,2.28-1.68,3.42-18.56,32.32-20.61,35.84C626.79,789.73,621.29,786.69,620.38,786.27Zm10.08,12.18,31.41,22.12c-6.5,5.09-12.69,10-18.9,14.8-4.06,3.17-8.25,6.19-12.18,9.51-1.82,1.53-3.13,1.7-4.84,0-4.53-4.38-9.13-8.68-14-13.27ZM603,836.22l17.3,16.33L559.56,885l-18.71-14.92Zm-82.9,45.31a3,3,0,0,1,2.65,0c5.9,4.7,11.71,9.52,17.93,14.63L492,923.73,470.8,908.34C487.46,899.25,503.74,890.35,520.06,881.53Zm-91.47,41.68c.94-.75,3.08.08,4.24.82,7.71,5,15.31,10.14,23.92,15.89-16.21,6.7-23.29-2.86-34.59-10.12A83.71,83.71,0,0,1,428.59,923.21Zm-36.27,42.23c1-3.72,32.73-15.44,39.31-17,9.79-2.3,15.37-.23,23.07,3.77,5.59,2.89,10.51,7,15.68,10.6-5.21,9.08-14.65,11.24-23.18,14.18-7.68,2.64-15.93,3.76-24,5-3.57.55-4.53,2.4-4.78,5.36-.48,5.87-.93,11.75-1.41,17.94A22.32,22.32,0,0,1,404.89,994c-1.29-2.57-3.79-4.68-5.82-6.62-2.63-2.49-7.4-6.45-8.3-8.78C390,976.55,392.05,966.48,392.32,965.44Zm74.41,45.77c4.25,4,8.44,5.4,13.85,3.31,5.62-2.17,11.19-4.46,16.75-6.79,4.57-1.92,6.45-8,3.2-11.6-7-7.81-13.77-14.16-22.45-19.71-1.91-1.22-5.72-2-7.93-2.41,3.06-5.85,3.91-6,9.55-2.2,13,8.7,26.05,17.41,36.41,30.27l-21.05,9.09c-7.88,3.39-15.89,6.5-23.54,10.33-2.53,1.27-4.47,4.2-6,6.76-1.43,2.34-2,5.21-3.07,8.23-10.06-7-20-13.29-29.31-20.48-8.16-6.32-11.09-15.32-9.34-25.52.2-1.21,2.27-2.77,3.66-3,4.7-.71,9.47-.9,13.36-1.22,2.21,2.81,3.46,5,5.22,6.54C452.85,999,460,1004.9,466.73,1011.21Zm-14.47-23.52c5.78-2.2,12.17-4.7,18.62-7a4.38,4.38,0,0,1,3.23.44c8.81,5.09,16,12,22.46,20-6.31,2.56-12.35,4.94-18.33,7.49-3,1.28-5.19.26-7.27-1.87C464.87,1000.46,458.72,994.25,452.26,987.69ZM322.6,880.89a9.44,9.44,0,0,1,6.44.72c5.88,3.36,11.54,7.1,17.42,10.85a1.21,1.21,0,0,1-.16,2.12c-3.14,1.48-5.08.14-8.39-2-5.28-3.44-10.41-6.55-15.62-10.11C321.52,881.84,321.45,881.29,322.6,880.89ZM316,885.57c3.56,2,11.63,8.25,17.4,12.33,1.45,1.17-2.3,1.7-3.35,1-6.2-4.08-11.3-7.58-18-12.85C310.92,885,314.42,884.69,316,885.57Zm-11.11,3.34c3,1.16,18.27,12.06,18.88,13.21.32,1.07-2.06,1.63-3.52.82a116.49,116.49,0,0,1-18.8-13.13C300.74,889,303.23,888.27,304.87,888.91Zm-10.07,3.62c6.14,4,17,12.26,18.16,13.84.37.34,0,.92-.42,1.49-.63,1-3.18-.28-4.36-1.06-6.13-4-10.51-6.8-16.31-12.1C290.38,893.33,293.61,891.76,294.8,892.53Zm-14.24,25.16c-4-1-4.5-4.8-4.57-8.49-.09-4.31-.82-8.85,4.33-10.93a5,5,0,0,1,4,.08c6.35,4.23,12.55,8.69,18.53,12.89L293.78,919c-.11.1-.26.26-.38.25C289.11,918.75,284.69,918.77,280.56,917.69Zm17.16,69.85c0,.22-.05.45-.08.67v.07h0c-.65,5.88-1.44,11.68-1.95,15.76-3.66-3-7.4-4.4-10.9-9-1.8-2.34-1-9.1-.84-12.76.16-2.86,3.05-48.84,3.32-50.18,13.18,6,14.86,6.89,14.06,16.49-.31,4.69-2.91,31.18-3.61,38.72ZM313.08,1019c-1.58-1-2.77-1.7-3.89-2.49-6.91-4.81-8.41-6-7.85-11.58h0l0-.18c0-.11,0-.22,0-.33.72-6.39,4.07-35.11,4.69-40.63,4.42,2.72,12.17,8.31,12.17,10.07,0,6.5-4,38.34-4.55,40.31C313.51,1015.72,313.3,1017.31,313.08,1019Zm8.2,12.27c-2.92-2.39-3.4-4-2.86-7.31,1.23-7.48,2.05-15,2.91-22.57,1-8.91,1.84-17.84,2.84-26.75.44-3.9.05-7.1-3.9-9.36-4.54-2.59-8.73-5.79-13.53-9,.35-4.65.63-9.73,1.14-14.79.35-3.57-.68-6-4.08-7.75-3.92-2.06-7.47-4.83-11.62-7.57-1.2-.92.23-1,1.45-.47,7.35,3.53,13.86-1.11,20.08-4.56,2.56-1.42,4.37-1.37,6.88.46,10.09,7.32,20.42,14.3,30.64,21.43,1,.7,16.08,11.13,17.39,12.25h0c3.8,2.62,7.6,5.27,11.34,8,1,.73,5,2.19,5,8.29,0,2.68-2.8,6.75-6.29,9.36-4,3-4.24,7.21-4.66,11.53-.51,5.34-1.11,10.67-1.76,16.86-6.57-4.66-13.28-8.43-18.83-13.18v0C352,995.19,334,982,332,980.94c-2.57-1.39-4.76-1.18-5.2,2.24-1.05,8-2,16.06-2.91,24.09-.34,2.84-.53,5.7-1,8.51-.89,5.5,1.11,9,6,12.06a53.53,53.53,0,0,1,5.74,4.31c1.28,1,4.41,1.77,1.89,4.08-1.53,1.42-3,4-6.42,1.6C326.1,1035,324.71,1034.07,321.28,1031.26Zm44.48,15.06c-6.84-4.34-25.2-17.92-32.71-23l-.4-.27-.33-.22v0c-3-2.25-3.39-5.3-2.51-11.26,1.09-7.3,1.44-14.7,2.19-22.79,4.34,3,35.7,24.82,38.07,26.48C369.82,1018,366.93,1037.32,365.76,1046.32Zm.1,18.18-28-21c1.75-1.38,3.87-3.16,5.62-4.54,7.47,4.85,14.44,10,21.62,15,1.28.9,1.87,3.32,2,5.11C367.27,1060.7,366.4,1062.4,365.86,1064.5Zm70.86,84.24c-35.36-26.93-73.57-56.2-108.46-82.77,2.64-3.35,7.17-4.9,10.31-2.44,16.59,13.06,87,63.68,97,70.55l19.18,3.18c.39,1.24.76,2.4,1.16,3.64C450.68,1143,442.09,1146.58,436.72,1148.74Zm27.29-4.42c-.41-.23-.21-.16,0,0Zm8.43-5.4c-5.13-2.92-9-4.83-15.4-8.71h0c-2.69-1.12-38.06-23.48-42.27-26.68-2.23-1.7-36.85-29.29-40.84-33.48-1.68-1.76-1.47-5.86-1.22-8.82.61-7.42,1.78-14.79,2.64-22.19,1.3-11.19,2.53-22.38,3.77-33.57.39-3.48,1.06-7,1-10.44-.13-5.23,1.32-9.39,5.49-11.61,2.79,2.63,5.59,5.07,8.13,7.75s5.19,5.18,6.89,8.27a22.05,22.05,0,0,0,8.56,9.12c6,3.43,24.79,16.22,24.79,16.22h0l26.93,18.38c-5.52,9.43-1,19,.34,28.49,2,14.57,4.6,29.07,7.42,43.5,1.65,8.43.87,17.64,6.84,25.26C474.47,1139.91,473.42,1139.48,472.44,1138.92Zm8.6-20.19c-.07,3.33-.57,6.65-1,10a1.1,1.1,0,0,1-2.14.21,53.08,53.08,0,0,1-2.08-7.38c-3-17.38-7.59-50.38-10.66-69.24,0-.14-.05-.28-.07-.44l0-.18,0,0a6.79,6.79,0,0,1,.28-2.12c1.42-4.81,3-9.6,4.48-14.39a1,1,0,0,1,1.92.12c2.25,13,6.84,41.37,9,54.08a13.48,13.48,0,0,1,.23,3.32C481.11,1101.38,481.22,1110.06,481,1118.73Zm23.38,30.73-13.89-102.3c.38-.05,2.14-.11,2.51-.16,1.16,8.25,2.3,16.51,3.5,24.76,1.24,8.63,2.62,17.24,3.79,25.88s2.24,17.32,3.19,26,1.71,11.53,2.55,20.15A8.14,8.14,0,0,1,504.42,1149.46Zm8.13-4.91c-4.51-33.92-9-67.43-13.41-100.93l2.57-.3q6.09,48.47,12.09,96.93C514,1141.57,513,1143,512.55,1144.55Zm7.34-3c-4.5-33.92-8.54-67.58-13-101.08l2.57-.3c4.06,32.31,7.72,64.76,11.68,97.08C521.31,1138.61,520.36,1140.07,519.89,1141.59Zm7.06-4.37q-6.45-49.63-12.89-99.29a25.57,25.57,0,0,1,2.94-.29c4.24,31,7.17,64.27,11.25,95.32C528.44,1134.35,527.38,1135.89,527,1137.22Zm15.81-64c-1,10.1-2.19,20.18-3.32,30.43-4.9,0-6.28-13.13-7-19.05-1.76-14.73-2.39-21.76-4.56-36.43-.39-2.63-.53-5.3-.89-9,5.75,7.54,11.68,14.06,16,21.54C544.73,1063.84,543.17,1069,542.76,1073.2Zm6.87-16.92a.53.53,0,0,1-.87.6l-11.56-15c-3.12-4.06-6.36-8-9.31-12.21-2.42-3.43-5.19-3.64-9.44-1.06a107.54,107.54,0,0,1-26.43,11.2c-5.07,1.44-7.48,3-7.08,7.27,1,10.44,1.88,20.89,2.79,31.33.11,1.36,0,2.74,0,4.11-.05,1.55-1,1.76-1.29.24-2.84-16.13-5.76-32.25-8.35-48.43-.22-1.35,1.49-3.88,2.9-4.49q18.81-8.14,37.89-15.67c1.33-.52,4.15-.15,4.76.79C532.47,1028.64,541,1042.48,549.63,1056.28Zm-15.76-74.17c-6.43.55-12.6.82-19.27,1.39-10.09.87-14.17-4-21.25-10-6.26-5.32-11.47-10.22-18.12-15.14-2.7-2-15.66-10.54-16.7-14-.39-1.3,9.49-.68,16.3,0,9.76,1.2,18.9,2.24,28,3.52,1.62.23,12.81,1.93,18,4.84,8.2,5.89,16.44,11.94,24.08,17.86,4.08,3.15,7.91,6.28,11.49,9.33C552.56,980.48,545,981.15,533.87,982.11Zm59,26c-.46-3.68-.26-2.82-3.71-6-4.51-4.19-9.57-8.5-14.43-13.09,5.71-1.82,16.63-5.38,21.93-7,9.77-3,19.59-5.83,29.33-8.91a4.12,4.12,0,0,1,5,1.28c3.72,4.11,7.7,8,11.3,12.21,1.52,1.78,2.34,4.17,3.62,6.55C629.42,997.75,608,1004,592.9,1008.15Zm72.17-20c-3.84,1-7.66,2.15-11.52,3.11-2.08.52-3.68.57-4.16-2.49-.33-2-1.93-4.07-3.41-5.7-4.48-5-9.07-9.87-13.87-14.53a5.65,5.65,0,0,0-4.67-1c-17,5.05-33.91,10.3-50.85,15.53-3.88,1.2-3.39,1-6.67,2.21-13.68-10.83-50.09-40.06-74.63-57.46,7-4,14-8,21-12,9.39-5.35,18.81-10.65,28.19-16,4.06-2.32,4.16-3.49.55-6.5-6.09-5.08-12.23-10.11-18.58-15.36L536,872.8c7.26,5.73,17.38,13.65,24.84,19.54l-6.68,3.34c-3.82,2-4.07,4-.58,6.64,6.21,4.7,9.6,7.06,15.87,11.69,11,8.15,22.31,16,33,24.55,6.88,5.51,12.9,12.1,19.32,18.19,3.85,3.65,7.67,7.33,11.64,10.85a4.43,4.43,0,0,0,3.33,1c3.65-.78,7.26-1.82,10.83-3,3.25-1,3.64-2.7,1.06-5.13-9-8.45-18.12-16.81-27.29-25.3l81.53-22.16c.92,10.26,1.82,20.12,2.7,30,.16,1.89-.1,3.06-2.54,3.7-15.44,4.09-30.8,8.48-46.19,12.74-5.39,1.49-5.94,3.12-2.15,7.33s7.73,8.34,11.61,12.49a11.31,11.31,0,0,1,1.81,1.93C670.15,985,669.25,987,665.07,988.19Zm11.81-3.11c-2.86.76-3.3-.55-3.8-2.87a13.88,13.88,0,0,0-2.62-5.82c-3.48-4.13-7.33-8-11.45-12.35,15.19-4.16,29.8-7.85,44.2-12.25,4.74-1.45,8.89-.19,13.18.52,10.45,1.73,20.78,4.18,31.24,5.81,4.13.65,3.26,3.38,3.35,5.76.06,1.7-1.77,2.07-2.93,2.38C724.34,972.59,700.59,978.77,676.88,985.08ZM801,977c-8.31-1.61-16.63-3.55-25-4.28-9.48-.83-19.1,0-28.63-.19a.65.65,0,0,1-.11-1.29l25-4.61c2.83-.52,5.67-.93,8.48-1.53,7.75-1.44,35.87-6.25,42.82-7.53,2.12-.39,8,3.07,9.07,5.66,3,7.06,5.92,14.19,9.22,22.15C833.67,983.68,809.13,978.59,801,977Zm117.39,49.21Q884,1006.5,849.78,986.65a9.39,9.39,0,0,1-3.52-4.08c-2.33-5.08-4.34-10.3-6.79-16.26l118.53,66a.45.45,0,0,1-.26.85c-3.1-.24-6.2-.44-9.29-.75-7.47-.73-15-1.26-22.39-2.43C923.36,1029.58,920.85,1027.65,918.36,1026.22Zm150.07,86a12,12,0,0,1-4.93-1.64c-27.94-15.13-55.93-30.17-83.73-45.56-17.13-9.49-33.95-19.53-51.91-29.9,3.94.3,6.79.42,9.62.74,10.56,1.22,21.1,2.59,31.67,3.65a4.51,4.51,0,0,0,2.11-.41,2.45,2.45,0,0,0,1.14-3.66,5,5,0,0,0-1.52-1.55q-41.07-23.12-82.26-46-26.18-14.6-52.36-29.15a6.1,6.1,0,0,1-2.71-2.86c-.54-1.38,3.51.54,5.07,1.23q29.11,12.8,58.15,25.73,60.78,27.18,121.53,54.44c.67.3,1.33.65,2,1-1,3.36-3.52,7.06-2.67,9.69.91,2.8,5,4.58,7.64,6.8a35.19,35.19,0,0,0-2,5.84c-1,6,0,7.72,5.52,11,14.64,8.8,29.12,17.85,44,26.31,4,2.26,8.92,2.8,13.46,4,5.75,1.54,7.47.77,9-2.64q9.68-21.23,19.75-42.28c1.41-3,1.69-5.17-1.67-6.86a3.08,3.08,0,0,1-1.58-2.22c.22-3.67-2.18-5.62-4.78-7.08q-28-15.6-56.13-30.93c-4-2.21-7.62-2.15-9.53,3.91-.7,2.22-1.44,4.5-2.33,7.15-1.78-1.44-3.38-2.77-5-4-3.64-2.81-4.69-2.52-6.75,2.09-18.21-8.63-92.65-43.84-93.82-44.4-10.65-5.06-21.26-10.21-32.39-15.58.38-4,.89-8.37,1.14-12.72a11.8,11.8,0,0,0-.74-4.86,29.59,29.59,0,0,0-2.75-4.48c-7.18-11.58-14.29-15.44-24.36-19.74-10.26-4.38-20.31-9.27-30.44-14-5-2.3-5.89-1.67-6.06,3.68-.25,7.8-.7,15.6-1.1,24.18-3.88-2.57-7.55-5-11.26-7.45q-27-17.55-54.09-35c-2.23-1.43-3.24-2.9-3.21-5.69.16-15.58.08-31.15.08-46.73,0-5.35-.1-10.69,0-16,.07-2.65-.94-3.58-3.56-3.55-3.61,0-7.24-.17-10.85-.48a4.63,4.63,0,0,1-2.43-1.42c-3.09-3-6-6.2-9.2-9.05a7.05,7.05,0,0,0-4.58-1.81c-9.84.81-19.68,1.76-29.48,3a7.65,7.65,0,0,0-4.75,3.38c-6,9.76-9.31,20.26-7.15,32.91-5.32-3.13-9.62-6-14.22-8.27-7.65-3.8-10-8-11.11-18.24-1-9.17-3.05-14.42,1.47-14.33,4.81.11,13.49,5.91,18.29,6.28,3.07.24,4.36-1.08,3.8-4-1.8-9.26-3.73-18.49-5.61-27.73l23.8,14c5.84,3.45,11.89,6.6,17.46,10.45,4.8,3.33,9.48,1,14.15.65,7.23-.55,14.4-1.79,21.62-2.48,2.64-.25,6.1-.38,8.19-3.62,1.46-2.28,1.37-2.08,2.33-5.51l99.9,34.83L855.08,844c-2.68,3-10.81,11.67-12.19,15.67-2.46,4.64-6.3,17.28-6.65,20.36-.27,2.31.67,3.76,2.78,4.77,5.52,2.66,10.94,5.52,16.46,8.17,3.8,1.81,4.13.61,5.32-3.44,1.41-4.82,1.59-5.83,3.36-10.66,1.2-3.27,1.83-4.21-1.43-5.85-5.47-2.76-11-5.41-16.92-8.33,1.63-4.27,8.35-13,12.53-17,9.19-8.93,13.6-12.06,22-18.64a4.65,4.65,0,0,1,3.83-.56q7.95,2.88,15.67,6.34a4.72,4.72,0,0,1,2.39,3.17c1.4,11.8,2.62,23.63,3.84,35.46.82,7.85,1.39,15.73,2.45,23.54a7.66,7.66,0,0,0,3.2,5c14,8.12,28.06,16.27,42.45,23.73,4.13,2.15,9.4,2.21,14.19,3,12.93,2.12,25.93,3.85,38.79,6.32,3.38.65,6.39,3.34,9.5,5.21,8.61,5.19,17.1,10.58,25.8,15.62a62.41,62.41,0,0,1,14.87,12.06c6.14,6.73,12.6,13.17,18.9,19.76.86.9,1.59,1.92,2.45,3-2.65,3.23-5.14,6.39-7.76,9.44-3,3.46-.58,4.37,5.41,8.32s12.31,8.22,21.41,14.07c4.88,3.13,6.83,5.79,9.67,2.65,7.62-8.43,15.32-16.78,22.93-25.21,2.18-2.42.74-4.07-1.43-5.48q-11.58-7.49-23.13-15l-5.54-3.6,23.54-15.46c9.39,9,20.9,15.69,28.36,26a45.21,45.21,0,0,0-6.2,2.61c-12.29,7.56-18.26,16.53-29.06,28.6-2,2.18-5,5.42-7,7.57s-2.09,4-.76,6.54c6.73,12.78,13.32,25.63,20.11,38.37a6.25,6.25,0,0,1,0,6.9c-6.17,11-12.46,22-17.62,33.49-1.53,3.4-3.5,3.61-6.22,3.29-2-.22-4-.6-6-.66C1089.11,1112.72,1078.77,1112.56,1068.43,1112.17ZM841.79,953.23c0-5.28.47-39.68.47-45.09l27.31,12.72c2.16,1,5,2.24,6.5,2.94,12.59,5.8,15.58,11.56,20.61,20,1,1.73.55,4.55.28,6.82-1,8.29-2.15,16.55-3.29,25.16l-22.95-10.09C853.22,958.39,845.35,954.48,841.79,953.23Zm264.74,99.93c.77-.45,2.35.52,4,.95-2,4.25-3.8,8.21-5.64,12.2-1.76,3.76-12.37,29-14,32.51-.48-.3-9.16-2.75-9.37-3.12-1-1.76,6.63-24.83,13-33.77h0C1097.55,1057.46,1102.84,1055.27,1106.53,1053.16Zm-17.72,8.3c-3.67,6.19-4.59,9.83-8,18.54a102.81,102.81,0,0,0-4.85,13.94l-18.66-11.18c7.74-17.08,11.43-35.69,23.22-51.19l26.37,15.06C1100,1051.76,1093.5,1053.55,1088.81,1061.46Zm-36,18.6c-8-4.78-15.82-9.37-23.48-14.28-1-.63-1.24-3-1.15-4.47s1.08-2.75,1.65-4.09c4.83,2.17,9.3,4.13,13.72,6.17,2.19,1,3.53.5,4.42-1.77,2-5.13,4.42-10.12,6-15.36a8.9,8.9,0,0,0-1.09-6.49c-2.31-3.72-5.55-6.86-7.91-10.57a9.74,9.74,0,0,1-1.11-6.12,46.68,46.68,0,0,1,2-7.47,2,2,0,0,1,2.82-1.14l27.24,14.6C1064.32,1044.47,1060.56,1063,1052.82,1080.06Zm-5.34-38.92a5.19,5.19,0,0,1,1.11,4c-.43,2.16-3.38,10.74-4.52,13.58-6.24-3.94-13.17-7.43-19-11-2-1.2-.51-5.65.5-7.91,1.66-3.72,3.91-11.1,5.58-15.63,2.28,2.63,4.18,5.06,6.34,7.24C1040.74,1034.72,1044.3,1037.75,1047.48,1041.14Zm-25-7.71L898.67,978c.36-4.12.76-8.55,1.22-13.72L1026,1024.09C1024.8,1027.29,1023.72,1030.17,1022.49,1033.43ZM844.24,869.94c5,2.48,10.08,4.65,14.1,6.66-1.07,3.51-2.07,6.84-3.19,10.52-4-2-8.69-4-12.9-6.69-1-.67-.41-3.16.07-4.91S843,871.61,844.24,869.94Zm236.2,246.93c3.49.39,6.08.81,8.69.94,6.78.32,13.57.77,20.34.6,1.8,0,4.18-1.75,5.19-3.38,3.22-5.18,5.91-10.69,8.88-16.21l3.79,2.67c-1.94,3.9-3.77,7.81-5.83,11.6a9,9,0,0,0-.73,7.83c2,5.83,3.57,11.79,5.49,18.27C1110.37,1132.77,1094.57,1127.82,1080.44,1116.87Zm73.63,2.09c-1.28,1.69-16.06,20.64-16.15,20.76a7.4,7.4,0,0,1-.93,1l0,0h0a7.35,7.35,0,0,1-2.72,1.62c-.51.15-2-1.58-2.38-2.68-2-6.24-5.51-19-5.37-19.08h0s5.69-3.49,11.91-7.58c1.31-2.43,3.21-5.77,3.24-5.83,4.51-8.92,4.51-8.91,13.76-5.31l7.37,2.87C1159.94,1109.37,1157.15,1113.93,1154.07,1119Zm175.8,27.71c-127.68-4.26-149.59-13.3-166.39-15.73v-3.23c0-3.69.67-11.83.67-15.61,5.14,1.34,10,2.57,14.89,3.88,14.57,3.89,29.1,8,43.74,11.62,4.68,1.17,96.59,13.72,96.59,13.73,4.85.45,8.49.82,10.5,1.08C1329.62,1143.69,1330.18,1145.08,1329.87,1146.67Zm-97.43-22.88c2-2.39,3.28-4.4,5-5.72a6.22,6.22,0,0,1,4.47-.83c21.91,4.39,43.75,9.08,65.7,13.2,2.88.54,6.4-1.39,9.39-2.7,2.37-1,4.23-1.26,6.54.08,4.53,2.62,9.24,5,13.7,8.07C1332.64,1139.19,1324.26,1136.49,1232.44,1123.79Zm108.51,7.5c-.72-.44-28.06-15-36.52-19.66,2-4.1,2.09-3.26,3.35-7.07.39-1.18-.91-3.83-2.15-4.5-11.14-6-29.09-15.31-38.3-19.88-.95-3-1.77-5.54-2.84-8.89,9,4.54,17.47,8.63,25.77,13q22.89,12,45.62,24.35h0c.68.37,13.72,8.58,15.33,9.6Zm-9.31-36.8c3.67-9.78,7.17-19.11,11.1-29.56,3.08,13.62,5.92,26.12,9,39.63Zm51.81-10.19c-6.45,8.7-14.93,15.06-24.83,21-1.62-7.21-3.12-13.87-4.62-20.53-1.22-5.46-2.47-10.91-3.64-16.38-.46-2.14-.24-3.38,2.31-4.83,5-2.82,9.26-6.83,13.82-10.37,1-.76,1.89-1.64,3.24-2.82,1.8,3.57,3.55,6.92,5.2,10.32,3.07,6.31,6.2,12.6,9,19A5.5,5.5,0,0,1,1383.45,1084.3Z"/></g><g id="Thrusters"><path d="M370.73,655c-3.84,1.83-6.05,5.2-4.94,7.53s5.13,2.73,9,.9,6.05-5.2,4.93-7.53S374.57,653.2,370.73,655ZM520.14,919.7c-4.45,2.13-7,6-5.73,8.75s6,3.17,10.4,1,7-6,5.73-8.74S524.59,917.58,520.14,919.7Zm644.79,11.78c-4.32-1.71-9,0-10.53,3.75s.78,8.24,5.1,9.95,9,0,10.53-3.75S1169.24,933.19,1164.93,931.48Zm91.78-59.17c-2.92-2.92-6.64-3.93-8.31-2.26s-.67,5.4,2.25,8.32,6.64,3.92,8.32,2.25S1259.63,875.23,1256.71,872.31Z" fill="#007aff"/></g></g></svg>