<svg xmlns="http://www.w3.org/2000/svg" viewBox="0 0 1500 1500"><title>Type 7</title><g id="Type_7" data-name="Type 7"><g id="Colour"><path d="M1398.55,1016.94c-8.09-11.43-16.57-22.59-24.86-33.89a5,5,0,0,1-1-3.09,75.41,75.41,0,0,1,1.34-9.6c3.53-16.46,7-32.92,10.84-49.31,1.32-5.68.53-10.33-3.27-14.9a164.09,164.09,0,0,1-11.7-16.14c-8.12-12.6-16-25.37-23.94-38.08-9.41-15.06-18.58-30.28-28.29-45.14-4-6.14-6.78-13.31-14-17.16-5-2.66-11.52-4.41-12.2-11.87-.07-.71-1.13-1.42-1.86-2-3.46-2.57-7.12-4.89-10.41-7.65-8.08-6.78-48.39-41.51-52.79-48.75-1.59-2.62-4.91-5.75-7.57-5.87-8-.38-11-6.69-15.76-11.06a34.93,34.93,0,0,0-4.63-3.7q-24.8-16-49.65-31.89c-20-12.71-39.81-25.7-60.19-37.73-5.54-3.27-5.4-6.63-4.68-11.46,1.42-9.61,2.69-19.24,4-28.87,1-7.32,1.52-14.72,2.9-22,.93-4.9-.29-8.28-4.31-11-10.06-6.92-19.85-14.25-30.1-20.87q-31.2-20.15-62.85-39.56c-1.53-.94-5.54-.55-6.53.7q-18.57,23.51-36.45,47.56c-2,2.63-3,2.64-5.55,1q-26.54-17.45-53.3-34.55c-12.37-7.9-24.73-15.84-37.44-23.17-10.44-6-21.46-11-32.1-16.72-6.32-3.37-12.31-7.37-18.63-10.75-7.91-4.23-12.71-8.1-19.77-11.65.71-4.37-1.62-30.3-1.7-40.38a8.83,8.83,0,0,0-.93-4.62c-14.66-21.7-29.2-43.5-44.33-64.88-5.35-7.57-11.37-15.13-18.57-20.82-10.79-8.54-23.09-15.13-34.33-23.15-5.8-4.13-10.77-9.45-15.94-14.42-6.14-5.89-11.4-12.95-18.25-17.77-12.71-9-26.65-16.15-39.43-25s-28.15-14.23-38-27.41c-6.06-8.1-12.92-15.62-19.76-23.09-3.88-4.22-7.4-10.06-15-6.67-.72.32-2.43-1.21-3.49-2.11-7.73-6.54-15.24-13.38-23.25-19.56-1.92-1.49-6-2.05-8.17-1-13.47,6.61-26.44,14.24-40,20.62-9,4.23-15,9.81-15.75,20.17-.15,2.11-1.13,5.45-2.57,6-10.74,4-9.9,14.18-11.74,22.41s-1.88,17.16-2.75,26.27c-6.37,0-12.56-.18-18.74.08-3.54.14-7.53.1-10.51,1.67-15.71,8.26-31.15,17-46.69,25.59-16.17,8.91-32.54,17.49-48.45,26.84-8.45,5-17.33,9.54-23.19,18.17C274.78,335.5,267,346.1,259,356.47c-2.52,3.27-3.24,5.89-2,9.84,1.14,3.72,1.11,7.81,1.6,11.73-6.78-6.09-12.07-12.74-17.84-18.92-2.84-3-6.73-7.52-9.88-7.31-6.08.4-9.08-2.74-12.72-6.08-7.08-6.51-14.18-13-21.53-19.2A6.29,6.29,0,0,0,191,326c-19.28,10.46-38.43,21.15-57.58,31.84a5,5,0,0,0-2.44,2.51c-1,3.81-1.53,7.73-2.41,11.57-.84,3.65-1.78,7.14-6.36,8.18-1.37.31-2.95,2.25-3.35,3.73a136.09,136.09,0,0,0-3.36,15.72c-1.28,8.72-2.37,17.49-3.2,26.28-1,11.14-2.73,22.22.73,33.42a135.39,135.39,0,0,1,4.47,22.66A15.36,15.36,0,0,0,124,493.19c4.49,3.3,8.75,6.92,13.25,10.21,7.65,5.6,15.35,11.14,23.17,16.51,3.06,2.1,6.69,3.38,9.72,5.51,11.89,8.36,22.12,19.1,35.72,25,2.62,1.14,3.38,2.74,3.14,5.41-.81,9.19-5.81,44.9-7,47.36-2.73,5.63-4.63,11.67-7.43,17.26-2.7,5.4-5.29,10.73-4.24,16.93a163.32,163.32,0,0,0,3.81,18.41c1,3.27,0,4.46-2.63,5.77-6.69,3.34-13.27,6.93-19.92,10.37-14.65,7.57-29.41,14.93-43.92,22.75A106.93,106.93,0,0,0,112,705.3c-3.28,2.61-2.21,9.62,1.2,12.32,8.33,6.61,16.75,13.13,24.88,20,15.44,13,30.6,26.32,46.12,39.21a14.58,14.58,0,0,0,9.18,3.24c9.16-.52,18.25-2.08,27.39-3,6.14-.61,12.33-.66,18.48-1.22,19.25-1.74,38.5-3.65,57.75-5.4q10.29-.95,20.62-1.44c1.92-.1,4.36,0,5.74,1,9.15,7,17.93,14.52,27.17,21.4,4.48,3.33,8,8,14.37,8.88,10.29,1.36,20.49,3.51,30.73,5.33,4.22.75,9,.56,12.53,2.52,5.62,3.09,10.51,7.54,15.57,11.57,13.83,11,27.41,22.33,41.42,33.1,9.21,7.08,18.22,13.85,20.11,26.54.45,3,.24,4.84-2.39,5.95-19.6,8.31-39.2,16.62-58.86,24.78-11.56,4.8-23.29,9.19-34.84,14-14.93,6.22-29.84,12.52-44.61,19.12a226.2,226.2,0,0,0-21.84,11.25c-5.21,3-5.24,10.51-.61,14.37,10.84,9,21.76,17.9,32.47,27.06,18.85,16.11,37.52,32.45,56.4,48.53,3.45,2.93,7.28,6.11,11.47,7.29,3.71,1,8.18-.45,12.3-1,10.53-1.36,21-2.94,31.58-4.18,13.8-1.62,27.64-2.86,41.44-4.53,13.39-1.62,26.73-3.69,40.11-5.37,10.21-1.29,20.47-2.13,30.66-3.45,15.71-2,31.37-4.38,47.06-6.46,12.15-1.61,24.39-2.57,36.43-4.73,4.16-.74,6.75-.49,9.57,2.5,2.39,2.55,6.41,4,7.87,6.92,3.27,6.48,5.44,13.53,8,20.38,4.68,12.65,10,24.46,21.82,32.78a514.59,514.59,0,0,1,41.55,32.8c8.18,7.13,16.11,12.58,27.5,10.62a152.36,152.36,0,0,1,16.11-1.07c9.76.46,19.51,1.35,29.26,2.07q15.18,1.13,30.37,2.23c3.09.22,23,2.55,31.49,3.1,5.41.35,14.35,2.08,18.58,4.89,11.07,7.37,21.09,16.28,31.8,24.21,5.71,4.23,9.36,8.73,9.35,16.46,0,4,2.27,8.79,5,11.93,3.71,4.28,8.84,7.34,13.36,10.9,14.58,11.49,29.09,23.06,43.75,34.43,7.1,5.51,13.9,11.82,21.84,15.68,10.19,5,21.37,7.85,32.17,11.5,7.27,2.46,14.66,4.56,21.92,7.06,18.24,6.29,36.4,12.8,54.67,19,3.18,1.08,6.23.65,8.26-3.13C1153.4,1274,1161,1261,1168,1247.61c1.93-3.68,2.29-8.17,3.41-12.27.49-1.77,1.11-3.52,1.69-5.37,3.43,1,6.24,1.7,8.87,2.77,4,1.63,7.33.78,10.45-2.06,7.79-7.09,15.66-14.1,23.33-21,11,8.25,21.87,16.55,32.94,24.57,3.26,2.36,6.93,5.11,10.69,5.61a143.23,143.23,0,0,0,25.6,1.2c10.31-.47,18.85-4.38,24.21-14.35,2.31-4.28,6.47-8.76,10.85-10.5,11.9-4.72,12.14-15.06,14.2-24.9,1.72-8.19,2.69-16.8,6-24.34,5.56-12.7,6.55-24.68-.54-36.84-4.65-8-7.56-17.21-16.18-22.37a5.36,5.36,0,0,1-2.24-3.44c-.35-2.53-.11-5.15-.11-8.71l13.55-12.6c3.93,4.08,8.21,4.65,14.25,1.49,10.25-5.37,21.21-9.44,32-13.73,8.06-3.21,10.19-5.53,10.35-14.29.05-2.92-.13-6.42-1.64-8.69-3.36-5-3.65-6.17,1.84-9.55,4-2.48,6.42-5.54,6.56-10.36,0-1.36,1.21-2.7,1.23-4.06C1399.38,1021.5,1399.73,1018.61,1398.55,1016.94Z" fill="#2a5169"/><path d="M1398.55,1016.94c-8.09-11.43-16.57-22.59-24.86-33.89a5,5,0,0,1-1-3.09,75.41,75.41,0,0,1,1.34-9.6c3.53-16.46,7-32.92,10.84-49.31,1.32-5.68.53-10.33-3.27-14.9a164.09,164.09,0,0,1-11.7-16.14c-8.12-12.6-16-25.37-23.94-38.08-9.41-15.06-18.58-30.28-28.29-45.14-4-6.14-6.78-13.31-14-17.16-5-2.66-11.52-4.41-12.2-11.87-.07-.71-1.13-1.42-1.86-2-3.46-2.57-7.12-4.89-10.41-7.65-8.08-6.78-48.39-41.51-52.79-48.75-1.59-2.62-4.91-5.75-7.57-5.87-8-.38-11-6.69-15.76-11.06a34.93,34.93,0,0,0-4.63-3.7q-24.8-16-49.65-31.89c-20-12.71-39.81-25.7-60.19-37.73-5.54-3.27-5.4-6.63-4.68-11.46,1.42-9.61,2.69-19.24,4-28.87,1-7.32,1.52-14.72,2.9-22,.93-4.9-.29-8.28-4.31-11-10.06-6.92-19.85-14.25-30.1-20.87q-31.2-20.15-62.85-39.56c-1.53-.94-5.54-.55-6.53.7q-18.57,23.51-36.45,47.56c-2,2.63-3,2.64-5.55,1q-26.54-17.45-53.3-34.55c-12.37-7.9-24.73-15.84-37.44-23.17-10.44-6-21.46-11-32.1-16.72-6.32-3.37-12.31-7.37-18.63-10.75-7.91-4.23-12.71-8.1-19.77-11.65.71-4.37-1.62-30.3-1.7-40.38a8.83,8.83,0,0,0-.93-4.62c-14.66-21.7-29.2-43.5-44.33-64.88-5.35-7.57-11.37-15.13-18.57-20.82-10.79-8.54-23.09-15.13-34.33-23.15-5.8-4.13-10.77-9.45-15.94-14.42-6.14-5.89-11.4-12.95-18.25-17.77-12.71-9-26.65-16.15-39.43-25s-28.15-14.23-38-27.41c-6.06-8.1-12.92-15.62-19.76-23.09-3.88-4.22-7.4-10.06-15-6.67-.72.32-2.43-1.21-3.49-2.11-7.73-6.54-15.24-13.38-23.25-19.56-1.92-1.49-6-2.05-8.17-1-13.47,6.61-26.44,14.24-40,20.62-9,4.23-15,9.81-15.75,20.17-.15,2.11-1.13,5.45-2.57,6-10.74,4-9.9,14.18-11.74,22.41s-1.88,17.16-2.75,26.27c-6.37,0-12.56-.18-18.74.08-3.54.14-7.53.1-10.51,1.67-15.71,8.26-31.15,17-46.69,25.59-16.17,8.91-32.54,17.49-48.45,26.84-8.45,5-17.33,9.54-23.19,18.17C274.78,335.5,267,346.1,259,356.47c-2.52,3.27-3.24,5.89-2,9.84,1.14,3.72,1.11,7.81,1.6,11.73-6.78-6.09-12.07-12.74-17.84-18.92-2.84-3-6.73-7.52-9.88-7.31-6.08.4-9.08-2.74-12.72-6.08-7.08-6.51-14.18-13-21.53-19.2A6.29,6.29,0,0,0,191,326c-19.28,10.46-38.43,21.15-57.58,31.84a5,5,0,0,0-2.44,2.51c-1,3.81-1.53,7.73-2.41,11.57-.84,3.65-1.78,7.14-6.36,8.18-1.37.31-2.95,2.25-3.35,3.73a136.09,136.09,0,0,0-3.36,15.72c-1.28,8.72-2.37,17.49-3.2,26.28-1,11.14-2.73,22.22.73,33.42a135.39,135.39,0,0,1,4.47,22.66A15.36,15.36,0,0,0,124,493.19c4.49,3.3,8.75,6.92,13.25,10.21,7.65,5.6,15.35,11.14,23.17,16.51,3.06,2.1,6.69,3.38,9.72,5.51,11.89,8.36,22.12,19.1,35.72,25,2.62,1.14,3.38,2.74,3.14,5.41-.81,9.19-5.81,44.9-7,47.36-2.73,5.63-4.63,11.67-7.43,17.26-2.7,5.4-5.29,10.73-4.24,16.93a163.32,163.32,0,0,0,3.81,18.41c1,3.27,0,4.46-2.63,5.77-6.69,3.34-13.27,6.93-19.92,10.37-14.65,7.57-29.41,14.93-43.92,22.75A106.93,106.93,0,0,0,112,705.3c-3.28,2.61-2.21,9.62,1.2,12.32,8.33,6.61,16.75,13.13,24.88,20,15.44,13,30.6,26.32,46.12,39.21a14.58,14.58,0,0,0,9.18,3.24c9.16-.52,18.25-2.08,27.39-3,6.14-.61,12.33-.66,18.48-1.22,19.25-1.74,38.5-3.65,57.75-5.4q10.29-.95,20.62-1.44c1.92-.1,4.36,0,5.74,1,9.15,7,17.93,14.52,27.17,21.4,4.48,3.33,8,8,14.37,8.88,10.29,1.36,20.49,3.51,30.73,5.33,4.22.75,9,.56,12.53,2.52,5.62,3.09,10.51,7.54,15.57,11.57,13.83,11,27.41,22.33,41.42,33.1,9.21,7.08,18.22,13.85,20.11,26.54.45,3,.24,4.84-2.39,5.95-19.6,8.31-39.2,16.62-58.86,24.78-11.56,4.8-23.29,9.19-34.84,14-14.93,6.22-29.84,12.52-44.61,19.12a226.2,226.2,0,0,0-21.84,11.25c-5.21,3-5.24,10.51-.61,14.37,10.84,9,21.76,17.9,32.47,27.06,18.85,16.11,37.52,32.45,56.4,48.53,3.45,2.93,7.28,6.11,11.47,7.29,3.71,1,8.18-.45,12.3-1,10.53-1.36,21-2.94,31.58-4.18,13.8-1.62,27.64-2.86,41.44-4.53,13.39-1.62,26.73-3.69,40.11-5.37,10.21-1.29,20.47-2.13,30.66-3.45,15.71-2,31.37-4.38,47.06-6.46,12.15-1.61,24.39-2.57,36.43-4.73,4.16-.74,6.75-.49,9.57,2.5,2.39,2.55,6.41,4,7.87,6.92,3.27,6.48,5.44,13.53,8,20.38,4.68,12.65,10,24.46,21.82,32.78a514.59,514.59,0,0,1,41.55,32.8c8.18,7.13,16.11,12.58,27.5,10.62a152.36,152.36,0,0,1,16.11-1.07c9.76.46,19.51,1.35,29.26,2.07q15.18,1.13,30.37,2.23c3.09.22,23,2.55,31.49,3.1,5.41.35,14.35,2.08,18.58,4.89,11.07,7.37,21.09,16.28,31.8,24.21,5.71,4.23,9.36,8.73,9.35,16.46,0,4,2.27,8.79,5,11.93,3.71,4.28,8.84,7.34,13.36,10.9,14.58,11.49,29.09,23.06,43.75,34.43,7.1,5.51,13.9,11.82,21.84,15.68,10.19,5,21.37,7.85,32.17,11.5,7.27,2.46,14.66,4.56,21.92,7.06,18.24,6.29,36.4,12.8,54.67,19,3.18,1.08,6.23.65,8.26-3.13C1153.4,1274,1161,1261,1168,1247.61c1.93-3.68,2.29-8.17,3.41-12.27.49-1.77,1.11-3.52,1.69-5.37,3.43,1,6.24,1.7,8.87,2.77,4,1.63,7.33.78,10.45-2.06,7.79-7.09,15.66-14.1,23.33-21,11,8.25,21.87,16.55,32.94,24.57,3.26,2.36,6.93,5.11,10.69,5.61a143.23,143.23,0,0,0,25.6,1.2c10.31-.47,18.85-4.38,24.21-14.35,2.31-4.28,6.47-8.76,10.85-10.5,11.9-4.72,12.14-15.06,14.2-24.9,1.72-8.19,2.69-16.8,6-24.34,5.56-12.7,6.55-24.68-.54-36.84-4.65-8-7.56-17.21-16.18-22.37a5.36,5.36,0,0,1-2.24-3.44c-.35-2.53-.11-5.15-.11-8.71l13.55-12.6c3.93,4.08,8.21,4.65,14.25,1.49,10.25-5.37,21.21-9.44,32-13.73,8.06-3.21,10.19-5.53,10.35-14.29.05-2.92-.13-6.42-1.64-8.69-3.36-5-3.65-6.17,1.84-9.55,4-2.48,6.42-5.54,6.56-10.36,0-1.36,1.21-2.7,1.23-4.06C1399.38,1021.5,1399.73,1018.61,1398.55,1016.94Z" fill="none" stroke="#000" stroke-linejoin="round" stroke-width="8"/></g><g id="Paint"><polygon points="1040.37 938.7 997.36 945.94 770.29 785.33 721.48 773.54 688.36 750.89 679.77 760.26 858.37 895.6 990.91 992.56 1064.44 976.56 1040.37 938.7" fill="#fff"/></g><g id="Canopy"><path d="M1317.13,1107c-4.08-1.68-59.16,47.12-74.25,65.45-5,3.39-3.93,14.85-3.85,23.1,2.5,7.7,31.17,30.78,35.79,33.18,3.6,1.88,31.67-7.7,48.17-16,10.47-17.19,18-56.65,18-69.11C1334.89,1122.42,1321.31,1108.74,1317.13,1107Z" fill="#82b3d1"/></g><g id="Shadows" opacity="0.2"><path d="M1061.32,1143.14c-11.61-78.47-58.06-205.34-64.15-228.17s-6.38-25.57-21.11-38.24-704.18-495-704.18-495l-1.95,10.67,17.2,15.76,48.27,34.59,36.44,39.56,67.31,57.06L425,591.82,384.2,555.93,152.78,390.19l-3.85,98.55,62.33,59.4-6,36L506.06,797.55,558,856.36l254.43,200,23.06,73.94,64,6.75L941,1168l9.29,23.85,79,61,99.63,34.44h17.39l1.2-43.68-74.52-22Zm-373-127.53-4.49-18.43-30-19.2-5.23,5,13.47,20.45s-228.63,21.63-230.54,19.43l10.8,26.85,225.78-26.36L683.87,1037l12.51,38.26,22.07,13.91-10.19-47.55Zm-199-131.25L519,864.44,431.55,792l-54.91-17-37.71-29-157.18,6.65,19.81,25.87L328,765.22,361.64,792l53.5,13.16,54,47.61Zm814.58,281.33c-2.65-8.45-19.08-32.09-19.08-32.09l-35.11,28.07,54.19-99-23.8,12.55-20,4.11-8.88-5.11,6.7-4.43-2.5-32.83L1067.34,788.43,823.77,618.14l-6,9.8-41.21,7.66,283.22,193.92L1189.34,1037l20.21,20.45,22.67,5.85-18.76,56.59-66,3.44-16,90.17,40.23-16h47.19l71.06,27.81S1306.59,1174.13,1303.94,1165.69ZM689,399.54l7.4-41.84L507.53,243.12l-12.32,45.72,133.05,92.85ZM628.26,595.65l3.26,14,22.33,5.63,139-91.72L612.63,544.91,506.79,498l-45.74-9.26,136.22,95.4Z" fill="#111"/></g><g id="Outline"><path d="M1398.55,1016.94c-8.09-11.43-16.57-22.59-24.86-33.89a5,5,0,0,1-1-3.09,75.41,75.41,0,0,1,1.34-9.6c3.53-16.46,7-32.92,10.84-49.31,1.32-5.68.53-10.33-3.27-14.9a164.09,164.09,0,0,1-11.7-16.14c-8.12-12.6-16-25.37-23.94-38.08-9.41-15.06-18.58-30.28-28.29-45.14-4-6.14-6.78-13.31-14-17.16-5-2.66-11.52-4.41-12.2-11.87-.07-.71-1.13-1.42-1.86-2-3.46-2.57-7.12-4.89-10.41-7.65-8.08-6.78-48.39-41.51-52.79-48.75-1.59-2.62-4.91-5.75-7.57-5.87-8-.38-11-6.68-15.76-11.06a34.93,34.93,0,0,0-4.63-3.7q-24.8-16-49.65-31.89c-20-12.71-39.81-25.7-60.19-37.73-5.54-3.27-5.4-6.63-4.68-11.46,1.42-9.61,2.69-19.24,4-28.87,1-7.32,1.52-14.72,2.9-22,.93-4.9-.29-8.28-4.31-11-10.06-6.92-19.85-14.25-30.1-20.87q-31.2-20.15-62.85-39.56c-1.53-.94-5.54-.55-6.53.7q-18.57,23.51-36.45,47.56c-2,2.63-3,2.63-5.55,1q-26.54-17.45-53.3-34.55c-12.37-7.9-24.73-15.84-37.44-23.17-10.44-6-21.46-11-32.1-16.72-6.32-3.37-12.31-7.37-18.63-10.75-7.91-4.23-12.71-8.1-19.77-11.65.71-4.37-1.62-30.3-1.7-40.38a8.83,8.83,0,0,0-.93-4.62c-14.66-21.7-29.2-43.5-44.33-64.88-5.35-7.57-11.37-15.13-18.57-20.82-10.79-8.54-23.09-15.13-34.33-23.15-5.8-4.13-10.77-9.45-15.94-14.42-6.14-5.89-11.4-12.95-18.25-17.77-12.71-9-26.65-16.15-39.43-25s-28.15-14.23-38-27.41c-6.06-8.1-12.92-15.62-19.76-23.09-3.88-4.22-7.4-10.06-15-6.67-.72.32-2.43-1.21-3.49-2.11-7.73-6.54-15.24-13.38-23.25-19.56-1.92-1.49-6-2.05-8.17-1-13.47,6.61-26.44,14.24-40,20.62-9,4.23-15,9.81-15.75,20.17-.15,2.11-1.13,5.45-2.57,6-10.74,4-9.9,14.18-11.74,22.41s-1.88,17.16-2.75,26.28c-6.37,0-12.56-.19-18.74.07-3.54.14-7.53.1-10.51,1.67-15.71,8.26-31.15,17-46.69,25.59-16.17,8.91-32.54,17.49-48.45,26.84-8.45,5-17.33,9.54-23.19,18.17C274.78,335.5,267,346.1,259,356.47c-2.52,3.27-3.24,5.89-2,9.84,1.14,3.72,1.11,7.81,1.6,11.73-6.78-6.09-12.07-12.74-17.84-18.92-2.84-3-6.73-7.52-9.88-7.31-6.08.4-9.08-2.74-12.72-6.08-7.08-6.51-14.18-13-21.53-19.2A6.29,6.29,0,0,0,191,326c-19.28,10.46-38.43,21.15-57.58,31.84a5,5,0,0,0-2.44,2.51c-1,3.81-1.53,7.73-2.41,11.57-.84,3.65-1.78,7.14-6.36,8.18-1.37.31-2.95,2.25-3.35,3.73a136.09,136.09,0,0,0-3.36,15.72c-1.28,8.72-2.37,17.49-3.2,26.28-1,11.14-2.73,22.22.73,33.42a135.39,135.39,0,0,1,4.47,22.66A15.36,15.36,0,0,0,124,493.19c4.49,3.3,8.75,6.92,13.25,10.21,7.65,5.6,15.35,11.14,23.17,16.51,3.06,2.1,6.69,3.38,9.72,5.51,11.89,8.36,22.12,19.1,35.72,25,2.62,1.14,3.38,2.74,3.14,5.41-.81,9.19-5.81,44.9-7,47.36-2.73,5.63-4.63,11.67-7.43,17.26-2.7,5.4-5.29,10.73-4.24,16.93a163.32,163.32,0,0,0,3.81,18.41c1,3.27,0,4.46-2.63,5.77-6.69,3.34-13.27,6.93-19.92,10.37-14.65,7.57-29.41,14.93-43.92,22.75A106.93,106.93,0,0,0,112,705.3c-3.28,2.61-2.21,9.62,1.2,12.32,8.33,6.61,16.75,13.13,24.88,20,15.44,13,30.6,26.32,46.12,39.21a14.58,14.58,0,0,0,9.18,3.24c9.16-.52,18.25-2.08,27.39-3,6.14-.61,12.33-.66,18.48-1.22,19.25-1.74,38.5-3.65,57.75-5.4q10.29-.95,20.62-1.44c1.92-.1,4.36,0,5.74,1,9.15,7,17.93,14.52,27.17,21.4,4.48,3.33,8,8,14.36,8.88,10.3,1.36,20.5,3.51,30.74,5.33,4.22.75,9,.56,12.53,2.52,5.62,3.09,10.51,7.54,15.57,11.57,13.83,11,27.41,22.33,41.42,33.1,9.21,7.08,18.22,13.85,20.11,26.54.45,3,.24,4.84-2.39,5.95-19.6,8.31-39.2,16.62-58.86,24.78-11.56,4.8-23.29,9.19-34.84,14-14.93,6.23-29.84,12.52-44.61,19.12a226.2,226.2,0,0,0-21.84,11.25c-5.21,3-5.24,10.51-.6,14.37,10.83,9,21.75,17.9,32.46,27.06,18.85,16.11,37.52,32.45,56.4,48.53,3.45,2.93,7.28,6.11,11.47,7.29,3.71,1,8.18-.45,12.3-1,10.53-1.36,21-2.94,31.58-4.18,13.8-1.62,27.64-2.86,41.44-4.53,13.39-1.62,26.73-3.69,40.11-5.37,10.21-1.29,20.47-2.13,30.66-3.45,15.71-2,31.37-4.38,47.06-6.46,12.15-1.61,24.39-2.57,36.43-4.73,4.16-.74,6.75-.49,9.57,2.5,2.39,2.55,6.41,4,7.87,6.92,3.27,6.48,5.44,13.53,8,20.38,4.68,12.65,10,24.46,21.82,32.78a514.59,514.59,0,0,1,41.55,32.8c8.18,7.13,16.11,12.58,27.5,10.62a152.36,152.36,0,0,1,16.11-1.07c9.76.46,19.51,1.35,29.26,2.07q15.18,1.13,30.37,2.23c3.09.22,25.72,4,34.17,4.52,5.41.35,11.67.66,15.9,3.47,11.07,7.37,21.09,16.28,31.8,24.21,5.71,4.23,9.36,8.73,9.35,16.46,0,4,2.27,8.79,5,11.93,3.71,4.28,8.84,7.34,13.36,10.9,14.58,11.49,29.09,23.06,43.75,34.43,7.1,5.51,13.9,11.82,21.84,15.68,10.19,5,21.37,7.85,32.17,11.5,7.27,2.46,14.66,4.56,21.92,7.06,18.24,6.29,36.4,12.8,54.67,19,3.18,1.08,6.23.65,8.26-3.13C1153.4,1274,1161,1261,1168,1247.61c1.93-3.68,2.29-8.17,3.41-12.27.49-1.77,1.11-3.52,1.69-5.37,3.43,1,6.24,1.7,8.87,2.77,4,1.63,7.33.78,10.45-2.06,7.79-7.09,15.66-14.1,23.33-21,11,8.25,21.87,16.55,32.94,24.57,3.26,2.36,6.93,5.11,10.69,5.61a143.23,143.23,0,0,0,25.6,1.2c10.31-.47,18.85-4.38,24.21-14.35,2.31-4.28,6.47-8.76,10.85-10.5,11.89-4.72,12.14-15.06,14.2-24.9,1.72-8.19,2.69-16.8,6-24.34,5.56-12.7,6.55-24.68-.54-36.84-4.65-8-7.56-17.21-16.18-22.37a5.36,5.36,0,0,1-2.24-3.44c-.35-2.53-.11-5.15-.11-8.71l13.55-12.6c3.93,4.08,8.21,4.65,14.25,1.49,10.25-5.37,21.21-9.44,32-13.73,8.06-3.21,10.19-5.53,10.35-14.29.05-2.92-.13-6.42-1.64-8.69-3.36-5-3.65-6.17,1.84-9.55,4-2.48,6.42-5.54,6.56-10.36,0-1.36,1.21-2.7,1.23-4.06C1399.38,1021.5,1399.73,1018.61,1398.55,1016.94ZM1261.82,765.43c8.34,6,13.12,7,22.17,14.27a6.17,6.17,0,0,1,2.12,4.06c.1,2.35.12,4.71.13,7.07h0c12.52,3.91,23.72,15.3,30.39,25.51l-21,1.86c-2.22-2.05-25.06-36.29-35.35-51.34A1,1,0,0,1,1261.82,765.43Zm-51.45-42.28c5.58-4.57,8.19-4.54,12.39,1.36q7.79,11,15.43,22,16.8,24.36,33.51,48.78c4.87,7.09,9.61,14.29,14.71,21.22,6.41,8.71,7.78,19.15,10.3,29.14,3.81,15.08,7,30.32,10.46,45.49,2,8.88,4.17,17.74,6.2,26.62,1,4.38-1.46,6.75-8.71,8.35l-39.56-56.21c-3.3-4.69-6.5-9.45-9.91-14.06a12.3,12.3,0,0,0-10.76-5.18c-2.56.07-5.14-.12-7.69,0-3.39.22-5.45-.88-7.46-4-6-9.33-12.69-18.28-18.47-26.47,3.53-8,7.17-15.35,9.87-23,.74-2.1-.8-5.54-2.23-7.76-8.17-12.64-16.58-25.14-25-37.61-2.22-3.27-4.84-6.27-7.52-9.71C1194.23,735.75,1202.45,729.63,1210.37,723.15Zm74.47,279.79c1.62.91,4.66.68,5.49-.32,2.52-3,5.05-1.85,7.82-1.13,7.09,1.84,14.18,3.69,21.29,5.43,3.23.79,11.46,10.26,10.15,12.75-1.7,3.26-4.62,6-7.41,8.55-9.14,8.27-18.46,16.34-27.69,24.5-8.41,7.44-16.79,14.9-25.36,22.51-5.35-5.07-9.41-9.85-8.76-17.77.7-8.54-2.56-18-2.4-26.63,0-1.46,4.3-4.3,4.62-5.84.42-2.08-3.07-5.16-4.56-4.23-10.49,6.54-6.5,19.41-5.82,28.07.94,12,1.66,13.15-7.73,21.72-2-1.22-4.07-2.46-6.12-3.81-8.74-5.78-18.45-8.34-28.81-9.32-6.77-.64-13.79-1.26-20.06-3.6-3.46-1.29-5.59-6.1-8.31-9.31,13.31-12,12.66-9.92,3.88-22.43-13.5-19.25-26.58-38.82-40.52-57.75-5.33-7.24-3.73-14.23-2.59-21.67.33-2.13.77-4.25,1-6.39.78-6.84,6.64-9.29,11.07-13,4.13-3.47,8.52-6.77,9.5-12.64.45-2.67.08-4.15-3.17-5-10.36-2.8-20.67-5.83-30.83-9.31-11-3.76-13-5.57-15.82-9.47-9.54-13.47-19.86-26.61-27.45-41.14-4.39-8.39-8.91-9.25-16.74-8.33-7.26.85-15-.6-21.3,4.19-8,6.1-15.73,12.68-23.6,19a32,32,0,0,1-3.59,2.15c-2.69-5.62-10.42-10.91-16.21-15.31-15-11.4-30.37-22.38-46.15-33.94C964,809.19,969,805,974.23,801.05s10.39-7.69,15.74-11.33c1-.7,3.11-1.14,4-.58,6.19,3.81,11.61,3.09,16.83-2.66q15.64,10.6,31.15,21.13c7,4.74,9.29,6.7,16.41,11.2,0,0,7.29-24.53,10.54-35.79.24-.81.63-4.33,1.67-8.78.92-3.92-12.23-11.11-18.07-14.88-6.93-4.47-13.79-9.06-20.65-13.64-1.37-.91-3-3.41-2.48-3.61.14-2.45.12-4.92.48-7.33a5.42,5.42,0,0,1,1.69-3.19c6.49-5.15,12.67-10.86,19.77-15,5.32-3.09,11.11,0,16,3.11q13.17,8.38,26,17.25c4.2,2.91,7.58,7.5,12.14,9.26,3.73,1.43,8.68,0,13-.55,5-.67,9.85-2,14.82-2.7,9.13-1.27,15.37,4.21,20.19,10.53,8.47,11.12,15.93,23,24,34.47,8.85,12.66,18.09,25,26.6,37.92,1.74,2.63,1.34,6.91,1.34,10.43,0,9.16-.07,28.48,0,29l.15,2.33a4.68,4.68,0,0,0,5,4.37,16,16,0,0,0,6.08-1.21c4-1.92,7.38-5.16,10.6-8.27,3.66-3.53,7.83-2.52,12.16-2.81,10.62-.71,13.8,7.8,18.37,14.18,13.7,19.11,27,38.51,40.33,57.86,1.07,1.55,2.15,3.64,2,5.39-1,12.7,3.19,23.67,10.62,33.69,6.39,8.62,9.22,18.63,11.12,29.35-8-2.32-15.75-4.62-23.55-6.86-3.71-1.06-12.87,3-14.19,6.4A4.28,4.28,0,0,0,1284.84,1002.94ZM892,1085.22c-6.37-4.87-13-9.45-19.19-14.53-6.47-5.3-12.51-11.13-19-16.42a34.26,34.26,0,0,0-7.79-4.65c-4.33-1.92-4.83-5.2-4.68-9.32.23-6.59.2-13.19,0-19.78-.19-7.12.44-13.76,4.21-20.27,3.91-6.76,6.48-14.3,10-22.27l49.6,37.17c-3.77,8.08-7.68,15.71-10.85,23.63a35.31,35.31,0,0,0-2.19,12C891.83,1062.29,892.07,1073.76,892,1085.22Zm-56.1-36.2c-.06,1.58-.62,1.88-1.89.59l-14.33-11.07c-13.68-10.55-27.4-21-41-31.65-14.36-11.16-28.59-22.48-43-33.62-13.08-10.13-26.17-20.27-39.49-30.06-5.15-3.79-7.77-8-7.8-14.63-.09-24.11-.63-48.23-1-72.34,0-2.65,0-5.3,0-8,6.42,4.85,12.86,9.65,19.25,14.52,17,13,34.07,25.9,51,39,19.94,15.39,39.78,30.93,59.68,46.38,10.09,7.84,20.08,15.83,30.43,23.32,2.71,2,2.57,3.27,1.38,5.7-4,8.2-8,16.39-11.75,24.74a20.38,20.38,0,0,0-1.42,7.89C835.86,1022.88,835.94,1036,835.94,1049Zm-91.12-41.39c2.1,1.69,4.23,3.33,6.36,5-8.22,6.47-11.77,10.42-19.58,16.75-2.27,1.83-3.89,3.33-6.62.42-2.17-2.31-5.21-3.78-7.71-5.81-4.43-3.62-8.45-3.42-12.15,1-1.17,1.4-2.23,2.89-3.89,5-5.61-9.6-10.7-18-15.38-26.67-.54-1,.74-3.85,2-4.8,11.7-9,23.56-17.71,35.38-26.51l25.65,19.62C741.73,998.17,737.38,1001.63,744.82,1007.63Zm-32.13,23.17c3,2.52,5.92,4.89,8.73,7.38,4.2,3.72,7.37,3.85,11.92.41,10.16-7.68,16-13.1,26.12-20.8,3.72-2.83,3.52-6.09-.18-9-3.11-2.49-6-5.22-9-7.84.42-.51,5.24-3.22,5.65-3.73L830.77,1055a1.38,1.38,0,0,1-.93,2.47c-5.81-.34-11.63-.65-17.43-1.07-9.38-.67-18.75-1.52-28.13-2.14-17.9-1.16-35.81-2.21-53.71-3.34a4.88,4.88,0,0,1-2.5-.73c-6.58-5-13.1-10-19.81-15.12Zm-140-101.93c-6.5,6.74-9.56-.32-14.72-3.13l5.64-4.33Zm-4.24-12.06c3-3.61,5.95-7.18,9.26-11.19,1.08,1,4.55,3.31,5.43,4,4.32,3.6,4.32,3.6-1.73,10.26-1.07,1.18-1.93,2.56-3.29,4.39Zm-2.72-10.09c-2.6,5.23-5,8.81-10.73,12.87-4,2.82-7.46,5.38-4.33,8.17a159.31,159.31,0,0,0,15.05,11.56c.94.67,3.62,0,4.81-1,6.58-5.18,10.7-8.5,17.25-13.72,1.19-1,4.92-2.86,5.9-1,.35.74,1.13,2.2,1.47,2.94-6.21,4.82-9.33,7.26-17.23,14.19-2.86,2.18-7.14,6.56-10.09,6.6s-7.6-5.38-10.38-7.58c-6.5-5.14-12.92-10.37-19.41-15.58,5.14-3.68,10.24-7,14.91-10.8,3.3-2.71,6.08-6.08,9.07-9.18C564.66,901.48,566.61,904.16,565.74,906.72Zm5.13-27.29,13.23-11.81,52.62,40.56-16.17,10.25Zm41.32-6.85c-8.67-6.73-19.48-15.63-28-21.59-16.54-12.19-30.63-7.93-44,4.34L527,845.53c-8.73-23.32-16.92-45.18-25.14-67.12a137.74,137.74,0,0,1-5.9-14.57c-.86-2.46-1.88-4.89-3-7.72,14.77,0,28.88-.11,43,.14,1.75,0,3.92,1.59,5.1,3.07,2.43,3.08,4.32,6.59,6.94,10.71.16.29,28.5,43.51,41.06,61.56,3.38,4.87,9,8.26,13.88,12,18.5,14.27,36.89,28.72,55.81,42.42,6.15,4.46,7.7,9.83,7.83,16.49.06,3.46,0,6.93,0,11.62-5.95-4.41-11.23-8.21-16.38-12.17Q631.13,887.34,612.19,872.58ZM467.34,513.83c7.56,12,14.75,24.17,22.47,36,1.67,2.57,4.87,4.17,7.48,6.08,18.25,13.38,36.56,26.69,54.76,40.14,1.13.84,2.41,3.15,2,4.11-3,7.27-6.36,14.37-9.86,22.06-17.91-13.44-35.11-27-53-39.57-11.07-7.75-15.22-20-22.54-30.2-4.8-6.68-8.44-14.19-13-21a39.5,39.5,0,0,0-8.88-9.82c-16.65-12.21-33.58-24-50.37-36.05-4.08-2.91-8-6-12.13-9.13,3.13-7,8.37-19.12,11.68-26.49a11.78,11.78,0,0,1,3,1.09C419,465.19,431,473,450.6,487.71,455.23,491.19,464.08,508.69,467.34,513.83ZM469.79,498c41.46,29.3,72.44,51.12,114.09,80.55-7.38,4.42-14.34,8.77-21.52,12.74a6.14,6.14,0,0,1-5.36-.18c-14.63-10.4-27.39-19.76-41.88-30.35-3.2-2.33-9.82-6.64-11.86-8.25a56,56,0,0,1-14.9-17.72c-6.61-11.69-14.63-22.57-21.57-34.08C465.92,499.3,469.79,498,469.79,498Zm-84.3-12.41c7,5,13.95,10.15,21,15.17,12.4,8.87,25.52,16.91,37,26.81,6.52,5.61,10.69,14.07,15.48,21.54,6.48,10.1,11.78,21.07,19,30.54,4.58,6,11.71,10,17.89,14.7,13.89,10.52,27.88,20.91,41.86,31.31,2.16,1.6,4.32,3.41,6.77,4.3,1.1.4,3.72-.82,4.3-2,3.16-6.42,5.91-13.05,8.8-19.6l2.83-6.45,12.1,7.91c-4.78,9.88-10,20.28-14.82,30.84-1.91,4.14-4.44,3.08-6.86,1.31-10.45-7.68-20.76-15.55-31.13-23.33-12.21-9.17-24.56-18.18-36.59-27.59a41.58,41.58,0,0,1-9.06-10.14c-8.92-13.84-17.3-28-26.27-41.82a36.58,36.58,0,0,0-9.12-9c-16.5-12.09-33.2-23.91-49.76-35.92a32.88,32.88,0,0,1-5.89-5.72c-.92-1.11-2.11-2.28-1.65-4.26S384.36,484.79,385.49,485.59ZM599.55,785.07c-.83-15.42-2-30.82-2.94-47,4.93,3.9,9.43,7.37,13.79,11a4.33,4.33,0,0,1,1.09,2.88c.44,8.72.67,17.46,1.18,26.18.62,10.67.38,21.56,2.53,31.94,1.63,7.85,7.78,13.79,14.65,18.63,11.17,7.85,22,16.13,32.83,24.48,1.32,1,4.26,21.27,2.2,29.87l-62.4-47.9c-7.23-5.66-48-70.24-49.37-72.2a175.47,175.47,0,0,0-21.8-24.92c-5-3.83-11.53-7.58-18.58-6.12-13.47,2.8-22.54-5.53-32-12.64C467.09,709,453.67,698.4,440.12,688c-6.82-5.26-13.7-10.45-20.92-16,1.38-.72,13.14-5.27,25.91-11.11,4-1.85,5.9-2.83,9.73.24,10.51,8.42,35.74,26.57,42.38,31.39,10,8.52,15.39,5.79,26.12,5.1,2.32-.15,9.12-1,11.27-1.35,12.79-2.36,14.06,1,20.08,5.35,7,5.08,11.1,9.7,12.26,13,.81,2.32,11.87,33.1,12.67,37.83,1,5.76,13.26,35.77,14.22,37.64C596.63,795.54,599.93,792,599.55,785.07Zm30.77-2.73c.48,10.49,1.39,21,2.06,31.45.16,2.5,0,5,0,8.17-7.25-4.21-10.94-10.25-11.91-17.49-1-7.72-.82-15.59-1.27-23.39-.49-8.46-1.12-16.91-1.75-26.19,5.26,4.13,10.28,8.05,15.28,12,4.25,3.35,9.66,6.62,13.76,10.15,1.81,1.55,7.72,5.89,8.61,6.51,7.07,4.89,7.61,6.16,6.55,15-8.79-6.38-17.42-12.75-26.18-19C632,777.06,630.11,778,630.32,782.34ZM474.56,629.47c-2.51-7.23.24-8,2.49-3.44,3.05,6.35,6.14,12.69,9.14,19.06,2,4.22,3.43,8.75,5.91,12.64,1.68,2.63,3.73,6.21,8.28,4.54.56-.21,1.61.36,2.19.86,5.36,4.59,27.35,20.19,35.62,26.39-6.32.87-16.66,2.05-22.35,2.79-6,.77-8.23.86-15.88-4.6-8.52-5.22-31.21-24.13-44.18-33.76,5.75-3.82,9.32-5.57,14.38-9.39C477.54,639,477.77,638.71,474.56,629.47Zm25.81,25.37c-2.33,1.68-4.5-1.63-5.16-3-5.92-12.26-12.67-24.74-18.29-37.12-10.26-22.62-17.14-36.9-28.11-55.74-1.55-2.67-3.31-7.11-4.67-9.89-.56-1.22.79-3,1.91-1.15q11.73,18.64,23.46,37.29c4.22,6.71,8,12.35,12.25,19.51,4.76,8,9.17,17,16.9,22.78,1.35,1,1.55,3.82,1.86,5.87.83,5.5,1.63,11,2,16.57A5.68,5.68,0,0,1,500.37,654.84ZM419,564.39l-10.11,6.08-18.66-20.39,16.53-10C410.83,548.18,414.81,556.08,419,564.39ZM386.2,681c7.66,6.53,40.56,29.44,44.44,32.37q22.35,16.9,44.5,34.08c11.9,9.23,13.48,10.81,17,21.74C466.87,749.44,438.8,728,414.53,709c-9.31-6.53-22.47-15.76-27.2-19.52C386,688.39,386.17,683.33,386.2,681Zm94.74,62.86c-11.7-9-23.57-17.71-35.29-26.64-7.65-5.82-41-31.51-43.71-33.51-4.13-3-8.23-6.09-12.67-9.37,10.85-3.81,19.73-2.21,27.43,3.6h0c14.66,11.3,41.72,32.45,56.39,43.73,6.12,4.71,12,9.83,18.54,13.91,4.89,3,13,3.24,15.34,3,12.68-1.06,16.92.59,25.85,11.74-2.34,0-5.35-.08-7.57,0-8.72.33-16.63.59-26.36.46C491.31,750.66,486.29,747.9,480.94,743.81ZM663.8,783.08c-19.15-15-38.47-30-57.75-45.15-4-3.11-8.68-5.74-11.58-9.68a101.09,101.09,0,0,1-10.32-18.69c-7.44-16.69-14.23-33.67-21.78-50.3-2.15-4.73-2.87-8.66.72-13.44,8,6.1,16.11,12.27,24.23,18.42q26.65,20.19,53.33,40.37c5.74,4.36,11.13,9.2,17,13.35,4.14,2.92,4.94,7,5.58,11.38,2.06,14.23,4.22,28.44,6.27,42.67.33,2.33.29,4.72.43,7.21Zm3.76-62.14a14.35,14.35,0,0,0-4.37-7c-1.07-.92-2.16-1.8-3.27-2.66-.26-.19-.68-.51-1.22-.94-3.62-2.75-73.82-57-92.91-71.15,3.33-7.33,6.7-14.09,9.47-21.09,1.82-4.61,4.89-5.67,9.25-5l55.57,9.08c2,6.65,3.51,11,5.27,17.29,1.33,3.87,8.89,9.06,13.19,12h0c.74.51,1.38,1,1.85,1.29l0,0c15.65,11.39,68.26,50.41,68.26,50.41,1.92,1.65,3.57,1.79,2.47,5-13.32,27.61-26.64,55.21-40.08,83.09-4.37-3.27-8.33-6-11.93-9.07a9,9,0,0,1-2.57-5c-2.26-13.45-4.31-26.93-6.41-40.41C669.28,731.54,668.85,726.14,667.56,720.94ZM586.33,607.06c7.38-4.65,14-8.89,20.72-13,.68-.41,1.92-.1,2.84.12,3.12.74,6.25,1.52,9.34,2.34,6.64,1.77,6.82,2.27,8,8.71.23,1.29,1.07,3.28,4.33,4.41,1.68.58,3.82,1.13,6.12,1.8a1.77,1.77,0,0,1-.07,3.43c-3.88.91-7.84.11-14.54-1-9.29-1.6-13.87-2.37-19.71-3.34S593.07,608.43,586.33,607.06Zm306.19-28.93c6.44,4.29,170.93,113.19,177.66,117.67,19.47,12.87,40.53,27.73,61,41.24-7,1.34-13,2.92-19.13,3.44-2.27.19-4.91-1.86-7.1-3.31-10.75-7.14-21.23-14.69-32.15-21.54a16.29,16.29,0,0,1-1.36-1c-11.68-7-24.45-8.47-30.66-10.35-4.21-1.28-7.58-1.31-11.08,1.51-3.91,3.16-8.12,5.93-12.11,9-3.05,2.34-5.2,4.77-.89,8.19,2.58,2,2.65,5.16,3.24,8.4,1.41,7.89,1.52,16.22,10.68,21.25,11.89,6.53,22.72,15,34,22.6-1.27,5.6-2.49,11-3.8,16.71L821,628.11c3.14-2,5-3.49,7.11-4.31a14.08,14.08,0,0,1,5.48-.45c2.13.08,4.23.69,6.35.73,6.85.14,9.47,2.37,9.15,9-.21,4.51,1.37,6.62,5.3,9.24,28.49,19,56.6,38.64,84.86,58,6.65,4.57,13.47,8.89,20,13.59,1.48,1,6,3,7.9,1.36,4.91-4.19,4.46-12.46,9.76-16.44,8.74-6.58,15.22-12.53,24.86-17.42,9.43-4.78,13.08-5,17.1-6.3,3.81-1.22,9.7-2.46,2.59-7.07-115.33-74.76-109.59-74.61-122-74.77-8.43,0-5.12.26-13.5-.33-1.65-.12-3-3.77-4.76-6.08C884.7,584.36,888.9,580.75,892.52,578.13Zm-3.29-11.94c1.13-1.89,2.06-1,31.9,19.55,5.12,3.52,178.57,117.32,180.09,118.76,4.89,4.59,1,7.57,1,7.57s-39.08-26.46-40.88-27.63c-28.34-18.37-137.23-90.31-138.33-91.08C889.17,569.76,887.58,568.94,889.23,566.19Zm169.55,232.37c-1.3,3.9-2.15,8.1-3.52,11-6.19-4.33-14.46-10.49-20.61-14.8-1.48-1-19.84-14.08-20.64-14.75-2.61-1.29-5-.45-7.1,1.75-4.12,4.38-7.77,3.42-11.79,0-2.4-2-25.72-18.46-28.75-20.42-14.3-9.26-28.22-19.1-42.23-28.81C907,720.71,890,708.71,872.91,696.85c-25.52-17.69-51.11-35.27-76.58-53-1.71-1.2-3.74-2.84-6.62-4.91-2.34-2.25,1.76-3.32,4.53-2.08,4.15,2.69,8.39,5.25,12.42,8.11,2.75,2,4.1,1.45,5.12-1.71,1.09-3.37,2.57-6.61,4.24-10.78,36.39,24.91,111.54,76.67,116.54,80.09q22.2,15.19,44.4,30.4c12.46,8.49,25.15,16.64,37.27,25.58v0C1028.87,778.43,1049.24,792,1058.78,798.56Zm-181-157.33c8.92,6,17.77,12.13,26.68,18.15q28.53,19.26,57.08,38.5c1.77,1.2,3.38,2.64,5.56,4.36-.9,2.33-1.71,4.45-2.63,6.85-8.93-5.9-17.47-11.42-25.88-17.11-13.22-9-26.34-18.06-39.54-27.06-13.47-9.19-27-18.31-40.47-27.5-3.38-2.31-5.93-11.41-3.61-14.58,1.16-1.6,4.53-3.42,5.74-2.82,2.75,1.38,7,4.47,6.73,6.39C866.38,635,872.48,637.63,877.8,641.23Zm87.64,51.24c-10-6.34-19.74-13-29.55-19.58q-17.4-11.68-34.75-23.43a11.38,11.38,0,0,1-1-.79,1.84,1.84,0,0,1,0-2.85l0,0a3.15,3.15,0,0,1,3.6-.26c2.58,1.55,5.22,3.44,7.52,5.1,6.2,4.47,6.82,4.49,12.52-.47,1.75-1.52,3.84-2.64,5.68-4.07,6.82-5.27,2.55-8.16-2.32-11-2.47-1.45-5.84-3.23-7.9-6-.06-1.31,1.84-3.06,3.1-2.23,20.66,13.56,46.1,30.63,66.71,44.27,2.37,1.58,4.78,3.1,8.1,5.24-8.65,6.14-16.58,12.07-24.91,17.4C970.81,694.67,967.31,693.66,965.44,692.47Zm30.61-24.12c-11.14-8.11-22.79-15.54-34.25-23.23Q942.18,632,922.5,618.86c-5.81-3.86-11.53-8-17.69-11.18-2.65-1.39-6.31-1.33-9.52-1.2a31.67,31.67,0,0,0-8.45,1.42c-2.29.68-7.51-5.41-3.25-6.54,3.83-.85,7.63-2.22,11.49-2.45,11.95-.7,21.27,5.18,30.76,11.75,19.84,13.75,40.32,26.57,60.51,39.8,9.7,6.37,19.36,12.8,29.74,19.67C1008.36,673.63,1002.38,673,996.05,668.35ZM892.66,614.47c2.68-1.5,7.22-2.12,9.8-.85,5.2,2.55,8.89,5.39,13.51,8.64a1.31,1.31,0,0,1,0,2.13l0,0a3.11,3.11,0,0,1-3.23.24c-.75-.38-1.49-.81-2.1-1.18-5.15-3.07-7-6.08-12.28-3.82-5.91,2.51-8.35,5.71-13.56,9.57-.66.49-1.18,1.73,1.66,3.87,1.9,1.44,5.16,4,7.1,5.53,2.48,2,1.79,3.35,1.46,3.58l0,0a4,4,0,0,1-4.56,0q-7.1-5-14.17-10.12c-2.87-2.08-2.94-4,.16-6.16C881.84,622.15,886.91,617.7,892.66,614.47Zm-17.72-19.13c-9.32,6.36-18.63,12.72-28.09,18.84-4.69,3-9,3.66-14.37-.32-13.07-9.61-26.86-18.25-41-27.71,3.08-2.09,5.7-3.85,8.29-5.63,8.27-5.68,16.59-11.3,24.78-17.1,2.65-1.88,5-2.41,7.84-.54,8.51,5.62,17.1,11.14,25.63,16.74,5.53,3.63,10.91,7.5,16.56,10.94C877.39,592.27,877.32,593.72,874.94,595.34Zm2.42-13.66c-2.31.76-5.92-.65-8.26-2.16-11.57-7.48-22.62-15.79-34.45-22.8-4.65-2.75-10.59-1.22-15.37,2.13-9.85,6.91-19.67,13.84-29.56,20.68-5.91,4.1-6.49,8.09-.76,12.29,10.27,7.53,20.93,14.52,31.43,21.73,1.46,1,2.94,2,4.56,3.11-.72.91-.92,1.23-1.18,1.48-6.9,6.75-7.4,6.62-15.42,1-11.47-8-23.14-15.72-34.72-23.58a13.38,13.38,0,0,1-5.13-7.05c-3.35-14,8.94-17.8,17.07-23.75,8.5-6.21,17.6-11.61,26.47-17.31a7.85,7.85,0,0,1,3.48-1.38c7.25-.49,14.5-.88,21.76-1.11a6.92,6.92,0,0,1,3.91,1.35c7.06,5.08,13.78,10.69,21.12,15.33s15.26,8.31,23.84,12.91C882.72,577.5,880.4,580.68,877.36,581.68ZM810.91,629c-1.45,2.9-2.71,5.45-4,8.09-5.83-3.89-11.45-8-17.47-11.42a8.47,8.47,0,0,0-7.1,0c-7.06,3.94-7.44,4.15-14.25-.91,6-7.28,5.43-11.19-3.31-15.85-3.79-2-5.53-3.19-4.94-8.17.41-3.51.41-7.69,4-5.17C777,604.84,797.49,619.77,810.91,629Zm-30.16,18.42c5.2-1,10.27-.46,14.64,3.61,1.63,1.52,11.2,8.22,20.87,14.88a53.34,53.34,0,0,1,6.92,4.33q45.92,31.53,91.74,63.2C930,743.85,945,754.29,959.9,765c1.81,1.31,5.8,3.46,16.16,11.13,7.28,5.4,11,6.79-1.06,16.74-7.21,5.47-12.88,9.59-18.31,14-2.48,2-4,2.27-7,.18q-41.1-29.52-82.54-58.57c-15.24-10.71-30.7-21.08-46-31.69-14-9.7-27.93-19.52-42.32-29.59l.09-.06c-16-11.25-38.07-26.77-45.35-32,6-4.07,11.72-8.18,17.73-11.7,1.64-1,5.11-1,6.39,0C764.77,649.5,772.49,649,780.75,647.42Zm12.5,70.83c29.56,21,59.35,41.69,88.91,62.71,22.24,15.82,44.27,31.94,66.83,48.25-2.2,4.4-4.37,8.72-6.87,13.69-7.3-5-209.47-145.12-220.06-152.86-12.78-9.32-25.43-18.82-38.21-28.14-10.16-7.41-20.85-14.15-30.4-22.27-3.28-2.79-3.89-8.8-5.56-13.4-.51-1.41-1.35-3.81-.67-4.05,13.13-3.46,20.38,7,29.36,12.84,15.52,10.05,30.36,21.13,45.39,31.91C745.76,684,769.39,701.28,793.25,718.25Zm-2,157.22c-8.15,2.35-14.53,1.57-21-3.73C757.56,861.25,744,851.8,730.67,842c-13.13-9.68-26.73-18.79-39.22-29.23-3.07-2.57-2.66-9.32-3.84-14.16a.87.87,0,0,1,1.37-.88Zm-94.88-80.13,5.49-11.47c17.57,13,34.92,25.69,52.2,38.51,12,8.88,23.86,17.89,35.79,26.82,2.63,2,3.83,4,1.52,7.17-1.56,2.14-2.49,4.73-4.19,8.07Zm-8,39.63c.5-4.84.11-9.77.11-16.16,14.22,10.53,27.17,20.16,40.17,29.72s26.13,19,39.14,28.63c4.28,3.15,7.75,7.92,14.11,6.56,1.23-.27,2.46-.49,3.7-.71,7.81-1.38,14.55-2,21.9,4.21,16.33,13.72,34,25.86,51.66,39L830.4,949.91c-11.32-8.66-22.73-17.38-34.12-26.11q-16.49-12.63-33-25.29c-13.24-10.24-26.38-20.6-39.66-30.79-10-7.66-20.1-15.13-30.16-22.67C690.14,842.53,687.94,839.69,688.43,835ZM850.8,941.11c3.32-2.76,6.9-5.23,10.06-8.16,2.45-2.26,4.32-2.61,7-.35,4.66,3.87,9.62,7.38,14.65,11.19l-27.88,24.72-19.2-14.45C840.71,949.62,845.73,945.33,850.8,941.11Zm1.66-27.72c-17.42-13-34.74-26.23-52.07-39.4-2.74-2.08-6.93-4.08-7.47-6.72s2.85-5.84,4.52-8.81c.35-.61.75-1.2,1.31-2.1,3,2.11,6,4,8.72,6.16.92.71,2.19,2.42,1.9,3-3.22,6.54,2.47,7.94,5.91,10.53,15,11.25,30,22.39,44.92,33.63q19.17,14.43,38.24,29c1.58,1.2,2.89,2.85,4.62,3.73s4.51,1.83,5.26,1.11c3.06-2.94,5-1.6,7.64.55,4.88,3.94,10.26,7.27,15,11.31,1.29,1.09,1.69,3.84,1.62,5.79-.12,3.38-.92,6.74-1.59,11.11-13.39-10.22-26.16-20.1-39.09-29.77C878.86,932.71,865.55,923.2,852.46,913.39ZM704.74,778.18l33-68.5q7.05,4.65,14.06,9.31c.13.09.29.27.28.41-.57,13.73,10.71,16.23,18.29,22.24,20.58,16.29,43.33,31.09,64.38,46.78,11.81,8.8,23.88,17.25,35.76,26,11.45,8.4,22.8,16.92,34.2,25.38s22.79,16.94,34.25,25.31c1.21.88,2.92,1.07,5.12,1.82-3.24,26.91-6.51,54-9.94,82.48C855.53,894,781.73,834,704.74,778.18ZM876.94,986l-.7-.53-2.86-2.15,0,0c-4.47-3.47-11.38-8.87-13.77-10.63l26.92-24.11c3.36,2.4,19.13,14.09,23.19,17,16.57,11.75,33.7,22.87,49.31,36.54-10.2-1-19.91-1.53-29.45-3.07-8.26-1.32-12.42,4.6-17.82,8.48a17.85,17.85,0,0,0-2.49,2.8Zm63.43-6.57c-2.66-2-3.46-3.6-2.6-7.17,1.5-6.27,1.9-12.81,2.57-19.26.86-8.27,1.38-16.57,2.34-24.83,1.08-9.29,2.49-18.54,3.73-27.81q1.46-11,2.82-22c.77-6.07.92-12.3,2.43-18.17.94-3.61.79-6.43-1.56-8.86-2.89-3-2.68-5.74-.71-9,1.76-2.92,3.2-6,5.09-9.65l54.63,39.2c-2.89,4.14-2.67,10.67.52,15.48,3.57,5.38,7.18,10.73,10.63,16.18.82,1.29,1.88,3.25,1.45,4.36-3,7.62,2.52,12.65,5.72,17.95,10.38,17.19,21.24,34.1,32.31,50.86,1.55,2.35,5.13,4.15,8,4.66,6.75,1.18,9.16,5.9,11.69,11.34-24.75,8.11-49.19,15.45-73.09,24.27-11.35,4.18-18.37-1.18-26.1-7.12C967,999.72,953.75,989.51,940.37,979.46Zm132.15-16.12q-19.66-29.6-39.39-59.14c-4.76-7.16-9.41-14.39-14.11-21.6-2.54-3.89-2.45-6.82,1.78-10,10.19-7.75,19.93-16.07,30.67-24.84,5.92,8.74,11.25,16.59,16.57,24.45,6.13,9,12,18.29,18.63,27,1.34,1.76,5.63,2,8.45,1.71,5.51-.49,10.92-1.88,16.4-2.73a3.3,3.3,0,0,1,2.65,1.09c6.72,9.33,13.49,18.63,19.82,28.22,1,1.56.29,4.5-.06,6.73-.57,3.53-.85,7.34-2.43,10.42-3.24,6.31-.53,10.38,3.13,15.46,13.27,18.47,25.89,37.41,38.78,56.15,2.55,3.7,5.19,7.33,7.8,11,2,2.75,4,5.54.5,8.51-2.73,2.32-4.65,4.63-9.38,1.66-19.76-12.39-40-24-60.09-35.84-7.23-4.23-15-7.7-21.83-12.41-3.31-2.26-5.33-6.52-7.71-10C1079.2,973.88,1076,968.54,1072.52,963.34Zm-16.36-118.69c6.5-.52,12.38-1.26,18.28-1.27,1.48,0,3.34,2,4.41,3.6,9,13,17.76,26.06,26.63,39.09,1.29,1.9,2.71,3.7,4.1,5.6-4.58,1.06-8.65,2.17-12.79,2.91-3.35.59-5.9,0-8.16-3.55C1079.83,877.3,1058.18,846.87,1056.16,844.65Zm118.8-82c1.52-5.43,3.84-10.63,6.14-16.7,4.52,6.27,9,12.1,13.05,18.16,6.22,9.21,12.31,18.5,18.15,28a9,9,0,0,1,.87,6.65c-1.59,5-3.94,9.79-6.39,15.63-5.1-7.27-9.62-13.65-14.08-20.07-5.62-8.11-11.36-16.15-16.66-24.46A9.9,9.9,0,0,1,1175,762.69Zm29.65-43.64c-9.57,7.43-18.84,14.51-27.94,21.81a11.51,11.51,0,0,0-3,4.88c-2,5.12-3.67,10.33-5.66,16-3.47-5-6.18-9.95-9.85-14-3.15-3.48-7.23-6.22-11.21-8.82-11.69-7.65-23.54-15-35.28-22.6a35.9,35.9,0,0,1-4-3.53c4.37-5,4.2-7.76-.65-12.25L1138,676.92ZM1057.69,559.56c11.33,4.11,17.84,13.57,23.78,23,1.87,3,.21,8.36-.29,12.58-.93,7.84-3.33,22.08-4.54,29.88-.12.77-.94,1.43-1.51,2.27-8-4.91-15.33-9.81-23.06-13.93-3.7-2-3.11-4.81-2.69-7.39C1051.58,592.61,1055.28,572.85,1057.69,559.56Zm-71.26,8.36c6.38-9.27,9.67-14.16,16.37-23.2,4-5.32,3.49-6.71-2.75-8.89-2.62-.91-4.82-3-7.22-4.55,2.23-5.65,5.42-9.85,10.65-6.52,15.1,9.63,30.28,19.11,45.29,28.87,1.42.92,2.83,3.5,2.59,5.06-1.91,12.37-4.21,24.68-6.46,37-.25,1.39-1.71,9.51-2.5,11.71-9.09-6.55-32.55-20.7-36.9-23.41-6.08-3.78-11.93-8-17.7-12.19C986.85,571.09,986,568.61,986.43,567.92Zm-24.95-4.57,0,0,4.61,3,5.35,3.47h0c23,14.92,45.93,29.95,69,44.8,30.29,19.49,60.71,38.78,91.81,58.62-6.4,4.73-12.23,9.48-18.56,13.42-1.49.92-5.29-.2-7-1.62-4-3.32-8.23-4.16-13.07-3.75-.91.08-1.85-.1-2.74,0-11.26,1.6-20.34-2.3-29.52-9-16.52-12-34.06-22.59-51.16-33.79-24.35-16-48.69-31.94-73.64-48.32-6.55-4-28.09-18-32.39-21.26-1.35-1-2.6-4-2.1-5.37,3.2-8.93.09-14.51-9.6-17.53l20.94-13.84C923.76,538.89,946.06,553.37,961.48,563.35ZM855,494.54c16.94,10.81,33.78,21.77,50.63,32.71.27.18.38.6.91,1.46-2.88,2.16-5.76,4.48-8.79,6.57-5.75,4-11.63,7.78-17.39,11.74-2.51,1.73-4.53,2.08-7.66.58-2.72-1.31-7.3-1.85-9.54-.39-3.95,2.55-7.41,1.35-9.46-.79-9.2-9.66-20.81-7.52-31.83-6.74-5.39.39-11.65-.53-16.29,4.16-.71.72-2.81,0-4.26,0-3.53.13-7.81-.9-10.47.71-11.49,7-22.53,14.67-33.69,22.18-5.22,3.51-5.39,8.14-.83,11.88-.61,6.05-1.22,12-1.8,17.86-.09.91,0,1.87,0,2.73-.34,9-.18,12.24,6.76,15.21-4.62,5.22-4.67,8.41-.25,14-10.61,7.37-21.19,14.75-31.84,22a3,3,0,0,1-2.71-.05q-26-18.18-52-36.52c-.44-.3-1.87-1.14-1.39-1.62,8.61-5.87,17.13-11.78,25.74-17.55q32.85-22,65.76-44c18-12.07,36-24.25,54.08-36.29,10.41-6.94,20.89-13.78,31.49-20.43C851.29,493.36,853.76,493.74,855,494.54Zm-72.24-15.1,18.9-13.37,31.93,18.41c2,1.22,1.23,1.67-.29,1.64-2.25-.14-4.65.17-6.74-.48a67.86,67.86,0,0,0-25.89-2.57c-5.78.45-11.75-1.64-17.63-2.5A.63.63,0,0,1,782.78,479.44Zm6.15,15.27c9.45-6.25,19.73-7.47,30.56-4.22,2,.61,4,1.33,6.88,2.27-11.82,7.68-23.24,15-34.57,22.5Q752.71,541,713.7,567c-16.29,10.83-32.5,21.79-48.71,32.73-3.69,2.48-7,6.41-11,7.36-4.34,1-7.54.34-14-1.23a37.65,37.65,0,0,1-5.1-1.75,2.15,2.15,0,0,1-1.34-1.79c-.33-3.84,1.39-6.09,5-8.39,13.16-8.32,25.72-17.58,38.74-26.13,14.81-9.72,30-18.91,44.79-28.63C744.49,524.45,766.64,509.47,788.93,494.71Zm-49.1,21.35c-12,8.05-24,16.19-36.13,24.12-17.67,11.57-35.43,23-53.18,34.47-6.14,4-12.58,7.54-18.42,11.92-3.86,2.91-7.52,1-11.64.1a44,44,0,0,1-23.92-14c19.11,5.14,31.68-5.65,45.07-14.1,4.46,3.47,11.73,4.07,16.06,1.26q29.08-18.94,58.13-37.92c3.45-2.25,7.17-4.17,10.31-6.78,4-3.37.84-7.41,1.57-12.5,4-2.82,9.82-6.39,15-10.69,2.08-1.73,3.26-4.94,4.06-7.7s.68-6,1-9.59c10.26,6.1,18.79,14.53,31.42,15.18Zm31.85-67.64a48.94,48.94,0,0,1,4.84,4.06c-6.13,4.48-12.14,9-18.35,13.26a4.62,4.62,0,0,1-4.14-.14q-34.5-22.39-68.84-45-21.45-14.1-42.81-28.3a1.14,1.14,0,0,1,1-2c3.72,1.15,7.44,2.31,11.16,3.45,18.6,5.69,37.28,11.15,55.75,17.21,5,1.64,9.51,4.94,14.07,7.77Q748.08,433.42,771.68,448.42ZM659.55,358.27c3.86,2.89,5.65,3.8,9.72,6.4,2.78,1.78,3.67,4,2.55,7.16-2.2,6.2-4.29,12.44-6.45,18.72-12.1-3.81-24.13-6.61-33.78-14.94-4-3.44-7.26-6.7-8.14-12.54-2.36-15.57-5.59-31-8.36-46.53a52.52,52.52,0,0,1-1-8.39c5.73,3.36,12.12,7.71,17.44,11,5.16,3.24,10.26,6.6,15.15,10.22a9.46,9.46,0,0,1,3.44,5c.75,3.38.13,7.06.83,10.4C652.54,352.24,655.73,355.4,659.55,358.27Zm-2.45-21.86c6.36,4,12.82,7.87,19,12.14,1.08.74,1.56,3.16,1.41,4.72-.26,2.58-1.26,5.09-2.08,8.11-5.75-4.05-11.76-7.05-16-11.68-2.6-2.88-2.62-8.09-3.71-12.33A.87.87,0,0,1,657.1,336.41Zm63.16,11.4L731.48,370l-8,4.82-17.12-18.75ZM689,305.61c-11.77,7.07-22.89,13.81-34.11,20.37-.7.41-2.4-.38-3.38-1-11.38-7.4-22.7-14.89-34.57-22.7,11.73-7.13,23-14,34.35-20.8a3.39,3.39,0,0,1,3,0C665.75,289.34,677.15,297.34,689,305.61Zm-40.63-36.79c2.19,1.05,4,2.95,5.5,4.15-14.63,8.61-29.09,16.95-43.3,25.7-1.8,1.1-3.5,4.5-3.2,6.52,2,13.64,4.65,27.18,7,40.77,1.07,6.17,2,12.37,3,18.56.28,1.74-1.37.92-3.43-.46-2.18-1.77-7.83-4.37-8.11-6.05-3.12-18.93-4-26.62-7.15-47.71A111.53,111.53,0,0,0,595,295c13.25-7.82,32.63-18.85,47.24-27.13C643.66,267.09,646.53,267.94,648.35,268.82Zm-51.12,84.94-63-40.72c-9.63-6.24-19.33-12.39-28.82-18.85-1.35-.92-2.76-3.66-2.35-5,3-9.72,6.56-19.27,9.82-28.92,1.24-3.68,2.2-7.47,3.55-12.12,7.1,4.54,13.7,8.71,20.25,13,16.25,10.52,32.28,21.4,48.83,31.43,5.38,3.26,4.17,8.1,4.91,12.18,2.72,15,4.62,30.14,6.8,45.23A34,34,0,0,1,597.23,353.76ZM538,187.62c4-2.28,6.41-1.28,8.88,1.7,8.62,10.42,17,21,26,31.18,2.76,3.12,6.94,5,10.57,7.34,16,10.23,52.41,32.72,55.56,34.25-15.25,9-29.41,17.3-43.47,25.74-2.5,1.5-4.21,1.28-6.65-.33-22.12-14.64-44.41-29-66.53-43.68A104.6,104.6,0,0,1,510.25,234c-7-6.34-13.83-12.89-20.89-19.5C505.89,205.42,522.06,196.73,538,187.62ZM344.19,292.55c14-7.76,28-15.42,41.88-23.29,3.16-1.79,5.47-1.33,8.32.65,8.38,5.85,17,11.39,26,17.39-5.51,3.13-10.75,6.12-16,9.09-16.22,9.17-32.43,18.36-48.7,27.44-1,.58-2.95.86-3.79.29-9.49-6.43-18.84-13.06-28.58-19.87C330.32,300.32,337.24,296.41,344.19,292.55ZM341.8,358c7,1.58,13.88,3.94,20.9,4.55,14.72,1.27,23.13,13.14,34.78,19.48a27.2,27.2,0,0,1,2.42,1.74c-3.25,6.3-6.57,12.69-9.83,19.11-1.34,2.62-3.95,5.29,1.35,7.12,1.06.37,1.78,4.8,1.05,6.76-2.78,7.44,1.18,11.47,6.55,15.18,16.23,11.23,32.42,22.54,48.65,33.78,18.3,12.66,36.7,25.18,54.92,38,22.78,16,45.4,32.2,68.12,48.28a8.33,8.33,0,0,0,3.79,1.68c6,.52,12,.28,17.9,1.29,11.38,2,19.6-4.19,28.25-9.75,22-14.13,44.1-28.1,66.11-42.21,9.67-6.19,19.37-12.35,28.74-19a10.34,10.34,0,0,0,3.68-7.15c.54-17,.43-17-13.2-26.06-15.84-10.51-31.77-20.9-47.62-31.39-39.3-26-78.54-52.11-118-77.92-3.24-2.12-8-3.69-11.62-3.1-10.54,1.71-18-3.56-25.69-9.13-4.5-3.27-9.1-6.41-13.83-9.33-2.56-1.59-18-12.18-21.95-13.43-.92-.29-1.82-2-2-3.14-.65-4.42-1-8.89-1.46-13.48,8.77,0,21.17,1.38,24.52,2.17,3.2.73,5,2.08,7.24,3.52q29.64,19.06,59.17,38.32a56.2,56.2,0,0,1,11.66,9.74c-2.24.16-4.5.21-6.71.53-1.41.2-.22,1.84.88,2.57,15.85,10.47,31.93,20.61,47.79,31.07,13.17,8.7,26,17.86,39.21,26.57,24.36,16.12,48.84,32.06,73.29,48.05,5.06,3.32,10.2,6.54,15.29,9.83,2.2,1.42,5.41,3.78,4.64,7.11-1.33,5.69,2.36,14.83-7.23,20.7a900.72,900.72,0,0,1-117.14,75.8c-6.64,2.54-28.16,1.47-34.24.7-4.74-.59-9.35-4-13.53-6.89-7.7-5.3-14.94-11.27-22.58-16.66-11.56-8.17-23.38-16-34.95-24.14-24.06-17-44.54-30.22-68.54-47.27-12.59-8.94-45.32-30.76-45.5-29-4.54,5.83-8.37.84-11.95-1.64-17.7-12.26-35.23-24.77-52.76-37.27-6-4.28-11.8-8.79-17.35-12.93ZM474,468.19l17.53-9c16.17-9.94,32.3-20,48.54-29.79,17-10.3,34.2-20.39,51.28-30.62,1.71-1,3.24-2.36,4.85-3.56,2.88-3.13,5.54-3.88,9.62-1.14,22.12,14.89,44.45,29.47,66.73,44.1,10.65,7,21.41,13.8,32,20.89a7.48,7.48,0,0,1,2.6,4.61c.52,3,2.06,8.21.54,9.55-7.74,5.3-15.92,11.1-24.29,16.61q-18,11.81-36.2,23.26c-14.71,9.24-29.38,18.55-44.44,27.19-3.27,1.87-6.2,1.18-12.23,1.39a32.56,32.56,0,0,1-21.41-6.52c-23.66-16.9-47.7-33.27-71.54-49.92C489.78,479.77,482.15,474.09,474,468.19ZM277.37,377c11.69,4.2,26.61,13.84,39.21,23C324,405.12,331,410,338,415c13.48,9.54,27,19.06,40.29,28.81,7.54,6.15,8.92,8,5.88,17-2.32,7.15-7,15.53-8.66,19.28-6.53-6.28-12.75-12.39-19.12-18.35-6.91-6.44-13.63-13.16-21-19-12-9.48-24.43-18.36-36.7-27.46-3.86-2.87-8.87-6.41-12.46-9.48-5.71-4.87-7.06-8.33-8-14.66-.58-3.94-1.11-7.89-1.85-13.3A.74.74,0,0,1,277.37,377Zm17.5,220.59c-1.82-10.76-7.38-52.7-9.38-63.44-2.71-14.62-4-28.21-6.79-42.82a40.17,40.17,0,0,0-2.47-9.1c11.14-6.62,26.81-16.09,38.68-23.08,4-2.35,8.15-4.44,12.16-6.77,6.11-3.55,9-3.24,13.72,1.93a41.2,41.2,0,0,1,3.17,4.8c-9.11-1.17-14.65,5.15-21.28,8.79-9.56,5.24-18.91,10.85-28.32,16.37-5.24,3.08-6.1,6.8-4.7,13.35,2.36,11,4,22.19,6.21,33.26,2.11,10.7,3.64,21.62,7.08,31.89,1.77,5.28,7.09,9.41,10.95,13.93,7.87,9.2,15.84,18.32,23.72,27.42-.21.5-.25,1-.48,1.12-6.16,3.56-7.46,6.8-5.79,14.07.8,3.47,1.37,7,2.3,11.83-7.71-5.91-14.43-11.1-21.18-16.24q-9.12-7-18.26-13.88A7.31,7.31,0,0,0,294.87,597.59Zm43.56-81.79c-1.58.89-4.77.87-6.15-.16-9-6.64-17.72-13.56-26.31-20.67-2.07-1.72-3.22-4.53-4.76-6.77,11.83-7,23.77-14.26,35.85-21.22,1.62-.93,4.74-1.47,5.93-.56,10.91,8.25,21.54,16.86,32.23,25.38.39.31,2,1.34,1.21,1.85C363.53,501.22,351.08,508.68,338.43,515.8Zm15,54.21c-.23.7-6.62,21.07-9.75,31.2-7-7.91-13.61-15.32-20.15-22.81-3.56-4.08-6.78-8.47-10.51-12.37a21.82,21.82,0,0,1-6.37-13.26c-1.31-10.46-4-20.74-5.9-31.14-1.45-7.84-2.58-15.74-4-24.64,9.14,6.72,57.26,42.6,61.12,45.66C362.12,546.06,356.2,562.15,353.4,570Zm-56.58,41.42c21.95,17,43.72,34.13,65.6,51.17,4.11,3.2,8.53,6,12.5,9.37,1.81,1.53,5,4,4.27,6-.64,1.82-1.07,3-1.6,3.47C326.05,641.29,272.31,600.07,220.2,559.5c7.18-1.41,8.31.22,12.39,3.24C252.84,577.7,276.89,596,296.82,611.43ZM169.21,391.91l61.91-34.21,23.69,28.4c4.85,5.37,48.89,41.06,72.66,58.18-17.1,10.09-33.83,20.09-50.76,29.75-1.59.91-5,.49-6.53-.65-14.71-10.68-29.22-21.61-43.74-32.54-6.61-5-12.63-11-19.75-15C191.66,417.26,182.73,402.45,169.21,391.91Zm37,140.93c-5.25-4.09-10.79-7.84-15.78-12.22a15.48,15.48,0,0,1-4.43-7.39c-1.5-5.7-2-11.66-3.37-17.4a31.34,31.34,0,0,1,.86-17.44c5.28-16.78,9.89-33.77,14.7-50.48,15.32,11.33,30.52,22.5,45.64,33.77,7.94,5.91,16.12,11.57,23.41,18.21,2.65,2.41,3.52,7.23,4.31,11.13,1.6,7.91,2.58,15.94,3.81,23.92,1.7,11,3.45,22,5.09,33,1,6.63,4.67,34,6.7,47.7q-14.78-11.22-29.48-22.52C240.41,559.81,223.35,546.26,206.19,532.84Zm7.19,45.74c.55-5.4,1-8.62,1.66-15.34,31.68,24.52,156.33,121.65,156.48,121.69,7.67,5.7,4.67,8.78,4.07,13.88-1.56,13.08-4.3,23.9-1.59,37.14a13.45,13.45,0,0,0,1.33,4.06,3.5,3.5,0,0,0,2.48,1.64,3.35,3.35,0,0,0,2.45-1.67c.71-1.61,1.6-3.56,1.27-5.14-2.82-13.72,1.09-24.79,2.71-39.44,6.72,4.82,13.06,9.16,19.18,13.79q24.32,18.39,48.47,37,20.55,15.76,41,31.63c.82.64,2.66,1.59,3,2.55,7.4,19.2,13.79,36.17,20.92,55.47,4.07,11,2.63,14.09-7.59,19.83-1.87,1.05-3.56,2.42-5.5,3.75-3.86-2.92-8.15-5.63-11.73-9.08a16.23,16.23,0,0,1-4.67-8.14c-1.95-10.83-9.23-17.19-17.38-23.4-15.59-11.92-30.83-24.31-46.22-36.49-5.22-4.13-10-9.1-15.85-12.07-4.58-2.33-10.41-2.26-15.7-3.1-9.76-1.56-19.6-2.68-29.27-4.66-3.29-.68-6.4-3.07-9.19-5.21-10.3-7.86-20.44-15.95-30.62-24-.39-.31-1.94-1.39-1.24-1.86,7-4.36,13.8-8.82,20.83-12.91,6.81-4,8.39-12.54,2.4-18-6.66-6-13.91-11.44-21-17.06-3.52-2.81-7.06-5.58-10.75-8.16a73.93,73.93,0,0,0-6.79-4.36c-2.3,4-7.24,12.06-8.11,14.17,0,0-8.12-5.64-13.2-10,0,0,.55-2.87,1.81-7.87.45-9.42-3.77-17-13.07-22.9s-17.26-13.26-25.84-20c-3.3-2.57-4.58-1.41-5.33,2.43a9.38,9.38,0,0,1-3.63,5.71c-7,4.28-14.28,8.16-21.59,11.92-1.38.71-3.94,1-5,.15-5.46-4.14-10.6-8.7-15.93-13.18C200.65,622.48,211.08,601.4,213.38,578.58ZM183.71,731.64c-7.9-7-16.59-13.16-24.77-19.87a44.7,44.7,0,0,1-6.16-6.07c4.43-4.53,13.93-7.7,20.54-2.2,3.61,3.77,6.68,3.61,11,1.29,16.12-8.69,25.59-13.85,41.85-22.28,7.38-3.83,8.89-6.29,12.63-3.3L296,725c-3.21.63-5.8,1.27-8.43,1.64-7.83,1.09-15.68,2-23.51,3.11-8.37,1.16-16.71,2.46-25.07,3.66-6.95,1-13.89,2-20.85,2.9-4.12.52-7.93.92-13.81,1.84C195.12,739.56,190.28,737.47,183.71,731.64ZM480.58,856.93c-18.78-15.47-38-30.35-56.81-45.85-8.76-7.23-18.29-11.34-29.64-12.18-7.85-.59-15.57-2.78-23.42-3.55S358,789,352.45,784.65c-6.94-5.43-13.78-11-20.16-16.1-4.48-3.13-7.5-7-15.62-6.56-9.17.48-82.93,5.55-88.15,5.68-3.34.09-7.73-3-11.24-6.43a142.28,142.28,0,0,1-15.72-16.68c11.59-1.61,23.26-3.3,34.94-4.85,12-1.59,23.91-3.25,35.9-4.48,11.39-1.17,22.67-5.51,34.24-2.65,5.36,1.36,23.44,14.13,32.14,20.87,4.57,3.54,8.93,7.34,13.36,11.06,6.09,5.11,13.84,4.43,20.94,5.81,9.52,1.85,19.24,2.66,28.7,4.72,3.43.74,6.54,3.54,9.49,5.82q22.43,17.32,44.67,34.9c6.67,5.26,13.36,10.5,19.66,16.16a13.3,13.3,0,0,1,3.61,7.29c1.55,9.27,7.18,15.43,14.4,20.66,3,2.17,8.19,3.41,6.62,8.38-1.12,3.52-4.21,6.41-6.42,9.58-.88,1.12-1.45,1.26-2.23-.71-1.25-3.29-2.18-6.76-3.85-9.82C485.71,863.62,483.7,859.51,480.58,856.93ZM414,994.09c-8-7.75-17-14.49-25.63-21.66l-15.77-13.1c11.71-6.27,17.05-8.84,26,.39,2.93,3,5.27,3.17,9,1.53C418.68,956.42,424.8,954.6,436,950c15.82-6.54,31.57-13.27,47.41-19.77,7.9-3.23,16-5.94,23.9-9.21,7-2.53,11.7-2.57,24.09,7.62,13.73,11.31,38.11,29.44,61.34,47.58-9.6,1.57-18,3-26.41,4.3q-19.69,3.07-39.39,6c-11,1.67-22,3.29-33,5-7.62,1.18-15.22,2.51-22.85,3.67-11.54,1.76-19.57,3-34.57,5.39C426.86,1002.14,420.67,1000.47,414,994.09Zm45,47.5c-7.62-12.75-15.27-24.72-27.49-34.23,2.7-.16,7.5-.76,10.15-1.21,16.8-2.82,31.5-5.21,48.31-8,18.6-3.06,37.2-6,55.85-8.76,16.91-2.46,33.85-4.85,50.85-6.43,10,1.17,34.75,4.5,46.13,5.48,4.38.49,6,.57,8.15,4.31,4.38,7.56,9.52,14.68,14.85,22.75Zm216.29-25.44a1.65,1.65,0,0,1-3.1.77c-.31-.58-.62-1.14-.92-1.65a162.47,162.47,0,0,1-10-18.59c-1.75-3.8-3.22-7.74-4.82-11.61a1.09,1.09,0,0,1,1.67-1.28c5.07,4,10.21,7.81,15.18,11.89a5.5,5.5,0,0,1,1.92,3.59C675.41,1004.89,675.35,1010.52,675.33,1016.15Zm2.78-25-31.47-24.72c4.48-3.55,8.62-6.93,12.87-10.17,3.72-2.84,3-5.3-.3-7.82-2.08-1.6-4.07-3.31-5.83-4.75l12.81-12.79,43.92,35.78Zm52.39,102.18c-8.68-7.07-18-13.52-25.62-21.64-4.75-5.1-7.16-12.58-9.92-19.29-3.71-9-6.9-18.29-10-27.56-.82-2.44-.8-5.16-1.11-8.72a.44.44,0,0,1,.81-.29c4.58,6.82,8.25,12.79,12.48,18.37,5.62,7.41,16.1,14.48,18.27,21.77,3.64,6.52,7.11,13.63,9.9,18.44,4.18,7.2,12.1,19.47,12.1,23.28A32.22,32.22,0,0,1,730.5,1093.31Zm243,75.6c-1.16,10-2,20.07-3,30.81-5.69-4.34-11.46-8.23-16.5-12.9-1.78-1.65-1.93-5.19-2.54-7.93-1-4.37-1.58-8.83-2.63-13.18a6.64,6.64,0,0,0-2.43-3.44c-10.62-7.91-21.47-15.5-31.95-23.59-6.65-5.15-12.71-7-22.27-8.81-11-2-44.37-5-47.71-5.23-16.79-1.16-50.6-4.79-61.38-2.53-11.06.51-18.92-2.25-30.18-10.87-5.2-4-8.68-7.66-9.64-14.49-.77-5.52-3.5-11.47-6.35-16.59C732.4,1072,727.5,1064,722.75,1056c.37-.23,37.78,2.79,37.78,2.79s14,.73,20.82,1.2c4.61.31,36.85,2.59,51.86,3.6a59.62,59.62,0,0,1,6.69.44h0l2.62.21c1.63.12,9.85.28,13.93,2.15,15.14,11.46,29.84,22.72,44.78,33.67a7.29,7.29,0,0,0,6.65.16c3.61-2.36,5.66-1.71,8.85,1,7,5.94,14.13,11.84,22,16.44,8.12,4.76,8.32,12.62,10.64,20a23.22,23.22,0,0,0,5.53,9.4,69.55,69.55,0,0,0,12.88,9.72C972.65,1159.67,974.12,1163.49,973.5,1168.91Zm-15.22-27.49c-2.71-2.7-4.32-7.66-4.38-11.62-.11-7.22-3.76-11.3-9.08-15.17-9.16-6.67-18-13.81-27.53-21.21,4.81-3,8.62-1.74,12.26,1q17.58,13.42,35.14,26.87c5.86,4.49,11.79,8.91,17.33,13.77,1.35,1.17,2.1,6.77,2.13,7.06.55,7.06-2.56,10.28-8.31,12.75C970.15,1150.67,963.58,1146.68,958.28,1141.42Zm98.71,79.74c-1.13,10.95-2.44,21.88-3.65,32.61-19.93-2.06-33.7-14.7-48.06-26.33-8.54-6.91-17.27-13.59-25.75-20.57a11.64,11.64,0,0,1-3.36-5.29c-.12-1.47-.41-5.59,0-5.93,10.09,7.19,20.15,14.4,30.29,21.5a5.51,5.51,0,0,0,3.79,1.11c.7-.14,3.5-.88,3.69-2a21.93,21.93,0,0,0,.14-6.82c-.48-3.81-4.58-7.48-7.78-10.4-9.21-8.43-17.7-16.45-27.14-24.63.33-.42.28-7.77.61-8.18l12.78,10c11.35,8.86,22.23,18.44,34.21,26.35,7.59,5,16.59,8.3,25.4,10.86C1057.3,1214.89,1057.37,1217.5,1057,1221.16Zm89,31.22c-1.15,6-3.49,21.93-5.16,32.15-28.28-9.66-64.82-23.13-64.31-26.77.39-2.85,2.51-7.06-2.42-8.86-4.35-1.6-8.66-3.31-12.78-4.89v-14c3.74,1.28,6.81,2.76,10,3.31,2.73.47,7.48.8,8.11-.44,1.7-3.36,3.4-8.52,6.41-7.48l49.12,17c2.53.87,5.4,1.4,7.45,2.74C1145,1246.77,1146.58,1249.8,1146,1252.38Zm83.42-86.25c-.24,2.37-1.93,4.78-6.15,7.15h0c-.43.41-36.14,15.58-48.75,20.75-2.51,1-6.3,4.37-6,6,1.42,7.34-3.78,11.68-6.56,17-3.82,7.26-8.28,14.2-12.7,21.12-.62,1-2.85,1.9-3.87,1.54-26.31-9.25-52.56-18.67-79.47-28.3-3.71-1.35-16.25-6.18-24.41-8.3-11.71-3-19.62-12.39-29-19.2-10.63-7.72-20.67-16.24-31.53-24.87,9.25-3.42,8.28-11.51,9-18.9,1.06-11.32,1.89-22.67,3.32-34,.63-5,4.15-6,8.47-3.25,2.26,1.45,4.35,3.19,6.7,4.46,2.93,1.59,5.34,1.37,5.72-2.73.73-7.9,2.13-15.82,1.87-23.69-.12-3.39-3.2-7.13-5.83-9.85-2.94-3-6.87-5.13-10.41-7.57-2.91-2-3.54-4.77-3.27-8.1.49-6.14.73-12.31,1.17-18.46.09-1.17.81-9.55,2.19-11.55l78.24-25.35c-1.29,3.91-1.77,7.51-3.54,10.31-6.19,9.79-1.2,16.94,4.39,24.73,11,15.31,21.33,31.07,32,46.62,7,10.21,13.65,20.73,21.31,30.43,4.8,6.06,4.56,12.32,3.87,19-.55,5.37-1.62,10.69-2,16.07-1.23,15.72-2.17,31.47-3.4,47.19-.38,4.82-1.59,9.58-1.84,14.4a6.77,6.77,0,0,0,2.59,4.69c1.21.71,7.73,5.72,8.93-1,1.24-7,5.47-10.75,10.66-14.36a4.62,4.62,0,0,0,1.64-3.11c.84-11,1.49-22.08,2.28-33.11.67-9.21,1.44-18.41,2.2-27.62.36-4.37-.26-7.91-1.45-10,16,0,34.61-.86,49.48-.86l27-1.32C1231.35,1137.36,1230.86,1151.79,1229.41,1166.13Zm-2.25-49.33c-13.37.26-26.75.12-40.13.12h-33.56c-4.25-6.65-8.62-13.82-13.33-20.76-12.2-18-24.55-35.85-36.85-53.76-4.67-6.8-9.46-13.52-14-20.4-.91-1.37-1.74-3.6-1.25-4.94,2.2-6,4.9-11.85,7.74-18.5,6.85,4.27,13.12,8.28,19.49,12.13,18.58,11.22,37.34,22.15,55.71,33.71,4.36,2.74,6.32,7,10.17,10.63,1.77,1.67,4.26,4.64,8.39,5.33,11.32,1.89,24.46,2.46,35,6.37,10.27,3.8,19,8.5,24,19.28,1.62,3.53,4.33,6.55,7,10.4-6.56,6-12.88,12.29-19.73,17.9C1233.61,1116.06,1230.08,1116.75,1227.16,1116.8Zm11.66,9.72c.37-6.31,5.78-11.78,10.76-16.43,12.78-12,26.39-23,39.64-34.52,7.48-6.48,14.89-13,23.42-20.54-1.46,16.67-2.82,32.22-4.12,47.08-5.48-.36-8.37-2.22-15,3.32-5.41,4.49-10,8.47-11.83,12.68a28.38,28.38,0,0,0-1.68,13.23c.25,2.13-3,5.13-5.25,7-6.09,5-12.5,9.66-18.75,14.42-6.63,4.13-15.41,9.76-19,12.93C1237,1154.57,1238,1140.68,1238.82,1126.52Zm54.34,30.93c-4.34-4.49-7.87-8.57-13-14.39,3.5-2.07,6.07-4.32,8.87-6.2,5.38-3.62,5.52-.37,12.08,6.42,4.09,4.23,7.31,9.34,10.43,14.36a20.06,20.06,0,0,1,2.8,8.52c.47,5.41-2.09,7.69-7.73,8-2.32.12-4.63.42-7.51.7C1299.36,1168.46,1299.34,1163.85,1293.16,1157.45Zm-1.56,16.93c-15.36-2.68-24.45-5.19-33.63-14.12,4-3.18,8.4-6.3,12.39-9.85,2.41-2.15,4-1.79,5.91.36,4.89,5.37,10.11,10.46,14.67,16.08C1292.13,1168.31,1291.4,1171.31,1291.6,1174.38Zm-29,8.08c-1.88,7.21-3.75,14.43-5.81,22.32-3.57-2.63-4.5-3.5-10.25-7.39-4.31-2.92-5.76-5.47-4.55-10.4,1.53-6.24.9-10.55,5.88-13.94s8.39.33,12.47,2S1263.31,1179.54,1262.55,1182.46ZM1303.9,1206c-3.22,9.71-7.87,9.15-12.62,9.67-4.4.48-14-3.85-14.42-4.1-5-2.82-2.79-13.29-2.27-15.91.8-4,1.91-8,3-12.53l32.85,2.73C1308.29,1192.58,1306.13,1199.31,1303.9,1206Zm5.59,8.16c2.23-7.06,4.2-13.17,6.07-19.31,2-6.39,4.26-12.46,11.86-14.12C1323,1204.78,1325.26,1205.84,1309.49,1214.18Zm20.24-48.49c-2.91,3.1-8,6-8-3.1,0-3.75-3.65-8.83-5.34-11-5-6.53-12.33-15.14-17.84-22,4.59-6,4.82-6.14,10.22-.11,2.73,3,13.54,17.34,16.08,20C1329.73,1154.5,1330.51,1159.64,1329.73,1165.69Zm4.55-15c-3.36-4.5-6.61-9.09-10.1-13.49-3.69-4.64-7.42-9.28-11.47-13.61-5.25-5.62-5.4-5.71.28-11.22.76-.74,1.57-1.42,2.59-2.34C1328,1120.79,1336,1133.25,1334.28,1150.64Zm10.9-85.33c-.57-.09-25.33,20.38-29.38,23.83,1-12.87,1.94-25.1,3.17-37.3a10.07,10.07,0,0,1,3-5.52c3.28-3.27,6.94-6.15,11.43-10,9.33-8.09,14-11.39,20.61-17.75C1350.4,1033.41,1347.26,1052.79,1345.18,1065.31Zm4-52.08c-1.13,1.33-2.91,2.09-4.83,3.42-3.24-4.47-6.1-9.51-10-13.58-11.62-12.18-9.23-26.75-7.87-41.27.82-8.63,1.56-17.26,2.17-25.91a4.57,4.57,0,0,0-1.37-3.42c-9-7.1-7.73-18.16-10.45-27.56-3.18-11-5.32-22.28-7.93-33.44q-4.89-20.88-9.77-41.77a4.11,4.11,0,0,1,.24-1.53c3.26-.56,6.42-1.27,9.62-1.61,6-.62,10.2.36,14.21,6.54,15,23.18,31.23,45.62,47,68.34,1.94,2.81,3.62,5.87,5.91,8.35,3.39,3.67,2.92,7.88,2.08,12-3.38,16.47-7.11,32.87-10.56,49.33-1.76,8.42-3.22,16.9-4.75,25.37C1361.36,1004.59,1353.8,1007.74,1349.13,1013.23Zm9.1,23.74c4.32-16,8.38-31,12.71-47l21.39,28.5Zm-695-544.89,24.75-15.75-16-10.64c-8.62,7.1-15.9,11.25-24.28,16.06Zm-50,4.4c1.06.72,2.92,1.84,3.52,1.44,7.15-4.79,14.13-9.83,21.44-15-21.55-14.65-46.84-32.28-68.2-46.81-.27.31-24.52,13.38-24.75,13.84,4.77,3,10.93,7.59,15.58,10.75C578.28,472.58,595.71,484.57,613.19,496.48Zm-28,16.4c7.32-3.69,14.24-8.16,21.77-12.55.79-.37-1.33-1.64-2.06-2.14q-16.51-11.07-33.16-21.95c-13.37-8.75-23.62-16.15-31.58-22.24-5.14-4.52-7.92-5.34-13.8-1.61-10.28,6.53-20.67,12.89-31.16,19.41a11.38,11.38,0,0,0,1.75,1.91c10,6.91,20.23,13.59,30.06,20.77,3.18,2.32,5.33,2.08,8.08-.11,3.51-2.8,6.49-2.93,10.53.25,7.86,6.21,16.5,11.42,24.75,17.14A13.9,13.9,0,0,0,585.2,512.88Zm23.38-6.42c-7.88,5.19-16.07,9.89-23.87,14.62,3.76,2.75,8.45,6.35,13.36,9.62a4.87,4.87,0,0,0,4.26-.1c8.58-5.11,17-10.43,25.93-15.94-4.09-2.86-8-5.32-11.63-8.21C613.74,504.13,611.61,504.46,608.58,506.46Zm29.87-31c1.26.86,3.36,1.69,4.56,1.22,7.65-4.44,14.39-7.87,22.64-14.75-3.57-2.54-13.61-10.23-17.41-12.57-4-2.49-16-10.06-16.6-10.53-1.74-1.46-.73-2.93,1.15-4.66a44.29,44.29,0,0,1,3.92-2.95,9.17,9.17,0,0,0-1.44-1.71c-10.4-7-20.78-14.05-31.28-20.89a4.92,4.92,0,0,0-4.27-.09c-10.51,6-20.9,12.12-32.26,18.77,3.47,2.26,6,3.85,8.47,5.53Q607.17,454.19,638.45,475.49Zm524.71,305.84c-3.4-4.93-4.29-5.72-7.15-2.16a3.17,3.17,0,0,1-4.25.65c-4.56-3.09-8.92-6.13-13.47-8.85-1.5-.9-4.47-1.39-5.57-.53-3.56,2.75-8.91,7.06-12.49,9.75-6.09,4.57-10,8-16.2,12.48a5.3,5.3,0,0,0-1.54,4.57c1.34,4.89,3.59,9.55,4.78,14.46.81,3.31.86,6.2-3.81,8.39-3,.57,3.09,8,4,9.37,6.28,9,13.09,17.67,18.31,27.23,4.41,8.08,10.47,10.69,19.14,13.77,1.83.66,13.74,6.7,18.6,2.38,7.55-6.71,15.59-12.86,23.22-19.48a8.18,8.18,0,0,0,2.19-5.14c.58-7.43,1-14.87,1.09-22.32,0-2.76-.36-6-1.82-8.21C1180.08,805.43,1171.52,793.44,1163.16,781.33Zm14.09,72.86q-7.51,6.15-15.32,12a5.76,5.76,0,0,1-4.18,1.14c-4.84-1.2-8.09-2.47-14.38-4.19-5-1-8.23-3.73-10.93-7.88-6.93-10.64-14.12-21.1-21.38-31.89,7.61-4,2.06-18,.83-20.69-2.17-4.75.21-6.65,3.81-9,5.08-3.35,9.55-7.61,14.48-11.22,7.27-5.32,7.48-5.17,14.6.37,2.25,1.76,4.53,3.8,7.15,4.69a7.27,7.27,0,0,0,7.35-1.46c7.42,10.79,15.76,23.46,23.68,35.18.63.93.54,2.43.56,3.67,0,5.31-.56,10.71.17,15.92C1184.57,847,1181.44,850.77,1177.25,854.19Zm-143.18-38.78c-5-2.78-9.44-6.49-14-9.94-9.34-7-12.29-7.32-21.7-.79-4.72,3.28-5.57,4.44-10.19,7.88-5,3.72-5.25,9.19-.22,12.8,6.55,4.69,13.16,9.29,19.88,13.73a16.21,16.21,0,0,0,2.91,1.48,10.23,10.23,0,0,0,8.47-.3,16.21,16.21,0,0,0,2.29-1.35c5.4-3.85,7-5.61,12.61-9A8.28,8.28,0,0,0,1034.07,815.41ZM799.54,981.89c-3.61-3.6-9.86-3.91-11-.93-1.21.3-1.7,4.51-2,7s.15,5.14-.11,7.67c-.86,8.23,3.1,14,9.19,18.8,4.94,3.89,9.86,7.8,14.91,11.54a14.27,14.27,0,0,0,2.83,1.53,5.3,5.3,0,0,0,4.91-.32c2.09-1.3,3.52-2.65,3.68-6.33.38-8.29,1.31-19.1-3.82-23.52C815.67,995,803.88,986,799.54,981.89ZM231.07,432c3.79,3.52,8.24,6.34,12.54,9.27a38.21,38.21,0,0,0,5.06,2.6,3.8,3.8,0,0,0,3.31-.05c3-1.48,5.88-2.89,8.68-4.52,5.26-3.07,10.51-6.19,15.51-9.65,1.17-.81,2.52-2.61.77-4.72-.53-.64-6.18-4.79-10.31-7.77-8-5.77-14.51-4.68-21-1-4.66,2.6-15.13,9-15.66,9.47C227.21,427.91,229.23,430.28,231.07,432ZM545.79,250.57a136,136,0,0,0,14.84,9.63c1.93,1.12,5,2.56,6.46,1.81a218.39,218.39,0,0,0,22.6-12.93c2.46-1.62-9.66-9.1-13.39-11.53-4.93-3.22-10-4.4-15.55-.68-3.85,2.59-14.57,7.67-15.27,8.12C543.55,246.23,544.31,249.44,545.79,250.57ZM1127.23,718c6.69,4.51,13.1,9.56,20.25,13.15,3.36,1.68,8.83,1.86,12.16.26,5.55-2.67,10.33-7.09,15.1-11.17,6.82-5.82,6.34-9.68-1.37-14.8-4.92-3.27-9.79-6.65-14.84-9.71a41.19,41.19,0,0,0-4.65-2.33,12.36,12.36,0,0,0-9.12-.47,6.49,6.49,0,0,0-1.62.82c-5.53,4-10.75,8.43-16.18,12.57C1121.75,710.29,1121.76,714.33,1127.23,718Z"/></g><g id="Thrusters"><path d="M1010.57,814.38c-7.4,0-13.4,3.39-13.4,7.57s6,7.57,13.4,7.57S1024,826.13,1024,822,1018,814.38,1010.57,814.38ZM1151.31,704.5c-7.4,0-13.4,3.39-13.4,7.57s6,7.56,13.4,7.56,13.4-3.38,13.4-7.56S1158.71,704.5,1151.31,704.5ZM252.88,423.3c-4.92,0-8.92,2.25-8.92,5s4,5,8.92,5,8.92-2.25,8.92-5S257.81,423.3,252.88,423.3ZM567.3,243.12c-4.93,0-8.92,2.26-8.92,5s4,5,8.92,5,8.92-2.26,8.92-5S572.23,243.12,567.3,243.12Z" fill="#007aff"/></g></g></svg>