<svg xmlns="http://www.w3.org/2000/svg" viewBox="0 0 1500 1500"><title>Type 10 Defender</title><g id="Type_10_Defender" data-name="Type 10 Defender"><g id="Colour"><path d="M1403.23,804.27c-5.45-7.59-11.26-14.92-16.89-22.39q-11.88-15.78-23.74-31.59c6.19-4.55,8.38-14.45,4.51-19.46-9.27-12-18.68-23.82-27.93-35.79-2-2.53-4.52-5.21-5-8.12a57.44,57.44,0,0,1-.25-15.39c.9-8.86-1.84-16.81-5.41-24.51-12.49-26.89-25.3-53.63-37.76-80.53q-19.9-43-39.31-86.18c-3.24-7.25-8-13.48-7.35-22.95.69-9.67-3.23-19.68-5.2-29.52-4.62-23-9.37-46-13.84-69.08-.63-3.29-.92-7.27.36-10.16,1.91-4.29,1.73-9.65-2.16-12.37-26.5-18.49-52.88-37.15-79.56-55.37-13.55-9.25-22.45-19-37.82-25.56-1.3-.54-22.43,7.08-25.94,8.9-6,3.13-12.55,4.95-18.29,9.11-11.32,8.22-23.23,15.63-35,23.14a8.5,8.5,0,0,1-6.09,1c-7.5-2-12.13-.2-15.57,6.66-3.53,7-7,14-10.51,21-16.7-5.22-32.86-10.44-49.17-15.2a15.67,15.67,0,0,0-9.64.57,130.59,130.59,0,0,0-16.52,8.66C907,326.21,894.7,333,883.2,340.87c-23.38,16.08-46.28,32.87-69.44,49.29-.83.59-2.75.89-3.36.38-5.4-4.49-12.09-7.26-15.2-14.64-2.75-6.51-6.48-13.23-11.53-18-7.13-6.71-15.94-11.61-23.93-17.42-10.62-7.7-21-15.8-31.78-23.21-6.45-4.42-20.91-16.68-33.53-11.23-5.43,2.34-10.15,6.13-15.45,8.73a7.33,7.33,0,0,1-6.05-.11c-4.95-3-9.53-6.6-14.19-9.92,7.7-14.28,15.18-28.17,22.63-42,9.39,3.71,12.24,3.11,15.32-5.83,3.41-9.93,5.49-20.35,7.78-30.64.44-2-.12-5.17-1.48-6.45-18.55-17.46-37.36-34.63-56-52-8-7.45-15.66-15.33-23.9-22.52-2.49-2.18-6.53-4-9.68-3.73-10.91.86-21.78,2.51-32.59,4.33-1.86.31-4.21,2.65-4.83,4.55a223,223,0,0,0-6.51,23.78c-.87,4.19-4.86,8.63-.35,13.12.16.15-.55,1.2-.89,1.81-10.62,19.17-21.16,38.38-31.93,57.46-2.19,3.88-4.53,8.25-8,10.73-24.07,17.27-48.5,34-72.72,51.1q-45.16,31.78-90.19,63.78c-15.67,11.12-31.19,22.47-46.89,33.57-6.27,4.44-12.4,9.49-19.37,12.46-9,3.83-18.75,5.8-28.15,8.67q-35.69,10.9-71.33,21.93a9.5,9.5,0,0,1-9.28-1.59c-7.15-5.23-15.57-7.09-24.2-7.73-3.91-.29-7,1.73-6,6.25,1.56,6.58,3.52,13.08,5.7,19.47,1,2.8,2.27,6.1,4.48,7.74,10.71,8,21.51,15.9,32.78,23.05,26.06,16.52,52.46,32.52,78.61,48.91,5,3.14,9.71,2.66,14.15-.25,4-2.61,3.31-7.21,2.44-11-.62-2.71-.27-3.49,2.26-4.15,4.83-1.25,33.94-10.75,35-10s2.89,3,2.76,4.68c-.07.95-8.75,18-9.25,19.16-2.58,6.08-5.29,11.48-8.3,17.86-5.68-4.09-11.07-7.46-16.44-11-1.67-1.1-5.34-2.24-5.76-1.66a43.14,43.14,0,0,0-6.29,11.35c-1.09,3.25-.38,6.51,3.69,8.57s7.81,5.43,12,8.45c-3.54,2.82-6.71,5.16-9.68,7.73-4.53,3.92-9.5,7.54-13.23,12.15a118.56,118.56,0,0,0-11.52,18A26,26,0,0,0,270.26,626c-.42,11.9-.68,23.86,0,35.73.46,7.61,2.73,15.11,4.27,22.65a3.9,3.9,0,0,0,1.39,2.2c5,3.49,10.05,6.9,15.12,10.28,15,10,30,19.9,45.26,30-1.44,1.33-2.18,2.14-3.05,2.79-8.21,6.12-16.59,12-24.63,18.37-10.63,8.38-21,17.09-31.48,25.68-6.41,5.26-10,9.36-10.41,20.35,0,.86,0,1.82,0,2.74,0,11.55-.13,23.1.07,34.65.08,5.09.18,9.27.19,15.83-6.17-4.32-9.5-7.45-14.73-10-2.92-1.41-7.75-1.71-10.37-.18-3.5,2-8.63,5.22-3.9,11.16,2.93,3.67-.05,5.94-2.72,7.95-5.31,4-10.62,8-16,11.83-8.28,5.86-31,24.54-32.89,26.14-4.55,3.9-24.23,26-27.1,29.8-1.42,1.9-2.39,6-1.31,7.52,2.67,3.7-21.72,12.27,4.71,31.81,4.35,3.22,11.44,5.12,9.75,13.2-.14.65,1.15,1.81,2,2.42q37.34,26.49,74.75,52.88c4.14,2.92,7.63,2.12,10.65-2,3.69-5,7.37-10.09,10.69-14.64,3.8.25,7,.61,10.24.65,30,.41,60.05.7,90.08,1.15,15.33.23,30.66.68,46,1.09,11.85.31,23.69.89,35.54,1,5.84.06,12.12,1.73,16.8-3.3,11,7.53,21.52,15,32.33,22.1s22.18,13.67,33.09,20.77c8.57,5.58,16.81,11.67,25.26,17.45,33.34,22.8,66.53,45.83,100.23,68.09,5.91,3.9,13.94,5.91,21.12,6.25,9.44.46,19-1.64,28.51-2.57,4.69-.45,9.41-1.13,14.08-1,4.5.17,8.9-1.24,13.55,2,14.22,10,29,19.26,43.61,28.65,4,2.59,8.13,5.48,13.48,4.32,6.44-1.39,12.54.4,17.67,3.79,13.49,8.89,26.61,18.33,39.82,27.63,5.1,3.6,11,3.88,15.61-.3,7.83-7.14,15.92-13.72,25.63-18.29,2.23-1,4-4.23,4.85-6.8,1.92-6.13,3.07-12.5,4.61-18.76,1.39-5.63,5.8-7.39,10.72-4.45,4.32,2.57,8.57,5.29,13.08,7.46,2.44,1.18,5.49,2.21,8,1.82a25.51,25.51,0,0,1,17.84,3.54c11.92,7.68,23.24,16.3,34.79,24.54,9.08,6.48,12.58,7.61,22.12.77,7.33-5.26,14.53-10.71,22-15.76,3.64-2.46,6-5.07,6.87-9.69,2.06-11,4.75-21.65,16.87-26.71,3.63-1.53,3.24-5.51.66-8.77-4.09-5.18-8-10.48-12.7-16.62,7.24-1,13.58-1.9,19.92-2.73a3.64,3.64,0,0,1,2.15.27c7.6,4.19,15.16,8.45,22.72,12.7,1.88,1.05,3.61,2.62,5.62,3.1a7.5,7.5,0,0,0,5.46-.78c4.26-3,8.19-6.52,12.25-9.82,5.09-4.14,10.22-7.91,17.49-6.74,1.63.27,3.78-.81,5.27-1.86,10.56-7.46,21.1-15,31.44-22.74,2.42-1.82,3.83-1.88,6,.1,7,6.32,15.34,8.32,24.57,7,2.46-.34,5.44.14,7.3-1.09,8.34-5.48,17.26-10.16,21.77-20.19,5.07-11.24,12.58-21.37,12.24-34.65a17.38,17.38,0,0,1,6.41-14.17,227.41,227.41,0,0,0,19.89-19.75c7.92-8.69,15.8-17.48,22.89-26.84,6.36-8.38,5.87-8.74-1.45-16.4a4,4,0,0,1-.49-.9l10.15-26.65c10.14,7.12,20.55,13.47,29.81,21.19s15.78,5.49,23.51-1.52c5-4.56,10.44-9.18,16.52-12,6.45-3,10.13-7.12,11.1-13.73,1.55-10.48,4.67-19.58,15.43-24.4,3.26-1.46,4.5-5.29,1.89-8.77-5.08-6.77-10.38-13.37-15.51-20.11-5.4-7.1-10.7-14.27-16.27-21.72,5.57-3.6,10.5-7.23,15.84-10.1,4.94-2.65,9.27-5.1,10-11.56.49-4.57,2.46-9,3.31-13.53,1-5.49,3.76-8.69,9.3-10.42C1405.78,814.66,1407.13,809.69,1403.23,804.27Z" fill="#999"/><path d="M1403.23,804.27c-5.45-7.59-11.26-14.92-16.89-22.39q-11.88-15.78-23.74-31.59c6.19-4.55,8.38-14.45,4.51-19.46-9.27-12-18.68-23.82-27.93-35.79-2-2.53-4.52-5.21-5-8.12a57.44,57.44,0,0,1-.25-15.39c.9-8.86-1.84-16.81-5.41-24.51-12.49-26.89-25.3-53.63-37.76-80.53q-19.9-43-39.31-86.18c-3.24-7.25-8-13.48-7.35-22.95.69-9.67-3.23-19.68-5.2-29.52-4.62-23-9.37-46-13.84-69.08-.63-3.29-.92-7.27.36-10.16,1.91-4.29,1.73-9.65-2.16-12.37-26.5-18.49-52.88-37.15-79.56-55.37-13.55-9.25-22.45-19-37.82-25.56-1.3-.54-22.43,7.08-25.94,8.9-6,3.13-12.55,4.95-18.29,9.11-11.32,8.22-23.23,15.63-35,23.14a8.5,8.5,0,0,1-6.09,1c-7.5-2-12.13-.2-15.57,6.66-3.53,7-7,14-10.51,21-16.7-5.22-32.86-10.44-49.17-15.2a15.67,15.67,0,0,0-9.64.57,130.59,130.59,0,0,0-16.52,8.66C907,326.21,894.7,333,883.2,340.87c-23.38,16.08-46.28,32.87-69.44,49.29-.83.59-2.75.89-3.36.38-5.4-4.49-12.09-7.26-15.2-14.64-2.75-6.51-6.48-13.23-11.53-18-7.13-6.71-15.94-11.61-23.93-17.42-10.62-7.7-21-15.8-31.78-23.21-6.45-4.42-20.91-16.68-33.53-11.23-5.43,2.34-10.15,6.13-15.45,8.73a7.33,7.33,0,0,1-6.05-.11c-4.95-3-9.53-6.6-14.19-9.92,7.7-14.28,15.18-28.17,22.63-42,9.39,3.71,12.24,3.11,15.32-5.83,3.41-9.93,5.49-20.35,7.78-30.64.44-2-.12-5.17-1.48-6.45-18.55-17.46-37.36-34.63-56-52-8-7.45-15.66-15.33-23.9-22.52-2.49-2.18-6.53-4-9.68-3.73-10.91.86-21.78,2.51-32.59,4.33-1.86.31-4.21,2.65-4.83,4.55a223,223,0,0,0-6.51,23.78c-.87,4.19-4.86,8.63-.35,13.12.16.15-.55,1.2-.89,1.81-10.62,19.17-21.16,38.38-31.93,57.46-2.19,3.88-4.53,8.25-8,10.73-24.07,17.27-48.5,34-72.72,51.1q-45.16,31.78-90.19,63.78c-15.67,11.12-31.19,22.47-46.89,33.57-6.27,4.44-12.4,9.49-19.37,12.46-9,3.83-18.75,5.8-28.15,8.67q-35.69,10.9-71.33,21.93a9.5,9.5,0,0,1-9.28-1.59c-7.15-5.23-15.57-7.09-24.2-7.73-3.91-.29-7,1.73-6,6.25,1.56,6.58,3.52,13.08,5.7,19.47,1,2.8,2.27,6.1,4.48,7.74,10.71,8,21.51,15.9,32.78,23.05,26.06,16.52,52.46,32.52,78.61,48.91,5,3.14,9.71,2.66,14.15-.25,4-2.61,3.31-7.21,2.44-11-.62-2.71-.27-3.49,2.26-4.15,4.83-1.25,33.94-10.75,35-10s2.89,3,2.76,4.68c-.07.95-8.75,18-9.25,19.16-2.58,6.08-5.29,11.48-8.3,17.86-5.68-4.09-11.07-7.46-16.44-11-1.67-1.1-5.34-2.24-5.76-1.66a43.14,43.14,0,0,0-6.29,11.35c-1.09,3.25-.38,6.51,3.69,8.57s7.81,5.43,12,8.45c-3.54,2.82-6.71,5.16-9.68,7.73-4.53,3.92-9.5,7.54-13.23,12.15a118.56,118.56,0,0,0-11.52,18A26,26,0,0,0,270.26,626c-.42,11.9-.68,23.86,0,35.73.46,7.61,2.73,15.11,4.27,22.65a3.9,3.9,0,0,0,1.39,2.2c5,3.49,10.05,6.9,15.12,10.28,15,10,30,19.9,45.26,30-1.44,1.33-2.18,2.14-3.05,2.79-8.21,6.12-16.59,12-24.63,18.37-10.63,8.38-21,17.09-31.48,25.68-6.41,5.26-10,9.36-10.41,20.35,0,.86,0,1.82,0,2.74,0,11.55-.13,23.1.07,34.65.08,5.09.18,9.27.19,15.83-6.17-4.32-9.5-7.45-14.73-10-2.92-1.41-7.75-1.71-10.37-.18-3.5,2-8.63,5.22-3.9,11.16,2.93,3.67-.05,5.94-2.72,7.95-5.31,4-10.62,8-16,11.83-8.28,5.86-31,24.54-32.89,26.14-4.55,3.9-24.23,26-27.1,29.8-1.42,1.9-2.39,6-1.31,7.52,2.67,3.7-21.72,12.27,4.71,31.81,4.35,3.22,11.44,5.12,9.75,13.2-.14.65,1.15,1.81,2,2.42q37.34,26.49,74.75,52.88c4.14,2.92,7.63,2.12,10.65-2,3.69-5,7.37-10.09,10.69-14.64,3.8.25,7,.61,10.24.65,30,.41,60.05.7,90.08,1.15,15.33.23,30.66.68,46,1.09,11.85.31,23.69.89,35.54,1,5.84.06,12.12,1.73,16.8-3.3,11,7.53,21.52,15,32.33,22.1s22.18,13.67,33.09,20.77c8.57,5.58,16.81,11.67,25.26,17.45,33.34,22.8,66.53,45.83,100.23,68.09,5.91,3.9,13.94,5.91,21.12,6.25,9.44.46,19-1.64,28.51-2.57,4.69-.45,9.41-1.13,14.08-1,4.5.17,8.9-1.24,13.55,2,14.22,10,29,19.26,43.61,28.65,4,2.59,8.13,5.48,13.48,4.32,6.44-1.39,12.54.4,17.67,3.79,13.49,8.89,26.61,18.33,39.82,27.63,5.1,3.6,11,3.88,15.61-.3,7.83-7.14,15.92-13.72,25.63-18.29,2.23-1,4-4.23,4.85-6.8,1.92-6.13,3.07-12.5,4.61-18.76,1.39-5.63,5.8-7.39,10.72-4.45,4.32,2.57,8.57,5.29,13.08,7.46,2.44,1.18,5.49,2.21,8,1.82a25.51,25.51,0,0,1,17.84,3.54c11.92,7.68,23.24,16.3,34.79,24.54,9.08,6.48,12.58,7.61,22.12.77,7.33-5.26,14.53-10.71,22-15.76,3.64-2.46,6-5.07,6.87-9.69,2.06-11,4.75-21.65,16.87-26.71,3.63-1.53,3.24-5.51.66-8.77-4.09-5.18-8-10.48-12.7-16.62,7.24-1,13.58-1.9,19.92-2.73a3.64,3.64,0,0,1,2.15.27c7.6,4.19,15.16,8.45,22.72,12.7,1.88,1.05,3.61,2.62,5.62,3.1a7.5,7.5,0,0,0,5.46-.78c4.26-3,8.19-6.52,12.25-9.82,5.09-4.14,10.22-7.91,17.49-6.74,1.63.27,3.78-.81,5.27-1.86,10.56-7.46,21.1-15,31.44-22.74,2.42-1.82,3.83-1.88,6,.1,7,6.32,15.34,8.32,24.57,7,2.46-.34,5.44.14,7.3-1.09,8.34-5.48,17.26-10.16,21.77-20.19,5.07-11.24,12.58-21.37,12.24-34.65a17.38,17.38,0,0,1,6.41-14.17,227.41,227.41,0,0,0,19.89-19.75c7.92-8.69,15.8-17.48,22.89-26.84,6.36-8.38,5.87-8.74-1.45-16.4a4,4,0,0,1-.49-.9l10.15-26.65c10.14,7.12,20.55,13.47,29.81,21.19s15.78,5.49,23.51-1.52c5-4.56,10.44-9.18,16.52-12,6.45-3,10.13-7.12,11.1-13.73,1.55-10.48,4.67-19.58,15.43-24.4,3.26-1.46,4.5-5.29,1.89-8.77-5.08-6.77-10.38-13.37-15.51-20.11-5.4-7.1-10.7-14.27-16.27-21.72,5.57-3.6,10.5-7.23,15.84-10.1,4.94-2.65,9.27-5.1,10-11.56.49-4.57,2.46-9,3.31-13.53,1-5.49,3.76-8.69,9.3-10.42C1405.78,814.66,1407.13,809.69,1403.23,804.27Z" fill="none" stroke="#000" stroke-linejoin="round" stroke-width="8"/></g><g id="Grey"><path d="M570.74,958.25c1.52-9.38,2.83-18.75,4.59-28.08.65-3.44-2.82-6.81-4.91-8.61-5.75-4.92-86.26-61.19-99.71-70.69-29.14,25.07-64.55,55.12-93.94,80.41,10.38,7.32,19.7,15.82,29.2,22.59,16.81,12,31.66,25,48.8,36.44,5,3.36,14.4,9.19,25.45,7.34,17.25-1.82,103.18-15.47,109.83-16.5,0-.54,3.76-4.84,3.74-5.38-3.61-1.81-9.25-6.9-12.92-8.56C576,965,570.13,962,570.74,958.25Zm-17.53,2.69c-5.81,5.41-11.86,10.56-18,15.65-1,.81-2.68.73-4.69,1.21a35.28,35.28,0,0,1-5.42-2.32c-3.63-2.28-7.12-4.79-10.6-7.3-4.54-3.28-4.91-6.83-.55-10.71,5.22-4.65,10.93-8.75,16.28-13.26,4.06-3.42,7.94-2.52,11.84,0,3.45,2.24,6.83,4.57,10.18,6.95S556.34,958,553.21,960.94Zm60.2-51.07c12.34,1.38,37.23,4.34,38.09,4.63,9.18-8.14,33.33-29.84,42.57-38-3.3-2.39-108.74-88.46-132.9-89.55-10-.61-18.17.92-30,11.75-12.34,9.78-34.17,29.92-39,34.17,3.93,3.3,67.2,49.34,87.12,62.74C593.1,905.83,601.55,908.55,613.41,909.87Zm483.86-311.16c7.56-5,35.76-23.29,42.92-23.92,1.47-5-11.13-39.72-14.77-43.09-18.55-17.14-96.84-68.55-101.9-71.59-1.75-1.05-50.31,26.25-60.31,32.05,1.28,4.1,1.7,8.12,3.69,11.09S1092.73,597.89,1097.27,598.71Zm240.17,293.7c3.14,3.89,17.7,19.69,20.67,23.38,2.67-2.18,10.42-6.21,12.94-8.27C1352,879.21,1346.36,885.92,1337.44,892.41Zm-336,233.18c3.33,4.34,18.05,23.88,20.63,27.25,2.88-2.11,7.38-5.52,10.17-7.57-2.55-3.62-16.79-23.16-19.66-27.22C1009.61,1120.12,1004.48,1123.46,1001.43,1125.59Zm360.8-342.08c-3.07,2.41-7.58,5.43-10.22,7.5,2.88,3.74,16.22,20.36,19,24,2.85-2,7-5.39,10.16-7.6C1378,803.47,1365.15,787.12,1362.23,783.51ZM875.76,1128.93c-2,1.45-15.09,6.9-14.44,8.23,8.27,16.91,19.7,36.85,34,18.83-2-2.85-5.18-10.56-7.42-13C886.19,1139.85,876.6,1128.33,875.76,1128.93Zm332.78-184.26c-2.79-6.75-13.22-13.28-18.09-15.13-2.36-.9-18.72,6.09-19.12,9.63,2.46,3.81,5.08,8.91,7.34,12.36,3.94,6,4,5.33-1.75,9.32s-10.07,7.52-15.53,11.86c-4,3.17-5,1.72-7.61-2.2s-6.66-8.54-8.86-11.91c-13.27,4.93-23.09,17.44-27.13,29.7-1.27,3.84-7.56,17.47-8.81,21.7,7.06,3.3,30.18,14.36,34.35,17.31,2.9,2,5.77.07,8-1.87,10.14-8.85,20.7-16.47,30.92-25.24a86.9,86.9,0,0,1,25.33-15.61c3.45-1.44,6.83-2.09,6.59-6.21C1213.33,964.21,1212.31,953.75,1208.54,944.67ZM714.89,1062.33c-5.33,0-113.15,21.4-111.56,23.34,3.11,3.77,40.67,27.77,46.67,30.66s95.33-10.22,97.11-12.43S720.22,1062.33,714.89,1062.33ZM923,1013.23c-4.17-2.93-37-11.37-36-9.08,3.5,8,79.33,101.18,81.5,101.18s18.5-11.16,18-15.68S927.17,1016.17,923,1013.23Zm417.5-172.61c-.5-2-69-95-71.17-98.72s-5.25-6-6-3.43c-.65,2.31-2.67,35,0,40.7s57,76.66,59.49,75S1341,842.67,1340.5,840.62ZM1082.33,678.88c-2.66-5.13-6.33-11.55-14.11-15.82,0,0-166.55-119.06-170.55-122.17s-55.34-16.56-68.34-18.06-10.33,4.5-8.66,6.57,268.5,188.27,277,194.43,7.83-1,7.16-2.5S1085,684,1082.33,678.88Zm199.89-51.32c2,0,10.78-31.34,10.45-35.44s-18.31-39.77-19-38.9c-1.34,1.67-8.56,30.34-9.11,34.55s-1,9,.66,12.12S1280.22,627.56,1282.22,627.56ZM1146.83,401.79c-6.66-4.71-8-6.67-11.83-5.12-2.5,1-93.5,49.5-93.65,51.1s90,64.06,97.24,67.27,6.74,5.79,12.24,6.13,26.17-.84,35.31-1.34,4.19-.16,12.21,4.84,19.48,13.66,22.65,11.83,13.17-72,11.67-75.33S1153.5,406.5,1146.83,401.79ZM908.44,856.33C905.33,853,631,658.28,626.72,660.33c-5.61,2.73,19.28,51.11,22.61,52.67S825.78,839.44,834,843.22s56.44,13.78,63.11,16.89S911.56,859.67,908.44,856.33Z" fill="#666"/></g><g id="Paint"><path d="M825.78,916.87,809.31,908l-100.45,9.46-30.1-21.38-8.41-1.94L612.22,888,505.54,814.69,485,832.45l105.69,72.22,63.25,12.16L697,945.42l91.34,3.21,16.89-7.36,49,32.9,5.24,13,15.67,12.5,55.63,13.59-54.58-56.06Zm143.77,108.8,38.7,50.45-3.21,7.11,19.86,26.36,37.35-10.3L1024.9,1047Zm80.56-26.13-13.84-23.13-15.17-24.88-9.82,32.88L1021,998l30.27,11.44,27.27,10.89,39.21,52.92,9.41-8.15L1088,1013.23Zm174.4-116.75-13.73-18.88v58.34l39.93,54.16,7.36-2.24-33.38-47.11Zm24-67.75c-.35,2.48,0,42,0,42l41.3,56.52,5.73-16.51,2.25-24.2Zm-59-172.34-4.19-39.12L1146.38,574l-23.12-46.62L1019,458.2l-15.34,10,103,80,11.13,38.5,29.23,18,2.33,60.41,68.51,53.09L1261.54,785l-4.87-18.78,6.69-38.94-16-25.48-49.69-32Zm-75.11,257.41,1-13.06-47.06-55.78-59.09-42.21-42.9-32.34L791.93,654.19l-3.59,2.71-24.85,24.56,72.27,83.91,23.69-31.58,21.75,15.85-16.14,24,4.52,7.78L975.33,856l23.74,8.3,64,63.65,41.35,82.85,18.49-36.63,21.23-18.37,13.31,18.37,8.37-7.78-15.6-22.83Zm-8-92.21,9.22-47.81-108.94-78.63-39.37,8.15L947.35,674l25-9.17L859.45,610.07l-22.77,14.3-18.33,7,158.51,98.81,100.05,83.55,55,66.25,37.74,56.32,15.81-9.34,21,7.19-62.53-62.8ZM587.92,722.13,553.68,656.9l-31.53-24.82h-56L353,513.72l-9.86,5.49-19.58,44.63,239,173.33Zm290-218.94,44.34-1-51.74-38.07L653.15,325.22,610.82,351.8,795.5,480.6Zm267.22,16.51,47.58.47,31.68,21.6V522.83l-26-19.64-44.2-1L936.58,346.08l-4.08,20.11,18,13.74ZM409,756l-34.51-25.17,3,49.56ZM926.82,390.16s-4.25-6.13-4.32-4.57-42.59-1.24-42.59-1.24c6.64,3,28,18.66,28,18.66ZM574,924.74l-212.42-154-37.44,7.59,17.54,11.32,29.76,19.36L548.42,938.11l-8.6,34.65,17.32,15.18,41.42-7.25-27.82-22.44Z" fill="#991107"/></g><g id="Canopy"><polygon points="1233.02 1028.93 1200.76 993.17 1175.11 1007.15 1160.93 1022.26 1170.47 1030.15 1179.09 1046.95 1176.7 1062.18 1160.93 1078.68 1179.09 1097.56 1207.58 1092.78 1234.43 1052.1 1233.02 1028.93" fill="#82b3d1"/></g><g id="Detail"><path d="M1106,547c-5-13.21-17.32-15.86-28-11.26-8.28,3.57-14.64,14.39-4.66,20.94a39.25,39.25,0,0,0,7.57,3.66,21.57,21.57,0,0,0,10.85,1.2,57.94,57.94,0,0,0,7.39-1.41C1105.93,558.16,1108.38,553.45,1106,547Z" fill="#85d4d4"/></g><g id="Shadows" opacity="0.2"><path d="M151.15,950.55l63.11,47.84,58.66,1.82-103.15-80Zm233.29-58h7.34l1.54-15.12-67.1-29Zm53.79,28.43,23.62,21,35.62-3.86L511.1,927l-42.25-27.57ZM393.32,657.57l-34.67-3.36-70.18-50.49-12.39,6.76-4.33,24.09,4.2,52,64.68,41.49,36.14-24.65,51,1.95-13-30.23ZM285.64,541.77l8.62-5.64L283.68,522,197.5,469.29l-7.13-22-27.8-7.2L167.84,470Zm409-293.07,9.58-26.51-90.86-80.56L580.8,146l-12.4,31.52-9.89,29.3L686.28,248.7ZM614.46,354l.2-.14C614.52,353.9,614.47,354,614.46,354Zm0,0L406.39,495.8,639.17,371.58S614.39,355.61,614.46,354Zm566.47,654.48-23.11-10.13-24.32-13.8-65.12-55.72-36.15,18.48-14.68-4-24.63,4-41-50.68-3.44,21.39L909,928.87l-4.57,7v2.25l34.33,44.58L1084,1083.23h13.2l27.39-15.53,37.34,19.57,33.95,16.63,17.45-8.7,4.53-28-4.53-24.67ZM806.31,943.66l-14.38,5-14.08,10.23,4.19,5.35,87.31,119v12l42.56,57.64-4,7.66-36.22,21.09L819,1118.05l-92.2-102.58-59.36-41.3L574,1055l47.06,63,58.09,29.4,60.14-4.42,107.06,59.09,66-41.62,16.8,9.8,43.83,8.28,44.53-5.79L855.11,976.41Zm256.56,179,33.84,14.74,19.55-27.78-23.47-22.32ZM1176.7,738.47l-14.88,25.12,64,88.3v23.9l7.18,23.59,45.1,68.71,23.45-22.47,55.22-13.34L1186.14,738.47Zm194.35,102.15-57.69-70.41-11.79,5.35L1348,835.71Zm-317.4,0,47.14,62.49,56.65,71.06,8.37-7.78-3.89-19-31-50.68-62.71-77.84L969.55,745,795.8,642.7l-13,18.85,150,92.75ZM875.86,757.56l-10.65,20.66,99.92,70.19,9.18-9.7H997.9l.79-2.68L885.51,751.17Zm298.75-293.82-41.81-30.9-28.75,14.93L1148,478Zm-110.51-64-69.31-28.13v7.74l58.86,39.25Z" fill="#111"/></g><g id="Outline"><path d="M1403.23,804.27c-5.45-7.59-11.26-14.92-16.89-22.39q-11.88-15.78-23.74-31.59c6.19-4.55,8.38-14.45,4.51-19.46-9.27-12-18.68-23.82-27.93-35.79-2-2.53-4.52-5.21-5-8.12a57.44,57.44,0,0,1-.25-15.39c.9-8.86-1.84-16.81-5.41-24.51-12.49-26.89-25.3-53.63-37.76-80.53q-19.9-43-39.31-86.18c-3.24-7.25-8-13.48-7.35-22.95.69-9.67-3.23-19.68-5.2-29.52-4.62-23-9.37-46-13.84-69.08-.63-3.29-.92-7.27.36-10.16,1.91-4.29,1.73-9.65-2.16-12.37-26.5-18.49-52.88-37.15-79.56-55.37-13.55-9.25-22.45-19-37.82-25.56-1.3-.54-22.43,7.08-25.94,8.9-6,3.13-12.55,4.95-18.29,9.11-11.32,8.22-23.23,15.63-35,23.14a8.5,8.5,0,0,1-6.09,1c-7.5-2-12.13-.2-15.57,6.66-3.53,7-7,14-10.51,21-16.7-5.22-32.86-10.44-49.17-15.2a15.67,15.67,0,0,0-9.64.57,130.59,130.59,0,0,0-16.52,8.66C907,326.21,894.7,333,883.2,340.87c-23.38,16.08-46.28,32.87-69.44,49.29-.83.59-2.75.89-3.36.38-5.4-4.49-12.09-7.26-15.2-14.64-2.75-6.51-6.48-13.23-11.53-18-7.13-6.71-15.94-11.61-23.93-17.42-10.62-7.7-21-15.8-31.78-23.21-6.45-4.42-21.33-17.5-33.53-11.23-5.26,2.7-10.15,6.13-15.45,8.73a7.33,7.33,0,0,1-6.05-.11c-4.95-3-9.53-6.6-14.19-9.92,7.7-14.28,15.18-28.17,22.63-42,9.39,3.71,12.24,3.11,15.32-5.83,3.41-9.93,5.49-20.35,7.78-30.64.44-2-.12-5.17-1.48-6.45-18.55-17.46-37.36-34.63-56-52-8-7.45-15.66-15.33-23.9-22.52-2.49-2.18-6.53-4-9.68-3.73-10.91.86-21.78,2.51-32.59,4.33-1.86.31-4.21,2.65-4.83,4.55a223,223,0,0,0-6.51,23.78c-.87,4.19-4.86,8.63-.35,13.12.16.15-.55,1.2-.89,1.81-10.62,19.17-21.16,38.38-31.93,57.46-2.19,3.88-4.53,8.25-8,10.73-24.07,17.27-48.5,34-72.72,51.1q-45.16,31.78-90.19,63.78c-15.67,11.12-31.19,22.47-46.89,33.57-6.27,4.44-12.4,9.49-19.37,12.46-9,3.83-18.75,5.8-28.15,8.67q-35.69,10.9-71.33,21.93a9.5,9.5,0,0,1-9.28-1.59c-7.15-5.23-15.57-7.09-24.2-7.73-3.91-.29-7,1.73-6,6.25,1.56,6.58,3.52,13.08,5.7,19.47,1,2.8,2.27,6.1,4.48,7.74,10.71,8,21.51,15.9,32.78,23.05,26.06,16.52,52.46,32.52,78.61,48.91,5,3.14,9.71,2.66,14.15-.25,4-2.61,3.31-7.21,2.44-11-.62-2.71-.27-3.49,2.26-4.15,4.83-1.25,29.55-9,34.41-10.11,1.08-.25,3.8,3.78,3.3,5-2.59,6.08-14.76,31-17.77,37.42-5.68-4.09-10.82-8-16.19-11.51-1.67-1.1-5.34-2.24-5.76-1.66a43.14,43.14,0,0,0-6.29,11.35c-1.09,3.25-.38,6.51,3.69,8.57s7.81,5.43,12,8.45c-3.54,2.82-6.71,5.16-9.68,7.73-4.53,3.92-9.5,7.54-13.23,12.15a118.56,118.56,0,0,0-11.52,18A26,26,0,0,0,270.26,626c-.42,11.9-.68,23.86,0,35.73.46,7.61,2.73,15.11,4.27,22.65a3.9,3.9,0,0,0,1.39,2.2c5,3.49,10.05,6.9,15.12,10.28,15,10,30,19.9,45.26,30-1.44,1.33-2.18,2.14-3.05,2.79-8.21,6.12-16.59,12-24.63,18.37-10.63,8.38-21,17.09-31.48,25.68-6.41,5.26-9.62,8.7-10.41,20.35-.06.85,0,1.82,0,2.74,0,11.55-.13,23.1.07,34.65.08,5.09.83,10.17,1.4,16.68-6.17-4.31-10.71-8.3-15.94-10.84-2.92-1.41-7.75-1.71-10.37-.18-3.5,2-8.63,5.22-3.9,11.16,2.93,3.67-.05,5.94-2.72,7.95-5.31,4-10.62,8-16,11.83-8.28,5.86-31,24.54-32.89,26.14-4.55,3.9-24.23,26-27.1,29.8-1.42,1.9-2.39,6-1.31,7.52,2.67,3.7-22.82,12.82,4.71,31.81,4.45,3.08,11.44,5.12,9.75,13.2-.14.65,1.15,1.81,2,2.42q37.34,26.49,74.75,52.88c4.14,2.92,7.63,2.12,10.65-2,3.69-5,7.37-10.09,10.69-14.64,3.8.25,7,.61,10.24.65,30,.41,60.05.7,90.08,1.15,15.33.23,30.66.68,46,1.09,11.85.31,23.69.89,35.54,1,5.84.06,12.12,1.73,16.8-3.3,11,7.53,21.52,15,32.33,22.1s22.18,13.67,33.09,20.77c8.57,5.58,16.81,11.67,25.26,17.45,33.34,22.8,66.53,45.83,100.23,68.09,5.91,3.9,13.94,5.91,21.12,6.25,9.44.46,19-1.64,28.51-2.57,4.69-.45,9.41-1.13,14.08-1,4.5.17,8.9-1.24,13.55,2,14.22,10,29,19.26,43.61,28.65,4,2.59,8.13,5.48,13.48,4.32,6.44-1.39,12.54.4,17.67,3.79,13.49,8.89,26.61,18.33,39.82,27.63,5.1,3.6,11,3.88,15.61-.3,7.83-7.14,15.92-13.72,25.63-18.29,2.23-1,4-4.23,4.85-6.8,1.92-6.13,3.07-12.5,4.61-18.76,1.39-5.63,5.8-7.39,10.72-4.45,4.32,2.57,8.57,5.29,13.08,7.46,2.44,1.18,5.49,2.21,8,1.82a25.51,25.51,0,0,1,17.84,3.54c11.92,7.68,23.24,16.3,34.79,24.54,9.08,6.48,12.58,7.61,22.12.77,7.33-5.26,14.53-10.71,22-15.76,3.64-2.46,6-5.07,6.87-9.69,2.06-11,4.75-21.65,16.87-26.71,3.63-1.53,3.24-5.51.66-8.77-4.09-5.18-8-10.48-12.7-16.62,7.24-1,13.58-1.9,19.92-2.73a3.64,3.64,0,0,1,2.15.27c7.6,4.19,15.16,8.45,22.72,12.7,1.88,1.05,3.61,2.62,5.62,3.1a7.5,7.5,0,0,0,5.46-.78c4.26-3,8.19-6.52,12.25-9.82,5.09-4.14,10.22-7.91,17.49-6.74,1.63.27,3.78-.81,5.27-1.86,10.56-7.46,21.1-15,31.44-22.74,2.42-1.82,3.83-1.88,6,.1,7,6.32,15.34,8.32,24.57,7,2.46-.34,5.44.14,7.3-1.09,8.34-5.48,17.26-10.16,21.77-20.19,5.07-11.24,12.58-21.37,12.24-34.65a17.38,17.38,0,0,1,6.41-14.17,227.41,227.41,0,0,0,19.89-19.75c7.92-8.69,15.8-17.48,22.89-26.84,6.36-8.38,5.87-8.74-1.45-16.4a4,4,0,0,1-.49-.9l10.15-26.65c10.14,7.12,20.55,13.47,29.81,21.19s15.78,5.49,23.51-1.52c5-4.56,10.44-9.18,16.52-12,6.45-3,10.13-7.12,11.1-13.73,1.55-10.48,4.67-19.58,15.43-24.4,3.26-1.46,4.5-5.29,1.89-8.77-5.08-6.77-10.38-13.37-15.51-20.11-5.4-7.1-10.7-14.27-16.27-21.72,5.57-3.6,10.5-7.23,15.84-10.1,4.94-2.65,9.27-5.1,10-11.56.49-4.57,2.46-9,3.31-13.53,1-5.49,3.76-8.69,9.3-10.42C1405.78,814.66,1407.13,809.69,1403.23,804.27ZM194,482.52c-20.81-12.52-23.78-17.85-26.95-34.69a2.16,2.16,0,0,1,2.47-2.53c11.47,1.93,16.63,4.82,20.08,12.61C191.38,461.86,203.24,488.57,194,482.52ZM1354.1,737.61l-19.55,13.56c-5.75-7-11.54-13.84-17.12-20.86-7.61-9.58-14.86-19.45-22.71-28.82a22.16,22.16,0,0,0-9.27-6.07c-11.13-3.94-22.42-7.44-33.72-10.88-8.47-2.58-13.55-8.64-18-16.07l47.58-28.94Zm-103.48-44.8a.73.73,0,0,1,.79-1.15c11.14,3.57,22.31,7.05,33.37,10.84a13,13,0,0,1,5.42,4.27c12.71,16.06,25.29,32.22,38.31,48.88l-17.12,12.1Q1281,730.25,1250.62,692.81ZM1265,741.9l72.42,99.51-14.93,10.48c-18.75-24.17-37.24-48.22-56-72-3.33-4.22-3.27-8.64-3-13.29C1263.83,758.41,1264.47,750.27,1265,741.9ZM1290,625.35c1.36-6.8,3.36-13.47,5.53-21.77,5.51,11.93,10.08,22.52,15.26,32.81,3.65,7.23,3.22,14.18.38,21.68-6.74-8.59-13.52-16.94-19.88-25.61A10,10,0,0,1,1290,625.35Zm-16.07-69.52c5.49,11.86,10.75,22.82,15.56,34,.79,1.82-.24,4.56-.77,6.8-1.91,8.11-4,16.18-6.35,25.71-3.58-5.44-5.93-10.34-9.49-14.12-7-7.39-7.37-15.52-5-24.69C1270.06,574.73,1271.72,565.79,1273.88,555.83Zm-12-25.9c6.54,6.93,5.35,15.64,3.51,24.43-2.82,13.5-5.8,27-8.39,40.51-.38,2,.55,4.61,1.66,6.46,3.54,5.91,7.44,11.6,11.21,17.37a.43.43,0,0,1-.61.58l-21.85-15.64Q1254.76,566.16,1261.87,529.93Zm16.5,103.43-51.82,31.73-25.12-18.72c4.19-18.81,8.55-38.43,13-58.6Zm-51.16,286.69a21.94,21.94,0,0,0,1.79,6.32c1.71,3.14,3.13,6.38,4,7.7,8.58,12.82,13.83,19.25,22.24,32.18.57.88,1.92,1.84-.06,3.58-9.47,5.44-15.55,9.07-24.65,14.08-4.48,2.46-12-2.18-12.24-7.34-.39-7.06-.66-14.14-1.17-21.2a39,39,0,0,0-2.49-7.77c-2.32-4.79-4.31-7.7-8.21-13.46-3-4.37-7.19-6.3-12.41-8.64-8.85-4-16.23,3.51-22.37,7.52-9.52-14.8-20-32.53-30.8-48-10-14-35-43.49-42-51.67-5.77-6.83-11.8-13.43-17.9-20l-63.07-53.21c3.75-2.34,9.81-6.12,9.93-6.21a150.33,150.33,0,0,1,13.24-8.36c15.2-7.31,14-7.17,25.78,1.36,5.65,4.07,17.35,12.21,18,15.82.39,2-1.78,12.76-1.07,14.72.63,1.75,2.14,3.38,3.25,3,1.47-.45,2.89-3.39,3.16-5a84.3,84.3,0,0,0,1.1-13.57c0-1.52-2.34-5.4-3.58-6.32-6.33-4.7-10.6-8.14-16.69-12.49h0l-.27-.19-1.42-1-.54-.35-11.21-7.89a87.72,87.72,0,0,0-12.23,3.92,121.4,121.4,0,0,0-19.31,11c-.1.06-10.76,7.07-12.3,8.11l-20.9-17.35c5.11-2.32,17.31-9.07,33.64-15.58.25-.11,7.43-2.47,11.53-3.93-18.39-13-38.43-27.14-44.34-31.24,5.89-1.84,12.7-3.25,17,1,2,1.95,76,54.23,99.52,70.83l-8.78,45.82c-3,12.9,33.84,57.6,40.06,67h0c10.74-7.06,31.73-20.16,37.12-24.9,2.22-2,1.55-7.49,1.74-11.41.06-1.25,0-2.51-.09-3.81a1.86,1.86,0,0,1,3.3-1.24c3.59,4.49,7.16,9,10.88,13.37,5.34,6.29,11.2,12.18,16.25,18.69a121.86,121.86,0,0,1,10.7,16.74c1.48,2.74,5.5,13.25,5.59,16.41C1227.35,907,1227,910.14,1227.21,920.05Zm7.08-12.53c5.07,7.53,10,14.8,14.87,22.09q8.22,12.27,16.42,24.59c3.44,5.2,3.41,5.22-2,10-4-6-8-11.89-11.88-17.84-4.81-7.34-9.51-14.76-14.38-22.06C1234,919.35,1232.38,914.14,1234.29,907.52Zm-53.47,136.78c-1.67-1.46-4.17-5.77-5.71-7.64-1.86-2.14-1.43-2.49.9-2.07,11.69,4.31,20.2,6.86,30.19,9.91,1.18.36,2.77,1.34,3.15,2.32a31.85,31.85,0,0,1-3.92,2C1195.4,1052.45,1187.61,1050.24,1180.82,1044.3Zm0,14.16c6,4.62,8.57,8.85,23.33,11.65-2.09,2.57-12.19,6.9-15.44,5.54a41.13,41.13,0,0,1-11-6.6C1175,1066.55,1178.39,1061.49,1180.87,1058.46Zm-11.82-34.19c-4.08-2.13-4.23-4.34-.87-7.25,8.81-7.61,8.86-5.93,12.84,3.61,1,2.47,2.82,5.64,4.53,8.94,1.37,2.64.3,2.91-.54,2.62C1179.56,1029.5,1174.25,1027,1169.05,1024.27Zm14.3-15.53a36.1,36.1,0,0,1,12.1-10.32c3.73-1.89,8.2,3.2,10.58,5.62,3,3,3.84,4.26,5.85,5.93-6.53,4.85-14.73,11-21.06,15.7C1189.25,1022,1185.29,1013.33,1183.35,1008.74Zm-2.95-11.41c-10.22,8.77-20.57,17.38-30.72,26.23-2.22,2-3.51,2.71-6.41.66-4.17-3-24.44-12.54-31.5-15.84,2.07-5.42,6-15.12,7.64-18.82,5.64-12.79,12.47-22.68,25.12-28.86,2.2,3.37,5.46,8,8.1,11.93s5.4,4.44,9.37,1.27c5.47-4.34,11.43-8.06,17.18-12s6-5.24,2-11.27c-2.25-3.45-4.46-6.93-6.92-10.75,1.47-1,4.65-3.67,6.29-4.61,3.34-1.9,6.81-4.62,9.17-3.72,4.87,1.84,5.74,2.66,9.91,6.2,2.92,2.47,3.83,4.78,4.94,6.5,5.3,8.28,6.21,12.34,6.6,22.76.06,1.61.5,7,.64,8.5.45,4.86-1.31,5.68-4.76,7.12C1197.08,986.74,1188.75,990.16,1180.4,997.33Zm-379.91,46.08c.17,2.64,2.48,5.33,4.26,7.66,12.2,16,24.53,32,37.12,48.32-5.68,4.17-11.49,8.6-17.53,12.69-.81.54-3.32-.14-4.11-1.06-9.9-11.48-19.54-23.19-29.41-34.69-8.14-9.48-16.52-18.75-24.76-28.14-8-9.09-15.94-18.21-24.08-27.52l47.18-38c1.57,1.83,2.8,3.35,4.11,4.78,4.92,5.36,6.26,11.55,6.11,18.82C799.11,1018.65,799.7,1031.06,800.49,1043.41Zm6.39-29.53c0-3.39-.34-6.77-.57-10.9,19.8,27,39.36,53.63,58.9,80.27l-17.23,12c-7.5-9.5-14.81-18.65-22-27.89-5.73-7.38-11.39-14.83-16.89-22.39a11.06,11.06,0,0,1-2.11-5.75C806.77,1030.75,807,1022.31,806.88,1013.88Zm-228.2-93.52c-5.53-4.6-27.83-19.56-32.85-23.22-7.33-5.35-37.31-26.47-44.92-31.76-5.09-3.53-20.6-15-24.69-17,3.65-3,6.27-5.58,9.28-7.5,1-.64,3.34-.12,4.54.67,5.38,3.58,10.55,7.48,15.84,11.2,7.49,5.25,15,10.42,22.53,15.68q19.64,13.81,39.2,27.7c6,4.28,11.65,9.33,18.12,12.79a56.26,56.26,0,0,0,17.61,5.58c14.76,2.31,29.68,3.59,44.44,5.87,3.49.54,6.82,3.09,9.88,5.2,11.24,7.74,18.37,12.9,29.52,20.74,1,.71,6.53,4.23,15.47,4.64,9.91.46,11.52,0,21.44,0,4.5,0,11-.3,17.54-.54a1.54,1.54,0,0,1,.33,3.06c-18.11,3.22-38.37,6.78-54.14,9.46-25,4.24-49.9,8.75-74.84,12.69-7.68,1.22-30.76-12.38-31.68-13-7.52-4.66-6.82-5.2-5.08-13.64,1.66-8.08,2.84-16.26,4-24.43A5.54,5.54,0,0,0,578.68,920.36Zm-194-244.46c-3.24-2.13-7.69-2.53-11.66-3.39-6.13-1.31-11.47-2.18-17.66-3.34-.84-.15-1-.71-.82-.95,7.41-11.75,7.29-10.51,21.15-9.16,13.26,1.28,23,8.18,32.88,15.45,2.28,1.68,3.68,5.24,4.38,8.19,1.06,4.51,1.17,9.25,1.78,14.68C404.21,689.8,394.67,682.48,384.65,675.9Zm4.5,14.46-38.26,26.87V677C366.46,679.84,383.42,682,389.15,690.36Zm16.62,11,35.65,23.27L380,775.56a6,6,0,0,1-.93-2.32c-.41-10.18-2.19-37.35-2.29-40.77a8.29,8.29,0,0,1,3.79-7.84c6.92-5.14,12.18-8.62,18.84-14.06A23.14,23.14,0,0,0,405.77,701.39ZM367.28,518.05c-3.52-2.34-7.7-3.49-3.7-5.36,6.73-2,13.41-4.1,20.24-5.67,1.44-.33,3.53,1.31,5.07,2.4,16.7,11.83,33.32,23.78,50,35.61q42.75,30.3,85.55,60.51c4.1-4.93,12.28-11.38,14.31-11.64a3.93,3.93,0,0,1,3.06.6c17.7,12.34,46.09,32.43,64.93,45.6,1.12.79,1.49,2.28,2,3.35,2.23,4.79,31.66,70,33.29,73.22l-10.61,13c-2.94,3.42-8.68,6.48-15.26,1.83-8.19-5.78-16.54-11.4-24.48-17.52-2.88-2.21-9.44-10.69-11.17-14-4.33-8.24-6.93-13.91-11.18-22.19-2.36-4.6-2.81-6.77-5.54-12.94-2.58-5.83-5.08-9.58-8.2-15.14a11,11,0,0,0-3.1-3.45q-19.51-14-39.15-27.85c-13.51-9.47-27.15-18.77-40.69-28.2Q453.17,576.65,433.76,563c-15.29-10.72-28.2-18.67-43.38-29.54C387.79,531.59,368.1,518.46,367.28,518.05Zm8.22,22.76c-8.77,13.05-16.42,27.36-24.61,37.92-.38-.29-8.71-5.94-9.09-6.23,4.68-9.43,15.3-32,20-41.5ZM499,511.35c.1.08,3.11,2.58,3.86,4.62l0,0c3.5,7.15-.12,19.11-5.93,15.16-20.73-14.07-44.78-31.2-64.9-45.31a1.66,1.66,0,0,1,0-2.72c.28-.19,7.06-5,10.22-7.08a6.16,6.16,0,0,1,2.41-1.17,3.48,3.48,0,0,1,3,.71C464.56,487.47,482.21,499.34,499,511.35Zm-47.12-39.6c6.35-4.39,13.43-9.82,19.43-14,1.2-.51,1.43,1.47,1.13,2.39-1.89,7.25-3.79,14.49-5.78,22.07C461.85,478.79,456.53,475.07,451.89,471.75Zm46.51,68.18c2.56,1.82,4.06,2.22,6.47,0,4.6-4.27,9.49-8.22,14.46-12.47,6.15,13.1,12,25.81,18.14,38.41,1,2.1,3.07,3.73,4.75,5.49,2.36,2.47,48,32.92,51.68,35.32,7.37,4.8,14.48,10,21.75,15,8.88,6.06,17.94,11.86,26.67,18.14,2.23,1.61,3.89,4.39,5.1,7,2.1,4.51,3.64,9.29,6.05,15.62-6.94-4.69-12.74-8.47-18.38-12.46-14.51-10.29-28.93-20.71-43.43-31-19.76-14-25.57-18.21-45.41-32.13-2.56-1.8-21.67-8-25.63-10.68-16.42-11-32.37-22.64-48.45-34.11-14.78-10.53-29.44-21.23-44.16-31.84-1.54-1.11-9-5.94-13.86-9a3.22,3.22,0,0,1-.14-5.33c3.26-2.35,6.89-4.82,9.48-6.29,1.13-.64,3.8.51,5.27,1.53Q463.68,515.33,498.4,539.93ZM656.75,396.79c1.59,1.14,9.7,7.92,2.17,9.56-8.94,1.95-12.75-.66-13.89-1.43-14.34-9.77-48.14-33.25-50.73-35.15-.78-.81,8-7.73,8.66-8a5,5,0,0,1,4.12.2C623.67,373.51,640.31,385,656.75,396.79Zm-33.5-48.85c9.32-6.08,28.66-21.2,31.87-19a39.31,39.31,0,0,1,8.8,7.65c-8.4,6.2-19.19,14.45-27.7,20.74ZM658,424.49c3.56,2.51,6,2.28,9-.61,2.53-2.42,5.72-5.41,8-7.54,6.21,11.14,12.87,22.71,18.58,33.48,2.75,5.16,6.28,7.95,11.73,11.33,7.52,4.67,14.89,9.93,22.22,15.12q45.29,32.07,90.52,64.21c.25.17.27.65.52,1.29-8.38-1.64-17.08-2-24.66-5.18s-38.52-27.94-46.09-32.49c-3.22-1.94-61-45.11-68.19-49.76-12-7.77-23.44-16.48-35-25-5.81-4.27-28.37-21.67-33.56-24.4-3.41-1.78-5.67-1-9.9-1.28-1.81-.13-3.94,0-5.34-1-8.21-5.42-16.25-11.11-25.14-17.26,5.13-3.78,9.48-7.25,14.16-10.21.89-.56,3.3.59,4.62,1.5Q623.86,400.51,658,424.49Zm198.22,35.63c-13.71,1.47-33.57,4.07-44.74,5.22-4.63.47-18.48,2.76-23.1,2.84-2.74.05-5.95-1.5-9.62-2.57,10.35-6.8,24.23-15.71,33-21.91,1-.69,1.9-5.1,2.6-8.43a2.14,2.14,0,0,1,3.29-1.34c9.67,6.44,28,17.1,39.16,23.26A1.56,1.56,0,0,1,856.24,460.12Zm6.52,7c4.26-.46,8.13-.34,12.11,2.88,8.17,6.6,17.14,12.21,26.44,18.68-6.72,4.3-12.37,8.81-18.78,11.59-2.76,1.2-9.61-.94-13-2.25-4-1.52-39-11.71-48.07-13.55-5.86-1.19-25-5.61-29.49-8-1.65-.53-1.74-1.26.23-1.56,11.74-1.18,23.48-2.27,35.21-3.57S851,468.44,862.76,467.16Zm-54.24,22c23.63,5.7,50.17,12.68,73.43,19.75,6.52,2,11.9,7.79,17.73,11.94,4.33,3.07,4.92,3.61,9.19,6.77,1.88,1.23.85,2.23-.12,3.5-1.23,1.48-8.18-.38-13.74-1.68-5.93-1.38-12.31-2.88-18.15-4.54-3.11-.88-71.23-11.55-84.89-20.06-6.91-4.62-89.2-62-97.1-68.2-2.8-2.2-4.39-6.05-6.28-9.3-4.27-7.32-8.42-14.7-12.6-22.07a1.33,1.33,0,0,1,1.93-1.74c17.18,12.33,80.77,58.47,95.53,69C784.12,480.11,795.51,486,808.52,489.13ZM939.86,386.69c3.42-2.05,6.24-2.31,9.65.23,23.91,17.8,47.93,35.45,71.89,53.18.29.22.64.52,1,.86a3.4,3.4,0,0,1-.58,5.44c-18.67,11-38.14,21.11-56.52,32.16-3.82,2.3-7,3.08-11.08.06C938.6,467.19,922.65,456.2,906.87,445c-9.78-7-19.44-14.1-29.27-21.24C898.43,411.34,919.18,399.07,939.86,386.69Zm-65,31.31a7.54,7.54,0,0,1-6.56-.41c-9.95-6.94-17.82-12.66-27.2-19.44,4-2.59,7.63-5.14,12.67-8.58,6.4-4.36,12.79-4.76,21.31-4.49,6.32.21,12.24.81,18.56,1.19,7.43.45,11.41.49,18.84,1,.82.05,3.66.05,6.52.13a2,2,0,0,1,1,3.79C912.62,395.57,882.72,413.73,874.85,418Zm203.5,156.9c5.25-1.51,11.77.2,17.26-.45,5.94-.69,9.74-3.16,13.85-6.1,3.18-2.27,4.9-4.81,7.4-8,2.65-3.37,5.23-7.7,9.23-14.24.64-1.06,2.33-.65,2.76.51,2.32,6.28,5.84,17.46,7.55,21.6a1.79,1.79,0,0,1-.76,2.25c-5.2,3-12.39,6.77-15.27,8.3-8.17,4.35-15.82,9.11-24.2,13.07a3.07,3.07,0,0,1-2.57,0c-3.2-2.22-11.55-8.27-16.21-11.63A3,3,0,0,1,1078.35,574.9Zm-5-18.23c-10-6.55-3.62-17.37,4.66-20.94,10.65-4.6,23-2,28,11.26,2.43,6.46,0,11.17-6.82,13.13-3.15.9-3.42.79-7.9,1.49a53.31,53.31,0,0,1-10-1.16A29.66,29.66,0,0,1,1073.32,556.67Zm64.38,22.24c1.42-.72,4.14-.33,5.56.61,9.42,6.23,14.15,8.58,24.82,16.15,5.3,3.76,12.29,7.84,12.53,9a231,231,0,0,1,3.52,23.45c.92,9.14,1.31,18.33,2,28.77l-82.09-58.71C1111.63,593.84,1131.5,582.05,1137.7,578.91Zm43,14.62c-10.53-7.79-21.53-15-31.82-23-3-2.39-4.8-6.79-6.37-10.59-4-9.58-7.13-19.49-11.34-28.95-1.24-2.79-4.76-4.68-7.45-6.7-4-3-25.19-19.44-44.71-32.34-2.54-1.68-5.06-3.43-7.62-5.12-5-3.36-10.2-6.59-15.2-10s-10.23-7.17-15.21-10.94c-3.8-2.89-7.25-4.88-12.58-8.7,2.31-1.35,6.59-3.67,9.84-5.58,15.68,11.24,31.36,22.62,47.18,33.78,11.42,8.06,23.09,15.78,34.55,23.78,7,4.91,13.85,10.14,20.88,15.05a8.39,8.39,0,0,0,4.54,1.11c11.54.09,17.77-.58,29.31-.65,1.59,0,8.49-.19,10-.11,2.63.14,5.8-.11,7.77,1.23,7.72,5.24,15.12,11,22.48,16.71,1.12.87,2.25,3,2,4.18q-10.18,45.85-20.71,91.6a44,44,0,0,1-1.52,4.49c-1.65-13.29-2.84-27-5.38-40.39C1188.71,598.94,1184,596,1180.68,593.53Zm-141-118.69c4.27,2.5,6.81,4.8,20.56,14.28,16.61,10.55,28.09,17.72,36.3,24,5.67,4.34,20.22,13.42,18.84,18.5-1.42,5.26-24.47-14.74-42.9-6.49-4.74,2.12-10.46,8.84-14,13.47-4.24,5.56-4.85,11.29-5,15.85a4.78,4.78,0,0,1-7.59,3.75c-14.17-10.25-45.27-31.53-51.32-36.37-2.75-2.2-11-8.85-13.88-10.91-3.07-2.2-6.51-4.37-8.54-7.4a38.56,38.56,0,0,1-5-10.29c10-5.8,21.4-12.47,31.49-18.25,6.54-3.74,13.06-7.56,19.83-10.83,1.73-.83,4.81-.37,6.56.68C1030.13,467.89,1034.63,471.86,1039.72,474.84ZM966.4,510.7c.88-.43,2.84.78,4,1.62q35.66,25.08,71.22,50.28l45.19,32c1.49,1.08,1.22,2.06-.91,1.72-6.24-.52-10.52-.76-18.73-2.11-17.32-2.87-27.44-12-40.25-20.23-14.79-9.46-28.68-20.34-43-30.53C973,535.65,962,528,950.1,519.61,955.91,516.37,961.05,513.32,966.4,510.7Zm26.16,74.67c7.1,5.08,14,9.77,23.59,10.3,11.86.67,21.71,1.59,33.58,2.77,1.1.11,29.64,2.83,38.9,4a23.14,23.14,0,0,1,11.12,4.42c9.89,6.86,17,12.78,27,19.61,3.49,2.41,45.69,28.14,58.17,38.12a4,4,0,0,1,1,5l-5.83,10.51c-7.22-4.91-10.87-8.13-15.82-11.07-1.43-.84-23.86-17.7-25.15-18.67-5.58-4.16-9.35-3.22-14.57-.19a231.81,231.81,0,0,1-24.64,12.29,10,10,0,0,1-8.27-.71c-21-14.49-41.73-29.3-62.52-44.07q-46.75-33.23-93.5-66.5c-6.16-4.38-12.44-8.61-18.68-12.88-1.71-1.18-.63-4.76,2.38-3.94a18.32,18.32,0,0,1,4.47,2.34C946.81,552.91,969.63,569,992.56,585.37Zm-21,14.64c33.37,23.35,66.92,46.44,100.13,70,3.74,2.65,6.18,7.45,8.55,11.64,7.26,12.87,14.2,25.92,21.24,38.92.14.24,1.57,2.86-.22,1.59L823.62,527.64l.4-1.08c21.82,5.45,43.69,10.73,65.42,16.49,3.61,1,6.78,3.82,10,6.07C923.49,566.05,947.47,583.13,971.59,600ZM1112.38,754.3c-26.15-18.57-94.69-67-98.52-69.63,5-1.24,8.87-2.36,12.81-3.08a6.8,6.8,0,0,1,4.67.69c21,15,41.74,30.15,62.72,45.08,9.35,6.65,19,12.82,28.84,19.39ZM1128.61,769c14.55,19.57,29.12,38.49,42.78,58,2.88,4.13,3.72,10.81,2.95,15.93-.45,3,.41,1.25-4.69,4.56-2.72,1.76-4.79,1.58-8.05.65-12-3.45-19-12.26-25.49-21.87-2.5-3.71-8-11.25-11.64-16.86-4.35-6.75-3.32-12.17-2.08-18.4C1124.44,780.7,1126.23,779.53,1128.61,769ZM1062.78,896.2c-7.57-10.27-15.21-20.5-23-30.58a8.55,8.55,0,0,0-5-2.55c-17.52-3-35-6.32-52.62-8.57-9.24-1.19-14.62-8-21.48-12.44-14.74-9.6-28.74-20.34-43.12-30.51s-28.74-20.28-43.23-30.25c-5.14-3.54-1.26-6.71-.06-10.32,16.42,11.42,30.79,21.16,46.88,32.72,3.6,2.58,6.25,3.28,9.36-.57,2.18-2.68,22.69-30,35.53-42.79a1,1,0,0,0,.19-.37l20,14.47c-.24.08-10.72,7.83-38.32,42-1.27,1.56-.43,5.67.91,6.73,7.46,5.89,15.3,11.33,23.2,16.65a14.21,14.21,0,0,0,6.9,2.18c6.22.29,12.48.28,18.69,0a2.26,2.26,0,0,0,1-.37,3.35,3.35,0,0,0,.1-5.55,2,2,0,0,0-1-.37c-5.26-.23-10.54.29-15.82.26a9.06,9.06,0,0,1-4.77-1.39c-7.59-5.11-15.05-10.41-22.73-15.76a356.92,356.92,0,0,1,25.47-30.31c2.89-3,10.25-10.69,10.4-11.18l71.8,51.93c12.75,15.22,25.69,30.29,38.6,45.38,2.59,3,5.57,5.79,7.76,9.08,1.59,2.4,3.31,5.62,3,8.22-1,7.51,2.75,12.7,6.94,18,9.14,11.59,18.38,20.14,27.28,31.92.45.6,6.5,8.72,6.52,8.71,2.07,2.38,7.32,12.27,9.73,15.69-2.66,1.63-5.06,2.41-5.95.66l-5.48-9.73c-10.76-16.59-29.7-36.81-39.3-48.84-.89-1.12-4.18-4-5.2-5.2-2.38-2.81-5.52-3.28-10.63,0-14.58,9.37-20.9,14.95-31.75,22.18-3.33-16.68-4.92-16.56.52-24.76C1064.67,899.64,1063.65,897.38,1062.78,896.2Zm-23,40.75c.28,3-4.5,5.65-8.12,5.33-11.21-1-16.65-9.09-22.26-17.23-9.78-14.17-19.71-28.23-30.63-43.85,9.07,1.12,16.86,2.07,24.64,3,1.78.22,3.69.16,5.3.82,3,1.25,6.83,2.2,8.72,4.55a208.44,208.44,0,0,1,16.85,23.69c2.62,4.4,3.4,10,4.65,15.09C1039.6,931.16,1039.52,934.1,1039.78,937ZM896.31,819.83c-9.09-6.42-17.86-13.34-27.26-19.27-4.72-3-4.49-6-2.7-10,.73-1.64,1.54-3.24,2.68-5.64l99.81,70.63a107.12,107.12,0,0,1-8.88,6.53,4.74,4.74,0,0,1-4.16-.46Q926,840.85,896.31,819.83Zm47,68.76c-6.81-1.4-21.66-4.23-28-5.55-.19-5.35-.09-14.09,0-20,4.69,3.69,14.74,10,16.36,11C938.6,878.23,941.06,883.79,943.26,888.59ZM635.75,732c2.55-3.89,11-13.82,15.33-10.78,3.44,2.42,85.72,58.85,89.1,61.19,10.49,7.59,25.61,17.68,38.37,26.81,2.67,1.92,31.35,22,42.35,29.84,5.75,4.08,9.43,6.39,16.36,8.11,3.42.86,16.49,4.2,20,5-2.55,5.8-6.19,16.33-12,15.25-7.57-1.43-15.25-2.58-22.56-4.88-4.63-1.46-8.87-4.5-12.93-7.34-14.54-10.2-102.88-73-108.47-76.93l-11-7.74-17.12-12,0,0C656.88,746.87,639,734.22,635.75,732ZM854.84,844.57c-4-1.07-7.91-2.33-11.93-3.16-12.73-2.61-21.28-12.27-31.59-18.85-14.22-9.07-27.66-19.35-41.47-29q-51.57-36.22-103.19-72.39c-4.4-3.09-8.93-6-13.3-9.14a9.51,9.51,0,0,1-2.68-3.31q-11.16-22.14-22.19-44.35a6.63,6.63,0,0,1-.34-1.26L903.72,856a.82.82,0,0,1-.68,1.46ZM775.26,682.5c-3.8-1.86-1.2-6.28,2.25-9.77,4.91-5,10.17-9.83,14.63-15.16L961.4,756.51c-2.35,2.19-30.69,36.4-35.36,42.15l-48.67-34.29c4.61-5.23,8.86-10,13-14.82C861.85,733.7,777.33,683.51,775.26,682.5Zm99.21,71.6,0,0a18,18,0,0,1-2.34,2.91c-5.1,6.53-14.16,18.83-17.78,23.11l-14.56-17c1.6-2,3-4.12,4.65-6,1.81-2.35,12-15.08,13.51-17.1l18.59,9.33c.86.38.5.86.46.93-1,1.51-1.77,2.76-2.5,3.82ZM797,740.25c10.38,11.67,21,23.15,31.39,34.78,3.79,4.23,7.46,8.57,11.14,12.9a1.35,1.35,0,0,1-1.8,2L725.77,712.53c5.41-4,10.22-7.64,15.06-11.21,3.33-2.45,6.91-4.6,10-7.33,2.51-2.23,4.08-1.51,5.92.57C770.12,709.81,783.48,725.09,797,740.25ZM783.38,697l68.35,40.77L835,759.38,781.73,699A1.31,1.31,0,0,1,783.38,697Zm6.81-59.63c-4,3.2-8.08,7.08-6.55,13.44.22.9-.78,2.34-1.58,3.18-4.54,4.75-9.19,9.39-14,14.33-14.4,9.73-32.61,23.68-47,33.4-5.12-14-10-27.35-15-40.91,14.67-2.42,27-2.71,48.56-17.43,13.88-9.83,48.69-35.64,48.79-35.74,10.64-9.79,13.92-14.45,16.43-24.58.84-3.4,1.87-3.86,5.59-3.13,17.74,3.5,37.79,6.95,56.7,10.22-11.69,8.71-33.85,21.52-45.1,28.87-5.27,3.68-15,5.93-20.39,2.53-1.07-.67-3.56-.1-4.83.74C804.44,627.17,797,631.94,790.19,637.41ZM707.86,536c.39,4.4.86,12.8,1,18.76a7.89,7.89,0,0,1-2.63,5.62c-6.77,5.31-10.75,8-17.71,13-3.65,2.66-6.83,2.42-12.1,2.6-11.52.38-14.85,1.14-26-.89-6-1.1-13.27-6.59-18.84-10.7C620.44,556.2,609.21,548.14,598,540c-1.58-1.15-4.16-3.45-2-4.93,16.52-12,32.78-23.77,49.14-35.44.9-.65,5.69-4.37,8.35-3.76,0-.05.31.05.54.2h0C661.24,500.52,707.37,532.44,707.86,536ZM734,564.43c10.86-9.31,9.12-13.09,9-21,0-5.18-.68-10.35-1.14-16.74l46.44,31.1c-8.69,6.39-16.94,12.43-25.16,18.51-3.47,2.57-3.35,4.86.24,7.53,1.87,1.39,3.67,2.89,6.26,4.93-6.51,4.85-12.79,9.69-19.23,14.3-9.63,6.89-19.48,13.49-29,20.5-3,2.24-5,.52-6.91-1-8.43-6.57-6.8-6.48-16.06-.34-6.74,4.46-10.88,6.7-17.58,11.21-2,1.37-3.38,1.68-6.1,0-9.15-5.64-24.59-16-39.9-26.72,7,0,26.16.16,28.68.06,9.27-.36,15.66-2.29,22.38-7.2C694.21,593.53,713.1,579.67,734,564.43Zm-30.16,62.45a5.56,5.56,0,0,1,5,.09,22.26,22.26,0,0,1,3.57,2.36c4.29,3.49,7.93,3.07,12.54-.28,17.7-12.87,35.76-25.24,53.66-37.84,2.84-2,2.71-5.43-.15-7.57-2.15-1.61-4.34-3.17-6.7-4.89,6.38-4.93,12.47-9.91,18.92-14.37,1.42-1,4.52-.83,6.16.06a60.62,60.62,0,0,1,11,7.71c1.18,1,1.54,4,1.36,5.9-1.2,13.08-10.19,20.51-20.23,27.32-19.16,13-38,26.48-57.17,39.4-3.22,2.17-7.6,2.81-11.55,3.64-4.92,1-10,1.31-14.91,2.3-5.94,1.19-9.88-2.45-14.17-5.29-2.38-1.59-4.58-3.46-7.25-5.51C690.62,635.46,697.12,631,703.84,626.88Zm136.29-53.44c-19.76-1.43-32.85-15.1-47.88-25-25.6-16.93-50.84-34.4-76-51.93-20.79-14.47-41.47-29.12-61.8-44.22-4.76-3.53-7.9-9.22-11.78-13.92-.59-1,.4-1.43,1.16-.9q22.56,16.56,45.12,33.12,28.94,21.18,57.89,42.34c10.45,7.62,21.47,14.57,31.23,23,8.25,7.1,17.89,8.4,27.68,10.34,8.25,1.63,16.73,2.69,24.58,5.48,5.9,2.1,11.07,6.38,16.37,10a218.58,218.58,0,0,1,21.92,16.68C859.1,576.66,849.68,574.14,840.13,573.44Zm-189.3-111c18.34,12.64,36.39,25.71,54.56,38.59,8.05,5.71,16.22,11.24,24.21,17A6.12,6.12,0,0,1,732,522c.58,8,1,16,1.07,24,0,1.66-1.53,3.75-2.95,4.92-4.41,3.63-9.1,6.92-14.37,10.85-.84-10.26-1.36-19.47-2.51-28.6-.27-2.15-2.28-4.59-4.17-5.94-18.12-12.92-36.45-25.55-54.56-38.5-2.91-2.08-4.64-2.13-7.57,0-18.49,13.33-37.16,26.42-55.8,39.55-1.9,1.35-4,2.44-5.92,3.73-5.11,3.42-5.09,6.1.06,9.68,8.11,5.63,16.25,11.21,24.35,16.84,9.58,6.66,18.94,13.66,28.82,19.85a28.2,28.2,0,0,0,13,4c10.46.57,24.93,1.14,37.45,1.55-7.52,5.67-14.27,10.67-24.07,12.1-7.7,1.13-23.94,1.1-33.83.88a13.49,13.49,0,0,1-7-2.11c-15.65-10.86-31.19-21.26-46.73-32.26-12.16-8.61-24.38-17.15-36.43-25.91A5.56,5.56,0,0,1,539,532c2.21-9.77,4.33-23.72,7.48-33.2,1-3.05,4.8-5.43,7.73-7.56,11.62-8.45,23.13-17.11,35.27-24.76,4.25-2.67,10.15-3,15.39-3.76,11.94-1.73,24-2.62,35.88-4.76C645.8,457,648,460.46,650.83,462.43ZM575.18,574c33.6,24.32,56,39.39,96,66.9,5,3.45,11.72,8.2,19,13.33,5.54,3.93,4.67,7.87,6.49,13.31,3.48,10.43,7.19,20.79,11.26,32.49-8.46-6.26-15.81-11.85-23.32-17.21-5-3.53-10.33-6.5-15.14-10.21a16.65,16.65,0,0,1-5.36-7.08c-3.3-9.23-6.09-16.5-9.18-25.8a7.19,7.19,0,0,0-2.78-3.2c-21.65-14.73-43.24-31.56-64.93-46.24-14.25-9.65-28.57-19.2-42.7-29-3.84-2.67-6.75-6.35-6.85-12.19C548.94,557,564.47,566.21,575.18,574Zm583.1,375.47c-10.64-16.68-27.06-33.25-37.23-46.7-5.32-7-4.08-13.27,3.35-18,.73-.47,1.37-1.09,2.38-1.91,15.43,14.9,36.72,53.07,44.1,65,1.43,1.92,4.65,7.67.41,11-.76.59-2.78,2.45-5.13,4.34ZM1115.61,883c-5.33-6.4-10.8-13-16.29-19.57-2.21-2.65-4.45-5.27-6.69-7.89-8.57-10-17.07-20.15-25.85-30a2.71,2.71,0,0,0-.81-.58l-72.22-51.73-27.39-18.58L795.13,653.73c.89-1.24,1.74-2.49,2.52-3.79a49.11,49.11,0,0,1,15.1-15.76,16.91,16.91,0,0,1,3.73-2.1L979.86,736.46l29.46,23.93,68.49,58.16c4.23,5.42,8.86,10.51,13.33,15.74q16,18.76,32,37.58a38.41,38.41,0,0,1,2.58,3.88ZM984.38,733.65l-160-101.39c7.24.3,13.45-4.14,20-6.58,2.49-.93,3.86-.69,6.16.63,20.71,11.88,41.64,23.39,62.37,35.24,14.16,8.09,28.23,16.34,42.11,24.9,3.51,2.17,7,4.36,10.5,6.55,4.1-.87,15.38-3.22,16.17-3,3.15.8,3.84,1.39,6.41,3.08,5.91,3.89,25.63,17,38.46,25.61-2.15.72-14.26,5.9-17.75,7.48-6.2,2.81-17.19,7.84-21.31,10Zm-104-104.09c24.86,10.51,70.09,29,84.71,35.52-5.48,2.31-19.42,6.16-25.14,2.33-9.56-6.38-41.78-24.6-60.53-36A1.06,1.06,0,0,1,880.42,629.56Zm89.13,56.58c-2.65-2.13-14.82-9.81-17.61-12.11,1.63-2.12,15.5-3.91,21.06-5.25a5.12,5.12,0,0,1,3.14.25c28.94,11.81,20.7,12.42,20.62,12.43C984.31,684.35,969.55,686.14,969.55,686.14Zm-102.28-74c8.31-5.55,15.4-9.81,21.89-14.84,3.35-2.6,5.37-1.79,8.22.26q31.41,22.7,63,45.19c12,8.53,24,16.88,36.06,25.34a25.38,25.38,0,0,1,2.68,3.07ZM577.55,407.25l-40.81,5.8c7.88-5.8,14.68-10.94,21.68-15.81a5,5,0,0,1,4.39.13C567.49,400.23,572,403.44,577.55,407.25Zm1.7,377,18-15.51,53.8,38c16.7,11.79,33.44,23.53,50.05,35.46a7.39,7.39,0,0,1,2.45,4.78c.91,8.52,1.49,17.07,2.28,26.71Zm110.86,92.41-27.6,24.48c-5,4.31-11.13,10.52-11.13,10.52a8,8,0,0,1-1.79.23c-12.31-1.6-24.6-3.42-36.93-4.8-11.86-1.32-21.38-5.59-31.4-13.35S562,880.75,552.48,874.15Q530,858.66,507.91,842.72c-3.39-2.44-6.5-5.29-9.79-8.14a1.9,1.9,0,0,1,0-2.87c4.44-3.9,9.34-8.27,14.36-12.5,8.42-7.09,14.58-12.32,25.17-21.31,9.48-8,15.14-8.31,25.16-7.7,8.56.53,13.61,6,20.72,11.1,2.2,1.58,9.45,6.9,11.69,8.39,8.36,5.58,11.46,7.65,19.51,13.66,3.06,2.29,56.5,38.94,65.71,46.23C683.52,872,686.8,874.22,690.11,876.61ZM542.73,649.06c2.33,2,8.07,6.65,8.62,8.14,4.33,11.81,13,29.77,19.39,42.79,1.61,3.28,7.31,10.27,10.59,13.38l-20.88,16.8-32.58-22.81C532.76,688.15,537.6,669.17,542.73,649.06Zm-22,44.76a5.43,5.43,0,0,1-8.37,3.07l-43.48-30.48a5.42,5.42,0,0,1-2.06-6.09c.92-2.92,2.93-9.14,3.09-9.38,2.4,1.58,4.83,3.11,7.19,4.74,4.86,3.38,9.94,6.51,14.42,10.34,2.79,2.39,4.87,1.79,7.18.09,7.39-5.44,13.9-8.24,21.08-13.94,1.8-1.43,5-8.95,6.61-11.31,2.19,1.59,4.53,2.47,7.22,4.42C530.78,656.63,524.69,678.87,520.76,693.82ZM438.94,659.4c20.78,14.78,41.65,29.41,62.44,44.16q42.61,30.26,85.14,60.63a11.8,11.8,0,0,1,1.4,1.54c-4.13,3.73-8.17,7.53-12.4,11.11a6.13,6.13,0,0,1-4,1.37c-7.74-.6-15.65-.66-23.1-2.5-4.41-1.09-8.13-5.07-12.08-7.87-16.68-11.86-33.29-23.83-50-35.64q-29.24-20.67-58.63-41.14c-2.85-2-2.57-4.55-2.88-7.65-.46-4.57-2.81-8.95-4.25-13.1,4.6-3.85,8.81-7,12.53-10.62C435.3,657.55,436.69,657.8,438.94,659.4Zm11.55,65.8,83.15,57.57-66.05,54.77-83.15-57.62ZM645.35,976.76c4.58-.81,9.12-1.92,13.73-2.55a7,7,0,0,1,4.46,1.25c20.12,13.83,40.26,27.62,60.08,41.87,2,1.45,2,5.76,3,8.72a12.74,12.74,0,0,0,1.87,4.26c16.91,19.61,34,39.09,50.86,58.71q14.86,17.25,29.29,34.86a6.36,6.36,0,0,1,1.08,2.16,2.21,2.21,0,0,1-3.54,2.35l-.26-.23c-3.95-3.13-4.25-3.29-8.14-6.49-6.69-5.51-27.64,5.17-29.59,5.69-5.07-7.58-8.69-13.57-13.68-20.72-9.48-13.62-13.83-20.84-21.26-31-1.39-1.88-8.15-13.63-10.43-17-10.38-15.09-20.28-30.54-30.85-45.51-1.29-1.82-4.7-5.84-5-6.28-3.31-4.88-6.92-3.51-11.38-2.51-16.28,3.68-23.86,5.19-41,8.35-5.67,1.05-7.81-.87-10.47-4.92-5.41-8.23-11.33-16.13-17.2-24.4C620.24,981.15,632.8,979,645.35,976.76ZM733,1019.34c-2.63-3-4.23-5.66-6.55-7.32-18.38-13.12-36.91-26-56.12-39.55,10.5-1.74,20.25-3.34,30-5,13.8-2.32,27.61-4.62,41.4-7,6.88-1.2,13.69-2.75,20.59-3.85a7.26,7.26,0,0,1,5.11,1.14c6.84,5.4,13.47,11.08,20.75,17.15Zm-37.12-79c-10.44-6.58-26.14-17.42-36-24.46,8-6.83,31.07-26.67,38.37-32.88,28.13,19.6,56.48,39.23,83.79,58.25C770.3,944.18,700.62,944.12,695.9,940.38Zm49.78-40.13c-9.31-6.73-17-12.33-27-17.8-5.72-3.13-5.42-6.82-5.61-11.49-.7-16.71-2.49-45-2.91-61.75-.19-7.65-4.16-12.15-10-16.17-16-10.94-31.8-22.16-47.66-33.31-8.52-6-17-12-25.79-18.28l4.7-5L813.23,865c-3.49,3.22-6.67,6.06-9.74,9-5.91,5.71-12,11.28-17.56,17.31-3.18,3.45,2.66,9,7.4,12.34,6.44,4.52,24.95,19.17,33.59,25.56-7.75,2.6-14.54,4.44-22,7-5,1.73-10-1.4-14.72-5.19C776.2,920.94,751.6,904.52,745.68,900.25Zm91.11,32.15c3.08-1,4.8-2.9,2.23-5-7.35-6.15-35-27.25-39.8-30.72-2.42-1.76-6.42-3.48-4.62-5.78,7.62-7.12,14.94-14.22,22.63-20.91,1.46-1.27,4.5-1.61,6.55-1.17q58.05,12.38,116,25.11a38,38,0,0,1,4.74,1.75c-1.18,6.08-2.19,12.08-3.64,18-.31,1.22-2.15,2.46-3.54,2.95-9.94,3.52-19.86,7.14-30,10a21.41,21.41,0,0,0-7.79,5c-7.69,6.51-14.92,12.77-22.31,18.84-6.82,5.6-13.72,11.11-20.81,16.35a5.85,5.85,0,0,1-5.33.25c-12.81-8.58-25.44-17.43-38.49-26.47C821,937.69,828.86,934.88,836.79,932.4Zm22.91,64c5,6.06,9.14,10.91,13.13,15.87q14.91,18.53,29.74,37.13,15.57,19.39,31.19,38.76c6.93,8.55,14.07,16.95,20.91,25.58,1,1.27,3.2,3.65,3.59,5.4,1,1.48-1.65,4.47-5.36.95-9.33-7.67-12.38-13.33-16.78-10.51-.93.59-10.65,7-13.06,8.87-1.17.9-18.71-23.74-27.5-36.57-11.27-16.44-20.72-32.53-32.18-48.83-2.75-3.92-3.53-10.91-3.7-15.67C859.45,1010.66,859.7,1005,859.7,996.41Zm29.91,9.8c8.24,2.26,15.12,5,22.24,5.9,11.59,1.45,17.43,9.54,23.72,17.69,10.56,13.68,21.37,27.16,32.1,40.7C973,1077.27,978.43,1084,984,1091l-15.15,10.83Zm47.8,13.92c-6.75-9.11-15.45-12.79-25.62-15.29-9-2.22-26.84-7.05-35.21-10.86a49.15,49.15,0,0,1-14.78-11.29c-2-6-1.93-8.9,3.12-12.32,12.31-8.35,23.1-16,35-25,5.19-3.93,6.25-.18,9.15,3,.2.16,42.05,57.59,59.94,81.46,11.65,15.54,23.82,30.71,36,46.33l-15.23,11.15C972.25,1065,954.32,1042.94,937.41,1020.13Zm6.05-39.62-6.8-9a3.52,3.52,0,0,1-.38-.51c-1.45-1.93-2.91-3.88-4.37-5.81l.09,0c-7-9.21-18.64-23.92-22.68-28.9a14.2,14.2,0,0,1-1.4-2.75l38.39-13.22c3.48,5,6.91,10.22,10.5,15.29,4.12,5.83,10.07,13.05,15.25,21l33,47.61c-5.84-1.54-10-1.82-12.68-6.69-1.62-3-3.46-5.26-5.23-8.11-4.12-6.66-6.44-7.62-12.37-8-3-.18-5.78-.55-14.44-.64C954.41,980.67,950.64,980.22,943.46,980.51ZM962,931.06a33.62,33.62,0,0,0-4.18-5.62c-6.71-6.28-7.06-13.54-3.41-22.33,7.75,10.79,15.35,21.12,22.69,31.63q17.26,24.72,34.21,49.67c5,7.41,12-7.3,12.72-13,.74-6,2.16-13.31-3.61-20.9l-.29-.39a1.7,1.7,0,0,1,2-2.59,72.42,72.42,0,0,0,8.65,2.94c2.74.81,7.06-.12,9.9-1.87,13-8,41.29-28,50.23-35.61,5.35-4.52,10.33-6.38,13.08-3.17,6.22,7.29,12.44,14.59,18.48,22,5.91,7.27,11.61,14.72,17.93,22.77-3.4,2.64-8.74,6.55-12.08,9.52a36.18,36.18,0,0,0-8.94,11.09c-3.56,7.23-9.81,20.27-14.81,32-.83,2.41-.38,3.79.78,4.82a16.76,16.76,0,0,0,2.36,1.51c4.82,2.4,27.84,13.62,32.6,16.16,5.88,3.14,6.52,10.91,2.3,16.16-5.87,7.28-9,10.72-15.63,16.08-6.12,5-13.88,11.11-20.57,14.73-4.49,2.44-9.27,4.36-14,6.55-12.48-18.58-24.89-36.39-36.5-54.72a29.57,29.57,0,0,0-15.49-12.51c-7.88-2.92-15.78-5.81-23.58-9a11.57,11.57,0,0,1-5-3.78Q986.77,967.24,962,931.06Zm257.18-70.87c-.22-.27-.44-.53-.68-.79-12-12.91-22.06-27.3-32-41.84-11.21-16.44-22.9-32.56-34.36-48.82-.39-.55-.65-1.18-1.2-2.18,5.93-.59,10.24,1.28,13.3,5.77q19.39,28.39,38.7,56.86c6.13,9,12.28,18.09,18.12,27.32a14.29,14.29,0,0,1,1,2A1.72,1.72,0,0,1,1219.15,860.19Zm-7.25-64.6c-.88,4.08-3.57,7.24-2.65,12,.87,4.5-.33,9.39-1.93,14.34L1200,811.27h0c-6.3-9-27.37-39.37-33-47.69-.48-.72.37-2.63,1-3.75,3.45-6,7-12,10.63-18.14,5.15,6.86,10.71,13.9,15.77,21.28,1.14,1.65,13.07,16.31,16.32,22C1210.78,785,1213.32,789,1211.9,795.59Zm-31.84-62.66c-5.86,4.52-13.49,17.22-18.65,26.93-5.24-1.56-10.89-3.93-16.32-5.56-13.11-26.66-31.33-58.51-44.3-84.89l29-14.65c4.21-2,4.76-.1,52.34,35.72,2.16-3.85,3-5.45,3.26-6.09,1.67-4.25,3.92-8.28,6.31-13.21l41.54,29.72c-14.69,8.69-28.42,16.71-42,25C1190.43,726.31,1180.74,732.69,1180.06,732.93ZM1242.83,578a3.86,3.86,0,0,1,.44,3c-1.53,5.09-3.24,10.12-5.13,15.93-7-4.95-13.72-9.51-20.18-14.42a5.61,5.61,0,0,1-1.63-4.71c2-8.88,4.35-17.67,6.66-26.77C1229.71,560.13,1236.32,569,1242.83,578ZM1226.7,460.65c5.07,3.52,1.58,8.25,1.16,11.9-1.94,16.76-4.82,33.42-7.36,50.12-.33,2.1-.66,4.2-1.06,6.68a2.8,2.8,0,0,1-4.55,1.71c-2.82-2.34-5.44-4.49-8.09-6.53-8.45-6.53-10.73-7.29-16.34-7.65-13-.83-23.54.21-36.66.64-7.27.23-13.83-5.48-19-8.94-1.8-1.21-65.27-45.9-75.73-53.07a122,122,0,0,1-11.3-8.72c2.29-1.37,6.6-3.77,10-5.71q36.62-20.58,73.26-41.13c3.15-1.77,5.63-2.2,9.12.26C1168.91,420.53,1197.82,440.57,1226.7,460.65ZM1078.62,273.48c5.79-2.07,15.46-6.09,21.26-8.13,1.29-.46,5.37.31,6.6,1.16,6.65,4.59,26.48,17.89,33.19,22.38,1.75,1.18,53.24,36.47,69,48a9.8,9.8,0,0,1,3.57,5.85c1.71,11.58,3.61,27.83,5,39.45,1.13,9.12,2.19,18.25,3.4,27.37,1,7.29,2.26,14.55,3.07,21.87.18,1.58-.63,4.27-1.74,4.78-1.91.88-5.14,1.43-6.58.4-14.47-10.36-43.19-32-57.49-42.63-2.45-1.81-39.6-28.43-42.35-30.35-12.19-8.51-71.27-50-72.71-50.94-2.25-1.45-10.66-6.9-13.19-8.81C1045.56,294.59,1061.26,279.69,1078.62,273.48Zm-67.52,33.74c10,7,50.46,35.25,51.63,36.11l.56.38h0c10.08,7.37,20,14.95,30.16,22.25,9.73,7,19.73,13.65,29.6,20.46,2.35,1.62,4.67,3.28,7.47,5.24-9.9,5.46-19.35,10.8-28.93,15.9-4,2.16-5,1.47-9.64-5.41,4-6.23,1.17-19.27-5.78-23.08-14-7.67-28.37-14.72-42.57-22.06-3-1.53-27.64-14.89-31.27-16.89h0A42.22,42.22,0,0,1,999.92,330C1003.14,323.6,1007.8,313.82,1011.1,307.22ZM1078.69,382c-7.35,4.23-14.55,8.35-21.72,12.51a5.43,5.43,0,0,0-2.61,3.69c-.86,4.54-2.66,14-3.15,16.44-17.46-12.37-38.58-27.29-56.42-39.93,3.88-2.51,7.53-5.05,11.34-7.3,5.87-3.47,11.74-7,17.86-9.94a8.8,8.8,0,0,1,6.83-.08C1046.72,365.35,1062.47,373.62,1078.69,382ZM1002,351.24c6.63-3.93,12-2.7,18.88.71-7.24,4.14-13.93,7.75-20.4,11.72a71.6,71.6,0,0,0-10.36,7.71c-3.08,2.78-2.45,6,.79,8.29q28.23,20.18,56.57,40.2c3.34,2.36,6.62,2.88,10.93,2.07,3.79-.7,8.06,1.2,13.75,2.25l-33.48,18.63-88.13-62.89C968.25,370.11,985.35,361.09,1002,351.24Zm-171.23,38.1c15-10.64,30.29-21,44.81-32.29,18.53-14.41,38.9-25.64,59.26-37a8.89,8.89,0,0,1,5.9-.55c6.34,1.56,12.59,3.52,19.26,5.44-4.57,5.16-12.43,13.73-5.46,21.19l14.7,12.39c-10.13,5.92-20,12.64-30.69,17.48-4.68,2.12-11.09.47-16.72.41-1.23,0-12.07-.31-13.31-.34-18.61-.41-27.59-1.21-46.21-1.41a12.09,12.09,0,0,0-6.36,2c-7.32,4.87-14.35,10.16-21.7,15a6.88,6.88,0,0,1-2.07.8A1.76,1.76,0,0,1,830.73,389.34Zm-7.39,11.19c11.17,2.16,10,2.72,29.17,16.08,33.56,23.41,67.18,46.76,100.24,70.87,4.46,3.26,6.06,10.45,9.14,16.11-5.75,3.22-10.35,6-15.15,8.35-1,.47-2.89-.21-3.94-1-22.46-16.12-44.73-32.53-67.33-48.46-26-18.3-80.57-56.09-81.47-56.82C803,396.07,813,398.55,823.34,400.53ZM688,317.44c11.8-6.92,18.54-6.59,30.15,1.83,18.57,13.48,39.6,29.22,57.25,42.12,3,2.15,5,10.19-4.11,4.31-15.32-10.92-30-11.8-46.87-17.46-8.53-2.86-16.93-9-19.42-10.55-3.43-2.13-20.75-14.84-23-16.18C683.38,320.59,686,318.61,688,317.44Zm22.53,31.26c7.41,4.75,16.8,6.47,25.36,9.33,4.23,1.42,8.62,2.39,13,3.44a49.18,49.18,0,0,1,18.77,8.67c9.93,7.6,20.33,14.59,31.2,22.3-6.17,3.64-11.77,7-17.52,10.18-.64.35-2.25-.67-3.2-1.35-25.48-18.08-121.91-86.46-123.74-87.77.45-.89.84-1.69,1.3-2.61.21-.48,1.12.14,1.5.41C674.89,323.85,692.23,337,710.51,348.7Zm-63.26-52.19c-.75,1.35-2.65.63-3.44.08q-11.89-8.29-23.49-17c-.84-.63-2.14-1.69-1.05-3.64,5-9,10.07-18,15.31-27.27l27.67,20.42C657.22,278.39,652.23,287.44,647.25,296.51Zm-35-23.09-28-20.61,16.63-29.05,27.85,20.65Zm59.12-5.15-68-50.47,11-20.76L682,247.49C678.49,254.37,674.89,261.4,671.36,268.27Zm-56-116.3c11.12,10.31,22.13,20.53,32.74,30.2q22.92,20.93,46,41.65c2.38,2.14,3.63,3.86,2.43,7.71-1.32,4.29-1.9,6.19-2.8,8.64-2,5.44-1.86,6.51-6.9,2.8C667,228.4,647.26,213.69,627.49,199c-5.19-3.85-10.38-7.7-15.61-11.5-2.43-1.76-3-3.38-2.41-6.84C611.48,169.3,613.15,161.86,615.33,152Zm-35,4.14c.92-3.73,4.42-4,7.36-4.41,7.38-1.07,15.66-2.21,22.68-3.37-3.06,13.68-9.08,32.86-7.07,40.15a.46.46,0,0,1-.65.55c-8.16-4.58-15.12-15.21-27.33-12.55C576.89,170.15,578.62,163.13,580.34,156.11ZM324.51,412.9c5.06,4,11.84,9.23,18.47,14.63,3.73,3,7,4.14,11.52.87,22.3-16,44.82-31.78,67.23-47.68,4.79-3.4,4.62-6.05-.15-9.52-6.7-4.87-13.31-9.84-20.06-14.85l48.94-34.71c8.05,5.72,16,11.59,24.2,17,1.57,1,5,1.14,6.49.11,22.45-15.53,44.73-31.3,67-47.07,6.2-4.39,6.17-6.71.1-11.28S535.91,271.14,529,266a39.47,39.47,0,0,0,20.44-22.67c7.44,5.44,13.57,10.15,21.07,15.6,4.32,3.14,7,3.08,10.09-.59,19.72,14.59,39.51,28.93,59,43.65,8.06,6.08,6.69,8.28,6,12.21-3.7,14.4-15.45,21.75-26.89,29.73-33.44,23.34-66.59,47.07-99.87,70.63q-28.36,20.09-56.76,40.14C445.86,466.19,430,478.38,413.18,489c-7.79,4.9-17.52,6.72-26.38,9.9-1.15.41-2.38.59-3.8.94-2.15.53-11.12-5.09-13.27-6.59-19.89-13.88-39.55-28.07-59.28-42.17,3.69-5.23,3.64-5.26-2.24-9.47s-11.54-8.43-17-12.42ZM299,454a7.49,7.49,0,0,1,5.59,1c8.14,5.46,16.07,11.22,25.23,17.69-14.81,4.33-28,8.24-41.15,11.93a7.21,7.21,0,0,1-5.28-.59c-8.18-5.42-16.17-11.13-24.74-17.09C272.42,462.44,285.68,458.05,299,454Zm-18.19,81.69c-8.41-5.53-21-13.08-29.7-18.15-16.5-9.63-25.07-14.14-42.39-25.9-3.68-2.5-4.54-7.56-5.78-12.24-2.2-9.21,7.51-1.13,11,1,14.71,8.88,16.76,10,35.9,23.08,8.58,5.86,17.23,11.62,25.75,17.56,1.51,1,8.46,6.2,9.71,7.63C292.39,534.18,286.07,538.93,280.84,535.65ZM293.77,526a2.3,2.3,0,0,1-2.6-1c-6.44-10.12-27.83-21.78-43.69-32.41-7.12-4.76-16.41-9.83-24.62-15.54,7-2.09,20.1-6.32,26.32-7.59,1.72-.35,4.11,1.76,6,3,21.57,14.81,43.09,29.67,65.49,45.11C312,520,302.35,523.46,293.77,526ZM325,508.55c-2.36.64-5.76-.63-8.06-2-6.71-4.12-13.11-8.73-19.6-13.2a30.17,30.17,0,0,1-3.76-2.5c13.49-4.13,27.41-8.39,40.52-12.34,1.15-.35,2.83-.7,3.63-.14,8.65,6,17.16,12.22,26,18.61C350.36,501,337.77,505.1,325,508.55Zm20.16,14.23c.38-.8,3.29-1,4.74-.54,1.6.5,2.87,2,4.79,3.54-4.61,9.84-15.51,32.5-20,42.1-2-1.3-5.06-3.44-7.75-5.1C331.48,552.44,340.44,532.86,345.16,522.78Zm-45.73,41.28c-2.77-1.5-1-4.42-.08-6.46.48-1,2-2.74,5.88-.14C349.34,587.23,389,617.85,433.08,649l-18.57,15.84c-6.89-5-13.92-10.15-21-15.21-5.41-3.85-10.81-7.72-16.41-11.27C370,633.9,368.67,626,366,619.28c-4.16-10.6-8.92-16.34-18.33-22.86-12.21-8.46-23.1-15.95-36.62-25.25C309,569.75,303.74,566.4,299.43,564.06Zm14.13,16.8c2.21-1.74,27.8,18.8,30.44,20.51a30.42,30.42,0,0,1,11.87,13.7,199.92,199.92,0,0,1,7.63,19c2.79,7.63,8.62,12.17,14.93,16.43l4.32,2.9c.58.42.5.9-.34.78-6.65-1.19-13.3-2.33-19.93-3.62-.77-.15-1.46-1-2-1.66-1.71-1.91-3-4.32-5.05-5.77-20.9-14.93-41.92-29.72-63.4-44.89C298.53,592.93,307.07,585.92,313.56,580.86Zm-30.95,31.78q2.11-2.91,4.15-5.75c7.46,5.18,30.92,20.48,38.2,25.59,8.76,6.15,17.46,12.38,26.22,18.53,2.23,1.55,2.24,3.06.82,5.28-6.19,9.63-6.24,9.81-15.75,3.19-14-9.71-43.18-31.13-57.58-41.37C280.15,616,281.38,614.34,282.61,612.64Zm48.56,103.84c-11-7.82-36.51-24.27-47.33-32.31a10.51,10.51,0,0,1-3.75-5.29c-1.63-6.7-3.34-14.71-3.65-21.5-.4-9,.47-20.42.47-30.71,12.66,8.88,39.58,29.32,51.25,37.56,3.09,2.18,6,4.24,9.13,6.67,3.63,2.86,5.21,6,5.34,9.85.38,11.84.6,18,.8,23.53.21,6.18.84,20.7-1.35,19.31C338.34,721.16,334.65,719,331.17,716.48Zm-50,67.47c.4-3.33,8-8,11.21-10.8,9.53-8.32,18.83-17,28.93-24.55,12.59-9.44,25.91-17.89,38.87-26.84,11.48-7.93,22.9-16,34.34-23.94,2.47-1.78,3.8-2.06,4.26-1.76,4.39,2.16-3.13,9.5-4.43,10.47-6.17,4.62-12.62,8.9-19,13.18-5.32,3.58-5.54,6.38-5.2,11.18.72,10.27.9,16.05,1.12,19.52.46,7.25.69,14.52,1.18,21.76.22,3.17-1.67,6.55-4.33,8.66-7.24,5.73-13.16,10.52-19.93,16.82-3.71,3.44-7.42,6.21-12,1.06-2.52-2.82-4.25-3.71-8.27-6.45-2.66-1.19-5.22-1.58-11.64,3.86-1.66,1.51-10,8.47-11,9.27-4.59,3.62-4.47,8.09.23,11.45,3.11,2.21,6.16,4.51,9.26,6.81a1.33,1.33,0,0,1-.25,2.29c-4.38,1.93-12.37,1.51-14.38-2.27-2.24-4.2-4.35-8.5-6.72-13.21-.56-1-6.61-13.08-7.05-14C284.33,792.41,280.71,787.73,281.16,784Zm-7.75,9.65c0-10.09,14,21.39,19.69,32.95a12.9,12.9,0,0,0,10.31,7c5.41.51,17.88.19,24.19-5.45q23-20.54,46.33-40.67c.93-.81,3.74-.63,4.9.19,22.81,16.21,45.51,32.6,68.24,48.94,5.81,4.17,11.65,8.32,17.44,12.46L432.7,876.44c-2.44-4.29-4.67-7.3-3.78-13.29.92-6.15-3.12-11.22-10.3-15.65-17.66-10.91-31.23-20.88-47.39-30.15-8.54-4.9-8.67-3.62-15.85,1.83-9.22,7-17.88,14.72-26.68,22.25a55.31,55.31,0,0,0-5.64,5.4,2.41,2.41,0,0,0,.16,3.35,82.58,82.58,0,0,0,6.84,5.86h0l2.8,2.06c17.38,12.68,34.77,25.37,52.35,37.78,1.67,1.18,5.4,1.48,7,.41,5.68-3.91,10.1-.48,15.79,1.39L374,927c-24.7-17.62-93.93-69.42-98.84-73.2a6.17,6.17,0,0,1-2.18-4.28C272.87,832.35,273.41,812.1,273.41,793.6ZM383.8,876.74c1.58,4.26,3.63,8.35,5.5,12.5a.85.85,0,0,1-1.27,1L330.3,848.82,343,838c5.14-4.4,10.43-8.64,15.35-13.26,3.29-3.09,6-4.19,10.4-1.54,14.58,8.78,28.38,18,43.66,26.83-6.34,5.46-24.39,19.65-27.63,22.39A4.83,4.83,0,0,0,383.8,876.74ZM429.8,998c-19.89.61-48.36.41-69.67.11-7.9-.11-20.46-1-28.36-.84-8.06.19-42.22-.8-55.44-.63-11.41.14-55.75,1.1-63.32-4.13-13.14-9.07-50.52-37.31-52.28-38.64-6.3-4.75-.66-15,7-26,16.26-23.37,51.71-51.81,77.15-69.09,1.15.81,50.4,34.47,52.66,36.09,12.71,9.07,65.4,46.58,66.59,47.42,18.54,13,54.09,38,74.09,52.17C434.71,996,432.28,997.92,429.8,998Zm92.29-9.71c-14.08,2-28.33,3-42.23,5.88-8.35,1.7-12.13-4.31-17.13-7.66C445.58,975,429,962.66,412.21,950.68c-9.5-6.76-19.06-13.44-29.45-20.75l87.79-75.52c13.45,9.5,26.65,18.88,39.9,28.18,12.8,9,51.18,34.9,56.92,39.82,2.1,1.8,3.81,3.12,3.16,6.56-1.77,9.33-2.91,18.78-4.44,28.16-.6,3.7,4.09,7.25,10.74,11.87,3.32,2.3,12,6,12.93,7.7,1.1,1.92-1.15,2-2.36,2-6.65,1-13.29,2.11-19.95,3.08C552.34,984,537.22,986.2,522.09,988.29Zm31.45,59.36a11.17,11.17,0,0,1-6.73-1.29c-3.87-2.15-7.39-4.93-11.94-8.06,25.27-3.9,49.66-7.36,73.94-11.49s48.61-9,73.44-13.58q15,22,30.45,44.76c-14.37,3.25-28.09,6.4-41.84,9.43-2.92.65-5.29.31-7.31-2.78-6.28-9.6-12.77-19.09-19.74-28.2-1.46-1.9-5.48-3.14-8-2.73C608.35,1038.17,581,1043.06,553.54,1047.65Zm93.58,64.79c-12.63-8.21-25-16.75-38.64-25.94,14.2-2.79,27.21-5.29,40.21-7.91,20.38-4.11,40.78-8.13,61.08-12.59,4.56-1,7.09-.7,9.8,3.63,6.18,9.87,13.17,19.25,19.79,28.86a37,37,0,0,1,2,3.9c-19,2.4-37.21,4.67-55.42,7-10.53,1.37-21,3-31.56,4.26C652,1114,649,1113.69,647.12,1112.44Zm78,28.66c-8,.93-22.55,1.84-29.71,1.93-10.63.13-25.77-12.82-32-17.12-2-1.4-3.87-3.1-6.66-5.36,5-.89,30.23-3.72,34.2-4.23,5.53-.72,42.74-5.14,54.23-6.73.8-.11,2.07,1,2.66,1.83,4.32,6.17,8.77,12.27,12.63,18.72,1.36,2.26,1.18,5.45,1.78,8.64Zm153.9,18.13c-.85-1.21-15.88-19.38-13.85-20.83.84-.6,10-7.49,10.76-6.6,2.24,2.5,14,18.6,16,21.45C893,1155,882.19,1163.72,879.06,1159.23Zm25.59-3.92h0c-6.72-8.64-13.5-17.23-20.14-25.93-5.12-6.7-10.1-13.5-15.06-20.32-2.49-3.43-5.38-2.56-8.07-.73-6.8,4.62-14.92,10.72-21.24,15.21a.59.59,0,0,0-.12.84c3.26,4.19,26.3,33.7,38.29,49.4,2,2.42-6.59,6.64-10.34,3.89-6.26-4.58-24.92-18.24-30.82-23.26-5.28-4.48-6.27-4.37-9.42,1.48a112.72,112.72,0,0,1-7.77,12.89,4.75,4.75,0,0,1-5.34,1.49c-15.05-6.17-30-12.58-44.88-19.11-3.05-1.33-5.77-3.43-9.67-5.8,4.49-.72,7.73,0,9.83-1.84s.5-6.86,1.24-9.48a150.76,150.76,0,0,1,20-7.23,4.29,4.29,0,0,1,3.18.29c3.76,2.78,5.12,3.78,8.71,6.77,5.37,4.47,13.57.07,12.64-6.12,3.85-2.41,14.82-10.51,17.94-12.46,7.36-5.1,17.05-11.48,24.51-16.64,6.38-4,7.15-3.46,13.25,3.9,4.39,5.62,9,11.32,13.39,17.16q11,14.61,21.79,29.43a5.22,5.22,0,0,1,.78,2.16A3.52,3.52,0,0,1,904.65,1155.31Zm-2.23-22.15c-6.92-8.85-21.78-28.48-25.41-33.51-1.23-1.69-3.13-3.93-2.81-5.54,2.19-11.24-5.21-18.09-11-25.82C857,1060,802,985.16,800.61,982.88a148.86,148.86,0,0,0-11.44-15.62c-1.87-2.3-4.5-4-6.64-5.81l19-6.66c3.72-1.31,4-3.74,2.17-6.81l0,0a1.5,1.5,0,0,1,2.14-2,6.35,6.35,0,0,1,.52.4,60.88,60.88,0,0,0,5.62,4.78c13.1,9.35,26.45,18.34,39.65,27.55,1.06.73,2.48,2,2.51,3,.2,8,0,18.89-.46,30.14-.34,7.84.48,16.71,2.48,20.83,3.75,6.53,9.27,16.25,11.2,19.28,7.93,12.48,15.58,25.14,23.68,37.51,6.47,9.88,24.73,32.78,32.77,44.28.21.27,2.67,3.48,2.26,6.39a8.66,8.66,0,0,1-6.8,7.29C912.61,1148.41,908.22,1141.77,902.42,1133.16Zm119.39,17.73c-2.58-3.37-13.45-17.88-16.77-22.22l8.83-6.17c2.87,4.07,13.64,18.74,16.2,22.36Zm25.51-9.41c.92,1.23,2.93,4.14,1.15,4.91l-2.26.95c-4.94-6.29-10-12.51-14.81-18.9-7.13-9.43-14-19.09-21.33-28.33-1-1.23-5-1.54-6.52-.58-6.14,3.84-16.19,11.11-23.22,16.12,12.44,16.38,26.37,34.69,38.51,50.68-8,5.44-8,5.4-15.63-.84-9.35-7.62-18.79-15.13-28.16-22.74-2.95-2.4-5-2.18-6.8,1.45-2.36,4.83-5.17,9.45-7.56,14.27-1,2-1.94,3.44-3.34,3.93,0,0,0,.07,0,.1-17.32,9-26.93,5.37-42.26-3.48,2-1.08,6.86-4.77,12.41-8.33,8.47-6,5.17-21.46-2.18-27.48,2.69-1.81,10.47-7.2,13.18-9,5,4.16,10,8.52,15.22,12.72,3.79,3.06,8.32,1.57,11-3.38a7.68,7.68,0,0,0-1.11-7.41c-.39-.59-.34-1.23,1.92-2.52,6.19-4.41,20.06-14.17,25-17.89a102.35,102.35,0,0,1,11.41-7.6c4.95-2.51,11.06,7.91,13.52,11.27C1025.86,1113.59,1036.76,1127.41,1047.32,1141.48Zm-9.58-48c-4.56.92-9.12,1.86-13.72,2.62-3.19.52-9.74-5.49-9-9.59,2.14-11.58-5.6-18.44-11.39-26.17-13.35-17.85-27-35.47-40.51-53.2q-6-7.92-12-15.94a20.61,20.61,0,0,1-2.66-3.7h22.89c8.11,0,10.3,6.58,13.57,11.71a23.85,23.85,0,0,0,13.45,10.44,378.74,378.74,0,0,1,38.82,13.89c5.73,2.61,7,6.66,8,8.2,11.77,17.55,23.38,35.2,35.25,53.15C1066,1087.85,1051.89,1090.71,1037.74,1093.53Zm72.46,11.87c-3.26,6.27-13.3,29.15-15.54,27.36-4.16-3.77-30-14-22.14-16.09,12.58-2.86,22.87-13.88,24.38-25.3h0a2.19,2.19,0,0,1,1.66-2.28c5.08-1.24,11.2-4.57,15.88-6.78a55.55,55.55,0,0,0,11.69-7.69,153.46,153.46,0,0,0,13.75-13.35c1.1-2,7,11.53,7,14.44C1135.08,1087.07,1123.77,1094.07,1110.2,1105.4Zm55.26-35.57c-3.54-3.42-6.12.62-12.5,3.43-3.58-9.53-9.38-18.47-3.51-24.19,4.21-4.1,3-3.48.8-15.19,1-.71,2.25-1.43,3.36-2.28,5.37-4.12,8.19-3.39,12.4,1.72,4.91,6,7.09,13,8,20.15C1174.68,1059.43,1170,1064.07,1165.46,1069.83Zm24.07,20.4c-9,0-13.36-4.61-19.8-8.43-1.83-1.09-1.1-5.89,2.14-9.26,7.06,4.7,13.8,9.79,20.37,14.16C1194.2,1088.32,1192.67,1090,1189.53,1090.23Zm21.91-12.83c-2.06,3.7-3.86,7.33-6,9.8-2.47,2.63-5.42,2.49-6,2.2a6.52,6.52,0,0,0-4-8.26.46.46,0,0,1,0-.88c6.24-1.6,10.67-4.35,14-5.65C1213.1,1072.64,1212.75,1075.38,1211.44,1077.4ZM1189.17,1058c-.83-.73-.33-2.24.76-2.1a39.33,39.33,0,0,0,12.61-.49c7.57-1.8,10.11,2.08,10.21,7.9C1202,1064.5,1195,1063.19,1189.17,1058Zm3.94-25.29c8.62-6.25,9.81-7.08,22.73-16.77.31,4.43.57,13.27.82,17C1210.9,1040.65,1199.39,1035.6,1193.11,1032.75Zm36.22,20.88-9.92,6.9c-4.48-9.3,1.2-13.67,10.83-18.59C1231.15,1044.31,1233,1049.8,1229.33,1053.63Zm-7.23-33.89c6.12,4.49,12.26,12.54,1.9,21C1223.4,1036.49,1222.7,1024,1222.1,1019.74Zm4.93-5.39c-3.12-3.36-6.47-6.94-9.79-10.55s-6.39-7-9.66-10.57c10-7.09,12.66-7.05,20.53.11C1236.22,1000.72,1233.15,1007.78,1227,1014.35Zm18.79-4.33c-.93-1.49-10.25-16.85-11.46-18.79,6.64-2.85,12-6.29,17.91-9.35,2-1,12.74-8.17,17.71-13.1a2.42,2.42,0,0,1,3.44.06l9.09,9.43C1270.84,991.6,1249,1015.34,1245.82,1010Zm49.39-124.27c-1.11,10.33-8.15,17.85-11.09,27.27-3.65,11.71-8.6,23-13.42,35.61l-18.3-27.34c-4.78-7.17-9.35-14.49-14.41-21.45-3.79-5.2-4.84-10.9-5.5-17.09-1.27-11.79-.49-10.2-2.18-21.89-1.93-13.33-9.08-20.8-13.65-28.37-.63-1-4.3-6.26-3.91-7.18,5.38-12.65.14-18.22,4.13-25.36,2.16-3.86,2.9-12.22-3.56-21-1.93-2.64-2.52-4.27-4.44-6.92-1-1.61.5-2.43,1.6-1.22l16.6,20.59L1252.52,823q13.23,16.41,26.46,32.83c3.86,4.78,7.44,9.88,11.87,14.08C1295.77,874.54,1295.89,879.43,1295.21,885.75ZM1192.12,738.41a2.25,2.25,0,0,1,.55-3.31c15.32-9.75,22-13.41,41.66-24.75a7.46,7.46,0,0,1,9.23,1.75c6.37,8,15.58,20.66,14.49,29s-.4,16.75-1.38,25c-1,8.78,2.08,15.54,7.35,22.19,16.76,21.17,33.18,42.6,49.78,63.88a5.65,5.65,0,0,0,.75.8,3,3,0,0,1-.32,4.64c-4.3,3-11.93,7.75-16.37,10.9C1266.33,829.55,1223.86,777.68,1192.12,738.41Zm167.13,174.17c-3-3.68-14-16.28-17.09-20.17,8.92-6.49,8.92-6.49,24.85,13.85Zm25.35-9.19a24.63,24.63,0,0,1,1.78,3.25c-3.35,3-4.7.4-6.4-1.84-9.83-12.94-24.39-31.74-35.77-46.56-5.18,3.73-13.6,9.85-18.85,13.46-7.18,4.93-7.4,6.43-2.23,13.11,11,14.21,21.85,28.51,33,43l-5.57,4.44c-14-9.32-28.82-19.94-33.09-23-8.81-6.32-8.9-6.21-14.56,2.58-3.62-5.07-1.67-10.32-.63-15.56.3-1.5.84-3.82.11-4.49-3.77-3.46-1.15-6.47-.07-9.82,3.85-10.06,6.88-11.16,11.34-13.55,7.27-5.14,17.66-12.38,25-17.54,2.85-2,4.78-1.81,6.88,1C1356.56,866.72,1373.47,888.59,1384.6,903.39Zm-13.66-89.67c-2.83-3.67-13.47-17.55-16.36-21.3l8-6.24c2.92,3.6,13.81,17.62,17,21.59Zm21.56-6.18a2.39,2.39,0,0,1-.22-.23q-16.3-21.45-32.43-43c-3.68-4.9-6.11-4.68-11.91,0a153.34,153.34,0,0,1-14.59,10.3c-4.26,2.69-3.48,5.07-.95,8.4,11.43,15,22.7,30.15,34.22,45.48l-5,4.12a5.53,5.53,0,0,1-6.79.24c-18.5-13.61-31.48-37.85-46.09-54.16.47-.4,6.75-4.4,15.38-9.8l21.81-15.29c3.09-2.44,6.82-1.09,12.58,3a29.51,29.51,0,0,1,4.22,4Q1379,782.68,1394.93,805a1.81,1.81,0,0,1,.31.81A1.75,1.75,0,0,1,1392.5,807.54ZM433.1,411.27a6,6,0,0,0,2.34-.21c4.06-1.18,9.23-2.75,11.07-8.54,1.42-4.44.91-6.57-1.13-9.51s-3.21-5.5-14-4.76c-4.65-.49-11.83,10.74-10.36,14.44C422.67,406.88,427.86,410.69,433.1,411.27Zm74.74-55c8.91,1.51,13.77-2.24,14.49-6.4.93-5.38.08-10.68-6.85-12.36-2.78-.67-7.17,0-10.15.22-5.2.44-9.6,6.76-7.39,11.6C500.29,354.43,503.39,355.23,507.84,356.23Zm3.71,566.28q-20.66-15-41.77-29.39c-1.37-.94-4.69-.79-6,.25-10.22,8-20.22,16.22-30.15,24.56-2.71,2.27-2.81,4.47.71,6.84,12.63,8.52,25,17.39,37.53,26.09,2.64,1.83,5.35,3.55,8.06,5.31a2.47,2.47,0,0,0,2.53.11,10.41,10.41,0,0,0,1.84-1.14q13.52-11.24,27-22.56C516.74,928,517,926.46,511.55,922.51Zm-58.18,5.34c-2.91-1.74-5.56-3.91-9.07-6.46,6.7-5.59,13.09-10.92,19.86-16.55a64.2,64.2,0,0,1,1,9.12c.39,7.33-.74,12-7.35,14.59A5.89,5.89,0,0,1,453.37,927.85Zm27.57,19.5L461.85,933.9c6.28-6.35,6.73-6.39,13.47-1.77,4.14,2.84,8.34,5.58,13.2,8.83Zm12.4-10.42c-6.42-4.56-13.29-9-19.58-14.18-1.69-1.39-1.88-4.86-2.28-7.45-.5-3.17-.5-6.41-.77-10.37l33,23.37Zm59,14.25c-3.35-2.38-6.73-4.71-10.18-6.95-3.9-2.54-7.78-3.44-11.84,0-5.35,4.51-11.06,8.61-16.28,13.26-4.36,3.88-4,7.43.55,10.71,3.48,2.51,7,5,10.6,7.3,1.51.94,2.87,1.14,4.73,2,1,.47,4.69,0,5.38-.94,6.09-5.09,12.14-10.24,18-15.65C556.34,958,555.74,953.61,552.3,951.18Zm18.39-134.31c-3-2-6.13-3.76-8.88-6-4.15-3.42-8.89-3.88-13-1.25-4.94,3.2-13.68,8.78-14.55,13.71,0,6.79,16.47,16.09,21.1,15.37.33,0,4.16-2.35,4.45-2.56,5.16-3.72,7-5.17,11.86-9.25C575.3,823.83,574.58,819.53,570.69,816.87Zm525.75-369.93c0,1.2,1.23,2.77,2.33,3.57,14.53,10.54,29.08,21.05,43.8,31.32a6.89,6.89,0,0,0,6,.23c9.1-5,18-10.38,26.9-15.75,1.62-1,4.11-2.6,4-3.79a8.43,8.43,0,0,0-3.3-5.39q-16.21-12-32.76-23.63c-3.77-2.65-7.69-6.14-11.92-6.77C1128.18,426.23,1096.48,444.73,1096.44,446.94Zm29.31,7.53c-.18,1.09-2.91,2.9-3.4,2.61-4.21-2.51-8.17-5.42-12.65-8.52,3.57-2.19,6.22-3.92,9-5.48s5.61-3,8.8-4.65C1126.93,443.94,1126.6,449.25,1125.75,454.47Zm7.75-7.68c0-3.36.68-5.1.72-8.3L1167,461.68c-4.13,2.39-7.83,4-10.87,6.42-3.38,2.71-6,1.92-9-.31-3.74-2.78-7.54-5.5-11.46-8C1131.5,457.11,1132.93,452.09,1133.5,446.79Zm33.55,52.54c5,4.95,11.2,9.57,17.67,11.24,8.65,2.23,14.87-5.8,22.22-9.26A4.77,4.77,0,0,0,1209,494c-4.78-5.86-12.77-12-18.18-12-2.27.45-4.2.42-5.72,1.2a153.22,153.22,0,0,0-16.83,9.5C1166.91,493.66,1164.51,496.81,1167.05,499.33Zm-156.22-13.88c-5.18,2.6-11.88,5.57-15.26,8.38-2.61,2.16-3,6.24.62,9s7.49,5.52,11.25,8.26c3.58,2.61,7.13,2.82,11,.31,3.29-2.14,6.88-3.81,10.3-5.77,3.64-2.09,7-7.6,3.5-10.15-2.18-1.59-4.84-3.67-7.15-5-2.74-1.6-5-3.12-7.74-4.75A6.84,6.84,0,0,0,1010.83,485.45Z"/></g><g id="Thrusters"><path d="M428.23,397.91a3.35,3.35,0,0,0-.27,3,7.16,7.16,0,0,0,10.72,2.46c.62-.48,2.21-2,2.21-2.9a5.87,5.87,0,0,0-1.19-3.67C437.11,393,431.56,392.83,428.23,397.91ZM561.15,816.07c-5.46-2.4-10.51-2.25-14.65,1.77a10.37,10.37,0,0,0-1.15,5.47c1.75,6.64,7.73,10.54,16.22,2.83,1-.88,3.3-3.88,2.77-6A8.52,8.52,0,0,0,561.15,816.07ZM525.78,955.63a8.79,8.79,0,0,0-1.88,6.22c.71,6.56,6.64,6.89,14.71,1.92,1.11-.68,4.93-4.5,5-5.83s-.27-4.25-1.16-4.89C537.66,949.59,530.83,949.09,525.78,955.63ZM327.7,801.25c-5.94-1.53-12.91,2.51-13.86,6.38a13,13,0,0,0,0,4.08c1.82,5.83,7.78,6.2,12.64,4.07,1.06-.46,6.57-4.62,5.46-8.52C331.6,806.09,331.22,802.16,327.7,801.25Zm690.56-306.59c-6.12-2.39-10.88-1.21-14.66,1.77-1.3,1.61-1.56,3.09,0,4.32,2.71,3.32,6.38,5.6,14.05,1.63,1.16-.6,3.66-2.31,3.74-3.65S1019.28,495.06,1018.26,494.66Zm176.91-4.23c-6.93-1.84-11.77-.87-14.66,1.77-.88,1.08-3,3.67-1,5.86,2.25,2.12,6.64,3.38,14.47,1.53,1.27-.3,4.42-1.71,4.42-5.09C1198.35,493.13,1196.23,490.72,1195.17,490.43ZM984.46,339.32c-5.58-3.71-12.07-3.66-16.39.16-2.46,1.3-2.26,5,0,6.6,3.31,3.45,9.54,4.18,15.84,1,1.16-.6,3.66-2.31,3.74-3.65S985.38,339.93,984.46,339.32Zm-480,8.67c-.44,2.74,5.12,3.77,8.31,3.21s4.62-4.48,2.22-6.59S505.7,341.31,504.47,348Z" fill="#007aff"/></g></g></svg>