<svg xmlns="http://www.w3.org/2000/svg" viewBox="0 0 1500 1500"><title>Alliance Challenger</title><g id="Alliance_Challenger" data-name="Alliance Challenger"><g id="Colour"><path d="M1396.52,1080.8c-7.6-8.34-13.91-17.46-17.94-28.11a66.38,66.38,0,0,0-18-26.2c-6.47-5.85-12.5-12.21-18.55-18.51-2.67-2.78-4.88-6-7.25-9,1.12-1.73,1.92-3.16,2.91-4.45,2.58-3.39,2.66-6.67.4-10.37a133.76,133.76,0,0,1-6.3-12.05c-.52-1.09-.91-2.78-.43-3.73,2.14-4.24,4.62-8.31,7.08-12.62,3.56,2.13,7,3.93,10.13,6.12s5.53,1.54,8.14-.59c4-3.26,6.83-10.16,5.34-13.41-8.39-18.37-16.68-36.79-25.29-55.06-2.33-4.93-5.65-9.4-8.51-14.08a55.06,55.06,0,0,1-3.36-5.66c-1.48-3.28-1.91-7.34-4.13-9.92-9.67-11.27-19.82-22.13-29.81-33.12q-16.31-17.94-32.65-35.86c-15.51-17-31-34-46.62-50.85-9-9.72-18.4-19.18-27.8-28.56-5.15-5.14-10.73-9.86-16-14.86a3.16,3.16,0,0,1-.72-2.56c1.84-8.76,3.73-17.52,5.78-26.24a6.63,6.63,0,0,1,2.2-3.58c5.42-4.05,5.52-6.43-.41-9.58-7.88-4.18-122.48-56.24-133.32-62.64a11.3,11.3,0,0,0-2.83-.82c-2.71-.71-5.55-1.08-8.1-2.16-5.66-2.38-11.15-5.15-16.74-7.69-3.36-1.53-4.32-2-5.15-.21-.56,1.2,2.47,3.29,4.59,4.34,6.51,3.23,13.13,6.26,19.65,9.48,2.75,1.37,5.24,3.34,8.06,4.51,5.09,2.1,10.34,3.81,15.53,5.69-.1.33-3.5,4-3.59,4.31-7.29-.13-14.64-.75-21.3,3.27-.67.4-2.32-.37-3.27-1-6.26-4-12.19-8.64-18.72-12.13-23.23-12.41-46.54-24.66-70-36.54-13.85-7-28.07-13.29-42.21-19.7-6.87-3.12-13.95-5.78-20.26-8.37,2.45-6.24,4.79-12,6.93-17.76,1.16-3.16,2-6.45,2.93-9.68.86-2.86,1.54-5.8,2.61-8.59A17.28,17.28,0,0,0,888,485.84c-6.35-10.08-9.22-22.34-19.23-30.14-8.1-6.31-15.16-14.05-25.24-17.52a65,65,0,0,1-6.5-2.9c-7.75-3.64-15.35-7.66-23.29-10.82-4-1.57-8.83-.85-12.76-2.45-13.12-5.32-25.93-11.4-39-16.81-6.42-2.66-13.06-5.77-19.81-6.36-7.23-.63-14.1-1.28-20.59-4.69-2.55-1.34-5.35-2.19-8-3.34a18.58,18.58,0,0,0-14.27-.31c-5.16,1.86-10.31,3.78-15.83,5.8,1.33-5.61,2.52-10.55,3.66-15.51,1.47-6.36,3.07-12.62-1.59-18.61-2.36-3.05-3.85-6.75-5.87-10.08a18.25,18.25,0,0,0-2.85-3.37c-5.64-5.63-11.68-10.65-19.34-13.41-5.24-1.89-10.35-4.13-15.58-6-3.62-1.31-7.43-2.09-11-3.46-7.7-2.94-15.08-7.49-23-8.79a94.78,94.78,0,0,1-20.83-5.6,11.5,11.5,0,0,0-6.73-.14,127.36,127.36,0,0,0-13.56,4.49,3.69,3.69,0,0,0-1.92,2.77c0,3.18.38,6.37.68,10.26-3.86,3.55-5.23,8.53-2.75,14.35,1.71,4,3,7.88-1.22,11.29a3.61,3.61,0,0,0-1.27,2.58c.26,4.13.71,6.24,1.16,10.47-9.75,4.77-19.47,9.67-29.34,14.26-4,1.88-8.36,4.26-12.62,5.59a7.17,7.17,0,0,1-3.94-.17c-5.65-1.7-7.12-2.66-17.07-.54-.67.14-20.68,4.91-21.5,5.06-5.23,1-8.34,1.32-12.71.2-4-1-8.65-2.26-12.46-1.27-9.16,2.37-18,6-27,9.08a4.89,4.89,0,0,0-3.73,4.95c-.3,5.91-1.56,11.35-7.28,14.65a15,15,0,0,0-3.28,3.14c-3.64,4.08-7.48,7.19-13.48,7.83-5.27.57-46.35,10.93-61.63,14.71a16.59,16.59,0,0,1-14-2.37c-2.4-1.53-5.14-3.68-7.69-3.63-7.92.17-13.95-3.77-20.24-7.55-3.08-1.85-6.25-3.91-9.65-4.77a69.45,69.45,0,0,1-20.24-8.34c-2.54-1.59-5.12-1.54-7.91-.55-4.45,1.6-8.95,3.11-13.49,4.42-8.9,2.55-10.37,9.45-4.3,16.68-1.24,2.39-3,10-2.19,17.28.6,5.34,1,10.7,1.58,16a13.29,13.29,0,0,0,1,4.29c4.81,10.15,12.84,17.14,22.38,22.71,10.84,6.34,21.51,13,32.35,19.33a60.29,60.29,0,0,0,10.12,4.77c6,2.15,12.47,2.86,18,6.57,13.51,9,13.6,8.89,28.15,3.16a3.1,3.1,0,0,0,1-.51c1.28-1.24,3-2.31,3.68-3.83,3.81-8.83,7.64-17.6,7.49-27.62-.1-6.79-.1-12.63-1.73-20.18-.23-2.54,2.34-4.92,8.09-4.93,14,.52,26.37,1.07,40,1.58,2.92.1-3,8.9-8.41,11.4-3.57,1.67-5.2,4.58-4.87,8.16.61,6.41.22,13.2,5.26,18.09-.95,1.77-1.78,3.16-2.47,4.61-8.39,17.67-16.73,35.37-25.2,53a11.65,11.65,0,0,1-3.52,4.29c-12.35,8.91-24.81,17.65-37.2,26.5-7,5-8,4.56-3.48,13.13.09.18,0,.44,0,.75a5.11,5.11,0,0,1-.85.6c-17.21,8.18-34.4,16.39-51.67,24.43a5.31,5.31,0,0,1-4.35-.35c-7.63-4.85-15.5-9.46-22.53-15.1-4.67-3.74-10.1-3.35-14.63-3.16-5.77.25-11.4,3.8-17.08,6a.9.9,0,0,0-.52.53c-.77,4.54-5.24,4.83-8.11,6.89a4.23,4.23,0,0,1-3.78-.2c-7.47-4.87-14.71-10.1-22.24-14.88-5.26-3.35-10.56-7.46-16.41-8.83-5.33-1.25-9.3-4-13.63-6.58-2.48-1.48-4.75-3.33-7.25-4.78-3.59-2.08-7.18-3.9-11.64-2.18-10.27,4-20.7,7.54-30.93,11.6-8.74,3.47-11.41,9-9.27,18.11.46,2,.78,4.84,2.13,5.63,5,2.91,5.6,6.17,5.23,12.24,0,.48,0,1,0,1.51-.28,4.52-.55,9-.85,13.55-.72,10.91-1.69,21.8-2,32.72a16.52,16.52,0,0,0,2.7,9c10.19,15.33,23.28,28,37.52,40-.88.6-1.57,1.1-2.29,1.56-4.25,2.74-4.43,4.7-.54,7.71,6.47,5,13,10,19.53,14.92q33.36,25.39,66.78,50.72c1.06.81,3,1.54,4,1.14,6.77-2.54,13.42-5.4,20.55-8.33,6.38,5.11,12.71,10.29,19.17,15.29,2.28,1.77,4.74,3.12,7.95,1.64,8.77-4,17.64-7.86,26.42-11.86,1.22-.55,2.88-1.39,3.21-2.45,4-12.81,12.55-24,13.3-38,.54-10.24,1.82-20.44,2.95-30.64.38-3.46-1.17-6-2.86-8.7-4-6.31-7.87-12.67-12.13-19.55,3.8-.51,6.86-1,9.93-1.34,9.21-1.06,18.43-1.94,27.61-3.16,5.6-.75,5.55-1,4.8-6.61a28.51,28.51,0,0,1,0-3.6c14.23-2.81,28-5.51,41.82-8.26,8.28-1.66,16.45-3.84,25.09-2.73,13.53,1.72,27.08,3.28,40.65,4.53,13.87,1.27,27.78,2.11,41.68,3.09,11.65.81,23.32,1.37,34.95,2.39,4.55.39,9.58.7,13.4,2.83,13.6,7.56,26.83,15.81,40.06,24a14.11,14.11,0,0,1,5.07,5.63c10.18,21.29,19,43.23,31.12,63.58a5.23,5.23,0,0,1-.17,4.4c-4.64,8.34-9.35,16.65-14.38,24.76a17.39,17.39,0,0,1-6.13,5.77q-60,32.91-120.07,65.59c-5.71,3.13-11.93,5.84-16.69,10.1-6,5.35-10.63,12.12-15.9,18.24-6.67,7.73-13.38,15.43-19.87,22.9-4.86-3-9.43-5.47-13.68-8.43-5.47-3.8-10.73-7.91-16-12-2.64-2.07-4.95-4.57-7.58-6.66-1.53-1.21-3.51-1.84-5.09-3-6.36-4.71-12.59-9.61-19-14.26-2.18-1.58-4.87-1.83-6.8.5s-1.75,4.65.71,6.6c2,1.57,4,3.08,5.92,4.7a53.86,53.86,0,0,1,5.54,5c1.69,1.86,2.67,4.5,4.59,6,9.21,7.24,18.83,14,27.92,21.35s71.7,56.89,75.94,60q16.37,12.16,32.79,24.26c3.53,2.6,7.18,3.12,11.14.58a35,35,0,0,1,8.32-4.2c6.07-1.88,12.31-3.22,18.45-4.88q86.33-23.37,172.65-46.76c4.33-1.18,8.71-2.82,13.1-3,6.23-.2,12.48.92,18.73,1.25,7.43.39,14.87.46,22.29.85a53.43,53.43,0,0,1,8.13,1.25c13.57,2.82,27.13,5.63,40.66,8.62,5.94,1.31,12.4,1.94,17.57,4.8,22,12.12,43.64,24.93,65.32,37.63,1.68,1,103.34,58.57,105.52,59.77q17.85,9.78,35.84,19.29c5.52,2.92,11,6.21,16.91,8a41.78,41.78,0,0,1,9.88,4.13c6.64,4,13.1,8.57,20.15,11.76,12.2,5.52,24.78,10.2,37.22,15.18,2.25.9,4.18.92,5.87-1.57,2.6-3.85,5.73-7.36,8.54-11.08,1.39-1.83,2.92-2.3,5.22-1.79,7.16,1.57,14.34,3.12,21.58,4.24,11.24,1.75,22.54,3.11,33.81,4.7,2.18.31,45.43,4.61,50.76,4.88,11,.56,22,1.49,33,2.18,6,.37,12.09.47,18.12.82,7.14.41,11.67.54,21.41.4,5.8-.08,9-.4,9.61-4.25.77-4.77,4.87-6.24,7.82-8.4,3.65-2.68,8.68-3.43,12.45-6,6.32-4.28,13.15-8.48,17.89-14.26,6.72-8.19,11.79-17.75,17.46-26.79C1400.05,1087.38,1399.7,1084.3,1396.52,1080.8ZM245.81,811.94c-.32-.18-.16-.12,0,0ZM681.69,422.52c-2.55,8.05-1.14,16.26-1.4,24.38-.08,2.4-.61,3.73-3.15,4-4.47.56-9.34,4.31-9.65,8.51-.51,6.86-.14,13-.14,20.13-5.15-1.59-42.23-12.94-54.86-17.32-1.27-.43-2.91-1.54-3.21-2.65-.77-2.86-2.41-4-5.18-4.6-10-2.14-20-4.43-30.75-6.85-1.13-.25,11.43-6.58,11.9-10.39.71-5.67,1.29-15.75,1.62-16.29,6.3-10.57,12.66-21.11,19.09-31.79,7.32,3.66,14.41,7,21.33,10.74,3.55,1.9,6.67,4.61,10.22,6.52,1.86,1,4.27.95,6.36,1.62s4.18,1.22,5.74,2.5c7.2,5.95,14.66,6.56,22.66,1.79,1.48-.88,3.08-1.56,4.05-2.05,1.58,1.8,3.63,3.47,4.71,5.62A8.9,8.9,0,0,1,681.69,422.52Z" fill="#e6e6dd"/><path d="M1396.52,1080.8c-7.6-8.34-13.91-17.46-17.94-28.11a66.38,66.38,0,0,0-18-26.2c-6.47-5.85-12.5-12.21-18.55-18.51-2.67-2.78-4.88-6-7.25-9,1.12-1.73,1.92-3.16,2.91-4.45,2.58-3.39,2.66-6.67.4-10.37a133.76,133.76,0,0,1-6.3-12.05c-.52-1.09-.91-2.78-.43-3.73,2.14-4.24,4.62-8.31,7.08-12.62,3.56,2.13,7,3.93,10.13,6.12s5.53,1.54,8.14-.59c4-3.26,6.83-10.16,5.34-13.41-8.39-18.37-16.68-36.79-25.29-55.06-2.33-4.93-5.65-9.4-8.51-14.08a55.06,55.06,0,0,1-3.36-5.66c-1.48-3.28-1.91-7.34-4.13-9.92-9.67-11.27-19.82-22.13-29.81-33.12q-16.31-17.94-32.65-35.86c-15.51-17-31-34-46.62-50.85-9-9.72-18.4-19.18-27.8-28.56-5.15-5.14-10.73-9.86-16-14.86a3.16,3.16,0,0,1-.72-2.56c1.84-8.76,3.73-17.52,5.78-26.24a6.63,6.63,0,0,1,2.2-3.58c5.42-4.05,5.52-6.43-.41-9.58-7.88-4.18-122.48-56.24-133.32-62.64a11.3,11.3,0,0,0-2.83-.82c-2.71-.71-5.55-1.08-8.1-2.16-5.66-2.38-11.15-5.15-16.74-7.69-3.36-1.53-4.32-2-5.15-.21-.56,1.2,2.47,3.29,4.59,4.34,6.51,3.23,13.13,6.26,19.65,9.48,2.75,1.37,5.24,3.34,8.06,4.51,5.09,2.1,10.34,3.81,15.53,5.69-.1.33-3.5,4-3.59,4.31-7.29-.13-14.64-.75-21.3,3.27-.67.4-2.32-.37-3.27-1-6.26-4-12.19-8.64-18.72-12.13-23.23-12.41-46.54-24.66-70-36.54-13.85-7-28.07-13.29-42.21-19.7-6.87-3.12-13.95-5.78-20.26-8.37,2.45-6.24,4.79-12,6.93-17.76,1.16-3.16,2-6.45,2.93-9.68.86-2.86,1.54-5.8,2.61-8.59A17.28,17.28,0,0,0,888,485.84c-6.35-10.08-9.22-22.34-19.23-30.14-8.1-6.31-15.16-14.05-25.24-17.52a65,65,0,0,1-6.5-2.9c-7.75-3.64-15.35-7.66-23.29-10.82-4-1.57-8.83-.85-12.76-2.45-13.12-5.32-25.93-11.4-39-16.81-6.42-2.66-13.06-5.77-19.81-6.36-7.23-.63-14.1-1.28-20.59-4.69-2.55-1.34-5.35-2.19-8-3.34a18.58,18.58,0,0,0-14.27-.31c-5.16,1.86-10.31,3.78-15.83,5.8,1.33-5.61,2.52-10.55,3.66-15.51,1.47-6.36,3.07-12.62-1.59-18.61-2.36-3.05-3.85-6.75-5.87-10.08a18.25,18.25,0,0,0-2.85-3.37c-5.64-5.63-11.68-10.65-19.34-13.41-5.24-1.89-10.35-4.13-15.58-6-3.62-1.31-7.43-2.09-11-3.46-7.7-2.94-15.08-7.49-23-8.79a94.78,94.78,0,0,1-20.83-5.6,11.5,11.5,0,0,0-6.73-.14,127.36,127.36,0,0,0-13.56,4.49,3.69,3.69,0,0,0-1.92,2.77c0,3.18.38,6.37.68,10.26-3.86,3.55-5.23,8.53-2.75,14.35,1.71,4,3,7.88-1.22,11.29a3.61,3.61,0,0,0-1.27,2.58c.26,4.13.71,6.24,1.16,10.47-9.75,4.77-19.47,9.67-29.34,14.26-4,1.88-8.36,4.26-12.62,5.59a7.17,7.17,0,0,1-3.94-.17c-5.65-1.7-7.12-2.66-17.07-.54-.67.14-20.68,4.91-21.5,5.06-5.23,1-8.34,1.32-12.71.2-4-1-8.65-2.26-12.46-1.27-9.16,2.37-18,6-27,9.08a4.89,4.89,0,0,0-3.73,4.95c-.3,5.91-1.56,11.35-7.28,14.65a15,15,0,0,0-3.28,3.14c-3.64,4.08-7.48,7.19-13.48,7.83-5.27.57-46.35,10.93-61.63,14.71a16.59,16.59,0,0,1-14-2.37c-2.4-1.53-5.14-3.68-7.69-3.63-7.92.17-13.95-3.77-20.24-7.55-3.08-1.85-6.25-3.91-9.65-4.77a69.45,69.45,0,0,1-20.24-8.34c-2.54-1.59-5.12-1.54-7.91-.55-4.45,1.6-8.95,3.11-13.49,4.42-8.9,2.55-10.37,9.45-4.3,16.68-1.24,2.39-3,10-2.19,17.28.6,5.34,1,10.7,1.58,16a13.29,13.29,0,0,0,1,4.29c4.81,10.15,12.84,17.14,22.38,22.71,10.84,6.34,21.51,13,32.35,19.33a60.29,60.29,0,0,0,10.12,4.77c6,2.15,12.47,2.86,18,6.57,13.51,9,13.6,8.89,28.15,3.16a3.1,3.1,0,0,0,1-.51c1.28-1.24,3-2.31,3.68-3.83,3.81-8.83,7.64-17.6,7.49-27.62-.1-6.79-.1-12.63-1.73-20.18-.23-2.54,2.34-4.92,8.09-4.93,14,.52,26.37,1.07,40,1.58,2.92.1-3,8.9-8.41,11.4-3.57,1.67-5.2,4.58-4.87,8.16.61,6.41.22,13.2,5.26,18.09-.95,1.77-1.78,3.16-2.47,4.61-8.39,17.67-16.73,35.37-25.2,53a11.65,11.65,0,0,1-3.52,4.29c-12.35,8.91-24.81,17.65-37.2,26.5-7,5-8,4.56-3.48,13.13.09.18,0,.44,0,.75a5.11,5.11,0,0,1-.85.6c-17.21,8.18-34.4,16.39-51.67,24.43a5.31,5.31,0,0,1-4.35-.35c-7.63-4.85-15.5-9.46-22.53-15.1-4.67-3.74-10.1-3.35-14.63-3.16-5.77.25-11.4,3.8-17.08,6a.9.9,0,0,0-.52.53c-.77,4.54-5.24,4.83-8.11,6.89a4.23,4.23,0,0,1-3.78-.2c-7.47-4.87-14.71-10.1-22.24-14.88-5.26-3.35-10.56-7.46-16.41-8.83-5.33-1.25-9.3-4-13.63-6.58-2.48-1.48-4.75-3.33-7.25-4.78-3.59-2.08-7.18-3.9-11.64-2.18-10.27,4-20.7,7.54-30.93,11.6-8.74,3.47-11.41,9-9.27,18.11.46,2,.78,4.84,2.13,5.63,5,2.91,5.6,6.17,5.23,12.24,0,.48,0,1,0,1.51-.28,4.52-.55,9-.85,13.55-.72,10.91-1.69,21.8-2,32.72a16.52,16.52,0,0,0,2.7,9c10.19,15.33,23.28,28,37.52,40-.88.6-1.57,1.1-2.29,1.56-4.25,2.74-4.43,4.7-.54,7.71,6.47,5,13,10,19.53,14.92q33.36,25.39,66.78,50.72c1.06.81,3,1.54,4,1.14,6.77-2.54,13.42-5.4,20.55-8.33,6.38,5.11,12.71,10.29,19.17,15.29,2.28,1.77,4.74,3.12,7.95,1.64,8.77-4,17.64-7.86,26.42-11.86,1.22-.55,2.88-1.39,3.21-2.45,4-12.81,12.55-24,13.3-38,.54-10.24,1.82-20.44,2.95-30.64.38-3.46-1.17-6-2.86-8.7-4-6.31-7.87-12.67-12.13-19.55,3.8-.51,6.86-1,9.93-1.34,9.21-1.06,18.43-1.94,27.61-3.16,5.6-.75,5.55-1,4.8-6.61a28.51,28.51,0,0,1,0-3.6c14.23-2.81,28-5.51,41.82-8.26,8.28-1.66,16.45-3.84,25.09-2.73,13.53,1.72,27.08,3.28,40.65,4.53,13.87,1.27,27.78,2.11,41.68,3.09,11.65.81,23.32,1.37,34.95,2.39,4.55.39,9.58.7,13.4,2.83,13.6,7.56,26.83,15.81,40.06,24a14.11,14.11,0,0,1,5.07,5.63c10.18,21.29,19,43.23,31.12,63.58a5.23,5.23,0,0,1-.17,4.4c-4.64,8.34-9.35,16.65-14.38,24.76a17.39,17.39,0,0,1-6.13,5.77q-60,32.91-120.07,65.59c-5.71,3.13-11.93,5.84-16.69,10.1-6,5.35-10.63,12.12-15.9,18.24-6.67,7.73-13.38,15.43-19.87,22.9-4.86-3-9.43-5.47-13.68-8.43-5.47-3.8-10.73-7.91-16-12-2.64-2.07-4.95-4.57-7.58-6.66-1.53-1.21-3.51-1.84-5.09-3-6.36-4.71-12.59-9.61-19-14.26-2.18-1.58-4.87-1.83-6.8.5s-1.75,4.65.71,6.6c2,1.57,4,3.08,5.92,4.7a53.86,53.86,0,0,1,5.54,5c1.69,1.86,2.67,4.5,4.59,6,9.21,7.24,18.83,14,27.92,21.35s71.7,56.89,75.94,60q16.37,12.16,32.79,24.26c3.53,2.6,7.18,3.12,11.14.58a35,35,0,0,1,8.32-4.2c6.07-1.88,12.31-3.22,18.45-4.88q86.33-23.37,172.65-46.76c4.33-1.18,8.71-2.82,13.1-3,6.23-.2,12.48.92,18.73,1.25,7.43.39,14.87.46,22.29.85a53.43,53.43,0,0,1,8.13,1.25c13.57,2.82,27.13,5.63,40.66,8.62,5.94,1.31,12.4,1.94,17.57,4.8,22,12.12,43.64,24.93,65.32,37.63,1.68,1,103.34,58.57,105.52,59.77q17.85,9.78,35.84,19.29c5.52,2.92,11,6.21,16.91,8a41.78,41.78,0,0,1,9.88,4.13c6.64,4,13.1,8.57,20.15,11.76,12.2,5.52,24.78,10.2,37.22,15.18,2.25.9,4.18.92,5.87-1.57,2.6-3.85,5.73-7.36,8.54-11.08,1.39-1.83,2.92-2.3,5.22-1.79,7.16,1.57,14.34,3.12,21.58,4.24,11.24,1.75,22.54,3.11,33.81,4.7,2.18.31,45.43,4.61,50.76,4.88,11,.56,22,1.49,33,2.18,6,.37,12.09.47,18.12.82,7.14.41,11.67.54,21.41.4,5.8-.08,9-.4,9.61-4.25.77-4.77,4.87-6.24,7.82-8.4,3.65-2.68,8.68-3.43,12.45-6,6.32-4.28,13.15-8.48,17.89-14.26,6.72-8.19,11.79-17.75,17.46-26.79C1400.05,1087.38,1399.7,1084.3,1396.52,1080.8ZM245.81,811.94c-.32-.18-.16-.12,0,0ZM681.69,422.52c-2.55,8.05-1.14,16.26-1.4,24.38-.08,2.4-.61,3.73-3.15,4-4.47.56-9.34,4.31-9.65,8.51-.51,6.86-.14,13-.14,20.13-5.15-1.59-42.23-12.94-54.86-17.32-1.27-.43-2.91-1.54-3.21-2.65-.77-2.86-2.41-4-5.18-4.6-10-2.14-20-4.43-30.75-6.85-1.13-.25,11.43-6.58,11.9-10.39.71-5.67,1.29-15.75,1.62-16.29,6.3-10.57,12.66-21.11,19.09-31.79,7.32,3.66,14.41,7,21.33,10.74,3.55,1.9,6.67,4.61,10.22,6.52,1.86,1,4.27.95,6.36,1.62s4.18,1.22,5.74,2.5c7.2,5.95,14.66,6.56,22.66,1.79,1.48-.88,3.08-1.56,4.05-2.05,1.58,1.8,3.63,3.47,4.71,5.62A8.9,8.9,0,0,1,681.69,422.52Z" fill="none" stroke="#000" stroke-linejoin="round" stroke-width="8"/></g><g id="_2nd_Colour" data-name="2nd Colour"><path d="M1047,894.36l-42.45-25.27-80.36-27.82L775.46,786.7l-125-70.34-30.39-78.75-5.38-40.75-5,.32L592,612.12,584.36,653l2.68,6.56L625.5,687.4l3,9.08-3,2.34-40.45-6.64-28.72,9,32.2,26,38.32,70.6-18.7,34.57-35.93,16.78L465.52,910.3l-35.35,40.12-4.25,10.48L431.79,972l80.66,59,5.88,2.74,9.89-5.38,201.36-52.95,15.17-1,35.5,1.83L849,991l69.23,41.1,146.43,82.23,46.35,1.52,22.22-42.38-22.22-44,25.5-29.73,19.89-12.56-13.68-13.65Zm211.68,171.17L1247,1023.6l-16.63,8.47-4.12-3.18-60.8-29.55,28.2,42.6,2.64,11.6-34.39,59.06-1.59,21,63,9.27,109,8.11,27.1-35.2Zm-130.19-377,55.06,70.68,85.76,105.34,25.22,45.31,19,45.62,4.24-.67L1303.54,908l-2.53-22.4L1321.74,873l-1.7-6.52L1216.81,751.9l-51.89-52.26,6.52-31.95-101-55.57-30.39,4.62-8.34,3.51,64,37.72Z" fill="#4f4f27"/></g><g id="Grey"><path d="M626,858.44l-63.89,32.8L614,929.74s86.53-20.9,89.1-21.1S626,858.44,626,858.44ZM135.34,601.56s-38.31,14-38.69,15c-2.15,5.56-.37,15.72-.37,15.72,2.24,5.18,20.36,5.36,20.36,5.36l44.18-21.08ZM243.87,781.21l-4.46-24.72-11.86-4.59c0,.19,2.33,25.12,2.33,25.12l12.45,7.7ZM136.8,750.62l87.62,66.73L249,809.79,142.49,740.9Zm284.25-178-18-8-27.49,10.72L364.5,598.64l42.9,18.7,23.47-26.53-11-4.7Zm169.5,42.17L548.2,573.52,540,603.86l46.45,51.43ZM249,632l-32,3.3-8.95,6.05-24.51,27.88,3.68,14.66,17.23,20,39.42,25.47,3.41,1.78-3.41,10.52,11,62.15L275,821.39l21.4-11.6,16.73-27.92,2.41-40.09-22.06-33.84,31.38-25Zm93.14-171c-5.42-3.93-29.89-19.09-29.89-19.09l-71.73-16.07-3.62,6.69,3.62,5.15,5.18,1.1,9.35-5.5,33.74,18.15,3.1,7.88s27.88,17.44,27.88,18.26S326.92,524,326.92,524s28.6-14.48,29-15a80.16,80.16,0,0,0,1.53-15.36,119.1,119.1,0,0,0-1.53-17.46S344.53,462.73,342.14,461Zm149.23-26.12L541,470.35h5.73l23.73-9.22-18.39-20.8-7.54-21L497.05,403l-16.68-5.68-15.95-3.49L437.25,405l-24,19.05,28.23,15.65,6.24-7.25V422.22l-17.24-9.84,6.75-4.67Zm46-38L522.35,392l49.74-25.8,45.23,15.9,10.31,14,28.93,14.78,24.45-17,5.91-25.1-12.71-21.58-43.63-18.75L572,315.57l-4.87,1.65,1.88,48.87-49.2,24.74-12.53-3.27-7.65,3.9,28,8.29ZM756.47,520.72,612,475.52l-22.33,9.75,137.66,46.8,5.32,9.43s76.14,37,77.12,37,43.69-20.27,43.69-20.27l-78-36.38ZM676.35,404.16l7.7,16.09-.79,36.3L705,480.38l69.67,29.16,31.93-2.2s31.53,17.57,32.05,17.76c6.19,2.19,34.07,6.59,34.07,5.9s13.52-33.93,13.52-33.93L872,461.13l-25.3-19.37s-31-14.54-39.46-15.46l-17.35-1.1s-18.87,7.7-19.53,7.7S685,399.35,685,399.35Zm69.46,257.22-14.76-1.79,24.14,65,68.28,57.6-8.7-73.78Zm164.4,38.09,8-6.05-33.23-31-48.42,36s38,26,40.91,27.63c-1.4,0-9.25,8.3-9.25,8.3l51,28.3,13.4-2.69s-7.49-7.46-8.51-7.55-43.55-32.22-43.55-32.22l9.53-6.17s53.84,41.69,54.6,40.82,19.1-17.74,18.37-18.1S910.21,699.47,910.21,699.47Zm118.33-27.13-56.65,29.33,1.65,32.27,1.14,1.6,21.47-19.18,54.39-30.2Zm-17.33-66.19L972.8,617.22l37,28.72,6.09-1.84,53,36.27,15.4-6.8ZM899.1,784.27l-10.81,33.45,5,4.58,23.46-35.75-9.71-4.4ZM840,905.9l-2.83,48.4,59.76,24.76,2.48-33.59L887.19,926.8Zm190,117.7-8.61,25.61,23.46,14,5.87-12.52v-10.45l-17.42-18.42Zm62.34,76.69L1114,1054.4s-5.13-3.48-5.68-3.48-7.52,2.38-13.75,8.29-16,36.44-16,37Zm57.78-109.79-18.38,14L1111,1029.4l22.22,44L1111,1115.82h-35.9l6.77,5.71,47.5,22.71h8.31l22.81-28,35.25-61.79v-7.21l-34.65-47.85Zm176.14-112.83-7.7-1.83-15.75,9.79.91,28.07,14,41.15L1313,956.5l-26.7-21-12.1.87L1206,879.12l-10.26,2.81-8.75,8.81,49.63,69.53,1.28,6.81-3.46,4.25-6.44,45.2-2,3.52h-5.69s-2.93,2.64-2.2,2.82,12.31,9.2,12.31,9.2h3.83l12.8-8.47,26.25-20.71,60.58-44.55,21-12.48Zm-594.54-70-23.39,1.56L698,830.6v16l67.34,40.48,1.59-54.79-26.77-24.65Z" fill="#636363"/></g><g id="Detail"><polygon points="628.45 527.92 541.35 491.83 513.83 499.83 611.28 586.23 641.16 563.25 628.45 527.92" fill="#ff7100"/></g><g id="Canopy"><polygon points="1361.29 1032.07 1311.05 976.3 1275.12 1001.54 1250.56 1019.56 1256.56 1048.21 1258.63 1061.02 1359.45 1112.6 1381.82 1093.09 1389.52 1078.32 1361.29 1032.07" fill="#82b3d1"/></g><g id="Shadows" opacity="0.2"><path d="M265.25,732.38l1.46,30.53-2.46,9.34-7.36-31.35L92.55,622.09,94.82,632l6,5.62-3.21,59.83L135.34,739l-1.62,13.44,90.7,66.5,21.2-9.16,25.84,13.5,26.93-11.46,11.4-29,1.91-35.51-18.05-24Zm899.94,370.78-4.54-16.2-25.23-39.31-9.77-9.63L925.58,908.64s-80.87-40.9-102.11-52.3-44.36-32.05-44.36-32.05l-61.4-72.39L592,617.34l-42.21-43L443,482.18l-26.86-2.6-18.48,16,5.38,18.92h18l55.18,37.45s59.7,117,41.66,113.95-52.8,0-52.8,0L336.08,692l7,10,71.18-13,131.33,8.5,44.93,31.06,35,63L605.44,830.6l32,13.41s103,67.17,133.1,85.73,28.07,31.57,28.07,31.57l-67.55,11.52,112.66,16.55,47.57,30.67,147.21,83.11,88.49,42.3,8.44.31,28.07-34.83ZM237.88,438.9,241,475.52l72.34,44,17,5.61,3.35-12.77-2-20.7ZM625.5,391.51l37,20.87,6.91-33.21-3.13-14.12L567.64,329v17.11L612,373.49Zm176.1,114.3,47.79,23.69,4.06-35.65L683.26,418.6,681,432.1l2.31,21.73Zm0,106.63,36.18,19.95,49.48,9-85.66-57.83ZM970.2,729c0-.58,1.69-29,1.69-29s-70-42.44-76.38-45-9.13-.18-4,4.71S970.2,729.53,970.2,729ZM846.63,772.5C849.89,777,888.29,823,888.29,823l8.83-36.69s-46.48-17.72-50.49-19.64S843.38,768,846.63,772.5ZM1300,925.65l10.47,27.1,14.44,11.13,9.74-10-28-59.83-37.41-35.33,5.86,12.78Zm47.63,139.88-74.37-62.64-15.51,13.64-6.13.08,10.49-7.82L1235,972.25l-18.87,47.8-50.66-20.71,33.26,48.31-46.09,84.14,46.09,11.12,107.92,7.49,31.1.25,21.68-31.15Z" fill="#0c0c0c"/></g><g id="Outline"><path d="M1396.52,1080.8c-7.6-8.34-13.91-17.46-17.94-28.11a66.38,66.38,0,0,0-18-26.2c-6.47-5.85-12.5-12.21-18.55-18.51-2.67-2.78-4.88-6-7.25-9,1.12-1.73,1.92-3.16,2.91-4.45,2.58-3.39,2.66-6.67.4-10.37a133.76,133.76,0,0,1-6.3-12.05c-.52-1.09-.91-2.78-.43-3.73,2.14-4.24,4.62-8.31,7.08-12.62,3.56,2.13,7,3.93,10.13,6.12s5.53,1.54,8.14-.59c4-3.26,6.83-10.16,5.34-13.41-8.39-18.37-16.68-36.79-25.29-55.06-2.33-4.93-5.65-9.4-8.51-14.08a55.06,55.06,0,0,1-3.36-5.66c-1.48-3.28-1.91-7.34-4.13-9.92-9.67-11.27-19.82-22.13-29.81-33.12q-16.31-17.94-32.65-35.86c-15.51-17-31-34-46.62-50.85-9-9.72-18.4-19.18-27.8-28.56-5.15-5.14-10.73-9.86-16-14.86a3.16,3.16,0,0,1-.72-2.56c1.84-8.76,3.73-17.52,5.78-26.24a6.63,6.63,0,0,1,2.2-3.58c5.42-4.05,5.52-6.43-.41-9.58-7.88-4.18-122.48-56.24-133.32-62.64a11.3,11.3,0,0,0-2.83-.82c-2.71-.71-5.55-1.08-8.1-2.16-5.66-2.38-11.15-5.15-16.74-7.69-3.36-1.53-4.19-1.29-5.15-.21-1.24,1.37,2.47,3.29,4.59,4.34,6.51,3.23,13.13,6.26,19.65,9.48,2.75,1.37,5.24,3.34,8.06,4.51,5.09,2.1,10.34,3.81,15.53,5.69-.1.33-3.5,4-3.59,4.31-7.29-.13-14.64-.75-21.3,3.27-.67.4-2.32-.37-3.27-1-6.26-4-12.19-8.64-18.72-12.13-23.23-12.41-46.54-24.66-70-36.54-13.85-7-28.07-13.29-42.21-19.7-6.87-3.12-13.95-5.78-20.26-8.37,2.45-6.24,4.79-12,6.93-17.76,1.16-3.16,2-6.45,2.93-9.68.86-2.86,1.54-5.8,2.61-8.59A17.28,17.28,0,0,0,888,485.84c-6.35-10.08-9.22-22.34-19.23-30.14-8.1-6.31-15.16-14.05-25.24-17.52a65,65,0,0,1-6.5-2.9c-7.75-3.64-15.35-7.66-23.29-10.82-4-1.57-8.83-.85-12.76-2.45-13.12-5.32-25.93-11.4-39-16.81-6.42-2.66-13.06-5.77-19.81-6.36-7.23-.63-14.1-1.28-20.59-4.69-2.55-1.34-5.35-2.19-8-3.34a18.58,18.58,0,0,0-14.27-.31c-5.16,1.86-10.31,3.78-15.83,5.8,1.33-5.61,2.52-10.55,3.66-15.51,1.47-6.36,3.07-12.62-1.59-18.61-2.36-3.05-3.85-6.75-5.87-10.08a18.25,18.25,0,0,0-2.85-3.37c-5.64-5.63-11.68-10.65-19.34-13.41-5.24-1.89-10.35-4.13-15.58-6-3.62-1.31-7.43-2.09-11-3.46-7.7-2.94-15.08-7.49-23-8.79a94.78,94.78,0,0,1-20.83-5.6,11.5,11.5,0,0,0-6.73-.14,127.36,127.36,0,0,0-13.56,4.49,3.69,3.69,0,0,0-1.92,2.77c0,3.18.38,6.37.68,10.26-3.86,3.55-5.23,8.53-2.75,14.35,1.71,4,3,7.88-1.22,11.29a3.61,3.61,0,0,0-1.27,2.58c.24,3.83.74,7.64,1.16,11.57-9.75,4.77-19.47,9.67-29.34,14.26a101.15,101.15,0,0,1-12.62,4.49,7.17,7.17,0,0,1-3.94-.17c-5.65-1.7-8.22-2.9-17.07-.54-.66.17-16.23,4.3-18.94,4.5a13.4,13.4,0,0,0-2.56.56,22.14,22.14,0,0,1-12.71.2c-4-1-8.65-2.26-12.46-1.27-9.16,2.37-18,6-27,9.08a4.89,4.89,0,0,0-3.73,4.95c-.3,5.91-1.56,11.35-7.28,14.65a15,15,0,0,0-3.28,3.14c-3.64,4.08-7.48,7.19-13.48,7.83-5.27.57-46.35,10.93-61.63,14.71a16.59,16.59,0,0,1-14-2.37c-2.4-1.53-5.14-3.68-7.69-3.63-7.92.17-13.95-3.77-20.24-7.55-3.08-1.85-6.25-3.91-9.65-4.77a69.45,69.45,0,0,1-20.24-8.34c-2.54-1.59-5.12-1.54-7.91-.55-4.45,1.6-8.95,3.11-13.49,4.42-8.9,2.55-10.37,9.45-4.3,16.68-1.24,2.39-2.46,9.5-2.44,12.24a157,157,0,0,0,1.83,21.08,15.48,15.48,0,0,0,1,4.29c4.81,10.15,12.84,17.14,22.38,22.71,10.84,6.34,21.51,13,32.35,19.33a60.29,60.29,0,0,0,10.12,4.77c6,2.15,12.47,2.86,18,6.57,13.51,9,13.6,8.89,28.15,3.16a3.1,3.1,0,0,0,1-.51c1.28-1.24,3-2.31,3.68-3.83,3.81-8.83,7.64-17.6,7.49-27.62-.1-6.79,1.13-10.23-1.73-20.18.32-2.25,1.42-4.92,8.09-4.93l39.48,1.46c3.53.13-2.5,9-7.87,11.52-3.57,1.67-5.2,4.58-4.87,8.16.61,6.41.22,13.2,5.26,18.09-.95,1.77-1.78,3.16-2.47,4.61-8.39,17.67-16.73,35.37-25.2,53a11.65,11.65,0,0,1-3.52,4.29c-12.35,8.91-24.81,17.65-37.2,26.5-7,5-8,4.56-3.48,13.13.09.18,0,.44,0,.75a5.11,5.11,0,0,1-.85.6c-17.21,8.18-34.4,16.39-51.67,24.43a5.31,5.31,0,0,1-4.35-.35c-7.63-4.85-15.5-9.46-22.53-15.1-4.67-3.74-10.1-3.35-14.63-3.16-5.77.25-11.4,3.8-17.08,6a.9.9,0,0,0-.52.53c-.77,4.54-5.24,4.83-8.11,6.89a4.23,4.23,0,0,1-3.78-.2c-7.47-4.87-14.71-10.1-22.24-14.88-5.26-3.35-10.56-7.46-16.41-8.83-5.33-1.25-9.3-4-13.63-6.58-2.48-1.48-4.75-3.33-7.25-4.78-3.59-2.08-7.18-3.9-11.64-2.18-10.27,4-20.7,7.54-30.93,11.6-8.74,3.47-11.41,9-9.27,18.11.46,2,.78,4.84,2.13,5.63,5,2.91,5.79,4.8,5.23,12.24,0,.48-2.56,36.86-2.9,47.78a16.52,16.52,0,0,0,2.7,9c10.19,15.33,23.28,28,37.52,40-.88.6-1.57,1.1-2.29,1.56-4.25,2.74-4.43,4.7-.54,7.71,6.47,5,13,10,19.53,14.92q33.36,25.39,66.78,50.72c1.06.81,3,1.54,4,1.14,6.77-2.54,13.42-5.4,20.55-8.33,6.38,5.11,12.71,10.29,19.17,15.29,2.28,1.77,4.74,3.12,7.95,1.64,8.77-4,17.64-7.86,26.42-11.86,1.22-.55,2.88-1.39,3.21-2.45,4-12.81,12.55-24,13.3-38,.54-10.24,1.82-20.44,2.95-30.64.38-3.46-1.17-6-2.86-8.7-4-6.31-7.87-12.67-12.13-19.55,3.8-.51,6.86-1,9.93-1.34,9.21-1.06,18.43-1.94,27.61-3.16,5.6-.75,5.55-1,4.8-6.61a28.51,28.51,0,0,1,0-3.6c14.23-2.81,28-5.51,41.82-8.26,8.28-1.66,16.45-3.84,25.09-2.73,13.53,1.72,27.08,3.28,40.65,4.53,13.87,1.27,27.78,2.11,41.68,3.09,11.65.81,23.32,1.37,34.95,2.39,4.55.39,9.58.7,13.4,2.83,13.6,7.56,26.83,15.81,40.06,24a14.11,14.11,0,0,1,5.07,5.63c10.18,21.29,19,43.23,31.12,63.58a5.23,5.23,0,0,1-.17,4.4c-4.64,8.34-9.35,16.65-14.38,24.76a17.39,17.39,0,0,1-6.13,5.77q-60,32.91-120.07,65.59c-5.71,3.13-11.93,5.84-16.69,10.1-6,5.35-10.63,12.12-15.9,18.24-6.67,7.73-13.38,15.43-19.87,22.9-4.86-3-9.43-5.47-13.68-8.43-5.47-3.8-10.73-7.91-16-12-2.64-2.07-4.95-4.57-7.58-6.66-1.53-1.21-3.51-1.84-5.09-3-6.36-4.71-12.59-9.61-19-14.26-2.18-1.58-4.87-1.83-6.8.5s-1.75,4.65.71,6.6c2,1.57,4,3.08,5.92,4.7a53.86,53.86,0,0,1,5.54,5c1.69,1.86,2.67,4.5,4.59,6,9.21,7.24,18.83,14,27.92,21.35s71.7,56.89,75.94,60q16.37,12.16,32.79,24.26c3.53,2.6,7.18,3.12,11.14.58a35,35,0,0,1,8.32-4.2c6.07-1.88,12.31-3.22,18.45-4.88q86.33-23.37,172.65-46.76c4.33-1.18,8.71-2.82,13.1-3,6.23-.2,12.48.92,18.73,1.25,7.43.39,14.87.46,22.29.85a53.43,53.43,0,0,1,8.13,1.25c13.57,2.82,27.13,5.63,40.66,8.62,5.94,1.31,12.4,1.94,17.57,4.8,22,12.12,43.64,24.93,65.32,37.63,1.68,1,103.34,58.57,105.52,59.77q17.85,9.78,35.84,19.29c5.52,2.92,11,6.21,16.91,8a41.78,41.78,0,0,1,9.88,4.13c6.64,4,13.1,8.57,20.15,11.76,12.2,5.52,24.78,10.2,37.22,15.18,2.25.9,4.18.92,5.87-1.57,2.6-3.85,5.73-7.36,8.54-11.08,1.39-1.83,2.92-2.3,5.22-1.79,7.16,1.57,14.34,3.12,21.58,4.24,11.24,1.75,22.54,3.11,33.81,4.7,2.18.31,45.43,4.61,50.76,4.88,11,.56,22,1.49,33,2.18,6,.37,12.09.47,18.12.82,7.14.41,13.39.54,21.41.4,5.8-.1,9-.4,9.61-4.25.77-4.77,4.87-6.24,7.82-8.4,3.65-2.68,8.68-3.43,12.45-6,6.32-4.28,13.15-8.48,17.89-14.26,6.72-8.19,11.79-17.75,17.46-26.79C1400.05,1087.38,1399.7,1084.3,1396.52,1080.8Zm-35.34-44.15c5.84,5.9,5.85,6.84-.75,11.86-4,3-8.16,5.8-12.17,8.79-2.85,2.13-5.22.79-7.29-1-9.3-8.14-18.5-16.4-27.75-24.61l-18.87-16.74c8.28-6.26,16.17-12.31,24.19-18.17a3.53,3.53,0,0,1,3.38.32C1335.07,1010.2,1348.11,1023.45,1361.18,1036.65Zm-226,33.81c-5.3-10.92-11.07-21.62-16.69-32.44,9.4,3.58,14,11.61,19.07,19.23l17.44,26.37c.4.61.68,1.3,1.35,2.6-5.78-.3-11.08-.43-16.36-.89-3-.26-4.61.84-5.68,3.6s-2.64,5.33-4.18,8.37l-3.71-2.74c3-5.66,6.13-11.09,8.63-16.8A9.81,9.81,0,0,0,1135.22,1070.46Zm-7.46-114.58-1.55.15c-13-10.6-25.9-21.29-39-31.77-14.36-11.5-28.48-23.34-43.46-34-11.11-7.9-23.41-14.11-35.6-21.31l60.31-56.9c11.71,12.28,23.43,24.5,35.07,36.79,9.56,10.1,19,20.28,28.54,30.44,1.64,1.75,3.15,3.62,4.82,5.33,3.41,3.49,5.95,3.69,9.94,1,4.15-2.83,8.32-5.64,12.78-8.66,4.88,6.5,9.72,12.89,14.5,19.31,17.44,23.43,34.78,46.93,52.34,70.26,4.28,5.68,4.27,12,3.63,18.33-.88,8.81-2.33,17.56-3.58,26.33-.26,1.84-.66,3.66-1.08,5.89-4.13-.28-8.24-.45-12.32-.89-2.59-.28-1.72-2.29-1.28-3.71,3-9.77,6.1-19.52,9.17-29.28.26-.83.54-1.71.8-2.48,1.51-4.44.78-7.29-2-10.4q-26.49-29.92-52.87-59.92c-1.94-2.22-3.55-2.34-5.76-.76q-15.36,11-30.78,21.85a5.71,5.71,0,0,0-2.73,5.35C1127.88,943.16,1127.76,949.53,1127.76,955.88ZM966.3,826.12c-7.76-4.61-15.64-9-23.8-13.67,3.83-3.52,7.37-6.93,11.13-10.05.61-.51,2.52-.12,3.4.48,6.13,4.18,12.15,8.51,18.21,12.8.41.29,2.28,1.19,2.67,1.4a3.1,3.1,0,0,0,3.6-.43c1.75-1.92,0-3.58-1.74-4.87-8-6-16.08-12.13-24.31-18.35,4.53-8.55,21.49-40.07,23-42.52,1.86-3,2-5.91.13-8.84-1.3-2-1.09-3.51.78-5.19,2.63-2.35,5-5,7.7-7.92,13.11,12.74,25.78,25.08,38.48,37.41q3.66,3.55,7.46,7c2.07,1.87,4.07,3.52,3.75,6.89-.11,1.18,1.58,2.71,2.71,3.8,7.92,7.63,15.92,15.17,23.86,22.77a10.71,10.71,0,0,1,1.31,2L1026,845.32c-7,6.59-13.91,13.25-21,19.73-1,.91-3,1.71-4.09,1.32-16.24-5.76-32.4-11.73-48.85-17.75,1.38-3.46-.32-5-3.43-6-9.68-3.35-19.29-6.91-29.37-10.55l13.08-11.67c9.36,4.31,18.57,8.54,27.76,12.79,2.79,1.29,7.69-.67,8.19-3.65C968.45,828.49,967.32,826.73,966.3,826.12Zm139.48-124.3c-.77-2-1.55-4-2.37-6-.88-2.17-2-4.25-3.38-7.21,6,0,22.11,1.55,22.74,1.55,5.4,0,6.69,2.94,10.51,8.74.47.71.94,1.45,1.7,2.67-7.12,1.08-14,2.05-20.89,3.22a22.88,22.88,0,0,0-3.49,1,3.43,3.43,0,0,0-2.32,3.9,1.45,1.45,0,0,0,.34.69c6.82,6.76,13.7,13.47,20.8,19.94,1,.9,3.1,1,4.94.57,1.41-.45.22-1.66-.65-2.7-2.62-3.15-7.34-7.71-10.13-10.72s-7-6.92-6.78-7.38,6.14-1.35,6.87-1.51c2.15-.47,1.8,0,3.36,1.22s15.51,18.35,17.65,18.22c2.66-.15,2.66-.56,2.83-1.75s-1.42-2.47-2.89-4.17A185.4,185.4,0,0,1,1133,707.54c-.93-1.29,3.44-1.88,4.44-2,1.93-.28,2.71.45,3.58,1.78,5.83,6.83,29.77,41.35,37.39,51.84-14.64,2.56-28.9,5.08-43.19,7.48a4.1,4.1,0,0,1-2.91-1.06c-8.72-7.85-17.3-15.86-26.11-23.62-2.14-1.89-5.29-2.64-7.41-4.54-15.39-13.79-30.64-27.75-46.31-42,4.39-.65,6.41-1.25,10.84,2.85,1.71,1.58,4.79,2.34,7.39,2.86,10,2,20,3.83,30,5.55a8.39,8.39,0,0,0,1.82.09A3.64,3.64,0,0,0,1105.78,701.82Zm-39.33-49.29c-5.74-4.95-11.42-10-16.87-15.29a.39.39,0,0,1,.48-.61l44,28.18a67.91,67.91,0,0,1-6.32,4.08c-.65.33-2.08-.16-2.77-.73Q1075.62,660.44,1066.45,652.53Zm12.3,17.39c-4.73,3.12-12.46,3.49-16.45-.52-3.6-3.63-22.38-19.64-26.51-22.87,1.86-1,7.48-2.78,9.68-4C1051.56,647.09,1072.32,665.09,1078.75,669.92Zm-5.61-27.18a.5.5,0,0,1,.3-.93c5.46.69,10.09-.19,11.87-4.79l59.09,31.53-2.28,10.36Zm64,40.08a63.65,63.65,0,0,1-7.53,2,5.13,5.13,0,0,1-3.71-1c-5.43-5-10.74-10.06-15.8-15.52a.39.39,0,0,1,.48-.61Zm109.51,182.36c-1.26.19-2.87,2-3.22,3.29-.54,2.09-.14,4.42-.14,6.47l-7.86-7.86c4.38-2.76,8.46-5.38,12.63-7.88a3.88,3.88,0,0,1,2.37,0,5.2,5.2,0,0,1,1.68.84c5.63,3.38,12.21,5.86,16.6,10.43s6.88,11.32,10,17.23c7.63,14.63,15.12,29.33,22.68,44a.75.75,0,0,1-1.2.88l-46.37-46c3.68.33,6.14.63,8.61.76,2.64.15,3.85-1.18,4-3.85C1266.84,874,1256,863.72,1246.63,865.18ZM1253,854.7a7.15,7.15,0,0,0-8.09.32c-4.49,3-9.09,5.86-13.7,8.69-2.66,1.63-2.64,3.21-.5,5.38,11.73,11.88,23.38,23.84,35.07,35.76q19.13,19.51,38.25,39a33.89,33.89,0,0,1,2.3,2.89c.83,1,.08,2-1.09,1L1195.58,854c4-2.46,7.5-4.59,11-6.79,4.27-2.71,4.6-4.86,1.11-8.32q-29.28-29-58.63-57.86c-3.22-3.17-6.63-6.15-10.58-9.8,4.69-.88,8.62-1.68,12.58-2.34,10.73-1.79,21.53-3.29,32.1-5.74.45.57.94,1.19,1.51,1.87,14.53,17.43,46,56.64,60.73,73.93,5.72,6.72,11.41,13.45,16.85,20.64C1259.14,857.93,1256,856.36,1253,854.7Zm66.88,109.55c-26.82,24.31-59.52,40.93-86.85,65.21-3.41-2.43-6.62-4.71-10.58-7.51,6.73-.18,7.18-.11,8.38-7.7,1.82-11.47,3-23,4.36-34.57,0-.38,0-.78,0-1.13.25-5,1.39-7.8,4.86-10.65a354.11,354.11,0,0,1,41.73-29.8c1.89-1.14,2.93-1.14,4.55.13C1297.38,946.89,1308.52,955.47,1319.87,964.25Zm-.3-12.64c-4.82-18.39-13.18-35.31-14.56-54.2a.42.42,0,0,1,.8-.2c2.26,5,4.5,9.95,6.81,14.9,4.46,9.54,8.91,19.08,13.49,28.56.92,1.9.84,3.15-.74,4.62C1323.45,947.07,1321.8,949.15,1319.57,951.61Zm-86.09,83.11,8.15-5.83c6.88,21.32,13.69,42.45,20.51,63.59-5.87,1.21-6,1.2-8.85-3.81-7.06-12.43-14.07-24.89-21.35-37.77C1240.54,1046.4,1235,1040.36,1233.48,1034.72Zm19-11.12c4.07,2.91,9.33,11.39,12.28,13.5l-7.07,7.86C1256.58,1039.77,1253.66,1029,1252.49,1023.6Zm5.29-3.61a38.7,38.7,0,0,1,7-8.24,79.69,79.69,0,0,1,7.39-5.91l8.57,7.68c-5.13,6-8.11,9.56-13.46,15.88C1263.83,1025.56,1257.78,1020,1257.78,1020Zm21.37-18.46,7.28-5.25c6-4.32,12-8.69,18-12.86a3.69,3.69,0,0,1,3.39.07,76.69,76.69,0,0,1,6.35,5.49l-26.61,19.81Zm-153.69-157.7c-17.38-12.86-35.14-25.26-52-38.74-10.32-8.25-19.31-18.17-29.23-27.65,8.52-5.07,16.62-10,24.83-14.67.77-.44,2.63,0,3.38.72,10.82,10.08,21.72,20.07,32.23,30.46,20,19.75,39.69,39.74,59.49,59.66,2.65,2.67,5.12,5.53,8,8.63a96.18,96.18,0,0,0-8,5.56c-2.39,2-4.19,1.63-6.5-.12C1146.91,859.66,1136.18,851.76,1125.46,843.83Zm30.81,29.1-14.1,9.7-60-63.64a.35.35,0,0,1,.46-.51ZM1070.5,718.67l25.25,22.92L1040,773.66c-7.18-8.12-14.34-15.24-22.09-23.59,5,1.1,11.37,2.47,17.72,3.9,5.83,1.32,11.63,2.8,17.48,4a6.24,6.24,0,0,0,3.88-.8c4.73-2.63,9.42-5.33,14-8.29,1.14-.74,2.37-2.58,2.28-3.81C1072.52,736.59,1071.51,728.14,1070.5,718.67ZM1187,853a103.39,103.39,0,0,1-9,5.41c-.83.39-2.76-.49-3.62-1.36-10.25-10.31-20.28-20.85-30.58-31.11q-25.14-25-50.56-49.8c-5.87-5.72-12-11.16-18.2-16.89,7.57-4.2,14.85-8.17,22-12.27,2.19-1.24,3.67-1,5.58.77,8,7.55,16.49,14.55,24.12,22.42,5.1,5.28,9.15,11.61,13.48,17.61C1155.83,809.35,1171.32,831,1187,853Zm-43.8-70.67,61.19,60.23-13,7.84-48.59-67.75A.25.25,0,0,1,1143.24,782.28Zm45.23,75.85c2-1.33,3.35-1.12,5,.3q14.55,12.66,29.15,25.28c11.85,10.2,23.76,20.34,35.61,30.54,7.16,6.15,14.26,12.36,21.43,18.58-1.26,2-2.33,2.16-4.1.53-1.59-1.45-34-27.47-48-39.69-6.64-5.79-13.63-11.19-20.5-16.72-.65-.52-1.71-1.19-2.31-1-4.79,1.58-10.11,1.93-13.86,5.95-1.72,1.84-3.42,3.73-5.26,5.45s-2,3.19-.56,5.27c14.13,20,28.17,39,42.33,59,1.64,2.31,4.11,6.24,5.71,8.57,1.12,1.64,3.21,4.55,2.18,5.06l-2.11,1.82-69.54-93.32C1172.11,868.46,1180.38,863.42,1188.47,858.13Zm10.28,25.28c3.63-2.3,6.2-1.88,9.59,1,17,14.22,34.37,28,51.51,42,2.28,1.86,7.33,6.77,11.43,10.34l-13.88,8.72Zm54.58,65L1239,959.72c-16.5-23.17-32.77-46.05-49.17-69.08l4.22-5ZM1063.86,714.06c1.86,2,1.93,5.92,2.29,9,.82,7.07,1.32,14.18,2,21.56-4.18,2.49-8.23,5-12.41,7.29a6,6,0,0,1-3.86.58c-13.25-2.93-26.48-6-39.7-9a5.43,5.43,0,0,1-2.59-1.29c-6-6-11.87-12.08-17.79-18.14,4.07-6,11-8.38,17.24-11.82,9.44-5.23,19.12-10,28.56-15.27,3.56-2,6.4-1.37,9.15,1.12C1052.52,703.31,1058.6,708.31,1063.86,714.06ZM999.51,710c-8.78,4.6-14.52,12.36-21,19.35-.85.91-1.59,1.93-3.18,3.88v-6.76c0-7,.09-13.92-.05-20.88a4.51,4.51,0,0,1,2.83-4.69c15.13-7.93,30.16-16,45.32-23.9a6.56,6.56,0,0,1,5.23-.06c5.21,2.68,10.2,5.81,15.68,9C1029.13,694.09,1014.39,702.16,999.51,710Zm-6.3,161.36c-13.38,14.73-28.31,28-36.58,46.9-6.33-3.53-12.09-6.73-17.84-10s-11.44-6.88-17.44-9.73c-4.48-2.13-5.67-5.44-6.12-9.9-1.05-10.44-2.47-20.84-3.66-31.27-.61-5.33-1-10.68-1.53-16.1Zm-20.76,29.8,120.93,72.75-11,13.23c-2.83-3.1-5.37-6-8-8.79-6.62-7-12.95-14.25-20.09-20.62-4.52-4-10.27-6.67-15.51-9.87-8.47-5.18-16.75-10.73-25.54-15.28-4.26-2.21-9.46-2.8-14.32-3.63-13-2.21-26-4.16-39.51-6.3Zm123.16,77.93,30,19.46c-7.1,7.81-14,15.44-21.08,23.22l-28.56-18.8Zm0-9.87c-14.95-9-29.94-17.9-44.89-26.89q-35.06-21.1-70.07-42.27a15.28,15.28,0,0,1-1.53-1.17c6.08-10.7,16.52-17,24.43-25.87l12.16,6.21c12.5,6.43,29.44,18.16,56.23,39,2.57,2,44.23,37.06,46.87,39.13a112.37,112.37,0,0,0-16.48,11.1C1099.76,970.42,1097.33,970.23,1095.6,969.19Zm36.17-12.89c.52-6.14.52-12.32.9-18.48a4,4,0,0,1,1.52-2.62c9.08-6.55,18.27-12.94,27.33-19.53,1.89-1.38,2.85-.7,4.07.68,6.42,7.31,12.9,14.56,19.32,21.86q12.63,14.37,25.21,28.76c2.16,2.47,4.56,4.77,6.45,7.42a5.7,5.7,0,0,1,.6,4.4c-3.45,11.34-7.1,22.62-10.74,34.06q-21.42-9.47-42.89-19a5.1,5.1,0,0,1-2.28-2.33c-5.57-12-15.89-19.63-25.75-27.63C1133,961.81,1131.48,959.8,1131.77,956.3Zm47.94,99.38c-3-5,1-8.27,4.71-13l3.32,2.76Zm11.76-6.64c2.7,2.22,2.42,4,.48,6.2-2.37,2.73-4.3,5.84-6.42,8.79-3.24-2.46-2.77-4.63-.33-7.18C1187.45,1054.5,1189.3,1051.77,1191.47,1049Zm-16.78-1.63c-5.39-7.13-5.57-4.23,2.5-14.24l5.47,4.34C1179.86,1041,1177.3,1044.17,1174.69,1047.41Zm-7.1-10.49c-5.85-6-5.63-7.84,1.86-15.05l6,5Zm-7.95-11.39-3.58-5.33,6.9-8.94,4.87,3.91Zm2.93-22.17-10.16,13.17-14.73-14.21c3.41-2.6,7.23-5.61,11.19-8.43a3.1,3.1,0,0,1,2.92-.1C1155.46,996.84,1159,1000.1,1162.57,1003.36Zm-17.08,13.93c10.06,13.51,19.62,27.39,29.26,41.22a4.35,4.35,0,0,1,.29,3.81c-4.27,7.24-8.76,14.34-13.47,22-4.73-7.07-9.26-13.81-13.74-20.58-2.71-4.09-5.68-8.06-8-12.38-5.27-10-14.45-15.48-23.28-21.47-.51-.34-1-.73-1.83-1.38l18.76-22.7C1137.69,1009.72,1142.29,1013,1145.49,1017.29Zm-5.42,73c2.65,0,5.31-.07,8,0,4.51.15,9,.64,13.52.52,1.24,0,2.82-1.47,3.6-2.68,4.79-7.49,9.39-15.09,14-22.64,3.4,1.82,2.87,3.81,1.18,6.46-5,7.83-9.85,15.73-14.47,23.77-1.9,3.31-3.9,4-7.3,2.42-4.4-2-8.95-3.82-13.48-5.57a43.12,43.12,0,0,0-5.16-1.39A.46.46,0,0,1,1140.07,1090.31Zm31.42,11,16.3-27.87c8.5,7.29,19.78,17.9,29,26a15.87,15.87,0,0,0,6.7,3.49c7.63,1.86,14.63,4.61,14.36,5.2-1,2.19-6.27,10-10.31,15.45-19.14-5.12-41-10.45-60.11-15.56C1168.92,1105.63,1170.22,1103.44,1171.49,1101.31Zm52.62-4.56a29.71,29.71,0,0,1-6.2-3.61c-1.68-1.67-18.91-18.92-23.14-22.52-3.79-3.23,3.34-14.72,4.23-16.32,1.32-2.36,2.79-3,3.69-2.1,2.85,3,31.92,40.27,38.7,46.79,1.23,1,1.55,4.77-.65,4.09C1235.58,1101.58,1229.08,1098.74,1224.11,1096.75Zm15.31-8.31c-11-13.63-22.16-27.15-33.24-40.73-8.11-9.94-26.39-32.4-35.14-43.16,6,2.41,35.2,15.29,45.29,21,1.88,1,10.32,4.82,11.06,7.34a38.09,38.09,0,0,0,2.2,6c1.84,3.79,2.06,7.1-1.8,9.86-2.09,1.49-1.11,3.25-.12,5,6.86,12.12,21.36,37.9,21.87,38.82C1244.63,1094.26,1242,1091.64,1239.42,1088.44Zm14.8,14.94c7.84-4.33,14.54-4.06,22.39.55,12.29,7.23,25.31,13.22,38.05,19.75-3.79,4.41-4.51,3.42-9.15,2.54-20.15-3.82-61.38-13.27-61.7-13.57C1246.35,1108.48,1249.88,1105.78,1254.22,1103.38Zm6.93-54c1.57-1.94,3-4,5-6.71,8.41,10.08,22.26,15.21,24.36,30.63-9.49-5.18-18.63-10.14-27.73-15.16C1259.32,1056.18,1258.69,1052.37,1261.15,1049.35Zm27.18,3.29c-5.89-5.11-11.62-10.4-17.69-15.85l17.59-16.74c5.32,4.62,10.57,9.12,15.75,13.69,9.75,8.61,19.42,17.3,29.22,25.85,2,1.71,2.17,3.21,1.24,5.56-3.26,8.24-6.3,16.56-9.63,25.39-7.44-3.89-14.38-7.38-21.16-11.17a8.33,8.33,0,0,1-3.05-4c-1.76-4.27-3.35-8.62-4.79-13C1294.44,1058.16,1291.5,1055.39,1288.33,1052.64Zm63.81-111c-11.35,3.74-22.14,8-29,18.66l-1.44-1.21c-.88-.91.56-2.59,1.29-3.52,4.35-5.52,8.92-10.39,16.07-12.91,4-1.4,7.16-2.87,11-4.48Zm-4.48-8-14.12,5.87-2.23-3.36c4.17-1.67,8-3.43,12-4.64C1344.29,931.19,1345.83,932.68,1347.66,933.62Zm-4.56-7.92-13.57,5.64-3.27-6.34,12.43-5Zm-4.8-11.1c-3.72,1.51-7.31,2.8-10.75,4.42-2.71,1.29-4.13.53-5-2.17-.41-1.28-1.06-2.49-1.71-4,3.73-1.44,7.25-2.91,10.86-4.1a3.33,3.33,0,0,1,2.69,1A56.33,56.33,0,0,1,1338.3,914.6ZM1318.79,908l-2.77-5.7c4.11-1.49,7.92-3.36,11.93-4.07,1.44-.25,3.36,2.3,5.92,4.21Zm11.65-16.39-18,6.43-7.5-12.38,13.88-8.81Zm-14-25.8c3.08,3.6,2.82,4.84-1,7.25-5,3.12-10.08,6.15-14.92,9.51-1.22.84-2.51,2.86-2.36,4.18.86,7.81,1.45,15.75,3.43,23.31,3.23,12.3,7.47,24.34,11.27,36.49.66,2.08,1.28,4.17,1.92,6.25.32,1.21-.35,1.44-.86.36-.4-.89-.88-1.76-1.2-2.68A464.52,464.52,0,0,0,1272.3,863c-2.86-4.8-7.18-8.74-10.87-13q-17.12-20-34.28-39.91c-1.28-1.49-2.52-3-3.77-4.54-.63-.77,0-1,.49-.46,4.88,5.18,9.74,10.37,14.66,15.52,11,11.52,22.12,22.91,33,34.59,2.94,3.17,5.39,2.85,8.48.82,5.93-3.91,11.9-7.77,17.88-11.67C1304.09,851.53,1310.32,858.65,1316.46,865.84ZM1215.69,758.9c16,17.07,31,32.61,47.14,49.57.75.78,29.48,31.77,30,32.8-1.15.44-9,6.08-14.85,10.28-1.87.82-2.69-.46-3-.2q-3.74-3.86-7.45-7.72-16.24-17-32.48-34c-14.06-14.71-35.47-36.17-46.38-47.67l-.19-.18a119.56,119.56,0,0,0,16-5.46C1209,754.36,1212.25,755.23,1215.69,758.9Zm-6-8.92c-7.58,1.83-14.65,3.63-21.78,5.15-1.25.27-3.36-.12-4-1-11.37-14.86-22.57-29.85-33.78-44.77C1175.4,714.88,1192.26,732.38,1209.64,750Zm-36.9-38.42c-1.87-.6-3.76-1.16-5.62-1.81q-12.55-4.41-25.1-8.88a4.34,4.34,0,0,1-1.83-1.14c-2.7-3.28-5.34-6.62-8.1-10.07a18.09,18.09,0,0,1,11.37-.84c8.7,2,14,8.39,20.12,13.77A71,71,0,0,1,1172.74,711.56Zm-24.57-39c5.76,3.78,10.59,6.89,15.35,10.09,4.06,2.72,1.76,6.21.49,9.43-5.86-3.89-11.42-7-16.17-11.11C1146.63,679.89,1147.74,675.06,1148.17,672.52Zm-66.08-51.17c-2.45,2.74-.85,4.27,2,5.65,20.21,9.75,40.47,19.39,60.52,29.45,8.05,4,15.61,9.07,23.35,13.62l-1.57,6.54a765.18,765.18,0,0,0-112.6-58.79C1064.16,617.25,1073.65,614.36,1082.09,621.35Zm-45.74-2.12c2.38-.33,4.12-.91,5.73-.25,6,2.46,11.77,5.4,17.75,8.22-5.15,3.8-6.62,3.91-11.6.8-4-2.51-8-5.1-12-7.66C1035.35,619.8,1035.25,619.4,1036.35,619.23Zm-8.62,4.39c3.57,3.17,6.94,6.57,10.86,10.35-9.53,3-18.28,5.76-27.06,8.44a3.22,3.22,0,0,1-2.42-.3c-4.64-3.15-9.2-6.41-14.37-10.05,10.46-3.2,20-6.18,29.68-9A4.09,4.09,0,0,1,1027.73,623.62Zm-14.86-13.26c2.41,2.73,4.88,5.4,7.71,8.53L991,628l-13.69-9.63c5.11-1.63,9.63-3.11,14.18-4.49,5.36-1.64,10.8-3,16.1-4.88A4.29,4.29,0,0,1,1012.87,610.36ZM946.22,579.2c6.36,3.3,42,21.95,50.41,25.73-8.14,2.47-15.77,4.84-23.44,7a5.22,5.22,0,0,1-3.45-.36c-18.74-9.09-37.48-18.2-56.13-27.48-3.88-1.93-7.38-4.61-11.78-7.4,8.74-1.52,20.73-3.72,20.7-3.52C931.47,572.05,941.57,576.78,946.22,579.2ZM415.37,472.85c-.95-.06-3.5-1.55-3.73-2.58a54.05,54.05,0,0,1-.54-7.74c4.1-.36,8.4-.39,12.72-.65,5.77-.35,83.74-5.9,90.91-6.09,2.82-.08,5,2.3,5.12,5.54.12,2.85-2.09,2.92-4.1,3.29-4.64.84-9.16,1.69-13,5-4.55,3.88-10.67,2.9-16.09,4.07-2.53.55-5.15.63-8.26,1-5.63.8-38.74-.87-40.36-.92C430.09,473.46,423.29,473.3,415.37,472.85Zm21.88,11.94-7.86,15.73a1,1,0,0,1-1.89-.16L423,485.67C427.52,481.84,432.05,480.62,437.25,484.79Zm44.17-33.26c3.45-3.09,6.85-6.25,10.41-9.21a3.19,3.19,0,0,1,2.89-.14,104.19,104.19,0,0,1,14.2,9.12l-27.16,1.2C480.83,452.5,480.71,452.15,481.42,451.53ZM502.73,438l38.82-14c1.07,3,2.6,6.72,4,10.17a32.55,32.55,0,0,0,6.83,10.53c4.76,4.94,10.31,10.4,14.67,15.29-7.88,3-15,5.68-22.26,8.28a3,3,0,0,1-2.38-.59c-5.86-4.46-11.65-9-17.47-13.53C524.05,453.51,504.12,439.06,502.73,438Zm87.62-33.49a102.59,102.59,0,0,1-9.68,14.92c-2.79,3.71-2.34,12.25-2.79,14.42-1.24,6-10,9.95-15.26,13.24-8.79-6.59-9.91-16.83-14.15-26.64,3.75,1.13,6.62,1.8,9.33,2.86,3.25,1.28,5.87.84,8-2,5.27-7.1,10.52-14.23,15.8-21.32,1.12-1.49,1.84-3.8,4.61-2C588.66,399.62,592,401.25,590.35,404.52Zm-3.11-12,12.32-15.74c5.24,1.66,5.71,3.14,3.2,7.28-2.73,4.51-5.41,9.05-8.17,13.69C592.11,395.94,590,394.51,587.24,392.52ZM805.56,500.26c0,1.5,0,4.47-.75,4.47l-1.21-.09c0-4.19-.12-8.38,0-12.56a4.35,4.35,0,0,0-3.17-4.85c-2.9-1.14-5.7-2.52-8.54-3.88-4.18-1.92-16.19-7.79-20.25-10-.92-.51-1.64-2.92-1.24-4,1.87-5.25,4.15-10.35,6-14.89,4.74,2.22,28.84,12.55,32.85,14.31a.55.55,0,0,1,0,.44C804,479,805.9,489.79,805.56,500.26Zm-22.18-15.64c3,1.41,9.18,3.9,12.11,5.49v14.53l-7.62,1.17c-.34-2.57-2.09-9.12-3.11-14.28a4.23,4.23,0,0,0-2.29-3.06h0c-18.22-8.36-36-16.72-54.18-25.22-.64-.3,3.35-2.6,4.64-2Q758.21,472.77,783.38,484.62ZM722,467.17c18.15,7.71,36.58,16.37,44.42,20L757,498.75c-1-.45-34-13.78-49.33-20.09C703.93,477.11,718.12,465.53,722,467.17Zm-16.48-5.72c-4.21-2.59-12.36-5.9-17.53-8.35,0-2-1.65-7.27-1.65-10,3.23-1.28,4.64-1.71,20.73,6.54.4.17,10.29,4.56,10.65,4.75,3.36,1.94,2.45,2.76,2.45,4.23C716.24,461,710.1,464.27,705.51,461.45Zm62.27.36c-.81,2.74-1.91,5.39-3.06,8.54-6-2.81-12.18-5.61-18.27-8.55h0c-3.78-1.72-19.3-9-23.45-10.74-10.27-4.43-15.41-6.78-29.79-12.39-1.69-.66-5.71.34-8,.52-.22-5.57-.75-11.43,2.53-17l60.43,28c6.44,2.95,12.8,5.86,19.1,8.88C767.77,459.32,768,461,767.78,461.81Zm-46.51,40.35C740.73,508,760.53,512.83,779.9,519c10.56,3.36,68.29,30.88,78.53,35.24,1.61.73.93,1.07-.8,1.27s-2.81.42-4.19-.16c-8.87-3.79-65.27-30.44-74.24-34a41.2,41.2,0,0,0-13.51-2.67c-14-.45-26.92-5-40-9.23-35.05-11.32-70.14-22.5-105.63-33.86,3.82-3,7.39-2.68,11.42-1.4C661.37,483.65,691.26,493.1,721.27,502.16Zm128.12,56-4.24,2c-10.29-4.82-69.82-32.53-80.12-37.35C777.4,522.83,777.68,524.72,849.39,558.2ZM748.71,522c17.7,5.52,34.06,13.89,50.79,21.53,12.66,5.79,25.18,11.89,37.76,17.86.65.31,1.26.71,2.37,1.33-6.63,3.06-12.82,6-19.08,8.72-.7.31-1.9-.22-2.74-.62-24.65-11.88-49.07-24.26-74-35.49-13.07-5.88-27-9.87-40.62-14.5-35.56-12.07-71.17-24-107.39-36.24,5.24-2.1,9.88-4.2,14.7-5.75,1.59-.51,3.72.18,5.46.74C660.2,493.72,704.36,508.18,748.71,522ZM590.44,481.1a4.12,4.12,0,0,1-2.55-.06c-5.31-1.73-35.8-9.82-35.81-9.85,3.48-1.33,7.83-2.94,11.75-4.36l.34-.12c1.57-.57,3.07-1.1,4.41-1.57a8.78,8.78,0,0,1,4.15-.48c5.27.42,25.84,8.86,32,10.8C599.72,477.44,594.63,479.54,590.44,481.1Zm14.11-10.25c-10.37-4.27-20.94-8-31.4-12.09a14.32,14.32,0,0,1-3-2.18c-1.61-1.27-.51-1.27.51-.95l44,14C611.18,472,608.24,472.36,604.55,470.85ZM525,469,580.8,483c-4.07,2.37-7.46,4.18-12.41,2.33-13.88-5.19-27.39-9.21-42.1-14.12C523.11,470.13,522.49,468.38,525,469Zm69.88,20.51c36.31,12.63,72.83,24.65,109.28,36.88,4.14,1.39,8.37,2.6,12.4,4.28,2.81,1.18,6.55,2,7.92,4.66,1.9,3.66,2,6.84,19.91,14.4,4,1.68,26,11.66,31.06,14.11-4.32,2.53-5.28,5.63-8.17,11.44-13.48-6.14-115.53-50.63-144.21-61.93a325.37,325.37,0,0,1-44.39-21.92C584,488.68,588.63,487.38,594.89,489.55ZM735.6,540.29c-2.75-1.65-3.75-5.4-3.57-5.78,9.83,4.68,71.71,34.65,81.54,39.33-.17.36-4,1.12-4.17,1.48C799.56,570.65,745.44,545,735.6,540.29Zm70.59,43.32q27.39-12.78,55-25.12a6.2,6.2,0,0,1,5,.58c6.58,4.09,13,8.48,20.08,13.18-7.23,1.63-6,7.52-6.77,12.17-.37,2.11-.88,3.41-2.86,4.29-5.26,2.36-10.29,5.4-15.73,7.13-3.68,1.17-8,1-11.9.67-6.3-.56-12.57-1.47-18.34,1.9a20.35,20.35,0,0,0-5.85,4.93c-3.42,4.49-6.42,9.29-9.52,13.86-.32,0-.47,0-.57,0-11-5.87-10.24-3-10.33-16.2,0-4.51-.67-9-.59-13.52A5.22,5.22,0,0,1,806.19,583.61Zm68.21-25.38c6.09-1.76,11.19-2.48,16.65.36,6.06,3.15,12.58,5.42,19.46,8.32-6.11,1-11.56,1.93-17,2.8a3.11,3.11,0,0,1-2-.13C885.92,566,880.43,562.26,874.4,558.23Zm-44.69,46.92a13.56,13.56,0,0,1,7.86-4,49.81,49.81,0,0,1,12.85.07c5.33.6,10.41.94,15.39-1.78a117.94,117.94,0,0,1,13.94-6.55c3-1.15,3.84-3.27,4.34-5.9.32-1.72.53-3.46.78-5.19.76-5.29,4.87-7.11,9.36-4.15L946.4,612,909.91,630.1c-6.1,3-12.14,6.19-18.37,8.92a12.39,12.39,0,0,1-7,.88c-14.88-3-29.71-6.38-44.54-9.7a19.31,19.31,0,0,1-4.43-1.94c-5.23-2.71-10.42-5.48-15.91-8.37C823,614.8,825.94,609.62,829.71,605.15Zm78.72-47.38c12.75,6,27.69,12,25.24,12.41a87,87,0,0,1-14-4.18c-4.34-1.9-60.61-26.5-81.85-35.09-5.64-1.83-10.9-5-16.54-6.8a20.93,20.93,0,0,0-3.34.32,1.3,1.3,0,0,0-.34,2.48c3.48,1.44,7.22,3.26,11.27,5,8.62,3.67,37.88,17,46.64,20.51-4.31,1.94-7.56.9-11.89-1.1-28.46-13.16-45.48-20.75-57.5-25.39-8.82-3.91-18.34-8.33-26.43-11a1.46,1.46,0,0,1,.34-2.84c8.45-.79,19.85-1.62,24.34.6,9,4.48,34.2,15.63,43.56,19.46h0c2.27.86,4.35,1.76,6,2.4C863.68,538.39,888.67,549.28,908.43,557.77ZM833,508.94c-.15,2,0,4,0,6.74-7.53-3.51-14.57-6.71-21.52-10.12a3.71,3.71,0,0,1-1.66-2.84c.11-7.17.16-14.37.82-21.5.28-3,2-5.85,3.24-9.2,7,3,13.63,5.87,20.21,8.86a2.64,2.64,0,0,1,1,2.33C831.24,491.55,833.58,500.37,833,508.94Zm15.82,4.1c-1,4-2.25,7.85-3.54,12.26-2.19-.86-4.37-1.58-6.41-2.59a2.8,2.8,0,0,1-1-2.15c-.07-7.66-.05-21.69-.05-29.36a11.92,11.92,0,0,1,.6-4.4S841,481,843,475.93a.63.63,0,0,1,1.22.11c1.43,8.54,3.37,26.43,4.8,34.81l0-.05A6.86,6.86,0,0,1,848.79,513Zm30.61-7c-2.5,6.23-4.13,12.82-6.17,19.24-.26.81-.64,1.57-1,2.35l-1,.27c-1.48,0-1.52-2.29-1.48-3.41.37-11.06,1-22.11,1.39-33.17.14-3.28,0-6.58.07-9.87a35.21,35.21,0,0,1,.43-3.52c.09-.78.75-.89,1-.29,1.7,3.09,3,6.5,5.17,9.21C882.83,493.07,882.14,499.24,879.4,506.07ZM872,466.7a39.62,39.62,0,0,1,3.2,5.95c-8.23.73-15.12,4.86-22.27,8.08-1.35.6-1.7,3.41-2.15,4.38a62.32,62.32,0,0,1-1.42-8,4.6,4.6,0,0,1,1.83-3.72c5.7-2.85,11.53-5.44,17.42-7.86A3.84,3.84,0,0,1,872,466.7Zm-29-23.14c2.46,1.56,11.15,6.84,14.38,9.26l0-.05.16.14c.07.18.15.35.22.53l.26-.13,6.43,5.36c-2,.71-14,5.52-16.73,6.5-4.89,2-9.68,5.6-10.08,11.61-6.91-3-13.38-5.66-19.65-8.72-2.5-1.23-4.47-3.51-6.77-5.18-4.37-3.19-3.83-8.06-4.64-13l8.62-1.44a40.74,40.74,0,0,0,11-3.54C833,441.59,838.17,440.5,843,443.56ZM739.75,401.25c4,1.69,42.88,18.8,47.9,20.92-1.58.55-7.15,1.53-7.57,1.31-3.54-1.82-43.11-17.61-45.85-20.83C734.4,402.31,739.58,401.6,739.75,401.25Zm-30.39,13.29c1,.44,47.09,21,55.43,24.63a41.39,41.39,0,0,1,9.54-5.07h0c11.49-4.95,24.45-9,38.61-5.16-5.06,2.05-10.09,3.91-15,6.14-2.32,1.06-2.18,4.35.11,5.91,4.07,2.8,6.66,2.9,11.33,1.46a45.38,45.38,0,0,0,9.63-4,19.68,19.68,0,0,0,5.51-4.34l5.31,2.43a49.4,49.4,0,0,1-4.89,3.29A53.33,53.33,0,0,1,805.91,445c-1.23.13-3,2.21-3.2,3.56-.45,3.61-.15,7.31-.15,11.58-5.24-2-18.3-7.38-26.56-10.73a3,3,0,0,0-3.89,1.69,34.67,34.67,0,0,1-1.85,3.6l-11.68-5.32v0l-63.71-29.53C698.67,418.19,702.88,416.68,709.36,414.54ZM686,401.88c5.52,2,11.93,5.62,17.33,7.92-5.5,1.55-11.07,6-17.8,2.95-2.93-1.31-5.58-6.57-4-9.33C682.06,402.35,684.74,401.44,686,401.88Zm-8.53-41.69c2.27,2.16,6.78,8.14,5.64,13.07-3.41,14.75-4.64,17.57-5.64,17.57ZM681,416.43a8.9,8.9,0,0,1,.66,6.09c-2.55,8.05-1.14,16.26-1.4,24.38-.08,2.4-.61,3.73-3.15,4-4.47.56-9.34,4.31-9.65,8.51-.51,6.86-.14,13-.14,20.13-5.15-1.59-42.23-12.94-54.86-17.32-1.27-.43-2.91-1.54-3.21-2.65-.77-2.86-2.41-4-5.18-4.6-9.7-2.07-19.37-4.28-29.7-6.61-1.48-.34,10.43-6.81,10.85-10.63.4-3.58,1.29-15.75,1.62-16.29,6.3-10.57,12.66-21.11,19.09-31.79,7.32,3.66,14.41,7,21.33,10.74,3.55,1.9,6.67,4.61,10.22,6.52,1.86,1,4.27.95,6.36,1.62s4.18,1.22,5.74,2.5c7.2,5.95,14.66,6.56,22.66,1.79,1.48-.88,3.08-1.56,4.05-2.05C677.9,412.61,680,414.28,681,416.43Zm-22.71-38.67c-.12-2.81,2-11,2.38-13.2.62-2.47,4.59,8.28,4.23,11.14-3.58,28.12-3.62,28.46-5.64,28.46C659.29,400.73,658.64,385.17,658.32,377.76Zm17.37-24s.57,1.87.62,2.34c-4.1,1.4-9.33,3.27-13.43,4.67-.18-.36-.8-2.4,0-3.22,2.4-2.83,5.26-4.07,8.51-5.37C672.31,351.82,675.69,353.77,675.69,353.77Zm-43.17-6.12c3.12-.94,12.44-6.37,13.94-8.1,2.38-2.76,18,5.16,20.94,7.16-.65,1.41-11.13,5.45-12.75,10.85C645,354.11,628.1,349,632.52,347.65Zm-22.69-1.15c1.25-2.38,4.69-9,15.18-16.17,1.37-1.1,7.7,1.74,6.23,2.55-6,3.27-14.35,12.17-15.47,15.85,2.05.76,35.65,13.53,37.74,14.46-4.26,13.59-2.25,17-2.25,24.7a1.23,1.23,0,0,1,0,.19c.1,5.14,1.27,11.53,1.27,16.91-2.29-.31-7.86-2.94-8.35-3.33-4-1.65-14.39-7.71-14.33-9.46.17-6,0-6.52-.14-14.85-.88-7-.88-8.25-2.89-9.48-12.16-4.71-37.81-16-56.37-23.95V331.43C575,333.47,592.33,340,609.83,346.5ZM586.36,327c7.66,3.05,17.72,6.8,19.86,7.88l-3.72,4.64c-7.21-3.22-13-4.62-20.85-8.12Zm-5.56-2.89L575.93,329l-5.46-2-.74-7.75Zm-52.59,65.79c.94-.31,39.51-19.3,45.28-21.45,1.33-.49,2.92.66,4.93,1.55l1.45.55h0l13.77,5.29c-3.47,4.58-6.74,8.92-10,13.25-3.87,5.12-7.78,10.19-11.55,15.38-1.56,2.16-2.9,2.87-5.74,1.72-13-5.28-25.3-10-38.4-15.07C527,390.78,527.25,390.25,528.21,389.93ZM507,389.69c9.63,0,18.23,4.84,24.39,6.38-.13.41-.83,3.19-9.75.72l-18.14-5.67A5.52,5.52,0,0,1,507,389.69Zm-8.52,8.56c.58-1.37,1.15-2.64,5-2,21.41,6.12,23,4.47,35.34,6.76.39.18,26.91,8.38,28.23,8.86-4.34,7-5.13,7.52-10.75,5.62h0l-.06,0-.64-.21v0c-8.62-3.11-38.11-10.13-39.42-10.48-7.23-1.94-13.29-3.19-17.18-5.08C497.09,400.77,497.9,399.5,498.43,398.25Zm-33.19-3s21,3.64,23,6.28c4.09,5.5,10,7.38,15.59,8.38a103.09,103.09,0,0,1,31.71,10.88l-39.05,14.1a35.11,35.11,0,0,0-4.1-3.67c-2.77-1.77-5.63-3.42-8.51-5C473.59,421,441.2,406.5,439.7,405.13,441.52,404.53,463.37,395.84,465.24,395.23ZM429.8,415.9c.7-.27,1.84.3,2.67.7,3.73,1.76,7.42,3.61,11.14,5.41,3.18,1.55,4,5.8,2.1,10.16-1.56,3.61-4.78,4.83-8.77,2.36-6.37-3.94-13.26-7-20.08-10.6C419.81,418.68,425.1,417.73,429.8,415.9Zm-16.47,12,23.13,12c5.91,3.05,5.92,3.06,10.52-1.56.24-.23,1.13-1.59,2.1-3.08a12.48,12.48,0,0,0,2-6.84c0-1.61,0-3,0-3.88.18-3.71-1.67-5.53-4.68-6.87s-6-2.83-9.05-4.26c-3.79-1.58-.3-2.83,1.29-2.08,8,3.78,18.85,8.68,26.68,12.79,1.52.79,8.11,4,16.39,8.89l7.94,4.46c-2.45,2.21-4.72,4.27-6.95,6.27h0c-5.59,5.07-8.11,7.66-10.32,7.93-6.44.81-16,1.72-22.47,2.19a12.16,12.16,0,0,1-6.08-1.53c-12.21-6.21-24.33-12.58-36.52-18.92Zm-102.17,17c.09.22,6,3.31,6.13,3.54-2.12.77-4.26,1.5-6.36,2.32-4.65,1.82-13.23,4.21-13.23,6.17a24.73,24.73,0,0,0-.45,4.32c-4.1-4.55-5.36-5-5.36-9.61ZM247.27,474c-4.23-1.51-6.09-14.9-6.24-22.13a30.11,30.11,0,0,1,1.7-9c5.52,1.69,5.85,3.52,5.85,3.52S247.43,471.61,247.27,474Zm-5.37-39.46a4.7,4.7,0,0,1-2.37-3.47c-.07-.72,1.67-2.37,1.93-2.24,2.75,1.33,5.37,2.93,8.17,4.54C246.67,435.83,246.52,437.71,241.9,434.55ZM266.8,459c-.53,10.48-1.29,27.24-1.29,27.24l-12.93-8.48s1.17-23.48,2-31.37c.3-2.79,1.22-5.59-2.31-6.89,2.17-4.08,5-3.94,8.55-1.66s7.41,4.12,11.62,6.42C266.22,447.61,267,453.39,266.8,459Zm16.67,19.4c-5.57-2.49-11-4.89-12.09-6.62-1.45-2.35-.1-8.9.05-15.84l0,0c.23-3.49,1.87-7,5-8.33a4,4,0,0,1,2.72.45c1.48.66,2.84,1.57,4.28,2.35,3.55,1.91,4,3.72,2.22,7.1C284.28,460.21,283.81,475.66,283.47,478.37Zm8.42,26c-5.17-2.91-5.17-8.55-5.17-12.57,0-12.18.29-20,1.44-29.11a2,2,0,0,1,3.43-1.08,106.43,106.43,0,0,0,10.71,8.76c2.25,1.58,3,3.16,3.16,5.86.53,7.78.92,32.72.92,36.07A89.55,89.55,0,0,1,291.89,504.4Zm15.94-44.5c4.06-1.78,17-7.95,22-4.75,1.62,1.05,3.28,2.46,5,3.74s7.38,4.91,9,6.44c-9.84,2.63-24.58,6.29-24.55,8.87-6-3.95-11.68-4.15-12-13.41A.93.93,0,0,1,307.83,459.9ZM311.34,515s-1-12.73-.89-16.83c-.14-3.85-.66-18.61-.66-23.36,4.32,2.2,6.41,3.82,9.49,5.39,0,2.87,5.21,39.89,5.51,41.86A117.61,117.61,0,0,0,311.34,515ZM355.17,505a.47.47,0,0,1-.93.06c-1.63-8.63-3.48-18.78-5.57-31.72-6.4,1.93-17.05,4.76-22.14,6.56a106.43,106.43,0,0,1,4.15,14.75c.45,4.45-.79,12-1.79,24.49a.42.42,0,0,1-.84,0c-1.29-10.53-3.81-32.72-4.53-38-.72-4.22,1.62-4.36,1.62-4.36,5.55-2,15.32-4.92,21.77-7a2.06,2.06,0,0,1,1.71.18,16.42,16.42,0,0,1,3.36,2.3c1.49,1.68,3.33,8.83,3.76,10.7C356.5,486.21,355.67,497.16,355.17,505ZM406.68,472c-15.06-.61-26.88-1.25-39.62-1.67l-2.68-5.46c1.07,0,25.81-1.09,37.12-1.49,5.17-.18,5.18,0,5.18,5.11ZM403.2,455.5c-15.2.71-30.39,1.55-45.58,2.25-2.4.11-6.43,0-7.22-.34-2.52-1.62-11.61-6.57-11.59-7l.57-.11h0c7.71-1.94,36.12-9.26,43.3-10.78h0l.29-.06h0l2.9-.62c4.8-1.07,13-3,13.9-3.15-.1.22,27.29,13.59,36.24,17.68a.67.67,0,0,1-.26,1.27c-3.21.08-10.36.23-12.43.3C415.45,455.2,410.49,455.15,403.2,455.5ZM399.84,497l18.45-9.39c1.47,4.78,2.69,9.35,4.34,13.75a8.87,8.87,0,0,0,3.43,4.49c22.7,12.68,45.49,25.2,68.27,37.76a8.9,8.9,0,0,0,3,.4,2.12,2.12,0,0,0,1.51-3.18,2.82,2.82,0,0,0-.9-1c-6.6-3.91-13.33-7.6-20.05-11.29-10.9-6-21.82-11.93-32.91-18,3.82-7,7.51-14,11.43-20.87a5.2,5.2,0,0,1,3.39-2c6.7-1,12.94-2.71,18.32-7.33,1.81-1.56,5.18-1.36,7.86-1.83a69.31,69.31,0,0,1,10-1.42c4.72-.11,8.3-2.33,12-4.89a6.63,6.63,0,0,1,5.16-.88q27.67,9.42,55.18,19.34c2.77,1,5,3.54,7.53,5.15,21.1,13.15,44.36,21.58,67.2,31,24.72,10.17,117.25,51.43,124.7,54.42,3.23,1.3,4.22-.48,4.74-2.9,1.13-5.26,4.06-8.78,9.33-10.09a6.15,6.15,0,0,1,3.78.15c6.45,3,12.81,6.28,19.19,9.45-.08.26-.08.57-.21.64-6.3,3.42-6.51,4-5.78,11.63.39,4.12.5,8.27.77,12.4.24,3.76.34,7.54.87,11.26a4.92,4.92,0,0,0,2.46,2.93c10.5,5.67,20.86,11.67,31.7,16.6,5.68,2.59,12.21,3.34,18.4,4.74,11.07,2.49,22.15,4.92,33.27,7.19a8.91,8.91,0,0,0,5.33-.56c18.76-9.09,37.43-18.36,56.15-27.52,5.93-2.9,6.28-4,2.1-9.51,7,3.42,14.4,5.66,19.92,10.17,4,3.26,8,6.7,12.08,9.87,7.8,6,15.65,11.93,23.41,18a8.75,8.75,0,0,0,9.45,1.27c4.16-1.67,39.84,29.69,47.92,36.73.46.4,4.18,3.12,6.88,3.41,4.12.44,5.21-.51,9.28-1.22,4.4-.77,7.84-3.1,10-8.12,4,8.11,7.73,15.57,11.43,23a.68.68,0,0,1-.73,1c-4.64-.81-16.36-2.86-26.6-5-6.34-1.37-11.46-7.65-19.19-6.13-1.33.26-1.45-2.18-.31-2.9,1.46-.9,2.91-1.8,3.09-1.94.34-1.11-.13-2-5.24-5.52-16.59-11.45-32.74-23-41.94-27-3.64-1.6-3.1,1.64,6.25,8.32,3.45,2.47,7.63,5.6,10.87,8.12-5.71,3-13.3,6.79-18.88,9.76q-16.47,8.76-32.88,17.65a4,4,0,0,1-4.69-.3c-4.06-2.75-8.11-5.56-12.38-7.95a10.56,10.56,0,0,0-6.3-1.45c-7.25,1.17-14.43,2.79-21.61,4.38-1.16.26-2.88,1.06-3,1.88a4.5,4.5,0,0,0,1.48,3.48c6.51,5.78,13.14,11.42,19.75,17.08,6.13,5.26,12.25,10.52,18.42,15.72,1.38,1.16,3,2.1,4.13,2.92.94,3.25,1.46,6.65,2.91,9.58,1.77,3.57,1.26,5.35-.33,8.07-6.52,12.1-16.74,31-20.41,36.92-5-3.57-10-7.23-15.07-10.67-2.88-1.94-6.09-3.39-9-5.33-5.11-3.46-9.33-1.17-13.75,1.52-5,3-10.35,5.5-15.19,8.74a13.39,13.39,0,0,0-5.08,6.4c-3,9.12-5.43,18.42-8,27.66-1.16,4.15,1.73,9.16,5.84,9,2-.08,4.38-2.36,5.67-4.26q6.35-9.36,12-19.21c4.28-7.49,11.5-11.93,17.68-17.42,1.62-1.45,4.49-1.48,7.72-2.44l17.06,12.2c-5.6,4.71-11.2,9-16.32,13.84-8.06,7.59-17.07,14-25.33,21.34-1.12,1-1.7,2.58-2.29,3.5-20.35-7.37-40.89-14.93-61.52-22.24-21.56-7.65-43.33-14.75-64.78-22.73-9.2-3.42-17.9-8.26-26.65-12.79-10.37-5.35-20.54-11.06-31.12-16.79,5.94-9.22,11.77-18.36,17.7-27.44,6.68-10.23,6.15-13.4,8.16-8a14.54,14.54,0,0,0,3.57,5.55c15.52,14.27,31.17,28.42,46.78,42.6q9.58,8.7,19.18,17.38a9.89,9.89,0,0,0,2.28,1.58c3.44,1.67,5.38.61,5-3-.65-6.6-1.6-13.16-2.46-19.73-.91-6.94-1.88-13.86-2.8-20.79q-1.8-13.56-3.56-27.13c-.31-2.43-.54-4.88-.75-7a.5.5,0,0,1,.91-.32,16.69,16.69,0,0,0,2.76,3.54c12.57,11.14,25.24,22.16,37.89,33.2,9.89,8.63,19.7,17.37,29.78,25.77a11,11,0,0,0,11.67,1.69c6.88-3,13.5-6.65,20.43-9.56,3.77-1.58,8-2,11.93-3.3,1.36-.44,3.24-1.64,3.41-2.73s-1.18-2.86-2.33-3.72c-16.21-12.17-32.5-24.22-49-36.5l5.37-3.8,32.42,24.81c6.8,5.21,13.71,10.29,20.37,15.67,2.87,2.32,11.26-1.62,13.27-2.66a17,17,0,0,0,5-3.43,22.17,22.17,0,0,0,6.11-9.36c1.43-4.11-2.22-6.71-5-8.88-7.77-6-15.85-11.63-23.62-17.65-4.88-3.78-9.38-8-14.13-12-1.91-1.6-3.84-3.25-6.78-1.81-.74.36-2.15-.66-3.81-1.24,2.12-1.46,3.63-2.55,5.19-3.58a3.58,3.58,0,0,0,.63-5.69c-4.82-5-25.56-24.59-31.33-29.18-.48-.38-1.06-1.05-1.52-1-6.76.82-11.41-3.92-16.72-6.56-22.69-11.33-45.17-23.07-67.77-34.56-2-1-95.25-51.77-101.63-55.1-10-5.22-19.33-11.84-29.44-16.86-9.58-4.75-19.79-8.22-29.74-12.21-1.86-.74-6.14-1.79-7.29-4.25a6.67,6.67,0,0,0-4.16-3.69c-22.3-10-39.7-17.73-62-27.69-7.34-3.27-14.63-6.65-22-9.78a10.64,10.64,0,0,0-5.37-.6c-10.68,1.49-21.36,3.05-32,4.89-2.4.41-3.47,3.41,3.47,11,1.09,1.19,24.88,23.26,33,30.49,6.11,5.45,12.19,10.93,18.45,16.55-3.46,2.17-5.89,2.29-9-.78-9.21-9.19-18.86-17.94-28.33-26.88-.62-.59-1.67-1.34-2.23-1.93-3.3-3.43-4.1-1.8-6.62,1-6.55,7.31-9.77,13.5-10.73,23.62-.58,6.06-2.06,12-3.19,18.42l-25.31-7.28a40.63,40.63,0,0,1-5.37-1.63c-5.11-2.26-9.71-2.32-14,1.94a5,5,0,0,1-4.57.54c-14.73-7.11-29.33-14.49-44.05-21.64-2.2-1.07-2.94-2.33-2.73-4.64.36-3.86.68-7.74.7-11.61A15.6,15.6,0,0,0,407.3,515C405,509.11,402.49,503.35,399.84,497ZM967.65,701.28v23.27l-33.52-28.71c6.53-1.34,12.32-2.63,18.16-3.63,1-.18,2.34.68,3.36,1.32C959.8,696.13,963.88,698.84,967.65,701.28Zm-52.41,86.3c-10.46,8.7-14.69,21.29-23.08,32.22-.29-1.51-.79-2.51-.58-3.3,2.41-8.89,4.86-17.77,7.44-26.62,1.32-4.52,7-6.91,11.24-4.88C911.82,785.75,913.34,786.59,915.24,787.58ZM775.87,947.09c-4,1.09-8,1.88-11.9,3.24-6.36,2.23-12.6,3.1-19.34,1.43-7.58-1.87-15.35-2.94-23.09-5,7.53-2.06,15.05-4.16,22.59-6.19,21-5.68,42.1-11.37,63.19-16.92a6.69,6.69,0,0,1,4.83.61c4.18,2.75,8.1,5.9,12.68,9.33C808,938.23,791.94,942.67,775.87,947.09Zm50.54-8.8c2.47-.68,4.89-1.54,7.66-2.42v15.58L756.62,965c-.36-1.82-.71-3.14-.87-4.49-.22-1.83.29-2.75,2.47-3.34C781,951,803.69,944.62,826.41,938.29Zm-115.74,6.16c-.8-10.5-1.57-20.54-2.34-30.72,16.55-4.57,32.82-8.4,48.62-13.66,9.61-3.19,17.18-2.2,25,4.08,6.81,5.43,14.54,9.69,22.54,14.92Zm53.84-62.88c0,.21-.19.42-.46,1l-62.35-37.3c-2.52-13,1.74-23.22,6.19-31.3a5.49,5.49,0,0,1,3.57-2.5c8.32-.94,16.68-1.67,25-2.26a5.8,5.8,0,0,1,4,1.48c7.6,7.41,15.1,14.94,22.54,22.51a5.22,5.22,0,0,1,1.5,3.23C764.57,851.47,764.53,866.52,764.51,881.57Zm-43.1-17q19.25,11.55,38.47,23.16a18.87,18.87,0,0,1,1.63,1.36c-20,5.3-39.55,10.49-59.08,15.59a4.63,4.63,0,0,1-3.37-.51q-35.35-24.44-70.61-49c-.47-.33,25.89-20.41,31.89-23.57,2.3-1.22,3.88-1.44,6.09.16C670.18,834.47,718.62,862.91,721.41,864.59Zm-28.57,41.52c-6.89,1.86-13,3.6-19.21,5.19-17.39,4.47-34.81,8.82-52.18,13.36a6.64,6.64,0,0,1-6.23-1.14c-14.94-10.65-30-21.14-45-31.69-.41-.28-.74-.67-1.86-1.69,19.14-10,37.77-19.69,56.49-29.24,1-.52,3.08.08,4.19.84q26.55,18.32,53,36.82C685.38,900.92,688.76,903.27,692.84,906.11ZM631.35,793c4.78-8.28,16.95-30.11,21.62-38.17.17.07,1.15,2.82,1.32,2.89,2.23,10.88,7.21,34.38,10.19,48.69a41.22,41.22,0,0,1,1.28,6.18c.23,1.58.41,3.16.67,5.16Zm-.43-96.39c-.79-9-5.62-14.46-13.25-18.75a234.34,234.34,0,0,1-25-16.44c-3.72-2.57-4.73-4.44-4.54-6.09.54-4.84,1.48-12.93,2.11-17.76.43-3.33,1-6.64,1.61-10.54,9.05,8.48,17.55,16.9,26.58,24.7a20.21,20.21,0,0,1,3.32,3.59h0c3.71,4.49,13.35,35.82,14.2,38,3.28,8.5,6.41,17.08,9.22,25.75,1.9,5.85,3.09,11.92,4.67,17.88a24.79,24.79,0,0,1-1,15c-.19.53-.63,1.42-1,2.28-1.8,3.66-6.67,11.39-6.67,11.39s-5.62-1.49-6.82-2a15.82,15.82,0,0,1-9.31-7.37c-7.45-12.27-35-56.34-38-61.12,13.26,2.29,26,4.44,38.72,6.73C630.46,702.62,631.33,701.3,630.92,696.57ZM508.13,568.09c-.2-.37.22-2.64.64-2.17,3.58,3.6,6.92,6.91,10.21,10.28,5.74,5.88,11.35,11.88,17.2,17.65,2,2,2.74,4,1.8,6.55-1.25,3.39-.72,6.11,1.87,8.85a233.36,233.36,0,0,1,15.8,18.55l-68.24-27.62c.3-3.59-.21-7.43,1.13-10.44,1.21-2.72,4.36-4.64,6.82-6.74,3.44-2.94,7-5.74,10.56-8.56C508,572.77,509.76,571.08,508.13,568.09ZM930.9,730.61c-1.57-1.14-18.79-13.51-20.69-14.67a81.34,81.34,0,0,0,8.92-9.55C926.88,712,950,728.89,958,734.7c-3.28,2.6-6.08,5-9.1,7.09a3.5,3.5,0,0,1-3.18-.23C940.74,738,935.87,734.24,930.9,730.61Zm13.35,20.33c-8.28-6.36-32-24.11-40.69-30.8,1-4.17,9.2,3.19,12.88,5.93,3.52,2.62,22.36,17,26.06,19.31C944.78,746.83,945.19,748.38,944.25,750.94ZM874.5,721.42l-15-10.32c12.94-12.57,28.71-20.8,42.33-31.48l13.27,12.64Zm-55.54-20c-20.42-15.13-41.49-29.73-61.82-45-2.52-1.89-4.44-2.22-6.81.27a5.71,5.71,0,0,1-4.29,1.46c-4.19-.52-8.32-1.52-12.47-2.35-2.77-.56-3.29-.6-3.77,1.45a.53.53,0,0,1-1,.12c-1.62-3.24-1.53-5.15-.15-10.93.84-3.51,1.52-7.06,2.28-10.59s1.53-7.07,2.28-10.54l108.21,63.84c-2.29,2-4.33,3.65-6.28,5.43-3.29,3-3.23,4.19.38,6.63q17.3,11.76,34.65,23.46c.82.55,1.58,1.2,2.59,2l-5.36,5.65-46.9-25.56C821.66,705,821.05,703,819,701.44ZM655.82,662c2.66,1.93,1.66,4.07,1.21,6.28q-3.74,18.45-7.54,36.88l-.68.23c-8-22-15.91-44-24.08-66.53C635.46,646.89,645.56,654.56,655.82,662Zm-33.77-33.2c-1.47-1.88-1.19-5.18-1.56-7.86-1.45-10.64-2.92-21.28-4.2-32a4.7,4.7,0,0,1,1.46-3.68q11.49-8.55,23.29-16.67a4.27,4.27,0,0,1,3.89,0c5.8,4,11.41,8.3,17.13,12.52,2.88,2.18,7.41,5.61,10.62,8.06-15.8,9.92-31,31.68-42.26,45.85C627.5,633,624.09,631.43,622.05,628.82Zm33.08,82.78c3.53-15.3,6.83-30.65,10-46a5.64,5.64,0,0,0-1.61-4.57c-7.21-5.89-14.64-11.5-22-17.22-1.08-.84-2.14-1.72-3.2-2.59,11.91-17.88,24.42-34.74,42.52-46.73,9.55,6.51,19.49,13.31,29.46,20.08,5.19,3.52,10.49,6.91,15.59,10.57a4.18,4.18,0,0,1,1.37,3.41q-1.6,9-3.75,17.91a26.16,26.16,0,0,0,.94,14.76q9.06,27.57,17.82,55.24a5.65,5.65,0,0,1-.12,4.14c-6.73,10.73-13.64,21.34-20.58,32.11l-46.93-26c-5.71-3.17-11.34-6.5-17.15-9.47C654.82,715.88,654.46,714.46,655.13,711.6Zm81.14-47.87a16.74,16.74,0,0,1-.4-2.35,44.88,44.88,0,0,1,7.13,1.2,5,5,0,0,1,2.76,2.86c6.53,20.91,12.92,41.86,19.08,63.07-3.73-3.6-9.05-5-10.93-11.13C748.4,699.38,742.19,681.6,736.27,663.73Zm15.27,3.52c4,2.84,7.31,4.94,10.29,7.41,1,.82,1.37,2.55,1.74,3.94q7.71,29.68,15.3,59.4a16.74,16.74,0,0,1,.24,2.81,28.29,28.29,0,0,1-9.33-14.58C764,706.86,757.88,687.62,751.54,667.25Zm17.9,14.38a4.7,4.7,0,0,1,.18-1.26c3.24,2.34,6.9,4.06,9.14,6.91,1.75,2.22,1.83,5.81,2.47,8.83q5.74,27.24,11.4,54.5a7.89,7.89,0,0,1-.11,1.75c-3.32-2.13-6.14-4.24-7.12-8.08Q777.44,712.95,769.44,681.63Zm15.88,10.17c3.57,2.55,7.13,4.38,9.66,7.15,1.54,1.69,1.71,4.79,2.13,7.32,2.14,12.89,4.13,25.81,6.22,38.7,1,6.12,2.11,12.21,3.25,18.74-7.05-3.22-8.27-9-9.48-15C793.36,729.91,789.35,711.17,785.32,691.8Zm19.24,30.84c-1-6.18-1.94-12.39-3-19,3.53,2.51,6.94,4.66,10,7.25,1,.88,1.38,2.85,1.58,4.39q3.14,23.36,6.09,46.73c.56,4.44,1,8.89,1.51,13.56-7-4.25-9.42-10.49-10.4-18C808.78,745.9,806.48,734.3,804.56,722.64Zm33.35-.6L914,763.79c-5.58,2.55-10.67,5.2-16,7.13a7.35,7.35,0,0,1-6.12-1.21c-14-11.92-27.83-24.09-41.7-36.17-4.2-3.66-8.44-7.28-12.66-10.92A.35.35,0,0,1,837.91,722Zm38.46,11.42c-.54-.3-1-.68-2-1.33l7.7-8.14,46.73,34.64c-2.61,1.61-4.58,1.71-7.17.22C906.61,750.25,891.46,741.9,876.37,733.46ZM878.46,690q-10.77,7.9-21.33,16.08c-1.81,1.39-3.25,1.73-5.25.26-4-3-8.27-5.67-12.55-8.57,13.78-13.2,30.31-22.19,45-32.75,4.32,4,8.4,7.72,12.79,11.75C890.66,681.35,884.49,685.58,878.46,690Zm-34.67-7.29a3.43,3.43,0,0,1-3-.15c-10.39-5.86-65.45-37.5-68-39,8-6.7,15.86-13.31,23.81-19.77a4,4,0,0,1,3.52-.54q36.57,18.66,73,37.54a6.51,6.51,0,0,1,.84.68C863.94,668.64,853.91,675.74,843.79,682.71Zm-78.69-46a3,3,0,0,1-2.59.53c-7.72-4.85-15.35-9.83-23.42-15,7.94-5.79,15.41-11.29,23-16.66a3.41,3.41,0,0,1,2.93-.14c7.76,3.79,15.44,7.72,23.68,11.89C780.44,624.08,772.8,630.43,765.1,636.69Zm-28.89-18.8a4,4,0,0,1-3.6.08c-10.5-6.64-20.9-13.44-31.56-20.36,1.08-1.43,2-2.71,3-3.92,2.38-2.92,8.43-11.28,11.33-11.29,5.91,0,18.09,6.21,33.1,14.14,3.21,1.7,6.41,3.44,9.83,5.26C750.82,607.29,743.58,612.68,736.21,617.89Zm-42.75-25.28c-12.31-8.79-31-22-43-30.58.07-.24.15-.48.22-.72,3.07-2.22,10.34-9.14,14.19-11.93,5.22,3,37.37,21.84,43.74,25.48Zm-48-37.32-7.73-16.65L658.21,547Zm-7.3,7L611.32,582.4c-5.15-4.51-10.26-9-15.36-13.45q-17.79-15.62-35.55-31.23c-9.47-8.35-18.9-16.74-28.37-25.07-3.79-3.34-7.68-6.56-11.46-9.89a7.48,7.48,0,0,1-1.17-2c.59-.31,1.17-.64,1.76-.91,3.78-1.72,19.2-5.75,23.58-3.71,30.12,14,46,21,76.18,35a10.13,10.13,0,0,1,6.05,5.08C629.89,542.14,634.13,552.25,638.13,562.25Zm-21.9,78.22c-6-6.78-12.48-14.28-19.09-21.7-1.9-2.12-2.26-4-.23-6.27a131.66,131.66,0,0,1,14.25-12.81C612.9,613.7,614.61,627.45,616.23,640.47Zm-28.11-66.11c1.9-1.44,1.32-1.5,5.81,2.64,1.46,1.35,2.59,2.4,3.58,3.3-4,4-11,10.84-14.89,14.72a6.62,6.62,0,0,1-.71-.52l-7.15-7.27C578.16,584.26,584.54,577.08,588.12,574.36Zm-16.94,9.76c-2.2-2.08-4.47-4.23-7-6.64,2.37-2.78,9.24-8.8,11.79-11.27s3-1.87,5.75.71c1.18,1.1,2.74,2.65,3.41,3.15C580.71,574.55,574.89,580.36,571.18,584.12Zm3.14-23.71c-4.23,4-10,9.28-14,13.11l-6.52-6.79c3.31-3.5,8.56-9.53,14.15-12.19C568,554.54,573.83,559.75,574.32,560.41Zm-21.24,33.38a7.31,7.31,0,0,0,1.84,6.75c2.76,3.39,5.42,6.86,8.12,10.31a.58.58,0,0,1-.78.84c-1.85-1.25-3.72-2.48-5.54-3.78-4.53-3.22-5.28-3-6.86,2-.15.48-.31,1-.69,2.07-2.27-2.51-4.38-4.75-6.36-7.09a2.71,2.71,0,0,1-.49-2.06c2-8.44,4.06-16.86,6.08-25.15C557.26,581.2,554.2,588,553.08,593.79ZM548,564a10.67,10.67,0,0,0-3,5.11c-1.35,5.41-3.56,15.87-4.35,19.4,0,.14-.06.28-.09.42s-.07.29-.1.4h0a10.91,10.91,0,0,1-.57,1.54c-9.8-10.2-17.84-18.37-27.21-28.45a7.86,7.86,0,0,1-2-5.94c.22-2.57,1.14-6.83,1.85-10.87.21-1.94,1-6.35,2.37-8.61a23.33,23.33,0,0,1,3.47-4.87l31.41,30.1Zm-60.64,19.22a11.75,11.75,0,0,0-3.73,5.68c-.79,3.64-.61,7.49-1,11.24-.27,2.71.91,4.13,3.38,5.12,17.67,7.07,35.31,14.25,53,21.38,5.8,2.34,11.43,5.61,17.47,6.76C565,635,568.53,642,574.86,647.78c-4.07-.34-7.08-.5-10.06-.85q-19.18-2.23-38.36-4.56c-2.75-.33-5-1.37-6.19-4.13-1.78-4.18-5.16-6.53-9.15-8.51-24.53-12.12-49-24.4-73.46-36.62l-3.17-1.59c2.24-2.42,23.23-24.67,29.21-30.19a5.67,5.67,0,0,1,4.39-1.31c4.41,1,16.19,4.58,22.36,6.43.24,0,.48.12.74.2,3.73,1.24,7.54,2.24,11.93,3.51C497.56,574.69,492.31,578.77,487.34,583.17ZM563.7,628.3c-2.61-2.9-5-6-7.75-8.76-2-2-3.33-3.87-1-6.66,2.22,1.64,4.64,3.52,7.17,5.26,2.84,2,4.45,1.33,5.39-2,1-3.64,1.21-7.13-1.74-10.16a50.9,50.9,0,0,1-3.47-4.48c-4.5-5.73-4.5-5.73-2.87-14.08,3,3.07,5.78,6,8.64,8.77q7.31,7.15,14.73,14.19c6,5.68,5.87,5.64,4.71,13.25s-2,15.07-3,22.61c-.15,1.09-.53,2.14-1,3.94C576.53,642.49,570.1,635.41,563.7,628.3Zm22.7-30.15c3.05-2.69,9.44-9.61,13-12.34,2-1.55,2.72-1.65,3.89-.62,1.58,1.38,5.18,4.6,6.36,5.62-4.6,4-11.84,11.4-15.86,15Zm78.16,158.9a6.52,6.52,0,0,1-3.46-4.84c-1.44-7.2-3.3-14.32-4.89-21.49a24.34,24.34,0,0,1,0-4.66c34.43,18.67,81.51,44.7,115.81,63.31-.25,1-.51,2-.74,3a4.08,4.08,0,0,1-3.52,3.07c-10.52,1.19-20.68,2.35-30.85,3.44a4.32,4.32,0,0,1-2.43-.74C715.48,786.94,683.54,768.17,664.56,757.05ZM401.05,527.42a.5.5,0,0,1,1,.25c-.2,3-.35,5.93-.68,8.88-.3,2.7.87,4,3.26,5.17,15.61,7.55,31.14,15.26,47.05,23.1-4.82,5.47-9.49,10.88-14.29,16.17-5.69,6.28-5.74,6.24-13.44,2.79-.34-.15-1.42-.54-1.36-.83.72-2.33,1.43-4.78,2.23-7.19,1-2.9.67-4.94-2.67-6.24-5.26-2-10.24-4.78-15.52-6.72a10.79,10.79,0,0,0-6.81,0c-6.12,2.17-12,4.87-19.08,7.78Zm-24.08,51a4.64,4.64,0,0,1,2.35-1.74c7.5-3.12,15-6.21,22.56-9.18a4.5,4.5,0,0,1,3.11.09c4.26,1.83,8.41,3.9,12.66,5.74,1.73.74,2.17,1.39,1.46,3.38-.77,2.16-1.07,3.46-1.86,5.65-1,2.88-.08,4.18,2.44,5.17,2.67,1,5.27,2.28,8.38,3.65-2.92,3.4-5.61,6.61-8.39,9.75-4,4.53-8,9.07-12.17,13.46-.73.77-2.56,1.46-3.33,1.08-12.06-5.94-24-12.07-36.27-18.28C371,590.72,373.91,584.51,377,578.38ZM217.91,637.76a4.22,4.22,0,0,1,3.34.65c6.07,3.92,12.06,8,18.84,12.51-12.77,5.28-20.05-3.39-29-9.11A59.92,59.92,0,0,1,217.91,637.76ZM189.33,671c.78-2.92,25.79-12.16,31-13.37,7.71-1.81,12.11-.18,18.18,3,4.4,2.28,8.28,5.55,12.35,8.35-4.1,7.15-11.54,8.86-18.26,11.17-6,2.08-12.55,3-18.92,4-2.81.44-3.57,1.9-3.76,4.23-.38,4.63-.73,9.26-1.12,14.13a17.62,17.62,0,0,1-9.54-9c-1-2-3-3.69-4.58-5.21-2.07-2-5.83-5.08-6.54-6.92C187.5,679.78,189.12,671.85,189.33,671ZM248,707.08c3.34,3.14,6.65,4.26,10.9,2.61,4.43-1.71,8.82-3.52,13.2-5.35,3.6-1.51,5.08-6.3,2.52-9.13a84.59,84.59,0,0,0-17.69-15.54c-1.5-1-4.5-1.55-6.24-1.89,2.41-4.61,3.08-4.71,7.52-1.74,10.27,6.86,20.52,13.72,28.69,23.85l-16.59,7.16c-6.2,2.67-12.52,5.12-18.55,8.14-2,1-3.51,3.31-4.74,5.33-1.13,1.84-1.57,4.1-2.42,6.48-7.92-5.49-15.78-10.47-23.09-16.14-6.43-5-8.73-12.07-7.36-20.1.16-1,1.79-2.18,2.88-2.35,3.7-.56,7.47-.71,10.53-1,1.74,2.22,2.73,3.9,4.11,5.16C237,697.49,242.65,702.11,248,707.08Zm-11.41-18.53c4.56-1.73,9.59-3.7,14.68-5.52a3.45,3.45,0,0,1,2.54.34,63.84,63.84,0,0,1,17.69,15.75c-5,2-9.73,3.89-14.43,5.9-2.38,1-4.1.2-5.73-1.48C246.49,698.61,241.64,693.72,236.55,688.55ZM134.41,604.42a7.33,7.33,0,0,1,5.07.57c4.64,2.64,9.1,5.59,13.73,8.54a1,1,0,0,1-.13,1.68c-2.47,1.16-4,.1-6.61-1.59-4.16-2.7-8.2-5.15-12.31-8C133.56,605.17,133.5,604.73,134.41,604.42Zm-5.22,3.68c2.81,1.59,9.17,6.5,13.71,9.72,1.14.92-1.81,1.34-2.64.8-4.88-3.22-8.9-6-14.16-10.13C125.21,607.62,128,607.41,129.19,608.1Zm-8.75,2.64c2.34.91,14.4,9.49,14.87,10.4.25.85-1.61,1.28-2.77.65a91.29,91.29,0,0,1-14.81-10.35C117.19,610.83,119.15,610.23,120.44,610.74Zm-7.93,2.85c4.83,3.13,13.38,9.66,14.31,10.9.29.27,0,.73-.33,1.18-.5.79-2.51-.23-3.44-.84a87.73,87.73,0,0,1-12.85-9.53C109,614.22,111.57,613,112.51,613.59ZM97.69,626.72c-.07-3.39-.65-7,3.41-8.61a3.92,3.92,0,0,1,3.14.07c5,3.32,9.88,6.84,14.59,10.15l-7.12,6.07c-.09.08-.21.21-.3.2-3.38-.36-6.86-.34-10.12-1.19S97.75,629.63,97.69,626.72Zm17.12,61.72-.06.52V689h0c-.5,4.63-1.13,9.2-1.53,12.42-2.89-2.39-5.83-3.47-8.59-7.06-1.41-1.84-.82-7.17-.66-10.06.13-2.25,2.4-38.47,2.62-39.53,10.38,4.76,11.71,5.43,11.07,13-.24,3.7-2.29,24.57-2.84,30.51Zm12.1,24.77c-1.24-.79-2.18-1.34-3.07-2-5.44-3.79-6.62-4.76-6.17-9.12h0s0-.09,0-.14l0-.25c.57-5,3.21-27.66,3.69-32,3.49,2.14,9.59,6.54,9.59,7.93,0,5.12-3.13,30.2-3.59,31.76C127.25,710.63,127.08,711.89,126.91,713.21Zm6.46,9.67c-2.3-1.89-2.68-3.18-2.25-5.76,1-5.89,1.61-11.84,2.29-17.78.8-7,1.45-14.06,2.24-21.07.34-3.08,0-5.6-3.08-7.38-3.57-2-6.87-4.56-10.66-7.12.28-3.66.5-7.66.9-11.65.28-2.81-.53-4.7-3.21-6.11-3.09-1.62-5.89-3.8-9.16-6-.94-.72.19-.83,1.14-.37,5.8,2.78,10.93-.88,15.82-3.59a4.34,4.34,0,0,1,5.43.36c7.95,5.76,16.08,11.26,24.14,16.88.79.55,12.66,8.77,13.69,9.65h0c3,2.07,6,4.15,8.94,6.31.79.57,3.93,1.72,3.94,6.53,0,2.11-2.2,5.32-4.95,7.37-3.12,2.34-3.34,5.68-3.67,9.08-.41,4.21-.88,8.41-1.39,13.29-5.17-3.68-10.46-6.64-14.83-10.39v0c-1.17-.73-15.32-11.1-16.89-12-2-1.1-3.75-.93-4.1,1.76-.83,6.32-1.54,12.65-2.29,19-.27,2.24-.42,4.49-.78,6.71-.71,4.33.88,7,4.72,9.5a42.16,42.16,0,0,1,4.52,3.39c1,.83,3.47,1.39,1.49,3.22-1.21,1.11-2.37,3.15-5.06,1.25C137.17,725.85,136.07,725.09,133.37,722.88Zm35,11.86c-5.39-3.42-19.86-14.12-25.76-18.09l-.32-.21-.26-.17v0c-2.36-1.77-2.66-4.17-2-8.87.85-5.75,1.13-11.58,1.72-18l30,20.86C171.61,712.39,169.34,727.66,168.41,734.74Zm.08,14.33-22.06-16.53c1.37-1.09,3-2.49,4.42-3.58,5.89,3.82,11.38,7.86,17,11.82,1,.7,1.48,2.61,1.61,4S168.91,747.41,168.49,749.07Zm55.82,66.36c-27.86-21.22-58-44.28-85.44-65.21,2.08-2.64,5.65-3.86,8.12-1.92,13.07,10.29,68.55,50.17,76.39,55.58l15.11,2.5c.31,1,.6,1.89.92,2.87C235.31,810.9,228.54,813.73,224.31,815.43Zm21.5-3.49c-.32-.18-.16-.12,0,0Zm6.64-4.25c-4-2.3-7.08-3.8-12.13-6.86h0c-2.12-.88-30-18.5-33.3-21-1.76-1.33-29-23.07-32.18-26.37-1.32-1.39-1.15-4.62-1-7,.49-5.85,1.41-11.65,2.08-17.48,1-8.82,2-17.63,3-26.45a61.88,61.88,0,0,0,.76-8.22c-.1-4.12,1-7.4,4.33-9.15,2.19,2.08,4.4,4,6.4,6.1s4.09,4.09,5.43,6.52A17.27,17.27,0,0,0,202.6,705c4.74,2.71,19.53,12.79,19.53,12.79h0l21.22,14.49c-4.35,7.42-.75,15,.27,22.43,1.57,11.48,3.63,22.91,5.85,34.28,1.29,6.64.69,13.89,5.39,19.89C254.05,808.47,253.22,808.13,252.45,807.69Zm6.77-15.91a77.12,77.12,0,0,1-.76,7.86.86.86,0,0,1-1.68.16,41.56,41.56,0,0,1-1.64-5.81c-2.33-13.69-6-39.69-8.4-54.55,0-.11,0-.22-.05-.34l0-.14,0,0a5.15,5.15,0,0,1,.22-1.67c1.12-3.79,2.33-7.56,3.53-11.34a.78.78,0,0,1,1.51.1c1.77,10.25,5.39,32.59,7.13,42.6a10.29,10.29,0,0,1,.18,2.62C259.29,778.12,259.37,785,259.22,791.78ZM277.65,816q-5.47-40.29-10.94-80.59c.29,0,1.68-.08,2-.12.92,6.5,1.82,13,2.75,19.5,1,6.8,2.07,13.58,3,20.39s1.77,13.65,2.52,20.48,1.34,9.08,2,15.88A6.37,6.37,0,0,1,277.65,816Zm6.4-3.87C280.5,785.41,277,759,273.49,732.61l2-.23q4.8,38.18,9.53,76.36C285.17,809.78,284.42,810.93,284.05,812.12Zm5.79-2.33c-3.55-26.72-6.73-53.23-10.24-79.63l2-.23c3.2,25.45,6.09,51,9.21,76.47C291,807.45,290.21,808.6,289.84,809.79Zm5.55-3.43q-5.07-39.11-10.15-78.23a20.5,20.5,0,0,1,2.32-.22c3.34,24.44,5.64,50.62,8.86,75.09C296.57,804.09,295.73,805.31,295.39,806.36Zm12.46-50.44c-.78,8-1.72,15.89-2.62,24-3.85,0-4.94-10.35-5.5-15-1.39-11.6-1.88-17.14-3.6-28.7-.3-2.07-.42-4.17-.69-7,4.52,5.94,9.2,11.07,12.56,17C309.41,748.55,308.18,752.61,307.85,755.92Zm5.41-13.33a.41.41,0,0,1-.68.47q-4.56-5.91-9.11-11.81c-2.46-3.19-5-6.33-7.33-9.62-1.91-2.7-4.1-2.87-7.44-.83a84.68,84.68,0,0,1-20.83,8.82c-4,1.14-5.89,2.37-5.57,5.73q1.14,12.33,2.19,24.68c.1,1.07,0,2.16,0,3.24s-.81,1.38-1,.19c-2.24-12.71-4.54-25.41-6.58-38.16-.17-1.06,1.17-3,2.28-3.53Q274,715.35,289,709.43c1-.42,3.27-.12,3.75.62C299.74,720.81,306.47,731.72,313.26,742.59Zm-12.41-58.44c-5.07.44-9.93.65-15.18,1.1-7.95.69-11.17-3.14-16.74-7.87-4.94-4.19-9-8-14.28-11.93-2.13-1.58-12.34-8.3-13.15-11-.31-1,7.47-.55,12.84,0,7.69.94,14.88,1.76,22,2.77,1.37.19,11.31,1.7,14.91,4.28,9,6.44,27.52,18.87,29.33,20C322.21,682.28,315.33,682.91,300.85,684.15Zm44.56,13.3c.48-6.53-3.25-9.38-9.33-11.87,5.64-1.28,86.8-18.68,91.4-19.56h0c12.27-2.52,24.29-4.92,36.24-7.59,2.42-.54,2.64.09,3.07,2.11.91,4.22,2,7.71,3.25,12.19C457.07,675.3,346.49,697.25,345.41,697.45Zm109.83-6.69c-.05-.13-34.14-3.42-34.19-3.55,10.47-2,46.69-8.49,57.23-10.11,3.29-.5,9.74.53,13.18,1.08a74.32,74.32,0,0,1,13.27,3.15c5,1.63,9.62,4.61,14.4,7,5.78,2.93,12.44,7.58,12.28,8C507.52,694.28,479.13,692.78,455.24,690.76ZM475,671.4c-1.16-4.25-2.78-9.85-4.18-15.49-.65-2.62-1.43-3.76-4.61-3.07-24,5.25-48,10.27-72.05,15.34l-.17,0c-10.9,2.22-57.12,12-62.64,12.94a4.74,4.74,0,0,1-3.07-.82c-9.87-6.51-19.69-13.09-29.93-19.93,4.45-2.2,8.63-4.25,12.8-6.32,11.83-5.87,34.14-16.88,42.68-20.86a1.9,1.9,0,0,0,.14-3.36c-6.22-3.59-14.59-8.65-17.93-10.47-4.9-4.57,0-12,1.55-13.09,11.07-7.84,16.49-12.51,27.85-20.06-2.1,4.18-3.19,7.82-5.11,12.91,5.54,2.82,40.47,20.52,43.26,22,.58.17,1.76.82,1.45,1.47-1.92,10-7.41,32.72-3.54,32.72a94.25,94.25,0,0,0,12.33-1.17c20.53-3.55,41.09-6.93,61.58-10.67,5.38-1,8.34,2.43,11.84,5,3.95,2.91,7.64,6.18,11.59,9.08,3.59,2.64,5.78-1.55,3.13-3.77-6.19-5.16-11.54-9.7-19-14.95-2.3-1.62-5-1.14-9.25-.34-7.44,1.61-57.18,10.28-68.56,12.22-1.24.16,2.43-20.87,3.77-28.38a8.87,8.87,0,0,1,1.89-4.07l.1-.12c6.55-7.84,13.57-15.29,20.39-22.88,1.68,1,3.13,1.93,4.68,2.71,24.51,12.25,49.07,24.43,73.52,36.81a14.77,14.77,0,0,1,5.87,5.43c2.28,3.94,4.83,6.61,9.72,7,7.23.51,14.43,1.51,21.64,2.37,7.57.89,25.35,2.84,26.94,3,6.2.5,7.36,2.31,9.72,5.3,2.19,2.78,4.23,5.92,7,7.93,9,6.46,18.31,12.47,27.52,18.63,5.87,3.91,5.88,3.89,7.53,12.11C575.55,688.51,526.06,679.22,475,671.4Zm118.58,58.11a34.45,34.45,0,0,0-9.32-10.6l-22.19-16.64c5.76-1.18,11-2.23,16.32-3.35,2.13-.46,3.11.74,4.1,2.32Q591.74,715.9,601,730.5l0,0c5.68,8.12,17.27,24.79,19.32,28.25a20.43,20.43,0,0,0,9.29,8.38c2.72,1.27,5.28,2.87,8.14,4.44-3.52,6.06-6.83,11.78-10.53,18.17C624,784.4,598.24,737.69,593.62,729.51ZM631,799l31.41,22.12c-6.5,5.09-12.69,10-18.9,14.8-4.06,3.17-8.25,6.19-12.18,9.51-1.82,1.53-3.13,1.7-4.84,0-4.53-4.38-9.13-8.68-14-13.27Zm-27.5,37.77,17.3,16.33-60.7,32.49-18.71-14.92ZM520.56,882a3,3,0,0,1,2.65,0c5.9,4.7,11.71,9.52,17.93,14.63l-48.62,27.56L471.3,908.84C488,899.75,504.24,890.86,520.56,882ZM440,973.9c-10.07-3.19-9.1-12.26-9.84-21.47l16.91,13.09Zm73.18,54.55c-5.53-3.91-38.1-28.79-44.37-33.3l7.13-7.4c7.09,6.46,41.09,33.64,48.07,40C518.46,1031.94,518.18,1032,513.19,1028.45Zm70.3-17.45c-11.43,3.1-22.85,6.24-34.32,9.21a4.7,4.7,0,0,1-3.84-.73c-15.4-15.17-32.08-28.83-49.14-42.07-11.55-9-22.85-18.28-34.39-27.29-1-.82-3.74-1.21-4.35-.57-1.69,1.8-.12,3.32,1.48,4.59,18.7,14.94,37.49,29.77,56,44.91,8.95,7.32,17.43,15.22,26.24,23-.78.7-.86.83-1,.86-3.85.95-8.12,3.36-11.45,2.42s-5.72-5.4-8.8-8c-11.82-9.83-23.62-19.68-35.68-29.22-16.48-13.05-33.19-25.82-50.09-38.93l30.62-35.62c9.35,6.41,18.54,13,27.95,19.13,23.74,15.6,45.23,34.13,67.46,51.68,8.52,6.73,16.46,14.19,24.55,21.44C588.2,1008.86,587.86,1009.81,583.49,1011Zm9.91-2.35c-1.73-2.41-2.81-4.44-4.37-6-4.36-4.35-8.91-8.51-13.77-13.1,5.71-1.82,16.63-5.38,21.93-7,9.77-3,19.59-5.83,29.33-8.91a4.12,4.12,0,0,1,5,1.28c3.72,4.11,7.7,8,11.3,12.21,1.52,1.78,2.34,4.17,3.62,6.55C629.92,998.25,608.45,1004.46,593.4,1008.65Zm72.17-20c-3.84,1-7.66,2.15-11.52,3.11-2.08.52-3.68.57-4.17-2.49-.32-2-1.92-4.07-3.4-5.7-4.48-5-9.07-9.87-13.87-14.53a5.65,5.65,0,0,0-4.67-1c-17,5.05-33.91,10.3-50.85,15.53-3.88,1.2-3.39,1-6.67,2.21-13.68-10.83-50.09-40.06-74.63-57.46,7-4,14-8,21-12,9.39-5.35,18.81-10.65,28.19-16,4.06-2.32,4.16-3.49.55-6.5-6.09-5.08-12.23-10.11-18.58-15.36l9.55-5.16c7.26,5.73,17.38,13.65,24.84,19.54l-6.68,3.34c-3.82,2-4.07,4-.58,6.64,6.21,4.7,9.6,7.06,15.87,11.69,11,8.15,22.31,16,33,24.55,6.88,5.51,12.9,12.1,19.32,18.19,3.85,3.65,7.67,7.33,11.64,10.85a4.43,4.43,0,0,0,3.33,1c3.65-.78,7.26-1.82,10.83-3,3.25-1,3.64-2.7,1.06-5.13-9-8.45-18.12-16.81-27.29-25.3l81.53-22.16c.92,10.26,1.82,20.12,2.7,30,.16,1.89-.1,3.06-2.54,3.7-15.44,4.09-30.8,8.48-46.19,12.74-5.39,1.49-5.94,3.12-2.15,7.33s7.73,8.34,11.61,12.49a11.31,11.31,0,0,1,1.81,1.93C670.65,985.52,669.75,987.54,665.57,988.69Zm11.81-3.11c-2.86.76-3.3-.55-3.8-2.87a13.88,13.88,0,0,0-2.62-5.82c-3.48-4.13-7.33-8-11.45-12.35,15.19-4.16,29.8-7.85,44.2-12.25,4.74-1.45,8.89-.19,13.18.52,10.45,1.73,20.78,4.18,31.24,5.81,4.13.65,3.26,3.38,3.35,5.76.06,1.7-1.77,2.07-2.93,2.38C724.84,973.09,701.09,979.27,677.38,985.58Zm124.09-8.07c-8.31-1.61-16.63-3.55-25-4.28-9.48-.83-19.1,0-28.63-.19a.65.65,0,0,1-.11-1.29l25-4.61c2.82-.52,5.67-.93,8.48-1.53,7.75-1.44,35.87-6.25,42.82-7.53,2.12-.39,8,3.07,9.07,5.66,3,7.06,5.92,14.19,9.22,22.15C834.17,984.18,809.63,979.09,801.47,977.51Zm117.39,49.21q-34.33-19.72-68.58-39.57a9.39,9.39,0,0,1-3.52-4.08c-2.33-5.08-4.34-10.3-6.79-16.26l118.53,66a.45.45,0,0,1-.26.85c-3.1-.24-6.2-.44-9.29-.75-7.47-.73-15-1.26-22.39-2.43C923.86,1030.08,921.35,1028.15,918.86,1026.72Zm150.07,86A12,12,0,0,1,1064,1111c-27.94-15.13-55.93-30.17-83.73-45.56-17.13-9.49-33.95-19.53-51.91-29.9,3.94.3,6.79.42,9.62.74,10.56,1.22,21.1,2.58,31.67,3.65a4.51,4.51,0,0,0,2.11-.41,2.45,2.45,0,0,0,1.14-3.66,5,5,0,0,0-1.52-1.55q-41.07-23.12-82.26-46-26.18-14.6-52.36-29.15a6.1,6.1,0,0,1-2.71-2.86c-.54-1.38,3.51.54,5.07,1.23q29.11,12.8,58.15,25.73,60.78,27.18,121.53,54.44c.67.31,1.33.65,2,1-1,3.36-3.52,7.06-2.67,9.69.91,2.8,5,4.58,7.64,6.8a35.19,35.19,0,0,0-2,5.84c-1,6,0,7.72,5.52,11,14.64,8.8,29.12,17.85,44,26.31,4,2.26,8.92,2.8,13.46,4,5.75,1.54,7.47.77,9-2.64q9.68-21.23,19.75-42.28c1.41-3,1.69-5.17-1.67-6.86a3.08,3.08,0,0,1-1.58-2.22c.22-3.67-2.18-5.62-4.79-7.08q-28-15.6-56.12-30.93c-4-2.21-7.62-2.15-9.53,3.91-.7,2.22-1.44,4.5-2.33,7.15-1.78-1.44-3.38-2.77-5-4-3.64-2.81-4.69-2.52-6.75,2.09-18.21-8.63-92.65-43.84-93.82-44.4-10.65-5.06-21.26-10.21-32.39-15.58.38-4,.89-8.37,1.14-12.72a11.8,11.8,0,0,0-.74-4.86,29.59,29.59,0,0,0-2.75-4.48c-7.18-11.58-14.29-15.44-24.36-19.74-10.26-4.38-20.31-9.27-30.44-14-5-2.3-5.89-1.67-6.06,3.68-.25,7.8-.7,15.6-1.1,24.18-3.88-2.57-7.55-5-11.25-7.45q-27-17.55-54.1-35c-2.23-1.43-3.24-2.9-3.21-5.69.16-15.58.08-31.15.08-46.73,0-5.35-.1-10.69,0-16,.07-2.65-.94-3.58-3.56-3.55-3.61,0-7.24-.17-10.85-.48a4.63,4.63,0,0,1-2.43-1.42c-3.09-3-6-6.2-9.2-9.05a7.05,7.05,0,0,0-4.58-1.81c-9.84.81-19.68,1.76-29.48,3a7.65,7.65,0,0,0-4.75,3.38c-6,9.76-9.31,20.26-7.15,32.91-5.32-3.13-9.62-6-14.22-8.27-7.65-3.8-10-8-11.11-18.24-1-9.17-3.05-14.42,1.47-14.33,4.81.11,13.49,5.91,18.29,6.28,3.07.24,4.36-1.08,3.8-4-1.8-9.26-3.73-18.49-5.61-27.73l23.8,14c5.84,3.45,11.89,6.6,17.46,10.45,4.8,3.33,9.48,1,14.15.65,7.23-.55,14.4-1.79,21.62-2.48,2.64-.25,6.1-.38,8.19-3.62,1.46-2.28,1.37-2.08,2.33-5.51l99.9,34.84-21.17,18.7c-2.68,3-10.81,11.67-12.19,15.67-2.46,4.64-6.3,17.28-6.65,20.36-.27,2.31.67,3.76,2.78,4.77,5.52,2.66,10.94,5.52,16.46,8.17,3.8,1.81,4.13.61,5.32-3.44,1.41-4.82,1.59-5.83,3.36-10.66,1.2-3.27,1.83-4.21-1.43-5.85-5.47-2.76-11-5.41-16.92-8.33,1.63-4.27,8.35-13,12.53-17,9.19-8.93,13.6-12.06,22-18.64a4.65,4.65,0,0,1,3.83-.56q7.95,2.88,15.67,6.34a4.75,4.75,0,0,1,2.39,3.17c1.4,11.8,2.62,23.63,3.84,35.46.82,7.85,1.39,15.73,2.45,23.54a7.66,7.66,0,0,0,3.2,5c14,8.12,28.06,16.28,42.45,23.73,4.13,2.15,9.4,2.21,14.19,3,12.93,2.12,25.93,3.85,38.79,6.32,3.38.65,6.39,3.34,9.5,5.21,8.61,5.19,17.1,10.58,25.8,15.62a62.41,62.41,0,0,1,14.87,12.06c6.14,6.73,12.6,13.18,18.9,19.76.86.9,1.59,1.92,2.45,3-2.65,3.23-5.14,6.39-7.76,9.44-3,3.46-.58,4.37,5.41,8.32s12.31,8.22,21.41,14.07c4.88,3.13,6.83,5.79,9.67,2.65,7.62-8.43,15.32-16.78,22.93-25.21,2.18-2.42.74-4.07-1.43-5.48q-11.58-7.49-23.13-15l-5.54-3.6,23.54-15.47c9.39,9,20.9,15.7,28.36,26a45.21,45.21,0,0,0-6.2,2.61c-12.29,7.56-18.26,16.53-29.06,28.6-2,2.18-5,5.42-7,7.57s-2.09,4-.76,6.54c6.73,12.78,13.32,25.63,20.11,38.37a6.25,6.25,0,0,1,0,6.9c-6.17,11-12.46,22-17.62,33.49-1.53,3.4-3.5,3.61-6.22,3.29-2-.22-4-.6-6-.66C1089.61,1113.22,1079.27,1113.06,1068.93,1112.67ZM842.29,953.73c0-5.28.47-39.68.47-45.09l27.31,12.72c2.16,1,5,2.24,6.5,2.94,12.59,5.8,15.58,11.56,20.61,20,1,1.73.55,4.55.28,6.82-1,8.29-2.15,16.55-3.29,25.16l-22.95-10.09C853.72,958.89,845.85,955,842.29,953.73ZM1107,1053.66c.77-.45,2.35.52,4,.95-2,4.25-3.8,8.21-5.64,12.2-1.76,3.76-12.37,29-14,32.51-.48-.3-9.16-2.75-9.37-3.12-1-1.76,6.63-24.83,13-33.77h0C1098.05,1058,1103.34,1055.77,1107,1053.66Zm-17.72,8.3c-3.67,6.19-4.59,9.83-8,18.54a102.81,102.81,0,0,0-4.85,13.94l-18.66-11.18c7.74-17.08,11.43-35.69,23.22-51.19l26.37,15.06C1100.46,1052.26,1094,1054.05,1089.31,1062Zm-36,18.6c-8-4.78-15.82-9.37-23.48-14.28-1-.63-1.24-3-1.15-4.47s1.08-2.75,1.65-4.09c4.83,2.17,9.3,4.13,13.72,6.17,2.19,1,3.53.5,4.42-1.77,2-5.13,4.42-10.12,6-15.36a8.9,8.9,0,0,0-1.09-6.49c-2.31-3.72-5.55-6.86-7.91-10.57a9.74,9.74,0,0,1-1.11-6.12,46.4,46.4,0,0,1,2-7.47,2,2,0,0,1,2.82-1.14l27.24,14.6C1064.82,1045,1061.06,1063.47,1053.32,1080.56Zm-5.34-38.92a5.19,5.19,0,0,1,1.11,4c-.43,2.16-3.38,10.74-4.52,13.58-6.24-3.94-13.17-7.43-19-11-2-1.2-.51-5.65.5-7.91,1.66-3.72,3.91-11.1,5.58-15.63,2.28,2.63,4.18,5.06,6.34,7.24C1041.24,1035.22,1044.8,1038.25,1048,1041.64Zm-25-7.71L899.17,978.46c.36-4.12.76-8.55,1.22-13.72l126.11,59.85C1025.3,1027.79,1024.22,1030.67,1023,1033.93ZM844.74,870.44c5,2.48,10.08,4.65,14.1,6.66-1.07,3.51-2.07,6.83-3.19,10.52-4-2-8.69-4-12.9-6.69-1-.67-.41-3.16.07-4.91S843.51,872.11,844.74,870.44Zm236.2,246.93c3.49.39,6.08.81,8.69.94,6.78.32,13.57.77,20.34.6,1.8,0,4.18-1.75,5.19-3.38,3.22-5.18,5.91-10.69,8.88-16.21l3.79,2.67c-1.94,3.9-3.77,7.81-5.83,11.6a9,9,0,0,0-.73,7.83c2,5.83,3.57,11.79,5.49,18.27C1110.87,1133.27,1095.07,1128.32,1080.94,1117.37Zm73.63,2.09c-1.28,1.69-16.06,20.64-16.15,20.76a7.4,7.4,0,0,1-.93,1l0,0h0a7.35,7.35,0,0,1-2.72,1.62c-.51.15-2-1.58-2.38-2.68-2-6.24-5.51-19-5.37-19.08s5.69-3.5,11.91-7.59c1.31-2.43,3.21-5.77,3.24-5.83,4.51-8.92,4.51-8.91,13.75-5.31l7.38,2.87C1160.44,1109.87,1157.65,1114.43,1154.57,1119.46Zm175.8,27.71c-127.68-4.26-149.59-13.3-166.39-15.73v-3.23c0-3.69.67-11.83.67-15.61,5.14,1.34,10,2.57,14.89,3.88,14.57,3.89,29.1,8,43.74,11.62,4.68,1.17,96.59,13.72,96.59,13.72,4.85.46,8.49.83,10.5,1.09C1330.12,1144.19,1330.68,1145.58,1330.37,1147.17Zm-97.43-22.88c2-2.39,3.28-4.4,5-5.72a6.22,6.22,0,0,1,4.47-.83c21.91,4.39,43.75,9.08,65.7,13.2,2.88.54,6.4-1.39,9.39-2.7,2.37-1,4.23-1.26,6.54.08,4.53,2.62,9.24,5,13.7,8.07C1333.14,1139.69,1324.76,1137,1232.94,1124.29Zm108.51,7.5c-.72-.44-28.06-15-36.52-19.66,2-4.1,2.09-3.26,3.35-7.07.39-1.18-.91-3.83-2.15-4.5-11.14-6-29.09-15.31-38.3-19.88-.95-3-1.77-5.54-2.84-8.89,9,4.54,17.47,8.63,25.77,13q22.89,12,45.62,24.35h0c.68.37,13.72,8.58,15.33,9.6Zm-9.31-36.8,11.1-29.56c3.08,13.62,5.92,26.12,9,39.63ZM1384,1084.8c-6.45,8.7-14.93,15.06-24.83,21-1.62-7.21-3.12-13.87-4.62-20.53-1.22-5.46-2.47-10.91-3.64-16.38-.46-2.14-.24-3.38,2.31-4.83,5-2.82,9.26-6.83,13.82-10.37,1-.77,1.89-1.64,3.24-2.82,1.8,3.57,3.55,6.92,5.2,10.32,3.07,6.31,6.2,12.6,9,19A5.46,5.46,0,0,1,1384,1084.8ZM811.77,858.31c-.11-.06-14.72-7.84-22-11.52-3.68-1.86-5.3-.86-5.34,3s0,7.84,0,11.76.19,7.85-.07,11.75c-.18,2.71.93,4.19,3.17,5.36,8,4.17,15.94,8.45,23.94,12.62,4.41,2.3,5.87,1.39,5.9-3.53,0-5.94.25-10,.25-17.78C817.76,861.9,818,861.17,811.77,858.31Zm.48,27.64c-7.47-4-14.76-7.86-22-11.86-.62-.35-1-1.68-1-2.56-.08-6.2,0-12.4,0-19.29l24,12.65C813,871.72,812.61,878.59,812.25,886ZM913.79,650.63Q938,667,962.23,683.22a20.55,20.55,0,0,0,3.2,1.46,19.11,19.11,0,0,0,2.4-.8c11.39-5.91,22.8-11.76,34.12-17.8,3.45-1.84,3.33-3.85,0-6.26-15.17-11-30.39-21.9-45.47-33-2.86-2.11-5.23-2.25-8.28-.65-11.2,5.88-22.5,11.58-33.75,17.37C910.1,645.78,909.85,648,913.79,650.63Zm36.92-20a3,3,0,0,1,2.57.33c14.61,10.43,29.17,20.93,44.2,31.75-6.79,3.64-13.14,7.1-19.54,10.46-3,1.57-6.22,2.79-9.14,4.5-2.43,1.42-4.13,1.11-6.45-.49-14.47-9.94-29.1-19.68-44.13-29.79C929.38,641.64,940,636.1,950.71,630.67Zm175.44,255c-9.19-7.44-18.57-14.64-27.9-21.9a7.4,7.4,0,0,0-1.82-.93,2.23,2.23,0,0,0-1.89.08,13,13,0,0,0-2.65,1.59c-5.13,4.48-10.32,8.91-15.13,13.71-.92.91-.81,3.69-.15,5.15.85,1.85,2.71,3.26,4.16,4.83,6.75,7.34,13.48,14.7,20.27,22,2.15,2.3,4,2.13,6.21-.45,3.53-4.06,7.53-7.73,11.43-11.46a33,33,0,0,1,6.34-5.34C1129.47,890.4,1130,888.78,1126.15,885.63Zm-599.4,29.59c-6.47-.58-11.24,2.37-15,7.13C507.28,928,510.17,936,517,936.7c6.28.69,11.94-.65,16.37-5.63,2.83-3.18,4.78-6.57,2.88-10.87C534.41,916.08,531,914.72,526.75,915.22ZM1004,820.3a1.65,1.65,0,0,0,1.54,0,9,9,0,0,0,2.1-1.71,130.75,130.75,0,0,0,11-11.51c4.81-5.73,6.35-5.65,2.76-8.77-14.13-12.32-19.08-17.08-30.18-28-3.12-3.07-4.61-3.11-6.74-.69-4.22,4.79-8.72,9.3-13.34,13.7-2.71,2.59-2.62,4.52.05,7,10.52,9.63,20.93,19.38,31.41,29.07A7.46,7.46,0,0,0,1004,820.3Zm-16.17-46.64,29.75,27.65c-4.44,4.3-8.77,8.49-13.34,12.93l-29.6-27.52Zm214.2,29a21.52,21.52,0,0,0-2.57-.92c-3.8,1.07-7.62,2.16-11.45,3.23-3.65,1-4.25,2.92-1.85,5.76q10,11.82,19.91,23.68c3.66,4.4,3.66,4.4,9.3.41,2.62-1.86,4.86-3.58,8-2.67,2.07.6,3.85,1.2,5.14-1.2s2.47-4.89.39-7.32A84.65,84.65,0,0,0,1202.07,802.62Zm-38.4,150.08c8.69,0,13.47-4.79,14-12.77.46-7-7.08-15-15.59-15-7.76,0-14.32,5.61-14.32,12.9A14.79,14.79,0,0,0,1163.67,952.7Zm-74-241.92c-3.4.69-3.66,2-1.15,4.46,2.78,2.74,5.73,5.31,8.62,7.92,7.76,7,15.49,14.05,23.35,21a5.64,5.64,0,0,0,3.81,1,107.25,107.25,0,0,0,10.7-1.4c1.2-.22,3.15-1,3.22-1.73a5.08,5.08,0,0,0-1.6-3.71q-15.16-13.63-30.54-27c-1.13-1-2.12-2.09-3.28-2.09C1097.77,709.73,1093.64,710,1089.63,710.78Zm36.3,23.38c1.06.94,6.26,5,3.59,5.44-3.73.11-6.19.82-9.1-2-7.68-7.38-16.48-15.09-24.44-22.28a.64.64,0,0,1,.19-1.1c6.11-1.26,7.19-.26,9.82,2.18C1112.94,722.85,1118.83,727.9,1125.93,734.16ZM244.34,769.75a70.72,70.72,0,0,0-2.27-10.55c-2.25-6.76-8.95-8.84-14.12-12.42-1.58-1.1-3.51-.21-3.52,2.33a26.44,26.44,0,0,0,.11,3.78c.67,4.69,1.63,9.34,2.14,14,1.33,12.53,1.22,12.6,11.54,18.88,1.29.79,3.57,1.21,4.77.59a6.5,6.5,0,0,0,2.25-2.38,4.24,4.24,0,0,0,.64-2.86C245.33,776.82,244.93,773.27,244.34,769.75Zm-12.19,0c-.3-4.1-1.44-10-2.27-15.23,8.65,3.14,8.53,10.42,9.71,17,.57,3.17.9,6.38,1.37,9.75C235.78,779,233.14,776.79,232.15,769.74Zm148.4-118.1c-5.89-.75-11.36,0-15.85,4.82-2.68,2.85-3.58,6-2.44,9.25s3,3.28,7.49,3.52c7.36-.83,10.44-2.34,13.84-6.67C386.68,658.63,384.94,652.2,380.55,651.64Z"/></g><g id="Thrusters"><path d="M371.23,655.53c-3.84,1.83-6.05,5.2-4.94,7.53s5.13,2.73,9,.9,6.05-5.2,4.93-7.53S375.07,653.7,371.23,655.53ZM520.64,920.2c-4.45,2.13-7,6-5.73,8.75s6,3.17,10.4,1,7-6,5.73-8.74S525.09,918.08,520.64,920.2ZM1165.43,932c-4.32-1.71-9,0-10.53,3.75s.78,8.24,5.1,9.95,9,0,10.53-3.75S1169.74,933.69,1165.43,932Zm91.78-59.17c-2.92-2.92-6.64-3.93-8.31-2.26s-.67,5.4,2.25,8.31,6.64,3.93,8.32,2.26S1260.13,875.73,1257.21,872.81Z" fill="#007aff"/></g></g></svg>