<svg xmlns="http://www.w3.org/2000/svg" viewBox="0 0 1500 1500"><title>Type 6 Transporter</title><g id="Type_6_Transporter" data-name="Type 6 Transporter"><g id="Colour"><path d="M1376.7,862.52c-.47-3.68-1.1-7.63-2.85-10.8-3.27-5.9-7.47-11.28-11.18-17q-16.5-25.23-32.93-50.51-31.83-48.87-63.69-97.75-25.68-39.16-51.74-78.09c-2.58-3.86-5.23-8.25-9-10.67-21.84-14.09-44.06-27.61-66.08-41.44q-41.74-26.23-83.39-52.66c-32.73-20.74-65.38-41.62-98.16-62.29-26.4-16.64-53-33-79.4-49.61-11.09-7-21.89-14.41-33-21.42C833,362.51,820.5,354.87,808,347.27c-6.72-4.08-13.3-8.55-20.45-11.69-14.1-6.19-28.5-11.67-42.85-17.26-27.42-10.69-54.94-21.12-82.33-31.89-27.62-10.86-55.11-22.07-82.7-33-14.54-5.76-29.37-10.85-43.76-17-18.65-8-36.95-16.71-55.49-24.93-3.53-1.57-7.8-3.76-11.12-3-5.56,1.26-10.88,4-16.32,6.06-8.61,3.19-16.44,8.74-24.24,13.83-9.52,6.21-19.73,11.06-28.68,18.63-7.29,6.16-13.87,11.91-17.69,20.59-.84,1.9-2.17,3.94-2.07,5.85.5,9.39,1.26,18.78,2.2,28.15,1.29,12.91,2.94,25.79,4.11,38.71.11,1.27-1.75,3.42-3.16,4-3.62,1.42-7.91,1.45-11.21,3.31q-27.86,15.76-55.3,32.29c-3.56,2.15-6.57,5.62-9.1,9-5.75,7.76-11,15.85-16.55,23.86-4-.84-8.26-.82-11.55-2.62-8.33-4.55-16.24-9.89-24.28-14.95-14-8.8-27.76-17.87-41.95-26.28-4.13-2.45-9.71-4.89-14-4.07-7.56,1.43-15,4.77-21.85,8.42-12.15,6.43-24,13.46-35.68,20.74C136.21,397.64,112.54,413,110.5,416c-6.9,10.17-11,21.06-6.71,33.88,2.14,6.39,2.51,13.39,3.56,20.13,1.73,11,3.32,22,5,33,2,12.6,4,25.18,6,37.78,1.13,7.26,1.45,14.74,3.48,21.74a110.26,110.26,0,0,0,9.33,22.84c13.59,24.4,27.73,48.5,41.67,72.7q16.52,28.64,33.07,57.25,15.6,26.92,31.26,53.83,13.89,23.92,27.72,47.9c6.91,12,14.33,23.34,26,31.86,18.11,13.27,35.42,27.63,52.94,41.7,12.53,10.05,24.71,20.54,37.28,30.54,22.12,17.61,44.53,34.86,66.63,52.51,21.57,17.21,42.8,34.84,64.35,52.09,20.61,16.48,41.53,32.57,62.12,49.07,20.33,16.3,40.32,33,60.67,49.33,12.07,9.67,24.44,19,36.87,28.18a66.35,66.35,0,0,0,12.45,7.11c3.56,1.59,7.54,2.21,11.3,3.33,18.51,5.5,37,11.17,55.51,16.52,18.89,5.44,37.9,10.48,56.81,15.91,14.25,4.08,28.37,8.6,42.61,12.73,16.32,4.73,32.74,9.14,49.06,13.87,31.77,9.21,63.56,18.37,95.23,27.92,10.41,3.15,17.46-2.78,25-7.67,1-.65,1.38-2.41,1.83-3.73,4.77-14.06,9.82-28,14.09-42.25,1.68-5.59,2-11.69,2.18-17.58.12-4.75-1-9.53-1.53-14.56,11.14-2.24,21.83-4.44,32.55-6.52q24.81-4.82,49.65-9.48c10.75-2,21.49-4.12,32.28-5.88,4.58-.75,8.1-1.95,7.32-7.44,3.9-.72,7-2.5,10.93.62,10.85,8.56,22.44,16.19,33.46,24.55,4.46,3.38,9.08,5.82,14.4,3.79,31.17-12.08,72.15-44,84.36-57.74,4.72-5.32,15.38-65.25,6.84-81.32-3.07-5.76-6.29-11.44-9.78-17.71l20.55-55.24c5.89,5.09,11.39,9.52,16.5,14.37,3.44,3.26,6.21,3.12,9.27-.22,4.55-5,9-10,13.8-14.74,7.15-7.09,14.87-13.82,17.33-24.12,2.08-8.66,5-17.48,4.93-26.21C1380.6,888,1378.3,875.22,1376.7,862.52Z" fill="#4a5359"/><path d="M1376.7,862.52c-.47-3.68-1.1-7.63-2.85-10.8-3.27-5.9-7.47-11.28-11.18-17q-16.5-25.23-32.93-50.51-31.83-48.87-63.69-97.75-25.68-39.16-51.74-78.09c-2.58-3.86-5.23-8.25-9-10.67-21.84-14.09-44.06-27.61-66.08-41.44q-41.74-26.23-83.39-52.66c-32.73-20.74-65.38-41.62-98.16-62.29-26.4-16.64-53-33-79.4-49.61-11.09-7-21.89-14.41-33-21.42C833,362.51,820.5,354.87,808,347.27c-6.72-4.08-13.3-8.55-20.45-11.69-14.1-6.19-28.5-11.67-42.85-17.26-27.42-10.69-54.94-21.12-82.33-31.89-27.62-10.86-55.11-22.07-82.7-33-14.54-5.76-29.37-10.85-43.76-17-18.65-8-36.95-16.71-55.49-24.93-3.53-1.57-7.8-3.76-11.12-3-5.56,1.26-10.88,4-16.32,6.06-8.61,3.19-16.44,8.74-24.24,13.83-9.52,6.21-19.73,11.06-28.68,18.63-7.29,6.16-13.87,11.91-17.69,20.59-.84,1.9-2.17,3.94-2.07,5.85.5,9.39,1.26,18.78,2.2,28.15,1.29,12.91,2.94,25.79,4.11,38.71.11,1.27-1.75,3.42-3.16,4-3.62,1.42-7.91,1.45-11.21,3.31q-27.86,15.76-55.3,32.29c-3.56,2.15-6.57,5.62-9.1,9-5.75,7.76-11,15.85-16.55,23.86-4-.84-8.26-.82-11.55-2.62-8.33-4.55-16.24-9.89-24.28-14.95-14-8.8-27.76-17.87-41.95-26.28-4.13-2.45-9.71-4.89-14-4.07-7.56,1.43-15,4.77-21.85,8.42-12.15,6.43-24,13.46-35.68,20.74C136.21,397.64,112.54,413,110.5,416c-6.9,10.17-11,21.06-6.71,33.88,2.14,6.39,2.51,13.39,3.56,20.13,1.73,11,3.32,22,5,33,2,12.6,4,25.18,6,37.78,1.13,7.26,1.45,14.74,3.48,21.74a110.26,110.26,0,0,0,9.33,22.84c13.59,24.4,27.73,48.5,41.67,72.7q16.52,28.64,33.07,57.25,15.6,26.92,31.26,53.83,13.89,23.92,27.72,47.9c6.91,12,14.33,23.34,26,31.86,18.11,13.27,35.42,27.63,52.94,41.7,12.53,10.05,24.71,20.54,37.28,30.54,22.12,17.61,44.53,34.86,66.63,52.51,21.57,17.21,42.8,34.84,64.35,52.09,20.61,16.48,41.53,32.57,62.12,49.07,20.33,16.3,40.32,33,60.67,49.33,12.07,9.67,24.44,19,36.87,28.18a66.35,66.35,0,0,0,12.45,7.11c3.56,1.59,7.54,2.21,11.3,3.33,18.51,5.5,37,11.17,55.51,16.52,18.89,5.44,37.9,10.48,56.81,15.91,14.25,4.08,28.37,8.6,42.61,12.73,16.32,4.73,32.74,9.14,49.06,13.87,31.77,9.21,63.56,18.37,95.23,27.92,10.41,3.15,17.46-2.78,25-7.67,1-.65,1.38-2.41,1.83-3.73,4.77-14.06,9.82-28,14.09-42.25,1.68-5.59,2-11.69,2.18-17.58.12-4.75-1-9.53-1.53-14.56,11.14-2.24,21.83-4.44,32.55-6.52q24.81-4.82,49.65-9.48c10.75-2,21.49-4.12,32.28-5.88,4.58-.75,8.1-1.95,7.32-7.44,3.9-.72,7-2.5,10.93.62,10.85,8.56,22.44,16.19,33.46,24.55,4.46,3.38,9.08,5.82,14.4,3.79,31.17-12.08,72.15-44,84.36-57.74,4.72-5.32,15.38-65.25,6.84-81.32-3.07-5.76-6.29-11.44-9.78-17.71l20.55-55.24c5.89,5.09,11.39,9.52,16.5,14.37,3.44,3.26,6.21,3.12,9.27-.22,4.55-5,9-10,13.8-14.74,7.15-7.09,14.87-13.82,17.33-24.12,2.08-8.66,5-17.48,4.93-26.21C1380.6,888,1378.3,875.22,1376.7,862.52Z" fill="none" stroke="#111" stroke-linejoin="round" stroke-width="8"/></g><g id="Paint"><path d="M1294.34,896.64l-2.27-18.56-100.45-95.34a11.37,11.37,0,0,1-3.15-5.31l-4.13-15.56-52.7-51.32a13.72,13.72,0,0,1-4.08-8.51l-2-20.17,34,28.38,4.13-95.41a11.85,11.85,0,0,0-5.59-10.59L880.44,431.6a2.07,2.07,0,0,0-2.65,3.12l62.1,70.72a27,27,0,0,0,5.37,4.69l132.11,87.54a10.26,10.26,0,0,1,4.55,7.76l3.32,43.58-19-13.94,6.37,94.44,27.26,22.8,19.73,7.23,57.89,39.76,37.89,42.61,25.25,66.41L1280,945.65l4.19,5.32,9.9-47.89A19.62,19.62,0,0,0,1294.34,896.64ZM1105.9,1031.82l-86.43-78.63-6.14-11.78-4.21-12.64-19-17.37-72.94-77.25a8.82,8.82,0,0,0-6.72-2.75L816.63,835l1.75,21.23-66.21,3.29L611.78,754.36a22.77,22.77,0,0,0-6.77-3.48L450.22,701.67a2.65,2.65,0,0,0-2.44,4.61L708.15,910.76a16.26,16.26,0,0,0,11.76,3.37l131.62-14.25L870.78,898V878.08h24.15a5.94,5.94,0,0,1,4.23,1.77L943.6,925a18,18,0,0,1,5.15,12.59v14A15.07,15.07,0,0,0,953,962.14l105.6,108.07,5.49,20.61a3.27,3.27,0,0,0,3.16,2.43h51.37a2.24,2.24,0,0,0,2.16-2.79Z" fill="#7a140c"/></g><g id="Canopy"><path d="M1279.72,970.4l-140.41,54.91,23.5,100.19,55.92,25.3s53.83-21.11,68-35.31,18-38,18-38l1.56-49.55Z" fill="#82b3d1"/></g><g id="Shadows" opacity="0.2"><path d="M1206.54,996.8l-35.48-40.7-47.3-31.63L1071,878.82l-40.42-35.23L683.76,600.52s-6.6-3-7.42-2.37-30.61-2-30.61-2S502.36,500,508.86,493.66s118.76-76.49,118.76-76.49l-62.83,7L418.48,510.28l69.21,48.87.81-9.18,129.63,94h35.2L700.26,682h14.19L897.42,813,973.06,970.4l84.83,84.88,12.71,39.5-36.35,11.06-9.85,19.84s-196.54-65.26-222.09-83.6S218.46,578.62,197.93,559.15c-7-6.62-20-21.17-31.75-41-15.92-26.81,6.13-27.91,51.89-37.95-31-19-66.4-41.56-100.54-63-14-8.82-12.73,22.05-12.73,22.05l4,42.75,17.52,95.59,156.12,264,395,314.47,325.26,94.58,25.95-84.07s122.1-28.42,122.38-30,2.45-7.73,2.45-7.73l22.57-5s37.51,25.51,40.7,19.8c33.86-60.56,0-128.15,0-128.15Zm135.57-141.53-63.06,99.91L1296,997l61.52-134.56Zm-174.61,4.81,13.35-8.17-4.84-8.16-10-4.25-14.79,9.35,2.25,1.55ZM422.93,338.34l19.57-10.57h60.13l-9.17-17.1-104.6-52.15-8.4,17.92,6.39,70.42Z" fill="#111"/></g><g id="Outline"><path d="M1376.7,862.52c-.47-3.68-1.1-7.63-2.85-10.8-3.27-5.9-7.47-11.28-11.18-17q-16.5-25.23-32.93-50.51-31.83-48.87-63.69-97.75-25.68-39.16-51.74-78.09c-2.58-3.86-5.23-8.25-9-10.67-21.84-14.09-44.06-27.61-66.08-41.44q-41.74-26.23-83.39-52.66c-32.73-20.74-65.38-41.62-98.16-62.29-26.4-16.64-53-33-79.4-49.61-11.09-7-21.89-14.41-33-21.42C833,362.51,820.5,354.87,808,347.27c-6.72-4.08-13.3-8.55-20.45-11.69-14.1-6.19-28.5-11.67-42.85-17.26-27.42-10.69-54.94-21.12-82.33-31.89-27.62-10.86-55.1-22.07-82.7-33-14.54-5.76-29.37-10.85-43.76-17-18.65-8-36.95-16.71-55.49-24.93-3.53-1.57-7.8-3.76-11.12-3-5.56,1.26-10.88,4-16.32,6.06-8.61,3.19-16.44,8.74-24.24,13.83-9.52,6.21-19.73,11.06-28.68,18.63-7.29,6.16-13.87,11.91-17.69,20.59-.84,1.9-2.17,3.94-2.07,5.85.5,9.39,1.26,18.78,2.2,28.15,1.29,12.91,2.94,25.79,4.11,38.71.11,1.27-1.75,3.42-3.16,4-3.62,1.41-7.91,1.44-11.21,3.3q-27.86,15.76-55.3,32.29c-3.57,2.15-6.57,5.62-9.1,9-5.75,7.76-11,15.85-16.55,23.86-4-.84-8.26-.82-11.55-2.62-8.33-4.55-16.24-9.89-24.28-14.95-14-8.8-27.76-17.87-41.95-26.28-4.13-2.45-9.71-4.89-14-4.07-7.56,1.43-15,4.77-21.85,8.42-12.15,6.43-24,13.46-35.68,20.74C136.21,397.64,112.54,413,110.5,416c-6.9,10.17-11,21.06-6.71,33.88,2.14,6.39,2.51,13.39,3.56,20.13,1.73,11,3.32,22,5,33,2,12.6,4,25.18,6,37.78,1.13,7.26,1.45,14.74,3.48,21.74a110.26,110.26,0,0,0,9.33,22.84c13.59,24.4,27.73,48.5,41.67,72.7q16.52,28.64,33.07,57.25,15.6,26.92,31.26,53.83,13.89,23.92,27.72,47.9c6.91,12,14.33,23.34,26,31.86,18.11,13.27,35.42,27.63,52.94,41.7,12.53,10.05,24.71,20.54,37.28,30.54,22.12,17.61,44.53,34.86,66.63,52.51,21.57,17.21,42.8,34.84,64.35,52.09,20.61,16.48,41.53,32.57,62.12,49.07,20.33,16.3,40.32,33,60.67,49.33,12.07,9.67,24.44,19,36.87,28.18a66,66,0,0,0,12.45,7.11c3.56,1.59,7.54,2.21,11.3,3.33,18.51,5.5,37,11.17,55.51,16.52,18.89,5.44,37.9,10.48,56.81,15.91,14.25,4.08,28.37,8.6,42.61,12.73,16.32,4.73,32.74,9.14,49.06,13.87,31.77,9.21,63.56,18.37,95.23,27.92,10.41,3.15,17.46-2.78,25-7.67,1-.65,1.38-2.41,1.83-3.73,4.77-14.06,9.82-28,14.09-42.25,1.68-5.59,2-11.69,2.18-17.59.12-4.74-1-9.52-1.53-14.55,11.14-2.24,21.83-4.44,32.55-6.52q24.81-4.82,49.65-9.48c10.75-2,21.49-4.12,32.28-5.88,4.58-.75,8.1-1.95,7.32-7.44,3.89-.72,7-2.5,10.93.62,10.85,8.56,22.44,16.19,33.46,24.55,4.46,3.38,8.93,5.36,14.4,3.79,31.17-9,69-44.36,84.36-57.74,5.35-4.68,15-66,6.84-81.32-3.07-5.76-6.29-11.44-9.78-17.71l20.55-55.24c5.89,5.09,11.39,9.52,16.5,14.37,3.44,3.26,6.21,3.12,9.27-.22,4.55-5,9-10,13.8-14.74,7.15-7.09,14.87-13.82,17.33-24.12,2.08-8.66,5-17.48,4.93-26.21C1380.6,888,1378.3,875.22,1376.7,862.52Zm-107-158.93c12.42,18.86,24.5,37.94,36.75,56.91q20.41,31.62,40.93,63.18c3.09,4.76,6.28,9.46,10.12,15.23-5.27-.65-8.36-1.41-12.2-1.68-8.75-.62-13.5.22-18.91,4.74-13.82,11.58-27.85,22.91-41.9,34.2-3.35,2.69-6.6,2.64-10-.8-11.37-11.35-23-22.48-34.57-33.59-18-17.27-36.21-34.41-54.14-51.79-1.21-1.17-1.46-3.85-1.34-5.78.55-9.64,1.37-19.27,2.1-28.91a35.36,35.36,0,0,0,.25-4.35c-.16-3.42-.12-5.91-3-10.18,11.18-8.51,24-19.18,36.49-29.42,11-9,26.78-10.93,39.66-13.86C1265.79,696.14,1267.56,700.38,1269.67,703.59Zm14.3,332.79c2.2,4.17,4.06,8.82-3.27,15.6-4.29,4-10.87,8.62-14.33,9.94-1.56-4.35-2.43-8.24-4.31-11.55-1.52-2.67-4-6.27-6.51-6.65-10.06-1.54-12.66-9-15-16.87-1.47-4.95-2.82-9.95-3.85-13.63,5.76-4.26,11.39-8.1,16.65-12.38,8.4-6.85,16.56-14,25.39-21.48,4.37,10.29,9.63,21.73,5.14,34.68C1281.49,1020.83,1279.85,1028.55,1284,1036.38Zm-28.4-81.83c-4.13-4.49-8-8.81-12-12.94-1.56-1.6-12.32,6.68-11.26,7.95,3.84,4.59,8.06,8.86,12.5,13.63-1.76,1.7-3.32,3.37-5,4.84s-3.72,2.85-5.47,4.17c-4.39-4.61-8.7-9.43-13.38-13.85-1.3-1.22-10.85,8.58-9.6,9.88,4.05,4.23,8.35,8.21,12.75,12.47l-15.15,12.44c-7-7.91-14.22-16-21.4-24-4.35-4.87-8.12-10.53-13.24-14.39-9.37-7.06-19.65-12.88-29.35-19.51-16.42-11.24-32.5-22.88-46.18-37.55-4.93-5.28-10.62-9.84-16.56-15.28,3.74-3.21,6-4.94,10.32-8.67,6.49-5.64,5.57-9.44,4.48-14.69s-.79-8.41,4-11.9c13.67-9.95,26.76-20.71,40.23-31,1.33-1,3.7-.9,5.58-.86s3.48.76,5.23,1.08c3.65.67,10.1,1.8,12.84.5,5.57-2.66,8.22-6.15,13.75-10.28,11.31,11.77,23,23,33.41,35.28,3.66,4.29,4.5,11.08,6.28,16.84,4.16,13.5,7.88,27.14,12.31,40.54,1.23,3.72,3.9,7.24,6.66,10.13,10.56,11.08,21.43,21.87,32.55,33.13Zm-250.11-59.11H988.19C985.89,892,980,883.65,977.46,881c1.65-6.55-9.49-20.35-19.51-22.73-2-2.13-3.92-4.27-5.82-6.46-7.73-8.91-14-19.1-20.84-28.78-7.13-10.11-13.68-20.69-21.43-30.3-4-4.92-9.88-8.31-15.09-12.16-10.54-7.78-21.08-15.58-31.84-23.06-18.85-13.11-38-25.84-56.78-39-24.71-17.27-49.25-34.78-73.82-52.24-1-.69-2.18-1.92-2.2-2.92-.14-7.51,0-15,.12-22.52,0-.88,1-1.73,1.53-2.51,31.27,21.77,62.31,43.4,93.39,65q41.1,28.56,82.26,57c15.49,10.73,31,21.38,46.51,32.12,25.2,17.5,50.73,34.55,75.39,52.79,12.38,9.15,23.14,20.48,35.45,31.56-17.28,4-32.61,7.51-47.95,11-2.09.48-4.24.72-6.34,1.18C1007.15,889.77,1003.8,890.56,1005.46,895.44Zm-34.29,61a2.46,2.46,0,0,0,.47.74c9.07,9.42,18.34,18.65,27.68,27.81,7.27,7.13,14.89,13.91,22.07,21.13,10.29,10.34,20.21,21,30.48,31.39,5.41,5.45,11.23,10.5,16.83,15.69-6.34,5.38-12.58,10.69-18.78,16-16.32-16-133.59-126.29-135.63-128.26-10.41-10.11-21-20.08-31.21-30.37C869.69,897.13,857,883,843.17,870a376.06,376.06,0,0,0-32.8-27c-22.42-16.82-45.19-33.17-67.85-49.66-3.6-2.62-7.41-5-10.67-7.15l7-7c11.61,8.2,23.67,16.57,35.58,25.16,16.39,11.82,32.82,23.62,48.94,35.81a250.57,250.57,0,0,1,23,19.76c15.72,15.24,31,30.94,46.54,46.34,7.52,7.44,15.15,14.79,23,21.84,4.84,4.33,8.33.16,4.34-4-6.55-6.91-13.32-13.62-20.14-20.27-3.7-3.6-7.73-6.86-11.4-10.49-10.82-10.69-21.92-21.14-32.21-32.34-13-14.14-28.21-25.48-43.65-36.61-23.4-16.88-46.9-33.62-70.69-50.66,2.43-1.84,4.8-3.78,7.3-5.51,5-3.45,5.07-5.61.24-8.88-1-.71-2.06-1.46-3.11-2.16-8.13-5.41-8.62-5.91-15.79,1.09-4.64,4.54-5,4.42-8.4,1.39-1.34-1.18-5-4.27-6.49-5.56,2.88-2.17,5.91-4.4,8.88-6.7s2-4.29-.42-6.2c-.15-.12-.29-.23-.44-.33-14.29-9.35-8.44-9.46-24.56,1.81-6.21-4.1-40.49-25.73-41.33-25.79-.28-1.64-.26-3.3-.52-4.92-.63-3.87-5.2-7.5-7.71-9.31-19.1-13.77-34.54-25.27-53.62-39-23.16-16.72-46.45-33.25-69.63-49.94-10.9-7.85-21.61-16-32.55-23.77-3.62-2.57-3-6-2.71-9.35.95-11.7,1.95-23.41,3.34-35.07.34-2.86,1.51-6.7,3.61-8,3.57-2.28,7.61-3.21,12.17.42,7.82,6.24,16.66,11.21,24.9,16.94,16.66,11.59,33.19,23.37,49.81,35q22.06,15.45,44.21,30.81c3.67,2.57,7.5,5,10.9,7.88,5,4.29,11,5.53,17.17,6.63a20.79,20.79,0,0,1,8,3.23c12.86,8.68,25.57,17.57,38.29,26.43,4.14,2.87,8.1,6,12.28,8.79,5.67,3.82,8,3.17,10.87-3.23,9.36,6.64,18.61,13.23,27.9,19.76,13.07,9.18,26.24,18.23,39.24,27.52,8.91,6.37,17.48,13.23,26.45,19.53,21.73,15.29,43.69,30.26,65.38,45.61,7.4,5.24,15.57,10.2,21.11,17.12,11.62,14.5,21.55,30.34,32.44,45.45q4.64,6.43,9.87,12.42l-6.15,1.59a1.61,1.61,0,0,1-1.71-.57c-3.94-3.34-12-1.49-17.64,4.31-3.49,3.62-3.31,7,1,11.26,9,8.8,18.16,17.46,27.23,26.21,2.81,2.71,5.39,5.3,4.69,10-.59,4,6.11,9.23,10.08,8.64a5.17,5.17,0,0,1,3,.33c8.18,4.54,16.59,1.29,20.34-8,9.68,10.41,20.88,19.74,24.52,34.36,2.32,9.31,9.56,14.76,15.81,21,6.6,6.55,13.91,12.43,20.12,19.31,6.71,7.44,15.41,11.17,24.09,15.16,12.31,5.67,24.64,11.28,37.83,17.32-4.79,3.73-9,7-13.13,10.24-6.21,4.94-12.32,10-18.61,14.85s-7.61,5.67-13.57-.36c-25.65-25.93-51.53-51.65-77.33-77.45-4.54-4.53-8.91-9.26-13.71-13.5a2.41,2.41,0,0,0-.7-.4A3.49,3.49,0,0,0,971.17,956.49ZM344.57,652.81c18.87,14.31,37,28.15,55.23,41.88,22.27,16.77,44.62,33.42,66.9,50.17,20.55,15.44,41,31,61.61,46.41,13.23,9.91,26.6,19.65,39.84,29.55,7.35,5.49,14.53,11.22,21.87,16.73,3.78,2.83,3.84,5.84,1.1,9.39q-12.89,16.65-25.7,33.35l-.33.46c-9.65-7.77-140.8-104-148.59-109.93Q393.13,753,369.77,735.08c-16.59-12.65-33.24-25.22-49.83-37.87-1.72-1.3-3.2-2.91-5.6-5.13C324.07,679.44,334.05,666.49,344.57,652.81ZM312.5,684c-3.24,4.24-4.9,3.73-7.56,1.66-7.69-6-83.51-68.6-94.35-76.83,0-.65.1-1.29.16-1.94.63-7.56,1.41-15.14,1.93-22.64.7-10,2-11.08,5.65-16.38,1.72-2.5,6.74-8.7,6.74-8.7,11.51,9.11,22.42,17.68,33.27,26.34,11.83,9.45,63.88,48.91,77.69,59.31,3.78,2.85,3.27,4.24-2,10.8C324.56,667.48,321.64,672,312.5,684ZM569,886.89c8.31-12.16,17.39-23.81,26.45-35.44C602,843,608.19,834.11,616,827c8.15-7.44,18.06-13,27.13-19.4,11.13-7.92,22.24-15.85,33.21-24,2.37-1.76,4-2,6.4-.24,8.37,6.19,10.16,7.57,18.7,13.53,1.35.94,9.49,8.12,31.92,6.16,8.92-.79,15.55,2.61,22.28,7.56,20.84,15.32,42,30.23,62.77,45.64,5.88,4.35,11,9.79,16.31,14.84q13.2,12.51,26.22,25.2c2.42,2.37,4.42,5.16,6.66,7.81l-4.2,3.3c-7.34-7.34-14.76-14.55-21.9-22-2.81-2.94-11.09-5-14.31-2.62-6.38,4.68-12.62,9.56-18.93,14.34-4.29,3.26-8.51,6.63-12.93,9.71-6.34,4.41-6.95,11.43-1.27,17.11,7.69,7.71,15.43,15.38,23.06,23.15,2.58,2.64,4.67,5.78,7.35,8.28,6.07,5.66,11.93,5.59,18.62.48,10.14-7.75,20.66-15,30.4-23.26,2.48-2.1,4.09-7.28-1.68-14.12l5.08-5.36,32.88,32.38-32.11,24.89c-9.38,7.29-19.34,14-28,22.08-6.89,6.49-12.2,14.67-18.08,22.2-7.19,9.23-14.71,18.26-21.19,28-4,5.93-6.38,11.75-8.57,19.77-11.75-5.3-25.28-11.05-38-16.76-19.93-9-39.85-17.94-59.83-26.79-10-4.43-19.72-9.34-28.18-16.34a8.42,8.42,0,0,1-3-4.84c-1.09-8.58-4-15.89-11.82-20.65-1.4-.85-7.42-5.51-17.27-13.17l-58.33-45c-4.71-3.62-9.49-7.14-14.11-10.87-2.47-2-6.67-4.46-6.57-6.55C565,896.51,566.28,890.92,569,886.89Zm242.58,166.82c1.5-5.71,6.1-10.78,9.85-15.69,9.51-12.46,19-25,29.22-36.83,5.45-6.31,12.27-11.52,18.85-16.76,12.54-10,25.34-19.59,38-29.36,2-1.53,4-3,6.23-4.73.92.87,112.76,106.74,130.76,123.43l-10.45,8.85c-6.48,5.48-13.22,10.67-19.49,16.39a33.59,33.59,0,0,0-7.62,9.71c-6.2,12.71-12.93,25.31-17.47,38.63-3.67,10.73-4.48,22.44-6.56,33.71-1.17,6.33-2.36,12.65-3.7,19.85-24.51-8.41-48.68-16.65-72.81-25-19.61-6.79-39.14-13.79-58.74-20.6-17.22-6-34.53-11.72-51.67-17.94-3.39-1.41-3.29-4.15-2.9-5.87C799,1105.49,804.87,1079.48,811.61,1053.71ZM717.12,775.14c-4.94-3.5-7-5.26-10.77-7.93l5.46-7.67c2.67,1.88,7.14,5.32,9.54,7.24C725,769.71,719.33,772.93,717.12,775.14Zm-21.06-21.81c-.58.72-2,1.65-3.76,3.38-10-7.21-20.13-13.92-29.42-21.66-2.39-2-2.42-6.93-3.19-10.7,7.78,5.42,26.4,17.25,30.16,19.63S700,748.56,696.06,753.33Zm22.1-86.16c-15.72-11-30.53-21.39-45.43-31.69-4-2.8-7.52-6.53-13.29-6.25-7.68.38-13.2-4.75-19-8.76q-25.49-17.58-50.83-35.34-31.77-22.25-63.46-44.59c-4.7-3.29-9.55-6.38-14.18-9.76-3.68-2.69-7.53-3.59-11.55-1.38-5.08,2.8-9.24,2-13.62-1.69-4.22-3.58-9-6.47-14.29-10.17,11.93-4.14,23-8.11,34.24-11.75a7.11,7.11,0,0,1,5.38,1.08q39.69,27.33,79.21,54.91c15.89,11.1,31.51,22.6,47.61,33.4,3.44,2.31,8.33,2.79,12.66,3.35,8.24,1.06,16.65,1,24.78,2.56,3.75.72,7.08,4,10.44,6.31,9.59,6.64,19.16,13.32,28.58,20.2a6.55,6.55,0,0,1,2.36,4.66c-.11,9.08-.68,18.15-.88,27.23C716.82,661.7,717.58,663.92,718.16,667.17Zm96.7-87.49a6.18,6.18,0,0,1,1.78-5.25c1.81-1.35,5.33-2.86,6.67-2,8.34,5.28,82.05,53.21,87.6,57.12,10.29,7.24,4.9,7,.14,4.53-3.83-2-61.16-39.78-67-42.48-1.25-.59-6.85-.61-9.63-.55-11.25.21-21.47,4.6-29.58,10.3-10.59,7.43-15.71,11.18-29.27,20.38-6,4.11-6.78,8.74-8,14.48-2.21,10.25,3.84,15.33,11.25,20.1,5.13,3.3,51,35,55.89,38.69.64.49-2.08,4.62-2.73,5.91-19.23-13.43-79.24-55.79-98.58-69.29,6.24-5.9,13-5,19.91-3.38,5.16,1.21,8.88-1.87,12.75-4.62,9.51-6.76,19.15-13.33,28.72-20,6.18-4.31,12.43-8.54,18.48-13C817.32,587.59,815.75,583.66,814.86,579.68ZM683,440.26c12.61-.38,24.87-.82,37.13-1a18,18,0,0,1,6.49,2.22c20.32,13.2,38.48,26,58.81,39.23C808.19,495.41,831,510,853.73,524.76c10.41,6.74,30.66,20,37.42,24.37a12.1,12.1,0,0,0,4.94,1.84c7.11.95,22.33,3,37.17,5.1a11,11,0,0,1,4.73,1.84c3.3,2.28,9.44,6.53,11.42,7.87-.45.49-11.7,4.59-8.57,10.82s12.71,8.52,17.85,5.08c7.55-5,6.49-4.12,16.52,2.34-2,1.26-4,2.41-5.92,3.72-3.94,2.73-3.86,5.81.17,8.61.74.51,1.52,1,2.26,1.46,7.94,5.38,8.12,5.62,16-.25,3.6-2.7,5.81-2.27,9.41.13,26.43,17.63,53.23,34.68,79.54,52.49a246.93,246.93,0,0,1,28.15,22.6c16.81,15.41,33.13,31.36,49.54,47.21,8.36,8.07,16.85,16.07,24.42,24.85,2.23,2.6,2.17,7.75,2,11.7-.27,8.12-1.3,16.21-2,24.31-.41,4.64-.81,9.28-1.33,15.15-5.5-5.57-11.21-9.89-14.81-15.55-2.06-3.23-5.15-7.22-3.82-12.36,1-3.89-5.1-9.85-8.93-8.69-4.2,1.28-6.36-.75-8.8-3.2q-13.57-13.65-27.21-27.23c-5.49-5.46-16.95-2.39-18.48,5.19a9.11,9.11,0,0,0,2.07,6.75,100,100,0,0,0,8.27,8.06,1.07,1.07,0,0,1-1.31,1.69L853.52,584.1c5.33-4.11,5.36-6,0-9.59q-25.15-17-50.32-34.06c-12.37-8.4-12.74-10.05-18.05-22.7-8-19.07-21.67-23-37.12-33.35-21.29-14.32-42.76-28.35-64.15-42.52C683.63,441.71,680.88,440.2,683,440.26ZM678,434.42c-2,0-3.61,0-8.84-2.82A113.68,113.68,0,0,1,654.23,422c-10.48-8-6.57-8,9.27-7.88a42.29,42.29,0,0,0,24.69-7.44c7.35-4.84,14.66-9.74,22.21-14.23a6,6,0,0,1,5.52-.26,129.07,129.07,0,0,1,14.87,9c8.4,5.67,15.59,4.91,23.35,0,4.84-3.05,9.61-6.22,14.39-9.32,5.93,3.72,10.75,6.56,20.13,12.65,8,5.17,11.79,11,14,19.48,3.24,12.62,7.44,25,10.55,37.63,1.16,4.74,4.41,7,7.68,9.17,18.26,12.06,36.73,23.82,55.11,35.69q25.34,16.34,50.64,32.71c15.22,9.83,30.4,19.71,45.65,29.47,9.49,6.07,19.2,11.79,28.54,18.08,2.28,1.54,3.59,4.18,5.17,7.14,1,1.68.79,2.95-1.5,1.27q-16.34-10.73-32.66-21.46c-10.89-7.19-21.6-14.69-32.7-21.55-3.37-2.08-29.82-5.13-40.66-6.86a8.67,8.67,0,0,1-3.65-1.49c-5.75-4-11.62-7.87-17.5-11.72q-15.54-10.15-31.15-20.2c-35.46-22.8-109.35-71-110.58-71.74-10.27-6.51-12.78-7.13-21.54-6.69C698.9,434.18,693,434.34,678,434.42ZM864,681.16c15-10.79,30.15-21.44,45.05-32.39,3.94-2.9,6.26-2.06,10.06.67,10.74,7.72,22.18,14.45,33.17,21.84q49.8,33.5,99.37,67.36c1.73,1.18,2.24,4.58,2.72,7.06.57,2.94.76,6,1.11,9.87a4.7,4.7,0,0,1-1.87,4.17c-13.34,10-24.52,18.36-39.78,29.6a11.33,11.33,0,0,1-5.41,1.72,90.58,90.58,0,0,1-14,.8A15.65,15.65,0,0,1,987,789c-10.46-6.9-20.75-14-31.12-21.07-28.53-19.34-101.24-67.76-109.76-73.85C854.48,688,857,686.2,864,681.16Zm-17.94,4.56a51.07,51.07,0,0,0-4.52,4c-8.53-5.86-16.67-11.67-25-17.09C813.94,671,789,654.18,780,646.13c-3.7-3.31-1.79-15.08,3.16-18.59,6.14-4.37,7.85-5.47,14.06-9.73,7.68-5.26,15.36-10.55,23.25-15.5,2.29-1.43,6.36-3.25,8.92-3.55,6.34-.76,10.82-1.45,16.33,2.13q28.85,18.76,57.6,37.65c2.67,1.76,4.31,3.6.17,6.48C882.74,659.49,866.63,671,846.08,685.72Zm210.08,174.67c-13.3-15.18-30.55-25.28-46.76-36.71q-34.54-24.37-69.31-48.43c-21.53-14.94-43.16-29.74-64.75-44.59-7.68-5.29-29.8-20.57-37.45-25.9-.65-.46,3.07-4.81,3.36-6.61,14.27,10.1,65.7,46.14,87.17,60.79,18.82,12.84,37.75,25.5,56.69,38.16,1.39.93,6.29,1.7,7.94,1.73a176.8,176.8,0,0,0,20-.29c4.26-.29,8.4-3.55,12-6.23,13.89-10.26,21.63-16.09,35.17-26.8,1.92-1.52,3.08-4.7,3.48-7.29.58-3.76-.18-9.06-.87-13.05-.63-5.73-2-8.4-5.82-11q-35.64-24.2-71.33-48.29c-16.22-10.93-65.22-43.5-66.23-44.24a5.36,5.36,0,0,1,7.39-1.11c22.34,14.34,54.62,36.46,74.81,49.87,14.34,9.52,28.91,18.69,43.24,28.22,18.37,12.22,36.58,24.69,54.91,37,7.15,4.79,14.82,8.87,21.58,14.14,10.19,7.93,29.83,24.15,46.1,38.06-1.52,2-6.06,5.14-12.9,2.44-4.67-.79-10.14-1.58-15.54-2.66-6.63-1.32-11.44,2.32-16.11,5.89-11.88,9.08-18.76,13.93-30.18,23.57-4.21,3.55-4.76,6-4,11.8,4.43,17.76,1.78,19.81-5.2,23.24-1.36-3.37-1.36-3.37-13.76,2.38C1065.34,869.86,1060.5,865.34,1056.16,860.39Zm183.33,34c-3.78-14.32-6.71-28.86-10.25-43.24a16.47,16.47,0,0,0-4-7.34c-12.93-13.21-26.12-26.17-39.09-39.35-1.7-1.73-3.85-3.9-3.85-6.42,0-1.6,1.14-1.42,2.6.15l89.51,85.8-28.12,24.34C1241.74,903.3,1240.77,899.23,1239.49,894.37ZM1098.23,537.29c14.88,9.68,83.31,52.52,102.85,65.89,4.87,3.33,8.07,9.34,11.5,14.48,16.16,24.16,32.13,48.44,48.65,73.39-4.31.77-8.28,1.37-12.15,2.08-13.87,2.54-19.9,4.1-31,12.81-11.89,9.34-23.68,18.82-35.7,28-.87.66-3.43.58-4.09-.15-21.27-21.76-13.12-23.67-7.72-28.36a253,253,0,0,1,21.88-16.64c6.22-4.31,6.56-11.94,1.41-16.49-10.8-9.55-20.88-19.9-31.31-29.87-3.62-3.47-12.36-2.63-17.37,1.28-7.51,5.86-15.49,11.15-22.87,17.14-5.14,4.16-4.09,11.14-1.35,16.73a.82.82,0,0,1-1.29,1c-1.29-1.21-2.43-2.32-2.74-2.64a249.06,249.06,0,0,0-50.76-40.84c-17.5-10.82-32.44-21.15-49.53-32.63-1.47-1-3.32-4.33-3.86-5.77-4.81-12.71-4.74-13.13-10.17-16.54-6.79-4.28-13.64-8.54-20.8-13.11,14.38-10,28.75-19.85,42.84-30,7.45-5.4,14.67-10.9,24.31-11.47,3.82-.23,7.64-.44,11.46-.56,4.44-.14,8.88-.17,13.31-.21C1080.73,524.67,1090.45,532.22,1098.23,537.29ZM919,424.79q29.58,18.69,59.18,37.35c29.24,18.34,58.53,36.62,89,55.7-6.32,2-11.43,2.5-16.68.4-20.82-8.29-37.86-22.93-57-34-13.34-7.73-26.37-16-39.38-24.28-20-12.71-39.79-25.71-59.78-38.42-20.89-13.28-41.91-26.36-62.87-39.54-9.37-5.89-18.72-11.82-29.19-18.43,10.93-.82,20-.08,28.49,5.39C860.1,387.72,889.6,406.2,919,424.79ZM713.74,312.42c11.19,4.16,22.74,8.75,33.87,13.06,12.64,4.89,25,10.13,37.23,15.86,9,4.24,17.34,10.11,26.8,15.74-15.79,2.42-27.49-4.06-38.53-11.94-15.74-11.22-33.64-18.07-51-26-3.09-1.41-6.36-2.7-9.38-4.26C708.25,312.9,709.61,311,713.74,312.42Zm-201-75c14.49,8,29.19,15.61,43.53,23.21-5.82,3.37-11.4,6.51-16.91,9.8-14.78,8.82-29.7,17.46-44.17,26.78-3.23,2.07-5.6,6.37-7,10.15-1.27,3.48,11.89,21.84,14.39,20.36,16-9.44,32-19.15,47.87-28.82,8.1-4.91,16.22-9.81,24.19-14.93s7.56-15.91-.48-20.59c-3.08-1.8-6.26-3.4-9.33-5.2-2.24-1.31-6.26-3.19-10.19-5.2a1,1,0,0,1,.79-1.75c29.41,11.68,63,25,90.42,35.87-5.25,2.76-10.6,5.79-16.16,8.36a6.93,6.93,0,0,1-5.38-.09c-9.73-5-19.26-10.48-29-15.5a2.83,2.83,0,0,0-.4-.17c-2.82-1-5.3,2.16-4.05,4.88a2.22,2.22,0,0,0,.84,1c10.8,6.29,21.88,12.11,32.83,18.13q24.9,13.68,49.76,27.47c10.49,5.82,20.87,11.84,31.43,17.53a2.43,2.43,0,0,0,.72.23,3.07,3.07,0,0,0,3.12-4.4,2.48,2.48,0,0,0-1-1.16c-11.88-7-23.95-13.69-36-20.45-13.06-7.34-26.13-14.65-39.55-22.16,3.41-1.79,6.49-3.54,9.69-5,5.56-2.6,10.92-2.09,16.51.6,15,7.22,30.28,13.93,45.29,21.17,19.73,9.51,39.82,18.45,58.82,29.26,19.45,11.07,37.72,24.2,56.63,36.25,10,6.36,20.33,12.19,30.37,18.49q46.21,29,92.31,58.21,47.76,30.18,95.48,60.41c.43.28.82.61.16.12-5.49,3.47-11.41,6.92-17,10.83-13.11,9.14-26.08,18.5-39.08,27.79-1.91,1.36-3.73,2.83-5.76,4.38L826.32,465.88c-3.91-16.17-14.53-54.63-17.16-59.32-1.95-3.48-4.46-5.35-8-7.71-6.12-4.05-12.58-7.6-18.69-11.67-4.9-3.26-3.65-3.81-2.52-4.91,3.94-3.85.08-7.57-4.2-10.14-10.44-6.26-17.09-10.39-26.53-16.39-3.65-2.33-22.06,8.33-27.76,12-16.22,10.54-20.61,11.65-17.32,15.73.5.63,1.74,2.46,2.3,3.09-7.14,4.47-14.52,8.55-21.28,13.47-7.14,5.19-12.35,6.66-21.4,7.22-15.88,1-57.27,4.16-66.18,4.58-1.4.07-8.39,1.14-10.62-2.53-1.53-4.14-3-7.52-4.87-11.86a7.72,7.72,0,0,0-3.1-3.38c-13.12-7.67-26.3-15.23-39.47-22.82-3.22-1.86-6.45-3.71-10-5.77,3.9-4.09,7.17-6.19,12.89-2.71,17.16,10.45,34.67,20.32,52.07,30.37,6.68,3.87,13.35,7.78,20.2,11.3a3.25,3.25,0,0,0,.43.18c2.83,1,5.31-2.3,3.8-4.9a3.46,3.46,0,0,0-1-1.13c-4.68-3.29-9.86-5.87-14.83-8.74q-21.18-12.22-42.35-24.43c-16.89-9.73-54.5-31.48-54.58-31.52-2.92-1.53-6.45,3.05-3.61,5.37.22.18,11.84,7.43,17.55,10.75,3.41,2,6.87,3.89,10.3,5.83-6.55,9.15-12.66,2.86-18.56-.53-13.82-7.93-27.23-16.6-41.28-24.08-5.68-3-3.45-8.49-4.26-10.14-.55-1.11-3-1.73-4.47-1.74-6.93,0-26.75-1.06-33.34,5.61a.51.51,0,0,1-.87-.33c-.4-7.57-.59-12.74-1.26-22-.88-12.14,4.6-20.21,14.5-27.36,1.65-1.19,12.37-9.13,16.71-11.68,1.09-.63,3.49.22,4.9,1,3.56,2.08,6.85,4.61,10.33,6.83,6.05,3.86,11.71,5.71,18.55.48,4.37-3.34,8-6.07,16.75-13.32,1.65-1.38,1.24-3.44-3.57-5.92s-11.77-5.87-16.64-8.38c-3.44-1.7,12-5.38,16.77-6.74C506.82,237,510.43,236.18,512.78,237.47Zm-113.25,18c3-2.21,5.5-4.94,8.38-7.25a53.55,53.55,0,0,1,6.64-4.52c12.06-7,24-14.24,36.32-20.76,6.24-3.31,13.17-5.31,19.82-7.83a2.8,2.8,0,0,1,1.95.23q15.69,7.42,31.34,14.92c1.54.74,1.31,2.2-.41,2.61a121.18,121.18,0,0,0-17.75,5.63c-4.42,1.86-49.53,31.11-56.17,37.49-10.13,9.72-11.74,22.07-9,35.65a.32.32,0,0,1-.5.34c-10.22-6.7-20.47-12.81-29.8-20.09-2.64-2.07-3.12-7.74-3.39-11.83C386.21,269.55,391.3,261.67,399.53,255.49ZM422.93,335c-9.39,2.22-20.28,4.89-30.38,7.28-1.21-13.9-2.4-28.35-3.69-43.17,5.72,3.61,19,12.5,26.39,17.29C422.16,320.9,421.73,323.66,422.93,335Zm-118,70A86.68,86.68,0,0,0,312,393.75c4.44-8.05,12.78-10.72,19.84-15.06,13.56-8.35,27.06-16.92,41.25-24.1,7.25-3.66,15.86-4.65,23.92-6.69,10.39-2.63,20.78-5.26,31.2-7.76,6.28-1.5,12.58-3.1,19-.14a59.62,59.62,0,0,0,13.3,4c14.13,2.76,25.42,11.36,37.58,18.07,16.77,9.27,33.18,19.18,49.71,28.86,5.89,3.45,11.71,7,17.51,10.6a4.65,4.65,0,0,1,2.05,2.19c1.83,6.15,3.39,12.39,5.3,18.53.54,1.73,5.4,2,6.55.59.27-.33-1.26-6.68-2.09-10.38-1-4.3,1.33-2.74,1.79-1.78,3.85,8.11,8.41,9.47,12.07,9.21,15.7-1.13,18.67-1.18,40.73-3,6.66-.55,13.37,7,18,10,20.57,13.47,40.77,27.5,61.24,41.13,19.08,12.71,38.4,25.09,57.42,37.88,2.42,1.63,4.32,4.7,5.36,7.51,1.42,3.81,1.13,8.31,2.77,12s4.19,7.59,7.4,9.94c10.54,7.72,21.57,14.77,32.68,22.27-2.79,1.75-5.41,3.3-7.93,5-3.94,2.65-6.32,5.88-3.45,10.76s-1.17,7.82-8.23,10.61a101.76,101.76,0,0,0-38.14,27.07c-5.43,6-11.84,3.94-16.58,2.66-6.84-1.85-11,1.7-14.87,5-4.76,4.13-8.18,3.94-12.89.42-10.08-7.52-20.29-14.89-30.79-21.8-3-1.94-7-2.48-10.72-2.93-8.25-1-16.58-1.37-24.82-2.43a17.51,17.51,0,0,1-7.22-3.19Q590.4,553.93,539.93,519c-7.5-5.21-14.61-11-22-16.3-4.67-3.36-9.61-5-15.55-2.69-11.49,4.44-23.17,8.37-34.7,12.7-1.83.69-4.56,2.3-4.61,3.57-.07,1.65,1.81,3.81,3.41,5,6,4.54,12,9.34,18.52,13,4.82,2.64,4.31,6.29,4,10.17-1,11.53-2.77,31.51-3.55,38.33-.58,5.07-.86,8.06,3.83,11.4,25.92,18.43,51.47,37.39,77.24,56,23.28,16.85,72.69,52.9,79.19,57.37,5.15,3.54,6.74,8.31,7.32,13.54s1.36,10.71,2.32,16c.17.95,1.55,1.79,2.51,2.49q30.51,22.2,61,44.37c5.08,3.7,10,7.65,15.23,11.68-13.05,3.5-20.85,2.26-33.87-6.9-5.38-3.79-9.11-7.41-14.46-11.46,3.41-3.63,0-6.76-3.63-9.25-11.84-8.14-23.37-16.71-35-25.1q-41.31-29.77-82.63-59.54c-12.09-8.73-21.19-16.16-33.67-24.28-3.69-2.39-12-3.69-16.72-4.36-12-1.68-23.91-3.35-35.87-4.91-6.64-.87-17.52-2-24.18-2.69-4.86-.47-9.72-1-14.59-1.11-1.64,0-5.43,2-7.87.71L405,626.87l19.91-13.17c7.95-5.26,7.9-10.52,0-16-5.73-4-11.33-8.16-16.9-12.18,10.75-7,20.72-14.64,31.75-20.23,9.3-4.72,8.21-11.14,8.87-19.61.32-4.11,3.21-37.47,4.3-43.86.22-1.27,2.43-2.94,3.88-3.12,3.61-.46,9.35.13,11.34-.35s2.34-3.32.68-4.55a6.25,6.25,0,0,0-1.11-.66c-1.07-.47-24.22-.86-34.18-2.61-5.59-1-10.93-4.41-15.93-7.47-15.72-9.63-31.2-19.67-46.84-29.44C353.6,442.86,336.46,432,319,421.69c-4.15-2.46-9.41-3-14.12-4.58C298.16,414.9,298.9,412.72,304.88,405Zm-60.67-7.93c9.43,5.45,18.91,10.81,28.27,16.39,5.38,3.21,10.55,6.76,15.81,10.16,0,0-19.78,9.42-29.22,14.32-14.25,7.41-27.58,16.59-41.55,24.58-5.17,3-7.41,7.7-9.7,12.44-1.74,3.6,11.26,8.15,14.37,6.74,10.86-4.89,5.87,3.71-2.4,8.4-7.86,4.45-15.86,5.07-23.75-.12-15.12-10-30.13-20.1-45.45-29.74-3.54-2.23-3.19-3.82-1.48-6.66,3.16-5.27,12.29-14.48,26.3-24.74a72.92,72.92,0,0,1,6.78-4c5.41,4.1,10.26,9.07,16.16,11.78,3.89,1.79,9.65,1.47,13.9.06,5.48-1.82,10.3-5.68,15.41-8.65a9.48,9.48,0,0,0,4.74-10.11c-.5-2.39-4.23-4.31-6.8-6-3.24-2.13-6.78-3.81-11-6.13C223.8,402.08,241,395.21,244.21,397.07ZM126.14,413.25c6.33-4.34,12.1-9.75,19-13.62,12.94-7.26,25.6-15.05,38.64-22.12,5.19-2.81,11-5.27,16.71-6.06,3.57-.49,7.9,2,11.37,4,7.73,4.49,15.13,9.52,24,15.18-6.67,2-12.3,3.6-17.87,5.38-5.72,1.83-22.67,11.87-47.23,26.59-11,7-14.7,11.42-21.24,18.38-3.35,3.56-5.67,8.84-8.55,13.66-13.79-9.42-20-13.78-32.18-21.28C112.64,424.55,118.36,418.59,126.14,413.25Zm-1.32,66.26c-.52,12.32-1.31,23.37-2.06,35.68a3.84,3.84,0,0,1-1.47,3c-3-18.51-9.43-57-12.52-75.9,3.88,2.66,12.36,8.6,16.87,12.37C127.44,456.14,124.93,476.78,124.82,479.51ZM201.88,640.2c-.59,7.74-1.43,15.46-2.1,23.2-.57,6.66-1.08,13.33-1.61,20a1.51,1.51,0,0,1-2.8.64Q187,669.58,178.6,655.13c-13.41-23.07-27.2-45.93-40.07-69.31-5.14-9.33-7.41-13-11-23.11-1-2.76-.49-13-.45-16.25.1-9.79.05-19.58,0-29.38a1.57,1.57,0,0,1,2.85-.92c6,8.34,12,16.65,18,25q18.41,25.88,36.73,51.81c5.9,8.35,11.67,16.79,17.47,25.21a3.53,3.53,0,0,1,.77,1.93C202.67,626.82,202.39,633.52,201.88,640.2Zm-23.06-66.34c1.36-5.06,2.73-8.72,3.26-12.5.73-5.18,2-9.65,1.19-15.7s-34.71-52-37.15-56.06a4.35,4.35,0,0,0-3.54-1.8c-.88.14-2,1.95-2.13,3.14-1.09,7.67-2,15.38-2.87,22.87-9.17-6-8.28-14.63-7.39-24.39.59-6.46,2.4-27.49,3-31.9,5.84,3.57,10.66,7.23,13.34,9,17.3,11.25,26.09,16.88,43.31,28.25.6.39,5.84,3.63,6.4,3.6,12.58,4.15,19.62,2.57,28.81-3.08q30.68-18.86,61.55-37.4c5.35-3.23,11-6,16.25-9.34,2.27-1.46,6.7-2.78,4.07-6.68-.86-1.28-4.71-.54-8-.77l-5.63-10.2c.11-.22,8.38-8.11,8.56-8.52,6.48,2.66,13.38,4.63,19.37,8.14,14.54,8.53,28.65,17.77,42.93,26.71-5.19,6.3-7.85,6.73-14.78,2.29-8.16-5.23-16.25-10.57-24.54-15.56a2.25,2.25,0,0,0-.38-.19,3.2,3.2,0,0,0-3.7,4.83,2.07,2.07,0,0,0,.5.48c23.09,14.77,46.34,29.33,69.55,43.91q20.24,12.71,40.5,25.37c.91.57,1.85,1.59,2.75,1.57a9.92,9.92,0,0,0,1.62-.18,3,3,0,0,0,1.88-4.8,2.31,2.31,0,0,0-.54-.5c-7.49-4.92-15.21-9.49-22.8-14.27C397,489.3,379.82,478.39,362.4,467.38c10.7-6.53,6.6-6.77,16.16-.88,14.66,9,29,18.65,44,27.09,4.89,2.76,11.36,3.17,17.19,3.67,4.72.39,7.13,1.56,6.48,6.7-1.33,10.55-4,37.49-4.5,40.32-.34,1.88-.49,12.11-3.21,13.81-11.77,7.48-26.38,16.16-37.43,23.18-5.47-2.88-8.66-5.5-16-1.43-6.23,4.32-36,23.24-36.61,23.87-1.52,1.49-.15,6.35,1.39,7.58,9.67,7.74,19.44,15.5,30,22,3.45,2.12,9.53,1.34,13.91.11,3.26-.92,5.49-1.21,8.09.75,9,6.83,18.08,13.66,27.2,20.39a9,9,0,0,0,3.94,1.29c15.12,2.23,30.22,4.52,45.36,6.53,10.19,1.35,20.43,3,30.67,3.18,10.61.16,18.61,4.91,26.64,10.89,18.16,13.51,36.63,26.61,54.88,40,11,8.09,21.74,16.6,32.83,24.6,16,11.55,32.24,22.81,48.37,34.2.75.53,1.47,1.11,2.68,2-5.1,3.74-9.64,7.15-14.28,10.44-16,11.31-32,22.53-47.88,33.94a46.92,46.92,0,0,0-6.06,5.71c-2.69,2.75-5.26,5.72-7.66,8.16-15.05-11.2-107.11-80.29-110.56-82.87-2.92-2.18-6.14-3.5-7.17-8.12-.6-2.69-47.46-36.33-67.14-51.16q-33-24.84-65.95-49.62c-10.5-7.85-73.23-55-94.36-70.32-8.15-5.93-15.75-12.62-23.48-18.86,5.44-9.75,14.45-15.18,23.36-20.59,1.44-.87,4.51-.51,6,.48,24.42,15.76,48.69,31.76,73.1,47.53,1.74,1.12,5.76,1.89,6.33,1.1,2.24-3.12-.2-4.87-2.93-6.66q-48.15-31.65-96.16-63.51c-4.63-3.07-9.23-6.2-14-9-1.49-.86-4.15-2.25-5.22-.76-1.62,2.26-1.27,4.77,2,6.72,8.62,5.14,16.91,10.84,25.32,16.34a31.56,31.56,0,0,1,2.77,2.58A65.44,65.44,0,0,0,233.18,540c-6.69,5.86-15.68,16.58-23.38,27.23-1.34,1.85-3.22,7.94-3.42,10.72-.73,10.12-1.55,20.23-2.44,31.54C194.86,596.61,186.3,584.47,178.82,573.86Zm111.08,264c-.36.7-.74,1.2-1,1-2.67-2.58-6-4.75-7.88-7.82-9.93-16.22-19.58-32.61-29.15-49-10.89-18.7-22.12-37.22-32.18-56.36A190.37,190.37,0,0,1,204.76,689c-2-6.94.34-15.09.8-22.69.12-2,.63-3.91.79-5.88,1.23-14.76,2.41-29.53,3.63-44.29,16.88,13.69,81.36,67.06,88.86,72.71,2.39,1.79,4.77,3.59,7.68,5.8-4.38,41.46-8.84,83.58-13.19,124.75C292.85,824.79,291.34,834.89,289.9,837.84Zm258.7,208.69c-10.42-8.43-20.83-16.9-31.29-25.29-11-8.8-22-17.53-33-26.29l-37.21-29.62c-12.27-9.76-24.58-19.45-36.79-29.28S386,916.22,373.8,906.32c-2.23-1.81-4.68-3.36-6.86-5.23-3.74-3.23-8.17-4.89-8.64-11.86s-4.2-14.56-8.34-20.6c-5.28-7.68-14.43-12.91-20.9-19.31a102,102,0,0,0-21.37-16.49c-8.07-4.54-8.31-11.6-7.67-18.72.86-9.69,2-19.35,3.16-29,1.36-11.81,2.84-23.61,4.19-35.43q1.31-11.29,2.38-22.62c.86-8.95,1.61-17.92,2.49-27.78,7.41,5.58,14.24,10.68,21,15.84q32.22,24.49,64.4,49c13,10,151.12,112.19,164.15,122.13l.12.06a30.77,30.77,0,0,0-2.48,7.65c-.12.87-.2,4.57-1.57,3.61-6.25-4.69-39.73-30.56-42.74-32.76-17.7-12.93-17.81-14.67-24-12.14a43.08,43.08,0,0,1-6,2.11c-6.24-4.91-13.53-10.8-21-16.4-1.1-.81-4.12-2.44-4.67-.27-1,3.82-2.36,7-.56,8.67a94.34,94.34,0,0,0,8.15,7c3.49,3,5.06,4,4.51,9.62-.1,1,0,2.09,3.23,5.21,7.71,6.83,8.82,7.48,7.08,19.36-2,14.8-2.38,18.51-3.62,30.34-.48,4.55-.41,7.56,5.54,13.25,1.17,1.11,22.7,17.58,25.68,20.4,1.18,1.12,29,22.78,36,28.36-5.79,22-6.73,43.89,4.7,65A1,1,0,0,1,548.6,1046.53Zm75.57,5.2c-1.1,9.53-3.17,19-4.94,29-8.11-6.39-16-12.57-23.81-18.8-4-3.13-7.68-6.6-11.86-9.4a4.26,4.26,0,0,0-1-.46,4.84,4.84,0,0,0-6.33,4.7,5.89,5.89,0,0,0,.16,1.27c1.26,4.73,3.23,9.27,5.29,14.91-6.2-4.78-8.87-7-17.09-13.05-6-5.18-6.69-10.27-9-15.87-11.88-29.33-6.52-50.91-4-59l14.51,11.37q19.94,15.66,39.89,31.33c5.24,4.11,10.42,8.31,15.82,12.21C626.44,1043.21,624.61,1047.91,624.17,1051.73Zm149,127.28c-16.07-4.83-32-10-48.15-14.68-13.52-4-27.33-7-40.65-11.59-5.36-1.82-9.83-6.39-14.57-9.89s-9.38-7.24-13.16-10.18c-1.93-13.41-3.45-25.89-14.9-34.26-4.34-3.17-10-5.67-12.5-10-3.64-6.81-.41-23.72,2.41-40.78,6,4.8,12.51,10.22,17,13.45,8.13,4.84,12-1.66,13.1-7.77,2.84-15.38,5.85-30.74,8.91-46.74,21.24,18,47.3,24.87,71,36.33,17.69,8.56,35.85,16.15,53.68,24.41,1.91.88,5.52,2.42,4.56,5.16-2.77,12.55-5.59,25.26-8.37,38-1.65,7.51-2.88,15.14-4.93,22.55-3.76,13.58-3.9,19.77-1.14,34.62.94,2.65,2.17,11.55,3,15.28C783,1181.54,778,1180.47,773.17,1179Zm182.94,52.28c-7.15-1.93-14.16-3.73-21.12-5.71q-45.6-13-91.17-26.15c-13.9-4-27.75-8.19-41.72-11.93-4.24-1.13-6.71-2.85-7.44-7.44-2.1-11.38-3.12-15.2-4.54-24.8-.42-2.88.2-9.87.71-13.12l47.56,16.59c16.84,5.87,33.71,11.69,50.53,17.63q28.51,10.08,57,20.33a32.65,32.65,0,0,1,7.18,3.19c4,2.7,2.22,7,2.39,10.74.28,6.17.7,12.34,1,18.51A11.84,11.84,0,0,1,956.11,1231.29Zm39,11.76c-9.25-2.56-18.67-5-28-7.82-3.36-1-5.21-3.19-5.12-7.26.12-5.58-.93-11.19-.9-16.78.05-7.39,2.73-9.22,9.68-7.07,4.48,1.39,14,5.38,22.6,8.88a4.65,4.65,0,0,1,2.91,4.31C996.22,1223.8,995.07,1238,995.07,1243.05Zm155-132c-7.94,2.29-8.74,8.2-9.37,14.62-.38,3.83-.54,7.69-.82,11.81l-109.22,21.08c-.68-11.37-1.49-22.61-1.91-33.87-.07-1.75,6.46-9.45,6.6-11.29a28.1,28.1,0,0,0-1.1-7.56c-1.57,1-8.48,7.37-9.21,8.8-3.24,6.36-5.21,10.11-8.11,16.63-1.61,3.6-4.26,9.85-6.74,15-5.7,13.2-6.53,23.25-8.49,35.06-1.18,7.09-2.32,14.18-3.3,21.3-.48,3.47-2.58,3.7-5.11,2.84-2.69-.92-5.24-2.22-7.84-3.35,2.49-14.83,4.57-29.54,7.59-44.07,1.4-6.69,4.24-13.17,7.13-19.45,3.66-7.94,6.72-13.72,10.1-22,3.74-9.21,10.52-14.49,17.17-20.37,10.13-9,20.75-17.39,31.2-26q19.24-15.81,38.56-31.53c6.15-5,12.53-9.71,18.64-14.75,4.74-3.9,4.09-8.6-2.07-11.63-11.72-5.78-23.67-11.1-35.55-16.56-8.68-4-17.4-7.63-24.14-15-6.49-7.13-13.77-13.57-21-20-6.35-5.67-11.43-12.13-13.85-20.32-3.67-12.39-11.86-21.49-21-30-2.81-2.62-5.59-5.28-9.12-8.62,21.58-.38,26-1.22,38.35-3.8,14.37-3,31.9-8.81,46.28-11.8,2.21-.46,5.5,2.28,7.71,4.21,6,5.19,11.9,10.5,17.37,16.22,15.88,16.59,35.23,28.62,53.93,41.51,5.09,3.5,10.93,6,15.8,9.71,3.82,2.94,6.67,7.13,10,10.77,6.94,7.68,13.91,15.33,20.82,23,1.27,1.42,2.31,3.06,3.66,4.88-15.12,4.47-29.53,9.47-44.31,12.82-8.44,1.91-18,3.53-24.45-5.8-4.19-6.1-11.54-6.3-17.58-8.37-15.38-5.28-31.08-9.63-46.73-14.09-1.91-.55-1,4.78.63,5.61,12.77,6.44,26.94,9.5,39.78,15.81,9.35,4.6,14.64,8.49,18.52,18.5.75,1.89,1.41,4.2,2.2,6.07,2.46,5.87,3.86,11.84,5.77,17.88,6,18.75,11.38,37.66,17.26,56.42C1156.29,1108.27,1156.69,1109.15,1150.07,1111.05Zm21-41.83c-3.58-2.48-8.43-5.15-11.2-7.21-6.95-4.16-7.85-12.21-13.88-31.32,3.33.51,6.44.78,9.42,1.55a4.68,4.68,0,0,1,2.65,2.77C1160,1041.44,1169,1061.83,1171.06,1069.22Zm4.44,32.37c-.88,4.63-1.5,9.31-2.23,13.9-8.54-3.56-11.56-11.81-14.75-24.46-3.61-14.31-5.08-20-5.08-20,4.57,3.12,9.1,6.3,13.72,9.35C1174.94,1085.5,1177.19,1092.71,1175.5,1101.59Zm-1.87-56.76c-4-12.41-6.05-13.2,7.15-14.85,16.21-2,24-4.4,37-7.82,1-.27,10-3.36,12.5,1.72,1.56,4.49,3.4,8.9,4.6,13.48,1.6,6.1,4.75,10.54,10.85,12.71s10.6,8.87,10.75,15.66c-2.12,1.4-4.77,3.52-7.28,4.4-9.1,3.21-39.23,5.5-60.68,2.58-7-1-7.34-5.24-9.72-12.11C1176.91,1055.25,1176.48,1053.59,1173.63,1044.83Zm68.19,91.7c-24.19-2.23-41.61-7.55-59.94-16.9,0,0,1.55-6.52,2.43-11.43a49.08,49.08,0,0,0,.28-16.89c-.46-3.84.16-6.42,4.07-6,11.29,1.33,14.31,1.5,21.33,1.47,10.57,0,21.14-1.45,31.53-2.26C1250.13,1104,1246.91,1104.94,1241.82,1136.53Zm10.69-26.6a47.19,47.19,0,0,0,.77-9.81c-.46-5.85-3.24-11.52-5.22-18,6.09-1.06,11.55-3.19,13.94-4.84,5.11,6.68,2.42,15.63-1,22a76.78,76.78,0,0,0-4.64,11.54A2,2,0,0,1,1252.51,1109.93Zm48.25-32.75c-2.12,11.7-1,19-14,30.17-12.21,10.9-29,23.47-29,23.47-3-4.42,9.22-25.72,13.33-36.23a18.61,18.61,0,0,0,1.11-7.77c-.25-4.08-1.15-8.13-1.84-12.58l18-15.59c4.08,5.26,7.61,9.64,10.91,14.18C1300.13,1074,1301,1075.85,1300.76,1077.18Zm2.49-12c-6.07-8.39-12.56-9.35-.55-27.86C1306,1047.47,1303.25,1059.34,1303.25,1065.18ZM1300.8,1025c-1.79,3.39-7,10.35-8.92,13.94-4-14.49-3.85-16.69,1.1-27.32C1295.46,1014.58,1299,1021,1300.8,1025Zm48-170.78c-1.58-.18-5,.73-6.69,1,.3,1.64,1.63,8,1.63,8-7.5,21.15-41,109.1-42.94,112.46-1.53,2.66-3.68,8.58-6.12,10.95-5.18-5.45-8.3-17.73-8.3-17.73,2.57-3.86,1.35-8.38.6-13.06-1.07-6.74-4.92-11.14-9.08-15.43-9-9.24-18.39-18.08-27.89-27.34,11.85-10,23-19.7,34.51-29.1,7.22-5.92,30.09-24.71,43-34.72,8.57-6.63,15-5.89,23.77-4.91,7.12.8,9.5.8,16.38,13.41C1362.11,856.9,1353.6,854.8,1348.8,854.25ZM877.7,795.43c-6.59-4.95-13.17-10-20.36-14-2.7-1.48-7.76-1.11-10.54.5-6.32,3.65-11.92,8.56-17.76,13-3.38,2.58-3.2,6.31.09,9.38a7.5,7.5,0,0,1,2,3.62c.71,4.3,5.15,9,9.29,8.24a10.46,10.46,0,0,1,9.14,2.45,4.21,4.21,0,0,0,1.34.67,9.7,9.7,0,0,0,5.1.19,9.2,9.2,0,0,0,2.74-1.22c6.74-4.75,13-9.06,19.34-14.34A5.26,5.26,0,0,0,877.7,795.43ZM730.93,876.22c7.57,5.68,15.1,11.43,22.81,16.92a2.41,2.41,0,0,0,.68.34c2.37.8,7.44-3,4.51-5.81-1.72-1.64-4-3.93-5.76-5.68a3.7,3.7,0,0,1-.08-5.06c5.8-6.37,4.61-5.44,16,3.66,1.52,1.21,3.73,1.08,6.14-1.29,1-1,1.63-3.87-1.31-6.55-4.36-4-19.34-17.1-25.25-20.35-1.17-.64-3.52-.68-4.37.07s-2.06,3.07-1.54,4.26c.83,1.92,3.88,3.71,5,5.5,1.29,2.18,3.11,2.75-1.88,6.9-5.53,4.58-5.15,4-12.44-1.58-.29-.22-4.38-2.93-6.77-.73-1.83,2.1-1.58,4-.69,5.32C727.1,873.85,729.2,874.93,730.93,876.22Zm-467.31-353q34,22.26,68,44.56c4.59,3,8.85,3.23,13.39,0,5.13-3.64,10.36-7.13,15.59-10.6,3.74-2.48,7.39-4.58,12-1.12,1.2.9,4.27.33,5.92-.57,5.78-3.17,11.37-6.7,16.93-10.26s5.84-4.91,2.41-10.85c5.34-3.26,8.53-4.68,13.59-8.34,4.05-3-19.22-17.32-26.33-21.79-16.17-10.19-32.59-20-48.63-30.37-6.16-4-11.72-3.79-17.63-.33-4.61,2.72-9.13,5.59-12.86,7.88-3.46-4-6.25-8.32-10.06-11.31-3.1-2.43-7-5.44-11.68-2.43q-9.54,6.09-19.22,11.94c-3.76,2.28-3.82,4.3-.17,6.84a42.49,42.49,0,0,1,8.3,6.94c2.34,2.77,4,5.83-1.07,8.56s-20.29,13.32-19.16,14.14C256.39,518.69,260,520.93,263.62,523.27ZM289.42,477c4.81,2.68,7.28,5.57,8.1,9.07l-14.33,8.69c-.51-3.53-3.61-6.78-7.19-9.31C280.18,482.93,285.41,479.38,289.42,477Zm234.76,25.24q16.4,11.65,32.92,23.15c20.74,14.5,41.24,29.38,62.34,43.33,12.72,8.41,23,21.28,40.29,21.92,8.51.32,17,3.78,25.23-1.26a3.64,3.64,0,0,1,3.33.57c5.05,4.45,8.53.53,12.31-2.07,4.08-2.82,3.54-6.14.69-9.42,15.63-10.66,30.89-21.06,46.13-31.49,3.22-2.21,6.09-3,10-.8,5.24,2.91,7.32-1.32,11.41-5.07.87-.8-.37-4.65-.67-7.23,0,0,3-2.17,1.73-7.8-2.26-9.83-2.57-17.1-13.2-23.8-37-23.34-73.29-47.83-109.68-72.12-12-8-24.31-6.83-37-2.61-.93.31-2.53.57-3,.09-4.81-5.29-8.91-2.41-13.24.74-4.83,3.51-5,4.6-.18,8.94-16.44,10.59-32.8,21.16-49.23,31.6-1,.62-3.08.84-3.79.23-4.8-4.07-8.61-2.26-12.93,1.06-6,4.58-5.5,5.19-1.09,8.52-2.19,6.88-3.3,9.3-4.76,14.52C520.69,497.36,521,500,524.18,502.22ZM654.11,479c4.48,3.91,13,11.67,15.65,13.27,1.51.9,3.78-.27,3.48-2.74-.1-.83-2.49-9.79-3.43-12.49a1.05,1.05,0,0,1,1.44-1.31c6.17,2.89,23.38,11,35.61,16.68,26.27,12.21,34.65,16.2,44.6,20.61a6.47,6.47,0,0,1,3.39,3.49c.18.44.38.91.6,1.36,1.74,3.54,1.42,6.18-2.21,8.6C728.46,543,703.89,559.79,679,576.05c-3,1.94-7.76,1.42-11.71,1.49-2.63,0-5.28-.9-8.44-1.5,1-5.49-.48-5.08-11.76-12.71-16.77-11.34-35.67-23.38-47.12-31a1.12,1.12,0,0,1,.78-2c3.46.5,6.94,1,9.55,1.19,4.25.25,5.19-2.11,3.52-5.57-2.44-5-5.13-10-7.81-15.15Zm-17.65-12.42c.18.31.85,1.2,1,1.51,6.25,10.14,6.53,10.81-5.06,17.62-8,4.71-15.45,10.48-23.65,14.83-3.7,2-8.69,2.43-13,2.14-6.73-.45-13.38-2.13-20.25-3.32.85-6.41,4.15-10.67,9.59-14,11.9-7.3,23.43-15.19,35.17-22.75C625,459.54,633.73,461.78,636.46,466.57ZM614.07,441.2c2.24-1.44,3.35-2,6.71-4.27,5.3-3.63,8.49-1.22,13,2.46-5.8,3.46-11.46,6.66-16.93,10.14q-17.4,11.12-34.65,22.48c-7,4.62-13.94,9.43-20.93,14.12-4.27,2.87-4.54,2.79-12.87-2.72ZM342.83,413.39c1.31,9,1.31,10.82,5.75,13.23,7.56,4.09,15.5,7.46,23.13,11.41,14.9,7.71,29.69,15.61,44.59,23.32a8.49,8.49,0,0,0,4.65.73A42.32,42.32,0,0,0,441,454c3-2.21,6.28-4.39,11.21-3,5.61,1.52,9.93-3.65,8.36-8.91,7.6-4.67,14.82-9.29,22.25-13.55a12.46,12.46,0,0,1,6.62-1.4c4.7.27,9.42-1.53,10.15-5.41.87-4.61,3.78-5.83,6.55-8.22A66.4,66.4,0,0,0,516,402.51c1.8-2.46-1.09-4.8-5.89-7.8C494,383.36,477.6,372.32,461.89,360.4c-5.76-4.37-9.26-6-18.35-6-10-.06-24.6-.32-33.44-.26-4.33,0-9.29-.08-12.84,1.89-15.67,8.7-31.06,17.91-46.27,27.39-7.28,4.54-10.71,5.68-9.56,17.93C342,407,342.18,408.85,342.83,413.39Zm12.39-24.71c14.93-8.83,29.4-18.52,44.74-26.54,5.3-2.77,12.66-2.05,19.08-2.1,9.08-.07,18.17.84,27.26.88a13.11,13.11,0,0,1,10,4c14.28,13.94,28.86,27.57,43.35,41.29l.19.18a2,2,0,0,1-.07,3.24c-14.38,9.65-54.82,34.36-70.54,44a21,21,0,0,1-7.52,2,2.72,2.72,0,0,1-1.37-.3l-67.23-34.36a2.92,2.92,0,0,1-1.58-2.59c0-7.93.14-15.68-.08-23.41C351.41,391.9,352.54,390.27,355.22,388.68ZM1009.72,672c6.65,4.83,13.69,9.12,20.63,13.55,3.39,2.16,6.45,1.08,9.41-1.21,4.68-3.63,9.22-7.53,14.27-10.54,3.29-2,4.45-4.4,3.59-7.54-.54-2-2.52-3.55-4.35-6-.21-1.18,1.65-3.35-1.46-5.92-4.26-3.5-6.79-5.86-10.09-2.17-.44.49-2.51-.63-3.69-1.24-4.47-2.3-8.79-2.94-13.08.44-4.65,3.67-9.17,7.55-14.11,10.78C1006.34,665.08,1005.39,668.84,1009.72,672ZM532.21,345.71q18,10,35.87,20.13c14.48,8.19,29,16.23,43.32,24.73,6,3.54,11.13,3,16.55-.58,5.8-3.86,17.52-10.45,17.53-9.95,3.67.24,7.92,1.78,10.89.46,6.31-2.79,12-7,17.85-10.79,4.06-2.63,4-5-.05-8.41a28.29,28.29,0,0,1,2.9-2.43c3.46-2.24,7.19-4.13,10.36-6.71,1.14-.92-5.69-5.45-6.8-5.86-3.31-1.23-35.57-20.51-56.76-31.37-18.48-9.48-24.61-11.85-31.33-8.35-4.51,2.35-8.74,5.21-13.15,7.87-1.29-2.41-2.27-4.71-3.65-6.75-4.31-6.36-10.36-9-16.92-5.28-3,1.67-7.38,4-10.17,5.87s-6,3.92-8.87,6a.74.74,0,0,0,0,1.17c2.52,1.87,4.86,3.18,7.58,4.92,5.09,3.26,5.32,9.7.6,13.13C545.35,335.42,529.5,344.21,532.21,345.71Zm30.74-35c4.11,1.35,6.6,4.35,7.48,8.9-3.31,1.84-7.16,4.18-11.87,6.88-.84-3.86-2.12-6.43-5.75-9.08Zm518.41,299c8.58,5.86,19.48,12.66,28.33,18.1,5.77,3.55,10-1.59,4.92-6.08-2.07-1.42-5.33-3.27-5.33-3.27-3.36-2.51,2.85-8.79,6.42-8.35,5.19.65,11.64,7.48,13.47,6.88.35-.12.81-.24,1.32-.38a3.28,3.28,0,0,0,1.29-5.65l0,0c-2.25-1.74-5-3.16-7.17-4.57-11.07-7.15-16.29-9.39-24.82-14.77a3,3,0,0,0-2.64-.11,3.27,3.27,0,0,0-1.94,4.46l0,0c1.27,2.87,9.28,5,10.71,7.63-4.56,5-8,7.2-16.73,3-.61-.29-2.13-1.12-4.05-2.14-3.09-1.64-4.53-1.45-5.67.86C1079,606.26,1080.19,608.85,1081.36,609.65ZM1183.64,855.2A58.88,58.88,0,0,0,1182.3,842c-.61-2.68-5-8.2-7.89-9.36-5.43-2.16-9.57-2.42-13.86-.77a60.74,60.74,0,0,0-10.73-8.49c-1.32-.83-3.68-1.52-4.84-.9-6.28,3.38-8.63,7.29-2.41,12.26a31.11,31.11,0,0,1,3.07,3.19L1123,856c-2.33-2.41-4.13-4.5-6.16-6.33-2.4-2.17-7.31.15-9.72,4a5,5,0,0,0,.43,5.19c1.56,2.4,4.27,4,6,6.37.86,1.17,1.39,4.1.74,4.63-5.23,4.35-3.06,10.9-1.74,15.45,2.56,8.79,15.27,12.39,24.23,8.57,3.49-1.48,5.2-.92,7.24,1.6s4.16,3.61,6.92,1c1.55-1.43,4.27-2.72,4.42-4.28.24-2.46-1.23-5.08-2-7.62,6.31-5.08,12.82-10.46,19.53-15.58,1-.77,3.5-1,4.36-.32,4.11,3.29,4.56,3.65,9.85-1a3.57,3.57,0,0,0,.67-4.56C1186.09,860.41,1183.61,856.61,1183.64,855.2Zm-13.32.75c-10.75,9-21.89,17.62-32.89,26.36-1.69,1.35-3.17,3.61-5,3.94a23.54,23.54,0,0,1-10.57-.19c-1.34-.39-2.73-4.56-2.16-6.4.69-2.21,3.31-3.95,5.34-5.58,11.09-8.93,22.17-17.85,33.44-26.54,1.66-1.28,4.49-3.55,6.83-3.92a3.28,3.28,0,0,1,2.43.67c2,1.44,4.49,2.63,4.8,4.24C1173,850.84,1172,854.51,1170.32,856ZM1069,819.83a8.45,8.45,0,0,0,3.49-1.22c6.25-4.85,12.49-9.74,18.37-15,5.21-4.69,4.77-7.45-1.36-11.37-7.77-5-12.36-7.53-17.74-10.69-5.71-3.36-12-3-15.25-.6-1.29,1-13.51,11.32-14.35,12-4.4,3.52-4.43,8.23-.05,11.36,5,3.53,9.81,7.22,14.86,10.61,2.4,1.61,5,3,7.36,4.28A6.71,6.71,0,0,0,1069,819.83Zm-6.26-8.86c-5.09-3.63-10.38-7-15.72-10.56,4.66-3.6,9.33-7.17,14-10.79,2.6-2,5.13-2,7.83-.15,5.27,3.7,10.59,7.3,16.47,11.34-4.63,3.5-9.25,6.62-13.42,10.25C1068.49,814,1065.86,813.21,1062.71,811Z"/></g><g id="Thrusters"><path d="M389.57,596.14c-8.26,0-14.95,5.27-14.95,11.77s6.69,11.77,14.95,11.77,14.94-5.27,14.94-11.77S397.82,596.14,389.57,596.14ZM819.91,907.85a14.95,14.95,0,1,0,21.14,0A14.94,14.94,0,0,0,819.91,907.85Zm340.31-245c-5.89-3.88-13.47-2.75-16.94,2.52s-1.52,12.68,4.37,16.56,13.46,2.75,16.93-2.52S1166.1,666.74,1160.22,662.86ZM742.36,371.37c-7.29,0-13.19,4.66-13.19,10.4s5.9,10.39,13.19,10.39,13.2-4.65,13.2-10.39S749.66,371.37,742.36,371.37Z" fill="#007aff"/></g></g></svg>