<svg xmlns="http://www.w3.org/2000/svg" viewBox="0 0 1500 1500"><title>Viper Mk III</title><g id="Viper_Mk_III" data-name="Viper Mk III"><g id="Colour"><path d="M1313.78,960.83c-6.93-15.87-11.93-32.57-18.31-48.7a232.06,232.06,0,0,0-13.93-30c-4.61-8.06-11.13-15-16.54-22.63-14-19.8-28-39.7-41.92-59.54-1.55-2.2-3.15-4.36-4.74-6.52-9.25-12.61-18-25.6-27.89-37.72-11.23-13.82-20.28-29.09-32.89-42.18-14.67-15.24-25.5-34.18-38-51.53-10.58-14.73-21.07-29.53-31.7-44.22-10.84-15-21.86-29.86-32.7-44.86-7.26-10-14.27-20.26-21.54-30.29q-22.94-31.64-46.07-63.14c-4.93-6.71-10.15-13.22-14.76-19.22,1.51-2.32,4.77-5,4.61-7.53-.72-11.5,3.23-23.08-.79-34.5-4.58-13-5.34-27.38-13.83-39a11,11,0,0,1-1.54-5.1c-.58-5.07-3.18-7.77-8.18-9.24-7.15-2.11-14.68-4-20.92-7.88-17.85-11-34.89-23.27-52.7-34.3-20.07-12.43-40.6-24.12-61-36a18.13,18.13,0,0,0-11.63-2.31c-8,.81-16.44,5.28-24.49-.4-.59-.42-2,.5-3,.44-6.21-.37-12.25,3.82-18.64.36-2.38-1.29-5.35-1.46-8-2.22-1.67-.47-3.29-1.12-4.95-1.63-1.86-.58-4-1.93-5.57-1.51-9.48,2.42-19.35,4.16-28.13,8.21-12.83,5.92-23.27,15.56-32.94,25.89-5.56,5.93-5.5,11.17,1.79,13.85s7,7.69,6.61,13.34c-.33,4.74-3.78,7.7-8.55,7.89-6.72.27-13.43,1-20.13,1-7.06,0-14.7,2.43-20.7-3.73-3.44-3.53-7.67-4.24-12.42-3.92-13,.87-26.11,1.41-39.16,2.31-6.29.43-12.54,1.94-18.82,2s-12.53,1.7-18.48-2.28c-10.88-7.3-22.09-14-35-17.28-7-1.78-8.85-1.73-10.06,5.22-1.45,8.33-7.34,12-13.49,15.54-11.44,6.67-24.26,9.37-37,12.22-6,1.35-11.51,9.66-13.62,17.09-3,10.44-1.83,20.55-2,30.83-.16,8.1-1.08,15-6.32,22.19-12.45,17.07-23.38,35.25-35,52.95-4.17,6.37-3.71,9.39,2.68,14.52-3.68,5.89-7.27,11.88-11.09,17.72-7.47,11.41-15.07,22.74-22.64,34.09-2.58,3.87-6,7.4-4.73,12.71,1.4,5.7,2.81,11.4,4.5,18.24-2.57.26-5.66,1.58-7.12.57-12.54-8.72-24.68-18-37.18-26.8-4.81-3.38-10-7.23-16.39-2.74-4.24,3-8.76,5.52-13,8.45-5.3,3.65-10.43,7.53-15.7,11.21-.38.26-1.31-.32-2-.46-2.75-.55-5.77-2.09-8.21-1.44-9.75,2.62-19.57,5.33-28.88,9.17a90.12,90.12,0,0,0-19.22,11.42c-5.88,4.41-11,9.9-16.33,15-3,2.82-6.52,5.4-8.47,8.84-1.28,2.27-1.4,7.16.13,8.64,3.66,3.57,8.59,5.81,12.47,8.25-.27,3.1-.44,6.48-.89,9.82-.24,1.88-.41,4.14-1.51,5.47-7,8.35-14.21,16.43-21.23,24.71-3.91,4.59-7.18,9.43-5.41,16.1a133.84,133.84,0,0,1,3.9,17.81c1.16,9.54,4.53,17.44,12.2,23.76,7.31,6,13.83,12.95,20.76,19.43,3.72,3.47,7.43,7,11.37,10.16Q243,770.63,259.53,783.7c15.55,12.28,31.05,24.64,46.88,36.56,4.26,3.21,8.56,6.12,9.69,11.48.91,4.31,4.27,5.62,7.33,6.1a172,172,0,0,0,24.06,2.31c19.43.32,38.86.14,58.29.05a12,12,0,0,0,5.7-1.24c7.73-4.42,15.09-9.53,23-13.55,5.72-2.9,9.15-6.28,7.15-13.64l18.61-2.72c2.12,6.71,4.72,12.65,5.74,18.85.95,5.72,3.67,9.08,8.69,11.15,31.3,12.87,62.63,25.67,93.89,38.65,25.56,10.61,51,21.52,76.55,32.13,14.51,6,29.23,11.53,43.73,17.58,16,6.68,31.88,13.74,47.84,20.57,22.07,9.44,44.23,18.68,66.24,28.28,10.66,4.66,214.11,91.16,244.29,103.83,6.27,2.63,30.55,9.61,36.39,10.57,14.17,2.34,28.36,4.58,42.52,7,12,2.08,24.07,4,35.91,6.8,5,1.18,8.9.6,12.69-2.11,5-3.55,9.82-7.31,14.54-11.21,4-3.28,7.66-6.84,6.3-12.88a5.27,5.27,0,0,1,.55-3.67c2.57-3.91,1-7-1.33-10.29-13.18-19.17-26.25-38.43-39.47-57.82,15.36-12.49,30.88-25.15,46.5-37.69,1.18-.95,3.49-1.92,4.53-1.4,6.68,3.35,13.27,6.91,19.66,10.78,9.91,6,19.75,12.13,29.42,18.51,9.86,6.5,24,17.58,32,12,2.33-1.6,4.52-2.72,6.25-4.35,3.89-3.66,7.29-7.87,11.35-11.31C1313.29,986,1318.64,972,1313.78,960.83Z" fill="#3d3d3d"/><path d="M1313.78,960.83c-6.93-15.87-11.93-32.57-18.31-48.7a232.06,232.06,0,0,0-13.93-30c-4.61-8.06-11.13-15-16.54-22.63-14-19.8-28-39.7-41.92-59.54-1.55-2.2-3.15-4.36-4.74-6.52-9.25-12.61-18-25.6-27.89-37.72-11.23-13.82-20.28-29.09-32.89-42.18-14.67-15.24-25.5-34.18-38-51.53-10.58-14.73-21.07-29.53-31.7-44.22-10.84-15-21.86-29.86-32.7-44.86-7.26-10-14.27-20.26-21.54-30.29q-22.94-31.64-46.07-63.14c-4.93-6.71-10.15-13.22-14.76-19.22,1.51-2.32,4.77-5,4.61-7.53-.72-11.5,3.23-23.08-.79-34.5-4.58-13-5.34-27.38-13.83-39a11,11,0,0,1-1.54-5.1c-.58-5.07-3.18-7.77-8.18-9.24-7.15-2.11-14.68-4-20.92-7.88-17.85-11-34.89-23.27-52.7-34.3-20.07-12.43-40.6-24.12-61-36a18.13,18.13,0,0,0-11.63-2.31c-8,.81-16.44,5.28-24.49-.4-.59-.42-2,.5-3,.44-6.21-.37-12.25,3.82-18.64.36-2.38-1.29-5.35-1.46-8-2.22-1.67-.47-3.29-1.12-4.95-1.63-1.86-.58-4-1.93-5.57-1.51-9.48,2.42-19.35,4.16-28.13,8.21-12.83,5.92-23.27,15.56-32.94,25.89-5.56,5.93-5.5,11.17,1.79,13.85s7,7.69,6.61,13.34c-.33,4.74-3.78,7.7-8.55,7.89-6.72.27-13.43,1-20.13,1-7.06,0-14.7,2.43-20.7-3.73-3.44-3.53-7.67-4.24-12.42-3.92-13,.87-26.11,1.41-39.16,2.31-6.29.43-12.54,1.94-18.82,2s-12.53,1.7-18.48-2.28c-10.88-7.3-22.09-14-35-17.28-7-1.78-8.85-1.73-10.06,5.22-1.45,8.33-7.34,12-13.49,15.54-11.44,6.67-24.26,9.37-37,12.22-6,1.35-11.51,9.66-13.62,17.09-3,10.44-1.83,20.55-2,30.83-.16,8.1-1.08,15-6.32,22.19-12.45,17.07-23.38,35.25-35,52.95-4.17,6.37-3.71,9.39,2.68,14.52-3.68,5.89-7.27,11.88-11.09,17.72-7.47,11.41-15.07,22.74-22.64,34.09-2.58,3.87-6,7.4-4.73,12.71,1.4,5.7,2.81,11.4,4.5,18.24-2.57.26-5.66,1.58-7.12.57-12.54-8.72-24.68-18-37.18-26.8-4.81-3.38-10-7.23-16.39-2.74-4.24,3-8.76,5.52-13,8.45-5.3,3.65-10.43,7.53-15.7,11.21-.38.26-1.31-.32-2-.46-2.75-.55-5.77-2.09-8.21-1.44-9.75,2.62-19.57,5.33-28.88,9.17a90.12,90.12,0,0,0-19.22,11.42c-5.88,4.41-11,9.9-16.33,15-3,2.82-6.52,5.4-8.47,8.84-1.28,2.27-1.4,7.16.13,8.64,3.66,3.57,8.59,5.81,12.47,8.25-.27,3.1-.44,6.48-.89,9.82-.24,1.88-.41,4.14-1.51,5.47-7,8.35-14.21,16.43-21.23,24.71-3.91,4.59-7.18,9.43-5.41,16.1a133.84,133.84,0,0,1,3.9,17.81c1.16,9.54,4.53,17.44,12.2,23.76,7.31,6,13.83,12.95,20.76,19.43,3.72,3.47,7.43,7,11.37,10.16Q243,770.63,259.53,783.7c15.55,12.28,31.05,24.64,46.88,36.56,4.26,3.21,8.56,6.12,9.69,11.48.91,4.31,4.27,5.62,7.33,6.1a172,172,0,0,0,24.06,2.31c19.43.32,38.86.14,58.29.05a12,12,0,0,0,5.7-1.24c7.73-4.42,15.09-9.53,23-13.55,5.72-2.9,9.15-6.28,7.15-13.64l18.61-2.72c2.12,6.71,4.72,12.65,5.74,18.85.95,5.72,3.67,9.08,8.69,11.15,31.3,12.87,62.63,25.67,93.89,38.65,25.56,10.61,51,21.52,76.55,32.13,14.51,6,29.23,11.53,43.73,17.58,16,6.68,31.88,13.74,47.84,20.57,22.07,9.44,44.23,18.68,66.24,28.28,10.66,4.66,214.11,91.16,244.29,103.83,6.27,2.63,30.55,9.61,36.39,10.57,14.17,2.34,28.36,4.58,42.52,7,12,2.08,24.07,4,35.91,6.8,5,1.18,8.9.6,12.69-2.11,5-3.55,9.82-7.31,14.54-11.21,4-3.28,7.66-6.84,6.3-12.88a5.27,5.27,0,0,1,.55-3.67c2.57-3.91,1-7-1.33-10.29-13.18-19.17-26.25-38.43-39.47-57.82,15.36-12.49,30.88-25.15,46.5-37.69,1.18-.95,3.49-1.92,4.53-1.4,6.68,3.35,13.27,6.91,19.66,10.78,9.91,6,19.75,12.13,29.42,18.51,9.86,6.5,24,17.58,32,12,2.33-1.6,4.52-2.72,6.25-4.35,3.89-3.66,7.29-7.87,11.35-11.31C1313.29,986,1318.64,972,1313.78,960.83Z" fill="none" stroke="#000" stroke-linejoin="round" stroke-width="8"/></g><g id="Paint"><path d="M912.13,946,857.3,812.49,624.93,672.3v34.6l217,131.53L899.22,987l143.85,63.83,40.39-17.24L974.91,978.75Zm261-203.89-143.37-64.34L904.67,514.55l-27.1-13.74L1016.5,682.4l123.12,57.05,68.51,87.1,1.72,13.6L1234.51,858l23.65,38,11-22ZM449.84,367.33l-5,17.9-.46,12.41L570.14,481l-6.74-38.62Zm58.47-33.28-2.55,5.51L614.4,413.47l30.37,10.72ZM429.08,443.18,475,475l40.91-7.14-68-49.27ZM631.51,379,584.66,348l-20.76,5.31L630,395.63Zm151,470L788.74,885l42.08,19-9.64-37.32Zm313-156.84-18.39-29.73-28.24-8.38,17.86,29.26Z" fill="#c9a611"/></g><g id="Canopy"><path d="M1002.62,826c-5.17-1.89-13.7-4.82-18.77-6.94-1.11-.47-6.25,5.91-5.57,8.46,9.11,9,20.19,17.14,28.9,26.54a4.45,4.45,0,0,1,.71,1.09c1.86.06,3.88.2,4.24-.41,2.63-4.46,4.74-6.66,7.74-10.9,1.11-1.56,4.5-6,6.54-9C1017.88,831.49,1010.37,828.87,1002.62,826Zm138.6,44.28c.14-3.44-36.16-57.34-41.11-64.21s-14.44-2.75-16.65-1.52-38.76,29.29-45,35.95c0,0-17.33,20.57-16.36,25.65s57.06,45.65,62.42,47.3,15-3.71,21.86-3.61,24.75-11.92,30.25-15.36S1141.08,873.76,1141.22,870.32Z" fill="#82b3d1"/></g><g id="Shadows" opacity="0.2"><path d="M1187.32,1053.42c-22.55,27.76-31.78,22.22-31.78,22.22s-62.52-7.34-87.7-12.71-531.32-230-531.32-230l-75.63-42.39-24,1.1V775.19L399,790.51H323.1L184.36,677.68l-6,8.47,8.7,36.44L310.8,824.35l12.63,13.49,84.66,3.83,36.28-30.3,14.56-4.53,13.54,32.66,589.06,247.87,106.62,13.2,27-28.84S1189.39,1050.87,1187.32,1053.42ZM1309,959.28l-26.31,20.32-88.25-59.49c-55.32-.23-29.23,78.33-29.23,78.33l43.66-32.8,71.38,38.7,34.62-28ZM563.9,551.55l153.65,39.11,29.22,18.66s183,204.76,224,249.88,83.61,55.1,108.54,60.95,47.42,12.73,35.41-12.79-44.7-51.72-55.45-61.65S762,581.61,762,581.61l-22.94-16.37-79.2-77.3L455.61,359.61l-9.06,7.72-6.78,18.09,2.05,30.41L417,454.07ZM690.67,348.09,762,391.68,882.12,434.3,955,457.63l-3.78-23.33-7.13-6.93-153.63-60S684.8,315.41,686.8,316.65Z" fill="#111"/></g><g id="Outline"><path d="M1027.5,844.3l-.17.18.1-.07Zm-497-181.2c5.6,10.78,11.26,21.54,16.75,32.38,2.06,4.06,4.39,3.75,7.17,1,14.7-14.69,27.86-27.73,42.42-42.56,2.12-2.16,4.9-6.82,5.74-8.19,1.47-6.12,0-8.93-7.65-16.11-2-1.85-2.16-1.62-6.33-5-5.33-4.38-10.4-11.25-19.23-7.6-1.78.73-34.83,9.51-49.55,13.22-3.8,1-5,3-3,6.74C521.46,645.61,526,654.36,530.52,663.1Zm475.81,71.09c-4.2-3.56-43.36-34-58.35-45.14a30.59,30.59,0,0,0-3.88-2.38,12.23,12.23,0,0,0-9.28-1.07,5.71,5.71,0,0,0-1.54.7,192.42,192.42,0,0,0-15.73,11.29c-6.2,5.07-5.77,9.64.52,15.32,3.46,3.12,42.65,41.45,47.33,47.1,5.88,7.08,18.94,8.29,23.13,6.42a51.49,51.49,0,0,0,17.12-11.95C1011,748.54,1012.52,739.43,1006.33,734.19Zm-3.16,12c-2.87,4.81-9.21,9.62-14.34,12.2-5.63,2.83-12.61-.24-16.68-4.42-1.48-1.53-37.64-37.7-50.36-51,4.56-3.41,8.94-7.22,13.88-10.06,1.67-1,5.35-.28,7.11,1,14,10.33,30.58,22.73,50.35,39C999.39,738.11,1005.37,742.86,1003.17,746.16ZM857.83,660.61c-1.29-1.25-4.4-3-5.66-1.52-3,3.5-5.78,7.19-8.57,11a5.51,5.51,0,0,0-.28,6.1c.34.57,36.26,40.49,43.39,48.42,3,3.31,6.24,6,7.36,1.7,1.54-5.88,2.59-11.92,4.55-17.65,1.46-4.28.14-7.27-2.64-10.06C883.32,685.88,870.67,673.15,857.83,660.61Zm-333,125.28c-3.2-1.86-8.67-4.9-14.49-8.89-3.59-2.46-6.6-2.57-9.53.66-2.35,2.61-11.65,13.12-13.75,15.89-1.81,2.38-1.66,4.39,1.41,6.16,4.17,2.41,8.41,4.31,12.56,6.78,3.21,1.91,8.53,2.4,10.89-.6C514.58,802.48,529.09,788.39,524.81,785.89ZM641.68,600.36a112.1,112.1,0,0,0-10.26-7.75c-12.93-8.68-13.94-11.18-21.79-6.62-1.64,1-4.68,2.39-4.54,3a10.76,10.76,0,0,0,3.38,5.9c8.9,6.94,18,13.62,27.11,20.3a17.48,17.48,0,0,0,2.48,1.45,2.85,2.85,0,0,0,3.75-1.21,21.16,21.16,0,0,0,1.47-3.22,17.37,17.37,0,0,0,1.29-6.08A8.56,8.56,0,0,0,641.68,600.36Zm162.7-128.52a72.31,72.31,0,0,0,12.85,9c13.93,7.7,15.85,7.06,18.45,7.06,5.38-.37,29.51-5.17,41.31-8.71a28.35,28.35,0,0,0,4.09-1.66,1.89,1.89,0,0,0,.24-3.23,36,36,0,0,0-4.18-2.46c-7.38-3.68-15-6.94-22.44-10.44-13.76-6.45-27.46-13.06-41.31-19.31-1.59-.71-5.57,0-5.79.76-2.28,8-4.17,16.16-5.73,24.36C801.61,468.59,803.11,470.73,804.38,471.84Zm-423,287c-16.29-1.5-22.72,3.32-24.8,9.33-1.51,4.34-3.38,9.66-2.11,13.58,1.56,4.81,5.42,10.09,9.77,12.44s10.69,2.46,15.76,1.48c9.23-1.79,15.79-11.63,15.8-21.43C395.81,768,388,759.47,381.39,758.86Zm551.5-374.15a20.2,20.2,0,0,0-2.15,1.45c-2.87,2.91-4.47,7.44-2.86,10.58,1.16,2.28,2.58,5.07,4.55,6.25,2.41,1.45,5.81,2.33,8.23,1.85s4.68-2.54,6.07-4.62c2.52-3.79,1-10-2.83-14C941.47,383.67,935.48,382.85,932.89,384.71Zm380.89,576.12c-6.93-15.87-11.93-32.57-18.31-48.7a232.06,232.06,0,0,0-13.93-30c-4.61-8.06-11.13-15-16.54-22.63-14-19.8-28-39.7-41.92-59.54-1.55-2.2-3.15-4.36-4.74-6.52-9.25-12.61-18-25.6-27.89-37.72-11.23-13.82-20.28-29.09-32.89-42.18-14.67-15.24-25.5-34.18-38-51.53-10.58-14.73-21.07-29.53-31.7-44.22-10.84-15-21.86-29.86-32.7-44.86-7.26-10-14.27-20.26-21.54-30.29q-22.94-31.64-46.07-63.14c-4.93-6.71-10.15-13.22-14.76-19.22,1.51-2.32,4.77-5,4.61-7.53-.72-11.5,3.23-23.08-.79-34.5-4.58-13-5.34-27.38-13.83-39a11,11,0,0,1-1.54-5.1c-.58-5.07-3.18-7.77-8.18-9.24-7.15-2.11-14.68-4-20.92-7.88-17.85-11-34.89-23.27-52.7-34.3-20.07-12.43-40.6-24.12-61-36a18.13,18.13,0,0,0-11.63-2.31c-8,.81-16.44,5.28-24.49-.4-.59-.42-2,.5-3,.44-6.21-.37-12.25,3.82-18.64.36-2.38-1.29-5.35-1.46-8-2.22-1.67-.47-3.29-1.12-4.95-1.63-1.86-.58-4-1.93-5.57-1.51-9.48,2.42-19.35,4.16-28.13,8.21-12.83,5.92-23.27,15.56-32.94,25.89-5.56,5.93-5.5,11.17,1.79,13.85s7,7.69,6.61,13.34c-.33,4.74-3.78,7.7-8.55,7.89-6.72.27-13.43,1-20.13,1-7.06,0-14.7,2.43-20.7-3.73-3.44-3.53-7.67-4.24-12.42-3.92-13,.87-26.11,1.41-39.16,2.31-6.29.43-12.54,1.94-18.82,2s-12.53,1.7-18.48-2.28c-10.88-7.3-22.09-14-35-17.28-7-1.78-8.85-1.73-10.06,5.22-1.45,8.33-7.34,12-13.49,15.54-11.44,6.67-24.26,9.37-37,12.22-6,1.35-9.49,7.32-13.62,17.09-4.23,10-1.83,20.55-2,30.83-.16,8.1-1.08,15-6.32,22.19-12.45,17.07-23.38,35.25-35,52.95-4.17,6.37-3.71,9.39,2.68,14.52-3.68,5.89-7.27,11.88-11.09,17.72-7.47,11.41-15.07,22.74-22.64,34.09-2.58,3.87-6,7.4-4.73,12.71,1.4,5.7,2.81,11.4,4.5,18.24-2.57.26-5.66,1.58-7.12.57-12.54-8.72-24.68-18-37.18-26.8-4.81-3.38-10-7.23-16.39-2.74-4.24,3-8.76,5.52-13,8.45-5.3,3.65-10.43,7.53-15.7,11.21-.38.26-1.31-.32-2-.46-2.75-.55-5.77-2.09-8.21-1.44-9.75,2.62-19.57,5.33-28.88,9.17a90.12,90.12,0,0,0-19.22,11.42c-5.88,4.41-11,9.9-16.33,15-3,2.82-6.52,5.4-8.47,8.84-1.28,2.27-1.4,7.16.13,8.64,3.66,3.56,8.59,5.81,12.47,8.25-.27,3.1-.44,6.48-.89,9.82-.24,1.88-.4,4.14-1.51,5.47-7,8.35-14.21,16.43-21.23,24.71-3.91,4.59-7.18,9.43-5.41,16.1a133.84,133.84,0,0,1,3.9,17.81c1.16,9.54,4.53,17.44,12.2,23.76,7.31,6,13.83,12.95,20.76,19.43,3.72,3.47,7.43,7,11.37,10.16Q243,770.63,259.53,783.7C274.29,795.36,289,807.06,304,818.42a4.71,4.71,0,0,0,2.42,1.84h0c4.26,3.21,8.56,6.12,9.69,11.48.91,4.31,4.27,5.62,7.33,6.1a172,172,0,0,0,24.06,2.31c19.43.32,38.86.14,58.29.05a12,12,0,0,0,5.7-1.24c7.73-4.42,15.09-9.53,23-13.55,5.72-2.9,9.15-6.28,7.15-13.64l18.61-2.72c2.12,6.71,4.72,12.65,5.74,18.85.95,5.72,3.67,9.08,8.69,11.15Q505,851.5,535.22,863.92a1.17,1.17,0,0,0,.5.21q16.42,6.76,32.85,13.57c25.56,10.61,51,21.52,76.55,32.13,14.51,6,29.23,11.53,43.73,17.58,16,6.68,31.88,13.74,47.84,20.57,22.07,9.44,44.23,18.68,66.24,28.28,10.66,4.66,214.11,91.16,244.29,103.83,6.27,2.63,30.55,9.61,36.39,10.57,14.17,2.34,28.36,4.58,42.52,7,12,2.08,24.07,4,35.91,6.8,5,1.18,8.9.6,12.69-2.11,5-3.55,9.82-7.31,14.54-11.21,4-3.28,7.66-6.84,6.3-12.88a5.27,5.27,0,0,1,.55-3.67c2.57-3.91,1-7-1.33-10.29-13.18-19.17-26.25-38.43-39.47-57.82,15.36-12.49,30.88-25.15,46.5-37.69,1.18-.95,3.49-1.92,4.53-1.4,6.68,3.35,13.27,6.91,19.66,10.78,9.91,6,19.75,12.13,29.42,18.51,9.86,6.5,23.43,19,32,12,2.33-1.6,4.52-2.72,6.25-4.35,3.89-3.66,7.29-7.87,11.35-11.31C1313.29,986,1318.64,972,1313.78,960.83Zm-75.5-127.43q4.56,6.14,9.11,12.28a19.87,19.87,0,0,0-6.58-1.38c-3-.11-9.7,1.76-10.08,4.62-.08.63-.14,1.31-.17,2-6-1.34-10.73-5.79-15-11.2-.92-1.15-1.82-2.31-2.7-3.45a2.81,2.81,0,0,1,1.82-4.51c3-.46,5.94-.89,8.88-1.1C1229.35,830.23,1235,829,1238.28,833.4Zm-19,61c-14.59-13.55-46.79-42.65-48-43.88.29-.57.36-1,.61-1.15,9.41-5,10-5.17,17.94,2,13.76,12.36,26,23,40,35.19,1,.86,2.46,2.37,4.78,4.34,1.55,1.31,2,3.47.57,4.93C1227.92,903.24,1227.13,901.68,1219.25,894.36Zm2.87,11.27-5.93,4.15c-18-17.53-37.06-36-55.21-53.72,2.3-1.39,5-2.75,5-2.75C1185,870.65,1201,886.06,1222.12,905.63Zm20.22-8.32c2.74-2.66,2.26-5.45-.55-8-8-7.23-16-14.54-24-21.78-10.77-9.73-21.55-19.46-32.45-29.06-1.06-.94-3.41-1.83-4.32-1.29-9.34,5.48-17.59,10.7-27,16.5-4.68-14.45-11.23-29.42-30.3-40.25-3.46-2-8.12-2.67-11.35-5.11-9.91-7.51-19.38-15.61-29-23.49-3.91-3.2-60.17-50.88-66.23-55.43-12.24-9.22-23.92-19.18-35.89-28.77s-23.94-19.08-36-28.56c-11.31-8.91-22.76-17.65-34-26.63-12.27-9.79-24.36-19.81-36.59-29.66-7.3-5.88-14.8-11.51-22-17.5a6.2,6.2,0,0,1-1.67-4.93c1-5.79-1.39-9-7.24-9.41-6.81-.42-12.19-2.91-17.69-7.73-9.52-8.36-20-15.61-22.79-21-4.51-8.85-11.06-12.88-19.39-15.11-7.16-1.92-9.8-8.12-13.71-12.8-12.22-14.65-23.75-29.88-35.45-45-3.12-4-5.9-8.28-9-12.63a29.77,29.77,0,0,1,22.07-3.09c10.94,2.33,16,3.4,26.6,6.05,3.91,1,4.88,2,2.81,5.15-2.25,3.47-.2,5.58,2.19,7.37q10.13,7.6,20.51,14.87c4,2.83,14.92,1.77,17.42-1.41,5.4,2.49,8.68,6.25,10.83,12.22,5.48,15.28,12,30.18,18,44.74,4,8.42,7.5,15.8,14.54,20.93,10.3,7.52,20.78,14.8,31.13,22.25q39.38,28.32,78.71,56.67c10.2,7.31,44.7,32.11,48.53,35.17,1.31,6.47,2.27,12.44,3.82,18.25.51,1.9,2.28,3.73,3.93,5,10.13,7.76,20.39,15.36,30.61,23q22,16.51,44,33c22.78,17,45.63,33.84,68.38,50.85,5.5,4.11,18.09,4.34,24.61.1,1.2-.78,2.38-1.59,4-2.68,3.25,3.89,6.15,7.35,9.29,11.09-4.72,2.42-4.14,5.65-1.45,9.15,3.39,4.41,6.69,8.91,10.2,13.23,1,1.19,2.51,2.5,3.91,2.66,7.26.81,10.33,6.11,13.63,11.58,11.56,19.17,23.34,38.21,35,57.31,1.49,2.45,2.82,5,4.37,7.78,1,2.18-2.3,4.89-5.39,6.85-11.89-10.45-22.94-22.76-34.66-33.07C1236.38,902.32,1239.55,900,1242.34,897.31Zm-145.8-68.88c7.46,10.76,14.72,21.65,22.22,32.37,4.93,7.05,10.18,13.87,15.21,20.84,2.78,3.85,2.25,7.53-1.92,10.43-6.17,4.28-12.49,8.34-19.47,12.91a4.13,4.13,0,0,1-5.76-1.23c-16.63-26-40.34-44.75-64.15-64.55l39.73-30.52C1087.4,815.64,1092.06,822,1096.54,828.43Zm-6.28-21.09c.47-.33,4.94-1.86,8.41,2.89,13.3,15.88,29.08,39.88,39.84,58.85,1.14,2.48.72,6.92,0,7.43C1126.89,859.69,1101.88,824.16,1090.26,807.34Zm-20.83,66.77c11.61,9.55,20.12,21.53,28.39,33.81.32.47-10.56,2.38-11.46,1.88-12.84-7.14-20.36-13.59-32.78-21.38-9.56-6-18.08-13.67-26.8-20.93-1.24-1-2-4.51-1.22-5.75,3.32-5.27,7.3-10.12,11.48-15.7C1048.13,855.69,1058.56,865.17,1069.43,874.11Zm34.14,38.07c4.4,1.71,9.86,1.68,13.32-.69,7.7-5.29,15.43-10.54,22.83-16.22,1.66-1.28,2.39-4.18,2.91-6.48,1-4.29,1.52-8.68,2.12-13a6.32,6.32,0,0,0-.47-2.6c-3.34-10.81-9.79-20-15.52-29.56-4.33-7.21-9.87-13.69-14.75-20.58a76.19,76.19,0,0,1-5.38-8.38c10.77.73,20.35,9.44,25.83,16.12,7.75,9.47,15,22.76,18.23,45.07,1.73,12.1,8.48,21.68,12.06,25.21,4.26,4.2,4.18,7.89,1.63,13.56-3,6.76-23.69,19.32-30.68,21.28s-13.41-3.46-20.08-.15c-.87-.91-25.36-20.08-25.36-20.08C1090.91,916,1099.27,913.94,1103.57,912.18ZM989.21,948.8a104.06,104.06,0,0,0-15.55-9.18,5,5,0,0,0-6.26.81,173.84,173.84,0,0,0-12.47,13.7c-3,3.66-2.22,7,2.32,9s8.47,3.38,10.45,4.81c3.3,1,1.65,6.33-4.69,3.07-16.51-8.51-33.14-16.78-49.78-25q-21-10.4-42.26-20.3l-35.1-15.07-14.62-48.42-3-25.92c-.5-4.54-3.65-5.61-6-5.92-4.44-.61-8.87-1.33-13.32-1.89-5.49-.7-11-1.44-16.48-2h0s-52.9-82.82-53.09-86.67c-.83-17.05-2.2-49,.55-50.05s26.6-6.44,26.6-6.44l0-.08c1.5,2.16,3,4.31,4.56,6.43,12.83,17.56,25.85,35,38.8,52.47q24.55,33.14,49.21,66.22c3,4,6,7.71,9.47,11.5-7.1,4-6.77,4.68-2.51,10.42,1.82,2.45,3.45,5,5.34,7.44,4.74,6,4.78,6,11.27,1.19l20.24,29.13c-4.22,2.6-5,4.3-1.94,9.38a83.1,83.1,0,0,0,5,7.66c2.27,3.09,4.14,4.25,8.71,2.13,2.66-1.24,3.08,2.48,6.72,2.48,12.17,0,23.72-.09,28.85-.16,7.53-.1,10.29,4.78,13.62,9.05,9.61,12.33,18.46,25.25,28,37.64,4.93,6.42,10.43,12.41,16.14,18.94a4.59,4.59,0,0,1,.37,5.53c-3.42,5.18-6.58,10.33-10.45,14.87-5.27,6.18-5.66,5.85-12.89.83,7.58-9.25,13.49-15.87,14.39-16.72C992.64,956.66,992.78,951.23,989.21,948.8ZM862.45,930.13c-5.22,5.69-10.32,11.51-15.47,17.28l-8.24-27.3ZM723.18,743.59c1.77,3.4,47,78.31,49.5,82.22,2,3.12,5.77,6.75,7.11,7.08,4.13,1,6.34,1,10.69,1.73-1.79,3.88-3.34,7.27-5.09,11.09-4.84-1.74-9.58-3.61-14.42-5.14l0,0s-154.29-67-155.94-68.47-23.18-47.43-20.12-49.18,118-28.61,121.32-28.39a6.06,6.06,0,0,1,5.65,6.11C721.3,713.8,720.64,738.73,723.18,743.59Zm169.3,62.9c-11.72-.74-23.45-1.19-36.69-1.79-19.91-27.26-40.82-56-61.88-84.68-8.21-11.16-16.85-22-25.07-33.16-6.81-9.24-13.48-18.6-19.88-28.14-5.56-8.28-9.56-10.83-22.94-13.45-14.65-2.86-62.71-11.82-81.43-14.92-7.79-1.3-12.67-6.31-18.35-10.33-9.12-6.43-14.41-10.9-23.13-17.88-1.21-1-6.71-6.08-6.8-7.51-.58-9.45-1.42-19.32-.3-29.84,1.14-10.81,4.94-12.5,10.62-18.13,3.23-3.19,10.47-9.88,10.68-10.28,36.1,17.8,119.36,57.79,129.57,62.37l31.72,23.68c-.16.29-.31.59-.46.9-2.26,4.89-4.85,9.65.6,14,1,.84,4.71,2.52,13.51-1.39L866.9,717.5h0c1.37,1.52,2.78,3,4.13,4.53,8.53,9.63,17.12,19.22,25.57,28.92q9.89,11.34,19.72,22.74h0Zm-115-260.89c5.95-.32,11.83,1.71,14.64,5.57,11.24,15.48,26.7,26.39,40.48,39.21-15.64,9.2-31.47,17.83-39.13,37.11,0,0-5.06-5.74-5.58-6.13-16.38-12.16-38.78-28.54-38.78-28.54a28.72,28.72,0,0,0-6.78-3.28c-11.71-4.38-12.94-11.13-3.41-19.23.68-.58,1.34-1.18,2.21-1.95,8.3,6.88,16.6,5.35,24.81,0,2-1.28,3.76-2.81,5.72-4.1C780.77,558.23,781.55,556,777.46,545.6Zm51.13,120.51-30.08-33.05c-.49-.62,1.25-4.22,1.81-5.57,1.91-4.54,8.89-13.88,16.33-19.27l0,0c.94-.61,1.88-1.23,2.81-1.86,10.4-7.07,16-11.1,25.74-4,9.1,6.66,13.82,11.07,27.23,22a90,90,0,0,0-14.66,9.45c-5.58,4.48-11.16,9-15.67,14.54-3.8,4.69-7.92,9.72-10,12.55C831.47,661.65,829.54,664.42,828.59,666.11ZM719,461.93c-8.75-9.48-11.52-9.2-7.88-21.16,2.13,2.41,4.12,4.24,12.45,9.76,3.21,2.14,5.61,3,10.37,5.35Zm65.13-17.17c-1.46-1.36-4.67-1.58-7.72-1.69.45-4.49.93-9.41,1.28-13,4.44-.55,7.7-.25,7.94-1.66a51.05,51.05,0,0,0,.87-13c0-.35-4.63-1.39-6.63-1.5l.36-6.69q16.69,5.33,33.17,10.61c13.85,11.1,43,35.09,43,35.09l42.78,19.56s-.14,6.33-1.79,8.62S836.2,497.47,832,498.2c-2,.34-7-2.55-8.68-3.62-10.64-6.95-19.93-13-30.79-21.1-5-3.71-8-7.07-17.66-8.92l.62-9.84c1.17.63,7.68.78,8.39,0S784.66,446.94,784.13,444.76ZM901,581.61c8.39.68,34.8,3.38,38.27,3.64s87.61,63.7,87.61,63.7c4.84,12.41,6.64,21,11.14,23.35h0c.42.21,73.31,32.62,73.31,32.62,10.33,14.66,17,24.26,17.51,25.23l0,0a11.52,11.52,0,0,0,2.42,4.69c14,17.58,27.81,35.3,41.84,53.16-7.56,1.41-16,.54-19.21,10.37-40.72-30-47-30.52-48.59-43.42-.93-7.73-1.32-15.53-2.33-23.25-.56-4.21-13.18-10.7-16.91-8.9-1.4.68-2.47,2-3.73,3.11l-28.28-20c1.54-10.47.75-12.12-7.92-16.76-5.86-3.13-7.23-2.89-12.19,1.69-30.48-22.41-102.5-74.15-136.87-98.81C897.1,592.09,897.57,581.34,901,581.61Zm6.6-68.86c3.85.62,46.2,17,48.6,19.48s84.86,118.36,86.15,120.33c-1.88.63-4.13,1.23-5.45,1.66-1.41-2.85-2.43-5.81-4.24-8.18-2.43-4.27-85.46-66.26-89.41-67.52s-43.35-4.79-44-4.68C899,573.88,905.59,512.43,907.61,512.75Zm251,209.84c9.86,13.26,19.59,26.15,29.12,39.19,7.85,10.74,15.56,21.59,23.64,32.9,1.85,2.51,3.39,4.68,4.66,6.51l.57.8h0c2.63,3.84,3.91,6,4.1,6.21,7.84,10.38-2,10.27-13.66,10.27-.81-1.25-26.35-36.33-27.49-38.08h0l-4.87-6q-12.18-15.17-24.26-30.4c-4-5.06-7.87-10.23-11.87-15.46ZM1006.35,515.73c13.74,19.54,27.48,39.07,41.42,58.47,11,15.32,22.31,30.45,33.48,45.66,17.23,23.46,34.52,46.89,51.65,70.42,6.55,9,12.73,18.24,19.29,27.66-5.65,1.56-11.25,3.13-16.86,4.65-.34.09-.65.19-1,.3-2-2.77-4.81-6.5-8.12-11l17.76,8.31,8.18-2.27-32.31-14.67c-41.09-55.68-128.23-172.75-128.66-176.38,0-.16-7.73-12.12-7.73-12.31a96,96,0,0,0,16.27-1.32C1003.46,512.7,1004.59,513.22,1006.35,515.73Zm-16.52-23.81s-42.62,16.36-39.32,17.46,19.53,4.86,23.24,5.73c2.81.66,89.24,121.39,131.84,181.67L1067,679.23c-.08-.47-18-26.67-24-35.86,0,0-80.37-114.19-81.17-116.94s-60.25-25.62-60.25-25.62L896,539.86c-4.07-.9-10.51-2.8-22.3-5.64-4.06-1-4.9,4.68-6.14,8.07-1.62,4.44-2.6,12.85,2.16,15.18,3.95,1.94,16.53,6.15,22.68,7.67l-3,21.39s-15.73-11.1-24.27-17.52c-9.13-6.86-12.26-13.89-15.92-22.39-4.75-11-8.85-22.3-13.45-33.38-2.9-7-3.08-6.88,3.83-8.67,8.13-2.11,16.3-4.13,24.34-6.56,0,0,37.14-9,40.62-11.73s3.67-13.75,2.64-16.5S866.58,450.43,862,448.33c-4-1.84-20.83-15.79-29.53-22.47a.94.94,0,0,1,.86-1.64l4.11,1.3q19.43,6.17,38.89,12.17,37.66,11.63,75.33,23.23c5.1,1.58,14.8,4.84,19.55,7.21C974.35,469.71,981.9,481,989.83,491.92ZM961.65,389.29c3.28,10.41,6.21,20.92,9.53,32.33-9.13-2.28-13.34,1-18.1,7a41.13,41.13,0,0,0-4.66,7.15,12.9,12.9,0,0,0-.71,6.41c.35,3.5,1.21,7,1.85,10.43l-2.06.36a4.2,4.2,0,0,1-4.28-4c-1-9.4-2.52-9.3-4.8-10-2.94-.86-3.72-1-4.91-5.89-.68-2.8-2.77-9.29-3.72-12.15-3.87-11.7-6.46-18.55-10.36-30.25-1.37-4.12-.08-5.21,1.65-6.32a58.82,58.82,0,0,1,5.78-3.3c8.89-4.68,14.83-1.57,21.54.46a73.91,73.91,0,0,1,9.27,3.43A8,8,0,0,1,961.65,389.29ZM828.42,299c17.35,10,34.44,20.46,51.51,30.94,7.34,4.51,22,13.8,30.23,19.16a1.3,1.3,0,0,1-1,2.35c-12.56-3.12-25.84-7.37-36.37-14.51-21-14.26-67.26-41.05-73.51-44.5C810.61,287.82,819.56,293.88,828.42,299Zm-127.86,9.27c4.55,1.65,12.19,5.4,14.76,6.41,1.9.74,2.76.93,4.59-.2,10.9-6.77,19.52-11.22,29-17.32,2-1.3,2.38-4,4.29-7.58,5.62-1.51,11.76,3.81,17.86,7.6,25.26,15.71,41.9,25,65,38.79,4.58,3-1.06,4.39-5.87,6.59-4.44,2-14.42,1.55-19.48.78-17.6-2.66-53.93-9.77-73-12.88-12.89-2.1-31.06-12.64-42.87-17ZM802.1,351.48c11.94,1.91,24.64,2.44,35.43-2,1.14-.47,9.2-3.59,10.09-5.71,1.62-3.83-.37-7.48-3.9-9.77-6.17-4-12.43-7.87-18.67-11.77L776.17,291.7c7.51-3.27,12.91,2.19,18.35,5.38,25.66,15,51.53,29.79,76.24,46.27,15,10,32.09,12.55,48.29,18.26,10.4,3.67,21.33,5.84,31.87,9.15,2.1.66,5.73,2.31,3.29,6.42-6-1.68-10.86-3.14-16.84-4.71-1.48-.39-3.33-.8-4.62-.26-6.78,2.81-13.42,6-20.15,8.91-4,1.73-4.49,3.8-2.8,8,5.72,14.26,10.63,28.76,16.07,43.21.42,1.12.85,2.49-1,1.7-47.35-16.2-121.8-34.69-143.2-47.64-13-6.83-68.77-34.12-85.34-41.92-.39-4.32-1.48-14.31-2.16-21.76C731.06,341.91,726,339.32,802.1,351.48Zm-214.4-.72c14.1-.89,28.2-1.8,42.31-2.65a4.86,4.86,0,0,1,2.8.5q31.37,20.7,62.67,41.5c2.38,1.58,5,2.89,7.14,4.74a7,7,0,0,1,2.19,4.35c.29,4.19.77,13.75-.85,34.87a58.61,58.61,0,0,1-1.32,9.11L610,380.48c7.8-1.83,15.64-3.75,23.53-5.48,3.93-.87,6.57-6.39,3.42-8.71-17.67-13-18.13-14.21-30.23-13.38a128.79,128.79,0,0,0-20,2.71c-1.9.44-2.62,4.13-4.13,6.73L567.51,352ZM446.6,386.83c.63-6.14,2-12.29,5.13-17.42,1.78-3,7.51-4.6,11.74-5.28,12-1.93,23.59-5.65,33.79-11.73,7-4.18,15-9.47,15.16-19.95,15.58,2.95,27.67,12.16,40.39,19.89,12,7.26,23.51,15.16,35.11,23,13,8.71,25.7,17.76,38.69,26.44,18.19,12.18,36.55,24.12,54.79,36.23,6.13,4.08,12.78,7.68,18,12.72a267.45,267.45,0,0,1,22,24.51c12.93,15.95,25.39,32.28,38.18,48.35,3.78,4.75,3.26,7.22-1.76,10.4-8.18,5.17-16.25,10.57-24,16.35-5.71,4.26-4.82,10.75-4.36,16.94.11,1.54-.06,3.7-1,4.59-2.89,2.68-4.26,7.5-2.73,11l-136.82-67.7h0c-12.14-8.82-24.4-17.47-36.67-26.1q-28-19.68-56-39.22c-15.43-10.81-30.93-21.53-46.19-32.58a9.92,9.92,0,0,1-3.36-6.77C446.15,402.59,445.8,394.63,446.6,386.83Zm-2.29,38.85c.7-1,3.61-1.89,4.5-1.3,5.21,3.4,10.13,7.25,15.15,11-4.62,1.19-10.1,1.21-13.68,3.83-6.92,5.07-12.82,11.55-19,17.56-3.14,3-2.25,12.24,1.33,14.81s7.09,4.87,10.55,7.42c9.61,7.09,15.25,6.69,23.77-1.83,4.07-4.06,8.11-8.16,12.21-12.19,4.72-4.63,5.6-10.11,3.74-16.23,7.37,5,14.8,9.92,22.08,15.06,15.56,11,31,22.1,46.56,33.09,10.54,7.45,21.18,14.76,33.19,23.12-10.57,1.69-19.6,3.11-28.61,4.59-5,.81-9.9,1.69-14.84,2.6-21,3.88-41.9,8-62.94,11.43-2.7.44-6.28-2-8.91-3.89-14.9-10.66-29.65-21.54-44.43-32.37-6.94-5.1-13.83-10.28-21.21-15.76C417.14,466.36,430.63,446,444.31,425.68ZM370.87,568.05c-.74-5.43-2.05-10.22,1.09-13.93h0c8.28-13.21,26-39.65,34.54-53.31L432,519.26c10,6.62,11.83,13,6.51,10.61-1.6-1-11.23-6.83-12.79-7.7-6.23-3.48-11.56-7.74-15.87-8.41-1.39-.22-31.1,45.49-30.82,47.6,3.79,5.29,64.68,46,74.82,52,2.58,1.55,7.35-.29,11-.95,4.7-.83,9.33-2,14-3.08,1.28,7.89,2.38,8.53,10.13,6.63,3-.72,6-1,9-1.73,6.38-1.58,7.08-3.24,4-9.26l38.45-8c-1.24,7.08-.48,8.27,5.66,7.8a68.61,68.61,0,0,0,12.7-2.27c5.85-1.57,7-3.16,3.46-9.53,6-1.2,12.06-2,17.82-3.77,1.68-.5,3.59-3.57,3.64-5.51a153.14,153.14,0,0,0-.92-17.89c-1-10.58-2.39-24.62-3.52-35.79,5.24-.72,12.37-1.47,21.31-2,.37.2,5.65,2.86,9.19,4.61-4.67,4.6-8.55,6.91-14.3,11.93-7.38,6.44-8.22,16.12-8.29,18.7-.33,12.82-.48,18.23,0,31.05.17,4.7,6.1,9.81,10.62,13.13,11.3,8.32,21,16.8,31.5,24.71-4.37,4.82-73.67,81.81-77,83.46s-24.32-34.42-26.79-39C523.16,672.3,426.94,628,422.37,628c0,0-50.86-38.12-54.59-41.25C380.57,582,371.63,573.73,370.87,568.05ZM257.64,588.74c8.36,5.58,12.46,6.2,21.18.67,8.45-5.36,31.35-19.12,27.87-22l-5.5-5.37,11-6.64c6.69,6.14,13.59,11.94,19.8,18.41,2.29,2.38,3.4,6.2,4.3,9.57,5.14,19.31,10.06,38.68,14.9,57.42-8.14,7.24-16.27,14.49-25.18,22.43l-79.64-61.08Zm11,193.72c-4.08-3.31-7.74-6.33-11.46-9.28-8.05-6.37-16.33-12.47-24.13-19.13-6.22-5.31-5.49-9.28-7.28-28.16,12.3,10.33,23.89,19.76,35.12,29.61C271.26,764.58,269.42,773.58,268.65,782.46Zm35,27.69c-8.46-6.41-17.09-12.61-25.58-19a5.11,5.11,0,0,1-1.89-3c-1.1-8.24-.8-12.37-.8-20.64,0-11.69-8.76-16.43-14.37-20.94Q245.83,734.31,230.76,722c-2.38-1.94-4.58-4.14-7.12-5.85a5.73,5.73,0,0,0-4.39-.8c-.86.28-1.68,2.42-1.54,3.61.74,6.41,3,21.82,3.22,24.82-3.81-3.63-6.45-6.15-9.11-8.66-5.74-5.45-12-10.48-17.06-16.51-2.9-3.45-4.34-8.39-5.6-12.9-1.83-6.54-2.55-13.39-4.39-19.92-1.74-6.16,2.4-9.63,5.54-13.22,6.83-7.83,14.26-15.13,21.37-22.71,1.92-2,3.36-2.63,5.93-.56,11.51,9.25,23.25,18.2,34.85,27.33q16.14,12.7,32.13,25.58c6.75,5.44,13.52,10.89,19.88,16.77a11,11,0,0,1,3.18,7.41C307.26,741.25,304.59,790.57,303.65,810.15Zm21,21.14c-1-.15-1.72-1.89-2.56-2.9-3.28-3.93-6-8.54-9.94-11.65-.77-.62-1.56-1.2-2.33-1.81.82-9.63,2.25-41,2.35-42.9.81-15.43.86-30.94,2.52-46.28.84-7.72-3.9-10.24-8.28-13.83-13.82-11.32-27.56-22.73-41.51-33.88-13.09-10.45-26.41-20.59-39.6-30.9-3-2.34-5.85-4.83-10.59-8.76l28.79-24c15.21,11.24,31.9,23.39,48.38,35.81,10.65,8,20.9,16.58,31.61,24.51,1.58,1.17,5.64,1.28,7,.09,9.63-8.31,18.8-17.17,28.26-25.69,3-2.69,3.51-5.5,2.37-9.22q-6.67-21.79-13-43.68c-1.85-6.3-2.62-9.75-4.73-17.71,6.34,4.57,11.76,8.47,16.82,12.44,17.56,13.8,34.37,24.28,51.55,38.56,3.08,2.56,5.1,7.39,5.88,11.5,2,10.41,3.06,21,4.32,31.55,1,8.07,1.57,16.18,2.5,24.25,1.26,10.92,2.77,21.8,4,32.72,1.12,10,2,20,3.07,30.71-12.58-4.38-49.1-16.93-57.78-19.68-7.25-2.29-9-.46-18.1,6.46-6,4.51-10.54,8.09-16.16,12.88-6.46,5.5-8.09,10.54-7.56,15.28,3,27.33,6.86,55.9,6.86,57.71C333.59,832.39,329.53,832.05,324.64,831.29Zm89-41.65c-9,4-13.6,15.88-12,26.14,1.21,7.91,1.57,12.1,2.36,18.6H346.52c-2.62-20.18-5-38.11-7.53-59.19a9.26,9.26,0,0,1,2.84-7.79c7.39-6.32,15.23-12.11,22.54-18.51,3.16-2.76,6.23-2.62,9.52-1.47,17.67,6.17,35.23,12.63,53,18.59,4.64,1.56,6.09,3.46,6.44,8.69.21,3.07.47,3.91.47,6.42C426.91,784,420.42,786.62,413.64,789.64Zm116.3,65.43c-15.24-6.4-48.78-20.09-50.24-20.72-4.9-2.12-7-5.43-8.23-11.22-1.32-6.31-2.54-9.41-4.11-14.8,11.65,5.08,52.87,21,67.3,26.28C531.62,845.71,530,854.88,529.94,855.07ZM511,820.13c-14.69-6.19-23.47-10.5-38.92-16.72-5.23-2.11-12.12-2.17-18.08-1.8-3.88.25-7.73,1.24-11.4,1.87C436.27,746,431,694.24,423,637.25v0c-.16-1.17,94.9,41.55,97.1,45s27.71,46.28,32.18,43.24,70-72,79.15-83.28c5.74-7.06,12-6.45,19.22-5.07q28.26,5.37,56.54,10.66c8.11,1.52,16.52,2.18,24.22,4.87,4.13,1.44,7.54,6,10.4,9.78,3.5,4.65,6.8,9.44,10.1,14.24l-44.59,11c1.81-2.25,5.49-5.39,4.18-10.08a72.3,72.3,0,0,0-2.78-8.39c-2-5.14-2-5.14-8.9-3.42-3-8-3-8.66-10.52-7.15-2.63.53-6.17,1.36-8.79,1.95-8.88,2-9.34,1.5-7.94,12.23,0,0-7.79,1.55-7.27,3.62.74,2.93,2.23,8.61,3.26,11.47,1.16,3.2,5,6,7.84,7.36l-85.89,21.09a7.52,7.52,0,0,0-5.15,10.21c6.19,14.82,19,45.09,21.92,48.69,3.24,4,169.87,74.83,169.87,74.83s30.13,12,38.87,15.32l12.08,41.94L592.54,806.11h0c-5-10.74-20-37.06-20.63-39.66-.76-3.09-7.5-1.87-9.7,0S511,820.13,511,820.13ZM672.6,672.85c0,.18-.38.37,0,0ZM830.6,981l-33.13-14.16c-15.33-6.57-30.6-13.24-46-19.68-23.92-10-47.93-19.86-71.86-29.86-21.26-8.89-42.42-18-63.7-26.82-25.57-10.6-78.55-32.25-79.41-32.61,3.41-14.31,5-21,5-21s28-11.72,43.18-19.84h0c5.6-2.95,13.26.12,20.43,3.81,5.25,2.7,149.21,63.6,225.78,95.95l10.58,36.71c-2.22,2.36-4.46,4.71-6.57,7.16C830,966.32,829.7,973.18,830.6,981Zm114.59,49.27c-13.65-6.12-29.16-11.72-43.76-18-17.93-7.67-34.93-15-52.95-22.4-3.64-1.51-4-1.83-7.57-3.5-.81-.38-4.91-1.61-5-2.52-.73-7.37,0-14.13,5.49-20.1,7.79-8.52,15-17.55,22.3-26.52,2.45-3,3.92-4.24,6.4-3.86l7.67,3.24c16.83,8.78,33.87,17.13,50.78,25.75,14.77,7.53,29.47,15.19,45.11,23.26-3.62,4.41-6.9,8.48-10.26,12.49-4.18,5-9.37,9.41-12.37,15S947.16,1023.34,945.19,1030.22Zm231.75,18.68c4.1,5.86,7.93,11.91,12.07,18.16-5.49,5.21-11.17,10.27-16.48,15.7-6.56,6.73-4,9.54-6.15,10.5-8,3.52-31-.36-76.12-7.2a175.53,175.53,0,0,1-41.71-12.31c-21.74-9.72-43.88-18.56-65.85-27.8-8.42-3.54-28.73-11.53-28.75-12.08-.21-6,.3-13.28,3.1-17.73,5.91-9.4,13.62-17.75,21.3-25.87,1.8-1.91,5.34-1.66,8.64.54,13.31,7.38,18.18,3.25,24.55,6.46s16.6,8.39,17,9.45a11.07,11.07,0,0,1,.83,4.26,36.69,36.69,0,0,0-11.12-1.43c-6.46,0-14,4.14-16.06,10.17-1.51,4.34-3.38,9.66-2.11,13.58,1.56,4.81,5.42,10.09,9.77,12.44s10.69,2.46,15.76,1.48c9.23-1.78,15.79-11.63,15.8-21.43a12.8,12.8,0,0,0-2.3-6.61c8.5,3.08,82.58,34.08,91.53,37.19a4.18,4.18,0,0,0,3,.11c5.47-3.41,10.94-6.85,16.12-10.68.89-.66,1.15-4,.36-4.81-8.57-9.31-28.52-30.2-37.21-38.73,3.18-2.51,4.35-3.49,6.63-5.23a7.39,7.39,0,0,0,.79-11.37q-26.83-26.91-53.69-53.78c-3.47-3.48-6.78-2.22-12.06,2.38-8.59,7.45-11.93,10.72-19.94,17.6-6.39,5.48-6.71,7.76-2.44,11.75,14.17,13.24,28.18,26.67,42.29,40,4.42,4.17,8.92,8.25,13.42,12.32,2.66,2.4,4.75,3.33,8.32.27,4.35-3.73,6.76-5.32,10.7-8.31,11,11.48,22.68,22.17,34,34-3,2-5.38,3.86-8,5.42a10,10,0,0,1-4.7.4c-7.68-3-22.28-9.12-22.28-9.12s-55-23.66-61.74-26.35c-4.56-1.82-5.8-3.83-7.45-9.22-.36-1.17-3.89-3.57-8.86-6-3.69-1.84-7.72-4-11.55-5.41h0c-3.26-1.39-10.83-2.12-14.95-2.43a20.06,20.06,0,0,1-6.69-1.66c-2.52-1.14-3.57-1.84-6.18-3.29a203.3,203.3,0,0,0,17.29-25.58c.62-1.07.06-3.34-.77-4.42-17.93-23.24-36.13-46.27-53.91-69.62-6.61-8.7-12.09-18.24-18.46-27.14-6.48-9.07-13.4-17.81-20.14-26.69-4.86-6.4-9.7-12.8-14.62-19.14l23.08-32.41q9.1,10.5,18.26,20.94c2.34,2.66,3,4.69,1.19,8-2.31,4.09-2.09,7.92,1.69,11.73,6.13,6.16,11.43,13.13,17.49,19.37,6.37,6.55,13.23,7.89,18.93,2.4,4.39-4.23,5.89-1.69,8.49.93,4.89,5,10,9.68,14.92,14.58,3.88,3.89,10.34,3.06,13.37.08,6.6-5.95,14.06-17.94,14.27-19.58.29-2.26,3-8.51-12.37-13-10.4-3-20.67-6.66-31.12-9.6-.93-.27-4.23.51-6,2.26-2.41,2.41-3.11,3.51-6.63,9.6-2.69,4.9-3.25,8.37-2.55,10a2.76,2.76,0,0,1-4.06-.34c-6.57-7-13-14.16-19.25-21.47-1-1.21-2.9-3.73-1.17-5.24.83-.43,4.5-6.19,0-11.07-11.49-12.58-22.56-25.53-33.84-38.29-6.5-7.34-13.1-14.57-19.54-22-8.8-10.09-17.42-20.32-26.32-30.31h0l-33.78-37.12a4.76,4.76,0,0,0,.64-.81c4.3-6.87,12.2-15.92,17.66-21.8a96.75,96.75,0,0,1,18-14.93c5.58-3.73,11.92-3.68,16.57.64,7.88,6.35,40.61,32.07,58.37,45.6,18,13.73,34.09,27.14,51.91,41.13,13.49,10.6,26.52,21.8,39.61,32.89,7.06,6,34.07,28.33,39.7,33.7,5.91,5.63,9.72,8.61,10.64,10.9-7.5,5.84-19,13.81-27.17,20.52-8,6.54-13.77,10.18-23.45,20.16-2.28,3-12.49,15.95-15.75,20.12-3.62,4.63-.36,10.65,3.31,14.18,3.95,3.81,21.48,17,28.09,20.92,5.22,3.1,44.7,33.22,60.2,46.11,8.11,6.74,7,12.3,8.09,20.66.85,6.37,4,11.24,7.59,16.26,7.22,10,13.89,20.5,21,30.65C1157.6,1021.68,1167.37,1035.22,1176.94,1048.9Zm-83.06-64.39c-4.73-4.52-38.49-34.36-43.53-38.52a1.75,1.75,0,0,0-.58-.29c3.21-2.94,7.78-6.86,11-9.83,19.45,18,37,36.6,56.38,54.56l-9.18,8C1103.32,993.82,1098.67,989.09,1093.88,984.51Zm8.27,18.44c-9.23,6.9-7.33,10.56-18.58-.1-14.65-13.88-29.56-27.49-44.39-41.17-2-1.89-3-3.58-.51-5.86l6.77-6.17C1057.57,959.63,1093.92,993.71,1102.15,1003ZM984.44,820.9c5.06,2.12,31.09,11.11,39.62,14.46-2,3-9.1,12.74-11.93,17.07-.85,1.31-2.36,2.35-4.24.42-4.11-3.77-19-16.83-28.09-25.84C978.22,824.87,983.33,820.44,984.44,820.9Zm301,164.13c-.77.55-2.12.33-3.21.37a32.63,32.63,0,0,1-5.93,0,11.3,11.3,0,0,1-4.94-1.74c-10-7.29-19.93-14.77-29.94-22.11-9.27-6.79-18.71-13.37-27.9-20.26-4.73-3.55-9.88-7.11-14.44-10.89a15.31,15.31,0,0,0-5.09-3,11,11,0,0,0-4.49-.22l.71,5.9-3.51,3.44c-3.51-1.73-6.63-4.09-10.07-4.76-4.53-.88-7.55,2.46-7.52,7,0,4.91,11.5,20,16.12,21.82,3.54,1.38,5.74.09,8.06-2.35,1.22-1.29.66,2.28,1.45,6.86.36,2.11-5.21,5.38-8.28,7.91-11.54,9.53-23.15,19-34.86,28.55-7.93-11.25-16.56-22.35-23.78-34.3-2.88-4.76-3.18-11.34-3.66-17.18a17.41,17.41,0,0,0-1.56-6.83l-1.07-1.61s9.81,3.44,16.57.69c0,0,20.83-8.66,30.85-19.95,3-4,3.66-6,5.1-10.39,13.34,1.54,22.91,9.89,32.88,17.37,6.37,4.77,62.57,43.94,78.77,55.52Zm5.51-3.93c-12.41-9.41-68.84-48.36-73.21-51.65-7.46-5.61-15-11.12-22.72-16.39a38.77,38.77,0,0,0-9.52-4.6c-12-4-19.07-13-23.4-24.17-3.09-7.95-5-16.37-6.59-25.09,2.82,3.18,5.47,6.53,8.49,9.5,9.45,9.25,19,18.36,28.59,27.5,6.85,6.55,13.68,13.13,20.72,19.48a4.9,4.9,0,0,0,4.52.45c3.25-1.87,6.17-4.32,10.14-7.2,6.06,6.29,12.15,12.68,18.33,19,5.52,5.62,11.22,11.08,16.68,16.75,3.29,3.42,6.23,3.23,9.24-.19,2.63-3,5.94-5.66,7.62-9.12,1-2.13.38-5.94-.92-8.19-7.36-12.73-15.21-25.18-22.77-37.81-4.41-7.38-8.67-14.86-13.08-22.5a24.49,24.49,0,0,0,7.45,1.38c3.31.1,7.38-2.78,9-5.93q9.92,13.58,19.63,27.28c3,4.28,4.62,9.65,6.47,14.66,7.81,21.14,15.47,42.33,23.32,63.87C1303,972.46,1297,976.8,1291,981.1Z"/></g><g id="Thrusters"><path d="M378.54,767.63c-3.41-.89-12.41-.64-16.39,4.44-.9,1.14-1.42,2.2-1.42,5.55,0,6.65,6.68,10.3,7.85,10.47,6.35,1,12.75-1.3,16.12-5.63C388.82,777.14,386.14,769.6,378.54,767.63Zm647.89,249.69a23.11,23.11,0,0,0-12.26-.22c-3.78,1.17-8.32,8.43-6.59,14.27a14.56,14.56,0,0,0,6.94,6.29c7.42,2.26,9.74.36,15.33-6.54,2.33-2.88,1.16-7.56.74-9A8.26,8.26,0,0,0,1026.43,1017.32Zm218.46-167.5c-5.1-1.25-7,1-7,1.87-.07,3.37,3.58,8.11,7.57,9.42,2.4,1,6.39.82,6.39-4.4C1252.47,853.35,1248.43,850.69,1244.89,849.82ZM937.26,387.69c-2.15-.07-4.66,1.71-5.27,5.09-.35,2.62.6,6,4.4,8.39,2.75,1.74,8.3-1.37,7.67-7.29C943.59,389.44,941.58,387.85,937.26,387.69Z" fill="#007aff"/></g></g></svg>