<svg xmlns="http://www.w3.org/2000/svg" viewBox="0 0 1500 1500"><title>Viper Mk IV</title><g id="Viper_Mk_IV" data-name="Viper Mk IV"><g id="Colour"><path d="M1279.83,961.75c-12.34-19.58-23.94-39.62-36.19-59.26-2.71-4.33-7.63-7.28-10.36-11.61-7-11.07-13.23-22.6-19.88-33.88q-20.65-35-41.41-69.92-18.36-31.05-36.63-62.15c-3.48-6-7.81-11.36-5.24-19.56,2.1-6.71-.66-13.26-4.89-19.28-6.39-9.09-12-18.7-17.91-28.14-18-28.94-35.83-58-54-86.78a35.81,35.81,0,0,0-10.82-11c-9.1-5.69-18.79-10.43-28.26-15.52-19.58-10.5-39.12-21.08-58.8-31.38-4.18-2.2-8.8-4.31-13.39-4.81-7.84-.85-15.42.86-21,7,0-5.69,1-11.45-.21-16.69-2.46-10.56-6.08-20.87-9.37-31.24-.63-2-10.33-20.42-15.16-21.83-14-4.1-25.81-12.41-37.52-20.55-13.73-9.54-26.56-20.37-40.26-29.94-9.83-6.87-20.39-12.71-30.73-18.83-13.86-8.19-26-19.82-43.31-21.07-5.76-.42-11.9-5-16.8,2.19-.66,1-3,.89-4.54,1.18-1.94.36-3.91.54-5.84.91-9.86,1.88-19.69,3.9-29.56,5.67-10.77,1.93-21.59,3.59-32.37,5.45-10.43,1.8-20.83,3.8-31.27,5.55-11.68,2-23.4,3.73-35.08,5.68-3,.5-6.33.72-8.8,2.22-4.43,2.69-8,6.83-12.53,9.31-4.75,2.6-9.59,5.67-15.86,3.94-2.38-.66-5.67.65-8.14,1.88a170.56,170.56,0,0,0-17.4,9.67c-7.31,4.76-14.5,7.92-22.81,2.51a14.59,14.59,0,0,0-3.41-1.61c-8.31-2.7-10.09-1.9-11.77,6.25-1.41,6.85-5.73,10-10.84,12.93-11.84,6.7-25.25,8.63-38.09,12.32-2.6.74-5.77,3-6.68,5.37-2,5.28-2.65,11.09-4.21,16.58-.6,2.13-1.72,4.65-3.41,5.86-6.27,4.48-13,8.31-19.28,12.79-1.73,1.23-3.49,3.93-3.4,5.86.18,3.76-1.64,5.5-4.31,7.23-7.23,4.68-15.26,8.54-21.4,14.38-11.54,10.95-22.11,22.95-32.85,34.73-16.63,18.25-33.08,36.66-49.59,55-5.82,6.47-11.45,13.11-17.38,19.49s-11.68,13-20.74,15.06c-3.76.86-7.91,1.08-11.15,2.9-8.76,4.9-17.28,10.27-25.55,16-2.21,1.52-2.84,5.16-4.81,7.24-3.48,3.68-7.57,6.78-11.15,10.38-2.7,2.71-2.24,5.68.75,7.95,2.8,2.14,5.82,4,8.71,5.94a7.59,7.59,0,0,1-.45,1.18c-3.7,6.3-7.8,12.41-11,19-4.23,8.62-7.79,17.57-11.59,26.4-.49,1.13-1.19,2.45-1,3.55,1.59,9.17,3.28,18.32,5.13,27.44.56,2.75,1,6.07,2.74,7.93,8,8.47,16.25,16.83,24.95,24.62s18.1,14.89,27.2,22.28q14.27,11.61,28.54,23.21c10.49,8.56,20.91,17.22,31.44,25.72,2.38,1.91,10.09,12.81,15.24,13.47a238.61,238.61,0,0,0,24.28,2.24c14.47.36,29-.06,43.44.18,6.8.11,13.32.07,18.84-4.72,1.12-1,2.77-1.33,4.27-2,.9,11.7,1.62,22.9,2.72,34.08a58.13,58.13,0,0,0,2.66,13.15c8.47,24.67,17.26,49.22,25.76,73.88,2.21,6.44,5.57,11.81,12.11,14.13,7.34,2.62,14.89,4.64,22.38,6.82q51,14.86,102.05,29.68c10.64,3.11,21.17,6.58,31.8,9.71,8.91,2.63,18,4.71,26.81,7.57,12.79,4.15,25.34,8.66,39.19,4.76a32.24,32.24,0,0,1,20.45.53c8.34,3,17.17,4.78,25.81,7,15.25,3.85,30.58,7.41,45.78,11.45,23.67,6.3,47.21,13.1,70.9,19.31,18.33,4.79,36.86,8.82,55.21,13.52,17.66,4.52,35.28,9.23,52.77,14.38,4.89,1.44,11.5,1.13,13.24,8.19.13.54,1,1.09,1.68,1.28,4.12,1.21,8.29,2.25,12.4,3.47,16,4.74,31.93,9.35,47.79,14.36,8.81,2.79,17.31,6.58,26.15,9.21,2.36.7,6.08-.43,8.17-2,11-8.44,63.06-54.18,70.44-60.46,1.54-1.31,3.28-3.36,3.4-5.17.39-6,1.51-12.41-4.91-16.75-2.3-1.55-3.91-4.25-5.55-6.62-10.68-15.48-21.29-31-32-46.65l43.28-36.19c4.78,2.53,9.83,4.88,14.55,7.77,16.64,10.19,22.57,13.84,39.81,22.35,8.52,4.21,13.35,5.6,25.33,8.21a5.2,5.2,0,0,0,2-.8c6.38-6,49.06-41.19,62-53.2a10.44,10.44,0,0,0,2.9-5C1283.2,971.32,1282.94,966.69,1279.83,961.75ZM379.44,586.89a44.68,44.68,0,0,1-2.84,5.61c-5.48,8.6-11.27,17-16.56,25.72a12.53,12.53,0,0,0-1.33,7.47c.06.53.14,1,.23,1.58.27,1.57.65,3.14,1,4.7.53,2.08,1.07,4.16,1.39,6.27a3.73,3.73,0,0,1,0,1.2c0,.21-.09.42-.14.62-.29,1-.8,2.12-1.08,3.16l-.56-.18c-.74-.22-1.53-.39-2.25-.64a6.82,6.82,0,0,1-1-.45,3.64,3.64,0,0,1-.46-.3c-5.84-4.38-11.55-8.95-17.43-13.55q20.66-21.71,41.3-43.36l.65.25C380,585.62,379.74,586.26,379.44,586.89ZM655.16,418.51c-1.46,9.62-4.45,12-13.29,11.8-6.87-.19-13.77,1-20.64.83-3.45-.07-6.86-1.74-10.28-2.68l.12-2.43c7.66-2.87,13.07-10.17,22.83-9.35,4.61.38,9.5-2.55,14.27-4S655.88,413.75,655.16,418.51Z" fill="#333"/><path d="M1279.83,961.75c-12.34-19.58-23.94-39.62-36.19-59.26-2.71-4.33-7.63-7.28-10.36-11.61-7-11.07-13.23-22.6-19.88-33.88q-20.65-35-41.41-69.92-18.36-31.05-36.63-62.15c-3.48-6-7.81-11.36-5.24-19.56,2.1-6.71-.66-13.26-4.89-19.28-6.39-9.09-12-18.7-17.91-28.14-18-28.94-35.83-58-54-86.78a35.81,35.81,0,0,0-10.82-11c-9.1-5.69-18.79-10.43-28.26-15.52-19.58-10.5-39.12-21.08-58.8-31.38-4.18-2.2-8.8-4.31-13.39-4.81-7.84-.85-15.42.86-21,7,0-5.69,1-11.45-.21-16.69-2.46-10.56-6.08-20.87-9.37-31.24-.63-2-10.33-20.42-15.16-21.83-14-4.1-25.81-12.41-37.52-20.55-13.73-9.54-26.56-20.37-40.26-29.94-9.83-6.87-20.39-12.71-30.73-18.83-13.86-8.19-26-19.82-43.31-21.07-5.76-.42-11.9-5-16.8,2.19-.66,1-3,.89-4.54,1.18-1.94.36-3.91.54-5.84.91-9.86,1.88-19.69,3.9-29.56,5.67-10.77,1.93-21.59,3.59-32.37,5.45-10.43,1.8-20.83,3.8-31.27,5.55-11.68,2-23.4,3.73-35.08,5.68-3,.5-6.33.72-8.8,2.22-4.43,2.69-8,6.83-12.53,9.31-4.75,2.6-9.59,5.67-15.86,3.94-2.38-.66-5.67.65-8.14,1.88a170.56,170.56,0,0,0-17.4,9.67c-7.31,4.76-14.5,7.92-22.81,2.51a14.59,14.59,0,0,0-3.41-1.61c-8.31-2.7-10.09-1.9-11.77,6.25-1.41,6.85-5.73,10-10.84,12.93-11.84,6.7-25.25,8.63-38.09,12.32-2.6.74-5.77,3-6.68,5.37-2,5.28-2.65,11.09-4.21,16.58-.6,2.13-1.72,4.65-3.41,5.86-6.27,4.48-13,8.31-19.28,12.79-1.73,1.23-3.49,3.93-3.4,5.86.18,3.76-1.64,5.5-4.31,7.23-7.23,4.68-15.26,8.54-21.4,14.38-11.54,10.95-22.11,22.95-32.85,34.73-16.63,18.25-33.08,36.66-49.59,55-5.82,6.47-11.45,13.11-17.38,19.49s-11.68,13-20.74,15.06c-3.76.86-7.91,1.08-11.15,2.9-8.76,4.9-17.28,10.27-25.55,16-2.21,1.52-2.84,5.16-4.81,7.24-3.48,3.68-7.57,6.78-11.15,10.38-2.7,2.71-2.24,5.68.75,7.95,2.8,2.14,5.82,4,8.71,5.94a7.59,7.59,0,0,1-.45,1.18c-3.7,6.3-7.8,12.41-11,19-4.23,8.62-7.79,17.57-11.59,26.4-.49,1.13-1.19,2.45-1,3.55,1.59,9.17,3.28,18.32,5.13,27.44.56,2.75,1,6.07,2.74,7.93,8,8.47,16.25,16.83,24.95,24.62s18.1,14.89,27.2,22.28q14.27,11.61,28.54,23.21c10.49,8.56,20.91,17.22,31.44,25.72,2.38,1.91,10.09,12.81,15.24,13.47a238.61,238.61,0,0,0,24.28,2.24c14.47.36,29-.06,43.44.18,6.8.11,13.32.07,18.84-4.72,1.12-1,2.77-1.33,4.27-2,.9,11.7,1.62,22.9,2.72,34.08a58.13,58.13,0,0,0,2.66,13.15c8.47,24.67,17.26,49.22,25.76,73.88,2.21,6.44,5.57,11.81,12.11,14.13,7.34,2.62,14.89,4.64,22.38,6.82q51,14.86,102.05,29.68c10.64,3.11,21.17,6.58,31.8,9.71,8.91,2.63,18,4.71,26.81,7.57,12.79,4.15,25.34,8.66,39.19,4.76a32.24,32.24,0,0,1,20.45.53c8.34,3,17.17,4.78,25.81,7,15.25,3.85,30.58,7.41,45.78,11.45,23.67,6.3,47.21,13.1,70.9,19.31,18.33,4.79,36.86,8.82,55.21,13.52,17.66,4.52,35.28,9.23,52.77,14.38,4.89,1.44,11.5,1.13,13.24,8.19.13.54,1,1.09,1.68,1.28,4.12,1.21,8.29,2.25,12.4,3.47,16,4.74,31.93,9.35,47.79,14.36,8.81,2.79,17.31,6.58,26.15,9.21,2.36.7,6.08-.43,8.17-2,11-8.44,63.06-54.18,70.44-60.46,1.54-1.31,3.28-3.36,3.4-5.17.39-6,1.51-12.41-4.91-16.75-2.3-1.55-3.91-4.25-5.55-6.62-10.68-15.48-21.29-31-32-46.65l43.28-36.19c4.78,2.53,9.83,4.88,14.55,7.77,16.64,10.19,22.57,13.84,39.81,22.35,8.52,4.21,13.35,5.6,25.33,8.21a5.2,5.2,0,0,0,2-.8c6.38-6,49.06-41.19,62-53.2a10.44,10.44,0,0,0,2.9-5C1283.2,971.32,1282.94,966.69,1279.83,961.75ZM379.44,586.89a44.68,44.68,0,0,1-2.84,5.61c-5.48,8.6-11.27,17-16.56,25.72a12.53,12.53,0,0,0-1.33,7.47c.06.53.14,1,.23,1.58.27,1.57.65,3.14,1,4.7.53,2.08,1.07,4.16,1.39,6.27a3.73,3.73,0,0,1,0,1.2c0,.21-.09.42-.14.62-.29,1-.8,2.12-1.08,3.16l-.56-.18c-.74-.22-1.53-.39-2.25-.64a6.82,6.82,0,0,1-1-.45,3.64,3.64,0,0,1-.46-.3c-5.84-4.38-11.55-8.95-17.43-13.55q20.66-21.71,41.3-43.36l.65.25C380,585.62,379.74,586.26,379.44,586.89ZM655.16,418.51c-1.46,9.62-4.45,12-13.29,11.8-6.87-.19-13.77,1-20.64.83-3.45-.07-6.86-1.74-10.28-2.68l.12-2.43c7.66-2.87,13.07-10.17,22.83-9.35,4.61.38,9.5-2.55,14.27-4S655.88,413.75,655.16,418.51Z" fill="none" stroke="#000" stroke-linejoin="round" stroke-width="8"/></g><g id="Paint"><path d="M876.86,990.46l-59.62-135.4L598.34,732.11v34.61L801.85,881l60.23,143.92,119,48.47,15.81-6.65,34.81,11,22-6.79-86.19-35.65Zm305.35-82.08V894.7l-92-112.25L982.11,735,860.26,589.78l-30.47-13.6L967.55,744l110.39,47.41,82.57,98.93,32.57,56.56,1.46-16.53ZM436.13,446l-2.4,18.58,10.39-3.47,22.77,18.48,20.91,17.28L473.92,505l82.51,54.72-6.75-38.63Zm58.9-36,8.61,19.21,92,62.41,37.15,9.62ZM450.1,545.92l9.38,6.14h34.06l-26.37-19.51Zm159.26-93-5.3.58L588.4,458l29.92,19.07ZM750.5,892.33l7.58,35.7,51.33,23.56-11-37.08Zm286.69-144.24-22.66-31.43-29.45-11.39L1009.27,737Z" fill="#c9a611"/></g><g id="Canopy"><path d="M1070.5,868.28c-.68-2.88-25.08-14.88-27.83-16.95s-17.5-1.5-20.5-1.5-31.17,23-33.5,25.17-5.5,9-5.5,9l-9.67-9s-32-11.5-35.83-12.86-5.84.19-8,2.5l-1-.51c.16,5.3,19.83,23.7,23.14,27.54s5.86,6.66,9.19,6,9.33-.13,9.17,1.24-5.84,2.63,11,18.47,49,29.49,55.66,30.49,23.34-3.33,30.84-8.83,9-9.33,11.75-28.13S1071.18,871.17,1070.5,868.28Z" fill="#82b3d1"/></g><g id="Shadows" opacity="0.2"><path d="M413.62,868.62l1.66,6.35L418,909.05l.95.45L417,867.19Zm-6.86-26.25-68.37-6.59-76.83-60.29s-22.58-37.91-10.09-85.1S359.11,535.46,359.11,535.46L251.47,647.41l-25.85,26.34-35.41,57.31L197.09,770l127.36,109.3,59.2,1.92,30-12.58,0-.07Zm651.13,299.83-90.34-24.48v-9.47L724.38,1036l-24.29,8.6L419,909.5l.35,7.84,30.8,86.94L662.36,1071l31.81-3.41,266.07,69.64L979,1147.84l73.94,23.57,78.6-62.49-7.27-20.57ZM328.48,629.71l-42.3,42.46-12.67,25.67,5.63,36.74L450.76,539.09c20.26,14.39,100.11,65.14,108.33,67.37,9.33,2.52,120.47,61.27,138,81.67S912.1,933,964,954s96.14,5.58,91.55-7.11-19.61-40.11-35.25-52.38-264.5-222.36-264.5-222.36l-55.73-42.59L637,559.76,446.12,442.54l-6.4-.75-16.26,30.65,36,42.3-43.86,27.57-18.75,18.81L363.28,614l-7.46,27.67ZM793.63,403.17l-34.87-19.24-99.43,19.24-1.66,28-35.93,4.77L603,422.16,564.91,449.7l16.84,14.91ZM1266.81,954s-49.72,49.58-56.68,50.26-72.64-48.88-72.64-48.88l-13.22-3.81-12.73,3.81-12.42,72.08,38.37-33.7,72.64,33.7,63.33-45.15,6.7-20.15Z" fill="#111"/></g><g id="Outline"><path d="M1280.16,962.18c-12.33-19.58-23.94-39.62-36.19-59.26-2.7-4.33-7.62-7.28-10.35-11.61-7-11.07-13.23-22.6-19.89-33.88q-20.64-35-41.4-69.92-18.36-31.05-36.63-62.15c-3.49-6-7.82-11.35-5.24-19.56,2.1-6.71-.66-13.26-4.89-19.28-6.39-9.08-12-18.7-17.92-28.14-18-28.94-35.82-58-54-86.78a35.73,35.73,0,0,0-10.83-11c-9.09-5.69-18.79-10.43-28.26-15.51C995,534.62,975.42,524,955.74,513.74c-4.19-2.2-8.8-4.31-13.39-4.81-7.85-.85-15.42.86-21,7,0-5.69,1-11.45-.21-16.68-2.47-10.57-6.08-20.88-9.37-31.25-.63-2-10.33-20.42-15.17-21.83-14-4.1-25.8-12.41-37.52-20.55-13.72-9.54-26.55-20.37-40.25-29.94-9.83-6.87-20.39-12.71-30.74-18.83-13.85-8.19-26-19.82-43.3-21.07-5.76-.42-11.91-5-16.8,2.19-.66,1-3,.89-4.54,1.18-1.94.36-3.91.54-5.84.91-9.86,1.88-19.69,3.9-29.57,5.67-10.77,1.93-21.58,3.59-32.37,5.45-10.43,1.81-20.82,3.8-31.26,5.56-11.68,2-23.4,3.72-35.08,5.67-3,.5-6.33.72-8.8,2.22-4.43,2.69-8,6.84-12.53,9.31-4.76,2.6-9.59,5.67-15.86,3.94-2.39-.66-5.67.65-8.14,1.88a170.71,170.71,0,0,0-17.41,9.67c-7.31,4.76-14.49,7.92-22.8,2.51a14.78,14.78,0,0,0-3.41-1.61c-8.31-2.7-10.1-1.9-11.77,6.25-1.42,6.85-5.74,10-10.85,12.93-11.83,6.7-25.24,8.63-38.09,12.32-2.59.74-5.77,3-6.67,5.37-2,5.28-2.65,11.09-4.21,16.58-.61,2.13-1.72,4.65-3.41,5.86-6.28,4.48-13,8.31-19.29,12.79-1.72,1.23-3.48,3.93-3.39,5.86.18,3.76-1.64,5.5-4.32,7.23-7.22,4.68-15.25,8.54-21.4,14.38-11.54,10.95-22.1,22.95-32.84,34.73-16.64,18.25-33.09,36.66-49.59,55-5.82,6.47-11.46,13.11-17.39,19.49s-11.67,13-20.73,15.06c-3.76.86-7.91,1.09-11.15,2.9-8.76,4.9-17.28,10.27-25.55,16-2.21,1.51-2.84,5.15-4.81,7.23-3.48,3.68-7.58,6.78-11.15,10.38-2.7,2.72-2.24,5.68.74,8,2.8,2.14,5.82,4,8.72,5.95a8.56,8.56,0,0,1-.45,1.17c-3.7,6.3-7.8,12.41-11,19-4.24,8.61-7.79,17.56-11.6,26.39-.49,1.13-1.18,2.45-1,3.55,1.59,9.17,3.27,18.32,5.13,27.44.55,2.75,1,6.08,2.74,7.93,8,8.47,16.24,16.83,24.94,24.62s18.11,14.89,27.21,22.28q14.26,11.61,28.54,23.21c10.49,8.56,20.9,17.22,31.44,25.72,2.38,1.91,10.09,12.81,15.23,13.47a239.09,239.09,0,0,0,24.29,2.25c14.47.35,29-.07,43.44.17,6.8.11,13.31.07,18.84-4.72,1.12-1,2.77-1.33,4.26-2,.91,11.7,1.63,22.91,2.72,34.08a58.7,58.7,0,0,0,2.67,13.15c8.47,24.67,17.26,49.23,25.75,73.89,2.22,6.43,5.58,11.8,12.12,14.12,7.34,2.62,14.89,4.64,22.38,6.83q51,14.85,102.05,29.67c10.64,3.11,21.17,6.58,31.8,9.72,8.91,2.62,18,4.7,26.81,7.56,12.79,4.16,25.34,8.66,39.19,4.76a32.24,32.24,0,0,1,20.45.53c8.34,3,17.17,4.78,25.81,7,15.25,3.85,30.58,7.41,45.78,11.45,23.67,6.3,47.21,13.1,70.9,19.31,18.33,4.79,36.85,8.82,55.21,13.52,17.66,4.52,35.28,9.23,52.76,14.38,4.9,1.44,11.51,1.13,13.25,8.19.13.54,1,1.09,1.68,1.28,4.12,1.21,8.29,2.25,12.4,3.47,15.94,4.74,31.93,9.35,47.79,14.36,8.81,2.79,17.3,6.58,26.15,9.21,2.36.7,6.07-.43,8.16-2,11-8.44,63.06-54.18,70.44-60.46,1.54-1.31,3.29-3.36,3.41-5.17.39-6,1.5-12.41-4.92-16.75-2.29-1.55-3.91-4.24-5.54-6.62-10.69-15.48-21.29-31-32-46.65l43.29-36.19c4.78,2.53,9.83,4.88,14.55,7.77,16.63,10.19,33.93,23.16,65.14,30.56a5.25,5.25,0,0,0,2-.8c6.38-6,49.06-41.19,62-53.19a10.36,10.36,0,0,0,2.9-5C1283.54,971.75,1283.27,967.12,1280.16,962.18Zm-68.62-87.52c2.32,5.52,6,10.48,9,15.62-8.18.62-9.23-3-20.88-21.47C1205.32,867.36,1209.06,868.76,1211.54,874.66Zm-24.28-41.35c5.5,9.16,10.86,18.42,16.23,27.62-10.84,4.56-13.23-4.87-17.62-10.11-4.68-5.59-8.39-12-13-18.69,4.07,0,7.8-.07,11.53,0C1185.41,832.22,1186.84,832.6,1187.26,833.31Zm-11.51-20c2.41,3.7,4.29,7.76,6.46,11.74-.76.26-.91.34-1.08.37-8.5,1.25-14.19-.74-19.73-9-5.31-7.92-10.18-14.6-15.4-21.84-.91-1.07,3.61-1,4.63-1.06C1168.42,793.13,1169.61,803.91,1175.75,813.31Zm-33.63-57.13c6,10.33,11.94,20.7,18.39,31.93-6.52,0-12.23.06-17.94-.07a3.89,3.89,0,0,1-2.72-1.39c-7.13-10.08-14.16-20.22-21.18-30.37a16.76,16.76,0,0,1-1.11-3.06c8.07.37,15.36.65,22.63,1.11C1140.88,754.37,1141.68,755.42,1142.12,756.18Zm-4.63-7.53L1120,747c1.62-6.46,3.21-12.8,5-20.17C1129.36,734.36,1133.25,741.19,1137.49,748.65Zm-15.13-34.86c-2.34,10.59-3.35,13.27-6.66,24.78-3.66,12.73-8.77,20.09-19.73,24.93-1-1.52-2.29-3.41-3.11-4.79-3.31-5.49-3-5.63,1.37-8.5a97.32,97.32,0,0,0,9.35-7.17c5.08-4.27,5.67-13.11,8.28-22.87,2.11-7.93,4-15.84,8.16-32C1126.37,695.56,1124.22,705.41,1122.36,713.79Zm-20.3-19c2.26-7.47,4.07-15.08,6-22.61,6.23,5.19,7,9.13,4.84,17.52-4.06,15.48-7.69,31.08-11.59,46.6a4.55,4.55,0,0,1-1.78,2.11c-3.52,2.64-7.06,5.23-10.76,7.94a4.23,4.23,0,0,1-5.91-.92L1060.57,715c11.59-8.6,24.65-11.83,37.46-15.76A7.42,7.42,0,0,0,1102.06,694.78Zm33.32,183.33c2.31,3,3.89,6.57,6.51,9.18,3,3,6.38,6.27,10.19,7.39,7.41,2.16,11.61,11.07,15,16.19,10.29,15.75,17.46,29.6,27.5,45.52,4.86,7.71,5,7.65-.78,15.48-3.53-3.24-7-6.36-10.42-9.62-3.7-3.55-7.26-7.25-10.9-10.86s-7.08-6.91-11.15-10.88c3.32-2.54,6-4.28,9.42-7,3.83-3.07,3.73-4.54,1-7-9.77-8.54-19.78-16.8-29.56-25.31-7.47-6.5-14.85-13.09-22-19.88-3-2.84-5.11-3.83-9.38-1.41-3.51,2-6.24,3-10,4.77-4.64,2-10.49,6-11.11,9.84-.11.66-5,21.77,9,41.16,4.38,6.06,5.16,10.12.8,15.81-8,10.48-14.63,18.19-30.29,23.39-7.72,2.57-4.21-2.78-15.32-8.69-11.37-6.05-34.77-12-35.29-12.18-1.49-.35-13.13-4-20.37-6.15-5.89-1.73-13-4.4-16.19-7.7-2.33-2.62-9.29-8.25-9.79-11-.83-3.77-2.29-7.2-10.94-16.15-10.88-11.68-25.14-22.15-32.64-36.28-1.59-4,1.29-5,3.48-2.38,6.62,7.55,13.88,15.75,21.27,22.55,4.59,4.22,8.2,3.85,10.45,3.85,1.06,7.67,5.69,10.23,10.77,14.3,14.17,11.37,19.38,14.72,32.67,23.83,1.36.93,14.05,7.12,14.39,7.4,14.17,6.48,29.24,4.42,29.62,4.34,16.69-3.71,19.4-8,25.6-16.18,3.61-4.78,6.85-18.13,4.81-42.11-1.64-8.92-3.89-18.13-4.13-19-2.71-9.55-6.78-11.2-19.56-18.65-19.4-8.5-23.51-18.85-37.52-27.92a38.4,38.4,0,0,1-5.47-4.39c-1.87-1.75-4.29-3.13-3.18-6.67.35-1.11-1.26-3.31-2.52-4.37-9.1-7.61-18.33-15.05-27.53-22.56,8.74-4.86,16.22-3.49,25.39,3.75,11.43,9,23.17,17.64,34.77,26.44,18.77,14.23,38,27.95,56.15,42.89,11.35,9.33,22.2,6.39,31-.78l8,10.09C1133.59,872.92,1133,875,1135.38,878.11ZM1146,942.39l-50.48-47c3-1.7,15.86-8.84,18.87-10.53q11.67,10.41,23.41,20.87c8.93,7.92,17.88,15.81,27.08,23.94C1162,932,1149.12,939.87,1146,942.39Zm-164.9,26.4a107,107,0,0,1,8.09,7c-3.6,3.43-6.89,6.62-10.24,9.74a6,6,0,0,0,0,8.82q9.78,9.15,19.48,18.4c10.6,10.16,19.42,18.62,29.93,28.87,2.73,2.68,5.23,4.3,9.17,1.43,3.53-2.57,6.92-5.63,9.93-8l32,31.9c-4.52,5.21-10,4.72-16.61,1.8-18.36-8.09-37-15.56-55.52-23.26-7.54-3.13-15.14-6.11-22.64-9.35a4.73,4.73,0,0,1-2.34-3c-.86-4.43-3.14-7-7.44-9a52.77,52.77,0,0,1-8-4.47c-5.44-3.65-10.62-2.93-15.89.36-2.16,1.35-12.24-3-12.6-5.43-.1-.69.92-1.59,1.5-2.34,4.82-6.25,10-12.27,14.25-18.89,1.16-1.8.52-6.12-.94-8q-23.87-31-48.45-61.55c-1.62-2-4.29-4.76-18.55-3.65-.29-.36-12.67-25.05-14.54-27.87-.64-1,0-2.94.34-4.41a12.37,12.37,0,0,0-.49-6.86c5-7.75,13.6-21.15,17.87-28.17,2.45-4,4.14-5.95-.83-11.41-.58-.63-59.86-70.81-68.73-79.41-5.5-8.85-12.23-6.91-18.94-6.93-12.67,0-12.67,0-20.31-9.74-2.56-3.26-4.87-6.74-7.7-9.74-2.57-2.73-4.44-5.23-4.94-9.33-1.5-12.27-4.78-24.43-5.18-36.7-.17-5,4.41-11,8.38-15,5.89-6,12.9-11,20-15.53,2.09-1.35,6.77-.78,9.08.72,7.66,5,14.8,10.81,22.12,16.33,1.54,1.16,6.5,5.29,3.7,5.43-5.19-3.58-10.23-8-15.36-11.64-3.37-2.41-6.43-5.27-9.93-7.44-1.14-.71-3.56-.44-4.83.32-4.6,2.78-8.95,6-13.41,9-3.53,2.4-5.16,5.21-1.52,8.73,7.43,7.19,15,14.28,22.22,21.18-3.9,5.27-8,10.71-12,16.24a10,10,0,0,0-2,4.28,2.46,2.46,0,0,0,0,.47,3.36,3.36,0,0,0,4.41,2.88,2,2,0,0,0,1.31-.85c5.52-11.69,14.38-20.14,25.17-26.87a73.21,73.21,0,0,0,7.33-5.16c4.88-3.94,9.16-5.9,15.66,0,5.87,5.5,18,13.72,19.79,15.16q36.06,28.45,72.17,56.84c6.27,4.93,12.66,8.6,20.64,15a.54.54,0,0,1-.25.94c-2,.34-4.57.59-5.49-.1-11.1-8.29-22.09-16.73-33.11-25.14-6-4.58-12.15-9-18-13.81-6.1-5.06-10.88-5.12-17,0-3.45,2.85-7.29,5.24-11,7.78-5.09,3.51-5.8,7.9-1.36,12.38,5.88,6,12.24,11.45,18.24,17.3,9.89,9.65,19.65,19.44,28.71,28.41-3,4.39-6,8.09-8.14,12.23-5.83,11.06-9.39,25.8-9.89,32.46,8.39,8.87,12.88,14.14,22.62,25.74,14,16.71,27.58,31.13,42.13,46.9,2.17,10.5,17.56,23.5,23.23,26.54-2.05,3.13-4.44,7-7,10.64C977.33,964.93,978,966.49,981.1,968.79Zm24.7.9,49.77,49.88c-6.69,5.68-12.8,11-19.17,16.09-.86.68-3.34.22-4.5-.56a59.1,59.1,0,0,1-7.46-6.25c-13.61-12.88-27.16-25.81-39.36-37.41C991.86,984.31,998.7,977.14,1005.8,969.69Zm-104,25.48a63.2,63.2,0,0,1-7.62-3.12c-19-9.39-38.57-18-56.82-28.71-13.73-8.09-28-14.65-42.33-21.39-1.68-.79-2.54-4.22-3-6.58-2.9-15.69-5.62-31.42-8.33-47.14-.68-3.9-1.1-7.84-1.66-11.75-.63-4.49-2.6-6.93-7.76-7.09-8.66-.26-17.3-1.28-25.94-2.13-5.64-.56-7.41-5.77-10.26-9.39-14-17.8-28-35.69-41.6-53.81-1.81-2.41-2.39-6.31-2.27-9.47.29-7.93,1.28-15.84,2-23.75.71-7.33,1.49-14.65,2.21-21.69,7.58-2.11,14.64-4,21.64-6s6.94-2.07,11.72,5.67c4,5.54,14.35,20.48,21.27,29.6Q771,802,789.17,825.5c8.77,11.41,17.62,22.77,26.4,34.18.53.7,49.17,67.28,50.77,67.68,6.63,1.62,21.24.62,26.63.31,4.76-.27,7.43,2,10,5.27,10.42,13.33,29.09,35.89,26.44,34.2-1.81-1.15-8-.61-9.16.51-6.48,6.1-12.54,12.68-18.41,19.4C900.68,988.37,901.73,992,901.76,995.17Zm-542.71-369c.06.53.14,1,.22,1.58.28,1.58.66,3.14,1.05,4.7.52,2.08,1.07,4.16,1.39,6.27a3.8,3.8,0,0,1,0,1.21c0,.2-.09.41-.15.61-.28,1-.79,2.12-1.08,3.16l-.55-.18c-.75-.22-1.53-.39-2.26-.64a5.94,5.94,0,0,1-1-.45,4.53,4.53,0,0,1-.46-.3c-5.84-4.38-11.54-9-17.43-13.55L380,585.18l.66.24c-.31.63-.61,1.27-.9,1.91a46.73,46.73,0,0,1-2.85,5.6c-5.47,8.61-11.26,17-16.56,25.72A12.46,12.46,0,0,0,359.05,626.12Zm7.5,4.92c-1.53-5.88-1-9.91,2.45-14.89,10.14-14.78,19.6-30,29.73-45.7l12.81,8.75a1.16,1.16,0,0,1-.67,2.11c-1.5,0-3,0-4.51,0-4.55.18-30,36.21-31.21,40s1.08,6.29,4.26,8.47c22.2,15.25,41,28.45,63.15,43.77.83.58,2,1.29,2.85,1.13,6.66-1.27,13.28-2.74,20.07-4.18,2.65,3.42,1.64,4.8,9.48,3.75,3.52-.47,5.11-.79,8.15-1.2,3.33-.45,6-1.93,5.44-6.75,0,0,4.13-1,5.2-1.23,10-1.9,17.69-3.74,28.08-5.6,1.26,4.89,3.63,6,9.75,4.51,4.46-1.11,4.48-1.21,7.45-1.93,1.4-.34,4.49-.61,4.09-3.25-.7-4.51-1.16-3.81,5.9-5a101.4,101.4,0,0,0,12.1-2.36c1-.28,2.09-1.28,1.9-3.94-.73-10.45-1.82-20.88-2.82-31.31-.43-4.49-1.31-9-1.25-13.44,0-1.29,2.4-3.08,4-3.68,2.3-.85,5.52-1.86,7.84-2.65,2.48-.86,6.33-1.49,6.17-2.29-.69-3.46-.55-7-4.86-9.76C554.09,572.65,536.63,560,519,547.63c-7.93-5.57-15.78-11.24-24-17.1,7.73-15.38,15.22-30.58,28.82-41.65a24.6,24.6,0,0,0,4.61-4.95c2.16-3.09,3.11-6.12-.94-8.51-7-4.17-13.73-9-21.61-14.2,6.22-3.49,11.56-6.62,17.07-9.43a4.81,4.81,0,0,1,4.06.52c5.21,3.5,10.59,6.88,15.28,11,5.68,5,11.75,6.7,18.5,3.46,9-4.29,16.77-.72,23.8,3.69,26.11,16.37,45.24,28.84,71,45.74a220.26,220.26,0,0,1,20.14,15.66c1.13,1.06,5.86,11.49,8.22,14.54,2.53,3.3,25,32.73,31.22,39,2.87,2.9,5.61,5.93,8.35,8.84-8,5.59-16.14,11.06-24,16.83a16.71,16.71,0,0,0-5.59,6.37,4.14,4.14,0,0,0-.2,2.1c-6.16-1.25-14.74-2.35-18.15-3-7.23-1.33-11.62-5.71-13.22-12.26-2.18-8.87-8.75-11.67-16.21-14.35-9.16-3.28-18-7.47-27.16-10.77a13.09,13.09,0,0,0-8.65.1c-6.48,2.68-12.56,6.3-18.91,9.29-3.06,1.44-5.36,4.25-4.79,7.61.64,3.84-1.8,6.42-4.86,8.62-5,3.58-10.54,7.86-12.56,11.55a28.38,28.38,0,0,0-2.78,10.4c-.38,13.21-.09,16.76.15,30a9.25,9.25,0,0,0,2.94,5.78,369.93,369.93,0,0,0,34,27.81c-23.49,25.17-45.46,48.69-69.14,74l-5.87-10.71c2.94-1.34,6.48-2,8.53-4.05,11.23-11.44,22.08-23.25,33.08-34.91,1.63-1.73,3.34-3.41,5-5.08,11-10.94,3.37-20.56.25-23.11-4.74-3.87-9.51-7.73-14.55-11.17a9.27,9.27,0,0,0-6.52-1.45c-16.75,3.78-33.44,7.87-50.14,11.89-4.53,1.09-6.73,6.61-4.46,10.71,4.72,8.57,9.33,17.21,14.24,26.28l-50.58-28.13c-5.94-3.3-11.74-6.86-17.87-9.76-1.69-.8-5.67-.34-6.22.75-1.18,2.35-.89,5,3.15,6,3.18.72,45.6,24.64,61.09,33.24a15.38,15.38,0,0,1,5.65,6.12c6.42,12.3,12.53,24.75,18.75,37.15,2.86,5.72,7.52,6.72,11.83,2.08,11.12-12,21.4-24.84,33.32-36,5.63-5.25,11.11-11.07,17.54-15.27,2.26-1.48,7.3,1.07,11,2.06,11.56,3.09,23.08,6.31,34.92,9.56L646.69,755l-51.88,13.3c-5.54,1.43-11.11,2.74-16.57,4.41-7.07,2.17-9.07,6.55-5.67,13.19,5,9.76,10.87,19.08,15.45,29,2.32,5,3.11,6.41,6.79,14.25a13.3,13.3,0,0,0,6.54,6.46c15.14,6.59,27.15,11.77,42.41,18.07,14.92,6.15,30,12,45,18,9,3.63,34.07,13,49,19,8,3.15,18.65,6.52,26.67,9.58,4,1.54,8.07,3,12,4.58a3.8,3.8,0,0,1,2.19,2.09c2,10,3.84,20,5.84,30.6-33.16-14.41-65.76-28.63-98.39-42.74-32.24-13.95-64-29.09-98.48-42.26-6.75-14.92-14.46-32-22.18-49.06-.72-1.61-1.55-3.17-2.22-4.8-2.34-5.71-6.49-6.87-10.93-2.26q-15.71,16.33-30.7,33.33c-2.07,2.34-2.89,2.74-5.55,1-7.12-4.51-14.51-8.62-21.82-12.83-3.13-1.79-6.11-2.06-8.72,1.11-5.64,6.82-11.5,13.48-16.86,20.51-.8,1.06-2.87,7.35-14.71,1.06-4.75-2.4-14.67,2.26-20,6.33-.56-7.47-.91-14.68-1.68-21.83-.92-8.57-2.22-17.09-3.31-25.64-1.11-8.76-2.12-17.53-3.26-26.28-1.78-13.56-3.73-27.09-5.43-40.66-1.61-12.88-2.83-25.81-4.58-38.66-.42-3.07-2.25-5.94-3.48-9-7.48-5.37-44.06-33.42-47.12-35.91C371.84,643.4,368,636.63,366.55,631Zm67.63-79.17c7.46,5.13,13.69,4.47,20.2-2q6-6,12.05-12.06c5.84-5.88,5.46-10.8-1.21-15.25-1.78-1.19-3.61-2.29-5.42-3.44,0-.54.07-1.09.11-1.64,1.63.08,3.67-.46,4.83.32,13.78,9.34,27.44,18.87,41.12,28.37q28.08,19.5,56.11,39.07c.82.57,4.1,2.56,2.52,3-7.26,1.46-13.83,2.9-20.46,4.08-12,2.14-24,4.07-36,6.18-15,2.64-30,5.46-45,7.95-1.47.25-3.41-1-4.81-2-14.48-10.32-28.87-20.77-43.35-31.09-4.67-3.32-9.55-6.33-14.51-9.61,5.4-6,10.29-11.75,15.59-17.12,2.81-2.85,6.15-4.9,10.1-.9C428.39,548.12,431.37,549.94,434.18,551.87Zm-6.59-12.69c8.4-5.42,16-10,23.22-15.16,2.69-1.92,4.41-1,6.3.43,2.41,1.84,4.62,3.94,7.55,6.47-5.47,5.37-10.59,11-16.45,15.8-1.85,1.51-6.12,1.64-8.47.58C435.44,545.36,431.75,542.06,427.59,539.18ZM614.38,437.29C633,450.14,652,462.41,670.71,475a5.37,5.37,0,0,1,2.31,3.61c0,13.23-.25,26.45-.44,40.82l-87.4-58c8.15-2,15.46-3.64,22.62-5.74,1.5-.44,3.63-2.8,3.47-4-.33-2.37-1.5-5.31-3.32-6.64-4.29-3.11-9.17-5.41-13.54-7.89C601.2,429.17,607.38,432.45,614.38,437.29Zm-3.09-8.4.12-2.43c7.66-2.87,13.07-10.17,22.82-9.35,4.62.39,9.51-2.55,14.28-4s7.71,1,7,5.8c-1.46,9.62-4.45,12-13.29,11.8-6.87-.19-13.77,1-20.65.83C618.12,431.5,614.71,429.83,611.29,428.89Zm-9,19a1.63,1.63,0,0,1-.33,2.94c-25.4,6.12-19.71,9.57-33.37.66C587,440,588.4,440.4,602.25,447.93ZM743.88,515.5c-1-1-3.65-1.29-5.73-1.29.38-3,.84-5.44,1.23-8.43,2.12-.69,5.53.13,5.81-.94a36.25,36.25,0,0,0,1.1-11.14c0-.63-3.59-1.37-5.87-2.06,0-1,.07-4.9.07-7.33,19.68,8,32.17,24.51,48.24,36.37-.25.4-9.75-3.19-14.27-5.32-7.35-3.46-10.79-1.1-11.22,7-.29,5.55-1.64,11-2,16.59-.09,1.67,1.27,4,2.67,5.07,5.89,4.72,11.67,9.8,18.23,13.4a21.7,21.7,0,0,0,17.64,1.92c9.85-3.11,18.37-5.58,28.42-8.06,8.62-2.13,11.46-1.89,16.19,1-6.75,1.8-12.94,3.51-19.16,5.1-12.44,3.18-24.88,6.36-37.36,9.34a6.37,6.37,0,0,1-4.44-1.18c-9.15-6.34-15.89-11.21-25-17.66-.88-.62-9.83-6-18.34-11-1.56-.91-2.95-4.39-3.79-7.11,6,1.6,7.71.54,8.29-5C744.78,523.71,745.14,516.69,743.88,515.5Zm149.37,34.39c4,4.89,8.51,9.41,13.46,14.77-6.45,1.64-8.88,1.77-14.62,3.16A101,101,0,0,0,882,570.56c-1.63.67-3.76,2.25-4,3.66s1.28,3.82,2.7,4.72c7.59,4.76,15.37,9.21,23.12,13.72,9.94,5.77,20,11.38,29.79,17.34,1.75,1.07,2.63,3.56,4,5.35q14.13,19.06,28.26,38.12,23,30.94,46.07,61.87,8.86,11.89,17.82,23.73a1.53,1.53,0,0,1-1.75,2.35c-7.18-2.7-14.65-5-20.92-9.06-4.71-3.08-7.18-9.65-10.53-14.74-9.43-14.32-18.56-28.83-28.24-43-9-13.19-18.63-26-27.93-39-6.59-9.2-12.75-18.74-19.84-27.53-2.84-3.51-7.6-5.54-11.63-8-11.76-7.22-23.65-14.25-35.39-21.51-7.76-4.81-11.56-3.71-13.58,5.1s-3.61,14.81-6.25,24.78c-8.6-3.26-22.9-9.2-25.57-14-4.93-8.92-8.34-15.22-13.6-24.89,5.4-2,10.37-4.2,15.51-5.81,7.66-2.39,15.47-4.29,23.14-6.64,1.41-.43,3.57-2.19,3.44-3a6.9,6.9,0,0,0-3-4.56c-8.28-4.25-16.67-8.33-25.17-12.13-13.16-5.87-26.21-12.17-37.11-22.36-4.06-3.79-11-9.1-16.3-15.05-3.85-4.26,13.61,1.27,19,2.3l110.07,34.61a1.28,1.28,0,0,1-.2,2.48,70.51,70.51,0,0,0-7.25,1.3c-2,.49-4.91,1.52-5.27,2.88C890.9,545.44,891.92,548.27,893.25,549.89Zm41.45,11.66a4.69,4.69,0,0,1,5.72,1.45c6,8,11.43,15.35,17.39,23.34-5.56,6-10.74,11.52-15.84,17.1-1.85,2-3.2,2.46-5.94.68-7.31-4.77-15-8.91-22.68-13.34-22.41-11.22-27.91-14.6-20.76-16.36C904,571.47,926.48,565.36,934.7,561.55ZM972.14,697.7a35,35,0,0,1-5.83-3.13q-20.25-14.7-40.3-29.7c-6-4.52-11.57-9.83-17.92-13.85-4.41-2.79-9.75-4.23-14.82-5.83-8.65-2.74-17.41-5.13-26.13-7.68l-10.78-3.15c3.06-16.12,6-31.84,9.14-48.13a3.09,3.09,0,0,1,4.6-2.08c6.76,4,12.89,7.6,19,11.3,7.16,4.37,14.54,8.46,21.23,13.48,3.71,2.79,6.39,7.08,9.2,10.94q22.14,30.48,44.09,61.11c3.49,4.85,6.84,9.81,10.24,14.73A1.35,1.35,0,0,1,972.14,697.7ZM850.67,621.88c-1.87,9.21-3.62,15.46-6.09,25.53-5.69-3.81-12.19-7.39-17.67-10.84-13.75-8.67-16.53-15-21.25-26.61-4.42-10.94-15.26-34.44-13.6-34.84a111.85,111.85,0,0,1,11.42-3.37c1.14-.22,3.2,1.21,3.95,2.43,4.19,6.84,8.16,13.81,12.09,20.8A34.36,34.36,0,0,0,835.83,610c4.17,1.89,6.09,3.07,12.49,5.79C849.6,616.37,851,620,850.67,621.88Zm-110.87-76c10.25,2.57,28.58,16.51,36.69,23.15,5.55,4.45,10.16,16.44,13.91,25,7.24,16.6,11.76,30.25,17.56,37.8a21.32,21.32,0,0,0,4.27,4.54c13.52,9.49,27.17,18.8,40.68,28.3q42.5,29.88,84.9,59.89c7.19,5.07,14.27,10.3,21.63,15.1,4.06,2.64,5,6.75,5.35,10.65,1,12.14,9.5,18.29,18.18,24.49,2.16,1.54,4.33,3.07,7.75,5.48-6.84.88-12.55,2.72-17.86,1.93-4.16-.63-8.05-4.23-11.68-7-11.42-8.78-22.65-17.79-34-26.72-13-10.26-40.36-31.52-40.63-31.72-8.33-6.38-7-7.44-8.85-14.93-1.33-5.35-3.94-7.72-4.65-8.28-8.78-6.86-13.71-11.87-23.25-17.46-10.57-6.19-22.4-10.17-33.43-15.63A116.62,116.62,0,0,1,799.7,650c-5.09-3.72-9.7-8.11-14.51-12.22-.55-.47-1.4-1-1.5-1.56-1.51-9.13-10.2-11.34-15.9-16.29-10.66-9.26-22.38-17.36-32.55-27.1-8.3-7.94-15-17.52-22.35-26.45-5.71-7-11.28-14-16.89-21.07-1-1.26-1.89-2.6-2.88-4,6.88-4.34,11.83-4.16,20.51-2S730.89,543.73,739.8,545.9Zm304.62,335.26c8.25,10.13,15.29,21.25,22.7,32.06,2.33,3.39,4.25,7.06,6.13,10.22-2.78,9.34-10.27,13.69-17.45,18-4,2.42-7.08-.11-9.91-3.76-7.51-9.71-15.21-19.33-23.54-28.33-5.63-6.08-29.12-25.07-31.8-27-.52-.38.78-4.89,2.33-6.15,9.21-7.49,18.73-14.59,28.17-21.8,3.59-2.74,7.27-1.62,8.24,2.76C1029.84,859.6,1040.59,876.45,1044.42,881.16Zm5-23c6.19,3.79,12.55,7.35,18.47,11.53,1.79,1.27,2.68,4.79,3.23,6.42,10.89,32.47,4.49,35.07,4.57,34.78-8.81-12.7-24.55-38.82-33.59-51.85C1035.17,849.69,1049.14,858.41,1049.38,858.12Zm-14.18,86.64a64.93,64.93,0,0,1-8.29-2.88c-18.58-8.4-34.9-20.26-50.31-33.46-5.85-5-5.81-5.13-1.42-11.54,2.23-3.25,4.62-6.38,7.37-10.16,10.81,9.35,21.51,17.73,31.15,27.19,8.55,8.4,16.21,17.71,24.15,26.74A2.54,2.54,0,0,1,1035.2,944.76Zm-11.28-98.51c-12.06,4.93-14.87,9.4-25.34,16.54A164.46,164.46,0,0,0,985.72,874c-1.46,1.48-2.25,3.62-3.88,6.37-4.15-3.65-7-6.35-9.05-9.72-.47-.76.17-5.06.28-6a70.22,70.22,0,0,1,1.38-7.74c1.37-6.57,3.92-9,7.86-12.14,2.81-2.24,5.43-4.84,8.6-6.51,5.81-3.06,9-3,13.15-3,11.73,0,14.13,3.63,20.38,8.16C1025.25,844,1024.43,846,1023.92,846.25Zm-16.79-16.56c-12.65-5.05-19.49,2.76-33.57,12.59-2.87,2-4.37,8.41-4.57,9.32-1.53,7.11-1.67,8.33-3.12,15.59l-35-11c1.27-5.56,2.16-12,4.35-18,1.18-3.21,4.25-6,7.05-8.29,7.3-5.92,14.93-11.41,22.41-17.11,3.89-3,7.53-6.33,11.7-8.83,1.68-1,5.31-1.17,6.6,0,7.49,6.51,14.6,13.46,21.72,20.39C1008,827.67,1007.25,828.81,1007.13,829.69Zm-35.51,47-13.2,17.79c-9-8.94-17.4-17.27-25.7-25.72a3.86,3.86,0,0,1-.58-3.32,3,3,0,0,1,2.61-1.32C946.71,868.14,958.62,872.27,971.62,876.74Zm-52.54-77.19c-1.21-1.21-30.24-30.58-44.36-44.69,5.14-3.74,9.54-7.14,14.19-10.13.85-.54,3.06.24,4.17,1.06,11.83,8.75,23.57,17.62,35.33,26.47,6,4.53,12,9.14,18.06,13.62,5.26,3.88,5.33,9.55.09,13.19-1.62,1.13-3.16,2.38-4.73,3.58C934.06,808.63,927,807.43,919.08,799.55Zm-46.9-92.77c0,.69-1.67-.27-2-.57-13.2-10.58-26.37-21.2-40.35-32.46,10.79,2.44,17.67,8.06,25.26,13.92,3.57,2.75,6.8,4.75,11.42,8.34C870.4,699.08,871.2,702.48,872.18,706.78ZM689.68,808.63c15.61,18.77,29.3,36.5,44.55,55.56,2.35,2.94,2.48,5.1,0,9.18-4.93,8.1-10.16,4.58-15.59,2.38-17.15-7-34.15-14.27-51.31-21.19-11.87-4.79-24-9-35.86-13.72-9-3.52-18.08-6.83-26.6-11.25-3.08-1.6-5-6-6.8-9.39-7-12.89-12.33-23.21-19.15-36.19-.07-.13-.38-.9-.69-1.81a2.73,2.73,0,0,1,1.92-3.51l110.37-27.75c-.59,7-.9,9.4-1.52,16.94-1,11.56-1.25,17.56-1.93,29.15C686.8,801.7,687.26,805.72,689.68,808.63Zm-32.12-56.06c-5.32,1.44-12-26.9-17.95-29.24-6.62-2.6-13.75-3.71-20.61-5.62-7.15-2-14.27-4.1-22.38-6.43,6.07-6.08,9.71-10.94,15.68-15.51,2.15-1.64,7-.1,10.42.47,13.94,2.37,30.23,4.87,44.14,7.43,12.15,2.23,22.38,3.17,34.24,6.46,3.92,1.09,7.19,6.6,10.17,10.31,3.81,4.73,6.6,9.26,10.76,15-5.29,1.6-9.15,3-14.19,4.26C691.09,744,674.27,748.07,657.56,752.57Zm51-46.94c-1.65-2-5.3-2.65-8.17-3.23C689,700.12,677.49,698,666,696c-13.61-2.38-27.23-4.74-40.88-6.86a49.36,49.36,0,0,1-24-10.89c-7.25-5.9-15-11.21-22.31-17-1.61-1.29-3.28-3.53-3.44-5.45-.71-8.7-.55-16.41-.67-25.11-.13-10,3.36-12,8.41-16.32,3.45-2.94,5.17-4.78,8.44-7.92.7-.68,2.7-2.76,2.27-5.14-1-5.51,2.66-7.12,6.5-9s7.6-4.07,11.36-6.17c4.27-2.38,7.8.18,11.46,1.68,9.05,3.71,18.13,7.36,27.08,11.3a9.68,9.68,0,0,1,4.1,4.18,107.36,107.36,0,0,1,5.45,12.26c.38,1-.35,2.57-.85,3.72-1.28,3-.44,5.08.68,6,11.64,9.37,23.55,18.39,35.37,27.52,7.55,5.83,15,11.84,22.68,17.45,2.33,1.7,5.64,3.64,8.13,3.23,8.55-1.4,13.43,4.15,19,8.65,3.09,2.51,6.37,4.94,8.86,8,1.68,2,2.56,5,3,7.75,2,11.48,3.45,23.08,5.8,34.49.62,3,3.55,5.69,5.74,8.25,5.65,6.61,11.35,13.2,17.34,19.52,1.41,1.48,4,2.24,6.09,2.59a24.14,24.14,0,0,0,8.22,0c9.48-1.8,14.73,3.45,19.86,10.36,5.28,7.12,11.67,13.4,17.47,20.13,10.86,12.61,21.61,25.32,32.49,37.91,4.05,4.68,8.27,9.21,12.55,13.66,1.86,1.94,2.59,3.18.75,6-4.05,6.14-10.92,17.31-15.24,25C861.2,866.91,857.23,861,851.25,852c-.9-1.16-3.64-2-5.5-2.13-9.43-.46-18.87-.55-28.3-.93-.88,0-1.92-1-2.54-1.86Q796.4,822.46,778,797.83q-24.39-32.6-48.75-65.24C722.43,723.52,715.76,714.34,708.54,705.63Zm-42.25-83.08.69-1.76c3.65,1.05,9.27,2.87,13,3.63,5,1,10.62,1.47,15.56,2.16a23.09,23.09,0,0,1,1.59,6.4c.11,4.17-.8,8.36-1.28,12.65Zm77.44,48.69c-5.4-5-9.5-9.87-14.61-13.23-5.55-3.64-11.9-6.21-18.13-8.65-9-3.52-10.31-10.15-2.89-17.48,12.76,7,25.39,5,34.14-6.34,2.3-3,1.18-8.63,1.63-13,6.48,2.31,12,6.09,15.62,13.31,1.73,3.51,6.31,5.68,9.75,8.24,2.69,2,5.61,3.68,8.6,5.62C765.19,649.21,750,654.71,743.73,671.24Zm-33.05-44.83c7.05-4.64,18.16-11.73,24.79-16.11,2.23,1.85,3.17,4.54,2.29,8.86-1.39,3.93-8.84,11.36-18.91,10.32C716.46,629.23,713.69,627.63,710.68,626.41Zm-132,225.47c2.81,5.24,1.25,7-3,9.18-8.27,4.3-16.39,8.9-24.57,13.39-3,1.64-5.92,3.36-8.93,4.94a3,3,0,0,1-2.3.26c-4.64-2.18-36-16.5-39.46-17.79,12.37-13,31.56-34.59,44.21-47.92l10.48-12a1.14,1.14,0,0,1,1.9.28c3.12,7.13,11.81,26.59,16,36,.63,1.31,1.3,2.82,2,4.56v0h0C575.36,843.82,577.85,850.35,578.66,851.88Zm-85.17,13.78,38.44,17.13c-2.64,3.08-5.72,6.41-6.19,9.89-.36,2.69.59,6.11,1,8.06.72,3.23,1.63,4.64,3.39,7.46,4.56,7.27-.68,12-4.12,17.18-2.32,2.71-5.33,7.09-11.06,6.73-7-.74-13.52,1.47-19.49,6.51S487.63,950.12,488,957c4.73,20.59,19.55,25.37,36.38,17.75,6.71-2,44.57,11.16,61.68,16.15,14.88,4.34,29.87,8.34,44.76,12.67,5.88,1.71,8.73,7.77,9.12,13.93a90.78,90.78,0,0,1-19.27,6,14.11,14.11,0,0,1-6.22-.25c-16.16-4.6-72.36-21.73-90.7-27.59-13.06-4.18-28.64-9-41.75-13.09-5.28-1.64-10.13-2.5-14.85-7.87-1.45-1.66-2.33-4.74-2.87-7.33-3.42-16.3-6.93-32.59-9.79-49-.59-3.41,1.1-7.36,2.25-10.89,1.33-4.07,3.42-7.89,4.84-11.94,3.41-9.72,11.33-15.12,19.21-20.63C484.89,872.1,488.89,869,493.49,865.66ZM634.36,997.48c-22.78-6.73-45.58-13.45-68.3-20.37-8.68-2.64-25.35-8.19-32.25-10.54,8.06-11.17,7.7-21.78-.74-29.89-3.18-3,1.07-7.5,3.3-11.55,5.87-10.63,2.86-15,0-22.48-1-2.64-2.51-6.24-1.52-8.33,3.57-7.51,5.65-7.79,13.27-4.22,15.09,7.06,30.17,14.12,45.34,21,20.19,9.11,40.47,18,60.7,27Q680.8,950,707.43,961.91c1.42.64,2.73,1.52,4.11,2.29-8.11,8.68-16.16,16.88-23.7,25.51-4.58,5.25-8.29,11.24-12.58,16.75a9,9,0,0,1-4.11,2.74c-7.26,2.43-14.59,4.66-22.47,7.14-2.18-5.26-2.88-7.81-4.29-11.64C642.83,1000.47,638.34,998.66,634.36,997.48Zm-84-113.08c10.38-5.67,19.79-10.83,29.23-15.94,2.34-1.27,4.12-1.83,7.08-3.62,5.31-3.22,8.63-2.18,13.21-.07,13.39,6.16,26.93,12,40.39,18q24.67,11,49.31,22C708.3,913.19,727,921.7,745.81,930q19.37,8.57,38.94,16.64c7.42,3.06,28.26,13.66,34.51,16.25-4.48,4.87-19,24.9-24.43,30.88Zm271-199c-4.06,3-8,6.29-12.35,9-1.13.72-4.23.37-5-.37-2.88-3-11.33-11-16.81-16.39,1.27-.89,1.85-1.3,2.44-1.69C800,669.09,800,669.11,810,677,813.69,679.83,817.48,682.52,821.32,685.37ZM1083.56,838c-10.73-7.8-22.09-16-33.3-24.31a9.41,9.41,0,0,1-3.06-4.82c-2.38-8.59-16.38-25.6-29-35.16C1011.09,768.24,965,736,959.74,732c-17.14-12.8-34.16-25.76-51.33-38.51-12.55-9.31-56.15-40.2-56.65-40.41.87-3.47.82-7.78,3-10.1,1-1.13,4.66-.1,7.69.65.06,0,26.06,6.87,36,11,7.78,3.23,14.74,8.66,21.67,13.67,15.73,11.36,31.34,22.89,46.67,34.78a30.79,30.79,0,0,1,7.57,9.91c1.25,2.9,2.54,5.24,6.21,11.11,2.47,3.94,8.57,8,12.83,9.74,17.74,7.23,25.64,10.93,43.4,18.11,7.72,3.12,10.89,10.36,15.66,16,11.59,13.77,22.55,28.08,33.81,42.14,5.17,6.45,10.43,12.84,15.71,19.33Zm-35-86.31c-2-.84-3.62-3.11-5-5q-23.94-31.6-47.73-63.33C978.41,660,961.16,636.57,943.73,613l18.57-20.48q31,41.58,61.9,83.05c8.66,11.69,17.09,23.54,25.52,35.39.73,1,17.78,24.26,23.22,32,2.44,3.5,11.6,16.58,15.22,22.49a1,1,0,0,1-1.24,1.45C1073.6,761.71,1061,756.83,1048.58,751.65Zm-81-162.84c9.43-6.53,13-4,25.46-.78,5.1,1.32,15.25,3.59,16.44,4.72,8.06,7.66,17.61,12.17,28.26,14.86a10.17,10.17,0,0,1,5.7,3.85c9.84,15.62,19.38,31.42,29.09,47.12,5.28,8.54,10.7,16.92,20.78,20.79,1.28.49,2.54,3,2.56,4.23,0,2.74,1.05,6.9-4.37,7.92a81.74,81.74,0,0,0-31,12.92A38.07,38.07,0,0,1,1055,707C1025.59,667.25,996.54,628,967.55,588.81Zm68-17.9c5.7,3.27,10.07,9.64,13.79,15.41,11,17,21.34,34.44,31.94,51.7,5.45,8.86,11.13,17.59,16.19,26.66,1.31,2.36,1.44,7.49,1,9.26-11.11-3.23-15.78-11.16-20.48-19-1.27-2.13-32.67-51.84-32.48-52.8.8-4.11-.33-12.51-3.64-16.63-2.87-3.57-5.92-6.4-10.13-8.17-8.87-3.71-19.22-6.7-25.65.83a10.4,10.4,0,0,0-2.06,7.06c-4.21-1.1-11.89-3.33-16.64-4.86-7.21-2.33-13.49-2.62-21,1.54-1.18.65-4.73-1.12-6-2.72-5.94-7.65-11.47-15.63-17.14-23.48,2.77-1.92,5.78-3.71,8.46-5.91,11.72-9.62,24.7-7.45,36.8-2.34A429.69,429.69,0,0,1,1035.53,570.91Zm-94.77-56.14a13.78,13.78,0,0,1,6.53,2C961,524.28,967.6,527.64,979.4,534c.42.23,4.12,2.18,7.5,4.06a1.05,1.05,0,0,1-.77,1.94c-4.85-1.23-9.42-2.63-12-3.13-8.59-1.64-15.84,1-22.68,5a76.83,76.83,0,0,0-7.67,5.77c-4.75,4.45-8.21-1.46-11-5.64-3.71-5.51-7.83-10.74-12-16.41C927.16,521,931.6,514.18,940.76,514.77ZM909,475.55a188.19,188.19,0,0,1,6.62,24.34c-1.55-.07-2.78-.08-3.21,0-20.73,1.83-23.82,17.61-24.43,17.23-2.93-1.86-7-3.87-9.21-11.14a288.87,288.87,0,0,0-14.44-38.34c11.79-5.47,29.28-9.94,30.11-9.92C901.71,457.87,907.44,469.14,909,475.55ZM874.18,453a8.8,8.8,0,0,1,1.92,1.36c-5.27,2.35-10.3,5.21-15.7,6.78-4.3,1.25-4.15,3.76-3.15,6.57,4.22,11.77,8.73,23.44,13,35.18.63,1.73,2.89,15.66,3.25,18-16.88-5.36-48.58-15.95-66.71-21.4-12-3.61-23.72-6.71-35.15-10.68-13.54-4.71-28.17-7.3-39.09-18.52-3.65-4.38-49.4-30.17-52.09-31.95-5.56-3.7-11.37-7-18.12-11.16.37-5,1-8.9,1.43-15.19,7.31,2.82,10.49,4.19,16.11,6.71,13.68,6.13,37.24,9.46,75.29,15.59,4.48.73,20.43,2.45,32.25.57a25.81,25.81,0,0,0,10.2-3.28c3.28-1.67,4.59-3.15,4.83-4,.86-3-.92-6.75-3.12-8.32-8.74-6.23-18.11-11.58-27.26-17.25-5.44-3.37-10.9-6.73-16.84-10.4,5.79-3.95,9.72.06,13.32,2.17,14.51,8.51,28.74,17.5,43.06,26.32,5.33,3.29,10.64,6.62,16.71,10.4C853.14,444.84,861.83,448.81,874.18,453ZM679.24,406.83c11.53-2.48,22.06-4.82,32.64-7,10-2,20-4.12,30.11-5.66a13.46,13.46,0,0,1,8.15,1.94c12.48,7.41,36.21,22.41,42.17,27,2.75,2.75,1.18,3.58-4.5,4.62s-16.76-.5-21.26-1.13c-17.81-2.53-25.34-3.08-40.79-6.24-12.53-2.56-31.51-4.78-43-11.46C681.88,408.44,681,407.9,679.24,406.83Zm167.11,17.39c-2.09,2.06-3.61,4.85-5.38,5-3,.29-21.57-11.75-24.48-14.09a84.4,84.4,0,0,0-7.86-5l8.4-6.93ZM505,418.71c9.89,3.45,12.55,6.66,16.72,9.05,1.51.68,4.83.18,6.53-.71,8.59-4.49,17-9.41,25.44-14.11,1.54-.86,3.4-2.22,4.88-2,9.81,1.61,17-4.16,24.41-8.71,11.72-7.23,24.32-10.8,37.85-12.48,10.11-1.26,20-3.95,30.09-5.78s20.18-3.29,30.24-5.11c9.5-1.72,18.95-3.75,28.44-5.54,11.8-2.23,23.59-5.93,35.42-6.07a57.36,57.36,0,0,1,33.31,10.57c9.56,6.6,19.67,12.4,29.53,18.58,1.29.81,2.51,1.74,3.82,2.66-3.11,2.64-5.86,5-8.76,7.43-9.57-7-17.5-10.68-28.94-18.19-2.13-1.39-10.77-7-13-8.43a16.08,16.08,0,0,0-9.54-1.84c-24,4.86-34.39,7.89-58.39,13-22.59,4.77-45.34,9-67.71,14.6-8.06,2-15.25,7.55-22.82,11.51a54.09,54.09,0,0,0-7,4A6.44,6.44,0,0,0,593,425c-.2,1.63.65,3.38.88,4.39-8.24,4.78-18.74,11-29.36,17-6,3.4-6.26,5.82-.48,9.57.85.55,1.75,1,2.5,1.43-3.73,1-7.26,2.46-10.87,2.71a14.91,14.91,0,0,1-8.52-1.9q-17.68-11.25-34.85-23.31c-1.34-.94-1-4-2-5.74-2-3.37-4.37-6.51-6.66-9.84A5.52,5.52,0,0,1,505,418.71Zm-26.61,17.44c7.84-3.26,14.24-8.13,17.24-16.73,2.11,3.89,6.22,7.1,3.82,12.51-.26.6,1.23,2.35,2.25,3.09,5.49,4,11.09,7.86,16.07,11.36-4.84,3.22-9.9,6.83-15.23,10a6.14,6.14,0,0,1-5.31.07c-5-3.08-9.62-6.85-14.65-9.93-1.8-1.11-5.41-2.24-6.41-1.26-4.38,4.28-16.54,1.78-22.51.81C461.33,443.06,470.84,439.29,478.42,436.15ZM235.58,778.59c13.88,8.86,15.89,10,15.89,30C236.29,801.23,235.44,799.18,235.58,778.59Zm23,36.54c-2.42-3.22-2.69-19.5-3.3-23.53,3.48,2.12,7.69,7.55,13.2,11.62,4.59,3.38,3.85,7.3,4.22,12,.16,2.11.45,10.15.77,13.1C268.05,824,262.26,820,258.62,815.13Zm21.46,18.77c.14-4,.44-6.84.28-9.65-.39-6.72-.24-10.32-1.2-15.62a12.69,12.69,0,0,0-3.57-6c-9.16-7.91-18.51-15.6-27.87-23.27-4.45-3.65-8.95-7.27-13.66-10.56a4,4,0,0,0-1.47-.6,3.63,3.63,0,0,0-4.32,3.47,6.23,6.23,0,0,0,0,1.06c.75,6.71,1.69,13.4,1.4,21-6.68-7-11.17-12.21-20.2-20.64-9.63-9-10.69-19-11.81-31.33-.17-3.66-.17-6.41-.17-8.5,0-6.16,24.2-47.13,34-62,2.59-3.93,5.84-5.34,9.9-6.86,3.51-1.32,6.76-4.08,9.39-6.89,10.67-11.42,21-23.13,31.54-34.66,16.19-17.73,32.48-35.36,48.64-53.11,9.22-10.13,18.26-20.42,27.39-30.64,6.34-7.09,12.24-14.67,19.21-21.09,5.73-5.29,12.74-9.2,19.17-13.73,3.51-2.48,7-4.95,10.49-7.5.7-.52,1.72-1.44,1.64-2.05-1.34-10.48,8.47-11.32,13.86-15.64,6.55-5.26,14-9.38,20.92-14.23a3.07,3.07,0,0,0,.34-.29,2.72,2.72,0,0,0-2.08-4.51,7.31,7.31,0,0,0-1.24.08c-1.65.26-3.17,1.28-5.29,2.21.88-4,1.3-7.59,2.6-10.83.45-1.11,3.25-2,4.78-1.8,9.92,1.49,19.76,3.49,29.69,4.93,1.81.26,3.89-1.3,7-2.46l41.2,28.11c-14.81,13-23.55,29.47-32.61,45.95l-19.34-13.64c6.17-3.9,12.39-7.58,18.29-11.7a3.47,3.47,0,0,0,.37-.3c2.05-2,.23-5.52-2.6-5.23a3.76,3.76,0,0,0-1.6.49c-12.68,7.77-65.41,35.19-76.71,48.59-6,7.06-12.27,13.86-18.5,20.7-2.65,2.89-5.6,5.51-8.29,8.37-10,10.63-19.75,21.41-29.82,31.93-8.1,8.45-16.69,16.43-24.73,24.92-14.78,15.59-29.32,31.4-44,47.12-1.5,1.6-11.94,9.65-10.77,27.35.83,12.43,2.12,24.83,3.17,37.73,1,3.23.79,4.15,22,18.35,3.43,2.31,6.52,5.09,9.76,7.67s5.07,5.09,4.93,9.61c-.39,12.45.21,24.94-.22,37.39-.54,15.81,3,31.06,5.57,47.3ZM349,695.17c1,3.62-.48,4.22-2.72,6.88a113.05,113.05,0,0,1-18.73,17.75c-13.27-10.18-29.4-22.59-43.39-33.32,6.53-7.07,13-14.22,19.63-21.24,8.13-8.62,16.45-17.07,24.55-25.72,3-3.25,4.85-2.52,5.91,1.36C339.17,659,343.86,677.14,349,695.17Zm-32.28,89.18c0-2.57,0-5.13,0-7.7-.07-5.39-1.28-9.92-6.77-13-5.05-2.82-10.1-7.23-15.05-11.13-3.83-3-7.59-6.1-11.37-9.18a11.39,11.39,0,0,1-4.39-8.77c-.86-11.66-1.71-22.11-1.69-34.88a11.31,11.31,0,0,1,.24-1.84,3,3,0,0,1,4.78-1.65l0,0c14.6,11.13,26.93,22.36,41.42,33.65,3.07,2.39,5.3,2.51,8.31-.54,7.86-8,16.11-15.58,24.24-23.3,2.18-2.07,3.5-3.69,2.28-7.39-3.83-11.53-6.83-23.33-10.22-35-2.24-7.77-4.59-15.51-5.83-23.88,8.87,7,17.73,14.09,26.63,21.09q11,8.68,22.16,17.25c5.24,4,10.65,7.86,15.73,12.09,1.17,1,1.63,3.18,1.85,4.89,2.29,17.13,4.44,34.28,6.68,51.42,2.15,16.42,4.43,32.83,6.51,49.26.38,3.05.05,6.19.05,10-2.05-.19-3.85,0-5.42-.55-15.55-5.28-31.25-10.21-46.5-16.27-6-2.39-9.69-.79-13.86,2.81-6.69,5.8-13.67,11.26-20.23,17.21-1.63,1.48-4.51,14.42-4,24.82-2.5,0-12.13.09-14.09.09C315.82,826.1,316.73,801.18,316.73,784.35Zm6.44,83c-1.09-8.29-3.19-16.44-4.94-25h14.68c2,10.55,3.85,20.68,5.81,31.25C334.17,873.65,323.86,872.55,323.17,867.37Zm79.19-31.08c-1.85,5.33-3.58,10.69-5.28,16.06-.13.43,1.66,23.59,1.66,23.59-17.2.26-34.41.18-52.1.18-1.56-9.57-2.7-19-4.72-28.22-2.14-9.84-.47-19.67-.87-29.49a8.08,8.08,0,0,1,2.33-5.61c6.6-5.89,13.13-12,20.5-16.79,2.36-1.53,7.4.26,10.9,1.44,11.8,4,23.45,8.45,35.19,12.65,4.49,1.61,9.12,2.88,13.55,4.63,1,.39,1.76,2.12,2,3.36a75.31,75.31,0,0,1,.93,7.5C418.9,828.86,402.53,835.79,402.36,836.29ZM637.6,1049.43c.11,1.71.16,5.06.25,6.82-8.67-1.62-12.52-3.58-14.4-10.85-.45-1.74-2.76-3.7-4.61-4.25-17.63-5.3-35.34-10.38-53.06-15.39-14.1-4-28.27-7.73-42.38-11.67-14.43-4-28.82-8.2-43.24-12.26-5.23-1.47-6.59-.36-7.85,6.08-9.39-2.11-17.85-5.38-20.65-16-.86-3.28-1.84-6.54-3-9.74-7.79-22.09-15.8-44.11-23.32-66.3-1.53-4.49-1.37-9.57-1.84-14.4-.55-5.76,2.43-27,2.46-33,0-4.19,3.71-8.6,7-11.5a58.13,58.13,0,0,1,13.73-8.84c1.26-.62,7.32-.12,8.54.4,10.13,4.28,17.09,7.48,28.21,12.38-8.55,6.52-16.87,11.81-23.76,18.55-3.72,3.63-5.21,7.65-7.47,12.71-1.08,2.44-2.47,5.78-3.3,8.25-3.61,10.77-4.79,17.68-2.75,27,2.82,12.77,6.59,27.13,9.25,39.94a89.75,89.75,0,0,0,4.37,13.22c.37,1,1.78,6.43,11.92,9.92,15.19,5.24,33.5,9.67,49,13.92,17.78,4.88,84,24.5,92.11,26.95,5.5,1.66,13,.76,15,.19,11.51-3.29,20.33-6.72,31.78-10.22a192.73,192.73,0,0,0,19.61-6.71c2.77-1.2,5-4,7-6.47,8.71-10.53,17.2-21.23,25.89-31.78a48.46,48.46,0,0,1,6.83-6.68,4.67,4.67,0,0,1,4-.84c15.58,6.72,31.08,13.62,46.93,20.63-3.88,3.31-7.73,6-10.76,9.33-5.32,5.93-14.11,7.48-20.91,9.45-9.1,2.65-17.56,4.75-29.7,8.16-22.88,6.43-38.15,11.26-60.84,18.36C640.31,1037,637,1040.08,637.6,1049.43Zm325.2,82q-17.81-4.73-35.62-9.44c-24.56-6.45-49.15-12.82-73.7-19.33-17.8-4.71-35.52-9.7-53.32-14.39-18.33-4.83-36.73-9.34-55-14.18-14.33-3.79-28.58-7.87-42.86-11.82-6-1.66-21.2-1.25-24.58-.11a39,39,0,0,1-4.49,1.3c-6.45,1.31-7.3,1.06-25.67-4.23-2.79-10.3.4-16.88,14-20.28,8.93-2.23,17.73-5,26.66-7.27,14.53-3.69,29-7.61,43.37-11.89,7.37-2.2,15.27-3.88,22-7.56,5.19-2.84,10.93-7.61,15.54-11.53,10-8.54,8.28-8.78,20.22-2.56.32.16.67.28,1,.41-7.64,7.1-15.12,14.09-22.68,21a9,9,0,0,1-3.29,1.73c-20.25,6.34-63.39,19.31-71.46,21.41-6.15,1.61-5.37,6.58,2.67,8.54,6.38,1.56,7.89,2.15,14.27,3.86L773,1072c5.87,1.57,78.6,21.23,97.71,26.61,29.92,8.42,59.89,17.77,89.8,26.21,1.86.53,2.51,2.18,3.36,5.21C964.14,1130.92,964.18,1131.93,962.8,1131.4Zm-101.63-56.78c-1.79,4.44-3.17,9.05-4.78,13.73l-49.3-13.51c3.74-10.41,7.15-19.92,10.65-29.68,12.3,5,36.93,15.37,37.6,15.63C865.3,1064.61,865.22,1064.57,861.17,1074.62Zm9.23-7.73c13.56,5.38,27.09,10.79,40.65,16.11,3.42,1.35,4.89,3.08,3.09,7-1.57,3.37-2,7.3-3.69,10.56-.69,1.3-3.82,2.43-5.37,2-13.88-4-27.66-8.33-42.06-12.76Zm-69.34,6.51-54.28-15.33c3-8.49,5.89-17,8.94-25.52a4,4,0,0,1,2-2.32c5.7-1.93,11.37-4.73,17.6-2.23q17.59,7.05,35.13,14.23a4.42,4.42,0,0,1,1,.7C808,1053.09,804.6,1063,801.06,1073.4Zm-60.52-17.15c-6.28-1.49-12-2.7-17.59-4.21s-10.88-3.26-17.79-5.36l43.57-13.74ZM917.31,1100c1.68-4.11,3.1-8.33,4.67-12.62,10.06,4.3,19.63,8.78,29.5,12.44,4.28,1.58,6.59,3.64,7,8.15.3,3.16,1.11,6.27,1.75,9.74-13.37-3.73-26.33-7.47-39.38-10.92C916.77,1105.72,915.73,1103.84,917.31,1100Zm143,48.41a22.83,22.83,0,0,0-4,3.75,21.42,21.42,0,0,0-2,4.5c-.87,3.52-1,5.89-2,8.83-10-3.62-20.54-7.18-30.88-11.35-4.26-1.72-1.37-5.79,0-7.3,7-8,14.46-15.67,22-23.22,1-1,3.4-1.3,5.06-1,15.78,2.56,20-7.47,27.18-14.33.19-.18,23.38,7.6,23.38,7.6Q1079.68,1132.09,1060.31,1148.42Zm34-100.32c10.59,15.11,19.07,32.37,30,47.84-6.57,5.22-10.81,8-17,13.13l-2.42,2L1077,1101s-4.39-2.78-11.86,6.21c-2.93,3.54-6.25,7.84-12.12,6.52-10.22-2.3-16.61,4.07-23.15,10.13-1.08,1-6,6.62-6,6.62a12.82,12.82,0,0,1-1.65,1.76c-7.07,7.58-11.54,12.89-15.35,17.42l-28.12-8.56c-.34-4.31-2.9-23.61-3.19-26.91V1114h0c0-.31,0-.63-.05-1-.2-2.12-.88-4.81-1.38-7.93-2-12.52-9.83-16-19.59-20-17.27-7-117.48-45.85-170.16-67.28,5.16-4.38,8.92-8.87,15-15.06,3.54-3.59,7.73-8.83,11-12.81,6.43-7.82,11.16-15.33,18.15-23.47L934,1020c-3.17,5-6,9.28-8.57,13.72-2.36,4.13,1.58,8.93,7.47,9.69,2.76.36,5.42,1.76,8.15,1.81,1.69,0,4.2-1.15,5-2.54,2.21-4.08,9.39-20,16.1-16.84,7.83,3.65,15.66,7.26,14.55,16.3.42.43.84.85,1.27,1.27,16.13,6.79,32.18,13.78,48.41,20.31,13.07,5.26,26.66,9.34,39.43,15.22,5.38,2.48,8.23,1,12-1.78,2.31-1.68,5-2.83,7.4-4.38,4.69-3,5-5.65,1.07-9.56-10.85-10.9-21.72-21.77-32.87-33,2.32-2,4.43-3.88,6.56-5.72,3.68-3.2,3.54-6.22.06-9.65-11.5-11.31-41.91-42.37-54.09-52.45-2.06-1.71-9.08,5.64-10.92,7.67-1.67-2.12-6.76-5.31-8.16-7.08,1.79-3.14,5.23-6.86,6.6-9,15.82,4.82,35,9,50.58,14.79,6.31,2.34,12.87,7.46,13.44,15.2.92,12.38,7.48,21.77,14.12,31.34C1079.15,1026.26,1086.66,1037.22,1094.29,1048.1Zm-5.6-19.63-3.13-4.79c10.17-8.27,20.13-16.31,30-24.43,2.41-2,6.23-3.56,2.52-8.29,13-10.83,17.93-16.87,19.42-2C1122.68,1001.16,1104.08,1015.79,1088.69,1028.47Zm141.36-24.37c-4.54,3.6-8.58,7.84-13,11.6a5.14,5.14,0,0,1-3.8.6c-12.17-2.26-22.34-8.42-32.09-15.81-13.31-10.09-27.1-19.54-40.64-29.33a223.51,223.51,0,0,0-20.88-12.45c5.33-6.18,6-6.2,11.25-1.61a27,27,0,0,0,6,4.46c1.07.5,3.57.56,4.25-1.13.18-.47,0-2.94-.86-3.6-4.73-3.87-9.62-7.56-14.61-11.08a3.82,3.82,0,0,0-3.59.22c-8.39,7-16.76,14.11-24.77,21.58-1.11,1-1.11,4.81-.11,6.31,4.65,6.94,9.83,13.53,14.73,20.12l-29.33,24c-9.3-8.09-16.17-21.31-18.3-35,9.93-1.8,19.78-8.17,23.87-11,8.45-5.78,13-10.47,16.78-16.86,6.13-10.33,4.68-16.88,1.45-20.14-5-5.1-9.72-10.19-10.15-17.43l9.4-4.71c11.09,10.83,18.44,18.15,30.17,29.46,9.55,9.2,10.19,9.3,16.51,4.52.87-.66,1.78-1,5.23-3.45,7.57,8.08,15.05,16.23,22.71,24.19,3.56,3.7,7.45,7.1,11.28,10.53.74.67,2.44,1.52,2.75,1.24,3.8-3.41,7.89-6.68,10.85-10.75,1.22-1.67.82-5.73-.4-7.77-8.92-14.89-18.28-29.52-27.41-44.29-2.32-3.75-4.29-7.71-6.44-11.61-10.43-18.28-16-14.65-19.3-18.28-2.68-2.94-4.8-5.4-7.5-8.19-3.33-3.44-1.68-6.68,3.28-6.69,4.71,0,8.92-1.73,5.32-7.2-5-7.57-5.49-7.45-11.18-6.86-2.2.23-6.44-.77-7.43-2.13-4.57-6.32-9.19-13.07-14-19.16-14-17.66-28.36-35-42.59-52.53-1.15-1.4-2.46-2.66-4.49-4.84,22.49-7.44,31.08-12.84,35.32-15.69C1134.5,800,1199,891.82,1203,897.11a10.57,10.57,0,0,0,4.93,3.11c7.6,2.56,15.45,4.46,22.83,7.53,2.73,1.14,4.72,4.63,6.51,7.4,4.91,7.6,9.54,15.38,13.91,22.49-5.12,4-10.07,7.29-14.33,11.34-1.69,1.6-3.23,5.42-2.46,7.2,3,6.93-2,9.15-6.33,13-4.78,3.44-4.73,6.11-2.84,10.91,2.16,5.52,4.35,11,6.49,16.57C1232.83,999.43,1232.93,1001.83,1230.05,1004.1Zm8.38-8.06c-2.54-6.28-5.09-12.42-7.43-18.64-.21-.56.7-1.79,1.37-2.38,2.43-2.15,5.07-4.06,7.47-6.23,2.66-2.39,5.37-4.42,3.33-9.12-1.92-4.44,2.55-6.9,5.33-9.15,3.58-2.89,6.28-5.48,10.57-8.13,4.6,7.54,10.38,15,14.39,21.61ZM875.27,476.52c2,10.73,17.42,16.21,26.35,14.28,2.82-.61,4.11-2.75,4.7-5.4a16.31,16.31,0,0,0-9.38-18.2,27.41,27.41,0,0,0-13.53-2.52C876.52,465.18,874,469.64,875.27,476.52Zm-259,184.55c-5.18-4.76-7.86-6.32-11.93-9.29-2.23-1.62-4.62-3-6.84-4.32a8.75,8.75,0,0,0-5.48-1.14,30,30,0,0,0-7.42,1.41c-2.39.94-4.29,3.24-1.34,6,1.33,1.22,2.69,2.42,4.12,3.53,7.24,5.64,14.43,11.35,21.82,16.8,1.91,1.41,6.2,4.07,6.68,2.93.76-2,1.54-4,2.28-6a11.5,11.5,0,0,0,1-3.06C619.31,665.19,619.7,664.16,616.26,661.07ZM373,804.61c-14.91-.14-20,9.12-20.87,19.8-.72,8.92,8.59,16.52,19,16.52,12,0,20.41-7.73,20.41-18.75C391.52,812.28,383.44,804.7,373,804.61Z"/></g><g id="Thrusters"><path d="M513.88,941c-7.22-.06-15.13,7.81-15.14,15.05,0,6.09,6.57,13.13,12.77,13.66s16.25-9.48,16.29-16C527.84,948.06,520.21,941.09,513.88,941Zm517.84-356.85c-8.46-5.23-20.42-6.46-18.7-1.36,2.88,6.63,15.71,15.28,22,14.93a3.16,3.16,0,0,0,2.28-1.55c.3-.69,1.33-2,1.27-2.81C1038.27,589.6,1034.41,585.85,1031.72,584.18Zm-150-111.74c-1.66,5.55,6.22,9.76,11.83,11.23,1.42.37,7.29,1.65,7.29-.12a10.3,10.3,0,0,0-2.48-7C894.56,472.53,883.55,467.58,881.77,472.44Zm-504,340.11c-1-.2-2.23-.51-3.7-.72a12.33,12.33,0,0,0-11.26,4.5,27.06,27.06,0,0,0-2.5,3.57c-2,3.53.92,10.54,3.71,11.74,4.3,1.84,9.19,1.67,13.92,1a7,7,0,0,0,4.86-3.12,9.38,9.38,0,0,0,1.57-6.59C384,820.07,381.36,813.26,377.79,812.55Z" fill="#007aff"/></g></g></svg>