<svg xmlns="http://www.w3.org/2000/svg" viewBox="0 0 1500 1500"><title>Vulture</title><g id="Vulture"><g id="Colour"><path d="M1355.87,972.26c-6.19-14.51-12.52-29-18.87-43.41q-18.48-42.06-37-84.1c-15.94-36.24-31.79-72.52-47.93-108.67a10.34,10.34,0,0,0-6.42-5.28c-14.13-2.61-28.38-4.54-42.55-7-2.56-.43-5.74-1.39-7.2-3.24-2.37-3-3.45-7-5.25-10.46-2.86-5.53-4.88-11.92-9-16.32-16.6-17.78-33.85-35-50.88-52.32-6.73-6.87-13.6-13.6-20.26-20.54-12.75-13.29-25.23-26.85-38.19-39.93-4.57-4.61-8.49-8.87-7.14-15.94.24-1.25-.48-2.81-1.07-4.08-6.88-14.92-14-29.75-20.72-44.73-8.95-19.85-17.59-39.85-26.49-59.73-9.73-21.75-19.63-43.43-29.4-65.16-6.17-13.74-12.06-27.62-18.44-41.26-4.17-8.92-7.41-18.44-15.78-24.87-6.17-4.74-11.91-10.06-17.63-15.34-15.8-14.56-31.48-29.24-47.22-43.86-10.2-9.47-20.38-19-30.71-28.3a6,6,0,0,0-4.52-1c-16.34,3.21-32.66,6.57-49,9.94-28.07,5.81-56.16,11.54-84.19,17.53-17.67,3.78-35.23,8.1-52.88,12-20.63,4.53-41.32,8.79-62,13.25-11.36,2.46-22.67,5.19-34.06,7.56a10.62,10.62,0,0,1-10.41-3.27,72.3,72.3,0,0,0-11-9.71,11.67,11.67,0,0,0-7.91-1.66c-11.63,2.08-23.15,4.77-34.75,7.05-8.39,1.66-8.77,2.41-4,9.62.68,1,1.24,2.12,1.86,3.17-4.59,3.19-5.31,5.57-2.39,8,5.91,4.87,11.89,9.64,17.73,14.58,13.24,11.19,26.41,22.46,39.64,33.73a8.81,8.81,0,0,1-1.39,1.2c-12.74,7.68-25.6,15.18-38.23,23.05-10.3,6.41-10.19,6.6-5.59,17.8,2.24,5.46.68,11.57-4.54,14-6.3,2.92-13,4-19.38-.38a71,71,0,0,0-8.68-5.37,6.32,6.32,0,0,0-5-.21c-5.54,2.94-10.81,6.39-16.31,9.42a5.17,5.17,0,0,1-4.19.22q-11-5.61-21.66-11.66-31.83-17.93-63.58-36c-3.05-1.73-5.52-1-7.6,1.66-3.75,4.84-7.52,9.65-11.25,14.5-3,3.84-6.81,7.34-8.55,11.68-1.88,4.71-1.55,10.26-2.6,15.35-1.37,6.74-.21,13.92-5,20.06-14,17.85-27.52,36-41.24,54.05q-14.37,18.9-28.77,37.79c-8,10.44-16.05,20.79-23.94,31.29-12.21,16.24-24.27,32.6-36.43,48.87s-24.45,32.46-36.55,48.78c-3,4-2.75,16.45.26,19C177,679.87,184.36,686,191.77,692c8.65,7.07,17.44,14,26.06,21.1,14.35,11.85,28.6,23.82,43,35.81-2.76,1.74-5.06,3.41-7.54,4.72-11.65,6.14-21.62,14.78-33.89,20.31s-22.83,14.82-34,22.64c-2.16,1.51-5.4,3.91-5.31,5.75.3,6,0,13.56,3.43,17.47,7.22,8.23,16.62,14.57,25.19,21.61Q229.8,858.78,251,876c9.77,8,19.58,16,29.29,24,12.1,10.08,24.1,20.31,36.18,30.42,8.08,6.77,16.13,13.6,24.44,20.08a22,22,0,0,0,8.92,4.25c11.1,2.13,22.3,3.77,33.46,5.53q18.12,2.86,36.25,5.58c11.37,1.7,22.78,3.22,34.14,5,12.25,1.91,24.44,4.15,36.69,6,16,2.38,32.09,4.39,48.11,6.76,13.68,2,27.31,4.38,41,6.46,10.49,1.6,21,2.9,31.51,4.52,10.82,1.68,21.6,3.62,32.4,5.4,13.28,2.18,26.55,4.45,39.86,6.41,5.91.87,12.29,2.89,17.09-2.88,3.51-4.22,6.64-3.17,10.34-.14,13.24,10.87,26.5,21.73,40,32.28,20.56,16.07,41.3,31.91,62,47.76,4.48,3.42,8.4,8.26,15.22,6.93.73-.14,2.42,1.58,2.69,2.67a69.88,69.88,0,0,1,1.43,9.6c.82,8.64,1.21,17.33,2.37,25.93,1.05,7.76,4.39,14.1,13.36,15.18a48.6,48.6,0,0,1,5.92.74c14.06,3.46,28.05,7.24,42.16,10.5,26.51,6.12,53.11,11.83,79.62,18,17.42,4,34.7,8.66,52.11,12.74a118.55,118.55,0,0,0,16.52,2.31c2.25.21,4.76-1.29,6.88-.81,19.54,4.41,39,9.26,58.55,13.63,9.08,2,18.43,5,27.49,4.49,16.85-.9,33.59-3.94,50.35-6.27,5.48-.76,11.75-.71,16.13-3.46,10.48-6.58,19.29-15.22,21.06-28.49.22-1.65-1-4.74-2.26-5.13-4-1.26-3-3.83-2.7-6.52.71-5.4,1.35-10.81,1.92-15.4,2.18.49,5.2,1.33,8.29,1.83,9.15,1.48,16.72-3.69,23.06-8.33,11.66-8.54,24.2-16.58,32.19-29.34a3.61,3.61,0,0,1,1.59-1.49c6.89-2.4,7.47-8.5,7.26-14.09-.55-14.89-5.1-28.86-11.33-42.31-1-2.07-1.94-4.12-2.91-6.18,6.3,3.22,11.11,7.67,16.65,10.87,11.7,6.77,19.15,17.2,25.82,28.35,5,8.4,4.6,8.19,12.62,3.25,9.83-6.07,14.7-15.45,16.21-26,2.12-14.85,2.52-30,3.58-45q1.18-16.82,2.14-33.65A13.35,13.35,0,0,0,1355.87,972.26Z" fill="#324661"/><path d="M1355.87,972.26c-6.19-14.51-12.52-29-18.87-43.41q-18.48-42.06-37-84.1c-15.94-36.24-31.79-72.52-47.93-108.67a10.34,10.34,0,0,0-6.42-5.28c-14.13-2.61-28.38-4.54-42.55-7-2.56-.43-5.74-1.39-7.2-3.24-2.37-3-3.45-7-5.25-10.46-2.86-5.53-4.88-11.92-9-16.32-16.6-17.78-33.85-35-50.88-52.32-6.73-6.87-13.6-13.6-20.26-20.54-12.75-13.29-25.23-26.85-38.19-39.93-4.57-4.61-8.49-8.87-7.14-15.94.24-1.25-.48-2.81-1.07-4.08-6.88-14.92-14-29.75-20.72-44.73-8.95-19.85-17.59-39.85-26.49-59.73-9.73-21.75-19.63-43.43-29.4-65.16-6.17-13.74-12.06-27.62-18.44-41.26-4.17-8.92-7.41-18.44-15.78-24.87-6.17-4.74-11.91-10.06-17.63-15.34-15.8-14.56-31.48-29.24-47.22-43.86-10.2-9.47-20.38-19-30.71-28.3a6,6,0,0,0-4.52-1c-16.34,3.21-32.66,6.57-49,9.94-28.07,5.81-56.16,11.54-84.19,17.53-17.67,3.78-35.23,8.1-52.88,12-20.63,4.53-41.32,8.79-62,13.25-11.36,2.46-22.67,5.19-34.06,7.56a10.62,10.62,0,0,1-10.41-3.27,72.3,72.3,0,0,0-11-9.71,11.67,11.67,0,0,0-7.91-1.66c-11.63,2.08-23.15,4.77-34.75,7.05-8.39,1.66-8.77,2.41-4,9.62.68,1,1.24,2.12,1.86,3.17-4.59,3.19-5.31,5.57-2.39,8,5.91,4.87,11.89,9.64,17.73,14.58,13.24,11.19,26.41,22.46,39.64,33.73a8.81,8.81,0,0,1-1.39,1.2c-12.74,7.68-25.6,15.18-38.23,23.05-10.3,6.41-10.19,6.6-5.59,17.8,2.24,5.46.68,11.57-4.54,14-6.3,2.92-13,4-19.38-.38a71,71,0,0,0-8.68-5.37,6.32,6.32,0,0,0-5-.21c-5.54,2.94-10.81,6.39-16.31,9.42a5.17,5.17,0,0,1-4.19.22q-11-5.61-21.66-11.66-31.83-17.93-63.58-36c-3.05-1.73-5.52-1-7.6,1.66-3.75,4.84-7.52,9.65-11.25,14.5-3,3.84-6.81,7.34-8.55,11.68-1.88,4.71-1.55,10.26-2.6,15.35-1.37,6.74-.21,13.92-5,20.06-14,17.85-27.52,36-41.24,54.05q-14.37,18.9-28.77,37.79c-8,10.44-16.05,20.79-23.94,31.29-12.21,16.24-24.27,32.6-36.43,48.87s-24.45,32.46-36.55,48.78c-3,4-2.75,16.45.26,19C177,679.87,184.36,686,191.77,692c8.65,7.07,17.44,14,26.06,21.1,14.35,11.85,28.6,23.82,43,35.81-2.76,1.74-5.06,3.41-7.54,4.72-11.65,6.14-21.62,14.78-33.89,20.31s-22.83,14.82-34,22.64c-2.16,1.51-5.4,3.91-5.31,5.75.3,6,0,13.56,3.43,17.47,7.22,8.23,16.62,14.57,25.19,21.61Q229.8,858.78,251,876c9.77,8,19.58,16,29.29,24,12.1,10.08,24.1,20.31,36.18,30.42,8.08,6.77,16.13,13.6,24.44,20.08a22,22,0,0,0,8.92,4.25c11.1,2.13,22.3,3.77,33.46,5.53q18.12,2.86,36.25,5.58c11.37,1.7,22.78,3.22,34.14,5,12.25,1.91,24.44,4.15,36.69,6,16,2.38,32.09,4.39,48.11,6.76,13.68,2,27.31,4.38,41,6.46,10.49,1.6,21,2.9,31.51,4.52,10.82,1.68,21.6,3.62,32.4,5.4,13.28,2.18,26.55,4.45,39.86,6.41,5.91.87,12.29,2.89,17.09-2.88,3.51-4.22,6.64-3.17,10.34-.14,13.24,10.87,26.5,21.73,40,32.28,20.56,16.07,41.3,31.91,62,47.76,4.48,3.42,8.4,8.26,15.22,6.93.73-.14,2.42,1.58,2.69,2.67a69.88,69.88,0,0,1,1.43,9.6c.82,8.64,1.21,17.33,2.37,25.93,1.05,7.76,4.39,14.1,13.36,15.18a48.6,48.6,0,0,1,5.92.74c14.06,3.46,28.05,7.24,42.16,10.5,26.51,6.12,53.11,11.83,79.62,18,17.42,4,34.7,8.66,52.11,12.74a118.55,118.55,0,0,0,16.52,2.31c2.25.21,4.76-1.29,6.88-.81,19.54,4.41,39,9.26,58.55,13.63,9.08,2,18.43,5,27.49,4.49,16.85-.9,33.59-3.94,50.35-6.27,5.48-.76,11.75-.71,16.13-3.46,10.48-6.58,19.29-15.22,21.06-28.49.22-1.65-1-4.74-2.26-5.13-4-1.26-3-3.83-2.7-6.52.71-5.4,1.35-10.81,1.92-15.4,2.18.49,5.2,1.33,8.29,1.83,9.15,1.48,16.72-3.69,23.06-8.33,11.66-8.54,24.2-16.58,32.19-29.34a3.61,3.61,0,0,1,1.59-1.49c6.89-2.4,7.47-8.5,7.26-14.09-.55-14.89-5.1-28.86-11.33-42.31-1-2.07-1.94-4.12-2.91-6.18,6.3,3.22,11.11,7.67,16.65,10.87,11.7,6.77,19.15,17.2,25.82,28.35,5,8.4,4.6,8.19,12.62,3.25,9.83-6.07,14.7-15.45,16.21-26,2.12-14.85,2.52-30,3.58-45q1.18-16.82,2.14-33.65A13.35,13.35,0,0,0,1355.87,972.26Z" fill="none" stroke="#000" stroke-linejoin="round" stroke-width="8"/></g><g id="Grey"><path d="M1036.8,1030.76c-8.86,7.39-19.2,15.24-28.45,22.94,3.58,3.55,6.76,8.26,12.41,10.27,8.3,3,19,14.7,26.44,19.93,8.51-6.88,20.47-18.57,29.13-25.57-7-5.2-15.51-13.38-22.49-18.42C1051.56,1038.26,1041.64,1028.49,1036.8,1030.76ZM893.65,485.33c-5.68,1.34-27,8.84-26.65,12.69s28.67,18.65,33.06,18.65S923,507,921.33,499.52,896.91,484.57,893.65,485.33Zm377.27,410c.24-6.16-26.06-28.78-29.25-28.53s-26.09,18-26.42,23,25.33,27.33,30.75,27.58S1270.58,903.58,1270.92,895.28Zm-6-124-21.24-38.19-49.53-8.7,6.52,38.66,12,8.51,53.09,10.63,35.17,89.87-17.84,3,17.84,42.56,23.12-.91,29.7,57.18-3.81,60.6-18.92,37.1-5.5-14.39L1300.92,1029l-31.16-18,.74,29.14L1274,1091l-38.37,23-11.69-12.93-33.73-12.8-16.56,19.9,17.07,21.87,26,9.38L1210,1156l-71.9,2.45L1066.44,1129l4-20-54.22-18.89-6.11,21.45L905,1075.42l.7-8.26-11.36-11.55-35.64-46.95-31.64-2-3.7,5.82,16,108.89L1135.16,1190l69.58-8.8,9.35-17.6,5.54-23.74,35.54-12.82,25.66-23,4.17-43.21s-9.82-24.46-7.43-23.54c26.12,10,45,39.71,48.67,42.93s23.69-35.1,23.69-35.1l5.32-71.16ZM737.09,601.45l110.19,79.42-7,15.65,2.54,19,82.69,84.93,18.17.83,19.67-20.08L986.83,806s-3.28,23.58-.13,37.13c4,17,10.13,26,10.13,26l44.52,74.8,3.27,24.1,50.08,57.84,35.17-5.66-22.79-28.17,49.21-39,9.63-2.68L1193.16,930l3.91-9.08,15.59-10.45L1115,801.3l-82.78-67.93L1047.17,722,950.31,608.8l-68.88-57.08-13.89,8.4L806.76,520.8l-15.49-6.53-32.9-27,9.82-13.46-15.11-12.12L584,316.47l191.4-28.08h16.5l130.9,65.21,128.77,214.55c3.76,6.74,9.86,3.41,9.86,3.41,2.29-1.84,2.63-6.73,1.38-9.39L955.68,332.56,854.4,237.76l-290.46,61.6L546.59,286l-43.43,8.07L746.22,498.65,867.33,578.9l63.5,48L1027.57,749l-48.49,46.44L852.55,667.92,664.2,537.3,367.59,371.75l-22.83,32.17-1.41,25.82-173.49,231,30.8,34.65s62.55,53.08,62.9,53.08-78.95,54.28-78.95,54.28l159.6,139.87,357.78,55L710.33,982l-59-95.3.69-9.79L644,869.33l-18.68-1.68L334.41,731.47,263.56,605.86,383,425.43,591,537.67l-3.88,32.13,26.32,14.51,12.37-3.73L659.27,550ZM602.56,682.83c0,8.13,18.76,19.07,21.44,19.34,3.79.37,27.1-15.53,28.76-22.5s-18.8-24.15-23.43-26C625.35,652,602.56,674.69,602.56,682.83Z" fill="#889a9d"/></g><g id="Canopy"><path d="M1269.28,999.56c-1.11-32.83-8.16-40.85-8.16-40.85l-51.88-46.12s-10.53,7.77-12.17,8.33-3.62,8-3.62,8l-26.07,20.8-6.27,1.76-55.89,38.35,24.65,30.46-30.1,4.84,13.15,20.46,74.26,39.48s36,20.13,54.32,19.69,14.1-3.65,20.37-13.74S1270.39,1032.39,1269.28,999.56Z" fill="#82b3d1"/></g><g id="Shadows" opacity="0.2"><path d="M1129.48,1152.45l-283-86.22L823.43,1062,660.69,901.76l-10.5-22.07-25.43-2.44S304,763,299.24,761s-72.06-58.15-72.06-58.15l-9.35,10.3L266,751.72l-80.65,44.87-1.56,12.74,153.38,138.3,80.55,13.67,288,35.8L827,1080.18l5.09,27.49,11.82,28,207,51.52,56.47,7.14,21-2.9-2.34-8.07,31.6,4,27-31.37-40,4ZM1233.73,1062l-19.49-17-6.89-10.43-5-34.52h-7.54l-50-33.42-34.07-2.57-4.4-6.87-71.07-70.42h-7.4l-27.71-9.59-20.91-12.81-12.56-52.53-14.17-19.16L937.67,802.9l-11-2.43-83.86-85L840.26,699,675.78,578.9l-328.19-179-2.83,4,15.79,31.52,4.39,22.71L598.19,596.71,756,713.1l169,178,34.39,48.77,44,90.51,99.08,68,49.85,27,55.09,10.63,20.11-.36,25.93-33,3.13-9.22-6.84-2.48Zm-206-282c.51-.52,4.45-35.57,4.45-35.57L903.35,620.79,567.11,389.64l-63.16,41L846.49,625.48S1027.26,780.54,1027.77,780Zm292.1,230.09-20.41-30.37-31-15.67v66.86l9.07,6.32,31,23.54,18.72,23.11,12.54-29.57Z" fill="#111"/></g><g id="Outline"><path d="M1355.87,972.26c-6.19-14.51-12.52-29-18.87-43.41q-18.48-42.06-37-84.1c-15.94-36.24-31.79-72.52-47.93-108.67a10.34,10.34,0,0,0-6.42-5.28c-14.13-2.61-28.38-4.54-42.55-7-2.56-.43-5.74-1.39-7.2-3.24-2.37-3-3.45-7-5.25-10.46-2.86-5.53-4.88-11.92-9-16.32-16.6-17.78-33.85-35-50.88-52.32-6.73-6.87-13.6-13.6-20.26-20.54-12.75-13.29-25.23-26.85-38.19-39.93-4.57-4.61-8.49-8.87-7.14-15.94.24-1.25-.48-2.81-1.07-4.08-6.88-14.92-14-29.75-20.72-44.73-8.95-19.85-17.59-39.85-26.49-59.73-9.73-21.75-19.63-43.43-29.4-65.16-6.17-13.74-12.06-27.62-18.44-41.26-4.17-8.92-7.41-18.44-15.78-24.87-6.17-4.74-11.91-10.06-17.63-15.34-15.8-14.56-31.48-29.24-47.22-43.86-10.2-9.47-20.38-19-30.71-28.3a6,6,0,0,0-4.52-1c-16.34,3.21-32.66,6.57-49,9.94-28.07,5.81-56.16,11.54-84.19,17.53-17.67,3.78-35.23,8.1-52.88,12-20.63,4.53-41.32,8.79-62,13.25-11.36,2.46-22.67,5.19-34.06,7.56a10.62,10.62,0,0,1-10.41-3.27,72.3,72.3,0,0,0-11-9.71,11.67,11.67,0,0,0-7.91-1.66c-11.63,2.08-23.15,4.77-34.75,7.05-8.39,1.66-8.77,2.41-4,9.62.68,1,1.24,2.12,1.86,3.17-4.59,3.19-5.31,5.57-2.39,8,5.91,4.87,11.89,9.64,17.73,14.58,13.24,11.19,26.41,22.46,39.64,33.73a8.81,8.81,0,0,1-1.39,1.2c-12.74,7.68-25.6,15.18-38.23,23.05-10.3,6.41-10.19,6.6-5.59,17.8,2.24,5.46.68,11.57-4.54,14-6.3,2.92-13,4-19.38-.38a71,71,0,0,0-8.68-5.37,6.32,6.32,0,0,0-5-.21c-5.54,2.94-10.81,6.39-16.31,9.42a5.17,5.17,0,0,1-4.19.22q-11-5.61-21.66-11.66-31.83-17.93-63.58-36c-3.05-1.73-5.52-1-7.6,1.66-3.75,4.84-7.52,9.65-11.25,14.5-3,3.84-6.81,7.34-8.55,11.68-1.88,4.71-1.55,10.26-2.6,15.35-1.37,6.74-.21,13.92-5,20.06-14,17.85-27.52,36-41.24,54.05q-14.37,18.9-28.77,37.79c-8,10.44-16.05,20.79-23.94,31.29-12.21,16.24-24.27,32.6-36.43,48.87s-24.45,32.46-36.55,48.78c-3,4-2.75,16.45.26,19C177,679.87,184.36,686,191.77,692c8.65,7.07,17.44,14,26.06,21.1,14.35,11.85,28.6,23.82,43,35.81-2.76,1.74-5.06,3.41-7.54,4.72-11.65,6.14-21.62,14.78-33.89,20.31s-22.83,14.82-34,22.64c-2.16,1.51-5.4,3.91-5.31,5.75.3,6,0,13.56,3.43,17.47,7.22,8.23,16.62,14.57,25.19,21.61Q229.8,858.78,251,876c9.77,8,19.58,16,29.28,24,12.11,10.08,24.11,20.31,36.19,30.42,8.08,6.77,16.13,13.6,24.44,20.08a22,22,0,0,0,8.92,4.25c11.1,2.13,22.29,3.77,33.46,5.53q18.12,2.86,36.25,5.58c11.37,1.7,22.78,3.22,34.14,5,12.25,1.91,24.44,4.15,36.69,6,16,2.38,32.09,4.39,48.11,6.76,13.68,2,27.31,4.38,41,6.46,10.49,1.6,21,2.9,31.51,4.52,10.82,1.68,21.6,3.62,32.4,5.4,13.28,2.18,26.55,4.45,39.86,6.41,5.91.87,12.29,2.89,17.09-2.88,3.51-4.22,6.64-3.17,10.34-.14,13.24,10.87,26.5,21.73,40,32.28,20.56,16.07,41.3,31.91,62,47.76,4.48,3.42,8.4,8.26,15.22,6.93.73-.14,2.42,1.58,2.69,2.67a69.88,69.88,0,0,1,1.43,9.6c.82,8.64,1.21,17.33,2.37,25.93,1.05,7.76,4.39,14.1,13.36,15.18a48.6,48.6,0,0,1,5.92.74c14.06,3.46,28.05,7.24,42.16,10.5,26.51,6.12,53.11,11.83,79.62,18,17.42,4,34.7,8.66,52.11,12.74a118.55,118.55,0,0,0,16.52,2.31c2.25.21,4.76-1.29,6.88-.81,19.54,4.41,39,9.26,58.55,13.63,9.08,2,18.43,5,27.49,4.49,16.85-.9,33.59-3.94,50.35-6.27,5.48-.76,11.75-.71,16.13-3.46,10.48-6.58,19.29-15.22,21.06-28.49.22-1.65-1-4.74-2.26-5.13-4-1.26-3-3.83-2.7-6.52.71-5.4,1.35-10.81,1.92-15.4,2.18.49,5.2,1.33,8.29,1.83,9.15,1.48,16.72-3.69,23.06-8.33,11.66-8.54,24.2-16.58,32.19-29.34a3.61,3.61,0,0,1,1.59-1.49c6.89-2.4,7.47-8.5,7.26-14.09-.55-14.89-5.1-28.86-11.33-42.31-1-2.07-1.94-4.12-2.91-6.18,6.3,3.22,11.11,7.67,16.65,10.87,11.7,6.77,19.15,17.2,25.82,28.35,5,8.4,4.6,8.19,12.62,3.25,9.83-6.07,14.7-15.45,16.21-26,2.12-14.85,2.52-30,3.58-45q1.18-16.82,2.14-33.65A13.35,13.35,0,0,0,1355.87,972.26ZM1303,883.5c3.65,10,8.46,19.55,13,29.91l-11,2.06-17.27-38.34C1296.44,873.05,1299.91,875,1303,883.5Zm-52.82-97.42c2.91,2.12,6.49,3.28,9.7,5a6.94,6.94,0,0,1,3,2.49c2.39,4.8,4.53,9.73,6.89,14.91-11.37.81-22.21,1.42-33,2.49a8.16,8.16,0,0,0-5.35,3.47c-13.23,21.5-26.24,43.14-39.33,64.73a2,2,0,0,1-.65.51c-8-3.75-6.91-12.08-9.45-18.55-1.5-3.81-1.9-8-3.47-11.82-1.73-4.18-.78-7.68,1.22-11.28,8.48-15.18,17-30.33,25.36-45.59,2.82-5.16,1.56-10.78.69-16.21-.24-1.55-.61-3.08-1-4.74a1,1,0,0,1,1.7-.91c6.89,7.63,15.23,11.15,25.52,10.55a4.4,4.4,0,0,0,2-.61C1241.37,775.89,1245.32,782.54,1250.19,786.08Zm-2,187.84c5.11,6.52,10.21,12.19,14.24,18.54,1.76,2.78,1.41,6.93,1.88,10.47a105.79,105.79,0,0,1,1.09,10.78c.15,5.47.7,10.39-5.27,14.63-10.86,7.71-20.64,16.94-31.41,26-5.76-5.47-11.28-10.6-16.64-15.9a7.13,7.13,0,0,1-1.57-3.81c-1.17-7.45-2.41-14.9-3.12-22.39a8.27,8.27,0,0,1,2.2-6.15c7.41-6.62,15.14-12.87,22.79-19.22C1237.46,982.64,1242.61,978.48,1248.18,973.92Zm-6.68-27.11c14.92,13.48,20.4,21.93,22.54,34.53C1253,972.37,1246.36,960.18,1241.5,946.81Zm22.23,89c-.56,8.81-1,16.29-1.51,23.77-.38,6.12-.26,12.34-1.37,18.33-.6,3.28-2.89,6.5-5.13,9.16-2,2.36-4,1.1-5.38-1.49-4.79-8.71-9.72-17.34-14.71-26.22Zm-31.37-66.9c-11.4,9.14-22.57,18.56-34.24,28.21-15.83-11.26-35.69-16.49-48.44-33.67,3.22-2.73,6.77-5.41,9.87-8.53.59-.6,3.06-1.08,5.45-2,1.64.08,3.85.87,4.83.1,8.65-6.81,17.1-13.89,25.55-20.94.79-.66,1.86-1.84,1.73-2.6-1.37-8.2,7.26-8.07,10.41-12.47.31-.44,2.63-.11,3.4.56,3.61,3.22,8,6.12,10.28,10.18,5.09,9.22,8.61,19.3,13.67,28.54C1237.93,961.81,1237,965.16,1232.36,968.89ZM897.3,1053.38c-1.26-.94-2-4.47-1.3-5.86,4.22-7.83,2.49-15.09-1.77-21.92-2.25-3.6-5.61-6.5-8.81-10.09,6.14.75,11.9,1.71,17.69,2.09,4.38.29,9.12.81,13.17-.45,15.2-4.7,30.18-10.11,45.25-15.23,13.35-4.53,26.67-9.14,40.11-13.4a8.65,8.65,0,0,1,6.39,1.17,150.68,150.68,0,0,1,16.08,11.74c3.45,3,6.39,2.22,9.27.09,4.78-3.54,9.28-7.48,14.65-11.86l3.59,4c-16,14.9-36.84,19.5-56.17,27.22-15.7,6.27-31.61,12-47.46,17.94-6,2.22-9.7,5.8-10.45,12.64-1,9.08-2.71,18.09-4.48,27.06-.21,1-3,2.64-4,2.31-7-2.16-13.86-4.78-21.27-7.43C910.34,1063.57,904.12,1058.45,897.3,1053.38Zm148.58-101.33c.16-9.08-5.39-15-9.34-21.91-4.46-7.75-13.11-22.4-17.75-30-5.44-8.83-10.35-16.81-15.46-25.13,3.59-1.66,6.81-3.75,10.32-4.61,6.35-1.57,9.15-6.33,11.62-11.47,3.59-7.51,4.68-15,.9-23.07-2.16-4.59-3.08-9.78-4.53-14.63,5-4.54,13.61-1.89,16.52-7.78L1058.57,834c-6.65,4.4-6.77,5.06-4.22,14.12,2.18,7.77,5.27,15.28,8.52,24.49-4.16,1.75-9.62,4.29-15.26,6.35-7.36,2.69-14.79,5.29-22.35,7.34-3.51,1-4.22,2.65-4,5.78.06,1.22.09,2.45.09,3.76h0c1,7.27,12.38,20.21,17.14,25.16,10.37,10.81,20.74,21.62,31.24,32.31q14.91,15.18,30.14,30.06c1.53,1.5,3.86,2.18,5.61,3.12-1,1.3-3.8,3.41-3.54,5,.38,2.28,2.89,4.31,4.71,6.23,6.42,6.78,12.94,13.47,19.38,20.23l-27.7,4q-9.18-10.47-18.39-20.91c-4.33-4.91-8.81-9.69-13.33-14.43-1.65-1.73-9.17-11.46-10.89-12.75C1048.19,968.24,1045.73,960.35,1045.88,952.05ZM925,785.46c-7-7.76-7.75-8.07-11.17-5.31-13.82-12.79-27.49-25.29-41-38a161.83,161.83,0,0,1-12.9-14c-1.39-1.67-3-4.72-2.36-6.23,2.6-6.12-2.27-8.74-5.24-11.85-1.22-1.28-4.51-.59-7.44-.85-3.44-7.54-3.06-9.93,3.45-16.41,3.85-3.84,7.77-7.61,12-11.71l96.95,100.63c-3.43,3.87-6.8,7.34-9.78,11.11-3.46,4.37-5.78,5.12-12,5.4-4.79.21-8-.88-12.2-3.48C926.38,791.13,928.24,789,925,785.46ZM860.25,639.6l21.18,25.69L866,676.18l-25.76-23.81Zm-34.43-3.49c-3.6,2.57-6.54,3.24-10.88.19-22.59-15.9-45.59-31.22-68.33-46.92-15.06-10.4-29.92-21.1-45.25-31.93,8.84-5.8,17.41-11.72,26.33-17.06,1.88-1.12,5.25-.82,7.53,0,10.73,3.69,20.18,9.71,29.5,16.12,3.51,2.41,4.71,5.19,5.82,8.78.75,2.4,2,5.23,3.86,6.6,11.36,8.16,23,15.94,34.52,23.89,4,2.76,7.81,5.76,11.83,8.47,4.26,2.89,8.26,6.6,14.15,5.33,7.42-1.6,12,3.26,17.39,7.64C843.05,623.79,834.43,629.94,825.82,636.11Zm117.41,52.53a15.64,15.64,0,0,0-11.91,3.75c-9.51,7.61-19.09,15.13-29.17,23.1l-26.26-27.8c5.41-4.14,10.76-8.35,16.23-12.39,5.87-4.34,6.17-5.78,1-10.86-8.4-8.21-17-16.21-25.49-24.32-1.3-1.24-2.49-2.61-4.2-4.41,5.42-3.68,10.19-9,15.79-10.07,4.58-.9,11.09,2,15.08,5.28,10.67,8.74,20.36,18.66,30.6,27.94,9,8.14,18.16,16.08,27.31,24,1.84,1.6,4,2.89,5.91,4.34a.83.83,0,0,1-.5,1.51C952.81,688.69,948,689.12,943.23,688.64Zm-5.56-60.32c6.18-6.26,7.51-6.38,13.24-.55,14.06,14.34,28.14,28.68,42,43.18,7.28,7.6,14,15.73,21.32,23.29,6,6.21,12.58,11.85,18.76,17.89,2.84,2.77,5.36,5.87,8,8.86-7.74,5.68-7.87,5.81-14.21-.85-9.78-10.28-19.27-20.83-29-31.1-3.42-3.59-7.53-6.52-11-10.07Q962.15,653.72,937.67,628.32ZM987.4,504.53c6.85,4.08,14.47,7,20.93,11.6,5,3.56,8.71,8.93,13.09,13.6l-2.87,5.19c-4.19-6.09-6.32-6.15-15.06,0-1.94-4.79-5.17-3.9-8.63-1.81s-9.05,3-5.75,9.25c-13.86,7.47-27.36,14.78-40.92,22-1.16.61-3.6.93-4.13.29-4.91-5.86-9.79-.21-11.78,1.86-.91.94-1.72,4.49-1.46,7.41-2.75,1.61-5.43,3.35-8.27,4.77a3.61,3.61,0,0,1-3.2-.13c-6.54-5.61-13.12-11.19-19.32-17.16-3.61-3.49-6.56-7.67-10.08-11.86l39.57-20.11q24.4-12.39,48.82-24.77C981.29,503.07,984.09,502.55,987.4,504.53ZM651.34,317.38c7.61-1.73,14.39-3.42,21.24-4.8,10.54-2.11,21.11-4,31.68-6,16.9-3.16,33.83-6.24,50.72-9.49,9.5-1.82,18.9-4.13,28.43-5.75,3.17-.53,7.07-.55,9.83.82,17.62,8.77,35,18.06,52.48,27,14.95,7.67,30,15.13,45,22.73,8.92,4.53,17.85,9.05,26.63,13.82a13.85,13.85,0,0,1,4.78,4.84q29,46.89,57.88,93.88c11.36,18.49,22.62,37,33.93,55.59a.69.69,0,0,1-.92,1ZM938.91,571c3.29-2.73,5.08,4.84,12.69.73,14.72-7.93,29.15-16.39,43.94-24.18,4.52-2.38-3.43-5.26,1.66-7.85,3.6-1.23,3.71,4.24,9.47,1.52,4.75-2.25,6.38-1.27,9,1.65,1,1.07,2.34,1.77,4.22,3.16-19.91,10.67-38.76,20.71-57.56,30.85-6.87,3.7-14,7.12-20.31,11.59-4.47,3.16-7.06,2.23-9.93-1.45a33.06,33.06,0,0,0-2.55-2.75C943.3,576.48,934.5,573.18,938.91,571ZM1022,554.27c10.59,11,21.52,22.23,33.35,34.45-13,3.36-17.73,10.45-12,22.6-10.4,5.85-20.91,10.69-30.14,17.32-6.93,5-12.86,3.12-18.85.32-6.32-3-11.33-1.57-16.41,2.25l-33.16-34.64Zm42.94,190.32c15.85,5,31.81,9.65,47.66,14.65a11.5,11.5,0,0,1,5.74,4.08c11.71,17.42,23.17,35,34.78,52.5,5.36,8.06,11.72,15.59,16.08,24.15,3.65,7.18,4.49,15.8,6.92,23.61a.62.62,0,0,1-1.09.54c-4.6-6.46-9.89-12.49-14-19.25-16-26.34-31.61-52.88-47.51-79.27a9.4,9.4,0,0,0-4.91-3.93c-13.94-3.94-27.82-8.33-42-11.09-11.77-2.29-19.61-9.06-27.86-19.28,4.17-1.18,7.43-1.84,10.45-3.08,1.48-.6,2.52-2.27,3.53-3.23l11,11.44c-.76,1.15-2.7,2.8-2.65,4.39C1061.18,742.15,1063.34,744.09,1064.93,744.59Zm38.59,203.9c-20.13-20-39.87-40.5-60.27-61.3,4.71-1.71,9-3.29,13.39-4.85.67-.24,1.41-.3,2-.6,3.37-1.58,7.79-5.39,9.83-4.38,4.52,2.25,8,6.77,11.62,10.62,8.46,9,16.67,18.24,25.24,27.13,1.42,1.48,4.14,1.81,6.33,2.42q21.39,5.93,42.81,11.76a12.25,12.25,0,0,1,1.77.88c-7.56,5.76-14.66,11-21.5,16.51a11.2,11.2,0,0,0-3.47,5.72c-2.5,10.27-10.7,16.33-16.13,24.41-1.28,2-2.62,1.78-1.51-3.56C1115.89,962.64,1110.56,955.51,1103.52,948.49Zm3.14,32.16c-4-3.66-7.11-6.28-9.94-9.18-7.55-7.76-14.87-15.75-22.49-23.45-13.89-14.06-27.79-28.13-42-41.87-3.71-3.58-5.27-7.14-4-12.12.15-.13.4-.36.67-.56,8.39-6,12.67.81,17.48,5.72,18,18.31,35.65,37,54.05,54.85C1108.05,961.5,1107.4,969.86,1106.66,980.65Zm46.84-58.43c-11.68-3.37-23.49-6.35-35.35-9.07-8.08-1.85-12.27-8.4-17.42-13.65-9.18-9.34-18-19-26.67-28.85a80.67,80.67,0,0,1-9.83-13.95c-2-3.65-2.42-8.2-3.8-12.21a.47.47,0,0,1,.78-.47l11.39,12.12c2.22,2.37,3.21,4,8,1,3.24,3-6.54,6.11.79,14.37,4.95,5.58,10.3,10.81,15.2,16.43,2.23,2.55,4.4,2.42,6.59.71,11-8.53,21.77-17.21,32.68-25.79,3.47-2.73,3.68-4.89.26-8.29-6.42-6.39-12.23-13.38-18.26-20.15-2-2.28-8.9,8.12-12.75,4.11,2.81-9.5-3.91-13.39-6.36-19.95,10.17,4,20.21,7.6,26.75,17.57,3.74,5.7,9.2,10.29,13.93,15.33,6.24,6.65,12.75,13.06,18.64,20,1.77,2.08,2.23,5.53,2.67,8.44q2.51,16.27,4.52,32.62c.4,3.18.17,5.87-3.32,8.31C1158.88,923,1157,923.22,1153.5,922.22Zm-88-84,25.42-18.58c2.39,4.22,4.55,8.32,7,12.25,1.5,2.42.74,3.75-1.33,5.24-6.42,4.6-12.73,9.34-19.38,14.24ZM1123.92,826c-1.91-6.32-5.8-7.37-12.86-10.49-2.89-1.28-8-4.11-10.92-5.44-7.87-3.62-11.87,1.17-15.17,3.77l-21.67-20c6.33-3.27,11.18,1.83,16.42,3.7,7.63,2.73,14.61,6.87,23.32,6.25,6.85-.5,21.4,11.52,23,18.14C1126.28,822.73,1125,824,1123.92,826Zm-134.8-73.37c6.08-4.46,9.35-7.06,4.79-15.09-2.28-4-3.75-8.5-6-13.71,2.06.4,3.93.18,4.85,1,9.08,8.19,18,16.55,26.47,24.4l-16.54,10.49c-.84-.79-2-1.73-3-2.81-2.29-2.57-4.91-3.19-7.61-1s-5.92,5-2.86,9.12c2.46,3.32.86,5.33-1.76,7.23-2.33,1.68-4.73,3.28-7,5-3.91,3.07-7.41,3.63-11.46-.17-1.27-1.19-8.65-1.53-9.73-2.71C969.48,767,979.3,759.78,989.12,752.59Zm.85,77.26c7-2.63,14.17-4.86,22-7.46.88,1.26,2.07,2.33,2.49,3.64q3.12,9.71,5.84,19.52a6.33,6.33,0,0,1-.27,3.87c-5,11.6-5.71,12.36-17.83,16.94-1.23.46-4.16-.78-4.79-2a98.38,98.38,0,0,1-6.86-16c-1.39-4.57-1.72-9.51-2.17-14.31C988.3,832.63,989,830.2,990,829.85Zm140.91,193.26c1.34,1.44,2.7,2.86,4,4.31,11.44,12.43,25.51,20,41.65,24.47,4.59,1.29,8.65,4.76,12.74,7.54,8.21,5.57,16.86,10.71,24.21,17.26,5.54,4.94,9.34,11.81,13.9,17.83.48.64.4,2.42.35,4.11-3.82-1.32-19.86-8-24.93-10.53-10-4.91-13.72-6.24-19.58-11.23s-12.43-9.18-18.91-13.39c-8.51-5.54-18.09-8.19-28.08-9.62-1.38-.19-15-5.66-17.68-8.71q-8.07-9.27-16.17-18.51Zm55.62,23.47c-.63.31-1.45.85-2,.67-7.63-2.44-15.56-4.28-22.78-7.65-12.66-5.91-22.18-16-31.71-26-5.81-6-11.52-12.17-17.2-18.33a20.78,20.78,0,0,1-2.18-3.52c4.19-1.73,16.4-6.42,20.19-8.39,1.12-.58,7.25-9.07,9.49-12.89,10.13,11.71,22.76,20.11,36.49,27.07,7.63,3.88,15.41,7.48,22.94,11.53,1.13.61,1.61,3,1.84,4.63,1.13,7.81,2.07,15.66,3.15,24.07C1198.89,1040.62,1192.7,1043.61,1186.5,1046.58ZM1204,911.1c-3,2.86-6.7,4.92-9.6,7.83-1.89,1.91-3.36,7.81-2.92,8.12-8.6,6.82-25.93,20.88-26,21.06-3.58.57-8,1.4-8.79,1.88-6.13,3.7-12.13,7.62-18,11.68-.5-1.28-.89-2.28-.93-2.52-1.14-6,3.47-7.81,7.06-10.69,15.9-12.75,31.64-25.7,47.49-38.52,2.23-1.8,4.54-3.74,7.14-4.73,1.56-.58,4,.17,5.56,1.16C1205.5,906.71,1205,910.13,1204,911.1Zm-31.81,5.76c-.86-5.55-1.68-10.71-2.44-15.88-1.49-10.12-2.89-20.25-4.45-30.36a7.37,7.37,0,0,0-1.75-3.74c-7.35-7.86-14.83-15.58-22.21-23.41-3.73-4-7.4-8-10.94-12.14a2.46,2.46,0,0,1-.43-1.44,1.52,1.52,0,0,1,1.54-1.63,2.14,2.14,0,0,1,1.46.39c8.53,8.75,17,17.53,25.36,26.47,6,6.43,11.66,13.16,17.61,19.64,6.9,7.51,14,14.88,21.12,22.51Zm50-183.71c5.12.86,10.21,2.66,15.32,2.68,6.12,0,4.14,7.53,4.16,10,0,.76.29,2.11-.57,2.62-10.37,0-19.85-9.88-31.05-1.18-5.59,5.62-5,17-7.7,10.29-.13-.78-4.26-26.05-4.62-28.3C1206,730.56,1214.12,731.79,1222.24,733.15ZM1166,698.79c5.16-3.41,6.24-6.1,7.26-5,7.86,8.64,12.57,19.25,16.86,29.78,3.31,8.12,3.46,17.54,4.94,26.38,1.19,7.09,2.28,14.2,3.39,21.3.78,5,1.57,9.92,2.22,14.9a4.78,4.78,0,0,1-.69,2.71q-11.78,21.5-23.65,42.93a26.89,26.89,0,0,1-2.59,3.26c-11-16.69-21.76-33.11-32.57-49.52-6-9.13-11.25-19-18.41-27.09-3.74-4.25-10.76-5.83-16.52-8-5.42-2.05-11.14-3.3-17.46-5.12l4.68-3.65c5.68,2,11.21,4,16.83,5.75a6.18,6.18,0,0,0,4.43-.45q20.73-12,41.23-24.38c1-.63,1.73-2.81,1.62-4.19-.33-4.25-1.13-8.46-1.79-13C1159.08,703.27,1162.54,701.06,1166,698.79Zm-24.37-21.18c4.26,4.27,8.64,8.42,13.58,13.2-5.24,4.29-13,9.65-11.67,17.46,2.86,4.89,2.59,8.12-2.3,10.75-9.43,5.09-18.55,10.73-27.93,15.92-1.6.88-3.83.92-5.75.84a10.31,10.31,0,0,1-4-1.53c-8.69-4.51-16.59-2.27-24.42,3.28L1061.57,719a.78.78,0,0,1,.58-1.33c3.11,0,6.33-.49,9.31.13,3.27.67,6.25,2.87,9.52,3.4a13.5,13.5,0,0,0,8.25-1.11c11.86-6.69,23.46-13.84,35.19-20.75,6-3.55,3-9.29,1.91-13.07-2.47-8.26,5.07-7.5,8.08-10.59C1137.24,672.79,1139.49,675.48,1141.6,677.61Zm-29.76-31,20.54,22.11c-3.06,1.81-5.86,3.88-9,5.23-4.52,2-4.66,5.54-4.21,9.45,1.24,10.72.9,11.16-8.13,16.07-7.81,4.25-15.57,8.63-23,13.45a8.48,8.48,0,0,1-7.87.94c-3.42-1-6.76-2.61-10.24-3a21.93,21.93,0,0,0-9.55,1c-3,1-4.89,1-7.08-1.45-5.84-6.58-11.93-12.94-17.91-19.4a.69.69,0,0,1,.51-1.17c2.64.06,5.78-.9,7.92.15,10.57,5.2,19.73,3.86,29.2-3.24,7.83-5.88,16.73-10.39,25.43-15,3.23-1.71,3.46-3.93,3-6.66-.52-3.52-1.4-7-2.21-10.89Zm-22.61-23.43c5.63,5.92,11.06,12,17,18.57-3.26,1.86-6.1,3.66-9.1,5.15-4.41,2.2-5.08,6-4.25,10.13,1.93,9.75,2,9.63-6.16,13.89-7.12,3.72-14.89,6.76-21,11.81-6.59,5.5-12.5,4-18.71,1.22-5-2.24-9.42-2.61-14.28.36-1.16.71-4.21,0-5.34-1.15-6.23-6.2-12.14-12.73-19.42-20.48,4.52,0,8.21-1.11,10.57.19,10.72,5.87,19.55,2.56,28.67-3.78a206.2,206.2,0,0,1,23.53-13.67c4.93-2.54,4.91-6.13,3.86-10.44-1.73-7.09,2.7-13.69,10-14.2C1086.12,620.69,1088.08,622,1089.23,623.19ZM1064,597.57c5,6,11.14,11.07,17.19,16.95-2.37,1.27-4.06,2.19-5.77,3.09-9.11,4.78-10.3,6.85-7.65,16.47,1,3.72.68,4.92-3.09,6.78a277,277,0,0,0-26.79,15.53c-3.87,2.49-7.11,4.2-11.56,1.66-2-1.12-12.9-5.28-20.3-1-.84.49-3.06.55-3.7-.12-6.35-6.58-12.5-13.35-18.7-20.08a1.26,1.26,0,0,1,1-2.11c3.46.25,7.32-.15,9.94,1.46,10.48,6.49,18.44.32,26.81-4.27,6.75-3.71,13.28-7.81,20.09-11.41,8.76-4.64,9.47-5.4,7.08-14.52-.91-3.47-2-6.35,2.36-8S1058.85,591.37,1064,597.57ZM902.52,292a1.87,1.87,0,0,1,2.18-1.66,4.16,4.16,0,0,1,2.11.81c6.1,5.48,12,11.19,18,16.76,9.07,8.4,18.91,16.11,27,25.33,5.17,5.88,8.17,13.8,11.57,21.08,6.73,14.4,13,29,19.58,43.49q14.32,31.56,28.78,63.07c3.31,7.24-3.63,4.56-6.31-.95C998.1,444.8,991.05,429.5,984,414.19c-8.56-18.71-17-37.47-25.45-56.21-1.39-3.09-3.6-8.16-4.76-11.34-4.51-12.48-16.35-18.43-24.82-27.33-8.25-8.69-17.53-16.39-26.16-24.73C902.36,294.11,902.41,293.1,902.52,292ZM813.8,251.26c12.42-2.65,24.85-5.27,37.33-7.62,1.57-.3,3.88.75,5.18,1.92,11.41,10.3,22.68,20.76,34,31.18.67.62,1.3,1.36,2,1.89,5.43,4.2,5.88,6.62,3.26,12.07-1,2,.16,6.38,1.89,8.15,6.08,6.2,12.87,11.7,19.32,17.54,8.62,7.82,17.62,15.28,25.57,23.74,3.87,4.12,6,10,8.43,15.33,9.3,20.11,18.42,40.31,27.6,60.47,7.25,15.91,14.64,31.75,21.64,47.76,1.91,4.36,5,6.37,9.21,7.22,5.85,1.18,9.64,4.39,12.07,9.94,9,20.5,18.3,40.87,27.41,61.32,4,9,7.7,18,11.6,27a.53.53,0,0,1-.93.49c-4.91-7.78-10-15.43-14.83-23.26-16.34-26.56-32.79-53-48.82-79.78-6.66-11.11-12.17-22.9-18.62-34.14-1.9-3.31-5.8-5.46-7.85-8.72C960.56,410,952.3,395.94,943.81,382q-8-13.08-16.26-26c-3.71-5.76-10.2-7.56-15.84-10.53-16.15-8.47-32.26-17-48.46-25.37-10.06-5.19-20.43-9.8-30.38-15.17-12.5-6.74-24.75-13.94-37-21.07-3.7-2.15-7.14-2.36-11.31-1.14-5.47,1.61-11.16,2.44-18,3.73a.87.87,0,0,1-.84-1.38c3.77-5,2.69-8.83-.68-12.92-2.19-2.65-3.34-6.16-5-9.32C778.47,258.89,796.13,255,813.8,251.26Zm-61.61,12.91,9.58,16.39c-5.59,1.19-10.67,2.42-15.8,3.35-15.16,2.75-30.35,5.4-45.53,8.06-14.1,2.48-28.23,4.84-42.32,7.41-10.22,1.86-20.37,4.05-30.58,5.95-13.21,2.47-26.41,5-39.68,7.12-7.24,1.15-10.39-5.22-15.77-9.36ZM541.83,324.23C532.19,316,522.78,307.45,513.3,299c-.92-.82-1.67-1.85-3.11-3.47,11.36-2.49,22.05-4.91,32.8-7.1a5.31,5.31,0,0,1,3.87,1.33c11.79,10.18,23.38,20.61,35.24,30.71,12.79,10.88,25.9,21.4,38.71,32.25,9.26,7.86,18.19,16.11,27.42,24,13.88,11.86,28,23.47,41.83,35.35,9.84,8.45,19.32,17.32,29.19,25.73s20,16.59,30.17,24.67a4.49,4.49,0,0,0,2.56.66,2.07,2.07,0,0,0,2.13-2.27c-.16-1.65-.35-3.27-1.25-4.06-11.75-10.15-23.8-20-35.76-29.87-1.93-1.59-3.9-3.13-6.53-5.24,5.61-2.09,10.65-3.69,15.4-5.9a6.94,6.94,0,0,0,2.18-1.72,2.48,2.48,0,0,0-1.26-4.06,8.28,8.28,0,0,0-3.14-.27,21.79,21.79,0,0,0-7.9,3.26c-7.35,4.58-13,2.47-19.14-3-16.76-14.9-34-29.31-51.09-44,4.67-1.74,9-3.77,13.51-4.88,3.16-.78,4.35-2.49,3.14-4.87-.53-1.05-3.73-1.52-5.4-1.08-5,1.33-9.81,3.32-14.75,4.87-1.19.38-3,.58-3.84-.07-4.45-3.69-8.67-7.67-13.79-12.29,5.06-1.65,9.37-2.73,13.37-4.51a7.41,7.41,0,0,0,2.28-1.75,2.44,2.44,0,0,0-1.1-4,7.22,7.22,0,0,0-3.18-.35c-5.27.88-10.37,2.71-15.61,3.75a6.87,6.87,0,0,1-4.85-1.36c-5.85-4.48-11.5-9.21-18.26-14.69,2.48-.56,4-1,5.53-1.22,10.17-1.36,20.32-2.91,30.53-3.87,3.59-.34,7.82-.17,10.89,1.43,21.71,11.37,43.16,23.26,64.78,34.82,16.38,8.75,33,17.14,49.33,25.91,15.38,8.23,30.53,16.9,45.93,25.11,17,9,34.16,17.64,51.13,26.68,21.25,11.33,42.34,23,63.55,34.36,13.59,7.31,27.29,14.41,40.9,21.67,5.37,2.86,10.66,5.89,16.45,9.1l-73.36,37c-5.12,2.58-10.17,5.32-15.43,7.58-1.7.73-4.47.93-5.88,0-7.84-5-15.35-10.64-23.11-15.82-10.57-7.06-21.27-13.92-31.92-20.85a2.45,2.45,0,0,0-1.49-.5c-10.35,1.59-17-5.55-24.68-10.37-3.34-2.1-6.5-4.49-9.91-6.48a12.8,12.8,0,0,0-5.5-1.76,4.22,4.22,0,0,0-3.19,2.08c-.33.64.62,2.44,1.47,3.09,2.41,1.82,5.08,3.31,7.71,5-5.92,4.74-5.66,12.48.4,16.53q31.77,21.26,63.58,42.46c10,6.64,15.07,8.67,28.1-.85,13.16,11.13,26.9,22.16,40,33.94s25.71,24.57,38.54,36.88a.69.69,0,0,1-.91,1c-3.44-2.78-6.67-5.86-10.29-8.38-6-4.16-9.42-4.27-15-.15-3.64,2.7-5,1.37-8.11-1.48A218,218,0,0,0,903,598.79c-22.6-15.6-45.39-30.92-68.18-46.24-22-14.79-44.13-29.41-66.18-44.16-5-3.36-9.93-6.92-15.51-10.82,6.39-5.61,12.18-10.71,17.78-15.64.78.2,1.2.18,1.44.38,2.17,1.84,4.62,5.1,7.24,1.75s-.62-5.17-3.36-7c-8.63-5.82-4.54-5.34-17.3,3.92-3.8,2.76-7.18,6.11-11.59,9.92-3.12-3.35-6.07-7.21-9.7-10.25-5.48-4.57-11.6-8.38-17.17-12.86-12.1-9.72-24-19.67-36-29.51-3.9-3.2-7.48-8.32-11.85-9.14-8.61-1.62-13.14-7.82-18.93-12.79C636,401.18,618.39,385.89,600.5,371c-8.39-7-17.6-13-26.14-19.78C563.35,342.43,552.54,333.38,541.83,324.23Zm332,227.4c-4.64,4.88-8,5.13-12.6,1.85-7.33-5.24-14.78-10.32-22.25-15.36-14.09-9.5-28.26-18.86-42.3-28.43a6.5,6.5,0,0,1-2.69-4.26c-.38-3.46,5.43-2.16,7.13-1.28,5.88,3,11.34,6.86,16.87,10.52q21.78,14.36,43.5,28.82ZM572.3,411.74c7.56,5.89,15,11.61,22.37,17.46,10,8,19.91,16.11,30,24,5,4,10.34,7.62,15.55,11.37,4.95,3.56,5,5.43-.07,8.71-12.59,8.16-25.16,16.37-37.92,24.27-1.39.85-4.29.4-5.93-.48-8.12-4.39-16-9.16-24.06-13.74q-23-13.12-46-26.18c-4.46-2.54-8.91-5.1-14.62-8.36ZM351.68,398.55c5.6-7.27,11.21-14.52,17.3-22.4L664.85,543.48c-5.08,2.79-9.46,5-13.62,7.32-10.68,6-21.94,17.9-30.37,27.9-3,3.56-6.33,4.66-7.42,5.61-1.21,1.58,1.34,3.21,4.35,3s6.34-1.37,8-3.39c12-14.49,26.32-25.6,43.77-32.83,4-1.65,7.42-2.14,11,.27q19.41,13.14,38.75,26.36,18.45,12.6,36.84,25.28c11.22,7.76,22.31,15.69,33.53,23.44,12.3,8.48,24.59,17,36.77,25.63,7.43,5.29,15.08,10.43,21.94,16.42,5.74,5,5.3,5.34.07,11.12-4.09,4.53-8.65,8.88-11.56,14.12-1.59,2.86.14,7.42-.17,11.17-.79,9.75,6.07,14.88,11.86,20.83,23.08,23.7,46.52,47.08,68.76,71.54,5.41,5.95,10.47,7.3,17.45,8.47a15,15,0,0,0,13.66-4.83c4.38-4.87,10.1-8.57,15.29-12.86,5.07,5.5,10.39,9.61,13.37,15,2.54,4.6,2.54,10.66,3.39,16.12,1.93,12.42,2.91,25.07,5.82,37.25,1.6,6.68,6.15,12.73,9.73,18.85,7,12,14.35,24,21.55,35.9,6.72,11.15,13.85,22.07,20,33.54,2.33,4.37,2.53,9.94,3.41,15,1.23,7.07,2.22,14.18,3.19,21.29.16,1.18.17,2.94-.54,3.58-3.4,3.09-7.06,5.88-11.47,9.45-.38-8.37-1.72-15.55-.82-22.45,2-15.39-4-28-11.51-40.56-7.16-12-13.75-24.4-20.61-36.61-5-8.93-10.73-17.54-14.86-26.85-3.07-6.92-4.45-14.67-5.93-22.17-2.17-11.1-3.63-22.33-5.75-33.44a2.65,2.65,0,0,0-.31-.79,3.27,3.27,0,0,0-6,2.2c1.63,10.45,3.76,20.82,5.67,31.23.81,4.41,1.52,8.85,2.24,13.28,1.88,11.49,9,20.59,14.21,30.51,6.42,12.21,13.54,24,20.25,36.1,5.32,9.54,10.5,19.16,15.66,28.79a9.08,9.08,0,0,1,1.15,4c.08,12.09.05,24.19.05,37.55-7.92-7-18.18-10.21-19.89-21.94s-8.44-20.15-16.92-28c-12.22-11.32-23.62-23.53-35.5-35.24q-20.6-20.28-41.47-40.29c-1.14-1.1-3-1.47-4.55-2.14-1-.44-2.33-.51-3-1.23-8.32-8.9-16.42-18-24.86-26.8-2.67-2.78-2.77-4.51,0-7.14a59.13,59.13,0,0,0,8.2-9.4c.93-1.35,1.18-4.37.3-5.56-3-4.08-6.66-7.66-10-11.46-3.05-3.42-6-3.57-9.23-.12s-6.39,6.56-10.36,10.61l-40.73-44.32c3.86-4.2,7.8-7.9,10.9-12.2,1.07-1.47.89-5.06-.21-6.62-2.92-4.12-6.67-7.65-10.07-11.42-2.71-3-5.57-3.35-8.4-.3-3.39,3.67-6.64,7.45-10.32,11.6-9.1-10-17.15-18.88-25.22-27.73-3.92-4.3-7.32-9.37-12-12.62-5.85-4.09-5.09-9.92-6.15-15.36-1.6-8.26-2.84-16.6-4.44-24.86-.42-2.18-1.61-4.2-2.71-6.93,2.6-6.16,5.57-13.19,8.55-20.23,1.67-4,3.77-7.22,7.88-9.52,5.75-3.22,5.52-10.31.15-14.08l-51.57-36.21c-3.94-2.76-7.91-5.56-11.75-8.36-10.2-7.45-12.45-6.92-19.2-6.53-3.82.21-8.8,3.88-10.8,7.39C668.19,585,662,600.13,657.4,609.7c-2.31,4.83-2.77,10,1.53,13.13,17.63,12.69,35.35,25.26,53.82,38.43-6.51,5.66-12.59,11-18.75,16.28-6.46,5.51-13,10.94-19.5,16.39q-19.32,16.17-38.66,32.32c-9.83,8.25-19.66,16.51-29.37,24.91a7,7,0,0,0-2,4.27c-.89,9.19-1.53,18.4-2.31,27.6-1.09,13-3.28,42.74-4.67,41.38q-8.94-11.73-17.86-23.45c-7.21-9.44-14.51-18.8-21.63-28.3-10.6-14.15-21-28.42-31.64-42.56-9.16-12.23-18.53-24.31-27.68-36.56C479.41,667.8,460.28,642,441,616.23Q414.73,581,388.29,545.89q-18.48-24.6-37-49.13c-1.86-2.46-2.22-4.51-.43-7.2,8.83-13.3,17.53-26.69,26.42-40.26,7,4.21,25.63,15.12,30.41,17.85-6.86,7.19-12.89,13.33-18.64,19.72a4.68,4.68,0,0,0-.73,2.81,2.24,2.24,0,0,0,1.85,2.32c1.31.22,2.59.41,3.22-.14,5.29-4.65,10.28-9.65,15.21-14.68,1.93-2,3.67-4.09,6.82-2.44,6.58,3.44,20.67,9.87,20.67,9.87-5.46,5.11-10.73,10-16,14.93-.93.88-2.28,1.69-2.59,2.77a10.85,10.85,0,0,0-.28,3.19,1.87,1.87,0,0,0,2.13,1.81,4.62,4.62,0,0,0,2.48-.85c6.12-5.45,12-11.15,18-16.76,1.27-1.19,3.12.14,7,1.91,7.21,3.33,75,40.36,75,40.36-6.49,6.06-12.68,12.2-19.3,17.82-2.14,1.82-3.81,2.74-1.49,5.41s3.92,1.33,5.88-.54c6.29-6,12.72-11.9,17.94-16.76,11.22,5.61,21.5,11.24,32.19,15.92,8.2,3.59,16.93,6,25.78,9-.46,3.52-1.72,8,4.28,6.95,1.73-.3,4-1.93,4.6-3.48,2.84-7.89,5.17-16,7.75-24,1.1-3.41.47-5.88-2.92-7.69Q577.23,524.36,558,513.81c-17.51-9.59-34.93-19.33-52.47-28.85-16.42-8.92-33-17.57-49.4-26.49-17.31-9.41-34.49-19-51.77-28.49-7.52-4.11-15.13-8.05-22.76-12-4.54-2.33-6.16-1.29-7.24,3.75s-3.71,15.62-4.36,9.86c-.67-6-2.66-10.73-8.38-13.45a65.79,65.79,0,0,1-7.48-4.26C348.36,410.16,347.41,404.1,351.68,398.55ZM885,891.57c.23,3.89,1.47,7.71,1.85,11.6.12,1.19-.9,2.83-1.88,3.74q-11.19,10.32-22.6,20.42c-5.13,4.55-10,9.55-15.78,13.13-2.59,1.62-7,.27-12.29.27-10.76-.1-16,2.93-25.1,9.17l-18.11-20.09c1.28-1,2.72-1.68,3.34-2.79,4.26-7.69,11.65-7.34,17.57-4.7,8,3.6,12.92.16,18.13-4.54,11.58-10.45,23-21.07,34.79-31.29,3.46-3,4.38-6.64,3.25-10.21-3.41-10.8.67-17.74,10.77-22.66L896.8,873c-3.5,3.91-7.16,7.49-10.13,11.58A11.5,11.5,0,0,0,885,891.57ZM666.33,767.73c2.52-4,7.7,2.87,10.93.15,7.61-6.41,15.23-12.79,22.81-19.22S715,734.86,723.25,729c11.33-8,3.21-12.85,6-14.87,4.77-4.44,6.28,6.88,19.2-5.07l7.53,7.74-92.08,77.51-8.38-8.78C672.28,775.17,662.53,770.22,666.33,767.73Zm92.83-43.3,33.91,36.84c-4.46,3.69-8.57,6.64-12.06,10.21-1.43,1.48-2.11,4.29-2.07,6.48.06,4.11,1.46,8.24,1.18,12.29-.16,2.29-2.14,4.9-4,6.54q-18,15.66-36.35,30.85c-1.18,1-3.43,1.15-5.08,1-4.62-.57-9.18-2.08-13.78-2.13-2.72,0-5.66,1.68-8.15,3.2s-4.66,3.81-7.17,6c-9.4-10.21-18.42-19.9-27.25-29.76-1.1-1.23-.84-3.61-1.8-5.07s-2.71-2.45-4.24-3.76Zm-47.75,116c5.93-9.36,14.35-7.18,22.73-4.83,4.23,1.18,7.3.21,10.74-2.85,10.7-9.53,21.89-18.49,32.85-27.73,5.91-5,11.75-9.36,8.41-19.24-3.17-9.39,4.7-14.1,11.31-18.65l22.16,22.22c-3.24,3-6.28,6.36-9.86,9-4.67,3.41-5.14,8.18-3.81,12.67,2.26,7.64.78,12.52-6,17.53-10.31,7.61-19.45,16.8-29.07,25.34-3.65,3.24-7.22,5.63-12.59,3.35-3.38-1.44-7.4-2.47-11-2.08-3,.34-5.91,2.82-8.68,4.61-2.37,1.54-4.5,3.47-6.65,5.15l-21.65-23.83C710.68,840.9,711.21,840.78,711.41,840.46Zm33.74,22.68a3.85,3.85,0,0,1,2.26-1c1.79,0,3.8-.18,5.35.53,9.44,4.32,17,2.13,24.42-5a419.67,419.67,0,0,1,32.46-28c7-5.44,4.18-11.67,3-17.62-.86-4.45.07-7.37,3.37-10,2.69-2.12,5.36-4.28,8.45-6.74l22,23.11c-3,2.81-5.66,5.8-8.82,8.09-4.52,3.27-6,8-4.32,12.46,3.8,10.19-2.25,15.25-8.87,20.72-8.78,7.28-17.78,14.43-25.63,22.65-4.8,5-9.39,5.41-15.18,3.84-1.37-.37-2.79-.63-4.17-1-5.42-1.47-10.36-1.45-14.07,3.74-1.49,2.08-3.38,3.86-5.74,6.51l-22.6-25C740.09,867.71,742.58,865.37,745.15,863.14Zm24.66,31.41c3-2.33,5.81-4.42,10.19-2.46a22.48,22.48,0,0,0,10.44,2.08,17.74,17.74,0,0,0,9.57-3.69c12.34-10.38,24.16-21.38,36.55-31.71a11.77,11.77,0,0,0,4.05-13.16c-2.72-9,.41-14.64,8-18.92a17.6,17.6,0,0,0,2.87-2.65l22.15,23.74c-1.72,1.4-3.3,2.88-5.07,4.1-8.69,6-9.45,14.22-6.92,23.55,1.5,5.52-3.38,7.74-6.39,10.5-6.91,6.36-14.31,12.19-21.41,18.35-4.39,3.81-8.55,7.89-12.93,11.71a4.22,4.22,0,0,1-3.16.88c-4.89-1-9.7-2.45-14.61-3.3a7.39,7.39,0,0,0-5.17,1.23c-3.74,2.83-7.15,6.1-11.33,9.75l-23-25.09C766.08,897.49,767.93,896,769.81,894.55Zm-21.13-249c-3.62-2.44-6.73-4.44-9.73-6.59-7.43-5.35-14.87-10.68-22.19-16.17Q697.1,608,677.59,593.06c-3.14-2.4-2-8.87,1.95-12.24,6.81-5.78,9.27-5.66,18,.45,16.73,11.7,33.54,23.29,50.25,35,5.09,3.57,10,7.45,15.77,11.84C754.61,630.86,751.92,638.08,748.68,645.52ZM604.81,844.88c3.16,4.14,6.09,8.45,10,13.87-7.95-3.73-14.76-6.91-21.56-10.11q-27.36-12.87-54.72-25.75c-15-7.09-30.07-14.26-45.14-21.31-25.66-12-50.87-25.14-77.16-35.54-25.38-10-49.65-22.31-74.38-33.62-3.38-1.54-5.2-6.82-7.4-10.57-16.71-28.43-33.25-57-50.05-85.33-4.94-8.34-10.6-16.25-15.74-24.48a4.7,4.7,0,0,1,.13-4.15c6.73-10.17,12.57-21.22,20.84-30,6.79-7.19,9.88-16.26,16-23.59s11.45-15.65,17-23.61c7.26-10.41,14.4-20.89,22.1-32.08,13.31,17.9,25.88,35,38.62,51.9C397.55,569.37,412,588,426.15,606.84c9.52,12.62,18.77,25.45,28.29,38.08,8.44,11.21,17.16,22.21,25.59,33.43,7,9.32,13.69,18.91,20.68,28.25,11.3,15.11,22.82,30,34.1,45.18,13.54,18.14,26.81,36.47,40.39,54.58C584.91,819.31,595,832,604.81,844.88ZM256.28,550c7.2-9.37,14.26-18.85,21.33-28.33,6.86-9.21,12.73-19.39,20.78-27.41,6.08-6.06,9-13.88,14.67-20s10.11-13.47,15.28-20.14c4.85-6.24,9.94-12.28,15.16-18.71l17.05,9.88c-10.27,14.54-20.37,28.67-30.3,42.93S310.8,516.66,301,530.79c-10.23,14.72-20.61,29.34-30.91,44-1.42,2-2.28,4.71-4.14,6.07s-5.17,2.73-7,2c-7-2.7-13.78-6.26-20.94-9.64C244.07,565.51,250.28,557.85,256.28,550Zm-37,144.34c-6-7.69-15.5-12.56-23.26-18.93-7-5.74-13.72-11.81-20.59-17.76,5.42-7.78,10.57-15.31,15.91-22.72,1-1.39,21.19-25.73,28.16-36.62a152.32,152.32,0,0,1,11.82-15.4,5.12,5.12,0,0,1,4.51-1.28c5.82,2.15,11.47,4.75,17.18,7.19,8.66,3.71,14.49,2,19.75-5.77,6.35-9.35,12.72-18.68,19.23-27.92,1-1.43,2.84-5,4.21-3.44l.93,1.06Q284.26,571.37,271.4,590c-3.87,5.62-7.86,11.17-11.28,17-.92,1.57-.7,4.68.28,6.32,6.29,10.61,13.09,20.92,19.43,31.51,8.94,14.92,17.65,30,26.41,45,6.76,11.6,13.78,23.06,20,34.92,5,9.41,13.15,13.91,22.24,18.08,20.6,9.44,41,19.39,61.42,29.13,25,11.88,49.91,23.86,74.95,35.61,22.84,10.73,45.79,21.26,68.72,31.8,17,7.83,34.12,15.51,51.14,23.34,5.21,2.39,10.12,5.55,15.48,7.44,4.1,1.44,8.89,2.55,13,1.87,11.07-1.8,16.67,2.67,15.91,14.67-8.48,0-17,.26-25.55-.2-2-.11-3.59-3.08-5.68-4.09-3-1.46-111.57-38.51-115.4-39.19-6.9-1.22-7.38-5.84-8.26-11-.83-4.91-1.45-10.08-3.55-14.47-1.24-2.59-4.92-4.58-7.93-5.68q-45.36-16.53-90.88-32.61c-13.47-4.77-27.13-9-40.58-13.82-13.61-4.86-27.14-9.92-40.53-15.33a44.42,44.42,0,0,1-11.18-7.21c-14.07-11.63-28-23.46-41.9-35.25-1.53-1.3-2.87-2.83-4.29-4.26a12.5,12.5,0,0,0-12.39-3.63C232.73,702,226,703,219.26,694.37Zm28.31,35.19c-5.12-4.25-10.74-8-15.49-12.6-1.4-1.36-1.48-4.73-1.1-7,.18-1.06,2.83-1.82,4.45-2.5,8.87-3.74,14.35,1.79,20.29,7.06,8.78,7.79,18,15.09,27.07,22.53,4.73,3.88,10.31,7,14.19,11.57,7.21,8.52,17.5,10.21,26.94,13.67,29.2,10.71,58.55,21,87.86,31.45q33.59,11.94,67.24,23.71c4.21,1.46,6.89,2.92,8.14,8.61,1,5.62,3.32,12.91,1.06,12.16-9.46-3.52-18.88-7.14-28.38-10.54-14.94-5.35-29.94-10.52-44.89-15.83q-24.49-8.7-48.94-17.55c-15.88-5.76-31.69-11.71-47.57-17.47-6.67-2.41-13.89-3.72-20-7.05-6.38-3.46-11.75-8.82-17.52-13.39C269.72,747.53,258.55,738.67,247.57,729.56ZM224,837.06c4-3.49,7.69-7.12,11.86-10,1.52-1.06,5.06-1.33,6.34-.3q28.14,22.62,55.86,45.77c14.3,11.89,28.45,24,42.69,35.94a5,5,0,0,0,1.34.64l-14.55,15ZM681.91,988.68c-11.95-1.4-23.85-3.35-35.75-5.15-12.8-1.94-25.57-4-38.36-6-11-1.7-22-3.35-33-5-12.79-2-25.57-4-38.36-5.91-11.74-1.75-23.49-3.34-35.23-5.11-7.28-1.1-14.52-2.47-21.8-3.57-11.91-1.8-23.85-3.4-35.75-5.23-10.82-1.67-21.6-3.61-32.42-5.28-10.67-1.63-21.37-3.06-32-4.6q-15.21-2.19-30.42-4.44a4.08,4.08,0,0,1-1.94-.77c-4.3-3.52-8.56-7.1-13.09-10.89,4.81-4.73,9.37-9.5,14.26-13.92,3.45-3.12,2.43-5.85-.38-8.18q-30.82-25.6-61.83-51c-13.53-11.1-27.16-22.07-40.76-33.07-3.82-3.09-8.38-2.81-12.11.33-4.28,3.59-8.71,7-12.95,10.39l-33.29-27.41c11.58-8,22.3-17.66,34.77-23.59,14.8-7,27.49-17.09,41.57-25.06,3.48-2,5.28-1.08,7.57.72,7.24,5.66,14.32,11.53,21.64,17.08,2.19,1.66,5,2.44,7.48,3.79,2,1.08,42.55,35.83,54.27,46.16,2.67,2.35,41.28,39.12,48.61,44.92,14.13,11.18,28.15,22.49,42.3,33.65,4.69,3.69,8.64,8.34,16,7.54,3.42-.38,7.29,2.58,10.85,4.26,27.81,13.11,55.66,26.15,83.36,39.49,10.68,5.15,25,8.74,36.61,11.12,24,4.93,71.23,15.37,79.36,16.93,2.37.45,5.67-1.64,7.9-3.39,2.69-2.13,4.29-2.84,7.07,0,3.08,3.2,7,5.62,10.53,8.37C692.57,992.74,686.78,989.25,681.91,988.68ZM819,1007.33c-16-11.7-33-24.25-50.16-36.78Q738.42,948.28,708,926q-18.23-13.32-36.5-26.58c-4.69-3.43-9.46-6.76-13.9-10.49a6.09,6.09,0,0,1-1.62-4.94c1.57-8.37-5.75-19.07-14.06-17.83-11.6,1.73-17.31-4.31-22.88-12.55-4.42-6.54-9.6-12.56-14.36-18.88a5.53,5.53,0,0,1-1.17-3.35c1.32-15.65,2.78-31.29,4.18-46.93.76-8.47.8-17.08,2.53-25.33.74-3.54,4.6-6.78,7.67-9.41,12.89-11,26-21.8,39-32.68q20-16.65,39.91-33.35c7.47-6.29,14.83-12.71,22.21-19,10.37,9.58,17.07,11.11,25.66,6.31a17.62,17.62,0,0,1,1.52,3.61c1.12,6.35,2.32,12.71,3,19.11a8.11,8.11,0,0,1-2.16,5.7c-3,3.11-6.55,5.7-9.91,8.54-5.67-3.93-6.37-3.79-13.24,2.66-4.76,4.47-4.76,4.47-1.7,9.7l-48,39.86c-3.06-.51-5.83-1.91-7.3-1.06-8.51,5-10.26,8.26-8.69,14.51-3.41,2.84-7.13,5.44-10.14,8.7-1.12,1.22-1.51,4.72-.6,5.9,4.78,6.14,9.95,12,15.24,17.7,20.36,22,40.85,43.76,61.22,65.7q18.75,20.17,37.26,40.57c7.9,8.73,15.48,17.75,23.33,26.53,7.56,8.45,15.14,16.89,23.11,25,1.06,1.07,5,.73,6.57-.41,4.24-3.06,7.78-7.08,11.89-10.35a8,8,0,0,1,5.44-1.35A88.73,88.73,0,0,1,842,953.78c4.94,1.18,8.78-1,12.27-4.06,4-3.45,7.81-7.07,11.74-10.57,9.62-8.56,19.35-17,28.81-25.72a10,10,0,0,0,3.07-6.38c.07-4.85-1-9.7-1.17-14.57a7.63,7.63,0,0,1,1.76-5.31c3.8-3.57,8-6.68,12.35-10.16,6.47,6.45,12.94,13,19.51,19.44,17.36,17,34.34,34.48,52.29,50.88,10.21,9.33,16.65,19.94,18.35,34.37-7.72,2.69-15.91,5.59-24.13,8.42-21.31,7.32-42.59,14.69-64,21.79-2.55.85-5.66.54-8.44.16-15.13-2.08-30.21-4.68-45.38-6.45-11-1.28-22-1.74-33.08-2.11C824,1003.45,822,1005.62,819,1007.33Zm13.24,48.31c-1.76-14.49-3.6-29.12-5.2-43.78-.1-.9,1.52-3,2.62-2.87,31.1,2.59,34.49,1.31,23.06,14.68-7.81,9.14,1.33,28.09,14.14,30.67,6.86,1.39,12.91,1.7,19.37-.4a3.85,3.85,0,0,1,3.1.74c4,3.41,7.85,7,11.94,10.7,2.78,2.85,3.28,6.7-1.64,5.37-13.37-4-60.49-15.52-59.3-15Zm211.68,97.23c.1,2.05-.38,4.37.42,6.09,1.39,3,3.57,5.66,4.93,7.73-23.46-8.53-48.73-12.25-73.44-18.16-17.4-4.17-34.79-8.41-52.22-12.46-20.39-4.74-40.83-9.29-61.24-14-4.89-1.12-9.73-2.42-14.6-3.62-6.68-1.65-6-7.83-6.68-12.34-.94-6.46-.23-13.16-.24-19.76,0-6.1-.18-10.44-.15-11.55.11-3.8,1.27-4.64,5-3.37q32.27,11,64.65,21.61c21.2,6.92,42.54,13.44,63.73,20.39,16.46,5.39,32.75,11.31,49.19,16.76,18.85,6.25,37.8,12.17,56.68,18.35,11.88,3.89,23.69,8,35.54,12,5.06,1.7,10.15,3.3,15,4.88-.18,1.92-.34,3.68-.58,6.34-2.42-.42-4.79-.7-7.11-1.24C1099.1,1165.07,1045.62,1153.14,1043.92,1152.87Zm-28.29-43.47c1.1-5.41,2-9.78,3.09-15.22,9.92,3.48,18.84,6.69,27.82,9.73,5.4,1.83,10.89,3.38,16.34,5.07,3.94,1.23,5.79,3.2,3.64,7.62-1.2,2.48-1.38,5.45-2.16,8.84Zm181.14,82c-18.67,2.76-37.43,5-56.08,7.82-9.57,1.46-18.37-1.64-27.35-3.55-17.49-3.71-34.87-7.93-52.29-12a46.06,46.06,0,0,1-4.39-1.5v-7c24.07,5.51,47.89,11.06,71.77,16.31a35.76,35.76,0,0,0,11.08.15c9.86-1,19.69-2.2,29.51-3.51,8.72-1.16,17.4-2.58,26.1-3.89.71-.11,1.45-.54,2.11-.43C1203.2,1184.79,1204.9,1190.17,1196.77,1191.37Zm4.55-16.34a1.89,1.89,0,0,1-.5.28c-9.88-.15-59.72,5.81-63.56,8.09l1.82-21.26,63.67-4.55C1202.25,1163.7,1201.79,1169.26,1201.32,1175Zm10.75-30.64c-6.43,9.75-16.79,7.6-26,8.48-14.06,1.35-28.14,2.72-42.24,3.12-6.12.17-18-11.86-19.47-12.43-4.81-1.9-9.83-3.32-14.8-4.79-12.84-3.82-25.7-7.56-39.45-11.6,1.74-5.74,3-11.3,5.13-16.48,1.6-3.86,1.34-5-3-6.35-14.72-4.41-29.25-9.46-43.84-14.32-3.73-1.24-7.34-2.84-11.11-3.94-4.35-1.27-4.88.21-5.25,4.69-.44,5.38-2.52,10.62-4,16.26l-68-22.63c2.21-11.3,4.24-22.21,6.56-33.05a6.32,6.32,0,0,1,3.19-4q32.46-13.17,65.06-26c8.11-3.2,16.34-6.11,24.45-9.3a21.59,21.59,0,0,0,5.51-3.21c7.81-6.26,7.94-6.29,14.43,1.54,8.24,8.3,30.94,29.75,47.55,41.5,6.14,2.19,6,8.89,5.09,15-.58,4,.52,5.55,3.32,8,9.95,8.63,19.62,17.6,29.09,26.76,4.94,4.78,10.17,7.67,17.29,7.41,2.47-.08,5.32,1.55,7.47,3.11a74.93,74.93,0,0,1,9.78,8.63c2.19,2.28,3.53,5.39,5.77,7.61,2.42,2.39,5.16,4.84,8.24,6.11,7.07,2.91,12.09,4.33,19.87,7A5.33,5.33,0,0,1,1212.07,1144.39Zm-30-30.36c12.26,4.92,24,10.91,34.67,21.68C1201.77,1132.28,1189.26,1127.79,1182.07,1114Zm51.5,1.58h0a.87.87,0,0,1-1.09.26c-12.13-6.18-24.27-12.32-36.33-18.61a3.38,3.38,0,0,1-1.25-1.61,1.35,1.35,0,0,1,.84-1.89,3.87,3.87,0,0,1,2.34-.19c7.26,2.84,14.8,5.28,21.49,9.16,5.16,3,9.33,7.68,13.88,11.71A.87.87,0,0,1,1233.57,1115.61Zm.46-13c.12-2.37,2-7.74,1.07-9-5.24-7.09-10.64-14.09-16.41-20.75-2.4-2.77-5.81-4.67-8.84-6.85-6.24-4.52-12.53-9-19.7-14.09,5.35-2.49,9.91-5,14.74-6.66a7.61,7.61,0,0,1,6.07,1.13c14.65,10.93,24,26,32.38,41.87,3.32,6.31,3.94,7.56,8.85,7a1.07,1.07,0,0,1,.9,1.8C1249.09,1101.09,1242.12,1103.11,1234,1102.61Zm20.27,21.27c-2.33-8.25-1.77-9.83,4.9-14.61,2.18-1.55,4.65-2.78,6.55-4.61s3.23-4.21,4.74-6.24l8,3.2C1275.78,1107.32,1260.32,1121.61,1254.3,1123.88Zm26.93-64.64a8.53,8.53,0,0,1,.38,3c.12,5.67.12,9.07.12,13.21l-5,1.47c-1.13-10.54-2.24-20.89-3.36-31.24a1,1,0,0,1,1.89-.5C1277.23,1049.89,1279.3,1054.54,1281.23,1059.24Zm45.49,15.06c-6.64-14.28-18.73-22.81-30.76-31.44-6.28-4.5-12.9-8.72-18.32-14.11-2.37-2.36-2.13-7.34-3.08-11.13,0-.93.47-1.14,1.66-.26,8.75,6.3,17,13.42,26.37,18.65,8.49,4.76,12.91,12,17.18,19.93,2.39,4.42,5,8.75,7.15,13.26C1327.59,1070.58,1327.23,1072.46,1326.72,1074.3Zm22.69-85.65c-1.5,5.7-1,12-1.64,17.84a146.17,146.17,0,0,0-.87,14.79c-.12,9.22-2.36,12.57-11.85,16q-4-8.16-8-16.37c-1.57-3.2-2.91-6.57-4.92-9.47a4.37,4.37,0,0,0-2.31-1.37,2.42,2.42,0,0,0-3.08,1.74,5.41,5.41,0,0,0-.12,3.4c2.75,6,6,11.74,9.25,17.45a32.34,32.34,0,0,1,4,22.42c-3.18-4-5.78-7.68-8.84-10.94-4.31-4.6-8.59-9.34-13.54-13.17-9.8-7.57-20.09-14.49-30.07-21.81a10.33,10.33,0,0,1-4.5-8.72c-.21-6.8-1.68-13.55-2.58-20.33-.26-1.89-.39-3.8-.65-6.34,7,6,13.55,11.34,19.85,17,1.18,1.05,1.4,3.13,2.33,4.57s2,3.36,3.08,3.36c1.52,0,3.36-1.25,4.51-2.48,3.65-3.9,4.4-8.44,2-13.32a10,10,0,0,0-2-3.16c-11.94-10.23-23.9-20.44-36-30.48-1.19-1-3.37-.77-5.06-1.22s-3.8-.69-5.24-1.7c-2.23-1.56-4.05-3.69-6.41-5.93,3.54-3.23,2.5-6-.55-8.62-11.63-10.09-23.29-20.14-34.76-30.42-5.18-4.64-9.93-9.75-15.28-15,4.6-7.59,9.09-15.17,13.76-22.64,6-9.55,12.11-19,18.08-28.54,2.38-3.79,5.14-7.51,6.63-11.66,2.4-6.72,8.42-5,12.83-5.77,7.29-1.28,14.84-1.12,22.29-1.26,1.48,0,3.82.94,4.35,2.1,7.62,16.55,15,33.21,22.78,50.64-5.31,0-9.69.16-14.07-.05-3.55-.17-4.68,1.42-3.16,5,6.29,14.82,12.45,29.69,19,44.38.73,1.61,3.87,2.92,5.93,3,2.94.09,5.91-1.17,8.89-1.74,3.29-.63,5.48.52,6.78,3.82,5.12,13,10.39,25.91,15.6,38.87.07.16,0,.42.12.52C1337.86,964.68,1352.88,975.53,1349.41,988.65ZM592.12,686.8c8.16,6.78,16.72,13.09,25.21,19.45,2.64,2,5.62,3.51,9,5.57,2.78-1.74,5.33-3,7.45-4.72,9.88-8.18,19.57-16.6,29.5-24.72,4.75-3.89,5.13-7.3.37-10.71-9.92-7.11-20-14-29.81-21.24-3.51-2.6-6.2-2.69-9.52.11-10.49,8.83-21.1,17.51-31.69,26.23C587.54,681,587.14,682.67,592.12,686.8Zm16.47-9.33c6.4-7.12,13-14.09,20.22-21.91,7,6.91,13.1,12.86,19.05,19,2.81,2.89,1.22,8.4-2.76,10.88-7.26,4.53-14.46,9.16-21.39,13.55L606.3,686.08C606.63,684.6,607.75,678.41,608.59,677.47Zm253.3-176.24c10.41,6.94,20.86,13.84,31.45,20.5,1.59,1,4.46,1.45,6.06.71,9.68-4.51,19.22-9.32,28.66-14.3,2-1.07,4.69-3.18,4.83-5s-2.12-4.38-4-5.69c-8.19-5.77-16.57-11.27-25-16.73-2.69-1.74-5.65-3-8.42-4.5-2.09.83-4,1.44-5.72,2.29Q876,485.21,862.31,492C857.26,494.52,857.05,498,861.89,501.23ZM893.38,489c1.89-.57,4.6.8,6.67,1.81,5.92,2.87,11.7,6,18.53,9.58-5.18,3.74-9.89,6.74-14.11,10.31-4.05,3.41-7.36.9-10.73-.68-8-3.77-15.86-7.79-25-12.32C877.54,494.48,885.36,491.38,893.38,489ZM237.83,688c3.56-.48,7.13-.84,10.66-1.47,5.78-1,13.57-9.45,14.95-15,1.15-4.63-6-16.92-10.08-18.39a70,70,0,0,0-11.9-2.79,28.61,28.61,0,0,0-6.61-.11c-8.64.51-13,6.8-17,13.21a11.47,11.47,0,0,0-1.5,8C219,681.22,229.36,689.15,237.83,688Zm841.56,364.25c-10.16-9-20.24-18.19-30.47-27.15-2.2-1.92-4.92-3.24-7.34-4.8-2,.84-3.45,1.14-4.5,2-11,8.71-22,17.54-33,26.27-3.75,3-3,5.79.06,8.54q16.8,15.33,33.69,30.57c5.29,4.78,6.71,4.4,12.59-.61,9.33-8,18.89-15.63,28.52-23.22C1083.77,1060,1084.07,1056.37,1079.39,1052.2Zm-32.58,25.62c-7.45-5.23-31.85-19.93-35.43-23.48l27-22.52c9.17,6.84,26.67,20.35,33.69,25.55Zm233.54-187.67c-11.09-9.85-22.33-19.53-33.6-29.17-2.82-2.42-6-2.27-8.89,0q-14.73,11.88-29.38,23.84c-3.29,2.67-3.3,5.27-.07,8.11,9.94,8.73,19.74,17.61,29.74,26.26,2.59,2.24,5.72,3.85,8.89,5.94,2.31-1.28,4.11-2,5.54-3.11,9.14-7.33,18.16-14.8,27.3-22.13C1283.83,896.78,1284.28,893.64,1280.35,890.15Zm-33.76,24.94-29.76-26.42c1.51-1.34,3-2.85,4.65-4.11,6.27-4.71,12.51-9.46,19-13.89,1.14-.78,3.86-.8,4.87,0a87.81,87.81,0,0,1,9.53,9.37c4.79,5.33,9.36,10.87,14.42,16.78ZM863.66,299.36c2.34-.61,6.39-1,9.86-2.68,10.11-4.84,11-15.23,2.4-22.38-8.24-6.86-17.22-7.41-27.18-4.78-6.14,1.63-10.17,7-8.56,13.15C842.74,292.51,851.57,299.23,863.66,299.36Z"/></g><g id="Thrusters"><path d="M1237.68,758.12c-.14-.87-2-2.09-3-2.08-3.56,0-7.29,0-10.62,1.08a12.17,12.17,0,0,0-6.65,5c-.74,1.38.79,4.92,2.35,6.35s4.34,1.24,6.08,1.65C1231.68,770.17,1238.5,763.14,1237.68,758.12ZM248.17,666.37c-7.7-6-20.72-5.4-18.77,5.32,1.54,5.32,10.7,3.79,16.14,3.16,1.57-.18,5.38-4.72,3.93-7.22Zm634,362c-1.82-1.11-11.52-7-17.81-1.22-3.64,7.45-2.39,11.2,5.28,14.37,4.12,1.71,9.11,5.52,12.84-.68a14.93,14.93,0,0,0,1.74-7.24C884.23,1031.78,883.47,1029.14,882.16,1028.35ZM870.1,285c-.7-3.08-6.83-9.49-12.34-8.46-2.66.85-3.87.58-5.44,1.86s-2.82,2.81-2.14,5.43c.9,3.51,6.39,5.17,9.8,6.14C863.12,290.9,870.71,287.7,870.1,285Z" fill="#007aff"/></g></g></svg>